<svg width="24" height="24" viewBox="0 0 24 24" xmlns="http://www.w3.org/2000/svg">
<path d="M11 2C9.02219 2 7.08879 2.58649 5.4443 3.6853C3.79981 4.78412 2.51809 6.3459 1.76121 8.17317C1.00433 10.0004 0.806299 12.0111 1.19215 13.9509C1.578 15.8907 2.53041 17.6725 3.92894 19.0711C5.32746 20.4696 7.10929 21.422 9.0491 21.8079C10.9889 22.1937 12.9996 21.9957 14.8268 21.2388C16.6541 20.4819 18.2159 19.2002 19.3147 17.5557C20.4135 15.9112 21 13.9778 21 12C21 10.6868 20.7413 9.38642 20.2388 8.17317C19.7363 6.95991 18.9997 5.85752 18.0711 4.92893C17.1425 4.00035 16.0401 3.26375 14.8268 2.7612C13.6136 2.25866 12.3132 2 11 2ZM11 20C9.41775 20 7.87104 19.5308 6.55544 18.6518C5.23985 17.7727 4.21447 16.5233 3.60897 15.0615C3.00347 13.5997 2.84504 11.9911 3.15372 10.4393C3.4624 8.88743 4.22433 7.46197 5.34315 6.34315C6.46197 5.22433 7.88743 4.4624 9.43928 4.15372C10.9911 3.84504 12.5997 4.00346 14.0615 4.60896C15.5233 5.21447 16.7727 6.23984 17.6518 7.55544C18.5308 8.87103 19 10.4177 19 12C19 14.1217 18.1572 16.1566 16.6569 17.6569C15.1566 19.1571 13.1217 20 11 20ZM11 6C10.7348 6 10.4804 6.10536 10.2929 6.29289C10.1054 6.48043 10 6.73478 10 7V10.27L8.9 9.63C8.66927 9.49739 8.3953 9.46187 8.13837 9.53126C7.88145 9.60065 7.66261 9.76926 7.53 10C7.3974 10.2307 7.36188 10.5047 7.43127 10.7616C7.50066 11.0186 7.66927 11.2374 7.9 11.37L10.5 12.87H10.57H10.66C10.7644 12.9338 10.8797 12.9778 11 13C11.1166 12.9967 11.2316 12.973 11.34 12.93H11.42C11.5243 12.8845 11.6192 12.8201 11.7 12.74C11.7548 12.6806 11.805 12.6171 11.85 12.55C11.85 12.55 11.85 12.55 11.85 12.49C11.8745 12.4316 11.8945 12.3714 11.91 12.31C11.9147 12.2434 11.9147 12.1766 11.91 12.11C11.91 12.11 11.91 12.11 11.91 12.05V7C11.911 6.74966 11.8181 6.50805 11.6496 6.3229C11.4811 6.13775 11.2493 6.02253 11 6Z" />
</svg>
