<svg width="24" height="24" viewBox="0 0 24 24" xmlns="http://www.w3.org/2000/svg">
<path d="M17 6.78V3C17 2.73478 16.8946 2.48043 16.7071 2.29289C16.5196 2.10536 16.2652 2 16 2H8C7.73478 2 7.48043 2.10536 7.29289 2.29289C7.10536 2.48043 7 2.73478 7 3V6.78C6.6874 7.05959 6.4369 7.40161 6.26465 7.78399C6.09241 8.16637 6.00225 8.58062 6 9V15C6.00225 15.4194 6.09241 15.8336 6.26465 16.216C6.4369 16.5984 6.6874 16.9404 7 17.22V21C7 21.2652 7.10536 21.5196 7.29289 21.7071C7.48043 21.8946 7.73478 22 8 22H16C16.2652 22 16.5196 21.8946 16.7071 21.7071C16.8946 21.5196 17 21.2652 17 21V17.22C17.3126 16.9404 17.5631 16.5984 17.7353 16.216C17.9076 15.8336 17.9977 15.4194 18 15V9C17.9977 8.58062 17.9076 8.16637 17.7353 7.78399C17.5631 7.40161 17.3126 7.05959 17 6.78ZM9 4H15V6H9V4ZM15 20H9V18H15V20ZM16 15C16 15.2652 15.8946 15.5196 15.7071 15.7071C15.5196 15.8946 15.2652 16 15 16H9C8.73478 16 8.48043 15.8946 8.29289 15.7071C8.10536 15.5196 8 15.2652 8 15V9C8 8.73478 8.10536 8.48043 8.29289 8.29289C8.48043 8.10536 8.73478 8 9 8H15C15.2652 8 15.5196 8.10536 15.7071 8.29289C15.8946 8.48043 16 8.73478 16 9V15Z" />
</svg>
