<svg width="24" height="24" viewBox="0 0 24 24" xmlns="http://www.w3.org/2000/svg">
<path d="M16.9997 8.60996L15.9997 2.83996C15.9613 2.60334 15.8393 2.38835 15.6557 2.23417C15.4722 2.07999 15.2393 1.99688 14.9997 1.99996H8.99965C8.75996 1.99688 8.52714 2.07999 8.34359 2.23417C8.16004 2.38835 8.03798 2.60334 7.99965 2.83996L6.99965 8.60996C6.31602 9.60829 5.9502 10.79 5.9502 12C5.9502 13.2099 6.31602 14.3916 6.99965 15.39L7.99965 21.16C8.03798 21.3966 8.16004 21.6116 8.34359 21.7657C8.52714 21.9199 8.75996 22.003 8.99965 22H14.9997C15.2393 22.003 15.4722 21.9199 15.6557 21.7657C15.8393 21.6116 15.9613 21.3966 15.9997 21.16L16.9997 15.39C17.6833 14.3916 18.0491 13.2099 18.0491 12C18.0491 10.79 17.6833 9.60829 16.9997 8.60996ZM9.84965 3.99996H14.1496L14.5897 6.58996C13.7811 6.20301 12.8961 6.00216 11.9997 6.00216C11.1032 6.00216 10.2182 6.20301 9.40965 6.58996L9.84965 3.99996ZM14.1496 20H9.84965L9.40965 17.41C10.2182 17.7969 11.1032 17.9978 11.9997 17.9978C12.8961 17.9978 13.7811 17.7969 14.5897 17.41L14.1496 20ZM11.9997 16C11.2085 16 10.4352 15.7654 9.77737 15.3258C9.11957 14.8863 8.60688 14.2616 8.30413 13.5307C8.00138 12.7998 7.92217 11.9955 8.07651 11.2196C8.23085 10.4437 8.61181 9.73094 9.17122 9.17153C9.73063 8.61212 10.4434 8.23116 11.2193 8.07682C11.9952 7.92248 12.7995 8.00169 13.5304 8.30444C14.2613 8.60719 14.886 9.11988 15.3255 9.77768C15.7651 10.4355 15.9997 11.2088 15.9997 12C15.9997 13.0608 15.5782 14.0782 14.8281 14.8284C14.0779 15.5785 13.0605 16 11.9997 16Z" />
</svg>
