<svg width="24" height="24" viewBox="0 0 24 24" xmlns="http://www.w3.org/2000/svg">
<path d="M10.6002 5.63C10.335 5.67774 10.0996 5.82888 9.9458 6.05017C9.79202 6.27147 9.73245 6.54478 9.78018 6.81C9.82792 7.07522 9.97906 7.31061 10.2004 7.46439C10.4217 7.61817 10.695 7.67774 10.9602 7.63C11.2905 7.57293 11.625 7.54283 11.9602 7.54C13.5515 7.54 15.0776 8.17214 16.2028 9.29736C17.328 10.4226 17.9602 11.9487 17.9602 13.54C17.9574 13.8752 17.9273 14.2097 17.8702 14.54C17.8234 14.7998 17.8813 15.0675 18.0312 15.2848C18.181 15.5021 18.4107 15.6514 18.6702 15.7H18.8502C19.087 15.7039 19.3174 15.6236 19.5006 15.4734C19.6837 15.3232 19.8076 15.113 19.8502 14.88C19.943 14.4257 19.9932 13.9637 20.0002 13.5C19.9956 11.7198 19.3974 9.99193 18.3002 8.59L19.2102 7.69C19.3985 7.5017 19.5043 7.2463 19.5043 6.98C19.5043 6.7137 19.3985 6.4583 19.2102 6.27C19.0219 6.0817 18.7665 5.97591 18.5002 5.97591C18.2339 5.97591 17.9785 6.0817 17.7902 6.27L16.8902 7.18C15.4911 6.09417 13.7712 5.50329 12.0002 5.5C11.5305 5.4991 11.0617 5.54263 10.6002 5.63ZM10.0002 4.5H14.0002C14.2654 4.5 14.5198 4.39464 14.7073 4.20711C14.8948 4.01957 15.0002 3.76522 15.0002 3.5C15.0002 3.23478 14.8948 2.98043 14.7073 2.79289C14.5198 2.60536 14.2654 2.5 14.0002 2.5H10.0002C9.73497 2.5 9.48061 2.60536 9.29308 2.79289C9.10554 2.98043 9.00019 3.23478 9.00019 3.5C9.00019 3.76522 9.10554 4.01957 9.29308 4.20711C9.48061 4.39464 9.73497 4.5 10.0002 4.5ZM13.4902 13.58C13.4902 13.58 13.4902 13.53 13.4902 13.5C13.4902 13.47 13.4902 13.45 13.4902 13.42L14.8302 12.09C14.9234 11.9968 14.9974 11.8861 15.0478 11.7642C15.0983 11.6424 15.1243 11.5119 15.1243 11.38C15.1243 11.2481 15.0983 11.1176 15.0478 10.9958C14.9974 10.8739 14.9234 10.7632 14.8302 10.67C14.7369 10.5768 14.6263 10.5028 14.5044 10.4523C14.3826 10.4019 14.252 10.3759 14.1202 10.3759C13.9883 10.3759 13.8578 10.4019 13.7359 10.4523C13.6141 10.5028 13.5034 10.5768 13.4102 10.67L12.0802 12H11.9202L5.71019 5.79C5.52188 5.6017 5.26649 5.49591 5.00019 5.49591C4.73388 5.49591 4.47849 5.6017 4.29019 5.79C4.10188 5.9783 3.99609 6.2337 3.99609 6.5C3.99609 6.7663 4.10188 7.0217 4.29019 7.21L4.77019 7.69L5.68019 8.6C4.49366 10.1396 3.90825 12.0585 4.03333 13.9983C4.15842 15.938 4.98545 17.7658 6.3599 19.1403C7.73435 20.5147 9.56219 21.3418 11.5019 21.4669C13.4417 21.5919 15.3606 21.0065 16.9002 19.82L18.2902 21.21C18.3831 21.3037 18.4937 21.3781 18.6156 21.4289C18.7375 21.4797 18.8682 21.5058 19.0002 21.5058C19.1322 21.5058 19.2629 21.4797 19.3848 21.4289C19.5066 21.3781 19.6172 21.3037 19.7102 21.21C19.8039 21.117 19.8783 21.0064 19.9291 20.8846C19.9798 20.7627 20.006 20.632 20.006 20.5C20.006 20.368 19.9798 20.2373 19.9291 20.1154C19.8783 19.9936 19.8039 19.883 19.7102 19.79L13.4902 13.58ZM12.0002 19.5C10.895 19.5031 9.81052 19.2008 8.86624 18.6266C7.92196 18.0525 7.15461 17.2286 6.64882 16.246C6.14303 15.2634 5.91846 14.1602 5.99987 13.058C6.08128 11.9559 6.46551 10.8976 7.11019 10L10.5102 13.39C10.5102 13.39 10.5102 13.44 10.5102 13.47C10.5062 13.6687 10.5417 13.8661 10.6147 14.0509C10.6877 14.2357 10.7966 14.4042 10.9353 14.5466C11.0739 14.6889 11.2394 14.8023 11.4222 14.8801C11.605 14.958 11.8015 14.9987 12.0002 15H12.0802L15.4702 18.4C14.4553 19.1172 13.2429 19.5015 12.0002 19.5Z" />
</svg>
