<svg width="24" height="24" viewBox="0 0 24 24" xmlns="http://www.w3.org/2000/svg">
<path d="M17 18C17.2652 18 17.5196 17.8947 17.7071 17.7071C17.8946 17.5196 18 17.2652 18 17V7.00002C18 6.73481 17.8946 6.48045 17.7071 6.29292C17.5196 6.10538 17.2652 6.00002 17 6.00002C16.7348 6.00002 16.4804 6.10538 16.2929 6.29292C16.1054 6.48045 16 6.73481 16 7.00002V17C16 17.2652 16.1054 17.5196 16.2929 17.7071C16.4804 17.8947 16.7348 18 17 18ZM18 5.00002H19V6.00002C19 6.26524 19.1054 6.51959 19.2929 6.70713C19.4804 6.89467 19.7348 7.00002 20 7.00002C20.2652 7.00002 20.5196 6.89467 20.7071 6.70713C20.8946 6.51959 21 6.26524 21 6.00002V5.00002H22C22.2652 5.00002 22.5196 4.89467 22.7071 4.70713C22.8946 4.51959 23 4.26524 23 4.00002C23 3.73481 22.8946 3.48045 22.7071 3.29292C22.5196 3.10538 22.2652 3.00002 22 3.00002H21V2.00002C21 1.73481 20.8946 1.48045 20.7071 1.29292C20.5196 1.10538 20.2652 1.00002 20 1.00002C19.7348 1.00002 19.4804 1.10538 19.2929 1.29292C19.1054 1.48045 19 1.73481 19 2.00002V3.00002H18C17.7348 3.00002 17.4804 3.10538 17.2929 3.29292C17.1054 3.48045 17 3.73481 17 4.00002C17 4.26524 17.1054 4.51959 17.2929 4.70713C17.4804 4.89467 17.7348 5.00002 18 5.00002ZM21.6 9.00002C21.4713 9.02626 21.349 9.0776 21.2402 9.15111C21.1313 9.22462 21.038 9.31886 20.9656 9.42843C20.8931 9.53801 20.843 9.66079 20.818 9.78975C20.793 9.91871 20.7937 10.0513 20.82 10.18C21.2104 12.0762 20.979 14.0478 20.1601 15.8021C19.3412 17.5563 17.9785 18.9997 16.2741 19.9181C14.5698 20.8364 12.6148 21.1807 10.6993 20.8999C8.78381 20.619 7.00992 19.728 5.64097 18.3591C4.27202 16.9901 3.38099 15.2162 3.10014 13.3007C2.81929 11.3852 3.16359 9.4302 4.08194 7.72589C5.00028 6.02158 6.44372 4.65882 8.19798 3.83991C9.95224 3.021 11.9238 2.78958 13.82 3.18002C14.0852 3.23307 14.3606 3.17858 14.5857 3.02855C14.8107 2.87852 14.967 2.64524 15.02 2.38002C15.073 2.11481 15.0186 1.83938 14.8685 1.61434C14.7185 1.38929 14.4852 1.23307 14.22 1.18002C13.4882 1.04367 12.7442 0.983353 12 1.00002C9.82441 1.00002 7.69767 1.64516 5.88873 2.85386C4.07979 4.06255 2.66989 5.78052 1.83733 7.7905C1.00477 9.80049 0.786929 12.0122 1.21137 14.146C1.6358 16.2798 2.68345 18.2398 4.22183 19.7782C5.76021 21.3166 7.72022 22.3642 9.85401 22.7887C11.9878 23.2131 14.1995 22.9953 16.2095 22.1627C18.2195 21.3301 19.9375 19.9202 21.1462 18.1113C22.3549 16.3024 23 14.1756 23 12C23.0021 11.2611 22.9284 10.5239 22.78 9.80002C22.7561 9.66952 22.7064 9.54508 22.6338 9.43397C22.5613 9.32286 22.4674 9.22729 22.3576 9.15283C22.2478 9.07838 22.1242 9.02652 21.9942 9.00028C21.8641 8.97405 21.7301 8.97396 21.6 9.00002ZM10 13H11C11.7957 13 12.5587 12.684 13.1213 12.1213C13.6839 11.5587 14 10.7957 14 10V9.00002C14 8.20437 13.6839 7.44131 13.1213 6.8787C12.5587 6.31609 11.7957 6.00002 11 6.00002H10C9.20436 6.00002 8.44129 6.31609 7.87868 6.8787C7.31608 7.44131 7 8.20437 7 9.00002C7 9.26524 7.10536 9.51959 7.2929 9.70713C7.48043 9.89467 7.73479 10 8 10C8.26522 10 8.51958 9.89467 8.70711 9.70713C8.89465 9.51959 9 9.26524 9 9.00002C9 8.73481 9.10536 8.48045 9.2929 8.29292C9.48043 8.10538 9.73479 8.00002 10 8.00002H11C11.2652 8.00002 11.5196 8.10538 11.7071 8.29292C11.8946 8.48045 12 8.73481 12 9.00002V10C12 10.2652 11.8946 10.5196 11.7071 10.7071C11.5196 10.8947 11.2652 11 11 11H10C9.20436 11 8.44129 11.3161 7.87868 11.8787C7.31608 12.4413 7 13.2044 7 14V17C7 17.2652 7.10536 17.5196 7.2929 17.7071C7.48043 17.8947 7.73479 18 8 18H13C13.2652 18 13.5196 17.8947 13.7071 17.7071C13.8946 17.5196 14 17.2652 14 17C14 16.7348 13.8946 16.4805 13.7071 16.2929C13.5196 16.1054 13.2652 16 13 16H9V14C9 13.7348 9.10536 13.4805 9.2929 13.2929C9.48043 13.1054 9.73479 13 10 13Z" />
</svg>
