<svg width="24" height="24" viewBox="0 0 24 24" xmlns="http://www.w3.org/2000/svg">
<path d="M12.0004 2C10.4665 1.99993 8.95315 2.35274 7.5774 3.03113C6.20165 3.70952 5.0004 4.69531 4.06659 5.91222C3.13278 7.12914 2.49143 8.54457 2.19216 10.049C1.8929 11.5535 1.94374 13.1066 2.34075 14.5882C2.73776 16.0699 3.4703 17.4403 4.4817 18.5936C5.4931 19.7468 6.75625 20.6519 8.17342 21.2389C9.59059 21.8259 11.1238 22.0789 12.6544 21.9786C14.185 21.8782 15.6721 21.427 17.0004 20.66C17.1199 20.5975 17.2256 20.5114 17.311 20.407C17.3963 20.3027 17.4597 20.1821 17.4973 20.0525C17.5349 19.923 17.5459 19.7872 17.5296 19.6533C17.5134 19.5194 17.4702 19.3902 17.4027 19.2735C17.3352 19.1567 17.2448 19.0548 17.1369 18.9739C17.029 18.893 16.9058 18.8347 16.7748 18.8026C16.6438 18.7705 16.5077 18.7653 16.3746 18.7872C16.2415 18.8091 16.1143 18.8576 16.0004 18.93C14.4754 19.8105 12.7024 20.1632 10.9565 19.9334C9.21051 19.7036 7.58919 18.9041 6.3439 17.659C5.09862 16.4138 4.29897 14.7926 4.06897 13.0467C3.83897 11.3008 4.19146 9.52774 5.07179 8.00257C5.95212 6.47741 7.31108 5.28532 8.93794 4.61119C10.5648 3.93706 12.3686 3.81855 14.0697 4.27404C15.7708 4.72953 17.274 5.73358 18.3463 7.13046C19.4186 8.52734 20 10.239 20.0004 12V12.75C20.0004 13.2141 19.8161 13.6592 19.4879 13.9874C19.1597 14.3156 18.7146 14.5 18.2504 14.5C17.7863 14.5 17.3412 14.3156 17.013 13.9874C16.6848 13.6592 16.5004 13.2141 16.5004 12.75V8.5C16.5004 8.23478 16.3951 7.98043 16.2075 7.79289C16.02 7.60536 15.7657 7.5 15.5004 7.5C15.2679 7.49483 15.0408 7.57088 14.8583 7.71507C14.6758 7.85926 14.5492 8.06257 14.5004 8.29C13.7654 7.78158 12.8942 7.5063 12.0004 7.5C11.2476 7.491 10.5045 7.67102 9.83931 8.0236C9.17408 8.37617 8.60794 8.89001 8.19275 9.51807C7.77755 10.1461 7.52657 10.8683 7.4628 11.6185C7.39902 12.3687 7.52449 13.1229 7.82771 13.812C8.13093 14.5011 8.6022 15.1032 9.19837 15.563C9.79454 16.0228 10.4965 16.3257 11.2401 16.4439C11.9836 16.5621 12.745 16.4918 13.4543 16.2396C14.1637 15.9873 14.7985 15.5611 15.3004 15C15.7756 15.6153 16.4307 16.0673 17.1746 16.293C17.9185 16.5188 18.7143 16.5071 19.4512 16.2596C20.1882 16.0121 20.8297 15.5411 21.2866 14.9121C21.7435 14.2831 21.993 13.5274 22.0004 12.75V12C22.0004 10.6868 21.7418 9.38642 21.2392 8.17317C20.7367 6.95991 20.0001 5.85752 19.0715 4.92893C18.1429 4.00035 17.0405 3.26375 15.8273 2.7612C14.614 2.25866 13.3137 2 12.0004 2ZM12.0004 14.5C11.506 14.5 11.0226 14.3534 10.6115 14.0787C10.2004 13.804 9.87996 13.4135 9.69074 12.9567C9.50152 12.4999 9.45201 11.9972 9.54848 11.5123C9.64494 11.0273 9.88304 10.5819 10.2327 10.2322C10.5823 9.8826 11.0278 9.6445 11.5127 9.54804C11.9977 9.45157 12.5003 9.50108 12.9571 9.6903C13.414 9.87952 13.8044 10.2 14.0791 10.6111C14.3538 11.0222 14.5004 11.5055 14.5004 12C14.5004 12.663 14.237 13.2989 13.7682 13.7678C13.2994 14.2366 12.6635 14.5 12.0004 14.5Z" />
</svg>
