<svg width="24" height="24" viewBox="0 0 24 24" xmlns="http://www.w3.org/2000/svg">
<path d="M20.83 7.32002C20.8354 7.29362 20.8354 7.26641 20.83 7.24002C20.0288 5.75806 18.8661 4.50255 17.45 3.59002C15.8278 2.53879 13.933 1.98601 12 2.00002C11.7348 2.00002 11.4804 2.10537 11.2929 2.29291C11.1054 2.48045 11 2.7348 11 3.00002V21C11 21.2652 11.1054 21.5196 11.2929 21.7071C11.4804 21.8947 11.7348 22 12 22H12.28C13.9799 21.9515 15.6394 21.4703 17.1015 20.6019C18.5637 19.7334 19.7802 18.5065 20.6361 17.0369C21.492 15.5674 21.9589 13.9039 21.9929 12.2036C22.0268 10.5034 21.6266 8.82252 20.83 7.32002ZM13 4.06002C13.8648 4.16938 14.7059 4.41934 15.49 4.80002L13 9.12002V4.06002ZM13 13.12L17.17 5.90002C17.7876 6.42522 18.3205 7.04247 18.75 7.73002L13 17.69V13.12ZM14.16 19.69L19.75 10C19.9137 10.6542 19.9976 11.3257 20 12C20.0072 13.7455 19.439 15.4447 18.3833 16.8348C17.3277 18.2249 15.8433 19.2284 14.16 19.69Z" />
</svg>
