<svg width="24" height="24" viewBox="0 0 24 24" xmlns="http://www.w3.org/2000/svg">
<path d="M16.9999 7.00002C16.5375 5.79578 15.7815 4.72619 14.8006 3.88849C13.8197 3.05079 12.6449 2.47153 11.3831 2.20338C10.1214 1.93523 8.81259 1.98669 7.57577 2.35308C6.33894 2.71946 5.21331 3.38916 4.30117 4.3013C3.38904 5.21343 2.71934 6.33907 2.35295 7.57589C1.98657 8.81271 1.93511 10.1215 2.20326 11.3833C2.47141 12.645 3.05066 13.8198 3.88837 14.8007C4.72607 15.7816 5.79565 16.5377 6.99989 17C7.46226 18.2043 8.21827 19.2738 9.1992 20.1115C10.1801 20.9492 11.3549 21.5285 12.6166 21.7966C13.8784 22.0648 15.1872 22.0133 16.424 21.647C17.6608 21.2806 18.7865 20.6109 19.6986 19.6987C20.6107 18.7866 21.2804 17.661 21.6468 16.4241C22.0132 15.1873 22.0647 13.8785 21.7965 12.6168C21.5284 11.355 20.9491 10.1802 20.1114 9.19932C19.2737 8.21839 18.2041 7.46238 16.9999 7.00002ZM15.3999 8.60002C15.4721 8.97574 15.5089 9.35741 15.5099 9.74002C15.5078 10.1913 15.4541 10.6409 15.3499 11.08L12.9099 8.66002C13.349 8.55578 13.7986 8.5021 14.2499 8.50002C14.6325 8.50097 15.0142 8.53779 15.3899 8.61001L15.3999 8.60002ZM14.4599 13C14.0612 13.5674 13.5673 14.0614 12.9999 14.46L9.53989 11C9.93854 10.4326 10.4325 9.93866 10.9999 9.54002L14.4599 13ZM6.45989 14.46C5.76709 13.9808 5.18805 13.3552 4.76373 12.6274C4.33941 11.8997 4.08017 11.0876 4.00436 10.2486C3.92854 9.40965 4.038 8.56425 4.32499 7.77224C4.61198 6.98023 5.06949 6.26095 5.66516 5.66528C6.26083 5.06961 6.98011 4.6121 7.77212 4.32511C8.56413 4.03812 9.40953 3.92867 10.2485 4.00448C11.0875 4.08029 11.8996 4.33953 12.6273 4.76385C13.355 5.18817 13.9807 5.76721 14.4599 6.46002H14.2099C12.1553 6.47324 10.1898 7.30076 8.74444 8.7611C7.2991 10.2214 6.49191 12.1954 6.49989 14.25C6.49989 14.33 6.50989 14.42 6.50989 14.5L6.45989 14.46ZM8.55989 15.35C8.48767 14.9743 8.45084 14.5926 8.44989 14.21C8.45197 13.7587 8.50566 13.3091 8.60989 12.87L11.0399 15.3C10.6008 15.4043 10.1512 15.4579 9.69989 15.46C9.3352 15.4692 8.97041 15.4458 8.60989 15.39L8.55989 15.35ZM14.2499 20C13.3139 19.9983 12.3925 19.7689 11.5649 19.3316C10.7374 18.8943 10.0287 18.2623 9.49989 17.49H9.74989C11.8028 17.4874 13.771 16.6714 15.2235 15.2207C16.6761 13.77 17.4946 11.8029 17.4999 9.75002C17.4999 9.67002 17.4999 9.58002 17.4999 9.50002C18.5157 10.193 19.2826 11.1934 19.688 12.3543C20.0935 13.5152 20.116 14.7755 19.7524 15.9502C19.3888 17.1249 18.6582 18.1521 17.6679 18.881C16.6775 19.6099 15.4796 20.0021 14.2499 20Z" />
</svg>
