<svg width="24" height="24" viewBox="0 0 24 24" xmlns="http://www.w3.org/2000/svg">
<path d="M20.8298 7.31998C20.0189 5.80444 18.8349 4.52067 17.3898 3.58998C16.082 2.74866 14.5961 2.22392 13.05 2.05746C11.5039 1.891 9.94026 2.0874 8.48336 2.63106C7.02646 3.17472 5.71643 4.05066 4.65734 5.18927C3.59825 6.32789 2.81929 7.69781 2.38236 9.19019C1.94543 10.6826 1.86255 12.2563 2.14033 13.7863C2.41811 15.3163 3.04888 16.7605 3.98252 18.004C4.91617 19.2476 6.12696 20.2563 7.51871 20.9499C8.91045 21.6436 10.4448 22.0031 11.9998 22H12.2898C13.9889 21.9498 15.6471 21.4674 17.1079 20.5983C18.5687 19.7292 19.7839 18.5021 20.6386 17.0328C21.4933 15.5635 21.9594 13.9006 21.9929 12.2012C22.0264 10.5017 21.6261 8.82175 20.8298 7.31998ZM10.9998 19.93C9.07796 19.6741 7.31443 18.7289 6.03716 17.2703C4.75989 15.8116 4.05579 13.9388 4.05579 12C4.05579 10.0612 4.75989 8.18831 6.03716 6.72968C7.31443 5.27105 9.07796 4.3259 10.9998 4.06998V19.93ZM12.9998 4.06998C13.8643 4.18057 14.7052 4.43047 15.4898 4.80998L12.9998 9.11998V4.06998ZM12.9998 13.07L17.1698 5.89998C17.7846 6.42793 18.3172 7.04473 18.7498 7.72998L12.9998 17.69V13.07ZM14.1498 19.65L19.7398 9.99998C19.9088 10.6533 19.9962 11.3251 19.9998 12C19.9986 13.746 19.4262 15.4436 18.3699 16.8339C17.3137 18.2242 15.8316 19.2307 14.1498 19.7V19.65Z" />
</svg>
