<svg width="24" height="24" viewBox="0 0 24 24" xmlns="http://www.w3.org/2000/svg">
<path d="M21.8399 5.55998C21.7071 4.7084 21.308 3.92075 20.6999 3.30998C20.0891 2.70187 19.3015 2.30279 18.4499 2.16998C16.6878 1.9039 14.8906 1.98543 13.1599 2.40998C13.0915 2.42398 13.0246 2.44406 12.9599 2.46998C10.4272 3.10831 8.11517 4.4216 6.26987 6.26998C4.41397 8.12857 3.09421 10.4537 2.44987 13C2.44987 13.06 2.44987 13.12 2.39987 13.19C1.97529 14.9241 1.89376 16.7246 2.15987 18.49C2.30262 19.3238 2.70099 20.0926 3.29987 20.69C3.91063 21.2981 4.69829 21.6972 5.54987 21.83C6.23759 21.9418 6.93312 21.9986 7.62987 22C8.72899 21.9936 9.82341 21.856 10.8899 21.59H11.0299C13.5657 20.948 15.8815 19.6337 17.7329 17.7858C19.5844 15.9378 20.903 13.6246 21.5499 11.09C21.5499 11.03 21.5499 10.97 21.5999 10.9C22.0297 9.15301 22.1113 7.33847 21.8399 5.55998ZM16.3699 3.99998C16.9594 3.99687 17.5482 4.0437 18.1299 4.13998C18.2115 4.15732 18.2917 4.18072 18.3699 4.20998L16.9999 5.58998L15.4599 4.04998C15.7599 3.99998 16.0699 3.99998 16.3699 3.99998ZM7.66987 7.66998C9.1754 6.1726 11.0318 5.07593 13.0699 4.47998L15.5899 6.99998L13.4399 9.14998L12.7099 8.41998C12.6169 8.32625 12.5063 8.25186 12.3844 8.20109C12.2626 8.15032 12.1319 8.12418 11.9999 8.12418C11.8679 8.12418 11.7372 8.15032 11.6153 8.20109C11.4934 8.25186 11.3828 8.32625 11.2899 8.41998C11.1036 8.60734 10.9991 8.8608 10.9991 9.12498C10.9991 9.38917 11.1036 9.64262 11.2899 9.82998L12.0199 10.56L10.5599 12L9.82987 11.27C9.64251 11.0837 9.38906 10.9792 9.12487 10.9792C8.86068 10.9792 8.60723 11.0837 8.41987 11.27C8.32614 11.3629 8.25175 11.4735 8.20098 11.5954C8.15021 11.7173 8.12407 11.848 8.12407 11.98C8.12407 12.112 8.15021 12.2427 8.20098 12.3646C8.25175 12.4864 8.32614 12.597 8.41987 12.69L9.14987 13.42L6.99987 15.59L4.48987 13.08C5.07944 11.0385 6.17298 9.17812 7.66987 7.66998ZM4.20987 18.37C4.18061 18.2918 4.15721 18.2116 4.13987 18.13C3.98845 17.2486 3.94146 16.3524 3.99987 15.46L5.58987 17L4.20987 18.37ZM5.86987 19.86C5.78824 19.8426 5.70802 19.8192 5.62987 19.79L6.99987 18.41L8.53987 20C7.64746 20.0584 6.75128 20.0114 5.86987 19.86ZM16.3299 16.33C14.8217 17.8269 12.9613 18.9204 10.9199 19.51L8.40987 17L10.5599 14.85L11.2899 15.58C11.3825 15.6732 11.4925 15.7473 11.6137 15.798C11.7349 15.8487 11.8649 15.8751 11.9963 15.8755C12.1277 15.876 12.2579 15.8506 12.3795 15.8007C12.5011 15.7509 12.6116 15.6776 12.7049 15.585C12.7981 15.4924 12.8722 15.3824 12.9229 15.2611C12.9736 15.1399 13 15.0099 13.0004 14.8785C13.0009 14.7471 12.9755 14.6169 12.9256 14.4954C12.8758 14.3738 12.8025 14.2632 12.7099 14.17L11.9999 13.44L13.4399 12L14.1699 12.73C14.2633 12.8227 14.3741 12.896 14.496 12.9458C14.6178 12.9955 14.7483 13.0207 14.8799 13.02C15.0776 13.0192 15.2707 12.9597 15.4347 12.8491C15.5987 12.7386 15.7262 12.5819 15.8011 12.3988C15.8761 12.2158 15.895 12.0147 15.8556 11.8208C15.8163 11.627 15.7203 11.4493 15.5799 11.31L14.8499 10.58L16.9999 8.40998L19.5099 10.92C18.9203 12.9614 17.8268 14.8218 16.3299 16.33ZM19.9999 8.53998L18.4099 6.99998L19.7899 5.62998C19.8191 5.70813 19.8425 5.78835 19.8599 5.86998C20.0113 6.75139 20.0583 7.64757 19.9999 8.53998Z" />
</svg>
