<svg width="24" height="24" viewBox="0 0 24 24" xmlns="http://www.w3.org/2000/svg">
<path d="M18.5622 14.6338L14.0005 12L18.5622 9.36621C18.7918 9.23353 18.9593 9.0151 19.0279 8.75896C19.0965 8.50281 19.0605 8.22991 18.928 8.00026C18.7954 7.7706 18.5771 7.60299 18.3209 7.53427C18.0648 7.46555 17.7919 7.50134 17.5622 7.63379L13.0002 10.2678V5C13.0002 4.73478 12.8948 4.48043 12.7073 4.29289C12.5198 4.10536 12.2654 4 12.0002 4C11.735 4 11.4806 4.10536 11.2931 4.29289C11.1056 4.48043 11.0002 4.73478 11.0002 5V10.2678L6.4382 7.63376C6.20847 7.50131 5.93555 7.46552 5.67944 7.53424C5.42333 7.60296 5.20499 7.77057 5.07243 8.00023C4.93987 8.22988 4.90393 8.50278 4.97252 8.75893C5.04111 9.01507 5.20861 9.2335 5.4382 9.36618L9.99989 12L5.4382 14.6338C5.20861 14.7665 5.04111 14.9849 4.97252 15.241C4.90393 15.4972 4.93987 15.7701 5.07243 15.9997C5.20499 16.2294 5.42333 16.397 5.67944 16.4657C5.93555 16.5345 6.20847 16.4987 6.4382 16.3662L11.0002 13.7322V19C11.0002 19.2652 11.1056 19.5196 11.2931 19.7071C11.4806 19.8946 11.735 20 12.0002 20C12.2654 20 12.5198 19.8946 12.7073 19.7071C12.8948 19.5196 13.0002 19.2652 13.0002 19V13.7322L17.5622 16.3662C17.7919 16.4987 18.0648 16.5345 18.3209 16.4658C18.5771 16.397 18.7954 16.2294 18.928 15.9998C19.0605 15.7701 19.0965 15.4972 19.0279 15.2411C18.9593 14.9849 18.7918 14.7665 18.5622 14.6338V14.6338Z" />
</svg>
