<svg width="24" height="24" viewBox="0 0 24 24" xmlns="http://www.w3.org/2000/svg">
<path d="M21.77 11.36L16.77 5.36C16.676 5.24712 16.5582 5.15634 16.4252 5.09412C16.2921 5.0319 16.1469 4.99976 16 5H5C4.20435 5 3.44129 5.31607 2.87868 5.87868C2.31607 6.44129 2 7.20435 2 8V16C2 16.7957 2.31607 17.5587 2.87868 18.1213C3.44129 18.6839 4.20435 19 5 19H16C16.1469 19.0002 16.2921 18.9681 16.4252 18.9059C16.5582 18.8437 16.676 18.7529 16.77 18.64L21.77 12.64C21.9197 12.4603 22.0016 12.2339 22.0016 12C22.0016 11.7661 21.9197 11.5397 21.77 11.36ZM15.53 17H5C4.73478 17 4.48043 16.8946 4.29289 16.7071C4.10536 16.5196 4 16.2652 4 16V8C4 7.73478 4.10536 7.48043 4.29289 7.29289C4.48043 7.10536 4.73478 7 5 7H15.53L19.7 12L15.53 17ZM12.71 9.29C12.617 9.19627 12.5064 9.12188 12.3846 9.07111C12.2627 9.02034 12.132 8.9942 12 8.9942C11.868 8.9942 11.7373 9.02034 11.6154 9.07111C11.4936 9.12188 11.383 9.19627 11.29 9.29L10 10.59L8.71 9.29C8.5217 9.1017 8.2663 8.99591 8 8.99591C7.7337 8.99591 7.4783 9.1017 7.29 9.29C7.1017 9.4783 6.99591 9.7337 6.99591 10C6.99591 10.1319 7.02188 10.2624 7.07234 10.3843C7.1228 10.5061 7.19676 10.6168 7.29 10.71L8.59 12L7.29 13.29C7.19627 13.383 7.12188 13.4936 7.07111 13.6154C7.02034 13.7373 6.9942 13.868 6.9942 14C6.9942 14.132 7.02034 14.2627 7.07111 14.3846C7.12188 14.5064 7.19627 14.617 7.29 14.71C7.38296 14.8037 7.49356 14.8781 7.61542 14.9289C7.73728 14.9797 7.86799 15.0058 8 15.0058C8.13201 15.0058 8.26272 14.9797 8.38458 14.9289C8.50644 14.8781 8.61704 14.8037 8.71 14.71L10 13.41L11.29 14.71C11.383 14.8037 11.4936 14.8781 11.6154 14.9289C11.7373 14.9797 11.868 15.0058 12 15.0058C12.132 15.0058 12.2627 14.9797 12.3846 14.9289C12.5064 14.8781 12.617 14.8037 12.71 14.71C12.8037 14.617 12.8781 14.5064 12.9289 14.3846C12.9797 14.2627 13.0058 14.132 13.0058 14C13.0058 13.868 12.9797 13.7373 12.9289 13.6154C12.8781 13.4936 12.8037 13.383 12.71 13.29L11.41 12L12.71 10.71C12.8037 10.617 12.8781 10.5064 12.9289 10.3846C12.9797 10.2627 13.0058 10.132 13.0058 10C13.0058 9.86799 12.9797 9.73728 12.9289 9.61542C12.8781 9.49357 12.8037 9.38296 12.71 9.29Z" />
</svg>
