<svg width="24" height="24" viewBox="0 0 24 24" xmlns="http://www.w3.org/2000/svg">
<path d="M22.9642 13.8226C22.9603 13.7638 22.9508 13.7055 22.936 13.6484L20.6313 7.51135C21.0508 7.24006 21.3957 6.86818 21.6347 6.42956C21.8738 5.99095 21.9993 5.49952 22 5C22 4.73478 21.8946 4.48043 21.7071 4.29289C21.5196 4.10536 21.2652 4 21 4C20.7348 4 20.4804 4.10536 20.2929 4.29289C20.1054 4.48043 20 4.73478 20 5C19.9999 5.22285 19.9254 5.43929 19.7884 5.61499C19.6513 5.79069 19.4595 5.91559 19.2433 5.96987C19.0272 6.02416 18.7991 6.00472 18.5953 5.91465C18.3915 5.82457 18.2235 5.66902 18.1182 5.47266C17.8616 5.01717 17.4863 4.63972 17.0324 4.38042C16.5784 4.12111 16.0627 3.98965 15.54 4H13V3C13 2.73478 12.8946 2.48043 12.7071 2.29289C12.5196 2.10536 12.2652 2 12 2C11.7348 2 11.4804 2.10536 11.2929 2.29289C11.1054 2.48043 11 2.73478 11 3V4H8.46C7.93731 3.98965 7.42158 4.12111 6.96762 4.38042C6.51366 4.63972 6.13844 5.01717 5.88184 5.47266C5.77647 5.66902 5.60855 5.82457 5.40471 5.91465C5.20088 6.00472 4.97281 6.02416 4.75668 5.96987C4.54054 5.91559 4.34872 5.79069 4.21165 5.61499C4.07457 5.43929 4.00008 5.22285 4 5C4 4.73478 3.89464 4.48043 3.70711 4.29289C3.51957 4.10536 3.26522 4 3 4C2.73478 4 2.48043 4.10536 2.29289 4.29289C2.10536 4.48043 2 4.73478 2 5C2.00065 5.49952 2.12621 5.99095 2.36525 6.42956C2.60429 6.86818 2.94922 7.24006 3.36865 7.51135L1.064 13.6484C1.04921 13.7055 1.03977 13.7638 1.03581 13.8226C1.01825 13.8805 1.00626 13.9399 1 14C1 14.0093 1.00269 14.0178 1.00275 14.0271C1.00305 14.0403 1.00575 14.0524 1.00665 14.0655C1.02222 15.1144 1.4498 16.115 2.197 16.8512C2.94421 17.5874 3.95105 18.0001 5 18.0001C6.04895 18.0001 7.05579 17.5874 7.803 16.8512C8.5502 16.115 8.97778 15.1144 8.99335 14.0655C8.9942 14.0524 8.99695 14.0403 8.99725 14.0271C8.99731 14.0178 9 14.0093 9 14C8.99376 13.9399 8.98178 13.8805 8.96423 13.8226C8.96027 13.7638 8.95083 13.7055 8.93604 13.6484L6.62866 7.50421C7.05242 7.23377 7.40114 6.86085 7.64258 6.41992C7.72984 6.2842 7.85137 6.1739 7.99489 6.10017C8.13841 6.02644 8.29885 5.99189 8.46 6H11V20H8C7.73478 20 7.48043 20.1054 7.29289 20.2929C7.10536 20.4804 7 20.7348 7 21C7 21.2652 7.10536 21.5196 7.29289 21.7071C7.48043 21.8946 7.73478 22 8 22H16C16.2652 22 16.5196 21.8946 16.7071 21.7071C16.8946 21.5196 17 21.2652 17 21C17 20.7348 16.8946 20.4804 16.7071 20.2929C16.5196 20.1054 16.2652 20 16 20H13V6H15.54C15.7011 5.9919 15.8616 6.02646 16.0051 6.10018C16.1486 6.17391 16.2701 6.2842 16.3574 6.41992C16.5988 6.86085 16.9475 7.23377 17.3713 7.50421L15.064 13.6484C15.0492 13.7055 15.0398 13.7638 15.0358 13.8226C15.0182 13.8805 15.0063 13.9399 15 14C15 14.0093 15.0027 14.0178 15.0028 14.0271C15.0031 14.0403 15.0057 14.0524 15.0066 14.0655C15.0222 15.1144 15.4498 16.115 16.197 16.8512C16.9442 17.5874 17.951 18.0001 19 18.0001C20.049 18.0001 21.0558 17.5874 21.803 16.8512C22.5502 16.115 22.9778 15.1144 22.9933 14.0655C22.9942 14.0524 22.997 14.0403 22.9972 14.0271C22.9973 14.0178 23 14.0093 23 14C22.9938 13.9399 22.9818 13.8805 22.9642 13.8226ZM5 8.85553L6.5564 13H3.4436L5 8.85553ZM6.72266 15C6.54618 15.3011 6.29479 15.5515 5.99293 15.7267C5.69107 15.9019 5.34901 15.9961 5 16C4.64903 15.9999 4.30428 15.9074 4.00036 15.7319C3.69644 15.5563 3.44405 15.3039 3.26855 15H6.72266ZM19 8.85553L20.5564 13H17.4436L19 8.85553ZM19 16C18.649 15.9999 18.3043 15.9074 18.0004 15.7319C17.6964 15.5563 17.4441 15.3039 17.2686 15H20.7227C20.5462 15.3011 20.2948 15.5515 19.9929 15.7267C19.6911 15.9019 19.349 15.9961 19 16Z" />
</svg>
