<svg width="24" height="24" viewBox="0 0 24 24" xmlns="http://www.w3.org/2000/svg">
<path d="M6.69 15H4V9H6.31C6.57522 9 6.82957 8.89464 7.01711 8.70711C7.20464 8.51957 7.31 8.26522 7.31 8C7.31 7.73478 7.20464 7.48043 7.01711 7.29289C6.82957 7.10536 6.57522 7 6.31 7H4C3.46957 7 2.96086 7.21071 2.58579 7.58579C2.21071 7.96086 2 8.46957 2 9V15C2 15.5304 2.21071 16.0391 2.58579 16.4142C2.96086 16.7893 3.46957 17 4 17H6.69C6.95522 17 7.20957 16.8946 7.39711 16.7071C7.58464 16.5196 7.69 16.2652 7.69 16C7.69 15.7348 7.58464 15.4804 7.39711 15.2929C7.20957 15.1054 6.95522 15 6.69 15ZM13.89 12.44C13.9145 12.3816 13.9345 12.3214 13.95 12.26C13.9547 12.1934 13.9547 12.1266 13.95 12.06C13.95 12.06 13.95 12.06 13.95 12C13.95 11.94 13.95 11.92 13.95 11.88C13.9441 11.8111 13.9272 11.7436 13.9 11.68C13.8794 11.6207 13.8526 11.5637 13.82 11.51C13.7926 11.4532 13.7591 11.3995 13.72 11.35L13.56 11.22L13.47 11.13H13.41L13.23 11.07H13.03H9.73L11.18 8.57C11.3126 8.33926 11.3481 8.0653 11.2787 7.80837C11.2093 7.55145 11.0407 7.33261 10.81 7.2C10.5793 7.06739 10.3053 7.03188 10.0484 7.10126C9.79145 7.17065 9.57261 7.33926 9.44 7.57L7.13 11.57C7.13 11.57 7.13 11.57 7.13 11.63C7.10554 11.6884 7.08548 11.7486 7.07 11.81C7.0653 11.8766 7.0653 11.9434 7.07 12.01L7 12C7 12 7 12.08 7 12.12C7.00592 12.1889 7.0228 12.2564 7.05 12.32C7.07059 12.3793 7.09741 12.4363 7.13 12.49C7.15736 12.5468 7.1909 12.6005 7.23 12.65L7.39 12.78C7.41743 12.8125 7.44754 12.8426 7.48 12.87H7.55H7.64C7.75051 12.9361 7.87275 12.9803 8 13H11.27L9.82 15.5C9.68739 15.7307 9.65188 16.0047 9.72126 16.2616C9.79065 16.5186 9.95926 16.7374 10.19 16.87C10.4207 17.0026 10.6947 17.0381 10.9516 16.9687C11.2086 16.8993 11.4274 16.7307 11.56 16.5L13.87 12.5C13.87 12.5 13.88 12.46 13.89 12.44ZM21 10C20.7348 10 20.4804 10.1054 20.2929 10.2929C20.1054 10.4804 20 10.7348 20 11V13C20 13.2652 20.1054 13.5196 20.2929 13.7071C20.4804 13.8946 20.7348 14 21 14C21.2652 14 21.5196 13.8946 21.7071 13.7071C21.8946 13.5196 22 13.2652 22 13V11C22 10.7348 21.8946 10.4804 21.7071 10.2929C21.5196 10.1054 21.2652 10 21 10ZM17 7H14.31C14.0448 7 13.7904 7.10536 13.6029 7.29289C13.4154 7.48043 13.31 7.73478 13.31 8C13.31 8.26522 13.4154 8.51957 13.6029 8.70711C13.7904 8.89464 14.0448 9 14.31 9H17V15H14.69C14.4248 15 14.1704 15.1054 13.9829 15.2929C13.7954 15.4804 13.69 15.7348 13.69 16C13.69 16.2652 13.7954 16.5196 13.9829 16.7071C14.1704 16.8946 14.4248 17 14.69 17H17C17.5304 17 18.0391 16.7893 18.4142 16.4142C18.7893 16.0391 19 15.5304 19 15V9C19 8.46957 18.7893 7.96086 18.4142 7.58579C18.0391 7.21071 17.5304 7 17 7Z" />
</svg>
