<svg width="24" height="24" viewBox="0 0 24 24" xmlns="http://www.w3.org/2000/svg">
<path d="M7 12.5C7.59334 12.5 8.17336 12.3241 8.66671 11.9944C9.16006 11.6648 9.54458 11.1962 9.77164 10.6481C9.9987 10.0999 10.0581 9.49667 9.94236 8.91473C9.8266 8.33279 9.54088 7.79824 9.12132 7.37868C8.70176 6.95912 8.16721 6.6734 7.58527 6.55764C7.00333 6.44189 6.40013 6.5013 5.85195 6.72836C5.30377 6.95542 4.83524 7.33994 4.50559 7.83329C4.17595 8.32664 4 8.90666 4 9.5C4 10.2956 4.31607 11.0587 4.87868 11.6213C5.44129 12.1839 6.20435 12.5 7 12.5ZM7 8.5C7.19778 8.5 7.39112 8.55865 7.55557 8.66853C7.72002 8.77841 7.84819 8.93459 7.92388 9.11732C7.99957 9.30004 8.01937 9.50111 7.98079 9.69509C7.9422 9.88907 7.84696 10.0673 7.70711 10.2071C7.56725 10.347 7.38907 10.4422 7.19509 10.4808C7.00111 10.5194 6.80004 10.4996 6.61732 10.4239C6.43459 10.3482 6.27841 10.22 6.16853 10.0556C6.05865 9.89112 6 9.69778 6 9.5C6 9.23478 6.10536 8.98043 6.29289 8.79289C6.48043 8.60536 6.73478 8.5 7 8.5ZM20 6.5H12C11.7348 6.5 11.4804 6.60536 11.2929 6.79289C11.1054 6.98043 11 7.23478 11 7.5V13.5H3V5.5C3 5.23478 2.89464 4.98043 2.70711 4.79289C2.51957 4.60536 2.26522 4.5 2 4.5C1.73478 4.5 1.48043 4.60536 1.29289 4.79289C1.10536 4.98043 1 5.23478 1 5.5V18.5C1 18.7652 1.10536 19.0196 1.29289 19.2071C1.48043 19.3946 1.73478 19.5 2 19.5C2.26522 19.5 2.51957 19.3946 2.70711 19.2071C2.89464 19.0196 3 18.7652 3 18.5V15.5H21V18.5C21 18.7652 21.1054 19.0196 21.2929 19.2071C21.4804 19.3946 21.7348 19.5 22 19.5C22.2652 19.5 22.5196 19.3946 22.7071 19.2071C22.8946 19.0196 23 18.7652 23 18.5V9.5C23 8.70435 22.6839 7.94129 22.1213 7.37868C21.5587 6.81607 20.7956 6.5 20 6.5ZM21 13.5H13V8.5H20C20.2652 8.5 20.5196 8.60536 20.7071 8.79289C20.8946 8.98043 21 9.23478 21 9.5V13.5Z" />
</svg>
