<svg width="24" height="24" viewBox="0 0 24 24" xmlns="http://www.w3.org/2000/svg">
<path d="M20.4901 13.9399L20.1501 14.1399C19.9221 14.2752 19.7571 14.4956 19.6914 14.7525C19.6258 15.0094 19.6649 15.2818 19.8001 15.5099C19.8886 15.6592 20.0145 15.7829 20.1652 15.8688C20.316 15.9547 20.4866 15.9999 20.6601 15.9999C20.8396 15.9999 21.0158 15.9515 21.1701 15.8599L21.5101 15.6599C21.7103 15.5143 21.8494 15.2996 21.9005 15.0574C21.9515 14.8152 21.9109 14.5626 21.7865 14.3486C21.662 14.1346 21.4626 13.9743 21.2269 13.8988C20.9911 13.8233 20.7357 13.838 20.5101 13.9399H20.4901ZM11.6501 6.35994L12.0001 6.14994L19.0001 10.1499L17.2401 11.1499C17.0475 11.2591 16.8965 11.4291 16.8109 11.6333C16.7253 11.8375 16.7099 12.0644 16.7671 12.2783C16.8243 12.4922 16.9508 12.6811 17.1269 12.8153C17.303 12.9495 17.5187 13.0215 17.7401 13.0199C17.9153 13.0212 18.0877 12.9763 18.2401 12.8899L21.5001 10.9999C21.654 10.9127 21.782 10.7862 21.8711 10.6334C21.9601 10.4806 22.0071 10.3068 22.0071 10.1299C22.0071 9.95305 21.9601 9.77932 21.8711 9.62648C21.782 9.47364 21.654 9.34716 21.5001 9.25994L12.5001 4.06994C12.3481 3.98217 12.1756 3.93597 12.0001 3.93597C11.8246 3.93597 11.6521 3.98217 11.5001 4.06994L10.6501 4.55994C10.4194 4.69255 10.2508 4.91139 10.1814 5.16831C10.112 5.42524 10.1475 5.6992 10.2801 5.92994C10.4127 6.16068 10.6316 6.32929 10.8885 6.39868C11.1454 6.46807 11.4194 6.43255 11.6501 6.29994V6.35994ZM3.71011 2.28994C3.61687 2.1967 3.50618 2.12274 3.38436 2.07228C3.26254 2.02182 3.13197 1.99585 3.00011 1.99585C2.86825 1.99585 2.73769 2.02182 2.61586 2.07228C2.49404 2.12274 2.38335 2.1967 2.29011 2.28994C2.10181 2.47824 1.99602 2.73364 1.99602 2.99994C1.99602 3.26624 2.10181 3.52164 2.29011 3.70994L5.93011 7.33994L2.50011 9.33994C2.34621 9.42716 2.21821 9.55364 2.12915 9.70648C2.04009 9.85932 1.99316 10.033 1.99316 10.2099C1.99316 10.3868 2.04009 10.5606 2.12915 10.7134C2.21821 10.8662 2.34621 10.9927 2.50011 11.0799L11.5001 16.2799C11.654 16.3627 11.8254 16.4073 12.0001 16.4099C12.1746 16.4058 12.3457 16.3613 12.5001 16.2799L14.0001 15.3999L15.4501 16.8599L12.0101 18.8599L3.50011 13.9299C3.26937 13.7973 2.99541 13.7618 2.73848 13.8312C2.48156 13.9006 2.26272 14.0692 2.13011 14.2999C1.9975 14.5307 1.96199 14.8046 2.03138 15.0616C2.10076 15.3185 2.26937 15.5373 2.50011 15.6699L11.5001 20.8699C11.6521 20.9577 11.8246 21.0039 12.0001 21.0039C12.1756 21.0039 12.3481 20.9577 12.5001 20.8699L16.9101 18.3199L20.2901 21.7099C20.3831 21.8037 20.4937 21.8781 20.6155 21.9288C20.7374 21.9796 20.8681 22.0057 21.0001 22.0057C21.1321 22.0057 21.2628 21.9796 21.3847 21.9288C21.5065 21.8781 21.6171 21.8037 21.7101 21.7099C21.8038 21.617 21.8782 21.5064 21.929 21.3845C21.9798 21.2627 22.0059 21.132 22.0059 20.9999C22.0059 20.8679 21.9798 20.7372 21.929 20.6154C21.8782 20.4935 21.8038 20.3829 21.7101 20.2899L3.71011 2.28994ZM12.0001 14.2899L5.00011 10.1899L7.40011 8.80994L12.5201 13.9399L12.0001 14.2899Z" />
</svg>
