<svg width="24" height="24" viewBox="0 0 24 24" xmlns="http://www.w3.org/2000/svg">
<path d="M13.4102 12L17.2102 8.21002C17.3039 8.11706 17.3783 8.00645 17.4291 7.8846C17.4798 7.76274 17.506 7.63203 17.506 7.50002C17.506 7.36801 17.4798 7.2373 17.4291 7.11544C17.3783 6.99358 17.3039 6.88298 17.2102 6.79002L12.7102 2.29002C12.6151 2.19898 12.5029 2.12761 12.3802 2.08002C12.1367 1.98 11.8636 1.98 11.6202 2.08002C11.3758 2.18149 11.1817 2.37567 11.0802 2.62002C11.0289 2.74024 11.0018 2.86934 11.0002 3.00002V9.59002L8.21019 6.79002C8.11695 6.69678 8.00626 6.62282 7.88443 6.57236C7.76261 6.5219 7.63204 6.49593 7.50019 6.49593C7.36833 6.49593 7.23776 6.5219 7.11594 6.57236C6.99411 6.62282 6.88342 6.69678 6.79019 6.79002C6.69695 6.88326 6.62299 6.99395 6.57253 7.11577C6.52207 7.23759 6.49609 7.36816 6.49609 7.50002C6.49609 7.63188 6.52207 7.76245 6.57253 7.88427C6.62299 8.00609 6.69695 8.11678 6.79019 8.21002L10.5902 12L6.79019 15.79C6.69695 15.8833 6.62299 15.9939 6.57253 16.1158C6.52207 16.2376 6.49609 16.3682 6.49609 16.5C6.49609 16.6319 6.52207 16.7624 6.57253 16.8843C6.62299 17.0061 6.69695 17.1168 6.79019 17.21C6.88342 17.3033 6.99411 17.3772 7.11594 17.4277C7.23776 17.4781 7.36833 17.5041 7.50019 17.5041C7.63204 17.5041 7.76261 17.4781 7.88443 17.4277C8.00626 17.3772 8.11695 17.3033 8.21019 17.21L11.0002 14.41V21C11.0018 21.1307 11.0289 21.2598 11.0802 21.38C11.1817 21.6244 11.3758 21.8185 11.6202 21.92C11.7399 21.9729 11.8693 22.0003 12.0002 22.0003C12.1311 22.0003 12.2605 21.9729 12.3802 21.92C12.5029 21.8724 12.6151 21.8011 12.7102 21.71L17.2102 17.21C17.3039 17.1171 17.3783 17.0065 17.4291 16.8846C17.4798 16.7627 17.506 16.632 17.506 16.5C17.506 16.368 17.4798 16.2373 17.4291 16.1154C17.3783 15.9936 17.3039 15.883 17.2102 15.79L13.4102 12ZM13.0002 5.41002L15.0902 7.50002L13.0002 9.59002V5.41002ZM13.0002 18.59V14.41L15.0902 16.5L13.0002 18.59Z" />
</svg>
