<svg width="24" height="24" viewBox="0 0 24 24" xmlns="http://www.w3.org/2000/svg">
<path d="M20.4701 7.37005C20.4701 7.37005 20.4701 7.37005 20.4701 7.29005L20.4101 7.14005C20.3893 7.10822 20.3659 7.07812 20.3401 7.05005C20.3134 7.00772 20.2833 6.96759 20.2501 6.93005L20.1601 6.86005L20.0001 6.78005L12.5001 2.15005C12.3412 2.05072 12.1576 1.99805 11.9701 1.99805C11.7827 1.99805 11.5991 2.05072 11.4401 2.15005L4.00014 6.78005L3.91015 6.86005L3.82014 6.93005C3.787 6.96759 3.7569 7.00772 3.73015 7.05005C3.70444 7.07812 3.68103 7.10822 3.66015 7.14005L3.60014 7.29005C3.60014 7.29005 3.60014 7.29005 3.60014 7.37005C3.59032 7.45644 3.59032 7.54366 3.60014 7.63005V16.3701C3.5998 16.54 3.64278 16.7072 3.72502 16.8559C3.80725 17.0047 3.92603 17.13 4.07015 17.22L11.5701 21.85C11.6163 21.8786 11.6671 21.8989 11.7201 21.91C11.7201 21.91 11.7701 21.91 11.8001 21.91C11.9693 21.9637 12.151 21.9637 12.3201 21.91C12.3201 21.91 12.3701 21.91 12.4001 21.91C12.4532 21.8989 12.504 21.8786 12.5501 21.85L20.0001 17.22C20.1443 17.13 20.263 17.0047 20.3453 16.8559C20.4275 16.7072 20.4705 16.54 20.4701 16.3701V7.63005C20.48 7.54366 20.48 7.45644 20.4701 7.37005ZM11.0001 19.21L5.50014 15.8101V9.43005L11.0001 12.82V19.21ZM12.0001 11.09L6.40015 7.63005L12.0001 4.18005L17.6001 7.63005L12.0001 11.09ZM18.5001 15.8101L13.0001 19.21V12.82L18.5001 9.43005V15.8101Z" />
</svg>
