<svg width="24" height="24" viewBox="0 0 24 24" xmlns="http://www.w3.org/2000/svg">
<path d="M19 6.5H13V4H17.62C17.8852 4 18.1396 3.89464 18.3271 3.70711C18.5146 3.51957 18.62 3.26522 18.62 3C18.62 2.73478 18.5146 2.48043 18.3271 2.29289C18.1396 2.10536 17.8852 2 17.62 2H6.38C6.11478 2 5.86043 2.10536 5.67289 2.29289C5.48536 2.48043 5.38 2.73478 5.38 3C5.38 3.26522 5.48536 3.51957 5.67289 3.70711C5.86043 3.89464 6.11478 4 6.38 4H11V6.5H5C4.20435 6.5 3.44129 6.81607 2.87868 7.37868C2.31607 7.94129 2 8.70435 2 9.5V19C2 19.7956 2.31607 20.5587 2.87868 21.1213C3.44129 21.6839 4.20435 22 5 22H19C19.7956 22 20.5587 21.6839 21.1213 21.1213C21.6839 20.5587 22 19.7956 22 19V9.5C22 8.70435 21.6839 7.94129 21.1213 7.37868C20.5587 6.81607 19.7956 6.5 19 6.5ZM11 20H5C4.73478 20 4.48043 19.8946 4.29289 19.7071C4.10536 19.5196 4 19.2652 4 19V15.25H11C10.9943 15.2931 10.9943 15.3369 11 15.38V19.88C10.9955 19.9199 10.9955 19.9601 11 20ZM20 19C20 19.2652 19.8946 19.5196 19.7071 19.7071C19.5196 19.8946 19.2652 20 19 20H13C13.0045 19.9601 13.0045 19.9199 13 19.88V15.38C13.0057 15.3369 13.0057 15.2931 13 15.25H20V19ZM20 13.25H4V9.5C4 9.23478 4.10536 8.98043 4.29289 8.79289C4.48043 8.60536 4.73478 8.5 5 8.5H19C19.2652 8.5 19.5196 8.60536 19.7071 8.79289C19.8946 8.98043 20 9.23478 20 9.5V13.25Z" />
</svg>
