<svg width="24" height="24" viewBox="0 0 24 24" xmlns="http://www.w3.org/2000/svg">
<path d="M17 3.5H7C6.07174 3.5 5.1815 3.86875 4.52513 4.52513C3.86875 5.1815 3.5 6.07174 3.5 7V17C3.5 17.9283 3.86875 18.8185 4.52513 19.4749C5.1815 20.1313 6.07174 20.5 7 20.5H17C17.9283 20.5 18.8185 20.1313 19.4749 19.4749C20.1313 18.8185 20.5 17.9283 20.5 17V7C20.5 6.07174 20.1313 5.1815 19.4749 4.52513C18.8185 3.86875 17.9283 3.5 17 3.5ZM10.5 5.5H13.5V8.5H10.5V5.5ZM8.5 18.5H7C6.60218 18.5 6.22064 18.342 5.93934 18.0607C5.65804 17.7794 5.5 17.3978 5.5 17V15.5H8.5V18.5ZM13.5 18.5H10.5V15.5H13.5V18.5ZM18.5 17C18.5 17.3978 18.342 17.7794 18.0607 18.0607C17.7794 18.342 17.3978 18.5 17 18.5H15.5V15.5H18.5V17ZM18.5 13.5H5.5V7C5.5 6.60218 5.65804 6.22064 5.93934 5.93934C6.22064 5.65804 6.60218 5.5 7 5.5H8.5V9.5C8.5 9.76522 8.60536 10.0196 8.79289 10.2071C8.98043 10.3946 9.23478 10.5 9.5 10.5H18.5V13.5ZM18.5 8.5H15.5V5.5H17C17.3978 5.5 17.7794 5.65804 18.0607 5.93934C18.342 6.22064 18.5 6.60218 18.5 7V8.5Z" />
</svg>
