<svg width="24" height="24" viewBox="0 0 24 24" xmlns="http://www.w3.org/2000/svg">
<path d="M20.4898 7.51996C20.4841 7.49359 20.4841 7.46632 20.4898 7.43996C20.485 7.41688 20.485 7.39304 20.4898 7.36996V7.27996L20.4298 7.12996C20.4054 7.08903 20.3751 7.05196 20.3398 7.01996L20.2498 6.93996H20.1998L16.2598 4.44996L12.5398 2.14996C12.4538 2.08169 12.3553 2.03075 12.2498 1.99996H12.1698C12.0804 1.98504 11.9892 1.98504 11.8998 1.99996H11.7998C11.6837 2.02565 11.5723 2.06952 11.4698 2.12996L3.99982 6.77996L3.90982 6.84996L3.81982 6.92996L3.71982 6.99996L3.66982 7.05996L3.60982 7.20996V7.29996V7.35996C3.60011 7.42627 3.60011 7.49365 3.60982 7.55996V16.29C3.60948 16.4599 3.65246 16.6271 3.7347 16.7759C3.81693 16.9246 3.93571 17.0499 4.07982 17.14L11.5798 21.78L11.7298 21.84H11.8098C11.979 21.8936 12.1606 21.8936 12.3298 21.84H12.4098L12.5598 21.78L19.9998 17.21C20.1439 17.1199 20.2627 16.9946 20.345 16.8459C20.4272 16.6971 20.4702 16.5299 20.4698 16.36V7.62996C20.4698 7.62996 20.4898 7.55996 20.4898 7.51996ZM11.9998 4.16996L13.7798 5.26996L8.18982 8.72996L6.39982 7.62996L11.9998 4.16996ZM10.9998 19.17L5.49982 15.81V9.41996L10.9998 12.82V19.17ZM11.9998 11.06L10.0898 9.90996L15.6798 6.43996L17.5998 7.62996L11.9998 11.06ZM18.4998 15.78L12.9998 19.2V12.82L18.4998 9.41996V15.78Z" />
</svg>
