<svg width="24" height="24" viewBox="0 0 24 24" xmlns="http://www.w3.org/2000/svg">
<path d="M19.088 4.95453C19.0806 4.94672 19.0784 4.93634 19.0708 4.92871C19.0632 4.92108 19.0526 4.91876 19.0447 4.91138C17.1743 3.04693 14.641 2 12 2C9.35902 2 6.82573 3.04693 4.95526 4.91138C4.94739 4.91876 4.93689 4.92102 4.9292 4.92871C4.92151 4.9364 4.91937 4.94671 4.91205 4.95453C3.51831 6.35495 2.57065 8.13686 2.18867 10.0754C1.80669 12.0139 2.00751 14.0221 2.76579 15.8465C3.52407 17.671 4.80582 19.23 6.44927 20.3267C8.09273 21.4234 10.0242 22.0087 12 22.0087C13.9758 22.0087 15.9073 21.4234 17.5507 20.3267C19.1942 19.23 20.4759 17.671 21.2342 15.8465C21.9925 14.0221 22.1933 12.0139 21.8113 10.0754C21.4294 8.13686 20.4817 6.35495 19.088 4.95453ZM12 20C10.8022 19.9996 9.61992 19.7298 8.54062 19.2104C7.46132 18.6911 6.51268 17.9357 5.76495 17H9.78022C10.0583 17.3144 10.4 17.5661 10.7827 17.7385C11.1653 17.9109 11.5802 18 12 18C12.4197 18 12.8346 17.9109 13.2172 17.7385C13.5999 17.5661 13.9416 17.3144 14.2197 17H18.235C17.4873 17.9357 16.5386 18.6911 15.4593 19.2105C14.38 19.7298 13.1977 19.9996 12 20ZM11 15C11 14.8022 11.0586 14.6089 11.1685 14.4444C11.2784 14.28 11.4345 14.1518 11.6173 14.0761C11.8 14.0004 12.0011 13.9806 12.195 14.0192C12.389 14.0578 12.5672 14.153 12.7071 14.2929C12.8469 14.4327 12.9422 14.6109 12.9807 14.8049C13.0193 14.9989 12.9995 15.2 12.9238 15.3827C12.8481 15.5654 12.72 15.7216 12.5555 15.8315C12.3911 15.9413 12.1977 16 12 16C11.7348 15.9997 11.4806 15.8943 11.2931 15.7068C11.1057 15.5193 11.0002 15.2651 11 15ZM19.4102 15.0021L19.3999 15H15C14.9981 14.3816 14.8048 13.779 14.4467 13.2748C14.0886 12.7707 13.5832 12.3897 13 12.1843V9C13 8.73478 12.8946 8.48043 12.7071 8.29289C12.5195 8.10536 12.2652 8 12 8C11.7347 8 11.4804 8.10536 11.2928 8.29289C11.1053 8.48043 11 8.73478 11 9V12.1843C10.4167 12.3897 9.91132 12.7707 9.55322 13.2748C9.19512 13.779 9.00186 14.3816 8.99995 15H4.60005L4.58973 15.0021C4.32963 14.3603 4.1547 13.6872 4.06941 13H4.99995C5.26517 13 5.51952 12.8946 5.70706 12.7071C5.8946 12.5196 5.99995 12.2652 5.99995 12C5.99995 11.7348 5.8946 11.4804 5.70706 11.2929C5.51952 11.1054 5.26517 11 4.99995 11H4.06941C4.2481 9.57857 4.80751 8.23182 5.68849 7.10211L6.34321 7.75684C6.43606 7.84969 6.54629 7.92334 6.6676 7.97359C6.78892 8.02384 6.91894 8.0497 7.05025 8.0497C7.18156 8.0497 7.31158 8.02384 7.43289 7.97359C7.5542 7.92334 7.66443 7.84968 7.75728 7.75683C7.85013 7.66398 7.92378 7.55376 7.97403 7.43244C8.02428 7.31113 8.05014 7.18111 8.05014 7.0498C8.05014 6.91849 8.02428 6.78847 7.97403 6.66716C7.92378 6.54585 7.85012 6.43562 7.75727 6.34277L7.10261 5.68811C8.23224 4.80741 9.57877 4.24817 11 4.06946V5C11 5.26522 11.1053 5.51957 11.2928 5.70711C11.4804 5.89464 11.7347 6 12 6C12.2652 6 12.5195 5.89464 12.7071 5.70711C12.8946 5.51957 13 5.26522 13 5V4.06946C14.4211 4.24817 15.7677 4.80741 16.8973 5.68811L16.2426 6.34277C16.0551 6.53029 15.9498 6.78461 15.9498 7.0498C15.9498 7.31499 16.0551 7.56932 16.2426 7.75683C16.4301 7.94435 16.6845 8.0497 16.9497 8.0497C17.2148 8.0497 17.4692 7.94436 17.6567 7.75684L18.3114 7.10211C19.1924 8.23182 19.7518 9.57857 19.9305 11H19C18.7347 11 18.4804 11.1054 18.2928 11.2929C18.1053 11.4804 18 11.7348 18 12C18 12.2652 18.1053 12.5196 18.2928 12.7071C18.4804 12.8946 18.7347 13 19 13H19.9305C19.8452 13.6872 19.6703 14.3603 19.4102 15.0021Z" />
</svg>
