<svg width="24" height="24" viewBox="0 0 24 24" xmlns="http://www.w3.org/2000/svg">
<path d="M22.0005 9.67002C21.9373 9.48711 21.8224 9.32645 21.6698 9.20753C21.5171 9.0886 21.3333 9.01652 21.1405 9.00002L15.4505 8.17002L12.9005 3.00002C12.8186 2.83095 12.6907 2.68837 12.5316 2.5886C12.3724 2.48883 12.1883 2.43591 12.0005 2.43591C11.8126 2.43591 11.6286 2.48883 11.4694 2.5886C11.3102 2.68837 11.1824 2.83095 11.1005 3.00002L8.55047 8.16002L2.86047 9.00002C2.67539 9.02633 2.50139 9.10399 2.35822 9.22418C2.21504 9.34438 2.10843 9.5023 2.05047 9.68002C1.99741 9.8537 1.99265 10.0385 2.03669 10.2147C2.08074 10.3909 2.17192 10.5517 2.30047 10.68L6.43047 14.68L5.43047 20.36C5.39009 20.5484 5.40502 20.7445 5.47345 20.9247C5.54188 21.1048 5.6609 21.2613 5.8162 21.3754C5.97149 21.4895 6.15644 21.5563 6.34879 21.5678C6.54115 21.5792 6.73272 21.5349 6.90047 21.44L12.0005 18.77L17.1005 21.44C17.2408 21.5192 17.3993 21.5606 17.5605 21.56C17.7723 21.5608 17.9789 21.4942 18.1505 21.37C18.3056 21.2589 18.4257 21.1057 18.4966 20.9285C18.5675 20.7513 18.5862 20.5575 18.5505 20.37L17.5505 14.69L21.6805 10.69C21.8248 10.5677 21.9316 10.4069 21.9882 10.2264C22.0448 10.0458 22.0491 9.8529 22.0005 9.67002ZM15.8505 13.67C15.7347 13.7824 15.6479 13.9212 15.5974 14.0744C15.5469 14.2276 15.5342 14.3908 15.5605 14.55L16.2805 18.75L12.5205 16.75C12.3743 16.6777 12.2135 16.6401 12.0505 16.6401C11.8874 16.6401 11.7266 16.6777 11.5805 16.75L7.82047 18.75L8.54047 14.55C8.5667 14.3908 8.55403 14.2276 8.50353 14.0744C8.45304 13.9212 8.36621 13.7824 8.25047 13.67L5.25047 10.67L9.46047 10.06C9.62246 10.0375 9.77646 9.97556 9.90896 9.87967C10.0415 9.78379 10.1484 9.65686 10.2205 9.51002L12.0005 5.70002L13.8805 9.52002C13.9525 9.66686 14.0595 9.79379 14.192 9.88968C14.3245 9.98556 14.4785 10.0475 14.6405 10.07L18.8505 10.68L15.8505 13.67Z" />
</svg>
