<svg width="24" height="24" viewBox="0 0 24 24" xmlns="http://www.w3.org/2000/svg">
<path d="M22 1.00002H15C14.4275 0.997675 13.8724 1.19673 13.4318 1.56235C12.9912 1.92797 12.6932 2.43688 12.59 3.00002L11.67 8.05002C11.6064 8.40186 11.6209 8.76337 11.7125 9.10898C11.8041 9.45459 11.9705 9.77584 12.2 10.05C12.4307 10.3243 12.7184 10.5451 13.0431 10.6971C13.3677 10.8491 13.7215 10.9285 14.08 10.93H17L16.75 11.59C16.5654 12.0794 16.5013 12.606 16.5631 13.1254C16.6248 13.6447 16.8107 14.1416 17.1048 14.574C17.399 15.0065 17.7929 15.3618 18.2533 15.61C18.7137 15.8582 19.227 15.992 19.75 16C19.9441 16.0016 20.1344 15.9466 20.2977 15.8418C20.4611 15.7371 20.5904 15.587 20.67 15.41L22.91 10.35C22.961 10.2398 22.9915 10.1212 23 10V2.00002C23 1.7348 22.8946 1.48045 22.7071 1.29291C22.5196 1.10538 22.2652 1.00002 22 1.00002ZM21 9.73002L19.17 13.86C18.9914 13.7628 18.8375 13.626 18.72 13.46C18.6023 13.2934 18.5279 13.1002 18.5035 12.8977C18.479 12.6952 18.5053 12.4898 18.58 12.3L18.96 11.3C19.06 11.0407 19.094 10.7606 19.0591 10.4848C19.0242 10.2091 18.9214 9.94628 18.76 9.72002C18.601 9.49463 18.3896 9.3113 18.1439 9.18586C17.8983 9.06043 17.6258 8.99664 17.35 9.00002H14.06C13.9936 9.00021 13.9279 8.986 13.8675 8.95838C13.807 8.93076 13.7533 8.89038 13.71 8.84002C13.6324 8.73339 13.6 8.6004 13.62 8.47002L14.54 3.47002C14.5357 3.40804 14.5446 3.34586 14.566 3.28755C14.5875 3.22925 14.621 3.17615 14.6645 3.13175C14.7079 3.08735 14.7603 3.05266 14.8181 3.02995C14.876 3.00725 14.9379 2.99705 15 3.00002H21V9.73002ZM9.94 13.05H7.05L7.3 12.39C7.4819 11.8978 7.54228 11.3689 7.47602 10.8484C7.40975 10.3278 7.2188 9.83091 6.91938 9.39995C6.61996 8.96899 6.22094 8.61667 5.7562 8.37295C5.29147 8.12922 4.77476 8.00129 4.25 8.00002C4.05594 7.99849 3.86563 8.05345 3.70227 8.15822C3.53891 8.26298 3.40956 8.41301 3.33 8.59002L1.09 13.65C1.0327 13.7757 1.00205 13.9119 1 14.05V22.05C1 22.3152 1.10536 22.5696 1.29289 22.7571C1.48043 22.9447 1.73478 23.05 2 23.05H9C9.57252 23.0524 10.1276 22.8533 10.5682 22.4877C11.0088 22.1221 11.3068 21.6132 11.41 21.05L12.33 16.05C12.3936 15.6982 12.3791 15.3367 12.2875 14.9911C12.1959 14.6455 12.0295 14.3242 11.8 14.05C11.5832 13.7562 11.3039 13.5141 10.9823 13.3412C10.6606 13.1683 10.3047 13.0689 9.94 13.05ZM9.46 20.63C9.44283 20.7377 9.38626 20.8352 9.30126 20.9036C9.21626 20.972 9.1089 21.0063 9 21H3V14.27L4.83 10.14C5.0086 10.2372 5.16255 10.374 5.28 10.54C5.39768 10.7066 5.47209 10.8998 5.49653 11.1023C5.52097 11.3048 5.49467 11.5102 5.42 11.7L5.04 12.7C4.94003 12.9594 4.90597 13.2395 4.94088 13.5152C4.97578 13.791 5.07856 14.0538 5.24 14.28C5.39675 14.5091 5.60721 14.6963 5.853 14.8253C6.09879 14.9543 6.37242 15.0212 6.65 15.02H9.94C10.0064 15.0198 10.0721 15.034 10.1325 15.0617C10.193 15.0893 10.2467 15.1297 10.29 15.18C10.3676 15.2867 10.4 15.4196 10.38 15.55L9.46 20.63Z" />
</svg>
