<svg width="24" height="24" viewBox="0 0 24 24" xmlns="http://www.w3.org/2000/svg">
<path d="M8.4678 8.39457L8.46555 8.3964L8.46341 8.39848L8.4678 8.39457ZM18.4219 8.20804C18.3523 8.14099 18.2751 8.08232 18.1919 8.03323C18.0741 7.9639 17.9433 7.91946 17.8076 7.90268C17.672 7.88589 17.5343 7.89711 17.4031 7.93565C17.272 7.97418 17.1501 8.03921 17.0451 8.12671C16.9401 8.21421 16.8541 8.32233 16.7925 8.44437C16.448 9.12306 15.9729 9.72706 15.3945 10.2217C15.483 9.72332 15.5276 9.21813 15.5278 8.71194C15.5297 7.17205 15.1234 5.65915 14.3505 4.32731C13.5775 2.99546 12.4654 1.89223 11.1274 1.12994C10.98 1.04639 10.8138 1.00165 10.6444 0.99993C10.475 0.998205 10.3079 1.03955 10.1588 1.12009C10.0098 1.20062 9.88362 1.31771 9.7922 1.46036C9.70078 1.603 9.6471 1.76654 9.6362 1.93561C9.58024 2.88379 9.33236 3.81073 8.90759 4.66028C8.48282 5.50983 7.88999 6.2643 7.16503 6.87797L6.93456 7.06547C6.17648 7.57556 5.50546 8.20438 4.94726 8.92777C4.07958 10.0209 3.47851 11.3011 3.19172 12.667C2.90493 14.0328 2.94031 15.4467 3.29506 16.7964C3.6498 18.1462 4.31415 19.3948 5.23543 20.4431C6.1567 21.4915 7.30956 22.3107 8.60257 22.836C8.75439 22.898 8.91914 22.9217 9.08229 22.9051C9.24545 22.8884 9.40198 22.8318 9.5381 22.7403C9.67422 22.6488 9.78573 22.5252 9.8628 22.3805C9.93987 22.2357 9.98013 22.0742 9.98003 21.9102C9.97932 21.8041 9.96252 21.6988 9.93023 21.5977C9.7065 20.7567 9.64208 19.8813 9.74028 19.0166C10.6865 20.8014 12.2054 22.216 14.0528 23.0332C14.2783 23.1341 14.5332 23.1477 14.7681 23.0713C16.2277 22.6002 17.5425 21.7638 18.5878 20.6414C19.633 19.519 20.3739 18.148 20.74 16.6586C21.1061 15.1693 21.0853 13.611 20.6796 12.132C20.2739 10.6529 19.4967 9.30215 18.4219 8.20804ZM14.5171 21.0391C13.6454 20.5973 12.8765 19.977 12.2603 19.2186C11.6441 18.4601 11.1944 17.5804 10.9405 16.6368C10.8629 16.319 10.8029 15.9972 10.7608 15.6729C10.7322 15.4663 10.6398 15.2739 10.4965 15.1224C10.3532 14.971 10.1661 14.8681 9.96146 14.8282C9.89841 14.8157 9.8343 14.8095 9.77003 14.8096C9.59427 14.8096 9.42161 14.8558 9.26944 14.9438C9.11728 15.0318 8.991 15.1583 8.90333 15.3106C8.0736 16.7417 7.65633 18.3746 7.69776 20.0284C6.968 19.461 6.35811 18.7544 5.90344 17.9496C5.44876 17.1447 5.15835 16.2577 5.04903 15.3398C4.93971 14.4219 5.01366 13.4914 5.26658 12.6023C5.51951 11.7132 5.94639 10.8831 6.52247 10.1602C6.95989 9.59206 7.48756 9.09952 8.08447 8.70222C8.11032 8.68554 8.1351 8.66728 8.15869 8.64753C8.15869 8.64753 8.45538 8.40205 8.46552 8.39643C9.89022 7.1914 10.9035 5.57195 11.3643 3.76374C12.4538 4.77098 13.1804 6.10977 13.431 7.57225C13.6817 9.03473 13.4425 10.5391 12.7505 11.8516C12.6591 12.0268 12.6216 12.2251 12.6427 12.4215C12.6639 12.618 12.7427 12.8037 12.8693 12.9554C12.9959 13.1071 13.1646 13.2179 13.3541 13.2738C13.5436 13.3297 13.7454 13.3283 13.9341 13.2696C15.4659 12.7895 16.8138 11.8516 17.7964 10.5821C18.3869 11.4544 18.773 12.4487 18.9259 13.491C19.0787 14.5332 18.9944 15.5965 18.6792 16.6017C18.364 17.6068 17.826 18.5279 17.1054 19.2962C16.3847 20.0645 15.5 20.6603 14.5171 21.0391L14.5171 21.0391Z" />
</svg>
