<svg width="24" height="24" viewBox="0 0 24 24" xmlns="http://www.w3.org/2000/svg">
<path d="M21.9998 5.07996C22.0007 4.47018 21.8205 3.87387 21.4821 3.36659C21.1437 2.85931 20.6624 2.46388 20.0991 2.23042C19.5357 1.99695 18.9158 1.93595 18.3178 2.05514C17.7198 2.17433 17.1706 2.46836 16.7398 2.89996L13.9298 5.70996L7.43982 3.54996C7.26702 3.49565 7.08273 3.48929 6.9066 3.53156C6.73048 3.57383 6.56914 3.66314 6.43982 3.78996L4.05982 6.14996C3.94705 6.26403 3.86337 6.40357 3.81586 6.55678C3.76835 6.70999 3.75839 6.87238 3.78683 7.03025C3.81526 7.18811 3.88126 7.33682 3.97924 7.46383C4.07723 7.59083 4.20433 7.6924 4.34982 7.75996L9.52982 10.11L6.92982 12.71L5.21982 11.85C5.03519 11.75 4.8238 11.7107 4.6156 11.7377C4.4074 11.7646 4.21295 11.8564 4.05982 12L2.28982 13.81C2.10357 13.9973 1.99902 14.2508 1.99902 14.515C1.99902 14.7791 2.10357 15.0326 2.28982 15.22L8.77982 21.71C8.96718 21.8962 9.22063 22.0007 9.48482 22.0007C9.749 22.0007 10.0025 21.8962 10.1898 21.71L11.9998 19.94C12.1499 19.7914 12.2491 19.5992 12.2832 19.3908C12.3174 19.1824 12.2847 18.9686 12.1898 18.78L11.3298 17.07L13.9298 14.47L16.2798 19.65C16.3474 19.7954 16.4489 19.9225 16.5759 20.0205C16.7029 20.1185 16.8517 20.1845 17.0095 20.2129C17.1674 20.2414 17.3298 20.2314 17.483 20.1839C17.6362 20.1364 17.7757 20.0527 17.8898 19.94L20.2498 17.58C20.3766 17.4506 20.4659 17.2893 20.5082 17.1132C20.5505 16.937 20.5441 16.7527 20.4898 16.58L18.3298 10.09L21.0998 7.25996C21.387 6.97452 21.6145 6.63475 21.7691 6.26047C21.9236 5.88618 22.002 5.48488 21.9998 5.07996ZM19.6798 5.84996L16.4398 9.08996C16.313 9.21928 16.2237 9.38062 16.1814 9.55674C16.1391 9.73287 16.1455 9.91716 16.1998 10.09L18.3598 16.57L17.4598 17.47L15.1098 12.3C15.0431 12.1531 14.9419 12.0246 14.8148 11.9253C14.6877 11.8261 14.5384 11.7591 14.3798 11.73C14.2199 11.7008 14.0552 11.711 13.9002 11.7598C13.7451 11.8086 13.6042 11.8945 13.4898 12.01L9.36982 16.17C9.2219 16.3177 9.12402 16.5081 9.08994 16.7144C9.05586 16.9207 9.08729 17.1325 9.17982 17.32L9.99982 19L9.43982 19.56L4.40982 14.52L4.99982 14L6.70982 14.86C6.89731 14.9525 7.10908 14.9839 7.31536 14.9498C7.52164 14.9157 7.71205 14.8179 7.85982 14.67L11.9998 10.51C12.1147 10.396 12.2002 10.2558 12.249 10.1014C12.2978 9.94708 12.3084 9.7832 12.2798 9.62387C12.2513 9.46454 12.1845 9.31451 12.0853 9.18668C11.986 9.05884 11.8571 8.95702 11.7098 8.88996L6.49982 6.53996L7.39982 5.63996L13.8798 7.79996C14.0526 7.85427 14.2369 7.86062 14.413 7.81835C14.5892 7.77608 14.7505 7.68677 14.8798 7.55996L18.1198 4.31996C18.2195 4.21806 18.3385 4.13709 18.4698 4.08182C18.6012 4.02654 18.7423 3.99807 18.8848 3.99807C19.0273 3.99807 19.1684 4.02654 19.2998 4.08182C19.4312 4.13709 19.5502 4.21806 19.6498 4.31996C19.7541 4.4166 19.8366 4.53438 19.8918 4.66544C19.947 4.79649 19.9736 4.93781 19.9698 5.07996C19.9752 5.22115 19.9524 5.36201 19.9026 5.49424C19.8528 5.62648 19.777 5.74742 19.6798 5.84996Z" />
</svg>
