<svg width="24" height="24" viewBox="0 0 24 24" xmlns="http://www.w3.org/2000/svg">
<path d="M22.9996 9.32004C23.0623 9.06311 23.0266 8.79203 22.8996 8.56005C22.5755 7.99769 22.1436 7.50486 21.6286 7.10984C21.1136 6.71482 20.5256 6.42539 19.8985 6.25815C19.2713 6.09092 18.6173 6.04916 17.974 6.13529C17.3307 6.22142 16.7107 6.43373 16.1496 6.76005L13.9996 8.00004L8.99962 5.65004C8.85747 5.5764 8.69972 5.53796 8.53962 5.53796C8.37953 5.53796 8.22177 5.5764 8.07962 5.65004L5.07962 7.38004C4.93136 7.46557 4.80753 7.58771 4.71998 7.73478C4.63244 7.88186 4.58411 8.04894 4.57962 8.22005C4.57478 8.39241 4.61459 8.56311 4.69519 8.71555C4.77579 8.86799 4.89444 8.997 5.03962 9.09004L8.33962 11.17L6.59962 12.17L1.81962 12.75C1.62747 12.7738 1.44635 12.8529 1.29824 12.9776C1.15014 13.1023 1.04143 13.2673 0.985312 13.4526C0.929191 13.6379 0.928072 13.8355 0.982091 14.0215C1.03611 14.2074 1.14294 14.3737 1.28962 14.5L4.82962 17.56C5.29567 18.0048 5.89252 18.2878 6.53187 18.367C7.17121 18.4463 7.81909 18.3176 8.37962 18L22.4996 9.93005C22.62 9.86758 22.7263 9.78129 22.8123 9.67642C22.8983 9.57156 22.962 9.45031 22.9996 9.32004ZM7.46962 16.32C7.27753 16.4257 7.05603 16.4654 6.8392 16.4329C6.62238 16.4003 6.42225 16.2974 6.26962 16.14L4.36962 14.51L7.09962 14.18C7.23378 14.1629 7.36305 14.1186 7.47962 14.05L10.8396 12.12C10.9893 12.0337 11.1141 11.9099 11.2017 11.761C11.2893 11.612 11.3368 11.4429 11.3396 11.27C11.3417 11.0984 11.2995 10.9291 11.2172 10.7785C11.1349 10.6279 11.0152 10.501 10.8696 10.41L7.56962 8.32004L8.66962 7.69004L13.6696 10.01C13.8118 10.0837 13.9695 10.1221 14.1296 10.1221C14.2897 10.1221 14.4475 10.0837 14.5896 10.01L17.1496 8.53004C17.6742 8.23605 18.2751 8.1065 18.8742 8.15821C19.4734 8.20992 20.0431 8.44051 20.5096 8.82004L7.46962 16.32Z" />
</svg>
