<svg width="24" height="24" viewBox="0 0 24 24" xmlns="http://www.w3.org/2000/svg">
<path d="M16.8405 11.63C17.241 11.635 17.6385 11.5597 18.0095 11.4085C18.3805 11.2574 18.7174 11.0335 19.0005 10.75L21.8305 7.92003C22.0167 7.73267 22.1213 7.47922 22.1213 7.21503C22.1213 6.95085 22.0167 6.6974 21.8305 6.51003C21.7375 6.41631 21.6269 6.34191 21.5051 6.29114C21.3832 6.24037 21.2525 6.21424 21.1205 6.21424C20.9885 6.21424 20.8578 6.24037 20.7359 6.29114C20.614 6.34191 20.5034 6.41631 20.4105 6.51003L17.5505 9.33003C17.4575 9.42376 17.3469 9.49816 17.2251 9.54893C17.1032 9.59969 16.9725 9.62583 16.8405 9.62583C16.7085 9.62583 16.5778 9.59969 16.4559 9.54893C16.334 9.49816 16.2234 9.42376 16.1305 9.33003L19.6705 5.80003C19.7637 5.7068 19.8377 5.59611 19.8881 5.47428C19.9386 5.35246 19.9646 5.22189 19.9646 5.09003C19.9646 4.95817 19.9386 4.82761 19.8881 4.70579C19.8377 4.58396 19.7637 4.47327 19.6705 4.38003C19.5772 4.2868 19.4665 4.21283 19.3447 4.16237C19.2229 4.11191 19.0923 4.08594 18.9605 4.08594C18.8286 4.08594 18.698 4.11191 18.5762 4.16237C18.4544 4.21283 18.3437 4.2868 18.2505 4.38003L14.7205 7.92003C14.5342 7.73267 14.4297 7.47922 14.4297 7.21503C14.4297 6.95085 14.5342 6.6974 14.7205 6.51003L17.5505 3.68003C17.6437 3.5868 17.7177 3.47611 17.7681 3.35428C17.8186 3.23246 17.8446 3.10189 17.8446 2.97003C17.8446 2.83817 17.8186 2.70761 17.7681 2.58578C17.7177 2.46396 17.6437 2.35327 17.5505 2.26003C17.4572 2.1668 17.3465 2.09283 17.2247 2.04237C17.1029 1.99191 16.9723 1.96594 16.8405 1.96594C16.7086 1.96594 16.578 1.99191 16.4562 2.04237C16.3344 2.09283 16.2237 2.1668 16.1305 2.26003L13.3005 5.09003C12.7387 5.65254 12.4231 6.41503 12.4231 7.21003C12.4231 8.00504 12.7387 8.76753 13.3005 9.33003L12.0005 10.62L3.73048 2.32003L3.63048 2.26003C3.57936 2.21543 3.52211 2.17839 3.46048 2.15003L3.28048 2.08003L3.16048 2.00003H3.09048H2.89048C2.83085 1.9905 2.7701 1.9905 2.71048 2.00003C2.64994 2.02207 2.59273 2.05235 2.54048 2.09003L2.38048 2.19003H2.31048L2.25048 2.29003C2.20815 2.34283 2.1713 2.39979 2.14048 2.46003C2.11119 2.52101 2.08775 2.58463 2.07048 2.65003C2.07048 2.65003 2.07048 2.72003 2.07048 2.76003C1.82781 4.45144 1.98253 6.17613 2.52235 7.79735C3.06218 9.41856 3.97227 10.8917 5.18048 12.1L7.82048 14.73L2.41048 20.13C2.31675 20.223 2.24235 20.3336 2.19158 20.4555C2.14082 20.5773 2.11468 20.708 2.11468 20.84C2.11468 20.972 2.14082 21.1028 2.19158 21.2246C2.24235 21.3465 2.31675 21.4571 2.41048 21.55C2.50392 21.6427 2.61473 21.716 2.73657 21.7658C2.85841 21.8156 2.98887 21.8408 3.12048 21.84C3.25208 21.8408 3.38254 21.8156 3.50438 21.7658C3.62622 21.716 3.73704 21.6427 3.83048 21.55L9.90048 15.57L12.7305 12.74L14.7305 10.74C15.2885 11.304 16.0471 11.624 16.8405 11.63ZM9.19048 13.45L6.56048 10.81C5.11893 9.34877 4.21632 7.4413 4.00048 5.40003L10.6105 12L9.19048 13.45ZM15.4305 14.02C15.2422 13.8304 14.9863 13.7233 14.719 13.7224C14.4518 13.7215 14.1951 13.8267 14.0055 14.015C13.8158 14.2033 13.7088 14.4593 13.7078 14.7265C13.7069 14.9937 13.8122 15.2504 14.0005 15.44L20.3005 21.74C20.4915 21.9138 20.7423 22.007 21.0005 22C21.1321 22.0008 21.2625 21.9756 21.3844 21.9258C21.5062 21.876 21.617 21.8027 21.7105 21.71C21.8042 21.6171 21.8786 21.5065 21.9294 21.3846C21.9801 21.2628 22.0063 21.132 22.0063 21C22.0063 20.868 21.9801 20.7373 21.9294 20.6155C21.8786 20.4936 21.8042 20.383 21.7105 20.29L15.4305 14.02Z" />
</svg>
