<svg width="24" height="24" viewBox="0 0 24 24" xmlns="http://www.w3.org/2000/svg">
<path d="M18.0002 20H13.0002V14.94C15.1996 14.6941 17.2312 13.6465 18.707 11.9973C20.1828 10.3482 20.9992 8.21306 21.0002 6C21.0053 4.83662 20.7775 3.68399 20.3302 2.61C20.2785 2.48998 20.2038 2.38127 20.1102 2.29L20.0002 2.21C19.9364 2.15742 19.8657 2.1137 19.7902 2.08C19.7016 2.03895 19.6071 2.01196 19.5102 2H19.4102H4.59022H4.50022C4.40099 2.00455 4.30311 2.0248 4.21022 2.06C4.1375 2.10245 4.06738 2.1492 4.00022 2.2L3.88022 2.29C3.78668 2.38127 3.71194 2.48998 3.66022 2.61C3.21641 3.6847 2.992 4.8373 3.00022 6C3.00127 8.21306 3.81767 10.3482 5.29344 11.9973C6.7692 13.6465 8.80086 14.6941 11.0002 14.94V20H6.00022C5.735 20 5.48065 20.1054 5.29311 20.2929C5.10557 20.4804 5.00022 20.7348 5.00022 21C5.00022 21.2652 5.10557 21.5196 5.29311 21.7071C5.48065 21.8946 5.735 22 6.00022 22H18.0002C18.2654 22 18.5198 21.8946 18.7073 21.7071C18.8949 21.5196 19.0002 21.2652 19.0002 21C19.0002 20.7348 18.8949 20.4804 18.7073 20.2929C18.5198 20.1054 18.2654 20 18.0002 20ZM5.00022 6C4.99835 5.32272 5.09606 4.64885 5.29022 4H18.7102C18.9044 4.64885 19.0021 5.32272 19.0002 6C19.0002 7.85652 18.2627 9.63699 16.95 10.9497C15.6372 12.2625 13.8567 13 12.0002 13C10.1437 13 8.36322 12.2625 7.05047 10.9497C5.73772 9.63699 5.00022 7.85652 5.00022 6Z" />
</svg>
