<svg width="24" height="24" viewBox="0 0 24 24" xmlns="http://www.w3.org/2000/svg">
<path d="M19.7504 2.33003C19.6558 2.22518 19.54 2.14156 19.4107 2.08468C19.2815 2.02781 19.1416 1.99895 19.0004 2.00003H5.00038C4.85915 1.99895 4.7193 2.02781 4.59003 2.08468C4.46076 2.14156 4.345 2.22518 4.25038 2.33003C4.15601 2.43503 4.08495 2.55882 4.04186 2.69326C3.99877 2.8277 3.98463 2.96974 4.00038 3.11003L5.80038 19.33C5.88195 20.0672 6.23369 20.748 6.7877 21.2411C7.34172 21.7341 8.05874 22.0045 8.80038 22H15.2204C15.962 22.0045 16.679 21.7341 17.2331 21.2411C17.7871 20.748 18.1388 20.0672 18.2204 19.33L20.0004 3.11003C20.0161 2.96974 20.002 2.8277 19.9589 2.69326C19.9158 2.55882 19.8448 2.43503 19.7504 2.33003ZM16.2004 19.11C16.1732 19.3557 16.0559 19.5827 15.8713 19.747C15.6866 19.9114 15.4476 20.0015 15.2004 20H8.79038C8.54317 20.0015 8.30416 19.9114 8.11949 19.747C7.93482 19.5827 7.81757 19.3557 7.79038 19.11L6.78038 10H17.2204L16.2004 19.11ZM17.4404 8.00003H6.56038L6.12038 4.00003H17.8804L17.4404 8.00003Z" />
</svg>
