<svg width="24" height="24" viewBox="0 0 24 24" xmlns="http://www.w3.org/2000/svg">
<path d="M21.6604 10.25L12.6604 2.24996C12.4779 2.08964 12.2433 2.00122 12.0004 2.00122C11.7575 2.00122 11.5229 2.08964 11.3404 2.24996L2.34036 10.25C2.1874 10.3853 2.07953 10.5642 2.03126 10.7626C1.98299 10.961 1.99664 11.1695 2.07036 11.36C2.14288 11.5479 2.27047 11.7095 2.43641 11.8237C2.60236 11.9379 2.79892 11.9994 3.00036 12H4.00036V21C4.00036 21.2652 4.10572 21.5195 4.29326 21.7071C4.48079 21.8946 4.73515 22 5.00036 22H19.0004C19.2656 22 19.5199 21.8946 19.7075 21.7071C19.895 21.5195 20.0004 21.2652 20.0004 21V12H21.0004C21.2018 11.9994 21.3984 11.9379 21.5643 11.8237C21.7303 11.7095 21.8578 11.5479 21.9304 11.36C22.0041 11.1695 22.0177 10.961 21.9695 10.7626C21.9212 10.5642 21.8133 10.3853 21.6604 10.25ZM13.0004 20H11.0004V17C11.0004 16.7347 11.1057 16.4804 11.2933 16.2928C11.4808 16.1053 11.7351 16 12.0004 16C12.2656 16 12.5199 16.1053 12.7075 16.2928C12.895 16.4804 13.0004 16.7347 13.0004 17V20ZM18.0004 20H15.0004V17C15.0004 16.2043 14.6843 15.4412 14.1217 14.8786C13.5591 14.316 12.796 14 12.0004 14C11.2047 14 10.4417 14.316 9.87904 14.8786C9.31643 15.4412 9.00036 16.2043 9.00036 17V20H6.00036V12H18.0004V20ZM5.63036 9.99996L12.0004 4.33996L18.3704 9.99996H5.63036Z" />
</svg>
