<svg width="24" height="24" viewBox="0 0 24 24" xmlns="http://www.w3.org/2000/svg">
<path d="M9.99984 17.55L8.22984 19.27C7.76571 19.7341 7.13621 19.9948 6.47984 19.9948C5.82346 19.9948 5.19397 19.7341 4.72984 19.27C4.26571 18.8058 4.00496 18.1763 4.00496 17.52C4.00496 16.8636 4.26571 16.2341 4.72984 15.77L9.26984 11.22C9.71545 10.7729 10.3159 10.5143 10.9469 10.4975C11.5778 10.4807 12.1911 10.7072 12.6598 11.13L12.7798 11.23C12.9695 11.4156 13.2251 11.5183 13.4904 11.5155C13.7558 11.5127 14.0092 11.4046 14.1948 11.215C14.3805 11.0253 14.4832 10.7697 14.4804 10.5044C14.4776 10.239 14.3695 9.98562 14.1798 9.79997C14.1234 9.727 14.0633 9.65691 13.9998 9.58997C13.1462 8.84729 12.0422 8.45682 10.9114 8.49767C9.78064 8.53852 8.70767 9.00763 7.90984 9.80997L3.30984 14.36C2.52819 15.2108 2.10546 16.3306 2.12991 17.4857C2.15436 18.6408 2.62412 19.7418 3.44107 20.5587C4.25802 21.3757 5.359 21.8454 6.51408 21.8699C7.66917 21.8944 8.78904 21.4716 9.63984 20.69L11.3698 19C11.5407 18.8136 11.6346 18.5695 11.6326 18.3167C11.6307 18.0639 11.5332 17.8212 11.3595 17.6375C11.1859 17.4537 10.9492 17.3426 10.6969 17.3263C10.4446 17.3101 10.1956 17.39 9.99984 17.55ZM20.6898 3.30997C19.8486 2.47398 18.7108 2.00476 17.5248 2.00476C16.3389 2.00476 15.2011 2.47398 14.3598 3.30997L12.6298 4.99997C12.459 5.18632 12.3651 5.43045 12.367 5.68324C12.3689 5.93603 12.4665 6.17871 12.6401 6.36246C12.8137 6.54621 13.0505 6.65739 13.3028 6.67362C13.555 6.68986 13.8041 6.60995 13.9998 6.44997L15.7298 4.72997C16.194 4.26584 16.8235 4.0051 17.4798 4.0051C18.1362 4.0051 18.7657 4.26584 19.2298 4.72997C19.694 5.1941 19.9547 5.8236 19.9547 6.47997C19.9547 7.13635 19.694 7.76584 19.2298 8.22997L14.6898 12.78C14.2442 13.227 13.6438 13.4857 13.0128 13.5024C12.3818 13.5192 11.7685 13.2928 11.2998 12.87L11.1798 12.77C10.9902 12.5843 10.7346 12.4816 10.4692 12.4844C10.2039 12.4872 9.95049 12.5953 9.76484 12.785C9.57919 12.9746 9.47647 13.2302 9.47928 13.4956C9.48209 13.7609 9.59021 14.0143 9.77984 14.2C9.85247 14.2743 9.92926 14.3444 10.0098 14.41C10.8645 15.1504 11.9681 15.5394 13.0981 15.4986C14.2282 15.4578 15.3008 14.9902 16.0998 14.19L20.6498 9.63997C21.4912 8.80405 21.9676 7.6692 21.9751 6.48322C21.9826 5.29724 21.5205 4.15646 20.6898 3.30997Z" />
</svg>
