<svg width="24" height="24" viewBox="0 0 24 24" xmlns="http://www.w3.org/2000/svg">
<path d="M6.71 9.29C6.61704 9.19627 6.50644 9.12188 6.38458 9.07111C6.26272 9.02034 6.13201 8.9942 6 8.9942C5.86799 8.9942 5.73728 9.02034 5.61542 9.07111C5.49356 9.12188 5.38296 9.19627 5.29 9.29C5.19896 9.3851 5.12759 9.49725 5.08 9.62C5.00342 9.80211 4.9825 10.0028 5.01987 10.1968C5.05725 10.3908 5.15124 10.5694 5.29 10.71C5.3872 10.7983 5.49882 10.8694 5.62 10.92C5.73868 10.976 5.86882 11.0034 6 11C6.16378 10.9992 6.32486 10.9582 6.46907 10.8805C6.61328 10.8029 6.73622 10.691 6.82707 10.5547C6.91792 10.4184 6.97391 10.2619 6.99011 10.0989C7.00632 9.93597 6.98224 9.7715 6.92 9.62C6.87241 9.49725 6.80104 9.3851 6.71 9.29ZM10 11C10.1638 10.9992 10.3249 10.9582 10.4691 10.8805C10.6133 10.8029 10.7362 10.691 10.8271 10.5547C10.9179 10.4184 10.9739 10.2619 10.9901 10.0989C11.0063 9.93597 10.9822 9.7715 10.92 9.62C10.8724 9.49725 10.801 9.3851 10.71 9.29C10.5955 9.17117 10.4535 9.0825 10.2964 9.0319C10.1394 8.9813 9.9723 8.97034 9.81 9C9.74377 9.00927 9.67955 9.02955 9.62 9.06L9.44 9.15L9.29 9.27C9.10253 9.46665 8.99858 9.72831 9 10C9 10.2652 9.10536 10.5196 9.29289 10.7071C9.48043 10.8946 9.73478 11 10 11ZM6.38 13.08C6.13654 12.98 5.86346 12.98 5.62 13.08C5.43738 13.155 5.28105 13.2824 5.17072 13.4461C5.06039 13.6099 5.00099 13.8026 5 14C5.00082 14.1638 5.04185 14.3249 5.11949 14.4691C5.19713 14.6133 5.30901 14.7362 5.44529 14.8271C5.58156 14.9179 5.73807 14.9739 5.90105 14.9901C6.06403 15.0063 6.2285 14.9822 6.38 14.92C6.50118 14.8694 6.6128 14.7983 6.71 14.71C6.80268 14.6166 6.87601 14.5057 6.92577 14.3839C6.97554 14.2621 7.00076 14.1316 7 14C7.00076 13.8684 6.97554 13.7379 6.92577 13.6161C6.87601 13.4943 6.80268 13.3834 6.71 13.29C6.61613 13.1974 6.50364 13.1258 6.38 13.08ZM14 13H10C9.73478 13 9.48043 13.1054 9.29289 13.2929C9.10536 13.4804 9 13.7348 9 14C9 14.2652 9.10536 14.5196 9.29289 14.7071C9.48043 14.8946 9.73478 15 10 15H14C14.2652 15 14.5196 14.8946 14.7071 14.7071C14.8946 14.5196 15 14.2652 15 14C15 13.7348 14.8946 13.4804 14.7071 13.2929C14.5196 13.1054 14.2652 13 14 13ZM14.71 9.29C14.617 9.19627 14.5064 9.12188 14.3846 9.07111C14.2627 9.02034 14.132 8.9942 14 8.9942C13.868 8.9942 13.7373 9.02034 13.6154 9.07111C13.4936 9.12188 13.383 9.19627 13.29 9.29C13.199 9.3851 13.1276 9.49725 13.08 9.62C13.0217 9.75688 12.9947 9.90505 13.0009 10.0537C13.0072 10.2023 13.0465 10.3477 13.1161 10.4792C13.1856 10.6107 13.2836 10.7251 13.403 10.8139C13.5223 10.9028 13.66 10.9638 13.8059 10.9927C13.9519 11.0216 14.1024 11.0176 14.2466 10.9809C14.3908 10.9442 14.525 10.8758 14.6394 10.7807C14.7538 10.6856 14.8455 10.5662 14.9079 10.4311C14.9703 10.296 15.0017 10.1488 15 10C15.0034 9.86882 14.976 9.73868 14.92 9.62C14.8724 9.49725 14.801 9.3851 14.71 9.29ZM18.56 13.17C18.5043 13.1322 18.4437 13.1019 18.38 13.08C18.1365 12.98 17.8635 12.98 17.62 13.08C17.4988 13.1306 17.3872 13.2017 17.29 13.29C17.1073 13.4816 17.0037 13.7352 17 14C17 14.2652 17.1054 14.5196 17.2929 14.7071C17.4804 14.8946 17.7348 15 18 15C18.2652 15 18.5196 14.8946 18.7071 14.7071C18.8946 14.5196 19 14.2652 19 14C18.9963 13.7352 18.8927 13.4816 18.71 13.29L18.56 13.17ZM20 5H4C3.20435 5 2.44129 5.31607 1.87868 5.87868C1.31607 6.44129 1 7.20435 1 8V16C1 16.7956 1.31607 17.5587 1.87868 18.1213C2.44129 18.6839 3.20435 19 4 19H20C20.7956 19 21.5587 18.6839 22.1213 18.1213C22.6839 17.5587 23 16.7956 23 16V8C23 7.20435 22.6839 6.44129 22.1213 5.87868C21.5587 5.31607 20.7956 5 20 5ZM21 16C21 16.2652 20.8946 16.5196 20.7071 16.7071C20.5196 16.8946 20.2652 17 20 17H4C3.73478 17 3.48043 16.8946 3.29289 16.7071C3.10536 16.5196 3 16.2652 3 16V8C3 7.73478 3.10536 7.48043 3.29289 7.29289C3.48043 7.10536 3.73478 7 4 7H20C20.2652 7 20.5196 7.10536 20.7071 7.29289C20.8946 7.48043 21 7.73478 21 8V16ZM18.71 9.29C18.5701 9.14897 18.3914 9.05279 18.1967 9.01372C18.0019 8.97465 17.8 8.99446 17.6165 9.07063C17.4331 9.1468 17.2765 9.27587 17.1667 9.44139C17.0569 9.60691 16.9988 9.80138 17 10C16.9983 10.1488 17.0297 10.296 17.0921 10.4311C17.1545 10.5662 17.2462 10.6856 17.3606 10.7807C17.475 10.8758 17.6092 10.9442 17.7534 10.9809C17.8976 11.0176 18.0481 11.0216 18.1941 10.9927C18.34 10.9638 18.4777 10.9028 18.597 10.8139C18.7164 10.7251 18.8144 10.6107 18.8839 10.4792C18.9535 10.3477 18.9928 10.2023 18.9991 10.0537C19.0053 9.90505 18.9783 9.75688 18.92 9.62C18.8724 9.49725 18.801 9.3851 18.71 9.29Z" />
</svg>
