<svg width="24" height="24" viewBox="0 0 24 24" xmlns="http://www.w3.org/2000/svg">
<path d="M21.7096 6.52994L20.2896 5.11994L21.7096 3.70994C21.8979 3.52164 22.0037 3.26624 22.0037 2.99994C22.0037 2.73364 21.8979 2.47824 21.7096 2.28994C21.5213 2.10164 21.2659 1.99585 20.9996 1.99585C20.7333 1.99585 20.4779 2.10164 20.2896 2.28994L9.74961 12.8299C8.71565 12.1478 7.46528 11.8737 6.24078 12.0608C5.01628 12.248 3.90483 12.883 3.12179 13.8428C2.33876 14.8026 1.9399 16.0189 2.00248 17.2561C2.06507 18.4932 2.58466 19.6631 3.46056 20.539C4.33647 21.4149 5.50633 21.9345 6.74346 21.9971C7.9806 22.0597 9.19693 21.6608 10.1568 20.8778C11.1166 20.0947 11.7516 18.9833 11.9387 17.7588C12.1258 16.5343 11.8518 15.2839 11.1696 14.2499L16.0496 9.35994L17.4596 10.7799C17.553 10.8726 17.6639 10.9459 17.7857 10.9957C17.9075 11.0455 18.038 11.0707 18.1696 11.0699C18.3012 11.0707 18.4317 11.0455 18.5535 10.9957C18.6754 10.9459 18.7862 10.8726 18.8796 10.7799C18.9733 10.687 19.0477 10.5764 19.0985 10.4545C19.1493 10.3327 19.1754 10.202 19.1754 10.0699C19.1754 9.93793 19.1493 9.80722 19.0985 9.68537C19.0477 9.56351 18.9733 9.4529 18.8796 9.35994L17.4596 7.99994L18.8796 6.57994L20.2896 7.99994C20.3831 8.09262 20.4939 8.16595 20.6157 8.21571C20.7375 8.26548 20.868 8.2907 20.9996 8.28994C21.1312 8.2907 21.2617 8.26548 21.3835 8.21571C21.5054 8.16595 21.6162 8.09262 21.7096 7.99994C21.8111 7.9063 21.8921 7.79265 21.9475 7.66615C22.0029 7.53965 22.0315 7.40304 22.0315 7.26494C22.0315 7.12684 22.0029 6.99023 21.9475 6.86374C21.8921 6.73724 21.8111 6.62358 21.7096 6.52994ZM6.99961 19.9999C6.40626 19.9999 5.82624 19.824 5.3329 19.4944C4.83955 19.1647 4.45503 18.6962 4.22797 18.148C4.00091 17.5998 3.9415 16.9966 4.05725 16.4147C4.17301 15.8327 4.45873 15.2982 4.87829 14.8786C5.29785 14.4591 5.83239 14.1733 6.41434 14.0576C6.99628 13.9418 7.59948 14.0012 8.14766 14.2283C8.69584 14.4554 9.16437 14.8399 9.49402 15.3332C9.82366 15.8266 9.99961 16.4066 9.99961 16.9999C9.99961 17.7956 9.68354 18.5587 9.12093 19.1213C8.55832 19.6839 7.79526 19.9999 6.99961 19.9999Z" />
</svg>
