<svg width="24" height="24" viewBox="0 0 24 24" xmlns="http://www.w3.org/2000/svg">
<path d="M20.9996 4.40994L21.7096 3.70994C21.8979 3.52164 22.0037 3.26624 22.0037 2.99994C22.0037 2.73364 21.8979 2.47824 21.7096 2.28994C21.5213 2.10164 21.2659 1.99585 20.9996 1.99585C20.7333 1.99585 20.4779 2.10164 20.2896 2.28994L18.8896 3.69994L16.0596 6.52994L9.74961 12.8299C8.71565 12.1478 7.46528 11.8737 6.24078 12.0608C5.01628 12.248 3.90483 12.883 3.12179 13.8428C2.33876 14.8026 1.9399 16.0189 2.00248 17.2561C2.06507 18.4932 2.58466 19.6631 3.46056 20.539C4.33647 21.4149 5.50633 21.9345 6.74346 21.9971C7.9806 22.0597 9.19693 21.6608 10.1568 20.8778C11.1166 20.0947 11.7516 18.9833 11.9387 17.7588C12.1258 16.5343 11.8518 15.2839 11.1696 14.2499L16.7596 8.64994L18.8796 10.7799C18.9728 10.8725 19.0834 10.9458 19.205 10.9957C19.3265 11.0455 19.4567 11.071 19.5881 11.0705C19.7195 11.07 19.8496 11.0437 19.9708 10.993C20.092 10.9423 20.202 10.8682 20.2946 10.7749C20.3872 10.6817 20.4605 10.5711 20.5104 10.4496C20.5602 10.328 20.5856 10.1978 20.5852 10.0664C20.5847 9.93501 20.5584 9.80499 20.5076 9.68378C20.4569 9.56256 20.3828 9.45252 20.2896 9.35994L18.1696 7.23994L19.5896 5.82994L20.2896 6.52994C20.3822 6.62318 20.4922 6.69727 20.6134 6.74798C20.7347 6.79869 20.8647 6.82503 20.9961 6.8255C21.1275 6.82596 21.2577 6.80054 21.3792 6.75069C21.5008 6.70083 21.6114 6.62752 21.7046 6.53494C21.7978 6.44236 21.8719 6.33232 21.9226 6.2111C21.9734 6.08989 21.9997 5.95987 22.0002 5.82848C22.0006 5.69708 21.9752 5.56688 21.9254 5.44531C21.8755 5.32374 21.8022 5.21318 21.7096 5.11994L20.9996 4.40994ZM6.99961 19.9999C6.40626 19.9999 5.82624 19.824 5.3329 19.4944C4.83955 19.1647 4.45503 18.6962 4.22797 18.148C4.00091 17.5998 3.9415 16.9966 4.05725 16.4147C4.17301 15.8327 4.45873 15.2982 4.87829 14.8786C5.29785 14.4591 5.83239 14.1733 6.41434 14.0576C6.99628 13.9418 7.59948 14.0012 8.14766 14.2283C8.69584 14.4554 9.16437 14.8399 9.49402 15.3332C9.82366 15.8266 9.99961 16.4066 9.99961 16.9999C9.99961 17.7956 9.68354 18.5587 9.12093 19.1213C8.55832 19.6839 7.79526 19.9999 6.99961 19.9999Z" />
</svg>
