<svg width="24" height="24" viewBox="0 0 24 24" xmlns="http://www.w3.org/2000/svg">
<path d="M6.71 10.29C6.6128 10.2017 6.50118 10.1306 6.38 10.08C6.19789 10.0034 5.99718 9.9825 5.80319 10.0199C5.6092 10.0572 5.43062 10.1512 5.29 10.29C5.19896 10.3851 5.12759 10.4972 5.08 10.62C5.00342 10.8021 4.9825 11.0028 5.01987 11.1968C5.05725 11.3908 5.15124 11.5694 5.29 11.71C5.3872 11.7983 5.49882 11.8694 5.62 11.92C5.80173 11.9927 6.00081 12.0105 6.19256 11.9712C6.38431 11.9319 6.56031 11.8371 6.69872 11.6987C6.83713 11.5603 6.93188 11.3843 6.97121 11.1926C7.01055 11.0008 6.99274 10.8017 6.92 10.62C6.87241 10.4972 6.80104 10.3851 6.71 10.29ZM9.29 7.71C9.38344 7.80268 9.49426 7.87601 9.61609 7.92577C9.73793 7.97554 9.86839 8.00076 10 8C10.1312 8.00338 10.2613 7.97598 10.38 7.92C10.5012 7.86936 10.6128 7.79833 10.71 7.71C10.7983 7.6128 10.8694 7.50118 10.92 7.38C10.9729 7.2603 11.0002 7.13087 11.0002 7C11.0002 6.86913 10.9729 6.7397 10.92 6.62C10.8694 6.49882 10.7983 6.3872 10.71 6.29C10.617 6.19627 10.5064 6.12188 10.3846 6.07111C10.2627 6.02034 10.132 5.9942 10 5.9942C9.86799 5.9942 9.73728 6.02034 9.61542 6.07111C9.49356 6.12188 9.38296 6.19627 9.29 6.29C9.20167 6.3872 9.13064 6.49882 9.08 6.62C9.02709 6.7397 8.99977 6.86913 8.99977 7C8.99977 7.13087 9.02709 7.2603 9.08 7.38C9.13064 7.50118 9.20167 7.6128 9.29 7.71ZM6.71 6.29C6.57013 6.14897 6.39143 6.05279 6.19668 6.01372C6.00193 5.97465 5.79996 5.99446 5.61652 6.07063C5.43307 6.1468 5.27647 6.27587 5.16667 6.44139C5.05687 6.60691 4.99884 6.80138 5 7C5.00158 7.13068 5.02876 7.25978 5.08 7.38C5.13064 7.50118 5.20167 7.6128 5.29 7.71C5.38344 7.80268 5.49426 7.87601 5.61609 7.92577C5.73793 7.97554 5.86839 8.00076 6 8C6.13118 8.00338 6.26132 7.97598 6.38 7.92C6.50118 7.86936 6.6128 7.79833 6.71 7.71C6.79833 7.6128 6.86936 7.50118 6.92 7.38C6.97291 7.2603 7.00023 7.13087 7.00023 7C7.00023 6.86913 6.97291 6.7397 6.92 6.62C6.86936 6.49882 6.79833 6.3872 6.71 6.29ZM13.29 18.29L12 19.59L10.71 18.29C10.6168 18.1968 10.5061 18.1228 10.3842 18.0723C10.2624 18.0219 10.1319 17.9959 10 17.9959C9.86814 17.9959 9.73757 18.0219 9.61575 18.0723C9.49393 18.1228 9.38324 18.1968 9.29 18.29C9.19676 18.3832 9.1228 18.4939 9.07234 18.6158C9.02188 18.7376 8.99591 18.8681 8.99591 19C8.99591 19.1319 9.02188 19.2624 9.07234 19.3842C9.1228 19.5061 9.19676 19.6168 9.29 19.71L11.29 21.71C11.383 21.8037 11.4936 21.8781 11.6154 21.9289C11.7373 21.9797 11.868 22.0058 12 22.0058C12.132 22.0058 12.2627 21.9797 12.3846 21.9289C12.5064 21.8781 12.617 21.8037 12.71 21.71L14.71 19.71C14.8983 19.5217 15.0041 19.2663 15.0041 19C15.0041 18.7337 14.8983 18.4783 14.71 18.29C14.5217 18.1017 14.2663 17.9959 14 17.9959C13.7337 17.9959 13.4783 18.1017 13.29 18.29ZM18.71 6.29C18.5701 6.14897 18.3914 6.05279 18.1967 6.01372C18.0019 5.97465 17.8 5.99446 17.6165 6.07063C17.4331 6.1468 17.2765 6.27587 17.1667 6.44139C17.0569 6.60691 16.9988 6.80138 17 7C16.9966 7.13118 17.024 7.26132 17.08 7.38C17.1306 7.50118 17.2017 7.6128 17.29 7.71C17.383 7.80373 17.4936 7.87812 17.6154 7.92889C17.7373 7.97966 17.868 8.0058 18 8.0058C18.132 8.0058 18.2627 7.97966 18.3846 7.92889C18.5064 7.87812 18.617 7.80373 18.71 7.71C18.7983 7.6128 18.8694 7.50118 18.92 7.38C18.976 7.26132 19.0034 7.13118 19 7C18.9984 6.86932 18.9712 6.74022 18.92 6.62C18.8694 6.49882 18.7983 6.3872 18.71 6.29ZM14 10H10C9.73478 10 9.48043 10.1054 9.29289 10.2929C9.10536 10.4804 9 10.7348 9 11C9 11.2652 9.10536 11.5196 9.29289 11.7071C9.48043 11.8946 9.73478 12 10 12H14C14.2652 12 14.5196 11.8946 14.7071 11.7071C14.8946 11.5196 15 11.2652 15 11C15 10.7348 14.8946 10.4804 14.7071 10.2929C14.5196 10.1054 14.2652 10 14 10ZM20 2H4C3.20435 2 2.44129 2.31607 1.87868 2.87868C1.31607 3.44129 1 4.20435 1 5V13C1 13.7956 1.31607 14.5587 1.87868 15.1213C2.44129 15.6839 3.20435 16 4 16H20C20.7956 16 21.5587 15.6839 22.1213 15.1213C22.6839 14.5587 23 13.7956 23 13V5C23 4.20435 22.6839 3.44129 22.1213 2.87868C21.5587 2.31607 20.7956 2 20 2ZM21 13C21 13.2652 20.8946 13.5196 20.7071 13.7071C20.5196 13.8946 20.2652 14 20 14H4C3.73478 14 3.48043 13.8946 3.29289 13.7071C3.10536 13.5196 3 13.2652 3 13V5C3 4.73478 3.10536 4.48043 3.29289 4.29289C3.48043 4.10536 3.73478 4 4 4H20C20.2652 4 20.5196 4.10536 20.7071 4.29289C20.8946 4.48043 21 4.73478 21 5V13ZM18.71 10.29C18.6149 10.199 18.5028 10.1276 18.38 10.08C18.2606 10.0259 18.1311 9.99785 18 9.99785C17.8689 9.99785 17.7394 10.0259 17.62 10.08C17.4988 10.1306 17.3872 10.2017 17.29 10.29C17.1073 10.4816 17.0037 10.7352 17 11C16.9983 11.1488 17.0297 11.296 17.0921 11.4311C17.1545 11.5662 17.2462 11.6856 17.3606 11.7807C17.475 11.8758 17.6092 11.9442 17.7534 11.9809C17.8976 12.0176 18.0481 12.0216 18.1941 11.9927C18.34 11.9638 18.4777 11.9028 18.597 11.8139C18.7164 11.7251 18.8144 11.6108 18.8839 11.4792C18.9535 11.3477 18.9928 11.2023 18.9991 11.0537C19.0053 10.905 18.9783 10.7569 18.92 10.62C18.8724 10.4972 18.801 10.3851 18.71 10.29ZM13.62 6.08C13.4988 6.13064 13.3872 6.20167 13.29 6.29C13.1073 6.48163 13.0037 6.73523 13 7C13.0016 7.13068 13.0288 7.25978 13.08 7.38C13.1306 7.50118 13.2017 7.6128 13.29 7.71C13.3834 7.80268 13.4943 7.87601 13.6161 7.92577C13.7379 7.97554 13.8684 8.00076 14 8C14.1312 8.00338 14.2613 7.97598 14.38 7.92C14.5012 7.86936 14.6128 7.79833 14.71 7.71C14.7983 7.6128 14.8694 7.50118 14.92 7.38C14.976 7.26132 15.0034 7.13118 15 7C14.9963 6.73523 14.8927 6.48163 14.71 6.29C14.5694 6.15124 14.3908 6.05725 14.1968 6.01987C14.0028 5.9825 13.8021 6.00342 13.62 6.08Z" />
</svg>
