<svg width="24" height="24" viewBox="0 0 24 24" xmlns="http://www.w3.org/2000/svg">
<path d="M6.71 10.29C6.57013 10.149 6.39143 10.0528 6.19668 10.0137C6.00193 9.97465 5.79996 9.99446 5.61652 10.0706C5.43307 10.1468 5.27647 10.2759 5.16667 10.4414C5.05687 10.6069 4.99884 10.8014 5 11C4.99825 11.1488 5.02972 11.296 5.09211 11.4311C5.1545 11.5662 5.24623 11.6856 5.36064 11.7807C5.47504 11.8758 5.60922 11.9442 5.7534 11.9809C5.89759 12.0176 6.04814 12.0216 6.19408 11.9927C6.34003 11.9638 6.47769 11.9028 6.59703 11.8139C6.71637 11.7251 6.81439 11.6108 6.88394 11.4792C6.95349 11.3477 6.99281 11.2023 6.99905 11.0537C7.00529 10.905 6.97828 10.7569 6.92 10.62C6.87241 10.4972 6.80104 10.3851 6.71 10.29ZM9.29 7.71C9.38344 7.80268 9.49426 7.87601 9.61609 7.92577C9.73793 7.97554 9.86839 8.00076 10 8C10.1316 8.00076 10.2621 7.97554 10.3839 7.92577C10.5057 7.87601 10.6166 7.80268 10.71 7.71C10.7983 7.6128 10.8694 7.50118 10.92 7.38C10.9712 7.25978 10.9984 7.13068 11 7C10.9963 6.73523 10.8927 6.48163 10.71 6.29L10.56 6.17L10.38 6.08C10.3218 6.04257 10.2575 6.0155 10.19 6C10.0293 5.96783 9.86325 5.97563 9.70631 6.02271C9.54938 6.06979 9.40642 6.15471 9.29 6.27C9.19896 6.3651 9.12759 6.47725 9.08 6.6C9.02709 6.7197 8.99977 6.84913 8.99977 6.98C8.99977 7.11087 9.02709 7.2403 9.08 7.36C9.12857 7.48826 9.19969 7.60679 9.29 7.71ZM6.56 6.17C6.50425 6.13215 6.44372 6.10189 6.38 6.08L6.2 6C6.03782 5.9661 5.86976 5.97302 5.71092 6.02015C5.55208 6.06728 5.40744 6.15313 5.29 6.27C5.19896 6.3651 5.12759 6.47725 5.08 6.6C5.02709 6.7197 4.99977 6.84913 4.99977 6.98C4.99977 7.11087 5.02709 7.2403 5.08 7.36C5.13064 7.48118 5.20167 7.5928 5.29 7.69C5.3872 7.77833 5.49882 7.84936 5.62 7.9C5.73698 7.96291 5.86721 7.99718 6 8C6.13161 8.00076 6.26207 7.97554 6.38391 7.92577C6.50574 7.87601 6.61656 7.80268 6.71 7.71C6.79833 7.6128 6.86936 7.50118 6.92 7.38C6.97124 7.25978 6.99842 7.13068 7 7C6.99632 6.73523 6.89273 6.48163 6.71 6.29L6.56 6.17ZM12.71 18.29C12.617 18.1963 12.5064 18.1219 12.3846 18.0711C12.2627 18.0203 12.132 17.9942 12 17.9942C11.868 17.9942 11.7373 18.0203 11.6154 18.0711C11.4936 18.1219 11.383 18.1963 11.29 18.29L9.29 20.29C9.19676 20.3832 9.1228 20.4939 9.07234 20.6158C9.02188 20.7376 8.99591 20.8681 8.99591 21C8.99591 21.1319 9.02188 21.2624 9.07234 21.3842C9.1228 21.5061 9.19676 21.6168 9.29 21.71C9.4783 21.8983 9.7337 22.0041 10 22.0041C10.1319 22.0041 10.2624 21.9781 10.3842 21.9277C10.5061 21.8772 10.6168 21.8032 10.71 21.71L12 20.41L13.29 21.71C13.383 21.8037 13.4936 21.8781 13.6154 21.9289C13.7373 21.9797 13.868 22.0058 14 22.0058C14.132 22.0058 14.2627 21.9797 14.3846 21.9289C14.5064 21.8781 14.617 21.8037 14.71 21.71C14.8037 21.617 14.8781 21.5064 14.9289 21.3846C14.9797 21.2627 15.0058 21.132 15.0058 21C15.0058 20.868 14.9797 20.7373 14.9289 20.6154C14.8781 20.4936 14.8037 20.383 14.71 20.29L12.71 18.29ZM18.71 10.29C18.617 10.1963 18.5064 10.1219 18.3846 10.0711C18.2627 10.0203 18.132 9.9942 18 9.9942C17.868 9.9942 17.7373 10.0203 17.6154 10.0711C17.4936 10.1219 17.383 10.1963 17.29 10.29C17.199 10.3851 17.1276 10.4972 17.08 10.62C17.0073 10.8017 16.9895 11.0008 17.0288 11.1926C17.0681 11.3843 17.1629 11.5603 17.3013 11.6987C17.4397 11.8371 17.6157 11.9319 17.8074 11.9712C17.9992 12.0105 18.1983 11.9927 18.38 11.92C18.5012 11.8694 18.6128 11.7983 18.71 11.71C18.8027 11.6166 18.876 11.5057 18.9258 11.3839C18.9755 11.2621 19.0008 11.1316 19 11C19.0034 10.8688 18.976 10.7387 18.92 10.62C18.8724 10.4972 18.801 10.3851 18.71 10.29ZM14 10H10C9.73478 10 9.48043 10.1054 9.29289 10.2929C9.10536 10.4804 9 10.7348 9 11C9 11.2652 9.10536 11.5196 9.29289 11.7071C9.48043 11.8946 9.73478 12 10 12H14C14.2652 12 14.5196 11.8946 14.7071 11.7071C14.8946 11.5196 15 11.2652 15 11C15 10.7348 14.8946 10.4804 14.7071 10.2929C14.5196 10.1054 14.2652 10 14 10ZM20 2H4C3.20435 2 2.44129 2.31607 1.87868 2.87868C1.31607 3.44129 1 4.20435 1 5V13C1 13.7956 1.31607 14.5587 1.87868 15.1213C2.44129 15.6839 3.20435 16 4 16H20C20.7956 16 21.5587 15.6839 22.1213 15.1213C22.6839 14.5587 23 13.7956 23 13V5C23 4.20435 22.6839 3.44129 22.1213 2.87868C21.5587 2.31607 20.7956 2 20 2ZM21 13C21 13.2652 20.8946 13.5196 20.7071 13.7071C20.5196 13.8946 20.2652 14 20 14H4C3.73478 14 3.48043 13.8946 3.29289 13.7071C3.10536 13.5196 3 13.2652 3 13V5C3 4.73478 3.10536 4.48043 3.29289 4.29289C3.48043 4.10536 3.73478 4 4 4H20C20.2652 4 20.5196 4.10536 20.7071 4.29289C20.8946 4.48043 21 4.73478 21 5V13ZM17.62 6.08C17.4964 6.12581 17.3839 6.1974 17.29 6.29C17.1073 6.48163 17.0037 6.73523 17 7C17.0016 7.13068 17.0288 7.25978 17.08 7.38C17.1306 7.50118 17.2017 7.6128 17.29 7.71C17.3834 7.80268 17.4943 7.87601 17.6161 7.92577C17.7379 7.97554 17.8684 8.00076 18 8C18.1316 8.00076 18.2621 7.97554 18.3839 7.92577C18.5057 7.87601 18.6166 7.80268 18.71 7.71C18.7983 7.6128 18.8694 7.50118 18.92 7.38C18.9712 7.25978 18.9984 7.13068 19 7C18.9963 6.73523 18.8927 6.48163 18.71 6.29C18.5694 6.15124 18.3908 6.05725 18.1968 6.01987C18.0028 5.9825 17.8021 6.00342 17.62 6.08ZM14.56 6.17L14.38 6.08L14.2 6C14.005 5.96194 13.8031 5.98283 13.62 6.06C13.4964 6.10581 13.3839 6.1774 13.29 6.27C13.199 6.3651 13.1276 6.47725 13.08 6.6C13.0271 6.7197 12.9998 6.84913 12.9998 6.98C12.9998 7.11087 13.0271 7.2403 13.08 7.36C13.1306 7.48118 13.2017 7.5928 13.29 7.69C13.3818 7.7863 13.4918 7.86332 13.6138 7.91655C13.7357 7.96978 13.867 7.99815 14 8C14.1316 8.00076 14.2621 7.97554 14.3839 7.92577C14.5057 7.87601 14.6166 7.80268 14.71 7.71C14.7983 7.6128 14.8694 7.50118 14.92 7.38C14.9712 7.25978 14.9984 7.13068 15 7C14.9963 6.73523 14.8927 6.48163 14.71 6.29L14.56 6.17Z" />
</svg>
