<svg width="24" height="24" viewBox="0 0 24 24" xmlns="http://www.w3.org/2000/svg">
<path d="M21.12 16.2301C20.7755 14.9676 19.9498 13.8906 18.82 13.2301L16.71 12.0001L16.23 6.53009C16.2169 6.37032 16.1655 6.21606 16.0802 6.08031C15.9949 5.94456 15.8783 5.8313 15.74 5.75009L12.74 4.03009C12.588 3.94232 12.4156 3.89611 12.24 3.89611C12.0645 3.89611 11.8921 3.94232 11.74 4.03009C11.5881 4.11309 11.4602 4.23414 11.3691 4.38139C11.2779 4.52864 11.2266 4.69703 11.22 4.87009L11.07 8.77009L9.32005 7.77009L6.46005 3.92009C6.34375 3.76578 6.18524 3.64848 6.00368 3.58235C5.82212 3.51623 5.6253 3.50412 5.437 3.54749C5.24871 3.59086 5.07702 3.68785 4.94268 3.82674C4.80834 3.96562 4.71712 4.14045 4.68005 4.33009L3.81005 8.94009C3.65854 9.56503 3.71184 10.2221 3.96211 10.8145C4.21237 11.4068 4.64635 11.9031 5.20005 12.2301L19.26 20.3401C19.486 20.473 19.7552 20.5119 20.0096 20.4483C20.264 20.3847 20.4832 20.2237 20.62 20.0001C20.9499 19.4365 21.164 18.8128 21.2499 18.1655C21.3357 17.5181 21.2916 16.8602 21.12 16.2301ZM19.24 18.0001L6.20005 10.5001C6.01305 10.3859 5.86872 10.2135 5.78922 10.0094C5.70973 9.80524 5.69948 9.58063 5.76005 9.37009L6.22005 6.93009L7.88005 9.13009C7.96066 9.23954 8.06273 9.33141 8.18005 9.40009L11.53 11.3401C11.6794 11.4265 11.8486 11.4728 12.0212 11.4744C12.1938 11.476 12.3638 11.433 12.5148 11.3494C12.6658 11.2659 12.7926 11.1446 12.8829 10.9976C12.9732 10.8505 13.0239 10.6826 13.03 10.5101L13.19 6.61009L14.28 7.24009L14.76 12.7101C14.7743 12.8708 14.8272 13.0257 14.9143 13.1615C15.0013 13.2973 15.12 13.4101 15.26 13.4901L17.82 15.0001C18.1531 15.1922 18.4448 15.4485 18.6782 15.754C18.9116 16.0595 19.0822 16.4083 19.18 16.7801C19.2916 17.1771 19.3121 17.5941 19.24 18.0001Z" />
</svg>
