<svg width="24" height="24" viewBox="0 0 24 24" xmlns="http://www.w3.org/2000/svg">
<path d="M12.43 4.10003C12.2676 4.02977 12.0895 4.00386 11.9138 4.02495C11.7381 4.04603 11.5712 4.11335 11.43 4.22003L6.65 8.00003H3C2.73478 8.00003 2.48043 8.10539 2.29289 8.29293C2.10536 8.48046 2 8.73482 2 9.00003V15C2 15.2652 2.10536 15.5196 2.29289 15.7071C2.48043 15.8947 2.73478 16 3 16H6.65L11.38 19.78C11.5559 19.9212 11.7744 19.9987 12 20C12.1494 20.0025 12.297 19.9682 12.43 19.9C12.6002 19.819 12.744 19.6915 12.8448 19.5323C12.9457 19.373 12.9995 19.1885 13 19V5.00003C12.9995 4.81155 12.9457 4.62705 12.8448 4.46781C12.744 4.30857 12.6002 4.18108 12.43 4.10003ZM11 16.92L7.62 14.22C7.44406 14.0789 7.22556 14.0013 7 14H4V10H7C7.22556 9.99872 7.44406 9.92119 7.62 9.78003L11 7.08003V16.92ZM19.66 6.34003C19.4717 6.15173 19.2163 6.04594 18.95 6.04594C18.6837 6.04594 18.4283 6.15173 18.24 6.34003C18.0517 6.52834 17.9459 6.78373 17.9459 7.05003C17.9459 7.31633 18.0517 7.57173 18.24 7.76003C18.8289 8.34797 19.289 9.05196 19.5911 9.82728C19.8933 10.6026 20.0309 11.4323 19.9951 12.2636C19.9594 13.095 19.7511 13.9098 19.3835 14.6564C19.016 15.4029 18.4971 16.0648 17.86 16.6C17.7053 16.7323 17.5946 16.9087 17.5428 17.1056C17.491 17.3025 17.5005 17.5105 17.5701 17.7018C17.6396 17.8932 17.766 18.0587 17.9321 18.1763C18.0983 18.2939 18.2964 18.358 18.5 18.36C18.7337 18.3605 18.9601 18.2791 19.14 18.13C19.9909 17.4173 20.6843 16.5353 21.1759 15.5402C21.6675 14.545 21.9466 13.4584 21.9955 12.3495C22.0444 11.2406 21.862 10.1337 21.4599 9.09908C21.0579 8.06449 20.4449 7.12489 19.66 6.34003ZM16.83 9.17003C16.7368 9.07679 16.6261 9.00283 16.5042 8.95237C16.3824 8.90191 16.2519 8.87594 16.12 8.87594C15.9881 8.87594 15.8576 8.90191 15.7358 8.95237C15.6139 9.00283 15.5032 9.07679 15.41 9.17003C15.3168 9.26327 15.2428 9.37396 15.1923 9.49578C15.1419 9.6176 15.1159 9.74817 15.1159 9.88003C15.1159 10.0119 15.1419 10.1425 15.1923 10.2643C15.2428 10.3861 15.3168 10.4968 15.41 10.59C15.7856 10.9634 15.9978 11.4705 16 12C16.0002 12.2914 15.9368 12.5793 15.8142 12.8435C15.6915 13.1078 15.5126 13.3421 15.29 13.53C15.1887 13.614 15.105 13.7171 15.0437 13.8334C14.9823 13.9498 14.9445 14.0771 14.9325 14.2081C14.9204 14.339 14.9343 14.4711 14.9733 14.5967C15.0124 14.7223 15.0758 14.839 15.16 14.94C15.2447 15.0406 15.3483 15.1234 15.465 15.1839C15.5817 15.2443 15.7092 15.2812 15.8401 15.2923C15.9711 15.3035 16.1029 15.2887 16.2282 15.2488C16.3534 15.209 16.4696 15.1448 16.57 15.06C17.0171 14.6851 17.3768 14.217 17.6238 13.6884C17.8709 13.1598 17.9992 12.5835 18 12C17.9944 10.9401 17.5744 9.92448 16.83 9.17003Z" />
</svg>
