<svg width="24" height="24" viewBox="0 0 24 24" xmlns="http://www.w3.org/2000/svg">
<path d="M12 7C12.3956 7 12.7822 6.8827 13.1111 6.66294C13.44 6.44318 13.6964 6.13082 13.8478 5.76537C13.9991 5.39992 14.0387 4.99778 13.9616 4.60982C13.8844 4.22186 13.6939 3.86549 13.4142 3.58579C13.1345 3.30608 12.7781 3.1156 12.3902 3.03843C12.0022 2.96126 11.6001 3.00087 11.2346 3.15224C10.8692 3.30362 10.5568 3.55996 10.3371 3.88886C10.1173 4.21776 10 4.60444 10 5C10 5.53043 10.2107 6.03914 10.5858 6.41421C10.9609 6.78929 11.4696 7 12 7ZM12 17C11.6044 17 11.2178 17.1173 10.8889 17.3371C10.56 17.5568 10.3036 17.8692 10.1522 18.2346C10.0009 18.6001 9.96126 19.0022 10.0384 19.3902C10.1156 19.7781 10.3061 20.1345 10.5858 20.4142C10.8655 20.6939 11.2219 20.8844 11.6098 20.9616C11.9978 21.0387 12.3999 20.9991 12.7654 20.8478C13.1308 20.6964 13.4432 20.44 13.6629 20.1111C13.8827 19.7822 14 19.3956 14 19C14 18.4696 13.7893 17.9609 13.4142 17.5858C13.0391 17.2107 12.5304 17 12 17ZM12 10C11.6044 10 11.2178 10.1173 10.8889 10.3371C10.56 10.5568 10.3036 10.8692 10.1522 11.2346C10.0009 11.6001 9.96126 12.0022 10.0384 12.3902C10.1156 12.7781 10.3061 13.1345 10.5858 13.4142C10.8655 13.6939 11.2219 13.8844 11.6098 13.9616C11.9978 14.0387 12.3999 13.9991 12.7654 13.8478C13.1308 13.6964 13.4432 13.44 13.6629 13.1111C13.8827 12.7822 14 12.3956 14 12C14 11.4696 13.7893 10.9609 13.4142 10.5858C13.0391 10.2107 12.5304 10 12 10Z" />
</svg>
