<svg width="24" height="24" viewBox="0 0 24 24" xmlns="http://www.w3.org/2000/svg">
<path d="M21.7804 3.62C21.8965 3.47365 21.9692 3.29773 21.9904 3.11215C22.0117 2.92657 21.9805 2.73876 21.9004 2.57C21.8194 2.39983 21.6919 2.25603 21.5326 2.15518C21.3734 2.05433 21.1889 2.00053 21.0004 2H3.00041C2.81193 2.00053 2.62743 2.05433 2.46819 2.15518C2.30895 2.25603 2.18146 2.39983 2.10041 2.57C2.02036 2.73876 1.98917 2.92657 2.01037 3.11215C2.03158 3.29773 2.10434 3.47365 2.22041 3.62L11.0004 14.6V20H5.25041C4.9852 20 4.73084 20.1054 4.54331 20.2929C4.35577 20.4804 4.25041 20.7348 4.25041 21C4.25041 21.2652 4.35577 21.5196 4.54331 21.7071C4.73084 21.8946 4.9852 22 5.25041 22H18.7504C19.0156 22 19.27 21.8946 19.4575 21.7071C19.6451 21.5196 19.7504 21.2652 19.7504 21C19.7504 20.7348 19.6451 20.4804 19.4575 20.2929C19.27 20.1054 19.0156 20 18.7504 20H13.0004V14.6L21.7804 3.62ZM5.08041 4H18.9204L16.5204 7H7.52041L5.08041 4ZM12.0004 12.65L9.08041 9H14.9204L12.0004 12.65Z" />
</svg>
