<svg width="24" height="24" viewBox="0 0 24 24" xmlns="http://www.w3.org/2000/svg">
<path d="M12.43 4.10003C12.2676 4.02977 12.0895 4.00386 11.9138 4.02495C11.7381 4.04603 11.5712 4.11335 11.43 4.22003L6.65 8.00003H3C2.73478 8.00003 2.48043 8.10539 2.29289 8.29293C2.10536 8.48046 2 8.73482 2 9.00003V15C2 15.2652 2.10536 15.5196 2.29289 15.7071C2.48043 15.8947 2.73478 16 3 16H6.65L11.38 19.78C11.5559 19.9212 11.7744 19.9987 12 20C12.1494 20.0025 12.297 19.9682 12.43 19.9C12.6002 19.819 12.744 19.6915 12.8448 19.5323C12.9457 19.373 12.9995 19.1885 13 19V5.00003C12.9995 4.81155 12.9457 4.62705 12.8448 4.46781C12.744 4.30857 12.6002 4.18108 12.43 4.10003ZM11 16.92L7.62 14.22C7.44406 14.0789 7.22556 14.0013 7 14H4V10H7C7.22556 9.99872 7.44406 9.92119 7.62 9.78003L11 7.08003V16.92ZM19.91 12L21.71 10.21C21.8032 10.1168 21.8772 10.0061 21.9277 9.88428C21.9781 9.76246 22.0041 9.63189 22.0041 9.50003C22.0041 9.36817 21.9781 9.2376 21.9277 9.11578C21.8772 8.99396 21.8032 8.88327 21.71 8.79003C21.6168 8.69679 21.5061 8.62283 21.3842 8.57237C21.2624 8.52191 21.1319 8.49594 21 8.49594C20.8681 8.49594 20.7376 8.52191 20.6158 8.57237C20.4939 8.62283 20.3832 8.69679 20.29 8.79003L18.5 10.59L16.71 8.79003C16.5217 8.60173 16.2663 8.49594 16 8.49594C15.7337 8.49594 15.4783 8.60173 15.29 8.79003C15.1017 8.97834 14.9959 9.23373 14.9959 9.50003C14.9959 9.76633 15.1017 10.0217 15.29 10.21L17.09 12L15.29 13.79C15.1963 13.883 15.1219 13.9936 15.0711 14.1155C15.0203 14.2373 14.9942 14.368 14.9942 14.5C14.9942 14.632 15.0203 14.7627 15.0711 14.8846C15.1219 15.0065 15.1963 15.1171 15.29 15.21C15.383 15.3038 15.4936 15.3782 15.6154 15.4289C15.7373 15.4797 15.868 15.5058 16 15.5058C16.132 15.5058 16.2627 15.4797 16.3846 15.4289C16.5064 15.3782 16.617 15.3038 16.71 15.21L18.5 13.41L20.29 15.21C20.383 15.3038 20.4936 15.3782 20.6154 15.4289C20.7373 15.4797 20.868 15.5058 21 15.5058C21.132 15.5058 21.2627 15.4797 21.3846 15.4289C21.5064 15.3782 21.617 15.3038 21.71 15.21C21.8037 15.1171 21.8781 15.0065 21.9289 14.8846C21.9797 14.7627 22.0058 14.632 22.0058 14.5C22.0058 14.368 21.9797 14.2373 21.9289 14.1155C21.8781 13.9936 21.8037 13.883 21.71 13.79L19.91 12Z" />
</svg>
