<svg width="24" height="24" viewBox="0 0 24 24" xmlns="http://www.w3.org/2000/svg">
<path d="M11.0702 6.11994C11.3734 6.03817 11.6862 5.9978 12.0002 5.99994C13.0611 5.99994 14.0785 6.42137 14.8286 7.17151C15.5788 7.92166 16.0002 8.93907 16.0002 9.99994V11.3399C16.0002 11.6052 16.1055 11.8595 16.2931 12.047C16.4806 12.2346 16.735 12.3399 17.0002 12.3399C17.2654 12.3399 17.5198 12.2346 17.7073 12.047C17.8948 11.8595 18.0002 11.6052 18.0002 11.3399V9.99994C17.9987 8.58306 17.4959 7.21241 16.5808 6.13072C15.6657 5.04902 14.3972 4.32609 13.0002 4.08994V2.99994C13.0002 2.73472 12.8948 2.48037 12.7073 2.29283C12.5198 2.1053 12.2654 1.99994 12.0002 1.99994C11.735 1.99994 11.4806 2.1053 11.2931 2.29283C11.1055 2.48037 11.0002 2.73472 11.0002 2.99994V4.09994L10.5502 4.17994C10.2929 4.2489 10.0736 4.41723 9.94044 4.6479C9.80729 4.87857 9.77123 5.15268 9.84019 5.40994C9.90914 5.6672 10.0775 5.88653 10.3081 6.01968C10.5388 6.15283 10.8129 6.1889 11.0702 6.11994ZM21.7102 20.2899L3.71019 2.28994C3.52188 2.10164 3.26649 1.99585 3.00019 1.99585C2.73388 1.99585 2.47849 2.10164 2.29019 2.28994C2.10188 2.47824 1.99609 2.73364 1.99609 2.99994C1.99609 3.26624 2.10188 3.52164 2.29019 3.70994L6.41019 7.81994C6.13921 8.51481 6.00017 9.25411 6.00019 9.99994V13.1799C5.41664 13.3863 4.91118 13.768 4.55312 14.2729C4.19506 14.7777 4.00192 15.381 4.00019 15.9999V17.9999C4.00019 18.2652 4.10554 18.5195 4.29308 18.707C4.48062 18.8946 4.73497 18.9999 5.00019 18.9999H8.14019C8.37047 19.8473 8.87319 20.5954 9.57078 21.1287C10.2684 21.662 11.1221 21.9509 12.0002 21.9509C12.8783 21.9509 13.732 21.662 14.4296 21.1287C15.1272 20.5954 15.6299 19.8473 15.8602 18.9999H17.5902L20.2902 21.7099C20.3831 21.8037 20.4937 21.8781 20.6156 21.9288C20.7375 21.9796 20.8682 22.0057 21.0002 22.0057C21.1322 22.0057 21.2629 21.9796 21.3848 21.9288C21.5066 21.8781 21.6172 21.8037 21.7102 21.7099C21.8039 21.617 21.8783 21.5064 21.9291 21.3845C21.9798 21.2627 22.006 21.132 22.006 20.9999C22.006 20.8679 21.9798 20.7372 21.9291 20.6154C21.8783 20.4935 21.8039 20.3829 21.7102 20.2899ZM8.00019 9.99994C7.98493 9.81693 7.98493 9.63296 8.00019 9.44994L11.5902 12.9999H8.00019V9.99994ZM12.0002 19.9999C11.6512 19.9978 11.3088 19.9044 11.007 19.729C10.7053 19.5536 10.4547 19.3022 10.2802 18.9999H13.7202C13.5457 19.3022 13.2951 19.5536 12.9934 19.729C12.6916 19.9044 12.3492 19.9978 12.0002 19.9999ZM6.00019 16.9999V15.9999C6.00019 15.7347 6.10554 15.4804 6.29308 15.2928C6.48062 15.1053 6.73497 14.9999 7.00019 14.9999H13.5902L15.5902 16.9999H6.00019Z" />
</svg>
