<svg width="24" height="24" viewBox="0 0 24 24" xmlns="http://www.w3.org/2000/svg">
<path d="M3.71019 2.28994C3.61695 2.1967 3.50626 2.12274 3.38443 2.07228C3.26261 2.02182 3.13204 1.99585 3.00019 1.99585C2.86833 1.99585 2.73776 2.02182 2.61594 2.07228C2.49411 2.12274 2.38342 2.1967 2.29019 2.28994C2.10188 2.47824 1.99609 2.73364 1.99609 2.99994C1.99609 3.26624 2.10188 3.52164 2.29019 3.70994L5.09019 6.49994H5.00019C4.20454 6.49994 3.44147 6.81601 2.87887 7.37862C2.31626 7.94123 2.00019 8.70429 2.00019 9.49994V17.4999C2.00019 18.2956 2.31626 19.0587 2.87887 19.6213C3.44147 20.1839 4.20454 20.4999 5.00019 20.4999H19.0802L20.2902 21.7199C20.3831 21.8137 20.4937 21.8881 20.6156 21.9388C20.7375 21.9896 20.8682 22.0157 21.0002 22.0157C21.1322 22.0157 21.2629 21.9896 21.3848 21.9388C21.5066 21.8881 21.6172 21.8137 21.7102 21.7199C21.8039 21.627 21.8783 21.5164 21.9291 21.3945C21.9798 21.2727 22.006 21.142 22.006 21.0099C22.006 20.8779 21.9798 20.7472 21.9291 20.6254C21.8783 20.5035 21.8039 20.3929 21.7102 20.2999L3.71019 2.28994ZM10.2002 11.6199L12.8802 14.2999C12.6059 14.4328 12.3049 14.5012 12.0002 14.4999C11.4698 14.4999 10.961 14.2892 10.586 13.9142C10.2109 13.5391 10.0002 13.0304 10.0002 12.4999C9.99894 12.1952 10.0673 11.8942 10.2002 11.6199ZM5.00019 18.4999C4.73497 18.4999 4.48062 18.3946 4.29308 18.207C4.10554 18.0195 4.00019 17.7652 4.00019 17.4999V9.49994C4.00019 9.23472 4.10554 8.98037 4.29308 8.79283C4.48062 8.6053 4.73497 8.49994 5.00019 8.49994H7.07019L8.77019 10.1899C8.27482 10.8587 8.00513 11.6677 8.00019 12.4999C8.00019 13.5608 8.42161 14.5782 9.17176 15.3284C9.9219 16.0785 10.9393 16.4999 12.0002 16.4999C12.8358 16.4971 13.6487 16.2273 14.3202 15.7299L17.0902 18.4999H5.00019ZM19.0002 6.49994H17.7202L17.4102 5.49994C17.2022 4.91155 16.8158 4.40268 16.305 4.04419C15.7942 3.68571 15.1842 3.49546 14.5602 3.49994H10.1602C9.89497 3.49994 9.64061 3.6053 9.45308 3.79283C9.26554 3.98037 9.16019 4.23472 9.16019 4.49994C9.16019 4.76516 9.26554 5.01951 9.45308 5.20705C9.64061 5.39458 9.89497 5.49994 10.1602 5.49994H14.5602C14.7698 5.4994 14.9743 5.56476 15.1448 5.68678C15.3153 5.80881 15.4431 5.98132 15.5102 6.17994L16.0502 7.80994C16.1156 8.01043 16.2426 8.18512 16.4133 8.30905C16.5839 8.43297 16.7893 8.49979 17.0002 8.49994H19.0002C19.2654 8.49994 19.5198 8.6053 19.7073 8.79283C19.8948 8.98037 20.0002 9.23472 20.0002 9.49994V15.3399C20.0002 15.6052 20.1055 15.8595 20.2931 16.047C20.4806 16.2346 20.735 16.3399 21.0002 16.3399C21.2654 16.3399 21.5198 16.2346 21.7073 16.047C21.8948 15.8595 22.0002 15.6052 22.0002 15.3399V9.49994C22.0002 8.70429 21.6841 7.94123 21.1215 7.37862C20.5589 6.81601 19.7958 6.49994 19.0002 6.49994Z" />
</svg>
