<svg width="24" height="24" viewBox="0 0 24 24" xmlns="http://www.w3.org/2000/svg">
<path d="M7 12.9999C6.80222 12.9999 6.60888 13.0586 6.44443 13.1685C6.27998 13.2784 6.15181 13.4345 6.07612 13.6173C6.00043 13.8 5.98063 14.0011 6.01921 14.195C6.0578 14.389 6.15304 14.5672 6.29289 14.7071C6.43275 14.8469 6.61093 14.9421 6.80491 14.9807C6.99889 15.0193 7.19996 14.9995 7.38268 14.9238C7.56541 14.8481 7.72159 14.72 7.83147 14.5555C7.94135 14.3911 8 14.1977 8 13.9999C8 13.7347 7.89464 13.4804 7.70711 13.2928C7.51957 13.1053 7.26522 12.9999 7 12.9999ZM19.76 9.10995L18.41 5.04995C18.202 4.46156 17.8157 3.95269 17.3048 3.5942C16.794 3.23572 16.1841 3.04547 15.56 3.04995H9.66C9.39478 3.04995 9.14043 3.15531 8.95289 3.34284C8.76536 3.53038 8.66 3.78473 8.66 4.04995C8.66 4.31517 8.76536 4.56952 8.95289 4.75706C9.14043 4.94459 9.39478 5.04995 9.66 5.04995H15.56C15.7793 5.03922 15.9961 5.10097 16.1768 5.22567C16.3575 5.35038 16.4922 5.5311 16.56 5.73995L17.61 8.99995H15.66C15.3948 8.99995 15.1404 9.10531 14.9529 9.29284C14.7654 9.48038 14.66 9.73473 14.66 9.99995C14.66 10.2652 14.7654 10.5195 14.9529 10.7071C15.1404 10.8946 15.3948 10.9999 15.66 10.9999H19C19.2652 10.9999 19.5196 11.1053 19.7071 11.2928C19.8946 11.4804 20 11.7347 20 11.9999V15.3399C20 15.6052 20.1054 15.8595 20.2929 16.0471C20.4804 16.2346 20.7348 16.3399 21 16.3399C21.2652 16.3399 21.5196 16.2346 21.7071 16.0471C21.8946 15.8595 22 15.6052 22 15.3399V11.9999C21.9973 11.3387 21.7763 10.6969 21.3712 10.1742C20.9661 9.65162 20.3997 9.27746 19.76 9.10995ZM3.76 2.28995C3.5717 2.09502 3.31367 1.98287 3.04268 1.97818C2.77169 1.97349 2.50993 2.07665 2.315 2.26495C2.12007 2.45325 2.00792 2.71128 2.00323 2.98227C1.99854 3.25326 2.1017 3.51502 2.29 3.70995L5.11 6.51995L4.24 9.10995C3.60033 9.27746 3.03392 9.65162 2.62883 10.1742C2.22374 10.6969 2.00268 11.3387 2 11.9999V15.9999C2.00174 16.6189 2.19488 17.2221 2.55294 17.727C2.911 18.2319 3.41645 18.6136 4 18.82V20C4 20.2652 4.10536 20.5195 4.29289 20.7071C4.48043 20.8946 4.73478 21 5 21C5.26522 21 5.51957 20.8946 5.70711 20.7071C5.89464 20.5195 6 20.2652 6 20V19H17.59L18 19.41V20C18 20.2652 18.1054 20.5195 18.2929 20.7071C18.4804 20.8946 18.7348 21 19 21C19.1622 20.9984 19.321 20.9535 19.46 20.87L20.29 21.7099C20.383 21.8037 20.4936 21.8781 20.6154 21.9288C20.7373 21.9796 20.868 22.0057 21 22.0057C21.132 22.0057 21.2627 21.9796 21.3846 21.9288C21.5064 21.8781 21.617 21.8037 21.71 21.7099C21.8037 21.617 21.8781 21.5064 21.9289 21.3845C21.9797 21.2627 22.0058 21.132 22.0058 21C22.0058 20.8679 21.9797 20.7372 21.9289 20.6154C21.8781 20.4935 21.8037 20.3829 21.71 20.29L3.76 2.28995ZM6.76 8.09995L7.66 8.99995H6.39L6.76 8.09995ZM5 16.9999C4.73478 16.9999 4.48043 16.8946 4.29289 16.7071C4.10536 16.5195 4 16.2652 4 15.9999V11.9999C4 11.7347 4.10536 11.4804 4.29289 11.2928C4.48043 11.1053 4.73478 10.9999 5 10.9999H9.59L11.59 12.9999H11C10.7348 12.9999 10.4804 13.1053 10.2929 13.2928C10.1054 13.4804 10 13.7347 10 13.9999C10 14.2652 10.1054 14.5195 10.2929 14.7071C10.4804 14.8946 10.7348 14.9999 11 14.9999H13C13.1622 14.9984 13.321 14.9535 13.46 14.8699L15.59 16.9999H5Z" />
</svg>
