<svg width="24" height="24" viewBox="0 0 24 24" xmlns="http://www.w3.org/2000/svg">
<path d="M22.0002 10.9399C21.9898 10.8481 21.9697 10.7576 21.9402 10.6699V10.5799C21.8921 10.4771 21.828 10.3826 21.7502 10.2999L15.7502 4.29994C15.6675 4.22216 15.573 4.15802 15.4702 4.10994H15.3802C15.2786 4.05168 15.1664 4.01429 15.0502 3.99994H10.6602C10.395 3.99994 10.1406 4.1053 9.95308 4.29283C9.76554 4.48037 9.66019 4.73472 9.66019 4.99994C9.66019 5.26516 9.76554 5.51951 9.95308 5.70705C10.1406 5.89458 10.395 5.99994 10.6602 5.99994H14.0002V8.99994C14.0002 9.79559 14.3163 10.5587 14.8789 11.1213C15.4415 11.6839 16.2045 11.9999 17.0002 11.9999H20.0002V15.3399C20.0002 15.6052 20.1055 15.8595 20.2931 16.047C20.4806 16.2346 20.735 16.3399 21.0002 16.3399C21.2654 16.3399 21.5198 16.2346 21.7073 16.047C21.8948 15.8595 22.0002 15.6052 22.0002 15.3399V10.9999C22.0002 10.9999 22.0002 10.9999 22.0002 10.9399ZM17.0002 9.99994C16.735 9.99994 16.4806 9.89458 16.2931 9.70705C16.1055 9.51951 16.0002 9.26516 16.0002 8.99994V7.40994L18.5902 9.99994H17.0002ZM3.71019 2.28994C3.61695 2.1967 3.50626 2.12274 3.38443 2.07228C3.26261 2.02182 3.13204 1.99585 3.00019 1.99585C2.86833 1.99585 2.73776 2.02182 2.61594 2.07228C2.49411 2.12274 2.38342 2.1967 2.29019 2.28994C2.10188 2.47824 1.99609 2.73364 1.99609 2.99994C1.99609 3.26624 2.10188 3.52164 2.29019 3.70994L3.20019 4.60994C2.82895 4.88837 2.52736 5.24912 2.31913 5.66383C2.11091 6.07854 2.00173 6.5359 2.00019 6.99994V16.9999C2.00019 17.7956 2.31626 18.5587 2.87887 19.1213C3.44147 19.6839 4.20454 19.9999 5.00019 19.9999H18.5902L20.2902 21.7099C20.3831 21.8037 20.4937 21.8781 20.6156 21.9288C20.7375 21.9796 20.8682 22.0057 21.0002 22.0057C21.1322 22.0057 21.2629 21.9796 21.3848 21.9288C21.5066 21.8781 21.6172 21.8037 21.7102 21.7099C21.8039 21.617 21.8783 21.5064 21.9291 21.3845C21.9798 21.2627 22.006 21.132 22.006 20.9999C22.006 20.8679 21.9798 20.7372 21.9291 20.6154C21.8783 20.4935 21.8039 20.3829 21.7102 20.2899L3.71019 2.28994ZM5.00019 17.9999C4.73497 17.9999 4.48062 17.8946 4.29308 17.707C4.10554 17.5195 4.00019 17.2652 4.00019 16.9999V6.99994C4.00231 6.79614 4.06667 6.59785 4.18462 6.43164C4.30258 6.26543 4.46851 6.13923 4.66019 6.06994L16.5902 17.9999H5.00019Z" />
</svg>
