<svg width="24" height="24" viewBox="0 0 24 24" xmlns="http://www.w3.org/2000/svg">
<path d="M19.7102 16.2899L5.71019 2.28994C5.52188 2.10164 5.26649 1.99585 5.00019 1.99585C4.73388 1.99585 4.47849 2.10164 4.29019 2.28994C4.10188 2.47824 3.99609 2.73364 3.99609 2.99994C3.99609 3.26624 4.10188 3.52164 4.29019 3.70994L6.59019 5.99994H5.00019C4.8117 6.00047 4.6272 6.05427 4.46796 6.15512C4.30873 6.25597 4.18123 6.39977 4.10019 6.56994C4.02993 6.73234 4.00402 6.91047 4.0251 7.08615C4.04618 7.26183 4.1135 7.42878 4.22019 7.56994L11.0002 16.0999V19.9999H6.75019C6.48497 19.9999 6.23062 20.1053 6.04308 20.2928C5.85554 20.4804 5.75019 20.7347 5.75019 20.9999C5.75019 21.2652 5.85554 21.5195 6.04308 21.707C6.23062 21.8946 6.48497 21.9999 6.75019 21.9999H17.2502C17.5154 21.9999 17.7698 21.8946 17.9573 21.707C18.1448 21.5195 18.2502 21.2652 18.2502 20.9999C18.2502 20.7347 18.1448 20.4804 17.9573 20.2928C17.7698 20.1053 17.5154 19.9999 17.2502 19.9999H13.0002V16.0999L14.6402 14.0999L18.2902 17.7499C18.3831 17.8437 18.4937 17.9181 18.6156 17.9688C18.7375 18.0196 18.8682 18.0457 19.0002 18.0457C19.1322 18.0457 19.2629 18.0196 19.3848 17.9688C19.5066 17.9181 19.6172 17.8437 19.7102 17.7499C19.8101 17.6564 19.8897 17.5433 19.9442 17.4178C19.9986 17.2922 20.0267 17.1568 20.0267 17.0199C20.0267 16.8831 19.9986 16.7477 19.9442 16.6221C19.8897 16.4965 19.8101 16.3835 19.7102 16.2899ZM7.08019 7.99994H8.59019L10.4802 9.88994H8.59019L7.08019 7.99994ZM12.0002 14.1499L10.1902 11.8899H12.4802L13.2202 12.6299L12.0002 14.1499ZM14.6602 7.99994H16.9202L16.2902 8.78994C16.1255 8.99593 16.0489 9.25862 16.077 9.52082C16.1051 9.78302 16.2356 10.0235 16.4402 10.1899C16.6188 10.3332 16.8412 10.4109 17.0702 10.4099C17.2196 10.4104 17.3672 10.3775 17.5022 10.3134C17.6371 10.2494 17.7561 10.156 17.8502 10.0399L19.7802 7.61994C19.8869 7.47878 19.9542 7.31183 19.9753 7.13615C19.9964 6.96047 19.9704 6.78234 19.9002 6.61994C19.8265 6.44042 19.7022 6.28621 19.5424 6.17612C19.3826 6.06603 19.1942 6.00482 19.0002 5.99994H14.6602C14.395 5.99994 14.1406 6.1053 13.9531 6.29283C13.7655 6.48037 13.6602 6.73472 13.6602 6.99994C13.6602 7.26516 13.7655 7.51951 13.9531 7.70705C14.1406 7.89458 14.395 7.99994 14.6602 7.99994Z" />
</svg>
