<svg width="24" height="24" viewBox="0 0 24 24" xmlns="http://www.w3.org/2000/svg">
<path d="M21.7102 20.2899L20.1102 18.6899L3.71019 2.28994C3.61695 2.1967 3.50626 2.12274 3.38443 2.07228C3.26261 2.02182 3.13204 1.99585 3.00019 1.99585C2.86833 1.99585 2.73776 2.02182 2.61594 2.07228C2.49411 2.12274 2.38342 2.1967 2.29019 2.28994C2.10188 2.47824 1.99609 2.73364 1.99609 2.99994C1.99609 3.26624 2.10188 3.52164 2.29019 3.70994L3.69019 5.09994C3.24732 5.63438 3.00346 6.30586 3.00019 6.99994V17.9999C3.00019 18.7956 3.31626 19.5587 3.87887 20.1213C4.44147 20.6839 5.20454 20.9999 6.00019 20.9999H18.0002C18.4472 20.9973 18.8879 20.8948 19.2902 20.6999L20.2902 21.6999C20.3831 21.7937 20.4937 21.8681 20.6156 21.9188C20.7375 21.9696 20.8682 21.9957 21.0002 21.9957C21.1322 21.9957 21.2629 21.9696 21.3848 21.9188C21.5066 21.8681 21.6172 21.7937 21.7102 21.6999C21.8964 21.5126 22.001 21.2591 22.001 20.9949C22.001 20.7308 21.8964 20.4773 21.7102 20.2899ZM6.00019 18.9999C5.73497 18.9999 5.48062 18.8946 5.29308 18.707C5.10554 18.5195 5.00019 18.2652 5.00019 17.9999V6.99994C5.00263 6.83919 5.04379 6.6814 5.12019 6.53994L17.5902 18.9999H6.00019ZM10.6202 5.99994C10.8183 6.01075 11.0086 6.08023 11.1671 6.19953C11.3256 6.31884 11.445 6.48258 11.5102 6.66994L12.0502 8.30994C12.1156 8.51043 12.2426 8.68512 12.4133 8.80905C12.5839 8.93297 12.7893 8.99979 13.0002 8.99994H18.0002C18.2654 8.99994 18.5198 9.1053 18.7073 9.29283C18.8948 9.48037 19.0002 9.73472 19.0002 9.99994V14.3399C19.0002 14.6052 19.1055 14.8595 19.2931 15.047C19.4806 15.2346 19.735 15.3399 20.0002 15.3399C20.2654 15.3399 20.5198 15.2346 20.7073 15.047C20.8948 14.8595 21.0002 14.6052 21.0002 14.3399V9.99994C21.0002 9.20429 20.6841 8.44123 20.1215 7.87862C19.5589 7.31601 18.7958 6.99994 18.0002 6.99994H13.7202L13.4002 5.99994C13.2024 5.43822 12.842 4.94807 12.3647 4.5919C11.8874 4.23573 11.315 4.02967 10.7202 3.99994C10.5889 3.99338 10.4575 4.01274 10.3337 4.05693C10.2099 4.10112 10.0959 4.16926 9.99843 4.25748C9.90093 4.34569 9.82176 4.45225 9.76544 4.57106C9.70912 4.68988 9.67675 4.81862 9.67019 4.94994C9.66362 5.08126 9.68298 5.21259 9.72717 5.33643C9.77136 5.46027 9.83951 5.57419 9.92772 5.67169C10.0159 5.76919 10.1225 5.84837 10.2413 5.90469C10.3601 5.96101 10.4889 5.99338 10.6202 5.99994Z" />
</svg>
