<svg width="24" height="24" viewBox="0 0 24 24" xmlns="http://www.w3.org/2000/svg">
<path d="M19.0002 5.99994H16.0002V4.99994C16.0002 4.46951 15.7895 3.9608 15.4144 3.58573C15.0393 3.21065 14.5306 2.99994 14.0002 2.99994H10.0002C9.7927 2.99902 9.58652 3.03282 9.39019 3.09994C9.26434 3.14067 9.14783 3.20595 9.04739 3.29202C8.94695 3.37808 8.86459 3.48322 8.80506 3.60134C8.74554 3.71946 8.71004 3.84821 8.70062 3.98014C8.6912 4.11207 8.70805 4.24456 8.75019 4.36994C8.83467 4.61763 9.01288 4.82233 9.24658 4.94012C9.48028 5.0579 9.75083 5.07938 10.0002 4.99994H14.0002V5.99994H12.6602C12.395 5.99994 12.1406 6.1053 11.9531 6.29283C11.7655 6.48037 11.6602 6.73472 11.6602 6.99994C11.6602 7.26516 11.7655 7.51951 11.9531 7.70705C12.1406 7.89458 12.395 7.99994 12.6602 7.99994H19.0002C19.2654 7.99994 19.5198 8.1053 19.7073 8.29283C19.8948 8.48037 20.0002 8.73472 20.0002 8.99994V10.2799L17.4302 11.1399C17.3052 11.1817 17.1898 11.2477 17.0904 11.3342C16.9911 11.4207 16.9098 11.526 16.8512 11.644C16.7927 11.762 16.7581 11.8904 16.7493 12.0219C16.7405 12.1533 16.7578 12.2852 16.8002 12.4099C16.8673 12.6086 16.9951 12.7811 17.1656 12.9031C17.336 13.0251 17.5405 13.0905 17.7502 13.0899C17.8586 13.0879 17.9663 13.0711 18.0702 13.0399L20.0002 12.3899V15.3399C20.0002 15.6052 20.1055 15.8595 20.2931 16.047C20.4806 16.2346 20.735 16.3399 21.0002 16.3399C21.2654 16.3399 21.5198 16.2346 21.7073 16.047C21.8948 15.8595 22.0002 15.6052 22.0002 15.3399V8.99994C22.0002 8.20429 21.6841 7.44123 21.1215 6.87862C20.5589 6.31601 19.7958 5.99994 19.0002 5.99994ZM3.71019 2.28994C3.61695 2.1967 3.50626 2.12274 3.38443 2.07228C3.26261 2.02182 3.13204 1.99585 3.00019 1.99585C2.86833 1.99585 2.73776 2.02182 2.61594 2.07228C2.49411 2.12274 2.38342 2.1967 2.29019 2.28994C2.10188 2.47824 1.99609 2.73364 1.99609 2.99994C1.99609 3.26624 2.10188 3.52164 2.29019 3.70994L4.62019 5.99994C3.89208 6.09289 3.22332 6.44955 2.74049 7.00241C2.25766 7.55527 1.99428 8.26595 2.00019 8.99994V17.9999C2.00019 18.7956 2.31626 19.5587 2.87887 20.1213C3.44147 20.6839 4.20454 20.9999 5.00019 20.9999H19.0002C19.1783 20.9954 19.3556 20.9753 19.5302 20.9399L20.2902 21.7099C20.3831 21.8037 20.4937 21.8781 20.6156 21.9288C20.7375 21.9796 20.8682 22.0057 21.0002 22.0057C21.1322 22.0057 21.2629 21.9796 21.3848 21.9288C21.5066 21.8781 21.6172 21.8037 21.7102 21.7099C21.8039 21.617 21.8783 21.5064 21.9291 21.3845C21.9798 21.2627 22.006 21.132 22.006 20.9999C22.006 20.8679 21.9798 20.7372 21.9291 20.6154C21.8783 20.4935 21.8039 20.3829 21.7102 20.2899L3.71019 2.28994ZM4.00019 8.99994C4.00019 8.73472 4.10554 8.48037 4.29308 8.29283C4.48062 8.1053 4.73497 7.99994 5.00019 7.99994H6.59019L10.5902 11.9999H9.16019L4.00019 10.2799V8.99994ZM5.00019 18.9999C4.73497 18.9999 4.48062 18.8946 4.29308 18.707C4.10554 18.5195 4.00019 18.2652 4.00019 17.9999V12.3899L8.68019 13.9999C8.78637 14.0143 8.89401 14.0143 9.00019 13.9999H12.5902L17.5902 18.9999H5.00019Z" />
</svg>
