<svg width="24" height="24" viewBox="0 0 24 24" xmlns="http://www.w3.org/2000/svg">
<path d="M21.7102 20.2899L20.7802 19.3599L20.6902 19.2599L20.6302 19.1899L20.1302 18.6899L20.0002 18.6199L14.8202 13.4199L14.7302 13.3399L11.5302 10.1299L11.4302 9.99994L3.71019 2.28994C3.61695 2.1967 3.50626 2.12274 3.38443 2.07228C3.26261 2.02182 3.13204 1.99585 3.00019 1.99585C2.86833 1.99585 2.73776 2.02182 2.61594 2.07228C2.49411 2.12274 2.38342 2.1967 2.29019 2.28994C2.10188 2.47824 1.99609 2.73364 1.99609 2.99994C1.99609 3.26624 2.10188 3.52164 2.29019 3.70994L3.29019 4.70994C3.09879 5.11302 2.99971 5.55373 3.00019 5.99994V17.9999C3.00019 18.7956 3.31626 19.5587 3.87887 20.1213C4.44147 20.6839 5.20454 20.9999 6.00019 20.9999H18.0002C18.4416 20.9946 18.876 20.8886 19.2702 20.6899C19.2702 20.6899 19.2702 20.6899 19.3202 20.6899L20.2702 21.6899C20.3631 21.7837 20.4737 21.8581 20.5956 21.9088C20.7175 21.9596 20.8482 21.9857 20.9802 21.9857C21.1122 21.9857 21.2429 21.9596 21.3648 21.9088C21.4866 21.8581 21.5972 21.7837 21.6902 21.6899C21.8761 21.5056 21.9823 21.2558 21.9861 20.994C21.9898 20.7323 21.8908 20.4795 21.7102 20.2899ZM5.00019 6.40994L8.24019 9.64994C7.9947 9.77651 7.76899 9.93821 7.57019 10.1299L5.00019 12.7099V6.40994ZM6.00019 18.9999C5.73497 18.9999 5.48062 18.8946 5.29308 18.707C5.10554 18.5195 5.00019 18.2652 5.00019 17.9999V15.5399L9.00019 11.5399C9.14988 11.4015 9.34628 11.3246 9.55019 11.3246C9.75409 11.3246 9.95049 11.4015 10.1002 11.5399L17.5902 18.9999H6.00019ZM9.66019 4.99994H18.0002C18.2654 4.99994 18.5198 5.1053 18.7073 5.29283C18.8948 5.48037 19.0002 5.73472 19.0002 5.99994V11.9399C18.9069 11.8467 18.7963 11.7727 18.6744 11.7223C18.5526 11.6718 18.422 11.6458 18.2902 11.6458C18.1583 11.6458 18.0278 11.6718 17.9059 11.7223C17.7841 11.7727 17.6734 11.8467 17.5802 11.9399C17.4869 12.0332 17.413 12.1439 17.3625 12.2657C17.3121 12.3875 17.2861 12.5181 17.2861 12.6499C17.2861 12.7818 17.3121 12.9124 17.3625 13.0342C17.413 13.156 17.4869 13.2667 17.5802 13.3599L19.3202 15.0999C19.4131 15.1937 19.5238 15.2681 19.6456 15.3188C19.7675 15.3696 19.8982 15.3957 20.0302 15.3957C20.1622 15.3957 20.2929 15.3696 20.4148 15.3188C20.5366 15.2681 20.6472 15.1937 20.7402 15.0999C20.8341 15.0053 20.9081 14.8929 20.9579 14.7692C21.0077 14.6456 21.0323 14.5132 21.0302 14.3799V5.99994C21.0302 5.20429 20.7141 4.44123 20.1515 3.87862C19.5889 3.31601 18.8258 2.99994 18.0302 2.99994H9.66019C9.39497 2.99994 9.14061 3.1053 8.95308 3.29283C8.76554 3.48037 8.66019 3.73472 8.66019 3.99994C8.66019 4.26516 8.76554 4.51951 8.95308 4.70705C9.14061 4.89458 9.39497 4.99994 9.66019 4.99994Z" />
</svg>
