<svg width="24" height="24" viewBox="0 0 24 24" xmlns="http://www.w3.org/2000/svg">
<path d="M6 10.9999C5.80222 10.9999 5.60888 11.0586 5.44443 11.1685C5.27998 11.2784 5.15181 11.4345 5.07612 11.6173C5.00043 11.8 4.98063 12.001 5.01921 12.195C5.0578 12.389 5.15304 12.5672 5.29289 12.707C5.43275 12.8469 5.61093 12.9421 5.80491 12.9807C5.99889 13.0193 6.19996 12.9995 6.38268 12.9238C6.56541 12.8481 6.72159 12.72 6.83147 12.5555C6.94135 12.3911 7 12.1977 7 11.9999C7 11.7347 6.89464 11.4804 6.70711 11.2928C6.51957 11.1053 6.26522 10.9999 6 10.9999ZM11.86 9.44994L4.71 2.28994C4.61676 2.1967 4.50607 2.12274 4.38425 2.07228C4.26243 2.02182 4.13186 1.99585 4 1.99585C3.86814 1.99585 3.73757 2.02182 3.61575 2.07228C3.49393 2.12274 3.38324 2.1967 3.29 2.28994C3.1017 2.47824 2.99591 2.73364 2.99591 2.99994C2.99591 3.26624 3.1017 3.52164 3.29 3.70994L4.59 4.99994H4C3.20435 4.99994 2.44129 5.31601 1.87868 5.87862C1.31607 6.44123 1 7.20429 1 7.99994V15.9999C1 16.7956 1.31607 17.5587 1.87868 18.1213C2.44129 18.6839 3.20435 18.9999 4 18.9999H18.59L21.29 21.7099C21.383 21.8037 21.4936 21.8781 21.6154 21.9288C21.7373 21.9796 21.868 22.0057 22 22.0057C22.132 22.0057 22.2627 21.9796 22.3846 21.9288C22.5064 21.8781 22.617 21.8037 22.71 21.7099C22.8037 21.617 22.8781 21.5064 22.9289 21.3845C22.9797 21.2627 23.0058 21.132 23.0058 20.9999C23.0058 20.8679 22.9797 20.7372 22.9289 20.6154C22.8781 20.4935 22.8037 20.3829 22.71 20.2899L11.86 9.44994ZM11.12 11.5399L12.46 12.8799C12.3185 12.9563 12.1608 12.9975 12 12.9999C11.7348 12.9999 11.4804 12.8946 11.2929 12.707C11.1054 12.5195 11 12.2652 11 11.9999C11.0024 11.8392 11.0436 11.6814 11.12 11.5399ZM4 16.9999C3.73478 16.9999 3.48043 16.8946 3.29289 16.707C3.10536 16.5195 3 16.2652 3 15.9999V7.99994C3 7.73472 3.10536 7.48037 3.29289 7.29283C3.48043 7.1053 3.73478 6.99994 4 6.99994H6.59L9.69 10.0999C9.24713 10.6344 9.00328 11.3059 9 11.9999C9 12.7956 9.31607 13.5587 9.87868 14.1213C10.4413 14.6839 11.2044 14.9999 12 14.9999C12.6941 14.9967 13.3656 14.7528 13.9 14.3099L16.59 16.9999H4ZM20 4.99994H12.66C12.3948 4.99994 12.1404 5.1053 11.9529 5.29283C11.7654 5.48037 11.66 5.73472 11.66 5.99994C11.66 6.26516 11.7654 6.51951 11.9529 6.70705C12.1404 6.89458 12.3948 6.99994 12.66 6.99994H20C20.2652 6.99994 20.5196 7.1053 20.7071 7.29283C20.8946 7.48037 21 7.73472 21 7.99994V15.3399C21 15.6052 21.1054 15.8595 21.2929 16.047C21.4804 16.2346 21.7348 16.3399 22 16.3399C22.2652 16.3399 22.5196 16.2346 22.7071 16.047C22.8946 15.8595 23 15.6052 23 15.3399V7.99994C23 7.20429 22.6839 6.44123 22.1213 5.87862C21.5587 5.31601 20.7956 4.99994 20 4.99994ZM19 11.9999C19 11.8022 18.9414 11.6088 18.8315 11.4444C18.7216 11.2799 18.5654 11.1517 18.3827 11.0761C18.2 11.0004 17.9989 10.9806 17.8049 11.0192C17.6109 11.0577 17.4327 11.153 17.2929 11.2928C17.153 11.4327 17.0578 11.6109 17.0192 11.8049C16.9806 11.9988 17.0004 12.1999 17.0761 12.3826C17.1518 12.5654 17.28 12.7215 17.4444 12.8314C17.6089 12.9413 17.8022 12.9999 18 12.9999C18.2652 12.9999 18.5196 12.8946 18.7071 12.707C18.8946 12.5195 19 12.2652 19 11.9999Z" />
</svg>
