<svg width="24" height="24" viewBox="0 0 24 24" xmlns="http://www.w3.org/2000/svg">
<path d="M11.2902 17.7099C11.3831 17.8037 11.4937 17.8781 11.6156 17.9288C11.7375 17.9796 11.8682 18.0057 12.0002 18.0057C12.1322 18.0057 12.2629 17.9796 12.3848 17.9288C12.5066 17.8781 12.6172 17.8037 12.7102 17.7099C12.7985 17.6127 12.8695 17.5011 12.9202 17.3799C12.9731 17.2602 13.0004 17.1308 13.0004 16.9999C13.0004 16.8691 12.9731 16.7396 12.9202 16.6199C12.8695 16.4988 12.7985 16.3871 12.7102 16.2899C12.6172 16.1962 12.5066 16.1218 12.3848 16.071C12.2629 16.0203 12.1322 15.9941 12.0002 15.9941C11.8682 15.9941 11.7375 16.0203 11.6156 16.071C11.4937 16.1218 11.3831 16.1962 11.2902 16.2899C11.2019 16.3871 11.1308 16.4988 11.0802 16.6199C11.0273 16.7396 11 16.8691 11 16.9999C11 17.1308 11.0273 17.2602 11.0802 17.3799C11.1308 17.5011 11.2019 17.6127 11.2902 17.7099ZM8.66019 3.99994H16.0002C16.2654 3.99994 16.5198 4.1053 16.7073 4.29283C16.8948 4.48037 17.0002 4.73472 17.0002 4.99994V12.3399C17.0002 12.6052 17.1055 12.8595 17.2931 13.047C17.4806 13.2346 17.735 13.3399 18.0002 13.3399C18.2654 13.3399 18.5198 13.2346 18.7073 13.047C18.8948 12.8595 19.0002 12.6052 19.0002 12.3399V4.99994C19.0002 4.20429 18.6841 3.44123 18.1215 2.87862C17.5589 2.31601 16.7958 1.99994 16.0002 1.99994H8.66019C8.39497 1.99994 8.14061 2.1053 7.95308 2.29283C7.76554 2.48037 7.66019 2.73472 7.66019 2.99994C7.66019 3.26516 7.76554 3.51951 7.95308 3.70705C8.14061 3.89458 8.39497 3.99994 8.66019 3.99994ZM21.7102 20.2899L3.71019 2.28994C3.52188 2.10164 3.26649 1.99585 3.00019 1.99585C2.73388 1.99585 2.47849 2.10164 2.29019 2.28994C2.10188 2.47824 1.99609 2.73364 1.99609 2.99994C1.99609 3.26624 2.10188 3.52164 2.29019 3.70994L5.00019 6.40994V18.9999C5.00019 19.7956 5.31626 20.5587 5.87887 21.1213C6.44147 21.6839 7.20454 21.9999 8.00019 21.9999H16.0002C16.5891 21.9995 17.1648 21.8257 17.6556 21.5003C18.1464 21.1748 18.5305 20.7122 18.7602 20.1699L20.2902 21.7099C20.3831 21.8037 20.4937 21.8781 20.6156 21.9288C20.7375 21.9796 20.8682 22.0057 21.0002 22.0057C21.1322 22.0057 21.2629 21.9796 21.3848 21.9288C21.5066 21.8781 21.6172 21.8037 21.7102 21.7099C21.8039 21.617 21.8783 21.5064 21.9291 21.3845C21.9798 21.2627 22.006 21.132 22.006 20.9999C22.006 20.8679 21.9798 20.7372 21.9291 20.6154C21.8783 20.4935 21.8039 20.3829 21.7102 20.2899ZM17.0002 18.9999C17.0002 19.2652 16.8948 19.5195 16.7073 19.707C16.5198 19.8946 16.2654 19.9999 16.0002 19.9999H8.00019C7.73497 19.9999 7.48062 19.8946 7.29308 19.707C7.10554 19.5195 7.00019 19.2652 7.00019 18.9999V8.40994L17.0002 18.4099V18.9999Z" />
</svg>
