<svg width="24" height="24" viewBox="0 0 24 24" xmlns="http://www.w3.org/2000/svg">
<path d="M7.00019 9.99994C6.8024 9.99994 6.60906 10.0586 6.44462 10.1685C6.28017 10.2784 6.15199 10.4345 6.07631 10.6173C6.00062 10.8 5.98081 11.001 6.0194 11.195C6.05799 11.389 6.15323 11.5672 6.29308 11.707C6.43293 11.8469 6.61111 11.9421 6.8051 11.9807C6.99908 12.0193 7.20014 11.9995 7.38287 11.9238C7.56559 11.8481 7.72177 11.72 7.83166 11.5555C7.94154 11.3911 8.00019 11.1977 8.00019 10.9999C8.00019 10.7347 7.89483 10.4804 7.70729 10.2928C7.51976 10.1053 7.2654 9.99994 7.00019 9.99994ZM3.71019 2.28994C3.61695 2.1967 3.50626 2.12274 3.38443 2.07228C3.26261 2.02182 3.13204 1.99585 3.00019 1.99585C2.86833 1.99585 2.73776 2.02182 2.61594 2.07228C2.49411 2.12274 2.38342 2.1967 2.29019 2.28994C2.10188 2.47824 1.99609 2.73364 1.99609 2.99994C1.99609 3.26624 2.10188 3.52164 2.29019 3.70994L4.62019 5.99994C3.89208 6.09289 3.22332 6.44955 2.74049 7.00241C2.25766 7.55527 1.99428 8.26595 2.00019 8.99994V14.9999C2.00019 15.7956 2.31626 16.5587 2.87887 17.1213C3.44147 17.6839 4.20454 17.9999 5.00019 17.9999H6.00019V20.9999C6.00019 21.2652 6.10554 21.5195 6.29308 21.707C6.48062 21.8946 6.73497 21.9999 7.00019 21.9999H17.0002C17.2654 21.9999 17.5198 21.8946 17.7073 21.707C17.8948 21.5195 18.0002 21.2652 18.0002 20.9999V19.4099L20.2902 21.7099C20.3831 21.8037 20.4937 21.8781 20.6156 21.9288C20.7375 21.9796 20.8682 22.0057 21.0002 22.0057C21.1322 22.0057 21.2629 21.9796 21.3848 21.9288C21.5066 21.8781 21.6172 21.8037 21.7102 21.7099C21.8039 21.617 21.8783 21.5064 21.9291 21.3845C21.9798 21.2627 22.006 21.132 22.006 20.9999C22.006 20.8679 21.9798 20.7372 21.9291 20.6154C21.8783 20.4935 21.8039 20.3829 21.7102 20.2899L3.71019 2.28994ZM6.00019 14.9999V15.9999H5.00019C4.73497 15.9999 4.48062 15.8946 4.29308 15.707C4.10554 15.5195 4.00019 15.2652 4.00019 14.9999V8.99994C4.00019 8.73472 4.10554 8.48037 4.29308 8.29283C4.48062 8.1053 4.73497 7.99994 5.00019 7.99994H6.59019L12.5902 13.9999H7.00019C6.73497 13.9999 6.48062 14.1053 6.29308 14.2928C6.10554 14.4804 6.00019 14.7347 6.00019 14.9999ZM16.0002 19.9999H8.00019V15.9999H14.5902L16.0002 17.4099V19.9999ZM19.0002 5.99994H18.0002V2.99994C18.0002 2.73472 17.8948 2.48037 17.7073 2.29283C17.5198 2.1053 17.2654 1.99994 17.0002 1.99994H8.66019C8.39497 1.99994 8.14061 2.1053 7.95308 2.29283C7.76554 2.48037 7.66019 2.73472 7.66019 2.99994C7.66019 3.26516 7.76554 3.51951 7.95308 3.70705C8.14061 3.89458 8.39497 3.99994 8.66019 3.99994H16.0002V5.99994H12.6602C12.395 5.99994 12.1406 6.1053 11.9531 6.29283C11.7655 6.48037 11.6602 6.73472 11.6602 6.99994C11.6602 7.26516 11.7655 7.51951 11.9531 7.70705C12.1406 7.89458 12.395 7.99994 12.6602 7.99994H19.0002C19.2654 7.99994 19.5198 8.1053 19.7073 8.29283C19.8948 8.48037 20.0002 8.73472 20.0002 8.99994V14.9999C20.0057 15.0364 20.0057 15.0735 20.0002 15.1099C19.9739 15.2386 19.9732 15.3713 19.9982 15.5002C20.0232 15.6292 20.0733 15.752 20.1457 15.8615C20.2182 15.9711 20.3115 16.0653 20.4203 16.1389C20.5292 16.2124 20.6515 16.2637 20.7802 16.2899H20.9802C21.2141 16.2947 21.4423 16.2172 21.625 16.071C21.8078 15.9248 21.9334 15.7192 21.9802 15.4899C22.001 15.3275 22.0077 15.1635 22.0002 14.9999V8.99994C22.0002 8.20429 21.6841 7.44123 21.1215 6.87862C20.5589 6.31601 19.7958 5.99994 19.0002 5.99994Z" />
</svg>
