<svg width="24" height="24" viewBox="0 0 24 24" xmlns="http://www.w3.org/2000/svg">
<path d="M19.5002 3.99994H10.0002C9.73497 3.99994 9.48062 4.1053 9.29308 4.29283C9.10554 4.48037 9.00019 4.73472 9.00019 4.99994C9.00019 5.26516 9.10554 5.51951 9.29308 5.70705C9.48062 5.89458 9.73497 5.99994 10.0002 5.99994H19.5002C19.7654 5.99994 20.0198 6.1053 20.2073 6.29283C20.3948 6.48037 20.5002 6.73472 20.5002 6.99994V13.7599L18.6202 11.8799C18.2987 11.5602 17.909 11.3174 17.4802 11.1699C17.3554 11.1279 17.2236 11.1109 17.0923 11.1198C16.9609 11.1287 16.8326 11.1634 16.7147 11.2219C16.5968 11.2804 16.4915 11.3616 16.405 11.4608C16.3184 11.5599 16.2522 11.6752 16.2102 11.7999C16.1682 11.9247 16.1511 12.0565 16.16 12.1878C16.169 12.3192 16.2037 12.4475 16.2622 12.5654C16.3207 12.6833 16.4018 12.7886 16.501 12.8752C16.6002 12.9617 16.7154 13.0279 16.8402 13.0699C16.9784 13.1135 17.1026 13.1928 17.2002 13.2999L20.5102 16.5899C20.5045 16.6398 20.5045 16.6901 20.5102 16.7399C20.5057 16.7898 20.5057 16.84 20.5102 16.8899C20.5478 16.9539 20.5913 17.0142 20.6402 17.0699C20.6646 17.1109 20.6949 17.1479 20.7302 17.1799C20.7902 17.2355 20.8575 17.2826 20.9302 17.3199C20.9647 17.3437 21.0015 17.3638 21.0402 17.3799C21.1565 17.4322 21.2826 17.4595 21.4102 17.4599C21.6754 17.4599 21.9298 17.3546 22.1173 17.167C22.3048 16.9795 22.4102 16.7252 22.4102 16.4599V6.99994C22.4105 6.21964 22.1068 5.46991 21.5636 4.90982C21.0203 4.34973 20.2801 4.02335 19.5002 3.99994ZM3.21019 2.28994C3.02188 2.10164 2.76649 1.99585 2.50019 1.99585C2.23388 1.99585 1.97849 2.10164 1.79019 2.28994C1.60188 2.47824 1.49609 2.73364 1.49609 2.99994C1.49609 3.26624 1.60188 3.52164 1.79019 3.70994L3.18019 5.09994C2.74092 5.63575 2.50065 6.30709 2.50019 6.99994V16.9999C2.50019 17.7956 2.81626 18.5587 3.37887 19.1213C3.94147 19.6839 4.70454 19.9999 5.50019 19.9999H18.0902L19.7902 21.7099C19.8831 21.8037 19.9937 21.8781 20.1156 21.9288C20.2375 21.9796 20.3682 22.0057 20.5002 22.0057C20.6322 22.0057 20.7629 21.9796 20.8848 21.9288C21.0066 21.8781 21.1172 21.8037 21.2102 21.7099C21.3039 21.617 21.3783 21.5064 21.4291 21.3845C21.4798 21.2627 21.506 21.132 21.506 20.9999C21.506 20.8679 21.4798 20.7372 21.4291 20.6154C21.3783 20.4935 21.3039 20.3829 21.2102 20.2899L3.21019 2.28994ZM4.50019 6.99994C4.50263 6.83919 4.54379 6.6814 4.62019 6.53994L7.34019 9.24994C6.96837 9.39155 6.62845 9.60571 6.34019 9.87994L4.50019 11.7599V6.99994ZM5.50019 17.9999C5.23497 17.9999 4.98062 17.8946 4.79308 17.707C4.60554 17.5195 4.50019 17.2652 4.50019 16.9999V14.5799L7.80019 11.2899C7.98711 11.1067 8.23843 11.0041 8.50019 11.0041C8.76194 11.0041 9.01326 11.1067 9.20019 11.2899L15.9102 17.9999H5.50019Z" />
</svg>
