<svg width="24" height="24" viewBox="0 0 24 24" xmlns="http://www.w3.org/2000/svg">
<path d="M21.7102 20.2899L3.71019 2.28994C3.52188 2.10164 3.26649 1.99585 3.00019 1.99585C2.73388 1.99585 2.47849 2.10164 2.29019 2.28994C2.10188 2.47824 1.99609 2.73364 1.99609 2.99994C1.99609 3.26624 2.10188 3.52164 2.29019 3.70994L6.29019 7.70994C5.02123 9.66935 4.32823 11.9458 4.29019 14.2799C4.30067 16.3224 5.11602 18.2785 6.55938 19.7237C8.00273 21.1689 9.95769 21.9868 12.0002 21.9999C13.1172 22.0048 14.2218 21.7647 15.236 21.2965C16.2502 20.8283 17.1494 20.1433 17.8702 19.2899L20.2902 21.7099C20.3831 21.8037 20.4937 21.8781 20.6156 21.9288C20.7375 21.9796 20.8682 22.0057 21.0002 22.0057C21.1322 22.0057 21.2629 21.9796 21.3848 21.9288C21.5066 21.8781 21.6172 21.8037 21.7102 21.7099C21.8039 21.617 21.8783 21.5064 21.9291 21.3845C21.9798 21.2627 22.006 21.132 22.006 20.9999C22.006 20.8679 21.9798 20.7372 21.9291 20.6154C21.8783 20.4935 21.8039 20.3829 21.7102 20.2899ZM12.0002 19.9999C10.476 19.9973 9.015 19.3906 7.93724 18.3129C6.85948 17.2351 6.25283 15.7741 6.25019 14.2499C6.2845 12.4473 6.79139 10.6853 7.72019 9.13994L16.4602 17.8699C15.9258 18.5386 15.2469 19.0776 14.4745 19.4465C13.7021 19.8154 12.8562 20.0046 12.0002 19.9999ZM10.8502 5.23994C11.3002 4.81994 11.7002 4.48994 12.0002 4.23994C13.4302 5.35994 17.1302 8.66994 17.6802 13.1199C17.7097 13.3639 17.8279 13.5884 18.0123 13.7507C18.1968 13.913 18.4345 14.0017 18.6802 13.9999H18.8002C19.0624 13.9674 19.3012 13.8324 19.4642 13.6244C19.6272 13.4164 19.7013 13.1524 19.6702 12.8899C18.8902 6.45994 12.8202 2.33994 12.5702 2.16994C12.4048 2.05817 12.2098 1.99843 12.0102 1.99843C11.8106 1.99843 11.6156 2.05817 11.4502 2.16994C10.7612 2.6617 10.1064 3.1996 9.49019 3.77994C9.31708 3.96493 9.22064 4.20872 9.22035 4.46207C9.22006 4.71542 9.31594 4.95944 9.48863 5.14482C9.66131 5.3302 9.89792 5.44312 10.1507 5.46078C10.4034 5.47844 10.6534 5.39951 10.8502 5.23994Z" />
</svg>
