<svg width="24" height="24" viewBox="0 0 24 24" xmlns="http://www.w3.org/2000/svg">
<path d="M2.49983 10.5601L11.4998 15.7601C11.6518 15.8478 11.8243 15.894 11.9998 15.894C12.1754 15.894 12.3478 15.8478 12.4998 15.7601L21.4998 10.5601C21.6514 10.4722 21.7772 10.346 21.8646 10.1942C21.952 10.0424 21.9981 9.87026 21.9981 9.69507C21.9981 9.51988 21.952 9.34776 21.8646 9.19596C21.7772 9.04415 21.6514 8.91797 21.4998 8.83007L12.4998 3.63007C12.3478 3.5423 12.1754 3.49609 11.9998 3.49609C11.8243 3.49609 11.6518 3.5423 11.4998 3.63007L2.49983 8.83007C2.34829 8.91797 2.2225 9.04415 2.13506 9.19596C2.04762 9.34776 2.0016 9.51988 2.0016 9.69507C2.0016 9.87026 2.04762 10.0424 2.13506 10.1942C2.2225 10.346 2.34829 10.4722 2.49983 10.5601ZM11.9998 5.65007L18.9998 9.65007L11.9998 13.7001L4.99983 9.69007L11.9998 5.65007ZM20.4998 13.4401L11.9998 18.3501L3.49983 13.4401C3.38629 13.3735 3.26074 13.3301 3.13037 13.3122C3 13.2942 2.86737 13.3022 2.7401 13.3357C2.61282 13.3691 2.4934 13.4274 2.38868 13.5071C2.28396 13.5867 2.19599 13.6863 2.12983 13.8001C2.06371 13.9142 2.02082 14.0403 2.00364 14.1711C1.98646 14.3018 1.99531 14.4347 2.02971 14.5621C2.0641 14.6894 2.12334 14.8087 2.20403 14.913C2.28471 15.0174 2.38524 15.1047 2.49983 15.1701L11.4998 20.3701C11.6518 20.4578 11.8243 20.504 11.9998 20.504C12.1754 20.504 12.3478 20.4578 12.4998 20.3701L21.4998 15.1701C21.6144 15.1047 21.7149 15.0174 21.7956 14.913C21.8763 14.8087 21.9356 14.6894 21.9699 14.5621C22.0043 14.4347 22.0132 14.3018 21.996 14.1711C21.9788 14.0403 21.9359 13.9142 21.8698 13.8001C21.8037 13.6863 21.7157 13.5867 21.611 13.5071C21.5063 13.4274 21.3868 13.3691 21.2596 13.3357C21.1323 13.3022 20.9997 13.2942 20.8693 13.3122C20.7389 13.3301 20.6134 13.3735 20.4998 13.4401Z" />
</svg>
