<svg width="24" height="24" viewBox="0 0 24 24" xmlns="http://www.w3.org/2000/svg">
<path d="M20.3402 9.31988L6.34025 2.31988C5.78774 2.04489 5.16386 1.94699 4.55368 2.03954C3.9435 2.13208 3.37671 2.41055 2.93058 2.837C2.48445 3.26345 2.1807 3.81711 2.06074 4.42249C1.94078 5.02788 2.01045 5.65554 2.26025 6.21988L4.66025 11.5899C4.7147 11.7197 4.74275 11.8591 4.74275 11.9999C4.74275 12.1407 4.7147 12.2801 4.66025 12.4099L2.26025 17.7799C2.05695 18.2366 1.971 18.7369 2.01022 19.2353C2.04945 19.7336 2.21259 20.2143 2.48483 20.6336C2.75707 21.0529 3.12977 21.3975 3.56907 21.6361C4.00837 21.8747 4.50033 21.9998 5.00025 21.9999C5.46848 21.9952 5.92974 21.8859 6.35025 21.6799L20.3502 14.6799C20.8468 14.4301 21.2643 14.0472 21.5559 13.574C21.8476 13.1007 22.0021 12.5558 22.0021 11.9999C22.0021 11.444 21.8476 10.899 21.5559 10.4258C21.2643 9.95258 20.8468 9.5697 20.3502 9.31988H20.3402ZM19.4502 12.8899L5.45025 19.8899C5.26641 19.9782 5.05998 20.0081 4.85863 19.9757C4.65729 19.9434 4.47066 19.8502 4.32376 19.7087C4.17686 19.5673 4.07673 19.3843 4.03678 19.1843C3.99683 18.9843 4.01897 18.7769 4.10025 18.5899L6.49025 13.2199C6.52119 13.1482 6.5479 13.0747 6.57025 12.9999H13.4602C13.7255 12.9999 13.9798 12.8945 14.1674 12.707C14.3549 12.5195 14.4602 12.2651 14.4602 11.9999C14.4602 11.7347 14.3549 11.4803 14.1674 11.2928C13.9798 11.1052 13.7255 10.9999 13.4602 10.9999H6.57025C6.5479 10.9251 6.52119 10.8516 6.49025 10.7799L4.10025 5.40988C4.01897 5.22285 3.99683 5.01543 4.03678 4.81545C4.07673 4.61547 4.17686 4.43249 4.32376 4.29103C4.47066 4.14958 4.65729 4.05641 4.85863 4.02404C5.05998 3.99166 5.26641 4.02161 5.45025 4.10988L19.4502 11.1099C19.614 11.1938 19.7515 11.3213 19.8475 11.4783C19.9435 11.6354 19.9943 11.8158 19.9943 11.9999C19.9943 12.1839 19.9435 12.3644 19.8475 12.5214C19.7515 12.6785 19.614 12.806 19.4502 12.8899Z" />
</svg>
