<svg width="24" height="24" viewBox="0 0 24 24" xmlns="http://www.w3.org/2000/svg">
<path d="M22 7.24002C22.0008 7.10841 21.9756 6.97795 21.9258 6.85611C21.876 6.73427 21.8027 6.62346 21.71 6.53002L17.47 2.29002C17.3766 2.19734 17.2658 2.12401 17.1439 2.07425C17.0221 2.02448 16.8916 1.99926 16.76 2.00002C16.6284 1.99926 16.4979 2.02448 16.3761 2.07425C16.2543 2.12401 16.1435 2.19734 16.05 2.29002L13.22 5.12002L2.29002 16.05C2.19734 16.1435 2.12401 16.2543 2.07425 16.3761C2.02448 16.4979 1.99926 16.6284 2.00002 16.76V21C2.00002 21.2652 2.10537 21.5196 2.29291 21.7071C2.48045 21.8947 2.7348 22 3.00002 22H7.24002C7.37994 22.0076 7.51991 21.9857 7.65084 21.9358C7.78176 21.8858 7.90073 21.8089 8.00002 21.71L18.87 10.78L21.71 8.00002C21.8013 7.9031 21.8757 7.79155 21.93 7.67002C21.9397 7.59031 21.9397 7.50973 21.93 7.43002C21.9347 7.38347 21.9347 7.33657 21.93 7.29002L22 7.24002ZM6.83002 20H4.00002V17.17L13.93 7.24002L16.76 10.07L6.83002 20ZM18.17 8.66002L15.34 5.83002L16.76 4.42002L19.58 7.24002L18.17 8.66002Z" />
</svg>
