<svg width="24" height="24" viewBox="0 0 24 24" xmlns="http://www.w3.org/2000/svg">
<path d="M8.51033 12.4801C8.31255 12.4801 8.11921 12.5387 7.95476 12.6486C7.79031 12.7585 7.66214 12.9147 7.58645 13.0974C7.51077 13.2801 7.49096 13.4812 7.52955 13.6752C7.56813 13.8691 7.66337 14.0473 7.80323 14.1872C7.94308 14.327 8.12126 14.4223 8.31524 14.4609C8.50922 14.4994 8.71029 14.4796 8.89302 14.4039C9.07574 14.3283 9.23192 14.2001 9.3418 14.0356C9.45168 13.8712 9.51033 13.6778 9.51033 13.4801C9.51033 13.2149 9.40498 12.9605 9.21744 12.773C9.0299 12.5854 8.77555 12.4801 8.51033 12.4801ZM8.51033 8.00007C8.31255 8.00007 8.11921 8.05872 7.95476 8.1686C7.79031 8.27848 7.66214 8.43466 7.58645 8.61738C7.51077 8.80011 7.49096 9.00118 7.52955 9.19516C7.56813 9.38914 7.66337 9.56732 7.80323 9.70717C7.94308 9.84703 8.12126 9.94227 8.31524 9.98085C8.50922 10.0194 8.71029 9.99964 8.89302 9.92395C9.07574 9.84826 9.23192 9.72009 9.3418 9.55564C9.45168 9.39119 9.51033 9.19785 9.51033 9.00007C9.51033 8.73485 9.40498 8.4805 9.21744 8.29296C9.0299 8.10543 8.77555 8.00007 8.51033 8.00007ZM12.0003 10.0001C11.7351 10.0001 11.4808 10.1054 11.2932 10.293C11.1057 10.4805 11.0003 10.7349 11.0003 11.0001V12.0001C11.0003 12.2653 11.1057 12.5196 11.2932 12.7072C11.4808 12.8947 11.7351 13.0001 12.0003 13.0001C12.2655 13.0001 12.5199 12.8947 12.7074 12.7072C12.895 12.5196 13.0003 12.2653 13.0003 12.0001V11.0001C13.0003 10.7349 12.895 10.4805 12.7074 10.293C12.5199 10.1054 12.2655 10.0001 12.0003 10.0001ZM20.5003 8.57007C20.1554 8.37158 19.7743 8.24372 19.3795 8.19393C18.9846 8.14414 18.5838 8.17342 18.2003 8.28007C17.8013 8.38696 17.4296 8.57789 17.1103 8.84007L5.51033 2.13007C5.35831 2.0423 5.18587 1.99609 5.01033 1.99609C4.8348 1.99609 4.66235 2.0423 4.51033 2.13007C4.35587 2.21689 4.22724 2.34321 4.13763 2.49607C4.04802 2.64894 4.00064 2.82287 4.00033 3.00007V16.1701C3.41019 16.3691 2.8985 16.7505 2.53906 17.2591C2.17961 17.7677 1.99097 18.3773 2.00033 19.0001C2.00005 19.782 2.30512 20.5332 2.85054 21.0936C3.39596 21.654 4.13863 21.9792 4.92033 22.0001H5.50033C8.77707 21.9924 11.9934 21.1178 14.8229 19.4651C17.6523 17.8124 19.994 15.4404 21.6103 12.5901C21.9836 11.9081 22.0776 11.1078 21.8724 10.3579C21.6672 9.60795 21.1789 8.96699 20.5103 8.57007H20.5003ZM6.00033 4.73007L15.8903 10.4401C14.7931 12.0773 13.3263 13.4335 11.6083 14.3994C9.89033 15.3652 7.9693 15.9135 6.00033 16.0001V4.73007ZM19.8703 11.6101C18.3858 14.2257 16.2177 16.3883 13.5983 17.8663C10.9789 19.3442 8.00681 20.0818 5.00033 20.0001C4.73512 20.0001 4.48076 19.8947 4.29323 19.7072C4.10569 19.5196 4.00033 19.2653 4.00033 19.0001C3.99955 18.8661 4.0257 18.7333 4.07724 18.6096C4.12877 18.4859 4.20464 18.3739 4.30033 18.2801C4.4882 18.099 4.7394 17.9985 5.00033 18.0001H5.51033C8.07805 17.999 10.5994 17.3162 12.8167 16.0213C15.034 14.7264 16.8677 12.8659 18.1303 10.6301C18.191 10.5204 18.274 10.4246 18.3739 10.3488C18.4737 10.273 18.5883 10.219 18.7103 10.1901C18.9625 10.1209 19.2317 10.1532 19.4603 10.2801C19.6898 10.4034 19.862 10.6114 19.9405 10.8598C20.0189 11.1082 19.9973 11.3773 19.8803 11.6101H19.8703Z" />
</svg>
