<svg width="24" height="24" viewBox="0 0 24 24" xmlns="http://www.w3.org/2000/svg">
<path d="M10.21 6.2099L11 5.4099V9.9999C11 10.2651 11.1054 10.5195 11.2929 10.707C11.4805 10.8945 11.7348 10.9999 12 10.9999C12.2653 10.9999 12.5196 10.8945 12.7071 10.707C12.8947 10.5195 13 10.2651 13 9.9999V5.4099L13.79 6.2099C13.883 6.30363 13.9936 6.37802 14.1155 6.42879C14.2373 6.47956 14.368 6.50569 14.5 6.50569C14.6321 6.50569 14.7628 6.47956 14.8846 6.42879C15.0065 6.37802 15.1171 6.30363 15.21 6.2099C15.3038 6.11693 15.3782 6.00633 15.4289 5.88447C15.4797 5.76261 15.5058 5.63191 15.5058 5.4999C15.5058 5.36788 15.4797 5.23718 15.4289 5.11532C15.3782 4.99346 15.3038 4.88286 15.21 4.7899L12.71 2.2899C12.6149 2.19886 12.5028 2.12749 12.38 2.0799C12.1366 1.97988 11.8635 1.97988 11.62 2.0799C11.4973 2.12749 11.3851 2.19886 11.29 2.2899L8.79004 4.7899C8.60174 4.9782 8.49595 5.23359 8.49595 5.4999C8.49595 5.7662 8.60174 6.02159 8.79004 6.2099C8.97835 6.3982 9.23374 6.50399 9.50004 6.50399C9.76634 6.50399 10.0217 6.3982 10.21 6.2099ZM18 7.5599C17.9055 7.46534 17.7932 7.39034 17.6697 7.33917C17.5462 7.288 17.4138 7.26166 17.28 7.26166C17.1463 7.26166 17.0139 7.288 16.8904 7.33917C16.7668 7.39034 16.6546 7.46534 16.56 7.5599C16.4655 7.65445 16.3905 7.7667 16.3393 7.89024C16.2881 8.01377 16.2618 8.14618 16.2618 8.2799C16.2618 8.41361 16.2881 8.54602 16.3393 8.66956C16.3905 8.7931 16.4655 8.90534 16.56 8.9999C17.4623 9.90185 18.0769 11.0511 18.3259 12.3024C18.575 13.5536 18.4474 14.8506 17.9593 16.0293C17.4712 17.2081 16.6445 18.2155 15.5837 18.9244C14.523 19.6332 13.2758 20.0116 12 20.0116C10.7243 20.0116 9.47712 19.6332 8.41637 18.9244C7.35562 18.2155 6.52891 17.2081 6.04079 16.0293C5.55268 14.8506 5.42508 13.5536 5.67415 12.3024C5.92322 11.0511 6.53776 9.90185 7.44004 8.9999C7.53459 8.90534 7.6096 8.7931 7.66077 8.66956C7.71194 8.54602 7.73828 8.41361 7.73828 8.2799C7.73828 8.14618 7.71194 8.01377 7.66077 7.89024C7.6096 7.7667 7.53459 7.65445 7.44004 7.5599C7.34549 7.46534 7.23324 7.39034 7.1097 7.33917C6.98617 7.288 6.85376 7.26166 6.72004 7.26166C6.58633 7.26166 6.45392 7.288 6.33038 7.33917C6.20684 7.39034 6.09459 7.46534 6.00004 7.5599C4.82196 8.74506 4.02125 10.2526 3.69892 11.8923C3.37659 13.5319 3.54707 15.2304 4.18888 16.7733C4.83068 18.3162 5.91504 19.6345 7.30518 20.5618C8.69532 21.4892 10.329 21.9841 12 21.9841C13.6711 21.9841 15.3048 21.4892 16.6949 20.5618C18.085 19.6345 19.1694 18.3162 19.8112 16.7733C20.453 15.2304 20.6235 13.5319 20.3012 11.8923C19.9788 10.2526 19.1781 8.74506 18 7.5599Z" />
</svg>
