<svg width="24" height="24" viewBox="0 0 24 24" xmlns="http://www.w3.org/2000/svg">
<path d="M6.99122 14.502C6.85989 14.5019 6.72983 14.5278 6.60849 14.578C6.48715 14.6283 6.3769 14.7019 6.28403 14.7948C6.19117 14.8876 6.11751 14.9979 6.06727 15.1192C6.01702 15.2406 5.99118 15.3706 5.99122 15.502V17.2843C4.70226 15.8266 3.99092 13.9478 3.99122 12.002C3.99103 11.7079 4.00864 11.414 4.04395 11.1221C4.06014 10.9915 4.0504 10.8591 4.0153 10.7323C3.9802 10.6055 3.92043 10.4869 3.8394 10.3832C3.75838 10.2796 3.65769 10.1929 3.54312 10.1282C3.42855 10.0636 3.30235 10.0222 3.17174 10.0064C3.04113 9.99055 2.90869 10.0007 2.78201 10.0362C2.65532 10.0716 2.53688 10.1318 2.43347 10.2131C2.33006 10.2944 2.24372 10.3954 2.17939 10.5101C2.11506 10.6249 2.07401 10.7512 2.0586 10.8819C2.0133 11.2535 1.9908 11.6276 1.99122 12.002C1.99258 14.3881 2.85017 16.6946 4.40809 18.502H2.99122C2.726 18.502 2.47165 18.6073 2.28411 18.7949C2.09657 18.9824 1.99122 19.2367 1.99122 19.502C1.99122 19.7672 2.09657 20.0215 2.28411 20.2091C2.47165 20.3966 2.726 20.502 2.99122 20.502H6.99122C7.14761 20.5 7.30128 20.4607 7.43941 20.3873C7.57755 20.314 7.69615 20.2086 7.78535 20.0802C7.79701 20.0648 7.8119 20.0534 7.82276 20.0372C7.82942 20.0272 7.8296 20.0154 7.83582 20.0053C7.88347 19.9248 7.91918 19.8378 7.94182 19.747C7.95662 19.696 7.96713 19.6439 7.97325 19.5911C7.97612 19.5602 7.99125 19.5336 7.99125 19.502V15.502C7.99128 15.3707 7.96544 15.2406 7.9152 15.1193C7.86496 14.9979 7.7913 14.8877 7.69843 14.7948C7.60556 14.7019 7.4953 14.6283 7.37396 14.578C7.25261 14.5278 7.12255 14.5019 6.99122 14.502ZM8.49122 6.00197H6.70875C8.16655 4.71307 10.0453 4.00174 11.9912 4.00197C12.2852 4.00126 12.5789 4.01887 12.8706 4.05471C13.001 4.07054 13.1333 4.06054 13.2599 4.02526C13.3864 3.98998 13.5048 3.93012 13.6082 3.8491C13.7116 3.76807 13.7981 3.66747 13.8626 3.55303C13.9272 3.4386 13.9685 3.31257 13.9844 3.18215C14.0002 3.05172 13.9902 2.91946 13.9549 2.7929C13.9197 2.66634 13.8598 2.54797 13.7788 2.44455C13.6977 2.34112 13.5971 2.25467 13.4827 2.19013C13.3683 2.12559 13.2422 2.08421 13.1118 2.06838C12.74 2.02352 12.3658 2.00134 11.9912 2.00197C9.60508 2.00326 7.29863 2.8608 5.49122 4.41866V3.00197C5.49122 2.73675 5.38586 2.4824 5.19832 2.29486C5.01079 2.10732 4.75643 2.00197 4.49122 2.00197C4.226 2.00197 3.97165 2.10732 3.78411 2.29486C3.59657 2.4824 3.49122 2.73675 3.49122 3.00197V7.00197C3.49751 7.06806 3.51068 7.13332 3.53053 7.19668L3.53077 7.1979C3.55505 7.32095 3.60299 7.43812 3.67194 7.5429L3.68336 7.5598C3.74943 7.6559 3.83225 7.73934 3.92786 7.80614C3.93879 7.81414 3.94422 7.8264 3.95557 7.83403C3.96986 7.84349 3.98603 7.84649 4.00062 7.85515C4.05733 7.88926 4.11742 7.91741 4.17994 7.93915C4.26442 7.96854 4.35251 7.98632 4.44178 7.992C4.45911 7.99292 4.4737 8.002 4.49122 8.002H8.49122C8.75643 8.002 9.01079 7.89664 9.19832 7.7091C9.38586 7.52157 9.49122 7.26721 9.49122 7.002C9.49122 6.73678 9.38586 6.48243 9.19832 6.29489C9.01079 6.10735 8.75643 6.002 8.49122 6.002V6.00197ZM20.4517 16.8061C20.4274 16.683 20.3794 16.5657 20.3104 16.461L20.2991 16.4442C20.233 16.348 20.1501 16.2645 20.0544 16.1977C20.0435 16.1898 20.0382 16.1775 20.0269 16.1699C20.0161 16.1627 20.0032 16.1625 19.9923 16.1558C19.8654 16.0853 19.7264 16.0393 19.5825 16.0204C19.5509 16.0174 19.5236 16.0019 19.4912 16.0019H15.4912C15.226 16.0019 14.9716 16.1073 14.7841 16.2948C14.5966 16.4823 14.4912 16.7367 14.4912 17.0019C14.4912 17.2671 14.5966 17.5215 14.7841 17.709C14.9716 17.8966 15.226 18.0019 15.4912 18.0019H17.2736C15.8159 19.2908 13.9371 20.0022 11.9912 20.0019C11.6973 20.0023 11.4035 19.9844 11.1118 19.9482C10.8484 19.9162 10.5831 19.9902 10.3742 20.1538C10.1653 20.3175 10.03 20.5574 9.99805 20.8208C9.96606 21.0842 10.04 21.3495 10.2037 21.5584C10.3673 21.7672 10.6072 21.9025 10.8706 21.9345C11.2425 21.9794 11.6167 22.0019 11.9912 22.0019C14.3774 22.0006 16.6838 21.1431 18.4912 19.5852V21.002C18.4912 21.2672 18.5966 21.5215 18.7841 21.7091C18.9716 21.8966 19.226 22.002 19.4912 22.002C19.7564 22.002 20.0108 21.8966 20.1983 21.7091C20.3859 21.5215 20.4912 21.2672 20.4912 21.002V17.002C20.4849 16.9359 20.4718 16.8706 20.4519 16.8073L20.4517 16.8061ZM20.9912 5.50197C21.2564 5.50197 21.5108 5.39661 21.6983 5.20907C21.8859 5.02154 21.9912 4.76718 21.9912 4.50197C21.9912 4.23675 21.8859 3.9824 21.6983 3.79486C21.5108 3.60732 21.2564 3.50197 20.9912 3.50197H16.9912C16.9261 3.50824 16.8618 3.52121 16.7994 3.54067L16.7927 3.54201C16.6713 3.5663 16.5556 3.61367 16.452 3.68154L16.4324 3.69478C16.3368 3.76075 16.2537 3.84331 16.1871 3.93856C16.1793 3.94936 16.1671 3.95467 16.1597 3.96584C16.1525 3.97658 16.1523 3.98928 16.1456 4.0002C16.0742 4.12779 16.0279 4.26786 16.0092 4.41286C16.0064 4.44375 15.9912 4.47036 15.9912 4.50197V8.50197C15.9912 8.76718 16.0966 9.02154 16.2841 9.20907C16.4716 9.39661 16.726 9.50197 16.9912 9.50197C17.2564 9.50197 17.5108 9.39661 17.6983 9.20907C17.8859 9.02154 17.9912 8.76718 17.9912 8.50197V6.71909C19.2801 8.17706 19.9914 10.0559 19.9912 12.0019C19.9914 12.296 19.9738 12.5898 19.9385 12.8818C19.9068 13.145 19.9808 13.4101 20.1443 13.6188C20.3078 13.8275 20.5474 13.9628 20.8106 13.9951C20.8511 13.9998 20.8918 14.0021 20.9326 14.0019C21.1768 14.0016 21.4124 13.9119 21.595 13.7498C21.7776 13.5878 21.8946 13.3644 21.9238 13.122C21.9691 12.7504 21.9916 12.3763 21.9912 12.002C21.9898 9.61578 21.1322 7.30933 19.5742 5.50197H20.9912Z" />
</svg>
