<svg width="24" height="24" viewBox="0 0 24 24" xmlns="http://www.w3.org/2000/svg">
<path d="M21.0004 11.24C20.9955 11.2136 20.9955 11.1864 21.0004 11.16V10.97C21.0004 10.74 20.9404 10.51 20.9004 10.28C20.8946 10.2268 20.8946 10.1732 20.9004 10.12C20.8504 9.87 20.7803 9.63 20.7104 9.39C20.2828 8.00973 19.5259 6.75416 18.505 5.73154C17.4842 4.70892 16.2299 3.94992 14.8504 3.52H14.7704C14.5504 3.45 14.3204 3.39 14.0904 3.34H13.9104C13.7286 3.30357 13.545 3.27686 13.3604 3.26H13.1204V3C13.1204 2.73478 13.015 2.48043 12.8275 2.29289C12.6399 2.10536 12.3856 2 12.1204 2C11.8551 2 11.6008 2.10536 11.4132 2.29289C11.2257 2.48043 11.1204 2.73478 11.1204 3V3.06C10.7838 3.10047 10.4499 3.16057 10.1204 3.24C9.9103 3.27921 9.70315 3.33266 9.50035 3.4H9.37035C9.12035 3.48 8.89035 3.57 8.65035 3.66C7.41555 4.14891 6.30535 4.90708 5.4006 5.8793C4.49585 6.85151 3.81935 8.01328 3.42035 9.28C3.4169 9.30655 3.4169 9.33345 3.42035 9.36C3.34305 9.5961 3.27961 9.83651 3.23035 10.08V10.24C3.17702 10.48 3.13702 10.73 3.11035 10.99C3.11035 10.99 3.11035 11.06 3.11035 11.1C3.11035 11.14 3.11035 11.16 3.11035 11.19C3.11035 11.22 3.11035 11.19 3.11035 11.24C3.11035 11.49 3.11035 11.74 3.11035 12C3.11035 12.2652 3.21571 12.5196 3.40324 12.7071C3.59078 12.8946 3.84514 13 4.11035 13H11.1104V19C11.1104 19.2652 11.005 19.5196 10.8175 19.7071C10.6299 19.8946 10.3756 20 10.1104 20C9.84514 20 9.59078 19.8946 9.40324 19.7071C9.21571 19.5196 9.11035 19.2652 9.11035 19C9.11035 18.7348 9.005 18.4804 8.81746 18.2929C8.62992 18.1054 8.37557 18 8.11035 18C7.84514 18 7.59078 18.1054 7.40324 18.2929C7.21571 18.4804 7.11035 18.7348 7.11035 19C7.11035 19.7956 7.42642 20.5587 7.98903 21.1213C8.55164 21.6839 9.3147 22 10.1104 22C10.906 22 11.6691 21.6839 12.2317 21.1213C12.7943 20.5587 13.1104 19.7956 13.1104 19V13H20.1104C20.3756 13 20.6299 12.8946 20.8175 12.7071C21.005 12.5196 21.1104 12.2652 21.1104 12C21.0004 11.74 21.0004 11.49 21.0004 11.24ZM8.00035 11H5.08035C5.08035 11 5.08035 10.93 5.08035 10.89C5.08035 10.85 5.08035 10.61 5.16035 10.48C5.24035 10.35 5.16035 10.35 5.16035 10.29C5.16035 10.23 5.24035 9.97 5.29035 9.81V9.73C5.6104 8.82311 6.11388 7.99189 6.7694 7.2882C7.42491 6.58452 8.2184 6.02345 9.10035 5.64C8.43035 7.35076 8.05831 9.16363 8.00035 11ZM10.0004 11C10.1904 7.09 11.4404 5 12.0004 5C12.5604 5 13.7904 7.09 14.0004 11H10.0004ZM16.0004 11C15.9424 9.16363 15.5704 7.35076 14.9004 5.64C15.7704 6.03569 16.5503 6.60538 17.1918 7.31396C17.8333 8.02254 18.3228 8.85499 18.6304 9.76C18.6909 9.93352 18.741 10.1105 18.7804 10.29C18.7758 10.3399 18.7758 10.3901 18.7804 10.44C18.7804 10.58 18.8404 10.73 18.8604 10.87C18.8804 11.01 18.8604 10.94 18.8604 10.98L16.0004 11Z" />
</svg>
