<svg width="24" height="24" viewBox="0 0 24 24" xmlns="http://www.w3.org/2000/svg">
<path d="M21.71 15.5799L17.19 11.0699C17.2846 10.6093 17.3315 10.1401 17.33 9.66988C17.3296 8.38054 17.0042 7.11208 16.3839 5.98177C15.7636 4.85145 14.8683 3.89576 13.7809 3.20303C12.6934 2.51029 11.4489 2.10287 10.1623 2.01842C8.87572 1.93398 7.58862 2.17523 6.41995 2.71988C6.27189 2.78752 6.14258 2.89028 6.04324 3.01924C5.94391 3.1482 5.87756 3.29946 5.84995 3.45988C5.82246 3.61827 5.83355 3.78095 5.88229 3.93414C5.93103 4.08733 6.01599 4.22651 6.12995 4.33988L10.48 8.67988L8.67995 10.4799L4.33995 6.12988C4.22562 6.01769 4.08601 5.9346 3.93287 5.88761C3.77972 5.84062 3.61754 5.83112 3.45995 5.85988C3.30053 5.88648 3.14994 5.95132 3.02106 6.04885C2.89218 6.14638 2.78886 6.27369 2.71995 6.41988C2.17348 7.59239 1.93243 8.88406 2.01924 10.1747C2.10606 11.4654 2.5179 12.7132 3.21647 13.802C3.91503 14.8907 4.87762 15.7851 6.0147 16.4019C7.15177 17.0188 8.42638 17.338 9.71995 17.3299C10.1902 17.3314 10.6593 17.2845 11.12 17.1899L15.63 21.7099C15.7229 21.8036 15.8335 21.878 15.9554 21.9288C16.0772 21.9795 16.2079 22.0057 16.34 22.0057C16.472 22.0057 16.6027 21.9795 16.7245 21.9288C16.8464 21.878 16.957 21.8036 17.05 21.7099C17.1437 21.6169 17.2181 21.5063 17.2688 21.3845C17.3196 21.2626 17.3458 21.1319 17.3458 20.9999C17.3458 20.8679 17.3196 20.7372 17.2688 20.6153C17.2181 20.4934 17.1437 20.3828 17.05 20.2899L12.15 15.3899C12.0275 15.2682 11.8757 15.1804 11.7092 15.1348C11.5427 15.0893 11.3673 15.0876 11.2 15.1299C10.7171 15.2592 10.2198 15.3264 9.71995 15.3299C8.972 15.3365 8.23014 15.195 7.53709 14.9137C6.84405 14.6323 6.21353 14.2166 5.68184 13.6905C5.15016 13.1644 4.72783 12.5383 4.43917 11.8482C4.15052 11.1582 4.00124 10.4179 3.99995 9.66988C3.99866 9.3349 4.02542 9.0004 4.07995 8.66988L7.99995 12.5999C8.09292 12.6936 8.20352 12.768 8.32538 12.8188C8.44724 12.8695 8.57794 12.8957 8.70995 12.8957C8.84197 12.8957 8.97267 12.8695 9.09453 12.8188C9.21639 12.768 9.32699 12.6936 9.41995 12.5999L12.6 9.38988C12.7802 9.20342 12.8809 8.95422 12.8809 8.69488C12.8809 8.43554 12.7802 8.18635 12.6 7.99988L8.70995 4.07988C9.04054 4.0259 9.37499 3.99914 9.70995 3.99988C11.212 4.00253 12.6516 4.60108 13.7128 5.66412C14.774 6.72716 15.37 8.16784 15.37 9.66988C15.3665 10.1697 15.2993 10.6671 15.17 11.1499C15.1276 11.3172 15.1293 11.4926 15.1749 11.6591C15.2204 11.8256 15.3083 11.9774 15.43 12.0999L20.33 16.9999C20.5183 17.1882 20.7737 17.294 21.04 17.294C21.3063 17.294 21.5616 17.1882 21.75 16.9999C21.9383 16.8116 22.044 16.5562 22.044 16.2899C22.044 16.0236 21.9383 15.7682 21.75 15.5799H21.71Z" />
</svg>
