<svg width="24" height="24" viewBox="0 0 24 24" xmlns="http://www.w3.org/2000/svg">
<path d="M2.88029 16.88C2.31849 17.4425 2.00293 18.205 2.00293 19C2.00293 19.795 2.31849 20.5575 2.88029 21.12C3.44279 21.6818 4.20529 21.9974 5.00029 21.9974C5.79529 21.9974 6.55779 21.6818 7.12029 21.12C7.65021 20.5513 7.9387 19.7991 7.92499 19.0219C7.91128 18.2447 7.59643 17.5032 7.04678 16.9535C6.49713 16.4039 5.75558 16.089 4.97838 16.0753C4.20118 16.0616 3.44899 16.3501 2.88029 16.88ZM5.71029 19.71C5.52199 19.8983 5.26659 20.0041 5.00029 20.0041C4.73399 20.0041 4.47859 19.8983 4.29029 19.71C4.10199 19.5217 3.9962 19.2663 3.9962 19C3.9962 18.7337 4.10199 18.4783 4.29029 18.29C4.38325 18.1963 4.49385 18.1219 4.61571 18.0711C4.73757 18.0203 4.86828 17.9942 5.00029 17.9942C5.1323 17.9942 5.26301 18.0203 5.38487 18.0711C5.50673 18.1219 5.61733 18.1963 5.71029 18.29C5.80402 18.383 5.87841 18.4936 5.92918 18.6154C5.97995 18.7373 6.00609 18.868 6.00609 19C6.00609 19.132 5.97995 19.2627 5.92918 19.3846C5.87841 19.5064 5.80402 19.617 5.71029 19.71ZM5.00029 12C4.73507 12 4.48072 12.1054 4.29318 12.2929C4.10565 12.4804 4.00029 12.7348 4.00029 13C4.00029 13.2652 4.10565 13.5196 4.29318 13.7071C4.48072 13.8946 4.73507 14 5.00029 14C6.32637 14 7.59814 14.5268 8.53582 15.4645C9.47351 16.4021 10.0003 17.6739 10.0003 19C10.0003 19.2652 10.1056 19.5196 10.2932 19.7071C10.4807 19.8946 10.7351 20 11.0003 20C11.2655 20 11.5199 19.8946 11.7074 19.7071C11.8949 19.5196 12.0003 19.2652 12.0003 19C12.0003 17.1435 11.2628 15.363 9.95004 14.0503C8.63728 12.7375 6.85681 12 5.00029 12ZM5.00029 8C4.73507 8 4.48072 8.10536 4.29318 8.29289C4.10565 8.48043 4.00029 8.73478 4.00029 9C4.00029 9.26522 4.10565 9.51957 4.29318 9.70711C4.48072 9.89464 4.73507 10 5.00029 10C7.38724 10 9.67642 10.9482 11.3643 12.636C13.0521 14.3239 14.0003 16.6131 14.0003 19C14.0003 19.2652 14.1056 19.5196 14.2932 19.7071C14.4807 19.8946 14.7351 20 15.0003 20C15.2655 20 15.5199 19.8946 15.7074 19.7071C15.8949 19.5196 16.0003 19.2652 16.0003 19C15.9925 16.084 14.8356 13.2886 12.7803 11.22C10.7117 9.16472 7.9163 8.00775 5.00029 8ZM15.6103 8.39C12.7891 5.58754 8.97684 4.01018 5.00029 4C4.73507 4 4.48072 4.10536 4.29318 4.29289C4.10565 4.48043 4.00029 4.73478 4.00029 5C4.00029 5.26522 4.10565 5.51957 4.29318 5.70711C4.48072 5.89464 4.73507 6 5.00029 6C8.4481 6 11.7547 7.36964 14.1927 9.80761C16.6307 12.2456 18.0003 15.5522 18.0003 19C18.0003 19.2652 18.1056 19.5196 18.2932 19.7071C18.4807 19.8946 18.7351 20 19.0003 20C19.2655 20 19.5199 19.8946 19.7074 19.7071C19.8949 19.5196 20.0003 19.2652 20.0003 19C19.9901 15.0235 18.4128 11.2112 15.6103 8.39Z" />
</svg>
