<svg width="24" height="24" viewBox="0 0 24 24" xmlns="http://www.w3.org/2000/svg">
<path d="M11.4444 12.1685C11.6089 12.0586 11.8022 12 12 12C12.2652 12 12.5196 12.1054 12.7071 12.2929C12.8946 12.4804 13 12.7348 13 13C13 13.1978 12.9414 13.3911 12.8315 13.5556C12.7216 13.72 12.5654 13.8482 12.3827 13.9239C12.2 13.9996 11.9989 14.0194 11.8049 13.9808C11.6109 13.9422 11.4327 13.847 11.2929 13.7071C11.153 13.5673 11.0578 13.3891 11.0192 13.1951C10.9806 13.0011 11.0004 12.8 11.0761 12.6173C11.1518 12.4346 11.28 12.2784 11.4444 12.1685Z" />
</svg>
