<svg width="24" height="24" viewBox="0 0 24 24" xmlns="http://www.w3.org/2000/svg">
<path d="M19.0001 3.00006C18.7194 2.68621 18.3758 2.43497 17.9916 2.26268C17.6074 2.09039 17.1912 2.00091 16.7701 2.00006H7.23013C6.80679 1.99749 6.3877 2.08454 6.00041 2.25551C5.61311 2.42647 5.26639 2.67747 4.98303 2.992C4.69967 3.30653 4.48609 3.67747 4.35632 4.08044C4.22656 4.48341 4.18355 4.90928 4.23013 5.33006L5.79013 19.3301C5.87169 20.0672 6.22343 20.748 6.77744 21.2411C7.33146 21.7342 8.04848 22.0046 8.79013 22.0001H15.2101C15.9518 22.0046 16.6688 21.7342 17.2228 21.2411C17.7768 20.748 18.1286 20.0672 18.2101 19.3301L19.7701 5.33006C19.8133 4.90935 19.767 4.48428 19.6343 4.08272C19.5016 3.68117 19.2855 3.31221 19.0001 3.00006ZM16.2001 19.1101C16.1729 19.3558 16.0557 19.5827 15.871 19.7471C15.6863 19.9114 15.4473 20.0016 15.2001 20.0001H8.79013C8.54291 20.0016 8.3039 19.9114 8.11923 19.7471C7.93456 19.5827 7.81732 19.3558 7.79013 19.1101L6.78013 10.0001H17.2201L16.2001 19.1101ZM17.4401 8.00006H6.56013L6.24013 5.11006C6.22438 4.96976 6.23851 4.82772 6.2816 4.69328C6.32469 4.55885 6.39576 4.43506 6.49013 4.33006C6.58362 4.22646 6.69776 4.14358 6.82521 4.08675C6.95265 4.02992 7.09058 4.00039 7.23013 4.00006H16.7701C16.9097 4.00039 17.0476 4.02992 17.175 4.08675C17.3025 4.14358 17.4166 4.22646 17.5101 4.33006C17.6045 4.43506 17.6756 4.55885 17.7186 4.69328C17.7617 4.82772 17.7759 4.96976 17.7601 5.11006L17.4401 8.00006ZM14.0001 18.0001C14.2653 18.0001 14.5197 17.8947 14.7072 17.7072C14.8948 17.5196 15.0001 17.2653 15.0001 17.0001V13.0001C15.0001 12.7348 14.8948 12.4805 14.7072 12.2929C14.5197 12.1054 14.2653 12.0001 14.0001 12.0001C13.7349 12.0001 13.4806 12.1054 13.293 12.2929C13.1055 12.4805 13.0001 12.7348 13.0001 13.0001V17.0001C13.0001 17.2653 13.1055 17.5196 13.293 17.7072C13.4806 17.8947 13.7349 18.0001 14.0001 18.0001ZM10.0001 18.0001C10.2653 18.0001 10.5197 17.8947 10.7072 17.7072C10.8948 17.5196 11.0001 17.2653 11.0001 17.0001V13.0001C11.0001 12.7348 10.8948 12.4805 10.7072 12.2929C10.5197 12.1054 10.2653 12.0001 10.0001 12.0001C9.73491 12.0001 9.48056 12.1054 9.29302 12.2929C9.10548 12.4805 9.00013 12.7348 9.00013 13.0001V17.0001C9.00013 17.2653 9.10548 17.5196 9.29302 17.7072C9.48056 17.8947 9.73491 18.0001 10.0001 18.0001Z" />
</svg>
