<svg width="24" height="24" viewBox="0 0 24 24" xmlns="http://www.w3.org/2000/svg">
<path d="M18 5.99994H14.41L16.71 3.70994C16.8032 3.6167 16.8772 3.50601 16.9277 3.38419C16.9781 3.26237 17.0041 3.1318 17.0041 2.99994C17.0041 2.86808 16.9781 2.73751 16.9277 2.61569C16.8772 2.49387 16.8032 2.38318 16.71 2.28994C16.6168 2.1967 16.5061 2.12274 16.3842 2.07228C16.2624 2.02182 16.1319 1.99585 16 1.99585C15.7337 1.99585 15.4783 2.10164 15.29 2.28994L12 5.53994L10.83 3.53994C10.7643 3.42569 10.6768 3.32549 10.5724 3.24507C10.468 3.16464 10.3488 3.10556 10.2216 3.07121C10.0944 3.03685 9.96168 3.02788 9.83099 3.04482C9.70031 3.06177 9.57425 3.10428 9.46 3.16994C9.34575 3.2356 9.24555 3.32312 9.16513 3.42751C9.0847 3.53189 9.02562 3.6511 8.99126 3.77831C8.95691 3.90553 8.94794 4.03827 8.96488 4.16895C8.98182 4.29963 9.02434 4.42569 9.09 4.53994L10 5.99994H6C5.20435 5.99994 4.44129 6.31601 3.87868 6.87862C3.31607 7.44123 3 8.20429 3 8.99994V16.9999C3 17.7956 3.31607 18.5587 3.87868 19.1213C4.44129 19.6839 5.20435 19.9999 6 19.9999V20.9999C6 21.2652 6.10536 21.5195 6.29289 21.707C6.48043 21.8946 6.73478 21.9999 7 21.9999C7.26522 21.9999 7.51957 21.8946 7.70711 21.707C7.89464 21.5195 8 21.2652 8 20.9999V19.9999H16V20.9999C16 21.2652 16.1054 21.5195 16.2929 21.707C16.4804 21.8946 16.7348 21.9999 17 21.9999C17.2652 21.9999 17.5196 21.8946 17.7071 21.707C17.8946 21.5195 18 21.2652 18 20.9999V19.9999C18.7956 19.9999 19.5587 19.6839 20.1213 19.1213C20.6839 18.5587 21 17.7956 21 16.9999V8.99994C21 8.20429 20.6839 7.44123 20.1213 6.87862C19.5587 6.31601 18.7956 5.99994 18 5.99994ZM19 16.9999C19 17.2652 18.8946 17.5195 18.7071 17.707C18.5196 17.8946 18.2652 17.9999 18 17.9999H6C5.73478 17.9999 5.48043 17.8946 5.29289 17.707C5.10536 17.5195 5 17.2652 5 16.9999V8.99994C5 8.73472 5.10536 8.48037 5.29289 8.29283C5.48043 8.1053 5.73478 7.99994 6 7.99994H18C18.2652 7.99994 18.5196 8.1053 18.7071 8.29283C18.8946 8.48037 19 8.73472 19 8.99994V16.9999Z" />
</svg>
