<svg width="24" height="24" viewBox="0 0 24 24" xmlns="http://www.w3.org/2000/svg">
<path d="M9.88032 14.1201L9.73032 14.0001L9.55032 13.9001L9.37032 13.8501C9.20967 13.8179 9.04357 13.8257 8.88664 13.8728C8.7297 13.9199 8.58674 14.0048 8.47032 14.1201C8.3714 14.2107 8.29591 14.3239 8.25032 14.4501C8.19742 14.5698 8.17009 14.6992 8.17009 14.8301C8.17009 14.961 8.19742 15.0904 8.25032 15.2101C8.35778 15.4504 8.55003 15.6426 8.79032 15.7501C8.91055 15.8013 9.03965 15.8285 9.17032 15.8301C9.30413 15.8276 9.43634 15.8005 9.56032 15.7501C9.6822 15.7018 9.7916 15.6266 9.88032 15.5301C9.97386 15.4388 10.0486 15.3301 10.1003 15.2101C10.1481 15.0892 10.1719 14.9601 10.1703 14.8301C10.1737 14.6989 10.1463 14.5688 10.0903 14.4501C10.0445 14.3264 9.97293 14.2139 9.88032 14.1201ZM3.51032 8.76008C3.64263 8.75953 3.77351 8.73273 3.89539 8.68124C4.01726 8.62974 4.12771 8.55457 4.22032 8.46008L8.46032 4.22008C8.64658 4.03272 8.75112 3.77927 8.75112 3.51508C8.75112 3.25089 8.64658 2.99744 8.46032 2.81008C8.27296 2.62383 8.01951 2.51929 7.75532 2.51929C7.49114 2.51929 7.23769 2.62383 7.05032 2.81008L2.81032 7.05008C2.62407 7.23744 2.51953 7.49089 2.51953 7.75508C2.51953 8.01927 2.62407 8.27272 2.81032 8.46008C2.99495 8.64849 3.24655 8.75632 3.51032 8.76008ZM21.1903 15.5401C21.003 15.3538 20.7495 15.2493 20.4853 15.2493C20.2211 15.2493 19.9677 15.3538 19.7803 15.5401L15.5403 19.7801C15.3999 19.9194 15.3039 20.0971 15.2645 20.2909C15.2252 20.4848 15.2441 20.6859 15.3191 20.8689C15.394 21.052 15.5215 21.2087 15.6855 21.3192C15.8495 21.4298 16.0426 21.4893 16.2403 21.4901C16.3726 21.4895 16.5035 21.4627 16.6254 21.4112C16.7473 21.3597 16.8577 21.2846 16.9503 21.1901L21.1903 17.0001C21.2902 16.9065 21.3699 16.7935 21.4243 16.6679C21.4788 16.5424 21.5069 16.4069 21.5069 16.2701C21.5069 16.1332 21.4788 15.9978 21.4243 15.8722C21.3699 15.7467 21.2902 15.6336 21.1903 15.5401ZM21.3603 9.88008C21.3623 9.08613 21.0494 8.32378 20.4903 7.76008L16.2403 3.51008C15.668 2.96707 14.9092 2.66436 14.1203 2.66436C13.3314 2.66436 12.5726 2.96707 12.0003 3.51008L3.51032 12.0001C2.94852 12.5626 2.63296 13.3251 2.63296 14.1201C2.63296 14.9151 2.94852 15.6776 3.51032 16.2401L7.76032 20.4901C8.32283 21.0519 9.08532 21.3674 9.88032 21.3674C10.6753 21.3674 11.4378 21.0519 12.0003 20.4901L20.4903 12.0001C21.0494 11.4364 21.3623 10.674 21.3603 9.88008ZM19.0703 10.5901L10.5903 19.0701C10.4974 19.1638 10.3868 19.2382 10.2649 19.289C10.143 19.3397 10.0123 19.3659 9.88032 19.3659C9.74831 19.3659 9.61761 19.3397 9.49575 19.289C9.37389 19.2382 9.26329 19.1638 9.17032 19.0701L4.93032 14.8301C4.8366 14.7371 4.7622 14.6265 4.71143 14.5047C4.66066 14.3828 4.63453 14.2521 4.63453 14.1201C4.63453 13.9881 4.66066 13.8574 4.71143 13.7355C4.7622 13.6136 4.8366 13.503 4.93032 13.4101L13.4103 4.93008C13.5033 4.83635 13.6139 4.76196 13.7357 4.71119C13.8576 4.66042 13.9883 4.63428 14.1203 4.63428C14.2523 4.63428 14.383 4.66042 14.5049 4.71119C14.6268 4.76196 14.7374 4.83635 14.8303 4.93008L19.0703 9.17008C19.1641 9.26304 19.2384 9.37364 19.2892 9.4955C19.34 9.61736 19.3661 9.74807 19.3661 9.88008C19.3661 10.0121 19.34 10.1428 19.2892 10.2647C19.2384 10.3865 19.1641 10.4971 19.0703 10.5901Z" />
</svg>
