<svg width="24" height="24" viewBox="0 0 24 24" xmlns="http://www.w3.org/2000/svg">
<path d="M7.71019 6.28994L3.71019 2.28994C3.61695 2.1967 3.50626 2.12274 3.38443 2.07228C3.26261 2.02182 3.13204 1.99585 3.00019 1.99585C2.86833 1.99585 2.73776 2.02182 2.61594 2.07228C2.49411 2.12274 2.38342 2.1967 2.29019 2.28994C2.10188 2.47824 1.99609 2.73364 1.99609 2.99994C1.99609 3.26624 2.10188 3.52164 2.29019 3.70994L4.62019 5.99994C3.89208 6.09289 3.22332 6.44955 2.74049 7.00241C2.25766 7.55527 1.99428 8.26595 2.00019 8.99994V14.9999C2.00019 15.7956 2.31626 16.5587 2.87887 17.1213C3.44147 17.6839 4.20454 17.9999 5.00019 17.9999H14.0002C14.6943 17.9967 15.3657 17.7528 15.9002 17.3099L20.2902 21.7099C20.3831 21.8037 20.4937 21.8781 20.6156 21.9288C20.7375 21.9796 20.8682 22.0057 21.0002 22.0057C21.1322 22.0057 21.2629 21.9796 21.3848 21.9288C21.5066 21.8781 21.6172 21.8037 21.7102 21.7099C21.8039 21.617 21.8783 21.5064 21.9291 21.3845C21.9798 21.2627 22.006 21.132 22.006 20.9999C22.006 20.8679 21.9798 20.7372 21.9291 20.6154C21.8783 20.4935 21.8039 20.3829 21.7102 20.2899L7.71019 6.28994ZM14.0002 15.9999H5.00019C4.73497 15.9999 4.48062 15.8946 4.29308 15.707C4.10554 15.5195 4.00019 15.2652 4.00019 14.9999V8.99994C4.00019 8.73472 4.10554 8.48037 4.29308 8.29283C4.48062 8.1053 4.73497 7.99994 5.00019 7.99994H6.59019L14.4602 15.8799C14.3187 15.9563 14.1609 15.9975 14.0002 15.9999ZM21.5302 7.14994C21.3782 7.06217 21.2057 7.01597 21.0302 7.01597C20.8546 7.01597 20.6822 7.06217 20.5302 7.14994L17.0002 8.88994C16.9717 8.11351 16.6431 7.37841 16.0835 6.83938C15.524 6.30035 14.7771 5.99942 14.0002 5.99994H12.6602C12.395 5.99994 12.1406 6.1053 11.9531 6.29283C11.7655 6.48037 11.6602 6.73472 11.6602 6.99994C11.6602 7.26516 11.7655 7.51951 11.9531 7.70705C12.1406 7.89458 12.395 7.99994 12.6602 7.99994H14.0002C14.2654 7.99994 14.5198 8.1053 14.7073 8.29283C14.8948 8.48037 15.0002 8.73472 15.0002 8.99994V10.4999C14.9965 10.5632 14.9965 10.6267 15.0002 10.6899C15.0061 10.7588 15.023 10.8264 15.0502 10.8899C15.0502 10.8899 15.1002 10.9499 15.1202 10.9899C15.1609 11.0661 15.2113 11.1367 15.2702 11.1999C15.2702 11.1999 15.3702 11.2599 15.4202 11.2999L15.5902 11.4099C15.6665 11.4204 15.7439 11.4204 15.8202 11.4099C15.8667 11.4146 15.9136 11.4146 15.9602 11.4099C16.0235 11.4137 16.0869 11.4137 16.1502 11.4099C16.2191 11.404 16.2866 11.3871 16.3502 11.3599L20.0002 9.61994V15.3399C20.0002 15.6052 20.1055 15.8595 20.2931 16.047C20.4806 16.2346 20.735 16.3399 21.0002 16.3399C21.2654 16.3399 21.5198 16.2346 21.7073 16.047C21.8948 15.8595 22.0002 15.6052 22.0002 15.3399V7.99994C22.0005 7.83 21.9576 7.66277 21.8753 7.51405C21.7931 7.36532 21.6743 7.24001 21.5302 7.14994Z" />
</svg>
