<svg width="24" height="24" viewBox="0 0 24 24" xmlns="http://www.w3.org/2000/svg">
<path d="M18 8C16.9391 8 15.9217 8.42143 15.1716 9.17157C14.4214 9.92172 14 10.9391 14 12C14.003 12.705 14.1965 13.396 14.56 14H9.44C9.80355 13.396 9.99705 12.705 10 12C10 11.2089 9.76541 10.4355 9.32588 9.77772C8.88635 9.11993 8.26164 8.60723 7.53074 8.30448C6.79983 8.00173 5.99556 7.92252 5.21964 8.07686C4.44372 8.2312 3.73098 8.61216 3.17157 9.17157C2.61216 9.73098 2.2312 10.4437 2.07686 11.2196C1.92252 11.9956 2.00173 12.7998 2.30448 13.5307C2.60723 14.2616 3.11992 14.8864 3.77772 15.3259C4.43552 15.7654 5.20888 16 6 16H18C19.0609 16 20.0783 15.5786 20.8284 14.8284C21.5786 14.0783 22 13.0609 22 12C22 10.9391 21.5786 9.92172 20.8284 9.17157C20.0783 8.42143 19.0609 8 18 8ZM6 14C5.60444 14 5.21776 13.8827 4.88886 13.6629C4.55996 13.4432 4.30362 13.1308 4.15224 12.7654C4.00087 12.3999 3.96126 11.9978 4.03843 11.6098C4.1156 11.2219 4.30608 10.8655 4.58579 10.5858C4.86549 10.3061 5.22186 10.1156 5.60982 10.0384C5.99778 9.96126 6.39992 10.0009 6.76537 10.1522C7.13082 10.3036 7.44318 10.56 7.66294 10.8889C7.8827 11.2178 8 11.6044 8 12C8 12.5304 7.78929 13.0391 7.41422 13.4142C7.03914 13.7893 6.53044 14 6 14ZM18 14C17.6044 14 17.2178 13.8827 16.8889 13.6629C16.56 13.4432 16.3036 13.1308 16.1522 12.7654C16.0009 12.3999 15.9613 11.9978 16.0384 11.6098C16.1156 11.2219 16.3061 10.8655 16.5858 10.5858C16.8655 10.3061 17.2219 10.1156 17.6098 10.0384C17.9978 9.96126 18.3999 10.0009 18.7654 10.1522C19.1308 10.3036 19.4432 10.56 19.6629 10.8889C19.8827 11.2178 20 11.6044 20 12C20 12.5304 19.7893 13.0391 19.4142 13.4142C19.0391 13.7893 18.5304 14 18 14Z" />
</svg>
