<svg width="24" height="24" viewBox="0 0 24 24" xmlns="http://www.w3.org/2000/svg">
<path d="M20 4H4C3.20435 4 2.44129 4.31607 1.87868 4.87868C1.31607 5.44129 1 6.20435 1 7V17C1 17.7956 1.31607 18.5587 1.87868 19.1213C2.44129 19.6839 3.20435 20 4 20H20C20.7956 20 21.5587 19.6839 22.1213 19.1213C22.6839 18.5587 23 17.7956 23 17V7C23 6.20435 22.6839 5.44129 22.1213 4.87868C21.5587 4.31607 20.7956 4 20 4ZM21 17C21 17.2652 20.8946 17.5196 20.7071 17.7071C20.5196 17.8946 20.2652 18 20 18H4C3.73478 18 3.48043 17.8946 3.29289 17.7071C3.10536 17.5196 3 17.2652 3 17V7C3 6.73478 3.10536 6.48043 3.29289 6.29289C3.48043 6.10536 3.73478 6 4 6H20C20.2652 6 20.5196 6.10536 20.7071 6.29289C20.8946 6.48043 21 6.73478 21 7V17ZM16 9C15.5208 9.00135 15.0488 9.11748 14.6237 9.33868C14.1986 9.55988 13.8326 9.8797 13.5565 10.2714C13.2804 10.6631 13.1021 11.1152 13.0366 11.5899C12.9711 12.0647 13.0203 12.5482 13.18 13H10.82C11.0324 12.3993 11.048 11.7465 10.8645 11.1363C10.6811 10.5261 10.3081 9.99012 9.79965 9.60609C9.29119 9.22206 8.67366 9.0099 8.03654 9.00035C7.39943 8.9908 6.77582 9.18435 6.25607 9.55296C5.73633 9.92157 5.34745 10.4461 5.14578 11.0505C4.94412 11.655 4.94014 12.3079 5.13443 12.9148C5.32872 13.5216 5.71118 14.0508 6.22639 14.4257C6.74161 14.8007 7.36281 15.0018 8 15H16C16.7956 15 17.5587 14.6839 18.1213 14.1213C18.6839 13.5587 19 12.7956 19 12C19 11.2044 18.6839 10.4413 18.1213 9.87868C17.5587 9.31607 16.7956 9 16 9ZM8 13C7.80222 13 7.60888 12.9414 7.44443 12.8315C7.27998 12.7216 7.15181 12.5654 7.07612 12.3827C7.00043 12.2 6.98063 11.9989 7.01921 11.8049C7.0578 11.6109 7.15304 11.4327 7.29289 11.2929C7.43275 11.153 7.61093 11.0578 7.80491 11.0192C7.99889 10.9806 8.19996 11.0004 8.38268 11.0761C8.56541 11.1518 8.72159 11.28 8.83147 11.4444C8.94135 11.6089 9 11.8022 9 12C9 12.2652 8.89464 12.5196 8.70711 12.7071C8.51957 12.8946 8.26522 13 8 13ZM16 13C15.8022 13 15.6089 12.9414 15.4444 12.8315C15.28 12.7216 15.1518 12.5654 15.0761 12.3827C15.0004 12.2 14.9806 11.9989 15.0192 11.8049C15.0578 11.6109 15.153 11.4327 15.2929 11.2929C15.4327 11.153 15.6109 11.0578 15.8049 11.0192C15.9989 10.9806 16.2 11.0004 16.3827 11.0761C16.5654 11.1518 16.7216 11.28 16.8315 11.4444C16.9414 11.6089 17 11.8022 17 12C17 12.2652 16.8946 12.5196 16.7071 12.7071C16.5196 12.8946 16.2652 13 16 13Z" />
</svg>
