<svg width="24" height="24" viewBox="0 0 24 24" xmlns="http://www.w3.org/2000/svg">
<path d="M12.56 2.17004C12.3946 2.05827 12.1996 1.99854 12 1.99854C11.8004 1.99854 11.6054 2.05827 11.44 2.17004C11.14 2.37004 4.25 7.17004 4.25 14.25C4.25 16.3055 5.06652 18.2767 6.51992 19.7301C7.97333 21.1835 9.94457 22 12 22C14.0554 22 16.0267 21.1835 17.4801 19.7301C18.9335 18.2767 19.75 16.3055 19.75 14.25C19.75 7.05004 12.85 2.36004 12.56 2.17004ZM12 20C10.4758 19.9974 9.01482 19.3907 7.93706 18.313C6.85929 17.2352 6.25264 15.7742 6.25 14.25C6.25 9.25004 10.46 5.48004 12 4.25004C13.55 5.46004 17.75 9.25004 17.75 14.25C17.7474 15.7742 17.1407 17.2352 16.0629 18.313C14.9852 19.3907 13.5242 19.9974 12 20Z" />
</svg>
