<svg width="24" height="24" viewBox="0 0 24 24" xmlns="http://www.w3.org/2000/svg">
<path d="M6.92017 5.50994L3.71017 2.28994C3.61693 2.1967 3.50624 2.12274 3.38442 2.07228C3.26259 2.02182 3.13203 1.99585 3.00017 1.99585C2.86831 1.99585 2.73774 2.02182 2.61592 2.07228C2.4941 2.12274 2.38341 2.1967 2.29017 2.28994C2.10186 2.47824 1.99608 2.73364 1.99608 2.99994C1.99608 3.26624 2.10186 3.52164 2.29017 3.70994L4.56017 5.99994C3.40713 6.65542 2.34479 7.45891 1.40017 8.38994C1.21392 8.5773 1.10938 8.83076 1.10938 9.09494C1.10938 9.35913 1.21392 9.61258 1.40017 9.79994C1.49278 9.89443 1.60323 9.9696 1.7251 10.0211C1.84698 10.0726 1.97786 10.0994 2.11017 10.0999C2.37251 10.0988 2.62391 9.99469 2.81017 9.80994C3.76311 8.86491 4.85592 8.07228 6.05017 7.45994L7.54017 8.99994C6.3009 9.54164 5.17464 10.3117 4.22017 11.2699C4.11617 11.3603 4.03199 11.4713 3.97289 11.5957C3.91379 11.7202 3.88105 11.8556 3.87673 11.9933C3.87241 12.131 3.8966 12.2682 3.94779 12.3961C3.99897 12.524 4.07604 12.64 4.17417 12.7367C4.27229 12.8335 4.38935 12.9089 4.518 12.9583C4.64665 13.0076 4.78411 13.0299 4.92176 13.0236C5.05941 13.0173 5.19428 12.9827 5.31791 12.9218C5.44153 12.861 5.55125 12.7752 5.64017 12.6699C6.60974 11.7047 7.79101 10.9788 9.09017 10.5499L10.7102 12.1599C9.32384 12.4267 8.04911 13.1024 7.05017 14.0999C6.94618 14.1903 6.86199 14.3013 6.80289 14.4257C6.74379 14.5502 6.71105 14.6856 6.70673 14.8233C6.70241 14.961 6.7266 15.0982 6.77779 15.2261C6.82897 15.354 6.90604 15.47 7.00417 15.5667C7.10229 15.6635 7.21935 15.7389 7.348 15.7883C7.47665 15.8376 7.61411 15.8599 7.75176 15.8536C7.88941 15.8473 8.02428 15.8127 8.14791 15.7518C8.27153 15.691 8.38125 15.6052 8.47017 15.4999C8.93088 15.0299 9.47986 14.6554 10.0856 14.398C10.6914 14.1406 11.342 14.0053 12.0002 13.9999C12.2111 14.0005 12.4218 14.0172 12.6302 14.0499L20.2902 21.7099C20.3831 21.8037 20.4937 21.8781 20.6156 21.9288C20.7374 21.9796 20.8682 22.0057 21.0002 22.0057C21.1322 22.0057 21.2629 21.9796 21.3847 21.9288C21.5066 21.8781 21.6172 21.8037 21.7102 21.7099C21.8039 21.617 21.8783 21.5064 21.9291 21.3845C21.9798 21.2627 22.006 21.132 22.006 20.9999C22.006 20.8679 21.9798 20.7372 21.9291 20.6154C21.8783 20.4935 21.8039 20.3829 21.7102 20.2899L6.92017 5.50994ZM12.0002 15.9999C11.4068 15.9999 10.8268 16.1759 10.3335 16.5055C9.84011 16.8352 9.45559 17.3037 9.22853 17.8519C9.00147 18.4001 8.94206 19.0033 9.05781 19.5852C9.17357 20.1672 9.45929 20.7017 9.87885 21.1213C10.2984 21.5408 10.833 21.8265 11.4149 21.9423C11.9968 22.0581 12.6 21.9986 13.1482 21.7716C13.6964 21.5445 14.1649 21.16 14.4946 20.6667C14.8242 20.1733 15.0002 19.5933 15.0002 18.9999C15.0002 18.2043 14.6841 17.4412 14.1215 16.8786C13.5589 16.316 12.7958 15.9999 12.0002 15.9999ZM12.0002 19.9999C11.8024 19.9999 11.609 19.9413 11.4446 19.8314C11.2801 19.7215 11.152 19.5653 11.0763 19.3826C11.0006 19.1999 10.9808 18.9988 11.0194 18.8048C11.058 18.6109 11.1532 18.4327 11.2931 18.2928C11.4329 18.153 11.6111 18.0577 11.8051 18.0192C11.9991 17.9806 12.2001 18.0004 12.3829 18.0761C12.5656 18.1517 12.7218 18.2799 12.8316 18.4444C12.9415 18.6088 13.0002 18.8022 13.0002 18.9999C13.0002 19.2652 12.8948 19.5195 12.7073 19.707C12.5197 19.8946 12.2654 19.9999 12.0002 19.9999ZM22.6102 8.38994C21.0122 6.79336 19.0742 5.57831 16.941 4.83548C14.8077 4.09264 12.5342 3.84121 10.2902 4.09994C10.1588 4.11439 10.0317 4.15456 9.91586 4.21816C9.80006 4.28176 9.69792 4.36754 9.61528 4.47062C9.44837 4.67878 9.37099 4.94472 9.40017 5.20994C9.42934 5.47516 9.56268 5.71792 9.77084 5.88483C9.97901 6.05174 10.245 6.12912 10.5102 6.09994C12.4561 5.87785 14.4271 6.09595 16.2775 6.73811C18.1278 7.38028 19.8102 8.43009 21.2002 9.80994C21.3885 9.99692 21.6433 10.1014 21.9087 10.1005C22.1741 10.0996 22.4282 9.99325 22.6152 9.80494C22.8021 9.61664 22.9067 9.36177 22.9057 9.09641C22.9048 8.83104 22.7985 8.57692 22.6102 8.38994ZM18.3602 12.6299C18.5503 12.7952 18.7958 12.8826 19.0476 12.8748C19.2994 12.8669 19.5389 12.7642 19.7183 12.5873C19.8977 12.4105 20.0037 12.1724 20.0152 11.9208C20.0267 11.6691 19.9427 11.4224 19.7802 11.2299C18.4444 9.87873 16.7744 8.9057 14.9402 8.40994C14.8095 8.35947 14.6697 8.33701 14.5298 8.34403C14.3898 8.35105 14.253 8.38739 14.128 8.45069C14.003 8.51399 13.8927 8.60284 13.8043 8.71148C13.7159 8.82013 13.6513 8.94614 13.6146 9.08136C13.578 9.21657 13.5702 9.35798 13.5917 9.4964C13.6133 9.63483 13.6636 9.76719 13.7396 9.8849C13.8155 10.0026 13.9153 10.1031 14.0326 10.1797C14.1498 10.2564 14.2819 10.3076 14.4202 10.3299C15.9103 10.743 17.2678 11.5354 18.3602 12.6299Z" />
</svg>
