<svg width="24" height="24" viewBox="0 0 24 24" xmlns="http://www.w3.org/2000/svg">
<path d="M11.9998 15C11.4065 15 10.8264 15.1759 10.3331 15.5056C9.83974 15.8352 9.45522 16.3037 9.22816 16.8519C9.00109 17.4001 8.94168 18.0033 9.05744 18.5852C9.17319 19.1672 9.45892 19.7017 9.87847 20.1213C10.298 20.5408 10.8326 20.8266 11.4145 20.9423C11.9965 21.0581 12.5997 20.9987 13.1478 20.7716C13.696 20.5445 14.1646 20.16 14.4942 19.6667C14.8238 19.1733 14.9998 18.5933 14.9998 18C14.9998 17.2043 14.6837 16.4412 14.1211 15.8786C13.5585 15.316 12.7954 15 11.9998 15ZM11.9998 19C11.802 19 11.6087 18.9413 11.4442 18.8314C11.2798 18.7216 11.1516 18.5654 11.0759 18.3826C11.0002 18.1999 10.9804 17.9989 11.019 17.8049C11.0576 17.6109 11.1528 17.4327 11.2927 17.2929C11.4325 17.153 11.6107 17.0578 11.8047 17.0192C11.9987 16.9806 12.1998 17.0004 12.3825 17.0761C12.5652 17.1518 12.7214 17.2799 12.8313 17.4444C12.9411 17.6088 12.9998 17.8022 12.9998 18C12.9998 18.2652 12.8944 18.5195 12.7069 18.7071C12.5194 18.8946 12.265 19 11.9998 19ZM11.9998 11C10.1445 11.0064 8.36635 11.7428 7.0498 13.05C6.86354 13.2373 6.759 13.4908 6.759 13.755C6.759 14.0191 6.86354 14.2726 7.0498 14.46C7.23716 14.6462 7.49061 14.7508 7.7548 14.7508C8.01898 14.7508 8.27243 14.6462 8.45979 14.46C8.92425 13.9943 9.47601 13.6249 10.0835 13.3728C10.6909 13.1208 11.3421 12.991 11.9998 12.991C12.6575 12.991 13.3087 13.1208 13.9161 13.3728C14.5236 13.6249 15.0753 13.9943 15.5398 14.46C15.7244 14.6484 15.976 14.7562 16.2398 14.76C16.4427 14.7716 16.6443 14.7212 16.8178 14.6154C16.9914 14.5096 17.1285 14.3535 17.2111 14.1678C17.2936 13.982 17.3176 13.7756 17.2799 13.5759C17.2421 13.3762 17.1444 13.1927 16.9998 13.05C16.3418 12.3967 15.5616 11.8794 14.7037 11.5276C13.8458 11.1759 12.927 10.9966 11.9998 11ZM11.9998 6.99996C9.08378 7.00771 6.28837 8.16468 4.21979 10.22C4.12656 10.3132 4.0526 10.4239 4.00214 10.5457C3.95167 10.6675 3.9257 10.7981 3.9257 10.93C3.9257 11.1963 4.03149 11.4517 4.21979 11.64C4.4081 11.8283 4.66349 11.9341 4.92979 11.9341C5.1961 11.9341 5.45149 11.8283 5.63979 11.64C7.3273 9.95456 9.61479 9.00788 11.9998 9.00788C14.3848 9.00788 16.6723 9.95456 18.3598 11.64C18.4532 11.7326 18.5641 11.806 18.6859 11.8557C18.8077 11.9055 18.9382 11.9307 19.0698 11.93C19.2014 11.9307 19.3319 11.9055 19.4537 11.8557C19.5755 11.806 19.6864 11.7326 19.7798 11.64C19.8735 11.547 19.9479 11.4364 19.9987 11.3145C20.0495 11.1927 20.0756 11.062 20.0756 10.93C20.0756 10.798 20.0495 10.6672 19.9987 10.5454C19.9479 10.4235 19.8735 10.3129 19.7798 10.22C17.7112 8.16468 14.9158 7.00771 11.9998 6.99996ZM22.6098 7.38996C21.2168 5.99606 19.5628 4.89031 17.7423 4.13589C15.9218 3.38147 13.9704 2.99316 11.9998 2.99316C10.0292 2.99316 8.07783 3.38147 6.25732 4.13589C4.43681 4.89031 2.7828 5.99606 1.38979 7.38996C1.20149 7.57827 1.0957 7.83366 1.0957 8.09996C1.0957 8.36626 1.20149 8.62166 1.38979 8.80996C1.5781 8.99827 1.83349 9.10405 2.09979 9.10405C2.3661 9.10405 2.62149 8.99827 2.80979 8.80996C5.24757 6.37345 8.55315 5.00474 11.9998 5.00474C15.4464 5.00474 18.752 6.37345 21.1898 8.80996C21.2828 8.90369 21.3934 8.97808 21.5152 9.02885C21.6371 9.07962 21.7678 9.10576 21.8998 9.10576C22.0318 9.10576 22.1625 9.07962 22.2844 9.02885C22.4062 8.97808 22.5168 8.90369 22.6098 8.80996C22.7035 8.717 22.7779 8.6064 22.8287 8.48454C22.8795 8.36268 22.9056 8.23197 22.9056 8.09996C22.9056 7.96795 22.8795 7.83724 22.8287 7.71539C22.7779 7.59353 22.7035 7.48292 22.6098 7.38996Z" />
</svg>
