<svg width="24" height="24" viewBox="0 0 24 24" xmlns="http://www.w3.org/2000/svg">
<path d="M11.9999 15.5C11.8021 15.5 11.6087 15.5587 11.4443 15.6685C11.2798 15.7784 11.1517 15.9346 11.076 16.1173C11.0003 16.3 10.9805 16.5011 11.0191 16.6951C11.0577 16.8891 11.1529 17.0673 11.2928 17.2071C11.4326 17.347 11.6108 17.4422 11.8048 17.4808C11.9987 17.5194 12.1998 17.4996 12.3825 17.4239C12.5653 17.3482 12.7214 17.22 12.8313 17.0556C12.9412 16.8911 12.9999 16.6978 12.9999 16.5C12.9999 16.2348 12.8945 15.9804 12.707 15.7929C12.5194 15.6054 12.2651 15.5 11.9999 15.5ZM11.9999 2C11.8123 2 11.6248 2.00951 11.4382 2.0285C8.83934 2.17313 6.39944 3.32602 4.63754 5.24194C2.87564 7.15786 1.93078 9.6856 2.00395 12.2875C2.07712 14.8893 3.16255 17.36 5.02935 19.1738C6.89614 20.9877 9.39697 22.0017 11.9999 22C12.1874 22 12.3749 21.9905 12.5615 21.9715C15.1604 21.8269 17.6003 20.674 19.3622 18.7581C21.1241 16.8421 22.0689 14.3144 21.9958 11.7125C21.9226 9.11068 20.8372 6.64003 18.9704 4.82616C17.1036 3.01229 14.6027 1.99834 11.9999 2ZM11.9999 20C10.3757 20.0023 8.78938 19.5094 7.45244 18.5872C6.11549 17.6649 5.09141 16.357 4.5167 14.8379C3.94199 13.3188 3.84396 11.6606 4.23568 10.0844C4.62739 8.50815 5.49024 7.08874 6.70921 6.01538C6.47667 6.8326 6.43721 7.69268 6.59394 8.52776C6.75066 9.36284 7.09929 10.1501 7.61232 10.8274C8.12535 11.5047 8.78874 12.0535 9.55016 12.4305C10.3116 12.8076 11.1502 13.0025 11.9999 13C12.9281 13 13.8184 13.3688 14.4747 14.0251C15.1311 14.6815 15.4999 15.5717 15.4999 16.5C15.4999 17.4283 15.1311 18.3185 14.4747 18.9749C13.8184 19.6313 12.9281 20 11.9999 20ZM17.2905 17.9846C17.523 17.1674 17.5625 16.3073 17.4058 15.4722C17.2491 14.6372 16.9004 13.8499 16.3874 13.1726C15.8744 12.4953 15.211 11.9465 14.4496 11.5695C13.6881 11.1924 12.8495 10.9975 11.9999 11C11.0716 11 10.1814 10.6313 9.52499 9.97488C8.86861 9.3185 8.49986 8.42826 8.49986 7.5C8.49986 6.57174 8.86861 5.68151 9.52499 5.02513C10.1814 4.36875 11.0716 4 11.9999 4C13.624 3.99774 15.2103 4.49059 16.5473 5.41285C17.8842 6.3351 18.9083 7.64296 19.483 9.16207C20.0577 10.6812 20.1558 12.3394 19.764 13.9156C19.3723 15.4919 18.5095 16.9113 17.2905 17.9846ZM11.9999 6.5C11.8021 6.5 11.6087 6.55865 11.4443 6.66853C11.2798 6.77841 11.1517 6.93459 11.076 7.11732C11.0003 7.30004 10.9805 7.50111 11.0191 7.69509C11.0577 7.88907 11.1529 8.06726 11.2928 8.20711C11.4326 8.34696 11.6108 8.4422 11.8048 8.48079C11.9987 8.51937 12.1998 8.49957 12.3825 8.42388C12.5653 8.34819 12.7214 8.22002 12.8313 8.05557C12.9412 7.89112 12.9999 7.69778 12.9999 7.5C12.9999 7.23479 12.8945 6.98043 12.707 6.7929C12.5194 6.60536 12.2651 6.5 11.9999 6.5Z" />
</svg>
