<svg width="24" height="24" viewBox="0 0 24 24" xmlns="http://www.w3.org/2000/svg">
<path d="M7.75827 10.7578C8.35162 10.7578 8.93164 10.5819 9.42498 10.2522C9.91833 9.92258 10.3028 9.45404 10.5299 8.90586C10.757 8.35768 10.8164 7.75448 10.7006 7.17254C10.5849 6.5906 10.2992 6.05605 9.87959 5.63649C9.46004 5.21693 8.92549 4.93121 8.34354 4.81545C7.7616 4.6997 7.1584 4.75911 6.61022 4.98617C6.06204 5.21323 5.59351 5.59775 5.26386 6.0911C4.93422 6.58445 4.75827 7.16447 4.75827 7.75781C4.75914 8.55319 5.07549 9.31575 5.63791 9.87817C6.20033 10.4406 6.96289 10.7569 7.75827 10.7578ZM7.75827 6.75781C7.95605 6.75781 8.14939 6.81646 8.31384 6.92634C8.47829 7.03622 8.60646 7.1924 8.68215 7.37513C8.75784 7.55785 8.77764 7.75892 8.73906 7.9529C8.70047 8.14688 8.60523 8.32507 8.46538 8.46492C8.32553 8.60477 8.14734 8.70001 7.95336 8.7386C7.75938 8.77718 7.55832 8.75738 7.37559 8.68169C7.19286 8.606 7.03668 8.47783 6.9268 8.31338C6.81692 8.14893 6.75827 7.95559 6.75827 7.75781C6.75845 7.49265 6.86386 7.2384 7.05136 7.0509C7.23886 6.8634 7.49311 6.75799 7.75827 6.75781ZM16.2427 13.2422C15.6493 13.2422 15.0693 13.4181 14.5759 13.7478C14.0826 14.0774 13.6981 14.546 13.471 15.0941C13.244 15.6423 13.1845 16.2455 13.3003 16.8275C13.4161 17.4094 13.7018 17.944 14.1213 18.3635C14.5409 18.7831 15.0754 19.0688 15.6574 19.1845C16.2393 19.3003 16.8425 19.2409 17.3907 19.0138C17.9389 18.7868 18.4074 18.4022 18.7371 17.9089C19.0667 17.4156 19.2427 16.8355 19.2427 16.2422C19.2418 15.4468 18.9254 14.6843 18.363 14.1218C17.8006 13.5594 17.038 13.2431 16.2427 13.2422ZM16.2427 17.2422C16.0449 17.2422 15.8515 17.1835 15.6871 17.0737C15.5226 16.9638 15.3945 16.8076 15.3188 16.6249C15.2431 16.4421 15.2233 16.2411 15.2619 16.0471C15.3005 15.8531 15.3957 15.6749 15.5355 15.5351C15.6754 15.3952 15.8536 15.3 16.0476 15.2614C16.2415 15.2228 16.4426 15.2426 16.6253 15.3183C16.8081 15.394 16.9642 15.5222 17.0741 15.6866C17.184 15.8511 17.2427 16.0444 17.2427 16.2422C17.2425 16.5074 17.1371 16.7616 16.9496 16.9491C16.7621 17.1366 16.5078 17.242 16.2427 17.2422ZM19.7075 4.293C19.6146 4.20012 19.5044 4.12644 19.3831 4.07617C19.2618 4.0259 19.1318 4.00003 19.0004 4.00003C18.8691 4.00003 18.7391 4.0259 18.6178 4.07617C18.4965 4.12644 18.3862 4.20012 18.2934 4.293L4.2934 18.293C4.1996 18.3856 4.12504 18.4959 4.07401 18.6175C4.02299 18.739 3.99651 18.8695 3.9961 19.0013C3.99569 19.1332 4.02135 19.2638 4.07161 19.3857C4.12188 19.5075 4.19575 19.6183 4.28897 19.7115C4.38219 19.8047 4.49293 19.8786 4.61482 19.9288C4.7367 19.9791 4.86731 20.0048 4.99915 20.0043C5.13099 20.0039 5.26144 19.9774 5.383 19.9264C5.50456 19.8754 5.61483 19.8008 5.70746 19.707L19.7075 5.707C19.8003 5.61417 19.874 5.50395 19.9243 5.38264C19.9745 5.26133 20.0004 5.13131 20.0004 5C20.0004 4.86869 19.9745 4.73867 19.9243 4.61736C19.874 4.49605 19.8003 4.38583 19.7075 4.293Z" />
</svg>
