<svg width="24" height="24" viewBox="0 0 24 24" xmlns="http://www.w3.org/2000/svg">
<path d="M20 20H8C8.65438 19.1373 9.00587 18.0828 9 17V14H15C15.2652 14 15.5196 13.8946 15.7071 13.7071C15.8946 13.5196 16 13.2652 16 13C16 12.7348 15.8946 12.4804 15.7071 12.2929C15.5196 12.1054 15.2652 12 15 12H9V8.89C8.99914 7.81233 9.3543 6.76455 10.0103 5.90953C10.6663 5.0545 11.5863 4.44012 12.6275 4.16188C13.6686 3.88364 14.7725 3.95712 15.7675 4.37089C16.7626 4.78467 17.5931 5.51558 18.13 6.45C18.1962 6.56376 18.2841 6.66333 18.3889 6.74302C18.4936 6.82271 18.613 6.88095 18.7403 6.91439C18.8675 6.94783 19.0002 6.95583 19.1305 6.93792C19.2609 6.92 19.3865 6.87653 19.5 6.81C19.7287 6.67808 19.896 6.46105 19.9653 6.20627C20.0346 5.95148 20.0004 5.67962 19.87 5.45C19.1097 4.13807 17.9385 3.11309 16.5373 2.53352C15.1362 1.95395 13.5831 1.85206 12.1182 2.2436C10.6534 2.63515 9.35824 3.49832 8.4331 4.69969C7.50796 5.90105 7.00431 7.37371 7 8.89V12H4C3.73478 12 3.48043 12.1054 3.29289 12.2929C3.10536 12.4804 3 12.7348 3 13C3 13.2652 3.10536 13.5196 3.29289 13.7071C3.48043 13.8946 3.73478 14 4 14H7V17C7 17.7957 6.68393 18.5587 6.12132 19.1213C5.55871 19.6839 4.79565 20 4 20C3.73478 20 3.48043 20.1054 3.29289 20.2929C3.10536 20.4804 3 20.7348 3 21C3 21.2652 3.10536 21.5196 3.29289 21.7071C3.48043 21.8946 3.73478 22 4 22H20C20.2652 22 20.5196 21.8946 20.7071 21.7071C20.8946 21.5196 21 21.2652 21 21C21 20.7348 20.8946 20.4804 20.7071 20.2929C20.5196 20.1054 20.2652 20 20 20Z" />
</svg>
