<svg width="24" height="24" viewBox="0 0 24 24" xmlns="http://www.w3.org/2000/svg">
<path d="M16 15H10.82C10.9364 14.6793 10.9973 14.3411 11 14V13H13.5C13.7652 13 14.0196 12.8946 14.2071 12.7071C14.3946 12.5196 14.5 12.2652 14.5 12C14.5 11.7348 14.3946 11.4804 14.2071 11.2929C14.0196 11.1054 13.7652 11 13.5 11H11V10C10.9978 9.57137 11.1369 9.15395 11.3957 8.8123C11.6546 8.47066 12.0188 8.22383 12.4321 8.10999C12.8453 7.99615 13.2846 8.02164 13.6819 8.18252C14.0792 8.3434 14.4124 8.6307 14.63 9C14.7626 9.23074 14.9815 9.39935 15.2384 9.46874C15.4953 9.53813 15.7693 9.50261 16 9.37C16.2307 9.23739 16.3994 9.01855 16.4687 8.76163C16.5381 8.5047 16.5026 8.23074 16.37 8C15.9116 7.28106 15.2355 6.72739 14.4403 6.41977C13.6451 6.11215 12.7725 6.06667 11.9496 6.28998C11.1267 6.51328 10.3967 6.99367 9.86613 7.66108C9.33552 8.32848 9.03205 9.14797 9 10V11H8C7.73479 11 7.48043 11.1054 7.2929 11.2929C7.10536 11.4804 7 11.7348 7 12C7 12.2652 7.10536 12.5196 7.2929 12.7071C7.48043 12.8946 7.73479 13 8 13H9V14C9 14.2652 8.89465 14.5196 8.70711 14.7071C8.51958 14.8946 8.26522 15 8 15C7.73479 15 7.48043 15.1054 7.2929 15.2929C7.10536 15.4804 7 15.7348 7 16C7 16.2652 7.10536 16.5196 7.2929 16.7071C7.48043 16.8946 7.73479 17 8 17H16C16.2652 17 16.5196 16.8946 16.7071 16.7071C16.8946 16.5196 17 16.2652 17 16C17 15.7348 16.8946 15.4804 16.7071 15.2929C16.5196 15.1054 16.2652 15 16 15ZM12 1C9.82441 1 7.69767 1.64514 5.88873 2.85383C4.07979 4.06253 2.66989 5.78049 1.83733 7.79048C1.00477 9.80047 0.786929 12.0122 1.21137 14.146C1.6358 16.2798 2.68345 18.2398 4.22183 19.7782C5.76021 21.3166 7.72022 22.3642 9.85401 22.7886C11.9878 23.2131 14.1995 22.9952 16.2095 22.1627C18.2195 21.3301 19.9375 19.9202 21.1462 18.1113C22.3549 16.3023 23 14.1756 23 12C23 9.08262 21.8411 6.28473 19.7782 4.22183C17.7153 2.15893 14.9174 1 12 1ZM12 21C10.22 21 8.47992 20.4722 6.99987 19.4832C5.51983 18.4943 4.36628 17.0887 3.68509 15.4442C3.0039 13.7996 2.82567 11.99 3.17294 10.2442C3.5202 8.49836 4.37737 6.89471 5.63604 5.63604C6.89472 4.37737 8.49836 3.5202 10.2442 3.17293C11.99 2.82567 13.7996 3.0039 15.4442 3.68508C17.0887 4.36627 18.4943 5.51983 19.4832 6.99987C20.4722 8.47991 21 10.22 21 12C21 14.3869 20.0518 16.6761 18.364 18.364C16.6761 20.0518 14.387 21 12 21Z" />
</svg>
