<svg width="24" height="24" viewBox="0 0 24 24" xmlns="http://www.w3.org/2000/svg">
<path d="M21 14H20V3C20 2.73478 19.8946 2.48043 19.7071 2.29289C19.5196 2.10536 19.2652 2 19 2H5C4.73478 2 4.48043 2.10536 4.29289 2.29289C4.10536 2.48043 4 2.73478 4 3V14H3C2.73478 14 2.48043 14.1054 2.29289 14.2929C2.10536 14.4804 2 14.7348 2 15C2 15.2652 2.10536 15.5196 2.29289 15.7071C2.48043 15.8946 2.73478 16 3 16H11V17.15L6.45 20.15C6.26333 20.2655 6.11988 20.4393 6.04177 20.6445C5.96366 20.8496 5.95523 21.0748 6.01779 21.2852C6.08035 21.4957 6.21042 21.6797 6.38793 21.8089C6.56544 21.938 6.78053 22.0052 7 22C7.1966 22.0022 7.38896 21.9428 7.55 21.83L11 19.55V21C11 21.2652 11.1054 21.5196 11.2929 21.7071C11.4804 21.8946 11.7348 22 12 22C12.2652 22 12.5196 21.8946 12.7071 21.7071C12.8946 21.5196 13 21.2652 13 21V19.55L16.45 21.83C16.611 21.9428 16.8034 22.0022 17 22C17.2136 21.9984 17.4212 21.9283 17.5921 21.8002C17.7631 21.672 17.8885 21.4925 17.95 21.2879C18.0115 21.0832 18.0058 20.8643 17.9338 20.6631C17.8619 20.462 17.7273 20.2892 17.55 20.17L13 17.17V16H21C21.2652 16 21.5196 15.8946 21.7071 15.7071C21.8946 15.5196 22 15.2652 22 15C22 14.7348 21.8946 14.4804 21.7071 14.2929C21.5196 14.1054 21.2652 14 21 14ZM18 14H6V4H18V14ZM9 12C9.16471 11.9991 9.32665 11.9576 9.47145 11.8791C9.61625 11.8006 9.73941 11.6876 9.83 11.55L11.16 9.55L12.29 10.69C12.3949 10.7956 12.5221 10.8764 12.6622 10.9266C12.8024 10.9767 12.9519 10.995 13.1 10.98C13.2474 10.9638 13.3894 10.9151 13.5157 10.8372C13.6419 10.7594 13.7493 10.6544 13.83 10.53L15.83 7.53C15.9478 7.31043 15.9793 7.0548 15.9185 6.81318C15.8577 6.57156 15.7089 6.36134 15.5012 6.22371C15.2935 6.08608 15.0419 6.03094 14.7956 6.0691C14.5494 6.10726 14.3263 6.23596 14.17 6.43L12.84 8.43L11.71 7.29C11.6051 7.18443 11.4779 7.10361 11.3378 7.05344C11.1976 7.00327 11.0481 6.98501 10.9 7C10.7526 7.01618 10.6106 7.06495 10.4843 7.14278C10.3581 7.22061 10.2507 7.32555 10.17 7.45L8.17 10.45C8.02527 10.6705 7.97349 10.9392 8.02593 11.1976C8.07837 11.4561 8.23079 11.6834 8.45 11.83C8.61104 11.9428 8.8034 12.0022 9 12Z" />
</svg>
