<svg width="24" height="24" viewBox="0 0 24 24" xmlns="http://www.w3.org/2000/svg">
<path d="M18.5496 2.17C18.3291 2.02527 18.0604 1.97349 17.8019 2.02593C17.5435 2.07837 17.3162 2.23079 17.1696 2.45L11.9996 10.2L6.82956 2.45C6.67326 2.25596 6.45015 2.12726 6.20392 2.0891C5.9577 2.05095 5.7061 2.10608 5.4984 2.24371C5.2907 2.38135 5.14187 2.59156 5.08104 2.83318C5.02021 3.07481 5.05178 3.33043 5.16956 3.55L10.1696 11H6.99956C6.73434 11 6.47999 11.1054 6.29245 11.2929C6.10491 11.4804 5.99956 11.7348 5.99956 12C5.99956 12.2652 6.10491 12.5196 6.29245 12.7071C6.47999 12.8946 6.73434 13 6.99956 13H10.9996V15H6.99956C6.73434 15 6.47999 15.1054 6.29245 15.2929C6.10491 15.4804 5.99956 15.7348 5.99956 16C5.99956 16.2652 6.10491 16.5196 6.29245 16.7071C6.47999 16.8946 6.73434 17 6.99956 17H10.9996V21C10.9996 21.2652 11.1049 21.5196 11.2925 21.7071C11.48 21.8946 11.7343 22 11.9996 22C12.2648 22 12.5191 21.8946 12.7067 21.7071C12.8942 21.5196 12.9996 21.2652 12.9996 21V17H16.9996C17.2648 17 17.5191 16.8946 17.7067 16.7071C17.8942 16.5196 17.9996 16.2652 17.9996 16C17.9996 15.7348 17.8942 15.4804 17.7067 15.2929C17.5191 15.1054 17.2648 15 16.9996 15H12.9996V13H16.9996C17.2648 13 17.5191 12.8946 17.7067 12.7071C17.8942 12.5196 17.9996 12.2652 17.9996 12C17.9996 11.7348 17.8942 11.4804 17.7067 11.2929C17.5191 11.1054 17.2648 11 16.9996 11H13.8696L18.8696 3.55C18.9394 3.43844 18.9865 3.3142 19.0082 3.18439C19.0299 3.05459 19.0258 2.92178 18.9961 2.79357C18.9663 2.66536 18.9116 2.54429 18.835 2.43728C18.7583 2.33028 18.6614 2.23945 18.5496 2.17Z" />
</svg>
