<svg width="24" height="24" viewBox="0 0 24 24" xmlns="http://www.w3.org/2000/svg">
<path fill-rule="evenodd" clip-rule="evenodd" d="M3.9 3H20.1C20.3387 3 20.5676 3.09482 20.7364 3.2636C20.9052 3.43239 21 3.66131 21 3.9V20.1C21 20.3387 20.9052 20.5676 20.7364 20.7364C20.5676 20.9052 20.3387 21 20.1 21H3.9C3.66131 21 3.43239 20.9052 3.2636 20.7364C3.09482 20.5676 3 20.3387 3 20.1V3.9C3 3.66131 3.09482 3.43239 3.2636 3.2636C3.43239 3.09482 3.66131 3 3.9 3ZM9.48885 17.1746C9.57252 17.259 9.67206 17.326 9.78173 17.3716C9.8914 17.4173 10.009 17.4409 10.1278 17.4409C10.2467 17.4409 10.3643 17.4173 10.474 17.3716C10.5836 17.326 10.6832 17.259 10.7668 17.1746L18.9388 9.00264C19.1083 8.83317 19.2035 8.60331 19.2035 8.36364C19.2035 8.12397 19.1083 7.89412 18.9388 7.72464C18.7694 7.55517 18.5395 7.45996 18.2998 7.45996C18.0602 7.45996 17.8303 7.55517 17.6608 7.72464L10.1278 15.2666L7.23885 12.3686C7.06938 12.1992 6.83952 12.104 6.59985 12.104C6.36018 12.104 6.13032 12.1992 5.96085 12.3686C5.79138 12.5381 5.69617 12.768 5.69617 13.0076C5.69617 13.2473 5.79138 13.4772 5.96085 13.6466L9.48885 17.1746Z" fill="#00698F" fill-opacity="0.5"/>
<path fill-rule="evenodd" clip-rule="evenodd" d="M3.9 3H20.1C20.3387 3 20.5676 3.09482 20.7364 3.2636C20.9052 3.43239 21 3.66131 21 3.9V20.1C21 20.3387 20.9052 20.5676 20.7364 20.7364C20.5676 20.9052 20.3387 21 20.1 21H3.9C3.66131 21 3.43239 20.9052 3.2636 20.7364C3.09482 20.5676 3 20.3387 3 20.1V3.9C3 3.66131 3.09482 3.43239 3.2636 3.2636C3.43239 3.09482 3.66131 3 3.9 3ZM9.48885 17.1746C9.57252 17.259 9.67206 17.326 9.78173 17.3716C9.8914 17.4173 10.009 17.4409 10.1278 17.4409C10.2467 17.4409 10.3643 17.4173 10.474 17.3716C10.5836 17.326 10.6832 17.259 10.7668 17.1746L18.9388 9.00264C19.1083 8.83317 19.2035 8.60331 19.2035 8.36364C19.2035 8.12397 19.1083 7.89412 18.9388 7.72464C18.7694 7.55517 18.5395 7.45996 18.2998 7.45996C18.0602 7.45996 17.8303 7.55517 17.6608 7.72464L10.1278 15.2666L7.23885 12.3686C7.06938 12.1992 6.83952 12.104 6.59985 12.104C6.36018 12.104 6.13032 12.1992 5.96085 12.3686C5.79138 12.5381 5.69617 12.768 5.69617 13.0076C5.69617 13.2473 5.79138 13.4772 5.96085 13.6466L9.48885 17.1746Z" fill="black" fill-opacity="0.6"/>
</svg>
