<svg width="20" height="20" viewBox="0 0 20 20" xmlns="http://www.w3.org/2000/svg">
  <path d="M15.8333 3.3335H4.16667C3.50363 3.3335 2.86775 3.59689 2.3989 4.06573C1.93006 4.53457 1.66667 5.17045 1.66667 5.8335V14.1668C1.66667 14.8299 1.93006 15.4658 2.3989 15.9346C2.86775 16.4034 3.50363 16.6668 4.16667 16.6668H15.8333C16.4964 16.6668 17.1323 16.4034 17.6011 15.9346C18.0699 15.4658 18.3333 14.8299 18.3333 14.1668V5.8335C18.3333 5.17045 18.0699 4.53457 17.6011 4.06573C17.1323 3.59689 16.4964 3.3335 15.8333 3.3335ZM4.16667 15.0002C3.94566 15.0002 3.7337 14.9124 3.57742 14.7561C3.42114 14.5998 3.33334 14.3878 3.33334 14.1668V12.1502L6.08334 9.4085C6.23911 9.25581 6.44854 9.17028 6.66667 9.17028C6.8848 9.17028 7.09423 9.25581 7.25001 9.4085L12.8417 15.0002H4.16667ZM16.6667 14.1668C16.6667 14.3878 16.5789 14.5998 16.4226 14.7561C16.2663 14.9124 16.0544 15.0002 15.8333 15.0002H15.1917L12.0167 11.8085L12.75 11.0752C12.9058 10.9225 13.1152 10.8369 13.3333 10.8369C13.5515 10.8369 13.7609 10.9225 13.9167 11.0752L16.6667 13.8168V14.1668ZM16.6667 11.4668L15.1 9.9085C14.6251 9.45219 13.992 9.19735 13.3333 9.19735C12.6747 9.19735 12.0416 9.45219 11.5667 9.9085L10.8333 10.6418L8.43334 8.24183C7.95839 7.78552 7.3253 7.53068 6.66667 7.53068C6.00804 7.53068 5.37496 7.78552 4.90001 8.24183L3.33334 9.80016V5.8335C3.33334 5.61248 3.42114 5.40052 3.57742 5.24424C3.7337 5.08796 3.94566 5.00016 4.16667 5.00016H15.8333C16.0544 5.00016 16.2663 5.08796 16.4226 5.24424C16.5789 5.40052 16.6667 5.61248 16.6667 5.8335V11.4668Z "/>
  <path d="M15.8333 3.3335H4.16667C3.50363 3.3335 2.86775 3.59689 2.3989 4.06573C1.93006 4.53457 1.66667 5.17045 1.66667 5.8335V14.1668C1.66667 14.8299 1.93006 15.4658 2.3989 15.9346C2.86775 16.4034 3.50363 16.6668 4.16667 16.6668H15.8333C16.4964 16.6668 17.1323 16.4034 17.6011 15.9346C18.0699 15.4658 18.3333 14.8299 18.3333 14.1668V5.8335C18.3333 5.17045 18.0699 4.53457 17.6011 4.06573C17.1323 3.59689 16.4964 3.3335 15.8333 3.3335ZM4.16667 15.0002C3.94566 15.0002 3.7337 14.9124 3.57742 14.7561C3.42114 14.5998 3.33334 14.3878 3.33334 14.1668V12.1502L6.08334 9.4085C6.23911 9.25581 6.44854 9.17028 6.66667 9.17028C6.8848 9.17028 7.09423 9.25581 7.25001 9.4085L12.8417 15.0002H4.16667ZM16.6667 14.1668C16.6667 14.3878 16.5789 14.5998 16.4226 14.7561C16.2663 14.9124 16.0544 15.0002 15.8333 15.0002H15.1917L12.0167 11.8085L12.75 11.0752C12.9058 10.9225 13.1152 10.8369 13.3333 10.8369C13.5515 10.8369 13.7609 10.9225 13.9167 11.0752L16.6667 13.8168V14.1668ZM16.6667 11.4668L15.1 9.9085C14.6251 9.45219 13.992 9.19735 13.3333 9.19735C12.6747 9.19735 12.0416 9.45219 11.5667 9.9085L10.8333 10.6418L8.43334 8.24183C7.95839 7.78552 7.3253 7.53068 6.66667 7.53068C6.00804 7.53068 5.37496 7.78552 4.90001 8.24183L3.33334 9.80016V5.8335C3.33334 5.61248 3.42114 5.40052 3.57742 5.24424C3.7337 5.08796 3.94566 5.00016 4.16667 5.00016H15.8333C16.0544 5.00016 16.2663 5.08796 16.4226 5.24424C16.5789 5.40052 16.6667 5.61248 16.6667 5.8335V11.4668Z" />
  <path d="M15.8333 3.3335H4.16667C3.50363 3.3335 2.86775 3.59689 2.3989 4.06573C1.93006 4.53457 1.66667 5.17045 1.66667 5.8335V14.1668C1.66667 14.8299 1.93006 15.4658 2.3989 15.9346C2.86775 16.4034 3.50363 16.6668 4.16667 16.6668H15.8333C16.4964 16.6668 17.1323 16.4034 17.6011 15.9346C18.0699 15.4658 18.3333 14.8299 18.3333 14.1668V5.8335C18.3333 5.17045 18.0699 4.53457 17.6011 4.06573C17.1323 3.59689 16.4964 3.3335 15.8333 3.3335ZM4.16667 15.0002C3.94566 15.0002 3.7337 14.9124 3.57742 14.7561C3.42114 14.5998 3.33334 14.3878 3.33334 14.1668V12.1502L6.08334 9.4085C6.23911 9.25581 6.44854 9.17028 6.66667 9.17028C6.8848 9.17028 7.09423 9.25581 7.25001 9.4085L12.8417 15.0002H4.16667ZM16.6667 14.1668C16.6667 14.3878 16.5789 14.5998 16.4226 14.7561C16.2663 14.9124 16.0544 15.0002 15.8333 15.0002H15.1917L12.0167 11.8085L12.75 11.0752C12.9058 10.9225 13.1152 10.8369 13.3333 10.8369C13.5515 10.8369 13.7609 10.9225 13.9167 11.0752L16.6667 13.8168V14.1668ZM16.6667 11.4668L15.1 9.9085C14.6251 9.45219 13.992 9.19735 13.3333 9.19735C12.6747 9.19735 12.0416 9.45219 11.5667 9.9085L10.8333 10.6418L8.43334 8.24183C7.95839 7.78552 7.3253 7.53068 6.66667 7.53068C6.00804 7.53068 5.37496 7.78552 4.90001 8.24183L3.33334 9.80016V5.8335C3.33334 5.61248 3.42114 5.40052 3.57742 5.24424C3.7337 5.08796 3.94566 5.00016 4.16667 5.00016H15.8333C16.0544 5.00016 16.2663 5.08796 16.4226 5.24424C16.5789 5.40052 16.6667 5.61248 16.6667 5.8335V11.4668Z" />
</svg>
