<svg width="24" height="24" viewBox="0 0 24 24" xmlns="http://www.w3.org/2000/svg">
<path d="M8.29 11.29C8.19896 11.3851 8.12759 11.4972 8.08 11.62C7.97998 11.8635 7.97998 12.1365 8.08 12.38C8.12759 12.5028 8.19896 12.6149 8.29 12.71L11.29 15.71C11.4783 15.8983 11.7337 16.0041 12 16.0041C12.2663 16.0041 12.5217 15.8983 12.71 15.71C12.8983 15.5217 13.0041 15.2663 13.0041 15C13.0041 14.7337 12.8983 14.4783 12.71 14.29L11.41 13H15C15.2652 13 15.5196 12.8946 15.7071 12.7071C15.8946 12.5196 16 12.2652 16 12C16 11.7348 15.8946 11.4804 15.7071 11.2929C15.5196 11.1054 15.2652 11 15 11H11.41L12.71 9.71C12.8037 9.61704 12.8781 9.50644 12.9289 9.38458C12.9797 9.26272 13.0058 9.13201 13.0058 9C13.0058 8.86799 12.9797 8.73728 12.9289 8.61542C12.8781 8.49356 12.8037 8.38296 12.71 8.29C12.617 8.19627 12.5064 8.12188 12.3846 8.07111C12.2627 8.02034 12.132 7.9942 12 7.9942C11.868 7.9942 11.7373 8.02034 11.6154 8.07111C11.4936 8.12188 11.383 8.19627 11.29 8.29L8.29 11.29ZM2 12C2 13.9778 2.58649 15.9112 3.6853 17.5557C4.78412 19.2002 6.3459 20.4819 8.17317 21.2388C10.0004 21.9957 12.0111 22.1937 13.9509 21.8079C15.8907 21.422 17.6725 20.4696 19.0711 19.0711C20.4696 17.6725 21.422 15.8907 21.8079 13.9509C22.1937 12.0111 21.9957 10.0004 21.2388 8.17317C20.4819 6.3459 19.2002 4.78412 17.5557 3.6853C15.9112 2.58649 13.9778 2 12 2C10.6868 2 9.38642 2.25866 8.17317 2.7612C6.95991 3.26375 5.85752 4.00035 4.92893 4.92893C3.05357 6.8043 2 9.34784 2 12ZM20 12C20 13.5823 19.5308 15.129 18.6518 16.4446C17.7727 17.7602 16.5233 18.7855 15.0615 19.391C13.5997 19.9965 11.9911 20.155 10.4393 19.8463C8.88743 19.5376 7.46197 18.7757 6.34315 17.6569C5.22433 16.538 4.4624 15.1126 4.15372 13.5607C3.84504 12.0089 4.00346 10.4003 4.60896 8.93853C5.21447 7.47672 6.23984 6.22729 7.55544 5.34824C8.87103 4.46919 10.4177 4 12 4C14.1217 4 16.1566 4.84285 17.6569 6.34315C19.1571 7.84344 20 9.87827 20 12Z" />
</svg>
