<svg width="24" height="24" viewBox="0 0 24 24" xmlns="http://www.w3.org/2000/svg">
<path fill-rule="evenodd" clip-rule="evenodd" d="M6.4443 3.6853C8.08879 2.58649 10.0222 2 12 2C13.3132 2 14.6136 2.25866 15.8268 2.7612C17.0401 3.26375 18.1425 4.00035 19.0711 4.92893C19.9997 5.85752 20.7363 6.95991 21.2388 8.17317C21.7413 9.38642 22 10.6868 22 12C22 13.9778 21.4135 15.9112 20.3147 17.5557C19.2159 19.2002 17.6541 20.4819 15.8268 21.2388C13.9996 21.9957 11.9889 22.1937 10.0491 21.8079C8.10929 21.422 6.32746 20.4696 4.92894 19.0711C3.53041 17.6725 2.578 15.8907 2.19215 13.9509C1.8063 12.0111 2.00433 10.0004 2.76121 8.17317C3.51809 6.3459 4.79981 4.78412 6.4443 3.6853ZM7.55544 18.6518C8.87104 19.5308 10.4178 20 12 20C14.1217 20 16.1566 19.1571 17.6569 17.6569C19.1572 16.1566 20 14.1217 20 12C20 10.4177 19.5308 8.87103 18.6518 7.55544C17.7727 6.23984 16.5233 5.21447 15.0615 4.60896C13.5997 4.00346 11.9911 3.84504 10.4393 4.15372C8.88743 4.4624 7.46197 5.22433 6.34315 6.34315C5.22433 7.46197 4.4624 8.88743 4.15372 10.4393C3.84504 11.9911 4.00347 13.5997 4.60897 15.0615C5.21447 16.5233 6.23985 17.7727 7.55544 18.6518ZM7.44443 11.1685C7.60888 11.0586 7.80222 11 8 11C8.26522 11 8.51957 11.1054 8.70711 11.2929C8.89464 11.4804 9 11.7348 9 12C9 12.1978 8.94135 12.3911 8.83147 12.5556C8.72159 12.72 8.56541 12.8482 8.38268 12.9239C8.19996 12.9996 7.99889 13.0194 7.80491 12.9808C7.61093 12.9422 7.43275 12.847 7.29289 12.7071C7.15304 12.5673 7.0578 12.3891 7.01922 12.1951C6.98063 12.0011 7.00043 11.8 7.07612 11.6173C7.15181 11.4346 7.27998 11.2784 7.44443 11.1685ZM11.4444 11.1685C11.6089 11.0586 11.8022 11 12 11C12.2652 11 12.5196 11.1054 12.7071 11.2929C12.8946 11.4804 13 11.7348 13 12C13 12.1978 12.9414 12.3911 12.8315 12.5556C12.7216 12.72 12.5654 12.8482 12.3827 12.9239C12.2 12.9996 11.9989 13.0194 11.8049 12.9808C11.6109 12.9422 11.4327 12.847 11.2929 12.7071C11.153 12.5673 11.0578 12.3891 11.0192 12.1951C10.9806 12.0011 11.0004 11.8 11.0761 11.6173C11.1518 11.4346 11.28 11.2784 11.4444 11.1685ZM15.4444 11.1685C15.6089 11.0586 15.8022 11 16 11C16.2652 11 16.5196 11.1054 16.7071 11.2929C16.8946 11.4804 17 11.7348 17 12C17 12.1978 16.9414 12.3911 16.8315 12.5556C16.7216 12.72 16.5654 12.8482 16.3827 12.9239C16.2 12.9996 15.9989 13.0194 15.8049 12.9808C15.6109 12.9422 15.4327 12.847 15.2929 12.7071C15.153 12.5673 15.0578 12.3891 15.0192 12.1951C14.9806 12.0011 15.0004 11.8 15.0761 11.6173C15.1518 11.4346 15.28 11.2784 15.4444 11.1685Z" />
</svg>
