<svg width="24" height="24" viewBox="0 0 24 24" xmlns="http://www.w3.org/2000/svg">
<path d="M9.70994 11.0058L11.9999 11C11.9999 11 14.0801 11 14.2899 11C14.4998 11 14.4998 11 14.4998 11L14.9999 11.0058C14.9999 11.0058 15.2627 10.9797 15.3845 10.9289C15.5064 10.8781 15.617 10.8037 15.7099 10.71C15.8037 10.617 15.8781 10.5064 15.9288 10.3846C15.9796 10.2627 16.0057 10.132 16.0057 10C16.0057 9.86799 15.9796 9.73728 15.9288 9.61542C15.8781 9.49356 15.8037 9.38296 15.7099 9.29L12.7099 6.29C12.617 6.19627 12.5064 6.12188 12.3845 6.07111C12.2627 6.02034 12.132 5.9942 11.9999 5.9942C11.8679 5.9942 11.7372 6.02034 11.6154 6.07111C11.4935 6.12188 11.3829 6.19627 11.2899 6.29L8.28994 9.29C8.10164 9.4783 7.99585 9.7337 7.99585 10C7.99585 10.2663 8.10164 10.5217 8.28994 10.71C8.47825 10.8983 8.73364 11.0041 8.99994 11.0041C9.26624 11.0041 9.70994 11.0058 9.70994 11.0058ZM14.2899 14H11.9999H9.70994C9.49976 14 9.49976 13.9959 9.38419 13.9959C8.99976 13.9959 9.1318 13.9959 8.99994 13.9959C8.86808 13.9959 8.73751 14.0219 8.61569 14.0723C8.49387 14.1228 8.38318 14.1968 8.28994 14.29C8.1967 14.3832 8.12274 14.4939 8.07228 14.6158C8.02182 14.7376 7.99585 14.8681 7.99585 15C7.99585 15.1319 8.02182 15.2624 8.07228 15.3842C8.12274 15.5061 8.1967 15.6168 8.28994 15.71L11.2899 18.71C11.3829 18.8037 11.4935 18.8781 11.6154 18.9289C11.7372 18.9797 11.8679 19.0058 11.9999 19.0058C12.132 19.0058 12.2627 18.9797 12.3845 18.9289C12.5064 18.8781 12.617 18.8037 12.7099 18.71L15.7099 15.71C15.8982 15.5217 16.004 15.2663 16.004 15C16.004 14.7337 15.8982 14.4783 15.7099 14.29C15.5216 14.1017 15.2662 13.9959 14.9999 13.9959C14.7336 13.9959 14.4998 14 14.2899 14Z" fill="#00698F" fill-opacity="0.5"/>
<path d="M9.70994 11.0058L11.9999 11C11.9999 11 14.0801 11 14.2899 11C14.4998 11 14.4998 11 14.4998 11L14.9999 11.0058C14.9999 11.0058 15.2627 10.9797 15.3845 10.9289C15.5064 10.8781 15.617 10.8037 15.7099 10.71C15.8037 10.617 15.8781 10.5064 15.9288 10.3846C15.9796 10.2627 16.0057 10.132 16.0057 10C16.0057 9.86799 15.9796 9.73728 15.9288 9.61542C15.8781 9.49356 15.8037 9.38296 15.7099 9.29L12.7099 6.29C12.617 6.19627 12.5064 6.12188 12.3845 6.07111C12.2627 6.02034 12.132 5.9942 11.9999 5.9942C11.8679 5.9942 11.7372 6.02034 11.6154 6.07111C11.4935 6.12188 11.3829 6.19627 11.2899 6.29L8.28994 9.29C8.10164 9.4783 7.99585 9.7337 7.99585 10C7.99585 10.2663 8.10164 10.5217 8.28994 10.71C8.47825 10.8983 8.73364 11.0041 8.99994 11.0041C9.26624 11.0041 9.70994 11.0058 9.70994 11.0058ZM14.2899 14H11.9999H9.70994C9.49976 14 9.49976 13.9959 9.38419 13.9959C8.99976 13.9959 9.1318 13.9959 8.99994 13.9959C8.86808 13.9959 8.73751 14.0219 8.61569 14.0723C8.49387 14.1228 8.38318 14.1968 8.28994 14.29C8.1967 14.3832 8.12274 14.4939 8.07228 14.6158C8.02182 14.7376 7.99585 14.8681 7.99585 15C7.99585 15.1319 8.02182 15.2624 8.07228 15.3842C8.12274 15.5061 8.1967 15.6168 8.28994 15.71L11.2899 18.71C11.3829 18.8037 11.4935 18.8781 11.6154 18.9289C11.7372 18.9797 11.8679 19.0058 11.9999 19.0058C12.132 19.0058 12.2627 18.9797 12.3845 18.9289C12.5064 18.8781 12.617 18.8037 12.7099 18.71L15.7099 15.71C15.8982 15.5217 16.004 15.2663 16.004 15C16.004 14.7337 15.8982 14.4783 15.7099 14.29C15.5216 14.1017 15.2662 13.9959 14.9999 13.9959C14.7336 13.9959 14.4998 14 14.2899 14Z" fill="black" fill-opacity="0.6"/>
</svg>
