<svg width="24" height="24" viewBox="0 0 24 24" xmlns="http://www.w3.org/2000/svg">
<path d="M11.5 20H5.5C5.23478 20 4.98043 19.8946 4.79289 19.7071C4.60536 19.5196 4.5 19.2652 4.5 19V5C4.5 4.73478 4.60536 4.48043 4.79289 4.29289C4.98043 4.10536 5.23478 4 5.5 4H10.5V7C10.5 7.79565 10.8161 8.55871 11.3787 9.12132C11.9413 9.68393 12.7044 10 13.5 10H16.5V15C16.5 15.2652 16.6054 15.5196 16.7929 15.7071C16.9804 15.8946 17.2348 16 17.5 16C17.7652 16 18.0196 15.8946 18.2071 15.7071C18.3946 15.5196 18.5 15.2652 18.5 15V9C18.5 9 18.5 9 18.5 8.94C18.4896 8.84813 18.4695 8.75763 18.44 8.67V8.58C18.3919 8.47718 18.3278 8.38267 18.25 8.3L12.25 2.3C12.1673 2.22222 12.0728 2.15808 11.97 2.11C11.9369 2.10421 11.9031 2.10421 11.87 2.11C11.7728 2.058 11.6683 2.02092 11.56 2H5.5C4.70435 2 3.94129 2.31607 3.37868 2.87868C2.81607 3.44129 2.5 4.20435 2.5 5V19C2.5 19.7956 2.81607 20.5587 3.37868 21.1213C3.94129 21.6839 4.70435 22 5.5 22H11.5C11.7652 22 12.0196 21.8946 12.2071 21.7071C12.3946 21.5196 12.5 21.2652 12.5 21C12.5 20.7348 12.3946 20.4804 12.2071 20.2929C12.0196 20.1054 11.7652 20 11.5 20ZM12.5 5.41L15.09 8H13.5C13.2348 8 12.9804 7.89464 12.7929 7.70711C12.6054 7.51957 12.5 7.26522 12.5 7V5.41ZM7.5 14H13.5C13.7652 14 14.0196 13.8946 14.2071 13.7071C14.3946 13.5196 14.5 13.2652 14.5 13C14.5 12.7348 14.3946 12.4804 14.2071 12.2929C14.0196 12.1054 13.7652 12 13.5 12H7.5C7.23478 12 6.98043 12.1054 6.79289 12.2929C6.60536 12.4804 6.5 12.7348 6.5 13C6.5 13.2652 6.60536 13.5196 6.79289 13.7071C6.98043 13.8946 7.23478 14 7.5 14ZM11.5 16H7.5C7.23478 16 6.98043 16.1054 6.79289 16.2929C6.60536 16.4804 6.5 16.7348 6.5 17C6.5 17.2652 6.60536 17.5196 6.79289 17.7071C6.98043 17.8946 7.23478 18 7.5 18H11.5C11.7652 18 12.0196 17.8946 12.2071 17.7071C12.3946 17.5196 12.5 17.2652 12.5 17C12.5 16.7348 12.3946 16.4804 12.2071 16.2929C12.0196 16.1054 11.7652 16 11.5 16ZM7.5 10H8.5C8.76522 10 9.01957 9.89464 9.20711 9.70711C9.39464 9.51957 9.5 9.26522 9.5 9C9.5 8.73478 9.39464 8.48043 9.20711 8.29289C9.01957 8.10536 8.76522 8 8.5 8H7.5C7.23478 8 6.98043 8.10536 6.79289 8.29289C6.60536 8.48043 6.5 8.73478 6.5 9C6.5 9.26522 6.60536 9.51957 6.79289 9.70711C6.98043 9.89464 7.23478 10 7.5 10ZM21.21 16.29C21.117 16.1963 21.0064 16.1219 20.8846 16.0711C20.7627 16.0203 20.632 15.9942 20.5 15.9942C20.368 15.9942 20.2373 16.0203 20.1154 16.0711C19.9936 16.1219 19.883 16.1963 19.79 16.29L16.5 19.59L15.21 18.29C15.1168 18.1968 15.0061 18.1228 14.8842 18.0723C14.7624 18.0219 14.6319 17.9959 14.5 17.9959C14.3681 17.9959 14.2376 18.0219 14.1158 18.0723C13.9939 18.1228 13.8832 18.1968 13.79 18.29C13.6968 18.3832 13.6228 18.4939 13.5723 18.6158C13.5219 18.7376 13.4959 18.8681 13.4959 19C13.4959 19.1319 13.5219 19.2624 13.5723 19.3842C13.6228 19.5061 13.6968 19.6168 13.79 19.71L15.79 21.71C15.883 21.8037 15.9936 21.8781 16.1154 21.9289C16.2373 21.9797 16.368 22.0058 16.5 22.0058C16.632 22.0058 16.7627 21.9797 16.8846 21.9289C17.0064 21.8781 17.117 21.8037 17.21 21.71L21.21 17.71C21.3037 17.617 21.3781 17.5064 21.4289 17.3846C21.4797 17.2627 21.5058 17.132 21.5058 17C21.5058 16.868 21.4797 16.7373 21.4289 16.6154C21.3781 16.4936 21.3037 16.383 21.21 16.29Z" />
</svg>
