<svg width="24" height="24" viewBox="0 0 24 24" xmlns="http://www.w3.org/2000/svg">
<path d="M16 20H8C7.20435 20 6.44129 19.6839 5.87868 19.1213C5.31607 18.5587 5 17.7956 5 17V7C5 6.73478 4.89464 6.48043 4.70711 6.29289C4.51957 6.10536 4.26522 6 4 6C3.73478 6 3.48043 6.10536 3.29289 6.29289C3.10536 6.48043 3 6.73478 3 7V17C3 18.3261 3.52678 19.5979 4.46447 20.5355C5.40215 21.4732 6.67392 22 8 22H16C16.2652 22 16.5196 21.8946 16.7071 21.7071C16.8946 21.5196 17 21.2652 17 21C17 20.7348 16.8946 20.4804 16.7071 20.2929C16.5196 20.1054 16.2652 20 16 20ZM10 13C10 13.2652 10.1054 13.5196 10.2929 13.7071C10.4804 13.8946 10.7348 14 11 14H16C16.2652 14 16.5196 13.8946 16.7071 13.7071C16.8946 13.5196 17 13.2652 17 13C17 12.7348 16.8946 12.4804 16.7071 12.2929C16.5196 12.1054 16.2652 12 16 12H11C10.7348 12 10.4804 12.1054 10.2929 12.2929C10.1054 12.4804 10 12.7348 10 13ZM21 8.94C20.9896 8.84813 20.9695 8.75763 20.94 8.67V8.58C20.8919 8.47718 20.8278 8.38267 20.75 8.3L14.75 2.3C14.6673 2.22222 14.5728 2.15808 14.47 2.11C14.4402 2.10576 14.4099 2.10576 14.38 2.11C14.2784 2.05174 14.1662 2.01434 14.05 2H10C9.20435 2 8.44129 2.31607 7.87868 2.87868C7.31607 3.44129 7 4.20435 7 5V15C7 15.7956 7.31607 16.5587 7.87868 17.1213C8.44129 17.6839 9.20435 18 10 18H18C18.7956 18 19.5587 17.6839 20.1213 17.1213C20.6839 16.5587 21 15.7956 21 15V9C21 9 21 9 21 8.94ZM15 5.41L17.59 8H16C15.7348 8 15.4804 7.89464 15.2929 7.70711C15.1054 7.51957 15 7.26522 15 7V5.41ZM19 15C19 15.2652 18.8946 15.5196 18.7071 15.7071C18.5196 15.8946 18.2652 16 18 16H10C9.73478 16 9.48043 15.8946 9.29289 15.7071C9.10536 15.5196 9 15.2652 9 15V5C9 4.73478 9.10536 4.48043 9.29289 4.29289C9.48043 4.10536 9.73478 4 10 4H13V7C13.0027 7.34114 13.0636 7.67933 13.18 8H11C10.7348 8 10.4804 8.10536 10.2929 8.29289C10.1054 8.48043 10 8.73478 10 9C10 9.26522 10.1054 9.51957 10.2929 9.70711C10.4804 9.89464 10.7348 10 11 10H19V15Z" />
</svg>
