<svg width="24" height="24" viewBox="0 0 24 24" xmlns="http://www.w3.org/2000/svg">
<path d="M12.92 16.62C12.8981 16.5563 12.8678 16.4957 12.83 16.44C12.7931 16.3876 12.753 16.3375 12.71 16.29C12.5694 16.1512 12.3908 16.0572 12.1968 16.0199C12.0028 15.9825 11.8021 16.0034 11.62 16.08C11.4972 16.1276 11.3851 16.199 11.29 16.29C11.247 16.3375 11.2069 16.3876 11.17 16.44C11.1322 16.4957 11.1019 16.5563 11.08 16.62C11.0512 16.6767 11.0309 16.7374 11.02 16.8C11.0156 16.8666 11.0156 16.9334 11.02 17C11.0166 17.1312 11.044 17.2613 11.1 17.38C11.1506 17.5012 11.2217 17.6128 11.31 17.71C11.4938 17.8923 11.7411 17.9963 12 18C12.1312 18.0034 12.2613 17.976 12.38 17.92C12.5041 17.8751 12.6168 17.8034 12.7101 17.7101C12.8034 17.6168 12.8751 17.5041 12.92 17.38C12.976 17.2613 13.0034 17.1312 13 17C13.0044 16.9334 13.0044 16.8666 13 16.8C12.9828 16.7362 12.9558 16.6755 12.92 16.62ZM20 8.94C19.9896 8.84813 19.9695 8.75763 19.94 8.67V8.58C19.8919 8.47718 19.8278 8.38267 19.75 8.3L13.75 2.3C13.6673 2.22222 13.5728 2.15808 13.47 2.11H13.38C13.2784 2.05174 13.1662 2.01434 13.05 2H7C6.20435 2 5.44129 2.31607 4.87868 2.87868C4.31607 3.44129 4 4.20435 4 5V19C4 19.7956 4.31607 20.5587 4.87868 21.1213C5.44129 21.6839 6.20435 22 7 22H17C17.7956 22 18.5587 21.6839 19.1213 21.1213C19.6839 20.5587 20 19.7956 20 19V9C20 9 20 9 20 8.94ZM14 5.41L16.59 8H15C14.7348 8 14.4804 7.89464 14.2929 7.70711C14.1054 7.51957 14 7.26522 14 7V5.41ZM18 19C18 19.2652 17.8946 19.5196 17.7071 19.7071C17.5196 19.8946 17.2652 20 17 20H7C6.73478 20 6.48043 19.8946 6.29289 19.7071C6.10536 19.5196 6 19.2652 6 19V5C6 4.73478 6.10536 4.48043 6.29289 4.29289C6.48043 4.10536 6.73478 4 7 4H12V7C12 7.79565 12.3161 8.55871 12.8787 9.12132C13.4413 9.68393 14.2044 10 15 10H18V19ZM12 11C11.7348 11 11.4804 11.1054 11.2929 11.2929C11.1054 11.4804 11 11.7348 11 12V14C11 14.2652 11.1054 14.5196 11.2929 14.7071C11.4804 14.8946 11.7348 15 12 15C12.2652 15 12.5196 14.8946 12.7071 14.7071C12.8946 14.5196 13 14.2652 13 14V12C13 11.7348 12.8946 11.4804 12.7071 11.2929C12.5196 11.1054 12.2652 11 12 11Z" />
</svg>
