<svg width="24" height="24" viewBox="0 0 24 24" xmlns="http://www.w3.org/2000/svg">
<path d="M9 10H10C10.2652 10 10.5196 9.89464 10.7071 9.70711C10.8946 9.51957 11 9.26522 11 9C11 8.73478 10.8946 8.48043 10.7071 8.29289C10.5196 8.10536 10.2652 8 10 8H9C8.73478 8 8.48043 8.10536 8.29289 8.29289C8.10536 8.48043 8 8.73478 8 9C8 9.26522 8.10536 9.51957 8.29289 9.70711C8.48043 9.89464 8.73478 10 9 10ZM15 12H9C8.73478 12 8.48043 12.1054 8.29289 12.2929C8.10536 12.4804 8 12.7348 8 13C8 13.2652 8.10536 13.5196 8.29289 13.7071C8.48043 13.8946 8.73478 14 9 14H15C15.2652 14 15.5196 13.8946 15.7071 13.7071C15.8946 13.5196 16 13.2652 16 13C16 12.7348 15.8946 12.4804 15.7071 12.2929C15.5196 12.1054 15.2652 12 15 12ZM15 16H9C8.73478 16 8.48043 16.1054 8.29289 16.2929C8.10536 16.4804 8 16.7348 8 17C8 17.2652 8.10536 17.5196 8.29289 17.7071C8.48043 17.8946 8.73478 18 9 18H15C15.2652 18 15.5196 17.8946 15.7071 17.7071C15.8946 17.5196 16 17.2652 16 17C16 16.7348 15.8946 16.4804 15.7071 16.2929C15.5196 16.1054 15.2652 16 15 16ZM19.71 20.29C19.6625 20.247 19.6124 20.2069 19.56 20.17C19.5043 20.1322 19.4437 20.1019 19.38 20.08L19.2 20C19.005 19.9619 18.8031 19.9828 18.62 20.06C18.4959 20.1049 18.3832 20.1766 18.2899 20.2699C18.1966 20.3632 18.1249 20.4759 18.08 20.6C18.0209 20.7247 17.9934 20.8621 18 21C17.9983 21.1488 18.0297 21.296 18.0921 21.4311C18.1545 21.5662 18.2462 21.6856 18.3606 21.7807C18.475 21.8758 18.6092 21.9442 18.7534 21.9809C18.8976 22.0176 19.0481 22.0216 19.1941 21.9927C19.34 21.9638 19.4777 21.9028 19.597 21.8139C19.7164 21.7251 19.8144 21.6107 19.8839 21.4792C19.9535 21.3477 19.9928 21.2023 19.9991 21.0537C20.0053 20.905 19.9783 20.7569 19.92 20.62C19.8694 20.4988 19.7983 20.3872 19.71 20.29ZM20 8.94C19.9896 8.84813 19.9695 8.75763 19.94 8.67V8.58C19.8919 8.47718 19.8278 8.38267 19.75 8.3L13.75 2.3C13.6673 2.22222 13.5728 2.15808 13.47 2.11C13.4402 2.10576 13.4099 2.10576 13.38 2.11C13.2784 2.05174 13.1662 2.01434 13.05 2H7C6.20435 2 5.44129 2.31607 4.87868 2.87868C4.31607 3.44129 4 4.20435 4 5V19C4 19.7956 4.31607 20.5587 4.87868 21.1213C5.44129 21.6839 6.20435 22 7 22H15C15.2652 22 15.5196 21.8946 15.7071 21.7071C15.8946 21.5196 16 21.2652 16 21C16 20.7348 15.8946 20.4804 15.7071 20.2929C15.5196 20.1054 15.2652 20 15 20H7C6.73478 20 6.48043 19.8946 6.29289 19.7071C6.10536 19.5196 6 19.2652 6 19V5C6 4.73478 6.10536 4.48043 6.29289 4.29289C6.48043 4.10536 6.73478 4 7 4H12V7C12 7.79565 12.3161 8.55871 12.8787 9.12132C13.4413 9.68393 14.2044 10 15 10H18V12C18 12.2652 18.1054 12.5196 18.2929 12.7071C18.4804 12.8946 18.7348 13 19 13C19.2652 13 19.5196 12.8946 19.7071 12.7071C19.8946 12.5196 20 12.2652 20 12V9C20 9 20 9 20 8.94ZM15 8C14.7348 8 14.4804 7.89464 14.2929 7.70711C14.1054 7.51957 14 7.26522 14 7V5.41L16.59 8H15ZM19 15C18.7348 15 18.4804 15.1054 18.2929 15.2929C18.1054 15.4804 18 15.7348 18 16V18C18 18.2652 18.1054 18.5196 18.2929 18.7071C18.4804 18.8946 18.7348 19 19 19C19.2652 19 19.5196 18.8946 19.7071 18.7071C19.8946 18.5196 20 18.2652 20 18V16C20 15.7348 19.8946 15.4804 19.7071 15.2929C19.5196 15.1054 19.2652 15 19 15Z" />
</svg>
