<svg width="24" height="24" viewBox="0 0 24 24" xmlns="http://www.w3.org/2000/svg">
<path d="M20 8.94C19.9896 8.84813 19.9695 8.75763 19.94 8.67V8.58C19.8919 8.47718 19.8278 8.38267 19.75 8.3L13.75 2.3C13.6673 2.22222 13.5728 2.15808 13.47 2.11H13.37C13.2728 2.058 13.1683 2.02092 13.06 2H7C6.20435 2 5.44129 2.31607 4.87868 2.87868C4.31607 3.44129 4 4.20435 4 5V19C4 19.7956 4.31607 20.5587 4.87868 21.1213C5.44129 21.6839 6.20435 22 7 22H17C17.7956 22 18.5587 21.6839 19.1213 21.1213C19.6839 20.5587 20 19.7956 20 19V9C20 9 20 9 20 8.94ZM14 5.41L16.59 8H15C14.7348 8 14.4804 7.89464 14.2929 7.70711C14.1054 7.51957 14 7.26522 14 7V5.41ZM18 19C18 19.2652 17.8946 19.5196 17.7071 19.7071C17.5196 19.8946 17.2652 20 17 20H7C6.73478 20 6.48043 19.8946 6.29289 19.7071C6.10536 19.5196 6 19.2652 6 19V5C6 4.73478 6.10536 4.48043 6.29289 4.29289C6.48043 4.10536 6.73478 4 7 4H12V7C12 7.79565 12.3161 8.55871 12.8787 9.12132C13.4413 9.68393 14.2044 10 15 10H18V19ZM12 11.34C11.38 11.0023 10.6587 10.9007 9.96961 11.0539C9.28048 11.2072 8.6702 11.6049 8.25172 12.1734C7.83324 12.7419 7.6349 13.4429 7.69342 14.1464C7.75194 14.8499 8.06334 15.5084 8.57 16L11.29 18.72C11.383 18.8137 11.4936 18.8881 11.6154 18.9389C11.7373 18.9897 11.868 19.0158 12 19.0158C12.132 19.0158 12.2627 18.9897 12.3846 18.9389C12.5064 18.8881 12.617 18.8137 12.71 18.72L15.43 16C15.9367 15.5084 16.2481 14.8499 16.3066 14.1464C16.3651 13.4429 16.1668 12.7419 15.7483 12.1734C15.3298 11.6049 14.7195 11.2072 14.0304 11.0539C13.3413 10.9007 12.62 11.0023 12 11.34ZM14 13.27C14.1722 13.4425 14.2689 13.6763 14.2689 13.92C14.2689 14.1637 14.1722 14.3975 14 14.57L12 16.57L10 14.57C9.8278 14.3975 9.73108 14.1637 9.73108 13.92C9.73108 13.6763 9.8278 13.4425 10 13.27C10.1725 13.0978 10.4063 13.0011 10.65 13.0011C10.8937 13.0011 11.1275 13.0978 11.3 13.27C11.393 13.3637 11.5036 13.4381 11.6254 13.4889C11.7473 13.5397 11.878 13.5658 12.01 13.5658C12.142 13.5658 12.2727 13.5397 12.3946 13.4889C12.5164 13.4381 12.627 13.3637 12.72 13.27C12.8916 13.1038 13.1211 13.0109 13.36 13.0109C13.5989 13.0109 13.8284 13.1038 14 13.27Z" />
</svg>
