<svg width="24" height="24" viewBox="0 0 24 24" xmlns="http://www.w3.org/2000/svg">
<path d="M21.71 20.29L20 18.56C20 18.45 20 18.35 20 18.25C20 17.8889 19.9289 17.5313 19.7907 17.1976C19.6525 16.864 19.4499 16.5608 19.1945 16.3055C18.9392 16.0501 18.636 15.8475 18.3024 15.7093C17.9687 15.5711 17.6111 15.5 17.25 15.5H16.91L15.47 14.06C15.5579 14.0201 15.6534 13.9996 15.75 14H19C19.2652 14 19.5196 13.8946 19.7071 13.7071C19.8946 13.5196 20 13.2652 20 13C20 12.7348 19.8946 12.4804 19.7071 12.2929C19.5196 12.1054 19.2652 12 19 12H17.5V11C17.5 10.7348 17.3946 10.4804 17.2071 10.2929C17.0196 10.1054 16.7652 10 16.5 10C16.2348 10 15.9804 10.1054 15.7929 10.2929C15.6054 10.4804 15.5 10.7348 15.5 11V12C14.9626 12.0477 14.4512 12.2529 14.03 12.59L12.71 11.26C12.5217 11.0717 12.2663 10.9659 12 10.9659C11.7337 10.9659 11.4783 11.0717 11.29 11.26C11.1017 11.4483 10.9959 11.7037 10.9959 11.97C10.9959 12.2363 11.1017 12.4917 11.29 12.68L13 14.44C13 14.55 13 14.65 13 14.75C13 15.4793 13.2897 16.1788 13.8055 16.6945C14.3212 17.2103 15.0207 17.5 15.75 17.5H16.09L17.53 18.94C17.4421 18.9799 17.3466 19.0004 17.25 19H14C13.7348 19 13.4804 19.1054 13.2929 19.2929C13.1054 19.4804 13 19.7348 13 20C13 20.2652 13.1054 20.5196 13.2929 20.7071C13.4804 20.8946 13.7348 21 14 21H15.5V22C15.5 22.2652 15.6054 22.5196 15.7929 22.7071C15.9804 22.8946 16.2348 23 16.5 23C16.7652 23 17.0196 22.8946 17.2071 22.7071C17.3946 22.5196 17.5 22.2652 17.5 22V21C18.0511 20.9496 18.5741 20.7334 19 20.38L20.32 21.71C20.413 21.8037 20.5236 21.8781 20.6454 21.9289C20.7673 21.9797 20.898 22.0058 21.03 22.0058C21.162 22.0058 21.2927 21.9797 21.4146 21.9289C21.5364 21.8781 21.647 21.8037 21.74 21.71C21.8318 21.6151 21.9039 21.5029 21.9521 21.38C22.0003 21.257 22.0237 21.1258 22.0209 20.9937C22.0181 20.8617 21.9892 20.7316 21.9358 20.6108C21.8825 20.49 21.8057 20.381 21.71 20.29ZM10 19H5C4.73478 19 4.48043 18.8946 4.29289 18.7071C4.10536 18.5196 4 18.2652 4 18V4C4 3.73478 4.10536 3.48043 4.29289 3.29289C4.48043 3.10536 4.73478 3 5 3H11V7C11 7.26522 11.1054 7.51957 11.2929 7.70711C11.4804 7.89464 11.7348 8 12 8H17C17.1974 7.99901 17.3901 7.93961 17.5539 7.82928C17.7176 7.71895 17.845 7.56262 17.92 7.38C17.9966 7.19789 18.0175 6.99718 17.9801 6.80319C17.9428 6.6092 17.8488 6.43062 17.71 6.29L12.71 1.29C12.6273 1.21222 12.5328 1.14808 12.43 1.1H12.34C12.2508 1.05615 12.1568 1.0226 12.06 1H5C4.20435 1 3.44129 1.31607 2.87868 1.87868C2.31607 2.44129 2 3.20435 2 4V18C2 18.7956 2.31607 19.5587 2.87868 20.1213C3.44129 20.6839 4.20435 21 5 21H10C10.2652 21 10.5196 20.8946 10.7071 20.7071C10.8946 20.5196 11 20.2652 11 20C11 19.7348 10.8946 19.4804 10.7071 19.2929C10.5196 19.1054 10.2652 19 10 19ZM13 4.41L14.59 6H13V4.41Z" />
</svg>
