<svg width="24" height="24" viewBox="0 0 24 24" xmlns="http://www.w3.org/2000/svg">
<path d="M21 19H14.82C14.6707 18.5806 14.4299 18.1997 14.1151 17.8849C13.8003 17.5701 13.4194 17.3293 13 17.18V15H16C16.7956 15 17.5587 14.6839 18.1213 14.1213C18.6839 13.5587 19 12.7956 19 12V8C19 8 19 8 19 7.94C18.9896 7.84813 18.9695 7.75763 18.94 7.67V7.58C18.8919 7.47718 18.8278 7.38267 18.75 7.3L12.75 1.3C12.6673 1.22222 12.5728 1.15808 12.47 1.11C12.4402 1.10576 12.4099 1.10576 12.38 1.11C12.2784 1.05174 12.1662 1.01434 12.05 1H8C7.20435 1 6.44129 1.31607 5.87868 1.87868C5.31607 2.44129 5 3.20435 5 4V12C5 12.7956 5.31607 13.5587 5.87868 14.1213C6.44129 14.6839 7.20435 15 8 15H11V17.18C10.5806 17.3293 10.1997 17.5701 9.8849 17.8849C9.57011 18.1997 9.32932 18.5806 9.18 19H3C2.73478 19 2.48043 19.1054 2.29289 19.2929C2.10536 19.4804 2 19.7348 2 20C2 20.2652 2.10536 20.5196 2.29289 20.7071C2.48043 20.8946 2.73478 21 3 21H9.18C9.3902 21.5792 9.77363 22.0795 10.2782 22.4332C10.7827 22.7868 11.3839 22.9765 12 22.9765C12.6161 22.9765 13.2173 22.7868 13.7218 22.4332C14.2264 22.0795 14.6098 21.5792 14.82 21H21C21.2652 21 21.5196 20.8946 21.7071 20.7071C21.8946 20.5196 22 20.2652 22 20C22 19.7348 21.8946 19.4804 21.7071 19.2929C21.5196 19.1054 21.2652 19 21 19ZM13 4.41L15.59 7H14C13.7348 7 13.4804 6.89464 13.2929 6.70711C13.1054 6.51957 13 6.26522 13 6V4.41ZM8 13C7.73478 13 7.48043 12.8946 7.29289 12.7071C7.10536 12.5196 7 12.2652 7 12V4C7 3.73478 7.10536 3.48043 7.29289 3.29289C7.48043 3.10536 7.73478 3 8 3H11V6C11 6.79565 11.3161 7.55871 11.8787 8.12132C12.4413 8.68393 13.2044 9 14 9H17V12C17 12.2652 16.8946 12.5196 16.7071 12.7071C16.5196 12.8946 16.2652 13 16 13H8ZM12 21C11.8022 21 11.6089 20.9414 11.4444 20.8315C11.28 20.7216 11.1518 20.5654 11.0761 20.3827C11.0004 20.2 10.9806 19.9989 11.0192 19.8049C11.0578 19.6109 11.153 19.4327 11.2929 19.2929C11.4327 19.153 11.6109 19.0578 11.8049 19.0192C11.9989 18.9806 12.2 19.0004 12.3827 19.0761C12.5654 19.1518 12.7216 19.28 12.8315 19.4444C12.9414 19.6089 13 19.8022 13 20C13 20.2652 12.8946 20.5196 12.7071 20.7071C12.5196 20.8946 12.2652 21 12 21Z" />
</svg>
