<svg width="24" height="24" viewBox="0 0 24 24" xmlns="http://www.w3.org/2000/svg">
<path d="M12.57 16.3C12.5271 16.2492 12.4765 16.2053 12.42 16.17L12.25 16.08L12.06 16C11.8985 15.9691 11.7319 15.9785 11.5749 16.0273C11.418 16.0762 11.2754 16.163 11.16 16.28C11.0665 16.3713 10.9917 16.48 10.94 16.6C10.8909 16.7241 10.8671 16.8567 10.87 16.99C10.8711 17.2524 10.9753 17.5038 11.16 17.69C11.2513 17.7836 11.36 17.8583 11.48 17.91C11.604 17.9591 11.7366 17.9829 11.87 17.98C12 17.9816 12.1291 17.9578 12.25 17.91C12.37 17.8583 12.4787 17.7836 12.57 17.69C12.7584 17.5054 12.8662 17.2538 12.87 16.99C12.8697 16.856 12.8425 16.7233 12.79 16.6C12.7392 16.4853 12.6641 16.383 12.57 16.3ZM11.87 9.00002C11.3431 8.99968 10.8253 9.13814 10.3689 9.40146C9.91248 9.66479 9.53347 10.0437 9.27 10.5C9.19765 10.6138 9.14906 10.7411 9.12717 10.8742C9.10529 11.0073 9.11054 11.1434 9.14263 11.2744C9.17472 11.4054 9.23297 11.5286 9.31388 11.6365C9.3948 11.7444 9.49671 11.8348 9.61347 11.9023C9.73024 11.9698 9.85945 12.0129 9.99333 12.0292C10.1272 12.0455 10.263 12.0345 10.3925 11.9969C10.5221 11.9593 10.6427 11.8959 10.747 11.8105C10.8514 11.7252 10.9375 11.6195 11 11.5C11.1092 11.3074 11.2792 11.1564 11.4834 11.0708C11.6876 10.9852 11.9144 10.9698 12.1283 11.027C12.3422 11.0842 12.5311 11.2107 12.6653 11.3868C12.7996 11.5629 12.8715 11.7786 12.87 12C12.87 12.2652 12.7646 12.5196 12.5771 12.7071C12.3896 12.8947 12.1352 13 11.87 13C11.6048 13 11.3504 13.1054 11.1629 13.2929C10.9754 13.4805 10.87 13.7348 10.87 14C10.87 14.2652 10.9754 14.5196 11.1629 14.7071C11.3504 14.8947 11.6048 15 11.87 15C12.6656 15 13.4287 14.684 13.9913 14.1213C14.5539 13.5587 14.87 12.7957 14.87 12C14.87 11.2044 14.5539 10.4413 13.9913 9.8787C13.4287 9.31609 12.6656 9.00002 11.87 9.00002ZM19 5.50002H12.72L12.4 4.50002C12.1926 3.91325 11.8077 3.40553 11.2989 3.04718C10.7901 2.68884 10.1824 2.49762 9.56 2.50002H5C4.20435 2.50002 3.44129 2.81609 2.87868 3.3787C2.31607 3.94131 2 4.70437 2 5.50002V18.5C2 19.2957 2.31607 20.0587 2.87868 20.6213C3.44129 21.184 4.20435 21.5 5 21.5H19C19.7956 21.5 20.5587 21.184 21.1213 20.6213C21.6839 20.0587 22 19.2957 22 18.5V8.50002C22 7.70437 21.6839 6.94131 21.1213 6.3787C20.5587 5.81609 19.7956 5.50002 19 5.50002ZM20 18.5C20 18.7652 19.8946 19.0196 19.7071 19.2071C19.5196 19.3947 19.2652 19.5 19 19.5H5C4.73478 19.5 4.48043 19.3947 4.29289 19.2071C4.10536 19.0196 4 18.7652 4 18.5V5.50002C4 5.23481 4.10536 4.98045 4.29289 4.79292C4.48043 4.60538 4.73478 4.50002 5 4.50002H9.56C9.76964 4.49948 9.97416 4.56484 10.1446 4.68686C10.3151 4.80889 10.4429 4.9814 10.51 5.18002L11.05 6.82002C11.1171 7.01864 11.2449 7.19116 11.4154 7.31318C11.5858 7.4352 11.7904 7.50056 12 7.50002H19C19.2652 7.50002 19.5196 7.60538 19.7071 7.79292C19.8946 7.98045 20 8.23481 20 8.50002V18.5Z" />
</svg>
