<svg width="24" height="24" viewBox="0 0 24 24" xmlns="http://www.w3.org/2000/svg">
<path d="M12.57 17.29C12.3826 17.1038 12.1292 16.9992 11.865 16.9992C11.6008 16.9992 11.3474 17.1038 11.16 17.29C11.0666 17.3852 10.9919 17.4971 10.94 17.62C10.847 17.8648 10.847 18.1352 10.94 18.38C10.9944 18.5015 11.0687 18.6131 11.16 18.71C11.2522 18.7999 11.3608 18.8713 11.48 18.92C11.6033 18.9725 11.736 18.9997 11.87 19C12.0338 18.9992 12.1949 18.9582 12.3391 18.8805C12.4833 18.8029 12.6062 18.691 12.6971 18.5547C12.7879 18.4184 12.8439 18.2619 12.8601 18.0989C12.8763 17.936 12.8522 17.7715 12.79 17.62C12.7418 17.4952 12.6667 17.3825 12.57 17.29ZM20 8.94C19.9896 8.84813 19.9695 8.75763 19.94 8.67V8.58C19.8919 8.47718 19.8278 8.38267 19.75 8.3L13.75 2.3C13.6673 2.22222 13.5728 2.15808 13.47 2.11H13.38C13.2784 2.05174 13.1662 2.01434 13.05 2H7C6.20435 2 5.44129 2.31607 4.87868 2.87868C4.31607 3.44129 4 4.20435 4 5V19C4 19.7956 4.31607 20.5587 4.87868 21.1213C5.44129 21.6839 6.20435 22 7 22H17C17.7956 22 18.5587 21.6839 19.1213 21.1213C19.6839 20.5587 20 19.7956 20 19V9C20 9 20 9 20 8.94ZM14 5.41L16.59 8H15C14.7348 8 14.4804 7.89464 14.2929 7.70711C14.1054 7.51957 14 7.26522 14 7V5.41ZM18 19C18 19.2652 17.8946 19.5196 17.7071 19.7071C17.5196 19.8946 17.2652 20 17 20H7C6.73478 20 6.48043 19.8946 6.29289 19.7071C6.10536 19.5196 6 19.2652 6 19V5C6 4.73478 6.10536 4.48043 6.29289 4.29289C6.48043 4.10536 6.73478 4 7 4H12V7C12 7.79565 12.3161 8.55871 12.8787 9.12132C13.4413 9.68393 14.2044 10 15 10H18V19ZM11.87 10C11.3431 9.99966 10.8253 10.1381 10.3689 10.4014C9.91248 10.6648 9.53347 11.0437 9.27 11.5C9.19765 11.6138 9.14906 11.7411 9.12717 11.8742C9.10529 12.0073 9.11054 12.1434 9.14263 12.2744C9.17472 12.4054 9.23297 12.5285 9.31388 12.6364C9.3948 12.7443 9.49671 12.8348 9.61347 12.9022C9.73024 12.9697 9.85945 13.0129 9.99333 13.0292C10.1272 13.0454 10.263 13.0345 10.3925 12.9969C10.5221 12.9593 10.6427 12.8959 10.747 12.8105C10.8514 12.7251 10.9375 12.6195 11 12.5C11.0881 12.3474 11.215 12.2208 11.3677 12.133C11.5205 12.0452 11.6938 11.9993 11.87 12C12.1352 12 12.3896 12.1054 12.5771 12.2929C12.7646 12.4804 12.87 12.7348 12.87 13C12.87 13.2652 12.7646 13.5196 12.5771 13.7071C12.3896 13.8946 12.1352 14 11.87 14C11.6048 14 11.3504 14.1054 11.1629 14.2929C10.9754 14.4804 10.87 14.7348 10.87 15C10.87 15.2652 10.9754 15.5196 11.1629 15.7071C11.3504 15.8946 11.6048 16 11.87 16C12.6656 16 13.4287 15.6839 13.9913 15.1213C14.5539 14.5587 14.87 13.7956 14.87 13C14.87 12.2044 14.5539 11.4413 13.9913 10.8787C13.4287 10.3161 12.6656 10 11.87 10Z" />
</svg>
