<svg width="24" height="24" viewBox="0 0 24 24" xmlns="http://www.w3.org/2000/svg">
<path d="M22 10.94C21.9896 10.8481 21.9695 10.7576 21.94 10.67V10.58C21.8919 10.4772 21.8278 10.3827 21.75 10.3L15.75 4.3C15.6673 4.22222 15.5728 4.15808 15.47 4.11H15.37C15.2728 4.058 15.1683 4.02092 15.06 4H5C4.20435 4 3.44129 4.31607 2.87868 4.87868C2.31607 5.44129 2 6.20435 2 7V17C2 17.7956 2.31607 18.5587 2.87868 19.1213C3.44129 19.6839 4.20435 20 5 20H19C19.7956 20 20.5587 19.6839 21.1213 19.1213C21.6839 18.5587 22 17.7956 22 17V11C22 11 22 11 22 10.94ZM16 7.41L18.59 10H17C16.7348 10 16.4804 9.89464 16.2929 9.70711C16.1054 9.51957 16 9.26522 16 9V7.41ZM20 17C20 17.2652 19.8946 17.5196 19.7071 17.7071C19.5196 17.8946 19.2652 18 19 18H5C4.73478 18 4.48043 17.8946 4.29289 17.7071C4.10536 17.5196 4 17.2652 4 17V7C4 6.73478 4.10536 6.48043 4.29289 6.29289C4.48043 6.10536 4.73478 6 5 6H14V9C14 9.79565 14.3161 10.5587 14.8787 11.1213C15.4413 11.6839 16.2044 12 17 12H20V17Z" />
</svg>
