<svg width="24" height="24" viewBox="0 0 24 24" xmlns="http://www.w3.org/2000/svg">
<path d="M10 20H5C4.73478 20 4.48043 19.8946 4.29289 19.7071C4.10536 19.5196 4 19.2652 4 19V5C4 4.73478 4.10536 4.48043 4.29289 4.29289C4.48043 4.10536 4.73478 4 5 4H10V7C10 7.79565 10.3161 8.55871 10.8787 9.12132C11.4413 9.68393 12.2044 10 13 10H17C17.1974 9.99901 17.3901 9.93961 17.5539 9.82928C17.7176 9.71895 17.845 9.56262 17.92 9.38C17.9966 9.19789 18.0175 8.99718 17.9801 8.80319C17.9428 8.6092 17.8488 8.43062 17.71 8.29L11.71 2.29C11.6273 2.21222 11.5328 2.14808 11.43 2.1C11.4002 2.09576 11.3699 2.09576 11.34 2.1L11.06 2H5C4.20435 2 3.44129 2.31607 2.87868 2.87868C2.31607 3.44129 2 4.20435 2 5V19C2 19.7956 2.31607 20.5587 2.87868 21.1213C3.44129 21.6839 4.20435 22 5 22H10C10.2652 22 10.5196 21.8946 10.7071 21.7071C10.8946 21.5196 11 21.2652 11 21C11 20.7348 10.8946 20.4804 10.7071 20.2929C10.5196 20.1054 10.2652 20 10 20ZM12 5.41L14.59 8H13C12.7348 8 12.4804 7.89464 12.2929 7.70711C12.1054 7.51957 12 7.26522 12 7V5.41ZM13 13C13 12.7348 12.8946 12.4804 12.7071 12.2929C12.5196 12.1054 12.2652 12 12 12H7C6.73478 12 6.48043 12.1054 6.29289 12.2929C6.10536 12.4804 6 12.7348 6 13C6 13.2652 6.10536 13.5196 6.29289 13.7071C6.48043 13.8946 6.73478 14 7 14H12C12.2652 14 12.5196 13.8946 12.7071 13.7071C12.8946 13.5196 13 13.2652 13 13ZM7 10H8C8.26522 10 8.51957 9.89464 8.70711 9.70711C8.89464 9.51957 9 9.26522 9 9C9 8.73478 8.89464 8.48043 8.70711 8.29289C8.51957 8.10536 8.26522 8 8 8H7C6.73478 8 6.48043 8.10536 6.29289 8.29289C6.10536 8.48043 6 8.73478 6 9C6 9.26522 6.10536 9.51957 6.29289 9.70711C6.48043 9.89464 6.73478 10 7 10ZM7 16C6.73478 16 6.48043 16.1054 6.29289 16.2929C6.10536 16.4804 6 16.7348 6 17C6 17.2652 6.10536 17.5196 6.29289 17.7071C6.48043 17.8946 6.73478 18 7 18H9C9.26522 18 9.51957 17.8946 9.70711 17.7071C9.89464 17.5196 10 17.2652 10 17C10 16.7348 9.89464 16.4804 9.70711 16.2929C9.51957 16.1054 9.26522 16 9 16H7ZM20 15.18V15C20 14.2044 19.6839 13.4413 19.1213 12.8787C18.5587 12.3161 17.7956 12 17 12C16.2044 12 15.4413 12.3161 14.8787 12.8787C14.3161 13.4413 14 14.2044 14 15V15.18C13.4165 15.3863 12.911 15.7681 12.5529 16.2729C12.1949 16.7778 12.0017 17.3811 12 18V19C12 19.7956 12.3161 20.5587 12.8787 21.1213C13.4413 21.6839 14.2044 22 15 22H19C19.7956 22 20.5587 21.6839 21.1213 21.1213C21.6839 20.5587 22 19.7956 22 19V18C21.9983 17.3811 21.8051 16.7778 21.4471 16.2729C21.089 15.7681 20.5835 15.3863 20 15.18ZM17 14C17.2652 14 17.5196 14.1054 17.7071 14.2929C17.8946 14.4804 18 14.7348 18 15H16C16 14.7348 16.1054 14.4804 16.2929 14.2929C16.4804 14.1054 16.7348 14 17 14ZM20 19C20 19.2652 19.8946 19.5196 19.7071 19.7071C19.5196 19.8946 19.2652 20 19 20H15C14.7348 20 14.4804 19.8946 14.2929 19.7071C14.1054 19.5196 14 19.2652 14 19V18C14 17.7348 14.1054 17.4804 14.2929 17.2929C14.4804 17.1054 14.7348 17 15 17H19C19.2652 17 19.5196 17.1054 19.7071 17.2929C19.8946 17.4804 20 17.7348 20 18V19Z" />
</svg>
