<svg width="24" height="24" viewBox="0 0 24 24" xmlns="http://www.w3.org/2000/svg">
<path d="M13.5 12.5C13.5 12.2348 13.3946 11.9805 13.2071 11.7929C13.0196 11.6054 12.7652 11.5 12.5 11.5H7.5C7.23478 11.5 6.98043 11.6054 6.79289 11.7929C6.60536 11.9805 6.5 12.2348 6.5 12.5C6.5 12.7653 6.60536 13.0196 6.79289 13.2072C6.98043 13.3947 7.23478 13.5 7.5 13.5H12.5C12.7652 13.5 13.0196 13.3947 13.2071 13.2072C13.3946 13.0196 13.5 12.7653 13.5 12.5ZM18.5 17.5C18.0752 17.5014 17.6619 17.638 17.32 17.89L15.57 17.09L17.48 16.21C17.7819 16.3933 18.1269 16.4934 18.48 16.5C18.8756 16.5 19.2622 16.3828 19.5911 16.163C19.92 15.9432 20.1764 15.6309 20.3278 15.2654C20.4791 14.9 20.5187 14.4978 20.4416 14.1099C20.3644 13.7219 20.1739 13.3655 19.8942 13.0858C19.6145 12.8061 19.2581 12.6156 18.8702 12.5385C18.4822 12.4613 18.0801 12.5009 17.7146 12.6523C17.3492 12.8037 17.0368 13.06 16.8171 13.3889C16.5973 13.7178 16.48 14.1045 16.48 14.5L14.59 15.37C14.331 15.1863 14.0321 15.0669 13.7178 15.0216C13.4035 14.9763 13.083 15.0066 12.7827 15.1097C12.4824 15.2129 12.211 15.3861 11.991 15.615C11.7709 15.8439 11.6085 16.1219 11.5172 16.426C11.4259 16.7301 11.4083 17.0516 11.4658 17.3638C11.5234 17.6761 11.6545 17.9701 11.8483 18.2217C12.042 18.4732 12.2929 18.675 12.5801 18.8104C12.8673 18.9457 13.1827 19.0107 13.5 19C13.8222 19.0002 14.139 18.9176 14.42 18.76L16.52 19.76C16.5643 20.1427 16.7182 20.5044 16.9631 20.8017C17.208 21.099 17.5335 21.3192 17.9006 21.4359C18.2677 21.5527 18.6607 21.5609 19.0323 21.4597C19.4039 21.3585 19.7385 21.1521 19.9956 20.8654C20.2528 20.5786 20.4217 20.2237 20.482 19.8432C20.5424 19.4628 20.4916 19.0731 20.3357 18.7208C20.1799 18.3686 19.9256 18.0688 19.6035 17.8576C19.2814 17.6463 18.9052 17.5326 18.52 17.53L18.5 17.5ZM10.5 19.5H5.5C5.23478 19.5 4.98043 19.3947 4.79289 19.2072C4.60536 19.0196 4.5 18.7653 4.5 18.5V4.50005C4.5 4.23483 4.60536 3.98048 4.79289 3.79294C4.98043 3.60541 5.23478 3.50005 5.5 3.50005H10.5V6.50005C10.5 7.2957 10.8161 8.05876 11.3787 8.62137C11.9413 9.18398 12.7044 9.50005 13.5 9.50005H16.5C16.5 9.76527 16.6054 10.0196 16.7929 10.2072C16.9804 10.3947 17.2348 10.5 17.5 10.5C17.7652 10.5 18.0196 10.3947 18.2071 10.2072C18.3946 10.0196 18.5 9.76527 18.5 9.50005V8.50005C18.5 8.50005 18.5 8.50005 18.5 8.44005C18.4896 8.34818 18.4695 8.25768 18.44 8.17005V8.08005C18.3919 7.97723 18.3278 7.88271 18.25 7.80005L12.25 1.80005C12.1673 1.72227 12.0728 1.65813 11.97 1.61005C11.9369 1.60426 11.9031 1.60426 11.87 1.61005C11.7861 1.57957 11.6988 1.55942 11.61 1.55005H5.5C4.70435 1.55005 3.94129 1.86612 3.37868 2.42873C2.81607 2.99134 2.5 3.7544 2.5 4.55005V18.55C2.5 19.3457 2.81607 20.1088 3.37868 20.6714C3.94129 21.234 4.70435 21.55 5.5 21.55H10.5C10.7652 21.55 11.0196 21.4447 11.2071 21.2572C11.3946 21.0696 11.5 20.8153 11.5 20.55C11.5 20.2848 11.3946 20.0305 11.2071 19.8429C11.0196 19.6554 10.7652 19.55 10.5 19.55V19.5ZM12.5 4.91005L15.09 7.50005H13.5C13.2348 7.50005 12.9804 7.39469 12.7929 7.20716C12.6054 7.01962 12.5 6.76526 12.5 6.50005V4.91005ZM7.5 15.5C7.23478 15.5 6.98043 15.6054 6.79289 15.7929C6.60536 15.9805 6.5 16.2348 6.5 16.5C6.5 16.7653 6.60536 17.0196 6.79289 17.2072C6.98043 17.3947 7.23478 17.5 7.5 17.5H8.5C8.76522 17.5 9.01957 17.3947 9.20711 17.2072C9.39464 17.0196 9.5 16.7653 9.5 16.5C9.5 16.2348 9.39464 15.9805 9.20711 15.7929C9.01957 15.6054 8.76522 15.5 8.5 15.5H7.5ZM7.5 9.50005H8.5C8.76522 9.50005 9.01957 9.39469 9.20711 9.20716C9.39464 9.01962 9.5 8.76526 9.5 8.50005C9.5 8.23483 9.39464 7.98048 9.20711 7.79294C9.01957 7.60541 8.76522 7.50005 8.5 7.50005H7.5C7.23478 7.50005 6.98043 7.60541 6.79289 7.79294C6.60536 7.98048 6.5 8.23483 6.5 8.50005C6.5 8.76526 6.60536 9.01962 6.79289 9.20716C6.98043 9.39469 7.23478 9.50005 7.5 9.50005Z" />
</svg>
