<svg width="24" height="24" viewBox="0 0 24 24" xmlns="http://www.w3.org/2000/svg">
<path d="M9 9C8.80222 9 8.60888 9.05865 8.44443 9.16853C8.27998 9.27841 8.15181 9.43459 8.07612 9.61732C8.00044 9.80004 7.98063 10.0011 8.01922 10.1951C8.0578 10.3891 8.15305 10.5673 8.2929 10.7071C8.43275 10.847 8.61093 10.9422 8.80491 10.9808C8.9989 11.0194 9.19996 10.9996 9.38269 10.9239C9.56541 10.8482 9.72159 10.72 9.83147 10.5556C9.94136 10.3911 10 10.1978 10 10C10 9.73478 9.89465 9.48043 9.70711 9.29289C9.51957 9.10536 9.26522 9 9 9ZM15 13C14.1086 13 13.2335 13.2382 12.4651 13.6901C11.6968 14.1419 11.0632 14.791 10.63 15.57C10.4996 15.7996 10.4654 16.0715 10.5347 16.3263C10.604 16.581 10.7713 16.7981 11 16.93C11.1495 17.0147 11.3182 17.0595 11.49 17.06C11.6672 17.0597 11.8411 17.0123 11.994 16.9227C12.1469 16.8331 12.2732 16.7045 12.36 16.55C12.6204 16.0784 13.0029 15.6856 13.4674 15.4129C13.9319 15.1402 14.4613 14.9975 15 15C15.2652 15 15.5196 14.8946 15.7071 14.7071C15.8946 14.5196 16 14.2652 16 14C16 13.7348 15.8946 13.4804 15.7071 13.2929C15.5196 13.1054 15.2652 13 15 13ZM15 9C14.8022 9 14.6089 9.05865 14.4444 9.16853C14.28 9.27841 14.1518 9.43459 14.0761 9.61732C14.0004 9.80004 13.9806 10.0011 14.0192 10.1951C14.0578 10.3891 14.153 10.5673 14.2929 10.7071C14.4328 10.847 14.6109 10.9422 14.8049 10.9808C14.9989 11.0194 15.2 10.9996 15.3827 10.9239C15.5654 10.8482 15.7216 10.72 15.8315 10.5556C15.9414 10.3911 16 10.1978 16 10C16 9.73478 15.8946 9.48043 15.7071 9.29289C15.5196 9.10536 15.2652 9 15 9ZM12 2C10.0222 2 8.08879 2.58649 6.4443 3.6853C4.79981 4.78412 3.51809 6.3459 2.76121 8.17317C2.00433 10.0004 1.8063 12.0111 2.19215 13.9509C2.578 15.8907 3.53041 17.6725 4.92894 19.0711C6.32746 20.4696 8.10929 21.422 10.0491 21.8079C11.9889 22.1937 13.9996 21.9957 15.8268 21.2388C17.6541 20.4819 19.2159 19.2002 20.3147 17.5557C21.4135 15.9112 22 13.9778 22 12C22 10.6868 21.7413 9.38642 21.2388 8.17317C20.7363 6.95991 19.9997 5.85752 19.0711 4.92893C18.1425 4.00035 17.0401 3.26375 15.8268 2.7612C14.6136 2.25866 13.3132 2 12 2ZM12 20C10.4178 20 8.87104 19.5308 7.55544 18.6518C6.23985 17.7727 5.21447 16.5233 4.60897 15.0615C4.00347 13.5997 3.84504 11.9911 4.15372 10.4393C4.4624 8.88743 5.22433 7.46197 6.34315 6.34315C7.46197 5.22433 8.88743 4.4624 10.4393 4.15372C11.9911 3.84504 13.5997 4.00346 15.0615 4.60896C16.5233 5.21447 17.7727 6.23984 18.6518 7.55544C19.5308 8.87103 20 10.4177 20 12C20 14.1217 19.1572 16.1566 17.6569 17.6569C16.1566 19.1571 14.1217 20 12 20Z" />
</svg>
