<svg width="24" height="24" viewBox="0 0 24 24" xmlns="http://www.w3.org/2000/svg">
<path d="M12.0003 2C9.65347 2.00682 7.38382 2.8388 5.5886 4.35031C3.79338 5.86182 2.58694 7.95656 2.18046 10.2679C1.77398 12.5792 2.19335 14.9599 3.36517 16.9932C4.53699 19.0265 6.3866 20.5829 8.59026 21.39H8.65026C10.8144 22.1763 13.1861 22.1763 15.3503 21.39H15.4103C17.6139 20.5829 19.4635 19.0265 20.6354 16.9932C21.8072 14.9599 22.2265 12.5792 21.8201 10.2679C21.4136 7.95656 20.2071 5.86182 18.4119 4.35031C16.6167 2.8388 14.3471 2.00682 12.0003 2ZM14.0003 19.74C12.6895 20.0868 11.311 20.0868 10.0003 19.74V16H14.0003V19.74ZM16.0003 18.92V11C16.2655 11 16.5198 10.8946 16.7074 10.7071C16.8949 10.5196 17.0003 10.2652 17.0003 10C17.0003 9.73478 16.8949 9.48043 16.7074 9.29289C16.5198 9.10536 16.2655 9 16.0003 9H14.0003C13.735 9 13.4807 9.10536 13.2932 9.29289C13.1056 9.48043 13.0003 9.73478 13.0003 10C13.0003 10.2652 13.1056 10.5196 13.2932 10.7071C13.4807 10.8946 13.735 11 14.0003 11V14H10.0003V11C10.2655 11 10.5198 10.8946 10.7074 10.7071C10.8949 10.5196 11.0003 10.2652 11.0003 10C11.0003 9.73478 10.8949 9.48043 10.7074 9.29289C10.5198 9.10536 10.2655 9 10.0003 9H8.00026C7.73504 9 7.48069 9.10536 7.29315 9.29289C7.10562 9.48043 7.00026 9.73478 7.00026 10C7.00026 10.2652 7.10562 10.5196 7.29315 10.7071C7.48069 10.8946 7.73504 11 8.00026 11V18.92C6.47513 18.0395 5.28316 16.6803 4.60922 15.0533C3.93529 13.4262 3.81705 11.6223 4.27285 9.92124C4.72865 8.22018 5.73302 6.71704 7.13017 5.64497C8.52732 4.5729 10.2392 3.9918 12.0003 3.9918C13.7613 3.9918 15.4732 4.5729 16.8704 5.64497C18.2675 6.71704 19.2719 8.22018 19.7277 9.92124C20.1835 11.6223 20.0652 13.4262 19.3913 15.0533C18.7174 16.6803 17.5254 18.0395 16.0003 18.92Z" />
</svg>
