<svg width="24" height="24" viewBox="0 0 24 24" xmlns="http://www.w3.org/2000/svg">
<path d="M7.66 12.21C7.75344 12.3027 7.86426 12.376 7.9861 12.4258C8.10794 12.4755 8.2384 12.5008 8.37 12.5C8.50161 12.5008 8.63207 12.4755 8.75391 12.4258C8.87575 12.376 8.98656 12.3027 9.08 12.21L10.58 10.71C10.6737 10.617 10.7481 10.5064 10.7989 10.3846C10.8497 10.2627 10.8758 10.132 10.8758 10C10.8758 9.86799 10.8497 9.73728 10.7989 9.61542C10.7481 9.49356 10.6737 9.38296 10.58 9.29L9.08 7.79C8.8917 7.6017 8.63631 7.49591 8.37 7.49591C8.1037 7.49591 7.84831 7.6017 7.66 7.79C7.4717 7.9783 7.36591 8.2337 7.36591 8.5C7.36591 8.7663 7.4717 9.0217 7.66 9.21L8.46 10L7.66 10.79C7.56628 10.883 7.49188 10.9936 7.44111 11.1154C7.39034 11.2373 7.36421 11.368 7.36421 11.5C7.36421 11.632 7.39034 11.7627 7.44111 11.8846C7.49188 12.0064 7.56628 12.117 7.66 12.21ZM15.16 12.21C15.2534 12.3027 15.3643 12.376 15.4861 12.4258C15.6079 12.4755 15.7384 12.5008 15.87 12.5C16.0016 12.5008 16.1321 12.4755 16.2539 12.4258C16.3757 12.376 16.4866 12.3027 16.58 12.21C16.6737 12.117 16.7481 12.0064 16.7989 11.8846C16.8497 11.7627 16.8758 11.632 16.8758 11.5C16.8758 11.368 16.8497 11.2373 16.7989 11.1154C16.7481 10.9936 16.6737 10.883 16.58 10.79L15.79 10L16.58 9.21C16.6732 9.11676 16.7472 9.00607 16.7977 8.88425C16.8481 8.76243 16.8741 8.63186 16.8741 8.5C16.8741 8.36814 16.8481 8.23757 16.7977 8.11575C16.7472 7.99393 16.6732 7.88324 16.58 7.79C16.4868 7.69676 16.3761 7.6228 16.2543 7.57234C16.1324 7.52188 16.0019 7.49591 15.87 7.49591C15.7381 7.49591 15.6076 7.52188 15.4858 7.57234C15.3639 7.6228 15.2532 7.69676 15.16 7.79L13.66 9.29C13.5663 9.38296 13.4919 9.49356 13.4411 9.61542C13.3903 9.73728 13.3642 9.86799 13.3642 10C13.3642 10.132 13.3903 10.2627 13.4411 10.3846C13.4919 10.5064 13.5663 10.617 13.66 10.71L15.16 12.21ZM15.27 14.21C15.0969 14.0802 14.8864 14.01 14.67 14.01C14.4536 14.01 14.2431 14.0802 14.07 14.21L13.33 14.76L12.6 14.21C12.4269 14.0802 12.2164 14.01 12 14.01C11.7836 14.01 11.5731 14.0802 11.4 14.21L10.67 14.76L9.93 14.21C9.75691 14.0802 9.54637 14.01 9.33 14.01C9.11363 14.01 8.9031 14.0802 8.73 14.21L7.4 15.21C7.29495 15.2888 7.20644 15.3875 7.13953 15.5005C7.07262 15.6135 7.02863 15.7386 7.01005 15.8686C6.97255 16.1311 7.04087 16.3978 7.2 16.61C7.35913 16.8222 7.59603 16.9624 7.85858 17C8.12113 17.0375 8.38783 16.9691 8.6 16.81L9.33 16.26L10.07 16.81C10.1079 16.834 10.1481 16.8541 10.19 16.87C10.2592 16.9069 10.3333 16.9339 10.41 16.95H10.54H10.77H10.89C11.008 16.9152 11.1195 16.8611 11.22 16.79L11.95 16.24L12.68 16.79C12.8221 16.8951 12.9895 16.9606 13.1652 16.9799C13.3408 16.9992 13.5185 16.9717 13.68 16.9L13.78 16.85C13.8197 16.8361 13.8568 16.8158 13.89 16.79L14.63 16.24L15.36 16.79C15.5331 16.9198 15.7436 16.99 15.96 16.99C16.1152 16.99 16.2684 16.9539 16.4072 16.8844C16.5461 16.815 16.6669 16.7142 16.76 16.59C16.8388 16.4849 16.8961 16.3654 16.9287 16.2382C16.9613 16.111 16.9685 15.9786 16.95 15.8486C16.9314 15.7186 16.8874 15.5935 16.8205 15.4805C16.7536 15.3675 16.6651 15.2688 16.56 15.19L15.27 14.21ZM12 2C10.0222 2 8.08879 2.58649 6.4443 3.6853C4.79981 4.78412 3.51809 6.3459 2.76121 8.17317C2.00433 10.0004 1.8063 12.0111 2.19215 13.9509C2.578 15.8907 3.53041 17.6725 4.92894 19.0711C6.32746 20.4696 8.10929 21.422 10.0491 21.8079C11.9889 22.1937 13.9996 21.9957 15.8268 21.2388C17.6541 20.4819 19.2159 19.2002 20.3147 17.5557C21.4135 15.9112 22 13.9778 22 12C22 10.6868 21.7413 9.38642 21.2388 8.17317C20.7363 6.95991 19.9997 5.85752 19.0711 4.92893C18.1425 4.00035 17.0401 3.26375 15.8268 2.7612C14.6136 2.25866 13.3132 2 12 2ZM12 20C10.4178 20 8.87104 19.5308 7.55544 18.6518C6.23985 17.7727 5.21447 16.5233 4.60897 15.0615C4.00347 13.5997 3.84504 11.9911 4.15372 10.4393C4.4624 8.88743 5.22433 7.46197 6.34315 6.34315C7.46197 5.22433 8.88743 4.4624 10.4393 4.15372C11.9911 3.84504 13.5997 4.00346 15.0615 4.60896C16.5233 5.21447 17.7727 6.23984 18.6518 7.55544C19.5308 8.87103 20 10.4177 20 12C20 14.1217 19.1572 16.1566 17.6569 17.6569C16.1566 19.1571 14.1217 20 12 20Z" />
</svg>
