<svg width="24" height="24" viewBox="0 0 24 24" xmlns="http://www.w3.org/2000/svg">
<path d="M11.9995 2C10.3273 2.00171 8.68211 2.42276 7.21464 3.22463C5.74716 4.0265 4.50421 5.18359 3.59952 6.59C2.32708 8.58555 1.80366 10.9677 2.12234 13.3129C2.44102 15.658 3.58114 17.8142 5.33994 19.3978C7.09875 20.9815 9.36223 21.89 11.7279 21.9618C14.0935 22.0336 16.4079 21.264 18.2595 19.79C19.8711 18.4929 21.0406 16.7278 21.6071 14.7382C22.1736 12.7485 22.109 10.6321 21.4223 8.68067C20.7356 6.72923 19.4606 5.03878 17.773 3.84228C16.0854 2.64578 14.0682 2.00212 11.9995 2ZM13.9995 4.26C15.3814 4.61769 16.6423 5.33858 17.6516 6.34789C18.6609 7.3572 19.3818 8.61817 19.7395 10C18.0675 10.0471 16.4355 10.5222 14.9995 11.38C14.2784 10.562 13.4741 9.82132 12.5995 9.17C13.4807 7.68096 13.9628 5.98983 13.9995 4.26ZM11.9995 4C11.9962 5.43503 11.6021 6.84205 10.8595 8.07C10.7095 7.99 10.5695 7.9 10.4195 7.83C9.13188 7.15059 7.75505 6.65574 6.32952 6.36C7.07256 5.61252 7.95599 5.01923 8.92903 4.61423C9.90207 4.20922 10.9456 4.00048 11.9995 4ZM4.99952 8.16C6.56793 8.37788 8.08693 8.86504 9.48952 9.6L9.61952 9.68C8.88143 10.4174 8.00508 11.0019 7.04069 11.4C6.07631 11.7981 5.04284 12.002 3.99952 12C4.00508 10.6563 4.34899 9.33571 4.99952 8.16ZM9.99952 19.74C8.61768 19.3823 7.35671 18.6614 6.3474 17.6521C5.33809 16.6428 4.61721 15.3818 4.25952 14C5.59517 13.9703 6.911 13.6707 8.12777 13.119C9.34453 12.5673 10.437 11.7751 11.3395 10.79C12.0624 11.3244 12.7322 11.9272 13.3395 12.59C12.3269 13.4929 11.5086 14.5924 10.9344 15.8216C10.3602 17.0508 10.0421 18.384 9.99952 19.74ZM11.9995 20C12.0017 18.9014 12.2301 17.815 12.6705 16.8085C13.111 15.802 13.754 14.8971 14.5595 14.15C14.6195 14.23 14.6795 14.3 14.7295 14.38C15.5675 15.6632 16.1891 17.0753 16.5695 18.56C15.2311 19.4997 13.6349 20.0027 11.9995 20ZM18.2095 17C17.7752 15.677 17.1701 14.4163 16.4095 13.25L16.1995 13C17.3622 12.3532 18.669 12.0093 19.9995 12C19.9896 13.8219 19.3581 15.5858 18.2095 17Z" />
</svg>
