<svg width="24" height="24" viewBox="0 0 24 24" xmlns="http://www.w3.org/2000/svg">
<path d="M21.1203 16.88C20.6821 16.4453 20.1205 16.1563 19.512 16.0525C18.9035 15.9487 18.2779 16.0351 17.7203 16.3L16.5703 15.16C18.9264 12.6176 20.7039 9.59491 21.7803 6.29999C21.9846 5.73076 22.0229 5.11518 21.8906 4.52503C21.7584 3.93489 21.4611 3.39449 21.0335 2.96685C20.6058 2.5392 20.0654 2.24193 19.4753 2.1097C18.8851 1.97747 18.2696 2.01572 17.7003 2.21999C14.4054 3.29646 11.3828 5.07388 8.84032 7.42999L7.70032 6.27999C7.93716 5.78309 8.03271 5.2306 7.97652 4.68301C7.92032 4.13542 7.71455 3.61385 7.38173 3.1754C7.04891 2.73695 6.60188 2.39852 6.08957 2.19717C5.57725 1.99581 5.01942 1.9393 4.47713 2.0338C3.93484 2.12831 3.42901 2.3702 3.01501 2.73298C2.60101 3.09577 2.29481 3.56547 2.12993 4.09066C1.96505 4.61584 1.94784 5.17627 2.0802 5.71058C2.21255 6.2449 2.48936 6.73249 2.88032 7.11999C3.44239 7.68276 4.20494 7.99929 5.00032 7.99999C5.44392 7.99586 5.88109 7.8934 6.28032 7.69999L7.43032 8.83999C5.07421 11.3824 3.29679 14.4051 2.22032 17.7C2.03283 18.2684 2.00646 18.8777 2.14415 19.4602C2.28183 20.0427 2.57818 20.5757 3.00032 21C3.28619 21.3048 3.62949 21.55 4.01049 21.7216C4.39148 21.8933 4.80264 21.9879 5.22032 22C5.58671 21.9965 5.9506 21.9393 6.30032 21.83C9.59524 20.7535 12.6179 18.9761 15.1603 16.62L16.3003 17.77C16.0635 18.2669 15.9679 18.8194 16.0241 19.367C16.0803 19.9146 16.2861 20.4361 16.6189 20.8746C16.9517 21.313 17.3988 21.6515 17.9111 21.8528C18.4234 22.0542 18.9812 22.1107 19.5235 22.0162C20.0658 21.9217 20.5716 21.6798 20.9856 21.317C21.3996 20.9542 21.7058 20.4845 21.8707 19.9593C22.0356 19.4341 22.0528 18.8737 21.9205 18.3394C21.7881 17.8051 21.5113 17.3175 21.1203 16.93V16.88ZM5.71032 5.69999C5.52335 5.8883 5.26922 5.99461 5.00386 5.99555C4.7385 5.99649 4.48363 5.89197 4.29532 5.70499C4.10702 5.51802 4.00071 5.26389 3.99977 4.99853C3.99883 4.73317 4.10335 4.4783 4.29032 4.28999C4.4773 4.10169 4.73142 3.99538 4.99679 3.99444C5.26215 3.9935 5.51702 4.09802 5.70532 4.28499C5.89363 4.47197 5.99994 4.72609 6.00088 4.99146C6.00182 5.25682 5.8973 5.51169 5.71032 5.69999ZM18.3103 4.12999C18.4621 4.08 18.6205 4.05304 18.7803 4.04999C18.9343 4.04874 19.087 4.07815 19.2295 4.13653C19.372 4.1949 19.5015 4.28107 19.6103 4.38999C19.7733 4.55922 19.8844 4.77159 19.9305 5.00197C19.9765 5.23235 19.9557 5.4711 19.8703 5.68999C19.342 7.31379 18.6273 8.87085 17.7403 10.33L13.6703 6.25999C15.1295 5.37304 16.6865 4.65827 18.3103 4.12999ZM5.69032 19.87C5.47225 19.9573 5.23335 19.9787 5.00325 19.9314C4.77315 19.8842 4.56196 19.7706 4.39586 19.6045C4.22977 19.4384 4.11607 19.2272 4.06887 18.9971C4.02167 18.767 4.04303 18.5281 4.13032 18.31C4.6586 16.6862 5.37337 15.1291 6.26032 13.67L10.3303 17.74C8.87118 18.6269 7.31412 19.3417 5.69032 19.87ZM12.0003 16.59L7.41032 12C7.85596 11.3952 8.33329 10.8144 8.84032 10.26L13.7503 15.17C13.1925 15.6739 12.6083 16.1479 12.0003 16.59ZM15.1503 13.75L10.2503 8.83999C10.8079 8.33268 11.3921 7.85534 12.0003 7.40999L16.6003 12.01C16.1514 12.6151 15.6708 13.1959 15.1603 13.75H15.1503ZM19.7003 19.75C19.6077 19.8432 19.4977 19.9173 19.3765 19.968C19.2553 20.0187 19.1253 20.0451 18.9939 20.0456C18.8625 20.046 18.7323 20.0206 18.6107 19.9707C18.4891 19.9209 18.3786 19.8476 18.2853 19.755C18.1921 19.6624 18.118 19.5524 18.0673 19.4312C18.0166 19.3099 17.9902 19.1799 17.9898 19.0485C17.9893 18.9171 18.0147 18.7869 18.0646 18.6654C18.1144 18.5438 18.1877 18.4332 18.2803 18.34C18.4677 18.1537 18.7211 18.0492 18.9853 18.0492C19.2495 18.0492 19.503 18.1537 19.6903 18.34C19.8674 18.5229 19.9681 18.7665 19.9718 19.021C19.9755 19.2756 19.882 19.522 19.7103 19.71L19.7003 19.75Z" />
</svg>
