<svg width="24" height="24" viewBox="0 0 24 24" xmlns="http://www.w3.org/2000/svg">
<path d="M15 14C14.8022 14 14.6089 14.0586 14.4444 14.1685C14.28 14.2784 14.1518 14.4346 14.0761 14.6173C14.0004 14.8 13.9806 15.0011 14.0192 15.1951C14.0578 15.3891 14.153 15.5673 14.2929 15.7071C14.4327 15.847 14.6109 15.9422 14.8049 15.9808C14.9989 16.0194 15.2 15.9996 15.3827 15.9239C15.5654 15.8482 15.7216 15.72 15.8315 15.5556C15.9414 15.3911 16 15.1978 16 15C16 14.7348 15.8946 14.4804 15.7071 14.2929C15.5196 14.1054 15.2652 14 15 14ZM9 8C8.80222 8 8.60888 8.05865 8.44443 8.16853C8.27998 8.27841 8.15181 8.43459 8.07612 8.61732C8.00043 8.80004 7.98063 9.00111 8.01921 9.19509C8.0578 9.38907 8.15304 9.56725 8.29289 9.70711C8.43275 9.84696 8.61093 9.9422 8.80491 9.98079C8.99889 10.0194 9.19996 9.99957 9.38268 9.92388C9.56541 9.84819 9.72159 9.72002 9.83147 9.55557C9.94135 9.39112 10 9.19778 10 9C10 8.73478 9.89464 8.48043 9.70711 8.29289C9.51957 8.10536 9.26522 8 9 8ZM9 14C8.80222 14 8.60888 14.0586 8.44443 14.1685C8.27998 14.2784 8.15181 14.4346 8.07612 14.6173C8.00043 14.8 7.98063 15.0011 8.01921 15.1951C8.0578 15.3891 8.15304 15.5673 8.29289 15.7071C8.43275 15.847 8.61093 15.9422 8.80491 15.9808C8.99889 16.0194 9.19996 15.9996 9.38268 15.9239C9.56541 15.8482 9.72159 15.72 9.83147 15.5556C9.94135 15.3911 10 15.1978 10 15C10 14.7348 9.89464 14.4804 9.70711 14.2929C9.51957 14.1054 9.26522 14 9 14ZM15 8C14.8022 8 14.6089 8.05865 14.4444 8.16853C14.28 8.27841 14.1518 8.43459 14.0761 8.61732C14.0004 8.80004 13.9806 9.00111 14.0192 9.19509C14.0578 9.38907 14.153 9.56725 14.2929 9.70711C14.4327 9.84696 14.6109 9.9422 14.8049 9.98079C14.9989 10.0194 15.2 9.99957 15.3827 9.92388C15.5654 9.84819 15.7216 9.72002 15.8315 9.55557C15.9414 9.39112 16 9.19778 16 9C16 8.73478 15.8946 8.48043 15.7071 8.29289C15.5196 8.10536 15.2652 8 15 8ZM17 2H7C5.67392 2 4.40215 2.52678 3.46447 3.46447C2.52678 4.40215 2 5.67392 2 7V17C2 18.3261 2.52678 19.5979 3.46447 20.5355C4.40215 21.4732 5.67392 22 7 22H17C18.3261 22 19.5979 21.4732 20.5355 20.5355C21.4732 19.5979 22 18.3261 22 17V7C22 5.67392 21.4732 4.40215 20.5355 3.46447C19.5979 2.52678 18.3261 2 17 2ZM20 17C20 17.7956 19.6839 18.5587 19.1213 19.1213C18.5587 19.6839 17.7956 20 17 20H7C6.20435 20 5.44129 19.6839 4.87868 19.1213C4.31607 18.5587 4 17.7956 4 17V7C4 6.20435 4.31607 5.44129 4.87868 4.87868C5.44129 4.31607 6.20435 4 7 4H17C17.7956 4 18.5587 4.31607 19.1213 4.87868C19.6839 5.44129 20 6.20435 20 7V17Z" />
</svg>
