<svg width="24" height="24" viewBox="0 0 24 24" xmlns="http://www.w3.org/2000/svg">
<path d="M20.07 6.10996C18.9817 4.60734 17.4912 3.44264 15.77 2.74996C14.2526 2.13232 12.6067 1.89696 10.977 2.06455C9.3473 2.23215 7.78375 2.79757 6.42381 3.71111C5.06387 4.62465 3.94921 5.85832 3.17783 7.30364C2.40645 8.74897 2.00199 10.3617 2 12C2 12.19 2 12.38 2 12.56C2.08726 14.1241 2.54299 15.6454 3.33 17C4.61526 19.2558 6.72747 20.9233 9.22 21.65C10.1259 21.8951 11.0616 22.0129 12 22C12.6311 22.0029 13.2609 21.9426 13.88 21.82C15.9226 21.4246 17.7911 20.4019 19.2251 18.8944C20.659 17.387 21.5871 15.4698 21.88 13.41C21.9551 12.9436 21.9953 12.4723 22 12C22.0087 9.87987 21.3317 7.81379 20.07 6.10996ZM18.07 6.87996L17 9.73996L15.38 10.18L13 8.48996V6.63996L15.49 4.82996C16.5004 5.3172 17.394 6.0164 18.11 6.87996H18.07ZM14 11.67L13.22 14H10.77L10 11.67L12 10.24L14 11.67ZM12 3.99996C12.3716 4.00414 12.7425 4.03421 13.11 4.08996L12 4.88996L10.89 4.08996C11.2575 4.03421 11.6284 4.00414 12 3.99996ZM4.88 8.36996L5.28 9.68996L4.15 10.48C4.29195 9.74554 4.53775 9.03508 4.88 8.36996ZM6.25 17.54L7.63 17.59L8 18.92C7.35742 18.5405 6.76881 18.0764 6.25 17.54ZM8 15.6L4.85 15.49C4.45256 14.7094 4.1889 13.8677 4.07 13L6.56 11.26L8 11.88L8.89 14.64L8 15.6ZM8.86 10.07L7.3 9.36996L6.39 6.36996C7.00337 5.74351 7.71637 5.22312 8.5 4.82996L11 6.63996V8.48996L8.86 10.07ZM13 19.93C12.1227 20.034 11.2342 19.9935 10.37 19.81L9.54 16.89L10.37 16H13.44L14.11 17L13 19.93ZM15.41 19.23L15.87 18L17.23 18.07C16.6705 18.5411 16.0478 18.9316 15.38 19.23H15.41ZM18.87 16.11L15.76 16L15.05 14.9L15.94 12.14L17.45 11.73L19.81 13.73C19.6198 14.5712 19.2921 15.3754 18.84 16.11H18.87ZM18.92 10.28L19.4 8.99996C19.6816 9.67966 19.8602 10.3976 19.93 11.13L18.92 10.28Z" />
</svg>
