<svg width="24" height="24" viewBox="0 0 24 24" xmlns="http://www.w3.org/2000/svg">
<path d="M11.9996 2C10.06 2.00369 8.16344 2.57131 6.54079 3.63374C4.91814 4.69617 3.63946 6.20754 2.8605 7.98377C2.08155 9.76 1.83594 11.7244 2.15359 13.6378C2.47124 15.5511 3.33844 17.3308 4.64956 18.76L4.73956 18.86C5.67401 19.8465 6.79972 20.6322 8.04795 21.1692C9.29617 21.7061 10.6407 21.9831 11.9996 21.9831C13.3584 21.9831 14.7029 21.7061 15.9512 21.1692C17.1994 20.6322 18.3251 19.8465 19.2596 18.86L19.3496 18.76C20.6607 17.3308 21.5279 15.5511 21.8455 13.6378C22.1632 11.7244 21.9176 9.76 21.1386 7.98377C20.3597 6.20754 19.081 4.69617 17.4583 3.63374C15.8357 2.57131 13.9391 2.00369 11.9996 2ZM5.60956 16.79C4.56486 15.4116 3.99943 13.7295 3.99943 12C3.99943 10.2705 4.56486 8.58836 5.60956 7.21C6.35094 7.76925 6.95239 8.49297 7.36654 9.32416C7.7807 10.1554 7.99627 11.0713 7.99627 12C7.99627 12.9287 7.7807 13.8446 7.36654 14.6758C6.95239 15.507 6.35094 16.2307 5.60956 16.79ZM11.9996 20C10.1789 20.003 8.41285 19.3779 6.99956 18.23C7.93032 17.4802 8.68125 16.5314 9.19717 15.4533C9.71309 14.3752 9.98089 13.1952 9.98089 12C9.98089 10.8048 9.71309 9.6248 9.19717 8.5467C8.68125 7.46859 7.93032 6.51978 6.99956 5.77C8.41458 4.62532 10.1795 4.00082 11.9996 4.00082C13.8196 4.00082 15.5845 4.62532 16.9996 5.77C16.0688 6.51978 15.3179 7.46859 14.802 8.5467C14.286 9.6248 14.0182 10.8048 14.0182 12C14.0182 13.1952 14.286 14.3752 14.802 15.4533C15.3179 16.5314 16.0688 17.4802 16.9996 18.23C15.5863 19.3779 13.8203 20.003 11.9996 20ZM18.3896 16.79C17.6482 16.2307 17.0467 15.507 16.6326 14.6758C16.2184 13.8446 16.0029 12.9287 16.0029 12C16.0029 11.0713 16.2184 10.1554 16.6326 9.32416C17.0467 8.49297 17.6482 7.76925 18.3896 7.21C19.4343 8.58836 19.9997 10.2705 19.9997 12C19.9997 13.7295 19.4343 15.4116 18.3896 16.79Z" />
</svg>
