<svg width="189" height="34" viewBox="0 0 189 34" fill="none" xmlns="http://www.w3.org/2000/svg">
<g clip-path="url(#clip0_8626_162781)">
<path d="M17.54 12.75C13.9998 12.75 11.2925 9.9875 11.2925 6.375C11.2925 2.7625 13.9998 0 17.54 0C21.0803 0 23.7875 2.7625 23.7875 6.375C23.7875 9.9875 21.0803 12.75 17.54 12.75Z" fill="#1F2A33"/>
<path d="M21.705 34H13.375V25.5L9.20999 21.25V14.875H25.87V21.25L21.705 25.5V34Z" fill="#1F2A33"/>
<path d="M5.04501 10.625C2.75426 10.625 0.880005 8.71247 0.880005 6.37497C0.880005 4.03747 2.75426 2.12497 5.04501 2.12497C7.33576 2.12497 9.21001 4.03747 9.21001 6.37497C9.21001 8.71247 7.33576 10.625 5.04501 10.625Z" fill="#1F2A33"/>
<path d="M7.12751 22.1V12.75H0.880005V19.125L2.96251 21.25V29.75H9.21001V24.225L7.12751 22.1Z" fill="#1F2A33"/>
<path d="M30.035 10.625C32.3258 10.625 34.2 8.71247 34.2 6.37497C34.2 4.03747 32.3258 2.12497 30.035 2.12497C27.7443 2.12497 25.87 4.03747 25.87 6.37497C25.87 8.71247 27.7443 10.625 30.035 10.625Z" fill="#1F2A33"/>
<path d="M27.9525 22.1V12.75H34.2V19.125L32.1175 21.25V29.75H25.87V24.225L27.9525 22.1Z" fill="#1F2A33"/>
<rect x="43.25" y="18" width="0.647052" height="145" transform="rotate(-90 43.25 18)" fill="#1F2A33"/>
<path d="M46.4531 7.58771V9.99982C46.4531 10.4653 46.4806 10.7594 46.5356 10.8821C46.5949 11.0006 46.6965 11.0958 46.8403 11.1678C46.9842 11.2397 47.2529 11.2757 47.6465 11.2757V11.5106H43.2412V11.2757C43.639 11.2757 43.9077 11.2397 44.0474 11.1678C44.1912 11.0916 44.2907 10.9943 44.3457 10.8758C44.4049 10.7573 44.4346 10.4653 44.4346 9.99982V4.41388C44.4346 3.94838 44.4049 3.65639 44.3457 3.5379C44.2907 3.41518 44.1912 3.31785 44.0474 3.24591C43.9035 3.17397 43.6348 3.138 43.2412 3.138V2.90314H47.2402C48.2812 2.90314 49.043 2.97508 49.5254 3.11896C50.0078 3.26284 50.4014 3.52944 50.7061 3.91876C51.0107 4.30385 51.1631 4.75665 51.1631 5.27716C51.1631 5.91193 50.9346 6.43667 50.4775 6.85138C50.1855 7.11375 49.7772 7.31053 49.2524 7.44171L51.3218 10.3553C51.5926 10.7319 51.7852 10.9668 51.8994 11.0599C52.0729 11.1911 52.2739 11.263 52.5024 11.2757V11.5106H49.792L47.0181 7.58771H46.4531ZM46.4531 3.36652V7.13702H46.8149C47.4032 7.13702 47.8433 7.08413 48.1353 6.97833C48.4272 6.86831 48.6558 6.67365 48.8208 6.39435C48.9901 6.11082 49.0747 5.74266 49.0747 5.28986C49.0747 4.63393 48.9202 4.14939 48.6113 3.83624C48.3066 3.52309 47.8136 3.36652 47.1323 3.36652H46.4531Z" fill="#1F2A33"/>
<path d="M57.8599 8.33038H54.6035C54.6416 9.11749 54.8511 9.73956 55.2319 10.1966C55.5239 10.5478 55.8752 10.7234 56.2856 10.7234C56.5396 10.7234 56.7702 10.6536 56.9775 10.514C57.1849 10.3701 57.4071 10.1141 57.644 9.74591L57.8599 9.88556C57.5382 10.5415 57.1828 11.007 56.7935 11.282C56.4041 11.5529 55.9535 11.6883 55.4414 11.6883C54.5612 11.6883 53.8947 11.3498 53.4419 10.6727C53.078 10.1268 52.896 9.44969 52.896 8.64142C52.896 7.65118 53.1626 6.86407 53.6958 6.28009C54.2332 5.69187 54.8617 5.39777 55.5811 5.39777C56.182 5.39777 56.7025 5.64532 57.1426 6.14044C57.5869 6.63133 57.826 7.36131 57.8599 8.33038ZM56.2983 7.90509C56.2983 7.22378 56.2603 6.75616 56.1841 6.50226C56.1121 6.24835 55.9979 6.05581 55.8413 5.92462C55.7524 5.84845 55.634 5.81036 55.4858 5.81036C55.2658 5.81036 55.0859 5.91827 54.9463 6.13409C54.6966 6.51072 54.5718 7.027 54.5718 7.68292V7.90509H56.2983Z" fill="#1F2A33"/>
<path d="M60.9067 10.9075V13.1165C60.9067 13.4212 60.93 13.6286 60.9766 13.7386C61.0273 13.8486 61.1035 13.929 61.2051 13.9798C61.3066 14.0306 61.5055 14.056 61.8018 14.056V14.2908H58.4185V14.056C58.6808 14.0475 58.8755 13.9734 59.0024 13.8338C59.0871 13.7365 59.1294 13.4847 59.1294 13.0784V6.81329C59.1294 6.39435 59.0807 6.12775 58.9834 6.01349C58.8861 5.895 58.6978 5.82729 58.4185 5.81036V5.5755H60.9067V6.35626C61.1141 6.05157 61.3257 5.83152 61.5415 5.69611C61.8504 5.49721 62.1868 5.39777 62.5508 5.39777C62.9867 5.39777 63.3823 5.5353 63.7378 5.81036C64.0975 6.08543 64.3704 6.46629 64.5566 6.95294C64.7428 7.43536 64.8359 7.95587 64.8359 8.51447C64.8359 9.11538 64.7386 9.66551 64.5439 10.1649C64.3535 10.66 64.0742 11.0387 63.7061 11.3011C63.3421 11.5592 62.9359 11.6883 62.4873 11.6883C62.1615 11.6883 61.8568 11.6164 61.5732 11.4725C61.3617 11.3624 61.1395 11.1741 60.9067 10.9075ZM60.9067 10.2664C61.2707 10.7827 61.66 11.0408 62.0747 11.0408C62.3032 11.0408 62.4915 10.9202 62.6396 10.679C62.8597 10.3235 62.9697 9.64646 62.9697 8.64777C62.9697 7.62368 62.8491 6.92332 62.6079 6.54669C62.4471 6.29702 62.2313 6.17218 61.9604 6.17218C61.533 6.17218 61.1818 6.4811 60.9067 7.09894V10.2664Z" fill="#1F2A33"/>
<path d="M71.5771 5.5755V10.222C71.5771 10.6748 71.6195 10.9583 71.7041 11.0726C71.7887 11.1826 71.9601 11.2524 72.2183 11.282V11.5106H69.7998V10.7171C69.5163 11.0556 69.2327 11.3032 68.9492 11.4598C68.6657 11.6121 68.3483 11.6883 67.9971 11.6883C67.6628 11.6883 67.3644 11.5867 67.1021 11.3836C66.8439 11.1762 66.6704 10.935 66.5815 10.66C66.4927 10.3849 66.4482 9.9046 66.4482 9.21906V6.86407C66.4482 6.41551 66.4059 6.13621 66.3213 6.02618C66.2409 5.91616 66.0695 5.84422 65.8071 5.81036V5.5755H68.2256V9.63165C68.2256 10.0548 68.2446 10.3278 68.2827 10.4505C68.325 10.5732 68.3885 10.6663 68.4731 10.7298C68.562 10.7933 68.6636 10.825 68.7778 10.825C68.9302 10.825 69.0677 10.7848 69.1904 10.7044C69.3597 10.5944 69.5628 10.3722 69.7998 10.0379V6.86407C69.7998 6.41551 69.7575 6.13621 69.6729 6.02618C69.5924 5.91616 69.4211 5.84422 69.1587 5.81036V5.5755H71.5771Z" fill="#1F2A33"/>
<path d="M75.3794 2.90314V6.17218C75.8787 5.6559 76.4246 5.39777 77.0171 5.39777C77.4233 5.39777 77.8063 5.51837 78.166 5.75958C78.5257 5.99656 78.8071 6.3351 79.0103 6.77521C79.2134 7.21531 79.3149 7.72312 79.3149 8.29865C79.3149 8.94611 79.1859 9.53432 78.9277 10.0633C78.6696 10.5923 78.3247 10.9964 77.8931 11.2757C77.4614 11.5508 76.9684 11.6883 76.4141 11.6883C76.0924 11.6883 75.8068 11.6375 75.5571 11.5359C75.3075 11.4344 75.062 11.2693 74.8208 11.0408L73.8369 11.6819H73.6211V4.13458C73.6211 3.79181 73.6063 3.58022 73.5767 3.49982C73.5343 3.38133 73.4666 3.29458 73.3735 3.23956C73.2847 3.18032 73.1323 3.14646 72.9165 3.138V2.90314H75.3794ZM75.3794 6.73712V9.37775C75.3794 9.91518 75.3921 10.258 75.4175 10.4061C75.4598 10.6557 75.5614 10.8589 75.7222 11.0154C75.883 11.1678 76.0882 11.244 76.3379 11.244C76.5537 11.244 76.7378 11.1826 76.8901 11.0599C77.0467 10.9372 77.1758 10.6938 77.2773 10.3299C77.3831 9.96596 77.436 9.31004 77.436 8.36212C77.436 7.45229 77.3218 6.8281 77.0933 6.48956C76.9282 6.24412 76.7061 6.1214 76.4268 6.1214C76.0628 6.1214 75.7137 6.32664 75.3794 6.73712Z" fill="#1F2A33"/>
<path d="M82.6411 2.90314V10.2791C82.6411 10.6981 82.6898 10.9668 82.7871 11.0853C82.8844 11.1995 83.0749 11.2651 83.3584 11.282V11.5106H80.1528V11.282C80.4152 11.2736 80.6099 11.1974 80.7368 11.0535C80.8215 10.9562 80.8638 10.6981 80.8638 10.2791V4.13458C80.8638 3.71987 80.8151 3.45538 80.7178 3.34113C80.6204 3.22264 80.4321 3.15493 80.1528 3.138V2.90314H82.6411Z" fill="#1F2A33"/>
<path d="M85.3643 2.70001C85.6393 2.70001 85.8721 2.79734 86.0625 2.992C86.2529 3.18243 86.3481 3.41307 86.3481 3.6839C86.3481 3.95473 86.2508 4.18536 86.0562 4.37579C85.8657 4.56622 85.6351 4.66144 85.3643 4.66144C85.0934 4.66144 84.8628 4.56622 84.6724 4.37579C84.4819 4.18536 84.3867 3.95473 84.3867 3.6839C84.3867 3.41307 84.4819 3.18243 84.6724 2.992C84.8628 2.79734 85.0934 2.70001 85.3643 2.70001ZM86.2529 5.5755V10.2791C86.2529 10.6981 86.3016 10.9668 86.3989 11.0853C86.4963 11.1995 86.6867 11.2651 86.9702 11.282V11.5106H83.7646V11.282C84.027 11.2736 84.2217 11.1974 84.3486 11.0535C84.4333 10.9562 84.4756 10.6981 84.4756 10.2791V6.81329C84.4756 6.39435 84.4269 6.12775 84.3296 6.01349C84.2323 5.895 84.0439 5.82729 83.7646 5.81036V5.5755H86.2529Z" fill="#1F2A33"/>
<path d="M92.3975 9.98077L92.5942 10.1331C92.3149 10.6579 91.9658 11.0493 91.5469 11.3074C91.1322 11.5613 90.6899 11.6883 90.2202 11.6883C89.4289 11.6883 88.7962 11.39 88.3223 10.7933C87.8483 10.1966 87.6113 9.47931 87.6113 8.64142C87.6113 7.83315 87.8271 7.12221 88.2588 6.50861C88.7793 5.76805 89.4966 5.39777 90.4106 5.39777C91.0243 5.39777 91.5109 5.55223 91.8706 5.86115C92.2345 6.17006 92.4165 6.51495 92.4165 6.89581C92.4165 7.13702 92.3424 7.32957 92.1943 7.47345C92.0505 7.61733 91.86 7.68927 91.623 7.68927C91.3734 7.68927 91.166 7.60675 91.001 7.44171C90.8402 7.27667 90.7407 6.98256 90.7026 6.55939C90.6772 6.29279 90.6159 6.10659 90.5186 6.00079C90.4212 5.895 90.307 5.8421 90.1758 5.8421C89.9727 5.8421 89.7992 5.95001 89.6553 6.16583C89.4352 6.49168 89.3252 6.99103 89.3252 7.66388C89.3252 8.22247 89.4141 8.75779 89.5918 9.26984C89.7695 9.77765 90.0129 10.1564 90.3218 10.4061C90.5545 10.588 90.8296 10.679 91.147 10.679C91.3543 10.679 91.5511 10.6304 91.7373 10.533C91.9235 10.4357 92.1436 10.2516 92.3975 9.98077Z" fill="#1F2A33"/>
<path d="M99.3799 5.39777C99.8962 5.39777 100.376 5.53107 100.821 5.79767C101.265 6.06427 101.602 6.44301 101.83 6.9339C102.063 7.42478 102.179 7.96222 102.179 8.5462C102.179 9.38833 101.965 10.0929 101.538 10.66C101.022 11.3455 100.309 11.6883 99.3989 11.6883C98.506 11.6883 97.8184 11.3751 97.3359 10.7488C96.8535 10.1225 96.6123 9.39679 96.6123 8.57159C96.6123 7.72101 96.8577 6.98045 97.3486 6.34991C97.8438 5.71515 98.5208 5.39777 99.3799 5.39777ZM99.4053 5.84845C99.1895 5.84845 99.0033 5.93097 98.8467 6.09601C98.6943 6.25682 98.5928 6.57843 98.542 7.06085C98.4954 7.53904 98.4722 8.20555 98.4722 9.06036C98.4722 9.51316 98.5018 9.93634 98.561 10.3299C98.6076 10.6304 98.707 10.8589 98.8594 11.0154C99.0117 11.172 99.1852 11.2503 99.3799 11.2503C99.5703 11.2503 99.729 11.1974 99.856 11.0916C100.021 10.9477 100.131 10.7467 100.186 10.4886C100.271 10.0866 100.313 9.27407 100.313 8.05109C100.313 7.33169 100.273 6.83868 100.192 6.57208C100.112 6.30125 99.9935 6.10447 99.8369 5.98175C99.7269 5.89288 99.583 5.84845 99.4053 5.84845Z" fill="#1F2A33"/>
<path d="M105.683 6.19757V10.3172C105.683 10.715 105.725 10.9647 105.81 11.0662C105.945 11.2228 106.195 11.2947 106.559 11.282V11.5106H103.062V11.282C103.328 11.2778 103.516 11.2482 103.626 11.1932C103.741 11.1339 103.819 11.0535 103.861 10.952C103.904 10.8504 103.925 10.6388 103.925 10.3172V6.19757H103.062V5.5755H103.925V5.13751L103.918 4.83917C103.918 4.2298 104.141 3.72198 104.585 3.31573C105.034 2.90948 105.639 2.70636 106.4 2.70636C106.921 2.70636 107.306 2.80369 107.556 2.99835C107.81 3.19301 107.937 3.40883 107.937 3.64581C107.937 3.83624 107.858 4.00128 107.702 4.14093C107.545 4.28058 107.338 4.3504 107.08 4.3504C106.86 4.3504 106.684 4.29327 106.553 4.17902C106.426 4.06476 106.362 3.93781 106.362 3.79816C106.362 3.76007 106.375 3.68178 106.4 3.56329C106.417 3.49135 106.426 3.42365 106.426 3.36017C106.426 3.2713 106.4 3.20571 106.35 3.16339C106.282 3.09991 106.199 3.06818 106.102 3.06818C105.979 3.06818 105.876 3.11896 105.791 3.22052C105.711 3.32208 105.67 3.48501 105.67 3.70929L105.683 4.82013V5.5755H106.559V6.19757H105.683Z" fill="#1F2A33"/>
<path d="M118.899 2.70636V5.68976H118.651C118.465 4.91111 118.118 4.31443 117.61 3.89972C117.103 3.48501 116.527 3.27765 115.884 3.27765C115.346 3.27765 114.853 3.43211 114.405 3.74103C113.956 4.04995 113.628 4.45408 113.421 4.95343C113.154 5.59243 113.021 6.30336 113.021 7.08624C113.021 7.85642 113.118 8.5589 113.313 9.19366C113.508 9.8242 113.812 10.3024 114.227 10.6282C114.642 10.9498 115.179 11.1107 115.839 11.1107C116.381 11.1107 116.876 10.9922 117.325 10.7552C117.778 10.5182 118.254 10.1098 118.753 9.53009V10.2728C118.271 10.7763 117.767 11.1424 117.242 11.3709C116.722 11.5952 116.112 11.7073 115.414 11.7073C114.496 11.7073 113.679 11.5233 112.964 11.1551C112.253 10.7869 111.703 10.258 111.313 9.56818C110.928 8.8784 110.736 8.14419 110.736 7.36554C110.736 6.54458 110.95 5.76593 111.377 5.0296C111.809 4.29327 112.388 3.72198 113.116 3.31573C113.848 2.90948 114.625 2.70636 115.446 2.70636C116.051 2.70636 116.69 2.83754 117.363 3.09991C117.752 3.25226 118 3.32843 118.105 3.32843C118.241 3.32843 118.357 3.27976 118.455 3.18243C118.556 3.08087 118.622 2.92218 118.651 2.70636H118.899Z" fill="#1F2A33"/>
<path d="M121.482 2.70001C121.757 2.70001 121.99 2.79734 122.181 2.992C122.371 3.18243 122.466 3.41307 122.466 3.6839C122.466 3.95473 122.369 4.18536 122.174 4.37579C121.984 4.56622 121.753 4.66144 121.482 4.66144C121.212 4.66144 120.981 4.56622 120.791 4.37579C120.6 4.18536 120.505 3.95473 120.505 3.6839C120.505 3.41307 120.6 3.18243 120.791 2.992C120.981 2.79734 121.212 2.70001 121.482 2.70001ZM122.371 5.5755V10.2791C122.371 10.6981 122.42 10.9668 122.517 11.0853C122.614 11.1995 122.805 11.2651 123.088 11.282V11.5106H119.883V11.282C120.145 11.2736 120.34 11.1974 120.467 11.0535C120.551 10.9562 120.594 10.6981 120.594 10.2791V6.81329C120.594 6.39435 120.545 6.12775 120.448 6.01349C120.35 5.895 120.162 5.82729 119.883 5.81036V5.5755H122.371Z" fill="#1F2A33"/>
<path d="M126.351 11.6883L124.352 7.08624C124.11 6.53188 123.922 6.18064 123.787 6.03253C123.689 5.92251 123.545 5.84845 123.355 5.81036V5.5755H126.51V5.81036C126.311 5.81036 126.175 5.84633 126.104 5.91827C126.002 6.01137 125.951 6.1214 125.951 6.24835C125.951 6.40493 126.044 6.69904 126.23 7.13068L127.208 9.3587L127.989 7.43536C128.213 6.88523 128.325 6.49591 128.325 6.2674C128.325 6.13621 128.277 6.03042 128.179 5.95001C128.086 5.86538 127.919 5.81883 127.678 5.81036V5.5755H129.62V5.81036C129.434 5.83575 129.282 5.90558 129.163 6.01984C129.045 6.13409 128.867 6.47052 128.63 7.02911L126.649 11.6883H126.351Z" fill="#1F2A33"/>
<path d="M131.601 2.70001C131.876 2.70001 132.108 2.79734 132.299 2.992C132.489 3.18243 132.584 3.41307 132.584 3.6839C132.584 3.95473 132.487 4.18536 132.292 4.37579C132.102 4.56622 131.871 4.66144 131.601 4.66144C131.33 4.66144 131.099 4.56622 130.909 4.37579C130.718 4.18536 130.623 3.95473 130.623 3.6839C130.623 3.41307 130.718 3.18243 130.909 2.992C131.099 2.79734 131.33 2.70001 131.601 2.70001ZM132.489 5.5755V10.2791C132.489 10.6981 132.538 10.9668 132.635 11.0853C132.733 11.1995 132.923 11.2651 133.207 11.282V11.5106H130.001V11.282C130.263 11.2736 130.458 11.1974 130.585 11.0535C130.67 10.9562 130.712 10.6981 130.712 10.2791V6.81329C130.712 6.39435 130.663 6.12775 130.566 6.01349C130.469 5.895 130.28 5.82729 130.001 5.81036V5.5755H132.489Z" fill="#1F2A33"/>
<path d="M138.634 9.98077L138.831 10.1331C138.551 10.6579 138.202 11.0493 137.783 11.3074C137.368 11.5613 136.926 11.6883 136.457 11.6883C135.665 11.6883 135.033 11.39 134.559 10.7933C134.085 10.1966 133.848 9.47931 133.848 8.64142C133.848 7.83315 134.063 7.12221 134.495 6.50861C135.016 5.76805 135.733 5.39777 136.647 5.39777C137.261 5.39777 137.747 5.55223 138.107 5.86115C138.471 6.17006 138.653 6.51495 138.653 6.89581C138.653 7.13702 138.579 7.32957 138.431 7.47345C138.287 7.61733 138.096 7.68927 137.859 7.68927C137.61 7.68927 137.402 7.60675 137.237 7.44171C137.076 7.27667 136.977 6.98256 136.939 6.55939C136.914 6.29279 136.852 6.10659 136.755 6.00079C136.658 5.895 136.543 5.8421 136.412 5.8421C136.209 5.8421 136.035 5.95001 135.892 6.16583C135.672 6.49168 135.562 6.99103 135.562 7.66388C135.562 8.22247 135.65 8.75779 135.828 9.26984C136.006 9.77765 136.249 10.1564 136.558 10.4061C136.791 10.588 137.066 10.679 137.383 10.679C137.591 10.679 137.787 10.6304 137.974 10.533C138.16 10.4357 138.38 10.2516 138.634 9.98077Z" fill="#1F2A33"/>
<path d="M147.33 2.90314V5.23273H147.102C146.966 4.69529 146.816 4.3102 146.651 4.07745C146.486 3.84047 146.259 3.65216 145.972 3.51251C145.811 3.43634 145.529 3.39825 145.127 3.39825H144.486V10.0379C144.486 10.478 144.51 10.7531 144.556 10.8631C144.607 10.9731 144.702 11.0705 144.842 11.1551C144.986 11.2355 145.18 11.2757 145.426 11.2757H145.711V11.5106H141.205V11.2757H141.49C141.74 11.2757 141.941 11.2313 142.093 11.1424C142.203 11.0831 142.29 10.9816 142.354 10.8377C142.4 10.7361 142.423 10.4695 142.423 10.0379V3.39825H141.801C141.222 3.39825 140.8 3.52098 140.538 3.76642C140.17 4.10919 139.937 4.59796 139.84 5.23273H139.599V2.90314H147.33Z" fill="#1F2A33"/>
<path d="M152.072 8.33038H148.815C148.854 9.11749 149.063 9.73956 149.444 10.1966C149.736 10.5478 150.087 10.7234 150.498 10.7234C150.751 10.7234 150.982 10.6536 151.189 10.514C151.397 10.3701 151.619 10.1141 151.856 9.74591L152.072 9.88556C151.75 10.5415 151.395 11.007 151.005 11.282C150.616 11.5529 150.165 11.6883 149.653 11.6883C148.773 11.6883 148.107 11.3498 147.654 10.6727C147.29 10.1268 147.108 9.44969 147.108 8.64142C147.108 7.65118 147.375 6.86407 147.908 6.28009C148.445 5.69187 149.074 5.39777 149.793 5.39777C150.394 5.39777 150.914 5.64532 151.354 6.14044C151.799 6.63133 152.038 7.36131 152.072 8.33038ZM150.51 7.90509C150.51 7.22378 150.472 6.75616 150.396 6.50226C150.324 6.24835 150.21 6.05581 150.053 5.92462C149.964 5.84845 149.846 5.81036 149.698 5.81036C149.478 5.81036 149.298 5.91827 149.158 6.13409C148.909 6.51072 148.784 7.027 148.784 7.68292V7.90509H150.51Z" fill="#1F2A33"/>
<path d="M157.664 9.98077L157.861 10.1331C157.582 10.6579 157.232 11.0493 156.813 11.3074C156.399 11.5613 155.957 11.6883 155.487 11.6883C154.695 11.6883 154.063 11.39 153.589 10.7933C153.115 10.1966 152.878 9.47931 152.878 8.64142C152.878 7.83315 153.094 7.12221 153.525 6.50861C154.046 5.76805 154.763 5.39777 155.677 5.39777C156.291 5.39777 156.778 5.55223 157.137 5.86115C157.501 6.17006 157.683 6.51495 157.683 6.89581C157.683 7.13702 157.609 7.32957 157.461 7.47345C157.317 7.61733 157.127 7.68927 156.89 7.68927C156.64 7.68927 156.433 7.60675 156.268 7.44171C156.107 7.27667 156.007 6.98256 155.969 6.55939C155.944 6.29279 155.882 6.10659 155.785 6.00079C155.688 5.895 155.574 5.8421 155.442 5.8421C155.239 5.8421 155.066 5.95001 154.922 6.16583C154.702 6.49168 154.592 6.99103 154.592 7.66388C154.592 8.22247 154.681 8.75779 154.858 9.26984C155.036 9.77765 155.279 10.1564 155.588 10.4061C155.821 10.588 156.096 10.679 156.414 10.679C156.621 10.679 156.818 10.6304 157.004 10.533C157.19 10.4357 157.41 10.2516 157.664 9.98077Z" fill="#1F2A33"/>
<path d="M161.022 2.90314V6.33722C161.348 5.99445 161.646 5.75323 161.917 5.61359C162.188 5.46971 162.469 5.39777 162.761 5.39777C163.134 5.39777 163.451 5.50356 163.713 5.71515C163.98 5.92674 164.156 6.17641 164.24 6.46417C164.329 6.7477 164.374 7.22801 164.374 7.90509V10.222C164.374 10.6748 164.416 10.9583 164.5 11.0726C164.585 11.1826 164.757 11.2524 165.015 11.282V11.5106H162.006V11.282C162.217 11.2524 162.376 11.1678 162.482 11.0281C162.558 10.9181 162.596 10.6494 162.596 10.222V7.57501C162.596 7.08413 162.577 6.77732 162.539 6.6546C162.501 6.52765 162.435 6.43032 162.342 6.36261C162.253 6.29067 162.152 6.2547 162.038 6.2547C161.868 6.2547 161.703 6.31394 161.542 6.43243C161.382 6.54669 161.208 6.74982 161.022 7.04181V10.222C161.022 10.6452 161.054 10.9096 161.117 11.0154C161.198 11.1593 161.363 11.2482 161.612 11.282V11.5106H158.604V11.282C158.853 11.2567 159.031 11.1762 159.137 11.0408C159.209 10.9477 159.245 10.6748 159.245 10.222V4.19171C159.245 3.74314 159.202 3.46385 159.118 3.35382C159.037 3.24379 158.866 3.17185 158.604 3.138V2.90314H161.022Z" fill="#1F2A33"/>
<path d="M43.4214 31V30.7651H43.707C43.9567 30.7651 44.1471 30.7271 44.2783 30.6509C44.4137 30.5705 44.5132 30.4626 44.5767 30.3271C44.6147 30.2383 44.6338 29.9717 44.6338 29.5273V23.8652C44.6338 23.4251 44.6105 23.1501 44.564 23.04C44.5174 22.93 44.4222 22.8348 44.2783 22.7544C44.1387 22.6698 43.9482 22.6274 43.707 22.6274H43.4214V22.3926H47.2744C48.3027 22.3926 49.13 22.5322 49.7563 22.8115C50.5223 23.1543 51.1021 23.6727 51.4956 24.3667C51.8934 25.0607 52.0923 25.8457 52.0923 26.7217C52.0923 27.3268 51.995 27.8854 51.8003 28.3975C51.6056 28.9053 51.3538 29.3263 51.0449 29.6606C50.736 29.9907 50.3784 30.2573 49.9722 30.4604C49.5701 30.6593 49.0771 30.8138 48.4932 30.9238C48.235 30.9746 47.8288 31 47.2744 31H43.4214ZM46.7031 22.8813V29.5972C46.7031 29.9526 46.7201 30.1706 46.7539 30.251C46.7878 30.3314 46.8449 30.3927 46.9253 30.4351C47.0396 30.4985 47.2046 30.5303 47.4204 30.5303C48.1271 30.5303 48.6667 30.2891 49.0391 29.8066C49.5469 29.1549 49.8008 28.1436 49.8008 26.7725C49.8008 25.668 49.6273 24.7856 49.2803 24.1255C49.0052 23.6092 48.6519 23.258 48.2202 23.0718C47.9155 22.9406 47.4098 22.8771 46.7031 22.8813Z" fill="#1F2A33"/>
<path d="M58.1099 27.8198H54.8535C54.8916 28.6069 55.1011 29.229 55.4819 29.686C55.7739 30.0373 56.1252 30.2129 56.5356 30.2129C56.7896 30.2129 57.0202 30.1431 57.2275 30.0034C57.4349 29.8595 57.6571 29.6035 57.894 29.2354L58.1099 29.375C57.7882 30.0309 57.4328 30.4964 57.0435 30.7715C56.6541 31.0423 56.2035 31.1777 55.6914 31.1777C54.8112 31.1777 54.1447 30.8392 53.6919 30.1621C53.328 29.6162 53.146 28.9391 53.146 28.1309C53.146 27.1406 53.4126 26.3535 53.9458 25.7695C54.4832 25.1813 55.1117 24.8872 55.8311 24.8872C56.432 24.8872 56.9525 25.1348 57.3926 25.6299C57.8369 26.1208 58.076 26.8507 58.1099 27.8198ZM56.5483 27.3945C56.5483 26.7132 56.5103 26.2456 56.4341 25.9917C56.3621 25.7378 56.2479 25.5452 56.0913 25.4141C56.0024 25.3379 55.884 25.2998 55.7358 25.2998C55.5158 25.2998 55.3359 25.4077 55.1963 25.6235C54.9466 26.0002 54.8218 26.5164 54.8218 27.1724V27.3945H56.5483Z" fill="#1F2A33"/>
<path d="M61.1567 30.397V32.606C61.1567 32.9106 61.18 33.118 61.2266 33.228C61.2773 33.3381 61.3535 33.4185 61.4551 33.4692C61.5566 33.52 61.7555 33.5454 62.0518 33.5454V33.7803H58.6685V33.5454C58.9308 33.5369 59.1255 33.4629 59.2524 33.3232C59.3371 33.2259 59.3794 32.9741 59.3794 32.5679V26.3027C59.3794 25.8838 59.3307 25.6172 59.2334 25.5029C59.1361 25.3844 58.9478 25.3167 58.6685 25.2998V25.0649H61.1567V25.8457C61.3641 25.541 61.5757 25.321 61.7915 25.1855C62.1004 24.9867 62.4368 24.8872 62.8008 24.8872C63.2367 24.8872 63.6323 25.0247 63.9878 25.2998C64.3475 25.5749 64.6204 25.9557 64.8066 26.4424C64.9928 26.9248 65.0859 27.4453 65.0859 28.0039C65.0859 28.6048 64.9886 29.1549 64.7939 29.6543C64.6035 30.1494 64.3242 30.5282 63.9561 30.7905C63.5921 31.0487 63.1859 31.1777 62.7373 31.1777C62.4115 31.1777 62.1068 31.1058 61.8232 30.9619C61.6117 30.8519 61.3895 30.6636 61.1567 30.397ZM61.1567 29.7559C61.5207 30.2721 61.91 30.5303 62.3247 30.5303C62.5532 30.5303 62.7415 30.4097 62.8896 30.1685C63.1097 29.813 63.2197 29.1359 63.2197 28.1372C63.2197 27.1131 63.0991 26.4128 62.8579 26.0361C62.6971 25.7865 62.4813 25.6616 62.2104 25.6616C61.783 25.6616 61.4318 25.9705 61.1567 26.5884V29.7559Z" fill="#1F2A33"/>
<path d="M69.3706 30.124C68.647 30.763 67.9974 31.0825 67.4219 31.0825C67.0833 31.0825 66.8019 30.9725 66.5776 30.7524C66.3534 30.5282 66.2412 30.2489 66.2412 29.9146C66.2412 29.4618 66.4359 29.0555 66.8252 28.6958C67.2145 28.3319 68.063 27.8494 69.3706 27.2485V26.6519C69.3706 26.2033 69.3452 25.9219 69.2944 25.8076C69.2479 25.6891 69.1569 25.5876 69.0215 25.5029C68.8861 25.4141 68.7337 25.3696 68.5645 25.3696C68.2894 25.3696 68.063 25.431 67.8853 25.5537C67.7752 25.6299 67.7202 25.7188 67.7202 25.8203C67.7202 25.9092 67.7795 26.0192 67.8979 26.1504C68.0588 26.3324 68.1392 26.508 68.1392 26.6772C68.1392 26.8846 68.0609 27.0623 67.9043 27.2104C67.752 27.3543 67.5509 27.4263 67.3013 27.4263C67.0347 27.4263 66.8104 27.3459 66.6284 27.1851C66.4507 27.0243 66.3618 26.8359 66.3618 26.6201C66.3618 26.3154 66.4824 26.0256 66.7236 25.7505C66.9648 25.4712 67.3013 25.2575 67.7329 25.1094C68.1646 24.9613 68.6131 24.8872 69.0786 24.8872C69.6414 24.8872 70.0858 25.0078 70.4116 25.249C70.7417 25.486 70.9554 25.7441 71.0527 26.0234C71.112 26.2012 71.1416 26.6095 71.1416 27.2485V29.5527C71.1416 29.8236 71.1522 29.995 71.1733 30.0669C71.1945 30.1346 71.2262 30.1854 71.2686 30.2192C71.3109 30.2531 71.3595 30.27 71.4146 30.27C71.5246 30.27 71.6367 30.1917 71.751 30.0352L71.9414 30.1875C71.7298 30.5007 71.5098 30.7292 71.2812 30.873C71.057 31.0127 70.8009 31.0825 70.5132 31.0825C70.1746 31.0825 69.9102 31.0042 69.7197 30.8477C69.5293 30.6868 69.4129 30.4456 69.3706 30.124ZM69.3706 29.6606V27.6738C68.8586 27.9743 68.4777 28.2959 68.228 28.6387C68.063 28.8672 67.9805 29.0978 67.9805 29.3306C67.9805 29.5252 68.0503 29.6966 68.1899 29.8447C68.2957 29.959 68.4438 30.0161 68.6343 30.0161C68.8459 30.0161 69.0913 29.8976 69.3706 29.6606Z" fill="#1F2A33"/>
<path d="M75.0581 25.0649V26.4106C75.4517 25.797 75.7966 25.3908 76.0928 25.1919C76.389 24.9888 76.6746 24.8872 76.9497 24.8872C77.1867 24.8872 77.375 24.9613 77.5146 25.1094C77.6585 25.2533 77.7305 25.4585 77.7305 25.7251C77.7305 26.0086 77.6606 26.2287 77.521 26.3853C77.3856 26.5418 77.2205 26.6201 77.0259 26.6201C76.8016 26.6201 76.6069 26.5482 76.4419 26.4043C76.2769 26.2604 76.1795 26.18 76.1499 26.1631C76.1076 26.1377 76.0589 26.125 76.0039 26.125C75.8812 26.125 75.7648 26.1715 75.6548 26.2646C75.4813 26.4085 75.3501 26.6138 75.2612 26.8804C75.1258 27.2909 75.0581 27.7437 75.0581 28.2388V29.6035L75.0645 29.959C75.0645 30.2002 75.0793 30.3547 75.1089 30.4224C75.1597 30.5366 75.2337 30.6213 75.3311 30.6763C75.4326 30.7271 75.6019 30.7588 75.8389 30.7715V31H72.6333V30.7715C72.8914 30.7503 73.0649 30.6805 73.1538 30.562C73.2469 30.4393 73.2935 30.1198 73.2935 29.6035V26.3218C73.2935 25.9832 73.2765 25.7674 73.2427 25.6743C73.2004 25.5558 73.139 25.4691 73.0586 25.4141C72.9782 25.359 72.8364 25.321 72.6333 25.2998V25.0649H75.0581Z" fill="#1F2A33"/>
<path d="M80.7266 22.894V25.0649H82.1357V25.6934H80.7266V29.356C80.7266 29.6987 80.7414 29.9209 80.771 30.0225C80.8049 30.1198 80.862 30.2002 80.9424 30.2637C81.0228 30.3229 81.0968 30.3525 81.1646 30.3525C81.4396 30.3525 81.6999 30.1431 81.9453 29.7241L82.1357 29.8638C81.793 30.6763 81.2365 31.0825 80.4663 31.0825C80.0897 31.0825 79.7702 30.9788 79.5078 30.7715C79.2497 30.5599 79.0846 30.325 79.0127 30.0669C78.9704 29.923 78.9492 29.5337 78.9492 28.8989V25.6934H78.1748V25.4712C78.708 25.0946 79.1608 24.6989 79.5332 24.2842C79.9098 23.8695 80.2378 23.4061 80.5171 22.894H80.7266Z" fill="#1F2A33"/>
<path d="M85.1636 25.0649V25.8457C85.4894 25.4902 85.7899 25.2427 86.0649 25.103C86.3442 24.9591 86.6489 24.8872 86.979 24.8872C87.3599 24.8872 87.6794 24.9761 87.9375 25.1538C88.1956 25.3315 88.3945 25.6024 88.5342 25.9663C88.8727 25.5854 89.1965 25.3104 89.5054 25.1411C89.8185 24.9718 90.1444 24.8872 90.4829 24.8872C90.8934 24.8872 91.2192 24.9824 91.4604 25.1729C91.7059 25.359 91.8752 25.5981 91.9683 25.8901C92.0656 26.1779 92.1143 26.6392 92.1143 27.2739V29.7051C92.1143 30.1621 92.1545 30.4456 92.2349 30.5557C92.3195 30.6657 92.493 30.7376 92.7554 30.7715V31H89.6895V30.7715C89.9307 30.7503 90.1084 30.6572 90.2227 30.4922C90.2988 30.3779 90.3369 30.1156 90.3369 29.7051V27.1533C90.3369 26.6243 90.3158 26.2879 90.2734 26.144C90.2311 26.0002 90.1634 25.8944 90.0703 25.8267C89.9814 25.7547 89.8757 25.7188 89.7529 25.7188C89.571 25.7188 89.3869 25.7865 89.2007 25.9219C89.0145 26.0531 88.8262 26.252 88.6357 26.5186V29.7051C88.6357 30.1325 88.6717 30.4012 88.7437 30.5112C88.841 30.6678 89.0272 30.7546 89.3022 30.7715V31H86.23V30.7715C86.395 30.763 86.5241 30.7228 86.6172 30.6509C86.7145 30.5747 86.778 30.4858 86.8076 30.3843C86.8415 30.2785 86.8584 30.0521 86.8584 29.7051V27.1533C86.8584 26.6159 86.8372 26.2795 86.7949 26.144C86.7526 26.0086 86.6807 25.9028 86.5791 25.8267C86.4818 25.7505 86.376 25.7124 86.2617 25.7124C86.0924 25.7124 85.938 25.7568 85.7983 25.8457C85.5994 25.9769 85.3879 26.2012 85.1636 26.5186V29.7051C85.1636 30.124 85.2038 30.4012 85.2842 30.5366C85.3688 30.6678 85.5423 30.7461 85.8047 30.7715V31H82.7451V30.7715C82.9948 30.7461 83.1725 30.6657 83.2783 30.5303C83.3503 30.4372 83.3862 30.1621 83.3862 29.7051V26.3535C83.3862 25.9049 83.3439 25.6257 83.2593 25.5156C83.1789 25.4056 83.0075 25.3337 82.7451 25.2998V25.0649H85.1636Z" fill="#1F2A33"/>
<path d="M98.5571 27.8198H95.3008C95.3389 28.6069 95.5483 29.229 95.9292 29.686C96.2212 30.0373 96.5724 30.2129 96.9829 30.2129C97.2368 30.2129 97.4674 30.1431 97.6748 30.0034C97.8822 29.8595 98.1043 29.6035 98.3413 29.2354L98.5571 29.375C98.2355 30.0309 97.88 30.4964 97.4907 30.7715C97.1014 31.0423 96.6507 31.1777 96.1387 31.1777C95.2585 31.1777 94.592 30.8392 94.1392 30.1621C93.7752 29.6162 93.5933 28.9391 93.5933 28.1309C93.5933 27.1406 93.8599 26.3535 94.3931 25.7695C94.9305 25.1813 95.5589 24.8872 96.2783 24.8872C96.8792 24.8872 97.3997 25.1348 97.8398 25.6299C98.2842 26.1208 98.5233 26.8507 98.5571 27.8198ZM96.9956 27.3945C96.9956 26.7132 96.9575 26.2456 96.8813 25.9917C96.8094 25.7378 96.6951 25.5452 96.5386 25.4141C96.4497 25.3379 96.3312 25.2998 96.1831 25.2998C95.9631 25.2998 95.7832 25.4077 95.6436 25.6235C95.3939 26.0002 95.269 26.5164 95.269 27.1724V27.3945H96.9956Z" fill="#1F2A33"/>
<path d="M101.731 25.0649V25.833C102.036 25.5029 102.328 25.2638 102.607 25.1157C102.886 24.9634 103.187 24.8872 103.508 24.8872C103.893 24.8872 104.213 24.9951 104.467 25.2109C104.721 25.4225 104.89 25.687 104.975 26.0044C105.042 26.2456 105.076 26.709 105.076 27.3945V29.7051C105.076 30.1621 105.116 30.4478 105.197 30.562C105.281 30.672 105.455 30.7419 105.717 30.7715V31H102.715V30.7715C102.939 30.7419 103.1 30.6488 103.197 30.4922C103.265 30.3864 103.299 30.124 103.299 29.7051V27.0645C103.299 26.5778 103.28 26.271 103.242 26.144C103.204 26.0171 103.138 25.9198 103.045 25.8521C102.956 25.7801 102.857 25.7441 102.747 25.7441C102.383 25.7441 102.044 26.0044 101.731 26.5249V29.7051C101.731 30.1494 101.771 30.4308 101.852 30.5493C101.936 30.6678 102.091 30.7419 102.315 30.7715V31H99.3125V30.7715C99.5622 30.7461 99.7399 30.6657 99.8457 30.5303C99.9176 30.4372 99.9536 30.1621 99.9536 29.7051V26.3535C99.9536 25.9049 99.9113 25.6257 99.8267 25.5156C99.7463 25.4056 99.5749 25.3337 99.3125 25.2998V25.0649H101.731Z" fill="#1F2A33"/>
<path d="M108.897 22.894V25.0649H110.307V25.6934H108.897V29.356C108.897 29.6987 108.912 29.9209 108.942 30.0225C108.976 30.1198 109.033 30.2002 109.113 30.2637C109.194 30.3229 109.268 30.3525 109.335 30.3525C109.611 30.3525 109.871 30.1431 110.116 29.7241L110.307 29.8638C109.964 30.6763 109.407 31.0825 108.637 31.0825C108.261 31.0825 107.941 30.9788 107.679 30.7715C107.421 30.5599 107.256 30.325 107.184 30.0669C107.141 29.923 107.12 29.5337 107.12 28.8989V25.6934H106.346V25.4712C106.879 25.0946 107.332 24.6989 107.704 24.2842C108.081 23.8695 108.409 23.4061 108.688 22.894H108.897Z" fill="#1F2A33"/>
<path d="M116.921 24.8872C117.437 24.8872 117.917 25.0205 118.362 25.2871C118.806 25.5537 119.143 25.9325 119.371 26.4233C119.604 26.9142 119.72 27.4517 119.72 28.0356C119.72 28.8778 119.507 29.5824 119.079 30.1494C118.563 30.835 117.85 31.1777 116.94 31.1777C116.047 31.1777 115.359 30.8646 114.877 30.2383C114.395 29.612 114.153 28.8862 114.153 28.061C114.153 27.2104 114.399 26.4699 114.89 25.8394C115.385 25.2046 116.062 24.8872 116.921 24.8872ZM116.946 25.3379C116.73 25.3379 116.544 25.4204 116.388 25.5854C116.235 25.7463 116.134 26.0679 116.083 26.5503C116.036 27.0285 116.013 27.695 116.013 28.5498C116.013 29.0026 116.043 29.4258 116.102 29.8193C116.149 30.1198 116.248 30.3483 116.4 30.5049C116.553 30.6615 116.726 30.7397 116.921 30.7397C117.111 30.7397 117.27 30.6868 117.397 30.5811C117.562 30.4372 117.672 30.2362 117.727 29.978C117.812 29.576 117.854 28.7635 117.854 27.5405C117.854 26.8211 117.814 26.3281 117.733 26.0615C117.653 25.7907 117.535 25.5939 117.378 25.4712C117.268 25.3823 117.124 25.3379 116.946 25.3379Z" fill="#1F2A33"/>
<path d="M123.224 25.687V29.8066C123.224 30.2044 123.266 30.4541 123.351 30.5557C123.486 30.7122 123.736 30.7842 124.1 30.7715V31H120.603V30.7715C120.869 30.7673 121.057 30.7376 121.167 30.6826C121.282 30.6234 121.36 30.543 121.402 30.4414C121.445 30.3398 121.466 30.1283 121.466 29.8066V25.687H120.603V25.0649H121.466V24.627L121.459 24.3286C121.459 23.7192 121.682 23.2114 122.126 22.8052C122.575 22.3989 123.18 22.1958 123.941 22.1958C124.462 22.1958 124.847 22.2931 125.097 22.4878C125.351 22.6825 125.478 22.8983 125.478 23.1353C125.478 23.3257 125.399 23.4907 125.243 23.6304C125.086 23.77 124.879 23.8398 124.621 23.8398C124.401 23.8398 124.225 23.7827 124.094 23.6685C123.967 23.5542 123.903 23.4272 123.903 23.2876C123.903 23.2495 123.916 23.1712 123.941 23.0527C123.958 22.9808 123.967 22.9131 123.967 22.8496C123.967 22.7607 123.941 22.6951 123.891 22.6528C123.823 22.5894 123.74 22.5576 123.643 22.5576C123.52 22.5576 123.417 22.6084 123.332 22.71C123.252 22.8115 123.211 22.9744 123.211 23.1987L123.224 24.3096V25.0649H124.1V25.687H123.224Z" fill="#1F2A33"/>
<path d="M132.784 22.272C134.155 22.2212 135.268 22.6211 136.123 23.4717C136.982 24.3223 137.411 25.3866 137.411 26.6646C137.411 27.7563 137.092 28.717 136.453 29.5464C135.606 30.6466 134.411 31.1968 132.866 31.1968C131.317 31.1968 130.12 30.672 129.273 29.6226C128.605 28.7931 128.271 27.8092 128.271 26.6709C128.271 25.3929 128.704 24.3286 129.572 23.478C130.444 22.6232 131.514 22.2212 132.784 22.272ZM132.86 22.6782C132.073 22.6782 131.474 23.0802 131.063 23.8843C130.729 24.5444 130.562 25.4924 130.562 26.728C130.562 28.1965 130.82 29.2819 131.336 29.9844C131.696 30.4753 132.2 30.7207 132.847 30.7207C133.283 30.7207 133.647 30.6149 133.939 30.4033C134.311 30.1325 134.601 29.7008 134.809 29.1084C135.016 28.5117 135.12 27.7352 135.12 26.7788C135.12 25.6405 135.014 24.7899 134.802 24.2271C134.591 23.66 134.32 23.2601 133.99 23.0273C133.664 22.7946 133.287 22.6782 132.86 22.6782Z" fill="#1F2A33"/>
<path d="M140.617 30.397V32.606C140.617 32.9106 140.64 33.118 140.687 33.228C140.737 33.3381 140.813 33.4185 140.915 33.4692C141.017 33.52 141.215 33.5454 141.512 33.5454V33.7803H138.128V33.5454C138.391 33.5369 138.585 33.4629 138.712 33.3232C138.797 33.2259 138.839 32.9741 138.839 32.5679V26.3027C138.839 25.8838 138.791 25.6172 138.693 25.5029C138.596 25.3844 138.408 25.3167 138.128 25.2998V25.0649H140.617V25.8457C140.824 25.541 141.036 25.321 141.251 25.1855C141.56 24.9867 141.897 24.8872 142.261 24.8872C142.697 24.8872 143.092 25.0247 143.448 25.2998C143.807 25.5749 144.08 25.9557 144.267 26.4424C144.453 26.9248 144.546 27.4453 144.546 28.0039C144.546 28.6048 144.449 29.1549 144.254 29.6543C144.063 30.1494 143.784 30.5282 143.416 30.7905C143.052 31.0487 142.646 31.1777 142.197 31.1777C141.871 31.1777 141.567 31.1058 141.283 30.9619C141.072 30.8519 140.849 30.6636 140.617 30.397ZM140.617 29.7559C140.981 30.2721 141.37 30.5303 141.785 30.5303C142.013 30.5303 142.201 30.4097 142.35 30.1685C142.57 29.813 142.68 29.1359 142.68 28.1372C142.68 27.1131 142.559 26.4128 142.318 26.0361C142.157 25.7865 141.941 25.6616 141.67 25.6616C141.243 25.6616 140.892 25.9705 140.617 26.5884V29.7559Z" fill="#1F2A33"/>
<path d="M150.583 27.8198H147.326C147.364 28.6069 147.574 29.229 147.955 29.686C148.247 30.0373 148.598 30.2129 149.008 30.2129C149.262 30.2129 149.493 30.1431 149.7 30.0034C149.908 29.8595 150.13 29.6035 150.367 29.2354L150.583 29.375C150.261 30.0309 149.905 30.4964 149.516 30.7715C149.127 31.0423 148.676 31.1777 148.164 31.1777C147.284 31.1777 146.617 30.8392 146.165 30.1621C145.801 29.6162 145.619 28.9391 145.619 28.1309C145.619 27.1406 145.885 26.3535 146.418 25.7695C146.956 25.1813 147.584 24.8872 148.304 24.8872C148.905 24.8872 149.425 25.1348 149.865 25.6299C150.31 26.1208 150.549 26.8507 150.583 27.8198ZM149.021 27.3945C149.021 26.7132 148.983 26.2456 148.907 25.9917C148.835 25.7378 148.721 25.5452 148.564 25.4141C148.475 25.3379 148.357 25.2998 148.208 25.2998C147.988 25.2998 147.809 25.4077 147.669 25.6235C147.419 26.0002 147.294 26.5164 147.294 27.1724V27.3945H149.021Z" fill="#1F2A33"/>
<path d="M153.756 25.0649V25.833C154.061 25.5029 154.353 25.2638 154.632 25.1157C154.912 24.9634 155.212 24.8872 155.534 24.8872C155.919 24.8872 156.238 24.9951 156.492 25.2109C156.746 25.4225 156.915 25.687 157 26.0044C157.068 26.2456 157.102 26.709 157.102 27.3945V29.7051C157.102 30.1621 157.142 30.4478 157.222 30.562C157.307 30.672 157.48 30.7419 157.743 30.7715V31H154.74V30.7715C154.965 30.7419 155.125 30.6488 155.223 30.4922C155.29 30.3864 155.324 30.124 155.324 29.7051V27.0645C155.324 26.5778 155.305 26.271 155.267 26.144C155.229 26.0171 155.163 25.9198 155.07 25.8521C154.981 25.7801 154.882 25.7441 154.772 25.7441C154.408 25.7441 154.069 26.0044 153.756 26.5249V29.7051C153.756 30.1494 153.797 30.4308 153.877 30.5493C153.962 30.6678 154.116 30.7419 154.34 30.7715V31H151.338V30.7715C151.588 30.7461 151.765 30.6657 151.871 30.5303C151.943 30.4372 151.979 30.1621 151.979 29.7051V26.3535C151.979 25.9049 151.937 25.6257 151.852 25.5156C151.772 25.4056 151.6 25.3337 151.338 25.2998V25.0649H153.756Z" fill="#1F2A33"/>
<path d="M161.551 31V30.7651H161.837C162.087 30.7651 162.277 30.7271 162.408 30.6509C162.544 30.5705 162.643 30.4626 162.707 30.3271C162.745 30.2383 162.764 29.9717 162.764 29.5273V23.8652C162.764 23.4251 162.74 23.1501 162.694 23.04C162.647 22.93 162.552 22.8348 162.408 22.7544C162.269 22.6698 162.078 22.6274 161.837 22.6274H161.551V22.3926H165.404C166.433 22.3926 167.26 22.5322 167.886 22.8115C168.652 23.1543 169.232 23.6727 169.625 24.3667C170.023 25.0607 170.222 25.8457 170.222 26.7217C170.222 27.3268 170.125 27.8854 169.93 28.3975C169.736 28.9053 169.484 29.3263 169.175 29.6606C168.866 29.9907 168.508 30.2573 168.102 30.4604C167.7 30.6593 167.207 30.8138 166.623 30.9238C166.365 30.9746 165.959 31 165.404 31H161.551ZM164.833 22.8813V29.5972C164.833 29.9526 164.85 30.1706 164.884 30.251C164.918 30.3314 164.975 30.3927 165.055 30.4351C165.169 30.4985 165.334 30.5303 165.55 30.5303C166.257 30.5303 166.797 30.2891 167.169 29.8066C167.677 29.1549 167.931 28.1436 167.931 26.7725C167.931 25.668 167.757 24.7856 167.41 24.1255C167.135 23.6092 166.782 23.258 166.35 23.0718C166.045 22.9406 165.54 22.8771 164.833 22.8813Z" fill="#1F2A33"/>
<path d="M174.488 30.124C173.764 30.763 173.115 31.0825 172.539 31.0825C172.201 31.0825 171.919 30.9725 171.695 30.7524C171.471 30.5282 171.358 30.2489 171.358 29.9146C171.358 29.4618 171.553 29.0555 171.942 28.6958C172.332 28.3319 173.18 27.8494 174.488 27.2485V26.6519C174.488 26.2033 174.462 25.9219 174.412 25.8076C174.365 25.6891 174.274 25.5876 174.139 25.5029C174.003 25.4141 173.851 25.3696 173.682 25.3696C173.407 25.3696 173.18 25.431 173.002 25.5537C172.892 25.6299 172.837 25.7188 172.837 25.8203C172.837 25.9092 172.897 26.0192 173.015 26.1504C173.176 26.3324 173.256 26.508 173.256 26.6772C173.256 26.8846 173.178 27.0623 173.021 27.2104C172.869 27.3543 172.668 27.4263 172.418 27.4263C172.152 27.4263 171.928 27.3459 171.746 27.1851C171.568 27.0243 171.479 26.8359 171.479 26.6201C171.479 26.3154 171.6 26.0256 171.841 25.7505C172.082 25.4712 172.418 25.2575 172.85 25.1094C173.282 24.9613 173.73 24.8872 174.196 24.8872C174.759 24.8872 175.203 25.0078 175.529 25.249C175.859 25.486 176.073 25.7441 176.17 26.0234C176.229 26.2012 176.259 26.6095 176.259 27.2485V29.5527C176.259 29.8236 176.269 29.995 176.291 30.0669C176.312 30.1346 176.343 30.1854 176.386 30.2192C176.428 30.2531 176.477 30.27 176.532 30.27C176.642 30.27 176.754 30.1917 176.868 30.0352L177.059 30.1875C176.847 30.5007 176.627 30.7292 176.398 30.873C176.174 31.0127 175.918 31.0825 175.63 31.0825C175.292 31.0825 175.027 31.0042 174.837 30.8477C174.646 30.6868 174.53 30.4456 174.488 30.124ZM174.488 29.6606V27.6738C173.976 27.9743 173.595 28.2959 173.345 28.6387C173.18 28.8672 173.098 29.0978 173.098 29.3306C173.098 29.5252 173.167 29.6966 173.307 29.8447C173.413 29.959 173.561 30.0161 173.751 30.0161C173.963 30.0161 174.208 29.8976 174.488 29.6606Z" fill="#1F2A33"/>
<path d="M180.067 22.894V25.0649H181.477V25.6934H180.067V29.356C180.067 29.6987 180.082 29.9209 180.112 30.0225C180.146 30.1198 180.203 30.2002 180.283 30.2637C180.364 30.3229 180.438 30.3525 180.505 30.3525C180.78 30.3525 181.041 30.1431 181.286 29.7241L181.477 29.8638C181.134 30.6763 180.577 31.0825 179.807 31.0825C179.43 31.0825 179.111 30.9788 178.849 30.7715C178.59 30.5599 178.425 30.325 178.354 30.0669C178.311 29.923 178.29 29.5337 178.29 28.8989V25.6934H177.516V25.4712C178.049 25.0946 178.502 24.6989 178.874 24.2842C179.251 23.8695 179.579 23.4061 179.858 22.894H180.067Z" fill="#1F2A33"/>
<path d="M185.317 30.124C184.593 30.763 183.944 31.0825 183.368 31.0825C183.03 31.0825 182.748 30.9725 182.524 30.7524C182.3 30.5282 182.188 30.2489 182.188 29.9146C182.188 29.4618 182.382 29.0555 182.771 28.6958C183.161 28.3319 184.009 27.8494 185.317 27.2485V26.6519C185.317 26.2033 185.292 25.9219 185.241 25.8076C185.194 25.6891 185.103 25.5876 184.968 25.5029C184.832 25.4141 184.68 25.3696 184.511 25.3696C184.236 25.3696 184.009 25.431 183.832 25.5537C183.722 25.6299 183.667 25.7188 183.667 25.8203C183.667 25.9092 183.726 26.0192 183.844 26.1504C184.005 26.3324 184.085 26.508 184.085 26.6772C184.085 26.8846 184.007 27.0623 183.851 27.2104C183.698 27.3543 183.497 27.4263 183.248 27.4263C182.981 27.4263 182.757 27.3459 182.575 27.1851C182.397 27.0243 182.308 26.8359 182.308 26.6201C182.308 26.3154 182.429 26.0256 182.67 25.7505C182.911 25.4712 183.248 25.2575 183.679 25.1094C184.111 24.9613 184.559 24.8872 185.025 24.8872C185.588 24.8872 186.032 25.0078 186.358 25.249C186.688 25.486 186.902 25.7441 186.999 26.0234C187.058 26.2012 187.088 26.6095 187.088 27.2485V29.5527C187.088 29.8236 187.098 29.995 187.12 30.0669C187.141 30.1346 187.173 30.1854 187.215 30.2192C187.257 30.2531 187.306 30.27 187.361 30.27C187.471 30.27 187.583 30.1917 187.697 30.0352L187.888 30.1875C187.676 30.5007 187.456 30.7292 187.228 30.873C187.003 31.0127 186.747 31.0825 186.459 31.0825C186.121 31.0825 185.856 31.0042 185.666 30.8477C185.476 30.6868 185.359 30.4456 185.317 30.124ZM185.317 29.6606V27.6738C184.805 27.9743 184.424 28.2959 184.174 28.6387C184.009 28.8672 183.927 29.0978 183.927 29.3306C183.927 29.5252 183.997 29.6966 184.136 29.8447C184.242 29.959 184.39 30.0161 184.581 30.0161C184.792 30.0161 185.038 29.8976 185.317 29.6606Z" fill="#1F2A33"/>
</g>
<defs>
<clipPath id="clip0_8626_162781">
<rect width="188" height="34" fill="white" transform="translate(0.75)"/>
</clipPath>
</defs>
</svg>
