<svg width="188" height="34" viewBox="0 0 188 34" fill="none" xmlns="http://www.w3.org/2000/svg">
<g clip-path="url(#clip0_8627_161572)">
<path d="M16.79 12.75C13.2497 12.75 10.5425 9.9875 10.5425 6.375C10.5425 2.7625 13.2497 0 16.79 0C20.3302 0 23.0375 2.7625 23.0375 6.375C23.0375 9.9875 20.3302 12.75 16.79 12.75Z" fill="white"/>
<path d="M20.955 34H12.625V25.5L8.45996 21.25V14.875H25.12V21.25L20.955 25.5V34Z" fill="white"/>
<path d="M4.29501 10.625C2.00426 10.625 0.130005 8.71247 0.130005 6.37497C0.130005 4.03747 2.00426 2.12497 4.29501 2.12497C6.58576 2.12497 8.46001 4.03747 8.46001 6.37497C8.46001 8.71247 6.58576 10.625 4.29501 10.625Z" fill="white"/>
<path d="M6.37751 22.1V12.75H0.130005V19.125L2.21251 21.25V29.75H8.46001V24.225L6.37751 22.1Z" fill="white"/>
<path d="M29.285 10.625C31.5757 10.625 33.45 8.71247 33.45 6.37497C33.45 4.03747 31.5757 2.12497 29.285 2.12497C26.9942 2.12497 25.12 4.03747 25.12 6.37497C25.12 8.71247 26.9942 10.625 29.285 10.625Z" fill="white"/>
<path d="M27.2025 22.1V12.75H33.45V19.125L31.3675 21.25V29.75H25.12V24.225L27.2025 22.1Z" fill="white"/>
<rect x="42.5" y="18" width="0.647052" height="145" transform="rotate(-90 42.5 18)" fill="white"/>
<path d="M45.7031 7.58771V9.99982C45.7031 10.4653 45.7306 10.7594 45.7856 10.8821C45.8449 11.0006 45.9465 11.0958 46.0903 11.1678C46.2342 11.2397 46.5029 11.2757 46.8965 11.2757V11.5106H42.4912V11.2757C42.889 11.2757 43.1577 11.2397 43.2974 11.1678C43.4412 11.0916 43.5407 10.9943 43.5957 10.8758C43.6549 10.7573 43.6846 10.4653 43.6846 9.99982V4.41388C43.6846 3.94838 43.6549 3.65639 43.5957 3.5379C43.5407 3.41518 43.4412 3.31785 43.2974 3.24591C43.1535 3.17397 42.8848 3.138 42.4912 3.138V2.90314H46.4902C47.5312 2.90314 48.293 2.97508 48.7754 3.11896C49.2578 3.26284 49.6514 3.52944 49.9561 3.91876C50.2607 4.30385 50.4131 4.75665 50.4131 5.27716C50.4131 5.91193 50.1846 6.43667 49.7275 6.85138C49.4355 7.11375 49.0272 7.31053 48.5024 7.44171L50.5718 10.3553C50.8426 10.7319 51.0352 10.9668 51.1494 11.0599C51.3229 11.1911 51.5239 11.263 51.7524 11.2757V11.5106H49.042L46.2681 7.58771H45.7031ZM45.7031 3.36652V7.13702H46.0649C46.6532 7.13702 47.0933 7.08413 47.3853 6.97833C47.6772 6.86831 47.9058 6.67365 48.0708 6.39435C48.2401 6.11082 48.3247 5.74266 48.3247 5.28986C48.3247 4.63393 48.1702 4.14939 47.8613 3.83624C47.5566 3.52309 47.0636 3.36652 46.3823 3.36652H45.7031Z" fill="white"/>
<path d="M57.1099 8.33038H53.8535C53.8916 9.11749 54.1011 9.73956 54.4819 10.1966C54.7739 10.5478 55.1252 10.7234 55.5356 10.7234C55.7896 10.7234 56.0202 10.6536 56.2275 10.514C56.4349 10.3701 56.6571 10.1141 56.894 9.74591L57.1099 9.88556C56.7882 10.5415 56.4328 11.007 56.0435 11.282C55.6541 11.5529 55.2035 11.6883 54.6914 11.6883C53.8112 11.6883 53.1447 11.3498 52.6919 10.6727C52.328 10.1268 52.146 9.44969 52.146 8.64142C52.146 7.65118 52.4126 6.86407 52.9458 6.28009C53.4832 5.69187 54.1117 5.39777 54.8311 5.39777C55.432 5.39777 55.9525 5.64532 56.3926 6.14044C56.8369 6.63133 57.076 7.36131 57.1099 8.33038ZM55.5483 7.90509C55.5483 7.22378 55.5103 6.75616 55.4341 6.50226C55.3621 6.24835 55.2479 6.05581 55.0913 5.92462C55.0024 5.84845 54.884 5.81036 54.7358 5.81036C54.5158 5.81036 54.3359 5.91827 54.1963 6.13409C53.9466 6.51072 53.8218 7.027 53.8218 7.68292V7.90509H55.5483Z" fill="white"/>
<path d="M60.1567 10.9075V13.1165C60.1567 13.4212 60.18 13.6286 60.2266 13.7386C60.2773 13.8486 60.3535 13.929 60.4551 13.9798C60.5566 14.0306 60.7555 14.056 61.0518 14.056V14.2908H57.6685V14.056C57.9308 14.0475 58.1255 13.9734 58.2524 13.8338C58.3371 13.7365 58.3794 13.4847 58.3794 13.0784V6.81329C58.3794 6.39435 58.3307 6.12775 58.2334 6.01349C58.1361 5.895 57.9478 5.82729 57.6685 5.81036V5.5755H60.1567V6.35626C60.3641 6.05157 60.5757 5.83152 60.7915 5.69611C61.1004 5.49721 61.4368 5.39777 61.8008 5.39777C62.2367 5.39777 62.6323 5.5353 62.9878 5.81036C63.3475 6.08543 63.6204 6.46629 63.8066 6.95294C63.9928 7.43536 64.0859 7.95587 64.0859 8.51447C64.0859 9.11538 63.9886 9.66551 63.7939 10.1649C63.6035 10.66 63.3242 11.0387 62.9561 11.3011C62.5921 11.5592 62.1859 11.6883 61.7373 11.6883C61.4115 11.6883 61.1068 11.6164 60.8232 11.4725C60.6117 11.3624 60.3895 11.1741 60.1567 10.9075ZM60.1567 10.2664C60.5207 10.7827 60.91 11.0408 61.3247 11.0408C61.5532 11.0408 61.7415 10.9202 61.8896 10.679C62.1097 10.3235 62.2197 9.64646 62.2197 8.64777C62.2197 7.62368 62.0991 6.92332 61.8579 6.54669C61.6971 6.29702 61.4813 6.17218 61.2104 6.17218C60.783 6.17218 60.4318 6.4811 60.1567 7.09894V10.2664Z" fill="white"/>
<path d="M70.8271 5.5755V10.222C70.8271 10.6748 70.8695 10.9583 70.9541 11.0726C71.0387 11.1826 71.2101 11.2524 71.4683 11.282V11.5106H69.0498V10.7171C68.7663 11.0556 68.4827 11.3032 68.1992 11.4598C67.9157 11.6121 67.5983 11.6883 67.2471 11.6883C66.9128 11.6883 66.6144 11.5867 66.3521 11.3836C66.0939 11.1762 65.9204 10.935 65.8315 10.66C65.7427 10.3849 65.6982 9.9046 65.6982 9.21906V6.86407C65.6982 6.41551 65.6559 6.13621 65.5713 6.02618C65.4909 5.91616 65.3195 5.84422 65.0571 5.81036V5.5755H67.4756V9.63165C67.4756 10.0548 67.4946 10.3278 67.5327 10.4505C67.575 10.5732 67.6385 10.6663 67.7231 10.7298C67.812 10.7933 67.9136 10.825 68.0278 10.825C68.1802 10.825 68.3177 10.7848 68.4404 10.7044C68.6097 10.5944 68.8128 10.3722 69.0498 10.0379V6.86407C69.0498 6.41551 69.0075 6.13621 68.9229 6.02618C68.8424 5.91616 68.6711 5.84422 68.4087 5.81036V5.5755H70.8271Z" fill="white"/>
<path d="M74.6294 2.90314V6.17218C75.1287 5.6559 75.6746 5.39777 76.2671 5.39777C76.6733 5.39777 77.0563 5.51837 77.416 5.75958C77.7757 5.99656 78.0571 6.3351 78.2603 6.77521C78.4634 7.21531 78.5649 7.72312 78.5649 8.29865C78.5649 8.94611 78.4359 9.53432 78.1777 10.0633C77.9196 10.5923 77.5747 10.9964 77.1431 11.2757C76.7114 11.5508 76.2184 11.6883 75.6641 11.6883C75.3424 11.6883 75.0568 11.6375 74.8071 11.5359C74.5575 11.4344 74.312 11.2693 74.0708 11.0408L73.0869 11.6819H72.8711V4.13458C72.8711 3.79181 72.8563 3.58022 72.8267 3.49982C72.7843 3.38133 72.7166 3.29458 72.6235 3.23956C72.5347 3.18032 72.3823 3.14646 72.1665 3.138V2.90314H74.6294ZM74.6294 6.73712V9.37775C74.6294 9.91518 74.6421 10.258 74.6675 10.4061C74.7098 10.6557 74.8114 10.8589 74.9722 11.0154C75.133 11.1678 75.3382 11.244 75.5879 11.244C75.8037 11.244 75.9878 11.1826 76.1401 11.0599C76.2967 10.9372 76.4258 10.6938 76.5273 10.3299C76.6331 9.96596 76.686 9.31004 76.686 8.36212C76.686 7.45229 76.5718 6.8281 76.3433 6.48956C76.1782 6.24412 75.9561 6.1214 75.6768 6.1214C75.3128 6.1214 74.9637 6.32664 74.6294 6.73712Z" fill="white"/>
<path d="M81.8911 2.90314V10.2791C81.8911 10.6981 81.9398 10.9668 82.0371 11.0853C82.1344 11.1995 82.3249 11.2651 82.6084 11.282V11.5106H79.4028V11.282C79.6652 11.2736 79.8599 11.1974 79.9868 11.0535C80.0715 10.9562 80.1138 10.6981 80.1138 10.2791V4.13458C80.1138 3.71987 80.0651 3.45538 79.9678 3.34113C79.8704 3.22264 79.6821 3.15493 79.4028 3.138V2.90314H81.8911Z" fill="white"/>
<path d="M84.6143 2.70001C84.8893 2.70001 85.1221 2.79734 85.3125 2.992C85.5029 3.18243 85.5981 3.41307 85.5981 3.6839C85.5981 3.95473 85.5008 4.18536 85.3062 4.37579C85.1157 4.56622 84.8851 4.66144 84.6143 4.66144C84.3434 4.66144 84.1128 4.56622 83.9224 4.37579C83.7319 4.18536 83.6367 3.95473 83.6367 3.6839C83.6367 3.41307 83.7319 3.18243 83.9224 2.992C84.1128 2.79734 84.3434 2.70001 84.6143 2.70001ZM85.5029 5.5755V10.2791C85.5029 10.6981 85.5516 10.9668 85.6489 11.0853C85.7463 11.1995 85.9367 11.2651 86.2202 11.282V11.5106H83.0146V11.282C83.277 11.2736 83.4717 11.1974 83.5986 11.0535C83.6833 10.9562 83.7256 10.6981 83.7256 10.2791V6.81329C83.7256 6.39435 83.6769 6.12775 83.5796 6.01349C83.4823 5.895 83.2939 5.82729 83.0146 5.81036V5.5755H85.5029Z" fill="white"/>
<path d="M91.6475 9.98077L91.8442 10.1331C91.5649 10.6579 91.2158 11.0493 90.7969 11.3074C90.3822 11.5613 89.9399 11.6883 89.4702 11.6883C88.6789 11.6883 88.0462 11.39 87.5723 10.7933C87.0983 10.1966 86.8613 9.47931 86.8613 8.64142C86.8613 7.83315 87.0771 7.12221 87.5088 6.50861C88.0293 5.76805 88.7466 5.39777 89.6606 5.39777C90.2743 5.39777 90.7609 5.55223 91.1206 5.86115C91.4845 6.17006 91.6665 6.51495 91.6665 6.89581C91.6665 7.13702 91.5924 7.32957 91.4443 7.47345C91.3005 7.61733 91.11 7.68927 90.873 7.68927C90.6234 7.68927 90.416 7.60675 90.251 7.44171C90.0902 7.27667 89.9907 6.98256 89.9526 6.55939C89.9272 6.29279 89.8659 6.10659 89.7686 6.00079C89.6712 5.895 89.557 5.8421 89.4258 5.8421C89.2227 5.8421 89.0492 5.95001 88.9053 6.16583C88.6852 6.49168 88.5752 6.99103 88.5752 7.66388C88.5752 8.22247 88.6641 8.75779 88.8418 9.26984C89.0195 9.77765 89.2629 10.1564 89.5718 10.4061C89.8045 10.588 90.0796 10.679 90.397 10.679C90.6043 10.679 90.8011 10.6304 90.9873 10.533C91.1735 10.4357 91.3936 10.2516 91.6475 9.98077Z" fill="white"/>
<path d="M98.6299 5.39777C99.1462 5.39777 99.6265 5.53107 100.071 5.79767C100.515 6.06427 100.852 6.44301 101.08 6.9339C101.313 7.42478 101.429 7.96222 101.429 8.5462C101.429 9.38833 101.215 10.0929 100.788 10.66C100.272 11.3455 99.5588 11.6883 98.6489 11.6883C97.756 11.6883 97.0684 11.3751 96.5859 10.7488C96.1035 10.1225 95.8623 9.39679 95.8623 8.57159C95.8623 7.72101 96.1077 6.98045 96.5986 6.34991C97.0938 5.71515 97.7708 5.39777 98.6299 5.39777ZM98.6553 5.84845C98.4395 5.84845 98.2533 5.93097 98.0967 6.09601C97.9443 6.25682 97.8428 6.57843 97.792 7.06085C97.7454 7.53904 97.7222 8.20555 97.7222 9.06036C97.7222 9.51316 97.7518 9.93634 97.811 10.3299C97.8576 10.6304 97.957 10.8589 98.1094 11.0154C98.2617 11.172 98.4352 11.2503 98.6299 11.2503C98.8203 11.2503 98.979 11.1974 99.106 11.0916C99.271 10.9477 99.381 10.7467 99.436 10.4886C99.5207 10.0866 99.563 9.27407 99.563 8.05109C99.563 7.33169 99.5228 6.83868 99.4424 6.57208C99.362 6.30125 99.2435 6.10447 99.0869 5.98175C98.9769 5.89288 98.833 5.84845 98.6553 5.84845Z" fill="white"/>
<path d="M104.933 6.19757V10.3172C104.933 10.715 104.975 10.9647 105.06 11.0662C105.195 11.2228 105.445 11.2947 105.809 11.282V11.5106H102.312V11.282C102.578 11.2778 102.766 11.2482 102.876 11.1932C102.991 11.1339 103.069 11.0535 103.111 10.952C103.154 10.8504 103.175 10.6388 103.175 10.3172V6.19757H102.312V5.5755H103.175V5.13751L103.168 4.83917C103.168 4.2298 103.391 3.72198 103.835 3.31573C104.284 2.90948 104.889 2.70636 105.65 2.70636C106.171 2.70636 106.556 2.80369 106.806 2.99835C107.06 3.19301 107.187 3.40883 107.187 3.64581C107.187 3.83624 107.108 4.00128 106.952 4.14093C106.795 4.28058 106.588 4.3504 106.33 4.3504C106.11 4.3504 105.934 4.29327 105.803 4.17902C105.676 4.06476 105.612 3.93781 105.612 3.79816C105.612 3.76007 105.625 3.68178 105.65 3.56329C105.667 3.49135 105.676 3.42365 105.676 3.36017C105.676 3.2713 105.65 3.20571 105.6 3.16339C105.532 3.09991 105.449 3.06818 105.352 3.06818C105.229 3.06818 105.126 3.11896 105.041 3.22052C104.961 3.32208 104.92 3.48501 104.92 3.70929L104.933 4.82013V5.5755H105.809V6.19757H104.933Z" fill="white"/>
<path d="M118.149 2.70636V5.68976H117.901C117.715 4.91111 117.368 4.31443 116.86 3.89972C116.353 3.48501 115.777 3.27765 115.134 3.27765C114.596 3.27765 114.103 3.43211 113.655 3.74103C113.206 4.04995 112.878 4.45408 112.671 4.95343C112.404 5.59243 112.271 6.30336 112.271 7.08624C112.271 7.85642 112.368 8.5589 112.563 9.19366C112.758 9.8242 113.062 10.3024 113.477 10.6282C113.892 10.9498 114.429 11.1107 115.089 11.1107C115.631 11.1107 116.126 10.9922 116.575 10.7552C117.028 10.5182 117.504 10.1098 118.003 9.53009V10.2728C117.521 10.7763 117.017 11.1424 116.492 11.3709C115.972 11.5952 115.362 11.7073 114.664 11.7073C113.746 11.7073 112.929 11.5233 112.214 11.1551C111.503 10.7869 110.953 10.258 110.563 9.56818C110.178 8.8784 109.986 8.14419 109.986 7.36554C109.986 6.54458 110.2 5.76593 110.627 5.0296C111.059 4.29327 111.638 3.72198 112.366 3.31573C113.098 2.90948 113.875 2.70636 114.696 2.70636C115.301 2.70636 115.94 2.83754 116.613 3.09991C117.002 3.25226 117.25 3.32843 117.355 3.32843C117.491 3.32843 117.607 3.27976 117.705 3.18243C117.806 3.08087 117.872 2.92218 117.901 2.70636H118.149Z" fill="white"/>
<path d="M120.732 2.70001C121.007 2.70001 121.24 2.79734 121.431 2.992C121.621 3.18243 121.716 3.41307 121.716 3.6839C121.716 3.95473 121.619 4.18536 121.424 4.37579C121.234 4.56622 121.003 4.66144 120.732 4.66144C120.462 4.66144 120.231 4.56622 120.041 4.37579C119.85 4.18536 119.755 3.95473 119.755 3.6839C119.755 3.41307 119.85 3.18243 120.041 2.992C120.231 2.79734 120.462 2.70001 120.732 2.70001ZM121.621 5.5755V10.2791C121.621 10.6981 121.67 10.9668 121.767 11.0853C121.864 11.1995 122.055 11.2651 122.338 11.282V11.5106H119.133V11.282C119.395 11.2736 119.59 11.1974 119.717 11.0535C119.801 10.9562 119.844 10.6981 119.844 10.2791V6.81329C119.844 6.39435 119.795 6.12775 119.698 6.01349C119.6 5.895 119.412 5.82729 119.133 5.81036V5.5755H121.621Z" fill="white"/>
<path d="M125.601 11.6883L123.602 7.08624C123.36 6.53188 123.172 6.18064 123.037 6.03253C122.939 5.92251 122.795 5.84845 122.605 5.81036V5.5755H125.76V5.81036C125.561 5.81036 125.425 5.84633 125.354 5.91827C125.252 6.01137 125.201 6.1214 125.201 6.24835C125.201 6.40493 125.294 6.69904 125.48 7.13068L126.458 9.3587L127.239 7.43536C127.463 6.88523 127.575 6.49591 127.575 6.2674C127.575 6.13621 127.527 6.03042 127.429 5.95001C127.336 5.86538 127.169 5.81883 126.928 5.81036V5.5755H128.87V5.81036C128.684 5.83575 128.532 5.90558 128.413 6.01984C128.295 6.13409 128.117 6.47052 127.88 7.02911L125.899 11.6883H125.601Z" fill="white"/>
<path d="M130.851 2.70001C131.126 2.70001 131.358 2.79734 131.549 2.992C131.739 3.18243 131.834 3.41307 131.834 3.6839C131.834 3.95473 131.737 4.18536 131.542 4.37579C131.352 4.56622 131.121 4.66144 130.851 4.66144C130.58 4.66144 130.349 4.56622 130.159 4.37579C129.968 4.18536 129.873 3.95473 129.873 3.6839C129.873 3.41307 129.968 3.18243 130.159 2.992C130.349 2.79734 130.58 2.70001 130.851 2.70001ZM131.739 5.5755V10.2791C131.739 10.6981 131.788 10.9668 131.885 11.0853C131.983 11.1995 132.173 11.2651 132.457 11.282V11.5106H129.251V11.282C129.513 11.2736 129.708 11.1974 129.835 11.0535C129.92 10.9562 129.962 10.6981 129.962 10.2791V6.81329C129.962 6.39435 129.913 6.12775 129.816 6.01349C129.719 5.895 129.53 5.82729 129.251 5.81036V5.5755H131.739Z" fill="white"/>
<path d="M137.884 9.98077L138.081 10.1331C137.801 10.6579 137.452 11.0493 137.033 11.3074C136.618 11.5613 136.176 11.6883 135.707 11.6883C134.915 11.6883 134.283 11.39 133.809 10.7933C133.335 10.1966 133.098 9.47931 133.098 8.64142C133.098 7.83315 133.313 7.12221 133.745 6.50861C134.266 5.76805 134.983 5.39777 135.897 5.39777C136.511 5.39777 136.997 5.55223 137.357 5.86115C137.721 6.17006 137.903 6.51495 137.903 6.89581C137.903 7.13702 137.829 7.32957 137.681 7.47345C137.537 7.61733 137.346 7.68927 137.109 7.68927C136.86 7.68927 136.652 7.60675 136.487 7.44171C136.326 7.27667 136.227 6.98256 136.189 6.55939C136.164 6.29279 136.102 6.10659 136.005 6.00079C135.908 5.895 135.793 5.8421 135.662 5.8421C135.459 5.8421 135.285 5.95001 135.142 6.16583C134.922 6.49168 134.812 6.99103 134.812 7.66388C134.812 8.22247 134.9 8.75779 135.078 9.26984C135.256 9.77765 135.499 10.1564 135.808 10.4061C136.041 10.588 136.316 10.679 136.633 10.679C136.841 10.679 137.037 10.6304 137.224 10.533C137.41 10.4357 137.63 10.2516 137.884 9.98077Z" fill="white"/>
<path d="M146.58 2.90314V5.23273H146.352C146.216 4.69529 146.066 4.3102 145.901 4.07745C145.736 3.84047 145.509 3.65216 145.222 3.51251C145.061 3.43634 144.779 3.39825 144.377 3.39825H143.736V10.0379C143.736 10.478 143.76 10.7531 143.806 10.8631C143.857 10.9731 143.952 11.0705 144.092 11.1551C144.236 11.2355 144.43 11.2757 144.676 11.2757H144.961V11.5106H140.455V11.2757H140.74C140.99 11.2757 141.191 11.2313 141.343 11.1424C141.453 11.0831 141.54 10.9816 141.604 10.8377C141.65 10.7361 141.673 10.4695 141.673 10.0379V3.39825H141.051C140.472 3.39825 140.05 3.52098 139.788 3.76642C139.42 4.10919 139.187 4.59796 139.09 5.23273H138.849V2.90314H146.58Z" fill="white"/>
<path d="M151.322 8.33038H148.065C148.104 9.11749 148.313 9.73956 148.694 10.1966C148.986 10.5478 149.337 10.7234 149.748 10.7234C150.001 10.7234 150.232 10.6536 150.439 10.514C150.647 10.3701 150.869 10.1141 151.106 9.74591L151.322 9.88556C151 10.5415 150.645 11.007 150.255 11.282C149.866 11.5529 149.415 11.6883 148.903 11.6883C148.023 11.6883 147.357 11.3498 146.904 10.6727C146.54 10.1268 146.358 9.44969 146.358 8.64142C146.358 7.65118 146.625 6.86407 147.158 6.28009C147.695 5.69187 148.324 5.39777 149.043 5.39777C149.644 5.39777 150.164 5.64532 150.604 6.14044C151.049 6.63133 151.288 7.36131 151.322 8.33038ZM149.76 7.90509C149.76 7.22378 149.722 6.75616 149.646 6.50226C149.574 6.24835 149.46 6.05581 149.303 5.92462C149.214 5.84845 149.096 5.81036 148.948 5.81036C148.728 5.81036 148.548 5.91827 148.408 6.13409C148.159 6.51072 148.034 7.027 148.034 7.68292V7.90509H149.76Z" fill="white"/>
<path d="M156.914 9.98077L157.111 10.1331C156.832 10.6579 156.482 11.0493 156.063 11.3074C155.649 11.5613 155.207 11.6883 154.737 11.6883C153.945 11.6883 153.313 11.39 152.839 10.7933C152.365 10.1966 152.128 9.47931 152.128 8.64142C152.128 7.83315 152.344 7.12221 152.775 6.50861C153.296 5.76805 154.013 5.39777 154.927 5.39777C155.541 5.39777 156.028 5.55223 156.387 5.86115C156.751 6.17006 156.933 6.51495 156.933 6.89581C156.933 7.13702 156.859 7.32957 156.711 7.47345C156.567 7.61733 156.377 7.68927 156.14 7.68927C155.89 7.68927 155.683 7.60675 155.518 7.44171C155.357 7.27667 155.257 6.98256 155.219 6.55939C155.194 6.29279 155.132 6.10659 155.035 6.00079C154.938 5.895 154.824 5.8421 154.692 5.8421C154.489 5.8421 154.316 5.95001 154.172 6.16583C153.952 6.49168 153.842 6.99103 153.842 7.66388C153.842 8.22247 153.931 8.75779 154.108 9.26984C154.286 9.77765 154.529 10.1564 154.838 10.4061C155.071 10.588 155.346 10.679 155.664 10.679C155.871 10.679 156.068 10.6304 156.254 10.533C156.44 10.4357 156.66 10.2516 156.914 9.98077Z" fill="white"/>
<path d="M160.272 2.90314V6.33722C160.598 5.99445 160.896 5.75323 161.167 5.61359C161.438 5.46971 161.719 5.39777 162.011 5.39777C162.384 5.39777 162.701 5.50356 162.963 5.71515C163.23 5.92674 163.406 6.17641 163.49 6.46417C163.579 6.7477 163.624 7.22801 163.624 7.90509V10.222C163.624 10.6748 163.666 10.9583 163.75 11.0726C163.835 11.1826 164.007 11.2524 164.265 11.282V11.5106H161.256V11.282C161.467 11.2524 161.626 11.1678 161.732 11.0281C161.808 10.9181 161.846 10.6494 161.846 10.222V7.57501C161.846 7.08413 161.827 6.77732 161.789 6.6546C161.751 6.52765 161.685 6.43032 161.592 6.36261C161.503 6.29067 161.402 6.2547 161.288 6.2547C161.118 6.2547 160.953 6.31394 160.792 6.43243C160.632 6.54669 160.458 6.74982 160.272 7.04181V10.222C160.272 10.6452 160.304 10.9096 160.367 11.0154C160.448 11.1593 160.613 11.2482 160.862 11.282V11.5106H157.854V11.282C158.103 11.2567 158.281 11.1762 158.387 11.0408C158.459 10.9477 158.495 10.6748 158.495 10.222V4.19171C158.495 3.74314 158.452 3.46385 158.368 3.35382C158.287 3.24379 158.116 3.17185 157.854 3.138V2.90314H160.272Z" fill="white"/>
<path d="M42.6714 31V30.7651H42.957C43.2067 30.7651 43.3971 30.7271 43.5283 30.6509C43.6637 30.5705 43.7632 30.4626 43.8267 30.3271C43.8647 30.2383 43.8838 29.9717 43.8838 29.5273V23.8652C43.8838 23.4251 43.8605 23.1501 43.814 23.04C43.7674 22.93 43.6722 22.8348 43.5283 22.7544C43.3887 22.6698 43.1982 22.6274 42.957 22.6274H42.6714V22.3926H46.5244C47.5527 22.3926 48.38 22.5322 49.0063 22.8115C49.7723 23.1543 50.3521 23.6727 50.7456 24.3667C51.1434 25.0607 51.3423 25.8457 51.3423 26.7217C51.3423 27.3268 51.245 27.8854 51.0503 28.3975C50.8556 28.9053 50.6038 29.3263 50.2949 29.6606C49.986 29.9907 49.6284 30.2573 49.2222 30.4604C48.8201 30.6593 48.3271 30.8138 47.7432 30.9238C47.485 30.9746 47.0788 31 46.5244 31H42.6714ZM45.9531 22.8813V29.5972C45.9531 29.9526 45.9701 30.1706 46.0039 30.251C46.0378 30.3314 46.0949 30.3927 46.1753 30.4351C46.2896 30.4985 46.4546 30.5303 46.6704 30.5303C47.3771 30.5303 47.9167 30.2891 48.2891 29.8066C48.7969 29.1549 49.0508 28.1436 49.0508 26.7725C49.0508 25.668 48.8773 24.7856 48.5303 24.1255C48.2552 23.6092 47.9019 23.258 47.4702 23.0718C47.1655 22.9406 46.6598 22.8771 45.9531 22.8813Z" fill="white"/>
<path d="M57.3599 27.8198H54.1035C54.1416 28.6069 54.3511 29.229 54.7319 29.686C55.0239 30.0373 55.3752 30.2129 55.7856 30.2129C56.0396 30.2129 56.2702 30.1431 56.4775 30.0034C56.6849 29.8595 56.9071 29.6035 57.144 29.2354L57.3599 29.375C57.0382 30.0309 56.6828 30.4964 56.2935 30.7715C55.9041 31.0423 55.4535 31.1777 54.9414 31.1777C54.0612 31.1777 53.3947 30.8392 52.9419 30.1621C52.578 29.6162 52.396 28.9391 52.396 28.1309C52.396 27.1406 52.6626 26.3535 53.1958 25.7695C53.7332 25.1813 54.3617 24.8872 55.0811 24.8872C55.682 24.8872 56.2025 25.1348 56.6426 25.6299C57.0869 26.1208 57.326 26.8507 57.3599 27.8198ZM55.7983 27.3945C55.7983 26.7132 55.7603 26.2456 55.6841 25.9917C55.6121 25.7378 55.4979 25.5452 55.3413 25.4141C55.2524 25.3379 55.134 25.2998 54.9858 25.2998C54.7658 25.2998 54.5859 25.4077 54.4463 25.6235C54.1966 26.0002 54.0718 26.5164 54.0718 27.1724V27.3945H55.7983Z" fill="white"/>
<path d="M60.4067 30.397V32.606C60.4067 32.9106 60.43 33.118 60.4766 33.228C60.5273 33.3381 60.6035 33.4185 60.7051 33.4692C60.8066 33.52 61.0055 33.5454 61.3018 33.5454V33.7803H57.9185V33.5454C58.1808 33.5369 58.3755 33.4629 58.5024 33.3232C58.5871 33.2259 58.6294 32.9741 58.6294 32.5679V26.3027C58.6294 25.8838 58.5807 25.6172 58.4834 25.5029C58.3861 25.3844 58.1978 25.3167 57.9185 25.2998V25.0649H60.4067V25.8457C60.6141 25.541 60.8257 25.321 61.0415 25.1855C61.3504 24.9867 61.6868 24.8872 62.0508 24.8872C62.4867 24.8872 62.8823 25.0247 63.2378 25.2998C63.5975 25.5749 63.8704 25.9557 64.0566 26.4424C64.2428 26.9248 64.3359 27.4453 64.3359 28.0039C64.3359 28.6048 64.2386 29.1549 64.0439 29.6543C63.8535 30.1494 63.5742 30.5282 63.2061 30.7905C62.8421 31.0487 62.4359 31.1777 61.9873 31.1777C61.6615 31.1777 61.3568 31.1058 61.0732 30.9619C60.8617 30.8519 60.6395 30.6636 60.4067 30.397ZM60.4067 29.7559C60.7707 30.2721 61.16 30.5303 61.5747 30.5303C61.8032 30.5303 61.9915 30.4097 62.1396 30.1685C62.3597 29.813 62.4697 29.1359 62.4697 28.1372C62.4697 27.1131 62.3491 26.4128 62.1079 26.0361C61.9471 25.7865 61.7313 25.6616 61.4604 25.6616C61.033 25.6616 60.6818 25.9705 60.4067 26.5884V29.7559Z" fill="white"/>
<path d="M68.6206 30.124C67.897 30.763 67.2474 31.0825 66.6719 31.0825C66.3333 31.0825 66.0519 30.9725 65.8276 30.7524C65.6034 30.5282 65.4912 30.2489 65.4912 29.9146C65.4912 29.4618 65.6859 29.0555 66.0752 28.6958C66.4645 28.3319 67.313 27.8494 68.6206 27.2485V26.6519C68.6206 26.2033 68.5952 25.9219 68.5444 25.8076C68.4979 25.6891 68.4069 25.5876 68.2715 25.5029C68.1361 25.4141 67.9837 25.3696 67.8145 25.3696C67.5394 25.3696 67.313 25.431 67.1353 25.5537C67.0252 25.6299 66.9702 25.7188 66.9702 25.8203C66.9702 25.9092 67.0295 26.0192 67.1479 26.1504C67.3088 26.3324 67.3892 26.508 67.3892 26.6772C67.3892 26.8846 67.3109 27.0623 67.1543 27.2104C67.002 27.3543 66.8009 27.4263 66.5513 27.4263C66.2847 27.4263 66.0604 27.3459 65.8784 27.1851C65.7007 27.0243 65.6118 26.8359 65.6118 26.6201C65.6118 26.3154 65.7324 26.0256 65.9736 25.7505C66.2148 25.4712 66.5513 25.2575 66.9829 25.1094C67.4146 24.9613 67.8631 24.8872 68.3286 24.8872C68.8914 24.8872 69.3358 25.0078 69.6616 25.249C69.9917 25.486 70.2054 25.7441 70.3027 26.0234C70.362 26.2012 70.3916 26.6095 70.3916 27.2485V29.5527C70.3916 29.8236 70.4022 29.995 70.4233 30.0669C70.4445 30.1346 70.4762 30.1854 70.5186 30.2192C70.5609 30.2531 70.6095 30.27 70.6646 30.27C70.7746 30.27 70.8867 30.1917 71.001 30.0352L71.1914 30.1875C70.9798 30.5007 70.7598 30.7292 70.5312 30.873C70.307 31.0127 70.0509 31.0825 69.7632 31.0825C69.4246 31.0825 69.1602 31.0042 68.9697 30.8477C68.7793 30.6868 68.6629 30.4456 68.6206 30.124ZM68.6206 29.6606V27.6738C68.1086 27.9743 67.7277 28.2959 67.478 28.6387C67.313 28.8672 67.2305 29.0978 67.2305 29.3306C67.2305 29.5252 67.3003 29.6966 67.4399 29.8447C67.5457 29.959 67.6938 30.0161 67.8843 30.0161C68.0959 30.0161 68.3413 29.8976 68.6206 29.6606Z" fill="white"/>
<path d="M74.3081 25.0649V26.4106C74.7017 25.797 75.0466 25.3908 75.3428 25.1919C75.639 24.9888 75.9246 24.8872 76.1997 24.8872C76.4367 24.8872 76.625 24.9613 76.7646 25.1094C76.9085 25.2533 76.9805 25.4585 76.9805 25.7251C76.9805 26.0086 76.9106 26.2287 76.771 26.3853C76.6356 26.5418 76.4705 26.6201 76.2759 26.6201C76.0516 26.6201 75.8569 26.5482 75.6919 26.4043C75.5269 26.2604 75.4295 26.18 75.3999 26.1631C75.3576 26.1377 75.3089 26.125 75.2539 26.125C75.1312 26.125 75.0148 26.1715 74.9048 26.2646C74.7313 26.4085 74.6001 26.6138 74.5112 26.8804C74.3758 27.2909 74.3081 27.7437 74.3081 28.2388V29.6035L74.3145 29.959C74.3145 30.2002 74.3293 30.3547 74.3589 30.4224C74.4097 30.5366 74.4837 30.6213 74.5811 30.6763C74.6826 30.7271 74.8519 30.7588 75.0889 30.7715V31H71.8833V30.7715C72.1414 30.7503 72.3149 30.6805 72.4038 30.562C72.4969 30.4393 72.5435 30.1198 72.5435 29.6035V26.3218C72.5435 25.9832 72.5265 25.7674 72.4927 25.6743C72.4504 25.5558 72.389 25.4691 72.3086 25.4141C72.2282 25.359 72.0864 25.321 71.8833 25.2998V25.0649H74.3081Z" fill="white"/>
<path d="M79.9766 22.894V25.0649H81.3857V25.6934H79.9766V29.356C79.9766 29.6987 79.9914 29.9209 80.021 30.0225C80.0549 30.1198 80.112 30.2002 80.1924 30.2637C80.2728 30.3229 80.3468 30.3525 80.4146 30.3525C80.6896 30.3525 80.9499 30.1431 81.1953 29.7241L81.3857 29.8638C81.043 30.6763 80.4865 31.0825 79.7163 31.0825C79.3397 31.0825 79.0202 30.9788 78.7578 30.7715C78.4997 30.5599 78.3346 30.325 78.2627 30.0669C78.2204 29.923 78.1992 29.5337 78.1992 28.8989V25.6934H77.4248V25.4712C77.958 25.0946 78.4108 24.6989 78.7832 24.2842C79.1598 23.8695 79.4878 23.4061 79.7671 22.894H79.9766Z" fill="white"/>
<path d="M84.4136 25.0649V25.8457C84.7394 25.4902 85.0399 25.2427 85.3149 25.103C85.5942 24.9591 85.8989 24.8872 86.229 24.8872C86.6099 24.8872 86.9294 24.9761 87.1875 25.1538C87.4456 25.3315 87.6445 25.6024 87.7842 25.9663C88.1227 25.5854 88.4465 25.3104 88.7554 25.1411C89.0685 24.9718 89.3944 24.8872 89.7329 24.8872C90.1434 24.8872 90.4692 24.9824 90.7104 25.1729C90.9559 25.359 91.1252 25.5981 91.2183 25.8901C91.3156 26.1779 91.3643 26.6392 91.3643 27.2739V29.7051C91.3643 30.1621 91.4045 30.4456 91.4849 30.5557C91.5695 30.6657 91.743 30.7376 92.0054 30.7715V31H88.9395V30.7715C89.1807 30.7503 89.3584 30.6572 89.4727 30.4922C89.5488 30.3779 89.5869 30.1156 89.5869 29.7051V27.1533C89.5869 26.6243 89.5658 26.2879 89.5234 26.144C89.4811 26.0002 89.4134 25.8944 89.3203 25.8267C89.2314 25.7547 89.1257 25.7188 89.0029 25.7188C88.821 25.7188 88.6369 25.7865 88.4507 25.9219C88.2645 26.0531 88.0762 26.252 87.8857 26.5186V29.7051C87.8857 30.1325 87.9217 30.4012 87.9937 30.5112C88.091 30.6678 88.2772 30.7546 88.5522 30.7715V31H85.48V30.7715C85.645 30.763 85.7741 30.7228 85.8672 30.6509C85.9645 30.5747 86.028 30.4858 86.0576 30.3843C86.0915 30.2785 86.1084 30.0521 86.1084 29.7051V27.1533C86.1084 26.6159 86.0872 26.2795 86.0449 26.144C86.0026 26.0086 85.9307 25.9028 85.8291 25.8267C85.7318 25.7505 85.626 25.7124 85.5117 25.7124C85.3424 25.7124 85.188 25.7568 85.0483 25.8457C84.8494 25.9769 84.6379 26.2012 84.4136 26.5186V29.7051C84.4136 30.124 84.4538 30.4012 84.5342 30.5366C84.6188 30.6678 84.7923 30.7461 85.0547 30.7715V31H81.9951V30.7715C82.2448 30.7461 82.4225 30.6657 82.5283 30.5303C82.6003 30.4372 82.6362 30.1621 82.6362 29.7051V26.3535C82.6362 25.9049 82.5939 25.6257 82.5093 25.5156C82.4289 25.4056 82.2575 25.3337 81.9951 25.2998V25.0649H84.4136Z" fill="white"/>
<path d="M97.8071 27.8198H94.5508C94.5889 28.6069 94.7983 29.229 95.1792 29.686C95.4712 30.0373 95.8224 30.2129 96.2329 30.2129C96.4868 30.2129 96.7174 30.1431 96.9248 30.0034C97.1322 29.8595 97.3543 29.6035 97.5913 29.2354L97.8071 29.375C97.4855 30.0309 97.13 30.4964 96.7407 30.7715C96.3514 31.0423 95.9007 31.1777 95.3887 31.1777C94.5085 31.1777 93.842 30.8392 93.3892 30.1621C93.0252 29.6162 92.8433 28.9391 92.8433 28.1309C92.8433 27.1406 93.1099 26.3535 93.6431 25.7695C94.1805 25.1813 94.8089 24.8872 95.5283 24.8872C96.1292 24.8872 96.6497 25.1348 97.0898 25.6299C97.5342 26.1208 97.7733 26.8507 97.8071 27.8198ZM96.2456 27.3945C96.2456 26.7132 96.2075 26.2456 96.1313 25.9917C96.0594 25.7378 95.9451 25.5452 95.7886 25.4141C95.6997 25.3379 95.5812 25.2998 95.4331 25.2998C95.2131 25.2998 95.0332 25.4077 94.8936 25.6235C94.6439 26.0002 94.519 26.5164 94.519 27.1724V27.3945H96.2456Z" fill="white"/>
<path d="M100.981 25.0649V25.833C101.286 25.5029 101.578 25.2638 101.857 25.1157C102.136 24.9634 102.437 24.8872 102.758 24.8872C103.143 24.8872 103.463 24.9951 103.717 25.2109C103.971 25.4225 104.14 25.687 104.225 26.0044C104.292 26.2456 104.326 26.709 104.326 27.3945V29.7051C104.326 30.1621 104.366 30.4478 104.447 30.562C104.531 30.672 104.705 30.7419 104.967 30.7715V31H101.965V30.7715C102.189 30.7419 102.35 30.6488 102.447 30.4922C102.515 30.3864 102.549 30.124 102.549 29.7051V27.0645C102.549 26.5778 102.53 26.271 102.492 26.144C102.454 26.0171 102.388 25.9198 102.295 25.8521C102.206 25.7801 102.107 25.7441 101.997 25.7441C101.633 25.7441 101.294 26.0044 100.981 26.5249V29.7051C100.981 30.1494 101.021 30.4308 101.102 30.5493C101.186 30.6678 101.341 30.7419 101.565 30.7715V31H98.5625V30.7715C98.8122 30.7461 98.9899 30.6657 99.0957 30.5303C99.1676 30.4372 99.2036 30.1621 99.2036 29.7051V26.3535C99.2036 25.9049 99.1613 25.6257 99.0767 25.5156C98.9963 25.4056 98.8249 25.3337 98.5625 25.2998V25.0649H100.981Z" fill="white"/>
<path d="M108.147 22.894V25.0649H109.557V25.6934H108.147V29.356C108.147 29.6987 108.162 29.9209 108.192 30.0225C108.226 30.1198 108.283 30.2002 108.363 30.2637C108.444 30.3229 108.518 30.3525 108.585 30.3525C108.861 30.3525 109.121 30.1431 109.366 29.7241L109.557 29.8638C109.214 30.6763 108.657 31.0825 107.887 31.0825C107.511 31.0825 107.191 30.9788 106.929 30.7715C106.671 30.5599 106.506 30.325 106.434 30.0669C106.391 29.923 106.37 29.5337 106.37 28.8989V25.6934H105.596V25.4712C106.129 25.0946 106.582 24.6989 106.954 24.2842C107.331 23.8695 107.659 23.4061 107.938 22.894H108.147Z" fill="white"/>
<path d="M116.171 24.8872C116.687 24.8872 117.167 25.0205 117.612 25.2871C118.056 25.5537 118.393 25.9325 118.621 26.4233C118.854 26.9142 118.97 27.4517 118.97 28.0356C118.97 28.8778 118.757 29.5824 118.329 30.1494C117.813 30.835 117.1 31.1777 116.19 31.1777C115.297 31.1777 114.609 30.8646 114.127 30.2383C113.645 29.612 113.403 28.8862 113.403 28.061C113.403 27.2104 113.649 26.4699 114.14 25.8394C114.635 25.2046 115.312 24.8872 116.171 24.8872ZM116.196 25.3379C115.98 25.3379 115.794 25.4204 115.638 25.5854C115.485 25.7463 115.384 26.0679 115.333 26.5503C115.286 27.0285 115.263 27.695 115.263 28.5498C115.263 29.0026 115.293 29.4258 115.352 29.8193C115.399 30.1198 115.498 30.3483 115.65 30.5049C115.803 30.6615 115.976 30.7397 116.171 30.7397C116.361 30.7397 116.52 30.6868 116.647 30.5811C116.812 30.4372 116.922 30.2362 116.977 29.978C117.062 29.576 117.104 28.7635 117.104 27.5405C117.104 26.8211 117.064 26.3281 116.983 26.0615C116.903 25.7907 116.785 25.5939 116.628 25.4712C116.518 25.3823 116.374 25.3379 116.196 25.3379Z" fill="white"/>
<path d="M122.474 25.687V29.8066C122.474 30.2044 122.516 30.4541 122.601 30.5557C122.736 30.7122 122.986 30.7842 123.35 30.7715V31H119.853V30.7715C120.119 30.7673 120.307 30.7376 120.417 30.6826C120.532 30.6234 120.61 30.543 120.652 30.4414C120.695 30.3398 120.716 30.1283 120.716 29.8066V25.687H119.853V25.0649H120.716V24.627L120.709 24.3286C120.709 23.7192 120.932 23.2114 121.376 22.8052C121.825 22.3989 122.43 22.1958 123.191 22.1958C123.712 22.1958 124.097 22.2931 124.347 22.4878C124.601 22.6825 124.728 22.8983 124.728 23.1353C124.728 23.3257 124.649 23.4907 124.493 23.6304C124.336 23.77 124.129 23.8398 123.871 23.8398C123.651 23.8398 123.475 23.7827 123.344 23.6685C123.217 23.5542 123.153 23.4272 123.153 23.2876C123.153 23.2495 123.166 23.1712 123.191 23.0527C123.208 22.9808 123.217 22.9131 123.217 22.8496C123.217 22.7607 123.191 22.6951 123.141 22.6528C123.073 22.5894 122.99 22.5576 122.893 22.5576C122.77 22.5576 122.667 22.6084 122.582 22.71C122.502 22.8115 122.461 22.9744 122.461 23.1987L122.474 24.3096V25.0649H123.35V25.687H122.474Z" fill="white"/>
<path d="M132.034 22.272C133.405 22.2212 134.518 22.6211 135.373 23.4717C136.232 24.3223 136.661 25.3866 136.661 26.6646C136.661 27.7563 136.342 28.717 135.703 29.5464C134.856 30.6466 133.661 31.1968 132.116 31.1968C130.567 31.1968 129.37 30.672 128.523 29.6226C127.855 28.7931 127.521 27.8092 127.521 26.6709C127.521 25.3929 127.954 24.3286 128.822 23.478C129.694 22.6232 130.764 22.2212 132.034 22.272ZM132.11 22.6782C131.323 22.6782 130.724 23.0802 130.313 23.8843C129.979 24.5444 129.812 25.4924 129.812 26.728C129.812 28.1965 130.07 29.2819 130.586 29.9844C130.946 30.4753 131.45 30.7207 132.097 30.7207C132.533 30.7207 132.897 30.6149 133.189 30.4033C133.561 30.1325 133.851 29.7008 134.059 29.1084C134.266 28.5117 134.37 27.7352 134.37 26.7788C134.37 25.6405 134.264 24.7899 134.052 24.2271C133.841 23.66 133.57 23.2601 133.24 23.0273C132.914 22.7946 132.537 22.6782 132.11 22.6782Z" fill="white"/>
<path d="M139.867 30.397V32.606C139.867 32.9106 139.89 33.118 139.937 33.228C139.987 33.3381 140.063 33.4185 140.165 33.4692C140.267 33.52 140.465 33.5454 140.762 33.5454V33.7803H137.378V33.5454C137.641 33.5369 137.835 33.4629 137.962 33.3232C138.047 33.2259 138.089 32.9741 138.089 32.5679V26.3027C138.089 25.8838 138.041 25.6172 137.943 25.5029C137.846 25.3844 137.658 25.3167 137.378 25.2998V25.0649H139.867V25.8457C140.074 25.541 140.286 25.321 140.501 25.1855C140.81 24.9867 141.147 24.8872 141.511 24.8872C141.947 24.8872 142.342 25.0247 142.698 25.2998C143.057 25.5749 143.33 25.9557 143.517 26.4424C143.703 26.9248 143.796 27.4453 143.796 28.0039C143.796 28.6048 143.699 29.1549 143.504 29.6543C143.313 30.1494 143.034 30.5282 142.666 30.7905C142.302 31.0487 141.896 31.1777 141.447 31.1777C141.121 31.1777 140.817 31.1058 140.533 30.9619C140.322 30.8519 140.099 30.6636 139.867 30.397ZM139.867 29.7559C140.231 30.2721 140.62 30.5303 141.035 30.5303C141.263 30.5303 141.451 30.4097 141.6 30.1685C141.82 29.813 141.93 29.1359 141.93 28.1372C141.93 27.1131 141.809 26.4128 141.568 26.0361C141.407 25.7865 141.191 25.6616 140.92 25.6616C140.493 25.6616 140.142 25.9705 139.867 26.5884V29.7559Z" fill="white"/>
<path d="M149.833 27.8198H146.576C146.614 28.6069 146.824 29.229 147.205 29.686C147.497 30.0373 147.848 30.2129 148.258 30.2129C148.512 30.2129 148.743 30.1431 148.95 30.0034C149.158 29.8595 149.38 29.6035 149.617 29.2354L149.833 29.375C149.511 30.0309 149.155 30.4964 148.766 30.7715C148.377 31.0423 147.926 31.1777 147.414 31.1777C146.534 31.1777 145.867 30.8392 145.415 30.1621C145.051 29.6162 144.869 28.9391 144.869 28.1309C144.869 27.1406 145.135 26.3535 145.668 25.7695C146.206 25.1813 146.834 24.8872 147.554 24.8872C148.155 24.8872 148.675 25.1348 149.115 25.6299C149.56 26.1208 149.799 26.8507 149.833 27.8198ZM148.271 27.3945C148.271 26.7132 148.233 26.2456 148.157 25.9917C148.085 25.7378 147.971 25.5452 147.814 25.4141C147.725 25.3379 147.607 25.2998 147.458 25.2998C147.238 25.2998 147.059 25.4077 146.919 25.6235C146.669 26.0002 146.544 26.5164 146.544 27.1724V27.3945H148.271Z" fill="white"/>
<path d="M153.006 25.0649V25.833C153.311 25.5029 153.603 25.2638 153.882 25.1157C154.162 24.9634 154.462 24.8872 154.784 24.8872C155.169 24.8872 155.488 24.9951 155.742 25.2109C155.996 25.4225 156.165 25.687 156.25 26.0044C156.318 26.2456 156.352 26.709 156.352 27.3945V29.7051C156.352 30.1621 156.392 30.4478 156.472 30.562C156.557 30.672 156.73 30.7419 156.993 30.7715V31H153.99V30.7715C154.215 30.7419 154.375 30.6488 154.473 30.4922C154.54 30.3864 154.574 30.124 154.574 29.7051V27.0645C154.574 26.5778 154.555 26.271 154.517 26.144C154.479 26.0171 154.413 25.9198 154.32 25.8521C154.231 25.7801 154.132 25.7441 154.022 25.7441C153.658 25.7441 153.319 26.0044 153.006 26.5249V29.7051C153.006 30.1494 153.047 30.4308 153.127 30.5493C153.212 30.6678 153.366 30.7419 153.59 30.7715V31H150.588V30.7715C150.838 30.7461 151.015 30.6657 151.121 30.5303C151.193 30.4372 151.229 30.1621 151.229 29.7051V26.3535C151.229 25.9049 151.187 25.6257 151.102 25.5156C151.022 25.4056 150.85 25.3337 150.588 25.2998V25.0649H153.006Z" fill="white"/>
<path d="M160.801 31V30.7651H161.087C161.337 30.7651 161.527 30.7271 161.658 30.6509C161.794 30.5705 161.893 30.4626 161.957 30.3271C161.995 30.2383 162.014 29.9717 162.014 29.5273V23.8652C162.014 23.4251 161.99 23.1501 161.944 23.04C161.897 22.93 161.802 22.8348 161.658 22.7544C161.519 22.6698 161.328 22.6274 161.087 22.6274H160.801V22.3926H164.654C165.683 22.3926 166.51 22.5322 167.136 22.8115C167.902 23.1543 168.482 23.6727 168.875 24.3667C169.273 25.0607 169.472 25.8457 169.472 26.7217C169.472 27.3268 169.375 27.8854 169.18 28.3975C168.986 28.9053 168.734 29.3263 168.425 29.6606C168.116 29.9907 167.758 30.2573 167.352 30.4604C166.95 30.6593 166.457 30.8138 165.873 30.9238C165.615 30.9746 165.209 31 164.654 31H160.801ZM164.083 22.8813V29.5972C164.083 29.9526 164.1 30.1706 164.134 30.251C164.168 30.3314 164.225 30.3927 164.305 30.4351C164.419 30.4985 164.584 30.5303 164.8 30.5303C165.507 30.5303 166.047 30.2891 166.419 29.8066C166.927 29.1549 167.181 28.1436 167.181 26.7725C167.181 25.668 167.007 24.7856 166.66 24.1255C166.385 23.6092 166.032 23.258 165.6 23.0718C165.295 22.9406 164.79 22.8771 164.083 22.8813Z" fill="white"/>
<path d="M173.738 30.124C173.014 30.763 172.365 31.0825 171.789 31.0825C171.451 31.0825 171.169 30.9725 170.945 30.7524C170.721 30.5282 170.608 30.2489 170.608 29.9146C170.608 29.4618 170.803 29.0555 171.192 28.6958C171.582 28.3319 172.43 27.8494 173.738 27.2485V26.6519C173.738 26.2033 173.712 25.9219 173.662 25.8076C173.615 25.6891 173.524 25.5876 173.389 25.5029C173.253 25.4141 173.101 25.3696 172.932 25.3696C172.657 25.3696 172.43 25.431 172.252 25.5537C172.142 25.6299 172.087 25.7188 172.087 25.8203C172.087 25.9092 172.147 26.0192 172.265 26.1504C172.426 26.3324 172.506 26.508 172.506 26.6772C172.506 26.8846 172.428 27.0623 172.271 27.2104C172.119 27.3543 171.918 27.4263 171.668 27.4263C171.402 27.4263 171.178 27.3459 170.996 27.1851C170.818 27.0243 170.729 26.8359 170.729 26.6201C170.729 26.3154 170.85 26.0256 171.091 25.7505C171.332 25.4712 171.668 25.2575 172.1 25.1094C172.532 24.9613 172.98 24.8872 173.446 24.8872C174.009 24.8872 174.453 25.0078 174.779 25.249C175.109 25.486 175.323 25.7441 175.42 26.0234C175.479 26.2012 175.509 26.6095 175.509 27.2485V29.5527C175.509 29.8236 175.519 29.995 175.541 30.0669C175.562 30.1346 175.593 30.1854 175.636 30.2192C175.678 30.2531 175.727 30.27 175.782 30.27C175.892 30.27 176.004 30.1917 176.118 30.0352L176.309 30.1875C176.097 30.5007 175.877 30.7292 175.648 30.873C175.424 31.0127 175.168 31.0825 174.88 31.0825C174.542 31.0825 174.277 31.0042 174.087 30.8477C173.896 30.6868 173.78 30.4456 173.738 30.124ZM173.738 29.6606V27.6738C173.226 27.9743 172.845 28.2959 172.595 28.6387C172.43 28.8672 172.348 29.0978 172.348 29.3306C172.348 29.5252 172.417 29.6966 172.557 29.8447C172.663 29.959 172.811 30.0161 173.001 30.0161C173.213 30.0161 173.458 29.8976 173.738 29.6606Z" fill="white"/>
<path d="M179.317 22.894V25.0649H180.727V25.6934H179.317V29.356C179.317 29.6987 179.332 29.9209 179.362 30.0225C179.396 30.1198 179.453 30.2002 179.533 30.2637C179.614 30.3229 179.688 30.3525 179.755 30.3525C180.03 30.3525 180.291 30.1431 180.536 29.7241L180.727 29.8638C180.384 30.6763 179.827 31.0825 179.057 31.0825C178.68 31.0825 178.361 30.9788 178.099 30.7715C177.84 30.5599 177.675 30.325 177.604 30.0669C177.561 29.923 177.54 29.5337 177.54 28.8989V25.6934H176.766V25.4712C177.299 25.0946 177.752 24.6989 178.124 24.2842C178.501 23.8695 178.829 23.4061 179.108 22.894H179.317Z" fill="white"/>
<path d="M184.567 30.124C183.843 30.763 183.194 31.0825 182.618 31.0825C182.28 31.0825 181.998 30.9725 181.774 30.7524C181.55 30.5282 181.438 30.2489 181.438 29.9146C181.438 29.4618 181.632 29.0555 182.021 28.6958C182.411 28.3319 183.259 27.8494 184.567 27.2485V26.6519C184.567 26.2033 184.542 25.9219 184.491 25.8076C184.444 25.6891 184.353 25.5876 184.218 25.5029C184.082 25.4141 183.93 25.3696 183.761 25.3696C183.486 25.3696 183.259 25.431 183.082 25.5537C182.972 25.6299 182.917 25.7188 182.917 25.8203C182.917 25.9092 182.976 26.0192 183.094 26.1504C183.255 26.3324 183.335 26.508 183.335 26.6772C183.335 26.8846 183.257 27.0623 183.101 27.2104C182.948 27.3543 182.747 27.4263 182.498 27.4263C182.231 27.4263 182.007 27.3459 181.825 27.1851C181.647 27.0243 181.558 26.8359 181.558 26.6201C181.558 26.3154 181.679 26.0256 181.92 25.7505C182.161 25.4712 182.498 25.2575 182.929 25.1094C183.361 24.9613 183.809 24.8872 184.275 24.8872C184.838 24.8872 185.282 25.0078 185.608 25.249C185.938 25.486 186.152 25.7441 186.249 26.0234C186.308 26.2012 186.338 26.6095 186.338 27.2485V29.5527C186.338 29.8236 186.348 29.995 186.37 30.0669C186.391 30.1346 186.423 30.1854 186.465 30.2192C186.507 30.2531 186.556 30.27 186.611 30.27C186.721 30.27 186.833 30.1917 186.947 30.0352L187.138 30.1875C186.926 30.5007 186.706 30.7292 186.478 30.873C186.253 31.0127 185.997 31.0825 185.709 31.0825C185.371 31.0825 185.106 31.0042 184.916 30.8477C184.726 30.6868 184.609 30.4456 184.567 30.124ZM184.567 29.6606V27.6738C184.055 27.9743 183.674 28.2959 183.424 28.6387C183.259 28.8672 183.177 29.0978 183.177 29.3306C183.177 29.5252 183.247 29.6966 183.386 29.8447C183.492 29.959 183.64 30.0161 183.831 30.0161C184.042 30.0161 184.288 29.8976 184.567 29.6606Z" fill="white"/>
</g>
<defs>
<clipPath id="clip0_8627_161572">
<rect width="188" height="34" fill="white"/>
</clipPath>
</defs>
</svg>
