<svg width="24" height="24" viewBox="0 0 24 24" xmlns="http://www.w3.org/2000/svg">
<path d="M21.5 15C21.4978 14.3997 21.3155 13.8139 20.9768 13.3183C20.6381 12.8227 20.1585 12.4401 19.6 12.22L21.47 5.22001C21.5091 5.07093 21.5131 4.91484 21.4819 4.76392C21.4507 4.61301 21.385 4.47135 21.29 4.35001C21.1929 4.23632 21.0715 4.14585 20.9348 4.08528C20.798 4.02471 20.6495 3.99557 20.5 4.00001H6.8L6.47 2.74001C6.41263 2.52692 6.28638 2.33879 6.11093 2.20494C5.93547 2.0711 5.72068 1.99904 5.5 2.00001H3.5V4.00001H4.73L7.21 13.26C7.2686 13.4782 7.39934 13.6701 7.58092 13.8044C7.76251 13.9388 7.98424 14.0077 8.21 14H18.5C18.7652 14 19.0196 14.1054 19.2071 14.2929C19.3946 14.4804 19.5 14.7348 19.5 15C19.5 15.2652 19.3946 15.5196 19.2071 15.7071C19.0196 15.8947 18.7652 16 18.5 16H5.5C5.23478 16 4.98043 16.1054 4.79289 16.2929C4.60536 16.4804 4.5 16.7348 4.5 17C4.5 17.2652 4.60536 17.5196 4.79289 17.7071C4.98043 17.8947 5.23478 18 5.5 18H6.68C6.51554 18.4531 6.46269 18.9392 6.52593 19.4171C6.58917 19.895 6.76665 20.3506 7.04332 20.7454C7.31999 21.1401 7.68772 21.4624 8.11535 21.6849C8.54299 21.9074 9.01795 22.0235 9.5 22.0235C9.98205 22.0235 10.457 21.9074 10.8846 21.6849C11.3123 21.4624 11.68 21.1401 11.9567 20.7454C12.2334 20.3506 12.4108 19.895 12.4741 19.4171C12.5373 18.9392 12.4845 18.4531 12.32 18H14.68C14.5303 18.4126 14.4729 18.853 14.512 19.2902C14.551 19.7274 14.6856 20.1507 14.906 20.5302C15.1265 20.9098 15.4276 21.2363 15.788 21.4868C16.1485 21.7373 16.5595 21.9056 16.9921 21.98C17.4247 22.0543 17.8683 22.0328 18.2917 21.917C18.715 21.8012 19.1078 21.5939 19.4424 21.3097C19.7769 21.0255 20.045 20.6714 20.2277 20.2723C20.4105 19.8732 20.5034 19.4389 20.5 19C20.4981 18.4834 20.3602 17.9764 20.1 17.53C20.5276 17.2604 20.8802 16.8871 21.1249 16.4448C21.3697 16.0025 21.4987 15.5055 21.5 15ZM17.59 12H9L7.34 6.00001H19.2L17.59 12ZM9.5 20C9.30222 20 9.10888 19.9414 8.94443 19.8315C8.77998 19.7216 8.65181 19.5654 8.57612 19.3827C8.50043 19.2 8.48063 18.9989 8.51921 18.8049C8.5578 18.6109 8.65304 18.4328 8.79289 18.2929C8.93275 18.153 9.11093 18.0578 9.30491 18.0192C9.49889 17.9806 9.69996 18.0004 9.88268 18.0761C10.0654 18.1518 10.2216 18.28 10.3315 18.4444C10.4414 18.6089 10.5 18.8022 10.5 19C10.5 19.2652 10.3946 19.5196 10.2071 19.7071C10.0196 19.8947 9.76522 20 9.5 20ZM17.5 20C17.3022 20 17.1089 19.9414 16.9444 19.8315C16.78 19.7216 16.6518 19.5654 16.5761 19.3827C16.5004 19.2 16.4806 18.9989 16.5192 18.8049C16.5578 18.6109 16.653 18.4328 16.7929 18.2929C16.9327 18.153 17.1109 18.0578 17.3049 18.0192C17.4989 17.9806 17.7 18.0004 17.8827 18.0761C18.0654 18.1518 18.2216 18.28 18.3315 18.4444C18.4414 18.6089 18.5 18.8022 18.5 19C18.5 19.2652 18.3946 19.5196 18.2071 19.7071C18.0196 19.8947 17.7652 20 17.5 20Z" />
</svg>
