<svg width="24" height="24" viewBox="0 0 24 24" xmlns="http://www.w3.org/2000/svg">
<path d="M22.1089 15.0317C21.9816 14.999 21.8491 14.9917 21.719 15.0103C21.5889 15.029 21.4637 15.0731 21.3508 15.1403C21.2378 15.2074 21.1392 15.2962 21.0606 15.4016C20.9821 15.507 20.9251 15.6269 20.8931 15.7543C20.71 16.4607 20.2756 17.0761 19.6714 17.4851C19.0671 17.8941 18.3344 18.0688 17.6106 17.9763C16.8868 17.8838 16.2215 17.5306 15.7395 16.9828C15.2575 16.4349 14.9918 15.7301 14.9922 15.0004V14.0004H21.9922C22.1235 14.0005 22.2536 13.9746 22.3749 13.9244C22.4963 13.8741 22.6065 13.8005 22.6994 13.7076C22.7922 13.6148 22.8659 13.5045 22.9161 13.3832C22.9664 13.2618 22.9922 13.1318 22.9922 13.0004C22.9922 12.3438 22.8629 11.6937 22.6116 11.087C22.3603 10.4804 21.992 9.9292 21.5277 9.46491C21.0634 9.00062 20.5122 8.63232 19.9056 8.38104C19.299 8.12977 18.6488 8.00044 17.9922 8.00044C17.3356 8.00044 16.6854 8.12977 16.0788 8.38104C15.4721 8.63232 14.9209 9.00062 14.4567 9.46491C13.9924 9.9292 13.6241 10.4804 13.3728 11.087C13.1215 11.6937 12.9922 12.3438 12.9922 13.0004V15.0004C12.9918 16.2176 13.4355 17.3931 14.2402 18.3064C15.0448 19.2197 16.155 19.8079 17.3626 19.9609C18.5701 20.1138 19.7919 19.8208 20.7988 19.137C21.8057 18.4531 22.5285 17.4254 22.8315 16.2465C22.8639 16.1193 22.8709 15.987 22.8521 15.857C22.8333 15.7271 22.7891 15.6022 22.722 15.4893C22.6549 15.3765 22.5662 15.278 22.461 15.1995C22.3558 15.121 22.2361 15.0639 22.1089 15.0317ZM17.9922 10.0004C18.7856 10.0007 19.5467 10.3141 20.1103 10.8725C20.4233 11.1926 20.6619 11.5777 20.809 12.0004H15.1765C15.3819 11.4172 15.7629 10.9118 16.267 10.5537C16.7712 10.1956 17.3738 10.0024 17.9922 10.0004ZM15.9922 7.00044H19.9922C20.2574 7.00044 20.5118 6.89509 20.6993 6.70755C20.8868 6.52001 20.9922 6.26566 20.9922 6.00044C20.9922 5.73523 20.8868 5.48087 20.6993 5.29334C20.5118 5.1058 20.2574 5.00044 19.9922 5.00044H15.9922C15.727 5.00044 15.4726 5.1058 15.2851 5.29334C15.0975 5.48087 14.9922 5.73523 14.9922 6.00044C14.9922 6.26566 15.0975 6.52001 15.2851 6.70755C15.4726 6.89509 15.727 7.00044 15.9922 7.00044ZM9.91019 11.7176C10.4439 11.1499 10.7995 10.4383 10.9332 9.67073C11.0668 8.90313 10.9726 8.11319 10.6621 7.39856C10.3517 6.68393 9.83865 6.07594 9.18641 5.64974C8.53417 5.22353 7.77133 4.9978 6.99219 5.00044H1.99219C1.86086 5.00041 1.7308 5.02625 1.60946 5.07649C1.48812 5.12673 1.37787 5.20039 1.285 5.29326C1.19214 5.38612 1.11848 5.49638 1.06824 5.61772C1.01799 5.73906 0.992152 5.86911 0.992188 6.00044V19.0004C0.992153 19.1318 1.018 19.2618 1.06824 19.3832C1.11848 19.5045 1.19214 19.6148 1.285 19.7076C1.37787 19.8005 1.48812 19.8741 1.60946 19.9244C1.7308 19.9746 1.86086 20.0005 1.99219 20.0004H7.49219C8.46532 20.0022 9.41271 19.6879 10.1918 19.1048C10.9709 18.5217 11.5396 17.7014 11.8123 16.7673C12.085 15.8331 12.047 14.8357 11.704 13.925C11.3609 13.0143 10.7314 12.2397 9.91019 11.7176ZM2.99219 7.00044H6.99219C7.52262 7.00044 8.03133 7.21116 8.4064 7.58623C8.78147 7.9613 8.99219 8.47001 8.99219 9.00044C8.99219 9.53088 8.78147 10.0396 8.4064 10.4147C8.03133 10.7897 7.52262 11.0004 6.99219 11.0004H2.99219V7.00044ZM7.49219 18.0004H2.99219V13.0004H7.49219C8.15523 13.0004 8.79111 13.2638 9.25995 13.7327C9.7288 14.2015 9.99219 14.8374 9.99219 15.5004C9.99219 16.1635 9.7288 16.7994 9.25995 17.2682C8.79111 17.7371 8.15523 18.0004 7.49219 18.0004Z" />
</svg>
