<svg width="24" height="24" viewBox="0 0 24 24" xmlns="http://www.w3.org/2000/svg">
<path d="M9.71057 10.4601H11.9494C12.1538 10.4601 12.3499 10.3789 12.4945 10.2343C12.639 10.0897 12.7202 9.89368 12.7202 9.68924C12.7202 9.4848 12.639 9.28873 12.4945 9.14417C12.3499 8.99961 12.1538 8.9184 11.9494 8.9184H9.71057C9.50613 8.9184 9.31006 8.99961 9.1655 9.14417C9.02094 9.28873 8.93973 9.4848 8.93973 9.68924C8.93973 9.89368 9.02094 10.0897 9.1655 10.2343C9.31006 10.3789 9.50613 10.4601 9.71057 10.4601ZM19.4288 2.00171H4.55549C3.87642 2.0042 3.22587 2.27507 2.7457 2.75526C2.26553 3.23544 1.99467 3.88599 1.99219 4.56506V19.4383C1.99465 20.1174 2.2655 20.7679 2.74568 21.2481C3.22585 21.7283 3.87641 21.9992 4.55549 22.0017H19.4287C20.1078 21.9993 20.7584 21.7285 21.2386 21.2483C21.7188 20.7681 21.9897 20.1175 21.9922 19.4384V4.56506C21.9897 3.88597 21.7189 3.2354 21.2387 2.75521C20.7585 2.27502 20.1079 2.00416 19.4288 2.00171ZM18.3563 11.6795L18.3366 14.3549C18.3288 15.4221 17.9003 16.443 17.1441 17.196C16.3879 17.9491 15.3652 18.3733 14.298 18.3767H9.65904C8.5906 18.3748 7.56623 17.9506 6.80915 17.1967C6.05207 16.4428 5.62364 15.4202 5.61723 14.3518V9.65747C5.62298 8.58831 6.051 7.56475 6.80805 6.80976C7.5651 6.05478 8.58983 5.62955 9.659 5.62671H12.4827C13.1332 5.73953 13.7506 5.99538 14.2902 6.37578C14.8298 6.75618 15.2782 7.25165 15.603 7.82642C15.8256 8.24906 15.9493 8.7167 15.9648 9.19409C16.0322 9.69965 16.0677 10.0753 16.2949 10.2835C16.6143 10.573 17.8022 10.378 18.0371 10.5619L18.2159 10.7018L18.3248 10.9235L18.3608 11.101L18.3563 11.6795ZM14.2593 13.5434H9.71057C9.61015 13.5403 9.51014 13.5575 9.41646 13.5938C9.32278 13.6301 9.23736 13.6848 9.16524 13.7548C9.09312 13.8247 9.03579 13.9084 8.99663 14.001C8.95748 14.0935 8.9373 14.1929 8.9373 14.2934C8.9373 14.3939 8.95748 14.4933 8.99663 14.5858C9.03579 14.6784 9.09312 14.7621 9.16524 14.832C9.23736 14.902 9.32278 14.9567 9.41646 14.993C9.51014 15.0293 9.61015 15.0465 9.71057 15.0434H14.2593C14.3594 15.0459 14.4589 15.0284 14.5522 14.9919C14.6454 14.9553 14.7303 14.9005 14.802 14.8306C14.8737 14.7607 14.9307 14.6771 14.9696 14.5849C15.0085 14.4926 15.0285 14.3935 15.0285 14.2934C15.0285 14.1933 15.0085 14.0942 14.9696 14.0019C14.9307 13.9097 14.8737 13.8261 14.802 13.7562C14.7303 13.6863 14.6454 13.6315 14.5522 13.5949C14.4589 13.5584 14.3594 13.5409 14.2593 13.5434H14.2593Z" />
</svg>
