<svg width="24" height="24" viewBox="0 0 24 24" xmlns="http://www.w3.org/2000/svg">
<path d="M21.6098 11.81L18.3598 9.28L21.6198 6.72C21.7487 6.61879 21.8509 6.48741 21.9171 6.33744C21.9834 6.18747 22.0118 6.02351 21.9998 5.86C21.9838 5.6971 21.9304 5.5401 21.8437 5.40131C21.7569 5.26251 21.6392 5.14569 21.4998 5.06L16.3598 2.13C16.1792 2.02845 15.9717 1.98545 15.7657 2.00694C15.5597 2.02844 15.3654 2.11337 15.2098 2.25L11.9998 5.05L8.78976 2.25C8.6341 2.11337 8.43986 2.02844 8.23386 2.00694C8.02786 1.98545 7.82027 2.02845 7.63976 2.13L2.49976 5.06C2.36031 5.14569 2.2426 5.26251 2.15585 5.40131C2.06911 5.5401 2.01568 5.6971 1.99976 5.86C1.98774 6.02351 2.01612 6.18747 2.08238 6.33744C2.14865 6.48741 2.25077 6.61879 2.37976 6.72L5.63976 9.28L2.38976 11.77C2.25894 11.8701 2.15489 12.001 2.08685 12.1511C2.01882 12.3011 1.9889 12.4656 1.99976 12.63C2.01084 12.7942 2.06227 12.9531 2.14949 13.0927C2.23671 13.2322 2.35703 13.3481 2.49976 13.43L5.90976 15.43V17.9C5.91047 18.0709 5.95497 18.2387 6.039 18.3875C6.12303 18.5364 6.24379 18.6611 6.38976 18.75L11.4798 21.88C11.6318 21.9678 11.8042 22.014 11.9798 22.014C12.1553 22.014 12.3277 21.9678 12.4798 21.88L17.5698 18.75C17.7157 18.6611 17.8365 18.5364 17.9205 18.3875C18.0046 18.2387 18.049 18.0709 18.0498 17.9V15.42L21.4598 13.47C21.6025 13.3881 21.7228 13.2722 21.81 13.1327C21.8972 12.9931 21.9487 12.8342 21.9598 12.67C21.9753 12.509 21.9516 12.3467 21.8906 12.1969C21.8297 12.0471 21.7333 11.9144 21.6098 11.81ZM15.9998 4.22L19.2298 6.06L16.6798 8.06L13.6798 6.22L15.9998 4.22ZM14.9098 9.34L11.9998 11.34L9.08976 9.34L11.9998 7.55L14.9098 9.34ZM4.78976 6.06L7.99976 4.22L10.3098 6.22L7.30976 8.06L4.78976 6.06ZM4.78976 12.45L7.28976 10.53L10.2898 12.61L8.06976 14.34L4.78976 12.45ZM16.0798 17.31L11.9998 19.83L7.90976 17.31V16.51C8.05585 16.5459 8.20816 16.5483 8.35533 16.5171C8.5025 16.486 8.64074 16.422 8.75976 16.33L11.9998 13.83L15.2398 16.33C15.4143 16.4655 15.6288 16.5393 15.8498 16.54C15.9295 16.5496 16.01 16.5496 16.0898 16.54L16.0798 17.31ZM15.9298 14.31L13.6998 12.61L16.6998 10.53L19.2098 12.47L15.9298 14.31Z" />
</svg>
