<svg width="24" height="24" viewBox="0 0 24 24" xmlns="http://www.w3.org/2000/svg">
<path d="M21.9998 14.44C22.0044 14.3968 22.0044 14.3532 21.9998 14.31C21.9959 14.2701 21.9959 14.2299 21.9998 14.19L21.9498 14.07L15.9498 3.78C15.8541 3.61681 15.714 3.48415 15.5458 3.39741C15.3776 3.31068 15.1883 3.27343 14.9998 3.29H8.99983C8.82466 3.28879 8.65224 3.33362 8.49983 3.42L8.38983 3.5C8.35768 3.52414 8.32758 3.5509 8.29983 3.58C8.26124 3.6153 8.2276 3.65567 8.19983 3.7C8.19983 3.7 8.19983 3.7 8.13983 3.78L2.13983 14.11C2.05207 14.262 2.00586 14.4345 2.00586 14.61C2.00586 14.7855 2.05207 14.958 2.13983 15.11L5.13983 20.19C5.17076 20.244 5.20766 20.2943 5.24983 20.34V20.4C5.37405 20.52 5.52479 20.6091 5.68983 20.66C5.76284 20.6698 5.83683 20.6698 5.90983 20.66H17.9998C18.1734 20.66 18.3439 20.6148 18.4947 20.5289C18.6455 20.4429 18.7713 20.3193 18.8598 20.17L21.8598 15.03L21.9098 14.91C21.9059 14.8701 21.9059 14.8299 21.9098 14.79C21.9152 14.7468 21.9152 14.7032 21.9098 14.66C21.9154 14.6168 21.9154 14.5732 21.9098 14.53C21.943 14.5033 21.9732 14.4732 21.9998 14.44ZM5.99983 17.73L4.20983 14.63L8.99983 6.27L9.86983 7.77L10.8698 9.43L6.99983 15.91L5.99983 17.73ZM11.9998 11.41L13.2598 13.57H10.7198L11.9998 11.41ZM17.4298 18.71H7.69983L9.53983 15.57H19.2598L17.4298 18.71ZM15.5698 13.57L10.7398 5.29H14.4298L19.2598 13.57H15.5698Z" />
</svg>
