<svg width="24" height="24" viewBox="0 0 24 24" xmlns="http://www.w3.org/2000/svg">
<path d="M20.4369 7.10449C20.2642 6.91091 20.0723 6.7354 19.8641 6.58069C19.9495 5.91079 19.8905 5.23035 19.6908 4.58522C19.4911 3.9401 19.1554 3.34527 18.7064 2.84082C17.6224 1.61914 15.7748 1 13.2142 1H7.00035C6.55143 1.0012 6.11755 1.16195 5.77623 1.45354C5.43491 1.74514 5.20836 2.14858 5.13707 2.5918L2.54722 18.9981C2.51058 19.218 2.52233 19.4432 2.58167 19.6581C2.64101 19.873 2.74649 20.0724 2.89078 20.2423C3.03507 20.4123 3.21468 20.5487 3.4171 20.6421C3.61952 20.7355 3.83988 20.7837 4.06282 20.7832H6.72691L6.64491 21.3037C6.61175 21.5131 6.62436 21.7272 6.68189 21.9312C6.73941 22.1352 6.84047 22.3244 6.97811 22.4856C7.11576 22.6468 7.28671 22.7763 7.4792 22.8651C7.67168 22.9539 7.88113 22.9999 8.09312 23H11.3275C11.7465 23.0033 12.1529 22.8572 12.4739 22.5878C12.7948 22.3185 13.0092 21.9435 13.0785 21.5303L13.7191 17.499L13.7299 17.4443H14.0287C18.0609 17.4443 20.5795 15.4512 21.3139 11.6816C21.5379 10.9035 21.5752 10.0835 21.4229 9.28817C21.2705 8.49287 20.9327 7.74472 20.4369 7.10449ZM7.84215 13.7041L7.12767 18.2394L7.04136 18.7832H4.60582L7.09703 3H13.2142C15.1498 3 16.5316 3.4043 17.2064 4.16406C17.5249 4.53441 17.7471 4.97767 17.8531 5.4545C17.9592 5.93133 17.9458 6.42696 17.8143 6.8974L17.7957 7.00964C17.7835 7.08612 17.7725 7.16083 17.7523 7.25586C17.5594 8.68478 16.8453 9.99202 15.7472 10.9264C14.5143 11.7837 13.0285 12.2005 11.5296 12.1094H9.7064C9.25618 12.1079 8.82037 12.268 8.47825 12.5607C8.13612 12.8533 7.9104 13.2591 7.84215 13.7041ZM19.3509 11.2988C18.8001 14.127 17.1087 15.4443 14.0287 15.4443H13.5453C13.1259 15.4411 12.719 15.5876 12.398 15.8576C12.0771 16.1276 11.8629 16.5032 11.7943 16.917L11.1449 20.9912L8.71715 21L9.1953 17.9661L9.80644 14.1133H11.5257C11.6825 14.1133 11.8211 14.0897 11.9739 14.0843C12.3327 14.072 12.6905 14.0582 13.0265 14.0165C13.2318 13.9909 13.4201 13.9443 13.6169 13.9078C13.8894 13.8574 14.1621 13.8076 14.4179 13.7365C14.6083 13.6835 14.7859 13.6153 14.967 13.5509C15.2063 13.466 15.4418 13.3769 15.6646 13.2722C15.8326 13.1931 15.9927 13.1052 16.1512 13.0149C16.3622 12.8954 16.5666 12.7647 16.7635 12.6232C16.9058 12.5206 17.0454 12.4153 17.1785 12.3022C17.3672 12.1396 17.5465 11.9663 17.7155 11.7833C17.8285 11.6628 17.9442 11.5458 18.0488 11.4161C18.2224 11.1949 18.3826 10.9636 18.5288 10.7234C18.6052 10.6012 18.69 10.4882 18.7604 10.3596C18.963 9.98894 19.137 9.6034 19.2811 9.20634C19.2898 9.18248 19.3022 9.16234 19.3107 9.13834C19.3147 9.12711 19.3206 9.11777 19.3245 9.10648C19.5227 9.8227 19.5318 10.5781 19.3509 11.2988Z" />
</svg>
