<svg width="24" height="24" viewBox="0 0 24 24" xmlns="http://www.w3.org/2000/svg">
<path d="M6.99955 15.14C7.0311 15.2952 7.08857 15.4439 7.16955 15.58C7.4887 16.3595 7.96141 17.0669 8.55955 17.66C9.16111 18.255 9.87039 18.7301 10.6495 19.06C11.4502 19.4101 12.3157 19.5873 13.1895 19.58C14.0665 19.5863 14.9351 19.4092 15.7395 19.06C16.5156 18.7299 17.2216 18.2547 17.8195 17.66C18.4226 17.0668 18.9018 16.3598 19.2295 15.58C19.5551 14.7598 19.7116 13.8822 19.6895 13C19.6875 12.1216 19.5142 11.2521 19.1795 10.44C18.8516 9.66323 18.3723 8.95955 17.7695 8.37C17.1646 7.75765 16.4434 7.27236 15.6484 6.94264C14.8533 6.61293 14.0003 6.44543 13.1395 6.45C12.2514 6.45866 11.374 6.6457 10.5595 7C10.1384 7.18712 9.7365 7.41487 9.35955 7.68C8.94806 7.95306 8.56602 8.26808 8.21955 8.62V3.23H17.2695C17.4895 3.23 17.6095 3.02 17.6095 2.61C17.6095 2.2 17.4795 2 17.2595 2H7.46955C7.41292 1.99724 7.35642 2.00752 7.30441 2.03006C7.25239 2.0526 7.20625 2.08679 7.16955 2.13C7.13103 2.16775 7.10054 2.2129 7.07992 2.26274C7.05929 2.31257 7.04896 2.36607 7.04955 2.42V10C7.05299 10.0597 7.07011 10.1178 7.09959 10.1698C7.12907 10.2218 7.17011 10.2664 7.21955 10.3C7.34228 10.3877 7.4819 10.449 7.62955 10.48C7.76963 10.5232 7.91946 10.5232 8.05955 10.48C8.14442 10.4551 8.22525 10.418 8.29955 10.37C8.35233 10.3187 8.39928 10.2616 8.43955 10.2C8.69362 9.83997 8.98161 9.5051 9.29955 9.2C9.79086 8.69441 10.3808 8.29508 11.0327 8.02674C11.6846 7.7584 12.3847 7.62677 13.0895 7.64C13.8014 7.63044 14.5075 7.76858 15.1633 8.04569C15.8191 8.3228 16.4103 8.73287 16.8995 9.25C17.4029 9.73568 17.8024 10.3184 18.074 10.963C18.3456 11.6076 18.4835 12.3006 18.4795 13C18.4735 13.6869 18.3343 14.3661 18.0695 15C17.8113 15.6685 17.4216 16.2785 16.9235 16.7938C16.4253 17.3091 15.8289 17.7192 15.1695 18C14.5156 18.2668 13.8158 18.4027 13.1095 18.4C12.1571 18.4075 11.2216 18.1477 10.4095 17.65V13C10.4144 12.3356 10.6676 11.6971 11.1195 11.21C11.365 10.9214 11.6721 10.6915 12.0183 10.5375C12.3645 10.3834 12.7408 10.3091 13.1195 10.32C13.4896 10.3046 13.8588 10.3669 14.2033 10.503C14.5478 10.6391 14.8599 10.8459 15.1195 11.11C15.3675 11.3567 15.5621 11.6519 15.6911 11.977C15.8201 12.3022 15.8809 12.6504 15.8695 13C15.8709 13.3627 15.8 13.7221 15.6609 14.0571C15.5218 14.3921 15.3173 14.6961 15.0594 14.9512C14.8015 15.2063 14.4954 15.4074 14.1589 15.5429C13.8224 15.6783 13.4622 15.7453 13.0995 15.74H12.7595L12.3895 15.67H12.2395C12.0295 15.61 11.8695 15.77 11.7495 16.15C11.6295 16.53 11.6795 16.75 11.8895 16.83C12.2952 16.9506 12.7163 17.0113 13.1395 17.01C13.6605 17.0167 14.1775 16.9173 14.6588 16.7179C15.1402 16.5185 15.5759 16.2232 15.9395 15.85C16.3204 15.4817 16.6203 15.038 16.8201 14.5473C17.0198 14.0566 17.115 13.5296 17.0995 13C17.1101 12.4814 17.0124 11.9664 16.8127 11.4877C16.6129 11.009 16.3156 10.5773 15.9395 10.22C15.5765 9.8467 15.1407 9.55199 14.659 9.35417C14.1773 9.15634 13.6601 9.05962 13.1395 9.07C12.6161 9.06042 12.0961 9.15743 11.6113 9.35513C11.1265 9.55283 10.687 9.84708 10.3195 10.22C9.96304 10.5512 9.67801 10.9518 9.48197 11.3972C9.28593 11.8426 9.18301 12.3234 9.17955 12.81V16.61C8.70336 16.0652 8.33667 15.4336 8.09955 14.75C8.01955 14.54 7.79955 14.5 7.42955 14.62C7.05955 14.74 6.87955 14.91 6.94955 15.11L6.99955 15.14ZM13.2495 4.14C12.1036 4.11639 10.9656 4.33446 9.90955 4.78C9.85162 4.78424 9.79698 4.80852 9.75501 4.84867C9.71304 4.88881 9.68636 4.94232 9.67955 5C9.68413 5.14749 9.7146 5.29304 9.76955 5.43C9.90955 5.78 10.0695 5.91 10.2695 5.84C11.2037 5.47674 12.1972 5.29024 13.1995 5.29C14.2591 5.28125 15.3085 5.49592 16.2795 5.92C17.1232 6.28761 17.903 6.78719 18.5895 7.4C18.6126 7.42483 18.6404 7.44472 18.6713 7.45847C18.7023 7.47222 18.7357 7.47955 18.7695 7.48C18.8595 7.48 19.0095 7.38 19.1995 7.19L19.3895 7C19.4302 6.93763 19.4511 6.86444 19.4495 6.79C19.4432 6.71293 19.4074 6.64129 19.3495 6.59C18.5862 5.8721 17.6983 5.2994 16.7295 4.9C15.6163 4.4108 14.4155 4.15226 13.1995 4.14H13.2495ZM11.6395 14.05C11.647 14.1162 11.6687 14.18 11.7033 14.237C11.7378 14.294 11.7843 14.3428 11.8395 14.38C11.9281 14.4835 12.0538 14.5482 12.1895 14.56C12.2519 14.5628 12.3128 14.5413 12.3595 14.5L13.0895 13.77L13.7895 14.45C13.8144 14.4826 13.846 14.5093 13.8823 14.5283C13.9186 14.5473 13.9586 14.5581 13.9995 14.56C14.1386 14.5422 14.2664 14.4747 14.3595 14.37C14.5595 14.16 14.5895 13.98 14.4295 13.82L13.7295 13.12L14.4695 12.38C14.5895 12.26 14.5495 12.09 14.3395 11.89C14.1295 11.69 13.9395 11.62 13.8095 11.75L13.0795 12.47L12.3595 11.73C12.3149 11.7002 12.2631 11.683 12.2095 11.68C12.0757 11.7032 11.9549 11.7743 11.8695 11.88C11.6395 12.1 11.5895 12.26 11.7095 12.38L12.4495 13.12L11.7095 13.84C11.6459 13.8935 11.6033 13.968 11.5895 14.05H11.6395ZM19.5695 18.62C19.4624 18.515 19.337 18.4303 19.1995 18.37C19.1509 18.3551 19.0992 18.3538 19.0498 18.3661C19.0005 18.3785 18.9555 18.404 18.9195 18.44L18.8495 18.51C18.128 19.2279 17.2761 19.8015 16.3395 20.2C14.8882 20.8107 13.2881 20.9761 11.7425 20.6752C10.1969 20.3743 8.77573 19.6206 7.65955 18.51C6.90949 17.8029 6.31369 16.9483 5.90955 16C5.68158 15.4283 5.51075 14.8354 5.39955 14.23C5.39955 14.02 5.14955 13.94 4.76955 14C4.38955 14.06 4.20955 14.2 4.23955 14.4C4.34779 15.1262 4.54946 15.8355 4.83955 16.51C5.30723 17.5939 5.98727 18.5732 6.83955 19.39C7.66209 20.2401 8.64414 20.9197 9.72955 21.39C10.8505 21.8599 12.054 22.1013 13.2695 22.1C14.4846 22.0974 15.6874 21.8561 16.8095 21.39C17.895 20.9197 18.877 20.2401 19.6995 19.39L19.7595 19.33C19.8495 19.11 19.7795 18.89 19.5195 18.62H19.5695Z" />
</svg>
