<svg width="24" height="24" viewBox="0 0 24 24" xmlns="http://www.w3.org/2000/svg">
<path d="M11.1026 10.4379C10.7967 10.6145 10.55 10.8779 10.3938 11.1947C10.2376 11.5115 10.1788 11.8675 10.2249 12.2177C10.271 12.5679 10.4199 12.8966 10.6528 13.1622C10.8857 13.4277 11.1922 13.6183 11.5334 13.7097C11.8745 13.8011 12.2352 13.7893 12.5697 13.6757C12.9041 13.5622 13.1974 13.352 13.4125 13.0717C13.6275 12.7915 13.7546 12.4538 13.7777 12.1013C13.8007 11.7488 13.7188 11.3974 13.5422 11.0915C13.3053 10.6814 12.9152 10.3821 12.4577 10.2595C12.0002 10.137 11.5128 10.2011 11.1026 10.4379ZM19.1073 12.3756C18.99 12.2416 18.8663 12.1073 18.7361 11.9725C18.8271 11.877 18.9151 11.7815 19.0001 11.686C20.606 9.88177 21.2837 8.07233 20.6557 6.9845C20.0535 5.9415 18.2623 5.63068 16.0198 6.06671C15.7989 6.10992 15.5792 6.15867 15.3608 6.21295C15.319 6.06879 15.2745 5.92546 15.2274 5.78295C14.4666 3.49042 13.2377 1.99921 11.9817 2C10.7772 2.00055 9.61318 3.39709 8.87059 5.5575C8.79753 5.77063 8.72995 5.98553 8.66783 6.20221C8.52178 6.16638 8.37511 6.13328 8.22783 6.10291C5.86183 5.61713 3.95616 5.93707 3.32939 7.02551C2.72839 8.06927 3.35692 9.77533 4.8579 11.4976C5.00676 11.668 5.15984 11.8346 5.31712 11.9974C5.1317 12.1884 4.95612 12.3793 4.79247 12.5691C3.32787 14.2671 2.73528 15.9453 3.33531 16.9845C3.955 18.058 5.83385 18.4089 8.12071 17.9589C8.30605 17.9221 8.49035 17.8808 8.67363 17.8349C8.74077 18.0692 8.81442 18.3016 8.89458 18.5319C9.6339 20.6489 10.7914 22.0005 11.9916 22.0001C13.231 21.9993 14.4735 20.5472 15.2263 18.3413C15.2858 18.167 15.3421 17.986 15.3954 17.7996C15.6322 17.8585 15.8704 17.9107 16.1102 17.9564C18.3136 18.3732 20.0628 18.0454 20.6617 17.0054C21.2802 15.9311 20.6425 14.1293 19.1073 12.3756H19.1073ZM4.06978 7.45184C4.45564 6.78184 6.01302 6.52045 8.05586 6.93984C8.18642 6.96669 8.31922 6.99669 8.45424 7.02984C8.2548 7.91211 8.11407 8.80662 8.03298 9.70751C7.29588 10.2261 6.59312 10.7918 5.92909 11.4011C5.78279 11.2498 5.6404 11.0948 5.50191 10.9362L5.50197 10.9363C4.2159 9.46057 3.70759 8.08081 4.06978 7.45184ZM7.95644 13.1799C7.44588 12.7933 6.97139 12.3973 6.54073 11.9989C6.97109 11.6031 7.44588 11.2083 7.9554 10.8228C7.9371 11.2155 7.92802 11.6086 7.92818 12.002C7.92846 12.3948 7.93788 12.7874 7.95644 13.1799ZM7.95583 17.1205C7.08909 17.3133 6.19429 17.3448 5.31612 17.2137C5.07539 17.1949 4.84106 17.127 4.6276 17.0141C4.41415 16.9013 4.22612 16.7458 4.07512 16.5574C3.71105 15.9267 4.18688 14.5794 5.43944 13.1271C5.59692 12.9451 5.75955 12.7679 5.92735 12.5954C6.59148 13.2079 7.29539 13.7759 8.03447 14.2955C8.11667 15.2079 8.25905 16.1138 8.46068 17.0075C8.29336 17.0493 8.12508 17.087 7.95583 17.1205ZM15.057 9.08118C14.7216 8.86985 14.382 8.6653 14.0384 8.46753C13.7002 8.27286 13.3579 8.08551 13.0116 7.90546C13.6046 7.65613 14.1875 7.44318 14.7502 7.26965C14.8829 7.86795 14.9852 8.47256 15.057 9.08118ZM9.67859 5.83521C10.3148 3.98407 11.2562 2.85468 11.9821 2.85437C12.7552 2.854 13.7596 4.07263 14.4164 6.052C14.4591 6.18103 14.4994 6.31079 14.5374 6.44128C13.6746 6.70891 12.8303 7.03336 12.0103 7.41248C11.1937 7.0289 10.3521 6.70084 9.49128 6.43054C9.54882 6.23059 9.61126 6.03215 9.67859 5.83521ZM9.27822 7.259C9.8652 7.44379 10.4425 7.65807 11.0079 7.901C10.3073 8.26253 9.62488 8.65633 8.96053 9.0824C9.04079 8.4444 9.14759 7.83313 9.27822 7.259ZM8.96199 14.9197C9.29329 15.1318 9.62944 15.336 9.97042 15.5324C10.3182 15.7327 10.6707 15.9245 11.0278 16.108C10.4581 16.3593 9.87582 16.5812 9.28334 16.7729C9.1512 16.1908 9.04323 15.5688 8.96199 14.9197ZM14.4177 18.0652C14.1516 18.9123 13.732 19.7032 13.1796 20.3984L13.1795 20.3985C13.043 20.5976 12.8671 20.7667 12.6627 20.8952C12.4583 21.0236 12.2298 21.1088 11.9911 21.1455C11.2629 21.1459 10.3335 20.0605 9.7012 18.25C9.62674 18.036 9.55824 17.82 9.49569 17.6021C10.3606 17.323 11.2056 16.9857 12.0249 16.5924C12.8517 16.9739 13.7026 17.3008 14.5722 17.5709C14.5247 17.7368 14.4732 17.9016 14.4177 18.0652ZM14.7799 16.741C14.2107 16.565 13.6193 16.3485 13.0178 16.0955C13.3569 15.917 13.6985 15.7285 14.0425 15.53C14.3955 15.3262 14.7396 15.1172 15.0746 14.9031C15.0079 15.5204 14.9095 16.1338 14.7799 16.741V16.741ZM15.2262 11.9983C15.227 12.6056 15.208 13.2124 15.1693 13.8187C14.6767 14.1522 14.1565 14.4777 13.6153 14.7902C13.0764 15.1013 12.5424 15.3873 12.0186 15.6461C11.4674 15.3819 10.9268 15.0972 10.3968 14.7921C9.86985 14.4887 9.35496 14.1657 8.85215 13.8231C8.80619 13.2169 8.78304 12.6097 8.78269 12.0013L8.78281 12.0015C8.78239 11.3936 8.80504 10.7863 8.85075 10.1797C9.3433 9.84332 9.85966 9.51801 10.3935 9.20978C10.9299 8.90009 11.4705 8.61536 12.0082 8.3573C12.5526 8.62189 13.0873 8.90544 13.612 9.20795C14.1387 9.51062 14.655 9.83018 15.161 10.1666C15.2045 10.7762 15.2262 11.3868 15.2263 11.9983H15.2262ZM16.1829 6.90546C18.1043 6.53174 19.5529 6.78314 19.9159 7.41168C20.3025 8.0813 19.7484 9.56018 18.362 11.118L18.362 11.1181C18.2854 11.204 18.2059 11.2903 18.1236 11.377C17.448 10.7664 16.7317 10.2025 15.9796 9.68915C15.9037 8.79812 15.7682 7.91316 15.5741 7.04022C15.781 6.98932 15.9839 6.9444 16.1829 6.90546ZM16.0531 10.7902C16.5604 11.1606 17.0482 11.5571 17.5144 11.978C17.0502 12.4059 16.564 12.8092 16.0577 13.1863C16.0732 12.7904 16.0808 12.3942 16.0806 11.9979C16.0804 11.5952 16.0712 11.1926 16.0531 10.7902ZM19.9212 16.5789C19.5577 17.2101 18.1533 17.4733 16.2689 17.1168C16.053 17.076 15.8314 17.0275 15.6042 16.9712C15.7936 16.087 15.9231 15.1911 15.9917 14.2894C16.7425 13.7672 17.4566 13.1938 18.1287 12.5736C18.2464 12.6957 18.3582 12.8174 18.4644 12.9384V12.9383C19.0654 13.5919 19.5411 14.3505 19.8675 15.1763C19.9718 15.394 20.0304 15.6308 20.0397 15.872C20.0489 16.1133 20.0086 16.3539 19.9212 16.5789Z" />
</svg>
