<svg width="24" height="24" viewBox="0 0 24 24" xmlns="http://www.w3.org/2000/svg">
<path d="M15.1392 11.8125C14.7388 11.5554 14.3042 11.3558 13.8482 11.2197C13.5684 11.1351 13.2587 11.0524 12.9378 10.9726C12.6587 10.8948 12.3265 10.8149 11.9156 10.7246C11.4263 10.6221 10.9461 10.4803 10.4796 10.3008C10.2392 10.2073 10.0271 10.0532 9.86388 9.85351C9.74473 9.69022 9.68824 9.48955 9.7047 9.28808C9.70415 9.07197 9.77601 8.8619 9.9088 8.6914C10.0951 8.4729 10.3368 8.30861 10.6085 8.21581C11.0662 8.0586 11.5486 7.98549 12.0323 8C12.406 7.99401 12.7785 8.04337 13.1377 8.14648C13.3763 8.21326 13.601 8.32206 13.8013 8.46777C13.9308 8.56003 14.0412 8.67642 14.1265 8.81055C14.1885 8.92659 14.2727 9.02926 14.3744 9.11268C14.4762 9.19609 14.5933 9.25861 14.7193 9.29666C14.8452 9.3347 14.9774 9.34752 15.1083 9.33437C15.2392 9.32123 15.3662 9.28238 15.482 9.22006C15.5979 9.15773 15.7003 9.07316 15.7834 8.97118C15.8665 8.8692 15.9286 8.75183 15.9663 8.62578C16.0039 8.49974 16.0163 8.36751 16.0027 8.23666C15.9892 8.10581 15.9499 7.97893 15.8873 7.86328C15.6763 7.49025 15.3913 7.16426 15.0498 6.90528C14.6556 6.60239 14.2084 6.37554 13.731 6.23633C13.1797 6.07333 12.6071 5.99367 12.0323 6C11.3018 5.98448 10.5748 6.10331 9.88728 6.35059C9.26525 6.57637 8.71866 6.97142 8.30913 7.49121C7.91721 8.00829 7.70495 8.63926 7.70464 9.28809C7.68844 9.93403 7.89307 10.5662 8.28472 11.0801C8.66279 11.5563 9.1584 11.9259 9.72272 12.1523C10.1491 12.3164 10.5857 12.4526 11.0298 12.5602C11.0381 12.563 11.0438 12.5697 11.0523 12.5722C11.2437 12.6299 11.5499 12.707 11.9922 12.8027C12.1646 12.8397 12.327 12.8806 12.4894 12.9212C12.5051 12.9259 12.5279 12.9308 12.543 12.9355L12.5611 12.9383C12.8094 13.0016 13.0482 13.067 13.2667 13.1338C13.5359 13.2124 13.793 13.3281 14.0303 13.4775C14.178 13.5705 14.302 13.6966 14.3926 13.8457C14.4808 14.0276 14.5216 14.2288 14.5113 14.4307C14.5253 14.692 14.4498 14.9504 14.2974 15.1631C14.0914 15.431 13.8128 15.6341 13.4947 15.7481C13.0211 15.9308 12.5157 16.0165 12.0083 16C11.4212 16.0227 10.8371 15.9049 10.3047 15.6562C10.0591 15.5253 9.84801 15.3379 9.68901 15.1094C9.57752 14.9631 9.50782 14.7893 9.48735 14.6064C9.48735 14.3412 9.38199 14.0869 9.19446 13.8993C9.00692 13.7118 8.75256 13.6064 8.48735 13.6064C8.22213 13.6064 7.96778 13.7118 7.78024 13.8993C7.59271 14.0869 7.48735 14.3412 7.48735 14.6064C7.50412 15.1961 7.6979 15.7671 8.04351 16.2451C8.38895 16.7429 8.84919 17.1502 9.3853 17.4326C10.201 17.8308 11.101 18.0254 12.0083 18C12.7793 18.0185 13.546 17.8807 14.2623 17.5947C14.928 17.3394 15.5061 16.8976 15.9273 16.3223C16.3275 15.7613 16.5325 15.0843 16.5107 14.3955C16.5201 13.8616 16.3909 13.3343 16.1357 12.8652C15.8895 12.442 15.5484 12.0816 15.1392 11.8125ZM22.3614 13.6914C22.6313 12.0477 22.506 10.3633 21.9958 8.77769C21.4855 7.19204 20.6051 5.75066 19.4272 4.57282C18.2494 3.39497 16.808 2.51452 15.2224 2.00429C13.6367 1.49406 11.9523 1.36873 10.3086 1.63867C9.09526 1.05693 7.73123 0.866176 6.40482 1.09273C5.0784 1.31928 3.85502 1.95197 2.90352 2.90347C1.95202 3.85497 1.31933 5.07835 1.09278 6.40477C0.866226 7.73118 1.05698 9.09521 1.63872 10.3086C1.36878 11.9523 1.49411 13.6367 2.00434 15.2223C2.51457 16.808 3.39502 18.2493 4.57287 19.4272C5.75071 20.605 7.19209 21.4855 8.77774 21.9957C10.3634 22.5059 12.0478 22.6313 13.6915 22.3613C14.9048 22.9431 16.2689 23.1338 17.5953 22.9073C18.9217 22.6807 20.1451 22.048 21.0966 21.0965C22.0481 20.145 22.6808 18.9216 22.9073 17.5952C23.1339 16.2688 22.9431 14.9048 22.3614 13.6914ZM16.5 21C15.7415 20.9997 14.9953 20.8079 14.3306 20.4424C14.1244 20.3285 13.8846 20.2908 13.6534 20.3359C12.4209 20.5818 11.1493 20.551 9.93015 20.2459C8.71104 19.9407 7.57484 19.3688 6.60354 18.5713C5.63223 17.7739 4.85002 16.7708 4.31334 15.6344C3.77666 14.498 3.49888 13.2567 3.50005 12C3.50108 11.4446 3.55602 10.8905 3.66411 10.3457C3.70926 10.1147 3.67176 9.87515 3.55816 9.669C3.08814 8.81507 2.90813 7.83161 3.04522 6.86656C3.18231 5.90151 3.62908 5.00708 4.31832 4.31783C5.00756 3.62859 5.90199 3.1818 6.86703 3.04471C7.83208 2.90761 8.81555 3.0876 9.66948 3.55762C9.87562 3.67182 10.1155 3.70952 10.3467 3.66406C11.5792 3.41822 12.8508 3.44899 14.0699 3.75414C15.2891 4.05929 16.4253 4.63122 17.3966 5.42867C18.3679 6.22612 19.1501 7.22921 19.6868 8.36558C20.2234 9.50195 20.5012 10.7433 20.5 12C20.499 12.5554 20.4441 13.1095 20.336 13.6543C20.2908 13.8853 20.3284 14.1249 20.442 14.331C20.8193 15.0161 21.0115 15.7877 20.9996 16.5697C20.9877 17.3518 20.7721 18.1172 20.3741 18.7904C19.9762 19.4637 19.4096 20.0216 18.7302 20.4091C18.0508 20.7966 17.2822 21.0002 16.5 21Z" />
</svg>
