<svg width="24" height="24" viewBox="0 0 24 24" xmlns="http://www.w3.org/2000/svg">
<path d="M2 14.67C2 15.2004 2.21071 15.7091 2.58579 16.0842C2.96086 16.4593 3.46957 16.67 4 16.67C4.53043 16.67 5.03914 16.4593 5.41421 16.0842C5.78929 15.7091 6 15.2004 6 14.67V12.67H4C3.46957 12.67 2.96086 12.8807 2.58579 13.2558C2.21071 13.6309 2 14.1396 2 14.67ZM14.64 11.33C15.1704 11.33 15.6791 11.1193 16.0542 10.7442C16.4293 10.3691 16.64 9.86043 16.64 9.33V4C16.64 3.46957 16.4293 2.96086 16.0542 2.58579C15.6791 2.21071 15.1704 2 14.64 2C14.1096 2 13.6009 2.21071 13.2258 2.58579C12.8507 2.96086 12.64 3.46957 12.64 4V9.33C12.64 9.59434 12.6924 9.85605 12.7941 10.1C12.8959 10.344 13.045 10.5654 13.2328 10.7513C13.4207 10.9373 13.6435 11.0842 13.8885 11.1835C14.1335 11.2829 14.3957 11.3326 14.66 11.33H14.64ZM21.96 9.33C21.96 8.79957 21.7493 8.29086 21.3742 7.91579C20.9991 7.54071 20.4904 7.33 19.96 7.33C19.4296 7.33 18.9209 7.54071 18.5458 7.91579C18.1707 8.29086 17.96 8.79957 17.96 9.33V11.33H19.96C20.226 11.3353 20.4904 11.2875 20.7377 11.1894C20.9849 11.0913 21.2102 10.9448 21.4001 10.7585C21.5901 10.5723 21.741 10.35 21.844 10.1047C21.947 9.85942 22.0001 9.59604 22 9.33H21.96ZM9.34 12.67C8.80957 12.67 8.30086 12.8807 7.92579 13.2558C7.55071 13.6309 7.34 14.1396 7.34 14.67V20C7.34 20.5304 7.55071 21.0391 7.92579 21.4142C8.30086 21.7893 8.80957 22 9.34 22C9.87043 22 10.3791 21.7893 10.7542 21.4142C11.1293 21.0391 11.34 20.5304 11.34 20V14.67C11.34 14.1396 11.1293 13.6309 10.7542 13.2558C10.3791 12.8807 9.87043 12.67 9.34 12.67ZM14.66 18H12.66V20C12.66 20.3956 12.7773 20.7822 12.9971 21.1111C13.2168 21.44 13.5292 21.6964 13.8946 21.8478C14.2601 21.9991 14.6622 22.0387 15.0502 21.9616C15.4381 21.8844 15.7945 21.6939 16.0742 21.4142C16.3539 21.1345 16.5444 20.7781 16.6216 20.3902C16.6987 20.0022 16.6591 19.6001 16.5078 19.2346C16.3564 18.8692 16.1 18.5568 15.7711 18.3371C15.4422 18.1173 15.0556 18 14.66 18ZM20 12.67H14.66C14.1296 12.67 13.6209 12.8807 13.2458 13.2558C12.8707 13.6309 12.66 14.1396 12.66 14.67C12.66 15.2004 12.8707 15.7091 13.2458 16.0842C13.6209 16.4593 14.1296 16.67 14.66 16.67H20C20.5304 16.67 21.0391 16.4593 21.4142 16.0842C21.7893 15.7091 22 15.2004 22 14.67C22 14.1396 21.7893 13.6309 21.4142 13.2558C21.0391 12.8807 20.5304 12.67 20 12.67ZM9.34 7.33H4C3.46957 7.33 2.96086 7.54071 2.58579 7.91579C2.21071 8.29086 2 8.79957 2 9.33C2 9.86043 2.21071 10.3691 2.58579 10.7442C2.96086 11.1193 3.46957 11.33 4 11.33H9.34C9.87043 11.33 10.3791 11.1193 10.7542 10.7442C11.1293 10.3691 11.34 9.86043 11.34 9.33C11.34 8.79957 11.1293 8.29086 10.7542 7.91579C10.3791 7.54071 9.87043 7.33 9.34 7.33ZM9.34 2C8.80957 2 8.30086 2.21071 7.92579 2.58579C7.55071 2.96086 7.34 3.46957 7.34 4C7.34 4.53043 7.55071 5.03914 7.92579 5.41421C8.30086 5.78929 8.80957 6 9.34 6H11.34V4C11.34 3.46957 11.1293 2.96086 10.7542 2.58579C10.3791 2.21071 9.87043 2 9.34 2Z" />
</svg>
