<svg width="24" height="24" viewBox="0 0 24 24" xmlns="http://www.w3.org/2000/svg">
<path d="M21.7972 16.9872C18.931 16.515 17.6462 13.5857 17.5932 13.4613L17.5877 13.4496C17.5063 13.3165 17.4549 13.1672 17.4373 13.0121C17.4196 12.8571 17.4361 12.7 17.4855 12.552C17.678 12.0984 18.3148 11.8963 18.7368 11.7623C18.8422 11.7289 18.9418 11.6973 19.02 11.6663C19.7827 11.3651 19.9378 11.0532 19.934 10.8444C19.914 10.7142 19.8556 10.593 19.7663 10.4962C19.677 10.3993 19.5609 10.3313 19.4327 10.3009L19.427 10.2987C19.3138 10.2532 19.1928 10.23 19.0707 10.2305C18.9632 10.2286 18.8565 10.2498 18.7578 10.2926C18.46 10.4432 18.1354 10.5336 17.8026 10.5587C17.6108 10.5632 17.4234 10.5005 17.273 10.3814C17.2822 10.2115 17.293 10.0362 17.3048 9.85096L17.3088 9.78566C17.5011 8.43833 17.4192 7.06604 17.0679 5.75117C16.6538 4.80712 15.9708 4.00594 15.1041 3.44763C14.2375 2.88932 13.2256 2.5986 12.1948 2.61177C12.0607 2.61317 11.9266 2.61443 11.7924 2.61555C10.7631 2.60284 9.75281 2.89361 8.88772 3.45158C8.02264 4.00954 7.34108 4.80997 6.92815 5.75293C6.5769 7.06663 6.49484 8.43778 6.68688 9.784C6.69982 9.98315 6.71182 10.1824 6.72288 10.3817C6.55716 10.5116 6.34907 10.5752 6.13908 10.5601C5.78573 10.545 5.43982 10.4537 5.12508 10.2924C5.04789 10.2583 4.96414 10.2415 4.87978 10.2434C4.70599 10.2366 4.53441 10.2842 4.38906 10.3798C4.24371 10.4753 4.13186 10.6138 4.06917 10.7761C3.98726 11.2067 4.60207 11.5186 4.97585 11.6663C5.05485 11.6976 5.15407 11.7291 5.25893 11.7623C5.68062 11.8961 6.31801 12.0983 6.51045 12.5521C6.55981 12.7002 6.57624 12.8572 6.55858 13.0123C6.54093 13.1674 6.48961 13.3168 6.40822 13.4499L6.40285 13.4615C6.12652 14.0631 5.76658 14.6227 5.3337 15.1236C4.54715 16.1019 3.43409 16.7637 2.19887 16.9875C2.14049 16.9971 2.08773 17.0279 2.05073 17.0741C2.01373 17.1203 1.9951 17.1785 1.99843 17.2375C2.00105 17.2822 2.01154 17.3261 2.02943 17.3672C2.20521 17.7783 3.08765 18.1178 4.58125 18.3482C4.72089 18.3698 4.77998 18.5975 4.86152 18.9704C4.89411 19.1197 4.92786 19.2746 4.97492 19.4346C4.99028 19.5055 5.03146 19.5682 5.09045 19.6105C5.14944 19.6528 5.22203 19.6716 5.29414 19.6634C5.43727 19.6554 5.57944 19.635 5.71906 19.6025C6.08721 19.5221 6.46262 19.4797 6.83942 19.4757C7.1101 19.4764 7.38027 19.4992 7.64722 19.544C8.21124 19.6869 8.73587 19.9549 9.18222 20.3282C9.93553 20.9715 10.8822 21.3446 11.8719 21.3882C11.9057 21.3882 11.9394 21.387 11.972 21.3842C12.0131 21.3862 12.0672 21.3882 12.1239 21.3882C13.1141 21.3444 14.0613 20.971 14.8151 20.3274C15.2611 19.9545 15.7852 19.6868 16.3487 19.5441C16.6157 19.4994 16.8859 19.4765 17.1567 19.4758C17.5332 19.4776 17.9085 19.5173 18.277 19.5945C18.4168 19.6251 18.559 19.6431 18.702 19.6482H18.7254C18.7931 19.6537 18.8605 19.6342 18.9149 19.5935C18.9693 19.5529 19.007 19.4937 19.0209 19.4272C19.0673 19.2694 19.1013 19.1192 19.1348 18.9659C19.2156 18.5949 19.2747 18.3683 19.4149 18.3467C20.9089 18.1159 21.7913 17.7769 21.9659 17.3681C21.984 17.3267 21.9948 17.2824 21.9976 17.2372C22.0009 17.1782 21.9822 17.12 21.9452 17.0739C21.9082 17.0277 21.8555 16.9968 21.7972 16.9872Z" />
</svg>
