<svg width="24" height="24" viewBox="0 0 24 24" xmlns="http://www.w3.org/2000/svg">
<path d="M22.8675 3.374C22.78 3.22153 22.6538 3.09483 22.5018 3.0067C22.3497 2.91856 22.177 2.87212 22.0012 2.87205L17.0306 2.86814L17.0232 2.86714L13.3797 2.86814C13.2193 2.86831 13.0613 2.90698 12.919 2.9809C12.7766 3.05483 12.6541 3.16184 12.5618 3.29295L12.0032 4.08885L11.4387 3.291C11.3465 3.16032 11.2243 3.05369 11.0823 2.98011C10.9403 2.90652 10.7827 2.86812 10.6228 2.86814L6.97682 2.86714H6.97633L6.97487 2.86732L6.9734 2.86714H6.96803L1.99489 2.89448C1.81921 2.89536 1.64686 2.94251 1.49519 3.03119C1.34353 3.11987 1.21791 3.24694 1.13098 3.39961C1.04405 3.55228 0.998881 3.72517 1.00002 3.90085C1.00116 4.07653 1.04857 4.24881 1.13747 4.40034L11.157 21.5059C11.2453 21.6563 11.3713 21.781 11.5227 21.8677C11.674 21.9543 11.8454 22 12.0198 22H12.0208C12.1955 21.9999 12.3671 21.954 12.5185 21.867C12.67 21.7799 12.796 21.6548 12.8841 21.5039L22.8645 4.376C22.9529 4.22393 22.9997 4.05128 23.0002 3.87539C23.0007 3.69951 22.9549 3.52659 22.8675 3.374ZM10.1048 4.86816L11.1898 6.40137C11.282 6.53211 11.4043 6.63876 11.5464 6.71235C11.6885 6.78594 11.8462 6.8243 12.0062 6.82422H12.0076C12.1678 6.82383 12.3256 6.78506 12.4677 6.71115C12.6099 6.63724 12.7322 6.53034 12.8245 6.39941L13.8997 4.86816L15.2624 4.86716L12.0184 10.3209L8.74342 4.86719L10.1048 4.86816ZM12.0174 19.0176L3.73952 4.88477L6.40944 4.87012L11.1629 12.7881C11.2518 12.9361 11.3775 13.0586 11.5277 13.1436C11.678 13.2287 11.8476 13.2734 12.0203 13.2735H12.0222L12.0232 13.2734L12.0242 13.2735H12.0262C12.1993 13.2731 12.3692 13.2278 12.5195 13.142C12.6698 13.0563 12.7953 12.933 12.8836 12.7842L17.5916 4.86821L20.2611 4.87114L12.0174 19.0176Z" />
</svg>
