<svg width="24" height="24" viewBox="0 0 24 24" xmlns="http://www.w3.org/2000/svg">
<path d="M23 9.71C23.0495 8.27865 22.7365 6.85802 22.09 5.58C21.6514 5.0556 21.0427 4.70171 20.37 4.58C17.5875 4.32752 14.7936 4.22404 12 4.27C9.21667 4.22196 6.43274 4.3221 3.66003 4.57C3.11185 4.66972 2.60454 4.92684 2.20003 5.31C1.30003 6.14 1.20003 7.56 1.10003 8.76C0.954939 10.9176 0.954939 13.0824 1.10003 15.24C1.12896 15.9154 1.22952 16.5858 1.40003 17.24C1.5206 17.7451 1.76455 18.2123 2.11003 18.6C2.51729 19.0035 3.03641 19.2752 3.60003 19.38C5.75594 19.6461 7.92824 19.7564 10.1 19.71C13.6 19.76 16.67 19.71 20.3 19.43C20.8775 19.3316 21.4112 19.0595 21.83 18.65C22.11 18.3699 22.3191 18.0271 22.44 17.65C22.7977 16.5526 22.9733 15.4041 22.96 14.25C23 13.69 23 10.31 23 9.71ZM9.74003 14.85V8.66L15.66 11.77C14 12.69 11.81 13.73 9.74003 14.85Z" />
</svg>
