<svg width="24" height="24" viewBox="0 0 24 24" xmlns="http://www.w3.org/2000/svg">
<path d="M22 5H2C1.73478 5 1.48043 5.10536 1.29289 5.29289C1.10536 5.48043 1 5.73478 1 6V10C1.00174 10.6189 1.19488 11.2222 1.55294 11.7271C1.911 12.2319 2.41645 12.6137 3 12.82V22C3 22.2652 3.10536 22.5196 3.29289 22.7071C3.48043 22.8946 3.73478 23 4 23H20C20.2652 23 20.5196 22.8946 20.7071 22.7071C20.8946 22.5196 21 22.2652 21 22V12.82C21.5835 12.6137 22.089 12.2319 22.4471 11.7271C22.8051 11.2222 22.9983 10.6189 23 10V6C23 5.73478 22.8946 5.48043 22.7071 5.29289C22.5196 5.10536 22.2652 5 22 5ZM15 7H17V10C17 10.2652 16.8946 10.5196 16.7071 10.7071C16.5196 10.8946 16.2652 11 16 11C15.7348 11 15.4804 10.8946 15.2929 10.7071C15.1054 10.5196 15 10.2652 15 10V7ZM11 7H13V10C13 10.2652 12.8946 10.5196 12.7071 10.7071C12.5196 10.8946 12.2652 11 12 11C11.7348 11 11.4804 10.8946 11.2929 10.7071C11.1054 10.5196 11 10.2652 11 10V7ZM7 7H9V10C9 10.2652 8.89464 10.5196 8.70711 10.7071C8.51957 10.8946 8.26522 11 8 11C7.73478 11 7.48043 10.8946 7.29289 10.7071C7.10536 10.5196 7 10.2652 7 10V7ZM4 11C3.73478 11 3.48043 10.8946 3.29289 10.7071C3.10536 10.5196 3 10.2652 3 10V7H5V10C5 10.2652 4.89464 10.5196 4.70711 10.7071C4.51957 10.8946 4.26522 11 4 11ZM14 21H10V19C10 18.4696 10.2107 17.9609 10.5858 17.5858C10.9609 17.2107 11.4696 17 12 17C12.5304 17 13.0391 17.2107 13.4142 17.5858C13.7893 17.9609 14 18.4696 14 19V21ZM19 21H16V19C16 17.9391 15.5786 16.9217 14.8284 16.1716C14.0783 15.4214 13.0609 15 12 15C10.9391 15 9.92172 15.4214 9.17157 16.1716C8.42143 16.9217 8 17.9391 8 19V21H5V12.82C5.36757 12.6836 5.70664 12.4801 6 12.22C6.55002 12.712 7.26207 12.9839 8 12.9839C8.73793 12.9839 9.44998 12.712 10 12.22C10.55 12.712 11.2621 12.9839 12 12.9839C12.7379 12.9839 13.45 12.712 14 12.22C14.55 12.712 15.2621 12.9839 16 12.9839C16.7379 12.9839 17.45 12.712 18 12.22C18.2934 12.4801 18.6324 12.6836 19 12.82V21ZM21 10C21 10.2652 20.8946 10.5196 20.7071 10.7071C20.5196 10.8946 20.2652 11 20 11C19.7348 11 19.4804 10.8946 19.2929 10.7071C19.1054 10.5196 19 10.2652 19 10V7H21V10ZM4.3 3H20C20.2652 3 20.5196 2.89464 20.7071 2.70711C20.8946 2.51957 21 2.26522 21 2C21 1.73478 20.8946 1.48043 20.7071 1.29289C20.5196 1.10536 20.2652 1 20 1H4.3C4.03478 1 3.78043 1.10536 3.59289 1.29289C3.40536 1.48043 3.3 1.73478 3.3 2C3.3 2.26522 3.40536 2.51957 3.59289 2.70711C3.78043 2.89464 4.03478 3 4.3 3Z" />
</svg>
