<svg width="24" height="24" viewBox="0 0 24 24" xmlns="http://www.w3.org/2000/svg">
<path d="M7.50002 6.00002C7.20334 6.00002 6.91333 6.08799 6.66666 6.25281C6.41999 6.41763 6.22773 6.6519 6.1142 6.92599C6.00067 7.20008 5.97096 7.50168 6.02884 7.79265C6.08672 8.08362 6.22958 8.3509 6.43936 8.56068C6.64914 8.77046 6.91641 8.91332 7.20738 8.97119C7.49835 9.02907 7.79995 8.99937 8.07404 8.88584C8.34813 8.7723 8.5824 8.58005 8.74722 8.33337C8.91204 8.0867 9.00002 7.79669 9.00002 7.50002C9.00002 7.10219 8.84198 6.72066 8.56068 6.43936C8.27937 6.15805 7.89784 6.00002 7.50002 6.00002ZM21.12 10.71L12.71 2.29002C12.6166 2.19734 12.5058 2.12401 12.3839 2.07425C12.2621 2.02448 12.1316 1.99926 12 2.00002H3.00002C2.7348 2.00002 2.48045 2.10537 2.29291 2.29291C2.10537 2.48045 2.00002 2.7348 2.00002 3.00002V12C1.99926 12.1316 2.02448 12.2621 2.07425 12.3839C2.12401 12.5058 2.19734 12.6166 2.29002 12.71L10.71 21.12C11.2725 21.6818 12.035 21.9974 12.83 21.9974C13.625 21.9974 14.3875 21.6818 14.95 21.12L21.12 15C21.6818 14.4375 21.9974 13.675 21.9974 12.88C21.9974 12.085 21.6818 11.3225 21.12 10.76V10.71ZM19.71 13.53L13.53 19.7C13.3427 19.8863 13.0892 19.9908 12.825 19.9908C12.5608 19.9908 12.3074 19.8863 12.12 19.7L4.00002 11.59V4.00002H11.59L19.71 12.12C19.8027 12.2135 19.876 12.3243 19.9258 12.4461C19.9756 12.5679 20.0008 12.6984 20 12.83C19.9989 13.0924 19.8948 13.3438 19.71 13.53Z" />
</svg>
