<svg width="24" height="24" viewBox="0 0 24 24" xmlns="http://www.w3.org/2000/svg">
<path d="M21.71 2.29995C21.5226 2.1137 21.2692 2.00916 21.005 2.00916C20.7408 2.00916 20.4874 2.1137 20.3 2.29995L16.92 5.59995L15.7 4.39995C15.5104 4.2143 15.2548 4.11158 14.9894 4.11439C14.724 4.1172 14.4707 4.22532 14.285 4.41495C14.0993 4.60458 13.9966 4.86019 13.9994 5.12555C14.0023 5.39092 14.1104 5.6443 14.3 5.82995L16.22 7.70995C16.4069 7.89318 16.6582 7.99581 16.92 7.99581C17.1818 7.99581 17.4331 7.89318 17.62 7.70995L21.7 3.70995C21.8876 3.52391 21.9939 3.2712 21.9958 3.00701C21.9977 2.74282 21.8949 2.48863 21.71 2.29995ZM19 8.99995C18.7348 8.99995 18.4804 9.10531 18.2929 9.29284C18.1054 9.48038 18 9.73473 18 9.99995V14.3899L16.52 12.9099C16.2626 12.6508 15.9564 12.4452 15.6192 12.3049C15.2819 12.1645 14.9203 12.0923 14.555 12.0923C14.1897 12.0923 13.8281 12.1645 13.4908 12.3049C13.1536 12.4452 12.8474 12.6508 12.59 12.9099L11.89 13.6099L9.41 11.1199C8.88742 10.6015 8.18113 10.3106 7.445 10.3106C6.70887 10.3106 6.00258 10.6015 5.48 11.1199L4 12.5999V6.99995C4 6.73473 4.10536 6.48038 4.29289 6.29284C4.48043 6.10531 4.73478 5.99995 5 5.99995H11C11.2652 5.99995 11.5196 5.89459 11.7071 5.70705C11.8946 5.51952 12 5.26516 12 4.99995C12 4.73473 11.8946 4.48038 11.7071 4.29284C11.5196 4.1053 11.2652 3.99995 11 3.99995H5C4.20435 3.99995 3.44129 4.31602 2.87868 4.87863C2.31607 5.44124 2 6.2043 2 6.99995V18.9999C2 19.7956 2.31607 20.5587 2.87868 21.1213C3.44129 21.6839 4.20435 21.9999 5 21.9999H17C17.7956 21.9999 18.5587 21.6839 19.1213 21.1213C19.6839 20.5587 20 19.7956 20 18.9999V9.99995C20 9.73473 19.8946 9.48038 19.7071 9.29284C19.5196 9.10531 19.2652 8.99995 19 8.99995ZM5 19.9999C4.73478 19.9999 4.48043 19.8946 4.29289 19.7071C4.10536 19.5195 4 19.2652 4 18.9999V15.4299L6.9 12.5299C7.04691 12.3899 7.24206 12.3119 7.445 12.3119C7.64794 12.3119 7.84309 12.3899 7.99 12.5299L11.16 15.6999L15.45 19.9999H5ZM18 18.9999C17.9986 19.1914 17.9354 19.3772 17.82 19.5299L13.31 14.9999L14.01 14.2999C14.1562 14.1546 14.3539 14.073 14.56 14.073C14.7661 14.073 14.9638 14.1546 15.11 14.2999L18 17.2199V18.9999Z" />
</svg>
