<svg width="24" height="24" viewBox="0 0 24 24" xmlns="http://www.w3.org/2000/svg">
<path d="M19.0698 4.92996C18.1474 3.97486 17.0439 3.21303 15.8239 2.68894C14.6038 2.16485 13.2916 1.88899 11.9638 1.87745C10.6361 1.86591 9.31926 2.11893 8.09029 2.62174C6.86133 3.12455 5.74481 3.86708 4.80589 4.80601C3.86696 5.74493 3.12443 6.86145 2.62162 8.09042C2.11881 9.31938 1.86579 10.6362 1.87733 11.964C1.88887 13.2918 2.16473 14.604 2.68882 15.824C3.21291 17.044 3.97473 18.1475 4.92984 19.07C5.8523 20.0251 6.95575 20.7869 8.17579 21.311C9.39583 21.8351 10.708 22.1109 12.0358 22.1225C13.3636 22.134 14.6804 21.881 15.9094 21.3782C17.1383 20.8754 18.2549 20.1328 19.1938 19.1939C20.1327 18.255 20.8752 17.1385 21.3781 15.9095C21.8809 14.6805 22.1339 13.3637 22.1223 12.0359C22.1108 10.7082 21.8349 9.39595 21.3109 8.17591C20.7868 6.95587 20.0249 5.85243 19.0698 4.92996ZM18.2298 6.99996H12.7598L15.1098 4.64996C16.3251 5.16846 17.396 5.97501 18.2298 6.99996ZM8.99984 4.59996C10.227 4.1088 11.5551 3.92348 12.8698 4.05996L8.99984 7.92996V4.59996ZM6.99984 5.76996V11.24L5.18984 9.42996L4.64984 8.88996C5.16834 7.67464 5.97489 6.60382 6.99984 5.76996ZM4.59984 15C4.10751 13.7731 3.92214 12.4447 4.05984 11.13L7.92983 15H4.59984ZM5.76984 17H11.2398L8.88984 19.35C7.67452 18.8315 6.60369 18.0249 5.76984 17ZM14.9998 19.4C13.7729 19.8919 12.4446 20.0772 11.1298 19.94L14.9998 16.07V19.4ZM14.9998 13.24L13.2398 15H10.7498L8.99984 13.24V10.76L10.7598 8.99996H13.2398L14.9998 10.76V13.24ZM16.9998 18.24V12.76L19.3498 15.11C18.8313 16.3253 18.0248 17.3961 16.9998 18.23V18.24ZM16.0698 8.99996H19.3998C19.8918 10.2269 20.0771 11.5552 19.9398 12.87L16.0698 8.99996Z" />
</svg>
