<svg width="24" height="24" viewBox="0 0 24 24" xmlns="http://www.w3.org/2000/svg">
<path d="M22.0001 11C21.9958 10.9468 21.9958 10.8932 22.0001 10.84C22.0001 10.56 21.9201 10.28 21.8701 10C21.6872 9.17151 21.3946 8.37112 21.0001 7.62C20.3264 6.24172 19.3447 5.03691 18.1309 4.0988C16.9171 3.16068 15.5037 2.51441 14.0001 2.21L13.1601 2.08H13.0001H12.7101H12.6301L12.0001 2C11.6601 2 11.3201 2 11.0001 2H10.8401L10.0001 2.2C8.08013 2.59369 6.31819 3.54289 4.93322 4.92964C3.54825 6.31639 2.60131 8.07954 2.21008 10C2.16008 10.28 2.12008 10.56 2.08008 10.84C2.08435 10.8932 2.08435 10.9468 2.08008 11C2.08008 11.33 2.08008 11.67 2.08008 12C2.08008 12.33 2.08008 12.68 2.08008 13C2.08435 13.0532 2.08435 13.1068 2.08008 13.16C2.08008 13.44 2.16008 13.72 2.21008 14C2.36754 14.8246 2.63317 15.6249 3.00008 16.38C3.67372 17.7583 4.65544 18.9631 5.86927 19.9012C7.0831 20.8393 8.49649 21.4856 10.0001 21.79L10.8401 21.92L11.0001 22H11.3401H11.4801C11.6601 22 11.8301 22 12.0101 22C12.3501 22 12.6901 22 13.0101 21.95H13.1701L14.0001 21.8C15.92 21.4063 17.682 20.4571 19.0669 19.0704C20.4519 17.6836 21.3988 15.9205 21.7901 14C21.8401 13.72 21.8801 13.44 21.9201 13.16C21.9419 13.1044 21.9687 13.0508 22.0001 13C22.0001 12.67 22.0501 12.33 22.0501 12C22.0501 11.67 22.0001 11.32 22.0001 11ZM13.1601 4.1L13.6601 4.17C15.4678 4.55587 17.0862 5.55586 18.2401 7H11.4201L13.1601 4.1ZM10.4201 4.18L10.8201 4.12L7.38008 10L5.70008 7.08C6.8637 5.58833 8.5183 4.5573 10.3701 4.17L10.4201 4.18ZM4.59008 15C4.40938 14.5568 4.26882 14.0983 4.17008 13.63C4.17008 13.41 4.09008 13.18 4.07008 12.95C4.06526 12.9101 4.06526 12.8699 4.07008 12.83C4.01674 12.2913 4.01674 11.7487 4.07008 11.21C4.06526 11.1701 4.06526 11.1299 4.07008 11.09C4.07008 10.86 4.13008 10.63 4.17008 10.41C4.25805 9.96303 4.38521 9.52467 4.55008 9.1L8.00008 15H4.59008ZM10.8901 19.91L10.3901 19.84C8.56277 19.4623 6.92498 18.4577 5.76008 17H12.5801L10.8901 19.91ZM10.2701 15L8.54008 12L10.2701 9H13.7301L15.4601 12L13.7301 15H10.2701ZM13.6301 19.83L13.2301 19.89L16.6201 14L18.3001 16.92C17.1365 18.4117 15.4819 19.4427 13.6301 19.83ZM19.9601 12.83C19.9649 12.8699 19.9649 12.9101 19.9601 12.95C19.9601 13.18 19.9001 13.41 19.8601 13.63C19.7699 14.0634 19.6427 14.4883 19.4801 14.9L16.0001 9H19.3701C19.5508 9.44318 19.6913 9.90169 19.7901 10.37C19.7901 10.59 19.8701 10.82 19.8901 11.05C19.8949 11.0899 19.8949 11.1301 19.8901 11.17C19.9434 11.7087 19.9434 12.2513 19.8901 12.79L19.9601 12.83Z" />
</svg>
