<svg width="24" height="24" viewBox="0 0 24 24" xmlns="http://www.w3.org/2000/svg">
<path d="M21.71 14.54L19.21 12C19.117 11.9063 19.0064 11.8319 18.8846 11.7811C18.7627 11.7303 18.632 11.7042 18.5 11.7042C18.368 11.7042 18.2373 11.7303 18.1154 11.7811C17.9936 11.8319 17.883 11.9063 17.79 12L15 14.84L12.21 12C12.117 11.9063 12.0064 11.8319 11.8846 11.7811C11.7627 11.7303 11.632 11.7042 11.5 11.7042C11.368 11.7042 11.2373 11.7303 11.1154 11.7811C10.9936 11.8319 10.883 11.9063 10.79 12L8.5 14.34L6.21 12C6.11704 11.9063 6.00644 11.8319 5.88458 11.7811C5.76272 11.7303 5.63201 11.7042 5.5 11.7042C5.36799 11.7042 5.23728 11.7303 5.11543 11.7811C4.99357 11.8319 4.88297 11.9063 4.79 12L2.29 14.5C2.19896 14.5951 2.1276 14.7072 2.08 14.83C2.02876 14.9502 2.00158 15.0793 2 15.21V19C2 19.7956 2.31607 20.5587 2.87868 21.1213C3.44129 21.6839 4.20435 22 5 22H19C19.7957 22 20.5587 21.6839 21.1213 21.1213C21.6839 20.5587 22 19.7956 22 19V15.25C21.9984 15.1193 21.9712 14.9902 21.92 14.87C21.8724 14.7472 21.801 14.6351 21.71 14.54ZM20 19C20 19.2652 19.8946 19.5196 19.7071 19.7071C19.5196 19.8946 19.2652 20 19 20H5C4.73479 20 4.48043 19.8946 4.2929 19.7071C4.10536 19.5196 4 19.2652 4 19V15.66L5.5 14.16L7.79 16.46C7.88297 16.5537 7.99357 16.6281 8.11543 16.6789C8.23728 16.7297 8.36799 16.7558 8.5 16.7558C8.63201 16.7558 8.76272 16.7297 8.88458 16.6789C9.00644 16.6281 9.11704 16.5537 9.21 16.46L11.5 14.16L14.29 17C14.383 17.0937 14.4936 17.1681 14.6154 17.2189C14.7373 17.2697 14.868 17.2958 15 17.2958C15.132 17.2958 15.2627 17.2697 15.3846 17.2189C15.5064 17.1681 15.617 17.0937 15.71 17L18.5 14.2L20 15.7V19ZM19 2H5C4.20435 2 3.44129 2.31607 2.87868 2.87868C2.31607 3.44129 2 4.20435 2 5V10.26C1.98958 10.3497 1.98958 10.4403 2 10.53C2 10.53 2 10.6 2 10.63C2.06261 10.7864 2.16371 10.9244 2.29391 11.0313C2.42411 11.1381 2.5792 11.2104 2.74479 11.2413C2.91037 11.2722 3.08108 11.2608 3.24108 11.2082C3.40108 11.1555 3.54517 11.0632 3.66 10.94L5.5 9.16L7.79 11.46C7.88297 11.5537 7.99357 11.6281 8.11543 11.6789C8.23728 11.7297 8.36799 11.7558 8.5 11.7558C8.63201 11.7558 8.76272 11.7297 8.88458 11.6789C9.00644 11.6281 9.11704 11.5537 9.21 11.46L11.5 9.16L14.29 12C14.383 12.0937 14.4936 12.1681 14.6154 12.2189C14.7373 12.2697 14.868 12.2958 15 12.2958C15.132 12.2958 15.2627 12.2697 15.3846 12.2189C15.5064 12.1681 15.617 12.0937 15.71 12L18.5 9.2L20.27 10.98C20.3848 11.1032 20.5289 11.1955 20.6889 11.2482C20.8489 11.3008 21.0196 11.3122 21.1852 11.2813C21.3508 11.2504 21.5059 11.1781 21.6361 11.0713C21.7663 10.9644 21.8674 10.8264 21.93 10.67C21.9349 10.6402 21.9349 10.6098 21.93 10.58C21.9652 10.4906 21.9854 10.396 21.99 10.3V5C21.99 4.20608 21.6753 3.44453 21.1149 2.88221C20.5544 2.31988 19.7939 2.00265 19 2ZM20 7.84L19.21 7C19.117 6.90627 19.0064 6.83188 18.8846 6.78111C18.7627 6.73034 18.632 6.7042 18.5 6.7042C18.368 6.7042 18.2373 6.73034 18.1154 6.78111C17.9936 6.83188 17.883 6.90627 17.79 7L15 9.84L12.21 7C12.117 6.90627 12.0064 6.83188 11.8846 6.78111C11.7627 6.73034 11.632 6.7042 11.5 6.7042C11.368 6.7042 11.2373 6.73034 11.1154 6.78111C10.9936 6.83188 10.883 6.90627 10.79 7L8.5 9.34L6.21 7C6.11704 6.90627 6.00644 6.83188 5.88458 6.78111C5.76272 6.73034 5.63201 6.7042 5.5 6.7042C5.36799 6.7042 5.23728 6.73034 5.11543 6.78111C4.99357 6.83188 4.88297 6.90627 4.79 7L4 7.84V5C4 4.73478 4.10536 4.48043 4.2929 4.29289C4.48043 4.10536 4.73479 4 5 4H19C19.2652 4 19.5196 4.10536 19.7071 4.29289C19.8946 4.48043 20 4.73478 20 5V7.84Z" />
</svg>
