<svg width="24" height="24" viewBox="0 0 24 24" xmlns="http://www.w3.org/2000/svg">
<path d="M12 3C10.6868 3 9.38642 3.25866 8.17317 3.7612C6.95991 4.26375 5.85752 5.00035 4.92893 5.92893C3.05357 7.8043 2 10.3478 2 13V20C2 20.2652 2.10536 20.5196 2.29289 20.7071C2.48043 20.8946 2.73478 21 3 21H6C6.79565 21 7.55871 20.6839 8.12132 20.1213C8.68393 19.5587 9 18.7956 9 18V16C9 15.2044 8.68393 14.4413 8.12132 13.8787C7.55871 13.3161 6.79565 13 6 13H4C4 10.8783 4.84285 8.84344 6.34315 7.34315C7.84344 5.84285 9.87827 5 12 5C14.1217 5 16.1566 5.84285 17.6569 7.34315C19.1571 8.84344 20 10.8783 20 13H18C17.2044 13 16.4413 13.3161 15.8787 13.8787C15.3161 14.4413 15 15.2044 15 16V18C15 18.7956 15.3161 19.5587 15.8787 20.1213C16.4413 20.6839 17.2044 21 18 21H21C21.2652 21 21.5196 20.8946 21.7071 20.7071C21.8946 20.5196 22 20.2652 22 20V13C22 10.3478 20.9464 7.8043 19.0711 5.92893C17.1957 4.05357 14.6522 3 12 3ZM6 15C6.26522 15 6.51957 15.1054 6.70711 15.2929C6.89464 15.4804 7 15.7348 7 16V18C7 18.2652 6.89464 18.5196 6.70711 18.7071C6.51957 18.8946 6.26522 19 6 19H4V15H6ZM20 19H18C17.7348 19 17.4804 18.8946 17.2929 18.7071C17.1054 18.5196 17 18.2652 17 18V16C17 15.7348 17.1054 15.4804 17.2929 15.2929C17.4804 15.1054 17.7348 15 18 15H20V19Z" />
</svg>
