<svg width="24" height="24" viewBox="0 0 24 24" xmlns="http://www.w3.org/2000/svg">
<path d="M19 13C18.7348 13 18.4804 13.1054 18.2929 13.2929C18.1054 13.4804 18 13.7348 18 14V14.39L16.52 12.91C16.2626 12.6509 15.9564 12.4452 15.6192 12.3049C15.2819 12.1646 14.9203 12.0924 14.555 12.0924C14.1897 12.0924 13.8281 12.1646 13.4908 12.3049C13.1536 12.4452 12.8474 12.6509 12.59 12.91L11.89 13.61L9.41 11.12C8.87897 10.6179 8.17585 10.3381 7.445 10.3381C6.71415 10.3381 6.01103 10.6179 5.48 11.12L4 12.6V7C4 6.73478 4.10536 6.48043 4.29289 6.29289C4.48043 6.10536 4.73478 6 5 6H13C13.2652 6 13.5196 5.89464 13.7071 5.70711C13.8946 5.51957 14 5.26522 14 5C14 4.73478 13.8946 4.48043 13.7071 4.29289C13.5196 4.10536 13.2652 4 13 4H5C4.20435 4 3.44129 4.31607 2.87868 4.87868C2.31607 5.44129 2 6.20435 2 7V19C2 19.7956 2.31607 20.5587 2.87868 21.1213C3.44129 21.6839 4.20435 22 5 22H17C17.7956 22 18.5587 21.6839 19.1213 21.1213C19.6839 20.5587 20 19.7956 20 19V14C20 13.7348 19.8946 13.4804 19.7071 13.2929C19.5196 13.1054 19.2652 13 19 13ZM5 20C4.73478 20 4.48043 19.8946 4.29289 19.7071C4.10536 19.5196 4 19.2652 4 19V15.43L6.9 12.53C7.04691 12.39 7.24206 12.3119 7.445 12.3119C7.64794 12.3119 7.84309 12.39 7.99 12.53L11.16 15.7L15.45 20H5ZM18 19C17.9917 19.1902 17.9292 19.3741 17.82 19.53L13.31 15L14.01 14.3C14.1562 14.1547 14.3539 14.0731 14.56 14.0731C14.7661 14.0731 14.9638 14.1547 15.11 14.3L18 17.22V19ZM19 2C18.4731 1.99966 17.9553 2.13812 17.4989 2.40144C17.0425 2.66477 16.6635 3.04366 16.4 3.5C16.3339 3.61413 16.291 3.74022 16.2738 3.871C16.2566 4.00178 16.2655 4.13466 16.2999 4.262C16.3343 4.38934 16.3935 4.50862 16.4742 4.61297C16.5549 4.71732 16.6554 4.80467 16.77 4.87C16.9996 5.00037 17.2715 5.03464 17.5263 4.96532C17.7811 4.89601 17.9981 4.72873 18.13 4.5C18.2392 4.30736 18.4092 4.15639 18.6134 4.07078C18.8176 3.98517 19.0444 3.96975 19.2583 4.02695C19.4722 4.08414 19.6611 4.21071 19.7953 4.38681C19.9296 4.56291 20.0015 4.77858 20 5C20 5.26522 19.8946 5.51957 19.7071 5.70711C19.5196 5.89464 19.2652 6 19 6C18.7348 6 18.4804 6.10536 18.2929 6.29289C18.1054 6.48043 18 6.73478 18 7C18 7.26522 18.1054 7.51957 18.2929 7.70711C18.4804 7.89464 18.7348 8 19 8C19.7956 8 20.5587 7.68393 21.1213 7.12132C21.6839 6.55871 22 5.79565 22 5C22 4.20435 21.6839 3.44129 21.1213 2.87868C20.5587 2.31607 19.7956 2 19 2ZM19.38 9.08C19.199 8.99607 18.997 8.9682 18.8 9L18.62 9.06L18.44 9.15L18.29 9.28C18.1961 9.37463 18.1221 9.48707 18.0723 9.61072C18.0225 9.73436 17.9979 9.86672 18 10C17.9992 10.1316 18.0245 10.2621 18.0742 10.3839C18.124 10.5057 18.1973 10.6166 18.29 10.71C18.383 10.8037 18.4936 10.8781 18.6154 10.9289C18.7373 10.9797 18.868 11.0058 19 11.0058C19.132 11.0058 19.2627 10.9797 19.3846 10.9289C19.5064 10.8781 19.617 10.8037 19.71 10.71C19.8027 10.6166 19.876 10.5057 19.9258 10.3839C19.9755 10.2621 20.0008 10.1316 20 10C19.999 9.80258 19.9396 9.60986 19.8293 9.44614C19.7189 9.28242 19.5626 9.15502 19.38 9.08Z" />
</svg>
