<svg width="24" height="24" viewBox="0 0 24 24" xmlns="http://www.w3.org/2000/svg">
<path d="M17 2H7C6.20435 2 5.44129 2.31607 4.87868 2.87868C4.31607 3.44129 4 4.20435 4 5V19C4 19.7956 4.31607 20.5587 4.87868 21.1213C5.44129 21.6839 6.20435 22 7 22H17C17.7956 22 18.5587 21.6839 19.1213 21.1213C19.6839 20.5587 20 19.7956 20 19V5C20 4.20435 19.6839 3.44129 19.1213 2.87868C18.5587 2.31607 17.7956 2 17 2ZM18 19C18 19.2652 17.8946 19.5196 17.7071 19.7071C17.5196 19.8946 17.2652 20 17 20H7C6.73478 20 6.48043 19.8946 6.29289 19.7071C6.10536 19.5196 6 19.2652 6 19V5C6 4.73478 6.10536 4.48043 6.29289 4.29289C6.48043 4.10536 6.73478 4 7 4H17C17.2652 4 17.5196 4.10536 17.7071 4.29289C17.8946 4.48043 18 4.73478 18 5V19ZM14.38 10.8C14.7766 10.2832 14.9942 9.6514 15 9C15 8.20435 14.6839 7.44129 14.1213 6.87868C13.5587 6.31607 12.7956 6 12 6C11.2044 6 10.4413 6.31607 9.87868 6.87868C9.31607 7.44129 9 8.20435 9 9C9.00576 9.6514 9.22339 10.2832 9.62 10.8C8.94354 11.3008 8.44228 12.0022 8.18756 12.8044C7.93285 13.6066 7.93768 14.4687 8.20134 15.268C8.46501 16.0673 8.97408 16.763 9.6561 17.2562C10.3381 17.7494 11.1583 18.0149 12 18.0149C12.8417 18.0149 13.6619 17.7494 14.3439 17.2562C15.0259 16.763 15.535 16.0673 15.7987 15.268C16.0623 14.4687 16.0671 13.6066 15.8124 12.8044C15.5577 12.0022 15.0565 11.3008 14.38 10.8ZM12 8C12.1978 8 12.3911 8.05865 12.5556 8.16853C12.72 8.27841 12.8482 8.43459 12.9239 8.61732C12.9996 8.80004 13.0194 9.00111 12.9808 9.19509C12.9422 9.38907 12.847 9.56725 12.7071 9.70711C12.5673 9.84696 12.3891 9.9422 12.1951 9.98079C12.0011 10.0194 11.8 9.99957 11.6173 9.92388C11.4346 9.84819 11.2784 9.72002 11.1685 9.55557C11.0586 9.39112 11 9.19778 11 9C11 8.73478 11.1054 8.48043 11.2929 8.29289C11.4804 8.10536 11.7348 8 12 8ZM12 16C11.6044 16 11.2178 15.8827 10.8889 15.6629C10.56 15.4432 10.3036 15.1308 10.1522 14.7654C10.0009 14.3999 9.96126 13.9978 10.0384 13.6098C10.1156 13.2219 10.3061 12.8655 10.5858 12.5858C10.8655 12.3061 11.2219 12.1156 11.6098 12.0384C11.9978 11.9613 12.3999 12.0009 12.7654 12.1522C13.1308 12.3036 13.4432 12.56 13.6629 12.8889C13.8827 13.2178 14 13.6044 14 14C14 14.5304 13.7893 15.0391 13.4142 15.4142C13.0391 15.7893 12.5304 16 12 16Z" />
</svg>
