<svg width="24" height="24" viewBox="0 0 24 24" xmlns="http://www.w3.org/2000/svg">
<path d="M21.8498 17.47L16.8498 9.46996C16.7602 9.32525 16.635 9.20583 16.4863 9.12302C16.3375 9.04021 16.1701 8.99674 15.9998 8.99674C15.8296 8.99674 15.6622 9.04021 15.5134 9.12302C15.3647 9.20583 15.2395 9.32525 15.1498 9.46996L14.1498 11.1L10.8598 5.49996C10.7713 5.35074 10.6455 5.22712 10.4947 5.14126C10.3439 5.0554 10.1734 5.01025 9.99984 5.01025C9.82633 5.01025 9.6558 5.0554 9.50502 5.14126C9.35424 5.22712 9.22839 5.35074 9.13984 5.49996L2.13984 17.5C2.05233 17.6515 2.00613 17.8234 2.00586 17.9985C2.00559 18.1735 2.05127 18.3455 2.13833 18.4974C2.22539 18.6492 2.35077 18.7755 2.50195 18.8637C2.65314 18.9519 2.82482 18.9989 2.99984 19H20.9998C21.1785 19.0003 21.354 18.9528 21.5081 18.8623C21.6622 18.7719 21.7892 18.6418 21.876 18.4856C21.9628 18.3294 22.0061 18.1528 22.0015 17.9742C21.9969 17.7956 21.9445 17.6215 21.8498 17.47ZM10.4498 17H4.73984L9.99984 7.99996L12.9298 13L10.4498 17ZM12.7998 17L14.9998 13.57L15.9998 11.89L19.1998 17H12.7998Z" />
</svg>
