<svg width="24" height="24" viewBox="0 0 24 24" xmlns="http://www.w3.org/2000/svg">
<path d="M19.12 2.20997C19.0024 2.1113 18.8636 2.04103 18.7145 2.00462C18.5654 1.9682 18.4099 1.96661 18.26 1.99997L10.26 3.99997C10.0381 4.05472 9.8417 4.18381 9.70342 4.36576C9.56514 4.54771 9.49335 4.77153 9.5 4.99997V15.35C9.03277 15.1217 8.51999 15.0021 8 15C7.30777 15 6.63108 15.2052 6.05551 15.5898C5.47993 15.9744 5.03133 16.521 4.76642 17.1606C4.50152 17.8001 4.4322 18.5038 4.56725 19.1828C4.7023 19.8617 5.03564 20.4854 5.52513 20.9748C6.01461 21.4643 6.63825 21.7977 7.31719 21.9327C7.99612 22.0678 8.69985 21.9984 9.33939 21.7335C9.97893 21.4686 10.5256 21.02 10.9101 20.4445C11.2947 19.8689 11.5 19.1922 11.5 18.5V10.78L18.74 8.99997H18.81L19 8.84997L19.15 8.74997C19.1986 8.70475 19.2421 8.65446 19.28 8.59997C19.319 8.554 19.3526 8.50366 19.38 8.44997C19.4103 8.3939 19.4306 8.33299 19.44 8.26997C19.4504 8.20706 19.4504 8.14287 19.44 8.07997C19.4445 8.05349 19.4445 8.02645 19.44 7.99997V2.99997C19.4482 2.85284 19.4237 2.70574 19.3684 2.56917C19.3131 2.4326 19.2282 2.30994 19.12 2.20997ZM8 20C7.70333 20 7.41332 19.912 7.16665 19.7472C6.91997 19.5823 6.72771 19.3481 6.61418 19.074C6.50065 18.7999 6.47095 18.4983 6.52882 18.2073C6.5867 17.9164 6.72956 17.6491 6.93934 17.4393C7.14912 17.2295 7.41639 17.0867 7.70737 17.0288C7.99834 16.9709 8.29994 17.0006 8.57403 17.1141C8.84812 17.2277 9.08238 17.4199 9.24721 17.6666C9.41203 17.9133 9.5 18.2033 9.5 18.5C9.5 18.8978 9.34197 19.2793 9.06066 19.5606C8.77936 19.8419 8.39783 20 8 20ZM17.5 7.21997L11.5 8.71997V5.77997L17.5 4.27997V7.21997Z" />
</svg>
