<svg width="24" height="24" viewBox="0 0 24 24" xmlns="http://www.w3.org/2000/svg">
<path d="M8.70994 7.28994C8.6167 7.1967 8.50601 7.12274 8.38419 7.07228C8.26237 7.02182 8.1318 6.99585 7.99994 6.99585C7.86808 6.99585 7.73751 7.02182 7.61569 7.07228C7.49387 7.12274 7.38318 7.1967 7.28994 7.28994C7.1967 7.38318 7.12274 7.49387 7.07228 7.61569C7.02182 7.73751 6.99585 7.86808 6.99585 7.99994C6.99585 8.1318 7.02182 8.26237 7.07228 8.38419C7.12274 8.50601 7.1967 8.6167 7.28994 8.70994L10.5899 11.9999L7.28994 15.2899C7.19621 15.3829 7.12182 15.4935 7.07105 15.6154C7.02028 15.7372 6.99414 15.8679 6.99414 15.9999C6.99414 16.132 7.02028 16.2627 7.07105 16.3845C7.12182 16.5064 7.19621 16.617 7.28994 16.7099C7.3829 16.8037 7.4935 16.8781 7.61536 16.9288C7.73722 16.9796 7.86793 17.0057 7.99994 17.0057C8.13195 17.0057 8.26266 16.9796 8.38452 16.9288C8.50638 16.8781 8.61698 16.8037 8.70994 16.7099L12.7099 12.7099C12.8037 12.617 12.8781 12.5064 12.9288 12.3845C12.9796 12.2627 13.0057 12.132 13.0057 11.9999C13.0057 11.8679 12.9796 11.7372 12.9288 11.6154C12.8781 11.4935 12.8037 11.3829 12.7099 11.2899L8.70994 7.28994ZM15.9999 6.99994C15.7347 6.99994 15.4804 7.1053 15.2928 7.29283C15.1053 7.48037 14.9999 7.73472 14.9999 7.99994V15.9999C14.9999 16.2652 15.1053 16.5195 15.2928 16.707C15.4804 16.8946 15.7347 16.9999 15.9999 16.9999C16.2652 16.9999 16.5195 16.8946 16.707 16.707C16.8946 16.5195 16.9999 16.2652 16.9999 15.9999V7.99994C16.9999 7.73472 16.8946 7.48037 16.707 7.29283C16.5195 7.1053 16.2652 6.99994 15.9999 6.99994Z" />
</svg>
