<svg width="24" height="24" viewBox="0 0 24 24" xmlns="http://www.w3.org/2000/svg">
<path d="M8.67015 4.22998C8.83203 4.27253 9.002 4.27378 9.16448 4.23359C9.32697 4.19341 9.47676 4.11308 9.60015 3.99998H14.7001L13.4301 8.73998C13.3897 8.8883 13.384 9.04395 13.4135 9.19484C13.443 9.34573 13.5068 9.48779 13.6001 9.60998C13.6933 9.73099 13.8129 9.82906 13.9499 9.89666C14.0868 9.96427 14.2374 9.99961 14.3901 9.99998H18.0001L16.8701 11.24C16.6929 11.4364 16.6007 11.6952 16.6138 11.9594C16.627 12.2237 16.7443 12.472 16.9401 12.65C17.1235 12.8167 17.3623 12.9093 17.6101 12.91C17.7497 12.9096 17.8876 12.8801 18.0151 12.8233C18.1425 12.7664 18.2567 12.6836 18.3501 12.58L21.0001 9.66998C21.1314 9.52465 21.2172 9.34397 21.2467 9.15036C21.2762 8.95675 21.2483 8.75873 21.1663 8.58087C21.0842 8.40301 20.9518 8.25315 20.7854 8.14989C20.619 8.04662 20.4259 7.99449 20.2301 7.99998H15.6901L17.0001 3.25998C17.0392 3.1109 17.0433 2.95481 17.0121 2.80389C16.9808 2.65297 16.9152 2.51132 16.8201 2.38998C16.7239 2.26488 16.5995 2.16432 16.457 2.09654C16.3144 2.02876 16.1579 1.99567 16.0001 1.99998H9.00015C8.77438 1.99224 8.55265 2.06118 8.37107 2.19555C8.18949 2.32992 8.05875 2.52181 8.00015 2.73998V2.99998C7.9285 3.2519 7.95855 3.52187 8.08384 3.75187C8.20912 3.98187 8.41964 4.15354 8.67015 4.22998ZM21.6701 20.29L3.67015 2.28998C3.47553 2.1481 3.23625 2.08123 2.99628 2.10164C2.75631 2.12206 2.53177 2.2284 2.36392 2.40111C2.19607 2.57382 2.09619 2.80131 2.08264 3.04177C2.06909 3.28222 2.14277 3.51949 2.29015 3.70998L6.61015 7.99998L5.35015 12.74C5.31108 12.8891 5.307 13.0451 5.33823 13.1961C5.36945 13.347 5.43513 13.4886 5.53015 13.61C5.6233 13.731 5.74294 13.8291 5.87988 13.8967C6.01682 13.9643 6.16743 13.9996 6.32015 14H10.1601L8.35015 20.74C8.29153 20.9574 8.30802 21.1883 8.39695 21.3952C8.48588 21.6021 8.64204 21.7729 8.84015 21.88C8.98757 21.9595 9.15262 22.0008 9.32015 22C9.45969 21.9996 9.59762 21.9701 9.72507 21.9133C9.85251 21.8564 9.96665 21.7736 10.0601 21.67L14.9101 16.33L20.2901 21.71C20.3831 21.8037 20.4937 21.8781 20.6156 21.9289C20.7374 21.9796 20.8681 22.0058 21.0001 22.0058C21.1322 22.0058 21.2629 21.9796 21.3847 21.9289C21.5066 21.8781 21.6172 21.8037 21.7101 21.71C21.8039 21.617 21.8783 21.5064 21.929 21.3846C21.9798 21.2627 22.0059 21.132 22.0059 21C22.0059 20.868 21.9798 20.7373 21.929 20.6154C21.8783 20.4935 21.8039 20.3829 21.7101 20.29H21.6701ZM7.62015 12L8.25015 9.65998L10.5901 12H7.62015ZM11.3501 17.28L12.3501 13.72L13.5501 14.91L11.3501 17.28Z" />
</svg>
