<svg width="24" height="24" viewBox="0 0 24 24" xmlns="http://www.w3.org/2000/svg">
<path d="M11.9996 7.33004C12.2648 7.33004 12.5192 7.22468 12.7067 7.03714C12.8942 6.84961 12.9996 6.59525 12.9996 6.33004V5.78004L18.9996 4.28004V7.22004L14.6996 8.30004C14.4344 8.33186 14.1927 8.46774 14.0276 8.67778C13.8626 8.88782 13.7878 9.15482 13.8196 9.42004C13.8514 9.68525 13.9873 9.92697 14.1973 10.092C14.4074 10.257 14.6744 10.3319 14.9396 10.3H15.1796L20.2396 9.00004H20.3096L20.4996 8.91004L20.6496 8.81004C20.6982 8.76482 20.7417 8.71453 20.7796 8.66004C20.8186 8.61407 20.8522 8.56373 20.8796 8.51004C20.9099 8.45397 20.9302 8.39306 20.9396 8.33004C20.9489 8.26705 20.9489 8.20303 20.9396 8.14004C20.9743 8.10112 20.9953 8.05198 20.9996 8.00004V3.00004C21.0041 2.84584 20.9729 2.69269 20.9084 2.55256C20.8439 2.41243 20.7479 2.28913 20.6278 2.19229C20.5077 2.09545 20.3668 2.02771 20.2162 1.99436C20.0656 1.961 19.9093 1.96295 19.7596 2.00004L11.7596 4.00004C11.5377 4.05479 11.3413 4.18388 11.203 4.36583C11.0647 4.54778 10.9929 4.7716 10.9996 5.00004V6.33004C10.9996 6.59525 11.1049 6.84961 11.2925 7.03714C11.48 7.22468 11.7344 7.33004 11.9996 7.33004ZM21.7096 20.33L12.7096 11.33L3.70959 2.33004C3.51911 2.18266 3.28184 2.10898 3.04138 2.12253C2.80092 2.13608 2.57344 2.23596 2.40072 2.40381C2.22801 2.57166 2.12167 2.7962 2.10126 3.03617C2.08084 3.27614 2.14771 3.51542 2.28959 3.71004L10.9996 12.41V15.35C10.5324 15.1218 10.0196 15.0022 9.49959 15C8.80736 15 8.13067 15.2053 7.55509 15.5899C6.97952 15.9745 6.53092 16.5211 6.26601 17.1606C6.00111 17.8002 5.93179 18.5039 6.06684 19.1829C6.20189 19.8618 6.53523 20.4854 7.02472 20.9749C7.5142 21.4644 8.13784 21.7977 8.81677 21.9328C9.49571 22.0678 10.1994 21.9985 10.839 21.7336C11.4785 21.4687 12.0251 21.0201 12.4097 20.4445C12.7943 19.869 12.9996 19.1923 12.9996 18.5V14.41L20.2896 21.71C20.3826 21.8038 20.4932 21.8782 20.615 21.9289C20.7369 21.9797 20.8676 22.0058 20.9996 22.0058C21.1316 22.0058 21.2623 21.9797 21.3842 21.9289C21.506 21.8782 21.6166 21.8038 21.7096 21.71C21.8033 21.6171 21.8777 21.5065 21.9285 21.3846C21.9792 21.2628 22.0054 21.132 22.0054 21C22.0054 20.868 21.9792 20.7373 21.9285 20.6155C21.8777 20.4936 21.8033 20.383 21.7096 20.29V20.33ZM9.49959 20C9.20292 20 8.91291 19.9121 8.66624 19.7472C8.41956 19.5824 8.2273 19.3482 8.11377 19.0741C8.00024 18.8 7.97053 18.4984 8.02841 18.2074C8.08629 17.9164 8.22915 17.6492 8.43893 17.4394C8.64871 17.2296 8.91598 17.0867 9.20695 17.0289C9.49793 16.971 9.79953 17.0007 10.0736 17.1142C10.3477 17.2277 10.582 17.42 10.7468 17.6667C10.9116 17.9134 10.9996 18.2034 10.9996 18.5C10.9996 18.8979 10.8416 19.2794 10.5603 19.5607C10.2789 19.842 9.89742 20 9.49959 20Z" />
</svg>
