<svg width="24" height="24" viewBox="0 0 24 24" xmlns="http://www.w3.org/2000/svg">
<path d="M20.54 2.46003C19.7231 1.64111 18.6476 1.13073 17.4967 1.01583C16.3458 0.900927 15.1906 1.18862 14.228 1.82988C13.2653 2.47115 12.5548 3.42633 12.2174 4.5327C11.8801 5.63906 11.9367 6.82818 12.3777 7.89747C12.8187 8.96676 13.6168 9.85008 14.636 10.397C15.6552 10.9438 16.8325 11.1204 17.9673 10.8966C19.1022 10.6729 20.1243 10.0626 20.8596 9.16971C21.5949 8.27686 21.9979 7.15669 22 6.00003C22.0012 5.34298 21.8728 4.69214 21.6223 4.08472C21.3718 3.4773 21.004 2.92522 20.54 2.46003ZM14 6.00003C14 5.20438 14.3161 4.44132 14.8787 3.87871C15.4413 3.3161 16.2044 3.00003 17 3.00003C17.447 3.00268 17.8877 3.10517 18.29 3.30003L14.29 7.30003C14.0971 6.8939 13.998 6.44962 14 6.00003ZM19.12 8.12003C18.6747 8.54328 18.1131 8.82371 17.5072 8.92528C16.9013 9.02685 16.2789 8.94493 15.72 8.69003L19.72 4.69003C19.9109 5.10001 20.0066 5.54784 20 6.00003C19.9993 6.79541 19.6828 7.55796 19.12 8.12003ZM19 13C18.7348 13 18.4804 13.1054 18.2929 13.2929C18.1054 13.4805 18 13.7348 18 14V14.39L16.52 12.9C15.9878 12.4001 15.2851 12.1218 14.555 12.1218C13.8249 12.1218 13.1222 12.4001 12.59 12.9L11.89 13.61L9.41 11.12C8.87783 10.6201 8.17514 10.3418 7.445 10.3418C6.71486 10.3418 6.01217 10.6201 5.48 11.12L4 12.61V7.00003C4 6.73481 4.10536 6.48046 4.29289 6.29292C4.48043 6.10538 4.73478 6.00003 5 6.00003H9C9.26522 6.00003 9.51957 5.89467 9.70711 5.70713C9.89464 5.5196 10 5.26524 10 5.00003C10 4.73481 9.89464 4.48046 9.70711 4.29292C9.51957 4.10538 9.26522 4.00003 9 4.00003H5C4.20435 4.00003 3.44129 4.3161 2.87868 4.87871C2.31607 5.44132 2 6.20438 2 7.00003V19C2 19.7957 2.31607 20.5587 2.87868 21.1213C3.44129 21.684 4.20435 22 5 22H17C17.3238 21.995 17.6446 21.9376 17.95 21.83H18.04C18.5528 21.647 19.0062 21.3279 19.3515 20.9069C19.6968 20.4858 19.921 19.9788 20 19.44C20.0056 19.3668 20.0056 19.2933 20 19.22V14C20 13.7348 19.8946 13.4805 19.7071 13.2929C19.5196 13.1054 19.2652 13 19 13ZM5 20C4.73478 20 4.48043 19.8947 4.29289 19.7071C4.10536 19.5196 4 19.2652 4 19V15.43L6.9 12.54C7.04691 12.4 7.24206 12.3219 7.445 12.3219C7.64794 12.3219 7.84309 12.4 7.99 12.54L11.18 15.72L15.46 20H5ZM18 19C17.9936 19.1937 17.931 19.3813 17.82 19.54L13.3 15L14.01 14.3C14.1569 14.16 14.3521 14.0819 14.555 14.0819C14.7579 14.0819 14.9531 14.16 15.1 14.3L18 17.21V19Z" />
</svg>
