<svg width="24" height="24" viewBox="0 0 24 24" xmlns="http://www.w3.org/2000/svg">
<path d="M22.13 2.36003C22.0138 2.26605 21.8781 2.19931 21.7327 2.1647C21.5873 2.13009 21.4361 2.12849 21.29 2.16003C20.9111 2.24446 20.5184 2.24618 20.1387 2.16507C19.7591 2.08397 19.4014 1.92194 19.09 1.69003C18.9187 1.56489 18.7121 1.49744 18.5 1.49744C18.2879 1.49744 18.0813 1.56489 17.91 1.69003C17.5986 1.92194 17.2409 2.08397 16.8613 2.16507C16.4816 2.24618 16.0889 2.24446 15.71 2.16003C15.5639 2.12849 15.4127 2.13009 15.2673 2.1647C15.1219 2.19931 14.9862 2.26605 14.87 2.36003C14.754 2.45415 14.6605 2.57307 14.5965 2.70805C14.5325 2.84303 14.4995 2.99064 14.5 3.14003V6.45003C14.4992 7.16713 14.665 7.87461 14.9843 8.51669C15.3036 9.15878 15.7677 9.71792 16.34 10.15L17.91 11.31C18.0813 11.4352 18.2879 11.5026 18.5 11.5026C18.7121 11.5026 18.9187 11.4352 19.09 11.31L20.66 10.15C21.2323 9.71792 21.6964 9.15878 22.0157 8.51669C22.335 7.87461 22.5008 7.16713 22.5 6.45003V3.14003C22.5005 2.99064 22.4675 2.84303 22.4035 2.70805C22.3395 2.57307 22.246 2.45415 22.13 2.36003ZM20.5 6.45003C20.5047 6.85175 20.417 7.24918 20.2436 7.61158C20.0702 7.97398 19.8158 8.29165 19.5 8.54003L18.5 9.26003L17.5 8.54003C17.1842 8.29165 16.9298 7.97398 16.7564 7.61158C16.583 7.24918 16.4953 6.85175 16.5 6.45003V4.22003C17.198 4.18744 17.8805 4.00316 18.5 3.68003C19.1195 4.00316 19.802 4.18744 20.5 4.22003V6.45003ZM18.5 13.5C18.2348 13.5 17.9804 13.6054 17.7929 13.7929C17.6054 13.9805 17.5 14.2348 17.5 14.5V14.89L16 13.41C15.7426 13.1509 15.4364 12.9453 15.0992 12.805C14.7619 12.6646 14.4003 12.5924 14.035 12.5924C13.6697 12.5924 13.3081 12.6646 12.9708 12.805C12.6336 12.9453 12.3274 13.1509 12.07 13.41L11.37 14.11L8.91 11.62C8.38012 11.1156 7.67657 10.8343 6.945 10.8343C6.21343 10.8343 5.50988 11.1156 4.98 11.62L3.5 13.1V7.50003C3.5 7.23482 3.60536 6.98046 3.79289 6.79293C3.98043 6.60539 4.23478 6.50003 4.5 6.50003H11.5C11.7652 6.50003 12.0196 6.39468 12.2071 6.20714C12.3946 6.0196 12.5 5.76525 12.5 5.50003C12.5 5.23482 12.3946 4.98046 12.2071 4.79293C12.0196 4.60539 11.7652 4.50003 11.5 4.50003H4.5C3.70435 4.50003 2.94129 4.8161 2.37868 5.37871C1.81607 5.94132 1.5 6.70438 1.5 7.50003V19.5C1.5 20.2957 1.81607 21.0587 2.37868 21.6214C2.94129 22.184 3.70435 22.5 4.5 22.5H16.5C17.2956 22.5 18.0587 22.184 18.6213 21.6214C19.1839 21.0587 19.5 20.2957 19.5 19.5V14.5C19.5 14.2348 19.3946 13.9805 19.2071 13.7929C19.0196 13.6054 18.7652 13.5 18.5 13.5ZM4.5 20.5C4.23478 20.5 3.98043 20.3947 3.79289 20.2071C3.60536 20.0196 3.5 19.7652 3.5 19.5V15.93L6.4 13C6.54691 12.86 6.74206 12.7819 6.945 12.7819C7.14794 12.7819 7.34309 12.86 7.49 13L10.66 16.17L15 20.5H4.5ZM17.5 19.5C17.4917 19.6902 17.4292 19.8741 17.32 20.03L12.81 15.52L13.51 14.82C13.6562 14.6747 13.8539 14.5931 14.06 14.5931C14.2661 14.5931 14.4638 14.6747 14.61 14.82L17.5 17.72V19.5Z" />
</svg>
