<svg width="24" height="24" viewBox="0 0 24 24" xmlns="http://www.w3.org/2000/svg">
<path d="M20.6701 5.84994C20.2655 5.61161 19.8046 5.48593 19.3351 5.48593C18.8656 5.48593 18.4046 5.61161 18.0001 5.84994L14.0001 8.14994C13.9992 7.68219 13.8754 7.22288 13.6411 6.818C13.4069 6.41313 13.0704 6.07689 12.6653 5.84297C12.2603 5.60905 11.8009 5.48564 11.3331 5.48511C10.8653 5.48458 10.4057 5.60694 10.0001 5.83994L3.33007 9.68994C2.92525 9.92459 2.5892 10.2615 2.35559 10.6669C2.12199 11.0723 1.99902 11.532 1.99902 11.9999C1.99902 12.4679 2.12199 12.9275 2.35559 13.333C2.5892 13.7384 2.92525 14.0753 3.33007 14.3099L10.0001 18.1599C10.4056 18.3953 10.8662 18.5192 11.3351 18.5192C11.804 18.5192 12.2645 18.3953 12.6701 18.1599C13.0761 17.9267 13.413 17.5901 13.6466 17.1843C13.8803 16.7786 14.0022 16.3182 14.0001 15.8499L18.0001 18.1599C18.4046 18.3934 18.863 18.5174 19.3301 18.5199C19.802 18.52 20.2651 18.3921 20.6701 18.1499C21.076 17.9191 21.4131 17.5844 21.6469 17.1802C21.8806 16.776 22.0025 16.3169 22.0001 15.8499V8.14994C22.0025 7.68302 21.8806 7.22386 21.6469 6.81965C21.4131 6.41544 21.076 6.08074 20.6701 5.84994ZM12.0001 15.8499C12.0016 15.9672 11.9718 16.0828 11.9138 16.1847C11.8558 16.2867 11.7716 16.3713 11.6701 16.4299C11.5676 16.4869 11.4523 16.5167 11.3351 16.5167C11.2178 16.5167 11.1026 16.4869 11.0001 16.4299L4.33007 12.5799C4.22833 12.5211 4.14385 12.4365 4.08512 12.3347C4.02639 12.2329 3.99548 12.1175 3.99548 11.9999C3.99548 11.8824 4.02639 11.767 4.08512 11.6651C4.14385 11.5633 4.22833 11.4788 4.33007 11.4199L11.0001 7.56994C11.1019 7.51114 11.2175 7.48018 11.3351 7.48018C11.4527 7.48018 11.5682 7.51114 11.6701 7.56994C11.7716 7.62858 11.8558 7.71322 11.9138 7.81516C11.9718 7.91711 12.0016 8.03266 12.0001 8.14994V15.8499ZM20.0001 15.8499C19.9978 15.966 19.9655 16.0794 19.9062 16.1791C19.8469 16.2789 19.7628 16.3615 19.662 16.419C19.5612 16.4765 19.4472 16.5068 19.3312 16.5069C19.2151 16.5071 19.101 16.4771 19.0001 16.4199L14.0001 13.5399V10.4599L19.0001 7.57994C19.101 7.52277 19.2151 7.4928 19.3312 7.49297C19.4472 7.49313 19.5612 7.52343 19.662 7.58089C19.7628 7.63834 19.8469 7.721 19.9062 7.82075C19.9655 7.9205 19.9978 8.03393 20.0001 8.14994V15.8499Z" />
</svg>
