<svg width="24" height="24" viewBox="0 0 24 24" xmlns="http://www.w3.org/2000/svg">
<path d="M3 14C2.73478 14 2.48043 14.1054 2.29289 14.2929C2.10536 14.4804 2 14.7348 2 15C2 15.2652 2.10536 15.5196 2.29289 15.7071C2.48043 15.8946 2.73478 16 3 16C3.79565 16 4.55871 16.3161 5.12132 16.8787C5.68393 17.4413 6 18.2044 6 19C6 19.2652 6.10536 19.5196 6.29289 19.7071C6.48043 19.8946 6.73478 20 7 20C7.26522 20 7.51957 19.8946 7.70711 19.7071C7.89464 19.5196 8 19.2652 8 19C8 17.6739 7.47322 16.4021 6.53553 15.4645C5.59785 14.5268 4.32608 14 3 14ZM2.29 18.29C2.15097 18.4302 2.05654 18.6084 2.01862 18.8021C1.9807 18.9959 2.00098 19.1965 2.07691 19.3788C2.15284 19.561 2.28101 19.7167 2.44528 19.8262C2.60955 19.9358 2.80257 19.9942 3 19.9942C3.19743 19.9942 3.39045 19.9358 3.55472 19.8262C3.71899 19.7167 3.84717 19.561 3.92309 19.3788C3.99902 19.1965 4.0193 18.9959 3.98138 18.8021C3.94346 18.6084 3.84903 18.4302 3.71 18.29C3.61704 18.1963 3.50644 18.1219 3.38458 18.0711C3.26272 18.0203 3.13201 17.9942 3 17.9942C2.86799 17.9942 2.73728 18.0203 2.61542 18.0711C2.49356 18.1219 2.38296 18.1963 2.29 18.29ZM19 4H5C4.20435 4 3.44129 4.31607 2.87868 4.87868C2.31607 5.44129 2 6.20435 2 7C2 7.26522 2.10536 7.51957 2.29289 7.70711C2.48043 7.89464 2.73478 8 3 8C3.26522 8 3.51957 7.89464 3.70711 7.70711C3.89464 7.51957 4 7.26522 4 7C4 6.73478 4.10536 6.48043 4.29289 6.29289C4.48043 6.10536 4.73478 6 5 6H19C19.2652 6 19.5196 6.10536 19.7071 6.29289C19.8946 6.48043 20 6.73478 20 7V17C20 17.2652 19.8946 17.5196 19.7071 17.7071C19.5196 17.8946 19.2652 18 19 18H15C14.7348 18 14.4804 18.1054 14.2929 18.2929C14.1054 18.4804 14 18.7348 14 19C14 19.2652 14.1054 19.5196 14.2929 19.7071C14.4804 19.8946 14.7348 20 15 20H19C19.7956 20 20.5587 19.6839 21.1213 19.1213C21.6839 18.5587 22 17.7956 22 17V7C22 6.20435 21.6839 5.44129 21.1213 4.87868C20.5587 4.31607 19.7956 4 19 4ZM3 10C2.73478 10 2.48043 10.1054 2.29289 10.2929C2.10536 10.4804 2 10.7348 2 11C2 11.2652 2.10536 11.5196 2.29289 11.7071C2.48043 11.8946 2.73478 12 3 12C4.85652 12 6.63699 12.7375 7.94975 14.0503C9.2625 15.363 10 17.1435 10 19C10 19.2652 10.1054 19.5196 10.2929 19.7071C10.4804 19.8946 10.7348 20 11 20C11.2652 20 11.5196 19.8946 11.7071 19.7071C11.8946 19.5196 12 19.2652 12 19C12 16.6131 11.0518 14.3239 9.36396 12.636C7.67613 10.9482 5.38695 10 3 10Z" />
</svg>
