<svg width="24" height="24" viewBox="0 0 24 24" xmlns="http://www.w3.org/2000/svg">
<path d="M15.5 7.38C15.196 7.20446 14.8511 7.11205 14.5 7.11205C14.1489 7.11205 13.804 7.20446 13.5 7.38L9.5 9.69V8C9.5 7.73478 9.39465 7.48043 9.20711 7.29289C9.01957 7.10536 8.76522 7 8.5 7C8.23479 7 7.98043 7.10536 7.7929 7.29289C7.60536 7.48043 7.5 7.73478 7.5 8V16C7.5 16.2652 7.60536 16.5196 7.7929 16.7071C7.98043 16.8946 8.23479 17 8.5 17C8.76522 17 9.01957 16.8946 9.20711 16.7071C9.39465 16.5196 9.5 16.2652 9.5 16V14.31L13.5 16.62C13.804 16.7955 14.1489 16.8879 14.5 16.8879C14.8511 16.8879 15.196 16.7955 15.5 16.62C15.8037 16.4446 16.056 16.1925 16.2315 15.8888C16.4071 15.5852 16.4996 15.2407 16.5 14.89V9.11C16.4996 8.75927 16.4071 8.41481 16.2315 8.11116C16.056 7.80752 15.8037 7.55536 15.5 7.38ZM14.5 14.89L9.5 12L14.5 9.11V14.89ZM12 2C10.0222 2 8.08879 2.58649 6.4443 3.6853C4.79981 4.78412 3.51809 6.3459 2.76121 8.17317C2.00433 10.0004 1.8063 12.0111 2.19215 13.9509C2.578 15.8907 3.53041 17.6725 4.92894 19.0711C6.32746 20.4696 8.10929 21.422 10.0491 21.8079C11.9889 22.1937 13.9996 21.9957 15.8268 21.2388C17.6541 20.4819 19.2159 19.2002 20.3147 17.5557C21.4135 15.9112 22 13.9778 22 12C22 10.6868 21.7413 9.38642 21.2388 8.17317C20.7363 6.95991 19.9997 5.85752 19.0711 4.92893C18.1425 4.00035 17.0401 3.26375 15.8268 2.7612C14.6136 2.25866 13.3132 2 12 2ZM12 20C10.4178 20 8.87104 19.5308 7.55544 18.6518C6.23985 17.7727 5.21447 16.5233 4.60897 15.0615C4.00347 13.5997 3.84504 11.9911 4.15372 10.4393C4.4624 8.88743 5.22433 7.46197 6.34315 6.34315C7.46197 5.22433 8.88743 4.4624 10.4393 4.15372C11.9911 3.84504 13.5997 4.00346 15.0615 4.60896C16.5233 5.21447 17.7727 6.23984 18.6518 7.55544C19.5308 8.87103 20 10.4177 20 12C20 14.1217 19.1572 16.1566 17.6569 17.6569C16.1566 19.1571 14.1217 20 12 20Z" />
</svg>
