<svg width="24" height="24" viewBox="0 0 24 24" xmlns="http://www.w3.org/2000/svg">
<path d="M18.9998 3C18.2041 3 17.441 3.31607 16.8784 3.87868C16.3158 4.44129 15.9998 5.20435 15.9998 6V18C15.9998 18.7956 16.3158 19.5587 16.8784 20.1213C17.441 20.6839 18.2041 21 18.9998 21C19.7954 21 20.5585 20.6839 21.1211 20.1213C21.6837 19.5587 21.9998 18.7956 21.9998 18V6C21.9998 5.20435 21.6837 4.44129 21.1211 3.87868C20.5585 3.31607 19.7954 3 18.9998 3ZM19.9998 18C19.9998 18.2652 19.8944 18.5196 19.7069 18.7071C19.5193 18.8946 19.265 19 18.9998 19C18.7345 19 18.4802 18.8946 18.2927 18.7071C18.1051 18.5196 17.9998 18.2652 17.9998 18V6C17.9998 5.73478 18.1051 5.48043 18.2927 5.29289C18.4802 5.10536 18.7345 5 18.9998 5C19.265 5 19.5193 5.10536 19.7069 5.29289C19.8944 5.48043 19.9998 5.73478 19.9998 6V18ZM12.6298 5.63C12.2298 5.3943 11.774 5.27 11.3098 5.27C10.8455 5.27 10.3897 5.3943 9.98976 5.63L3.31976 9.63C2.91622 9.87526 2.58264 10.2203 2.35114 10.6319C2.11965 11.0435 1.99805 11.5078 1.99805 11.98C1.99805 12.4522 2.11965 12.9165 2.35114 13.3281C2.58264 13.7397 2.91622 14.0847 3.31976 14.33L9.98976 18.33C10.3887 18.5688 10.8449 18.6949 11.3098 18.6949C11.7747 18.6949 12.2309 18.5688 12.6298 18.33C13.0401 18.0932 13.3819 17.7541 13.6221 17.3457C13.8622 16.9373 13.9923 16.4737 13.9998 16V8C13.9993 7.51952 13.8724 7.04763 13.6319 6.63165C13.3915 6.21567 13.0459 5.87024 12.6298 5.63ZM11.9998 16C12.0027 16.1292 11.9708 16.2567 11.9075 16.3693C11.8441 16.4819 11.7517 16.5754 11.6398 16.64C11.5447 16.6973 11.4358 16.7276 11.3248 16.7276C11.2137 16.7276 11.1048 16.6973 11.0098 16.64L4.34976 12.64C4.24241 12.5712 4.15407 12.4766 4.09289 12.3648C4.03171 12.2529 3.99964 12.1275 3.99964 12C3.99964 11.8725 4.03171 11.7471 4.09289 11.6352C4.15407 11.5234 4.24241 11.4288 4.34976 11.36L11.0098 7.36C11.1064 7.30189 11.217 7.27081 11.3298 7.27C11.4382 7.26997 11.5449 7.2975 11.6398 7.35C11.7532 7.41538 11.8467 7.51044 11.9101 7.62497C11.9735 7.7395 12.0045 7.86916 11.9998 8V16Z" />
</svg>
