<svg width="24" height="24" viewBox="0 0 24 24" xmlns="http://www.w3.org/2000/svg">
<path d="M18.6072 15.6138C18.3583 15.8612 18.0217 16 17.6709 16C17.32 16 16.9834 15.8612 16.7346 15.6138L11.9668 10.9124L7.26542 15.6138C7.01659 15.8612 6.67999 16 6.32913 16C5.97827 16 5.64167 15.8612 5.39284 15.6138C5.26836 15.4903 5.16956 15.3435 5.10214 15.1816C5.03471 15.0198 5 14.8462 5 14.6709C5 14.4956 5.03471 14.322 5.10214 14.1601C5.16956 13.9983 5.26836 13.8514 5.39284 13.7279L11.0239 8.09692C11.1473 7.97244 11.2942 7.87364 11.4561 7.80622C11.6179 7.73879 11.7915 7.70408 11.9668 7.70408C12.1421 7.70408 12.3157 7.73879 12.4775 7.80622C12.6394 7.87364 12.7863 7.97244 12.9097 8.09692L18.6072 13.7279C18.7316 13.8514 18.8304 13.9983 18.8979 14.1601C18.9653 14.322 19 14.4956 19 14.6709C19 14.8462 18.9653 15.0198 18.8979 15.1816C18.8304 15.3435 18.7316 15.4903 18.6072 15.6138Z" />
</svg>
