<svg width="24" height="24" viewBox="0 0 24 24" xmlns="http://www.w3.org/2000/svg">
<path d="M11.29 17.3L10 18.59V7C10 6.73478 9.89464 6.48043 9.70711 6.29289C9.51957 6.10536 9.26522 6 9 6C8.73478 6 8.48043 6.10536 8.29289 6.29289C8.10536 6.48043 8 6.73478 8 7V18.6L6.71 17.3C6.61704 17.2063 6.50644 17.1319 6.38458 17.0811C6.26272 17.0303 6.13201 17.0042 6 17.0042C5.86799 17.0042 5.73728 17.0303 5.61542 17.0811C5.49356 17.1319 5.38296 17.2063 5.29 17.3C5.10375 17.4874 4.99921 17.7408 4.99921 18.005C4.99921 18.2692 5.10375 18.5226 5.29 18.71L8.29 21.71C8.38296 21.8037 8.49356 21.8781 8.61542 21.9289C8.73728 21.9797 8.86799 22.0058 9 22.0058C9.13201 22.0058 9.26272 21.9797 9.38458 21.9289C9.50644 21.8781 9.61704 21.8037 9.71 21.71L12.71 18.71C12.8963 18.5226 13.0008 18.2692 13.0008 18.005C13.0008 17.7408 12.8963 17.4874 12.71 17.3C12.617 17.2063 12.5064 17.1319 12.3846 17.0811C12.2627 17.0303 12.132 17.0042 12 17.0042C11.868 17.0042 11.7373 17.0303 11.6154 17.0811C11.4936 17.1319 11.383 17.2063 11.29 17.3ZM22 3C22 2.73478 21.8946 2.48043 21.7071 2.29289C21.5196 2.10536 21.2652 2 21 2H3C2.73478 2 2.48043 2.10536 2.29289 2.29289C2.10536 2.48043 2 2.73478 2 3V9C2 9.26522 2.10536 9.51957 2.29289 9.70711C2.48043 9.89464 2.73478 10 3 10H5C5.26522 10 5.51957 9.89464 5.70711 9.70711C5.89464 9.51957 6 9.26522 6 9C6 8.73478 5.89464 8.48043 5.70711 8.29289C5.51957 8.10536 5.26522 8 5 8H4V4H20V8H13C12.7348 8 12.4804 8.10536 12.2929 8.29289C12.1054 8.48043 12 8.73478 12 9C12 9.26522 12.1054 9.51957 12.2929 9.70711C12.4804 9.89464 12.7348 10 13 10H14V15C14 15.2652 14.1054 15.5196 14.2929 15.7071C14.4804 15.8946 14.7348 16 15 16H21C21.2652 16 21.5196 15.8946 21.7071 15.7071C21.8946 15.5196 22 15.2652 22 15V9V3ZM20 14H16V10H20V14Z" />
</svg>
