<svg width="24" height="24" viewBox="0 0 24 24" xmlns="http://www.w3.org/2000/svg">
<path d="M21 14H19C18.7348 14 18.4804 14.1054 18.2929 14.2929C18.1054 14.4804 18 14.7348 18 15C18 15.2652 18.1054 15.5196 18.2929 15.7071C18.4804 15.8947 18.7348 16 19 16H20V20H4V16H11C11.2652 16 11.5196 15.8947 11.7071 15.7071C11.8946 15.5196 12 15.2652 12 15C12 14.7348 11.8946 14.4804 11.7071 14.2929C11.5196 14.1054 11.2652 14 11 14H10V9.00001C10 8.73479 9.89464 8.48044 9.70711 8.2929C9.51957 8.10537 9.26522 8.00001 9 8.00001H3C2.73478 8.00001 2.48043 8.10537 2.29289 8.2929C2.10536 8.48044 2 8.73479 2 9.00001V15V21C2 21.2652 2.10536 21.5196 2.29289 21.7071C2.48043 21.8947 2.73478 22 3 22H21C21.2652 22 21.5196 21.8947 21.7071 21.7071C21.8946 21.5196 22 21.2652 22 21V15C22 14.7348 21.8946 14.4804 21.7071 14.2929C21.5196 14.1054 21.2652 14 21 14ZM4 10H8V14H4V10ZM12.71 6.70001L14 5.41001V17C14 17.2652 14.1054 17.5196 14.2929 17.7071C14.4804 17.8947 14.7348 18 15 18C15.2652 18 15.5196 17.8947 15.7071 17.7071C15.8946 17.5196 16 17.2652 16 17V5.41001L17.29 6.70001C17.3826 6.7945 17.4931 6.86967 17.6149 6.92116C17.7368 6.97266 17.8677 6.99946 18 7.00001C18.1316 7.00077 18.2621 6.97555 18.3839 6.92578C18.5057 6.87602 18.6166 6.80269 18.71 6.71001C18.8962 6.52265 19.0008 6.2692 19.0008 6.00501C19.0008 5.74082 18.8962 5.48737 18.71 5.30001L15.71 2.30001C15.617 2.20628 15.5064 2.13189 15.3846 2.08112C15.2627 2.03035 15.132 2.00421 15 2.00421C14.868 2.00421 14.7373 2.03035 14.6154 2.08112C14.4936 2.13189 14.383 2.20628 14.29 2.30001L11.29 5.30001C11.1037 5.48737 10.9992 5.74082 10.9992 6.00501C10.9992 6.2692 11.1037 6.52265 11.29 6.71001C11.3836 6.80309 11.4947 6.8767 11.617 6.92662C11.7392 6.97653 11.8701 7.00175 12.0021 7.00082C12.1341 6.99989 12.2646 6.97283 12.3861 6.9212C12.5076 6.86957 12.6177 6.7944 12.71 6.70001Z" />
</svg>
