<svg width="24" height="24" viewBox="0 0 24 24" xmlns="http://www.w3.org/2000/svg">
<path d="M7.4199 15.54C7.23365 15.7273 7.12911 15.9808 7.12911 16.245C7.12911 16.5092 7.23365 16.7626 7.4199 16.95C7.51286 17.0437 7.62346 17.1181 7.74532 17.1689C7.86718 17.2196 7.99789 17.2458 8.1299 17.2458C8.26191 17.2458 8.39262 17.2196 8.51448 17.1689C8.63633 17.1181 8.74694 17.0437 8.8399 16.95C9.02615 16.7626 9.13069 16.5092 9.13069 16.245C9.13069 15.9808 9.02615 15.7273 8.8399 15.54C8.74694 15.4463 8.63633 15.3719 8.51448 15.3211C8.39262 15.2703 8.26191 15.2442 8.1299 15.2442C7.99789 15.2442 7.86718 15.2703 7.74532 15.3211C7.62346 15.3719 7.51286 15.4463 7.4199 15.54ZM7.4199 7.04999C7.23365 7.23735 7.12911 7.4908 7.12911 7.75499C7.12911 8.01917 7.23365 8.27262 7.4199 8.45999C7.51286 8.55371 7.62346 8.62811 7.74532 8.67888C7.86718 8.72965 7.99789 8.75578 8.1299 8.75578C8.26191 8.75578 8.39262 8.72965 8.51448 8.67888C8.63633 8.62811 8.74694 8.55371 8.8399 8.45999C9.02615 8.27262 9.13069 8.01917 9.13069 7.75499C9.13069 7.4908 9.02615 7.23735 8.8399 7.04999C8.74694 6.95626 8.63633 6.88186 8.51448 6.83109C8.39262 6.78033 8.26191 6.75419 8.1299 6.75419C7.99789 6.75419 7.86718 6.78033 7.74532 6.83109C7.62346 6.88186 7.51286 6.95626 7.4199 7.04999ZM12.3699 17.05C12.1721 17.05 11.9788 17.1086 11.8143 17.2185C11.6499 17.3284 11.5217 17.4846 11.446 17.6673C11.3703 17.85 11.3505 18.0511 11.3891 18.2451C11.4277 18.4391 11.5229 18.6172 11.6628 18.7571C11.8026 18.8969 11.9808 18.9922 12.1748 19.0308C12.3688 19.0694 12.5699 19.0496 12.7526 18.9739C12.9353 18.8982 13.0915 18.77 13.2014 18.6056C13.3112 18.4411 13.3699 18.2478 13.3699 18.05C13.3767 17.9145 13.3558 17.7791 13.3086 17.6519C13.2614 17.5248 13.1888 17.4086 13.0953 17.3103C13.0017 17.2121 12.8892 17.1339 12.7645 17.0806C12.6398 17.0272 12.5055 16.9998 12.3699 17V17.05ZM6.3699 11.05C6.17212 11.05 5.97878 11.1086 5.81433 11.2185C5.64988 11.3284 5.52171 11.4846 5.44602 11.6673C5.37033 11.85 5.35053 12.0511 5.38911 12.2451C5.4277 12.4391 5.52294 12.6172 5.66279 12.7571C5.80264 12.8969 5.98083 12.9922 6.17481 13.0308C6.36879 13.0694 6.56986 13.0496 6.75258 12.9739C6.93531 12.8982 7.09149 12.77 7.20137 12.6056C7.31125 12.4411 7.3699 12.2478 7.3699 12.05C7.37668 11.9145 7.35583 11.7791 7.30862 11.6519C7.26141 11.5248 7.18883 11.4085 7.09529 11.3103C7.00174 11.2121 6.8892 11.1339 6.76449 11.0806C6.63979 11.0272 6.50554 10.9998 6.3699 11V11.05ZM12.3699 5.04999C12.1721 5.04999 11.9788 5.10863 11.8143 5.21852C11.6499 5.3284 11.5217 5.48458 11.446 5.6673C11.3703 5.85003 11.3505 6.0511 11.3891 6.24508C11.4277 6.43906 11.5229 6.61724 11.6628 6.75709C11.8026 6.89695 11.9808 6.99219 12.1748 7.03077C12.3688 7.06936 12.5699 7.04955 12.7526 6.97387C12.9353 6.89818 13.0915 6.77001 13.2014 6.60556C13.3112 6.44111 13.3699 6.24777 13.3699 6.04999C13.3767 5.91452 13.3558 5.77909 13.3086 5.65193C13.2614 5.52477 13.1888 5.40855 13.0953 5.31033C13.0017 5.21211 12.8892 5.13395 12.7645 5.08059C12.6398 5.02724 12.5055 4.99982 12.3699 4.99999V5.04999ZM15.9099 7.09999C15.7695 7.2396 15.6736 7.41777 15.6346 7.61192C15.5955 7.80606 15.6149 8.00743 15.6905 8.1905C15.766 8.37358 15.8941 8.53011 16.0587 8.64025C16.2233 8.75039 16.4169 8.80919 16.6149 8.80919C16.8129 8.80919 17.0065 8.75039 17.1711 8.64025C17.3357 8.53011 17.4638 8.37358 17.5393 8.1905C17.6149 8.00743 17.6343 7.80606 17.5952 7.61192C17.5562 7.41777 17.4603 7.2396 17.3199 7.09999C17.1392 6.90694 16.8895 6.79331 16.6252 6.78394C16.361 6.77457 16.1038 6.87022 15.9099 7.04999V7.09999ZM22.2099 7.09999C21.2956 5.27228 19.8903 3.7354 18.1515 2.66169C16.4127 1.58797 14.4091 1.01987 12.3655 1.02109C10.3219 1.02231 8.31902 1.59281 6.58148 2.6686C4.84395 3.7444 3.44045 5.28295 2.52838 7.11175C1.61631 8.94054 1.23172 10.9873 1.41774 13.0224C1.60377 15.0575 2.35305 17.0006 3.58157 18.6337C4.81008 20.2669 6.46926 21.5255 8.37304 22.2684C10.2768 23.0114 12.3499 23.2093 14.3599 22.84C14.8653 22.7449 15.3468 22.55 15.776 22.2667C16.2053 21.9834 16.5737 21.6173 16.8599 21.19C17.1682 20.7254 17.381 20.204 17.4857 19.6563C17.5905 19.1086 17.5851 18.5456 17.4699 18C17.4069 17.6703 17.3735 17.3356 17.3699 17C17.3743 16.0309 17.6602 15.0841 18.1928 14.2745C18.7254 13.4649 19.4817 12.8276 20.3699 12.44C20.8488 12.2256 21.2786 11.9153 21.6329 11.5283C21.9872 11.1413 22.2585 10.6859 22.4299 10.19C22.6033 9.68327 22.6732 9.1469 22.6354 8.61267C22.5976 8.07844 22.4529 7.55724 22.2099 7.07999V7.09999ZM20.5099 9.53999C20.4246 9.7793 20.2921 9.99907 20.1203 10.1863C19.9486 10.3735 19.741 10.5244 19.5099 10.63C18.2799 11.1806 17.2349 12.0745 16.5006 13.2045C15.7662 14.3344 15.3736 15.6524 15.3699 17C15.3714 17.4701 15.4183 17.9389 15.5099 18.4C15.571 18.6818 15.575 18.973 15.5218 19.2563C15.4685 19.5397 15.3591 19.8096 15.1999 20.05C15.0652 20.2604 14.888 20.4403 14.6796 20.578C14.4712 20.7158 14.2362 20.8085 13.9899 20.85C13.4558 20.9504 12.9134 21.0006 12.3699 21C11.1641 21.0006 9.97041 20.7588 8.85982 20.2891C7.74923 19.8194 6.74435 19.1313 5.90486 18.2657C5.06537 17.4001 4.40838 16.3746 3.97291 15.2502C3.53745 14.1257 3.33238 12.9252 3.3699 11.72C3.44751 9.47278 4.3589 7.33494 5.92653 5.72295C7.49415 4.11096 9.60573 3.14027 11.8499 2.99999H12.3599C14.0357 3.00041 15.678 3.46867 17.102 4.35205C18.526 5.23543 19.6751 6.49883 20.4199 7.99999C20.6491 8.47497 20.6815 9.02127 20.5099 9.51999V9.53999ZM12.3699 11C12.1721 11 11.9788 11.0586 11.8143 11.1685C11.6499 11.2784 11.5217 11.4346 11.446 11.6173C11.3703 11.8 11.3505 12.0011 11.3891 12.1951C11.4277 12.3891 11.5229 12.5672 11.6628 12.7071C11.8026 12.8469 11.9808 12.9422 12.1748 12.9808C12.3688 13.0194 12.5699 12.9996 12.7526 12.9239C12.9353 12.8482 13.0915 12.72 13.2014 12.5556C13.3112 12.3911 13.3699 12.1978 13.3699 12C13.3699 11.7348 13.2645 11.4804 13.077 11.2929C12.8895 11.1053 12.6351 11 12.3699 11Z" />
</svg>
