<svg width="24" height="24" viewBox="0 0 24 24" xmlns="http://www.w3.org/2000/svg">
<path d="M9.71 16.29C9.61676 16.1968 9.50607 16.1228 9.38425 16.0723C9.26243 16.0219 9.13186 15.9959 9 15.9959C8.86814 15.9959 8.73757 16.0219 8.61575 16.0723C8.49393 16.1228 8.38324 16.1968 8.29 16.29C8.19676 16.3832 8.1228 16.4939 8.07234 16.6158C8.02188 16.7376 7.99591 16.8681 7.99591 17C7.99591 17.1319 8.02188 17.2624 8.07234 17.3842C8.1228 17.5061 8.19676 17.6168 8.29 17.71L8.59 18H8C7.20435 18 6.44129 17.6839 5.87868 17.1213C5.31607 16.5587 5 15.7956 5 15V13C5 12.7348 4.89464 12.4804 4.70711 12.2929C4.51957 12.1054 4.26522 12 4 12C3.73478 12 3.48043 12.1054 3.29289 12.2929C3.10536 12.4804 3 12.7348 3 13V15C3 16.3261 3.52678 17.5979 4.46447 18.5355C5.40215 19.4732 6.67392 20 8 20H8.59L8.29 20.29C8.19627 20.383 8.12188 20.4936 8.07111 20.6154C8.02034 20.7373 7.9942 20.868 7.9942 21C7.9942 21.132 8.02034 21.2627 8.07111 21.3846C8.12188 21.5064 8.19627 21.617 8.29 21.71C8.38296 21.8037 8.49356 21.8781 8.61542 21.9289C8.73728 21.9797 8.86799 22.0058 9 22.0058C9.13201 22.0058 9.26272 21.9797 9.38458 21.9289C9.50644 21.8781 9.61704 21.8037 9.71 21.71L11.71 19.71C11.8037 19.617 11.8781 19.5064 11.9289 19.3846C11.9797 19.2627 12.0058 19.132 12.0058 19C12.0058 18.868 11.9797 18.7373 11.9289 18.6154C11.8781 18.4936 11.8037 18.383 11.71 18.29L9.71 16.29ZM20 12H19V5C19 4.73478 18.8946 4.48043 18.7071 4.29289C18.5196 4.10536 18.2652 4 18 4H11V3C11 2.73478 10.8946 2.48043 10.7071 2.29289C10.5196 2.10536 10.2652 2 10 2C9.73478 2 9.48043 2.10536 9.29289 2.29289C9.10536 2.48043 9 2.73478 9 3V4H8C7.73478 4 7.48043 4.10536 7.29289 4.29289C7.10536 4.48043 7 4.73478 7 5C7 5.26522 7.10536 5.51957 7.29289 5.70711C7.48043 5.89464 7.73478 6 8 6H9V13C9 13.2652 9.10536 13.5196 9.29289 13.7071C9.48043 13.8946 9.73478 14 10 14H17V15C17 15.2652 17.1054 15.5196 17.2929 15.7071C17.4804 15.8946 17.7348 16 18 16C18.2652 16 18.5196 15.8946 18.7071 15.7071C18.8946 15.5196 19 15.2652 19 15V14H20C20.2652 14 20.5196 13.8946 20.7071 13.7071C20.8946 13.5196 21 13.2652 21 13C21 12.7348 20.8946 12.4804 20.7071 12.2929C20.5196 12.1054 20.2652 12 20 12ZM17 12H11V6H17V12Z" />
</svg>
