<svg width="24" height="24" viewBox="0 0 24 24" xmlns="http://www.w3.org/2000/svg">
<path d="M22.7102 21.29L21.7102 20.29L15.7102 14.29L9.71019 8.29L3.71019 2.29L2.71019 1.29C2.52188 1.1017 2.26649 0.995911 2.00019 0.995911C1.73388 0.995911 1.47849 1.1017 1.29019 1.29C1.10188 1.47831 0.996094 1.7337 0.996094 2C0.996094 2.2663 1.10188 2.5217 1.29019 2.71L2.00019 3.41V21C2.00019 21.2652 2.10554 21.5196 2.29308 21.7071C2.48061 21.8946 2.73497 22 3.00019 22H20.5902L21.2902 22.71C21.3831 22.8037 21.4937 22.8781 21.6156 22.9289C21.7375 22.9797 21.8682 23.0058 22.0002 23.0058C22.1322 23.0058 22.2629 22.9797 22.3848 22.9289C22.5066 22.8781 22.6172 22.8037 22.7102 22.71C22.8039 22.617 22.8783 22.5064 22.9291 22.3846C22.9798 22.2627 23.006 22.132 23.006 22C23.006 21.868 22.9798 21.7373 22.9291 21.6154C22.8783 21.4936 22.8039 21.383 22.7102 21.29ZM4.00019 5.41L6.59019 8H4.00019V5.41ZM8.00019 20H4.00019V16H8.00019V20ZM8.00019 14H4.00019V10H8.00019V14ZM10.0002 11.41L12.5902 14H10.0002V11.41ZM14.0002 20H10.0002V16H14.0002V20ZM16.0002 20V17.41L18.5902 20H16.0002ZM8.67019 4H14.0002V9C14.0002 9.26522 14.1055 9.51957 14.2931 9.70711C14.4806 9.89464 14.735 10 15.0002 10H20.0002V15.33C20.0002 15.5952 20.1055 15.8496 20.2931 16.0371C20.4806 16.2246 20.735 16.33 21.0002 16.33C21.2654 16.33 21.5198 16.2246 21.7073 16.0371C21.8948 15.8496 22.0002 15.5952 22.0002 15.33V3C22.0002 2.73479 21.8948 2.48043 21.7073 2.2929C21.5198 2.10536 21.2654 2 21.0002 2H8.67019C8.40497 2 8.15061 2.10536 7.96308 2.2929C7.77554 2.48043 7.67019 2.73479 7.67019 3C7.67019 3.26522 7.77554 3.51957 7.96308 3.70711C8.15061 3.89465 8.40497 4 8.67019 4ZM16.0002 4H20.0002V8H16.0002V4Z" />
</svg>
