<svg width="24" height="24" viewBox="0 0 24 24" xmlns="http://www.w3.org/2000/svg">
<path d="M21 11H3C2.73478 11 2.48043 11.1054 2.29289 11.2929C2.10536 11.4804 2 11.7348 2 12C2 12.2652 2.10536 12.5196 2.29289 12.7071C2.48043 12.8946 2.73478 13 3 13H21C21.2652 13 21.5196 12.8946 21.7071 12.7071C21.8946 12.5196 22 12.2652 22 12C22 11.7348 21.8946 11.4804 21.7071 11.2929C21.5196 11.1054 21.2652 11 21 11ZM10.93 9H12.43C12.6952 9 12.9496 8.89464 13.1371 8.7071C13.3246 8.51957 13.43 8.26521 13.43 8C13.43 7.73478 13.3246 7.48043 13.1371 7.29289C12.9496 7.10535 12.6952 7 12.43 7H10.93C10.6648 7 10.4104 7.10535 10.2229 7.29289C10.0354 7.48043 9.93 7.73478 9.93 8C9.93 8.26521 10.0354 8.51957 10.2229 8.7071C10.4104 8.89464 10.6648 9 10.93 9ZM15.43 8C15.43 8.26521 15.5354 8.51957 15.7229 8.7071C15.9104 8.89464 16.1648 9 16.43 9H17C17.1974 8.99901 17.3901 8.93961 17.5539 8.82928C17.7176 8.71894 17.845 8.56262 17.92 8.38C17.9966 8.19789 18.0175 7.99717 17.9801 7.80318C17.9428 7.60919 17.8488 7.43062 17.71 7.29L17.05 6.64C16.8626 6.45375 16.6092 6.3492 16.345 6.3492C16.0808 6.3492 15.8274 6.45375 15.64 6.64C15.4921 6.78776 15.3942 6.97817 15.3601 7.18445C15.326 7.39073 15.3575 7.60251 15.45 7.79C15.4384 7.85944 15.4317 7.92961 15.43 8ZM11.65 4.77L12 4.41L12.81 5.22C12.9974 5.40625 13.2508 5.51079 13.515 5.51079C13.7792 5.51079 14.0326 5.40625 14.22 5.22C14.4063 5.03263 14.5108 4.77918 14.5108 4.515C14.5108 4.25081 14.4063 3.99736 14.22 3.81L13.16 2.75C13.0853 2.67171 12.9973 2.60737 12.9 2.56C12.8305 2.41599 12.7274 2.29076 12.5995 2.19481C12.4716 2.09885 12.3225 2.03497 12.1648 2.00852C12.0071 1.98208 11.8454 1.99383 11.6932 2.04281C11.541 2.09179 11.4027 2.17655 11.29 2.29L10.23 3.35C10.0417 3.5383 9.93591 3.79369 9.93591 4.06C9.93591 4.3263 10.0417 4.58169 10.23 4.77C10.4183 4.9583 10.6737 5.06409 10.94 5.06409C11.2063 5.06409 11.4617 4.9583 11.65 4.77ZM17 15H7C6.80257 15.001 6.60986 15.0604 6.44614 15.1707C6.28242 15.2811 6.15502 15.4374 6.08 15.62C6.00342 15.8021 5.9825 16.0028 6.01987 16.1968C6.05725 16.3908 6.15124 16.5694 6.29 16.71L11.29 21.71C11.383 21.8037 11.4936 21.8781 11.6154 21.9289C11.7373 21.9797 11.868 22.0058 12 22.0058C12.132 22.0058 12.2627 21.9797 12.3846 21.9289C12.5064 21.8781 12.617 21.8037 12.71 21.71L17.71 16.71C17.8488 16.5694 17.9428 16.3908 17.9801 16.1968C18.0175 16.0028 17.9966 15.8021 17.92 15.62C17.845 15.4374 17.7176 15.2811 17.5539 15.1707C17.3901 15.0604 17.1974 15.001 17 15ZM12 19.59L9.41 17H14.59L12 19.59ZM7.05 9C7.18161 9.00076 7.31207 8.97553 7.43391 8.92577C7.55574 8.876 7.66656 8.80268 7.76 8.71L8.82 7.6C9.0083 7.41169 9.11409 7.1563 9.11409 6.89C9.11409 6.62369 9.0083 6.3683 8.82 6.18C8.6317 5.99169 8.3763 5.88591 8.11 5.88591C7.8437 5.88591 7.5883 5.99169 7.4 6.18L6.34 7.24C6.24627 7.33296 6.17188 7.44356 6.12111 7.56542C6.07034 7.68728 6.0442 7.81798 6.0442 7.95C6.0442 8.08201 6.07034 8.21271 6.12111 8.33457C6.17188 8.45643 6.24627 8.56703 6.34 8.66C6.42919 8.76176 6.5381 8.84436 6.66014 8.9028C6.78218 8.96124 6.91481 8.99431 7.05 9Z" />
</svg>
