<svg width="24" height="24" viewBox="0 0 24 24" xmlns="http://www.w3.org/2000/svg">
<path d="M4 14.46C4 14.1948 3.89464 13.9404 3.70711 13.7529C3.51957 13.5654 3.26522 13.46 3 13.46C2.73478 13.46 2.48043 13.5654 2.29289 13.7529C2.10536 13.9404 2 14.1948 2 14.46V15.46C2 15.7252 2.10536 15.9796 2.29289 16.1671C2.48043 16.3546 2.73478 16.46 3 16.46H4C4.26522 16.46 4.51957 16.3546 4.70711 16.1671C4.89464 15.9796 5 15.7252 5 15.46C5 15.1948 4.89464 14.9404 4.70711 14.7529C4.51957 14.5654 4.26522 14.46 4 14.46ZM8.18 4H10.28C10.5452 4 10.7996 3.89464 10.9871 3.70711C11.1746 3.51957 11.28 3.26522 11.28 3C11.28 2.73478 11.1746 2.48043 10.9871 2.29289C10.7996 2.10536 10.5452 2 10.28 2H8.18C7.91478 2 7.66043 2.10536 7.47289 2.29289C7.28536 2.48043 7.18 2.73478 7.18 3C7.18 3.26522 7.28536 3.51957 7.47289 3.70711C7.66043 3.89464 7.91478 4 8.18 4ZM14.46 4C14.46 4.26522 14.5654 4.51957 14.7529 4.70711C14.9404 4.89464 15.1948 5 15.46 5C15.7252 5 15.9796 4.89464 16.1671 4.70711C16.3546 4.51957 16.46 4.26522 16.46 4V3C16.46 2.73478 16.3546 2.48043 16.1671 2.29289C15.9796 2.10536 15.7252 2 15.46 2H14.46C14.1948 2 13.9404 2.10536 13.7529 2.29289C13.5654 2.48043 13.46 2.73478 13.46 3C13.46 3.26522 13.5654 3.51957 13.7529 3.70711C13.9404 3.89464 14.1948 4 14.46 4ZM4 2H3C2.73478 2 2.48043 2.10536 2.29289 2.29289C2.10536 2.48043 2 2.73478 2 3V4C2 4.26522 2.10536 4.51957 2.29289 4.70711C2.48043 4.89464 2.73478 5 3 5C3.26522 5 3.51957 4.89464 3.70711 4.70711C3.89464 4.51957 4 4.26522 4 4C4.26522 4 4.51957 3.89464 4.70711 3.70711C4.89464 3.51957 5 3.26522 5 3C5 2.73478 4.89464 2.48043 4.70711 2.29289C4.51957 2.10536 4.26522 2 4 2ZM3 11.28C3.26522 11.28 3.51957 11.1746 3.70711 10.9871C3.89464 10.7996 4 10.5452 4 10.28V8.18C4 7.91478 3.89464 7.66043 3.70711 7.47289C3.51957 7.28536 3.26522 7.18 3 7.18C2.73478 7.18 2.48043 7.28536 2.29289 7.47289C2.10536 7.66043 2 7.91478 2 8.18V10.28C2 10.5452 2.10536 10.7996 2.29289 10.9871C2.48043 11.1746 2.73478 11.28 3 11.28ZM15.82 20H13.72C13.4548 20 13.2004 20.1054 13.0129 20.2929C12.8254 20.4804 12.72 20.7348 12.72 21C12.72 21.2652 12.8254 21.5196 13.0129 21.7071C13.2004 21.8946 13.4548 22 13.72 22H15.82C16.0852 22 16.3396 21.8946 16.5271 21.7071C16.7146 21.5196 16.82 21.2652 16.82 21C16.82 20.7348 16.7146 20.4804 16.5271 20.2929C16.3396 20.1054 16.0852 20 15.82 20ZM21 7.54H20C19.7348 7.54 19.4804 7.64536 19.2929 7.83289C19.1054 8.02043 19 8.27478 19 8.54C19 8.80522 19.1054 9.05957 19.2929 9.24711C19.4804 9.43464 19.7348 9.54 20 9.54C20 9.80522 20.1054 10.0596 20.2929 10.2471C20.4804 10.4346 20.7348 10.54 21 10.54C21.2652 10.54 21.5196 10.4346 21.7071 10.2471C21.8946 10.0596 22 9.80522 22 9.54V8.54C22 8.27478 21.8946 8.02043 21.7071 7.83289C21.5196 7.64536 21.2652 7.54 21 7.54ZM21 12.72C20.7348 12.72 20.4804 12.8254 20.2929 13.0129C20.1054 13.2004 20 13.4548 20 13.72V15.82C20 16.0852 20.1054 16.3396 20.2929 16.5271C20.4804 16.7146 20.7348 16.82 21 16.82C21.2652 16.82 21.5196 16.7146 21.7071 16.5271C21.8946 16.3396 22 16.0852 22 15.82V13.72C22 13.4548 21.8946 13.2004 21.7071 13.0129C21.5196 12.8254 21.2652 12.72 21 12.72ZM16.46 7.54C16.46 7.27478 16.3546 7.02043 16.1671 6.83289C15.9796 6.64536 15.7252 6.54 15.46 6.54C15.1948 6.54 14.9404 6.64536 14.7529 6.83289C14.5654 7.02043 14.46 7.27478 14.46 7.54H8.54C8.27478 7.54 8.02043 7.64536 7.83289 7.83289C7.64536 8.02043 7.54 8.27478 7.54 8.54V14.46C7.27478 14.46 7.02043 14.5654 6.83289 14.7529C6.64536 14.9404 6.54 15.1948 6.54 15.46C6.54 15.7252 6.64536 15.9796 6.83289 16.1671C7.02043 16.3546 7.27478 16.46 7.54 16.46C7.54 16.7252 7.64536 16.9796 7.83289 17.1671C8.02043 17.3546 8.27478 17.46 8.54 17.46C8.80522 17.46 9.05957 17.3546 9.24711 17.1671C9.43464 16.9796 9.54 16.7252 9.54 16.46H15.46C15.5913 16.46 15.7214 16.4341 15.8427 16.3839C15.964 16.3336 16.0742 16.26 16.1671 16.1671C16.26 16.0742 16.3336 15.964 16.3839 15.8427C16.4341 15.7214 16.46 15.5913 16.46 15.46V9.54C16.7252 9.54 16.9796 9.43464 17.1671 9.24711C17.3546 9.05957 17.46 8.80522 17.46 8.54C17.46 8.27478 17.3546 8.02043 17.1671 7.83289C16.9796 7.64536 16.7252 7.54 16.46 7.54ZM14.46 14.46H9.54V9.54H14.46V14.46ZM21 19C20.7348 19 20.4804 19.1054 20.2929 19.2929C20.1054 19.4804 20 19.7348 20 20C19.7348 20 19.4804 20.1054 19.2929 20.2929C19.1054 20.4804 19 20.7348 19 21C19 21.2652 19.1054 21.5196 19.2929 21.7071C19.4804 21.8946 19.7348 22 20 22H21C21.2652 22 21.5196 21.8946 21.7071 21.7071C21.8946 21.5196 22 21.2652 22 21V20C22 19.7348 21.8946 19.4804 21.7071 19.2929C21.5196 19.1054 21.2652 19 21 19ZM9.54 20C9.54 19.7348 9.43464 19.4804 9.24711 19.2929C9.05957 19.1054 8.80522 19 8.54 19C8.27478 19 8.02043 19.1054 7.83289 19.2929C7.64536 19.4804 7.54 19.7348 7.54 20V21C7.54 21.2652 7.64536 21.5196 7.83289 21.7071C8.02043 21.8946 8.27478 22 8.54 22H9.54C9.80522 22 10.0596 21.8946 10.2471 21.7071C10.4346 21.5196 10.54 21.2652 10.54 21C10.54 20.7348 10.4346 20.4804 10.2471 20.2929C10.0596 20.1054 9.80522 20 9.54 20Z" />
</svg>
