<svg width="24" height="24" viewBox="0 0 24 24" xmlns="http://www.w3.org/2000/svg">
<path d="M21.0005 18.28V11.72C21.2709 11.5695 21.5028 11.3584 21.6778 11.1032C21.8528 10.8479 21.9662 10.5556 22.009 10.2491C22.0519 9.94257 22.023 9.63031 21.9247 9.33686C21.8264 9.04342 21.6613 8.77679 21.4425 8.55795C21.2237 8.33912 20.957 8.17406 20.6636 8.07575C20.3701 7.97745 20.0579 7.94858 19.7514 7.99143C19.4449 8.03427 19.1525 8.14766 18.8973 8.32267C18.642 8.49768 18.4309 8.72953 18.2805 8.99998H15.0005V5.71998C15.2709 5.56955 15.5028 5.3584 15.6778 5.10317C15.8528 4.84793 15.9662 4.55556 16.009 4.24906C16.0519 3.94257 16.023 3.63031 15.9247 3.33686C15.8264 3.04342 15.6613 2.77679 15.4425 2.55795C15.2237 2.33912 14.957 2.17406 14.6636 2.07575C14.3701 1.97745 14.0579 1.94858 13.7514 1.99143C13.4449 2.03427 13.1525 2.14766 12.8973 2.32267C12.642 2.49768 12.4309 2.72953 12.2805 2.99998H5.72047C5.57004 2.72953 5.35889 2.49768 5.10365 2.32267C4.84841 2.14766 4.55604 2.03427 4.24955 1.99143C3.94305 1.94858 3.6308 1.97745 3.33735 2.07575C3.0439 2.17406 2.77727 2.33912 2.55844 2.55795C2.33961 2.77679 2.17455 3.04342 2.07624 3.33686C1.97794 3.63031 1.94907 3.94257 1.99192 4.24906C2.03476 4.55556 2.14815 4.84793 2.32316 5.10317C2.49817 5.3584 2.73002 5.56955 3.00047 5.71998V12.28C2.73002 12.4304 2.49817 12.6416 2.32316 12.8968C2.14815 13.152 2.03476 13.4444 1.99192 13.7509C1.94907 14.0574 1.97794 14.3697 2.07624 14.6631C2.17455 14.9565 2.33961 15.2232 2.55844 15.442C2.77727 15.6608 3.0439 15.8259 3.33735 15.9242C3.6308 16.0225 3.94305 16.0514 4.24955 16.0085C4.55604 15.9657 4.84841 15.8523 5.10365 15.6773C5.35889 15.5023 5.57004 15.2704 5.72047 15H9.00047V18.28C8.73002 18.4304 8.49817 18.6416 8.32316 18.8968C8.14815 19.152 8.03476 19.4444 7.99192 19.7509C7.94907 20.0574 7.97794 20.3697 8.07624 20.6631C8.17455 20.9566 8.33961 21.2232 8.55844 21.442C8.77727 21.6608 9.0439 21.8259 9.33735 21.9242C9.6308 22.0225 9.94306 22.0514 10.2495 22.0085C10.556 21.9657 10.8484 21.8523 11.1037 21.6773C11.3589 21.5023 11.57 21.2704 11.7205 21H18.2805C18.4309 21.2704 18.642 21.5023 18.8973 21.6773C19.1525 21.8523 19.4449 21.9657 19.7514 22.0085C20.0579 22.0514 20.3701 22.0225 20.6636 21.9242C20.957 21.8259 21.2237 21.6608 21.4425 21.442C21.6613 21.2232 21.8264 20.9566 21.9247 20.6631C22.023 20.3697 22.0519 20.0574 22.009 19.7509C21.9662 19.4444 21.8528 19.152 21.6778 18.8968C21.5028 18.6416 21.2709 18.4304 21.0005 18.28ZM8.00047 9.99998C8.00258 10.349 8.09599 10.6914 8.27142 10.9932C8.44685 11.2949 8.69819 11.5455 9.00047 11.72V13H5.72047C5.55004 12.6993 5.3012 12.4504 5.00047 12.28V5.71998C5.3012 5.54956 5.55004 5.30071 5.72047 4.99998H12.2805C12.4509 5.30071 12.6997 5.54956 13.0005 5.71998V8.99998H11.7205C11.4978 8.62457 11.1584 8.33233 10.754 8.16784C10.3497 8.00335 9.9027 7.97565 9.48116 8.08896C9.05963 8.20228 8.68674 8.45039 8.4194 8.79543C8.15205 9.14047 8.00493 9.56351 8.00047 9.99998ZM13.0005 11V12.28C12.6997 12.4504 12.4509 12.6993 12.2805 13H11.0005V11.72C11.3012 11.5496 11.55 11.3007 11.7205 11H13.0005ZM19.0005 18.28C18.6997 18.4504 18.4509 18.6993 18.2805 19H11.7205C11.55 18.6993 11.3012 18.4504 11.0005 18.28V15H12.2805C12.4309 15.2704 12.642 15.5023 12.8973 15.6773C13.1525 15.8523 13.4449 15.9657 13.7514 16.0085C14.0579 16.0514 14.3701 16.0225 14.6636 15.9242C14.957 15.8259 15.2237 15.6608 15.4425 15.442C15.6613 15.2232 15.8264 14.9565 15.9247 14.6631C16.023 14.3697 16.0519 14.0574 16.009 13.7509C15.9662 13.4444 15.8528 13.152 15.6778 12.8968C15.5028 12.6416 15.2709 12.4304 15.0005 12.28V11H18.2805C18.4509 11.3007 18.6997 11.5496 19.0005 11.72V18.28Z" />
</svg>
