<svg width="24" height="24" viewBox="0 0 24 24" xmlns="http://www.w3.org/2000/svg">
<path d="M12 9C12.1978 9 12.3911 8.94135 12.5556 8.83147C12.72 8.72159 12.8482 8.56541 12.9239 8.38268C12.9996 8.19996 13.0194 7.99889 12.9808 7.80491C12.9422 7.61093 12.847 7.43275 12.7071 7.29289C12.5673 7.15304 12.3891 7.0578 12.1951 7.01921C12.0011 6.98063 11.8 7.00043 11.6173 7.07612C11.4346 7.15181 11.2784 7.27998 11.1685 7.44443C11.0586 7.60888 11 7.80222 11 8C11 8.26522 11.1054 8.51957 11.2929 8.70711C11.4804 8.89464 11.7348 9 12 9ZM12 13C12.1978 13 12.3911 12.9414 12.5556 12.8315C12.72 12.7216 12.8482 12.5654 12.9239 12.3827C12.9996 12.2 13.0194 11.9989 12.9808 11.8049C12.9422 11.6109 12.847 11.4327 12.7071 11.2929C12.5673 11.153 12.3891 11.0578 12.1951 11.0192C12.0011 10.9806 11.8 11.0004 11.6173 11.0761C11.4346 11.1518 11.2784 11.28 11.1685 11.4444C11.0586 11.6089 11 11.8022 11 12C11 12.2652 11.1054 12.5196 11.2929 12.7071C11.4804 12.8946 11.7348 13 12 13ZM16 13C16.1978 13 16.3911 12.9414 16.5556 12.8315C16.72 12.7216 16.8482 12.5654 16.9239 12.3827C16.9996 12.2 17.0194 11.9989 16.9808 11.8049C16.9422 11.6109 16.847 11.4327 16.7071 11.2929C16.5673 11.153 16.3891 11.0578 16.1951 11.0192C16.0011 10.9806 15.8 11.0004 15.6173 11.0761C15.4346 11.1518 15.2784 11.28 15.1685 11.4444C15.0586 11.6089 15 11.8022 15 12C15 12.2652 15.1054 12.5196 15.2929 12.7071C15.4804 12.8946 15.7348 13 16 13ZM12 17C12.1978 17 12.3911 16.9414 12.5556 16.8315C12.72 16.7216 12.8482 16.5654 12.9239 16.3827C12.9996 16.2 13.0194 15.9989 12.9808 15.8049C12.9422 15.6109 12.847 15.4327 12.7071 15.2929C12.5673 15.153 12.3891 15.0578 12.1951 15.0192C12.0011 14.9806 11.8 15.0004 11.6173 15.0761C11.4346 15.1518 11.2784 15.28 11.1685 15.4444C11.0586 15.6089 11 15.8022 11 16C11 16.2652 11.1054 16.5196 11.2929 16.7071C11.4804 16.8946 11.7348 17 12 17ZM20 3H4C3.73478 3 3.48043 3.10536 3.29289 3.29289C3.10536 3.48043 3 3.73478 3 4V20C3 20.2652 3.10536 20.5196 3.29289 20.7071C3.48043 20.8946 3.73478 21 4 21H20C20.2652 21 20.5196 20.8946 20.7071 20.7071C20.8946 20.5196 21 20.2652 21 20V4C21 3.73478 20.8946 3.48043 20.7071 3.29289C20.5196 3.10536 20.2652 3 20 3ZM19 19H5V5H19V19ZM8 13C8.19778 13 8.39112 12.9414 8.55557 12.8315C8.72002 12.7216 8.84819 12.5654 8.92388 12.3827C8.99957 12.2 9.01937 11.9989 8.98079 11.8049C8.9422 11.6109 8.84696 11.4327 8.70711 11.2929C8.56725 11.153 8.38907 11.0578 8.19509 11.0192C8.00111 10.9806 7.80004 11.0004 7.61732 11.0761C7.43459 11.1518 7.27841 11.28 7.16853 11.4444C7.05865 11.6089 7 11.8022 7 12C7 12.2652 7.10536 12.5196 7.29289 12.7071C7.48043 12.8946 7.73478 13 8 13Z" />
</svg>
