<svg width="24" height="24" viewBox="0 0 24 24" xmlns="http://www.w3.org/2000/svg">
<path d="M21.46 5.83C21.4312 5.63136 21.3434 5.44597 21.2078 5.29794C21.0723 5.14991 20.8953 5.0461 20.7 5H20.59C14.9405 3.67017 9.05945 3.67017 3.40998 5H3.29998C3.10879 5.04408 2.93479 5.14343 2.79965 5.28568C2.66452 5.42793 2.57421 5.6068 2.53998 5.8C1.82001 9.88182 1.82001 14.0582 2.53998 18.14C2.57421 18.3332 2.66452 18.5121 2.79965 18.6543C2.93479 18.7966 3.10879 18.8959 3.29998 18.94H3.40998C6.223 19.6226 9.10541 19.9783 12 20C14.8922 19.998 17.7746 19.6624 20.59 19H20.7C20.8912 18.9559 21.0652 18.8566 21.2003 18.7143C21.3355 18.5721 21.4258 18.3932 21.46 18.2C22.1835 14.1084 22.1835 9.92159 21.46 5.83ZM19.6 17.17C14.593 18.2699 9.40695 18.2699 4.39998 17.17C3.85997 13.7445 3.85997 10.2555 4.39998 6.82999C9.40695 5.73004 14.593 5.73004 19.6 6.82999C20.14 10.2555 20.14 13.7445 19.6 17.17Z" />
</svg>
