<svg width="24" height="24" viewBox="0 0 24 24" xmlns="http://www.w3.org/2000/svg">
<path d="M21.5403 5.16001C21.3945 5.06137 21.2253 5.00295 21.0497 4.99066C20.8741 4.97837 20.6984 5.01264 20.5403 5.09001C17.837 6.21897 14.9295 6.77731 12.0003 6.73001C9.05765 6.78284 6.13605 6.2244 3.42032 5.09001C3.26222 5.01264 3.0865 4.97837 2.91091 4.99066C2.73533 5.00295 2.56609 5.06137 2.42032 5.16001C2.28688 5.25494 2.17881 5.38118 2.10557 5.52764C2.03234 5.67411 1.9962 5.83631 2.00032 6.00001V18C2.0006 18.1673 2.04285 18.3319 2.12322 18.4787C2.20358 18.6254 2.31949 18.7497 2.46032 18.84C2.60609 18.9387 2.77533 18.9971 2.95091 19.0094C3.1265 19.0217 3.30222 18.9874 3.46032 18.91C6.16366 17.7811 9.07108 17.2227 12.0003 17.27C14.943 17.2172 17.8646 17.7756 20.5803 18.91C20.7127 18.9684 20.8556 18.999 21.0003 19C21.1919 18.9995 21.3794 18.944 21.5403 18.84C21.6811 18.7497 21.797 18.6254 21.8774 18.4787C21.9578 18.3319 22 18.1673 22.0003 18V6.00001C22 5.8327 21.9578 5.66812 21.8774 5.52137C21.797 5.37461 21.6811 5.25037 21.5403 5.16001ZM20.0003 16.52C17.4203 15.6674 14.7175 15.2451 12.0003 15.27C9.28314 15.2451 6.58037 15.6674 4.00032 16.52V7.52001C6.58037 8.37266 9.28314 8.79497 12.0003 8.77002C14.7175 8.79497 17.4203 8.37266 20.0003 7.52001V16.52Z" />
</svg>
