<svg width="24" height="24" viewBox="0 0 24 24" xmlns="http://www.w3.org/2000/svg">
<path d="M5.5 17.5H4V6.5H11.8L11 7.29C10.8117 7.47698 10.7054 7.7311 10.7044 7.99646C10.7035 8.26183 10.808 8.5167 10.995 8.705C11.182 8.8933 11.4361 8.99962 11.7015 9.00056C11.9668 9.00149 12.2217 8.89698 12.41 8.71L14.91 6.21C15.0037 6.11704 15.0781 6.00644 15.1289 5.88458C15.1797 5.76272 15.2058 5.63201 15.2058 5.5C15.2058 5.36799 15.1797 5.23728 15.1289 5.11542C15.0781 4.99356 15.0037 4.88296 14.91 4.79L12.41 2.29C12.2226 2.10375 11.9692 1.99921 11.705 1.99921C11.4408 1.99921 11.1874 2.10375 11 2.29C10.9063 2.38296 10.8319 2.49356 10.7811 2.61542C10.7303 2.73728 10.7042 2.86799 10.7042 3C10.7042 3.13201 10.7303 3.26272 10.7811 3.38458C10.8319 3.50644 10.9063 3.61704 11 3.71L11.79 4.5H3C2.73478 4.5 2.48043 4.60536 2.29289 4.79289C2.10536 4.98043 2 5.23478 2 5.5V18.5C2 18.7652 2.10536 19.0196 2.29289 19.2071C2.48043 19.3946 2.73478 19.5 3 19.5H5.5C5.76522 19.5 6.01957 19.3946 6.20711 19.2071C6.39464 19.0196 6.5 18.7652 6.5 18.5C6.5 18.2348 6.39464 17.9804 6.20711 17.7929C6.01957 17.6054 5.76522 17.5 5.5 17.5ZM21 4.5H18.5C18.2348 4.5 17.9804 4.60536 17.7929 4.79289C17.6054 4.98043 17.5 5.23478 17.5 5.5C17.5 5.76522 17.6054 6.01957 17.7929 6.20711C17.9804 6.39464 18.2348 6.5 18.5 6.5H20V17.5H11.63L12.42 16.71C12.5137 16.617 12.5881 16.5064 12.6389 16.3846C12.6897 16.2627 12.7158 16.132 12.7158 16C12.7158 15.868 12.6897 15.7373 12.6389 15.6154C12.5881 15.4936 12.5137 15.383 12.42 15.29C12.2326 15.1037 11.9792 14.9992 11.715 14.9992C11.4508 14.9992 11.1974 15.1037 11.01 15.29L8.51 17.79C8.41627 17.883 8.34188 17.9936 8.29111 18.1154C8.24034 18.2373 8.2142 18.368 8.2142 18.5C8.2142 18.632 8.24034 18.7627 8.29111 18.8846C8.34188 19.0064 8.41627 19.117 8.51 19.21L11.01 21.71C11.1983 21.897 11.4532 22.0015 11.7185 22.0006C11.9839 21.9996 12.238 21.8933 12.425 21.705C12.612 21.5167 12.7165 21.2618 12.7156 20.9965C12.7146 20.7311 12.6083 20.477 12.42 20.29L11.63 19.5H21C21.2652 19.5 21.5196 19.3946 21.7071 19.2071C21.8946 19.0196 22 18.7652 22 18.5V5.5C22 5.23478 21.8946 4.98043 21.7071 4.79289C21.5196 4.60536 21.2652 4.5 21 4.5Z" />
</svg>
