<svg width="24" height="24" viewBox="0 0 24 24" xmlns="http://www.w3.org/2000/svg">
<path d="M22.6104 7.04999L17.0004 1.38999C16.907 1.29731 16.7961 1.22399 16.6743 1.17422C16.5525 1.12446 16.422 1.09923 16.2904 1.09999C16.0281 1.1011 15.7767 1.20525 15.5904 1.38999L1.3904 15.54C1.20415 15.7274 1.09961 15.9808 1.09961 16.245C1.09961 16.5092 1.20415 16.7626 1.3904 16.95L7.0504 22.61C7.14384 22.7027 7.25466 22.776 7.3765 22.8258C7.49833 22.8755 7.6288 22.9008 7.7604 22.9C8.02274 22.8989 8.27414 22.7947 8.4604 22.61L11.2904 19.78L19.7804 11.29L22.6104 8.45999C22.7967 8.27263 22.9012 8.01918 22.9012 7.75499C22.9012 7.49081 22.7967 7.23736 22.6104 7.04999ZM19.0704 9.16999L18.3604 8.45999C18.173 8.27374 17.9196 8.1692 17.6554 8.1692C17.3912 8.1692 17.1378 8.27374 16.9504 8.45999C16.8567 8.55296 16.7823 8.66356 16.7315 8.78542C16.6807 8.90727 16.6546 9.03798 16.6546 9.16999C16.6546 9.302 16.6807 9.43271 16.7315 9.55457C16.7823 9.67643 16.8567 9.78703 16.9504 9.87999L17.6604 10.59L16.2404 12L14.1204 9.87999C13.9291 9.71617 13.683 9.63056 13.4313 9.64028C13.1797 9.65 12.9409 9.75433 12.7628 9.93243C12.5847 10.1105 12.4804 10.3493 12.4707 10.6009C12.461 10.8526 12.5466 11.0987 12.7104 11.29L14.8304 13.41L13.4104 14.83L12.7104 14.12C12.5221 13.9317 12.2667 13.8259 12.0004 13.8259C11.7341 13.8259 11.4787 13.9317 11.2904 14.12C11.1021 14.3083 10.9963 14.5637 10.9963 14.83C10.9963 15.0963 11.1021 15.3517 11.2904 15.54L12.0004 16.24L10.5904 17.66L8.4604 15.54C8.27304 15.3537 8.01959 15.2492 7.7554 15.2492C7.49122 15.2492 7.23776 15.3537 7.0504 15.54C6.86415 15.7274 6.75961 15.9808 6.75961 16.245C6.75961 16.5092 6.86415 16.7626 7.0504 16.95L9.1704 19.07L7.7604 20.49L3.5104 16.24L16.2404 3.50999L20.4904 7.75999L19.0704 9.16999Z" />
</svg>
