<svg width="24" height="24" viewBox="0 0 24 24" xmlns="http://www.w3.org/2000/svg">
<path d="M16.0005 6.99998H8.00047C7.73525 6.99998 7.4809 7.10534 7.29336 7.29288C7.10583 7.48041 7.00047 7.73477 7.00047 7.99998V16C7.00047 16.2652 7.10583 16.5196 7.29336 16.7071C7.4809 16.8946 7.73525 17 8.00047 17H16.0005C16.2657 17 16.52 16.8946 16.7076 16.7071C16.8951 16.5196 17.0005 16.2652 17.0005 16V7.99998C17.0005 7.73477 16.8951 7.48041 16.7076 7.29288C16.52 7.10534 16.2657 6.99998 16.0005 6.99998ZM15.0005 15H9.00047V8.99998H15.0005V15ZM21.0005 18.28V5.71998C21.2709 5.56955 21.5028 5.3584 21.6778 5.10317C21.8528 4.84793 21.9662 4.55556 22.009 4.24906C22.0519 3.94257 22.023 3.63031 21.9247 3.33686C21.8264 3.04342 21.6613 2.77679 21.4425 2.55795C21.2237 2.33912 20.957 2.17406 20.6636 2.07575C20.3701 1.97745 20.0579 1.94858 19.7514 1.99143C19.4449 2.03427 19.1525 2.14766 18.8973 2.32267C18.642 2.49768 18.4309 2.72953 18.2805 2.99998H5.72047C5.57004 2.72953 5.35889 2.49768 5.10365 2.32267C4.84841 2.14766 4.55604 2.03427 4.24955 1.99143C3.94305 1.94858 3.6308 1.97745 3.33735 2.07575C3.0439 2.17406 2.77727 2.33912 2.55844 2.55795C2.33961 2.77679 2.17455 3.04342 2.07624 3.33686C1.97794 3.63031 1.94907 3.94257 1.99192 4.24906C2.03476 4.55556 2.14815 4.84793 2.32316 5.10317C2.49817 5.3584 2.73002 5.56955 3.00047 5.71998V18.28C2.73002 18.4304 2.49817 18.6416 2.32316 18.8968C2.14815 19.152 2.03476 19.4444 1.99192 19.7509C1.94907 20.0574 1.97794 20.3697 2.07624 20.6631C2.17455 20.9566 2.33961 21.2232 2.55844 21.442C2.77727 21.6608 3.0439 21.8259 3.33735 21.9242C3.6308 22.0225 3.94305 22.0514 4.24955 22.0085C4.55604 21.9657 4.84841 21.8523 5.10365 21.6773C5.35889 21.5023 5.57004 21.2704 5.72047 21H18.2805C18.4309 21.2704 18.642 21.5023 18.8973 21.6773C19.1525 21.8523 19.4449 21.9657 19.7514 22.0085C20.0579 22.0514 20.3701 22.0225 20.6636 21.9242C20.957 21.8259 21.2237 21.6608 21.4425 21.442C21.6613 21.2232 21.8264 20.9566 21.9247 20.6631C22.023 20.3697 22.0519 20.0574 22.009 19.7509C21.9662 19.4444 21.8528 19.152 21.6778 18.8968C21.5028 18.6416 21.2709 18.4304 21.0005 18.28ZM19.0005 18.28C18.6997 18.4504 18.4509 18.6993 18.2805 19H5.72047C5.55004 18.6993 5.3012 18.4504 5.00047 18.28V5.71998C5.3012 5.54956 5.55004 5.30071 5.72047 4.99998H18.2805C18.4509 5.30071 18.6997 5.54956 19.0005 5.71998V18.28Z" />
</svg>
