<svg width="24" height="24" viewBox="0 0 24 24" xmlns="http://www.w3.org/2000/svg">
<path d="M20.0003 16.18V7.81998C20.4799 7.65287 20.9093 7.3667 21.2482 6.9883C21.587 6.6099 21.8242 6.15166 21.9376 5.65654C22.051 5.16141 22.0368 4.6456 21.8963 4.15747C21.7559 3.66933 21.4938 3.22485 21.1346 2.86568C20.7754 2.50651 20.3309 2.24442 19.8428 2.10397C19.3547 1.96352 18.8389 1.94931 18.3437 2.06267C17.8486 2.17603 17.3904 2.41325 17.012 2.7521C16.6336 3.09094 16.3474 3.52032 16.1803 3.99998H7.82029C7.65317 3.52032 7.36701 3.09094 6.98861 2.7521C6.61021 2.41325 6.15197 2.17603 5.65684 2.06267C5.16171 1.94931 4.64591 1.96352 4.15777 2.10397C3.66963 2.24442 3.22515 2.50651 2.86598 2.86568C2.50682 3.22485 2.24472 3.66933 2.10427 4.15747C1.96382 4.6456 1.94961 5.16141 2.06297 5.65654C2.17633 6.15166 2.41355 6.6099 2.7524 6.9883C3.09125 7.3667 3.52063 7.65287 4.00029 7.81998V16.18C3.52063 16.3471 3.09125 16.6333 2.7524 17.0117C2.41355 17.3901 2.17633 17.8483 2.06297 18.3434C1.94961 18.8386 1.96382 19.3544 2.10427 19.8425C2.24472 20.3306 2.50682 20.7751 2.86598 21.1343C3.22515 21.4935 3.66963 21.7555 4.15777 21.896C4.64591 22.0365 5.16171 22.0507 5.65684 21.9373C6.15197 21.8239 6.61021 21.5867 6.98861 21.2479C7.36701 20.909 7.65317 20.4796 7.82029 20H16.1803C16.3474 20.4796 16.6336 20.909 17.012 21.2479C17.3904 21.5867 17.8486 21.8239 18.3437 21.9373C18.8389 22.0507 19.3547 22.0365 19.8428 21.896C20.3309 21.7555 20.7754 21.4935 21.1346 21.1343C21.4938 20.7751 21.7559 20.3306 21.8963 19.8425C22.0368 19.3544 22.051 18.8386 21.9376 18.3434C21.8242 17.8483 21.587 17.3901 21.2482 17.0117C20.9093 16.6333 20.4799 16.3471 20.0003 16.18ZM19.0003 3.99998C19.1981 3.99998 19.3914 4.05863 19.5559 4.16851C19.7203 4.2784 19.8485 4.43457 19.9242 4.6173C19.9999 4.80003 20.0197 5.00109 19.9811 5.19507C19.9425 5.38906 19.8472 5.56724 19.7074 5.70709C19.5675 5.84694 19.3894 5.94218 19.1954 5.98077C19.0014 6.01935 18.8003 5.99955 18.6176 5.92386C18.4349 5.84818 18.2787 5.72 18.1688 5.55555C18.0589 5.3911 18.0003 5.19777 18.0003 4.99998C18.0003 4.73477 18.1056 4.48041 18.2932 4.29288C18.4807 4.10534 18.7351 3.99998 19.0003 3.99998ZM5.00029 3.99998C5.19807 3.99998 5.39141 4.05863 5.55586 4.16851C5.72031 4.2784 5.84848 4.43457 5.92417 4.6173C5.99986 4.80003 6.01966 5.00109 5.98107 5.19507C5.94249 5.38906 5.84725 5.56724 5.7074 5.70709C5.56754 5.84694 5.38936 5.94218 5.19538 5.98077C5.0014 6.01935 4.80033 5.99955 4.61761 5.92386C4.43488 5.84818 4.2787 5.72 4.16882 5.55555C4.05894 5.3911 4.00029 5.19777 4.00029 4.99998C4.00029 4.73477 4.10565 4.48041 4.29318 4.29288C4.48072 4.10534 4.73507 3.99998 5.00029 3.99998ZM5.00029 20C4.80251 20 4.60917 19.9413 4.44472 19.8315C4.28027 19.7216 4.1521 19.5654 4.07641 19.3827C4.00072 19.1999 3.98092 18.9989 4.0195 18.8049C4.05809 18.6109 4.15333 18.4327 4.29318 18.2929C4.43303 18.153 4.61122 18.0578 4.8052 18.0192C4.99918 17.9806 5.20025 18.0004 5.38297 18.0761C5.5657 18.1518 5.72188 18.28 5.83176 18.4444C5.94164 18.6089 6.00029 18.8022 6.00029 19C6.00029 19.2652 5.89493 19.5196 5.7074 19.7071C5.51986 19.8946 5.26551 20 5.00029 20ZM16.1803 18H7.82029C7.67097 17.5806 7.43018 17.1997 7.11539 16.8849C6.80059 16.5701 6.41969 16.3293 6.00029 16.18V7.81998C6.41969 7.67067 6.80059 7.42988 7.11539 7.11508C7.43018 6.80029 7.67097 6.41938 7.82029 5.99998H16.1803C16.3296 6.41938 16.5704 6.80029 16.8852 7.11508C17.2 7.42988 17.5809 7.67067 18.0003 7.81998V16.18C17.5809 16.3293 17.2 16.5701 16.8852 16.8849C16.5704 17.1997 16.3296 17.5806 16.1803 18ZM19.0003 20C18.8025 20 18.6092 19.9413 18.4447 19.8315C18.2803 19.7216 18.1521 19.5654 18.0764 19.3827C18.0007 19.1999 17.9809 18.9989 18.0195 18.8049C18.0581 18.6109 18.1533 18.4327 18.2932 18.2929C18.433 18.153 18.6112 18.0578 18.8052 18.0192C18.9992 17.9806 19.2002 18.0004 19.383 18.0761C19.5657 18.1518 19.7219 18.28 19.8318 18.4444C19.9416 18.6089 20.0003 18.8022 20.0003 19C20.0003 19.2652 19.8949 19.5196 19.7074 19.7071C19.5199 19.8946 19.2655 20 19.0003 20Z" />
</svg>
