<svg width="24" height="24" viewBox="0 0 24 24" xmlns="http://www.w3.org/2000/svg">
<path d="M21 2H3C2.73478 2 2.48043 2.10536 2.29289 2.29289C2.10536 2.48043 2 2.73478 2 3C2 3.26522 2.10536 3.51957 2.29289 3.70711C2.48043 3.89464 2.73478 4 3 4H6V21C6 21.2652 6.10536 21.5196 6.29289 21.7071C6.48043 21.8946 6.73478 22 7 22H13C13.2652 22 13.5196 21.8946 13.7071 21.7071C13.8946 21.5196 14 21.2652 14 21V16H17C17.2652 16 17.5196 15.8946 17.7071 15.7071C17.8946 15.5196 18 15.2652 18 15V4H21C21.2652 4 21.5196 3.89464 21.7071 3.70711C21.8946 3.51957 22 3.26522 22 3C22 2.73478 21.8946 2.48043 21.7071 2.29289C21.5196 2.10536 21.2652 2 21 2ZM12 20H8V4H12V20ZM16 14H14V4H16V14Z" />
</svg>
