<svg width="24" height="24" viewBox="0 0 24 24" xmlns="http://www.w3.org/2000/svg">
<path d="M4.94045 12.24C4.81103 12.209 4.67673 12.2042 4.54541 12.2258C4.4141 12.2473 4.28841 12.2949 4.17572 12.3657C4.06303 12.4365 3.9656 12.529 3.88914 12.638C3.81268 12.7469 3.75873 12.87 3.73045 13L3.24045 14.94C3.18681 15.1971 3.23645 15.4649 3.37865 15.6857C3.52085 15.9065 3.7442 16.0625 4.00045 16.12C4.2577 16.1834 4.52961 16.1422 4.75648 16.0053C4.98334 15.8685 5.14662 15.6472 5.21045 15.39L5.70045 13.45C5.73143 13.3206 5.73628 13.1863 5.71469 13.055C5.69311 12.9237 5.64553 12.798 5.57475 12.6853C5.50397 12.5726 5.41141 12.4752 5.30249 12.3987C5.19357 12.3222 5.07048 12.2683 4.94045 12.24ZM21.9404 19.76L17.9404 3.76C17.8882 3.5481 17.768 3.35912 17.5983 3.22189C17.4286 3.08467 17.2186 3.00674 17.0004 3H14.0004C13.7352 3 13.4809 3.10536 13.2933 3.29289C13.1058 3.48043 13.0004 3.73478 13.0004 4V20C13.0004 20.2652 13.1058 20.5196 13.2933 20.7071C13.4809 20.8946 13.7352 21 14.0004 21H21.0004C21.1523 21.0008 21.3024 20.967 21.4393 20.9012C21.5762 20.8353 21.6963 20.7392 21.7904 20.62C21.8891 20.5024 21.9594 20.3636 21.9958 20.2145C22.0322 20.0654 22.0338 19.9098 22.0004 19.76H21.9404ZM15.0004 19V5H16.2204L19.7204 19H15.0004ZM6.40045 6.42C6.27239 6.3871 6.13908 6.37991 6.00822 6.39887C5.87737 6.41782 5.75158 6.46254 5.63812 6.53042C5.52466 6.59831 5.42579 6.68803 5.34723 6.79438C5.26868 6.90073 5.21199 7.0216 5.18045 7.15L4.70045 9.09C4.637 9.34725 4.67824 9.61916 4.81511 9.84603C4.95198 10.0729 5.17329 10.2362 5.43045 10.3H5.67045C5.89888 10.3067 6.1227 10.2349 6.30465 10.0966C6.4866 9.95831 6.6157 9.76188 6.67045 9.54L7.15045 7.6C7.20439 7.34432 7.15612 7.07768 7.01595 6.85714C6.87577 6.63661 6.65485 6.4797 6.40045 6.42ZM7.51045 5H9.51045C9.77566 5 10.03 4.89464 10.2176 4.70711C10.4051 4.51957 10.5104 4.26522 10.5104 4C10.5104 3.73478 10.4051 3.48043 10.2176 3.29289C10.03 3.10536 9.77566 3 9.51045 3H7.51045C7.24523 3 6.99088 3.10536 6.80334 3.29289C6.6158 3.48043 6.51045 3.73478 6.51045 4C6.51045 4.26522 6.6158 4.51957 6.80334 4.70711C6.99088 4.89464 7.24523 5 7.51045 5ZM4.24045 19C4.27227 18.7348 4.19744 18.4678 4.03241 18.2577C3.86738 18.0477 3.62566 17.9118 3.36045 17.88C3.09523 17.8482 2.82823 17.923 2.61819 18.088C2.40815 18.2531 2.27227 18.4948 2.24045 18.76L2.00045 19.76C1.96299 19.9076 1.95974 20.0618 1.99094 20.2108C2.02213 20.3599 2.08695 20.4998 2.18045 20.62C2.2777 20.7433 2.40261 20.8419 2.54507 20.9079C2.68753 20.9739 2.84353 21.0055 3.00045 21H4.00045C4.26566 21.0318 4.53266 20.957 4.7427 20.792C4.95274 20.6269 5.08862 20.3852 5.12045 20.12C5.15227 19.8548 5.07744 19.5878 4.91241 19.3777C4.74738 19.1677 4.50566 19.0318 4.24045 19ZM10.0004 6.51C9.73523 6.51 9.48088 6.61536 9.29334 6.80289C9.1058 6.99043 9.00045 7.24478 9.00045 7.51V9.51C9.00045 9.77522 9.1058 10.0296 9.29334 10.2171C9.48088 10.4046 9.73523 10.51 10.0004 10.51C10.2657 10.51 10.52 10.4046 10.7076 10.2171C10.8951 10.0296 11.0004 9.77522 11.0004 9.51V7.51C11.0004 7.24478 10.8951 6.99043 10.7076 6.80289C10.52 6.61536 10.2657 6.51 10.0004 6.51ZM10.0004 12.51C9.73523 12.51 9.48088 12.6154 9.29334 12.8029C9.1058 12.9904 9.00045 13.2448 9.00045 13.51V15.51C9.00045 15.7752 9.1058 16.0296 9.29334 16.2171C9.48088 16.4046 9.73523 16.51 10.0004 16.51C10.2657 16.51 10.52 16.4046 10.7076 16.2171C10.8951 16.0296 11.0004 15.7752 11.0004 15.51V13.51C11.0004 13.2448 10.8951 12.9904 10.7076 12.8029C10.52 12.6154 10.2657 12.51 10.0004 12.51ZM10.0004 18.51C9.82691 18.51 9.65636 18.5552 9.50557 18.6411C9.35479 18.727 9.22895 18.8507 9.14045 19H8.00045C7.73523 19 7.48088 19.1054 7.29334 19.2929C7.1058 19.4804 7.00045 19.7348 7.00045 20C7.00045 20.2652 7.1058 20.5196 7.29334 20.7071C7.48088 20.8946 7.73523 21 8.00045 21H10.0004C10.2657 21 10.52 20.8946 10.7076 20.7071C10.8951 20.5196 11.0004 20.2652 11.0004 20V19.51C11.0004 19.2448 10.8951 18.9904 10.7076 18.8029C10.52 18.6154 10.2657 18.51 10.0004 18.51Z" />
</svg>
