<svg width="24" height="24" viewBox="0 0 24 24" xmlns="http://www.w3.org/2000/svg">
<path d="M17.2701 12C17.2126 9.05695 17.7712 6.13439 18.9101 3.42001C18.9874 3.26191 19.0217 3.08619 19.0094 2.91061C18.9971 2.73502 18.9387 2.56579 18.8401 2.42001C18.7452 2.28658 18.6189 2.1785 18.4724 2.10527C18.326 2.03204 18.1638 1.99589 18.0001 2.00001H6.00008C5.83276 2.00029 5.66818 2.04255 5.52143 2.12291C5.37467 2.20328 5.25043 2.31918 5.16008 2.46001C5.06143 2.60579 5.00301 2.77502 4.99072 2.95061C4.97843 3.12619 5.0127 3.30191 5.09008 3.46001C6.2235 6.16201 6.78201 9.07038 6.73008 12C6.78759 14.9431 6.22897 17.8656 5.09008 20.58C5.0127 20.7381 4.97843 20.9138 4.99072 21.0894C5.00301 21.265 5.06143 21.4342 5.16008 21.58C5.255 21.7134 5.38124 21.8215 5.5277 21.8948C5.67417 21.968 5.83638 22.0041 6.00008 22H18.0001C18.1674 21.9997 18.332 21.9575 18.4787 21.8771C18.6255 21.7967 18.7497 21.6808 18.8401 21.54C18.9387 21.3942 18.9971 21.225 19.0094 21.0494C19.0217 20.8738 18.9874 20.6981 18.9101 20.54C17.7767 17.838 17.2181 14.9296 17.2701 12ZM16.5201 20H7.52008C8.37273 17.42 8.79503 14.7172 8.77008 12C8.78214 9.28061 8.34631 6.57779 7.48008 4.00001H16.4801C15.6274 6.58006 15.2051 9.28283 15.2301 12C15.218 14.7194 15.6538 17.4222 16.5201 20Z" />
</svg>
