<svg width="24" height="24" viewBox="0 0 24 24" xmlns="http://www.w3.org/2000/svg">
<path d="M21.7099 3.29C21.617 3.19627 21.5064 3.12188 21.3845 3.07111C21.2627 3.02034 21.132 2.9942 20.9999 2.9942C20.8679 2.9942 20.7372 3.02034 20.6154 3.07111C20.4935 3.12188 20.3829 3.19627 20.2899 3.29L2.28994 21.29C2.19621 21.383 2.12182 21.4936 2.07105 21.6154C2.02028 21.7373 1.99414 21.868 1.99414 22C1.99414 22.132 2.02028 22.2627 2.07105 22.3846C2.12182 22.5064 2.19621 22.617 2.28994 22.71C2.3829 22.8037 2.4935 22.8781 2.61536 22.9289C2.73722 22.9797 2.86793 23.0058 2.99994 23.0058C3.13195 23.0058 3.26266 22.9797 3.38452 22.9289C3.50637 22.8781 3.61698 22.8037 3.70994 22.71L21.7099 4.71C21.8037 4.61704 21.8781 4.50644 21.9288 4.38458C21.9796 4.26272 22.0057 4.13201 22.0057 4C22.0057 3.86799 21.9796 3.73728 21.9288 3.61542C21.8781 3.49356 21.8037 3.38296 21.7099 3.29Z" />
</svg>
