<svg width="24" height="24" viewBox="0 0 24 24" xmlns="http://www.w3.org/2000/svg">
<path d="M17 20H13V16.41L13.79 17.21C13.883 17.3037 13.9936 17.3781 14.1154 17.4289C14.2373 17.4797 14.368 17.5058 14.5 17.5058C14.632 17.5058 14.7627 17.4797 14.8846 17.4289C15.0064 17.3781 15.117 17.3037 15.21 17.21C15.3037 17.117 15.3781 17.0064 15.4289 16.8846C15.4797 16.7627 15.5058 16.632 15.5058 16.5C15.5058 16.368 15.4797 16.2373 15.4289 16.1154C15.3781 15.9936 15.3037 15.883 15.21 15.79L12.71 13.29C12.6149 13.199 12.5028 13.1276 12.38 13.08C12.1365 12.98 11.8635 12.98 11.62 13.08C11.4972 13.1276 11.3851 13.199 11.29 13.29L8.79 15.79C8.69676 15.8832 8.6228 15.9939 8.57234 16.1158C8.52188 16.2376 8.49591 16.3681 8.49591 16.5C8.49591 16.6319 8.52188 16.7624 8.57234 16.8842C8.6228 17.0061 8.69676 17.1168 8.79 17.21C8.9783 17.3983 9.2337 17.5041 9.5 17.5041C9.63186 17.5041 9.76243 17.4781 9.88425 17.4277C10.0061 17.3772 10.1168 17.3032 10.21 17.21L11 16.41V20H7C6.73478 20 6.48043 20.1054 6.29289 20.2929C6.10536 20.4804 6 20.7348 6 21C6 21.2652 6.10536 21.5196 6.29289 21.7071C6.48043 21.8946 6.73478 22 7 22H17C17.2652 22 17.5196 21.8946 17.7071 21.7071C17.8946 21.5196 18 21.2652 18 21C18 20.7348 17.8946 20.4804 17.7071 20.2929C17.5196 20.1054 17.2652 20 17 20ZM7 4H11V7.59L10.21 6.79C10.1168 6.69676 10.0061 6.6228 9.88425 6.57234C9.76243 6.52188 9.63186 6.49591 9.5 6.49591C9.2337 6.49591 8.9783 6.6017 8.79 6.79C8.69676 6.88324 8.6228 6.99393 8.57234 7.11575C8.52188 7.23757 8.49591 7.36814 8.49591 7.5C8.49591 7.7663 8.6017 8.0217 8.79 8.21L11.29 10.71C11.3851 10.801 11.4972 10.8724 11.62 10.92C11.7397 10.9729 11.8691 11.0002 12 11.0002C12.1309 11.0002 12.2603 10.9729 12.38 10.92C12.5028 10.8724 12.6149 10.801 12.71 10.71L15.21 8.21C15.3032 8.11676 15.3772 8.00607 15.4277 7.88425C15.4781 7.76243 15.5041 7.63186 15.5041 7.5C15.5041 7.36814 15.4781 7.23757 15.4277 7.11575C15.3772 6.99393 15.3032 6.88324 15.21 6.79C15.1168 6.69676 15.0061 6.6228 14.8842 6.57234C14.7624 6.52188 14.6319 6.49591 14.5 6.49591C14.3681 6.49591 14.2376 6.52188 14.1158 6.57234C13.9939 6.6228 13.8832 6.69676 13.79 6.79L13 7.59V4H17C17.2652 4 17.5196 3.89464 17.7071 3.70711C17.8946 3.51957 18 3.26522 18 3C18 2.73478 17.8946 2.48043 17.7071 2.29289C17.5196 2.10536 17.2652 2 17 2H7C6.73478 2 6.48043 2.10536 6.29289 2.29289C6.10536 2.48043 6 2.73478 6 3C6 3.26522 6.10536 3.51957 6.29289 3.70711C6.48043 3.89464 6.73478 4 7 4Z" />
</svg>
