<svg width="24" height="24" viewBox="0 0 24 24" xmlns="http://www.w3.org/2000/svg">
<path d="M16.0003 5H13.0003V3C13.0003 2.73478 12.8949 2.48043 12.7074 2.29289C12.5199 2.10536 12.2655 2 12.0003 2C11.7351 2 11.4807 2.10536 11.2932 2.29289C11.1056 2.48043 11.0003 2.73478 11.0003 3V5H6.00028C5.85008 5.00069 5.70196 5.03521 5.56692 5.101C5.43189 5.16679 5.31341 5.26215 5.22028 5.38L3.22028 7.88C3.08077 8.05655 3.00488 8.27499 3.00488 8.5C3.00488 8.72501 3.08077 8.94345 3.22028 9.12L5.22028 11.62C5.31341 11.7379 5.43189 11.8332 5.56692 11.899C5.70196 11.9648 5.85008 11.9993 6.00028 12H11.0003V20H9.00028C8.73506 20 8.48071 20.1054 8.29317 20.2929C8.10564 20.4804 8.00028 20.7348 8.00028 21C8.00028 21.2652 8.10564 21.5196 8.29317 21.7071C8.48071 21.8946 8.73506 22 9.00028 22H15.0003C15.2655 22 15.5199 21.8946 15.7074 21.7071C15.8949 21.5196 16.0003 21.2652 16.0003 21C16.0003 20.7348 15.8949 20.4804 15.7074 20.2929C15.5199 20.1054 15.2655 20 15.0003 20H13.0003V12H16.0003C16.2655 12 16.5199 11.8946 16.7074 11.7071C16.8949 11.5196 17.0003 11.2652 17.0003 11V6C17.0003 5.73478 16.8949 5.48043 16.7074 5.29289C16.5199 5.10536 16.2655 5 16.0003 5ZM15.0003 10H6.48028L5.28028 8.5L6.48028 7H15.0003V10Z" />
</svg>
