<svg width="24" height="24" viewBox="0 0 24 24" xmlns="http://www.w3.org/2000/svg">
<path d="M21.7803 11.88L19.7803 9.38C19.6872 9.26215 19.5687 9.16679 19.4336 9.101C19.2986 9.03521 19.1505 9.00069 19.0003 9H13.0003V3C13.0003 2.73478 12.8949 2.48043 12.7074 2.29289C12.5199 2.10536 12.2655 2 12.0003 2C11.7351 2 11.4807 2.10536 11.2932 2.29289C11.1056 2.48043 11.0003 2.73478 11.0003 3V4H5.00028C4.85008 4.00069 4.70196 4.03521 4.56692 4.101C4.43189 4.16679 4.31341 4.26215 4.22028 4.38L2.22028 6.88C2.08077 7.05655 2.00488 7.27499 2.00488 7.5C2.00488 7.72501 2.08077 7.94345 2.22028 8.12L4.22028 10.62C4.31341 10.7379 4.43189 10.8332 4.56692 10.899C4.70196 10.9648 4.85008 10.9993 5.00028 11H11.0003V20H9.00028C8.73506 20 8.48071 20.1054 8.29317 20.2929C8.10564 20.4804 8.00028 20.7348 8.00028 21C8.00028 21.2652 8.10564 21.5196 8.29317 21.7071C8.48071 21.8946 8.73506 22 9.00028 22H15.0003C15.2655 22 15.5199 21.8946 15.7074 21.7071C15.8949 21.5196 16.0003 21.2652 16.0003 21C16.0003 20.7348 15.8949 20.4804 15.7074 20.2929C15.5199 20.1054 15.2655 20 15.0003 20H13.0003V16H19.0003C19.1505 15.9993 19.2986 15.9648 19.4336 15.899C19.5687 15.8332 19.6872 15.7379 19.7803 15.62L21.7803 13.12C21.9198 12.9435 21.9957 12.725 21.9957 12.5C21.9957 12.275 21.9198 12.0565 21.7803 11.88ZM11.0003 9H5.48028L4.28028 7.5L5.48028 6H11.0003V9ZM18.5203 14H13.0003V11H18.5203L19.7203 12.5L18.5203 14Z" />
</svg>
