<svg width="24" height="24" viewBox="0 0 24 24" xmlns="http://www.w3.org/2000/svg">
<path d="M12 2C10.0222 2 8.08879 2.58649 6.4443 3.6853C4.79981 4.78412 3.51809 6.3459 2.76121 8.17317C2.00433 10.0004 1.8063 12.0111 2.19215 13.9509C2.578 15.8907 3.53041 17.6725 4.92894 19.0711C6.32746 20.4696 8.10929 21.422 10.0491 21.8079C11.9889 22.1937 13.9996 21.9957 15.8268 21.2388C17.6541 20.4819 19.2159 19.2002 20.3147 17.5557C21.4135 15.9112 22 13.9778 22 12C22 10.6868 21.7413 9.38642 21.2388 8.17317C20.7363 6.95991 19.9997 5.85752 19.0711 4.92893C18.1425 4.00035 17.0401 3.26375 15.8268 2.7612C14.6136 2.25866 13.3132 2 12 2ZM13 19.93V19C13 18.7348 12.8946 18.4804 12.7071 18.2929C12.5196 18.1054 12.2652 18 12 18C11.7348 18 11.4804 18.1054 11.2929 18.2929C11.1054 18.4804 11 18.7348 11 19V19.93C9.23998 19.7068 7.60408 18.9049 6.34959 17.6504C5.0951 16.3959 4.2932 14.76 4.07 13H5C5.26522 13 5.51957 12.8946 5.70711 12.7071C5.89465 12.5196 6 12.2652 6 12C6 11.7348 5.89465 11.4804 5.70711 11.2929C5.51957 11.1054 5.26522 11 5 11H4.07C4.2932 9.23998 5.0951 7.60408 6.34959 6.34959C7.60408 5.0951 9.23998 4.29319 11 4.07V5C11 5.26522 11.1054 5.51957 11.2929 5.70711C11.4804 5.89464 11.7348 6 12 6C12.2652 6 12.5196 5.89464 12.7071 5.70711C12.8946 5.51957 13 5.26522 13 5V4.07C14.76 4.29319 16.3959 5.0951 17.6504 6.34959C18.9049 7.60408 19.7068 9.23998 19.93 11H19C18.7348 11 18.4804 11.1054 18.2929 11.2929C18.1054 11.4804 18 11.7348 18 12C18 12.2652 18.1054 12.5196 18.2929 12.7071C18.4804 12.8946 18.7348 13 19 13H19.93C19.7068 14.76 18.9049 16.3959 17.6504 17.6504C16.3959 18.9049 14.76 19.7068 13 19.93ZM15.14 7.55L10.14 9.67C9.90692 9.77099 9.721 9.95691 9.62 10.19L7.5 15.19C7.42125 15.3734 7.39916 15.5761 7.43658 15.7722C7.47401 15.9682 7.56923 16.1485 7.71 16.29C7.89463 16.4784 8.14623 16.5862 8.41 16.59C8.54837 16.5901 8.68503 16.5594 8.81 16.5L13.81 14.38C14.0431 14.279 14.229 14.0931 14.33 13.86L16.45 8.86C16.5273 8.67676 16.5482 8.47463 16.51 8.27946C16.4718 8.08429 16.3763 7.90493 16.2357 7.7643C16.0951 7.62368 15.9157 7.52818 15.7205 7.49001C15.5254 7.45183 15.3232 7.47272 15.14 7.55ZM12.65 12.65L10.37 13.65L11.37 11.37L13.65 10.37L12.65 12.65Z" />
</svg>
