<svg width="24" height="24" viewBox="0 0 24 24" xmlns="http://www.w3.org/2000/svg">
<path d="M17.9999 4.47997C16.4086 2.88867 14.2504 1.99469 11.9999 1.99469C9.74949 1.99469 7.59123 2.88867 5.99993 4.47997C4.40863 6.07127 3.51465 8.22954 3.51465 10.48C3.51465 12.7304 4.40863 14.8887 5.99993 16.48L11.2699 21.76C11.3629 21.8537 11.4735 21.9281 11.5954 21.9789C11.7172 22.0296 11.8479 22.0558 11.9799 22.0558C12.1119 22.0558 12.2426 22.0296 12.3645 21.9789C12.4864 21.9281 12.597 21.8537 12.6899 21.76L17.9999 16.43C19.5846 14.8453 20.4748 12.696 20.4748 10.455C20.4748 8.21392 19.5846 6.06465 17.9999 4.47997ZM16.5699 15L11.9999 19.59L7.42993 15C6.52707 14.0963 5.91241 12.9452 5.66362 11.6923C5.41484 10.4393 5.54312 9.14072 6.03223 7.96065C6.52135 6.78059 7.34935 5.77202 8.41156 5.06245C9.47377 4.35288 10.7225 3.97415 11.9999 3.97415C13.2773 3.97415 14.5261 4.35288 15.5883 5.06245C16.6505 5.77202 17.4785 6.78059 17.9676 7.96065C18.4567 9.14072 18.585 10.4393 18.3362 11.6923C18.0875 12.9452 17.4728 14.0963 16.5699 15ZM8.99993 7.40997C8.19264 8.21974 7.73932 9.31654 7.73932 10.46C7.73932 11.6034 8.19264 12.7002 8.99993 13.51C9.59969 14.1108 10.3635 14.5211 11.1956 14.6894C12.0276 14.8577 12.8909 14.7766 13.677 14.4561C14.4631 14.1357 15.1371 13.5903 15.6144 12.8882C16.0917 12.1862 16.3511 11.3588 16.3599 10.51C16.3644 9.94318 16.2553 9.38123 16.0388 8.85736C15.8224 8.33349 15.5032 7.85833 15.0999 7.45997C14.7036 7.05455 14.231 6.73151 13.7094 6.50944C13.1877 6.28736 12.6273 6.17065 12.0603 6.166C11.4934 6.16135 10.9311 6.26887 10.4059 6.48236C9.88067 6.69585 9.40285 7.0111 8.99993 7.40997ZM13.6899 12.09C13.311 12.4747 12.8101 12.7159 12.2731 12.7722C11.736 12.8286 11.196 12.6966 10.7454 12.3989C10.2949 12.1012 9.96173 11.6562 9.80294 11.1401C9.64415 10.6239 9.66958 10.0686 9.87489 9.56913C10.0802 9.06964 10.4526 8.65699 10.9285 8.40171C11.4044 8.14643 11.9542 8.06438 12.4839 8.16959C13.0135 8.2748 13.4902 8.56073 13.8324 8.9785C14.1746 9.39627 14.3611 9.91994 14.3599 10.46C14.3454 11.0772 14.0864 11.6635 13.6399 12.09H13.6899Z" />
</svg>
