<svg width="24" height="24" viewBox="0 0 24 24" xmlns="http://www.w3.org/2000/svg">
<path d="M20.4604 9.63C20.32 8.16892 19.8036 6.76909 18.9616 5.56682C18.1195 4.36456 16.9805 3.40083 15.6554 2.7695C14.3303 2.13816 12.8642 1.86072 11.4001 1.96421C9.93592 2.06769 8.5235 2.54856 7.30037 3.36C6.24957 4.06265 5.36742 4.9893 4.71731 6.07339C4.0672 7.15749 3.66526 8.37211 3.54037 9.63C3.41785 10.8797 3.57504 12.1409 4.00054 13.3223C4.42604 14.5036 5.10917 15.5755 6.00037 16.46L11.3004 21.77C11.3933 21.8637 11.5039 21.9381 11.6258 21.9889C11.7477 22.0397 11.8784 22.0658 12.0104 22.0658C12.1424 22.0658 12.2731 22.0397 12.3949 21.9889C12.5168 21.9381 12.6274 21.8637 12.7204 21.77L18.0004 16.46C18.8916 15.5755 19.5747 14.5036 20.0002 13.3223C20.4257 12.1409 20.5829 10.8797 20.4604 9.63ZM16.6004 15.05L12.0004 19.65L7.40037 15.05C6.72246 14.3721 6.20317 13.5523 5.87984 12.6498C5.5565 11.7472 5.43715 10.7842 5.53037 9.83C5.62419 8.86111 5.93213 7.92516 6.43194 7.08985C6.93175 6.25453 7.61093 5.54071 8.42037 5C9.48131 4.29524 10.7267 3.9193 12.0004 3.9193C13.2741 3.9193 14.5194 4.29524 15.5804 5C16.3874 5.53862 17.065 6.24928 17.5647 7.08094C18.0644 7.9126 18.3737 8.84461 18.4704 9.81C18.5666 10.7674 18.4488 11.7343 18.1254 12.6406C17.8019 13.5468 17.281 14.3698 16.6004 15.05ZM12.0004 6C11.1104 6 10.2403 6.26392 9.5003 6.75839C8.76028 7.25286 8.18351 7.95566 7.84291 8.77793C7.50232 9.6002 7.4132 10.505 7.58684 11.3779C7.76047 12.2508 8.18905 13.0526 8.81839 13.682C9.44773 14.3113 10.2495 14.7399 11.1225 14.9135C11.9954 15.0872 12.9002 14.9981 13.7224 14.6575C14.5447 14.3169 15.2475 13.7401 15.742 13.0001C16.2364 12.26 16.5004 11.39 16.5004 10.5C16.4977 9.30734 16.0228 8.16428 15.1794 7.32094C14.3361 6.4776 13.193 6.00265 12.0004 6ZM12.0004 13C11.5059 13 11.0226 12.8534 10.6114 12.5787C10.2003 12.304 9.87989 11.9135 9.69067 11.4567C9.50145 10.9999 9.45194 10.4972 9.54841 10.0123C9.64487 9.52733 9.88297 9.08187 10.2326 8.73224C10.5822 8.38261 11.0277 8.1445 11.5126 8.04804C11.9976 7.95158 12.5003 8.00109 12.9571 8.1903C13.4139 8.37952 13.8043 8.69996 14.079 9.11108C14.3537 9.5222 14.5004 10.0056 14.5004 10.5C14.5004 11.163 14.237 11.7989 13.7681 12.2678C13.2993 12.7366 12.6634 13 12.0004 13Z" />
</svg>
