<svg width="24" height="24" viewBox="0 0 24 24" xmlns="http://www.w3.org/2000/svg">
<path d="M21.6801 17.65L14.6801 3.64999C14.4303 3.15339 14.0474 2.73597 13.5742 2.44429C13.101 2.15262 12.556 1.99817 12.0001 1.99817C11.4442 1.99817 10.8993 2.15262 10.4261 2.44429C9.95282 2.73597 9.56994 3.15339 9.32013 3.64999L2.32013 17.65C2.04514 18.2025 1.94724 18.8264 2.03978 19.4366C2.13232 20.0467 2.4108 20.6135 2.83724 21.0597C3.26369 21.5058 3.81735 21.8095 4.42274 21.9295C5.02813 22.0495 5.65578 21.9798 6.22013 21.73L11.5901 19.33C11.72 19.2755 11.8593 19.2475 12.0001 19.2475C12.1409 19.2475 12.2803 19.2755 12.4101 19.33L17.7801 21.73C18.3445 21.9798 18.9721 22.0495 19.5775 21.9295C20.1829 21.8095 20.7366 21.5058 21.163 21.0597C21.5895 20.6135 21.8679 20.0467 21.9605 19.4366C22.053 18.8264 21.9551 18.2025 21.6801 17.65ZM19.6801 19.65C19.5374 19.7986 19.3522 19.8995 19.15 19.9389C18.9477 19.9783 18.7382 19.9542 18.5501 19.87L13.1801 17.48C12.7961 17.309 12.3805 17.2207 11.9601 17.2207C11.5398 17.2207 11.1241 17.309 10.7401 17.48L5.41013 19.9C5.22309 19.9813 5.01568 20.0034 4.8157 19.9635C4.61572 19.9235 4.43273 19.8234 4.29128 19.6765C4.14982 19.5296 4.05666 19.3429 4.02428 19.1416C3.9919 18.9403 4.02186 18.7338 4.11013 18.55L11.1101 4.54999C11.194 4.38618 11.3215 4.24872 11.4786 4.15273C11.6356 4.05674 11.8161 4.00595 12.0001 4.00595C12.1842 4.00595 12.3647 4.05674 12.5217 4.15273C12.6787 4.24872 12.8062 4.38618 12.8901 4.54999L19.8901 18.55C19.9806 18.7332 20.0128 18.9396 19.9824 19.1417C19.952 19.3437 19.8605 19.5315 19.7201 19.68L19.6801 19.65Z" />
</svg>
