<svg width="24" height="24" viewBox="0 0 24 24" xmlns="http://www.w3.org/2000/svg">
<path d="M21.1498 2.86001C20.7678 2.47057 20.2833 2.19723 19.7524 2.07158C19.2215 1.94594 18.6659 1.97313 18.1498 2.15001L3.9998 6.88001C3.42912 7.06681 2.93049 7.42616 2.57276 7.90845C2.21502 8.39073 2.01582 8.97218 2.00265 9.57251C1.98948 10.1728 2.16299 10.7625 2.49923 11.26C2.83547 11.7575 3.31786 12.1384 3.87981 12.35L9.1198 14.35C9.23912 14.3956 9.34776 14.4654 9.43895 14.5548C9.53014 14.6443 9.60191 14.7516 9.6498 14.87L11.6498 20.12C11.8534 20.674 12.2228 21.1518 12.7078 21.4882C13.1927 21.8246 13.7696 22.0033 14.3598 22H14.4298C15.0308 21.9891 15.6134 21.7903 16.0958 21.4317C16.5781 21.073 16.9362 20.5724 17.1198 20L21.8498 5.83001C22.0218 5.31895 22.0474 4.76995 21.9237 4.2451C21.8 3.72024 21.5319 3.24046 21.1498 2.86001ZM19.9998 5.20001L15.2198 19.38C15.1643 19.5595 15.0528 19.7165 14.9017 19.828C14.7505 19.9396 14.5677 19.9999 14.3798 20C14.1931 20.0031 14.0098 19.9492 13.8544 19.8456C13.699 19.742 13.5788 19.5936 13.5098 19.42L11.5098 14.17C11.3648 13.7885 11.1412 13.4418 10.8535 13.1524C10.5658 12.863 10.2204 12.6373 9.83981 12.49L4.58981 10.49C4.4127 10.4251 4.26046 10.3062 4.15459 10.1501C4.04872 9.99399 3.99458 9.80856 3.9998 9.62001C3.99996 9.43215 4.06022 9.24928 4.17178 9.09813C4.28334 8.94699 4.44034 8.83551 4.6198 8.78001L18.7998 4.05001C18.9626 3.98366 19.1411 3.96588 19.3138 3.99883C19.4865 4.03179 19.646 4.11406 19.7729 4.2357C19.8998 4.35734 19.9888 4.51314 20.0291 4.68427C20.0693 4.8554 20.0592 5.03453 19.9998 5.20001Z" />
</svg>
