<svg width="24" height="24" viewBox="0 0 24 24" xmlns="http://www.w3.org/2000/svg">
<path d="M13.9996 9.45002H9.99959C9.73437 9.45002 9.48002 9.55537 9.29248 9.74291C9.10495 9.93045 8.99959 10.1848 8.99959 10.45C8.99959 10.7152 9.10495 10.9696 9.29248 11.1571C9.48002 11.3447 9.73437 11.45 9.99959 11.45H13.9996C14.2648 11.45 14.5192 11.3447 14.7067 11.1571C14.8942 10.9696 14.9996 10.7152 14.9996 10.45C14.9996 10.1848 14.8942 9.93045 14.7067 9.74291C14.5192 9.55537 14.2648 9.45002 13.9996 9.45002ZM20.4596 9.63002C20.3299 8.27185 19.8753 6.96484 19.134 5.81944C18.3927 4.67404 17.3866 3.72391 16.2007 3.04934C15.0148 2.37477 13.6839 1.99557 12.3206 1.9438C10.9572 1.89204 9.60142 2.16921 8.36777 2.75191C7.13412 3.33461 6.05886 4.20571 5.23286 5.2916C4.40685 6.37748 3.85438 7.64625 3.62212 8.99068C3.38986 10.3351 3.48464 11.7157 3.89845 13.0158C4.31226 14.3158 5.03294 15.4972 5.99959 16.46L11.2996 21.77C11.3926 21.8637 11.5032 21.9381 11.625 21.9889C11.7469 22.0397 11.8776 22.0658 12.0096 22.0658C12.1416 22.0658 12.2723 22.0397 12.3942 21.9889C12.516 21.9381 12.6266 21.8637 12.7196 21.77L17.9996 16.46C18.8908 15.5755 19.5739 14.5036 19.9994 13.3223C20.4249 12.1409 20.5821 10.8797 20.4596 9.63002ZM16.5996 15.05L11.9996 19.65L7.39959 15.05C6.72168 14.3721 6.20239 13.5523 5.87906 12.6498C5.55572 11.7472 5.43637 10.7842 5.52959 9.83002C5.62341 8.86112 5.93135 7.92518 6.43116 7.08986C6.93097 6.25454 7.61015 5.54072 8.41959 5.00002C9.48053 4.29525 10.7259 3.91931 11.9996 3.91931C13.2733 3.91931 14.5186 4.29525 15.5796 5.00002C16.3866 5.53863 17.0643 6.2493 17.5639 7.08095C18.0636 7.91261 18.3729 8.84462 18.4696 9.81002C18.5658 10.7674 18.448 11.7343 18.1246 12.6406C17.8012 13.5468 17.2803 14.3698 16.5996 15.05Z" />
</svg>
