<svg width="24" height="24" viewBox="0 0 24 24" xmlns="http://www.w3.org/2000/svg">
<path d="M21.1203 9.88002L14.1203 2.88002C13.548 2.33702 12.7892 2.0343 12.0003 2.0343C11.2114 2.0343 10.4526 2.33702 9.88029 2.88002L2.88029 9.88002C2.31849 10.4425 2.00293 11.205 2.00293 12C2.00293 12.795 2.31849 13.5575 2.88029 14.12L9.88029 21.12C10.4428 21.6818 11.2053 21.9974 12.0003 21.9974C12.7953 21.9974 13.5578 21.6818 14.1203 21.12L21.1203 14.12C21.6821 13.5575 21.9977 12.795 21.9977 12C21.9977 11.205 21.6821 10.4425 21.1203 9.88002ZM19.7103 12.71L12.7103 19.71C12.6173 19.8038 12.5067 19.8781 12.3849 19.9289C12.263 19.9797 12.1323 20.0058 12.0003 20.0058C11.8683 20.0058 11.7376 19.9797 11.6157 19.9289C11.4939 19.8781 11.3833 19.8038 11.2903 19.71L4.29029 12.71C4.19656 12.6171 4.12217 12.5065 4.0714 12.3846C4.02063 12.2627 3.99449 12.132 3.99449 12C3.99449 11.868 4.02063 11.7373 4.0714 11.6154C4.12217 11.4936 4.19656 11.383 4.29029 11.29L11.2903 4.29002C11.3833 4.19629 11.4939 4.1219 11.6157 4.07113C11.7376 4.02036 11.8683 3.99423 12.0003 3.99423C12.1323 3.99423 12.263 4.02036 12.3849 4.07113C12.5067 4.1219 12.6173 4.19629 12.7103 4.29002L19.7103 11.29C19.804 11.383 19.8784 11.4936 19.9292 11.6154C19.9799 11.7373 20.0061 11.868 20.0061 12C20.0061 12.132 19.9799 12.2627 19.9292 12.3846C19.8784 12.5065 19.804 12.6171 19.7103 12.71ZM14.2103 9.29002C14.022 9.10172 13.7666 8.99593 13.5003 8.99593C13.234 8.99593 12.9786 9.10172 12.7903 9.29002C12.602 9.47833 12.4962 9.73372 12.4962 10C12.4962 10.2663 12.602 10.5217 12.7903 10.71L13.0903 11H9.50029C9.23507 11 8.98072 11.1054 8.79318 11.2929C8.60565 11.4805 8.50029 11.7348 8.50029 12V14C8.50029 14.2652 8.60565 14.5196 8.79318 14.7071C8.98072 14.8947 9.23507 15 9.50029 15C9.76551 15 10.0199 14.8947 10.2074 14.7071C10.3949 14.5196 10.5003 14.2652 10.5003 14V13H13.0903L12.7903 13.29C12.6966 13.383 12.6222 13.4936 12.5714 13.6154C12.5206 13.7373 12.4945 13.868 12.4945 14C12.4945 14.132 12.5206 14.2627 12.5714 14.3846C12.6222 14.5065 12.6966 14.6171 12.7903 14.71C12.8833 14.8038 12.9939 14.8781 13.1157 14.9289C13.2376 14.9797 13.3683 15.0058 13.5003 15.0058C13.6323 15.0058 13.763 14.9797 13.8849 14.9289C14.0067 14.8781 14.1173 14.8038 14.2103 14.71L16.2103 12.71C16.304 12.6171 16.3784 12.5065 16.4292 12.3846C16.48 12.2627 16.5061 12.132 16.5061 12C16.5061 11.868 16.48 11.7373 16.4292 11.6154C16.3784 11.4936 16.304 11.383 16.2103 11.29L14.2103 9.29002Z" />
</svg>
