<svg width="24" height="24" viewBox="0 0 24 24" xmlns="http://www.w3.org/2000/svg">
<path d="M21.49 4.72999L17 2.16999C16.848 2.08222 16.6755 2.03601 16.5 2.03601C16.3245 2.03601 16.152 2.08222 16 2.16999L12 4.44999L8 2.16999C7.84798 2.08222 7.67554 2.03601 7.5 2.03601C7.32446 2.03601 7.15202 2.08222 7 2.16999L2.51 4.72999C2.35553 4.81681 2.22691 4.94312 2.1373 5.09599C2.04769 5.24886 2.00031 5.42279 2 5.59999V10.72C2.00031 10.8972 2.04769 11.0711 2.1373 11.224C2.22691 11.3768 2.35553 11.5032 2.51 11.59L6.51 13.86V18.4C6.51031 18.5772 6.55769 18.7511 6.6473 18.904C6.73691 19.0568 6.86553 19.1832 7.02 19.27L11.52 21.83C11.672 21.9178 11.8445 21.964 12.02 21.964C12.1955 21.964 12.368 21.9178 12.52 21.83L17 19.27C17.1545 19.1832 17.2831 19.0568 17.3727 18.904C17.4623 18.7511 17.5097 18.5772 17.51 18.4V13.86L21.51 11.59C21.6645 11.5032 21.7931 11.3768 21.8827 11.224C21.9723 11.0711 22.0197 10.8972 22.02 10.72V5.59999C22.0177 5.42078 21.9673 5.24549 21.8741 5.09244C21.7809 4.93938 21.6482 4.8142 21.49 4.72999ZM4 10.14V6.13999L7.5 4.13999L11 6.13999V10.14L7.5 12.14L4 10.14ZM15.5 17.82L12 19.82L8.5 17.82V13.82L12 11.82L15.5 13.82V17.82ZM20 10.14L16.5 12.14L13 10.14V6.13999L16.5 4.13999L20 6.13999V10.14Z" />
</svg>
