<svg width="24" height="24" viewBox="0 0 24 24" xmlns="http://www.w3.org/2000/svg">
<path d="M9.29 11.71C9.38296 11.8037 9.49356 11.8781 9.61542 11.9289C9.73728 11.9797 9.86799 12.0058 10 12.0058C10.132 12.0058 10.2627 11.9797 10.3846 11.9289C10.5064 11.8781 10.617 11.8037 10.71 11.71L12 10.41L13.29 11.71C13.383 11.8037 13.4936 11.8781 13.6154 11.9289C13.7373 11.9797 13.868 12.0058 14 12.0058C14.132 12.0058 14.2627 11.9797 14.3846 11.9289C14.5064 11.8781 14.617 11.8037 14.71 11.71C14.8037 11.617 14.8781 11.5064 14.9289 11.3846C14.9797 11.2627 15.0058 11.132 15.0058 11C15.0058 10.868 14.9797 10.7373 14.9289 10.6154C14.8781 10.4936 14.8037 10.383 14.71 10.29L13.41 9L14.71 7.71C14.8983 7.5217 15.0041 7.2663 15.0041 7C15.0041 6.7337 14.8983 6.4783 14.71 6.29C14.5217 6.1017 14.2663 5.99591 14 5.99591C13.7337 5.99591 13.4783 6.1017 13.29 6.29L12 7.59L10.71 6.29C10.5217 6.1017 10.2663 5.99591 10 5.99591C9.7337 5.99591 9.4783 6.1017 9.29 6.29C9.1017 6.4783 8.99591 6.7337 8.99591 7C8.99591 7.2663 9.1017 7.5217 9.29 7.71L10.59 9L9.29 10.29C9.19627 10.383 9.12188 10.4936 9.07111 10.6154C9.02034 10.7373 8.9942 10.868 8.9942 11C8.9942 11.132 9.02034 11.2627 9.07111 11.3846C9.12188 11.5064 9.19627 11.617 9.29 11.71ZM21 14H20V4H21C21.2652 4 21.5196 3.89464 21.7071 3.70711C21.8946 3.51957 22 3.26522 22 3C22 2.73478 21.8946 2.48043 21.7071 2.29289C21.5196 2.10536 21.2652 2 21 2H3C2.73478 2 2.48043 2.10536 2.29289 2.29289C2.10536 2.48043 2 2.73478 2 3C2 3.26522 2.10536 3.51957 2.29289 3.70711C2.48043 3.89464 2.73478 4 3 4H4V14H3C2.73478 14 2.48043 14.1054 2.29289 14.2929C2.10536 14.4804 2 14.7348 2 15C2 15.2652 2.10536 15.5196 2.29289 15.7071C2.48043 15.8946 2.73478 16 3 16H11V17.15L6.45 20.15C6.26333 20.2655 6.11988 20.4393 6.04177 20.6445C5.96366 20.8496 5.95523 21.0748 6.01779 21.2852C6.08035 21.4957 6.21042 21.6797 6.38793 21.8089C6.56544 21.938 6.78053 22.0052 7 22C7.1966 22.0022 7.38896 21.9428 7.55 21.83L11 19.55V21C11 21.2652 11.1054 21.5196 11.2929 21.7071C11.4804 21.8946 11.7348 22 12 22C12.2652 22 12.5196 21.8946 12.7071 21.7071C12.8946 21.5196 13 21.2652 13 21V19.55L16.45 21.83C16.611 21.9428 16.8034 22.0022 17 22C17.2136 21.9984 17.4212 21.9283 17.5921 21.8002C17.7631 21.672 17.8885 21.4925 17.95 21.2879C18.0115 21.0832 18.0058 20.8643 17.9338 20.6631C17.8619 20.462 17.7273 20.2892 17.55 20.17L13 17.17V16H21C21.2652 16 21.5196 15.8946 21.7071 15.7071C21.8946 15.5196 22 15.2652 22 15C22 14.7348 21.8946 14.4804 21.7071 14.2929C21.5196 14.1054 21.2652 14 21 14ZM18 14H6V4H18V14Z" />
</svg>
