<svg width="24" height="24" viewBox="0 0 24 24" xmlns="http://www.w3.org/2000/svg">
<path d="M10.17 10.55C10.2507 10.6744 10.3581 10.7794 10.4843 10.8572C10.6106 10.9351 10.7526 10.9838 10.9 11C11.0481 11.015 11.1976 10.9967 11.3378 10.9466C11.4779 10.8964 11.6051 10.8156 11.71 10.71L12.84 9.57L14.17 11.57C14.2629 11.7039 14.387 11.813 14.5317 11.888C14.6763 11.9629 14.8371 12.0014 15 12C15.1966 12.0022 15.389 11.9428 15.55 11.83C15.7692 11.6834 15.9216 11.4561 15.9741 11.1976C16.0265 10.9392 15.9747 10.6705 15.83 10.45L13.83 7.45C13.7493 7.32555 13.6419 7.22061 13.5157 7.14278C13.3894 7.06495 13.2474 7.01618 13.1 7C12.9519 6.98501 12.8024 7.00327 12.6622 7.05344C12.5221 7.10361 12.3949 7.18443 12.29 7.29L11.16 8.43L9.83 6.43C9.76423 6.30739 9.67359 6.19985 9.56389 6.11426C9.45419 6.02867 9.32783 5.96692 9.1929 5.93295C9.05797 5.89898 8.91743 5.89355 8.78028 5.91699C8.64313 5.94044 8.51238 5.99225 8.39639 6.0691C8.28041 6.14596 8.18174 6.24618 8.10669 6.36335C8.03165 6.48052 7.98188 6.61206 7.96057 6.74955C7.93926 6.88705 7.94688 7.02749 7.98294 7.16187C8.01901 7.29626 8.08272 7.42164 8.17 7.53L10.17 10.55ZM21 14H20V4H21C21.2652 4 21.5196 3.89464 21.7071 3.70711C21.8946 3.51957 22 3.26522 22 3C22 2.73478 21.8946 2.48043 21.7071 2.29289C21.5196 2.10536 21.2652 2 21 2H3C2.73478 2 2.48043 2.10536 2.29289 2.29289C2.10536 2.48043 2 2.73478 2 3C2 3.26522 2.10536 3.51957 2.29289 3.70711C2.48043 3.89464 2.73478 4 3 4H4V14H3C2.73478 14 2.48043 14.1054 2.29289 14.2929C2.10536 14.4804 2 14.7348 2 15C2 15.2652 2.10536 15.5196 2.29289 15.7071C2.48043 15.8946 2.73478 16 3 16H11V17.15L6.45 20.15C6.26333 20.2655 6.11988 20.4393 6.04177 20.6445C5.96366 20.8496 5.95523 21.0748 6.01779 21.2852C6.08035 21.4957 6.21042 21.6797 6.38793 21.8089C6.56544 21.938 6.78053 22.0052 7 22C7.1966 22.0022 7.38896 21.9428 7.55 21.83L11 19.55V21C11 21.2652 11.1054 21.5196 11.2929 21.7071C11.4804 21.8946 11.7348 22 12 22C12.2652 22 12.5196 21.8946 12.7071 21.7071C12.8946 21.5196 13 21.2652 13 21V19.55L16.45 21.83C16.611 21.9428 16.8034 22.0022 17 22C17.2136 21.9984 17.4212 21.9283 17.5921 21.8002C17.7631 21.672 17.8885 21.4925 17.95 21.2879C18.0115 21.0832 18.0058 20.8643 17.9338 20.6631C17.8619 20.462 17.7273 20.2892 17.55 20.17L13 17.17V16H21C21.2652 16 21.5196 15.8946 21.7071 15.7071C21.8946 15.5196 22 15.2652 22 15C22 14.7348 21.8946 14.4804 21.7071 14.2929C21.5196 14.1054 21.2652 14 21 14ZM18 14H6V4H18V14Z" />
</svg>
