<svg width="24" height="24" viewBox="0 0 24 24" xmlns="http://www.w3.org/2000/svg">
<path d="M7 10H9C9.26522 10 9.51957 9.89464 9.70711 9.70711C9.89464 9.51957 10 9.26522 10 9C10 8.73478 9.89464 8.48043 9.70711 8.29289C9.51957 8.10536 9.26522 8 9 8H7C6.73478 8 6.48043 8.10536 6.29289 8.29289C6.10536 8.48043 6 8.73478 6 9C6 9.26522 6.10536 9.51957 6.29289 9.70711C6.48043 9.89464 6.73478 10 7 10ZM21 4H13V3C13 2.73478 12.8946 2.48043 12.7071 2.29289C12.5196 2.10536 12.2652 2 12 2C11.7348 2 11.4804 2.10536 11.2929 2.29289C11.1054 2.48043 11 2.73478 11 3V4H3C2.73478 4 2.48043 4.10536 2.29289 4.29289C2.10536 4.48043 2 4.73478 2 5V15C2 15.7956 2.31607 16.5587 2.87868 17.1213C3.44129 17.6839 4.20435 18 5 18H9.59L7.29 20.29C7.19627 20.383 7.12188 20.4936 7.07111 20.6154C7.02034 20.7373 6.9942 20.868 6.9942 21C6.9942 21.132 7.02034 21.2627 7.07111 21.3846C7.12188 21.5064 7.19627 21.617 7.29 21.71C7.38296 21.8037 7.49356 21.8781 7.61542 21.9289C7.73728 21.9797 7.86799 22.0058 8 22.0058C8.13201 22.0058 8.26272 21.9797 8.38458 21.9289C8.50644 21.8781 8.61704 21.8037 8.71 21.71L11 19.41V21C11 21.2652 11.1054 21.5196 11.2929 21.7071C11.4804 21.8946 11.7348 22 12 22C12.2652 22 12.5196 21.8946 12.7071 21.7071C12.8946 21.5196 13 21.2652 13 21V19.41L15.29 21.71C15.383 21.8037 15.4936 21.8781 15.6154 21.9289C15.7373 21.9797 15.868 22.0058 16 22.0058C16.132 22.0058 16.2627 21.9797 16.3846 21.9289C16.5064 21.8781 16.617 21.8037 16.71 21.71C16.8037 21.617 16.8781 21.5064 16.9289 21.3846C16.9797 21.2627 17.0058 21.132 17.0058 21C17.0058 20.868 16.9797 20.7373 16.9289 20.6154C16.8781 20.4936 16.8037 20.383 16.71 20.29L14.41 18H19C19.7956 18 20.5587 17.6839 21.1213 17.1213C21.6839 16.5587 22 15.7956 22 15V5C22 4.73478 21.8946 4.48043 21.7071 4.29289C21.5196 4.10536 21.2652 4 21 4ZM20 15C20 15.2652 19.8946 15.5196 19.7071 15.7071C19.5196 15.8946 19.2652 16 19 16H5C4.73478 16 4.48043 15.8946 4.29289 15.7071C4.10536 15.5196 4 15.2652 4 15V6H20V15ZM7 14H13C13.2652 14 13.5196 13.8946 13.7071 13.7071C13.8946 13.5196 14 13.2652 14 13C14 12.7348 13.8946 12.4804 13.7071 12.2929C13.5196 12.1054 13.2652 12 13 12H7C6.73478 12 6.48043 12.1054 6.29289 12.2929C6.10536 12.4804 6 12.7348 6 13C6 13.2652 6.10536 13.5196 6.29289 13.7071C6.48043 13.8946 6.73478 14 7 14Z" />
</svg>
