<svg width="24" height="24" viewBox="0 0 24 24" xmlns="http://www.w3.org/2000/svg">
<path d="M21 2H15C14.7348 2 14.4804 2.10536 14.2929 2.29289C14.1054 2.48043 14 2.73478 14 3C14 3.26522 14.1054 3.51957 14.2929 3.70711C14.4804 3.89464 14.7348 4 15 4H20V9C20 9.26522 20.1054 9.51957 20.2929 9.70711C20.4804 9.89464 20.7348 10 21 10C21.2652 10 21.5196 9.89464 21.7071 9.70711C21.8946 9.51957 22 9.26522 22 9V3C22 2.73478 21.8946 2.48043 21.7071 2.29289C21.5196 2.10536 21.2652 2 21 2ZM21 14C20.7348 14 20.4804 14.1054 20.2929 14.2929C20.1054 14.4804 20 14.7348 20 15V20H15C14.7348 20 14.4804 20.1054 14.2929 20.2929C14.1054 20.4804 14 20.7348 14 21C14 21.2652 14.1054 21.5196 14.2929 21.7071C14.4804 21.8946 14.7348 22 15 22H21C21.2652 22 21.5196 21.8946 21.7071 21.7071C21.8946 21.5196 22 21.2652 22 21V15C22 14.7348 21.8946 14.4804 21.7071 14.2929C21.5196 14.1054 21.2652 14 21 14ZM12 6C11.2044 6 10.4413 6.31607 9.87868 6.87868C9.31607 7.44129 9 8.20435 9 9V10C8.46957 10 7.96086 10.2107 7.58579 10.5858C7.21071 10.9609 7 11.4696 7 12V16C7 16.5304 7.21071 17.0391 7.58579 17.4142C7.96086 17.7893 8.46957 18 9 18H15C15.5304 18 16.0391 17.7893 16.4142 17.4142C16.7893 17.0391 17 16.5304 17 16V12C17 11.4696 16.7893 10.9609 16.4142 10.5858C16.0391 10.2107 15.5304 10 15 10V9C15 8.20435 14.6839 7.44129 14.1213 6.87868C13.5587 6.31607 12.7956 6 12 6ZM11 9C11 8.73478 11.1054 8.48043 11.2929 8.29289C11.4804 8.10536 11.7348 8 12 8C12.2652 8 12.5196 8.10536 12.7071 8.29289C12.8946 8.48043 13 8.73478 13 9V10H11V9ZM15 16H9V12H15V16ZM3 10C3.26522 10 3.51957 9.89464 3.70711 9.70711C3.89464 9.51957 4 9.26522 4 9V4H9C9.26522 4 9.51957 3.89464 9.70711 3.70711C9.89464 3.51957 10 3.26522 10 3C10 2.73478 9.89464 2.48043 9.70711 2.29289C9.51957 2.10536 9.26522 2 9 2H3C2.73478 2 2.48043 2.10536 2.29289 2.29289C2.10536 2.48043 2 2.73478 2 3V9C2 9.26522 2.10536 9.51957 2.29289 9.70711C2.48043 9.89464 2.73478 10 3 10ZM9 20H4V15C4 14.7348 3.89464 14.4804 3.70711 14.2929C3.51957 14.1054 3.26522 14 3 14C2.73478 14 2.48043 14.1054 2.29289 14.2929C2.10536 14.4804 2 14.7348 2 15V21C2 21.2652 2.10536 21.5196 2.29289 21.7071C2.48043 21.8946 2.73478 22 3 22H9C9.26522 22 9.51957 21.8946 9.70711 21.7071C9.89464 21.5196 10 21.2652 10 21C10 20.7348 9.89464 20.4804 9.70711 20.2929C9.51957 20.1054 9.26522 20 9 20Z" />
</svg>
