<svg width="24" height="24" viewBox="0 0 24 24" xmlns="http://www.w3.org/2000/svg">
<path d="M11.29 14.66C11.1053 14.8462 11.0011 15.0976 11 15.36C11.0003 15.494 11.0275 15.6266 11.08 15.75C11.1703 15.9619 11.3309 16.1361 11.5348 16.2433C11.7387 16.3504 11.9733 16.3839 12.1991 16.338C12.4248 16.2922 12.6278 16.1698 12.7737 15.9916C12.9196 15.8134 12.9996 15.5903 13 15.36C12.9989 15.0976 12.8947 14.8462 12.71 14.66C12.617 14.5662 12.5064 14.4918 12.3846 14.4411C12.2627 14.3903 12.132 14.3642 12 14.3642C11.868 14.3642 11.7373 14.3903 11.6154 14.4411C11.4936 14.4918 11.383 14.5662 11.29 14.66ZM19.63 3.65995C19.5138 3.56597 19.3781 3.49923 19.2327 3.46461C19.0873 3.43 18.9361 3.42841 18.79 3.45995C17.7214 3.6839 16.6183 3.68675 15.5486 3.46834C14.4789 3.24992 13.4653 2.81487 12.57 2.18995C12.4026 2.07382 12.2037 2.0116 12 2.0116C11.7963 2.0116 11.5974 2.07382 11.43 2.18995C10.534 2.81315 9.51998 3.24643 8.45029 3.46312C7.38061 3.6798 6.2779 3.67532 5.21001 3.44995C5.06394 3.41841 4.91267 3.42 4.76731 3.45461C4.62194 3.48923 4.48618 3.55597 4.37001 3.64995C4.25399 3.74407 4.16053 3.86299 4.0965 3.99797C4.03247 4.13295 3.9995 4.28056 4.00001 4.42995V11.88C3.99912 13.3137 4.34078 14.7269 4.99654 16.0019C5.6523 17.2769 6.60319 18.3768 7.77001 19.21L11.42 21.81C11.5894 21.9305 11.7921 21.9953 12 21.9953C12.2079 21.9953 12.4106 21.9305 12.58 21.81L16.23 19.21C17.3968 18.3768 18.3477 17.2769 19.0035 16.0019C19.6592 14.7269 20.0009 13.3137 20 11.88V4.42995C20.0005 4.28056 19.9675 4.13295 19.9035 3.99797C19.8395 3.86299 19.746 3.74407 19.63 3.64995V3.65995ZM18 11.88C18.0008 12.9947 17.7353 14.0935 17.2257 15.085C16.716 16.0764 15.977 16.9318 15.07 17.58L12 19.77L8.93001 17.58C8.02304 16.9318 7.28399 16.0764 6.77435 15.085C6.26472 14.0935 5.99924 12.9947 6.00001 11.88V5.57995C8.09643 5.75939 10.196 5.27297 12 4.18995C13.804 5.27297 15.9036 5.75939 18 5.57995V11.88ZM12 7.35995C11.4731 7.35961 10.9553 7.49807 10.4989 7.76139C10.0425 8.02472 9.66347 8.40361 9.40001 8.85995C9.28045 9.08849 9.25383 9.35439 9.32569 9.6021C9.39755 9.84981 9.56234 10.0602 9.78565 10.1892C10.0089 10.3183 10.2735 10.3561 10.524 10.2948C10.7745 10.2334 10.9916 10.0776 11.13 9.85995C11.2177 9.70808 11.3438 9.58194 11.4956 9.49418C11.6474 9.40642 11.8197 9.36013 11.995 9.35996C12.1704 9.35979 12.3427 9.40573 12.4947 9.49319C12.6467 9.58065 12.7731 9.70654 12.8611 9.85824C12.949 10.0099 12.9956 10.1821 12.996 10.3575C12.9965 10.5328 12.9508 10.7052 12.8635 10.8574C12.7763 11.0095 12.6506 11.136 12.499 11.2242C12.3475 11.3125 12.1754 11.3593 12 11.36C11.7348 11.36 11.4804 11.4653 11.2929 11.6528C11.1054 11.8404 11 12.0947 11 12.36C11 12.6252 11.1054 12.8795 11.2929 13.0671C11.4804 13.2546 11.7348 13.36 12 13.36C12.7957 13.36 13.5587 13.0439 14.1213 12.4813C14.6839 11.9187 15 11.1556 15 10.36C15 9.5643 14.6839 8.80124 14.1213 8.23863C13.5587 7.67602 12.7957 7.35995 12 7.35995Z" />
</svg>
