<svg width="24" height="24" viewBox="0 0 24 24" xmlns="http://www.w3.org/2000/svg">
<path d="M3.61979 17.28C3.71792 17.5267 3.91001 17.7242 4.15381 17.8292C4.3976 17.9343 4.67314 17.9381 4.91979 17.84C5.16644 17.7419 5.36401 17.5498 5.46903 17.306C5.57405 17.0622 5.57792 16.7867 5.47979 16.54L4.35979 13.72L10.9998 12.25V17C10.9998 17.2652 11.1051 17.5196 11.2927 17.7071C11.4802 17.8946 11.7346 18 11.9998 18C12.265 18 12.5194 17.8946 12.7069 17.7071C12.8944 17.5196 12.9998 17.2652 12.9998 17V12.25L19.6398 13.72L18.5198 16.54C18.4711 16.6621 18.4469 16.7926 18.4487 16.9241C18.4505 17.0556 18.4782 17.1854 18.5302 17.3061C18.5822 17.4269 18.6575 17.5362 18.7518 17.6278C18.8461 17.7194 18.9576 17.7915 19.0798 17.84C19.1976 17.8866 19.3231 17.9103 19.4498 17.91C19.6501 17.9102 19.8458 17.8502 20.0116 17.7379C20.1774 17.6256 20.3057 17.4661 20.3798 17.28L21.9298 13.37C21.983 13.2348 22.0061 13.0896 21.9974 12.9445C21.9888 12.7994 21.9487 12.658 21.8798 12.53C21.813 12.4025 21.7194 12.2909 21.6055 12.2029C21.4916 12.1149 21.36 12.0525 21.2198 12.02L17.9998 11.31V7C17.9998 6.73478 17.8944 6.48043 17.7069 6.29289C17.5194 6.10536 17.265 6 16.9998 6H14.9998V3C14.9998 2.73478 14.8944 2.48043 14.7069 2.29289C14.5194 2.10536 14.265 2 13.9998 2H9.99979C9.73457 2 9.48022 2.10536 9.29268 2.29289C9.10514 2.48043 8.99979 2.73478 8.99979 3V6H6.99979C6.73457 6 6.48022 6.10536 6.29268 6.29289C6.10514 6.48043 5.99979 6.73478 5.99979 7V11.31L2.77979 12C2.63955 12.0325 2.50798 12.0949 2.39408 12.1829C2.28017 12.2709 2.18661 12.3825 2.11979 12.51C2.05092 12.638 2.01077 12.7794 2.00213 12.9245C1.9935 13.0696 2.01658 13.2148 2.06979 13.35L3.61979 17.28ZM10.9998 4H12.9998V6H10.9998V4ZM7.99979 8H15.9998V10.86L12.2198 10H12.1198H11.9998H11.8798H11.7798L7.99979 10.86V8ZM20.7098 19.28C20.3589 19.3875 20.023 19.5387 19.7098 19.73C19.3912 19.9163 19.0288 20.0145 18.6598 20.0145C18.2907 20.0145 17.9284 19.9163 17.6098 19.73C16.9171 19.3392 16.1352 19.1339 15.3398 19.1339C14.5444 19.1339 13.7625 19.3392 13.0698 19.73C12.7469 19.9141 12.3815 20.011 12.0098 20.011C11.638 20.011 11.2727 19.9141 10.9498 19.73C10.2564 19.3411 9.47478 19.1368 8.67979 19.1368C7.8848 19.1368 7.10314 19.3411 6.40979 19.73C6.09122 19.9163 5.72883 20.0145 5.35979 20.0145C4.99075 20.0145 4.62835 19.9163 4.30979 19.73C3.99662 19.5387 3.66066 19.3875 3.30979 19.28C3.17673 19.2327 3.03516 19.2141 2.8944 19.2255C2.75364 19.2368 2.61688 19.2778 2.49312 19.3459C2.36937 19.4139 2.26142 19.5073 2.17639 19.6201C2.09135 19.7328 2.03117 19.8623 1.99979 20C1.92513 20.2533 1.95368 20.5258 2.0792 20.7581C2.20472 20.9904 2.41702 21.1636 2.66979 21.24C2.87115 21.2946 3.06326 21.3788 3.23979 21.49C3.84649 21.846 4.53636 22.0357 5.23979 22.04C5.97039 22.0401 6.68801 21.8469 7.31979 21.48C7.71176 21.2638 8.15213 21.1504 8.59979 21.1504C9.04745 21.1504 9.48781 21.2638 9.87979 21.48C10.5071 21.8387 11.2172 22.0274 11.9398 22.0274C12.6624 22.0274 13.3725 21.8387 13.9998 21.48C14.3918 21.2638 14.8321 21.1504 15.2798 21.1504C15.7274 21.1504 16.1678 21.2638 16.5598 21.48C17.1796 21.8499 17.888 22.0453 18.6098 22.0453C19.3316 22.0453 20.04 21.8499 20.6598 21.48C20.8363 21.3688 21.0284 21.2846 21.2298 21.23C21.3629 21.2031 21.4891 21.1493 21.6007 21.0721C21.7123 20.9948 21.8071 20.8956 21.8791 20.7805C21.9512 20.6654 21.999 20.5368 22.0198 20.4027C22.0405 20.2685 22.0337 20.1315 21.9998 20C21.968 19.8647 21.9084 19.7374 21.8247 19.6265C21.7409 19.5155 21.635 19.4232 21.5136 19.3554C21.3922 19.2877 21.2581 19.246 21.1197 19.233C20.9813 19.22 20.8417 19.236 20.7098 19.28Z" />
</svg>
