<svg width="24" height="24" viewBox="0 0 24 24" xmlns="http://www.w3.org/2000/svg">
<path d="M7.5 3.99994C7.63161 4.0007 7.76207 3.97548 7.88391 3.92571C8.00574 3.87595 8.11656 3.80262 8.21 3.70994L9.21 2.70994C9.3983 2.52164 9.50409 2.26624 9.50409 1.99994C9.50409 1.73364 9.3983 1.47824 9.21 1.28994C9.0217 1.10164 8.7663 0.99585 8.5 0.99585C8.2337 0.99585 7.9783 1.10164 7.79 1.28994L6.79 2.28994C6.69627 2.3829 6.62188 2.49351 6.57111 2.61536C6.52034 2.73722 6.4942 2.86793 6.4942 2.99994C6.4942 3.13195 6.52034 3.26266 6.57111 3.38452C6.62188 3.50638 6.69627 3.61698 6.79 3.70994C6.88344 3.80262 6.99426 3.87595 7.11609 3.92571C7.23793 3.97548 7.36839 4.0007 7.5 3.99994ZM11.5 3.99994C11.6316 4.0007 11.7621 3.97548 11.8839 3.92571C12.0057 3.87595 12.1166 3.80262 12.21 3.70994L13.21 2.70994C13.3983 2.52164 13.5041 2.26624 13.5041 1.99994C13.5041 1.73364 13.3983 1.47824 13.21 1.28994C13.0217 1.10164 12.7663 0.99585 12.5 0.99585C12.2337 0.99585 11.9783 1.10164 11.79 1.28994L10.79 2.28994C10.6963 2.3829 10.6219 2.49351 10.5711 2.61536C10.5203 2.73722 10.4942 2.86793 10.4942 2.99994C10.4942 3.13195 10.5203 3.26266 10.5711 3.38452C10.6219 3.50638 10.6963 3.61698 10.79 3.70994C10.8834 3.80262 10.9943 3.87595 11.1161 3.92571C11.2379 3.97548 11.3684 4.0007 11.5 3.99994ZM15.5 3.99994C15.6316 4.0007 15.7621 3.97548 15.8839 3.92571C16.0057 3.87595 16.1166 3.80262 16.21 3.70994L17.21 2.70994C17.3032 2.6167 17.3772 2.50601 17.4277 2.38419C17.4781 2.26237 17.5041 2.1318 17.5041 1.99994C17.5041 1.86808 17.4781 1.73751 17.4277 1.61569C17.3772 1.49387 17.3032 1.38318 17.21 1.28994C17.1168 1.1967 17.0061 1.12274 16.8842 1.07228C16.7624 1.02182 16.6319 0.99585 16.5 0.99585C16.3681 0.99585 16.2376 1.02182 16.1158 1.07228C15.9939 1.12274 15.8832 1.1967 15.79 1.28994L14.79 2.28994C14.6963 2.3829 14.6219 2.49351 14.5711 2.61536C14.5203 2.73722 14.4942 2.86793 14.4942 2.99994C14.4942 3.13195 14.5203 3.26266 14.5711 3.38452C14.6219 3.50638 14.6963 3.61698 14.79 3.70994C14.8834 3.80262 14.9943 3.87595 15.1161 3.92571C15.2379 3.97548 15.3684 4.0007 15.5 3.99994ZM17.92 15.6199C17.8981 15.5562 17.8678 15.4957 17.83 15.4399L17.71 15.2899L17.56 15.1699C17.5043 15.1321 17.4437 15.1018 17.38 15.0799C17.3205 15.0495 17.2562 15.0292 17.19 15.0199C17.0293 14.9878 16.8632 14.9956 16.7063 15.0427C16.5494 15.0897 16.4064 15.1747 16.29 15.2899C16.247 15.3375 16.2069 15.3876 16.17 15.4399C16.1322 15.4957 16.1019 15.5562 16.08 15.6199C16.0512 15.6766 16.0309 15.7373 16.02 15.7999C16.0151 15.8665 16.0151 15.9334 16.02 15.9999C16.0211 16.2623 16.1253 16.5137 16.31 16.6999C16.4025 16.7966 16.5152 16.8718 16.64 16.9199C16.754 16.9687 16.8761 16.9958 17 16.9999C17.2652 16.9999 17.5196 16.8946 17.7071 16.707C17.8946 16.5195 18 16.2652 18 15.9999C18.0049 15.9334 18.0049 15.8665 18 15.7999C17.9828 15.7362 17.9558 15.6755 17.92 15.6199ZM19.76 11.1099L18.4 7.04994C18.1926 6.46317 17.8077 5.95544 17.2989 5.5971C16.7901 5.23876 16.1824 5.04754 15.56 5.04994H8.44C7.81764 5.04754 7.20995 5.23876 6.7011 5.5971C6.19225 5.95544 5.80745 6.46317 5.6 7.04994L4.24 11.1099C3.60033 11.2774 3.03392 11.6516 2.62883 12.1742C2.22374 12.6969 2.00268 13.3387 2 13.9999V17.9999C2.00174 18.6189 2.19488 19.2221 2.55294 19.727C2.911 20.2319 3.41645 20.6136 4 20.8199V21.9999C4 22.2652 4.10536 22.5195 4.29289 22.707C4.48043 22.8946 4.73478 22.9999 5 22.9999C5.26522 22.9999 5.51957 22.8946 5.70711 22.707C5.89464 22.5195 6 22.2652 6 21.9999V20.9999H18V21.9999C18 22.2652 18.1054 22.5195 18.2929 22.707C18.4804 22.8946 18.7348 22.9999 19 22.9999C19.2652 22.9999 19.5196 22.8946 19.7071 22.707C19.8946 22.5195 20 22.2652 20 21.9999V20.8199C20.5835 20.6136 21.089 20.2319 21.4471 19.727C21.8051 19.2221 21.9983 18.6189 22 17.9999V13.9999C21.9973 13.3387 21.7763 12.6969 21.3712 12.1742C20.9661 11.6516 20.3997 11.2774 19.76 11.1099ZM7.49 7.67994C7.55709 7.48132 7.6849 7.30881 7.85537 7.18678C8.02584 7.06476 8.23036 6.9994 8.44 6.99994H15.56C15.7781 6.98856 15.9939 7.04887 16.1744 7.17166C16.355 7.29444 16.4904 7.47296 16.56 7.67994L17.61 10.9999H6.39L7.49 7.67994ZM20 17.9999C20 18.2652 19.8946 18.5195 19.7071 18.707C19.5196 18.8946 19.2652 18.9999 19 18.9999H5C4.73478 18.9999 4.48043 18.8946 4.29289 18.707C4.10536 18.5195 4 18.2652 4 17.9999V13.9999C4 13.7347 4.10536 13.4804 4.29289 13.2928C4.48043 13.1053 4.73478 12.9999 5 12.9999H19C19.2652 12.9999 19.5196 13.1053 19.7071 13.2928C19.8946 13.4804 20 13.7347 20 13.9999V17.9999ZM13 14.9999H11C10.7348 14.9999 10.4804 15.1053 10.2929 15.2928C10.1054 15.4804 10 15.7347 10 15.9999C10 16.2652 10.1054 16.5195 10.2929 16.707C10.4804 16.8946 10.7348 16.9999 11 16.9999H13C13.2652 16.9999 13.5196 16.8946 13.7071 16.707C13.8946 16.5195 14 16.2652 14 15.9999C14 15.7347 13.8946 15.4804 13.7071 15.2928C13.5196 15.1053 13.2652 14.9999 13 14.9999ZM7.92 15.6199C7.89811 15.5562 7.86785 15.4957 7.83 15.4399L7.71 15.2899C7.56938 15.1512 7.3908 15.0572 7.19681 15.0198C7.00282 14.9824 6.80211 15.0034 6.62 15.0799C6.49725 15.1275 6.3851 15.1989 6.29 15.2899C6.24699 15.3375 6.20692 15.3876 6.17 15.4399C6.13215 15.4957 6.10189 15.5562 6.08 15.6199C6.0442 15.6755 6.01722 15.7362 6 15.7999C5.99509 15.8665 5.99509 15.9334 6 15.9999C6.00083 16.1977 6.06028 16.3908 6.17085 16.5548C6.28141 16.7188 6.43812 16.8463 6.62115 16.9212C6.80418 16.9961 7.00532 17.0151 7.19913 16.9757C7.39295 16.9363 7.57073 16.8404 7.71 16.6999C7.89474 16.5137 7.9989 16.2623 8 15.9999C8.00491 15.9334 8.00491 15.8665 8 15.7999C7.98278 15.7362 7.9558 15.6755 7.92 15.6199Z" />
</svg>
