<svg width="24" height="24" viewBox="0 0 24 24" xmlns="http://www.w3.org/2000/svg">
<path d="M2 13.5V15.5C2 15.7652 2.10536 16.0196 2.29289 16.2071C2.48043 16.3946 2.73478 16.5 3 16.5H13C13 17.2956 13.3161 18.0587 13.8787 18.6213C14.4413 19.1839 15.2044 19.5 16 19.5C16.7956 19.5 17.5587 19.1839 18.1213 18.6213C18.6839 18.0587 19 17.2956 19 16.5H21C21.2652 16.5 21.5196 16.3946 21.7071 16.2071C21.8946 16.0196 22 15.7652 22 15.5V7.5C22 6.70435 21.6839 5.94129 21.1213 5.37868C20.5587 4.81607 19.7956 4.5 19 4.5H9C8.20435 4.5 7.44129 4.81607 6.87868 5.37868C6.31607 5.94129 6 6.70435 6 7.5V14.5H4V13.5C4 13.2348 3.89464 12.9804 3.70711 12.7929C3.51957 12.6054 3.26522 12.5 3 12.5C2.73478 12.5 2.48043 12.6054 2.29289 12.7929C2.10536 12.9804 2 13.2348 2 13.5ZM15 16.5C15 16.3022 15.0586 16.1089 15.1685 15.9444C15.2784 15.78 15.4346 15.6518 15.6173 15.5761C15.8 15.5004 16.0011 15.4806 16.1951 15.5192C16.3891 15.5578 16.5673 15.653 16.7071 15.7929C16.847 15.9327 16.9422 16.1109 16.9808 16.3049C17.0194 16.4989 16.9996 16.7 16.9239 16.8827C16.8482 17.0654 16.72 17.2216 16.5556 17.3315C16.3911 17.4414 16.1978 17.5 16 17.5C15.7348 17.5 15.4804 17.3946 15.2929 17.2071C15.1054 17.0196 15 16.7652 15 16.5ZM8 10.5H20V14.5H18.22C17.9388 14.1906 17.5961 13.9435 17.2138 13.7743C16.8315 13.6052 16.418 13.5178 16 13.5178C15.582 13.5178 15.1685 13.6052 14.7862 13.7743C14.4039 13.9435 14.0612 14.1906 13.78 14.5H8V10.5ZM8 7.5C8 7.23478 8.10536 6.98043 8.29289 6.79289C8.48043 6.60536 8.73478 6.5 9 6.5H19C19.2652 6.5 19.5196 6.60536 19.7071 6.79289C19.8946 6.98043 20 7.23478 20 7.5V8.5H8V7.5Z" />
</svg>
