<svg width="24" height="24" viewBox="0 0 24 24" xmlns="http://www.w3.org/2000/svg">
<path d="M14.9999 17H15.9999C16.2652 17 16.5195 16.8946 16.707 16.7071C16.8946 16.5196 16.9999 16.2652 16.9999 16C16.9999 15.7348 16.8946 15.4804 16.707 15.2929C16.5195 15.1054 16.2652 15 15.9999 15H14.9999C14.7347 15 14.4804 15.1054 14.2928 15.2929C14.1053 15.4804 13.9999 15.7348 13.9999 16C13.9999 16.2652 14.1053 16.5196 14.2928 16.7071C14.4804 16.8946 14.7347 17 14.9999 17ZM20.9999 17V9C20.9999 8.20435 20.6839 7.44129 20.1213 6.87868C19.5587 6.31607 18.7956 6 17.9999 6H12.9999V4H16.9999C17.2652 4 17.5195 3.89464 17.707 3.70711C17.8946 3.51957 17.9999 3.26522 17.9999 3C17.9999 2.73478 17.8946 2.48043 17.707 2.29289C17.5195 2.10536 17.2652 2 16.9999 2H6.99994C6.73472 2 6.48037 2.10536 6.29283 2.29289C6.1053 2.48043 5.99994 2.73478 5.99994 3C5.99994 3.26522 6.1053 3.51957 6.29283 3.70711C6.48037 3.89464 6.73472 4 6.99994 4H10.9999V6H5.99994C5.20429 6 4.44123 6.31607 3.87862 6.87868C3.31601 7.44129 2.99994 8.20435 2.99994 9V17C3.00149 17.464 3.11067 17.9214 3.31889 18.3361C3.52711 18.7508 3.8287 19.1116 4.19994 19.39L3.28994 20.29C3.19621 20.383 3.12182 20.4936 3.07105 20.6154C3.02028 20.7373 2.99414 20.868 2.99414 21C2.99414 21.132 3.02028 21.2627 3.07105 21.3846C3.12182 21.5064 3.19621 21.617 3.28994 21.71C3.3829 21.8037 3.4935 21.8781 3.61536 21.9289C3.73722 21.9797 3.86793 22.0058 3.99994 22.0058C4.13195 22.0058 4.26266 21.9797 4.38452 21.9289C4.50638 21.8781 4.61698 21.8037 4.70994 21.71L6.40994 20H17.5899L19.2899 21.71C19.3829 21.8037 19.4935 21.8781 19.6154 21.9289C19.7372 21.9797 19.8679 22.0058 19.9999 22.0058C20.132 22.0058 20.2627 21.9797 20.3845 21.9289C20.5064 21.8781 20.617 21.8037 20.7099 21.71C20.8037 21.617 20.8781 21.5064 20.9288 21.3846C20.9796 21.2627 21.0057 21.132 21.0057 21C21.0057 20.868 20.9796 20.7373 20.9288 20.6154C20.8781 20.4936 20.8037 20.383 20.7099 20.29L19.7999 19.39C20.1712 19.1116 20.4728 18.7508 20.681 18.3361C20.8892 17.9214 20.9984 17.464 20.9999 17ZM4.99994 9C4.99994 8.73478 5.1053 8.48043 5.29283 8.29289C5.48037 8.10536 5.73472 8 5.99994 8H10.9999V12H4.99994V9ZM18.9999 17C18.9999 17.2652 18.8946 17.5196 18.707 17.7071C18.5195 17.8946 18.2652 18 17.9999 18H5.99994C5.73472 18 5.48037 17.8946 5.29283 17.7071C5.1053 17.5196 4.99994 17.2652 4.99994 17V14H18.9999V17ZM18.9999 12H12.9999V8H17.9999C18.2652 8 18.5195 8.10536 18.707 8.29289C18.8946 8.48043 18.9999 8.73478 18.9999 9V12ZM7.99994 17H8.99994C9.26516 17 9.51951 16.8946 9.70705 16.7071C9.89458 16.5196 9.99994 16.2652 9.99994 16C9.99994 15.7348 9.89458 15.4804 9.70705 15.2929C9.51951 15.1054 9.26516 15 8.99994 15H7.99994C7.73472 15 7.48037 15.1054 7.29283 15.2929C7.1053 15.4804 6.99994 15.7348 6.99994 16C6.99994 16.2652 7.1053 16.5196 7.29283 16.7071C7.48037 16.8946 7.73472 17 7.99994 17Z" />
</svg>
