<svg width="24" height="24" viewBox="0 0 24 24" xmlns="http://www.w3.org/2000/svg">
<path d="M12 6C11.7348 6 11.4804 6.10536 11.2929 6.29289C11.1054 6.48043 11 6.73478 11 7V9C11 9.26522 11.1054 9.51957 11.2929 9.70711C11.4804 9.89464 11.7348 10 12 10C12.2652 10 12.5196 9.89464 12.7071 9.70711C12.8946 9.51957 13 9.26522 13 9V7C13 6.73478 12.8946 6.48043 12.7071 6.29289C12.5196 6.10536 12.2652 6 12 6ZM12 2C10.1435 2 8.36301 2.7375 7.05025 4.05025C5.7375 5.36301 5 7.14348 5 9V15C5 16.8565 5.7375 18.637 7.05025 19.9497C8.36301 21.2625 10.1435 22 12 22C13.8565 22 15.637 21.2625 16.9497 19.9497C18.2625 18.637 19 16.8565 19 15V9C19 7.14348 18.2625 5.36301 16.9497 4.05025C15.637 2.7375 13.8565 2 12 2ZM17 15C17 16.3261 16.4732 17.5979 15.5355 18.5355C14.5979 19.4732 13.3261 20 12 20C10.6739 20 9.40215 19.4732 8.46447 18.5355C7.52678 17.5979 7 16.3261 7 15V9C7 7.67392 7.52678 6.40215 8.46447 5.46447C9.40215 4.52678 10.6739 4 12 4C13.3261 4 14.5979 4.52678 15.5355 5.46447C16.4732 6.40215 17 7.67392 17 9V15Z" />
</svg>
