<svg width="24" height="24" viewBox="0 0 24 24" xmlns="http://www.w3.org/2000/svg">
<path d="M21.5901 9.16997L12.5901 2.62997C12.4188 2.50483 12.2122 2.43738 12.0001 2.43738C11.788 2.43738 11.5814 2.50483 11.4101 2.62997L2.41009 9.16997C2.23942 9.29466 2.11265 9.47021 2.04797 9.67144C1.98329 9.87266 1.98404 10.0892 2.05009 10.29L5.49009 20.87C5.5579 21.0788 5.69256 21.2595 5.87329 21.3843C6.05402 21.509 6.27078 21.5707 6.49009 21.56H17.5601C17.7794 21.5707 17.9962 21.509 18.1769 21.3843C18.3576 21.2595 18.4923 21.0788 18.5601 20.87L22.0001 10.29C22.0611 10.084 22.0542 9.86388 21.9803 9.66216C21.9065 9.46044 21.7697 9.28786 21.5901 9.16997ZM16.8401 19.56H7.16009L4.16009 10.36L12.0001 4.67997L19.8201 10.36L16.8401 19.56Z" />
</svg>
