<svg width="24" height="24" viewBox="0 0 24 24" xmlns="http://www.w3.org/2000/svg">
<path d="M11 3C9.14349 3 7.36301 3.7375 6.05025 5.05025C4.7375 6.36301 4 8.14348 4 10C4 10.2652 4.10536 10.5196 4.29289 10.7071C4.48043 10.8946 4.73478 11 5 11C5.26522 11 5.51957 10.8946 5.70711 10.7071C5.89464 10.5196 6 10.2652 6 10C6 8.67392 6.52678 7.40215 7.46447 6.46447C8.40215 5.52678 9.67392 5 11 5C12.3261 5 13.5979 5.52678 14.5355 6.46447C15.4732 7.40215 16 8.67392 16 10C15.9969 10.9047 15.7517 11.792 15.29 12.57L11.73 20C11.5546 20.3037 11.3025 20.556 10.9988 20.7315C10.6952 20.9071 10.3507 20.9996 10 21C9.46957 21 8.96086 20.7893 8.58579 20.4142C8.21071 20.0391 8 19.5304 8 19C8 18.7348 7.89464 18.4804 7.70711 18.2929C7.51957 18.1054 7.26522 18 7 18C6.73478 18 6.48043 18.1054 6.29289 18.2929C6.10536 18.4804 6 18.7348 6 19C6 20.0609 6.42143 21.0783 7.17157 21.8284C7.92172 22.5786 8.93913 23 10 23C10.7152 22.9994 11.4171 22.807 12.0327 22.4429C12.6482 22.0789 13.1549 21.5564 13.5 20.93L17.06 13.5C17.6782 12.4374 18.0027 11.2294 18 10C18 8.14348 17.2625 6.36301 15.9497 5.05025C14.637 3.7375 12.8565 3 11 3ZM4 15C3.80222 15 3.60888 15.0586 3.44443 15.1685C3.27998 15.2784 3.15181 15.4346 3.07612 15.6173C3.00043 15.8 2.98063 16.0011 3.01922 16.1951C3.0578 16.3891 3.15304 16.5673 3.29289 16.7071C3.43275 16.847 3.61093 16.9422 3.80491 16.9808C3.99889 17.0194 4.19996 16.9996 4.38268 16.9239C4.56541 16.8482 4.72159 16.72 4.83147 16.5556C4.94135 16.3911 5 16.1978 5 16C5 15.7348 4.89464 15.4804 4.70711 15.2929C4.51957 15.1054 4.26522 15 4 15ZM17.59 1.2C17.4849 1.12121 17.3654 1.06388 17.2382 1.03129C17.111 0.998695 16.9786 0.991479 16.8486 1.01005C16.7186 1.02862 16.5935 1.07262 16.4805 1.13953C16.3675 1.20643 16.2688 1.29494 16.19 1.4C16.1112 1.50506 16.0539 1.62461 16.0213 1.75182C15.9887 1.87903 15.9815 2.01142 16.0001 2.14142C16.0186 2.27142 16.0626 2.39649 16.1295 2.50949C16.1964 2.62249 16.2849 2.72121 16.39 2.8C17.5096 3.63728 18.4188 4.72387 19.0454 5.97363C19.672 7.22339 19.9988 8.60195 20 10C20 10.2652 20.1054 10.5196 20.2929 10.7071C20.4804 10.8946 20.7348 11 21 11C21.2652 11 21.5196 10.8946 21.7071 10.7071C21.8946 10.5196 22 10.2652 22 10C21.9942 8.29228 21.593 6.6091 20.8279 5.08236C20.0628 3.55562 18.9546 2.22679 17.59 1.2ZM11 9C11.2652 9 11.5196 9.10536 11.7071 9.29289C11.8946 9.48043 12 9.73478 12 10C12 10.2652 12.1054 10.5196 12.2929 10.7071C12.4804 10.8946 12.7348 11 13 11C13.2652 11 13.5196 10.8946 13.7071 10.7071C13.8946 10.5196 14 10.2652 14 10C14 9.20435 13.6839 8.44129 13.1213 7.87868C12.5587 7.31607 11.7957 7 11 7C10.2044 7 9.44129 7.31607 8.87868 7.87868C8.31607 8.44129 8 9.20435 8 10C7.99866 10.5983 8.17627 11.1834 8.51 11.68C8.6478 11.8756 8.80529 12.0565 8.98 12.22L9.18 12.44C9.28964 12.6043 9.34815 12.7975 9.34815 12.995C9.34815 13.1925 9.28964 13.3857 9.18 13.55C9.02918 13.7676 8.97081 14.0361 9.01767 14.2967C9.06454 14.5572 9.21282 14.7886 9.43 14.94C9.59721 15.0567 9.79609 15.1195 10 15.12C10.1612 15.1197 10.32 15.0805 10.4628 15.0056C10.6055 14.9307 10.7281 14.8225 10.82 14.69C11.1618 14.1908 11.3447 13.6 11.3447 12.995C11.3447 12.39 11.1618 11.7992 10.82 11.3C10.7148 11.1508 10.5978 11.0103 10.47 10.88L10.33 10.74C10.2715 10.6848 10.2179 10.6246 10.17 10.56C10.0588 10.3945 9.99956 10.1994 10 10C10 9.73478 10.1054 9.48043 10.2929 9.29289C10.4804 9.10536 10.7348 9 11 9ZM7 15C7.19778 15 7.39112 14.9414 7.55557 14.8315C7.72002 14.7216 7.84819 14.5654 7.92388 14.3827C7.99957 14.2 8.01937 13.9989 7.98079 13.8049C7.9422 13.6109 7.84696 13.4327 7.70711 13.2929C7.56725 13.153 7.38907 13.0578 7.19509 13.0192C7.00111 12.9806 6.80004 13.0004 6.61732 13.0761C6.43459 13.1518 6.27841 13.28 6.16853 13.4444C6.05865 13.6089 6 13.8022 6 14C6 14.2652 6.10536 14.5196 6.29289 14.7071C6.48043 14.8946 6.73478 15 7 15Z" />
</svg>
