<svg width="24" height="24" viewBox="0 0 24 24" xmlns="http://www.w3.org/2000/svg">
<path d="M8.81962 11.29C8.72589 11.383 8.65149 11.4936 8.60073 11.6154C8.54996 11.7373 8.52382 11.868 8.52382 12C8.52382 12.132 8.54996 12.2627 8.60073 12.3846C8.65149 12.5065 8.72589 12.6171 8.81962 12.71C9.00698 12.8963 9.26043 13.0008 9.52462 13.0008C9.7888 13.0008 10.0423 12.8963 10.2296 12.71C10.3233 12.6171 10.3977 12.5065 10.4485 12.3846C10.4993 12.2627 10.5254 12.132 10.5254 12C10.5254 11.868 10.4993 11.7373 10.4485 11.6154C10.3977 11.4936 10.3233 11.383 10.2296 11.29C10.0423 11.1038 9.7888 10.9992 9.52462 10.9992C9.26043 10.9992 9.00698 11.1038 8.81962 11.29ZM11.2896 13.77C11.1034 13.9574 10.9988 14.2108 10.9988 14.475C10.9988 14.7392 11.1034 14.9927 11.2896 15.18C11.3826 15.2737 11.4932 15.3481 11.615 15.3989C11.7369 15.4497 11.8676 15.4758 11.9996 15.4758C12.1316 15.4758 12.2623 15.4497 12.3842 15.3989C12.5061 15.3481 12.6167 15.2737 12.7096 15.18C12.8959 14.9927 13.0004 14.7392 13.0004 14.475C13.0004 14.2108 12.8959 13.9574 12.7096 13.77C12.6167 13.6763 12.5061 13.6019 12.3842 13.5511C12.2623 13.5004 12.1316 13.4742 11.9996 13.4742C11.8676 13.4742 11.7369 13.5004 11.615 13.5511C11.4932 13.6019 11.3826 13.6763 11.2896 13.77ZM20.2896 3.77002C19.2018 2.67324 17.7329 2.03827 16.1887 1.99729C14.6446 1.95631 13.1441 2.51248 11.9996 3.55002C10.8605 2.5246 9.37208 1.974 7.83984 2.01119C6.3076 2.04838 4.84768 2.67054 3.75962 3.75002C2.67863 4.83986 2.05647 6.30256 2.02112 7.83717C1.98578 9.37178 2.53995 10.8616 3.56962 12C2.79979 12.8607 2.29466 13.9251 2.11483 15.0658C1.935 16.2064 2.08812 17.3746 2.55582 18.4304C3.02351 19.4861 3.78591 20.3845 4.75152 21.0177C5.71714 21.6508 6.84495 21.9919 7.99962 22C9.47984 22.0016 10.907 21.4486 11.9996 20.45C13.1393 21.4784 14.6298 22.0308 16.1645 21.9936C17.6991 21.9564 19.1611 21.3324 20.2496 20.25C21.3292 19.1589 21.9496 17.6955 21.983 16.1609C22.0165 14.6263 21.4606 13.1372 20.4296 12C21.4606 10.8628 22.0165 9.37376 21.983 7.83916C21.9496 6.30456 21.3292 4.84116 20.2496 3.75002L20.2896 3.77002ZM18.8296 5.17002C19.525 5.88541 19.928 6.83486 19.9595 7.83206C19.9909 8.82927 19.6486 9.80223 18.9996 10.56L13.4396 5.00002C14.204 4.36575 15.174 4.03293 16.1668 4.06424C17.1596 4.09555 18.1067 4.48884 18.8296 5.17002ZM5.16962 18.83C4.47418 18.1146 4.0712 17.1652 4.03975 16.168C4.0083 15.1708 4.35065 14.1978 4.99962 13.44L10.5996 19.04C9.82673 19.678 8.84604 20.0093 7.84457 19.9705C6.8431 19.9318 5.89093 19.5258 5.16962 18.83ZM18.8296 18.83C18.0704 19.5562 17.0602 19.9615 16.0096 19.9615C14.959 19.9615 13.9489 19.5562 13.1896 18.83L5.18962 10.83C4.44461 10.0806 4.02645 9.06676 4.02645 8.01002C4.02645 6.95327 4.44461 5.93947 5.18962 5.19002C5.93907 4.44501 6.95287 4.02685 8.00962 4.02685C9.06636 4.02685 10.0802 4.44501 10.8296 5.19002L18.8296 13.19C19.5746 13.9395 19.9928 14.9533 19.9928 16.01C19.9928 17.0668 19.5746 18.0806 18.8296 18.83ZM13.7696 11.29C13.6759 11.383 13.6015 11.4936 13.5507 11.6154C13.5 11.7373 13.4738 11.868 13.4738 12C13.4738 12.132 13.5 12.2627 13.5507 12.3846C13.6015 12.5065 13.6759 12.6171 13.7696 12.71C13.957 12.8963 14.2104 13.0008 14.4746 13.0008C14.7388 13.0008 14.9923 12.8963 15.1796 12.71C15.2733 12.6171 15.3477 12.5065 15.3985 12.3846C15.4493 12.2627 15.4754 12.132 15.4754 12C15.4754 11.868 15.4493 11.7373 15.3985 11.6154C15.3477 11.4936 15.2733 11.383 15.1796 11.29C14.9923 11.1038 14.7388 10.9992 14.4746 10.9992C14.2104 10.9992 13.957 11.1038 13.7696 11.29ZM11.2896 8.82002C11.1034 9.00738 10.9988 9.26083 10.9988 9.52502C10.9988 9.7892 11.1034 10.0427 11.2896 10.23C11.3826 10.3237 11.4932 10.3981 11.615 10.4489C11.7369 10.4997 11.8676 10.5258 11.9996 10.5258C12.1316 10.5258 12.2623 10.4997 12.3842 10.4489C12.5061 10.3981 12.6167 10.3237 12.7096 10.23C12.8959 10.0427 13.0004 9.7892 13.0004 9.52502C13.0004 9.26083 12.8959 9.00738 12.7096 8.82002C12.6167 8.72629 12.5061 8.65189 12.3842 8.60113C12.2623 8.55036 12.1316 8.52422 11.9996 8.52422C11.8676 8.52422 11.7369 8.55036 11.615 8.60113C11.4932 8.65189 11.3826 8.72629 11.2896 8.82002Z" />
</svg>
