<svg width="24" height="24" viewBox="0 0 24 24" xmlns="http://www.w3.org/2000/svg">
<path d="M9 19C9.13068 18.9984 9.25978 18.9712 9.38 18.92C9.50118 18.8694 9.6128 18.7983 9.71 18.71C9.75525 18.6608 9.79545 18.6072 9.83 18.55C9.86958 18.4989 9.90003 18.4414 9.92 18.38C9.9558 18.3245 9.98278 18.2638 10 18.2C10.0049 18.1334 10.0049 18.0666 10 18C9.99842 17.8693 9.97124 17.7402 9.92 17.62C9.87509 17.4959 9.80343 17.3832 9.71011 17.2899C9.6168 17.1966 9.5041 17.1249 9.38 17.08C9.19898 16.9961 8.99698 16.9682 8.8 17L8.62 17.06C8.55857 17.08 8.50105 17.1104 8.45 17.15C8.39279 17.1846 8.33919 17.2248 8.29 17.27C8.19896 17.3651 8.12759 17.4772 8.08 17.6C8.02613 17.7264 7.9989 17.8626 8 18C8 18.2652 8.10536 18.5196 8.29289 18.7071C8.48043 18.8946 8.73478 19 9 19ZM5.29 18.71C5.3872 18.7983 5.49882 18.8694 5.62 18.92C5.74022 18.9712 5.86932 18.9984 6 19H6.19C6.25623 18.9907 6.32045 18.9704 6.38 18.94C6.44372 18.9181 6.50425 18.8878 6.56 18.85L6.71 18.73C6.79833 18.6328 6.86936 18.5212 6.92 18.4C6.97913 18.2753 7.00661 18.1379 7 18C7.00491 17.9334 7.00491 17.8666 7 17.8C6.98905 17.7374 6.96883 17.6767 6.94 17.62C6.92003 17.5586 6.88958 17.5011 6.85 17.45C6.81545 17.3928 6.77525 17.3392 6.73 17.29C6.58938 17.1512 6.4108 17.0572 6.21681 17.0199C6.02282 16.9825 5.82211 17.0034 5.64 17.08C5.51725 17.1276 5.4051 17.199 5.31 17.29C5.26475 17.3392 5.22455 17.3928 5.19 17.45C5.15042 17.5011 5.11997 17.5586 5.1 17.62C5.05717 17.6742 5.0234 17.735 5 17.8C4.99509 17.8666 4.99509 17.9334 5 18C5.00158 18.1307 5.02876 18.2598 5.08 18.38C5.13064 18.5012 5.20167 18.6128 5.29 18.71ZM19 2H5C4.20435 2 3.44129 2.31607 2.87868 2.87868C2.31607 3.44129 2 4.20435 2 5V19C2 19.7956 2.31607 20.5587 2.87868 21.1213C3.44129 21.6839 4.20435 22 5 22H19C19.7956 22 20.5587 21.6839 21.1213 21.1213C21.6839 20.5587 22 19.7956 22 19V5C22 4.20435 21.6839 3.44129 21.1213 2.87868C20.5587 2.31607 19.7956 2 19 2ZM20 19C20 19.2652 19.8946 19.5196 19.7071 19.7071C19.5196 19.8946 19.2652 20 19 20H5C4.73478 20 4.48043 19.8946 4.29289 19.7071C4.10536 19.5196 4 19.2652 4 19V16H20V19ZM20 14H4V10H8C8.13161 10.0008 8.26207 9.97554 8.38391 9.92577C8.50574 9.87601 8.61656 9.80268 8.71 9.71L10 8.46L12.8 11.66C12.8903 11.763 13.0008 11.8463 13.1247 11.9048C13.2486 11.9632 13.3831 11.9957 13.52 12C13.6516 12.0008 13.7821 11.9755 13.9039 11.9258C14.0257 11.876 14.1366 11.8027 14.23 11.71L15.91 10H20V14ZM20 8H15.5C15.3684 7.99924 15.2379 8.02446 15.1161 8.07423C14.9943 8.12399 14.8834 8.19732 14.79 8.29L13.55 9.54L10.75 6.34C10.6565 6.24009 10.5434 6.16044 10.4178 6.10599C10.2923 6.05154 10.1569 6.02345 10.02 6.02345C9.88314 6.02345 9.74773 6.05154 9.62216 6.10599C9.49659 6.16044 9.38354 6.24009 9.29 6.34L7.59 8H4V5C4 4.73478 4.10536 4.48043 4.29289 4.29289C4.48043 4.10536 4.73478 4 5 4H19C19.2652 4 19.5196 4.10536 19.7071 4.29289C19.8946 4.48043 20 4.73478 20 5V8Z" />
</svg>
