<svg width="24" height="24" viewBox="0 0 24 24" xmlns="http://www.w3.org/2000/svg">
<path d="M21 10.41H18.5C18.3677 10.4106 18.2368 10.4374 18.1149 10.4889C17.9931 10.5404 17.8826 10.6155 17.79 10.71L16.55 12L13.75 8.81002C13.6565 8.71011 13.5434 8.63046 13.4179 8.57601C13.2923 8.52156 13.1569 8.49346 13.02 8.49346C12.8831 8.49346 12.7477 8.52156 12.6222 8.57601C12.4966 8.63046 12.3836 8.71011 12.29 8.81002L10.59 10.51H9.00001C8.7348 10.51 8.48044 10.6154 8.2929 10.8029C8.10537 10.9904 8.00001 11.2448 8.00001 11.51C8.00001 11.7752 8.10537 12.0296 8.2929 12.2171C8.48044 12.4047 8.7348 12.51 9.00001 12.51H11C11.1316 12.5108 11.2621 12.4856 11.3839 12.4358C11.5058 12.386 11.6166 12.3127 11.71 12.22L13 10.88L15.8 14.07C15.8903 14.173 16.0009 14.2563 16.1247 14.3148C16.2486 14.3733 16.3831 14.4057 16.52 14.41C16.6516 14.4108 16.7821 14.3856 16.9039 14.3358C17.0258 14.286 17.1366 14.2127 17.23 14.12L18.93 12.41H21C21.2652 12.41 21.5196 12.3047 21.7071 12.1171C21.8947 11.9296 22 11.6752 22 11.41C22 11.1448 21.8947 10.8904 21.7071 10.7029C21.5196 10.5154 21.2652 10.41 21 10.41ZM13.61 15.71L11.71 17.61C11.617 17.7037 11.5064 17.7781 11.3846 17.8289C11.2627 17.8797 11.132 17.9058 11 17.9058C10.868 17.9058 10.7373 17.8797 10.6154 17.8289C10.4936 17.7781 10.383 17.7037 10.29 17.61L5.08001 12.4C4.73713 12.0573 4.46513 11.6505 4.27955 11.2026C4.09398 10.7548 3.99846 10.2748 3.99846 9.79002C3.99846 9.30525 4.09398 8.82524 4.27955 8.37741C4.46513 7.92957 4.73713 7.52269 5.08001 7.18002C5.77167 6.49059 6.70843 6.10346 7.68501 6.10346C8.66159 6.10346 9.59835 6.49059 10.29 7.18002C10.383 7.27375 10.4936 7.34814 10.6154 7.39891C10.7373 7.44968 10.868 7.47581 11 7.47581C11.132 7.47581 11.2627 7.44968 11.3846 7.39891C11.5064 7.34814 11.617 7.27375 11.71 7.18002C12.4127 6.51174 13.3453 6.13906 14.315 6.13906C15.2847 6.13906 16.2173 6.51174 16.92 7.18002C17.1428 7.40576 17.3376 7.65758 17.5 7.93002C17.6456 8.13023 17.8603 8.26932 18.1026 8.32036C18.3448 8.37141 18.5974 8.33079 18.8114 8.20636C19.0254 8.08193 19.1856 7.88254 19.2611 7.64677C19.3366 7.411 19.322 7.15561 19.22 6.93002C18.9728 6.51957 18.6774 6.1402 18.34 5.80002C17.391 4.83987 16.1311 4.24912 14.786 4.13367C13.4409 4.01823 12.0988 4.38563 11 5.17002C10.1509 4.55831 9.14924 4.19309 8.10565 4.11467C7.06206 4.03624 6.0171 4.24766 5.08607 4.72559C4.15504 5.20351 3.37416 5.92937 2.82958 6.82305C2.28501 7.71673 1.99793 8.74349 2.00001 9.79002C1.99971 10.5341 2.14718 11.2709 2.43385 11.9575C2.72053 12.6441 3.14071 13.267 3.67001 13.79L8.88001 19C9.44251 19.5618 10.205 19.8774 11 19.8774C11.795 19.8774 12.5575 19.5618 13.12 19L15 17.12C15.1863 16.9327 15.2908 16.6792 15.2908 16.415C15.2908 16.1508 15.1863 15.8974 15 15.71C14.8135 15.5298 14.5644 15.429 14.305 15.429C14.0457 15.429 13.7965 15.5298 13.61 15.71Z" />
</svg>
