<svg width="24" height="24" viewBox="0 0 24 24" xmlns="http://www.w3.org/2000/svg">
<path d="M10 17H11V18C11 18.2652 11.1054 18.5196 11.2929 18.7071C11.4804 18.8946 11.7348 19 12 19C12.2652 19 12.5196 18.8946 12.7071 18.7071C12.8946 18.5196 13 18.2652 13 18V17H14C14.2652 17 14.5196 16.8946 14.7071 16.7071C14.8946 16.5196 15 16.2652 15 16C15 15.7348 14.8946 15.4804 14.7071 15.2929C14.5196 15.1054 14.2652 15 14 15H13V14C13 13.7348 12.8946 13.4804 12.7071 13.2929C12.5196 13.1054 12.2652 13 12 13C11.7348 13 11.4804 13.1054 11.2929 13.2929C11.1054 13.4804 11 13.7348 11 14V15H10C9.73478 15 9.48043 15.1054 9.29289 15.2929C9.10536 15.4804 9 15.7348 9 16C9 16.2652 9.10536 16.5196 9.29289 16.7071C9.48043 16.8946 9.73478 17 10 17ZM19 6H17V5C17 4.20435 16.6839 3.44129 16.1213 2.87868C15.5587 2.31607 14.7956 2 14 2H10C9.20435 2 8.44129 2.31607 7.87868 2.87868C7.31607 3.44129 7 4.20435 7 5V6H5C4.20435 6 3.44129 6.31607 2.87868 6.87868C2.31607 7.44129 2 8.20435 2 9V19C2 19.7956 2.31607 20.5587 2.87868 21.1213C3.44129 21.6839 4.20435 22 5 22H19C19.7956 22 20.5587 21.6839 21.1213 21.1213C21.6839 20.5587 22 19.7956 22 19V9C22 8.20435 21.6839 7.44129 21.1213 6.87868C20.5587 6.31607 19.7956 6 19 6ZM9 5C9 4.73478 9.10536 4.48043 9.29289 4.29289C9.48043 4.10536 9.73478 4 10 4H14C14.2652 4 14.5196 4.10536 14.7071 4.29289C14.8946 4.48043 15 4.73478 15 5V6H9V5ZM20 19C20 19.2652 19.8946 19.5196 19.7071 19.7071C19.5196 19.8946 19.2652 20 19 20H5C4.73478 20 4.48043 19.8946 4.29289 19.7071C4.10536 19.5196 4 19.2652 4 19V12H20V19ZM20 10H4V9C4 8.73478 4.10536 8.48043 4.29289 8.29289C4.48043 8.10536 4.73478 8 5 8H19C19.2652 8 19.5196 8.10536 19.7071 8.29289C19.8946 8.48043 20 8.73478 20 9V10Z" />
</svg>
