<svg width="24" height="24" viewBox="0 0 24 24" xmlns="http://www.w3.org/2000/svg">
<path d="M18 4.5H21C21.2652 4.5 21.5196 4.39464 21.7071 4.20711C21.8946 4.01957 22 3.76522 22 3.5C22 3.23478 21.8946 2.98043 21.7071 2.79289C21.5196 2.60536 21.2652 2.5 21 2.5H18C17.7348 2.5 17.4804 2.60536 17.2929 2.79289C17.1054 2.98043 17 3.23478 17 3.5C17 3.76522 17.1054 4.01957 17.2929 4.20711C17.4804 4.39464 17.7348 4.5 18 4.5ZM21 6.5H3C2.73478 6.5 2.48043 6.60536 2.29289 6.79289C2.10536 6.98043 2 7.23478 2 7.5V11.5C2 11.7652 2.10536 12.0196 2.29289 12.2071C2.48043 12.3946 2.73478 12.5 3 12.5H4.55L9.66 15.06L7.08 16.35C6.52296 15.8079 5.77727 15.5032 5 15.5C4.40666 15.5 3.82664 15.6759 3.33329 16.0056C2.83994 16.3352 2.45543 16.8038 2.22836 17.3519C2.0013 17.9001 1.94189 18.5033 2.05765 19.0853C2.1734 19.6672 2.45912 20.2018 2.87868 20.6213C3.29824 21.0409 3.83279 21.3266 4.41473 21.4424C4.99667 21.5581 5.59987 21.4987 6.14805 21.2716C6.69623 21.0446 7.16477 20.6601 7.49441 20.1667C7.82405 19.6734 8 19.0933 8 18.5C8.00984 18.3802 8.00984 18.2598 8 18.14L11.94 16.14L16 18.24C15.9951 18.3266 15.9951 18.4134 16 18.5C16 19.0933 16.1759 19.6734 16.5056 20.1667C16.8352 20.6601 17.3038 21.0446 17.852 21.2716C18.4001 21.4987 19.0033 21.5581 19.5853 21.4424C20.1672 21.3266 20.7018 21.0409 21.1213 20.6213C21.5409 20.2018 21.8266 19.6672 21.9424 19.0853C22.0581 18.5033 21.9987 17.9001 21.7716 17.3519C21.5446 16.8038 21.1601 16.3352 20.6667 16.0056C20.1734 15.6759 19.5933 15.5 19 15.5C18.5983 15.5016 18.201 15.5838 17.8317 15.7419C17.4623 15.8999 17.1285 16.1305 16.85 16.42L14.13 15.06L19.24 12.5H21C21.2652 12.5 21.5196 12.3946 21.7071 12.2071C21.8946 12.0196 22 11.7652 22 11.5V7.5C22 7.36868 21.9741 7.23864 21.9239 7.11732C21.8736 6.99599 21.8 6.88575 21.7071 6.79289C21.6143 6.70003 21.504 6.62638 21.3827 6.57612C21.2614 6.52587 21.1313 6.5 21 6.5ZM5 19.5C4.80222 19.5 4.60888 19.4414 4.44443 19.3315C4.27998 19.2216 4.15181 19.0654 4.07612 18.8827C4.00043 18.7 3.98063 18.4989 4.01922 18.3049C4.0578 18.1109 4.15304 17.9327 4.29289 17.7929C4.43275 17.653 4.61093 17.5578 4.80491 17.5192C4.99889 17.4806 5.19996 17.5004 5.38268 17.5761C5.56541 17.6518 5.72159 17.78 5.83147 17.9444C5.94135 18.1089 6 18.3022 6 18.5C6 18.7652 5.89464 19.0196 5.70711 19.2071C5.51957 19.3946 5.26522 19.5 5 19.5ZM19 17.5C19.1978 17.5 19.3911 17.5586 19.5556 17.6685C19.72 17.7784 19.8482 17.9346 19.9239 18.1173C19.9996 18.3 20.0194 18.5011 19.9808 18.6951C19.9422 18.8891 19.847 19.0673 19.7071 19.2071C19.5673 19.347 19.3891 19.4422 19.1951 19.4808C19.0011 19.5194 18.8 19.4996 18.6173 19.4239C18.4346 19.3482 18.2784 19.22 18.1685 19.0556C18.0586 18.8911 18 18.6978 18 18.5C18 18.2348 18.1054 17.9804 18.2929 17.7929C18.4804 17.6054 18.7348 17.5 19 17.5ZM11.9 13.94L9 12.5H14.75L11.9 13.94ZM20 10.5H4V8.5H20V10.5Z" />
</svg>
