<svg width="24" height="24" viewBox="0 0 24 24" xmlns="http://www.w3.org/2000/svg">
<path d="M20 16.18V16C19.9983 15.3811 19.8051 14.7778 19.4471 14.2729C19.089 13.7681 18.5836 13.3863 18 13.18V7H19C19.2652 7 19.5196 6.89464 19.7071 6.70711C19.8946 6.51957 20 6.26522 20 6C20 5.73478 19.8946 5.48043 19.7071 5.29289C19.5196 5.10536 19.2652 5 19 5H7C7 4.20435 6.68393 3.44129 6.12132 2.87868C5.55871 2.31607 4.79565 2 4 2H3C2.73478 2 2.48043 2.10536 2.29289 2.29289C2.10536 2.48043 2 2.73478 2 3C2 3.26522 2.10536 3.51957 2.29289 3.70711C2.48043 3.89464 2.73478 4 3 4H4C4.26522 4 4.51957 4.10536 4.70711 4.29289C4.89464 4.48043 5 4.73478 5 5V12.42C4.17371 12.7806 3.4603 13.358 2.93528 14.0909C2.41027 14.8238 2.09318 15.685 2.0176 16.5834C1.94202 17.4818 2.11075 18.3839 2.50593 19.1942C2.90111 20.0046 3.50804 20.693 4.26247 21.1866C5.01689 21.6802 5.89074 21.9606 6.79152 21.9982C7.69229 22.0358 8.58647 21.8292 9.3794 21.4001C10.1723 20.9711 10.8345 20.3356 11.2958 19.5611C11.7572 18.7865 12.0005 17.9016 12 17C12.0009 16.3113 11.8579 15.6301 11.58 15H17C17.2652 15 17.5196 15.1054 17.7071 15.2929C17.8946 15.4804 18 15.7348 18 16V16.18C17.3328 16.4159 16.7704 16.8801 16.4124 17.4905C16.0543 18.1009 15.9235 18.8182 16.0432 19.5157C16.1629 20.2132 16.5253 20.846 17.0663 21.3021C17.6074 21.7582 18.2923 22.0084 19 22.0084C19.7077 22.0084 20.3926 21.7582 20.9337 21.3021C21.4747 20.846 21.8371 20.2132 21.9568 19.5157C22.0765 18.8182 21.9457 18.1009 21.5876 17.4905C21.2296 16.8801 20.6672 16.4159 20 16.18ZM7 20C6.40666 20 5.82664 19.8241 5.33329 19.4944C4.83994 19.1648 4.45543 18.6962 4.22836 18.1481C4.0013 17.5999 3.94189 16.9967 4.05765 16.4147C4.1734 15.8328 4.45912 15.2982 4.87868 14.8787C5.29824 14.4591 5.83279 14.1734 6.41473 14.0576C6.99667 13.9419 7.59987 14.0013 8.14805 14.2284C8.69623 14.4554 9.16477 14.8399 9.49441 15.3333C9.82405 15.8266 10 16.4067 10 17C10 17.7956 9.68393 18.5587 9.12132 19.1213C8.55871 19.6839 7.79565 20 7 20ZM16 13H10C9.13694 12.3463 8.08268 11.9949 7 12V11H16V13ZM16 9H7V7H16V9ZM19 20C18.8022 20 18.6089 19.9414 18.4444 19.8315C18.28 19.7216 18.1518 19.5654 18.0761 19.3827C18.0004 19.2 17.9806 18.9989 18.0192 18.8049C18.0578 18.6109 18.153 18.4327 18.2929 18.2929C18.4327 18.153 18.6109 18.0578 18.8049 18.0192C18.9989 17.9806 19.2 18.0004 19.3827 18.0761C19.5654 18.1518 19.7216 18.28 19.8315 18.4444C19.9414 18.6089 20 18.8022 20 19C20 19.2652 19.8946 19.5196 19.7071 19.7071C19.5196 19.8946 19.2652 20 19 20ZM7 16C6.80222 16 6.60888 16.0586 6.44443 16.1685C6.27998 16.2784 6.15181 16.4346 6.07612 16.6173C6.00043 16.8 5.98063 17.0011 6.01922 17.1951C6.0578 17.3891 6.15304 17.5673 6.29289 17.7071C6.43275 17.847 6.61093 17.9422 6.80491 17.9808C6.99889 18.0194 7.19996 17.9996 7.38268 17.9239C7.56541 17.8482 7.72159 17.72 7.83147 17.5556C7.94135 17.3911 8 17.1978 8 17C8 16.7348 7.89464 16.4804 7.70711 16.2929C7.51957 16.1054 7.26522 16 7 16Z" />
</svg>
