<svg width="24" height="24" viewBox="0 0 24 24" xmlns="http://www.w3.org/2000/svg">
<path d="M12 6.5C12.3955 6.5 12.7822 6.3827 13.1111 6.16294C13.44 5.94318 13.6963 5.63082 13.8477 5.26537C13.9991 4.89992 14.0387 4.49778 13.9615 4.10982C13.8844 3.72186 13.6939 3.36549 13.4142 3.08579C13.1345 2.80608 12.7781 2.6156 12.3901 2.53843C12.0022 2.46126 11.6 2.50087 11.2346 2.65224C10.8691 2.80362 10.5568 3.05996 10.337 3.38886C10.1173 3.71776 9.99996 4.10444 9.99996 4.5C9.99996 5.03043 10.2107 5.53914 10.5857 5.91421C10.9608 6.28929 11.4695 6.5 12 6.5ZM19.5 20.5H18.5V15.5C18.5 15.2348 18.3946 14.9804 18.2071 14.7929C18.0195 14.6054 17.7652 14.5 17.5 14.5H12.5V12.5H17.5C17.7652 12.5 18.0195 12.3946 18.2071 12.2071C18.3946 12.0196 18.5 11.7652 18.5 11.5C18.5 11.2348 18.3946 10.9804 18.2071 10.7929C18.0195 10.6054 17.7652 10.5 17.5 10.5H12.5V8.5C12.5 8.23478 12.3946 7.98043 12.2071 7.79289C12.0195 7.60536 11.7652 7.5 11.5 7.5C11.2347 7.5 10.9804 7.60536 10.7929 7.79289C10.6053 7.98043 10.5 8.23478 10.5 8.5V15.5C10.5 15.7652 10.6053 16.0196 10.7929 16.2071C10.9804 16.3946 11.2347 16.5 11.5 16.5H16.5V21.5C16.5 21.7652 16.6053 22.0196 16.7929 22.2071C16.9804 22.3946 17.2347 22.5 17.5 22.5H19.5C19.7652 22.5 20.0195 22.3946 20.2071 22.2071C20.3946 22.0196 20.5 21.7652 20.5 21.5C20.5 21.2348 20.3946 20.9804 20.2071 20.7929C20.0195 20.6054 19.7652 20.5 19.5 20.5ZM12.7 18.9C12.1962 19.5716 11.494 20.0677 10.6926 20.3181C9.89129 20.5684 9.0315 20.5602 8.23505 20.2947C7.4386 20.0293 6.74588 19.5199 6.25499 18.8388C5.76411 18.1578 5.49996 17.3395 5.49996 16.5C5.50114 15.7227 5.72875 14.9626 6.15498 14.3126C6.58121 13.6626 7.18758 13.1509 7.89996 12.84C8.14396 12.7339 8.33582 12.5352 8.43334 12.2877C8.53086 12.0401 8.52605 11.764 8.41996 11.52C8.31388 11.276 8.11521 11.0841 7.86766 10.9866C7.62011 10.8891 7.34396 10.8939 7.09996 11C6.25846 11.3674 5.51252 11.9231 4.91959 12.6243C4.32666 13.3254 3.90257 14.1532 3.67996 15.0441C3.45736 15.9349 3.44218 16.865 3.63561 17.7626C3.82904 18.6602 4.22591 19.5014 4.79565 20.2215C5.3654 20.9416 6.09281 21.5214 6.92188 21.9161C7.75095 22.3108 8.65955 22.5099 9.5777 22.4982C10.4959 22.4864 11.3991 22.2641 12.2178 21.8483C13.0365 21.4326 13.7488 20.8344 14.3 20.1C14.4591 19.8878 14.5274 19.6211 14.4899 19.3586C14.4524 19.096 14.3121 18.8591 14.1 18.7C13.8878 18.5409 13.6211 18.4725 13.3585 18.51C13.096 18.5476 12.8591 18.6878 12.7 18.9Z" />
</svg>
