<svg width="24" height="24" viewBox="0 0 24 24" xmlns="http://www.w3.org/2000/svg">
<path d="M20.4204 4.12C20.3189 3.87565 20.1247 3.68147 19.8804 3.58C19.7602 3.52876 19.6311 3.50158 19.5004 3.5H15.5004C15.2352 3.5 14.9808 3.60536 14.7933 3.79289C14.6057 3.98043 14.5004 4.23478 14.5004 4.5C14.5004 4.76522 14.6057 5.01957 14.7933 5.20711C14.9808 5.39464 15.2352 5.5 15.5004 5.5H17.0904L14.6904 7.9C13.2733 6.83945 11.5071 6.3551 9.74722 6.54446C7.98738 6.73382 6.3646 7.58282 5.20558 8.92057C4.04656 10.2583 3.43734 11.9855 3.50057 13.7543C3.56379 15.5232 4.29477 17.2025 5.54635 18.454C6.79793 19.7056 8.47718 20.4366 10.246 20.4998C12.0149 20.563 13.7421 19.9538 15.0798 18.7948C16.4176 17.6358 17.2666 16.013 17.4559 14.2532C17.6453 12.4933 17.1609 10.7271 16.1004 9.31L18.5004 6.91V8.5C18.5004 8.76522 18.6057 9.01957 18.7933 9.20711C18.9808 9.39464 19.2352 9.5 19.5004 9.5C19.7656 9.5 20.02 9.39464 20.2075 9.20711C20.395 9.01957 20.5004 8.76522 20.5004 8.5V4.5C20.4988 4.36932 20.4716 4.24022 20.4204 4.12ZM14.0004 17C13.3052 17.7093 12.4145 18.1954 11.4419 18.3965C10.4693 18.5975 9.45883 18.5044 8.53937 18.1289C7.61992 17.7534 6.83311 17.1126 6.27928 16.2882C5.72544 15.4638 5.42967 14.4932 5.42967 13.5C5.42967 12.5068 5.72544 11.5362 6.27928 10.7118C6.83311 9.88736 7.61992 9.24657 8.53937 8.87109C9.45883 8.49562 10.4693 8.40247 11.4419 8.60353C12.4145 8.80459 13.3052 9.29074 14.0004 10C14.9165 10.9346 15.4297 12.1912 15.4297 13.5C15.4297 14.8088 14.9165 16.0654 14.0004 17Z" />
</svg>
