<svg width="24" height="24" viewBox="0 0 24 24" xmlns="http://www.w3.org/2000/svg">
<path d="M19.9996 9.67001V9.50001C20.0056 7.79896 19.4659 6.14081 18.4597 4.76923C17.4536 3.39765 16.034 2.38497 14.4096 1.88001H14.3496C13.5106 1.62425 12.6365 1.50275 11.7596 1.52001C9.67141 1.63461 7.70567 2.54176 6.26357 4.05634C4.82147 5.57092 4.01172 7.57874 3.99958 9.67001C3.41359 9.87615 2.90604 10.2591 2.54699 10.766C2.18795 11.273 1.99512 11.8788 1.99512 12.5C1.99512 13.1212 2.18795 13.7271 2.54699 14.234C2.90604 14.7409 3.41359 15.1239 3.99958 15.33C4.20554 17.3048 5.1385 19.1324 6.61705 20.4576C8.09561 21.7827 10.0141 22.5107 11.9996 22.5H12.2296C14.1495 22.4071 15.9745 21.6369 17.3805 20.3261C18.7864 19.0153 19.6825 17.2488 19.9096 15.34C20.5025 15.1455 21.02 14.771 21.39 14.2686C21.76 13.7662 21.9642 13.161 21.9741 12.5371C21.984 11.9132 21.7992 11.3017 21.4453 10.7878C21.0913 10.274 20.586 9.88321 19.9996 9.67001ZM12.1796 20.5C10.732 20.5419 9.31807 20.0588 8.19878 19.1398C7.07949 18.2209 6.33034 16.9281 6.08958 15.5H17.8596C17.6155 16.8519 16.9216 18.0816 15.8904 18.9893C14.8593 19.897 13.5515 20.4294 12.1796 20.5ZM18.9996 13.5H4.99958C4.73436 13.5 4.48001 13.3947 4.29247 13.2071C4.10493 13.0196 3.99958 12.7652 3.99958 12.5C3.99958 12.2348 4.10493 11.9804 4.29247 11.7929C4.48001 11.6054 4.73436 11.5 4.99958 11.5H6.99958C7.26479 11.5 7.51915 11.3947 7.70668 11.2071C7.89422 11.0196 7.99958 10.7652 7.99958 10.5C7.99958 10.2348 7.89422 9.98044 7.70668 9.79291C7.51915 9.60537 7.26479 9.50001 6.99958 9.50001H5.99958C6.04434 8.46263 6.34084 7.45171 6.8635 6.55448C7.38615 5.65726 8.11926 4.90067 8.99958 4.35001V7.50001C8.99958 7.76523 9.10493 8.01959 9.29247 8.20712C9.48001 8.39466 9.73436 8.50001 9.99958 8.50001C10.2648 8.50001 10.5191 8.39466 10.7067 8.20712C10.8942 8.01959 10.9996 7.76523 10.9996 7.50001V3.59001C11.271 3.54467 11.5448 3.51462 11.8196 3.50001H11.9996C12.3347 3.50473 12.669 3.53482 12.9996 3.59001V7.50001C12.9996 7.76523 13.1049 8.01959 13.2925 8.20712C13.48 8.39466 13.7344 8.50001 13.9996 8.50001C14.2648 8.50001 14.5191 8.39466 14.7067 8.20712C14.8942 8.01959 14.9996 7.76523 14.9996 7.50001V4.32001C15.4238 4.56564 15.8195 4.85741 16.1796 5.19001C16.7561 5.74991 17.2143 6.41994 17.527 7.16031C17.8396 7.90069 18.0003 8.69633 17.9996 9.50001H16.9996C16.7344 9.50001 16.48 9.60537 16.2925 9.79291C16.1049 9.98044 15.9996 10.2348 15.9996 10.5C15.9996 10.7652 16.1049 11.0196 16.2925 11.2071C16.48 11.3947 16.7344 11.5 16.9996 11.5H18.9996C19.2648 11.5 19.5191 11.6054 19.7067 11.7929C19.8942 11.9804 19.9996 12.2348 19.9996 12.5C19.9996 12.7652 19.8942 13.0196 19.7067 13.2071C19.5191 13.3947 19.2648 13.5 18.9996 13.5Z" />
</svg>
