<svg width="24" height="24" viewBox="0 0 24 24" xmlns="http://www.w3.org/2000/svg">
<path d="M19.9996 13.17V13C20.0006 11.93 19.7869 10.8707 19.3712 9.88478C18.9556 8.89884 18.3463 8.00631 17.5796 7.26C16.6845 6.38898 15.5942 5.74442 14.3996 5.38H14.3496C13.512 5.11613 12.6377 4.98784 11.7596 5C9.66799 5.1148 7.69937 6.02476 6.25676 7.5436C4.81414 9.06243 4.00665 11.0753 3.99959 13.17C3.33126 13.4051 2.7677 13.8691 2.40873 14.4799C2.04975 15.0908 1.91853 15.8089 2.0383 16.5072C2.15808 17.2055 2.52112 17.8388 3.06312 18.2951C3.60512 18.7513 4.29112 19.0011 4.99959 19H18.9996C19.7081 19.0011 20.3941 18.7513 20.9361 18.2951C21.4781 17.8388 21.8411 17.2055 21.9609 16.5072C22.0807 15.8089 21.9494 15.0908 21.5905 14.4799C21.2315 13.8691 20.6679 13.4051 19.9996 13.17ZM18.9996 17H4.99959C4.73438 17 4.48002 16.8946 4.29249 16.7071C4.10495 16.5196 3.99959 16.2652 3.99959 16C3.99959 15.7348 4.10495 15.4804 4.29249 15.2929C4.48002 15.1054 4.73438 15 4.99959 15H6.99959C7.26481 15 7.51916 14.8946 7.7067 14.7071C7.89424 14.5196 7.99959 14.2652 7.99959 14C7.99959 13.7348 7.89424 13.4804 7.7067 13.2929C7.51916 13.1054 7.26481 13 6.99959 13H5.99959C6.0452 11.9628 6.34206 10.9522 6.86463 10.0551C7.38721 9.15803 8.11986 8.40129 8.99959 7.85V11C8.99959 11.2652 9.10495 11.5196 9.29249 11.7071C9.48002 11.8946 9.73438 12 9.99959 12C10.2648 12 10.5192 11.8946 10.7067 11.7071C10.8942 11.5196 10.9996 11.2652 10.9996 11V7.09C11.271 7.04465 11.5448 7.0146 11.8196 7H11.9996C12.3353 7.00307 12.67 7.03654 12.9996 7.1V11C12.9996 11.2652 13.1049 11.5196 13.2925 11.7071C13.48 11.8946 13.7344 12 13.9996 12C14.2648 12 14.5192 11.8946 14.7067 11.7071C14.8942 11.5196 14.9996 11.2652 14.9996 11V7.82C15.4238 8.06562 15.8195 8.35739 16.1796 8.69C16.7562 9.24989 17.2143 9.91992 17.527 10.6603C17.8396 11.4007 18.0003 12.1963 17.9996 13H16.9996C16.7344 13 16.48 13.1054 16.2925 13.2929C16.1049 13.4804 15.9996 13.7348 15.9996 14C15.9996 14.2652 16.1049 14.5196 16.2925 14.7071C16.48 14.8946 16.7344 15 16.9996 15H18.9996C19.2648 15 19.5192 15.1054 19.7067 15.2929C19.8942 15.4804 19.9996 15.7348 19.9996 16C19.9996 16.2652 19.8942 16.5196 19.7067 16.7071C19.5192 16.8946 19.2648 17 18.9996 17Z" />
</svg>
