<svg width="24" height="24" viewBox="0 0 24 24" xmlns="http://www.w3.org/2000/svg">
<path d="M21 20H19.76L15.37 4.2C15.1951 3.56776 14.8177 3.01029 14.2958 2.61295C13.7738 2.2156 13.136 2.0003 12.48 2H11.48C10.8309 2.00897 10.2022 2.22826 9.68829 2.62494C9.1744 3.02163 8.80305 3.57431 8.63 4.2L4.24 20H3C2.73478 20 2.48043 20.1054 2.29289 20.2929C2.10536 20.4804 2 20.7348 2 21C2 21.2652 2.10536 21.5196 2.29289 21.7071C2.48043 21.8946 2.73478 22 3 22H21C21.2652 22 21.5196 21.8946 21.7071 21.7071C21.8946 21.5196 22 21.2652 22 21C22 20.7348 21.8946 20.4804 21.7071 20.2929C21.5196 20.1054 21.2652 20 21 20ZM10.56 4.73C10.6205 4.5137 10.752 4.32406 10.9334 4.19163C11.1148 4.0592 11.3356 3.9917 11.56 4H12.56C12.7844 3.9917 13.0052 4.0592 13.1866 4.19163C13.368 4.32406 13.4995 4.5137 13.56 4.73L14.35 8H9.65L10.56 4.73ZM9.09 10H14.91L16 14H8L9.09 10ZM6.32 20L7.43 16H16.57L17.68 20H6.32Z" />
</svg>
