<svg width="24" height="24" viewBox="0 0 24 24" xmlns="http://www.w3.org/2000/svg">
<path d="M21 13.5C20.7348 13.5 20.4804 13.6054 20.2929 13.7929C20.1054 13.9804 20 14.2348 20 14.5V18.5C20 18.7652 19.8946 19.0196 19.7071 19.2071C19.5196 19.3946 19.2652 19.5 19 19.5H5C4.73478 19.5 4.48043 19.3946 4.29289 19.2071C4.10536 19.0196 4 18.7652 4 18.5V8.91L9.88 14.79C10.4425 15.3518 11.205 15.6674 12 15.6674C12.795 15.6674 13.5575 15.3518 14.12 14.79L17.71 11.21C17.8983 11.0217 18.0041 10.7663 18.0041 10.5C18.0041 10.2337 17.8983 9.9783 17.71 9.79C17.5217 9.6017 17.2663 9.49591 17 9.49591C16.7337 9.49591 16.4783 9.6017 16.29 9.79L12.71 13.38C12.617 13.4737 12.5064 13.5481 12.3846 13.5989C12.2627 13.6497 12.132 13.6758 12 13.6758C11.868 13.6758 11.7373 13.6497 11.6154 13.5989C11.4936 13.5481 11.383 13.4737 11.29 13.38L5.41 7.5H17C17.2652 7.5 17.5196 7.39464 17.7071 7.20711C17.8946 7.01957 18 6.76522 18 6.5C18 6.23478 17.8946 5.98043 17.7071 5.79289C17.5196 5.60536 17.2652 5.5 17 5.5H5C4.20435 5.5 3.44129 5.81607 2.87868 6.37868C2.31607 6.94129 2 7.70435 2 8.5V18.5C2 19.2956 2.31607 20.0587 2.87868 20.6213C3.44129 21.1839 4.20435 21.5 5 21.5H19C19.7956 21.5 20.5587 21.1839 21.1213 20.6213C21.6839 20.0587 22 19.2956 22 18.5V14.5C22 14.2348 21.8946 13.9804 21.7071 13.7929C21.5196 13.6054 21.2652 13.5 21 13.5ZM21 2.5C20.7348 2.5 20.4804 2.60536 20.2929 2.79289C20.1054 2.98043 20 3.23478 20 3.5V7.5C20 7.76522 20.1054 8.01957 20.2929 8.20711C20.4804 8.39464 20.7348 8.5 21 8.5C21.2652 8.5 21.5196 8.39464 21.7071 8.20711C21.8946 8.01957 22 7.76522 22 7.5V3.5C22 3.23478 21.8946 2.98043 21.7071 2.79289C21.5196 2.60536 21.2652 2.5 21 2.5ZM20.8 9.5C20.7374 9.51095 20.6767 9.53117 20.62 9.56C20.5563 9.58189 20.4957 9.61215 20.44 9.65L20.29 9.77C20.1073 9.96163 20.0037 10.2152 20 10.48C19.9951 10.5432 19.9951 10.6068 20 10.67C20.0093 10.7362 20.0296 10.8005 20.06 10.86C20.0819 10.9237 20.1122 10.9843 20.15 11.04C20.1869 11.0924 20.227 11.1425 20.27 11.19C20.363 11.2837 20.4736 11.3581 20.5954 11.4089C20.7173 11.4597 20.848 11.4858 20.98 11.4858C21.112 11.4858 21.2427 11.4597 21.3646 11.4089C21.4864 11.3581 21.597 11.2837 21.69 11.19L21.81 11.04C21.8478 10.9843 21.8781 10.9237 21.9 10.86C21.9304 10.8005 21.9507 10.7362 21.96 10.67C21.9649 10.6068 21.9649 10.5432 21.96 10.48C21.963 10.33 21.9323 10.1813 21.87 10.0448C21.8078 9.9083 21.7156 9.78757 21.6004 9.69153C21.4851 9.5955 21.3498 9.52662 21.2043 9.49C21.0588 9.45339 20.907 9.44997 20.76 9.48L20.8 9.5Z" />
</svg>
