<svg width="24" height="24" viewBox="0 0 24 24" xmlns="http://www.w3.org/2000/svg">
<path d="M14 11.51H16.42C16.5516 11.5108 16.6821 11.4855 16.8039 11.4358C16.9257 11.386 17.0366 11.3127 17.13 11.22L21.71 6.64001C21.8037 6.54705 21.8781 6.43645 21.9289 6.31459C21.9797 6.19273 22.0058 6.06202 22.0058 5.93001C22.0058 5.798 21.9797 5.66729 21.9289 5.54543C21.8781 5.42357 21.8037 5.31297 21.71 5.22001L19.29 2.80001C19.197 2.70628 19.0864 2.63189 18.9646 2.58112C18.8427 2.53035 18.712 2.50421 18.58 2.50421C18.448 2.50421 18.3173 2.53035 18.1954 2.58112C18.0736 2.63189 17.963 2.70628 17.87 2.80001L13.29 7.38001C13.1073 7.57164 13.0037 7.82524 13 8.09001V10.51C13 10.7752 13.1054 11.0296 13.2929 11.2171C13.4804 11.4047 13.7348 11.51 14 11.51ZM15 8.51001L18.58 4.93001L19.58 5.93001L16 9.51001H15V8.51001ZM21 10.51C20.7348 10.51 20.4804 10.6154 20.2929 10.8029C20.1054 10.9904 20 11.2448 20 11.51V18.51C20 18.7752 19.8946 19.0296 19.7071 19.2171C19.5196 19.4047 19.2652 19.51 19 19.51H5C4.73478 19.51 4.48043 19.4047 4.29289 19.2171C4.10536 19.0296 4 18.7752 4 18.51V8.90001L9.88 14.79C10.1591 15.0727 10.4915 15.2972 10.858 15.4504C11.2245 15.6036 11.6178 15.6825 12.015 15.6825C12.4122 15.6825 12.8055 15.6036 13.172 15.4504C13.5385 15.2972 13.8709 15.0727 14.15 14.79C14.3332 14.6031 14.4359 14.3518 14.4359 14.09C14.4359 13.8283 14.3332 13.5769 14.15 13.39C14.0569 13.2948 13.9456 13.2191 13.8229 13.1674C13.7001 13.1157 13.5682 13.0891 13.435 13.0891C13.3018 13.0891 13.1699 13.1157 13.0471 13.1674C12.9244 13.2191 12.8131 13.2948 12.72 13.39C12.5331 13.5732 12.2818 13.6759 12.02 13.6759C11.7582 13.6759 11.5069 13.5732 11.32 13.39L5.41 7.49001H10C10.2652 7.49001 10.5196 7.38465 10.7071 7.19712C10.8946 7.00958 11 6.75523 11 6.49001C11 6.22479 10.8946 5.97044 10.7071 5.7829C10.5196 5.59537 10.2652 5.49001 10 5.49001H5C4.20435 5.49001 3.44129 5.80608 2.87868 6.36869C2.31607 6.9313 2 7.69436 2 8.49001V18.49C2 19.2857 2.31607 20.0487 2.87868 20.6113C3.44129 21.1739 4.20435 21.49 5 21.49H19C19.7956 21.49 20.5587 21.1739 21.1213 20.6113C21.6839 20.0487 22 19.2857 22 18.49V11.49C22 11.2248 21.8946 10.9704 21.7071 10.7829C21.5196 10.5954 21.2652 10.49 21 10.49V10.51Z" />
</svg>
