<svg width="24" height="24" viewBox="0 0 24 24" xmlns="http://www.w3.org/2000/svg">
<path d="M15.6897 9C15.5651 8.33119 15.2115 7.72661 14.6897 7.29C14.1362 6.80672 13.4245 6.5434 12.6897 6.55H4.79975C4.36539 6.54335 3.93477 6.63112 3.53765 6.80723C3.14054 6.98334 2.78641 7.2436 2.49975 7.57V7.63C2.22848 7.95595 2.0294 8.33571 1.91564 8.74423C1.80187 9.15275 1.77601 9.58075 1.83975 10L2.71975 15C2.84331 15.7025 3.21317 16.3381 3.76296 16.7926C4.31275 17.2471 5.0065 17.4908 5.71975 17.48H13.6597C14.0963 17.479 14.5274 17.3828 14.9229 17.198C15.3185 17.0131 15.6689 16.7442 15.9497 16.41C16.2195 16.076 16.4145 15.6881 16.5214 15.2723C16.6284 14.8566 16.6449 14.4227 16.5697 14L15.6897 9ZM12.2797 8.5L9.93975 11.14C9.76833 11.3328 9.52903 11.4519 9.27186 11.4724C9.01469 11.4929 8.75955 11.4132 8.55975 11.25L5.16975 8.5H12.2797ZM14.3798 15.14C14.2868 15.2516 14.1707 15.3416 14.0394 15.4038C13.9082 15.4659 13.765 15.4988 13.6198 15.5H5.67975C5.44152 15.5035 5.20988 15.4218 5.02654 15.2696C4.84321 15.1174 4.72023 14.9048 4.67975 14.67L3.86975 10L7.29975 12.8C7.90037 13.2884 8.66655 13.5258 9.43811 13.4624C10.2097 13.3991 10.9269 13.0399 11.4397 12.46L13.7998 9.8L14.5998 14.33C14.624 14.4729 14.6168 14.6193 14.5788 14.7592C14.5409 14.8991 14.4729 15.029 14.3798 15.14ZM21.2097 10.5H19.2097C18.9445 10.5 18.6902 10.6054 18.5026 10.7929C18.3151 10.9804 18.2097 11.2348 18.2097 11.5C18.2097 11.7652 18.3151 12.0196 18.5026 12.2071C18.6902 12.3946 18.9445 12.5 19.2097 12.5H21.2097C21.475 12.5 21.7293 12.3946 21.9169 12.2071C22.1044 12.0196 22.2097 11.7652 22.2097 11.5C22.2097 11.2348 22.1044 10.9804 21.9169 10.7929C21.7293 10.6054 21.475 10.5 21.2097 10.5ZM21.2097 8.5C21.475 8.5 21.7293 8.39464 21.9169 8.20711C22.1044 8.01957 22.2097 7.76522 22.2097 7.5C22.2097 7.23478 22.1044 6.98043 21.9169 6.79289C21.7293 6.60536 21.475 6.5 21.2097 6.5H18.2097C17.9445 6.5 17.6902 6.60536 17.5026 6.79289C17.3151 6.98043 17.2097 7.23478 17.2097 7.5C17.2097 7.76522 17.3151 8.01957 17.5026 8.20711C17.6902 8.39464 17.9445 8.5 18.2097 8.5H21.2097Z" />
</svg>
