<svg width="24" height="24" viewBox="0 0 24 24" xmlns="http://www.w3.org/2000/svg">
<path d="M20.5 7.44001V6.26001C20.5 5.46436 20.1839 4.7013 19.6213 4.13869C19.0587 3.57608 18.2956 3.26001 17.5 3.26001C16.7044 3.26001 15.9413 3.57608 15.3787 4.13869C14.8161 4.7013 14.5 5.46436 14.5 6.26001V7.44001C13.9165 7.64632 13.411 8.02808 13.0529 8.53294C12.6949 9.03781 12.5017 9.64107 12.5 10.26V12.26C12.5 13.0557 12.8161 13.8187 13.3787 14.3813C13.9413 14.9439 14.7044 15.26 15.5 15.26H19.5C20.2956 15.26 21.0587 14.9439 21.6213 14.3813C22.1839 13.8187 22.5 13.0557 22.5 12.26V10.26C22.4983 9.64107 22.3051 9.03781 21.9471 8.53294C21.589 8.02808 21.0835 7.64632 20.5 7.44001ZM16.5 6.26001C16.5 5.99479 16.6054 5.74044 16.7929 5.5529C16.9804 5.36537 17.2348 5.26001 17.5 5.26001C17.7652 5.26001 18.0196 5.36537 18.2071 5.5529C18.3946 5.74044 18.5 5.99479 18.5 6.26001V7.26001H16.5V6.26001ZM20.5 12.26C20.5 12.5252 20.3946 12.7796 20.2071 12.9671C20.0196 13.1547 19.7652 13.26 19.5 13.26H15.5C15.2348 13.26 14.9804 13.1547 14.7929 12.9671C14.6054 12.7796 14.5 12.5252 14.5 12.26V10.26C14.5 9.99479 14.6054 9.74044 14.7929 9.5529C14.9804 9.36537 15.2348 9.26001 15.5 9.26001H19.5C19.7652 9.26001 20.0196 9.36537 20.2071 9.5529C20.3946 9.74044 20.5 9.99479 20.5 10.26V12.26ZM20.5 17.26C20.2348 17.26 19.9804 17.3654 19.7929 17.5529C19.6054 17.7404 19.5 17.9948 19.5 18.26V19.26C19.5 19.5252 19.3946 19.7796 19.2071 19.9671C19.0196 20.1547 18.7652 20.26 18.5 20.26H4.5C4.23478 20.26 3.98043 20.1547 3.79289 19.9671C3.60536 19.7796 3.5 19.5252 3.5 19.26V9.67001L9.38 15.55C9.47258 15.6432 9.58262 15.7173 9.70384 15.7681C9.82505 15.8188 9.95507 15.8451 10.0865 15.8456C10.2179 15.846 10.3481 15.8206 10.4696 15.7708C10.5912 15.7209 10.7018 15.6476 10.795 15.555C10.8882 15.4624 10.9623 15.3524 11.013 15.2312C11.0638 15.11 11.0901 14.9799 11.0906 14.8485C11.091 14.7171 11.0656 14.587 11.0157 14.4654C10.9659 14.3438 10.8926 14.2332 10.8 14.14L4.91 8.26001H10.5C10.7652 8.26001 11.0196 8.15465 11.2071 7.96712C11.3946 7.77958 11.5 7.52523 11.5 7.26001C11.5 6.99479 11.3946 6.74044 11.2071 6.5529C11.0196 6.36537 10.7652 6.26001 10.5 6.26001H4.5C3.70435 6.26001 2.94129 6.57608 2.37868 7.13869C1.81607 7.7013 1.5 8.46436 1.5 9.26001V19.26C1.5 20.0557 1.81607 20.8187 2.37868 21.3813C2.94129 21.9439 3.70435 22.26 4.5 22.26H18.5C19.2956 22.26 20.0587 21.9439 20.6213 21.3813C21.1839 20.8187 21.5 20.0557 21.5 19.26V18.26C21.5 17.9948 21.3946 17.7404 21.2071 17.5529C21.0196 17.3654 20.7652 17.26 20.5 17.26Z" />
</svg>
