<svg width="24" height="24" viewBox="0 0 24 24" xmlns="http://www.w3.org/2000/svg">
<path d="M4.90994 13.1C5.00001 13.2441 5.12532 13.3629 5.27404 13.4451C5.42277 13.5273 5.58999 13.5703 5.75994 13.57C5.94491 13.5753 6.12772 13.5292 6.28803 13.4367C6.44834 13.3443 6.57987 13.2092 6.66797 13.0465C6.75607 12.8838 6.79729 12.6998 6.78705 12.515C6.7768 12.3303 6.71549 12.152 6.60994 12C5.30151 9.92185 4.45885 7.58492 4.13994 5.14998C4.11841 5.00564 4.12874 4.85833 4.1702 4.71839C4.21166 4.57846 4.28325 4.4493 4.37994 4.33998C4.47365 4.23331 4.589 4.14782 4.71832 4.0892C4.84764 4.03058 4.98795 4.00016 5.12994 3.99998H8.12994C8.36389 3.99527 8.59208 4.07274 8.7748 4.21891C8.95751 4.36509 9.08319 4.57071 9.12994 4.79998C9.12994 5.02998 9.20994 5.23998 9.25994 5.46998V5.59998C9.3763 6.12476 9.53344 6.63966 9.72994 7.13998L8.33994 7.79998C8.21983 7.85582 8.11202 7.93496 8.02275 8.03281C7.93349 8.13066 7.86455 8.24527 7.81994 8.36998C7.76905 8.49196 7.74286 8.62282 7.74286 8.75498C7.74286 8.88715 7.76905 9.018 7.81994 9.13998C7.91994 9.34998 8.01994 9.55998 8.13994 9.77998C8.20527 9.89457 8.29262 9.9951 8.39697 10.0758C8.50132 10.1565 8.62059 10.2157 8.74794 10.2501C8.87528 10.2845 9.00816 10.2934 9.13894 10.2762C9.26972 10.259 9.39581 10.2161 9.50994 10.15C9.67335 10.0563 9.80698 9.91836 9.89544 9.75206C9.9839 9.58576 10.0236 9.39785 10.0099 9.20998L10.5799 8.99998C11.0323 8.79159 11.3907 8.42188 11.5849 7.9632C11.7791 7.50452 11.7952 6.98988 11.6299 6.51998C11.4685 6.09673 11.3381 5.66224 11.2399 5.21998V5.11998C11.2399 4.91998 11.1599 4.71998 11.1299 4.53998C11.02 3.83159 10.6601 3.18597 10.1153 2.72004C9.57045 2.25411 8.87681 1.99867 8.15994 1.99998H5.15994C4.73046 1.99373 4.30466 2.07978 3.91131 2.2523C3.51796 2.42482 3.16624 2.6798 2.87994 2.99998C2.59539 3.32332 2.38381 3.70414 2.25957 4.11655C2.13533 4.52895 2.10135 4.96327 2.15994 5.38998C2.50709 8.12889 3.44542 10.7596 4.90994 13.1ZM19.5199 12.89L18.9199 12.78H18.8399C18.3875 12.6832 17.943 12.5528 17.5099 12.39C17.0473 12.224 16.5397 12.2343 16.0841 12.4187C15.6286 12.6032 15.2568 12.9489 15.0399 13.39L14.8299 13.85C14.1478 13.4554 13.5049 12.9967 12.9099 12.48L21.7099 3.68998C21.8032 3.59674 21.8771 3.48605 21.9276 3.36423C21.9781 3.24241 22.004 3.11184 22.004 2.97998C22.004 2.84812 21.9781 2.71756 21.9276 2.59573C21.8771 2.47391 21.8032 2.36322 21.7099 2.26998C21.6167 2.17674 21.506 2.10278 21.3842 2.05232C21.2624 2.00186 21.1318 1.97589 20.9999 1.97589C20.8681 1.97589 20.7375 2.00186 20.6157 2.05232C20.4939 2.10278 20.3832 2.17674 20.2899 2.26998L2.28994 20.27C2.19621 20.3629 2.12182 20.4735 2.07105 20.5954C2.02028 20.7173 1.99414 20.848 1.99414 20.98C1.99414 21.112 2.02028 21.2427 2.07105 21.3646C2.12182 21.4864 2.19621 21.597 2.28994 21.69C2.3829 21.7837 2.4935 21.8581 2.61536 21.9089C2.73722 21.9596 2.86793 21.9858 2.99994 21.9858C3.13195 21.9858 3.26266 21.9596 3.38452 21.9089C3.50637 21.8581 3.61698 21.7837 3.70994 21.69L8.29994 17.09C11.1725 19.6712 14.7605 21.3204 18.5899 21.82C18.7231 21.8299 18.8568 21.8299 18.9899 21.82C19.726 21.8238 20.4379 21.5569 20.9899 21.07C21.3063 20.787 21.559 20.4402 21.7314 20.0523C21.9038 19.6644 21.9919 19.2444 21.9899 18.82V15.82C21.9846 15.1202 21.7348 14.4443 21.2837 13.9092C20.8327 13.3741 20.2088 13.0136 19.5199 12.89ZM19.9999 18.89C19.9998 19.032 19.9693 19.1723 19.9107 19.3016C19.8521 19.4309 19.7666 19.5463 19.6599 19.64C19.5506 19.7367 19.4215 19.8083 19.2815 19.8497C19.1416 19.8912 18.9943 19.9015 18.8499 19.88C15.4528 19.4355 12.2681 17.979 9.70994 15.7L11.4799 13.93C12.4995 14.8187 13.6369 15.5624 14.8599 16.14C14.9819 16.1909 15.1128 16.2171 15.2449 16.2171C15.3771 16.2171 15.508 16.1909 15.6299 16.14C15.7547 16.0954 15.8693 16.0264 15.9671 15.9372C16.065 15.8479 16.1441 15.7401 16.1999 15.62L16.8199 14.21C17.3417 14.4036 17.8764 14.5606 18.4199 14.68H18.5299L19.2199 14.81C19.4455 14.8608 19.6465 14.9882 19.7887 15.1705C19.931 15.3528 20.0056 15.5788 19.9999 15.81V18.89Z" />
</svg>
