<svg width="24" height="24" viewBox="0 0 24 24" xmlns="http://www.w3.org/2000/svg">
<path d="M11.29 8.78998C11.383 8.88371 11.4936 8.95811 11.6154 9.00887C11.7373 9.05964 11.868 9.08578 12 9.08578C12.132 9.08578 12.2627 9.05964 12.3846 9.00887C12.5064 8.95811 12.617 8.88371 12.71 8.78998L14.71 6.78998C14.8963 6.60262 15.0008 6.34917 15.0008 6.08498C15.0008 5.8208 14.8963 5.56735 14.71 5.37998C14.617 5.28625 14.5064 5.21186 14.3846 5.16109C14.2627 5.11032 14.132 5.08418 14 5.08418C13.868 5.08418 13.7373 5.11032 13.6154 5.16109C13.4936 5.21186 13.383 5.28625 13.29 5.37998L13 5.66998V2.91998C13 2.65477 12.8946 2.40041 12.7071 2.21288C12.5196 2.02534 12.2652 1.91998 12 1.91998C11.7348 1.91998 11.4804 2.02534 11.2929 2.21288C11.1054 2.40041 11 2.65477 11 2.91998V5.66998L10.71 5.37998C10.617 5.28625 10.5064 5.21186 10.3846 5.16109C10.2627 5.11032 10.132 5.08418 10 5.08418C9.86799 5.08418 9.73728 5.11032 9.61542 5.16109C9.49356 5.21186 9.38296 5.28625 9.29 5.37998C9.10375 5.56735 8.99921 5.8208 8.99921 6.08498C8.99921 6.34917 9.10375 6.60262 9.29 6.78998L11.29 8.78998ZM16 11.08H8C7.20435 11.08 6.44129 11.3961 5.87868 11.9587C5.31607 12.5213 5 13.2843 5 14.08V19.08C5 19.8756 5.31607 20.6387 5.87868 21.2013C6.44129 21.7639 7.20435 22.08 8 22.08H16C16.7956 22.08 17.5587 21.7639 18.1213 21.2013C18.6839 20.6387 19 19.8756 19 19.08V14.08C19 13.2843 18.6839 12.5213 18.1213 11.9587C17.5587 11.3961 16.7956 11.08 16 11.08ZM15.58 13.08L12.7 16C12.5131 16.1832 12.2618 16.2858 12 16.2858C11.7382 16.2858 11.4869 16.1832 11.3 16L8.42 13.08H15.58ZM17 19.08C17 19.3452 16.8946 19.5996 16.7071 19.7871C16.5196 19.9746 16.2652 20.08 16 20.08H8C7.73478 20.08 7.48043 19.9746 7.29289 19.7871C7.10536 19.5996 7 19.3452 7 19.08V14.49L9.88 17.37C10.4425 17.9318 11.205 18.2473 12 18.2473C12.795 18.2473 13.5575 17.9318 14.12 17.37L17 14.49V19.08Z" />
</svg>
