<svg width="24" height="24" viewBox="0 0 24 24" xmlns="http://www.w3.org/2000/svg">
<path d="M20.5 14.26C20.2348 14.26 19.9804 14.3654 19.7929 14.5529C19.6054 14.7404 19.5 14.9948 19.5 15.26V19.26C19.5 19.5252 19.3946 19.7796 19.2071 19.9671C19.0196 20.1547 18.7652 20.26 18.5 20.26H4.5C4.23478 20.26 3.98043 20.1547 3.79289 19.9671C3.60536 19.7796 3.5 19.5252 3.5 19.26V9.67001L9.38 15.55C9.93962 16.1103 10.6981 16.4267 11.49 16.43C11.8927 16.4311 12.2915 16.351 12.6625 16.1947C13.0336 16.0383 13.3695 15.8089 13.65 15.52C13.8302 15.3335 13.931 15.0843 13.931 14.825C13.931 14.5657 13.8302 14.3165 13.65 14.13C13.5569 14.0348 13.4456 13.9591 13.3229 13.9074C13.2001 13.8558 13.0682 13.8291 12.935 13.8291C12.8018 13.8291 12.6699 13.8558 12.5471 13.9074C12.4244 13.9591 12.3131 14.0348 12.22 14.13C12.0331 14.3132 11.7818 14.4159 11.52 14.4159C11.2582 14.4159 11.0069 14.3132 10.82 14.13L4.91 8.26001H9.5C9.76522 8.26001 10.0196 8.15465 10.2071 7.96712C10.3946 7.77958 10.5 7.52523 10.5 7.26001C10.5 6.99479 10.3946 6.74044 10.2071 6.5529C10.0196 6.36537 9.76522 6.26001 9.5 6.26001H4.5C3.70435 6.26001 2.94129 6.57608 2.37868 7.13869C1.81607 7.7013 1.5 8.46436 1.5 9.26001V19.26C1.5 20.0557 1.81607 20.8187 2.37868 21.3813C2.94129 21.9439 3.70435 22.26 4.5 22.26H18.5C19.2956 22.26 20.0587 21.9439 20.6213 21.3813C21.1839 20.8187 21.5 20.0557 21.5 19.26V15.26C21.5 14.9948 21.3946 14.7404 21.2071 14.5529C21.0196 14.3654 20.7652 14.26 20.5 14.26ZM21.5 3.26001C21.2348 3.26001 20.9804 3.36537 20.7929 3.5529C20.6054 3.74044 20.5 3.99479 20.5 4.26001C19.8662 3.78465 19.1285 3.46672 18.3477 3.33239C17.5669 3.19807 16.7654 3.25122 16.0092 3.48744C15.2529 3.72367 14.5637 4.13622 13.9982 4.69109C13.4327 5.24596 13.0071 5.92727 12.7566 6.67887C12.506 7.43047 12.4377 8.23085 12.5572 9.01405C12.6767 9.79725 12.9805 10.5408 13.4438 11.1836C13.907 11.8263 14.5164 12.3497 15.2216 12.7107C15.9268 13.0717 16.7077 13.26 17.5 13.26C18.7167 13.2555 19.8899 12.8075 20.8 12C21.0002 11.825 21.1227 11.5775 21.1406 11.3122C21.1584 11.0468 21.07 10.7852 20.895 10.585C20.72 10.3848 20.4725 10.2623 20.2072 10.2445C19.9418 10.2266 19.6802 10.315 19.48 10.49C19.0362 10.8835 18.4858 11.1366 17.8983 11.2173C17.3108 11.2981 16.7125 11.2029 16.179 10.9438C15.6456 10.6847 15.2009 10.2733 14.9011 9.76157C14.6014 9.24983 14.46 8.66074 14.4949 8.06871C14.5298 7.47668 14.7394 6.90827 15.0972 6.43531C15.455 5.96235 15.945 5.60605 16.5052 5.41143C17.0654 5.21681 17.6708 5.19259 18.2447 5.34185C18.8187 5.49111 19.3356 5.80714 19.73 6.25001H18.5C18.2348 6.25001 17.9804 6.35537 17.7929 6.5429C17.6054 6.73044 17.5 6.98479 17.5 7.25001C17.5 7.51523 17.6054 7.76958 17.7929 7.95712C17.9804 8.14465 18.2348 8.25001 18.5 8.25001H21.5C21.7652 8.25001 22.0196 8.14465 22.2071 7.95712C22.3946 7.76958 22.5 7.51523 22.5 7.25001V4.25001C22.4974 3.98653 22.3908 3.73474 22.2036 3.54936C22.0163 3.36398 21.7635 3.26 21.5 3.26001Z" />
</svg>
