<svg width="24" height="24" viewBox="0 0 24 24" xmlns="http://www.w3.org/2000/svg">
<path d="M8.29 6.21L10.29 8.21C10.383 8.30373 10.4936 8.37812 10.6154 8.42889C10.7373 8.47966 10.868 8.5058 11 8.5058C11.132 8.5058 11.2627 8.47966 11.3846 8.42889C11.5064 8.37812 11.617 8.30373 11.71 8.21C11.8037 8.11704 11.8781 8.00644 11.9289 7.88458C11.9797 7.76272 12.0058 7.63201 12.0058 7.5C12.0058 7.36799 11.9797 7.23728 11.9289 7.11543C11.8781 6.99357 11.8037 6.88297 11.71 6.79L11.41 6.5H15C15.2652 6.5 15.5196 6.39465 15.7071 6.20711C15.8946 6.01957 16 5.76522 16 5.5C16 5.23479 15.8946 4.98043 15.7071 4.7929C15.5196 4.60536 15.2652 4.5 15 4.5H11.41L11.71 4.21C11.8032 4.11676 11.8772 4.00607 11.9277 3.88425C11.9781 3.76243 12.0041 3.63186 12.0041 3.5C12.0041 3.36814 11.9781 3.23758 11.9277 3.11575C11.8772 2.99393 11.8032 2.88324 11.71 2.79C11.6168 2.69676 11.5061 2.6228 11.3842 2.57234C11.2624 2.52188 11.1319 2.49591 11 2.49591C10.8681 2.49591 10.7376 2.52188 10.6158 2.57234C10.4939 2.6228 10.3832 2.69676 10.29 2.79L8.29 4.79C8.19896 4.88511 8.12759 4.99725 8.08 5.12C7.97998 5.36346 7.97998 5.63654 8.08 5.88C8.12759 6.00275 8.19896 6.1149 8.29 6.21ZM16 10.5H8C7.20435 10.5 6.44129 10.8161 5.87868 11.3787C5.31607 11.9413 5 12.7044 5 13.5V18.5C5 19.2957 5.31607 20.0587 5.87868 20.6213C6.44129 21.1839 7.20435 21.5 8 21.5H16C16.7956 21.5 17.5587 21.1839 18.1213 20.6213C18.6839 20.0587 19 19.2957 19 18.5V13.5C19 12.7044 18.6839 11.9413 18.1213 11.3787C17.5587 10.8161 16.7956 10.5 16 10.5ZM15.58 12.5L12.7 15.38C12.5131 15.5632 12.2618 15.6659 12 15.6659C11.7382 15.6659 11.4869 15.5632 11.3 15.38L8.42 12.5H15.58ZM17 18.5C17 18.7652 16.8946 19.0196 16.7071 19.2071C16.5196 19.3946 16.2652 19.5 16 19.5H8C7.73478 19.5 7.48043 19.3946 7.29289 19.2071C7.10536 19.0196 7 18.7652 7 18.5V13.91L9.88 16.78C10.1555 17.0632 10.4851 17.2879 10.8494 17.4408C11.2136 17.5938 11.605 17.6717 12 17.67C12.7954 17.6693 13.5579 17.3528 14.12 16.79L17 13.91V18.5Z" />
</svg>
