<svg width="24" height="24" viewBox="0 0 24 24" xmlns="http://www.w3.org/2000/svg">
<path d="M16 11.08H8C7.20435 11.08 6.44129 11.3961 5.87868 11.9587C5.31607 12.5213 5 13.2843 5 14.08V19.08C5 19.8756 5.31607 20.6387 5.87868 21.2013C6.44129 21.7639 7.20435 22.08 8 22.08H16C16.7956 22.08 17.5587 21.7639 18.1213 21.2013C18.6839 20.6387 19 19.8756 19 19.08V14.08C19 13.2843 18.6839 12.5213 18.1213 11.9587C17.5587 11.3961 16.7956 11.08 16 11.08ZM15.58 13.08L12.7 16C12.5131 16.1832 12.2618 16.2858 12 16.2858C11.7382 16.2858 11.4869 16.1832 11.3 16L8.42 13.08H15.58ZM17 19.08C17 19.3452 16.8946 19.5996 16.7071 19.7871C16.5196 19.9746 16.2652 20.08 16 20.08H8C7.73478 20.08 7.48043 19.9746 7.29289 19.7871C7.10536 19.5996 7 19.3452 7 19.08V14.49L9.88 17.37C10.4425 17.9318 11.205 18.2473 12 18.2473C12.795 18.2473 13.5575 17.9318 14.12 17.37L17 14.49V19.08ZM10.71 5.61998L11 5.32998V8.07998C11 8.3452 11.1054 8.59955 11.2929 8.78709C11.4804 8.97463 11.7348 9.07998 12 9.07998C12.2652 9.07998 12.5196 8.97463 12.7071 8.78709C12.8946 8.59955 13 8.3452 13 8.07998V5.32998L13.29 5.61998C13.3826 5.71322 13.4926 5.78731 13.6138 5.83802C13.7351 5.88873 13.8651 5.91507 13.9965 5.91554C14.1279 5.916 14.2581 5.89058 14.3796 5.84073C14.5012 5.79088 14.6118 5.71756 14.705 5.62498C14.7982 5.5324 14.8723 5.42236 14.923 5.30115C14.9738 5.17993 15.0001 5.04991 15.0006 4.91852C15.001 4.78712 14.9756 4.65692 14.9257 4.53535C14.8759 4.41378 14.8026 4.30322 14.71 4.20998L12.71 2.20998C12.617 2.11625 12.5064 2.04186 12.3846 1.99109C12.2627 1.94032 12.132 1.91418 12 1.91418C11.868 1.91418 11.7373 1.94032 11.6154 1.99109C11.4936 2.04186 11.383 2.11625 11.29 2.20998L9.29 4.20998C9.10375 4.39735 8.99921 4.6508 8.99921 4.91498C8.99921 5.17917 9.10375 5.43262 9.29 5.61998C9.38296 5.71371 9.49356 5.78811 9.61542 5.83887C9.73728 5.88964 9.86799 5.91578 10 5.91578C10.132 5.91578 10.2627 5.88964 10.3846 5.83887C10.5064 5.78811 10.617 5.71371 10.71 5.61998Z" />
</svg>
