<svg width="24" height="24" viewBox="0 0 24 24" xmlns="http://www.w3.org/2000/svg">
<path d="M1 12.5V16.5C1 16.7652 1.10536 17.0196 1.29289 17.2071C1.48043 17.3946 1.73478 17.5 2 17.5H3C3 18.2956 3.31607 19.0587 3.87868 19.6213C4.44129 20.1839 5.20435 20.5 6 20.5C6.79565 20.5 7.55871 20.1839 8.12132 19.6213C8.68393 19.0587 9 18.2956 9 17.5H15C15 18.2956 15.3161 19.0587 15.8787 19.6213C16.4413 20.1839 17.2044 20.5 18 20.5C18.7956 20.5 19.5587 20.1839 20.1213 19.6213C20.6839 19.0587 21 18.2956 21 17.5H22C22.2652 17.5 22.5196 17.3946 22.7071 17.2071C22.8946 17.0196 23 16.7652 23 16.5V6.5C23 5.70435 22.6839 4.94129 22.1213 4.37868C21.5587 3.81607 20.7956 3.5 20 3.5H8.44C7.81155 3.50118 7.19933 3.69968 6.68977 4.06751C6.1802 4.43533 5.79901 4.95389 5.6 5.55L4.16 9.86L1.45 11.67C1.31244 11.7606 1.19938 11.8838 1.12088 12.0285C1.04238 12.1733 1.00085 12.3353 1 12.5ZM21 9.5H19V5.5H20C20.2652 5.5 20.5196 5.60536 20.7071 5.79289C20.8946 5.98043 21 6.23478 21 6.5V9.5ZM17 17.5C17 17.3022 17.0586 17.1089 17.1685 16.9444C17.2784 16.78 17.4346 16.6518 17.6173 16.5761C17.8 16.5004 18.0011 16.4806 18.1951 16.5192C18.3891 16.5578 18.5673 16.653 18.7071 16.7929C18.847 16.9327 18.9422 17.1109 18.9808 17.3049C19.0194 17.4989 18.9996 17.7 18.9239 17.8827C18.8482 18.0654 18.72 18.2216 18.5556 18.3315C18.3911 18.4414 18.1978 18.5 18 18.5C17.7348 18.5 17.4804 18.3946 17.2929 18.2071C17.1054 18.0196 17 17.7652 17 17.5ZM15 11.5H21V15.5H20.22C19.9388 15.1906 19.5961 14.9435 19.2138 14.7743C18.8315 14.6052 18.418 14.5178 18 14.5178C17.582 14.5178 17.1685 14.6052 16.7862 14.7743C16.4039 14.9435 16.0612 15.1906 15.78 15.5H15V11.5ZM15 5.5H17V9.5H15V5.5ZM11 11.5H13V15.5H11V11.5ZM11 5.5H13V9.5H11V5.5ZM9 9.5H6.39L7.49 6.18C7.55709 5.98138 7.6849 5.80887 7.85537 5.68684C8.02584 5.56482 8.23036 5.49946 8.44 5.5H9V9.5ZM5 17.5C5 17.3022 5.05865 17.1089 5.16853 16.9444C5.27841 16.78 5.43459 16.6518 5.61732 16.5761C5.80004 16.5004 6.00111 16.4806 6.19509 16.5192C6.38907 16.5578 6.56725 16.653 6.70711 16.7929C6.84696 16.9327 6.9422 17.1109 6.98079 17.3049C7.01937 17.4989 6.99957 17.7 6.92388 17.8827C6.84819 18.0654 6.72002 18.2216 6.55557 18.3315C6.39112 18.4414 6.19778 18.5 6 18.5C5.73478 18.5 5.48043 18.3946 5.29289 18.2071C5.10536 18.0196 5 17.7652 5 17.5ZM3 13L5.3 11.5H9V15.5H8.22C7.93882 15.1906 7.59609 14.9435 7.21378 14.7743C6.83148 14.6052 6.41805 14.5178 6 14.5178C5.58195 14.5178 5.16852 14.6052 4.78622 14.7743C4.40391 14.9435 4.06118 15.1906 3.78 15.5H3V13Z" />
</svg>
