<svg width="24" height="24" viewBox="0 0 24 24" xmlns="http://www.w3.org/2000/svg">
<path d="M8.5 17C8.76522 17 9.01957 16.8946 9.20711 16.7071C9.39464 16.5196 9.5 16.2652 9.5 16C9.50491 15.9334 9.50491 15.8666 9.5 15.8C9.48905 15.7374 9.46883 15.6767 9.44 15.62C9.41811 15.5563 9.38785 15.4957 9.35 15.44L9.23 15.29C9.1349 15.199 9.02275 15.1276 8.9 15.08C8.71307 14.992 8.50346 14.964 8.3 15L8.12 15.06L7.94 15.15C7.88761 15.1869 7.83752 15.227 7.79 15.27L7.67 15.42C7.63215 15.4757 7.60189 15.5363 7.58 15.6C7.55117 15.6567 7.53095 15.7174 7.52 15.78C7.51509 15.8466 7.51509 15.9134 7.52 15.98C7.52 16.2452 7.62536 16.4996 7.81289 16.6871C8.00043 16.8746 8.25478 16.98 8.52 16.98L8.5 17ZM16.5 17C16.7652 17 17.0196 16.8946 17.2071 16.7071C17.3946 16.5196 17.5 16.2652 17.5 16C17.5049 15.9334 17.5049 15.8666 17.5 15.8C17.4891 15.7374 17.4688 15.6767 17.44 15.62C17.4181 15.5563 17.3878 15.4957 17.35 15.44L17.23 15.29C17.1328 15.2017 17.0212 15.1306 16.9 15.08C16.6565 14.98 16.3835 14.98 16.14 15.08C16.0188 15.1306 15.9072 15.2017 15.81 15.29L15.69 15.44C15.6522 15.4957 15.6219 15.5563 15.6 15.62C15.5712 15.6767 15.5509 15.7374 15.54 15.8C15.5351 15.8666 15.5351 15.9334 15.54 16C15.5411 16.2623 15.6453 16.5137 15.83 16.7C16.0072 16.8813 16.2467 16.9886 16.5 17ZM13.5 5H11.5C11.2348 5 10.9804 5.10536 10.7929 5.29289C10.6054 5.48043 10.5 5.73478 10.5 6C10.5 6.26522 10.6054 6.51957 10.7929 6.70711C10.9804 6.89464 11.2348 7 11.5 7H13.5C13.7652 7 14.0196 6.89464 14.2071 6.70711C14.3946 6.51957 14.5 6.26522 14.5 6C14.5 5.73478 14.3946 5.48043 14.2071 5.29289C14.0196 5.10536 13.7652 5 13.5 5ZM18.5 2H6.5C5.70435 2 4.94129 2.31607 4.37868 2.87868C3.81607 3.44129 3.5 4.20435 3.5 5V17C3.50174 17.6189 3.69488 18.2222 4.05294 18.7271C4.411 19.2319 4.91645 19.6137 5.5 19.82V21C5.5 21.2652 5.60536 21.5196 5.79289 21.7071C5.98043 21.8946 6.23478 22 6.5 22C6.76522 22 7.01957 21.8946 7.20711 21.7071C7.39464 21.5196 7.5 21.2652 7.5 21V20H17.5V21C17.5 21.2652 17.6054 21.5196 17.7929 21.7071C17.9804 21.8946 18.2348 22 18.5 22C18.7652 22 19.0196 21.8946 19.2071 21.7071C19.3946 21.5196 19.5 21.2652 19.5 21V19.82C20.0835 19.6137 20.589 19.2319 20.9471 18.7271C21.3051 18.2222 21.4983 17.6189 21.5 17V5C21.5 4.20435 21.1839 3.44129 20.6213 2.87868C20.0587 2.31607 19.2956 2 18.5 2ZM19.5 17C19.5 17.2652 19.3946 17.5196 19.2071 17.7071C19.0196 17.8946 18.7652 18 18.5 18H6.5C6.23478 18 5.98043 17.8946 5.79289 17.7071C5.60536 17.5196 5.5 17.2652 5.5 17V14H19.5V17ZM19.5 12H5.5V5C5.5 4.73478 5.60536 4.48043 5.79289 4.29289C5.98043 4.10536 6.23478 4 6.5 4H18.5C18.7652 4 19.0196 4.10536 19.2071 4.29289C19.3946 4.48043 19.5 4.73478 19.5 5V12Z" />
</svg>
