<svg width="24" height="24" viewBox="0 0 24 24" xmlns="http://www.w3.org/2000/svg">
<path d="M17.38 14.58C17.1969 14.5028 16.995 14.4819 16.8 14.52C16.7374 14.5309 16.6767 14.5512 16.62 14.58C16.5563 14.6019 16.4957 14.6322 16.44 14.67L16.29 14.79C16.1073 14.9816 16.0037 15.2352 16 15.5C15.9992 15.6316 16.0245 15.7621 16.0742 15.8839C16.124 16.0057 16.1973 16.1166 16.29 16.21C16.3869 16.3013 16.4985 16.3756 16.62 16.43C16.8031 16.5053 17.0044 16.5246 17.1984 16.4855C17.3924 16.4463 17.5705 16.3504 17.71 16.21C17.7983 16.1128 17.8694 16.0012 17.92 15.88C17.976 15.7613 18.0034 15.6312 18 15.5C17.9963 15.2352 17.8927 14.9816 17.71 14.79C17.6161 14.6974 17.5036 14.6258 17.38 14.58ZM20 10.68V7.5C20 6.70435 19.6839 5.94129 19.1213 5.37868C18.5587 4.81607 17.7956 4.5 17 4.5H16.22L15.45 2.18C15.3829 1.98138 15.2551 1.80887 15.0846 1.68685C14.9142 1.56482 14.7096 1.49946 14.5 1.5H9.5C9.29036 1.49946 9.08584 1.56482 8.91537 1.68685C8.7449 1.80887 8.61709 1.98138 8.55 2.18L7.78 4.5H7C6.20435 4.5 5.44129 4.81607 4.87868 5.37868C4.31607 5.94129 4 6.70435 4 7.5V10.68C3.41645 10.8863 2.911 11.2681 2.55294 11.7729C2.19488 12.2778 2.00174 12.8811 2 13.5V19.5C2 19.7652 2.10536 20.0196 2.29289 20.2071C2.48043 20.3946 2.73478 20.5 3 20.5H4V21.5C4 21.7652 4.10536 22.0196 4.29289 22.2071C4.48043 22.3946 4.73478 22.5 5 22.5C5.26522 22.5 5.51957 22.3946 5.70711 22.2071C5.89464 22.0196 6 21.7652 6 21.5V20.5H18V21.5C18 21.7652 18.1054 22.0196 18.2929 22.2071C18.4804 22.3946 18.7348 22.5 19 22.5C19.2652 22.5 19.5196 22.3946 19.7071 22.2071C19.8946 22.0196 20 21.7652 20 21.5V20.5H21C21.2652 20.5 21.5196 20.3946 21.7071 20.2071C21.8946 20.0196 22 19.7652 22 19.5V13.5C21.9983 12.8811 21.8051 12.2778 21.4471 11.7729C21.089 11.2681 20.5835 10.8863 20 10.68ZM10.22 3.5H13.78L14.11 4.5H9.89L10.22 3.5ZM6 7.5C6 7.23479 6.10536 6.98043 6.29289 6.7929C6.48043 6.60536 6.73478 6.5 7 6.5H17C17.2652 6.5 17.5196 6.60536 17.7071 6.7929C17.8946 6.98043 18 7.23479 18 7.5V10.5H6V7.5ZM20 18.5H4V13.5C4 13.2348 4.10536 12.9804 4.29289 12.7929C4.48043 12.6054 4.73478 12.5 5 12.5H19C19.2652 12.5 19.5196 12.6054 19.7071 12.7929C19.8946 12.9804 20 13.2348 20 13.5V18.5ZM6.62 14.58C6.49725 14.6276 6.3851 14.699 6.29 14.79C6.10727 14.9816 6.00368 15.2352 6 15.5C5.99917 15.6646 6.03901 15.8269 6.11596 15.9725C6.19291 16.118 6.30461 16.2423 6.44113 16.3343C6.57766 16.4263 6.73478 16.4832 6.89857 16.4999C7.06235 16.5166 7.22772 16.4926 7.38 16.43C7.50153 16.3756 7.61308 16.3013 7.71 16.21C7.80268 16.1166 7.87601 16.0057 7.92577 15.8839C7.97554 15.7621 8.00076 15.6316 8 15.5C7.99632 15.2352 7.89273 14.9816 7.71 14.79C7.56938 14.6512 7.3908 14.5572 7.19681 14.5199C7.00282 14.4825 6.80211 14.5034 6.62 14.58ZM13 14.5H11C10.7348 14.5 10.4804 14.6054 10.2929 14.7929C10.1054 14.9804 10 15.2348 10 15.5C10 15.7652 10.1054 16.0196 10.2929 16.2071C10.4804 16.3946 10.7348 16.5 11 16.5H13C13.2652 16.5 13.5196 16.3946 13.7071 16.2071C13.8946 16.0196 14 15.7652 14 15.5C14 15.2348 13.8946 14.9804 13.7071 14.7929C13.5196 14.6054 13.2652 14.5 13 14.5Z" />
</svg>
