<svg width="24" height="24" viewBox="0 0 24 24" xmlns="http://www.w3.org/2000/svg">
<path d="M14.66 13.56L10.47 15.06C10.2498 15.1399 10.0646 15.2945 9.94677 15.497C9.82893 15.6994 9.78589 15.9368 9.82517 16.1678C9.86446 16.3987 9.98356 16.6085 10.1617 16.7606C10.3399 16.9127 10.5658 16.9974 10.8 17C10.916 16.9999 11.031 16.9796 11.14 16.94L15.34 15.44C15.467 15.3981 15.5842 15.3312 15.6849 15.2431C15.7855 15.1551 15.8675 15.0478 15.926 14.9276C15.9844 14.8073 16.0182 14.6766 16.0252 14.5431C16.0323 14.4095 16.0125 14.276 15.967 14.1502C15.9215 14.0245 15.8513 13.9092 15.7604 13.8111C15.6696 13.7129 15.56 13.634 15.4382 13.579C15.3163 13.524 15.1847 13.4939 15.051 13.4907C14.9174 13.4874 14.7844 13.511 14.66 13.56ZM10.66 8.56C10.4726 8.37375 10.2192 8.26921 9.955 8.26921C9.69082 8.26921 9.43737 8.37375 9.25 8.56C9.15704 8.65373 9.04644 8.72812 8.92458 8.77889C8.80272 8.82966 8.67202 8.8558 8.54 8.8558C8.40799 8.8558 8.27729 8.82966 8.15543 8.77889C8.03357 8.72812 7.92297 8.65373 7.83 8.56C7.64264 8.37375 7.38919 8.26921 7.125 8.26921C6.86082 8.26921 6.60737 8.37375 6.42 8.56C6.32628 8.65296 6.25188 8.76356 6.20111 8.88542C6.15034 9.00728 6.12421 9.13799 6.12421 9.27C6.12421 9.40201 6.15034 9.53272 6.20111 9.65458C6.25188 9.77644 6.32628 9.88704 6.42 9.98C6.98251 10.5418 7.745 10.8574 8.54 10.8574C9.33501 10.8574 10.0975 10.5418 10.66 9.98C10.7542 9.88405 10.8282 9.77008 10.8773 9.64491C10.9265 9.51974 10.9499 9.38593 10.9462 9.25149C10.9425 9.11706 10.9117 8.98476 10.8556 8.86251C10.7996 8.74026 10.7194 8.63057 10.62 8.54L10.66 8.56ZM17.66 8.56C17.4726 8.37375 17.2192 8.26921 16.955 8.26921C16.6908 8.26921 16.4374 8.37375 16.25 8.56C16.157 8.65373 16.0464 8.72812 15.9246 8.77889C15.8027 8.82966 15.672 8.8558 15.54 8.8558C15.408 8.8558 15.2773 8.82966 15.1554 8.77889C15.0336 8.72812 14.923 8.65373 14.83 8.56C14.6426 8.37375 14.3892 8.26921 14.125 8.26921C13.8608 8.26921 13.6074 8.37375 13.42 8.56C13.3263 8.65296 13.2519 8.76356 13.2011 8.88542C13.1503 9.00728 13.1242 9.13799 13.1242 9.27C13.1242 9.40201 13.1503 9.53272 13.2011 9.65458C13.2519 9.77644 13.3263 9.88704 13.42 9.98C13.9825 10.5418 14.745 10.8574 15.54 10.8574C16.335 10.8574 17.0975 10.5418 17.66 9.98C17.7542 9.88405 17.8282 9.77008 17.8773 9.64491C17.9265 9.51974 17.9499 9.38593 17.9462 9.25149C17.9425 9.11706 17.9117 8.98476 17.8556 8.86251C17.7996 8.74026 17.7194 8.63057 17.62 8.54L17.66 8.56ZM12 2C10.0222 2 8.08879 2.58649 6.4443 3.6853C4.79981 4.78412 3.51809 6.3459 2.76121 8.17317C2.00433 10.0004 1.8063 12.0111 2.19215 13.9509C2.578 15.8907 3.53041 17.6725 4.92894 19.0711C6.32746 20.4696 8.10929 21.422 10.0491 21.8079C11.9889 22.1937 13.9996 21.9957 15.8268 21.2388C17.6541 20.4819 19.2159 19.2002 20.3147 17.5557C21.4135 15.9112 22 13.9778 22 12C22 10.6868 21.7413 9.38642 21.2388 8.17317C20.7363 6.95991 19.9997 5.85752 19.0711 4.92893C18.1425 4.00035 17.0401 3.26375 15.8268 2.7612C14.6136 2.25866 13.3132 2 12 2ZM12 20C10.4178 20 8.87104 19.5308 7.55544 18.6518C6.23985 17.7727 5.21447 16.5233 4.60897 15.0615C4.00347 13.5997 3.84504 11.9911 4.15372 10.4393C4.4624 8.88743 5.22433 7.46197 6.34315 6.34315C7.46197 5.22433 8.88743 4.4624 10.4393 4.15372C11.9911 3.84504 13.5997 4.00346 15.0615 4.60896C16.5233 5.21447 17.7727 6.23984 18.6518 7.55544C19.5308 8.87103 20 10.4177 20 12C20 14.1217 19.1572 16.1566 17.6569 17.6569C16.1566 19.1571 14.1217 20 12 20Z" />
</svg>
