<svg width="24" height="24" viewBox="0 0 24 24" xmlns="http://www.w3.org/2000/svg">
<path d="M9.21 10.54C9.39737 10.7263 9.65082 10.8308 9.915 10.8308C10.1792 10.8308 10.4326 10.7263 10.62 10.54C10.8063 10.3526 10.9108 10.0992 10.9108 9.835C10.9108 9.57081 10.8063 9.31736 10.62 9.13C10.0477 8.58699 9.2889 8.28428 8.5 8.28428C7.71111 8.28428 6.95228 8.58699 6.38 9.13C6.27532 9.21965 6.1903 9.32997 6.13028 9.45403C6.07026 9.57809 6.03653 9.71323 6.03121 9.85095C6.02589 9.98867 6.04909 10.126 6.09937 10.2543C6.14964 10.3826 6.2259 10.4992 6.32335 10.5967C6.42081 10.6941 6.53736 10.7704 6.66568 10.8206C6.79401 10.8709 6.93134 10.8941 7.06906 10.8888C7.20678 10.8835 7.34191 10.8497 7.46597 10.7897C7.59004 10.7297 7.70036 10.6447 7.79 10.54C7.88297 10.4463 7.99357 10.3719 8.11543 10.3211C8.23729 10.2703 8.36799 10.2442 8.5 10.2442C8.63202 10.2442 8.76272 10.2703 8.88458 10.3211C9.00644 10.3719 9.11704 10.4463 9.21 10.54ZM15 14H9C8.73479 14 8.48043 14.1054 8.2929 14.2929C8.10536 14.4804 8 14.7348 8 15C8 15.2652 8.10536 15.5196 8.2929 15.7071C8.48043 15.8946 8.73479 16 9 16H15C15.2652 16 15.5196 15.8946 15.7071 15.7071C15.8946 15.5196 16 15.2652 16 15C16 14.7348 15.8946 14.4804 15.7071 14.2929C15.5196 14.1054 15.2652 14 15 14ZM17.62 9.13C17.0477 8.58699 16.2889 8.28428 15.5 8.28428C14.7111 8.28428 13.9523 8.58699 13.38 9.13C13.2162 9.3213 13.1306 9.56738 13.1403 9.81905C13.15 10.0707 13.2543 10.3095 13.4324 10.4876C13.6105 10.6657 13.8493 10.77 14.101 10.7797C14.3526 10.7894 14.5987 10.7038 14.79 10.54C14.883 10.4463 14.9936 10.3719 15.1154 10.3211C15.2373 10.2703 15.368 10.2442 15.5 10.2442C15.632 10.2442 15.7627 10.2703 15.8846 10.3211C16.0064 10.3719 16.117 10.4463 16.21 10.54C16.3974 10.7263 16.6508 10.8308 16.915 10.8308C17.1792 10.8308 17.4326 10.7263 17.62 10.54C17.8063 10.3526 17.9108 10.0992 17.9108 9.835C17.9108 9.57081 17.8063 9.31736 17.62 9.13ZM12 2C10.0222 2 8.08879 2.58649 6.4443 3.6853C4.79981 4.78412 3.51809 6.3459 2.76121 8.17317C2.00433 10.0004 1.8063 12.0111 2.19215 13.9509C2.578 15.8907 3.53041 17.6725 4.92894 19.0711C6.32746 20.4696 8.10929 21.422 10.0491 21.8079C11.9889 22.1937 13.9996 21.9957 15.8268 21.2388C17.6541 20.4819 19.2159 19.2002 20.3147 17.5557C21.4135 15.9112 22 13.9778 22 12C22 10.6868 21.7413 9.38642 21.2388 8.17317C20.7363 6.95991 19.9997 5.85752 19.0711 4.92893C18.1425 4.00035 17.0401 3.26375 15.8268 2.7612C14.6136 2.25866 13.3132 2 12 2ZM12 20C10.4178 20 8.87104 19.5308 7.55544 18.6518C6.23985 17.7727 5.21447 16.5233 4.60897 15.0615C4.00347 13.5997 3.84504 11.9911 4.15372 10.4393C4.4624 8.88743 5.22433 7.46197 6.34315 6.34315C7.46197 5.22433 8.88743 4.4624 10.4393 4.15372C11.9911 3.84504 13.5997 4.00346 15.0615 4.60896C16.5233 5.21447 17.7727 6.23984 18.6518 7.55544C19.5308 8.87103 20 10.4177 20 12C20 14.1217 19.1572 16.1566 17.6569 17.6569C16.1566 19.1571 14.1217 20 12 20Z" />
</svg>
