<svg width="24" height="24" viewBox="0 0 24 24" xmlns="http://www.w3.org/2000/svg">
<path d="M8.42 12.21C8.51344 12.3027 8.62426 12.376 8.7461 12.4258C8.86794 12.4755 8.9984 12.5008 9.13 12.5C9.26161 12.5008 9.39207 12.4755 9.51391 12.4258C9.63575 12.376 9.74656 12.3027 9.84 12.21L11.34 10.71C11.4337 10.617 11.5081 10.5064 11.5589 10.3846C11.6097 10.2627 11.6358 10.132 11.6358 10C11.6358 9.86799 11.6097 9.73728 11.5589 9.61542C11.5081 9.49356 11.4337 9.38296 11.34 9.29L9.84 7.79C9.74677 7.69676 9.63608 7.6228 9.51425 7.57234C9.39243 7.52188 9.26186 7.49591 9.13 7.49591C8.99815 7.49591 8.86758 7.52188 8.74575 7.57234C8.62393 7.6228 8.51324 7.69676 8.42 7.79C8.32677 7.88324 8.2528 7.99393 8.20234 8.11575C8.15188 8.23757 8.12591 8.36814 8.12591 8.5C8.12591 8.63186 8.15188 8.76243 8.20234 8.88425C8.2528 9.00607 8.32677 9.11676 8.42 9.21L9.21 10L8.42 10.79C8.32628 10.883 8.25188 10.9936 8.20111 11.1154C8.15034 11.2373 8.12421 11.368 8.12421 11.5C8.12421 11.632 8.15034 11.7627 8.20111 11.8846C8.25188 12.0064 8.32628 12.117 8.42 12.21ZM14.36 14.21C13.6915 14.749 12.8587 15.0429 12 15.0429C11.1413 15.0429 10.3085 14.749 9.64 14.21C9.43579 14.0403 9.17251 13.9586 8.90808 13.983C8.64365 14.0074 8.39974 14.1358 8.23 14.34C8.06027 14.5442 7.9786 14.8075 8.00298 15.0719C8.02736 15.3364 8.15579 15.5803 8.36 15.75C9.38134 16.6026 10.6696 17.0696 12 17.0696C13.3304 17.0696 14.6187 16.6026 15.64 15.75C15.8442 15.5803 15.9726 15.3364 15.997 15.0719C16.0214 14.8075 15.9397 14.5442 15.77 14.34C15.686 14.2389 15.5828 14.1553 15.4665 14.0941C15.3501 14.0328 15.2229 13.9951 15.0919 13.983C14.8275 13.9586 14.5642 14.0403 14.36 14.21ZM15 9C14.8022 9 14.6089 9.05865 14.4444 9.16853C14.28 9.27841 14.1518 9.43459 14.0761 9.61732C14.0004 9.80004 13.9806 10.0011 14.0192 10.1951C14.0578 10.3891 14.153 10.5673 14.2929 10.7071C14.4328 10.847 14.6109 10.9422 14.8049 10.9808C14.9989 11.0194 15.2 10.9996 15.3827 10.9239C15.5654 10.8482 15.7216 10.72 15.8315 10.5556C15.9414 10.3911 16 10.1978 16 10C16 9.73478 15.8946 9.48043 15.7071 9.29289C15.5196 9.10536 15.2652 9 15 9ZM12 2C10.0222 2 8.08879 2.58649 6.4443 3.6853C4.79981 4.78412 3.51809 6.3459 2.76121 8.17317C2.00433 10.0004 1.8063 12.0111 2.19215 13.9509C2.578 15.8907 3.53041 17.6725 4.92894 19.0711C6.32746 20.4696 8.10929 21.422 10.0491 21.8079C11.9889 22.1937 13.9996 21.9957 15.8268 21.2388C17.6541 20.4819 19.2159 19.2002 20.3147 17.5557C21.4135 15.9112 22 13.9778 22 12C22 10.6868 21.7413 9.38642 21.2388 8.17317C20.7363 6.95991 19.9997 5.85752 19.0711 4.92893C18.1425 4.00035 17.0401 3.26375 15.8268 2.7612C14.6136 2.25866 13.3132 2 12 2ZM12 20C10.4178 20 8.87104 19.5308 7.55544 18.6518C6.23985 17.7727 5.21447 16.5233 4.60897 15.0615C4.00347 13.5997 3.84504 11.9911 4.15372 10.4393C4.4624 8.88743 5.22433 7.46197 6.34315 6.34315C7.46197 5.22433 8.88743 4.4624 10.4393 4.15372C11.9911 3.84504 13.5997 4.00346 15.0615 4.60896C16.5233 5.21447 17.7727 6.23984 18.6518 7.55544C19.5308 8.87103 20 10.4177 20 12C20 14.1217 19.1572 16.1566 17.6569 17.6569C16.1566 19.1571 14.1217 20 12 20Z" />
</svg>
