<svg width="24" height="24" viewBox="0 0 24 24" xmlns="http://www.w3.org/2000/svg">
<path d="M18.5 2H6.5C5.70435 2 4.94129 2.31607 4.37868 2.87868C3.81607 3.44129 3.5 4.20435 3.5 5V17C3.50174 17.6189 3.69488 18.2222 4.05294 18.7271C4.411 19.2319 4.91645 19.6137 5.5 19.82V21C5.5 21.2652 5.60536 21.5196 5.79289 21.7071C5.98043 21.8946 6.23478 22 6.5 22C6.76522 22 7.01957 21.8946 7.20711 21.7071C7.39464 21.5196 7.5 21.2652 7.5 21V20H17.5V21C17.5 21.2652 17.6054 21.5196 17.7929 21.7071C17.9804 21.8946 18.2348 22 18.5 22C18.7652 22 19.0196 21.8946 19.2071 21.7071C19.3946 21.5196 19.5 21.2652 19.5 21V19.82C20.0835 19.6137 20.589 19.2319 20.9471 18.7271C21.3051 18.2222 21.4983 17.6189 21.5 17V5C21.5 4.20435 21.1839 3.44129 20.6213 2.87868C20.0587 2.31607 19.2956 2 18.5 2ZM5.5 8H11.5V12H5.5V8ZM19.5 17C19.5 17.2652 19.3946 17.5196 19.2071 17.7071C19.0196 17.8946 18.7652 18 18.5 18H6.5C6.23478 18 5.98043 17.8946 5.79289 17.7071C5.60536 17.5196 5.5 17.2652 5.5 17V14H19.5V17ZM19.5 12H13.5V8H19.5V12ZM19.5 6H5.5V5C5.5 4.73478 5.60536 4.48043 5.79289 4.29289C5.98043 4.10536 6.23478 4 6.5 4H18.5C18.7652 4 19.0196 4.10536 19.2071 4.29289C19.3946 4.48043 19.5 4.73478 19.5 5V6ZM16.12 16.92C16.2402 16.9712 16.3693 16.9984 16.5 17C16.7652 17 17.0196 16.8946 17.2071 16.7071C17.3946 16.5196 17.5 16.2652 17.5 16C17.5049 15.9334 17.5049 15.8666 17.5 15.8C17.4891 15.7374 17.4688 15.6767 17.44 15.62C17.4181 15.5563 17.3878 15.4957 17.35 15.44C17.3131 15.3876 17.273 15.3375 17.23 15.29L17.08 15.17C17.0243 15.1322 16.9637 15.1019 16.9 15.08C16.8383 15.0422 16.7707 15.0152 16.7 15C16.5378 14.9661 16.3698 14.973 16.2109 15.0201C16.0521 15.0673 15.9074 15.1531 15.79 15.27C15.747 15.3175 15.7069 15.3676 15.67 15.42C15.6322 15.4757 15.6019 15.5363 15.58 15.6C15.5512 15.6567 15.5309 15.7174 15.52 15.78C15.5151 15.8466 15.5151 15.9134 15.52 15.98C15.5211 16.2423 15.6253 16.4937 15.81 16.68C15.8965 16.7797 16.0018 16.8612 16.12 16.92ZM8.12 16.92C8.24022 16.9712 8.36932 16.9984 8.5 17C8.76522 17 9.01957 16.8946 9.20711 16.7071C9.39464 16.5196 9.5 16.2652 9.5 16C9.50491 15.9334 9.50491 15.8666 9.5 15.8C9.48905 15.7374 9.46883 15.6767 9.44 15.62C9.41811 15.5563 9.38785 15.4957 9.35 15.44C9.31308 15.3876 9.27301 15.3375 9.23 15.29L9.08 15.17L8.9 15.08L8.7 15C8.53782 14.9661 8.36976 14.973 8.21092 15.0201C8.05208 15.0673 7.90744 15.1531 7.79 15.27C7.74699 15.3175 7.70692 15.3676 7.67 15.42C7.63215 15.4757 7.60189 15.5363 7.58 15.6C7.55117 15.6567 7.53095 15.7174 7.52 15.78C7.51509 15.8466 7.51509 15.9134 7.52 15.98C7.5211 16.2423 7.62526 16.4937 7.81 16.68C7.89649 16.7797 8.00184 16.8612 8.12 16.92Z" />
</svg>
