<svg width="24" height="24" viewBox="0 0 24 24" xmlns="http://www.w3.org/2000/svg">
<path d="M22 16H19.82C19.9364 15.6793 19.9973 15.3411 20 15V10C20 9.20435 19.6839 8.44129 19.1213 7.87868C18.5587 7.31607 17.7956 7 17 7H11C10.2044 7 9.44129 7.31607 8.87868 7.87868C8.31607 8.44129 8 9.20435 8 10V15C8.0027 15.3411 8.06358 15.6793 8.18 16H7C6.73478 16 6.48043 15.8946 6.29289 15.7071C6.10536 15.5196 6 15.2652 6 15V5C6 4.20435 5.68393 3.44129 5.12132 2.87868C4.55871 2.31607 3.79565 2 3 2H2C1.73478 2 1.48043 2.10536 1.29289 2.29289C1.10536 2.48043 1 2.73478 1 3C1 3.26522 1.10536 3.51957 1.29289 3.70711C1.48043 3.89464 1.73478 4 2 4H3C3.26522 4 3.51957 4.10536 3.70711 4.29289C3.89464 4.48043 4 4.73478 4 5V15C4.00369 15.6569 4.22288 16.2944 4.62392 16.8147C5.02497 17.335 5.58569 17.7092 6.22 17.88C6.03583 18.3305 5.96406 18.8191 6.01087 19.3036C6.05767 19.7881 6.22166 20.2539 6.48867 20.6609C6.75568 21.0678 7.11771 21.4037 7.5435 21.6395C7.96929 21.8753 8.44607 22.004 8.93269 22.0144C9.41931 22.0249 9.90116 21.9167 10.3367 21.6994C10.7722 21.482 11.1482 21.1619 11.4324 20.7668C11.7167 20.3717 11.9004 19.9133 11.968 19.4313C12.0355 18.9492 11.9847 18.458 11.82 18H15.18C15.0155 18.4531 14.9627 18.9392 15.0259 19.4171C15.0892 19.895 15.2666 20.3506 15.5433 20.7454C15.82 21.1401 16.1877 21.4624 16.6154 21.6849C17.043 21.9074 17.5179 22.0235 18 22.0235C18.4821 22.0235 18.957 21.9074 19.3846 21.6849C19.8123 21.4624 20.18 21.1401 20.4567 20.7454C20.7334 20.3506 20.9108 19.895 20.9741 19.4171C21.0373 18.9392 20.9845 18.4531 20.82 18H22C22.2652 18 22.5196 17.8946 22.7071 17.7071C22.8946 17.5196 23 17.2652 23 17C23 16.7348 22.8946 16.4804 22.7071 16.2929C22.5196 16.1054 22.2652 16 22 16ZM9 20C8.80222 20 8.60888 19.9414 8.44443 19.8315C8.27998 19.7216 8.15181 19.5654 8.07612 19.3827C8.00043 19.2 7.98063 18.9989 8.01921 18.8049C8.0578 18.6109 8.15304 18.4327 8.29289 18.2929C8.43275 18.153 8.61093 18.0578 8.80491 18.0192C8.99889 17.9806 9.19996 18.0004 9.38268 18.0761C9.56541 18.1518 9.72159 18.28 9.83147 18.4444C9.94135 18.6089 10 18.8022 10 19C10 19.2652 9.89464 19.5196 9.70711 19.7071C9.51957 19.8946 9.26522 20 9 20ZM11 16C10.7348 16 10.4804 15.8946 10.2929 15.7071C10.1054 15.5196 10 15.2652 10 15V10C10 9.73478 10.1054 9.48043 10.2929 9.29289C10.4804 9.10536 10.7348 9 11 9H17C17.2652 9 17.5196 9.10536 17.7071 9.29289C17.8946 9.48043 18 9.73478 18 10V15C18 15.2652 17.8946 15.5196 17.7071 15.7071C17.5196 15.8946 17.2652 16 17 16H11ZM18 20C17.8022 20 17.6089 19.9414 17.4444 19.8315C17.28 19.7216 17.1518 19.5654 17.0761 19.3827C17.0004 19.2 16.9806 18.9989 17.0192 18.8049C17.0578 18.6109 17.153 18.4327 17.2929 18.2929C17.4327 18.153 17.6109 18.0578 17.8049 18.0192C17.9989 17.9806 18.2 18.0004 18.3827 18.0761C18.5654 18.1518 18.7216 18.28 18.8315 18.4444C18.9414 18.6089 19 18.8022 19 19C19 19.2652 18.8946 19.5196 18.7071 19.7071C18.5196 19.8946 18.2652 20 18 20Z" />
</svg>
