<svg width="24" height="24" viewBox="0 0 24 24" xmlns="http://www.w3.org/2000/svg">
<path d="M15.9999 17C16.2652 17 16.5195 16.8946 16.707 16.7071C16.8946 16.5196 16.9999 16.2652 16.9999 16C17.0048 15.9334 17.0048 15.8666 16.9999 15.8C16.989 15.7374 16.9688 15.6767 16.9399 15.62C16.9181 15.5563 16.8878 15.4957 16.8499 15.44L16.7299 15.29C16.6327 15.2017 16.5211 15.1306 16.3999 15.08C16.1565 14.98 15.8834 14.98 15.6399 15.08C15.5188 15.1306 15.4071 15.2017 15.3099 15.29L15.1899 15.44C15.1521 15.4957 15.1218 15.5563 15.0999 15.62C15.0711 15.6767 15.0509 15.7374 15.0399 15.8C15.035 15.8666 15.035 15.9334 15.0399 16C15.0399 16.2652 15.1453 16.5196 15.3328 16.7071C15.5204 16.8946 15.7747 17 16.0399 17H15.9999ZM17.9999 2H5.99994C5.20429 2 4.44123 2.31607 3.87862 2.87868C3.31601 3.44129 2.99994 4.20435 2.99994 5V17C3.00149 17.464 3.11067 17.9214 3.31889 18.3361C3.52711 18.7508 3.8287 19.1116 4.19994 19.39L3.28994 20.29C3.19621 20.383 3.12182 20.4936 3.07105 20.6154C3.02028 20.7373 2.99414 20.868 2.99414 21C2.99414 21.132 3.02028 21.2627 3.07105 21.3846C3.12182 21.5064 3.19621 21.617 3.28994 21.71C3.3829 21.8037 3.4935 21.8781 3.61536 21.9289C3.73722 21.9797 3.86793 22.0058 3.99994 22.0058C4.13195 22.0058 4.26266 21.9797 4.38452 21.9289C4.50638 21.8781 4.61698 21.8037 4.70994 21.71L6.40994 20H17.5899L19.2899 21.71C19.3829 21.8037 19.4935 21.8781 19.6154 21.9289C19.7372 21.9797 19.8679 22.0058 19.9999 22.0058C20.132 22.0058 20.2627 21.9797 20.3845 21.9289C20.5064 21.8781 20.617 21.8037 20.7099 21.71C20.8037 21.617 20.8781 21.5064 20.9288 21.3846C20.9796 21.2627 21.0057 21.132 21.0057 21C21.0057 20.868 20.9796 20.7373 20.9288 20.6154C20.8781 20.4936 20.8037 20.383 20.7099 20.29L19.7999 19.39C20.1712 19.1116 20.4728 18.7508 20.681 18.3361C20.8892 17.9214 20.9984 17.464 20.9999 17V5C20.9999 4.20435 20.6839 3.44129 20.1213 2.87868C19.5587 2.31607 18.7956 2 17.9999 2ZM4.99994 8H10.9999V12H4.99994V8ZM18.9999 17C18.9999 17.2652 18.8946 17.5196 18.707 17.7071C18.5195 17.8946 18.2652 18 17.9999 18H5.99994C5.73472 18 5.48037 17.8946 5.29283 17.7071C5.1053 17.5196 4.99994 17.2652 4.99994 17V14H18.9999V17ZM18.9999 12H12.9999V8H18.9999V12ZM18.9999 6H4.99994V5C4.99994 4.73478 5.1053 4.48043 5.29283 4.29289C5.48037 4.10536 5.73472 4 5.99994 4H17.9999C18.2652 4 18.5195 4.10536 18.707 4.29289C18.8946 4.48043 18.9999 4.73478 18.9999 5V6ZM7.99994 17C8.26516 17 8.51951 16.8946 8.70705 16.7071C8.89458 16.5196 8.99994 16.2652 8.99994 16C9.00485 15.9334 9.00485 15.8666 8.99994 15.8C8.98899 15.7374 8.96877 15.6767 8.93994 15.62C8.91805 15.5563 8.88779 15.4957 8.84994 15.44L8.72994 15.29C8.63274 15.2017 8.52112 15.1306 8.39994 15.08C8.15648 14.98 7.8834 14.98 7.63994 15.08C7.51875 15.1306 7.40714 15.2017 7.30994 15.29L7.18994 15.44C7.15209 15.4957 7.12183 15.5563 7.09994 15.62C7.05711 15.6742 7.02334 15.735 6.99994 15.8C6.99503 15.8666 6.99503 15.9334 6.99994 16C7.00104 16.2623 7.10519 16.5137 7.28994 16.7C7.38255 16.7945 7.493 16.8697 7.61487 16.9212C7.73675 16.9727 7.86763 16.9995 7.99994 17Z" />
</svg>
