<svg width="24" height="24" viewBox="0 0 24 24" xmlns="http://www.w3.org/2000/svg">
<path d="M12 13.5C12.1978 13.5 12.3911 13.4414 12.5556 13.3315C12.72 13.2216 12.8482 13.0654 12.9239 12.8827C12.9996 12.7 13.0194 12.4989 12.9808 12.3049C12.9422 12.1109 12.847 11.9327 12.7071 11.7929C12.5673 11.653 12.3891 11.5578 12.1951 11.5192C12.0011 11.4806 11.8 11.5004 11.6173 11.5761C11.4346 11.6518 11.2784 11.78 11.1685 11.9444C11.0586 12.1089 11 12.3022 11 12.5C11 12.7652 11.1054 13.0196 11.2929 13.2071C11.4804 13.3946 11.7348 13.5 12 13.5ZM12 17.5C12.1978 17.5 12.3911 17.4414 12.5556 17.3315C12.72 17.2216 12.8482 17.0654 12.9239 16.8827C12.9996 16.7 13.0194 16.4989 12.9808 16.3049C12.9422 16.1109 12.847 15.9327 12.7071 15.7929C12.5673 15.653 12.3891 15.5578 12.1951 15.5192C12.0011 15.4806 11.8 15.5004 11.6173 15.5761C11.4346 15.6518 11.2784 15.78 11.1685 15.9444C11.0586 16.1089 11 16.3022 11 16.5C11 16.7652 11.1054 17.0196 11.2929 17.2071C11.4804 17.3946 11.7348 17.5 12 17.5ZM12 9.5C12.1978 9.5 12.3911 9.44135 12.5556 9.33147C12.72 9.22159 12.8482 9.06541 12.9239 8.88268C12.9996 8.69996 13.0194 8.49889 12.9808 8.30491C12.9422 8.11093 12.847 7.93275 12.7071 7.79289C12.5673 7.65304 12.3891 7.5578 12.1951 7.51922C12.0011 7.48063 11.8 7.50043 11.6173 7.57612C11.4346 7.65181 11.2784 7.77998 11.1685 7.94443C11.0586 8.10888 11 8.30222 11 8.5C11 8.76522 11.1054 9.01957 11.2929 9.20711C11.4804 9.39464 11.7348 9.5 12 9.5ZM8 5.5C8.19778 5.5 8.39112 5.44135 8.55557 5.33147C8.72002 5.22159 8.84819 5.06541 8.92388 4.88268C8.99957 4.69996 9.01937 4.49889 8.98079 4.30491C8.9422 4.11093 8.84696 3.93275 8.70711 3.79289C8.56725 3.65304 8.38907 3.5578 8.19509 3.51922C8.00111 3.48063 7.80004 3.50043 7.61732 3.57612C7.43459 3.65181 7.27841 3.77998 7.16853 3.94443C7.05865 4.10888 7 4.30222 7 4.5C7 4.76522 7.10536 5.01957 7.29289 5.20711C7.48043 5.39464 7.73478 5.5 8 5.5ZM8 13.5C8.19778 13.5 8.39112 13.4414 8.55557 13.3315C8.72002 13.2216 8.84819 13.0654 8.92388 12.8827C8.99957 12.7 9.01937 12.4989 8.98079 12.3049C8.9422 12.1109 8.84696 11.9327 8.70711 11.7929C8.56725 11.653 8.38907 11.5578 8.19509 11.5192C8.00111 11.4806 7.80004 11.5004 7.61732 11.5761C7.43459 11.6518 7.27841 11.78 7.16853 11.9444C7.05865 12.1089 7 12.3022 7 12.5C7 12.7652 7.10536 13.0196 7.29289 13.2071C7.48043 13.3946 7.73478 13.5 8 13.5ZM20 5.5C20.1978 5.5 20.3911 5.44135 20.5556 5.33147C20.72 5.22159 20.8482 5.06541 20.9239 4.88268C20.9996 4.69996 21.0194 4.49889 20.9808 4.30491C20.9422 4.11093 20.847 3.93275 20.7071 3.79289C20.5673 3.65304 20.3891 3.5578 20.1951 3.51922C20.0011 3.48063 19.8 3.50043 19.6173 3.57612C19.4346 3.65181 19.2784 3.77998 19.1685 3.94443C19.0586 4.10888 19 4.30222 19 4.5C19 4.76522 19.1054 5.01957 19.2929 5.20711C19.4804 5.39464 19.7348 5.5 20 5.5ZM16 13.5C16.1978 13.5 16.3911 13.4414 16.5556 13.3315C16.72 13.2216 16.8482 13.0654 16.9239 12.8827C16.9996 12.7 17.0194 12.4989 16.9808 12.3049C16.9422 12.1109 16.847 11.9327 16.7071 11.7929C16.5673 11.653 16.3891 11.5578 16.1951 11.5192C16.0011 11.4806 15.8 11.5004 15.6173 11.5761C15.4346 11.6518 15.2784 11.78 15.1685 11.9444C15.0586 12.1089 15 12.3022 15 12.5C15 12.7652 15.1054 13.0196 15.2929 13.2071C15.4804 13.3946 15.7348 13.5 16 13.5ZM12 5.5C12.1978 5.5 12.3911 5.44135 12.5556 5.33147C12.72 5.22159 12.8482 5.06541 12.9239 4.88268C12.9996 4.69996 13.0194 4.49889 12.9808 4.30491C12.9422 4.11093 12.847 3.93275 12.7071 3.79289C12.5673 3.65304 12.3891 3.5578 12.1951 3.51922C12.0011 3.48063 11.8 3.50043 11.6173 3.57612C11.4346 3.65181 11.2784 3.77998 11.1685 3.94443C11.0586 4.10888 11 4.30222 11 4.5C11 4.76522 11.1054 5.01957 11.2929 5.20711C11.4804 5.39464 11.7348 5.5 12 5.5ZM16 5.5C16.1978 5.5 16.3911 5.44135 16.5556 5.33147C16.72 5.22159 16.8482 5.06541 16.9239 4.88268C16.9996 4.69996 17.0194 4.49889 16.9808 4.30491C16.9422 4.11093 16.847 3.93275 16.7071 3.79289C16.5673 3.65304 16.3891 3.5578 16.1951 3.51922C16.0011 3.48063 15.8 3.50043 15.6173 3.57612C15.4346 3.65181 15.2784 3.77998 15.1685 3.94443C15.0586 4.10888 15 4.30222 15 4.5C15 4.76522 15.1054 5.01957 15.2929 5.20711C15.4804 5.39464 15.7348 5.5 16 5.5ZM20 15.5C19.8022 15.5 19.6089 15.5587 19.4444 15.6685C19.28 15.7784 19.1518 15.9346 19.0761 16.1173C19.0004 16.3 18.9806 16.5011 19.0192 16.6951C19.0578 16.8891 19.153 17.0673 19.2929 17.2071C19.4327 17.347 19.6109 17.4422 19.8049 17.4808C19.9989 17.5194 20.2 17.4996 20.3827 17.4239C20.5654 17.3482 20.7216 17.22 20.8315 17.0556C20.9414 16.8911 21 16.6978 21 16.5C21 16.2348 20.8946 15.9804 20.7071 15.7929C20.5196 15.6054 20.2652 15.5 20 15.5ZM20 11.5C19.8022 11.5 19.6089 11.5587 19.4444 11.6685C19.28 11.7784 19.1518 11.9346 19.0761 12.1173C19.0004 12.3 18.9806 12.5011 19.0192 12.6951C19.0578 12.8891 19.153 13.0673 19.2929 13.2071C19.4327 13.347 19.6109 13.4422 19.8049 13.4808C19.9989 13.5194 20.2 13.4996 20.3827 13.4239C20.5654 13.3482 20.7216 13.22 20.8315 13.0556C20.9414 12.8911 21 12.6978 21 12.5C21 12.2348 20.8946 11.9804 20.7071 11.7929C20.5196 11.6054 20.2652 11.5 20 11.5ZM20 19.5H4C3.73478 19.5 3.48043 19.6054 3.29289 19.7929C3.10536 19.9804 3 20.2348 3 20.5C3 20.7652 3.10536 21.0196 3.29289 21.2071C3.48043 21.3946 3.73478 21.5 4 21.5H20C20.2652 21.5 20.5196 21.3946 20.7071 21.2071C20.8946 21.0196 21 20.7652 21 20.5C21 20.2348 20.8946 19.9804 20.7071 19.7929C20.5196 19.6054 20.2652 19.5 20 19.5ZM20 7.5C19.8022 7.5 19.6089 7.55865 19.4444 7.66853C19.28 7.77841 19.1518 7.93459 19.0761 8.11732C19.0004 8.30004 18.9806 8.50111 19.0192 8.69509C19.0578 8.88907 19.153 9.06725 19.2929 9.20711C19.4327 9.34696 19.6109 9.4422 19.8049 9.48079C19.9989 9.51937 20.2 9.49957 20.3827 9.42388C20.5654 9.34819 20.7216 9.22002 20.8315 9.05557C20.9414 8.89112 21 8.69778 21 8.5C21 8.23478 20.8946 7.98043 20.7071 7.79289C20.5196 7.60536 20.2652 7.5 20 7.5ZM4 13.5C4.19778 13.5 4.39112 13.4414 4.55557 13.3315C4.72002 13.2216 4.84819 13.0654 4.92388 12.8827C4.99957 12.7 5.01937 12.4989 4.98079 12.3049C4.9422 12.1109 4.84696 11.9327 4.70711 11.7929C4.56725 11.653 4.38907 11.5578 4.19509 11.5192C4.00111 11.4806 3.80004 11.5004 3.61732 11.5761C3.43459 11.6518 3.27841 11.78 3.16853 11.9444C3.05865 12.1089 3 12.3022 3 12.5C3 12.7652 3.10536 13.0196 3.29289 13.2071C3.48043 13.3946 3.73478 13.5 4 13.5ZM4 9.5C4.19778 9.5 4.39112 9.44135 4.55557 9.33147C4.72002 9.22159 4.84819 9.06541 4.92388 8.88268C4.99957 8.69996 5.01937 8.49889 4.98079 8.30491C4.9422 8.11093 4.84696 7.93275 4.70711 7.79289C4.56725 7.65304 4.38907 7.5578 4.19509 7.51922C4.00111 7.48063 3.80004 7.50043 3.61732 7.57612C3.43459 7.65181 3.27841 7.77998 3.16853 7.94443C3.05865 8.10888 3 8.30222 3 8.5C3 8.76522 3.10536 9.01957 3.29289 9.20711C3.48043 9.39464 3.73478 9.5 4 9.5ZM4 17.5C4.19778 17.5 4.39112 17.4414 4.55557 17.3315C4.72002 17.2216 4.84819 17.0654 4.92388 16.8827C4.99957 16.7 5.01937 16.4989 4.98079 16.3049C4.9422 16.1109 4.84696 15.9327 4.70711 15.7929C4.56725 15.653 4.38907 15.5578 4.19509 15.5192C4.00111 15.4806 3.80004 15.5004 3.61732 15.5761C3.43459 15.6518 3.27841 15.78 3.16853 15.9444C3.05865 16.1089 3 16.3022 3 16.5C3 16.7652 3.10536 17.0196 3.29289 17.2071C3.48043 17.3946 3.73478 17.5 4 17.5ZM4 5.5C4.19778 5.5 4.39112 5.44135 4.55557 5.33147C4.72002 5.22159 4.84819 5.06541 4.92388 4.88268C4.99957 4.69996 5.01937 4.49889 4.98079 4.30491C4.9422 4.11093 4.84696 3.93275 4.70711 3.79289C4.56725 3.65304 4.38907 3.5578 4.19509 3.51922C4.00111 3.48063 3.80004 3.50043 3.61732 3.57612C3.43459 3.65181 3.27841 3.77998 3.16853 3.94443C3.05865 4.10888 3 4.30222 3 4.5C3 4.76522 3.10536 5.01957 3.29289 5.20711C3.48043 5.39464 3.73478 5.5 4 5.5Z" />
</svg>
