<svg width="24" height="24" viewBox="0 0 24 24" xmlns="http://www.w3.org/2000/svg">
<path d="M5 9.25C4.4561 9.25 3.92442 9.41129 3.47218 9.71346C3.01995 10.0156 2.66747 10.4451 2.45933 10.9476C2.25119 11.4501 2.19673 12.0031 2.30284 12.5365C2.40895 13.0699 2.67086 13.56 3.05546 13.9445C3.44005 14.3291 3.93005 14.5911 4.4635 14.6972C4.99695 14.8033 5.54988 14.7488 6.05238 14.5407C6.55488 14.3325 6.98437 13.9801 7.28654 13.5278C7.58872 13.0756 7.75 12.5439 7.75 12C7.75 11.2707 7.46027 10.5712 6.94455 10.0555C6.42882 9.53973 5.72935 9.25 5 9.25ZM5 13.25C4.75277 13.25 4.5111 13.1767 4.30554 13.0393C4.09998 12.902 3.93976 12.7068 3.84515 12.4784C3.75054 12.2499 3.72579 11.9986 3.77402 11.7561C3.82225 11.5137 3.9413 11.2909 4.11612 11.1161C4.29093 10.9413 4.51366 10.8223 4.75614 10.774C4.99861 10.7258 5.24995 10.7505 5.47836 10.8452C5.70676 10.9398 5.90199 11.1 6.03934 11.3055C6.17669 11.5111 6.25 11.7528 6.25 12C6.25 12.3315 6.11831 12.6495 5.88388 12.8839C5.64946 13.1183 5.33152 13.25 5 13.25ZM12 9.25C11.4561 9.25 10.9244 9.41129 10.4722 9.71346C10.0199 10.0156 9.66747 10.4451 9.45933 10.9476C9.25119 11.4501 9.19673 12.0031 9.30284 12.5365C9.40895 13.0699 9.67086 13.56 10.0555 13.9445C10.4401 14.3291 10.9301 14.5911 11.4635 14.6972C11.997 14.8033 12.5499 14.7488 13.0524 14.5407C13.5549 14.3325 13.9844 13.9801 14.2865 13.5278C14.5887 13.0756 14.75 12.5439 14.75 12C14.75 11.2707 14.4603 10.5712 13.9445 10.0555C13.4288 9.53973 12.7293 9.25 12 9.25ZM12 13.25C11.7528 13.25 11.5111 13.1767 11.3055 13.0393C11.1 12.902 10.9398 12.7068 10.8452 12.4784C10.7505 12.2499 10.7258 11.9986 10.774 11.7561C10.8223 11.5137 10.9413 11.2909 11.1161 11.1161C11.2909 10.9413 11.5137 10.8223 11.7561 10.774C11.9986 10.7258 12.2499 10.7505 12.4784 10.8452C12.7068 10.9398 12.902 11.1 13.0393 11.3055C13.1767 11.5111 13.25 11.7528 13.25 12C13.25 12.3315 13.1183 12.6495 12.8839 12.8839C12.6495 13.1183 12.3315 13.25 12 13.25ZM19 7.75C19.5439 7.75 20.0756 7.58872 20.5278 7.28654C20.9801 6.98437 21.3325 6.55488 21.5407 6.05238C21.7488 5.54988 21.8033 4.99695 21.6972 4.4635C21.5911 3.93005 21.3291 3.44005 20.9445 3.05546C20.56 2.67086 20.0699 2.40895 19.5365 2.30284C19.0031 2.19673 18.4501 2.25119 17.9476 2.45933C17.4451 2.66747 17.0156 3.01995 16.7135 3.47218C16.4113 3.92442 16.25 4.4561 16.25 5C16.25 5.72935 16.5397 6.42882 17.0555 6.94455C17.5712 7.46027 18.2707 7.75 19 7.75ZM19 3.75C19.2472 3.75 19.4889 3.82331 19.6945 3.96066C19.9 4.09802 20.0602 4.29324 20.1549 4.52165C20.2495 4.75005 20.2742 5.00139 20.226 5.24386C20.1778 5.48634 20.0587 5.70907 19.8839 5.88388C19.7091 6.0587 19.4863 6.17775 19.2439 6.22598C19.0014 6.27421 18.7501 6.24946 18.5216 6.15485C18.2932 6.06024 18.098 5.90003 17.9607 5.69446C17.8233 5.4889 17.75 5.24723 17.75 5C17.75 4.66848 17.8817 4.35054 18.1161 4.11612C18.3505 3.8817 18.6685 3.75 19 3.75ZM19 9.25C18.4561 9.25 17.9244 9.41129 17.4722 9.71346C17.0199 10.0156 16.6675 10.4451 16.4593 10.9476C16.2512 11.4501 16.1967 12.0031 16.3028 12.5365C16.409 13.0699 16.6709 13.56 17.0555 13.9445C17.4401 14.3291 17.9301 14.5911 18.4635 14.6972C18.997 14.8033 19.5499 14.7488 20.0524 14.5407C20.5549 14.3325 20.9844 13.9801 21.2865 13.5278C21.5887 13.0756 21.75 12.5439 21.75 12C21.75 11.2707 21.4603 10.5712 20.9445 10.0555C20.4288 9.53973 19.7293 9.25 19 9.25ZM19 13.25C18.7528 13.25 18.5111 13.1767 18.3055 13.0393C18.1 12.902 17.9398 12.7068 17.8452 12.4784C17.7505 12.2499 17.7258 11.9986 17.774 11.7561C17.8223 11.5137 17.9413 11.2909 18.1161 11.1161C18.2909 10.9413 18.5137 10.8223 18.7561 10.774C18.9986 10.7258 19.2499 10.7505 19.4784 10.8452C19.7068 10.9398 19.902 11.1 20.0393 11.3055C20.1767 11.5111 20.25 11.7528 20.25 12C20.25 12.3315 20.1183 12.6495 19.8839 12.8839C19.6495 13.1183 19.3315 13.25 19 13.25ZM5 2.25C4.4561 2.25 3.92442 2.41129 3.47218 2.71346C3.01995 3.01563 2.66747 3.44513 2.45933 3.94762C2.25119 4.45012 2.19673 5.00305 2.30284 5.5365C2.40895 6.06995 2.67086 6.55995 3.05546 6.94455C3.44005 7.32914 3.93005 7.59105 4.4635 7.69716C4.99695 7.80327 5.54988 7.74881 6.05238 7.54067C6.55488 7.33253 6.98437 6.98005 7.28654 6.52782C7.58872 6.07558 7.75 5.5439 7.75 5C7.75 4.27066 7.46027 3.57118 6.94455 3.05546C6.42882 2.53973 5.72935 2.25 5 2.25ZM5 6.25C4.75277 6.25 4.5111 6.17669 4.30554 6.03934C4.09998 5.90199 3.93976 5.70676 3.84515 5.47836C3.75054 5.24995 3.72579 4.99861 3.77402 4.75614C3.82225 4.51366 3.9413 4.29093 4.11612 4.11612C4.29093 3.9413 4.51366 3.82225 4.75614 3.77402C4.99861 3.72579 5.24995 3.75054 5.47836 3.84515C5.70676 3.93976 5.90199 4.09998 6.03934 4.30554C6.17669 4.5111 6.25 4.75277 6.25 5C6.25 5.33152 6.11831 5.64946 5.88388 5.88388C5.64946 6.11831 5.33152 6.25 5 6.25ZM12 16.25C11.4561 16.25 10.9244 16.4113 10.4722 16.7135C10.0199 17.0156 9.66747 17.4451 9.45933 17.9476C9.25119 18.4501 9.19673 19.0031 9.30284 19.5365C9.40895 20.0699 9.67086 20.56 10.0555 20.9445C10.4401 21.3291 10.9301 21.5911 11.4635 21.6972C11.997 21.8033 12.5499 21.7488 13.0524 21.5407C13.5549 21.3325 13.9844 20.9801 14.2865 20.5278C14.5887 20.0756 14.75 19.5439 14.75 19C14.75 18.2707 14.4603 17.5712 13.9445 17.0555C13.4288 16.5397 12.7293 16.25 12 16.25ZM12 20.25C11.7528 20.25 11.5111 20.1767 11.3055 20.0393C11.1 19.902 10.9398 19.7068 10.8452 19.4784C10.7505 19.2499 10.7258 18.9986 10.774 18.7561C10.8223 18.5137 10.9413 18.2909 11.1161 18.1161C11.2909 17.9413 11.5137 17.8223 11.7561 17.774C11.9986 17.7258 12.2499 17.7505 12.4784 17.8452C12.7068 17.9398 12.902 18.1 13.0393 18.3055C13.1767 18.5111 13.25 18.7528 13.25 19C13.25 19.3315 13.1183 19.6495 12.8839 19.8839C12.6495 20.1183 12.3315 20.25 12 20.25ZM12 2.25C11.4561 2.25 10.9244 2.41129 10.4722 2.71346C10.0199 3.01563 9.66747 3.44513 9.45933 3.94762C9.25119 4.45012 9.19673 5.00305 9.30284 5.5365C9.40895 6.06995 9.67086 6.55995 10.0555 6.94455C10.4401 7.32914 10.9301 7.59105 11.4635 7.69716C11.997 7.80327 12.5499 7.74881 13.0524 7.54067C13.5549 7.33253 13.9844 6.98005 14.2865 6.52782C14.5887 6.07558 14.75 5.5439 14.75 5C14.75 4.27066 14.4603 3.57118 13.9445 3.05546C13.4288 2.53973 12.7293 2.25 12 2.25ZM12 6.25C11.7528 6.25 11.5111 6.17669 11.3055 6.03934C11.1 5.90199 10.9398 5.70676 10.8452 5.47836C10.7505 5.24995 10.7258 4.99861 10.774 4.75614C10.8223 4.51366 10.9413 4.29093 11.1161 4.11612C11.2909 3.9413 11.5137 3.82225 11.7561 3.77402C11.9986 3.72579 12.2499 3.75054 12.4784 3.84515C12.7068 3.93976 12.902 4.09998 13.0393 4.30554C13.1767 4.5111 13.25 4.75277 13.25 5C13.25 5.33152 13.1183 5.64946 12.8839 5.88388C12.6495 6.11831 12.3315 6.25 12 6.25Z" />
</svg>
