<svg width="24" height="24" viewBox="0 0 24 24" xmlns="http://www.w3.org/2000/svg">
<path d="M7 2.25H3C2.80189 2.25259 2.61263 2.33244 2.47253 2.47253C2.33244 2.61263 2.25259 2.80189 2.25 3V7C2.25259 7.19811 2.33244 7.38737 2.47253 7.52747C2.61263 7.66756 2.80189 7.74741 3 7.75H7C7.19811 7.74741 7.38737 7.66756 7.52747 7.52747C7.66756 7.38737 7.74741 7.19811 7.75 7V3C7.74741 2.80189 7.66756 2.61263 7.52747 2.47253C7.38737 2.33244 7.19811 2.25259 7 2.25ZM6.25 6.25H3.75V3.75H6.25V6.25ZM21 2.25H17C16.8019 2.25259 16.6126 2.33244 16.4725 2.47253C16.3324 2.61263 16.2526 2.80189 16.25 3V7C16.2526 7.19811 16.3324 7.38737 16.4725 7.52747C16.6126 7.66756 16.8019 7.74741 17 7.75H21C21.1981 7.74741 21.3874 7.66756 21.5275 7.52747C21.6676 7.38737 21.7474 7.19811 21.75 7V3C21.7474 2.80189 21.6676 2.61263 21.5275 2.47253C21.3874 2.33244 21.1981 2.25259 21 2.25ZM20.25 6.25H17.75V3.75H20.25V6.25ZM14 2.25H10C9.80189 2.25259 9.61263 2.33244 9.47253 2.47253C9.33244 2.61263 9.25259 2.80189 9.25 3V7C9.25259 7.19811 9.33244 7.38737 9.47253 7.52747C9.61263 7.66756 9.80189 7.74741 10 7.75H14C14.1981 7.74741 14.3874 7.66756 14.5275 7.52747C14.6676 7.38737 14.7474 7.19811 14.75 7V3C14.7474 2.80189 14.6676 2.61263 14.5275 2.47253C14.3874 2.33244 14.1981 2.25259 14 2.25ZM13.25 6.25H10.75V3.75H13.25V6.25ZM7 9.25H3C2.80189 9.25259 2.61263 9.33244 2.47253 9.47253C2.33244 9.61263 2.25259 9.80189 2.25 10V14C2.25259 14.1981 2.33244 14.3874 2.47253 14.5275C2.61263 14.6676 2.80189 14.7474 3 14.75H7C7.19811 14.7474 7.38737 14.6676 7.52747 14.5275C7.66756 14.3874 7.74741 14.1981 7.75 14V10C7.74741 9.80189 7.66756 9.61263 7.52747 9.47253C7.38737 9.33244 7.19811 9.25259 7 9.25ZM6.25 13.25H3.75V10.75H6.25V13.25ZM14 9.25H10C9.80189 9.25259 9.61263 9.33244 9.47253 9.47253C9.33244 9.61263 9.25259 9.80189 9.25 10V14C9.25259 14.1981 9.33244 14.3874 9.47253 14.5275C9.61263 14.6676 9.80189 14.7474 10 14.75H14C14.1981 14.7474 14.3874 14.6676 14.5275 14.5275C14.6676 14.3874 14.7474 14.1981 14.75 14V10C14.7474 9.80189 14.6676 9.61263 14.5275 9.47253C14.3874 9.33244 14.1981 9.25259 14 9.25ZM13.25 13.25H10.75V10.75H13.25V13.25ZM21 9.25H17C16.8019 9.25259 16.6126 9.33244 16.4725 9.47253C16.3324 9.61263 16.2526 9.80189 16.25 10V14C16.2526 14.1981 16.3324 14.3874 16.4725 14.5275C16.6126 14.6676 16.8019 14.7474 17 14.75H21C21.1981 14.7474 21.3874 14.6676 21.5275 14.5275C21.6676 14.3874 21.7474 14.1981 21.75 14V10C21.7474 9.80189 21.6676 9.61263 21.5275 9.47253C21.3874 9.33244 21.1981 9.25259 21 9.25ZM20.25 13.25H17.75V10.75H20.25V13.25ZM14 16.25H10C9.80189 16.2526 9.61263 16.3324 9.47253 16.4725C9.33244 16.6126 9.25259 16.8019 9.25 17V21C9.25259 21.1981 9.33244 21.3874 9.47253 21.5275C9.61263 21.6676 9.80189 21.7474 10 21.75H14C14.1981 21.7474 14.3874 21.6676 14.5275 21.5275C14.6676 21.3874 14.7474 21.1981 14.75 21V17C14.7474 16.8019 14.6676 16.6126 14.5275 16.4725C14.3874 16.3324 14.1981 16.2526 14 16.25ZM13.25 20.25H10.75V17.75H13.25V20.25Z" />
</svg>
