<svg width="24" height="24" viewBox="0 0 24 24" xmlns="http://www.w3.org/2000/svg">
<path d="M6.29019 14.29L6.00019 14.59V7C6.00019 6.73478 5.89483 6.48043 5.70729 6.29289C5.51976 6.10536 5.2654 6 5.00019 6C4.73497 6 4.48062 6.10536 4.29308 6.29289C4.10554 6.48043 4.00019 6.73478 4.00019 7V14.59L3.71019 14.29C3.52188 14.1017 3.26649 13.9959 3.00019 13.9959C2.73388 13.9959 2.47849 14.1017 2.29019 14.29C2.10188 14.4783 1.99609 14.7337 1.99609 15C1.99609 15.2663 2.10188 15.5217 2.29019 15.71L4.29019 17.71C4.38529 17.801 4.49743 17.8724 4.62019 17.92C4.73989 17.9729 4.86931 18.0002 5.00019 18.0002C5.13106 18.0002 5.26049 17.9729 5.38019 17.92C5.50294 17.8724 5.61508 17.801 5.71019 17.71L7.71019 15.71C7.80342 15.6168 7.87738 15.5061 7.92785 15.3842C7.97831 15.2624 8.00428 15.1319 8.00428 15C8.00428 14.8681 7.97831 14.7376 7.92785 14.6158C7.87738 14.4939 7.80342 14.3832 7.71019 14.29C7.61695 14.1968 7.50626 14.1228 7.38443 14.0723C7.26261 14.0219 7.13204 13.9959 7.00019 13.9959C6.86833 13.9959 6.73776 14.0219 6.61594 14.0723C6.49411 14.1228 6.38342 14.1968 6.29019 14.29ZM11.0002 8H21.0002C21.2654 8 21.5198 7.89464 21.7073 7.70711C21.8948 7.51957 22.0002 7.26522 22.0002 7C22.0002 6.73478 21.8948 6.48043 21.7073 6.29289C21.5198 6.10536 21.2654 6 21.0002 6H11.0002C10.735 6 10.4806 6.10536 10.2931 6.29289C10.1055 6.48043 10.0002 6.73478 10.0002 7C10.0002 7.26522 10.1055 7.51957 10.2931 7.70711C10.4806 7.89464 10.735 8 11.0002 8ZM21.0002 11H11.0002C10.735 11 10.4806 11.1054 10.2931 11.2929C10.1055 11.4804 10.0002 11.7348 10.0002 12C10.0002 12.2652 10.1055 12.5196 10.2931 12.7071C10.4806 12.8946 10.735 13 11.0002 13H21.0002C21.2654 13 21.5198 12.8946 21.7073 12.7071C21.8948 12.5196 22.0002 12.2652 22.0002 12C22.0002 11.7348 21.8948 11.4804 21.7073 11.2929C21.5198 11.1054 21.2654 11 21.0002 11ZM21.0002 16H11.0002C10.735 16 10.4806 16.1054 10.2931 16.2929C10.1055 16.4804 10.0002 16.7348 10.0002 17C10.0002 17.2652 10.1055 17.5196 10.2931 17.7071C10.4806 17.8946 10.735 18 11.0002 18H21.0002C21.2654 18 21.5198 17.8946 21.7073 17.7071C21.8948 17.5196 22.0002 17.2652 22.0002 17C22.0002 16.7348 21.8948 16.4804 21.7073 16.2929C21.5198 16.1054 21.2654 16 21.0002 16Z" />
</svg>
