<svg width="24" height="24" viewBox="0 0 24 24" xmlns="http://www.w3.org/2000/svg">
<path d="M5.71019 6.29C5.61508 6.19896 5.50294 6.12759 5.38019 6.08C5.13672 5.97998 4.86365 5.97998 4.62019 6.08C4.49743 6.12759 4.38529 6.19896 4.29019 6.29L2.29019 8.29C2.10188 8.4783 1.99609 8.7337 1.99609 9C1.99609 9.2663 2.10188 9.5217 2.29019 9.71C2.47849 9.8983 2.73388 10.0041 3.00019 10.0041C3.26649 10.0041 3.52188 9.8983 3.71019 9.71L4.00019 9.41V17C4.00019 17.2652 4.10554 17.5196 4.29308 17.7071C4.48062 17.8946 4.73497 18 5.00019 18C5.2654 18 5.51976 17.8946 5.70729 17.7071C5.89483 17.5196 6.00019 17.2652 6.00019 17V9.41L6.29019 9.71C6.38315 9.80373 6.49375 9.87812 6.61561 9.92889C6.73747 9.97966 6.86817 10.0058 7.00019 10.0058C7.1322 10.0058 7.2629 9.97966 7.38476 9.92889C7.50662 9.87812 7.61722 9.80373 7.71019 9.71C7.80391 9.61704 7.87831 9.50644 7.92908 9.38458C7.97985 9.26272 8.00598 9.13201 8.00598 9C8.00598 8.86799 7.97985 8.73728 7.92908 8.61542C7.87831 8.49356 7.80391 8.38296 7.71019 8.29L5.71019 6.29ZM11.0002 8H21.0002C21.2654 8 21.5198 7.89464 21.7073 7.70711C21.8948 7.51957 22.0002 7.26522 22.0002 7C22.0002 6.73478 21.8948 6.48043 21.7073 6.29289C21.5198 6.10536 21.2654 6 21.0002 6H11.0002C10.735 6 10.4806 6.10536 10.2931 6.29289C10.1055 6.48043 10.0002 6.73478 10.0002 7C10.0002 7.26522 10.1055 7.51957 10.2931 7.70711C10.4806 7.89464 10.735 8 11.0002 8ZM21.0002 16H11.0002C10.735 16 10.4806 16.1054 10.2931 16.2929C10.1055 16.4804 10.0002 16.7348 10.0002 17C10.0002 17.2652 10.1055 17.5196 10.2931 17.7071C10.4806 17.8946 10.735 18 11.0002 18H21.0002C21.2654 18 21.5198 17.8946 21.7073 17.7071C21.8948 17.5196 22.0002 17.2652 22.0002 17C22.0002 16.7348 21.8948 16.4804 21.7073 16.2929C21.5198 16.1054 21.2654 16 21.0002 16ZM21.0002 11H11.0002C10.735 11 10.4806 11.1054 10.2931 11.2929C10.1055 11.4804 10.0002 11.7348 10.0002 12C10.0002 12.2652 10.1055 12.5196 10.2931 12.7071C10.4806 12.8946 10.735 13 11.0002 13H21.0002C21.2654 13 21.5198 12.8946 21.7073 12.7071C21.8948 12.5196 22.0002 12.2652 22.0002 12C22.0002 11.7348 21.8948 11.4804 21.7073 11.2929C21.5198 11.1054 21.2654 11 21.0002 11Z" />
</svg>
