<svg width="24" height="24" viewBox="0 0 24 24" xmlns="http://www.w3.org/2000/svg">
<path d="M16.0001 16H10.4101L13.7101 12.71C13.8039 12.617 13.8783 12.5064 13.929 12.3846C13.9798 12.2627 14.0059 12.132 14.0059 12C14.0059 11.868 13.9798 11.7373 13.929 11.6154C13.8783 11.4936 13.8039 11.383 13.7101 11.29L10.4101 8H16.0001C16.2654 8 16.5197 7.89464 16.7072 7.70711C16.8948 7.51957 17.0001 7.26522 17.0001 7C17.0001 6.73478 16.8948 6.48043 16.7072 6.29289C16.5197 6.10536 16.2654 6 16.0001 6H8.00014C7.80271 6.00099 7.61 6.06039 7.44628 6.17072C7.28256 6.28105 7.15516 6.43738 7.08014 6.62C7.00356 6.80211 6.98264 7.00282 7.02001 7.19681C7.05739 7.3908 7.15138 7.56938 7.29014 7.71L11.5901 12L7.29014 16.29C7.15138 16.4306 7.05739 16.6092 7.02001 16.8032C6.98264 16.9972 7.00356 17.1979 7.08014 17.38C7.15516 17.5626 7.28256 17.7189 7.44628 17.8293C7.61 17.9396 7.80271 17.999 8.00014 18H16.0001C16.2654 18 16.5197 17.8946 16.7072 17.7071C16.8948 17.5196 17.0001 17.2652 17.0001 17C17.0001 16.7348 16.8948 16.4804 16.7072 16.2929C16.5197 16.1054 16.2654 16 16.0001 16Z" />
</svg>
