<svg width="24" height="24" viewBox="0 0 24 24" xmlns="http://www.w3.org/2000/svg">
<path d="M11.5 19C11.3022 19 11.1089 19.0586 10.9444 19.1685C10.78 19.2784 10.6518 19.4346 10.5761 19.6173C10.5004 19.8 10.4806 20.0011 10.5192 20.1951C10.5578 20.3891 10.653 20.5673 10.7929 20.7071C10.9327 20.847 11.1109 20.9422 11.3049 20.9808C11.4989 21.0194 11.7 20.9996 11.8827 20.9239C12.0654 20.8482 12.2216 20.72 12.3315 20.5556C12.4414 20.3911 12.5 20.1978 12.5 20C12.5 19.7348 12.3946 19.4804 12.2071 19.2929C12.0196 19.1054 11.7652 19 11.5 19ZM11.5 15C11.3022 15 11.1089 15.0587 10.9444 15.1685C10.78 15.2784 10.6518 15.4346 10.5761 15.6173C10.5004 15.8 10.4806 16.0011 10.5192 16.1951C10.5578 16.3891 10.653 16.5673 10.7929 16.7071C10.9327 16.847 11.1109 16.9422 11.3049 16.9808C11.4989 17.0194 11.7 16.9996 11.8827 16.9239C12.0654 16.8482 12.2216 16.72 12.3315 16.5556C12.4414 16.3911 12.5 16.1978 12.5 16C12.5 15.7348 12.3946 15.4804 12.2071 15.2929C12.0196 15.1054 11.7652 15 11.5 15ZM11.5 11C11.3022 11 11.1089 11.0587 10.9444 11.1685C10.78 11.2784 10.6518 11.4346 10.5761 11.6173C10.5004 11.8 10.4806 12.0011 10.5192 12.1951C10.5578 12.3891 10.653 12.5673 10.7929 12.7071C10.9327 12.847 11.1109 12.9422 11.3049 12.9808C11.4989 13.0194 11.7 12.9996 11.8827 12.9239C12.0654 12.8482 12.2216 12.72 12.3315 12.5556C12.4414 12.3911 12.5 12.1978 12.5 12C12.5 11.7348 12.3946 11.4804 12.2071 11.2929C12.0196 11.1054 11.7652 11 11.5 11ZM3.5 3C3.23478 3 2.98043 3.10536 2.79289 3.29289C2.60536 3.48043 2.5 3.73478 2.5 4V20C2.5 20.2652 2.60536 20.5196 2.79289 20.7071C2.98043 20.8946 3.23478 21 3.5 21C3.76522 21 4.01957 20.8946 4.20711 20.7071C4.39464 20.5196 4.5 20.2652 4.5 20V4C4.5 3.73478 4.39464 3.48043 4.20711 3.29289C4.01957 3.10536 3.76522 3 3.5 3ZM19.5 5C19.6978 5 19.8911 4.94135 20.0556 4.83147C20.22 4.72159 20.3482 4.56541 20.4239 4.38268C20.4996 4.19996 20.5194 3.99889 20.4808 3.80491C20.4422 3.61093 20.347 3.43275 20.2071 3.29289C20.0673 3.15304 19.8891 3.0578 19.6951 3.01922C19.5011 2.98063 19.3 3.00043 19.1173 3.07612C18.9346 3.15181 18.7784 3.27998 18.6685 3.44443C18.5586 3.60888 18.5 3.80222 18.5 4C18.5 4.26522 18.6054 4.51957 18.7929 4.70711C18.9804 4.89464 19.2348 5 19.5 5ZM11.5 7C11.3022 7 11.1089 7.05865 10.9444 7.16853C10.78 7.27841 10.6518 7.43459 10.5761 7.61732C10.5004 7.80004 10.4806 8.00111 10.5192 8.19509C10.5578 8.38907 10.653 8.56725 10.7929 8.70711C10.9327 8.84696 11.1109 8.9422 11.3049 8.98079C11.4989 9.01937 11.7 8.99957 11.8827 8.92388C12.0654 8.84819 12.2216 8.72002 12.3315 8.55557C12.4414 8.39112 12.5 8.19778 12.5 8C12.5 7.73478 12.3946 7.48043 12.2071 7.29289C12.0196 7.10536 11.7652 7 11.5 7ZM7.5 11C7.30222 11 7.10888 11.0587 6.94443 11.1685C6.77998 11.2784 6.65181 11.4346 6.57612 11.6173C6.50043 11.8 6.48063 12.0011 6.51921 12.1951C6.5578 12.3891 6.65304 12.5673 6.79289 12.7071C6.93275 12.847 7.11093 12.9422 7.30491 12.9808C7.49889 13.0194 7.69996 12.9996 7.88268 12.9239C8.06541 12.8482 8.22159 12.72 8.33147 12.5556C8.44135 12.3911 8.5 12.1978 8.5 12C8.5 11.7348 8.39464 11.4804 8.20711 11.2929C8.01957 11.1054 7.76522 11 7.5 11ZM7.5 19C7.30222 19 7.10888 19.0586 6.94443 19.1685C6.77998 19.2784 6.65181 19.4346 6.57612 19.6173C6.50043 19.8 6.48063 20.0011 6.51921 20.1951C6.5578 20.3891 6.65304 20.5673 6.79289 20.7071C6.93275 20.847 7.11093 20.9422 7.30491 20.9808C7.49889 21.0194 7.69996 20.9996 7.88268 20.9239C8.06541 20.8482 8.22159 20.72 8.33147 20.5556C8.44135 20.3911 8.5 20.1978 8.5 20C8.5 19.7348 8.39464 19.4804 8.20711 19.2929C8.01957 19.1054 7.76522 19 7.5 19ZM7.5 3C7.30222 3 7.10888 3.05865 6.94443 3.16853C6.77998 3.27841 6.65181 3.43459 6.57612 3.61732C6.50043 3.80004 6.48063 4.00111 6.51921 4.19509C6.5578 4.38907 6.65304 4.56725 6.79289 4.70711C6.93275 4.84696 7.11093 4.9422 7.30491 4.98079C7.49889 5.01937 7.69996 4.99957 7.88268 4.92388C8.06541 4.84819 8.22159 4.72002 8.33147 4.55557C8.44135 4.39112 8.5 4.19778 8.5 4C8.5 3.73478 8.39464 3.48043 8.20711 3.29289C8.01957 3.10536 7.76522 3 7.5 3ZM19.5 11C19.3022 11 19.1089 11.0587 18.9444 11.1685C18.78 11.2784 18.6518 11.4346 18.5761 11.6173C18.5004 11.8 18.4806 12.0011 18.5192 12.1951C18.5578 12.3891 18.653 12.5673 18.7929 12.7071C18.9327 12.847 19.1109 12.9422 19.3049 12.9808C19.4989 13.0194 19.7 12.9996 19.8827 12.9239C20.0654 12.8482 20.2216 12.72 20.3315 12.5556C20.4414 12.3911 20.5 12.1978 20.5 12C20.5 11.7348 20.3946 11.4804 20.2071 11.2929C20.0196 11.1054 19.7652 11 19.5 11ZM19.5 15C19.3022 15 19.1089 15.0587 18.9444 15.1685C18.78 15.2784 18.6518 15.4346 18.5761 15.6173C18.5004 15.8 18.4806 16.0011 18.5192 16.1951C18.5578 16.3891 18.653 16.5673 18.7929 16.7071C18.9327 16.847 19.1109 16.9422 19.3049 16.9808C19.4989 17.0194 19.7 16.9996 19.8827 16.9239C20.0654 16.8482 20.2216 16.72 20.3315 16.5556C20.4414 16.3911 20.5 16.1978 20.5 16C20.5 15.7348 20.3946 15.4804 20.2071 15.2929C20.0196 15.1054 19.7652 15 19.5 15ZM11.5 3C11.3022 3 11.1089 3.05865 10.9444 3.16853C10.78 3.27841 10.6518 3.43459 10.5761 3.61732C10.5004 3.80004 10.4806 4.00111 10.5192 4.19509C10.5578 4.38907 10.653 4.56725 10.7929 4.70711C10.9327 4.84696 11.1109 4.9422 11.3049 4.98079C11.4989 5.01937 11.7 4.99957 11.8827 4.92388C12.0654 4.84819 12.2216 4.72002 12.3315 4.55557C12.4414 4.39112 12.5 4.19778 12.5 4C12.5 3.73478 12.3946 3.48043 12.2071 3.29289C12.0196 3.10536 11.7652 3 11.5 3ZM19.5 19C19.3022 19 19.1089 19.0586 18.9444 19.1685C18.78 19.2784 18.6518 19.4346 18.5761 19.6173C18.5004 19.8 18.4806 20.0011 18.5192 20.1951C18.5578 20.3891 18.653 20.5673 18.7929 20.7071C18.9327 20.847 19.1109 20.9422 19.3049 20.9808C19.4989 21.0194 19.7 20.9996 19.8827 20.9239C20.0654 20.8482 20.2216 20.72 20.3315 20.5556C20.4414 20.3911 20.5 20.1978 20.5 20C20.5 19.7348 20.3946 19.4804 20.2071 19.2929C20.0196 19.1054 19.7652 19 19.5 19ZM19.5 7C19.3022 7 19.1089 7.05865 18.9444 7.16853C18.78 7.27841 18.6518 7.43459 18.5761 7.61732C18.5004 7.80004 18.4806 8.00111 18.5192 8.19509C18.5578 8.38907 18.653 8.56725 18.7929 8.70711C18.9327 8.84696 19.1109 8.9422 19.3049 8.98079C19.4989 9.01937 19.7 8.99957 19.8827 8.92388C20.0654 8.84819 20.2216 8.72002 20.3315 8.55557C20.4414 8.39112 20.5 8.19778 20.5 8C20.5 7.73478 20.3946 7.48043 20.2071 7.29289C20.0196 7.10536 19.7652 7 19.5 7ZM15.5 3C15.3022 3 15.1089 3.05865 14.9444 3.16853C14.78 3.27841 14.6518 3.43459 14.5761 3.61732C14.5004 3.80004 14.4806 4.00111 14.5192 4.19509C14.5578 4.38907 14.653 4.56725 14.7929 4.70711C14.9327 4.84696 15.1109 4.9422 15.3049 4.98079C15.4989 5.01937 15.7 4.99957 15.8827 4.92388C16.0654 4.84819 16.2216 4.72002 16.3315 4.55557C16.4414 4.39112 16.5 4.19778 16.5 4C16.5 3.73478 16.3946 3.48043 16.2071 3.29289C16.0196 3.10536 15.7652 3 15.5 3ZM15.5 19C15.3022 19 15.1089 19.0586 14.9444 19.1685C14.78 19.2784 14.6518 19.4346 14.5761 19.6173C14.5004 19.8 14.4806 20.0011 14.5192 20.1951C14.5578 20.3891 14.653 20.5673 14.7929 20.7071C14.9327 20.847 15.1109 20.9422 15.3049 20.9808C15.4989 21.0194 15.7 20.9996 15.8827 20.9239C16.0654 20.8482 16.2216 20.72 16.3315 20.5556C16.4414 20.3911 16.5 20.1978 16.5 20C16.5 19.7348 16.3946 19.4804 16.2071 19.2929C16.0196 19.1054 15.7652 19 15.5 19ZM15.5 11C15.3022 11 15.1089 11.0587 14.9444 11.1685C14.78 11.2784 14.6518 11.4346 14.5761 11.6173C14.5004 11.8 14.4806 12.0011 14.5192 12.1951C14.5578 12.3891 14.653 12.5673 14.7929 12.7071C14.9327 12.847 15.1109 12.9422 15.3049 12.9808C15.4989 13.0194 15.7 12.9996 15.8827 12.9239C16.0654 12.8482 16.2216 12.72 16.3315 12.5556C16.4414 12.3911 16.5 12.1978 16.5 12C16.5 11.7348 16.3946 11.4804 16.2071 11.2929C16.0196 11.1054 15.7652 11 15.5 11Z" />
</svg>
