<svg width="24" height="24" viewBox="0 0 24 24" xmlns="http://www.w3.org/2000/svg">
<path d="M8 11C7.80222 11 7.60888 11.0587 7.44443 11.1685C7.27998 11.2784 7.15181 11.4346 7.07612 11.6173C7.00043 11.8 6.98063 12.0011 7.01922 12.1951C7.0578 12.3891 7.15304 12.5673 7.29289 12.7071C7.43275 12.847 7.61093 12.9422 7.80491 12.9808C7.99889 13.0194 8.19996 12.9996 8.38268 12.9239C8.56541 12.8482 8.72159 12.72 8.83147 12.5556C8.94135 12.3911 9 12.1978 9 12C9 11.7348 8.89464 11.4804 8.70711 11.2929C8.51957 11.1054 8.26522 11 8 11ZM8 19C7.80222 19 7.60888 19.0586 7.44443 19.1685C7.27998 19.2784 7.15181 19.4346 7.07612 19.6173C7.00043 19.8 6.98063 20.0011 7.01922 20.1951C7.0578 20.3891 7.15304 20.5673 7.29289 20.7071C7.43275 20.847 7.61093 20.9422 7.80491 20.9808C7.99889 21.0194 8.19996 20.9996 8.38268 20.9239C8.56541 20.8482 8.72159 20.72 8.83147 20.5556C8.94135 20.3911 9 20.1978 9 20C9 19.7348 8.89464 19.4804 8.70711 19.2929C8.51957 19.1054 8.26522 19 8 19ZM12 19C11.8022 19 11.6089 19.0586 11.4444 19.1685C11.28 19.2784 11.1518 19.4346 11.0761 19.6173C11.0004 19.8 10.9806 20.0011 11.0192 20.1951C11.0578 20.3891 11.153 20.5673 11.2929 20.7071C11.4327 20.847 11.6109 20.9422 11.8049 20.9808C11.9989 21.0194 12.2 20.9996 12.3827 20.9239C12.5654 20.8482 12.7216 20.72 12.8315 20.5556C12.9414 20.3911 13 20.1978 13 20C13 19.7348 12.8946 19.4804 12.7071 19.2929C12.5196 19.1054 12.2652 19 12 19ZM4 3C3.80222 3 3.60888 3.05865 3.44443 3.16853C3.27998 3.27841 3.15181 3.43459 3.07612 3.61732C3.00043 3.80004 2.98063 4.00111 3.01922 4.19509C3.0578 4.38907 3.15304 4.56725 3.29289 4.70711C3.43275 4.84696 3.61093 4.9422 3.80491 4.98079C3.99889 5.01937 4.19996 4.99957 4.38268 4.92388C4.56541 4.84819 4.72159 4.72002 4.83147 4.55557C4.94135 4.39112 5 4.19778 5 4C5 3.73478 4.89464 3.48043 4.70711 3.29289C4.51957 3.10536 4.26522 3 4 3ZM4 11C3.80222 11 3.60888 11.0587 3.44443 11.1685C3.27998 11.2784 3.15181 11.4346 3.07612 11.6173C3.00043 11.8 2.98063 12.0011 3.01922 12.1951C3.0578 12.3891 3.15304 12.5673 3.29289 12.7071C3.43275 12.847 3.61093 12.9422 3.80491 12.9808C3.99889 13.0194 4.19996 12.9996 4.38268 12.9239C4.56541 12.8482 4.72159 12.72 4.83147 12.5556C4.94135 12.3911 5 12.1978 5 12C5 11.7348 4.89464 11.4804 4.70711 11.2929C4.51957 11.1054 4.26522 11 4 11ZM20 5C20.1978 5 20.3911 4.94135 20.5556 4.83147C20.72 4.72159 20.8482 4.56541 20.9239 4.38268C20.9996 4.19996 21.0194 3.99889 20.9808 3.80491C20.9422 3.61093 20.847 3.43275 20.7071 3.29289C20.5673 3.15304 20.3891 3.0578 20.1951 3.01922C20.0011 2.98063 19.8 3.00043 19.6173 3.07612C19.4346 3.15181 19.2784 3.27998 19.1685 3.44443C19.0586 3.60888 19 3.80222 19 4C19 4.26522 19.1054 4.51957 19.2929 4.70711C19.4804 4.89464 19.7348 5 20 5ZM4 19C3.80222 19 3.60888 19.0586 3.44443 19.1685C3.27998 19.2784 3.15181 19.4346 3.07612 19.6173C3.00043 19.8 2.98063 20.0011 3.01922 20.1951C3.0578 20.3891 3.15304 20.5673 3.29289 20.7071C3.43275 20.847 3.61093 20.9422 3.80491 20.9808C3.99889 21.0194 4.19996 20.9996 4.38268 20.9239C4.56541 20.8482 4.72159 20.72 4.83147 20.5556C4.94135 20.3911 5 20.1978 5 20C5 19.7348 4.89464 19.4804 4.70711 19.2929C4.51957 19.1054 4.26522 19 4 19ZM12 15C11.8022 15 11.6089 15.0587 11.4444 15.1685C11.28 15.2784 11.1518 15.4346 11.0761 15.6173C11.0004 15.8 10.9806 16.0011 11.0192 16.1951C11.0578 16.3891 11.153 16.5673 11.2929 16.7071C11.4327 16.847 11.6109 16.9422 11.8049 16.9808C11.9989 17.0194 12.2 16.9996 12.3827 16.9239C12.5654 16.8482 12.7216 16.72 12.8315 16.5556C12.9414 16.3911 13 16.1978 13 16C13 15.7348 12.8946 15.4804 12.7071 15.2929C12.5196 15.1054 12.2652 15 12 15ZM4 15C3.80222 15 3.60888 15.0587 3.44443 15.1685C3.27998 15.2784 3.15181 15.4346 3.07612 15.6173C3.00043 15.8 2.98063 16.0011 3.01922 16.1951C3.0578 16.3891 3.15304 16.5673 3.29289 16.7071C3.43275 16.847 3.61093 16.9422 3.80491 16.9808C3.99889 17.0194 4.19996 16.9996 4.38268 16.9239C4.56541 16.8482 4.72159 16.72 4.83147 16.5556C4.94135 16.3911 5 16.1978 5 16C5 15.7348 4.89464 15.4804 4.70711 15.2929C4.51957 15.1054 4.26522 15 4 15ZM4 7C3.80222 7 3.60888 7.05865 3.44443 7.16853C3.27998 7.27841 3.15181 7.43459 3.07612 7.61732C3.00043 7.80004 2.98063 8.00111 3.01922 8.19509C3.0578 8.38907 3.15304 8.56725 3.29289 8.70711C3.43275 8.84696 3.61093 8.9422 3.80491 8.98079C3.99889 9.01937 4.19996 8.99957 4.38268 8.92388C4.56541 8.84819 4.72159 8.72002 4.83147 8.55557C4.94135 8.39112 5 8.19778 5 8C5 7.73478 4.89464 7.48043 4.70711 7.29289C4.51957 7.10536 4.26522 7 4 7ZM8 3C7.80222 3 7.60888 3.05865 7.44443 3.16853C7.27998 3.27841 7.15181 3.43459 7.07612 3.61732C7.00043 3.80004 6.98063 4.00111 7.01922 4.19509C7.0578 4.38907 7.15304 4.56725 7.29289 4.70711C7.43275 4.84696 7.61093 4.9422 7.80491 4.98079C7.99889 5.01937 8.19996 4.99957 8.38268 4.92388C8.56541 4.84819 8.72159 4.72002 8.83147 4.55557C8.94135 4.39112 9 4.19778 9 4C9 3.73478 8.89464 3.48043 8.70711 3.29289C8.51957 3.10536 8.26522 3 8 3ZM20 15C19.8022 15 19.6089 15.0587 19.4444 15.1685C19.28 15.2784 19.1518 15.4346 19.0761 15.6173C19.0004 15.8 18.9806 16.0011 19.0192 16.1951C19.0578 16.3891 19.153 16.5673 19.2929 16.7071C19.4327 16.847 19.6109 16.9422 19.8049 16.9808C19.9989 17.0194 20.2 16.9996 20.3827 16.9239C20.5654 16.8482 20.7216 16.72 20.8315 16.5556C20.9414 16.3911 21 16.1978 21 16C21 15.7348 20.8946 15.4804 20.7071 15.2929C20.5196 15.1054 20.2652 15 20 15ZM20 19C19.8022 19 19.6089 19.0586 19.4444 19.1685C19.28 19.2784 19.1518 19.4346 19.0761 19.6173C19.0004 19.8 18.9806 20.0011 19.0192 20.1951C19.0578 20.3891 19.153 20.5673 19.2929 20.7071C19.4327 20.847 19.6109 20.9422 19.8049 20.9808C19.9989 21.0194 20.2 20.9996 20.3827 20.9239C20.5654 20.8482 20.7216 20.72 20.8315 20.5556C20.9414 20.3911 21 20.1978 21 20C21 19.7348 20.8946 19.4804 20.7071 19.2929C20.5196 19.1054 20.2652 19 20 19ZM20 7C19.8022 7 19.6089 7.05865 19.4444 7.16853C19.28 7.27841 19.1518 7.43459 19.0761 7.61732C19.0004 7.80004 18.9806 8.00111 19.0192 8.19509C19.0578 8.38907 19.153 8.56725 19.2929 8.70711C19.4327 8.84696 19.6109 8.9422 19.8049 8.98079C19.9989 9.01937 20.2 8.99957 20.3827 8.92388C20.5654 8.84819 20.7216 8.72002 20.8315 8.55557C20.9414 8.39112 21 8.19778 21 8C21 7.73478 20.8946 7.48043 20.7071 7.29289C20.5196 7.10536 20.2652 7 20 7ZM12 11C11.8022 11 11.6089 11.0587 11.4444 11.1685C11.28 11.2784 11.1518 11.4346 11.0761 11.6173C11.0004 11.8 10.9806 12.0011 11.0192 12.1951C11.0578 12.3891 11.153 12.5673 11.2929 12.7071C11.4327 12.847 11.6109 12.9422 11.8049 12.9808C11.9989 13.0194 12.2 12.9996 12.3827 12.9239C12.5654 12.8482 12.7216 12.72 12.8315 12.5556C12.9414 12.3911 13 12.1978 13 12C13 11.7348 12.8946 11.4804 12.7071 11.2929C12.5196 11.1054 12.2652 11 12 11ZM20 11C19.8022 11 19.6089 11.0587 19.4444 11.1685C19.28 11.2784 19.1518 11.4346 19.0761 11.6173C19.0004 11.8 18.9806 12.0011 19.0192 12.1951C19.0578 12.3891 19.153 12.5673 19.2929 12.7071C19.4327 12.847 19.6109 12.9422 19.8049 12.9808C19.9989 13.0194 20.2 12.9996 20.3827 12.9239C20.5654 12.8482 20.7216 12.72 20.8315 12.5556C20.9414 12.3911 21 12.1978 21 12C21 11.7348 20.8946 11.4804 20.7071 11.2929C20.5196 11.1054 20.2652 11 20 11ZM16 3C15.8022 3 15.6089 3.05865 15.4444 3.16853C15.28 3.27841 15.1518 3.43459 15.0761 3.61732C15.0004 3.80004 14.9806 4.00111 15.0192 4.19509C15.0578 4.38907 15.153 4.56725 15.2929 4.70711C15.4327 4.84696 15.6109 4.9422 15.8049 4.98079C15.9989 5.01937 16.2 4.99957 16.3827 4.92388C16.5654 4.84819 16.7216 4.72002 16.8315 4.55557C16.9414 4.39112 17 4.19778 17 4C17 3.73478 16.8946 3.48043 16.7071 3.29289C16.5196 3.10536 16.2652 3 16 3ZM12 3C11.8022 3 11.6089 3.05865 11.4444 3.16853C11.28 3.27841 11.1518 3.43459 11.0761 3.61732C11.0004 3.80004 10.9806 4.00111 11.0192 4.19509C11.0578 4.38907 11.153 4.56725 11.2929 4.70711C11.4327 4.84696 11.6109 4.9422 11.8049 4.98079C11.9989 5.01937 12.2 4.99957 12.3827 4.92388C12.5654 4.84819 12.7216 4.72002 12.8315 4.55557C12.9414 4.39112 13 4.19778 13 4C13 3.73478 12.8946 3.48043 12.7071 3.29289C12.5196 3.10536 12.2652 3 12 3ZM12 7C11.8022 7 11.6089 7.05865 11.4444 7.16853C11.28 7.27841 11.1518 7.43459 11.0761 7.61732C11.0004 7.80004 10.9806 8.00111 11.0192 8.19509C11.0578 8.38907 11.153 8.56725 11.2929 8.70711C11.4327 8.84696 11.6109 8.9422 11.8049 8.98079C11.9989 9.01937 12.2 8.99957 12.3827 8.92388C12.5654 8.84819 12.7216 8.72002 12.8315 8.55557C12.9414 8.39112 13 8.19778 13 8C13 7.73478 12.8946 7.48043 12.7071 7.29289C12.5196 7.10536 12.2652 7 12 7ZM16 19C15.8022 19 15.6089 19.0586 15.4444 19.1685C15.28 19.2784 15.1518 19.4346 15.0761 19.6173C15.0004 19.8 14.9806 20.0011 15.0192 20.1951C15.0578 20.3891 15.153 20.5673 15.2929 20.7071C15.4327 20.847 15.6109 20.9422 15.8049 20.9808C15.9989 21.0194 16.2 20.9996 16.3827 20.9239C16.5654 20.8482 16.7216 20.72 16.8315 20.5556C16.9414 20.3911 17 20.1978 17 20C17 19.7348 16.8946 19.4804 16.7071 19.2929C16.5196 19.1054 16.2652 19 16 19ZM16 11C15.8022 11 15.6089 11.0587 15.4444 11.1685C15.28 11.2784 15.1518 11.4346 15.0761 11.6173C15.0004 11.8 14.9806 12.0011 15.0192 12.1951C15.0578 12.3891 15.153 12.5673 15.2929 12.7071C15.4327 12.847 15.6109 12.9422 15.8049 12.9808C15.9989 13.0194 16.2 12.9996 16.3827 12.9239C16.5654 12.8482 16.7216 12.72 16.8315 12.5556C16.9414 12.3911 17 12.1978 17 12C17 11.7348 16.8946 11.4804 16.7071 11.2929C16.5196 11.1054 16.2652 11 16 11Z" />
</svg>
