<svg width="24" height="24" viewBox="0 0 24 24" xmlns="http://www.w3.org/2000/svg">
<path d="M3.63981 9.56C3.43559 9.39026 3.17231 9.3086 2.90788 9.33298C2.64346 9.35736 2.39955 9.48578 2.22981 9.69C2.06007 9.89422 1.97841 10.1575 2.00279 10.4219C2.02717 10.6863 2.15559 10.9303 2.35981 11.1L3.43981 12L2.35981 12.9C2.25855 12.9839 2.17485 13.087 2.11349 13.2034C2.05214 13.3197 2.01435 13.4471 2.00227 13.578C1.99019 13.709 2.00408 13.8411 2.04312 13.9667C2.08217 14.0923 2.14561 14.209 2.22981 14.31C2.31376 14.4113 2.41686 14.495 2.5332 14.5563C2.64955 14.6177 2.77686 14.6555 2.90784 14.6675C3.03881 14.6796 3.17088 14.6657 3.29649 14.6267C3.42209 14.5876 3.53876 14.5242 3.63981 14.44L5.63981 12.77C5.75305 12.6762 5.8442 12.5585 5.90676 12.4254C5.96933 12.2923 6.00176 12.1471 6.00176 12C6.00176 11.8529 5.96933 11.7077 5.90676 11.5746C5.8442 11.4415 5.75305 11.3238 5.63981 11.23L3.63981 9.56ZM8.99981 5C8.73459 5 8.48024 5.10536 8.2927 5.29289C8.10516 5.48043 7.99981 5.73478 7.99981 6V18C7.99981 18.2652 8.10516 18.5196 8.2927 18.7071C8.48024 18.8946 8.73459 19 8.99981 19C9.26502 19 9.51938 18.8946 9.70691 18.7071C9.89445 18.5196 9.99981 18.2652 9.99981 18V6C9.99981 5.73478 9.89445 5.48043 9.70691 5.29289C9.51938 5.10536 9.26502 5 8.99981 5ZM12.9998 7H20.9998C21.265 7 21.5194 6.89464 21.7069 6.70711C21.8945 6.51957 21.9998 6.26522 21.9998 6C21.9998 5.73478 21.8945 5.48043 21.7069 5.29289C21.5194 5.10536 21.265 5 20.9998 5H12.9998C12.7346 5 12.4802 5.10536 12.2927 5.29289C12.1052 5.48043 11.9998 5.73478 11.9998 6C11.9998 6.26522 12.1052 6.51957 12.2927 6.70711C12.4802 6.89464 12.7346 7 12.9998 7ZM20.9998 17H12.9998C12.7346 17 12.4802 17.1054 12.2927 17.2929C12.1052 17.4804 11.9998 17.7348 11.9998 18C11.9998 18.2652 12.1052 18.5196 12.2927 18.7071C12.4802 18.8946 12.7346 19 12.9998 19H20.9998C21.265 19 21.5194 18.8946 21.7069 18.7071C21.8945 18.5196 21.9998 18.2652 21.9998 18C21.9998 17.7348 21.8945 17.4804 21.7069 17.2929C21.5194 17.1054 21.265 17 20.9998 17ZM20.9998 9H12.9998C12.7346 9 12.4802 9.10536 12.2927 9.29289C12.1052 9.48043 11.9998 9.73478 11.9998 10C11.9998 10.2652 12.1052 10.5196 12.2927 10.7071C12.4802 10.8946 12.7346 11 12.9998 11H20.9998C21.265 11 21.5194 10.8946 21.7069 10.7071C21.8945 10.5196 21.9998 10.2652 21.9998 10C21.9998 9.73478 21.8945 9.48043 21.7069 9.29289C21.5194 9.10536 21.265 9 20.9998 9ZM20.9998 13H12.9998C12.7346 13 12.4802 13.1054 12.2927 13.2929C12.1052 13.4804 11.9998 13.7348 11.9998 14C11.9998 14.2652 12.1052 14.5196 12.2927 14.7071C12.4802 14.8946 12.7346 15 12.9998 15H20.9998C21.265 15 21.5194 14.8946 21.7069 14.7071C21.8945 14.5196 21.9998 14.2652 21.9998 14C21.9998 13.7348 21.8945 13.4804 21.7069 13.2929C21.5194 13.1054 21.265 13 20.9998 13Z" />
</svg>
