<svg width="24" height="24" viewBox="0 0 24 24" xmlns="http://www.w3.org/2000/svg">
<path d="M15 13H9C8.73478 13 8.48043 13.1054 8.29289 13.2929C8.10536 13.4804 8 13.7348 8 14C8 14.2652 8.10536 14.5196 8.29289 14.7071C8.48043 14.8946 8.73478 15 9 15H11V17C11 17.2652 11.1054 17.5196 11.2929 17.7071C11.4804 17.8946 11.7348 18 12 18C12.2652 18 12.5196 17.8946 12.7071 17.7071C12.8946 17.5196 13 17.2652 13 17V15H15C15.2652 15 15.5196 14.8946 15.7071 14.7071C15.8946 14.5196 16 14.2652 16 14C16 13.7348 15.8946 13.4804 15.7071 13.2929C15.5196 13.1054 15.2652 13 15 13ZM17 6H7C6.73478 6 6.48043 6.10536 6.29289 6.29289C6.10536 6.48043 6 6.73478 6 7C6 7.26522 6.10536 7.51957 6.29289 7.70711C6.48043 7.89464 6.73478 8 7 8H11V10C11 10.2652 11.1054 10.5196 11.2929 10.7071C11.4804 10.8946 11.7348 11 12 11C12.2652 11 12.5196 10.8946 12.7071 10.7071C12.8946 10.5196 13 10.2652 13 10V8H17C17.2652 8 17.5196 7.89464 17.7071 7.70711C17.8946 7.51957 18 7.26522 18 7C18 6.73478 17.8946 6.48043 17.7071 6.29289C17.5196 6.10536 17.2652 6 17 6Z" />
</svg>
