<svg width="24" height="24" viewBox="0 0 24 24" xmlns="http://www.w3.org/2000/svg">
<path d="M21 20H20V5C20 4.73478 19.8946 4.48043 19.7071 4.29289C19.5196 4.10536 19.2652 4 19 4C18.7348 4 18.4804 4.10536 18.2929 4.29289C18.1054 4.48043 18 4.73478 18 5V20H16V13C16 12.7348 15.8946 12.4804 15.7071 12.2929C15.5196 12.1054 15.2652 12 15 12C14.7348 12 14.4804 12.1054 14.2929 12.2929C14.1054 12.4804 14 12.7348 14 13V20H12V9C12 8.73478 11.8946 8.48043 11.7071 8.29289C11.5196 8.10536 11.2652 8 11 8C10.7348 8 10.4804 8.10536 10.2929 8.29289C10.1054 8.48043 10 8.73478 10 9V20H8V17C8 16.7348 7.89464 16.4804 7.70711 16.2929C7.51957 16.1054 7.26522 16 7 16C6.73478 16 6.48043 16.1054 6.29289 16.2929C6.10536 16.4804 6 16.7348 6 17V20H4V3C4 2.73478 3.89464 2.48043 3.70711 2.29289C3.51957 2.10536 3.26522 2 3 2C2.73478 2 2.48043 2.10536 2.29289 2.29289C2.10536 2.48043 2 2.73478 2 3V21C2 21.2652 2.10536 21.5196 2.29289 21.7071C2.48043 21.8946 2.73478 22 3 22H21C21.2652 22 21.5196 21.8946 21.7071 21.7071C21.8946 21.5196 22 21.2652 22 21C22 20.7348 21.8946 20.4804 21.7071 20.2929C21.5196 20.1054 21.2652 20 21 20Z" />
</svg>
