<svg width="24" height="24" viewBox="0 0 24 24" xmlns="http://www.w3.org/2000/svg">
<path d="M12 1C9.82441 1 7.69767 1.64514 5.88873 2.85383C4.07979 4.06253 2.66989 5.78049 1.83733 7.79048C1.00477 9.80047 0.786929 12.0122 1.21137 14.146C1.6358 16.2798 2.68345 18.2398 4.22183 19.7782C5.76021 21.3166 7.72022 22.3642 9.85401 22.7886C11.9878 23.2131 14.1995 22.9952 16.2095 22.1627C18.2195 21.3301 19.9375 19.9202 21.1462 18.1113C22.3549 16.3023 23 14.1756 23 12C23 9.08262 21.8411 6.28473 19.7782 4.22183C17.7153 2.15893 14.9174 1 12 1ZM12 21C10.22 21 8.47992 20.4722 6.99987 19.4832C5.51983 18.4943 4.36628 17.0887 3.68509 15.4442C3.0039 13.7996 2.82567 11.99 3.17294 10.2442C3.5202 8.49836 4.37737 6.89471 5.63604 5.63604C6.89472 4.37737 8.49836 3.5202 10.2442 3.17293C11.99 2.82567 13.7996 3.0039 15.4442 3.68508C17.0887 4.36627 18.4943 5.51983 19.4832 6.99987C20.4722 8.47991 21 10.22 21 12C21 14.3869 20.0518 16.6761 18.364 18.364C16.6761 20.0518 14.387 21 12 21ZM12.59 7.67C13.1034 7.68311 13.6069 7.81443 14.0613 8.05377C14.5157 8.29312 14.9088 8.63403 15.21 9.05C15.3706 9.26063 15.6082 9.39893 15.8707 9.43455C16.1332 9.47017 16.3991 9.4002 16.61 9.24C16.715 9.15966 16.803 9.0593 16.8689 8.94474C16.9348 8.83017 16.9774 8.70367 16.9941 8.57255C17.0109 8.44143 17.0015 8.30829 16.9664 8.18084C16.9314 8.05338 16.8714 7.93414 16.79 7.83C16.3035 7.1709 15.6714 6.63305 14.9428 6.25838C14.2143 5.88372 13.4091 5.68236 12.59 5.67C11.4448 5.70333 10.3378 6.08896 9.41978 6.77435C8.50176 7.45973 7.81741 8.41152 7.46 9.5H6C5.73479 9.5 5.48043 9.60536 5.2929 9.79289C5.10536 9.98043 5 10.2348 5 10.5C5 10.7652 5.10536 11.0196 5.2929 11.2071C5.48043 11.3946 5.73479 11.5 6 11.5H7C7 11.67 7 11.83 7 12C7 12.17 7 12.33 7 12.5H6C5.73479 12.5 5.48043 12.6054 5.2929 12.7929C5.10536 12.9804 5 13.2348 5 13.5C5 13.7652 5.10536 14.0196 5.2929 14.2071C5.48043 14.3946 5.73479 14.5 6 14.5H7.46C7.81741 15.5885 8.50176 16.5403 9.41978 17.2257C10.3378 17.911 11.4448 18.2967 12.59 18.33C13.4091 18.3176 14.2143 18.1163 14.9428 17.7416C15.6714 17.367 16.3035 16.8291 16.79 16.17C16.8976 16.07 16.9818 15.9476 17.0367 15.8113C17.0916 15.6751 17.1158 15.5285 17.1077 15.3818C17.0995 15.2352 17.0591 15.0921 16.9894 14.9629C16.9197 14.8336 16.8223 14.7213 16.7043 14.6339C16.5863 14.5465 16.4505 14.4861 16.3065 14.4572C16.1625 14.4282 16.0139 14.4313 15.8712 14.4663C15.7286 14.5012 15.5954 14.5671 15.4811 14.6594C15.3668 14.7516 15.2743 14.8679 15.21 15C14.9088 15.416 14.5157 15.7569 14.0613 15.9962C13.6069 16.2356 13.1034 16.3669 12.59 16.38C11.9798 16.3559 11.3871 16.1688 10.8736 15.8382C10.3601 15.5076 9.94453 15.0455 9.67 14.5H12C12.2652 14.5 12.5196 14.3946 12.7071 14.2071C12.8946 14.0196 13 13.7652 13 13.5C13 13.2348 12.8946 12.9804 12.7071 12.7929C12.5196 12.6054 12.2652 12.5 12 12.5H9.05C9.02345 12.3345 9.00675 12.1675 9 12C9.00675 11.8325 9.02345 11.6655 9.05 11.5H12C12.2652 11.5 12.5196 11.3946 12.7071 11.2071C12.8946 11.0196 13 10.7652 13 10.5C13 10.2348 12.8946 9.98043 12.7071 9.79289C12.5196 9.60536 12.2652 9.5 12 9.5H9.67C9.95118 8.96381 10.3696 8.51186 10.8827 8.19035C11.3957 7.86883 11.9849 7.68927 12.59 7.67Z" />
</svg>
