<svg width="24" height="24" viewBox="0 0 24 24" xmlns="http://www.w3.org/2000/svg">
<path d="M9.00001 12H7.00001C6.73479 12 6.48044 12.1054 6.2929 12.2929C6.10537 12.4804 6.00001 12.7348 6.00001 13C6.00001 13.2652 6.10537 13.5196 6.2929 13.7071C6.48044 13.8946 6.73479 14 7.00001 14H9.00001C9.26522 14 9.51958 13.8946 9.70711 13.7071C9.89465 13.5196 10 13.2652 10 13C10 12.7348 9.89465 12.4804 9.70711 12.2929C9.51958 12.1054 9.26522 12 9.00001 12ZM8.00001 10H12C12.2652 10 12.5196 9.89464 12.7071 9.70711C12.8947 9.51957 13 9.26522 13 9C13 8.73478 12.8947 8.48043 12.7071 8.29289C12.5196 8.10536 12.2652 8 12 8H8.00001C7.73479 8 7.48044 8.10536 7.2929 8.29289C7.10537 8.48043 7.00001 8.73478 7.00001 9C7.00001 9.26522 7.10537 9.51957 7.2929 9.70711C7.48044 9.89464 7.73479 10 8.00001 10ZM9.00001 16H7.00001C6.73479 16 6.48044 16.1054 6.2929 16.2929C6.10537 16.4804 6.00001 16.7348 6.00001 17C6.00001 17.2652 6.10537 17.5196 6.2929 17.7071C6.48044 17.8946 6.73479 18 7.00001 18H9.00001C9.26522 18 9.51958 17.8946 9.70711 17.7071C9.89465 17.5196 10 17.2652 10 17C10 16.7348 9.89465 16.4804 9.70711 16.2929C9.51958 16.1054 9.26522 16 9.00001 16ZM21 12H18V3C18.0007 2.82379 17.9548 2.65052 17.867 2.49775C17.7792 2.34497 17.6526 2.2181 17.5 2.13C17.348 2.04223 17.1755 1.99603 17 1.99603C16.8245 1.99603 16.652 2.04223 16.5 2.13L13.5 3.85L10.5 2.13C10.348 2.04223 10.1755 1.99603 10 1.99603C9.82447 1.99603 9.65203 2.04223 9.50001 2.13L6.50001 3.85L3.50001 2.13C3.34799 2.04223 3.17554 1.99603 3.00001 1.99603C2.82447 1.99603 2.65203 2.04223 2.50001 2.13C2.3474 2.2181 2.22079 2.34497 2.13299 2.49775C2.04518 2.65052 1.99931 2.82379 2.00001 3V19C2.00001 19.7956 2.31608 20.5587 2.87869 21.1213C3.4413 21.6839 4.20436 22 5.00001 22H19C19.7957 22 20.5587 21.6839 21.1213 21.1213C21.6839 20.5587 22 19.7956 22 19V13C22 12.7348 21.8947 12.4804 21.7071 12.2929C21.5196 12.1054 21.2652 12 21 12ZM5.00001 20C4.73479 20 4.48044 19.8946 4.2929 19.7071C4.10536 19.5196 4.00001 19.2652 4.00001 19V4.73L6.00001 5.87C6.15435 5.95061 6.32589 5.99271 6.50001 5.99271C6.67413 5.99271 6.84567 5.95061 7.00001 5.87L10 4.15L13 5.87C13.1543 5.95061 13.3259 5.99271 13.5 5.99271C13.6741 5.99271 13.8457 5.95061 14 5.87L16 4.73V19C16.0027 19.3411 16.0636 19.6793 16.18 20H5.00001ZM20 19C20 19.2652 19.8947 19.5196 19.7071 19.7071C19.5196 19.8946 19.2652 20 19 20C18.7348 20 18.4804 19.8946 18.2929 19.7071C18.1054 19.5196 18 19.2652 18 19V14H20V19ZM13.56 16.17C13.5043 16.1322 13.4437 16.1019 13.38 16.08C13.3205 16.0496 13.2562 16.0293 13.19 16.02C13.0294 15.9878 12.8633 15.9956 12.7063 16.0427C12.5494 16.0898 12.4064 16.1747 12.29 16.29C12.1073 16.4816 12.0037 16.7352 12 17C11.9984 17.13 12.0222 17.2591 12.07 17.38C12.1244 17.5015 12.1987 17.6131 12.29 17.71C12.3872 17.7983 12.4988 17.8694 12.62 17.92C12.7397 17.9729 12.8691 18.0002 13 18.0002C13.1309 18.0002 13.2603 17.9729 13.38 17.92C13.5012 17.8694 13.6128 17.7983 13.71 17.71C13.8027 17.6166 13.876 17.5057 13.9258 17.3839C13.9755 17.2621 14.0008 17.1316 14 17C13.9963 16.7352 13.8927 16.4816 13.71 16.29C13.6625 16.247 13.6124 16.2069 13.56 16.17ZM13.7 12.29C13.5832 12.1763 13.4404 12.0928 13.2841 12.0469C13.1277 12.001 12.9624 11.994 12.8027 12.0265C12.643 12.0591 12.4937 12.1301 12.3677 12.2336C12.2418 12.337 12.143 12.4697 12.08 12.62C12.0178 12.7715 11.9937 12.936 12.0099 13.0989C12.0261 13.2619 12.0821 13.4184 12.1729 13.5547C12.2638 13.691 12.3867 13.8029 12.5309 13.8805C12.6751 13.9582 12.8362 13.9992 13 14C13.2652 14 13.5196 13.8946 13.7071 13.7071C13.8947 13.5196 14 13.2652 14 13C13.9984 12.8693 13.9712 12.7402 13.92 12.62C13.8718 12.4952 13.7967 12.3825 13.7 12.29Z" />
</svg>
