<svg width="24" height="24" viewBox="0 0 24 24" xmlns="http://www.w3.org/2000/svg">
<path d="M17.0899 2.82C16.1702 2.06358 15.0933 1.52203 13.9376 1.23484C12.7819 0.947659 11.5767 0.922089 10.4099 1.16C8.85632 1.47382 7.43093 2.24207 6.31462 3.36728C5.19832 4.49249 4.44141 5.92393 4.13994 7.48C3.91979 8.64672 3.95979 9.84765 4.2571 10.9971C4.55441 12.1466 5.1017 13.2163 5.85994 14.13C6.56363 14.9241 6.96698 15.9395 6.99994 17V20C6.99994 20.7956 7.31601 21.5587 7.87862 22.1213C8.44123 22.6839 9.20429 23 9.99994 23H13.9999C14.7956 23 15.5587 22.6839 16.1213 22.1213C16.6839 21.5587 16.9999 20.7956 16.9999 20V17.19C17.0335 16.0192 17.4637 14.8944 18.2199 14C19.5451 12.3608 20.1697 10.2648 19.9581 8.16763C19.7465 6.07043 18.7158 4.14149 17.0899 2.8V2.82ZM14.9999 20C14.9999 20.2652 14.8946 20.5196 14.707 20.7071C14.5195 20.8946 14.2652 21 13.9999 21H9.99994C9.73473 21 9.48037 20.8946 9.29284 20.7071C9.1053 20.5196 8.99994 20.2652 8.99994 20V19H14.9999V20ZM16.6699 12.76C15.6644 13.9526 15.0778 15.442 14.9999 17H12.9999V14C12.9999 13.7348 12.8946 13.4804 12.707 13.2929C12.5195 13.1054 12.2652 13 11.9999 13C11.7347 13 11.4804 13.1054 11.2928 13.2929C11.1053 13.4804 10.9999 13.7348 10.9999 14V17H8.99994C8.97356 15.4681 8.40689 13.9948 7.39994 12.84C6.73558 12.044 6.28883 11.0894 6.10325 10.0693C5.91767 9.04927 5.99959 7.99852 6.34103 7.01953C6.68247 6.04054 7.27176 5.16674 8.05146 4.48333C8.83116 3.79991 9.77465 3.3302 10.7899 3.12C11.6625 2.94034 12.5641 2.95724 13.4293 3.16947C14.2945 3.3817 15.1016 3.78392 15.792 4.34695C16.4824 4.90998 17.0387 5.61968 17.4206 6.42452C17.8025 7.22936 18.0004 8.10914 17.9999 9C18.0073 10.3699 17.537 11.6995 16.6699 12.76Z" />
</svg>
