<svg width="24" height="24" viewBox="0 0 24 24" xmlns="http://www.w3.org/2000/svg">
<path d="M8.00031 11H16.0003C16.148 10.999 16.2937 10.9653 16.4268 10.9014C16.5599 10.8374 16.6773 10.7447 16.7703 10.63C16.8681 10.5175 16.9395 10.3846 16.9792 10.241C17.019 10.0974 17.0262 9.94674 17.0003 9.8L16.0003 4.8C15.9536 4.57072 15.8279 4.3651 15.6452 4.21893C15.4625 4.07275 15.2343 3.99528 15.0003 4H9.00031C8.76636 3.99528 8.53817 4.07275 8.35545 4.21893C8.17274 4.3651 8.04706 4.57072 8.00031 4.8L7.00031 9.8C6.97169 9.94527 6.97568 10.0951 7.01199 10.2386C7.04831 10.3821 7.11605 10.5158 7.21031 10.63C7.30548 10.7473 7.42601 10.8416 7.56284 10.9057C7.69967 10.9698 7.84923 11.002 8.00031 11ZM9.82031 6H14.1803L14.7803 9H9.22031L9.82031 6ZM22.0003 13.8C21.9536 13.5707 21.8279 13.3651 21.6452 13.2189C21.4625 13.0728 21.2343 12.9953 21.0003 13H15.0003C14.7664 12.9953 14.5382 13.0728 14.3555 13.2189C14.1727 13.3651 14.0471 13.5707 14.0003 13.8L13.0003 18.8C12.9717 18.9453 12.9757 19.0951 13.012 19.2386C13.0483 19.3821 13.116 19.5158 13.2103 19.63C13.3055 19.7473 13.426 19.8416 13.5628 19.9057C13.6997 19.9698 13.8492 20.002 14.0003 20H22.0003C22.148 19.999 22.2937 19.9653 22.4268 19.9014C22.5599 19.8374 22.6773 19.7447 22.7703 19.63C22.8681 19.5175 22.9395 19.3846 22.9792 19.241C23.019 19.0974 23.0262 18.9467 23.0003 18.8L22.0003 13.8ZM15.2203 18L15.8203 15H20.1803L20.7803 18H15.2203ZM9.00031 13H3.00031C2.76636 12.9953 2.53817 13.0728 2.35545 13.2189C2.17273 13.3651 2.04706 13.5707 2.00031 13.8L1.00031 18.8C0.971687 18.9453 0.975677 19.0951 1.01199 19.2386C1.04831 19.3821 1.11605 19.5158 1.21031 19.63C1.30548 19.7473 1.42601 19.8416 1.56284 19.9057C1.69966 19.9698 1.84923 20.002 2.00031 20H10.0003C10.148 19.999 10.2937 19.9653 10.4268 19.9014C10.5599 19.8374 10.6773 19.7447 10.7703 19.63C10.8681 19.5175 10.9395 19.3846 10.9792 19.241C11.019 19.0974 11.0262 18.9467 11.0003 18.8L10.0003 13.8C9.95356 13.5707 9.82789 13.3651 9.64517 13.2189C9.46245 13.0728 9.23426 12.9953 9.00031 13ZM3.22031 18L3.82031 15H8.18031L8.78031 18H3.22031Z" />
</svg>
