<svg width="24" height="24" viewBox="0 0 24 24" xmlns="http://www.w3.org/2000/svg">
<path d="M19 6.5H16V5.5C16 4.70435 15.6839 3.94129 15.1213 3.37868C14.5587 2.81607 13.7956 2.5 13 2.5H11C10.2044 2.5 9.44129 2.81607 8.87868 3.37868C8.31607 3.94129 8 4.70435 8 5.5V6.5H5C4.20435 6.5 3.44129 6.81607 2.87868 7.37868C2.31607 7.94129 2 8.70435 2 9.5V18.5C2 19.2956 2.31607 20.0587 2.87868 20.6213C3.44129 21.1839 4.20435 21.5 5 21.5H19C19.7956 21.5 20.5587 21.1839 21.1213 20.6213C21.6839 20.0587 22 19.2956 22 18.5V9.5C22 8.70435 21.6839 7.94129 21.1213 7.37868C20.5587 6.81607 19.7956 6.5 19 6.5ZM10 5.5C10 5.23478 10.1054 4.98043 10.2929 4.79289C10.4804 4.60536 10.7348 4.5 11 4.5H13C13.2652 4.5 13.5196 4.60536 13.7071 4.79289C13.8946 4.98043 14 5.23478 14 5.5V6.5H10V5.5ZM20 18.5C20 18.7652 19.8946 19.0196 19.7071 19.2071C19.5196 19.3946 19.2652 19.5 19 19.5H5C4.73478 19.5 4.48043 19.3946 4.29289 19.2071C4.10536 19.0196 4 18.7652 4 18.5V13.45H7V14.5C7 14.7652 7.10536 15.0196 7.29289 15.2071C7.48043 15.3946 7.73478 15.5 8 15.5C8.26522 15.5 8.51957 15.3946 8.70711 15.2071C8.89464 15.0196 9 14.7652 9 14.5V13.45H15V14.5C15 14.7652 15.1054 15.0196 15.2929 15.2071C15.4804 15.3946 15.7348 15.5 16 15.5C16.2652 15.5 16.5196 15.3946 16.7071 15.2071C16.8946 15.0196 17 14.7652 17 14.5V13.45H20V18.5ZM20 11.5H4V9.5C4 9.23478 4.10536 8.98043 4.29289 8.79289C4.48043 8.60536 4.73478 8.5 5 8.5H19C19.2652 8.5 19.5196 8.60536 19.7071 8.79289C19.8946 8.98043 20 9.23478 20 9.5V11.5Z" />
</svg>
