<svg width="24" height="24" viewBox="0 0 24 24" xmlns="http://www.w3.org/2000/svg">
<path d="M12 11C11.4067 11 10.8266 11.1759 10.3333 11.5056C9.83994 11.8352 9.45542 12.3038 9.22836 12.8519C9.0013 13.4001 8.94189 14.0033 9.05764 14.5853C9.1734 15.1672 9.45912 15.7018 9.87868 16.1213C10.2982 16.5409 10.8328 16.8266 11.4147 16.9424C11.9967 17.0581 12.5999 16.9987 13.1481 16.7716C13.6962 16.5446 14.1648 16.1601 14.4944 15.6667C14.8241 15.1734 15 14.5933 15 14C15 13.2044 14.6839 12.4413 14.1213 11.8787C13.5587 11.3161 12.7956 11 12 11ZM12 15C11.8022 15 11.6089 14.9414 11.4444 14.8315C11.28 14.7216 11.1518 14.5654 11.0761 14.3827C11.0004 14.2 10.9806 13.9989 11.0192 13.8049C11.0578 13.6109 11.153 13.4327 11.2929 13.2929C11.4327 13.153 11.6109 13.0578 11.8049 13.0192C11.9989 12.9806 12.2 13.0004 12.3827 13.0761C12.5654 13.1518 12.7216 13.28 12.8315 13.4444C12.9414 13.6089 13 13.8022 13 14C13 14.2652 12.8946 14.5196 12.7071 14.7071C12.5196 14.8946 12.2652 15 12 15ZM19 6H16V5C16 4.20435 15.6839 3.44129 15.1213 2.87868C14.5587 2.31607 13.7956 2 13 2H11C10.2044 2 9.44129 2.31607 8.87868 2.87868C8.31607 3.44129 8 4.20435 8 5V6H5C4.20435 6 3.44129 6.31607 2.87868 6.87868C2.31607 7.44129 2 8.20435 2 9V19C2 19.7956 2.31607 20.5587 2.87868 21.1213C3.44129 21.6839 4.20435 22 5 22H19C19.7956 22 20.5587 21.6839 21.1213 21.1213C21.6839 20.5587 22 19.7956 22 19V9C22 8.20435 21.6839 7.44129 21.1213 6.87868C20.5587 6.31607 19.7956 6 19 6ZM10 5C10 4.73478 10.1054 4.48043 10.2929 4.29289C10.4804 4.10536 10.7348 4 11 4H13C13.2652 4 13.5196 4.10536 13.7071 4.29289C13.8946 4.48043 14 4.73478 14 5V6H10V5ZM4 9C4 8.73478 4.10536 8.48043 4.29289 8.29289C4.48043 8.10536 4.73478 8 5 8H6C6 8.53043 5.78929 9.03914 5.41421 9.41421C5.03914 9.78929 4.53043 10 4 10V9ZM5 20C4.73478 20 4.48043 19.8946 4.29289 19.7071C4.10536 19.5196 4 19.2652 4 19V18C4.53043 18 5.03914 18.2107 5.41421 18.5858C5.78929 18.9609 6 19.4696 6 20H5ZM20 19C20 19.2652 19.8946 19.5196 19.7071 19.7071C19.5196 19.8946 19.2652 20 19 20H18C18 19.4696 18.2107 18.9609 18.5858 18.5858C18.9609 18.2107 19.4696 18 20 18V19ZM20 16C18.9391 16 17.9217 16.4214 17.1716 17.1716C16.4214 17.9217 16 18.9391 16 20H8C8 18.9391 7.57857 17.9217 6.82843 17.1716C6.07828 16.4214 5.06087 16 4 16V12C5.06087 12 6.07828 11.5786 6.82843 10.8284C7.57857 10.0783 8 9.06087 8 8H16C16 9.06087 16.4214 10.0783 17.1716 10.8284C17.9217 11.5786 18.9391 12 20 12V16ZM20 10C19.4696 10 18.9609 9.78929 18.5858 9.41421C18.2107 9.03914 18 8.53043 18 8H19C19.2652 8 19.5196 8.10536 19.7071 8.29289C19.8946 8.48043 20 8.73478 20 9V10Z" />
</svg>
