<svg width="24" height="24" viewBox="0 0 24 24" xmlns="http://www.w3.org/2000/svg">
<path d="M19 7H16V6C16 5.20435 15.6839 4.44129 15.1213 3.87868C14.5587 3.31607 13.7956 3 13 3H11C10.2044 3 9.44129 3.31607 8.87868 3.87868C8.31607 4.44129 8 5.20435 8 6V7H5C4.20435 7 3.44129 7.31607 2.87868 7.87868C2.31607 8.44129 2 9.20435 2 10V18C2 18.7956 2.31607 19.5587 2.87868 20.1213C3.44129 20.6839 4.20435 21 5 21H19C19.7956 21 20.5587 20.6839 21.1213 20.1213C21.6839 19.5587 22 18.7956 22 18V10C22 9.20435 21.6839 8.44129 21.1213 7.87868C20.5587 7.31607 19.7956 7 19 7ZM10 6C10 5.73478 10.1054 5.48043 10.2929 5.29289C10.4804 5.10536 10.7348 5 11 5H13C13.2652 5 13.5196 5.10536 13.7071 5.29289C13.8946 5.48043 14 5.73478 14 6V7H10V6ZM4 10C4 9.73478 4.10536 9.48043 4.29289 9.29289C4.48043 9.10536 4.73478 9 5 9H6C6 9.53043 5.78929 10.0391 5.41421 10.4142C5.03914 10.7893 4.53043 11 4 11V10ZM5 19C4.73478 19 4.48043 18.8946 4.29289 18.7071C4.10536 18.5196 4 18.2652 4 18V17C4.53043 17 5.03914 17.2107 5.41421 17.5858C5.78929 17.9609 6 18.4696 6 19H5ZM20 18C20 18.2652 19.8946 18.5196 19.7071 18.7071C19.5196 18.8946 19.2652 19 19 19H18C18 18.4696 18.2107 17.9609 18.5858 17.5858C18.9609 17.2107 19.4696 17 20 17V18ZM20 15C18.9391 15 17.9217 15.4214 17.1716 16.1716C16.4214 16.9217 16 17.9391 16 19H8C8 17.9391 7.57857 16.9217 6.82843 16.1716C6.07828 15.4214 5.06087 15 4 15V13C5.06087 13 6.07828 12.5786 6.82843 11.8284C7.57857 11.0783 8 10.0609 8 9H16C16 10.0609 16.4214 11.0783 17.1716 11.8284C17.9217 12.5786 18.9391 13 20 13V15ZM20 11C19.4696 11 18.9609 10.7893 18.5858 10.4142C18.2107 10.0391 18 9.53043 18 9H19C19.2652 9 19.5196 9.10536 19.7071 9.29289C19.8946 9.48043 20 9.73478 20 10V11ZM12 11C11.4067 11 10.8266 11.1759 10.3333 11.5056C9.83994 11.8352 9.45542 12.3038 9.22836 12.8519C9.0013 13.4001 8.94189 14.0033 9.05764 14.5853C9.1734 15.1672 9.45912 15.7018 9.87868 16.1213C10.2982 16.5409 10.8328 16.8266 11.4147 16.9424C11.9967 17.0581 12.5999 16.9987 13.1481 16.7716C13.6962 16.5446 14.1648 16.1601 14.4944 15.6667C14.8241 15.1734 15 14.5933 15 14C15 13.2044 14.6839 12.4413 14.1213 11.8787C13.5587 11.3161 12.7956 11 12 11ZM12 15C11.8022 15 11.6089 14.9414 11.4444 14.8315C11.28 14.7216 11.1518 14.5654 11.0761 14.3827C11.0004 14.2 10.9806 13.9989 11.0192 13.8049C11.0578 13.6109 11.153 13.4327 11.2929 13.2929C11.4327 13.153 11.6109 13.0578 11.8049 13.0192C11.9989 12.9806 12.2 13.0004 12.3827 13.0761C12.5654 13.1518 12.7216 13.28 12.8315 13.4444C12.9414 13.6089 13 13.8022 13 14C13 14.2652 12.8946 14.5196 12.7071 14.7071C12.5196 14.8946 12.2652 15 12 15Z" />
</svg>
