<svg width="24" height="24" viewBox="0 0 24 24" xmlns="http://www.w3.org/2000/svg">
<path d="M12 1C9.82441 1 7.69767 1.64514 5.88873 2.85383C4.07979 4.06253 2.66989 5.78049 1.83733 7.79048C1.00477 9.80047 0.786929 12.0122 1.21137 14.146C1.6358 16.2798 2.68345 18.2398 4.22183 19.7782C5.76021 21.3166 7.72022 22.3642 9.85401 22.7886C11.9878 23.2131 14.1995 22.9952 16.2095 22.1627C18.2195 21.3301 19.9375 19.9202 21.1462 18.1113C22.3549 16.3023 23 14.1756 23 12C23 9.08262 21.8411 6.28473 19.7782 4.22183C17.7153 2.15893 14.9174 1 12 1ZM12 21C10.22 21 8.47992 20.4722 6.99987 19.4832C5.51983 18.4943 4.36628 17.0887 3.68509 15.4442C3.0039 13.7996 2.82567 11.99 3.17294 10.2442C3.5202 8.49836 4.37737 6.89471 5.63604 5.63604C6.89472 4.37737 8.49836 3.5202 10.2442 3.17293C11.99 2.82567 13.7996 3.0039 15.4442 3.68508C17.0887 4.36627 18.4943 5.51983 19.4832 6.99987C20.4722 8.47991 21 10.22 21 12C21 14.3869 20.0518 16.6761 18.364 18.364C16.6761 20.0518 14.387 21 12 21ZM14.83 6.45L12 10.7L9.17 6.45C9.09736 6.34007 9.0037 6.24559 8.89441 6.17198C8.78513 6.09836 8.66238 6.04707 8.53321 6.02105C8.40404 5.99503 8.271 5.9948 8.14174 6.02036C8.01248 6.04592 7.88955 6.09677 7.78 6.17C7.56079 6.31662 7.40838 6.5439 7.35593 6.80236C7.30349 7.06082 7.35527 7.32954 7.5 7.55L9.61 10.72H9C8.73479 10.72 8.48043 10.8254 8.2929 11.0129C8.10536 11.2004 8 11.4548 8 11.72C8 11.9852 8.10536 12.2396 8.2929 12.4271C8.48043 12.6146 8.73479 12.72 9 12.72H11L11.05 12.8V13.72H9C8.73479 13.72 8.48043 13.8254 8.2929 14.0129C8.10536 14.2004 8 14.4548 8 14.72C8 14.9852 8.10536 15.2396 8.2929 15.4271C8.48043 15.6146 8.73479 15.72 9 15.72H11V18C11 18.2652 11.1054 18.5196 11.2929 18.7071C11.4804 18.8946 11.7348 19 12 19C12.2652 19 12.5196 18.8946 12.7071 18.7071C12.8946 18.5196 13 18.2652 13 18V15.72H15C15.2652 15.72 15.5196 15.6146 15.7071 15.4271C15.8946 15.2396 16 14.9852 16 14.72C16 14.4548 15.8946 14.2004 15.7071 14.0129C15.5196 13.8254 15.2652 13.72 15 13.72H13V12.8L13.05 12.72H15C15.2652 12.72 15.5196 12.6146 15.7071 12.4271C15.8946 12.2396 16 11.9852 16 11.72C16 11.4548 15.8946 11.2004 15.7071 11.0129C15.5196 10.8254 15.2652 10.72 15 10.72H14.39L16.5 7.55C16.6447 7.32954 16.6965 7.06082 16.6441 6.80236C16.5916 6.5439 16.4392 6.31662 16.22 6.17C16.1105 6.09677 15.9875 6.04592 15.8583 6.02036C15.729 5.9948 15.596 5.99503 15.4668 6.02105C15.3376 6.04707 15.2149 6.09836 15.1056 6.17198C14.9963 6.24559 14.9027 6.34007 14.83 6.45Z" />
</svg>
