<svg width="24" height="24" viewBox="0 0 24 24" xmlns="http://www.w3.org/2000/svg">
<path d="M17.4802 6.54994L14.6402 3.70994C14.5472 3.61621 14.4366 3.54182 14.3148 3.49105C14.1929 3.44028 14.0622 3.41414 13.9302 3.41414C13.7982 3.41414 13.6675 3.44028 13.5456 3.49105C13.4237 3.54182 13.3131 3.61621 13.2202 3.70994C13.0339 3.8973 12.9294 4.15076 12.9294 4.41494C12.9294 4.67913 13.0339 4.93258 13.2202 5.11994L15.3402 7.23994L7.24019 15.3399L5.12019 13.2199C4.93282 13.0337 4.67937 12.9291 4.41519 12.9291C4.151 12.9291 3.89755 13.0337 3.71019 13.2199C3.61646 13.3129 3.54206 13.4235 3.49129 13.5454C3.44053 13.6672 3.41439 13.7979 3.41439 13.9299C3.41439 14.062 3.44053 14.1927 3.49129 14.3145C3.54206 14.4364 3.61646 14.547 3.71019 14.6399L6.52019 17.4499L9.33019 20.2599C9.4228 20.3544 9.53325 20.4296 9.65512 20.4811C9.777 20.5326 9.90788 20.5594 10.0402 20.5599C10.2388 20.5611 10.4333 20.5031 10.5988 20.3933C10.7643 20.2835 10.8934 20.1269 10.9696 19.9434C11.0457 19.76 11.0655 19.558 11.0265 19.3633C10.9874 19.1685 10.8912 18.9898 10.7502 18.8499L8.66019 16.7599L16.7602 8.65994L18.8802 10.7799C18.9734 10.8725 19.084 10.9458 19.2056 10.9957C19.3271 11.0455 19.4573 11.071 19.5887 11.0705C19.7201 11.07 19.8501 11.0437 19.9713 10.993C20.0926 10.9423 20.2026 10.8682 20.2952 10.7749C20.3878 10.6817 20.4611 10.5711 20.5109 10.4496C20.5608 10.328 20.5862 10.1978 20.5857 10.0664C20.5853 9.93501 20.5589 9.80499 20.5082 9.68378C20.4575 9.56256 20.3834 9.45252 20.2902 9.35994L17.4802 6.54994ZM3.71019 17.4599C3.52188 17.2716 3.26649 17.1658 3.00019 17.1658C2.73388 17.1658 2.47849 17.2716 2.29019 17.4599C2.10188 17.6482 1.99609 17.9036 1.99609 18.1699C1.99609 18.4362 2.10188 18.6916 2.29019 18.8799L5.12019 21.7099C5.21363 21.8026 5.32444 21.8759 5.44628 21.9257C5.56812 21.9755 5.69858 22.0007 5.83019 21.9999C5.96179 22.0007 6.09225 21.9755 6.21409 21.9257C6.33593 21.8759 6.44675 21.8026 6.54019 21.7099C6.63391 21.617 6.70831 21.5064 6.75908 21.3845C6.80985 21.2627 6.83598 21.132 6.83598 20.9999C6.83598 20.8679 6.80985 20.7372 6.75908 20.6154C6.70831 20.4935 6.63391 20.3829 6.54019 20.2899L3.71019 17.4599ZM21.7102 5.11994L18.8802 2.28994C18.7869 2.1967 18.6763 2.12274 18.5544 2.07228C18.4326 2.02182 18.302 1.99585 18.1702 1.99585C18.0383 1.99585 17.9078 2.02182 17.7859 2.07228C17.6641 2.12274 17.5534 2.1967 17.4602 2.28994C17.3669 2.38318 17.293 2.49387 17.2425 2.61569C17.1921 2.73751 17.1661 2.86808 17.1661 2.99994C17.1661 3.1318 17.1921 3.26237 17.2425 3.38419C17.293 3.50601 17.3669 3.6167 17.4602 3.70994L20.2902 6.53994C20.3831 6.63367 20.4937 6.70806 20.6156 6.75883C20.7375 6.8096 20.8682 6.83574 21.0002 6.83574C21.1322 6.83574 21.2629 6.8096 21.3848 6.75883C21.5066 6.70806 21.6172 6.63367 21.7102 6.53994C21.8039 6.44698 21.8783 6.33638 21.9291 6.21452C21.9798 6.09266 22.006 5.96195 22.006 5.82994C22.006 5.69793 21.9798 5.56722 21.9291 5.44536C21.8783 5.32351 21.8039 5.2129 21.7102 5.11994Z" />
</svg>
