<svg width="24" height="24" viewBox="0 0 24 24" xmlns="http://www.w3.org/2000/svg">
<path d="M20.1603 4.99997C19.094 3.94467 17.6856 3.30524 16.1893 3.19705C14.693 3.08886 13.2073 3.51904 12.0003 4.40997C10.7279 3.46361 9.14427 3.03448 7.5682 3.20901C5.99212 3.38353 4.54072 4.14875 3.50625 5.35055C2.47178 6.55236 1.9311 8.10149 1.99308 9.68598C2.05506 11.2705 2.71509 12.7726 3.84028 13.89L9.84028 19.94C10.4028 20.5018 11.1653 20.8173 11.9603 20.8173C12.7553 20.8173 13.5178 20.5018 14.0803 19.94L20.0803 13.89C20.6712 13.3126 21.1422 12.6242 21.4662 11.8642C21.7902 11.1042 21.9609 10.2877 21.9683 9.4616C21.9757 8.63548 21.8198 7.81603 21.5095 7.05035C21.1993 6.28467 20.7407 5.58786 20.1603 4.99997ZM18.7503 12.46L12.7503 18.46C12.6573 18.5537 12.5467 18.6281 12.4249 18.6789C12.303 18.7296 12.1723 18.7558 12.0403 18.7558C11.9083 18.7558 11.7776 18.7296 11.6557 18.6789C11.5338 18.6281 11.4232 18.5537 11.3303 18.46L5.33028 12.46C4.54603 11.6583 4.10689 10.5814 4.10689 9.45997C4.10689 8.3385 4.54603 7.26162 5.33028 6.45997C6.12943 5.67096 7.20725 5.22854 8.33028 5.22854C9.4533 5.22854 10.5311 5.67096 11.3303 6.45997C11.4232 6.5537 11.5338 6.62809 11.6557 6.67886C11.7776 6.72963 11.9083 6.75577 12.0403 6.75577C12.1723 6.75577 12.303 6.72963 12.4249 6.67886C12.5467 6.62809 12.6573 6.5537 12.7503 6.45997C13.571 5.80686 14.6035 5.47869 15.6507 5.53806C16.6979 5.59743 17.6867 6.04018 18.4284 6.78187C19.1701 7.52356 19.6128 8.5123 19.6722 9.55953C19.7316 10.6068 19.4034 11.6392 18.7503 12.46Z" />
</svg>
