<svg width="24" height="24" viewBox="0 0 24 24" xmlns="http://www.w3.org/2000/svg">
<path d="M21.0002 12.5C20.9959 11.393 20.659 10.3129 20.0331 9.39986C19.4071 8.48683 18.5211 7.78308 17.4902 7.38C17.4902 5.92131 16.9107 4.52237 15.8792 3.49092C14.8478 2.45947 13.4488 1.88 11.9902 1.88C10.5315 1.88 9.13252 2.45947 8.10107 3.49092C7.06962 4.52237 6.49015 5.92131 6.49015 7.38C5.29726 7.84805 4.30524 8.71793 3.68536 9.83945C3.06549 10.961 2.85667 12.2637 3.09497 13.5228C3.33327 14.7819 4.00373 15.9182 4.99058 16.7357C5.97743 17.5531 7.21873 18.0003 8.50015 18H8.70015C8.44753 18.8703 8.0262 19.6824 7.46015 20.39C7.34684 20.5372 7.27675 20.713 7.25774 20.8978C7.23874 21.0825 7.27157 21.2689 7.35255 21.4361C7.43353 21.6032 7.55947 21.7445 7.71624 21.8441C7.87301 21.9437 8.05443 21.9977 8.24015 22H15.7602C15.9494 22.0007 16.1349 21.9476 16.2952 21.847C16.4555 21.7464 16.5839 21.6024 16.6656 21.4317C16.7473 21.261 16.7789 21.0706 16.7567 20.8827C16.7344 20.6947 16.6594 20.517 16.5402 20.37C15.9764 19.6683 15.5552 18.8632 15.3002 18H15.5002C16.958 17.9974 18.3554 17.417 19.3863 16.3862C20.4172 15.3553 20.9975 13.9579 21.0002 12.5ZM10.0602 20C10.4582 19.1926 10.7313 18.3294 10.8702 17.44C11.2739 17.2535 11.6533 17.0184 12.0002 16.74C12.347 17.0184 12.7264 17.2535 13.1302 17.44C13.269 18.3294 13.5421 19.1926 13.9402 20H10.0602ZM12.7802 14.7L12.7002 14.62L12.6202 14.54H12.5502L12.3702 14.45L12.1902 14.39H11.8102L11.6302 14.45C11.5687 14.47 11.5112 14.5004 11.4602 14.54H11.3802L11.3002 14.62L11.2202 14.7C10.8685 15.1348 10.4177 15.4791 9.90558 15.7038C9.39348 15.9286 8.83497 16.0274 8.27684 15.9919C7.7187 15.9565 7.1772 15.7878 6.69768 15.5C6.21816 15.2122 5.81458 14.8136 5.52077 14.3378C5.22695 13.8619 5.05145 13.3226 5.00896 12.7649C4.96647 12.2073 5.05822 11.6476 5.27654 11.1327C5.49487 10.6178 5.83339 10.1627 6.26377 9.80558C6.69414 9.44844 7.20384 9.19964 7.75015 9.08C7.80555 9.05769 7.85906 9.03093 7.91015 9C7.97193 8.97754 8.03208 8.95081 8.09015 8.92C8.14167 8.8822 8.18865 8.83858 8.23015 8.79C8.33043 8.71078 8.40377 8.60251 8.44015 8.48C8.47194 8.4272 8.49554 8.36988 8.51015 8.31001C8.51987 8.24369 8.51987 8.17632 8.51015 8.11C8.51498 8.05344 8.51498 7.99657 8.51015 7.94C8.50022 7.79017 8.50022 7.63984 8.51015 7.49C8.51015 6.56175 8.8789 5.67151 9.53528 5.01513C10.1917 4.35875 11.0819 3.99001 12.0102 3.99001C12.9384 3.99001 13.8286 4.35875 14.485 5.01513C15.1414 5.67151 15.5102 6.56175 15.5102 7.49C15.5201 7.63984 15.5201 7.79017 15.5102 7.94C15.5049 7.99321 15.5049 8.0468 15.5102 8.10001C15.5002 8.16965 15.5002 8.24036 15.5102 8.31001C15.5248 8.36988 15.5484 8.4272 15.5802 8.48C15.6165 8.60251 15.6899 8.71078 15.7902 8.79C15.8317 8.83858 15.8786 8.8822 15.9302 8.92C15.9882 8.95081 16.0484 8.97754 16.1102 9C16.1616 9.0275 16.2151 9.05091 16.2702 9.07C16.8165 9.18964 17.3262 9.43844 17.7565 9.79558C18.1869 10.1527 18.5254 10.6078 18.7438 11.1227C18.9621 11.6376 19.0538 12.1973 19.0113 12.7549C18.9689 13.3126 18.7934 13.8519 18.4995 14.3278C18.2057 14.8036 17.8022 15.2022 17.3226 15.49C16.8431 15.7778 16.3016 15.9465 15.7435 15.9819C15.1853 16.0174 14.6268 15.9186 14.1147 15.6938C13.6026 15.4691 13.1519 15.1248 12.8002 14.69L12.7802 14.7Z" />
</svg>
