<svg width="24" height="24" viewBox="0 0 24 24" xmlns="http://www.w3.org/2000/svg">
<path d="M9 11C8.80222 11 8.60888 11.0586 8.44443 11.1685C8.27998 11.2784 8.15181 11.4346 8.07612 11.6173C8.00043 11.8 7.98063 12.0011 8.01921 12.1951C8.0578 12.3891 8.15304 12.5673 8.29289 12.7071C8.43275 12.847 8.61093 12.9422 8.80491 12.9808C8.99889 13.0194 9.19996 12.9996 9.38268 12.9239C9.56541 12.8482 9.72159 12.72 9.83147 12.5556C9.94135 12.3911 10 12.1978 10 12C10 11.7348 9.89464 11.4804 9.70711 11.2929C9.51957 11.1054 9.26522 11 9 11ZM9 15C8.80222 15 8.60888 15.0586 8.44443 15.1685C8.27998 15.2784 8.15181 15.4346 8.07612 15.6173C8.00043 15.8 7.98063 16.0011 8.01921 16.1951C8.0578 16.3891 8.15304 16.5673 8.29289 16.7071C8.43275 16.847 8.61093 16.9422 8.80491 16.9808C8.99889 17.0194 9.19996 16.9996 9.38268 16.9239C9.56541 16.8482 9.72159 16.72 9.83147 16.5556C9.94135 16.3911 10 16.1978 10 16C10 15.7348 9.89464 15.4804 9.70711 15.2929C9.51957 15.1054 9.26522 15 9 15ZM9 7C8.80222 7 8.60888 7.05865 8.44443 7.16853C8.27998 7.27841 8.15181 7.43459 8.07612 7.61732C8.00043 7.80004 7.98063 8.00111 8.01921 8.19509C8.0578 8.38907 8.15304 8.56725 8.29289 8.70711C8.43275 8.84696 8.61093 8.9422 8.80491 8.98079C8.99889 9.01937 9.19996 8.99957 9.38268 8.92388C9.56541 8.84819 9.72159 8.72002 9.83147 8.55557C9.94135 8.39112 10 8.19778 10 8C10 7.73478 9.89464 7.48043 9.70711 7.29289C9.51957 7.10536 9.26522 7 9 7ZM15 7C14.8022 7 14.6089 7.05865 14.4444 7.16853C14.28 7.27841 14.1518 7.43459 14.0761 7.61732C14.0004 7.80004 13.9806 8.00111 14.0192 8.19509C14.0578 8.38907 14.153 8.56725 14.2929 8.70711C14.4327 8.84696 14.6109 8.9422 14.8049 8.98079C14.9989 9.01937 15.2 8.99957 15.3827 8.92388C15.5654 8.84819 15.7216 8.72002 15.8315 8.55557C15.9414 8.39112 16 8.19778 16 8C16 7.73478 15.8946 7.48043 15.7071 7.29289C15.5196 7.10536 15.2652 7 15 7ZM17 2H7C5.67392 2 4.40215 2.52678 3.46447 3.46447C2.52678 4.40215 2 5.67392 2 7V17C2 18.3261 2.52678 19.5979 3.46447 20.5355C4.40215 21.4732 5.67392 22 7 22H17C18.3261 22 19.5979 21.4732 20.5355 20.5355C21.4732 19.5979 22 18.3261 22 17V7C22 5.67392 21.4732 4.40215 20.5355 3.46447C19.5979 2.52678 18.3261 2 17 2ZM20 17C20 17.7956 19.6839 18.5587 19.1213 19.1213C18.5587 19.6839 17.7956 20 17 20H7C6.20435 20 5.44129 19.6839 4.87868 19.1213C4.31607 18.5587 4 17.7956 4 17V7C4 6.20435 4.31607 5.44129 4.87868 4.87868C5.44129 4.31607 6.20435 4 7 4H17C17.7956 4 18.5587 4.31607 19.1213 4.87868C19.6839 5.44129 20 6.20435 20 7V17ZM15 11C14.8022 11 14.6089 11.0586 14.4444 11.1685C14.28 11.2784 14.1518 11.4346 14.0761 11.6173C14.0004 11.8 13.9806 12.0011 14.0192 12.1951C14.0578 12.3891 14.153 12.5673 14.2929 12.7071C14.4327 12.847 14.6109 12.9422 14.8049 12.9808C14.9989 13.0194 15.2 12.9996 15.3827 12.9239C15.5654 12.8482 15.7216 12.72 15.8315 12.5556C15.9414 12.3911 16 12.1978 16 12C16 11.7348 15.8946 11.4804 15.7071 11.2929C15.5196 11.1054 15.2652 11 15 11ZM15 15C14.8022 15 14.6089 15.0586 14.4444 15.1685C14.28 15.2784 14.1518 15.4346 14.0761 15.6173C14.0004 15.8 13.9806 16.0011 14.0192 16.1951C14.0578 16.3891 14.153 16.5673 14.2929 16.7071C14.4327 16.847 14.6109 16.9422 14.8049 16.9808C14.9989 17.0194 15.2 16.9996 15.3827 16.9239C15.5654 16.8482 15.7216 16.72 15.8315 16.5556C15.9414 16.3911 16 16.1978 16 16C16 15.7348 15.8946 15.4804 15.7071 15.2929C15.5196 15.1054 15.2652 15 15 15Z" />
</svg>
