<svg width="24" height="24" viewBox="0 0 24 24" xmlns="http://www.w3.org/2000/svg">
<path d="M17.8704 8.59998C17.7959 8.42869 17.6749 8.2817 17.5211 8.17566C17.3674 8.06961 17.187 8.00875 17.0004 7.99998H12.4204L13.6904 3.25998C13.7309 3.11165 13.7366 2.956 13.7071 2.80511C13.6776 2.65422 13.6137 2.51217 13.5204 2.38998C13.4262 2.26762 13.305 2.16873 13.1662 2.10107C13.0274 2.03341 12.8748 1.99881 12.7204 1.99998H5.72041C5.49465 1.99224 5.27292 2.06118 5.09134 2.19555C4.90975 2.32992 4.77901 2.52181 4.72041 2.73998L2.04041 12.74C1.99964 12.891 1.99488 13.0495 2.02652 13.2028C2.05815 13.356 2.1253 13.4997 2.22257 13.6222C2.31984 13.7448 2.4445 13.8428 2.58655 13.9084C2.72859 13.974 2.88404 14.0054 3.04041 14H6.89041L5.08041 20.74C5.02111 20.9573 5.03693 21.1883 5.12531 21.3955C5.2137 21.6028 5.36946 21.7741 5.56737 21.8817C5.76528 21.9893 5.99373 22.027 6.21572 21.9886C6.4377 21.9501 6.6402 21.8379 6.79041 21.67L17.6904 9.66998C17.8202 9.52786 17.9062 9.35131 17.9382 9.16151C17.9701 8.97171 17.9466 8.77674 17.8704 8.59998ZM8.08041 17.28L9.16041 13.28C9.20553 13.1295 9.21456 12.9705 9.18676 12.8159C9.15896 12.6612 9.09512 12.5153 9.00041 12.39C8.90521 12.2663 8.78236 12.1665 8.64171 12.0988C8.50105 12.0311 8.3465 11.9972 8.19041 12H4.35041L6.49041 3.99998H11.4204L10.1504 8.73998C10.1096 8.89103 10.1049 9.04955 10.1365 9.20278C10.1682 9.35601 10.2353 9.49968 10.3326 9.62223C10.4298 9.74479 10.5545 9.84281 10.6965 9.90841C10.8386 9.97402 10.994 10.0054 11.1504 9.99998H14.7204L8.08041 17.28ZM19.0004 13H18.0004C17.2048 13 16.4417 13.316 15.8791 13.8787C15.3165 14.4413 15.0004 15.2043 15.0004 16V21C15.0004 21.2652 15.1058 21.5195 15.2933 21.7071C15.4808 21.8946 15.7352 22 16.0004 22C16.2656 22 16.52 21.8946 16.7075 21.7071C16.8951 21.5195 17.0004 21.2652 17.0004 21V19H20.0004V21C20.0004 21.2652 20.1058 21.5195 20.2933 21.7071C20.4808 21.8946 20.7352 22 21.0004 22C21.2656 22 21.52 21.8946 21.7075 21.7071C21.8951 21.5195 22.0004 21.2652 22.0004 21V16C22.0004 15.2043 21.6843 14.4413 21.1217 13.8787C20.5591 13.316 19.7961 13 19.0004 13ZM20.0004 17H17.0004V16C17.0004 15.7348 17.1058 15.4804 17.2933 15.2929C17.4808 15.1053 17.7352 15 18.0004 15H19.0004C19.2656 15 19.52 15.1053 19.7075 15.2929C19.8951 15.4804 20.0004 15.7348 20.0004 16V17Z" />
</svg>
