<svg width="24" height="24" viewBox="0 0 24 24" xmlns="http://www.w3.org/2000/svg">
<path d="M19 16C18.4067 16 17.8266 16.1759 17.3333 16.5056C16.8399 16.8352 16.4554 17.3038 16.2284 17.8519C16.0013 18.4001 15.9419 19.0033 16.0576 19.5853C16.1734 20.1672 16.4591 20.7018 16.8787 21.1213C17.2982 21.5409 17.8328 21.8266 18.4147 21.9424C18.9967 22.0581 19.5999 21.9987 20.1481 21.7716C20.6962 21.5446 21.1648 21.1601 21.4944 20.6667C21.8241 20.1734 22 19.5933 22 19C22 18.2044 21.6839 17.4413 21.1213 16.8787C20.5587 16.3161 19.7956 16 19 16ZM19 20C18.8022 20 18.6089 19.9414 18.4444 19.8315C18.28 19.7216 18.1518 19.5654 18.0761 19.3827C18.0004 19.2 17.9806 18.9989 18.0192 18.8049C18.0578 18.6109 18.153 18.4327 18.2929 18.2929C18.4327 18.153 18.6109 18.0578 18.8049 18.0192C18.9989 17.9806 19.2 18.0004 19.3827 18.0761C19.5654 18.1518 19.7216 18.28 19.8315 18.4444C19.9414 18.6089 20 18.8022 20 19C20 19.2652 19.8946 19.5196 19.7071 19.7071C19.5196 19.8946 19.2652 20 19 20ZM9 16C8.40666 16 7.82664 16.1759 7.33329 16.5056C6.83994 16.8352 6.45542 17.3038 6.22836 17.8519C6.0013 18.4001 5.94189 19.0033 6.05764 19.5853C6.1734 20.1672 6.45912 20.7018 6.87868 21.1213C7.29824 21.5409 7.83279 21.8266 8.41473 21.9424C8.99667 22.0581 9.59987 21.9987 10.1481 21.7716C10.6962 21.5446 11.1648 21.1601 11.4944 20.6667C11.8241 20.1734 12 19.5933 12 19C12 18.2044 11.6839 17.4413 11.1213 16.8787C10.5587 16.3161 9.79565 16 9 16ZM9 20C8.80222 20 8.60888 19.9414 8.44443 19.8315C8.27998 19.7216 8.15181 19.5654 8.07612 19.3827C8.00043 19.2 7.98063 18.9989 8.01921 18.8049C8.0578 18.6109 8.15304 18.4327 8.29289 18.2929C8.43275 18.153 8.61093 18.0578 8.80491 18.0192C8.99889 17.9806 9.19996 18.0004 9.38268 18.0761C9.56541 18.1518 9.72159 18.28 9.83147 18.4444C9.94135 18.6089 10 18.8022 10 19C10 19.2652 9.89464 19.5196 9.70711 19.7071C9.51957 19.8946 9.26522 20 9 20ZM22 8.5C21.9974 6.77691 21.3117 5.12514 20.0933 3.90673C18.8749 2.68831 17.2231 2.00264 15.5 2H15C14.7348 2 14.4804 2.10536 14.2929 2.29289C14.1054 2.48043 14 2.73478 14 3V8H7.52L6.27 4.65C6.19849 4.4586 6.07006 4.2937 5.902 4.17749C5.73395 4.06128 5.53432 3.99934 5.33 4H3C2.73478 4 2.48043 4.10536 2.29289 4.29289C2.10536 4.48043 2 4.73478 2 5C2 5.26522 2.10536 5.51957 2.29289 5.70711C2.48043 5.89464 2.73478 6 3 6H4.64L5.89 9.37L6.4 10.74V10.83C6.86587 12.0671 7.70115 13.1309 8.79245 13.8769C9.88374 14.6229 11.1782 15.015 12.5 15H15.5C16.354 15.0013 17.1998 14.8341 17.989 14.5079C18.7782 14.1817 19.4953 13.703 20.0991 13.0991C20.703 12.4953 21.1817 11.7782 21.5079 10.989C21.8341 10.1998 22.0013 9.35396 22 8.5ZM18.68 11.68C18.2635 12.0993 17.768 12.4319 17.2222 12.6585C16.6764 12.885 16.091 13.0011 15.5 13H12.5C11.6061 13.0027 10.7319 12.7374 9.99039 12.2383C9.24883 11.7392 8.67395 11.0292 8.34 10.2C8.33566 10.1802 8.33566 10.1598 8.34 10.14L8.26 10H19.74C19.522 10.6347 19.159 11.2099 18.68 11.68ZM16 8V4C17.0244 4.10684 17.9809 4.5626 18.7091 5.29087C19.4374 6.01913 19.8932 6.97563 20 8H16Z" />
</svg>
