<svg width="24" height="24" viewBox="0 0 24 24" xmlns="http://www.w3.org/2000/svg">
<path d="M21.7102 20.2899L3.71019 2.28994C3.52188 2.10164 3.26649 1.99585 3.00019 1.99585C2.73388 1.99585 2.47849 2.10164 2.29019 2.28994C2.10188 2.47824 1.99609 2.73364 1.99609 2.99994C1.99609 3.26624 2.10188 3.52164 2.29019 3.70994L3.29019 4.70994C3.09879 5.11302 2.99971 5.55373 3.00019 5.99994V13.9999C3.00019 14.7956 3.31626 15.5587 3.87887 16.1213C4.44147 16.6839 5.20454 16.9999 6.00019 16.9999H9.00019V18.9999H6.00019C5.73497 18.9999 5.48062 19.1053 5.29308 19.2928C5.10554 19.4804 5.00019 19.7347 5.00019 19.9999C5.00019 20.2652 5.10554 20.5195 5.29308 20.707C5.48062 20.8946 5.73497 20.9999 6.00019 20.9999H18.0002C18.204 20.9978 18.4023 20.9335 18.5685 20.8155C18.7347 20.6975 18.8609 20.5316 18.9302 20.3399L20.2902 21.7099C20.3831 21.8037 20.4937 21.8781 20.6156 21.9288C20.7375 21.9796 20.8682 22.0057 21.0002 22.0057C21.1322 22.0057 21.2629 21.9796 21.3848 21.9288C21.5066 21.8781 21.6172 21.8037 21.7102 21.7099C21.8039 21.617 21.8783 21.5064 21.9291 21.3845C21.9798 21.2627 22.006 21.132 22.006 20.9999C22.006 20.8679 21.9798 20.7372 21.9291 20.6154C21.8783 20.4935 21.8039 20.3829 21.7102 20.2899ZM5.00019 6.40994L9.59019 10.9999H5.00019V6.40994ZM13.0002 18.9999H11.0002V16.9999H13.0002V18.9999ZM6.00019 14.9999C5.73497 14.9999 5.48062 14.8946 5.29308 14.707C5.10554 14.5195 5.00019 14.2652 5.00019 13.9999V12.9999H11.5902L13.5902 14.9999H6.00019ZM15.0002 18.9999V16.9999H15.5902L17.5902 18.9999H15.0002ZM9.66019 4.99994H18.0002C18.2654 4.99994 18.5198 5.1053 18.7073 5.29283C18.8948 5.48037 19.0002 5.73472 19.0002 5.99994V10.9999H17.6602C17.395 10.9999 17.1406 11.1053 16.9531 11.2928C16.7655 11.4804 16.6602 11.7347 16.6602 11.9999C16.6602 12.2652 16.7655 12.5195 16.9531 12.707C17.1406 12.8946 17.395 12.9999 17.6602 12.9999H19.0002V13.9999C19.0057 14.0364 19.0057 14.0735 19.0002 14.1099C18.9739 14.2386 18.9732 14.3713 18.9982 14.5002C19.0232 14.6292 19.0733 14.752 19.1457 14.8615C19.2182 14.9711 19.3115 15.0653 19.4203 15.1389C19.5292 15.2124 19.6515 15.2637 19.7802 15.2899H19.9802C20.2141 15.2947 20.4423 15.2172 20.625 15.071C20.8078 14.9248 20.9334 14.7192 20.9802 14.4899C21.001 14.3275 21.0077 14.1635 21.0002 13.9999V5.99994C21.0002 5.20429 20.6841 4.44123 20.1215 3.87862C19.5589 3.31601 18.7958 2.99994 18.0002 2.99994H9.66019C9.39497 2.99994 9.14061 3.1053 8.95308 3.29283C8.76554 3.48037 8.66019 3.73472 8.66019 3.99994C8.66019 4.26516 8.76554 4.51951 8.95308 4.70705C9.14061 4.89458 9.39497 4.99994 9.66019 4.99994Z" />
</svg>
