<svg width="24" height="24" viewBox="0 0 24 24" xmlns="http://www.w3.org/2000/svg">
<path d="M10.2602 5L12.0002 4L19.0002 8L15.8502 9.83C15.6215 9.96192 15.4542 10.1789 15.3849 10.4337C15.3155 10.6885 15.3498 10.9604 15.4802 11.19C15.5455 11.3046 15.6329 11.4051 15.7372 11.4858C15.8416 11.5665 15.9608 11.6257 16.0882 11.6601C16.2155 11.6945 16.3484 11.7034 16.4792 11.6862C16.61 11.669 16.7361 11.6261 16.8502 11.56L21.5002 8.87C21.6541 8.78278 21.7821 8.6563 21.8712 8.50346C21.9602 8.35062 22.0071 8.17689 22.0071 8C22.0071 7.8231 21.9602 7.64937 21.8712 7.49653C21.7821 7.34369 21.6541 7.21721 21.5002 7.13L12.5002 1.93C12.3482 1.84223 12.1757 1.79602 12.0002 1.79602C11.8246 1.79602 11.6522 1.84223 11.5002 1.93L9.26019 3.23C9.1456 3.29533 9.04507 3.38268 8.96438 3.48703C8.8837 3.59137 8.82445 3.71065 8.79006 3.83799C8.75567 3.96533 8.74681 4.09822 8.764 4.229C8.78118 4.35977 8.82407 4.48586 8.89019 4.6C8.95297 4.7171 9.03845 4.82053 9.14166 4.90422C9.24486 4.98791 9.36371 5.0502 9.49126 5.08744C9.61881 5.12468 9.7525 5.13613 9.88452 5.12111C10.0165 5.1061 10.1443 5.06493 10.2602 5ZM3.71019 2.29C3.61695 2.19676 3.50626 2.1228 3.38443 2.07234C3.26261 2.02188 3.13204 1.9959 3.00019 1.9959C2.86833 1.9959 2.73776 2.02188 2.61594 2.07234C2.49411 2.1228 2.38342 2.19676 2.29019 2.29C2.10188 2.4783 1.99609 2.73369 1.99609 3C1.99609 3.2663 2.10188 3.52169 2.29019 3.71L4.54019 6L2.54019 7.17C2.38629 7.25721 2.25828 7.38369 2.16922 7.53653C2.08016 7.68937 2.03324 7.8631 2.03324 8.04C2.03324 8.21689 2.08016 8.39062 2.16922 8.54346C2.25828 8.6963 2.38629 8.82278 2.54019 8.91L11.5402 14.11C11.6922 14.1978 11.8646 14.244 12.0402 14.244C12.2157 14.244 12.3882 14.1978 12.5402 14.11L12.6402 14.05L13.7102 15.12L12.0402 16.12L3.50019 11.13C3.38594 11.0643 3.25987 11.0218 3.12919 11.0049C2.99851 10.9879 2.86577 10.9969 2.73856 11.0313C2.61134 11.0656 2.49214 11.1247 2.38775 11.2051C2.28337 11.2855 2.19585 11.3857 2.13019 11.5C2.06452 11.6142 2.02201 11.7403 2.00507 11.871C1.98813 12.0017 1.99709 12.1344 2.03145 12.2616C2.06581 12.3888 2.12489 12.508 2.20531 12.6124C2.28574 12.7168 2.38594 12.8043 2.50019 12.87L11.5002 18.07C11.6526 18.1564 11.825 18.2012 12.0002 18.2C12.1754 18.2012 12.3478 18.1564 12.5002 18.07L15.1302 16.55L16.2002 17.62L12.0002 20L3.50019 15.13C3.26945 14.9974 2.99548 14.9619 2.73856 15.0313C2.48163 15.1006 2.26279 15.2693 2.13019 15.5C1.99758 15.7307 1.96206 16.0047 2.03145 16.2616C2.10084 16.5185 2.26945 16.7374 2.50019 16.87L11.5002 22.07C11.6522 22.1578 11.8246 22.204 12.0002 22.204C12.1757 22.204 12.3482 22.1578 12.5002 22.07L17.6702 19.07L20.2902 21.7C20.3831 21.7937 20.4937 21.8681 20.6156 21.9189C20.7375 21.9697 20.8682 21.9958 21.0002 21.9958C21.1322 21.9958 21.2629 21.9697 21.3848 21.9189C21.5066 21.8681 21.6172 21.7937 21.7102 21.7C21.8039 21.607 21.8783 21.4964 21.9291 21.3746C21.9798 21.2527 22.006 21.122 22.006 20.99C22.006 20.858 21.9798 20.7273 21.9291 20.6054C21.8783 20.4836 21.8039 20.373 21.7102 20.28L3.71019 2.29ZM5.00019 8L6.00019 7.42L8.75019 10.17L5.00019 8ZM20.5002 11.13L18.3802 12.35C18.1494 12.4826 17.9808 12.7014 17.9114 12.9584C17.8421 13.2153 17.8776 13.4893 18.0102 13.72C18.1428 13.9507 18.3616 14.1193 18.6186 14.1887C18.8755 14.2581 19.1494 14.2226 19.3802 14.09L21.5002 12.87C21.6144 12.8043 21.7146 12.7168 21.7951 12.6124C21.8755 12.508 21.9346 12.3888 21.9689 12.2616C22.0033 12.1344 22.0122 12.0017 21.9953 11.871C21.9784 11.7403 21.9358 11.6142 21.8702 11.5C21.8045 11.3857 21.717 11.2855 21.6126 11.2051C21.5082 11.1247 21.389 11.0656 21.2618 11.0313C21.1346 10.9969 21.0019 10.9879 20.8712 11.0049C20.7405 11.0218 20.6144 11.0643 20.5002 11.13Z" />
</svg>
