<svg width="24" height="24" viewBox="0 0 24 24" xmlns="http://www.w3.org/2000/svg">
<path d="M19 6H16V3C16 2.73478 15.8946 2.48043 15.7071 2.29289C15.5196 2.10536 15.2652 2 15 2C14.7348 2 14.4804 2.10536 14.2929 2.29289C14.1054 2.48043 14 2.73478 14 3V6H10V3C10 2.73478 9.89464 2.48043 9.70711 2.29289C9.51957 2.10536 9.26522 2 9 2C8.73478 2 8.48043 2.10536 8.29289 2.29289C8.10536 2.48043 8 2.73478 8 3V6H5C4.73478 6 4.48043 6.10536 4.29289 6.29289C4.10536 6.48043 4 6.73478 4 7C4 7.26522 4.10536 7.51957 4.29289 7.70711C4.48043 7.89464 4.73478 8 5 8H6V13C5.99924 13.1316 6.02446 13.2621 6.07423 13.3839C6.12399 13.5057 6.19732 13.6166 6.29 13.71L9 16.41V21C9 21.2652 9.10536 21.5196 9.29289 21.7071C9.48043 21.8946 9.73478 22 10 22C10.2652 22 10.5196 21.8946 10.7071 21.7071C10.8946 21.5196 11 21.2652 11 21V17H13V21C13 21.2652 13.1054 21.5196 13.2929 21.7071C13.4804 21.8946 13.7348 22 14 22C14.2652 22 14.5196 21.8946 14.7071 21.7071C14.8946 21.5196 15 21.2652 15 21V16.41L17.71 13.71C17.8027 13.6166 17.876 13.5057 17.9258 13.3839C17.9755 13.2621 18.0008 13.1316 18 13V8H19C19.2652 8 19.5196 7.89464 19.7071 7.70711C19.8946 7.51957 20 7.26522 20 7C20 6.73478 19.8946 6.48043 19.7071 6.29289C19.5196 6.10536 19.2652 6 19 6ZM16 12.59L13.59 15H10.41L8 12.59V8H16V12.59ZM11 13H13C13.2652 13 13.5196 12.8946 13.7071 12.7071C13.8946 12.5196 14 12.2652 14 12C14 11.7348 13.8946 11.4804 13.7071 11.2929C13.5196 11.1054 13.2652 11 13 11H11C10.7348 11 10.4804 11.1054 10.2929 11.2929C10.1054 11.4804 10 11.7348 10 12C10 12.2652 10.1054 12.5196 10.2929 12.7071C10.4804 12.8946 10.7348 13 11 13Z" />
</svg>
