<svg width="24" height="24" viewBox="0 0 24 24" xmlns="http://www.w3.org/2000/svg">
<path d="M10.21 14.75C10.303 14.8437 10.4136 14.9181 10.5354 14.9689C10.6573 15.0197 10.788 15.0458 10.92 15.0458C11.052 15.0458 11.1827 15.0197 11.3046 14.9689C11.4264 14.9181 11.537 14.8437 11.63 14.75L15.71 10.67C15.8983 10.4817 16.0041 10.2263 16.0041 9.96C16.0041 9.6937 15.8983 9.4383 15.71 9.25C15.5217 9.0617 15.2663 8.95591 15 8.95591C14.7337 8.95591 14.4783 9.0617 14.29 9.25L10.92 12.63L9.71 11.41C9.5217 11.2217 9.2663 11.1159 9 11.1159C8.7337 11.1159 8.4783 11.2217 8.29 11.41C8.1017 11.5983 7.99591 11.8537 7.99591 12.12C7.99591 12.3863 8.1017 12.6417 8.29 12.83L10.21 14.75ZM21 2H3C2.73478 2 2.48043 2.10536 2.29289 2.29289C2.10536 2.48043 2 2.73478 2 3V21C2 21.2652 2.10536 21.5196 2.29289 21.7071C2.48043 21.8946 2.73478 22 3 22H21C21.2652 22 21.5196 21.8946 21.7071 21.7071C21.8946 21.5196 22 21.2652 22 21V3C22 2.73478 21.8946 2.48043 21.7071 2.29289C21.5196 2.10536 21.2652 2 21 2ZM20 20H4V4H20V20Z" />
</svg>
