<svg width="24" height="24" viewBox="0 0 24 24" xmlns="http://www.w3.org/2000/svg">
<path d="M2.5004 8.85988L11.5004 14.0599C11.6524 14.1477 11.8249 14.1939 12.0004 14.1939C12.1759 14.1939 12.3484 14.1477 12.5004 14.0599L21.5004 8.85988C21.6515 8.77263 21.7772 8.64734 21.8649 8.49647C21.9526 8.3456 21.9993 8.1744 22.0004 7.99988C22.0011 7.82367 21.9552 7.65041 21.8674 7.49763C21.7796 7.34485 21.653 7.21799 21.5004 7.12988L12.5004 1.93988C12.3484 1.85211 12.1759 1.80591 12.0004 1.80591C11.8249 1.80591 11.6524 1.85211 11.5004 1.93988L2.5004 7.12988C2.34779 7.21799 2.22118 7.34485 2.13337 7.49763C2.04557 7.65041 1.9997 7.82367 2.0004 7.99988C2.00145 8.1744 2.04816 8.3456 2.13587 8.49647C2.22359 8.64734 2.34926 8.77263 2.5004 8.85988ZM12.0004 3.99988L19.0004 7.99988L12.0004 11.9999L5.0004 7.99988L12.0004 3.99988ZM20.5004 11.1699L12.0004 15.9999L3.5004 11.1299C3.38626 11.0638 3.26018 11.0209 3.1294 11.0037C2.99862 10.9865 2.86573 10.9954 2.73839 11.0298C2.61105 11.0642 2.49177 11.1234 2.38743 11.2041C2.28308 11.2848 2.19573 11.3853 2.1304 11.4999C2.00002 11.7295 1.96576 12.0014 2.03507 12.2561C2.10439 12.5109 2.27167 12.728 2.5004 12.8599L11.5004 18.0599C11.6524 18.1477 11.8249 18.1939 12.0004 18.1939C12.1759 18.1939 12.3484 18.1477 12.5004 18.0599L21.5004 12.8599C21.7291 12.728 21.8964 12.5109 21.9657 12.2561C22.035 12.0014 22.0008 11.7295 21.8704 11.4999C21.8051 11.3853 21.7177 11.2848 21.6134 11.2041C21.509 11.1234 21.3897 11.0642 21.2624 11.0298C21.1351 10.9954 21.0022 10.9865 20.8714 11.0037C20.7406 11.0209 20.6145 11.0638 20.5004 11.1299V11.1699ZM20.5004 15.1699L12.0004 19.9999L3.5004 15.1299C3.38626 15.0638 3.26018 15.0209 3.1294 15.0037C2.99862 14.9865 2.86573 14.9954 2.73839 15.0298C2.61105 15.0642 2.49177 15.1234 2.38743 15.2041C2.28308 15.2848 2.19573 15.3853 2.1304 15.4999C2.00002 15.7295 1.96576 16.0014 2.03507 16.2561C2.10439 16.5109 2.27167 16.728 2.5004 16.8599L11.5004 22.0599C11.6524 22.1477 11.8249 22.1939 12.0004 22.1939C12.1759 22.1939 12.3484 22.1477 12.5004 22.0599L21.5004 16.8599C21.7291 16.728 21.8964 16.5109 21.9657 16.2561C22.035 16.0014 22.0008 15.7295 21.8704 15.4999C21.8051 15.3853 21.7177 15.2848 21.6134 15.2041C21.509 15.1234 21.3897 15.0642 21.2624 15.0298C21.1351 14.9954 21.0022 14.9865 20.8714 15.0037C20.7406 15.0209 20.6145 15.0638 20.5004 15.1299V15.1699Z" />
</svg>
