<svg width="24" height="24" viewBox="0 0 24 24" xmlns="http://www.w3.org/2000/svg">
<path d="M10.6602 5.99994H17.0002C17.2654 5.99994 17.5198 6.1053 17.7073 6.29283C17.8948 6.48037 18.0002 6.73472 18.0002 6.99994V13.3399C18.0002 13.6052 18.1055 13.8595 18.2931 14.047C18.4806 14.2346 18.735 14.3399 19.0002 14.3399C19.2654 14.3399 19.5198 14.2346 19.7073 14.047C19.8948 13.8595 20.0002 13.6052 20.0002 13.3399V6.99994C20.0002 6.20429 19.6841 5.44123 19.1215 4.87862C18.5589 4.31601 17.7958 3.99994 17.0002 3.99994H10.6602C10.395 3.99994 10.1406 4.1053 9.95308 4.29283C9.76554 4.48037 9.66019 4.73472 9.66019 4.99994C9.66019 5.26516 9.76554 5.51951 9.95308 5.70705C10.1406 5.89458 10.395 5.99994 10.6602 5.99994ZM21.7102 20.2899L3.71019 2.28994C3.52188 2.10164 3.26649 1.99585 3.00019 1.99585C2.73388 1.99585 2.47849 2.10164 2.29019 2.28994C2.10188 2.47824 1.99609 2.73364 1.99609 2.99994C1.99609 3.26624 2.10188 3.52164 2.29019 3.70994L4.29019 5.70994C4.09879 6.11302 3.99971 6.55373 4.00019 6.99994V18.9999C4.00117 19.1974 4.06057 19.3901 4.17091 19.5538C4.28124 19.7175 4.43757 19.8449 4.62019 19.9199C4.73886 19.9759 4.86901 20.0033 5.00019 19.9999C5.13179 20.0007 5.26225 19.9755 5.38409 19.9257C5.50593 19.8759 5.61675 19.8026 5.71019 19.7099L8.41019 16.9999H15.5902L20.2902 21.7099C20.3831 21.8037 20.4937 21.8781 20.6156 21.9288C20.7375 21.9796 20.8682 22.0057 21.0002 22.0057C21.1322 22.0057 21.2629 21.9796 21.3848 21.9288C21.5066 21.8781 21.6172 21.8037 21.7102 21.7099C21.8039 21.617 21.8783 21.5064 21.9291 21.3845C21.9798 21.2627 22.006 21.132 22.006 20.9999C22.006 20.8679 21.9798 20.7372 21.9291 20.6154C21.8783 20.4935 21.8039 20.3829 21.7102 20.2899ZM8.00019 14.9999C7.86858 14.9992 7.73812 15.0244 7.61628 15.0742C7.49444 15.1239 7.38363 15.1973 7.29019 15.2899L6.00019 16.5899V7.40994L13.5902 14.9999H8.00019Z" />
</svg>
