<svg width="24" height="24" viewBox="0 0 24 24" xmlns="http://www.w3.org/2000/svg">
<path d="M19.2202 5.99994H12.6602C12.395 5.99994 12.1406 6.1053 11.9531 6.29283C11.7655 6.48037 11.6602 6.73472 11.6602 6.99994C11.6602 7.26516 11.7655 7.51951 11.9531 7.70705C12.1406 7.89458 12.395 7.99994 12.6602 7.99994H19.2202C19.4271 7.99994 19.6255 8.08212 19.7717 8.2284C19.918 8.37468 20.0002 8.57307 20.0002 8.77994V9.55994H16.2202C15.955 9.55994 15.7006 9.6653 15.5131 9.85283C15.3255 10.0404 15.2202 10.2947 15.2202 10.5599C15.2202 10.8252 15.3255 11.0795 15.5131 11.267C15.7006 11.4546 15.955 11.5599 16.2202 11.5599H18.5902L17.8902 12.2499C17.7965 12.3429 17.7221 12.4535 17.6713 12.5754C17.6205 12.6972 17.5944 12.8279 17.5944 12.9599C17.5944 13.092 17.6205 13.2227 17.6713 13.3445C17.7221 13.4664 17.7965 13.577 17.8902 13.6699C17.9831 13.7637 18.0938 13.8381 18.2156 13.8888C18.3375 13.9396 18.4682 13.9657 18.6002 13.9657C18.7322 13.9657 18.8629 13.9396 18.9848 13.8888C19.1066 13.8381 19.2172 13.7637 19.3102 13.6699L21.1902 11.7899C21.4202 11.5607 21.6036 11.289 21.7302 10.9899V10.8899C21.896 10.5568 21.9881 10.1919 22.0002 9.81994V8.81994C22.0041 8.45188 21.9352 8.08667 21.7974 7.74535C21.6596 7.40404 21.4556 7.09337 21.1972 6.83124C20.9388 6.56911 20.6311 6.3607 20.2918 6.21803C19.9525 6.07536 19.5883 6.00124 19.2202 5.99994ZM3.71019 2.28994C3.61695 2.1967 3.50626 2.12274 3.38443 2.07228C3.26261 2.02182 3.13204 1.99585 3.00019 1.99585C2.86833 1.99585 2.73776 2.02182 2.61594 2.07228C2.49411 2.12274 2.38342 2.1967 2.29019 2.28994C2.10188 2.47824 1.99609 2.73364 1.99609 2.99994C1.99609 3.26624 2.10188 3.52164 2.29019 3.70994L5.14019 6.54994C4.786 6.8037 4.4977 7.13855 4.29938 7.5265C4.10105 7.91445 3.99846 8.34424 4.00019 8.77994V9.77994C4.00047 10.1596 4.08232 10.5347 4.24019 10.8799V10.9399C4.36779 11.2414 4.55098 11.5162 4.78019 11.7499L10.1902 17.1499V20.9999C10.1898 21.1699 10.2328 21.3371 10.3151 21.4858C10.3973 21.6346 10.5161 21.7599 10.6602 21.8499C10.8193 21.9486 11.003 22.0005 11.1902 21.9999C11.3467 21.999 11.5009 21.9613 11.6402 21.8899L15.2002 20.1099C15.3651 20.0268 15.5038 19.8997 15.6009 19.7426C15.6979 19.5855 15.7496 19.4046 15.7502 19.2199V17.2199L20.2602 21.7399C20.3531 21.8337 20.4637 21.9081 20.5856 21.9588C20.7075 22.0096 20.8382 22.0357 20.9702 22.0357C21.1022 22.0357 21.2329 22.0096 21.3548 21.9588C21.4766 21.9081 21.5872 21.8337 21.6802 21.7399C21.7739 21.647 21.8483 21.5364 21.8991 21.4145C21.9498 21.2927 21.976 21.162 21.976 21.0299C21.976 20.8979 21.9498 20.7672 21.8991 20.6454C21.8483 20.5235 21.7739 20.4129 21.6802 20.3199L3.71019 2.28994ZM6.00019 8.77994C5.99898 8.62299 6.04639 8.46951 6.13592 8.34059C6.22545 8.21167 6.3527 8.11363 6.50019 8.05994L6.59019 7.99994L8.15019 9.55994H6.00019V8.77994ZM14.0702 16.0699C13.9775 16.1634 13.9042 16.2742 13.8544 16.396C13.8046 16.5179 13.7794 16.6483 13.7802 16.7799V18.5999L12.2202 19.3799V16.7799C12.2209 16.6483 12.1957 16.5179 12.146 16.396C12.0962 16.2742 12.0229 16.1634 11.9302 16.0699L7.41019 11.5599H10.1502L14.3702 15.7799L14.0702 16.0699Z" />
</svg>
