<svg width="24" height="24" viewBox="0 0 24 24" xmlns="http://www.w3.org/2000/svg">
<path d="M10.8402 5.37994C11.2245 5.10614 11.6932 4.97705 12.1635 5.01548C12.6338 5.05391 13.0754 5.25739 13.4102 5.58994C13.7858 5.96329 13.998 6.47036 14.0002 6.99994V9.99994C14.0002 10.2652 14.1055 10.5195 14.2931 10.707C14.4806 10.8946 14.735 10.9999 15.0002 10.9999H16.0002C16.2654 10.9999 16.5198 11.1053 16.7073 11.2928C16.8948 11.4804 17.0002 11.7347 17.0002 11.9999V12.3399C17.0002 12.6052 17.1055 12.8595 17.2931 13.047C17.4806 13.2346 17.735 13.3399 18.0002 13.3399C18.2654 13.3399 18.5198 13.2346 18.7073 13.047C18.8948 12.8595 19.0002 12.6052 19.0002 12.3399V11.9999C19.0002 11.2043 18.6841 10.4412 18.1215 9.87862C17.5589 9.31601 16.7958 8.99994 16.0002 8.99994V6.99994C16.0006 6.4745 15.8975 5.95412 15.6967 5.46854C15.496 4.98296 15.2015 4.54169 14.8302 4.16994C14.1478 3.50726 13.2544 3.10521 12.3059 3.03393C11.3574 2.96265 10.4139 3.22668 9.64019 3.77994C9.53513 3.85873 9.44662 3.95745 9.37971 4.07045C9.3128 4.18345 9.26881 4.30852 9.25024 4.43852C9.23166 4.56852 9.23888 4.70091 9.27147 4.82812C9.30406 4.95534 9.36139 5.07488 9.44019 5.17994C9.51898 5.285 9.61769 5.37351 9.73069 5.44042C9.84369 5.50732 9.96876 5.55132 10.0988 5.56989C10.2288 5.58846 10.3612 5.58125 10.4884 5.54866C10.6156 5.51606 10.7351 5.45873 10.8402 5.37994ZM21.7102 20.2899L3.71019 2.28994C3.52188 2.10164 3.26649 1.99585 3.00019 1.99585C2.73388 1.99585 2.47849 2.10164 2.29019 2.28994C2.10188 2.47824 1.99609 2.73364 1.99609 2.99994C1.99609 3.26624 2.10188 3.52164 2.29019 3.70994L7.62019 8.99994C6.89208 9.09289 6.22332 9.44955 5.74049 10.0024C5.25766 10.5553 4.99428 11.266 5.00019 11.9999V17.9999C5.00019 18.7956 5.31626 19.5587 5.87887 20.1213C6.44147 20.6839 7.20454 20.9999 8.00019 20.9999H16.0002C16.4642 20.9984 16.9216 20.8892 17.3363 20.681C17.751 20.4728 18.1118 20.1712 18.3902 19.7999L20.2902 21.7099C20.3831 21.8037 20.4937 21.8781 20.6156 21.9288C20.7375 21.9796 20.8682 22.0057 21.0002 22.0057C21.1322 22.0057 21.2629 21.9796 21.3848 21.9288C21.5066 21.8781 21.6172 21.8037 21.7102 21.7099C21.8039 21.617 21.8783 21.5064 21.9291 21.3845C21.9798 21.2627 22.006 21.132 22.006 20.9999C22.006 20.8679 21.9798 20.7372 21.9291 20.6154C21.8783 20.4935 21.8039 20.3829 21.7102 20.2899ZM16.0002 18.9999H8.00019C7.73497 18.9999 7.48062 18.8946 7.29308 18.707C7.10554 18.5195 7.00019 18.2652 7.00019 17.9999V11.9999C7.00019 11.7347 7.10554 11.4804 7.29308 11.2928C7.48062 11.1053 7.73497 10.9999 8.00019 10.9999H9.59019L11.6602 13.0699C11.4685 13.1392 11.3026 13.2654 11.1846 13.4316C11.0667 13.5979 11.0023 13.7961 11.0002 13.9999V15.9999C11.0002 16.2652 11.1055 16.5195 11.2931 16.707C11.4806 16.8946 11.735 16.9999 12.0002 16.9999C12.2654 16.9999 12.5198 16.8946 12.7073 16.707C12.8948 16.5195 13.0002 16.2652 13.0002 15.9999V14.4099L16.9302 18.3399C16.8609 18.5316 16.7347 18.6975 16.5685 18.8155C16.4023 18.9335 16.204 18.9978 16.0002 18.9999Z" />
</svg>
