<svg width="24" height="24" viewBox="0 0 24 24" xmlns="http://www.w3.org/2000/svg">
<path d="M10.6298 5.48997C11.6228 5.25787 12.6586 5.2827 13.6394 5.56212C14.6201 5.84154 15.5135 6.36632 16.2351 7.08692C16.9567 7.80751 17.4827 8.70014 17.7635 9.68051C18.0443 10.6609 18.0705 11.6966 17.8398 12.69C17.8086 12.818 17.8029 12.951 17.8232 13.0812C17.8435 13.2115 17.8894 13.3364 17.9582 13.4489C18.027 13.5613 18.1173 13.6591 18.224 13.7365C18.3306 13.8139 18.4516 13.8695 18.5798 13.9C18.6562 13.9098 18.7335 13.9098 18.8098 13.9C19.0383 13.9066 19.2621 13.8348 19.444 13.6966C19.626 13.5583 19.7551 13.3618 19.8098 13.14C20.1213 11.8145 20.0894 10.4314 19.717 9.12173C19.3446 7.81204 18.6441 6.61907 17.6818 5.65577C16.7195 4.69247 15.5273 3.99073 14.218 3.61697C12.9087 3.24322 11.5256 3.20983 10.1998 3.51997C9.9346 3.58097 9.70448 3.74483 9.56007 3.9755C9.41567 4.20617 9.36882 4.48475 9.42982 4.74997C9.49082 5.01518 9.65467 5.24531 9.88534 5.38971C10.116 5.53411 10.3946 5.58097 10.6598 5.51997L10.6298 5.48997ZM21.7098 20.07L17.4398 15.8L3.70982 2.06997C3.61685 1.97624 3.50625 1.90185 3.38439 1.85108C3.26253 1.80031 3.13183 1.77417 2.99982 1.77417C2.8678 1.77417 2.7371 1.80031 2.61524 1.85108C2.49338 1.90185 2.38278 1.97624 2.28982 2.06997C2.10357 2.25733 1.99902 2.51078 1.99902 2.77497C1.99902 3.03915 2.10357 3.29261 2.28982 3.47997L5.49982 6.68997C4.39658 8.22975 3.8755 10.111 4.02932 11.999C4.18314 13.887 5.00188 15.6591 6.33982 17L11.2898 21.95C11.3828 22.0437 11.4934 22.1181 11.6152 22.1689C11.7371 22.2196 11.8678 22.2458 11.9998 22.2458C12.1318 22.2458 12.2625 22.2196 12.3844 22.1689C12.5063 22.1181 12.6169 22.0437 12.7098 21.95L16.7098 17.95L20.2698 21.51C20.4568 21.6983 20.7109 21.8046 20.9763 21.8055C21.2416 21.8065 21.4965 21.7019 21.6848 21.515C21.8731 21.328 21.9794 21.0739 21.9804 20.8085C21.9813 20.5431 21.8768 20.2883 21.6898 20.1L21.7098 20.07ZM12.1198 13.31C11.839 13.3279 11.5576 13.2864 11.294 13.1882C11.0304 13.09 10.7904 12.9372 10.5898 12.74C10.3889 12.5411 10.2325 12.3019 10.1308 12.0382C10.0291 11.7745 9.98446 11.4922 9.99982 11.21L12.1198 13.31ZM11.9998 19.81L7.75982 15.57C6.8002 14.6063 6.19641 13.3453 6.04743 11.9935C5.89844 10.6417 6.2131 9.27947 6.93982 8.12997L8.40982 9.59997C8.05122 10.344 7.93176 11.1809 8.06784 11.9956C8.20392 12.8102 8.58887 13.5628 9.16982 14.15C9.54074 14.5231 9.98165 14.8194 10.4673 15.0219C10.9529 15.2244 11.4737 15.3291 11.9998 15.33C12.6002 15.3272 13.192 15.187 13.7298 14.92L15.3098 16.5L11.9998 19.81Z" />
</svg>
