<svg width="24" height="24" viewBox="0 0 24 24" xmlns="http://www.w3.org/2000/svg">
<path d="M10.1902 5.22994C10.7812 5.07597 11.3895 4.99867 12.0002 4.99994C13.8567 4.99994 15.6372 5.73744 16.9499 7.05019C18.2627 8.36295 19.0002 10.1434 19.0002 11.9999C19.0015 12.6106 18.9242 13.219 18.7702 13.8099C18.7353 13.9367 18.7257 14.069 18.742 14.1995C18.7583 14.3299 18.8002 14.4558 18.8652 14.5701C18.9302 14.6843 19.0171 14.7846 19.1209 14.8652C19.2247 14.9459 19.3434 15.0052 19.4702 15.0399C19.5566 15.0498 19.6438 15.0498 19.7302 15.0399C19.9559 15.0477 20.1777 14.9787 20.3593 14.8444C20.5408 14.71 20.6716 14.5181 20.7302 14.2999C20.9199 13.5483 21.0106 12.7751 21.0002 11.9999C21.0002 9.61299 20.052 7.32381 18.3641 5.63598C16.6763 3.94815 14.3871 2.99994 12.0002 2.99994C11.2137 2.99667 10.4302 3.09754 9.67019 3.29994C9.41968 3.37638 9.20916 3.54805 9.08388 3.77805C8.95859 4.00805 8.92854 4.27802 9.00019 4.52994C9.07053 4.77722 9.23341 4.9879 9.455 5.11825C9.6766 5.2486 9.93988 5.2886 10.1902 5.22994ZM21.7102 20.2899L3.71019 2.28994C3.52188 2.10164 3.26649 1.99585 3.00019 1.99585C2.73388 1.99585 2.47849 2.10164 2.29019 2.28994C2.10188 2.47824 1.99609 2.73364 1.99609 2.99994C1.99609 3.26624 2.10188 3.52164 2.29019 3.70994L5.00019 6.37994C3.72466 7.97539 3.02981 9.95729 3.02981 11.9999C3.02981 14.0426 3.72466 16.0245 5.00019 17.6199L3.29019 19.2899C3.15143 19.4306 3.05743 19.6091 3.02006 19.8031C2.98268 19.9971 3.00361 20.1978 3.08019 20.3799C3.15521 20.5626 3.2826 20.7189 3.44632 20.8292C3.61004 20.9396 3.80276 20.999 4.00019 20.9999H12.0002C14.0464 20.9915 16.0287 20.2861 17.6202 18.9999L20.2902 21.6799C20.3831 21.7737 20.4937 21.8481 20.6156 21.8988C20.7375 21.9496 20.8682 21.9757 21.0002 21.9757C21.1322 21.9757 21.2629 21.9496 21.3848 21.8988C21.5066 21.8481 21.6172 21.7737 21.7102 21.6799C21.8904 21.4935 21.9912 21.2443 21.9912 20.9849C21.9912 20.7256 21.8904 20.4764 21.7102 20.2899ZM12.0002 18.9999H6.41019L7.05019 18.3699C7.23644 18.1826 7.34098 17.9291 7.34098 17.6649C7.34098 17.4008 7.23644 17.1473 7.05019 16.9599C5.85868 15.7684 5.13697 14.1871 5.01756 12.5062C4.89816 10.8254 5.38908 9.15794 6.40019 7.80994L16.1902 17.5999C14.9812 18.5066 13.5114 18.9978 12.0002 18.9999Z" />
</svg>
