<svg width="24" height="24" viewBox="0 0 24 24" xmlns="http://www.w3.org/2000/svg">
<path d="M13.9999 10.9999H9.99994C9.73472 10.9999 9.48037 11.1053 9.29283 11.2928C9.1053 11.4804 8.99994 11.7347 8.99994 11.9999C8.99994 12.2652 9.1053 12.5195 9.29283 12.707C9.48037 12.8946 9.73472 12.9999 9.99994 12.9999H13.9999C14.2652 12.9999 14.5195 12.8946 14.707 12.707C14.8946 12.5195 14.9999 12.2652 14.9999 11.9999C14.9999 11.7347 14.8946 11.4804 14.707 11.2928C14.5195 11.1053 14.2652 10.9999 13.9999 10.9999ZM21.7099 11.2899L19.3599 8.99994V5.63994C19.3599 5.37472 19.2546 5.12037 19.067 4.93283C18.8795 4.7453 18.6252 4.63994 18.3599 4.63994H15.0499L12.7099 2.28994C12.617 2.19621 12.5064 2.12182 12.3845 2.07105C12.2627 2.02028 12.132 1.99414 11.9999 1.99414C11.8679 1.99414 11.7372 2.02028 11.6154 2.07105C11.4935 2.12182 11.3829 2.19621 11.2899 2.28994L8.99994 4.63994H5.63994C5.37472 4.63994 5.12037 4.7453 4.93283 4.93283C4.7453 5.12037 4.63994 5.37472 4.63994 5.63994V8.99994L2.28994 11.2899C2.19621 11.3829 2.12182 11.4935 2.07105 11.6154C2.02028 11.7372 1.99414 11.8679 1.99414 11.9999C1.99414 12.132 2.02028 12.2627 2.07105 12.3845C2.12182 12.5064 2.19621 12.617 2.28994 12.7099L4.63994 15.0499V18.3599C4.63994 18.6252 4.7453 18.8795 4.93283 19.067C5.12037 19.2546 5.37472 19.3599 5.63994 19.3599H8.99994L11.3399 21.7099C11.4329 21.8037 11.5435 21.8781 11.6654 21.9288C11.7872 21.9796 11.9179 22.0057 12.0499 22.0057C12.182 22.0057 12.3127 21.9796 12.4345 21.9288C12.5564 21.8781 12.667 21.8037 12.7599 21.7099L15.0999 19.3599H18.4099C18.6752 19.3599 18.9295 19.2546 19.117 19.067C19.3046 18.8795 19.4099 18.6252 19.4099 18.3599V15.0499L21.7599 12.7099C21.8505 12.6137 21.921 12.5005 21.9676 12.3769C22.0141 12.2532 22.0356 12.1215 22.031 11.9895C22.0264 11.8575 21.9956 11.7277 21.9405 11.6076C21.8854 11.4875 21.807 11.3796 21.7099 11.2899ZM17.6599 13.9299C17.5655 14.0226 17.4903 14.133 17.4388 14.2549C17.3873 14.3767 17.3605 14.5076 17.3599 14.6399V17.3599H14.6399C14.5076 17.3605 14.3767 17.3873 14.2549 17.4388C14.133 17.4903 14.0226 17.5655 13.9299 17.6599L11.9999 19.5899L10.0699 17.6599C9.97732 17.5655 9.86688 17.4903 9.745 17.4388C9.62313 17.3873 9.49225 17.3605 9.35994 17.3599H6.63994V14.6399C6.63939 14.5076 6.61259 14.3767 6.56109 14.2549C6.5096 14.133 6.43443 14.0226 6.33994 13.9299L4.40994 11.9999L6.33994 10.0699C6.43443 9.97732 6.5096 9.86688 6.56109 9.745C6.61259 9.62313 6.63939 9.49225 6.63994 9.35994V6.63994H9.35994C9.49225 6.63939 9.62313 6.61259 9.745 6.56109C9.86688 6.5096 9.97732 6.43443 10.0699 6.33994L11.9999 4.40994L13.9299 6.33994C14.0226 6.43443 14.133 6.5096 14.2549 6.56109C14.3767 6.61259 14.5076 6.63939 14.6399 6.63994H17.3599V9.35994C17.3605 9.49225 17.3873 9.62313 17.4388 9.745C17.4903 9.86688 17.5655 9.97732 17.6599 10.0699L19.5899 11.9999L17.6599 13.9299Z" />
</svg>
