<svg width="24" height="24" viewBox="0 0 24 24" xmlns="http://www.w3.org/2000/svg">
<path d="M18.83 9.17003C18.7368 9.07679 18.6261 9.00283 18.5042 8.95237C18.3824 8.90191 18.2519 8.87594 18.12 8.87594C17.9881 8.87594 17.8576 8.90191 17.7358 8.95237C17.6139 9.00283 17.5032 9.07679 17.41 9.17003C17.3168 9.26327 17.2428 9.37396 17.1923 9.49578C17.1419 9.6176 17.1159 9.74817 17.1159 9.88003C17.1159 10.0119 17.1419 10.1425 17.1923 10.2643C17.2428 10.3861 17.3168 10.4968 17.41 10.59C17.7856 10.9634 17.9978 11.4705 18 12C18.0002 12.2914 17.9368 12.5793 17.8142 12.8435C17.6915 13.1078 17.5126 13.3421 17.29 13.53C17.1887 13.614 17.105 13.7171 17.0437 13.8334C16.9823 13.9498 16.9445 14.0771 16.9325 14.2081C16.9204 14.339 16.9343 14.4711 16.9733 14.5967C17.0124 14.7223 17.0758 14.839 17.16 14.94C17.2447 15.0406 17.3483 15.1234 17.465 15.1839C17.5817 15.2443 17.7092 15.2812 17.8401 15.2923C17.9711 15.3035 18.1029 15.2887 18.2282 15.2488C18.3534 15.209 18.4696 15.1448 18.57 15.06C19.0171 14.6851 19.3768 14.217 19.6238 13.6884C19.8709 13.1598 19.9992 12.5835 20 12C19.9944 10.9401 19.5744 9.92448 18.83 9.17003ZM14.43 4.10003C14.2676 4.02977 14.0895 4.00386 13.9138 4.02495C13.7381 4.04603 13.5712 4.11335 13.43 4.22003L8.65 8.00003H5C4.73478 8.00003 4.48043 8.10539 4.29289 8.29293C4.10536 8.48046 4 8.73482 4 9.00003V15C4 15.2652 4.10536 15.5196 4.29289 15.7071C4.48043 15.8947 4.73478 16 5 16H8.65L13.38 19.78C13.5559 19.9212 13.7744 19.9987 14 20C14.1494 20.0025 14.297 19.9682 14.43 19.9C14.6002 19.819 14.744 19.6915 14.8448 19.5323C14.9457 19.373 14.9995 19.1885 15 19V5.00003C14.9995 4.81155 14.9457 4.62705 14.8448 4.46781C14.744 4.30857 14.6002 4.18108 14.43 4.10003ZM13 16.92L9.62 14.22C9.44406 14.0789 9.22556 14.0013 9 14H6V10H9C9.22556 9.99872 9.44406 9.92119 9.62 9.78003L13 7.08003V16.92Z" />
</svg>
