<svg width="24" height="24" viewBox="0 0 24 24" xmlns="http://www.w3.org/2000/svg">
<path d="M15.5298 14.13C15.4368 14.0362 15.3262 13.9618 15.2044 13.9111C15.0825 13.8603 14.9518 13.8342 14.8198 13.8342C14.6878 13.8342 14.5571 13.8603 14.4352 13.9111C14.3134 13.9618 14.2028 14.0362 14.1098 14.13C13.9235 14.3173 13.819 14.5708 13.819 14.835C13.819 15.0991 13.9235 15.3526 14.1098 15.54L20.2898 21.72C20.3828 21.8137 20.4934 21.8881 20.6152 21.9389C20.7371 21.9896 20.8678 22.0158 20.9998 22.0158C21.1318 22.0158 21.2625 21.9896 21.3844 21.9389C21.5062 21.8881 21.6168 21.8137 21.7098 21.72C21.896 21.5326 22.0006 21.2791 22.0006 21.015C22.0006 20.7508 21.896 20.4973 21.7098 20.31L15.5298 14.13ZM16.7598 11.64C17.5552 11.6393 18.3177 11.3227 18.8798 10.76L21.7098 7.92996C21.896 7.7426 22.0006 7.48915 22.0006 7.22496C22.0006 6.96078 21.896 6.70733 21.7098 6.51996C21.6168 6.42624 21.5062 6.35184 21.3844 6.30107C21.2625 6.2503 21.1318 6.22417 20.9998 6.22417C20.8678 6.22417 20.7371 6.2503 20.6152 6.30107C20.4934 6.35184 20.3828 6.42624 20.2898 6.51996L17.4598 9.34996C17.2724 9.53622 17.019 9.64076 16.7548 9.64076C16.4906 9.64076 16.2372 9.53622 16.0498 9.34996L19.5898 5.80996C19.7761 5.6226 19.8806 5.36915 19.8806 5.10496C19.8806 4.84078 19.7761 4.58733 19.5898 4.39996C19.4968 4.30624 19.3862 4.23184 19.2644 4.18107C19.1425 4.1303 19.0118 4.10417 18.8798 4.10417C18.7478 4.10417 18.6171 4.1303 18.4952 4.18107C18.3734 4.23184 18.2628 4.30624 18.1698 4.39996L14.6398 7.92996C14.4535 7.7426 14.349 7.48915 14.349 7.22496C14.349 6.96078 14.4535 6.70733 14.6398 6.51996L17.4598 3.68996C17.5645 3.60032 17.6495 3.49 17.7095 3.36593C17.7695 3.24187 17.8033 3.10674 17.8086 2.96902C17.8139 2.8313 17.7907 2.69397 17.7404 2.56564C17.6902 2.43732 17.6139 2.32077 17.5164 2.22331C17.419 2.12586 17.3024 2.0496 17.1741 1.99933C17.0458 1.94905 16.9085 1.92585 16.7707 1.93117C16.633 1.93648 16.4979 1.97021 16.3738 2.03024C16.2498 2.09026 16.1394 2.17528 16.0498 2.27996L13.2198 5.10996C12.658 5.67247 12.3424 6.43496 12.3424 7.22996C12.3424 8.02497 12.658 8.78746 13.2198 9.34996L11.9998 10.59L10.4398 9.04996C10.8825 8.25092 11.05 7.32836 10.9162 6.42469C10.7825 5.52103 10.355 4.68651 9.6998 4.04996C8.2598 2.60996 4.5298 0.999964 2.7698 2.78996C1.0098 4.57996 2.5998 8.26996 3.9998 9.71996C4.78163 10.5046 5.83279 10.9622 6.9398 11H7.0798C7.75592 10.9903 8.41779 10.8042 8.9998 10.46L10.5698 12L2.2898 20.28C2.19722 20.3732 2.12391 20.4838 2.07405 20.6053C2.0242 20.7269 1.99878 20.8571 1.99924 20.9885C1.99971 21.1199 2.02605 21.2499 2.07676 21.3711C2.12747 21.4923 2.20156 21.6024 2.2948 21.695C2.38804 21.7875 2.4986 21.8609 2.62017 21.9107C2.74174 21.9606 2.87194 21.986 3.00333 21.9855C3.13473 21.9851 3.26475 21.9587 3.38596 21.908C3.50718 21.8573 3.61722 21.7832 3.7098 21.69L12.7098 12.69L14.6298 10.77C14.9101 11.048 15.2426 11.268 15.6081 11.4173C15.9736 11.5666 16.365 11.6422 16.7598 11.64ZM8.4298 8.43996C8.24245 8.6262 8.01887 8.772 7.7729 8.86832C7.52692 8.96465 7.26379 9.00945 6.9998 8.99996C6.4152 8.97479 5.86316 8.72386 5.4598 8.29996C4.3798 7.21996 3.6198 4.76996 4.1898 4.19996C4.37912 4.05715 4.61304 3.98626 4.8498 3.99996C6.1261 4.10169 7.33413 4.61792 8.2898 5.46996C8.69807 5.84768 8.94155 6.37072 8.96774 6.92631C8.99393 7.48189 8.80073 8.02551 8.4298 8.43996Z" />
</svg>
