<svg width="24" height="24" viewBox="0 0 24 24" xmlns="http://www.w3.org/2000/svg">
<path d="M22.0005 9.6699C21.9373 9.48699 21.8224 9.32633 21.6698 9.2074C21.5171 9.08848 21.3333 9.0164 21.1405 8.9999L15.4505 8.1699L12.9005 2.9999C12.8186 2.83083 12.6907 2.68824 12.5316 2.58847C12.3724 2.48871 12.1883 2.43579 12.0005 2.43579C11.8126 2.43579 11.6286 2.48871 11.4694 2.58847C11.3102 2.68824 11.1824 2.83083 11.1005 2.9999L8.55047 8.1599L2.86047 8.9999C2.67539 9.02621 2.50139 9.10386 2.35822 9.22406C2.21504 9.34425 2.10843 9.50218 2.05047 9.6799C1.99741 9.85358 1.99265 10.0384 2.03669 10.2146C2.08074 10.3908 2.17192 10.5516 2.30047 10.6799L6.43047 14.6799L5.43047 20.3599C5.39009 20.5483 5.40502 20.7444 5.47345 20.9245C5.54188 21.1047 5.6609 21.2612 5.8162 21.3753C5.97149 21.4894 6.15644 21.5562 6.34879 21.5676C6.54115 21.5791 6.73272 21.5347 6.90047 21.4399L12.0005 18.7699L17.1005 21.4399C17.2408 21.5191 17.3993 21.5604 17.5605 21.5599C17.7723 21.5607 17.9789 21.4941 18.1505 21.3699C18.3056 21.2588 18.4257 21.1055 18.4966 20.9284C18.5675 20.7512 18.5862 20.5574 18.5505 20.3699L17.5505 14.6899L21.6805 10.6899C21.8248 10.5676 21.9316 10.4068 21.9882 10.2262C22.0448 10.0457 22.0491 9.85278 22.0005 9.6699ZM11.0005 16.9999L7.77047 18.6999L8.49047 14.4999C8.5167 14.3407 8.50403 14.1775 8.45353 14.0243C8.40304 13.871 8.31621 13.7323 8.20047 13.6199L5.20047 10.6199L9.41047 10.0099C9.57246 9.98737 9.72646 9.92544 9.85896 9.82955C9.99147 9.73366 10.0984 9.60674 10.1705 9.4599L11.0005 7.7299V16.9999ZM15.8005 13.6199C15.6847 13.7323 15.5979 13.871 15.5474 14.0243C15.4969 14.1775 15.4842 14.3407 15.5105 14.4999L16.2305 18.6999L13.0005 16.9999V7.7299L13.8805 9.5199C13.9525 9.66674 14.0595 9.79366 14.192 9.88955C14.3245 9.98544 14.4785 10.0474 14.6405 10.0699L18.8505 10.6799L15.8005 13.6199Z" />
</svg>
