<svg width="24" height="24" viewBox="0 0 24 24" xmlns="http://www.w3.org/2000/svg">
<path d="M17.9998 2.78005C17.949 2.55447 17.8216 2.35347 17.6393 2.21125C17.457 2.06904 17.231 1.9944 16.9998 2.00005H6.99985C6.76869 1.9944 6.54271 2.06904 6.36038 2.21125C6.17806 2.35347 6.05065 2.55447 5.99985 2.78005L3.99985 11.7801C3.96673 11.9276 3.96753 12.0808 4.00217 12.228C4.03681 12.3753 4.1044 12.5127 4.19985 12.6301C4.29607 12.7487 4.4182 12.8438 4.55688 12.908C4.69556 12.9721 4.8471 13.0036 4.99985 13.0001H8.93985C8.98006 13.3319 9.0001 13.6658 8.99985 14.0001C9.00921 16.3571 8.08525 18.6221 6.42985 20.3001C6.29224 20.4404 6.19906 20.6183 6.16196 20.8113C6.12485 21.0044 6.14547 21.2041 6.22123 21.3855C6.29699 21.5668 6.42453 21.7219 6.58791 21.8312C6.75129 21.9405 6.94327 21.9992 7.13985 22.0001H16.8598C17.0564 21.9992 17.2484 21.9405 17.4118 21.8312C17.5752 21.7219 17.7027 21.5668 17.7785 21.3855C17.8542 21.2041 17.8748 21.0044 17.8377 20.8113C17.8006 20.6183 17.7075 20.4404 17.5698 20.3001C15.9144 18.6221 14.9905 16.3571 14.9998 14.0001C14.9996 13.6658 15.0196 13.3319 15.0598 13.0001H15.9998V15.0001C15.9998 15.2653 16.1052 15.5196 16.2927 15.7072C16.4803 15.8947 16.7346 16.0001 16.9998 16.0001C17.2651 16.0001 17.5194 15.8947 17.707 15.7072C17.8945 15.5196 17.9998 15.2653 17.9998 15.0001V13.0001H18.9998C19.1492 13.0006 19.2969 12.9676 19.4318 12.9036C19.5668 12.8395 19.6857 12.7461 19.7798 12.6301C19.8753 12.5127 19.9429 12.3753 19.9775 12.228C20.0122 12.0808 20.013 11.9276 19.9798 11.7801L17.9998 2.78005ZM9.21985 20.0001C10.3869 18.2171 11.0058 16.1311 10.9998 14.0001C10.9998 13.6701 10.9998 13.3301 10.9498 13.0001H13.0498C13.0498 13.3301 12.9998 13.6701 12.9998 14.0001C12.9939 16.1311 13.6128 18.2171 14.7798 20.0001H9.21985ZM6.21985 11.0001L7.79985 4.00005H16.1998L17.7498 11.0001H6.21985Z" />
</svg>
