<svg width="24" height="24" viewBox="0 0 24 24" xmlns="http://www.w3.org/2000/svg">
<path d="M19.8699 8.6001C19.7954 8.42882 19.6744 8.28183 19.5206 8.17578C19.3668 8.06974 19.1865 8.00888 18.9999 8.0001H14.4199L15.6899 3.2601C15.7303 3.11177 15.736 2.95612 15.7065 2.80523C15.6771 2.65434 15.6132 2.51229 15.5199 2.3901C15.4267 2.26908 15.3071 2.17101 15.1701 2.10341C15.0332 2.03581 14.8826 2.00047 14.7299 2.0001H7.72988C7.50411 1.99236 7.28238 2.0613 7.1008 2.19567C6.91922 2.33004 6.78848 2.52194 6.72988 2.7401L4.04988 12.7401C4.00943 12.8884 4.00373 13.0441 4.03321 13.195C4.06269 13.3459 4.12657 13.4879 4.21988 13.6101C4.31406 13.7325 4.4353 13.8313 4.5741 13.899C4.71289 13.9667 4.86547 14.0013 5.01988 14.0001H8.88988L7.07988 20.7401C7.02057 20.9574 7.0364 21.1884 7.12478 21.3957C7.21316 21.6029 7.36893 21.7742 7.56684 21.8818C7.76474 21.9895 7.9932 22.0271 8.21518 21.9887C8.43716 21.9503 8.63967 21.838 8.78988 21.6701L19.6899 9.6701C19.8197 9.52798 19.9057 9.35143 19.9376 9.16163C19.9695 8.97184 19.946 8.77686 19.8699 8.6001ZM10.0799 17.2801L11.1499 13.2801C11.1903 13.1318 11.196 12.9761 11.1665 12.8252C11.1371 12.6743 11.0732 12.5323 10.9799 12.4101C10.8867 12.2891 10.7671 12.191 10.6301 12.1234C10.4932 12.0558 10.3426 12.0205 10.1899 12.0201H6.34988L8.48988 4.0001H13.4199L12.1499 8.7401C12.1091 8.89115 12.1043 9.04967 12.136 9.2029C12.1676 9.35613 12.2348 9.4998 12.332 9.62235C12.4293 9.74491 12.554 9.84293 12.696 9.90854C12.8381 9.97414 12.9935 10.0055 13.1499 10.0001H16.7199L10.0799 17.2801Z" />
</svg>
