<svg width="24" height="24" viewBox="0 0 24 24" xmlns="http://www.w3.org/2000/svg">
<path d="M12 5.5C11.7033 5.5 11.4133 5.58797 11.1666 5.7528C10.92 5.91762 10.7277 6.15189 10.6142 6.42597C10.5006 6.70006 10.4709 7.00166 10.5288 7.29264C10.5867 7.58361 10.7296 7.85088 10.9393 8.06066C11.1491 8.27044 11.4164 8.4133 11.7074 8.47118C11.9983 8.52906 12.2999 8.49935 12.574 8.38582C12.8481 8.27229 13.0824 8.08003 13.2472 7.83336C13.412 7.58668 13.5 7.29667 13.5 7C13.5 6.60218 13.342 6.22064 13.0607 5.93934C12.7794 5.65804 12.3978 5.5 12 5.5ZM22 8.5H21.46C22.4483 7.40175 22.9967 5.97746 23 4.5C23 4.23478 22.8946 3.98043 22.7071 3.79289C22.5196 3.60536 22.2652 3.5 22 3.5H17.82C17.6137 2.91645 17.2319 2.411 16.7271 2.05294C16.2222 1.69488 15.6189 1.50174 15 1.5H9C8.38106 1.50174 7.7778 1.69488 7.27293 2.05294C6.76807 2.411 6.38631 2.91645 6.18 3.5H2C1.73478 3.5 1.48043 3.60536 1.29289 3.79289C1.10536 3.98043 1 4.23478 1 4.5C1.00334 5.97746 1.55169 7.40175 2.54 8.5H2C1.73478 8.5 1.48043 8.60536 1.29289 8.79289C1.10536 8.98043 1 9.23478 1 9.5C1.00334 10.9775 1.55169 12.4018 2.54 13.5H2C1.73478 13.5 1.48043 13.6054 1.29289 13.7929C1.10536 13.9804 1 14.2348 1 14.5C1.00263 15.9439 1.52585 17.3384 2.47367 18.4277C3.42149 19.5169 4.73032 20.2279 6.16 20.43C6.35558 21.0298 6.7353 21.5528 7.24517 21.9244C7.75503 22.296 8.36908 22.4974 9 22.5H15C15.6309 22.4974 16.245 22.296 16.7548 21.9244C17.2647 21.5528 17.6444 21.0298 17.84 20.43C19.2697 20.2279 20.5785 19.5169 21.5263 18.4277C22.4741 17.3384 22.9974 15.9439 23 14.5C23 14.2348 22.8946 13.9804 22.7071 13.7929C22.5196 13.6054 22.2652 13.5 22 13.5H21.46C22.4483 12.4018 22.9967 10.9775 23 9.5C23 9.23478 22.8946 8.98043 22.7071 8.79289C22.5196 8.60536 22.2652 8.5 22 8.5ZM6 18.37C5.30908 18.1912 4.6786 17.8307 4.17394 17.3261C3.66929 16.8214 3.30885 16.1909 3.13 15.5H6V18.37ZM6 13.37C5.30908 13.1912 4.6786 12.8307 4.17394 12.3261C3.66929 11.8214 3.30885 11.1909 3.13 10.5H6V13.37ZM6 8.37C5.31384 8.20039 4.68335 7.85586 4.17 7.37C3.68414 6.85665 3.33961 6.22616 3.17 5.54H6V8.37ZM16 19.5C16 19.7652 15.8946 20.0196 15.7071 20.2071C15.5196 20.3946 15.2652 20.5 15 20.5H9C8.73478 20.5 8.48043 20.3946 8.29289 20.2071C8.10536 20.0196 8 19.7652 8 19.5V4.5C8 4.23478 8.10536 3.98043 8.29289 3.79289C8.48043 3.60536 8.73478 3.5 9 3.5H15C15.2652 3.5 15.5196 3.60536 15.7071 3.79289C15.8946 3.98043 16 4.23478 16 4.5V19.5ZM19.83 17.33C19.3167 17.8159 18.6862 18.1604 18 18.33V15.5H20.87C20.6889 16.1903 20.3304 16.8212 19.83 17.33ZM19.83 12.33C19.3167 12.8159 18.6862 13.1604 18 13.33V10.5H20.87C20.6889 11.1903 20.3304 11.8212 19.83 12.33ZM19.83 7.33C19.3167 7.81586 18.6862 8.16039 18 8.33V5.5H20.87C20.6889 6.19029 20.3304 6.82118 19.83 7.33ZM12 15.5C11.7033 15.5 11.4133 15.588 11.1666 15.7528C10.92 15.9176 10.7277 16.1519 10.6142 16.426C10.5006 16.7001 10.4709 17.0017 10.5288 17.2926C10.5867 17.5836 10.7296 17.8509 10.9393 18.0607C11.1491 18.2704 11.4164 18.4133 11.7074 18.4712C11.9983 18.5291 12.2999 18.4993 12.574 18.3858C12.8481 18.2723 13.0824 18.08 13.2472 17.8334C13.412 17.5867 13.5 17.2967 13.5 17C13.5 16.6022 13.342 16.2206 13.0607 15.9393C12.7794 15.658 12.3978 15.5 12 15.5ZM12 10.5C11.7033 10.5 11.4133 10.588 11.1666 10.7528C10.92 10.9176 10.7277 11.1519 10.6142 11.426C10.5006 11.7001 10.4709 12.0017 10.5288 12.2926C10.5867 12.5836 10.7296 12.8509 10.9393 13.0607C11.1491 13.2704 11.4164 13.4133 11.7074 13.4712C11.9983 13.5291 12.2999 13.4994 12.574 13.3858C12.8481 13.2723 13.0824 13.08 13.2472 12.8334C13.412 12.5867 13.5 12.2967 13.5 12C13.5 11.6022 13.342 11.2206 13.0607 10.9393C12.7794 10.658 12.3978 10.5 12 10.5Z" />
</svg>
