<svg width="24" height="24" viewBox="0 0 24 24" xmlns="http://www.w3.org/2000/svg">
<path d="M16.5 4.99995C15.6195 4.99925 14.7554 5.23774 14 5.68995C13.4523 4.43274 12.4904 3.40109 11.2745 2.7668C10.0587 2.13252 8.66226 1.93387 7.31776 2.20394C5.97327 2.474 4.76186 3.19649 3.88526 4.25109C3.00866 5.30568 2.51977 6.62874 2.5 7.99995V11.9999C2.50144 13.4168 3.00425 14.7875 3.91939 15.8692C4.83452 16.9509 6.10294 17.6738 7.5 17.9099V20.9999C7.5 21.2652 7.60536 21.5195 7.79289 21.7071C7.98043 21.8946 8.23478 21.9999 8.5 21.9999C8.76522 21.9999 9.01957 21.8946 9.20711 21.7071C9.39464 21.5195 9.5 21.2652 9.5 20.9999V17.9099C10.5187 17.7332 11.4755 17.2995 12.28 16.6499C12.637 17.2229 13.1064 17.7177 13.6598 18.1044C14.2132 18.4911 14.8392 18.7617 15.5 18.8999V20.9999C15.5 21.2652 15.6054 21.5195 15.7929 21.7071C15.9804 21.8946 16.2348 21.9999 16.5 21.9999C16.7652 21.9999 17.0196 21.8946 17.2071 21.7071C17.3946 21.5195 17.5 21.2652 17.5 20.9999V18.8999C18.6294 18.6694 19.6444 18.0558 20.3733 17.1629C21.1022 16.2699 21.5002 15.1526 21.5 13.9999V9.99995C21.5 8.67387 20.9732 7.4021 20.0355 6.46442C19.0979 5.52673 17.8261 4.99995 16.5 4.99995ZM11.5 9.99995V13.9999C11.5096 14.1909 11.5296 14.3812 11.56 14.5699C11.0252 15.2069 10.3051 15.6613 9.5 15.8699V12.9999C9.5 12.7347 9.39464 12.4804 9.20711 12.2928C9.01957 12.1053 8.76522 11.9999 8.5 11.9999C8.23478 11.9999 7.98043 12.1053 7.79289 12.2928C7.60536 12.4804 7.5 12.7347 7.5 12.9999V15.8599C6.64353 15.6388 5.88451 15.14 5.34169 14.4416C4.79887 13.7432 4.50287 12.8845 4.5 11.9999V7.99995C4.49739 7.20751 4.73022 6.43216 5.16894 5.77225C5.60766 5.11234 6.2325 4.59761 6.9642 4.29335C7.69591 3.9891 8.5015 3.90904 9.27877 4.06333C10.056 4.21761 10.77 4.59929 11.33 5.15995C11.8714 5.70858 12.2399 6.40395 12.39 7.15995C11.8119 7.99433 11.5015 8.98489 11.5 9.99995ZM19.5 13.9999C19.4983 14.6189 19.3051 15.2221 18.9471 15.727C18.589 16.2319 18.0835 16.6136 17.5 16.8199V12.9999C17.5 12.7347 17.3946 12.4804 17.2071 12.2928C17.0196 12.1053 16.7652 11.9999 16.5 11.9999C16.2348 11.9999 15.9804 12.1053 15.7929 12.2928C15.6054 12.4804 15.5 12.7347 15.5 12.9999V16.8199C14.9165 16.6136 14.411 16.2319 14.0529 15.727C13.6949 15.2221 13.5017 14.6189 13.5 13.9999V9.99995C13.5 9.2043 13.8161 8.44124 14.3787 7.87863C14.9413 7.31602 15.7044 6.99995 16.5 6.99995C17.2956 6.99995 18.0587 7.31602 18.6213 7.87863C19.1839 8.44124 19.5 9.2043 19.5 9.99995V13.9999Z" />
</svg>
