<svg width="24" height="24" viewBox="0 0 24 24" xmlns="http://www.w3.org/2000/svg">
<path d="M16.93 4.10003C16.7676 4.02977 16.5895 4.00386 16.4138 4.02495C16.2381 4.04603 16.0712 4.11335 15.93 4.22003L11.15 8.00003H7.5C7.23478 8.00003 6.98043 8.10539 6.79289 8.29293C6.60536 8.48046 6.5 8.73482 6.5 9.00003V15C6.5 15.2652 6.60536 15.5196 6.79289 15.7071C6.98043 15.8947 7.23478 16 7.5 16H11.15L15.88 19.78C16.0559 19.9212 16.2744 19.9987 16.5 20C16.6494 20.0025 16.797 19.9682 16.93 19.9C17.1002 19.819 17.244 19.6915 17.3448 19.5323C17.4457 19.373 17.4995 19.1885 17.5 19V5.00003C17.4995 4.81155 17.4457 4.62705 17.3448 4.46781C17.244 4.30857 17.1002 4.18108 16.93 4.10003ZM15.5 16.92L12.12 14.22C11.9441 14.0789 11.7256 14.0013 11.5 14H8.5V10H11.5C11.7256 9.99872 11.9441 9.92119 12.12 9.78003L15.5 7.08003V16.92Z" />
</svg>
