<svg width="24" height="24" viewBox="0 0 24 24" xmlns="http://www.w3.org/2000/svg">
<path d="M18.0795 7.00004C17.9481 6.98911 17.8159 7.00427 17.6903 7.04465C17.5648 7.08504 17.4485 7.14985 17.3481 7.23535C17.2478 7.32086 17.1653 7.42538 17.1055 7.54288C17.0456 7.66039 17.0096 7.78857 16.9995 7.92004L16.6495 12.47C16.1871 12.3269 15.7723 12.0607 15.4495 11.7C15.3557 11.5936 15.2403 11.5084 15.111 11.45C14.9817 11.3917 14.8414 11.3615 14.6995 11.3615C14.5577 11.3615 14.4174 11.3917 14.2881 11.45C14.1588 11.5084 14.0434 11.5936 13.9495 11.7C13.7013 11.9698 13.3999 12.185 13.0643 12.3323C12.7286 12.4796 12.3661 12.5556 11.9995 12.5556C11.633 12.5556 11.2705 12.4796 10.9348 12.3323C10.5992 12.185 10.2977 11.9698 10.0495 11.7C9.9557 11.5936 9.84029 11.5084 9.71098 11.45C9.58167 11.3917 9.44141 11.3615 9.29954 11.3615C9.15766 11.3615 9.01741 11.3917 8.8881 11.45C8.75879 11.5084 8.64338 11.5936 8.54954 11.7C8.22576 12.0596 7.81131 12.3255 7.34954 12.47L6.99954 7.92004C6.98944 7.78857 6.95345 7.66039 6.89362 7.54288C6.83379 7.42538 6.75132 7.32086 6.65094 7.23535C6.55056 7.14985 6.43426 7.08504 6.30874 7.04465C6.18322 7.00427 6.05095 6.98911 5.91954 7.00004C5.78807 7.01014 5.65989 7.04613 5.54238 7.10596C5.42487 7.16579 5.32036 7.24826 5.23485 7.34864C5.14934 7.44902 5.08453 7.56532 5.04415 7.69084C5.00376 7.81636 4.9886 7.94864 4.99954 8.08004L5.85954 19.23C5.9176 19.9852 6.25912 20.6904 6.81556 21.2042C7.37201 21.718 8.10218 22.0023 8.85954 22H15.1595C15.9169 22.0023 16.6471 21.718 17.2035 21.2042C17.76 20.6904 18.1015 19.9852 18.1595 19.23L18.9995 8.08004C19.0105 7.94864 18.9953 7.81636 18.9549 7.69084C18.9145 7.56532 18.8497 7.44902 18.7642 7.34864C18.6787 7.24826 18.5742 7.16579 18.4567 7.10596C18.3392 7.04613 18.211 7.01014 18.0795 7.00004ZM16.1395 19.08C16.1194 19.3312 16.0052 19.5654 15.8198 19.736C15.6344 19.9065 15.3915 20.0008 15.1395 20H8.84954C8.59762 20.0008 8.35467 19.9065 8.16928 19.736C7.98388 19.5654 7.86969 19.3312 7.84954 19.08L7.49954 14.5C8.14788 14.3645 8.7609 14.0955 9.29954 13.71C10.0882 14.2707 11.0319 14.5719 11.9995 14.5719C12.9672 14.5719 13.9109 14.2707 14.6995 13.71C15.2382 14.0955 15.8512 14.3645 16.4995 14.5L16.1395 19.08ZM11.9995 10C12.8607 9.99741 13.6858 9.65415 14.2947 9.04523C14.9036 8.4363 15.2469 7.61118 15.2495 6.75004C15.2495 4.00004 12.6695 2.24004 12.5595 2.17004C12.3942 2.05827 12.1991 1.99854 11.9995 1.99854C11.7999 1.99854 11.6049 2.05827 11.4395 2.17004C11.3295 2.25004 8.74954 4.00004 8.74954 6.75004C8.75218 7.61118 9.09543 8.4363 9.70436 9.04523C10.3133 9.65415 11.1384 9.99741 11.9995 10ZM11.9995 4.30004C12.7232 4.91977 13.1725 5.80042 13.2495 6.75004C13.2495 7.08156 13.1178 7.39951 12.8834 7.63393C12.649 7.86835 12.3311 8.00004 11.9995 8.00004C11.668 8.00004 11.3501 7.86835 11.1157 7.63393C10.8812 7.39951 10.7495 7.08156 10.7495 6.75004C10.8318 5.80192 11.2802 4.92314 11.9995 4.30004Z" />
</svg>
