<svg width="24" height="24" viewBox="0 0 24 24" xmlns="http://www.w3.org/2000/svg">
<path d="M15.0005 1.99999C13.3635 2.00131 11.7787 2.57631 10.5218 3.625C9.26479 4.67369 8.41511 6.12974 8.12046 7.73999C7.25889 8.20481 6.52414 8.87338 5.9803 9.68739C5.43647 10.5014 5.10007 11.4361 5.00046 12.41C4.2562 12.7374 3.60301 13.2413 3.0975 13.8781C2.59199 14.515 2.24941 15.2655 2.09945 16.0646C1.94949 16.8637 1.99667 17.6874 2.23692 18.4641C2.47716 19.2409 2.90321 19.9474 3.47814 20.5223C4.05307 21.0972 4.75954 21.5233 5.53631 21.7635C6.31308 22.0038 7.13672 22.051 7.93585 21.901C8.73498 21.751 9.48548 21.4085 10.1223 20.9029C10.7591 20.3974 11.2631 19.7442 11.5905 19C12.5615 18.9035 13.4943 18.5717 14.308 18.0332C15.1218 17.4948 15.792 16.766 16.2605 15.91C18.0114 15.6291 19.5904 14.6942 20.6787 13.294C21.7669 11.8939 22.2831 10.1329 22.1232 8.36686C21.9632 6.60079 21.1389 4.96125 19.8168 3.77945C18.4947 2.59765 16.7733 1.96167 15.0005 1.99999ZM10.0005 17.43C10.0005 17.53 10.0005 17.63 9.93046 17.74C9.80129 18.2547 9.53791 18.7259 9.16718 19.1056C8.79646 19.4853 8.33165 19.7598 7.82019 19.9013C7.30872 20.0427 6.76889 20.0459 6.25577 19.9106C5.74265 19.7753 5.2746 19.5063 4.89937 19.1311C4.52413 18.7558 4.25515 18.2878 4.11984 17.7747C3.98454 17.2616 3.98776 16.7217 4.12918 16.2103C4.2706 15.6988 4.54516 15.234 4.92485 14.8633C5.30453 14.4925 5.77576 14.2292 6.29046 14.1L6.57046 14C7.04004 13.9122 7.52392 13.9402 7.98025 14.0816C8.43657 14.2229 8.85158 14.4733 9.18937 14.8111C9.52716 15.1489 9.77755 15.5639 9.91888 16.0202C10.0602 16.4765 10.0882 16.9604 10.0005 17.43ZM15.0005 13.76C14.9873 13.8242 14.9706 13.8876 14.9505 13.95C14.9075 14.134 14.8507 14.3145 14.7805 14.49C14.5502 15.0738 14.1859 15.5952 13.7168 16.0121C13.2478 16.4291 12.6872 16.7298 12.0805 16.89C12.0805 16.71 12.0805 16.54 12.0205 16.36C11.9605 16.18 12.0205 16.09 12.0205 15.96C12.0205 15.83 11.9005 15.58 11.8405 15.39C11.7805 15.2 11.7705 15.15 11.7205 15.03C11.6343 14.8395 11.534 14.6556 11.4205 14.48C11.4205 14.39 11.3305 14.29 11.2705 14.2C11.0926 13.9393 10.8918 13.695 10.6705 13.47L10.4705 13.3C10.3028 13.1459 10.1258 13.0023 9.94046 12.87C9.83151 12.7991 9.71792 12.7356 9.60046 12.68C9.4404 12.5782 9.27332 12.488 9.10046 12.41C8.9713 12.3547 8.83742 12.3112 8.70046 12.28C8.5321 12.2117 8.35811 12.1581 8.18046 12.12C8.04046 12.12 7.89046 12.12 7.74046 12.06L7.13046 12C7.28964 11.3943 7.58884 10.8344 8.00396 10.3654C8.41908 9.89644 8.93852 9.53151 9.52046 9.29999C9.69197 9.22836 9.86928 9.17149 10.0505 9.12999L10.2505 9.07999C10.4971 9.02812 10.7484 9.00131 11.0005 8.99999C12.0613 8.99999 13.0787 9.42142 13.8289 10.1716C14.579 10.9217 15.0005 11.9391 15.0005 13C14.9991 13.2554 14.9723 13.5099 14.9205 13.76H15.0005ZM17.0005 13.6C17.0005 13.4 17.0005 13.2 17.0005 13C17.0005 11.4087 16.3683 9.88257 15.2431 8.75735C14.1179 7.63213 12.5918 6.99999 11.0005 6.99999C10.8005 6.99999 10.6005 6.99999 10.4005 6.99999C10.7301 6.25854 11.2352 5.60845 11.8722 5.10584C12.5092 4.60323 13.259 4.2632 14.0568 4.11511C14.8546 3.96702 15.6764 4.01531 16.4514 4.25582C17.2263 4.49634 17.9311 4.92184 18.5048 5.4956C19.0786 6.06936 19.5041 6.77413 19.7446 7.54909C19.9851 8.32404 20.0334 9.14589 19.8853 9.94368C19.7372 10.7415 19.3972 11.4912 18.8946 12.1282C18.392 12.7652 17.7419 13.2704 17.0005 13.6Z" />
</svg>
