<svg width="24" height="24" viewBox="0 0 24 24" xmlns="http://www.w3.org/2000/svg">
<path d="M16 4H15.41L15.71 3.71C15.8032 3.61676 15.8772 3.50607 15.9277 3.38425C15.9781 3.26243 16.0041 3.13186 16.0041 3C16.0041 2.86814 15.9781 2.73758 15.9277 2.61575C15.8772 2.49393 15.8032 2.38324 15.71 2.29C15.6168 2.19676 15.5061 2.1228 15.3842 2.07234C15.2624 2.02188 15.1319 1.99591 15 1.99591C14.7337 1.99591 14.4783 2.1017 14.29 2.29L12.29 4.29C12.1963 4.38297 12.1219 4.49357 12.0711 4.61543C12.0203 4.73728 11.9942 4.86799 11.9942 5C11.9942 5.13201 12.0203 5.26272 12.0711 5.38458C12.1219 5.50644 12.1963 5.61704 12.29 5.71L14.29 7.71C14.383 7.80373 14.4936 7.87812 14.6154 7.92889C14.7373 7.97966 14.868 8.0058 15 8.0058C15.132 8.0058 15.2627 7.97966 15.3846 7.92889C15.5064 7.87812 15.617 7.80373 15.71 7.71C15.8037 7.61704 15.8781 7.50644 15.9289 7.38458C15.9797 7.26272 16.0058 7.13201 16.0058 7C16.0058 6.86799 15.9797 6.73728 15.9289 6.61543C15.8781 6.49357 15.8037 6.38297 15.71 6.29L15.41 6H16C16.7956 6 17.5587 6.31607 18.1213 6.87868C18.6839 7.44129 19 8.20435 19 9V11C19 11.2652 19.1054 11.5196 19.2929 11.7071C19.4804 11.8946 19.7348 12 20 12C20.2652 12 20.5196 11.8946 20.7071 11.7071C20.8946 11.5196 21 11.2652 21 11V9C21 7.67392 20.4732 6.40215 19.5355 5.46447C18.5979 4.52679 17.3261 4 16 4ZM16 18H15V11C15 10.7348 14.8946 10.4804 14.7071 10.2929C14.5196 10.1054 14.2652 10 14 10H7V9C7 8.73479 6.89464 8.48043 6.70711 8.2929C6.51957 8.10536 6.26522 8 6 8C5.73478 8 5.48043 8.10536 5.29289 8.2929C5.10536 8.48043 5 8.73479 5 9V10H4C3.73478 10 3.48043 10.1054 3.29289 10.2929C3.10536 10.4804 3 10.7348 3 11C3 11.2652 3.10536 11.5196 3.29289 11.7071C3.48043 11.8946 3.73478 12 4 12H5V19C5 19.2652 5.10536 19.5196 5.29289 19.7071C5.48043 19.8946 5.73478 20 6 20H13V21C13 21.2652 13.1054 21.5196 13.2929 21.7071C13.4804 21.8946 13.7348 22 14 22C14.2652 22 14.5196 21.8946 14.7071 21.7071C14.8946 21.5196 15 21.2652 15 21V20H16C16.2652 20 16.5196 19.8946 16.7071 19.7071C16.8946 19.5196 17 19.2652 17 19C17 18.7348 16.8946 18.4804 16.7071 18.2929C16.5196 18.1054 16.2652 18 16 18ZM13 18H7V12H13V18Z" />
</svg>
