<svg width="24" height="24" viewBox="0 0 24 24" xmlns="http://www.w3.org/2000/svg">
<path d="M9.54 7.54H8.54C8.27478 7.54 8.02043 7.64536 7.83289 7.83289C7.64536 8.02043 7.54 8.27478 7.54 8.54V9.54C7.54 9.80522 7.64536 10.0596 7.83289 10.2471C8.02043 10.4346 8.27478 10.54 8.54 10.54C8.80522 10.54 9.05957 10.4346 9.24711 10.2471C9.43464 10.0596 9.54 9.80522 9.54 9.54C9.80522 9.54 10.0596 9.43464 10.2471 9.24711C10.4346 9.05957 10.54 8.80522 10.54 8.54C10.54 8.27478 10.4346 8.02043 10.2471 7.83289C10.0596 7.64536 9.80522 7.54 9.54 7.54ZM15.46 13.46C15.1948 13.46 14.9404 13.5654 14.7529 13.7529C14.5654 13.9404 14.46 14.1948 14.46 14.46C14.1948 14.46 13.9404 14.5654 13.7529 14.7529C13.5654 14.9404 13.46 15.1948 13.46 15.46C13.46 15.7252 13.5654 15.9796 13.7529 16.1671C13.9404 16.3546 14.1948 16.46 14.46 16.46H15.46C15.5913 16.46 15.7214 16.4341 15.8427 16.3839C15.964 16.3336 16.0742 16.26 16.1671 16.1671C16.26 16.0742 16.3336 15.964 16.3839 15.8427C16.4341 15.7214 16.46 15.5913 16.46 15.46V14.46C16.46 14.1948 16.3546 13.9404 16.1671 13.7529C15.9796 13.5654 15.7252 13.46 15.46 13.46ZM21 7.54H16.46V3C16.46 2.73478 16.3546 2.48043 16.1671 2.29289C15.9796 2.10536 15.7252 2 15.46 2H3C2.73478 2 2.48043 2.10536 2.29289 2.29289C2.10536 2.48043 2 2.73478 2 3V15.46C2 15.7252 2.10536 15.9796 2.29289 16.1671C2.48043 16.3546 2.73478 16.46 3 16.46H7.54V21C7.54 21.2652 7.64536 21.5196 7.83289 21.7071C8.02043 21.8946 8.27478 22 8.54 22H21C21.2652 22 21.5196 21.8946 21.7071 21.7071C21.8946 21.5196 22 21.2652 22 21V8.54C22 8.27478 21.8946 8.02043 21.7071 7.83289C21.5196 7.64536 21.2652 7.54 21 7.54ZM20 20H9.54V16.46C9.80522 16.46 10.0596 16.3546 10.2471 16.1671C10.4346 15.9796 10.54 15.7252 10.54 15.46C10.54 15.1948 10.4346 14.9404 10.2471 14.7529C10.0596 14.5654 9.80522 14.46 9.54 14.46C9.54 14.1948 9.43464 13.9404 9.24711 13.7529C9.05957 13.5654 8.80522 13.46 8.54 13.46C8.27478 13.46 8.02043 13.5654 7.83289 13.7529C7.64536 13.9404 7.54 14.1948 7.54 14.46H4V4H14.46V7.54C14.1948 7.54 13.9404 7.64536 13.7529 7.83289C13.5654 8.02043 13.46 8.27478 13.46 8.54C13.46 8.80522 13.5654 9.05957 13.7529 9.24711C13.9404 9.43464 14.1948 9.54 14.46 9.54C14.46 9.80522 14.5654 10.0596 14.7529 10.2471C14.9404 10.4346 15.1948 10.54 15.46 10.54C15.7252 10.54 15.9796 10.4346 16.1671 10.2471C16.3546 10.0596 16.46 9.80522 16.46 9.54H20V20Z" />
</svg>
