<svg width="24" height="24" viewBox="0 0 24 24" xmlns="http://www.w3.org/2000/svg">
<path d="M13.2104 5.70003C13.2901 5.70966 13.3707 5.70966 13.4504 5.70003L15.3904 5.21003C15.6476 5.1462 15.8689 4.98292 16.0058 4.75606C16.1426 4.52919 16.1839 4.25728 16.1204 4.00003C16.0566 3.74287 15.8933 3.52156 15.6665 3.38469C15.4396 3.24782 15.1677 3.20658 14.9104 3.27003L13.0004 3.73003C12.7352 3.76185 12.4935 3.89773 12.3285 4.10777C12.1634 4.31781 12.0886 4.58481 12.1204 4.85003C12.1523 5.11524 12.2881 5.35696 12.4982 5.52199C12.7082 5.68702 12.9752 5.76185 13.2404 5.73003L13.2104 5.70003ZM9.51042 9.00003H7.51042C7.24521 9.00003 6.99085 9.10538 6.80332 9.29292C6.61578 9.48046 6.51042 9.73481 6.51042 10C6.51042 10.2652 6.61578 10.5196 6.80332 10.7071C6.99085 10.8947 7.24521 11 7.51042 11H9.51042C9.77564 11 10.03 10.8947 10.2175 10.7071C10.4051 10.5196 10.5104 10.2652 10.5104 10C10.5104 9.73481 10.4051 9.48046 10.2175 9.29292C10.03 9.10538 9.77564 9.00003 9.51042 9.00003ZM13.5104 9.00003C13.2452 9.00003 12.9909 9.10538 12.8033 9.29292C12.6158 9.48046 12.5104 9.73481 12.5104 10C12.5104 10.2652 12.6158 10.5196 12.8033 10.7071C12.9909 10.8947 13.2452 11 13.5104 11H15.5104C15.7756 11 16.03 10.8947 16.2175 10.7071C16.4051 10.5196 16.5104 10.2652 16.5104 10C16.5104 9.73481 16.4051 9.48046 16.2175 9.29292C16.03 9.10538 15.7756 9.00003 15.5104 9.00003H13.5104ZM7.39042 7.15003H7.63042L9.57042 6.67003C9.83166 6.60638 10.0569 6.44155 10.1966 6.21182C10.3363 5.98209 10.3791 5.70627 10.3154 5.44503C10.2518 5.18379 10.087 4.95854 9.85722 4.81882C9.62749 4.67911 9.35166 4.63638 9.09042 4.70003L7.15042 5.18003C6.88521 5.21185 6.6435 5.34773 6.47846 5.55777C6.31343 5.76781 6.2386 6.03481 6.27042 6.30003C6.30225 6.56524 6.43813 6.80696 6.64817 6.97199C6.85821 7.13702 7.12521 7.21185 7.39042 7.18003V7.15003ZM4.00042 10.51C4.26564 10.51 4.51999 10.4047 4.70753 10.2171C4.89507 10.0296 5.00042 9.77524 5.00042 9.51003V7.51003C5.00042 7.24481 4.89507 6.99046 4.70753 6.80292C4.51999 6.61538 4.26564 6.51003 4.00042 6.51003C3.73521 6.51003 3.48085 6.61538 3.29332 6.80292C3.10578 6.99046 3.00042 7.24481 3.00042 7.51003V9.51003C3.00042 9.77524 3.10578 10.0296 3.29332 10.2171C3.48085 10.4047 3.73521 10.51 4.00042 10.51ZM20.6204 2.21003C20.5028 2.11136 20.3641 2.0411 20.2149 2.00468C20.0658 1.96826 19.9103 1.96667 19.7604 2.00003L18.7604 2.24003C18.5033 2.30386 18.282 2.46713 18.1451 2.694C18.0082 2.92087 17.967 3.19278 18.0304 3.45003C18.0852 3.6719 18.2143 3.86833 18.3962 4.00661C18.5782 4.14489 18.802 4.21668 19.0304 4.21003C19.0887 4.4444 19.2297 4.64977 19.4276 4.78822C19.6255 4.92667 19.8668 4.98883 20.1069 4.96323C20.347 4.93764 20.5698 4.826 20.734 4.64896C20.8983 4.47191 20.9929 4.24141 21.0004 4.00003V3.00003C21.0012 2.84813 20.9674 2.69805 20.9016 2.56117C20.8358 2.42429 20.7396 2.3042 20.6204 2.21003ZM20.0004 7.00003C19.7352 7.00003 19.4809 7.10538 19.2933 7.29292C19.1058 7.48046 19.0004 7.73481 19.0004 8.00003V9.14003C18.812 9.25183 18.6655 9.42241 18.5835 9.62556C18.5014 9.8287 18.4884 10.0532 18.5463 10.2645C18.6042 10.4758 18.73 10.6622 18.9042 10.7951C19.0783 10.928 19.2913 11 19.5104 11H20.0004C20.2656 11 20.52 10.8947 20.7075 10.7071C20.8951 10.5196 21.0004 10.2652 21.0004 10V8.00003C21.0004 7.73481 20.8951 7.48046 20.7075 7.29292C20.52 7.10538 20.2656 7.00003 20.0004 7.00003ZM20.0004 13H4.00042C3.73521 13 3.48085 13.1054 3.29332 13.2929C3.10578 13.4805 3.00042 13.7348 3.00042 14V17C2.99377 17.2285 3.06556 17.4523 3.20384 17.6342C3.34212 17.8162 3.53855 17.9453 3.76042 18L19.7604 22C19.8401 22.0097 19.9207 22.0097 20.0004 22C20.2656 22 20.52 21.8947 20.7075 21.7071C20.8951 21.5196 21.0004 21.2652 21.0004 21V14C21.0004 13.7348 20.8951 13.4805 20.7075 13.2929C20.52 13.1054 20.2656 13 20.0004 13ZM19.0004 19.72L5.00042 16.22V15H19.0004V19.72Z" />
</svg>
