<svg width="24" height="24" viewBox="0 0 24 24" xmlns="http://www.w3.org/2000/svg">
<path d="M3.00009 8.10003C3.2653 8.10003 3.51966 7.99467 3.70719 7.80714C3.89473 7.6196 4.00009 7.36524 4.00009 7.10003V6.91003C4.00009 6.64481 3.89473 6.39046 3.70719 6.20292C3.51966 6.01539 3.2653 5.91003 3.00009 5.91003C2.73487 5.91003 2.48052 6.01539 2.29298 6.20292C2.10544 6.39046 2.00009 6.64481 2.00009 6.91003V7.10003C2.00009 7.36524 2.10544 7.6196 2.29298 7.80714C2.48052 7.99467 2.73487 8.10003 3.00009 8.10003ZM3.00009 4.10003C3.1457 4.09767 3.28904 4.06355 3.42009 4.00003C3.6853 3.95759 3.9228 3.81154 4.08033 3.594C4.23786 3.37646 4.30252 3.10524 4.26009 2.84003C4.21765 2.57481 4.0716 2.33731 3.85406 2.17978C3.63651 2.02225 3.3653 1.95759 3.10009 2.00003H3.00009C2.72514 2.02279 2.46905 2.14896 2.28347 2.3531C2.09788 2.55724 1.99662 2.82416 2.00009 3.10003C2.01293 3.35648 2.12392 3.59817 2.31009 3.77503C2.49625 3.95188 2.74331 4.05035 3.00009 4.05003V4.10003ZM20.3901 3.91003C20.5459 4.03241 20.7346 4.10575 20.9322 4.12072C21.1297 4.1357 21.3273 4.09165 21.4998 3.99415C21.6723 3.89665 21.8119 3.75011 21.901 3.57311C21.9901 3.39612 22.0246 3.19665 22.0001 3.00003C22.0001 2.73481 21.8947 2.48046 21.7072 2.29292C21.5197 2.10538 21.2653 2.00003 21.0001 2.00003H20.9001C20.681 2.00009 20.468 2.0721 20.2938 2.205C20.1196 2.33789 19.9939 2.52431 19.936 2.73559C19.878 2.94688 19.8911 3.17135 19.9731 3.3745C20.0552 3.57765 20.2017 3.74823 20.3901 3.86003V3.91003ZM11.8901 4.00003H12.1101C12.3753 4.00003 12.6297 3.89467 12.8172 3.70713C13.0047 3.5196 13.1101 3.26524 13.1101 3.00003C13.1101 2.73481 13.0047 2.48046 12.8172 2.29292C12.6297 2.10538 12.3753 2.00003 12.1101 2.00003H11.8901C11.6249 2.00003 11.3705 2.10538 11.183 2.29292C10.9954 2.48046 10.8901 2.73481 10.8901 3.00003C10.8901 3.26524 10.9954 3.5196 11.183 3.70713C11.3705 3.89467 11.6249 4.00003 11.8901 4.00003ZM7.39009 4.00003H7.60009C7.8653 4.00003 8.11966 3.89467 8.30719 3.70713C8.49473 3.5196 8.60009 3.26524 8.60009 3.00003C8.60009 2.73481 8.49473 2.48046 8.30719 2.29292C8.11966 2.10538 7.8653 2.00003 7.60009 2.00003H7.39009C7.12487 2.00003 6.87052 2.10538 6.68298 2.29292C6.49544 2.48046 6.39009 2.73481 6.39009 3.00003C6.39009 3.26524 6.49544 3.5196 6.68298 3.70713C6.87052 3.89467 7.12487 4.00003 7.39009 4.00003ZM21.0001 20C20.8545 20.0024 20.7111 20.0365 20.5801 20.1C20.3823 20.1928 20.2202 20.3477 20.1188 20.5412C20.0174 20.7347 19.9821 20.9561 20.0184 21.1716C20.0547 21.387 20.1605 21.5847 20.3197 21.7343C20.479 21.8839 20.6828 21.9772 20.9001 22H21.0001C21.275 21.9773 21.5311 21.8511 21.7167 21.647C21.9023 21.4428 22.0036 21.1759 22.0001 20.9C21.9752 20.6525 21.859 20.4231 21.6741 20.2567C21.4892 20.0903 21.2489 19.9988 21.0001 20ZM14.0001 11C14.0001 10.7348 13.8947 10.4805 13.7072 10.2929C13.5197 10.1054 13.2653 10 13.0001 10H3.27009C3.18044 9.98873 3.08973 9.98873 3.00009 10C2.73487 10 2.48052 10.1054 2.29298 10.2929C2.10544 10.4805 2.00009 10.7348 2.00009 11V21C2.00009 21.2652 2.10544 21.5196 2.29298 21.7071C2.48052 21.8947 2.73487 22 3.00009 22H13.1001C13.2673 21.9988 13.4316 21.9556 13.5779 21.8744C13.7241 21.7932 13.8477 21.6767 13.9372 21.5354C14.0268 21.3941 14.0794 21.2326 14.0904 21.0657C14.1014 20.8988 14.0703 20.7318 14.0001 20.58V11ZM12.0001 20H5.52009L9.43009 16.1C9.46079 16.0689 9.49737 16.0442 9.53772 16.0273C9.57806 16.0104 9.62135 16.0017 9.66509 16.0017C9.70882 16.0017 9.75211 16.0104 9.79246 16.0273C9.8328 16.0442 9.86938 16.0689 9.90009 16.1L12.0001 18.19V20ZM12.0001 15.37L11.3201 14.68C10.8799 14.2434 10.2851 13.9984 9.66509 13.9984C9.0451 13.9984 8.45024 14.2434 8.01009 14.68L4.01009 18.68V12H12.0101L12.0001 15.37ZM21.0001 15.37C20.7349 15.37 20.4805 15.4754 20.293 15.6629C20.1054 15.8505 20.0001 16.1048 20.0001 16.37V16.58C20.0001 16.8452 20.1054 17.0996 20.293 17.2871C20.4805 17.4747 20.7349 17.58 21.0001 17.58C21.2653 17.58 21.5197 17.4747 21.7072 17.2871C21.8947 17.0996 22.0001 16.8452 22.0001 16.58V16.4C22.0001 16.1348 21.8947 15.8805 21.7072 15.6929C21.5197 15.5054 21.2653 15.4 21.0001 15.4V15.37ZM21.0001 6.37003C20.7349 6.37003 20.4805 6.47539 20.293 6.66292C20.1054 6.85046 20.0001 7.10481 20.0001 7.37003V7.60003C20.0001 7.86524 20.1054 8.1196 20.293 8.30714C20.4805 8.49467 20.7349 8.60003 21.0001 8.60003C21.2653 8.60003 21.5197 8.49467 21.7072 8.30714C21.8947 8.1196 22.0001 7.86524 22.0001 7.60003V7.39003C22.0001 7.12481 21.8947 6.87046 21.7072 6.68292C21.5197 6.49539 21.2653 6.39003 21.0001 6.39003V6.37003ZM21.0001 10.87C20.7349 10.87 20.4805 10.9754 20.293 11.1629C20.1054 11.3505 20.0001 11.6048 20.0001 11.87V12.09C20.0001 12.3552 20.1054 12.6096 20.293 12.7971C20.4805 12.9847 20.7349 13.09 21.0001 13.09C21.2653 13.09 21.5197 12.9847 21.7072 12.7971C21.8947 12.6096 22.0001 12.3552 22.0001 12.09V11.87C21.9949 11.6083 21.8872 11.359 21.7002 11.1758C21.5132 10.9926 21.2619 10.89 21.0001 10.89V10.87ZM17.1001 20H16.9001C16.6349 20 16.3805 20.1054 16.193 20.2929C16.0054 20.4805 15.9001 20.7348 15.9001 21C15.9001 21.2652 16.0054 21.5196 16.193 21.7071C16.3805 21.8947 16.6349 22 16.9001 22H17.1001C17.3653 22 17.6197 21.8947 17.8072 21.7071C17.9947 21.5196 18.1001 21.2652 18.1001 21C18.1001 20.7348 17.9947 20.4805 17.8072 20.2929C17.6197 20.1054 17.3653 20 17.1001 20ZM16.6101 4.00003C16.8753 4.00003 17.1297 3.89467 17.3172 3.70713C17.5047 3.5196 17.6101 3.26524 17.6101 3.00003C17.6101 2.73481 17.5047 2.48046 17.3172 2.29292C17.1297 2.10538 16.8753 2.00003 16.6101 2.00003H16.4001C16.1349 2.00003 15.8805 2.10538 15.693 2.29292C15.5054 2.48046 15.4001 2.73481 15.4001 3.00003C15.4001 3.26524 15.5054 3.5196 15.693 3.70713C15.8805 3.89467 16.1349 4.00003 16.4001 4.00003H16.6101Z" />
</svg>
