<svg width="24" height="24" viewBox="0 0 24 24" xmlns="http://www.w3.org/2000/svg">
<path d="M13 11H2.00005C1.73483 11 1.48048 11.1054 1.29294 11.2929C1.10541 11.4805 1.00005 11.7348 1.00005 12V21C1.00005 21.2652 1.10541 21.5196 1.29294 21.7071C1.48048 21.8947 1.73483 22 2.00005 22H12.86C12.91 22 12.95 22 13 22C13.2653 22 13.5196 21.8947 13.7072 21.7071C13.8947 21.5196 14 21.2652 14 21V12C14 11.7348 13.8947 11.4805 13.7072 11.2929C13.5196 11.1054 13.2653 11 13 11ZM7.44005 20L9.37005 18.07C9.39742 18.0288 9.43456 17.9949 9.47819 17.9715C9.52181 17.9481 9.57054 17.9359 9.62005 17.9359C9.66956 17.9359 9.71829 17.9481 9.76191 17.9715C9.80553 17.9949 9.84268 18.0288 9.87005 18.07L11.79 20H7.44005ZM12 17.38L11.28 16.67C10.8316 16.2415 10.2353 16.0024 9.61505 16.0024C8.99482 16.0024 8.39846 16.2415 7.95005 16.67L4.61005 20H3.00005V13H12V17.38ZM2.00005 4.11003C2.17359 4.11 2.34414 4.06481 2.49493 3.97889C2.64571 3.89298 2.77154 3.76931 2.86005 3.62003C2.98721 3.43859 3.05372 3.22157 3.05005 3.00003C3.05022 2.86439 3.02279 2.73014 2.96944 2.60544C2.91609 2.48073 2.83793 2.36818 2.73971 2.27464C2.64149 2.1811 2.52526 2.10851 2.39811 2.06131C2.27095 2.0141 2.13552 1.99325 2.00005 2.00003C1.73483 2.00003 1.48048 2.10539 1.29294 2.29292C1.10541 2.48046 1.00005 2.73481 1.00005 3.00003V3.10003C0.998728 3.23219 1.02362 3.3633 1.07328 3.48579C1.12294 3.60827 1.19639 3.71969 1.28938 3.81361C1.38237 3.90753 1.49306 3.98209 1.61504 4.03296C1.73702 4.08384 1.86788 4.11004 2.00005 4.11003ZM9.91005 4.00003H10.1C10.3653 4.00003 10.6196 3.89467 10.8072 3.70714C10.9947 3.5196 11.1 3.26525 11.1 3.00003C11.1 2.73481 10.9947 2.48046 10.8072 2.29292C10.6196 2.10539 10.3653 2.00003 10.1 2.00003H9.91005C9.64483 2.00003 9.39048 2.10539 9.20294 2.29292C9.01541 2.48046 8.91005 2.73481 8.91005 3.00003C8.91005 3.26525 9.01541 3.5196 9.20294 3.70714C9.39048 3.89467 9.64483 4.00003 9.91005 4.00003ZM2.00005 8.78003C2.26527 8.78003 2.51962 8.67467 2.70716 8.48714C2.89469 8.2996 3.00005 8.04525 3.00005 7.78003V7.56003C3.00005 7.29481 2.89469 7.04046 2.70716 6.85292C2.51962 6.66539 2.26527 6.56003 2.00005 6.56003C1.73483 6.56003 1.48048 6.66539 1.29294 6.85292C1.10541 7.04046 1.00005 7.29481 1.00005 7.56003V7.78003C1.00005 8.04525 1.10541 8.2996 1.29294 8.48714C1.48048 8.67467 1.73483 8.78003 2.00005 8.78003ZM14.09 2.00003H13.9C13.6348 2.00003 13.3805 2.10539 13.1929 2.29292C13.0054 2.48046 12.9 2.73481 12.9 3.00003C12.9 3.26525 13.0054 3.5196 13.1929 3.70714C13.3805 3.89467 13.6348 4.00003 13.9 4.00003H14.09C14.3553 4.00003 14.6096 3.89467 14.7972 3.70714C14.9847 3.5196 15.09 3.26525 15.09 3.00003C15.09 2.73481 14.9847 2.48046 14.7972 2.29292C14.6096 2.10539 14.3553 2.00003 14.09 2.00003ZM5.91005 4.00003H6.10005C6.36527 4.00003 6.61962 3.89467 6.80716 3.70714C6.99469 3.5196 7.10005 3.26525 7.10005 3.00003C7.10005 2.73481 6.99469 2.48046 6.80716 2.29292C6.61962 2.10539 6.36527 2.00003 6.10005 2.00003H5.91005C5.64483 2.00003 5.39048 2.10539 5.20294 2.29292C5.01541 2.48046 4.91005 2.73481 4.91005 3.00003C4.91005 3.26525 5.01541 3.5196 5.20294 3.70714C5.39048 3.89467 5.64483 4.00003 5.91005 4.00003ZM22 6.40003C21.7348 6.40003 21.4805 6.50539 21.2929 6.69292C21.1054 6.88046 21 7.13481 21 7.40003V7.61003C21 7.87525 21.1054 8.1296 21.2929 8.31714C21.4805 8.50467 21.7348 8.61003 22 8.61003C22.2653 8.61003 22.5196 8.50467 22.7072 8.31714C22.8947 8.1296 23 7.87525 23 7.61003V7.40003C23 7.13481 22.8947 6.88046 22.7072 6.69292C22.5196 6.50539 22.2653 6.40003 22 6.40003ZM17.1201 20H16.88C16.6148 20 16.3605 20.1054 16.1729 20.2929C15.9854 20.4805 15.88 20.7348 15.88 21C15.88 21.2652 15.9854 21.5196 16.1729 21.7071C16.3605 21.8947 16.6148 22 16.88 22H17.1201C17.3853 22 17.6396 21.8947 17.8272 21.7071C18.0147 21.5196 18.1201 21.2652 18.1201 21C18.1201 20.7348 18.0147 20.4805 17.8272 20.2929C17.6396 20.1054 17.3853 20 17.1201 20ZM21.9 2.00003C21.6525 2.0249 21.4232 2.14114 21.2567 2.32605C21.0903 2.51096 20.9988 2.75126 21 3.00003C21.0024 3.14564 21.0365 3.28898 21.1 3.42003C21.1921 3.61758 21.3463 3.77963 21.5389 3.88152C21.7316 3.98341 21.9523 4.01955 22.1674 3.98445C22.3825 3.94936 22.5803 3.84494 22.7306 3.68709C22.8809 3.52924 22.9755 3.32661 23 3.11003V3.00003C22.9773 2.72508 22.8511 2.46899 22.647 2.28341C22.4428 2.09783 22.1759 1.99656 21.9 2.00003ZM22 10.9C21.7348 10.9 21.4805 11.0054 21.2929 11.1929C21.1054 11.3805 21 11.6348 21 11.9V12.12C21 12.3852 21.1054 12.6396 21.2929 12.8271C21.4805 13.0147 21.7348 13.12 22 13.12C22.2653 13.12 22.5196 13.0147 22.7072 12.8271C22.8947 12.6396 23 12.3852 23 12.12V11.9C23 11.6348 22.8947 11.3805 22.7072 11.1929C22.5196 11.0054 22.2653 10.9 22 10.9ZM18.09 2.00003H17.9C17.6348 2.00003 17.3805 2.10539 17.1929 2.29292C17.0054 2.48046 16.9 2.73481 16.9 3.00003C16.9 3.26525 17.0054 3.5196 17.1929 3.70714C17.3805 3.89467 17.6348 4.00003 17.9 4.00003H18.09C18.3553 4.00003 18.6096 3.89467 18.7972 3.70714C18.9847 3.5196 19.09 3.26525 19.09 3.00003C19.09 2.73481 18.9847 2.48046 18.7972 2.29292C18.6096 2.10539 18.3553 2.00003 18.09 2.00003ZM22 20C21.8466 19.9998 21.6954 20.0376 21.56 20.11C21.3933 20.1917 21.2525 20.3183 21.1536 20.4755C21.0547 20.6327 21.0015 20.8143 21 21C21 21.2652 21.1054 21.5196 21.2929 21.7071C21.4805 21.8947 21.7348 22 22 22C22.275 21.9773 22.5311 21.8511 22.7167 21.647C22.9023 21.4428 23.0035 21.1759 23 20.9C22.9752 20.6525 22.8589 20.4231 22.674 20.2567C22.4891 20.0903 22.2488 19.9988 22 20ZM22 15.44C21.7348 15.44 21.4805 15.5454 21.2929 15.7329C21.1054 15.9205 21 16.1748 21 16.44V16.66C21 16.9252 21.1054 17.1796 21.2929 17.3671C21.4805 17.5547 21.7348 17.66 22 17.66C22.2653 17.66 22.5196 17.5547 22.7072 17.3671C22.8947 17.1796 23 16.9252 23 16.66V16.4C23 16.1348 22.8947 15.8805 22.7072 15.6929C22.5196 15.5054 22.2653 15.4 22 15.4V15.44Z" />
</svg>
