<svg width="24" height="24" viewBox="0 0 24 24" xmlns="http://www.w3.org/2000/svg">
<path d="M12.7102 13.29C12.6151 13.199 12.5029 13.1276 12.3802 13.08C12.1367 12.98 11.8636 12.98 11.6202 13.08C11.4974 13.1276 11.3853 13.199 11.2902 13.29L8.79018 15.79C8.60188 15.9783 8.49609 16.2337 8.49609 16.5C8.49609 16.7663 8.60188 17.0217 8.79018 17.21C8.97849 17.3983 9.23388 17.5041 9.50019 17.5041C9.76649 17.5041 10.0219 17.3983 10.2102 17.21L11.0002 16.41V21C11.0002 21.2652 11.1055 21.5196 11.2931 21.7071C11.4806 21.8946 11.735 22 12.0002 22C12.2654 22 12.5198 21.8946 12.7073 21.7071C12.8948 21.5196 13.0002 21.2652 13.0002 21V16.41L13.7902 17.21C13.8831 17.3037 13.9937 17.3781 14.1156 17.4289C14.2375 17.4797 14.3682 17.5058 14.5002 17.5058C14.6322 17.5058 14.7629 17.4797 14.8848 17.4289C15.0066 17.3781 15.1172 17.3037 15.2102 17.21C15.3039 17.117 15.3783 17.0064 15.4291 16.8846C15.4798 16.7627 15.506 16.632 15.506 16.5C15.506 16.368 15.4798 16.2373 15.4291 16.1154C15.3783 15.9936 15.3039 15.883 15.2102 15.79L12.7102 13.29ZM11.2902 10.71C11.3853 10.801 11.4974 10.8724 11.6202 10.92C11.7399 10.9729 11.8693 11.0002 12.0002 11.0002C12.1311 11.0002 12.2605 10.9729 12.3802 10.92C12.5029 10.8724 12.6151 10.801 12.7102 10.71L15.2102 8.21C15.3034 8.11676 15.3774 8.00607 15.4278 7.88425C15.4783 7.76243 15.5043 7.63186 15.5043 7.5C15.5043 7.36814 15.4783 7.23757 15.4278 7.11575C15.3774 6.99393 15.3034 6.88324 15.2102 6.79C15.1169 6.69676 15.0063 6.6228 14.8844 6.57234C14.7626 6.52188 14.632 6.49591 14.5002 6.49591C14.3683 6.49591 14.2378 6.52188 14.1159 6.57234C13.9941 6.6228 13.8834 6.69676 13.7902 6.79L13.0002 7.59V3C13.0002 2.73478 12.8948 2.48043 12.7073 2.29289C12.5198 2.10536 12.2654 2 12.0002 2C11.735 2 11.4806 2.10536 11.2931 2.29289C11.1055 2.48043 11.0002 2.73478 11.0002 3V7.59L10.2102 6.79C10.1169 6.69676 10.0063 6.6228 9.88443 6.57234C9.76261 6.52188 9.63204 6.49591 9.50019 6.49591C9.23388 6.49591 8.97849 6.6017 8.79018 6.79C8.69695 6.88324 8.62299 6.99393 8.57253 7.11575C8.52206 7.23757 8.49609 7.36814 8.49609 7.5C8.49609 7.7663 8.60188 8.0217 8.79018 8.21L11.2902 10.71Z" />
</svg>
