<svg width="24" height="24" viewBox="0 0 24 24" xmlns="http://www.w3.org/2000/svg">
<path d="M7.60036 15.18C7.41206 14.9917 7.15666 14.8859 6.89036 14.8859C6.62406 14.8859 6.36867 14.9917 6.18036 15.18C5.99206 15.3683 5.88627 15.6237 5.88627 15.89C5.88627 16.1563 5.99206 16.4117 6.18036 16.6L7.24036 17.66C7.33333 17.7537 7.44393 17.8281 7.56579 17.8789C7.68765 17.9297 7.81835 17.9558 7.95036 17.9558C8.08237 17.9558 8.21308 17.9297 8.33494 17.8789C8.4568 17.8281 8.5674 17.7537 8.66036 17.66C8.75409 17.567 8.82849 17.4564 8.87925 17.3346C8.93002 17.2127 8.95616 17.082 8.95616 16.95C8.95616 16.818 8.93002 16.6873 8.87925 16.5654C8.82849 16.4436 8.75409 16.333 8.66036 16.24L7.60036 15.18ZM3.81036 9.78L2.75036 10.84C2.67208 10.9147 2.60774 11.0027 2.56036 11.1C2.41636 11.1695 2.29113 11.2726 2.19517 11.4005C2.09922 11.5284 2.03534 11.6775 2.00889 11.8352C1.98244 11.9929 1.9942 12.1546 2.04318 12.3068C2.09215 12.459 2.17692 12.5973 2.29036 12.71L3.35036 13.77C3.44333 13.8637 3.55393 13.9381 3.67579 13.9889C3.79765 14.0397 3.92835 14.0658 4.06036 14.0658C4.19237 14.0658 4.32308 14.0397 4.44494 13.9889C4.5668 13.9381 4.6774 13.8637 4.77036 13.77C4.86409 13.677 4.93849 13.5664 4.98925 13.4446C5.04002 13.3227 5.06616 13.192 5.06616 13.06C5.06616 12.928 5.04002 12.7973 4.98925 12.6754C4.93849 12.5536 4.86409 12.443 4.77036 12.35L4.41036 12L5.22036 11.19C5.38419 10.9987 5.46979 10.7526 5.46007 10.5009C5.45035 10.2493 5.34602 10.0105 5.16793 9.83244C4.98983 9.65434 4.75109 9.55001 4.49942 9.54029C4.24774 9.53057 4.00166 9.61617 3.81036 9.78ZM8.00036 10.57C7.73515 10.57 7.48079 10.6754 7.29326 10.8629C7.10572 11.0504 7.00036 11.3048 7.00036 11.57V13.07C7.00036 13.3352 7.10572 13.5896 7.29326 13.7771C7.48079 13.9646 7.73515 14.07 8.00036 14.07C8.26558 14.07 8.51993 13.9646 8.70747 13.7771C8.89501 13.5896 9.00036 13.3352 9.00036 13.07V11.57C9.00036 11.3048 8.89501 11.0504 8.70747 10.8629C8.51993 10.6754 8.26558 10.57 8.00036 10.57ZM21.7104 11.29L16.7104 6.29C16.5697 6.15124 16.3912 6.05725 16.1972 6.01987C16.0032 5.9825 15.8025 6.00342 15.6204 6.08C15.4377 6.15502 15.2814 6.28242 15.1711 6.44614C15.0608 6.60986 15.0013 6.80257 15.0004 7V17C15.0013 17.1974 15.0608 17.3901 15.1711 17.5539C15.2814 17.7176 15.4377 17.845 15.6204 17.92C15.739 17.976 15.8692 18.0034 16.0004 18C16.132 18.0008 16.2624 17.9755 16.3843 17.9258C16.5061 17.876 16.6169 17.8027 16.7104 17.71L21.7104 12.71C21.8041 12.617 21.8785 12.5064 21.9293 12.3846C21.98 12.2627 22.0062 12.132 22.0062 12C22.0062 11.868 21.98 11.7373 21.9293 11.6154C21.8785 11.4936 21.8041 11.383 21.7104 11.29ZM17.0004 14.59V9.41L19.5904 12L17.0004 14.59ZM12.0004 2C11.7351 2 11.4808 2.10536 11.2933 2.29289C11.1057 2.48043 11.0004 2.73478 11.0004 3V21C11.0004 21.2652 11.1057 21.5196 11.2933 21.7071C11.4808 21.8946 11.7351 22 12.0004 22C12.2656 22 12.5199 21.8946 12.7075 21.7071C12.895 21.5196 13.0004 21.2652 13.0004 21V3C13.0004 2.73478 12.895 2.48043 12.7075 2.29289C12.5199 2.10536 12.2656 2 12.0004 2ZM8.38036 6.08C8.19825 6.00342 7.99754 5.9825 7.80355 6.01987C7.60956 6.05725 7.43099 6.15124 7.29036 6.29L6.64036 7C6.45411 7.18736 6.34957 7.44081 6.34957 7.705C6.34957 7.96919 6.45411 8.22264 6.64036 8.41C6.82499 8.59841 7.07659 8.70624 7.34036 8.71C7.49691 8.70906 7.65104 8.67138 7.79036 8.6C7.9406 8.63249 8.0963 8.62991 8.24538 8.59246C8.39446 8.55502 8.5329 8.4837 8.64994 8.38407C8.76699 8.28444 8.85949 8.15916 8.92026 8.01798C8.98104 7.87679 9.00845 7.7235 9.00036 7.57V7C8.99938 6.80257 8.93998 6.60986 8.82964 6.44614C8.71931 6.28242 8.56298 6.15502 8.38036 6.08Z" />
</svg>
