<svg width="24" height="24" viewBox="0 0 24 24" xmlns="http://www.w3.org/2000/svg">
<path d="M19.4698 10.5401C18.9959 9.48581 18.2276 8.59088 17.2572 7.96288C16.2868 7.33488 15.1557 7.00054 13.9998 7.00006C13.5309 7.00384 13.0642 7.06428 12.6098 7.18006C12.0406 6.3766 11.2468 5.75909 10.3281 5.40498C9.40931 5.05086 8.40644 4.9759 7.44523 5.1895C6.48403 5.4031 5.6073 5.89575 4.92498 6.60566C4.24266 7.31558 3.78514 8.21115 3.6098 9.18006C2.95554 9.4156 2.40342 9.87111 2.04785 10.4687C1.69228 11.0663 1.55534 11.7688 1.66046 12.4562C1.76557 13.1436 2.10621 13.7731 2.62412 14.2371C3.14203 14.7011 3.80505 14.9708 4.4998 15.0001H5.4998C5.48938 15.1666 5.48938 15.3336 5.4998 15.5001C5.4998 16.4283 5.86855 17.3186 6.52493 17.9749C7.18131 18.6313 8.07155 19.0001 8.9998 19.0001H18.1698C19.2041 18.9999 20.2041 18.6295 20.989 17.9559C21.7739 17.2823 22.2917 16.35 22.4488 15.3277C22.6059 14.3054 22.3919 13.2607 21.8454 12.3825C21.299 11.5043 20.4563 10.8508 19.4698 10.5401ZM4.4998 13.0001C4.23459 13.0001 3.98023 12.8947 3.7927 12.7072C3.60516 12.5196 3.4998 12.2653 3.4998 12.0001C3.4998 11.7348 3.60516 11.4805 3.7927 11.293C3.98023 11.1054 4.23459 11.0001 4.4998 11.0001C4.76502 11.0001 5.01937 10.8947 5.20691 10.7072C5.39445 10.5196 5.4998 10.2653 5.4998 10.0001C5.4998 9.20441 5.81587 8.44135 6.37848 7.87874C6.94109 7.31613 7.70415 7.00006 8.4998 7.00006C8.91918 7.00231 9.33343 7.09247 9.71581 7.26471C10.0982 7.43696 10.4402 7.68746 10.7198 8.00006C10.0101 8.46181 9.40621 9.06854 8.94776 9.78035C8.4893 10.4922 8.18669 11.2929 8.0598 12.1301C7.49457 12.2892 6.97865 12.5885 6.5598 13.0001H4.4998ZM18.1698 17.0001H8.9998C8.60198 17.0001 8.22045 16.842 7.93914 16.5607C7.65784 16.2794 7.4998 15.8979 7.4998 15.5001C7.4998 15.1022 7.65784 14.7207 7.93914 14.4394C8.22045 14.1581 8.60198 14.0001 8.9998 14.0001C9.26502 14.0001 9.51937 13.8947 9.70691 13.7072C9.89445 13.5196 9.9998 13.2653 9.9998 13.0001C10.0041 12.0558 10.3423 11.1434 10.9546 10.4245C11.567 9.70564 12.4139 9.22657 13.3455 9.0721C14.2771 8.91763 15.2333 9.09773 16.0448 9.58053C16.8564 10.0633 17.471 10.8177 17.7798 11.7101C17.837 11.8819 17.9397 12.035 18.0771 12.153C18.2145 12.271 18.3813 12.3495 18.5598 12.3801C19.1274 12.4862 19.6354 12.7993 19.9852 13.2587C20.3351 13.718 20.5019 14.291 20.4533 14.8664C20.4048 15.4418 20.1443 15.9786 19.7223 16.3728C19.3004 16.7671 18.7472 16.9906 18.1698 17.0001Z" />
</svg>
