<svg width="24" height="24" viewBox="0 0 24 24" xmlns="http://www.w3.org/2000/svg">
<path d="M18.4196 9.21003C17.808 7.80584 16.7526 6.64103 15.4154 5.89419C14.0782 5.14735 12.5329 4.8597 11.0165 5.07536C9.50015 5.29101 8.09635 5.99806 7.02036 7.08809C5.94438 8.17813 5.25561 9.59098 5.05965 11.11C4.10623 11.3384 3.26987 11.9089 2.70938 12.7132C2.1489 13.5176 1.90333 14.4998 2.01931 15.4732C2.13529 16.4467 2.60474 17.3437 3.33851 17.9939C4.07229 18.6441 5.01928 19.0021 5.99965 19H16.9996C18.199 18.9967 19.3572 18.5624 20.263 17.7763C21.1689 16.9902 21.7619 15.9047 21.9341 14.7178C22.1063 13.5308 21.846 12.3216 21.2009 11.3105C20.5557 10.2994 19.5686 9.55396 18.4196 9.21003ZM16.9996 17H5.99965C5.46921 17 4.96051 16.7893 4.58543 16.4142C4.21036 16.0392 3.99965 15.5305 3.99965 15C3.99965 14.4696 4.21036 13.9609 4.58543 13.5858C4.96051 13.2107 5.46921 13 5.99965 13C6.26486 13 6.51922 12.8947 6.70675 12.7071C6.89429 12.5196 6.99965 12.2652 6.99965 12C7.0022 10.8173 7.42393 9.67379 8.18992 8.77262C8.9559 7.87145 10.0165 7.27098 11.1834 7.07791C12.3503 6.88483 13.5478 7.11164 14.5632 7.71804C15.5787 8.32444 16.3463 9.27117 16.7296 10.39C16.7883 10.56 16.8917 10.711 17.029 10.8272C17.1663 10.9433 17.3323 11.0203 17.5096 11.05C18.2426 11.1853 18.899 11.5886 19.351 12.1813C19.8029 12.774 20.018 13.5138 19.9543 14.2564C19.8907 14.9991 19.5528 15.6914 19.0066 16.1986C18.4604 16.7058 17.745 16.9915 16.9996 17Z" />
</svg>
