<svg width="24" height="24" viewBox="0 0 24 24" xmlns="http://www.w3.org/2000/svg">
<path d="M21.6999 9.07009C21.5794 8.95176 21.4309 8.86586 21.2683 8.8204C21.1057 8.77493 20.9342 8.77139 20.7699 8.81009C20.5533 8.86012 20.3321 8.88693 20.1099 8.89009C19.3142 8.89009 18.5512 8.57402 17.9885 8.01141C17.4259 7.4488 17.1099 6.68574 17.1099 5.89009C17.113 5.66788 17.1398 5.44663 17.1899 5.23009C17.2286 5.06573 17.225 4.89425 17.1796 4.73163C17.1341 4.56901 17.0482 4.42055 16.9299 4.30009C16.8135 4.17471 16.6668 4.08129 16.504 4.02876C16.3412 3.97624 16.1676 3.96636 15.9999 4.00009C15.0046 4.21983 14.1019 4.74265 13.416 5.49659C12.7301 6.25053 12.2948 7.19852 12.1699 8.21009C11.6252 8.06499 11.0635 7.99435 10.4999 8.00009C9.05872 7.99927 7.66543 8.51719 6.57474 9.45915C5.48404 10.4011 4.76883 11.7042 4.55986 13.1301C3.74606 13.3583 3.04232 13.8733 2.57863 14.5799C2.11494 15.2866 1.92262 16.1372 2.0372 16.9746C2.15178 17.812 2.56551 18.5796 3.20198 19.1357C3.83845 19.6919 4.65466 19.9989 5.49986 20.0001H14.6699C15.8183 20.0001 16.9196 19.5439 17.7316 18.7319C18.5437 17.9198 18.9999 16.8185 18.9999 15.6701C19.0038 14.9732 18.8354 14.2862 18.5099 13.6701C19.3686 13.4303 20.1465 12.9625 20.7609 12.3164C21.3754 11.6702 21.8035 10.8698 21.9999 10.0001C22.0336 9.83236 22.0237 9.65878 21.9712 9.49595C21.9187 9.33313 21.8253 9.1865 21.6999 9.07009ZM14.6999 18.0001H5.49986C5.10204 18.0001 4.72051 17.8421 4.4392 17.5608C4.1579 17.2794 3.99986 16.8979 3.99986 16.5001C3.99986 16.1023 4.1579 15.7207 4.4392 15.4394C4.72051 15.1581 5.10204 15.0001 5.49986 15.0001C5.76508 15.0001 6.01943 14.8947 6.20697 14.7072C6.39451 14.5197 6.49986 14.2653 6.49986 14.0001C6.50233 13.2812 6.69849 12.5763 7.06772 11.9594C7.43694 11.3426 7.96557 10.8367 8.59801 10.4949C9.23045 10.1531 9.94332 9.98802 10.6616 10.0171C11.3799 10.0462 12.0771 10.2683 12.6799 10.6601C13.4098 11.1349 13.9619 11.8382 14.2499 12.6601C14.307 12.8319 14.4098 12.985 14.5472 13.103C14.6845 13.221 14.8514 13.2995 15.0299 13.3301C15.3365 13.3537 15.6355 13.4375 15.9097 13.5767C16.184 13.7159 16.4281 13.9077 16.6282 14.1413C16.8283 14.3748 16.9805 14.6455 17.076 14.9378C17.1715 15.2302 17.2085 15.5385 17.1849 15.8451C17.1612 16.1517 17.0774 16.4507 16.9382 16.725C16.7991 16.9992 16.6072 17.2434 16.3737 17.4435C16.1401 17.6436 15.8695 17.7957 15.5771 17.8912C15.2848 17.9867 14.9765 18.0237 14.6699 18.0001H14.6999ZM17.1399 11.8901C17.0001 11.9014 16.8596 11.9014 16.7199 11.8901C16.4891 11.7665 16.2482 11.6628 15.9999 11.5801C15.5879 10.6832 14.9631 9.90055 14.1799 9.30009C14.1799 9.18009 14.1799 9.05009 14.1799 8.93009C14.1798 8.49677 14.2737 8.06859 14.4549 7.675C14.6362 7.2814 14.9006 6.93175 15.2299 6.65009C15.3847 7.71695 15.8802 8.70519 16.6425 9.46747C17.4048 10.2298 18.393 10.7253 19.4599 10.8801C19.1668 11.2112 18.8042 11.4735 18.3979 11.6481C17.9916 11.8227 17.5518 11.9053 17.1099 11.8901H17.1399Z" />
</svg>
