<svg width="24" height="24" viewBox="0 0 24 24" xmlns="http://www.w3.org/2000/svg">
<path d="M17 15C16.6982 14.9997 16.4017 14.9204 16.14 14.77C15.6487 14.4664 15.0826 14.3056 14.505 14.3056C13.9275 14.3056 13.3613 14.4664 12.87 14.77C12.607 14.9219 12.3087 15.0018 12.005 15.0018C11.7013 15.0018 11.403 14.9219 11.14 14.77C10.6487 14.4664 10.0826 14.3056 9.50502 14.3056C8.92747 14.3056 8.36132 14.4664 7.87002 14.77C7.60521 14.9217 7.30517 15.001 7.00002 15C6.7348 15 6.48045 15.1054 6.29291 15.2929C6.10538 15.4805 6.00002 15.7348 6.00002 16C6.00002 16.2653 6.10538 16.5196 6.29291 16.7071C6.48045 16.8947 6.7348 17 7.00002 17C7.66857 17.0006 8.32492 16.8209 8.90002 16.48C9.07986 16.3673 9.28779 16.3076 9.50002 16.3076C9.71225 16.3076 9.92018 16.3673 10.1 16.48C10.676 16.8185 11.3319 16.997 12 16.997C12.6681 16.997 13.324 16.8185 13.9 16.48C14.0799 16.3673 14.2878 16.3076 14.5 16.3076C14.7122 16.3076 14.9202 16.3673 15.1 16.48C15.6751 16.8209 16.3315 17.0006 17 17C17.2652 17 17.5196 16.8947 17.7071 16.7071C17.8947 16.5196 18 16.2653 18 16C18 15.7348 17.8947 15.4805 17.7071 15.2929C17.5196 15.1054 17.2652 15 17 15ZM17 19C16.6982 18.9997 16.4017 18.9204 16.14 18.77C15.6487 18.4664 15.0826 18.3056 14.505 18.3056C13.9275 18.3056 13.3613 18.4664 12.87 18.77C12.607 18.9219 12.3087 19.0018 12.005 19.0018C11.7013 19.0018 11.403 18.9219 11.14 18.77C10.6487 18.4664 10.0826 18.3056 9.50502 18.3056C8.92747 18.3056 8.36132 18.4664 7.87002 18.77C7.60521 18.9217 7.30517 19.001 7.00002 19C6.7348 19 6.48045 19.1054 6.29291 19.2929C6.10538 19.4805 6.00002 19.7348 6.00002 20C6.00002 20.2652 6.10538 20.5196 6.29291 20.7071C6.48045 20.8947 6.7348 21 7.00002 21C7.66857 21.0006 8.32492 20.8209 8.90002 20.48C9.07986 20.3673 9.28779 20.3076 9.50002 20.3076C9.71225 20.3076 9.92018 20.3673 10.1 20.48C10.676 20.8185 11.3319 20.997 12 20.997C12.6681 20.997 13.324 20.8185 13.9 20.48C14.0799 20.3673 14.2878 20.3076 14.5 20.3076C14.7122 20.3076 14.9202 20.3673 15.1 20.48C15.6751 20.8209 16.3315 21.0006 17 21C17.2652 21 17.5196 20.8947 17.7071 20.7071C17.8947 20.5196 18 20.2652 18 20C18 19.7348 17.8947 19.4805 17.7071 19.2929C17.5196 19.1054 17.2652 19 17 19ZM18.42 7.21003C17.8083 5.80584 16.753 4.64103 15.4158 3.89419C14.0785 3.14735 12.5333 2.8597 11.0169 3.07536C9.50052 3.29101 8.09672 3.99806 7.02074 5.08809C5.94475 6.17813 5.25598 7.59098 5.06002 9.11003C4.18743 9.321 3.41118 9.81936 2.85615 10.5249C2.30111 11.2305 1.99957 12.1023 2.00002 13C1.99823 13.5665 2.11677 14.1268 2.34777 14.644C2.57878 15.1611 2.91699 15.6234 3.34002 16C3.52232 16.1608 3.75695 16.2497 4.00002 16.25C4.14277 16.2486 4.28356 16.2166 4.41293 16.1563C4.54229 16.0959 4.65723 16.0085 4.75002 15.9C4.92482 15.701 5.01352 15.4408 4.99665 15.1764C4.97977 14.9121 4.85871 14.6652 4.66002 14.49C4.448 14.3048 4.27906 14.0755 4.16504 13.8181C4.05103 13.5607 3.99471 13.2815 4.00002 13C4.00002 12.4696 4.21073 11.9609 4.58581 11.5858C4.96088 11.2107 5.46959 11 6.00002 11C6.26524 11 6.51959 10.8947 6.70713 10.7071C6.89466 10.5196 7.00002 10.2652 7.00002 10C7.00257 8.81731 7.42431 7.67379 8.19029 6.77262C8.95627 5.87145 10.0169 5.27098 11.1838 5.07791C12.3506 4.88483 13.5482 5.11164 14.5636 5.71804C15.579 6.32444 16.3466 7.27117 16.73 8.39003C16.7887 8.56001 16.8921 8.71102 17.0294 8.82717C17.1666 8.94332 17.3327 9.02031 17.51 9.05003C18.2059 9.17007 18.8371 9.53172 19.2925 10.0713C19.748 10.6109 19.9985 11.2939 20 12C20.0133 12.736 19.7491 13.45 19.26 14C19.1565 14.0941 19.0739 14.2088 19.0175 14.3367C18.9611 14.4647 18.9322 14.603 18.9326 14.7429C18.933 14.8827 18.9627 15.0209 19.0198 15.1485C19.0769 15.2762 19.1602 15.3904 19.2642 15.4839C19.3682 15.5773 19.4906 15.6479 19.6236 15.6911C19.7566 15.7343 19.8972 15.7492 20.0363 15.7347C20.1753 15.7202 20.3098 15.6767 20.431 15.607C20.5523 15.5373 20.6575 15.4429 20.74 15.33C21.5618 14.4168 22.0114 13.2286 22 12C21.9991 10.9225 21.6501 9.87399 21.005 9.01085C20.3599 8.1477 19.4532 7.51607 18.42 7.21003Z" />
</svg>
