<svg width="24" height="24" viewBox="0 0 24 24" xmlns="http://www.w3.org/2000/svg">
<path d="M8.00002 12.9999C7.7348 12.9999 7.48045 13.1053 7.29291 13.2928C7.10538 13.4803 7.00002 13.7347 7.00002 13.9999V18.9999C7.00002 19.2651 7.10538 19.5195 7.29291 19.707C7.48045 19.8945 7.7348 19.9999 8.00002 19.9999C8.26524 19.9999 8.51959 19.8945 8.70713 19.707C8.89466 19.5195 9.00002 19.2651 9.00002 18.9999V13.9999C9.00002 13.7347 8.89466 13.4803 8.70713 13.2928C8.51959 13.1053 8.26524 12.9999 8.00002 12.9999ZM12 10.9999C11.7348 10.9999 11.4804 11.1053 11.2929 11.2928C11.1054 11.4803 11 11.7347 11 11.9999V20.9999C11 21.2651 11.1054 21.5195 11.2929 21.707C11.4804 21.8945 11.7348 21.9999 12 21.9999C12.2652 21.9999 12.5196 21.8945 12.7071 21.707C12.8947 21.5195 13 21.2651 13 20.9999V11.9999C13 11.7347 12.8947 11.4803 12.7071 11.2928C12.5196 11.1053 12.2652 10.9999 12 10.9999ZM18.42 6.21989C17.809 4.8159 16.7545 3.65097 15.4181 2.90362C14.0817 2.15627 12.5371 1.86773 11.021 2.0822C9.50489 2.29668 8.10095 3.00235 7.02427 4.09107C5.9476 5.17979 5.25761 6.59151 5.06002 8.10989C4.18743 8.32086 3.41118 8.81922 2.85615 9.52481C2.30111 10.2304 1.99957 11.1022 2.00002 11.9999C1.99823 12.5663 2.11677 13.1267 2.34777 13.6438C2.57878 14.161 2.91699 14.6232 3.34002 14.9999C3.43738 15.0934 3.55266 15.1662 3.67892 15.214C3.80518 15.2618 3.9398 15.2835 4.07467 15.2778C4.20955 15.2722 4.34188 15.2392 4.46369 15.1811C4.5855 15.1229 4.69428 15.0407 4.78346 14.9393C4.87264 14.838 4.94037 14.7196 4.98259 14.5914C5.0248 14.4632 5.04062 14.3277 5.02909 14.1933C5.01755 14.0588 4.97891 13.928 4.91548 13.8088C4.85205 13.6897 4.76515 13.5846 4.66002 13.4999C4.45032 13.3107 4.28309 13.0791 4.16933 12.8206C4.05557 12.5621 3.99787 12.2823 4.00002 11.9999C4.00002 11.4695 4.21073 10.9608 4.58581 10.5857C4.96088 10.2106 5.46959 9.99989 6.00002 9.99989C6.26524 9.99989 6.51959 9.89454 6.70713 9.707C6.89466 9.51946 7.00002 9.26511 7.00002 8.99989C7.00257 7.81717 7.42431 6.67365 8.19029 5.77248C8.95627 4.87131 10.0169 4.27085 11.1838 4.07777C12.3506 3.88469 13.5482 4.1115 14.5636 4.7179C15.579 5.32431 16.3466 6.27103 16.73 7.38989C16.7872 7.56173 16.8899 7.71483 17.0273 7.83283C17.1647 7.95083 17.3315 8.02931 17.51 8.0599C18.2042 8.17964 18.8341 8.53983 19.2893 9.07736C19.7446 9.61489 19.9962 10.2955 20 10.9999C20.0153 11.7362 19.7509 12.4509 19.26 12.9999C19.1004 13.1987 19.0227 13.451 19.0429 13.7052C19.063 13.9593 19.1795 14.1962 19.3686 14.3673C19.5576 14.5385 19.8048 14.6309 20.0597 14.6258C20.3147 14.6207 20.558 14.5185 20.74 14.3399C21.2908 13.7105 21.6749 12.9529 21.8572 12.1366C22.0394 11.3203 22.0139 10.4713 21.7831 9.66733C21.5523 8.8634 21.1234 8.13022 20.5359 7.53493C19.9483 6.93963 19.2209 6.50124 18.42 6.25989V6.21989ZM16 12.9999C15.7348 12.9999 15.4804 13.1053 15.2929 13.2928C15.1054 13.4803 15 13.7347 15 13.9999V18.9999C15 19.2651 15.1054 19.5195 15.2929 19.707C15.4804 19.8945 15.7348 19.9999 16 19.9999C16.2652 19.9999 16.5196 19.8945 16.7071 19.707C16.8947 19.5195 17 19.2651 17 18.9999V13.9999C17 13.7347 16.8947 13.4803 16.7071 13.2928C16.5196 13.1053 16.2652 12.9999 16 12.9999Z" />
</svg>
