<svg width="24" height="24" viewBox="0 0 24 24" xmlns="http://www.w3.org/2000/svg">
<path d="M12 18.9999C11.7348 18.9999 11.4804 19.1053 11.2929 19.2928C11.1054 19.4803 11 19.7347 11 19.9999V20.9999C11 21.2651 11.1054 21.5195 11.2929 21.707C11.4804 21.8945 11.7348 21.9999 12 21.9999C12.2652 21.9999 12.5196 21.8945 12.7071 21.707C12.8947 21.5195 13 21.2651 13 20.9999V19.9999C13 19.7347 12.8947 19.4803 12.7071 19.2928C12.5196 19.1053 12.2652 18.9999 12 18.9999ZM8.00002 10.9999C7.7348 10.9999 7.48045 11.1053 7.29291 11.2928C7.10538 11.4803 7.00002 11.7347 7.00002 11.9999V12.9999C7.00002 13.2651 7.10538 13.5195 7.29291 13.707C7.48045 13.8945 7.7348 13.9999 8.00002 13.9999C8.26524 13.9999 8.51959 13.8945 8.70713 13.707C8.89466 13.5195 9.00002 13.2651 9.00002 12.9999V11.9999C9.00002 11.7347 8.89466 11.4803 8.70713 11.2928C8.51959 11.1053 8.26524 10.9999 8.00002 10.9999ZM8.00002 15.9999C7.7348 15.9999 7.48045 16.1053 7.29291 16.2928C7.10538 16.4803 7.00002 16.7347 7.00002 16.9999V17.9999C7.00002 18.2651 7.10538 18.5195 7.29291 18.707C7.48045 18.8945 7.7348 18.9999 8.00002 18.9999C8.26524 18.9999 8.51959 18.8945 8.70713 18.707C8.89466 18.5195 9.00002 18.2651 9.00002 17.9999V16.9999C9.00002 16.7347 8.89466 16.4803 8.70713 16.2928C8.51959 16.1053 8.26524 15.9999 8.00002 15.9999ZM12 13.9999C11.7348 13.9999 11.4804 14.1053 11.2929 14.2928C11.1054 14.4803 11 14.7347 11 14.9999V15.9999C11 16.2651 11.1054 16.5195 11.2929 16.707C11.4804 16.8945 11.7348 16.9999 12 16.9999C12.2652 16.9999 12.5196 16.8945 12.7071 16.707C12.8947 16.5195 13 16.2651 13 15.9999V14.9999C13 14.7347 12.8947 14.4803 12.7071 14.2928C12.5196 14.1053 12.2652 13.9999 12 13.9999ZM18.42 6.21989C17.809 4.8159 16.7545 3.65097 15.4181 2.90362C14.0817 2.15627 12.5371 1.86773 11.021 2.0822C9.50489 2.29668 8.10095 3.00235 7.02427 4.09107C5.9476 5.17979 5.25761 6.59151 5.06002 8.10989C4.18743 8.32086 3.41118 8.81922 2.85615 9.52481C2.30111 10.2304 1.99957 11.1022 2.00002 11.9999C1.99823 12.5663 2.11677 13.1267 2.34777 13.6438C2.57878 14.161 2.91699 14.6232 3.34002 14.9999C3.43738 15.0934 3.55266 15.1662 3.67892 15.214C3.80518 15.2618 3.9398 15.2835 4.07467 15.2778C4.20955 15.2722 4.34188 15.2392 4.46369 15.1811C4.5855 15.1229 4.69428 15.0407 4.78346 14.9393C4.87264 14.838 4.94037 14.7196 4.98259 14.5914C5.0248 14.4632 5.04062 14.3277 5.02909 14.1933C5.01755 14.0588 4.97891 13.928 4.91548 13.8088C4.85205 13.6897 4.76515 13.5846 4.66002 13.4999C4.45032 13.3107 4.28309 13.0791 4.16933 12.8206C4.05557 12.5621 3.99787 12.2823 4.00002 11.9999C4.00002 11.4695 4.21073 10.9608 4.58581 10.5857C4.96088 10.2106 5.46959 9.99989 6.00002 9.99989C6.26524 9.99989 6.51959 9.89454 6.70713 9.707C6.89466 9.51946 7.00002 9.26511 7.00002 8.99989C7.00257 7.81717 7.42431 6.67365 8.19029 5.77248C8.95627 4.87131 10.0169 4.27085 11.1838 4.07777C12.3506 3.88469 13.5482 4.1115 14.5636 4.7179C15.579 5.32431 16.3466 6.27103 16.73 7.38989C16.7872 7.56173 16.8899 7.71483 17.0273 7.83283C17.1647 7.95083 17.3315 8.02931 17.51 8.0599C18.2042 8.17964 18.8341 8.53983 19.2893 9.07736C19.7446 9.61489 19.9962 10.2955 20 10.9999C20.0153 11.7362 19.7509 12.4509 19.26 12.9999C19.1004 13.1987 19.0227 13.451 19.0429 13.7052C19.063 13.9593 19.1795 14.1962 19.3686 14.3673C19.5576 14.5385 19.8048 14.6309 20.0597 14.6258C20.3147 14.6207 20.558 14.5185 20.74 14.3399C21.2908 13.7105 21.6749 12.9529 21.8572 12.1366C22.0394 11.3203 22.0139 10.4713 21.7831 9.66733C21.5523 8.8634 21.1234 8.13022 20.5359 7.53493C19.9483 6.93963 19.2209 6.50124 18.42 6.25989V6.21989ZM16 10.9999C15.7348 10.9999 15.4804 11.1053 15.2929 11.2928C15.1054 11.4803 15 11.7347 15 11.9999V12.9999C15 13.2651 15.1054 13.5195 15.2929 13.707C15.4804 13.8945 15.7348 13.9999 16 13.9999C16.2652 13.9999 16.5196 13.8945 16.7071 13.707C16.8947 13.5195 17 13.2651 17 12.9999V11.9999C17 11.7347 16.8947 11.4803 16.7071 11.2928C16.5196 11.1053 16.2652 10.9999 16 10.9999ZM16 15.9999C15.7348 15.9999 15.4804 16.1053 15.2929 16.2928C15.1054 16.4803 15 16.7347 15 16.9999V17.9999C15 18.2651 15.1054 18.5195 15.2929 18.707C15.4804 18.8945 15.7348 18.9999 16 18.9999C16.2652 18.9999 16.5196 18.8945 16.7071 18.707C16.8947 18.5195 17 18.2651 17 17.9999V16.9999C17 16.7347 16.8947 16.4803 16.7071 16.2928C16.5196 16.1053 16.2652 15.9999 16 15.9999ZM12 8.99989C11.7348 8.99989 11.4804 9.10525 11.2929 9.29279C11.1054 9.48032 11 9.73468 11 9.99989V10.9999C11 11.2651 11.1054 11.5195 11.2929 11.707C11.4804 11.8945 11.7348 11.9999 12 11.9999C12.2652 11.9999 12.5196 11.8945 12.7071 11.707C12.8947 11.5195 13 11.2651 13 10.9999V9.99989C13 9.73468 12.8947 9.48032 12.7071 9.29279C12.5196 9.10525 12.2652 8.99989 12 8.99989Z" />
</svg>
