<svg width="24" height="24" viewBox="0 0 24 24" xmlns="http://www.w3.org/2000/svg">
<path d="M12.5604 12.6699C12.3951 12.5581 12.2 12.4984 12.0004 12.4984C11.8008 12.4984 11.6058 12.5581 11.4404 12.6699C11.3304 12.7499 8.75043 14.5299 8.75043 17.2499C8.75043 18.1118 9.09284 18.9385 9.70233 19.548C10.3118 20.1575 11.1385 20.4999 12.0004 20.4999C12.8624 20.4999 13.689 20.1575 14.2985 19.548C14.908 18.9385 15.2504 18.1118 15.2504 17.2499C15.2504 14.4999 12.6704 12.7399 12.5604 12.6699ZM12.0004 18.4999C11.6689 18.4999 11.351 18.3682 11.1165 18.1338C10.8821 17.8994 10.7504 17.5814 10.7504 17.2499C10.8327 16.3018 11.2811 15.423 12.0004 14.7999C12.7241 15.4196 13.1734 16.3003 13.2504 17.2499C13.2504 17.5814 13.1187 17.8994 12.8843 18.1338C12.6499 18.3682 12.332 18.4999 12.0004 18.4999ZM18.4204 7.71989C17.8094 6.3159 16.7549 5.15097 15.4185 4.40362C14.0821 3.65627 12.5375 3.36773 11.0214 3.5822C9.5053 3.79668 8.10135 4.50235 7.02468 5.59107C5.94801 6.67979 5.25802 8.09151 5.06043 9.60989C4.13959 9.83585 3.32896 10.3816 2.77312 11.1497C2.21728 11.9178 1.95237 12.8584 2.02564 13.8038C2.09891 14.7491 2.5056 15.6376 3.17317 16.3109C3.84074 16.9843 4.72577 17.3985 5.67043 17.4799H5.75043C6.00235 17.4807 6.24529 17.3864 6.43069 17.2158C6.61609 17.0453 6.73028 16.811 6.75043 16.5599C6.76137 16.4285 6.7462 16.2962 6.70582 16.1707C6.66544 16.0452 6.60062 15.9289 6.51512 15.8285C6.42961 15.7281 6.3251 15.6456 6.20759 15.5858C6.09008 15.526 5.9619 15.49 5.83043 15.4799C5.33343 15.4375 4.8702 15.2109 4.53164 14.8446C4.19307 14.4783 4.00361 13.9987 4.00043 13.4999C4.00043 12.9695 4.21114 12.4608 4.58622 12.0857C4.96129 11.7106 5.47 11.4999 6.00043 11.4999C6.26565 11.4999 6.52 11.3945 6.70754 11.207C6.89507 11.0195 7.00043 10.7651 7.00043 10.4999C7.00298 9.31717 7.42472 8.17365 8.1907 7.27248C8.95668 6.37131 10.0173 5.77085 11.1842 5.57777C12.351 5.38469 13.5486 5.6115 14.564 6.2179C15.5794 6.82431 16.347 7.77103 16.7304 8.88989C16.7876 9.06173 16.8903 9.21483 17.0277 9.33283C17.1651 9.45083 17.3319 9.52931 17.5104 9.5599C18.1635 9.67933 18.7585 10.012 19.2022 10.5058C19.6459 10.9996 19.9133 11.6267 19.9625 12.2888C20.0116 12.9508 19.8398 13.6105 19.4739 14.1644C19.108 14.7184 18.5687 15.1353 17.9404 15.3499C17.6976 15.4393 17.4989 15.6193 17.3861 15.8522C17.2733 16.085 17.2551 16.3525 17.3353 16.5985C17.4156 16.8445 17.5881 17.0498 17.8165 17.1712C18.045 17.2927 18.3116 17.3209 18.5604 17.2499C19.5674 16.9138 20.4413 16.2659 21.0555 15.4C21.6697 14.5341 21.9924 13.4952 21.9768 12.4337C21.9612 11.3722 21.6082 10.3432 20.9688 9.49573C20.3294 8.64826 19.4369 8.02629 18.4204 7.71989Z" />
</svg>
