<svg width="24" height="24" viewBox="0 0 24 24" xmlns="http://www.w3.org/2000/svg">
<path d="M21 11H19.41L20.71 9.71C20.8032 9.61676 20.8772 9.50607 20.9277 9.38425C20.9781 9.26243 21.0041 9.13186 21.0041 9C21.0041 8.86814 20.9781 8.73757 20.9277 8.61575C20.8772 8.49393 20.8032 8.38324 20.71 8.29C20.6168 8.19676 20.5061 8.1228 20.3842 8.07234C20.2624 8.02188 20.1319 7.99591 20 7.99591C19.8681 7.99591 19.7376 8.02188 19.6158 8.07234C19.4939 8.1228 19.3832 8.19676 19.29 8.29L16.59 11H14.41L16.71 8.71C16.8032 8.61676 16.8772 8.50607 16.9277 8.38425C16.9781 8.26243 17.0041 8.13186 17.0041 8C17.0041 7.86814 16.9781 7.73757 16.9277 7.61575C16.8772 7.49393 16.8032 7.38324 16.71 7.29C16.6168 7.19676 16.5061 7.1228 16.3842 7.07234C16.2624 7.02188 16.1319 6.99591 16 6.99591C15.8681 6.99591 15.7376 7.02188 15.6158 7.07234C15.4939 7.1228 15.3832 7.19676 15.29 7.29L13 9.59V7.41L15.71 4.71C15.8032 4.61676 15.8772 4.50607 15.9277 4.38425C15.9781 4.26243 16.0041 4.13186 16.0041 4C16.0041 3.86814 15.9781 3.73757 15.9277 3.61575C15.8772 3.49393 15.8032 3.38324 15.71 3.29C15.6168 3.19676 15.5061 3.1228 15.3842 3.07234C15.2624 3.02188 15.1319 2.99591 15 2.99591C14.7337 2.99591 14.4783 3.1017 14.29 3.29L13 4.59V3C13 2.73478 12.8946 2.48043 12.7071 2.29289C12.5196 2.10536 12.2652 2 12 2C11.7348 2 11.4804 2.10536 11.2929 2.29289C11.1054 2.48043 11 2.73478 11 3V4.59L9.71 3.29C9.5217 3.1017 9.2663 2.99591 9 2.99591C8.7337 2.99591 8.4783 3.1017 8.29 3.29C8.1017 3.4783 7.99591 3.7337 7.99591 4C7.99591 4.2663 8.1017 4.5217 8.29 4.71L11 7.41V9.59L8.71 7.29C8.61676 7.19676 8.50607 7.1228 8.38425 7.07234C8.26243 7.02188 8.13186 6.99591 8 6.99591C7.86814 6.99591 7.73757 7.02188 7.61575 7.07234C7.49393 7.1228 7.38324 7.19676 7.29 7.29C7.19676 7.38324 7.1228 7.49393 7.07234 7.61575C7.02188 7.73757 6.99591 7.86814 6.99591 8C6.99591 8.13186 7.02188 8.26243 7.07234 8.38425C7.1228 8.50607 7.19676 8.61676 7.29 8.71L9.59 11H7.41L4.71 8.29C4.5217 8.1017 4.2663 7.99591 4 7.99591C3.7337 7.99591 3.4783 8.1017 3.29 8.29C3.1017 8.4783 2.99591 8.7337 2.99591 9C2.99591 9.2663 3.1017 9.5217 3.29 9.71L4.59 11H3C2.73478 11 2.48043 11.1054 2.29289 11.2929C2.10536 11.4804 2 11.7348 2 12C2 12.2652 2.10536 12.5196 2.29289 12.7071C2.48043 12.8946 2.73478 13 3 13H4.59L3.29 14.29C3.19627 14.383 3.12188 14.4936 3.07111 14.6154C3.02034 14.7373 2.9942 14.868 2.9942 15C2.9942 15.132 3.02034 15.2627 3.07111 15.3846C3.12188 15.5064 3.19627 15.617 3.29 15.71C3.38296 15.8037 3.49356 15.8781 3.61542 15.9289C3.73728 15.9797 3.86799 16.0058 4 16.0058C4.13201 16.0058 4.26272 15.9797 4.38458 15.9289C4.50644 15.8781 4.61704 15.8037 4.71 15.71L7.41 13H9.59L7.29 15.29C7.19627 15.383 7.12188 15.4936 7.07111 15.6154C7.02034 15.7373 6.9942 15.868 6.9942 16C6.9942 16.132 7.02034 16.2627 7.07111 16.3846C7.12188 16.5064 7.19627 16.617 7.29 16.71C7.38296 16.8037 7.49356 16.8781 7.61542 16.9289C7.73728 16.9797 7.86799 17.0058 8 17.0058C8.13201 17.0058 8.26272 16.9797 8.38458 16.9289C8.50644 16.8781 8.61704 16.8037 8.71 16.71L11 14.41V16.59L8.29 19.29C8.1017 19.4783 7.99591 19.7337 7.99591 20C7.99591 20.2663 8.1017 20.5217 8.29 20.71C8.4783 20.8983 8.7337 21.0041 9 21.0041C9.2663 21.0041 9.5217 20.8983 9.71 20.71L11 19.41V21C11 21.2652 11.1054 21.5196 11.2929 21.7071C11.4804 21.8946 11.7348 22 12 22C12.2652 22 12.5196 21.8946 12.7071 21.7071C12.8946 21.5196 13 21.2652 13 21V19.41L14.29 20.71C14.383 20.8037 14.4936 20.8781 14.6154 20.9289C14.7373 20.9797 14.868 21.0058 15 21.0058C15.132 21.0058 15.2627 20.9797 15.3846 20.9289C15.5064 20.8781 15.617 20.8037 15.71 20.71C15.8037 20.617 15.8781 20.5064 15.9289 20.3846C15.9797 20.2627 16.0058 20.132 16.0058 20C16.0058 19.868 15.9797 19.7373 15.9289 19.6154C15.8781 19.4936 15.8037 19.383 15.71 19.29L13 16.59V14.41L15.29 16.71C15.383 16.8037 15.4936 16.8781 15.6154 16.9289C15.7373 16.9797 15.868 17.0058 16 17.0058C16.132 17.0058 16.2627 16.9797 16.3846 16.9289C16.5064 16.8781 16.617 16.8037 16.71 16.71C16.8037 16.617 16.8781 16.5064 16.9289 16.3846C16.9797 16.2627 17.0058 16.132 17.0058 16C17.0058 15.868 16.9797 15.7373 16.9289 15.6154C16.8781 15.4936 16.8037 15.383 16.71 15.29L14.41 13H16.59L19.29 15.71C19.383 15.8037 19.4936 15.8781 19.6154 15.9289C19.7373 15.9797 19.868 16.0058 20 16.0058C20.132 16.0058 20.2627 15.9797 20.3846 15.9289C20.5064 15.8781 20.617 15.8037 20.71 15.71C20.8037 15.617 20.8781 15.5064 20.9289 15.3846C20.9797 15.2627 21.0058 15.132 21.0058 15C21.0058 14.868 20.9797 14.7373 20.9289 14.6154C20.8781 14.4936 20.8037 14.383 20.71 14.29L19.41 13H21C21.2652 13 21.5196 12.8946 21.7071 12.7071C21.8946 12.5196 22 12.2652 22 12C22 11.7348 21.8946 11.4804 21.7071 11.2929C21.5196 11.1054 21.2652 11 21 11Z" />
</svg>
