<svg width="24" height="24" viewBox="0 0 24 24" xmlns="http://www.w3.org/2000/svg">
<path d="M20.5 3H13.5C12.7044 3 11.9413 3.31607 11.3787 3.87868C10.8161 4.44129 10.5 5.20435 10.5 6V20C10.5 20.2652 10.6054 20.5196 10.7929 20.7071C10.9804 20.8946 11.2348 21 11.5 21C11.7652 21 12.0196 20.8946 12.2071 20.7071C12.3946 20.5196 12.5 20.2652 12.5 20V13H18.5C18.7652 13 19.0196 12.8946 19.2071 12.7071C19.3946 12.5196 19.5 12.2652 19.5 12C19.5 11.7348 19.3946 11.4804 19.2071 11.2929C19.0196 11.1054 18.7652 11 18.5 11H12.5V6C12.5 5.73478 12.6054 5.48043 12.7929 5.29289C12.9804 5.10536 13.2348 5 13.5 5H20.5C20.7652 5 21.0196 4.89464 21.2071 4.70711C21.3946 4.51957 21.5 4.26522 21.5 4C21.5 3.73478 21.3946 3.48043 21.2071 3.29289C21.0196 3.10536 20.7652 3 20.5 3ZM5.5 3C4.90666 3 4.32664 3.17595 3.83329 3.50559C3.33994 3.83524 2.95543 4.30377 2.72836 4.85195C2.5013 5.40013 2.44189 6.00333 2.55765 6.58527C2.6734 7.16721 2.95912 7.70176 3.37868 8.12132C3.79824 8.54088 4.33279 8.8266 4.91473 8.94236C5.49667 9.05811 6.09987 8.9987 6.64805 8.77164C7.19623 8.54458 7.66477 8.16006 7.99441 7.66671C8.32405 7.17336 8.5 6.59334 8.5 6C8.5 5.20435 8.18393 4.44129 7.62132 3.87868C7.05871 3.31607 6.29565 3 5.5 3ZM5.5 7C5.30222 7 5.10888 6.94135 4.94443 6.83147C4.77998 6.72159 4.65181 6.56541 4.57612 6.38268C4.50043 6.19996 4.48063 5.99889 4.51922 5.80491C4.5578 5.61093 4.65304 5.43275 4.79289 5.29289C4.93275 5.15304 5.11093 5.0578 5.30491 5.01921C5.49889 4.98063 5.69996 5.00043 5.88268 5.07612C6.06541 5.15181 6.22159 5.27998 6.33147 5.44443C6.44135 5.60888 6.5 5.80222 6.5 6C6.5 6.26522 6.39464 6.51957 6.20711 6.70711C6.01957 6.89464 5.76522 7 5.5 7Z" />
</svg>
