<svg width="24" height="24" viewBox="0 0 24 24" xmlns="http://www.w3.org/2000/svg">
<path d="M3.5 9C3.69778 9 3.89112 8.94135 4.05557 8.83147C4.22002 8.72159 4.34819 8.56541 4.42388 8.38268C4.49957 8.19996 4.51937 7.99889 4.48079 7.80491C4.4422 7.61093 4.34696 7.43275 4.20711 7.29289C4.06725 7.15304 3.88907 7.0578 3.69509 7.01921C3.50111 6.98063 3.30004 7.00043 3.11732 7.07612C2.93459 7.15181 2.77841 7.27998 2.66853 7.44443C2.55865 7.60888 2.5 7.80222 2.5 8C2.5 8.26522 2.60536 8.51957 2.79289 8.70711C2.98043 8.89464 3.23478 9 3.5 9ZM7.5 9H14.5C15.2956 9 16.0587 8.68393 16.6213 8.12132C17.1839 7.55871 17.5 6.79565 17.5 6C17.5 5.20435 17.1839 4.44129 16.6213 3.87868C16.0587 3.31607 15.2956 3 14.5 3C13.9739 3.00218 13.4573 3.13994 13 3.4C12.8854 3.46533 12.7849 3.55268 12.7042 3.65703C12.6235 3.76138 12.5643 3.88066 12.5299 4.008C12.4955 4.13534 12.4866 4.26822 12.5038 4.399C12.521 4.52978 12.5639 4.65587 12.63 4.77C12.6962 4.88375 12.7841 4.98333 12.8889 5.06302C12.9936 5.14271 13.113 5.20094 13.2403 5.23439C13.3675 5.26783 13.5002 5.27583 13.6305 5.25791C13.7609 5.24 13.8865 5.19653 14 5.13C14.1538 5.04722 14.3253 5.00264 14.5 5C14.7652 5 15.0196 5.10536 15.2071 5.29289C15.3946 5.48043 15.5 5.73478 15.5 6C15.5 6.26522 15.3946 6.51957 15.2071 6.70711C15.0196 6.89464 14.7652 7 14.5 7H7.5C7.23478 7 6.98043 7.10536 6.79289 7.29289C6.60536 7.48043 6.5 7.73478 6.5 8C6.5 8.26522 6.60536 8.51957 6.79289 8.70711C6.98043 8.89464 7.23478 9 7.5 9ZM3.5 13H10.5C10.7652 13 11.0196 12.8946 11.2071 12.7071C11.3946 12.5196 11.5 12.2652 11.5 12C11.5 11.7348 11.3946 11.4804 11.2071 11.2929C11.0196 11.1054 10.7652 11 10.5 11H3.5C3.23478 11 2.98043 11.1054 2.79289 11.2929C2.60536 11.4804 2.5 11.7348 2.5 12C2.5 12.2652 2.60536 12.5196 2.79289 12.7071C2.98043 12.8946 3.23478 13 3.5 13ZM20.5 9C20.6978 9 20.8911 8.94135 21.0556 8.83147C21.22 8.72159 21.3482 8.56541 21.4239 8.38268C21.4996 8.19996 21.5194 7.99889 21.4808 7.80491C21.4422 7.61093 21.347 7.43275 21.2071 7.29289C21.0673 7.15304 20.8891 7.0578 20.6951 7.01921C20.5011 6.98063 20.3 7.00043 20.1173 7.07612C19.9346 7.15181 19.7784 7.27998 19.6685 7.44443C19.5586 7.60888 19.5 7.80222 19.5 8C19.5 8.26522 19.6054 8.51957 19.7929 8.70711C19.9804 8.89464 20.2348 9 20.5 9ZM18.5 11H14.5C14.2348 11 13.9804 11.1054 13.7929 11.2929C13.6054 11.4804 13.5 11.7348 13.5 12C13.5 12.2652 13.6054 12.5196 13.7929 12.7071C13.9804 12.8946 14.2348 13 14.5 13H18.5C18.7652 13 19.0196 13.1054 19.2071 13.2929C19.3946 13.4804 19.5 13.7348 19.5 14C19.5 14.2652 19.3946 14.5196 19.2071 14.7071C19.0196 14.8946 18.7652 15 18.5 15C18.2348 15 17.9804 15.1054 17.7929 15.2929C17.6054 15.4804 17.5 15.7348 17.5 16C17.5 16.2652 17.6054 16.5196 17.7929 16.7071C17.9804 16.8946 18.2348 17 18.5 17C19.2956 17 20.0587 16.6839 20.6213 16.1213C21.1839 15.5587 21.5 14.7956 21.5 14C21.5 13.2044 21.1839 12.4413 20.6213 11.8787C20.0587 11.3161 19.2956 11 18.5 11ZM12.5 15H8.5C8.23478 15 7.98043 15.1054 7.79289 15.2929C7.60536 15.4804 7.5 15.7348 7.5 16C7.5 16.2652 7.60536 16.5196 7.79289 16.7071C7.98043 16.8946 8.23478 17 8.5 17H12.5C12.7652 17 13.0196 17.1054 13.2071 17.2929C13.3946 17.4804 13.5 17.7348 13.5 18C13.5 18.2652 13.3946 18.5196 13.2071 18.7071C13.0196 18.8946 12.7652 19 12.5 19C12.3253 18.9974 12.1538 18.9528 12 18.87C11.8862 18.7976 11.7589 18.7491 11.6258 18.7272C11.4927 18.7053 11.3566 18.7105 11.2256 18.7426C11.0946 18.7747 10.9715 18.833 10.8636 18.9139C10.7557 18.9948 10.6652 19.0967 10.5978 19.2135C10.5303 19.3302 10.4871 19.4594 10.4708 19.5933C10.4546 19.7272 10.4655 19.863 10.5031 19.9925C10.5407 20.1221 10.6041 20.2427 10.6895 20.347C10.7749 20.4514 10.8805 20.5375 11 20.6C11.4573 20.8601 11.9739 20.9978 12.5 21C13.2956 21 14.0587 20.6839 14.6213 20.1213C15.1839 19.5587 15.5 18.7956 15.5 18C15.5 17.2044 15.1839 16.4413 14.6213 15.8787C14.0587 15.3161 13.2956 15 12.5 15ZM4.5 15H3.5C3.23478 15 2.98043 15.1054 2.79289 15.2929C2.60536 15.4804 2.5 15.7348 2.5 16C2.5 16.2652 2.60536 16.5196 2.79289 16.7071C2.98043 16.8946 3.23478 17 3.5 17H4.5C4.76522 17 5.01957 16.8946 5.20711 16.7071C5.39464 16.5196 5.5 16.2652 5.5 16C5.5 15.7348 5.39464 15.4804 5.20711 15.2929C5.01957 15.1054 4.76522 15 4.5 15Z" />
</svg>
