<svg width="24" height="24" viewBox="0 0 24 24" xmlns="http://www.w3.org/2000/svg">
<path d="M10 20H5C4.73478 20 4.48043 19.8946 4.29289 19.7071C4.10536 19.5196 4 19.2652 4 19V5C4 4.73478 4.10536 4.48043 4.29289 4.29289C4.48043 4.10536 4.73478 4 5 4H10V7C10 7.79565 10.3161 8.55871 10.8787 9.12132C11.4413 9.68393 12.2044 10 13 10H17C17.1974 9.99901 17.3901 9.93961 17.5539 9.82928C17.7176 9.71895 17.845 9.56262 17.92 9.38C17.9966 9.19789 18.0175 8.99718 17.9801 8.80319C17.9428 8.6092 17.8488 8.43062 17.71 8.29L11.71 2.29C11.6273 2.21222 11.5328 2.14808 11.43 2.1C11.4002 2.09576 11.3699 2.09576 11.34 2.1L11.06 2H5C4.20435 2 3.44129 2.31607 2.87868 2.87868C2.31607 3.44129 2 4.20435 2 5V19C2 19.7956 2.31607 20.5587 2.87868 21.1213C3.44129 21.6839 4.20435 22 5 22H10C10.2652 22 10.5196 21.8946 10.7071 21.7071C10.8946 21.5196 11 21.2652 11 21C11 20.7348 10.8946 20.4804 10.7071 20.2929C10.5196 20.1054 10.2652 20 10 20ZM12 5.41L14.59 8H13C12.7348 8 12.4804 7.89464 12.2929 7.70711C12.1054 7.51957 12 7.26522 12 7V5.41ZM13 13C13 12.7348 12.8946 12.4804 12.7071 12.2929C12.5196 12.1054 12.2652 12 12 12H7C6.73478 12 6.48043 12.1054 6.29289 12.2929C6.10536 12.4804 6 12.7348 6 13C6 13.2652 6.10536 13.5196 6.29289 13.7071C6.48043 13.8946 6.73478 14 7 14H12C12.2652 14 12.5196 13.8946 12.7071 13.7071C12.8946 13.5196 13 13.2652 13 13ZM7 10H8C8.26522 10 8.51957 9.89464 8.70711 9.70711C8.89464 9.51957 9 9.26522 9 9C9 8.73478 8.89464 8.48043 8.70711 8.29289C8.51957 8.10536 8.26522 8 8 8H7C6.73478 8 6.48043 8.10536 6.29289 8.29289C6.10536 8.48043 6 8.73478 6 9C6 9.26522 6.10536 9.51957 6.29289 9.70711C6.48043 9.89464 6.73478 10 7 10ZM7 16C6.73478 16 6.48043 16.1054 6.29289 16.2929C6.10536 16.4804 6 16.7348 6 17C6 17.2652 6.10536 17.5196 6.29289 17.7071C6.48043 17.8946 6.73478 18 7 18H9C9.26522 18 9.51957 17.8946 9.70711 17.7071C9.89464 17.5196 10 17.2652 10 17C10 16.7348 9.89464 16.4804 9.70711 16.2929C9.51957 16.1054 9.26522 16 9 16H7Z"/>
<path d="M22.714 17.2967C22.1146 16.7075 20.4047 16.8695 19.5497 16.9775C18.7046 16.462 18.1395 15.75 17.7415 14.7041C17.9332 13.9135 18.2378 12.7105 18.0069 11.9543C17.8005 10.6679 16.1496 10.7955 15.9137 11.6646C15.6975 12.4552 15.8941 13.5551 16.2577 14.9594C15.7663 16.133 15.0342 17.7092 14.5183 18.6126C13.5356 19.1184 12.2089 19.8991 12.0124 20.8812C11.8502 21.657 13.2899 23.5916 15.7516 19.3492C16.8522 18.9858 18.0511 18.539 19.1124 18.3622C20.0411 18.8631 21.127 19.197 21.8542 19.197C23.1071 19.197 23.2299 17.8123 22.714 17.2967ZM12.9803 21.1169C13.2309 20.4442 14.1842 19.6683 14.4741 19.3983C13.5405 20.8861 12.9803 21.1512 12.9803 21.1169ZM16.9898 11.7579C17.3534 11.7579 17.319 13.3341 17.0782 13.7613C16.862 13.0788 16.8669 11.7579 16.9898 11.7579ZM15.7909 18.4653C16.2675 17.6355 16.6753 16.6485 17.0045 15.7794C17.4123 16.5209 17.9332 17.115 18.4835 17.5226C17.4615 17.7337 16.5721 18.1658 15.7909 18.4653ZM22.2571 18.2198C22.2571 18.2198 22.0114 18.5144 20.4243 17.8368C22.149 17.7092 22.434 18.102 22.2571 18.2198Z" />
</svg>
