<svg width="24" height="24" viewBox="0 0 24 24" xmlns="http://www.w3.org/2000/svg">
<path d="M18.4203 7.72C17.8092 6.31601 16.7547 5.15108 15.4183 4.40373C14.0819 3.65638 12.5373 3.36783 11.0212 3.58231C9.50513 3.79679 8.10118 4.50245 7.02451 5.59118C5.94784 6.6799 5.25784 8.09162 5.06025 9.61C4.22247 9.81405 3.47306 10.2834 2.9237 10.948C2.37435 11.6126 2.05447 12.437 2.01175 13.2982C1.96903 14.1594 2.20574 15.0114 2.68662 15.7271C3.16749 16.4428 3.86678 16.984 4.68025 17.27C4.78397 17.3019 4.89174 17.3188 5.00025 17.32C5.26547 17.3624 5.53668 17.2978 5.75422 17.1402C5.97177 16.9827 6.11782 16.7452 6.16025 16.48C6.20269 16.2148 6.13803 15.9436 5.9805 15.726C5.82297 15.5085 5.58547 15.3624 5.32026 15.32C4.94317 15.1839 4.61569 14.9376 4.38031 14.613C4.14493 14.2885 4.01252 13.9007 4.00025 13.5C4.00025 12.9696 4.21097 12.4609 4.58604 12.0858C4.96111 11.7107 5.46982 11.5 6.00025 11.5C6.26547 11.5 6.51983 11.3946 6.70736 11.2071C6.8949 11.0196 7.00026 10.7652 7.00026 10.5C7.00281 9.31728 7.42454 8.17375 8.19052 7.27259C8.95651 6.37142 10.0171 5.77095 11.184 5.57788C12.3509 5.3848 13.5484 5.61161 14.5638 6.21801C15.5793 6.82441 16.3469 7.77114 16.7303 8.89C16.7874 9.06184 16.8902 9.21493 17.0275 9.33293C17.1649 9.45094 17.3318 9.52942 17.5103 9.56C18.1116 9.66884 18.6654 9.95873 19.0974 10.3909C19.5295 10.823 19.8193 11.3768 19.9281 11.9782C20.0368 12.5796 19.9593 13.1998 19.7059 13.7559C19.4526 14.312 19.0354 14.7775 18.5103 15.09C18.2795 15.2226 18.1109 15.4414 18.0415 15.6984C17.9721 15.9553 18.0076 16.2293 18.1403 16.46C18.2729 16.6907 18.4917 16.8593 18.7486 16.9287C19.0056 16.9981 19.2795 16.9626 19.5103 16.83C20.2685 16.3899 20.8976 15.7582 21.3347 14.9982C21.7717 14.2382 22.0012 13.3767 22.0003 12.5C21.9972 11.4241 21.6472 10.3779 21.0023 9.51681C20.3573 8.65568 19.4518 8.02555 18.4203 7.72ZM9.17026 13.72C8.61129 14.2796 8.23077 14.9923 8.07679 15.7681C7.92281 16.5439 8.00228 17.348 8.30516 18.0786C8.60804 18.8093 9.12074 19.4337 9.77844 19.873C10.4361 20.3124 11.2093 20.5469 12.0003 20.5469C12.7912 20.5469 13.5644 20.3124 14.2221 19.873C14.8798 19.4337 15.3925 18.8093 15.6953 18.0786C15.9982 17.348 16.0777 16.5439 15.9237 15.7681C15.7697 14.9923 15.3892 14.2796 14.8303 13.72C14.0741 12.9858 13.0642 12.5709 12.0103 12.5616C10.9563 12.5523 9.93927 12.9492 9.17026 13.67V13.72ZM10.0003 16.5C10.0003 15.9696 10.211 15.4609 10.586 15.0858C10.9611 14.7107 11.4698 14.5 12.0003 14.5C12.1725 14.5022 12.3438 14.5257 12.5103 14.57L10.0703 17C10.0268 16.8368 10.0033 16.6689 10.0003 16.5ZM13.4103 17.91C13.1624 18.1515 12.856 18.3245 12.5213 18.4121C12.1865 18.4998 11.8347 18.499 11.5003 18.41L13.9303 16C13.9745 16.1665 13.998 16.3378 14.0003 16.51C13.9954 17.0361 13.7834 17.5391 13.4103 17.91Z" />
</svg>
