<svg width="24" height="24" viewBox="0 0 24 24" xmlns="http://www.w3.org/2000/svg">
<path d="M12.7096 18.79C12.6124 18.7017 12.5008 18.6306 12.3796 18.58C12.1975 18.5034 11.9968 18.4825 11.8028 18.5199C11.6088 18.5573 11.4303 18.6512 11.2896 18.79C11.1069 18.9816 11.0033 19.2352 10.9996 19.5C10.9989 19.6316 11.0241 19.7621 11.0739 19.8839C11.1236 20.0057 11.197 20.1166 11.2896 20.21C11.3868 20.2983 11.4985 20.3694 11.6196 20.42C11.8014 20.4927 12.0005 20.5106 12.1922 20.4712C12.384 20.4319 12.56 20.3371 12.6984 20.1987C12.8368 20.0603 12.9315 19.8843 12.9709 19.6926C13.0102 19.5008 12.9924 19.3017 12.9196 19.12C12.8721 18.9973 12.8007 18.8851 12.7096 18.79ZM11.9996 12.5C11.7344 12.5 11.4801 12.6054 11.2925 12.7929C11.105 12.9804 10.9996 13.2348 10.9996 13.5V16.5C10.9996 16.7652 11.105 17.0196 11.2925 17.2071C11.4801 17.3946 11.7344 17.5 11.9996 17.5C12.2649 17.5 12.5192 17.3946 12.7068 17.2071C12.8943 17.0196 12.9996 16.7652 12.9996 16.5V13.5C12.9996 13.2348 12.8943 12.9804 12.7068 12.7929C12.5192 12.6054 12.2649 12.5 11.9996 12.5ZM18.4196 7.71C17.808 6.30581 16.7526 5.141 15.4154 4.39416C14.0782 3.64732 12.5329 3.35967 11.0165 3.57533C9.50015 3.79098 8.09635 4.49803 7.02036 5.58806C5.94438 6.6781 5.25561 8.09095 5.05965 9.61C4.10623 9.83833 3.26987 10.4088 2.70938 11.2132C2.1489 12.0175 1.90333 12.9997 2.01931 13.9732C2.13529 14.9467 2.60474 15.8437 3.33851 16.4939C4.07229 17.144 5.01928 17.5021 5.99965 17.5H7.99965C8.26486 17.5 8.51922 17.3946 8.70675 17.2071C8.89429 17.0196 8.99965 16.7652 8.99965 16.5C8.99965 16.2348 8.89429 15.9804 8.70675 15.7929C8.51922 15.6054 8.26486 15.5 7.99965 15.5H5.99965C5.46921 15.5 4.96051 15.2893 4.58543 14.9142C4.21036 14.5391 3.99965 14.0304 3.99965 13.5C3.99965 12.9696 4.21036 12.4609 4.58543 12.0858C4.96051 11.7107 5.46921 11.5 5.99965 11.5C6.26486 11.5 6.51922 11.3946 6.70675 11.2071C6.89429 11.0196 6.99965 10.7652 6.99965 10.5C7.0022 9.31728 7.42393 8.17376 8.18992 7.27259C8.9559 6.37142 10.0165 5.77095 11.1834 5.57788C12.3503 5.3848 13.5478 5.61161 14.5632 6.21801C15.5787 6.82441 16.3463 7.77114 16.7296 8.89C16.7883 9.05998 16.8917 9.21099 17.029 9.32714C17.1663 9.44329 17.3323 9.52028 17.5096 9.55C18.2426 9.68526 18.899 10.0885 19.351 10.6813C19.8029 11.274 20.018 12.0138 19.9543 12.7564C19.8907 13.499 19.5528 14.1914 19.0066 14.6986C18.4604 15.2058 17.745 15.4915 16.9996 15.5H15.9996C15.7344 15.5 15.4801 15.6054 15.2925 15.7929C15.105 15.9804 14.9996 16.2348 14.9996 16.5C14.9996 16.7652 15.105 17.0196 15.2925 17.2071C15.4801 17.3946 15.7344 17.5 15.9996 17.5H16.9996C18.199 17.4967 19.3572 17.0624 20.263 16.2763C21.1689 15.4902 21.7619 14.4047 21.9341 13.2177C22.1063 12.0308 21.846 10.8215 21.2009 9.81046C20.5557 8.7994 19.5686 8.05393 18.4196 7.71Z" />
</svg>
