<svg width="24" height="24" viewBox="0 0 24 24" xmlns="http://www.w3.org/2000/svg">
<path d="M21 18.5H14.82C14.6707 18.0806 14.4299 17.6997 14.1151 17.3849C13.8003 17.0701 13.4194 16.8293 13 16.68V13.5H16.17C17.2289 13.5348 18.2637 13.1802 19.0787 12.5033C19.8937 11.8264 20.4323 10.8742 20.5924 9.82696C20.7526 8.77971 20.5233 7.71008 19.9478 6.82054C19.3724 5.931 18.4909 5.28328 17.47 5C16.9352 3.81508 16.0301 2.83589 14.8907 2.20981C13.7514 1.58373 12.4396 1.34462 11.1526 1.52847C9.86569 1.71232 8.67327 2.30918 7.75483 3.22923C6.83639 4.14928 6.24161 5.34274 6.06 6.63C5.24619 6.85821 4.54245 7.3732 4.07876 8.07985C3.61507 8.7865 3.42276 9.63708 3.53734 10.4745C3.65192 11.3119 4.06565 12.0795 4.70212 12.6356C5.33859 13.1918 6.1548 13.4988 7 13.5H11V16.68C10.5806 16.8293 10.1997 17.0701 9.8849 17.3849C9.57011 17.6997 9.32932 18.0806 9.18 18.5H3C2.73478 18.5 2.48043 18.6054 2.29289 18.7929C2.10536 18.9804 2 19.2348 2 19.5C2 19.7652 2.10536 20.0196 2.29289 20.2071C2.48043 20.3946 2.73478 20.5 3 20.5H9.18C9.3902 21.0792 9.77363 21.5795 10.2782 21.9332C10.7827 22.2868 11.3839 22.4765 12 22.4765C12.6161 22.4765 13.2173 22.2868 13.7218 21.9332C14.2264 21.5795 14.6098 21.0792 14.82 20.5H21C21.2652 20.5 21.5196 20.3946 21.7071 20.2071C21.8946 20.0196 22 19.7652 22 19.5C22 19.2348 21.8946 18.9804 21.7071 18.7929C21.5196 18.6054 21.2652 18.5 21 18.5ZM7 11.5C6.60218 11.5 6.22064 11.342 5.93934 11.0607C5.65804 10.7794 5.5 10.3978 5.5 10C5.5 9.60217 5.65804 9.22064 5.93934 8.93934C6.22064 8.65803 6.60218 8.5 7 8.5C7.26522 8.5 7.51957 8.39464 7.70711 8.20711C7.89464 8.01957 8 7.76522 8 7.5C7.99738 6.55053 8.33259 5.63109 8.94569 4.9061C9.55878 4.1811 10.4098 3.69784 11.3465 3.54272C12.2832 3.3876 13.2446 3.57075 14.0586 4.05941C14.8727 4.54807 15.4864 5.31037 15.79 6.21C15.8472 6.38184 15.9499 6.53493 16.0873 6.65293C16.2247 6.77093 16.3915 6.84942 16.57 6.88C17.1113 6.97026 17.6027 7.25027 17.9564 7.66987C18.31 8.08947 18.5027 8.62126 18.5 9.17C18.4974 9.78714 18.251 10.3783 17.8147 10.8147C17.3783 11.251 16.7871 11.4974 16.17 11.5H7ZM12 20.5C11.8022 20.5 11.6089 20.4414 11.4444 20.3315C11.28 20.2216 11.1518 20.0654 11.0761 19.8827C11.0004 19.7 10.9806 19.4989 11.0192 19.3049C11.0578 19.1109 11.153 18.9327 11.2929 18.7929C11.4327 18.653 11.6109 18.5578 11.8049 18.5192C11.9989 18.4806 12.2 18.5004 12.3827 18.5761C12.5654 18.6518 12.7216 18.78 12.8315 18.9444C12.9414 19.1089 13 19.3022 13 19.5C13 19.7652 12.8946 20.0196 12.7071 20.2071C12.5196 20.3946 12.2652 20.5 12 20.5Z" />
</svg>
