<svg width="24" height="24" viewBox="0 0 24 24" xmlns="http://www.w3.org/2000/svg">
<path d="M8 17C7.80222 17 7.60888 17.0586 7.44443 17.1685C7.27998 17.2784 7.15181 17.4346 7.07612 17.6173C7.00043 17.8 6.98063 18.0011 7.01921 18.1951C7.0578 18.3891 7.15304 18.5673 7.29289 18.7071C7.43275 18.847 7.61093 18.9422 7.80491 18.9808C7.99889 19.0194 8.19996 18.9996 8.38268 18.9239C8.56541 18.8482 8.72159 18.72 8.83147 18.5556C8.94135 18.3911 9 18.1978 9 18C9 17.7348 8.89464 17.4804 8.70711 17.2929C8.51957 17.1054 8.26522 17 8 17ZM8 11C7.80222 11 7.60888 11.0586 7.44443 11.1685C7.27998 11.2784 7.15181 11.4346 7.07612 11.6173C7.00043 11.8 6.98063 12.0011 7.01921 12.1951C7.0578 12.3891 7.15304 12.5673 7.29289 12.7071C7.43275 12.847 7.61093 12.9422 7.80491 12.9808C7.99889 13.0194 8.19996 12.9996 8.38268 12.9239C8.56541 12.8482 8.72159 12.72 8.83147 12.5556C8.94135 12.3911 9 12.1978 9 12C9 11.7348 8.89464 11.4804 8.70711 11.2929C8.51957 11.1054 8.26522 11 8 11ZM16 2H8C6.93913 2 5.92172 2.42143 5.17157 3.17157C4.42143 3.92172 4 4.93913 4 6V18C4 19.0609 4.42143 20.0783 5.17157 20.8284C5.92172 21.5786 6.93913 22 8 22H16C17.0609 22 18.0783 21.5786 18.8284 20.8284C19.5786 20.0783 20 19.0609 20 18V6C20 4.93913 19.5786 3.92172 18.8284 3.17157C18.0783 2.42143 17.0609 2 16 2ZM18 18C18 18.5304 17.7893 19.0391 17.4142 19.4142C17.0391 19.7893 16.5304 20 16 20H8C7.46957 20 6.96086 19.7893 6.58579 19.4142C6.21071 19.0391 6 18.5304 6 18V15.44C6.60399 15.8036 7.29504 15.997 8 16H16C16.705 15.997 17.396 15.8036 18 15.44V18ZM18 12C18 12.5304 17.7893 13.0391 17.4142 13.4142C17.0391 13.7893 16.5304 14 16 14H8C7.46957 14 6.96086 13.7893 6.58579 13.4142C6.21071 13.0391 6 12.5304 6 12V9.44C6.60399 9.80355 7.29504 9.99705 8 10H16C16.705 9.99705 17.396 9.80355 18 9.44V12ZM16 8H8C7.46957 8 6.96086 7.78929 6.58579 7.41421C6.21071 7.03914 6 6.53043 6 6C6 5.46957 6.21071 4.96086 6.58579 4.58579C6.96086 4.21071 7.46957 4 8 4H16C16.5304 4 17.0391 4.21071 17.4142 4.58579C17.7893 4.96086 18 5.46957 18 6C18 6.53043 17.7893 7.03914 17.4142 7.41421C17.0391 7.78929 16.5304 8 16 8Z" />
</svg>
