<svg width="24" height="24" viewBox="0 0 24 24" xmlns="http://www.w3.org/2000/svg">
<path d="M11.2896 12.29C11.1486 12.4299 11.0524 12.6086 11.0134 12.8033C10.9743 12.9981 10.9941 13.2 11.0703 13.3835C11.1464 13.5669 11.2755 13.7235 11.441 13.8333C11.6066 13.9431 11.801 14.0012 11.9996 14H12.1896C12.2559 13.9907 12.3201 13.9705 12.3796 13.94C12.4411 13.92 12.4986 13.8896 12.5496 13.85L12.6996 13.73C12.7934 13.637 12.8678 13.5264 12.9185 13.4046C12.9693 13.2827 12.9954 13.152 12.9954 13.02C12.9954 12.888 12.9693 12.7573 12.9185 12.6354C12.8678 12.5136 12.7934 12.403 12.6996 12.31C12.5149 12.1211 12.263 12.0129 11.9988 12.0092C11.7346 12.0054 11.4796 12.1064 11.2896 12.29ZM11.9996 15C11.7344 15 11.4801 15.1054 11.2925 15.2929C11.105 15.4804 10.9996 15.7348 10.9996 16V19C10.9996 19.2652 11.105 19.5196 11.2925 19.7071C11.4801 19.8946 11.7344 20 11.9996 20C12.2649 20 12.5192 19.8946 12.7068 19.7071C12.8943 19.5196 12.9996 19.2652 12.9996 19V16C12.9996 15.7348 12.8943 15.4804 12.7068 15.2929C12.5192 15.1054 12.2649 15 11.9996 15ZM18.4196 8.22C17.8086 6.81601 16.7541 5.65108 15.4177 4.90373C14.0813 4.15638 12.5367 3.86783 11.0206 4.08231C9.50452 4.29679 8.10057 5.00245 7.0239 6.09118C5.94723 7.1799 5.25723 8.59162 5.05965 10.11C4.10623 10.3383 3.26987 10.9088 2.70938 11.7132C2.1489 12.5175 1.90333 13.4997 2.01931 14.4732C2.13529 15.4467 2.60474 16.3437 3.33851 16.9939C4.07229 17.644 5.01928 18.0021 5.99965 18H7.99965C8.26486 18 8.51922 17.8946 8.70675 17.7071C8.89429 17.5196 8.99965 17.2652 8.99965 17C8.99965 16.7348 8.89429 16.4804 8.70675 16.2929C8.51922 16.1054 8.26486 16 7.99965 16H5.99965C5.46921 16 4.96051 15.7893 4.58543 15.4142C4.21036 15.0391 3.99965 14.5304 3.99965 14C3.99965 13.4696 4.21036 12.9609 4.58543 12.5858C4.96051 12.2107 5.46921 12 5.99965 12C6.26486 12 6.51922 11.8946 6.70675 11.7071C6.89429 11.5196 6.99965 11.2652 6.99965 11C7.0022 9.81728 7.42393 8.67376 8.18992 7.77259C8.9559 6.87142 10.0165 6.27095 11.1834 6.07788C12.3503 5.8848 13.5478 6.11161 14.5632 6.71801C15.5787 7.32441 16.3463 8.27114 16.7296 9.39C16.7868 9.56184 16.8896 9.71493 17.0269 9.83294C17.1643 9.95094 17.3312 10.0294 17.5096 10.06C18.2038 10.1797 18.8337 10.5399 19.289 11.0775C19.7442 11.615 19.9958 12.2956 19.9996 13C19.9996 13.7957 19.6836 14.5587 19.121 15.1213C18.5584 15.6839 17.7953 16 16.9996 16H15.9996C15.7344 16 15.4801 16.1054 15.2925 16.2929C15.105 16.4804 14.9996 16.7348 14.9996 17C14.9996 17.2652 15.105 17.5196 15.2925 17.7071C15.4801 17.8946 15.7344 18 15.9996 18H16.9996C18.1933 17.989 19.3436 17.5513 20.2426 16.7661C21.1416 15.9809 21.7301 14.8999 21.9016 13.7187C22.0731 12.5374 21.8164 11.3337 21.1778 10.3252C20.5392 9.31675 19.5608 8.57002 18.4196 8.22Z" />
</svg>
