<svg width="24" height="24" viewBox="0 0 24 24" xmlns="http://www.w3.org/2000/svg">
<path d="M18.4203 7.72C17.8092 6.31601 16.7547 5.15108 15.4183 4.40373C14.0819 3.65638 12.5373 3.36783 11.0212 3.58231C9.50513 3.79679 8.10118 4.50245 7.02451 5.59118C5.94784 6.6799 5.25784 8.09162 5.06025 9.61C4.22247 9.81405 3.47306 10.2834 2.9237 10.948C2.37435 11.6126 2.05447 12.437 2.01175 13.2982C1.96903 14.1594 2.20574 15.0114 2.68662 15.7271C3.16749 16.4428 3.86678 16.984 4.68025 17.27C4.78397 17.3019 4.89174 17.3188 5.00025 17.32C5.26547 17.3624 5.53668 17.2978 5.75422 17.1402C5.97177 16.9827 6.11782 16.7452 6.16025 16.48C6.20269 16.2148 6.13803 15.9436 5.9805 15.726C5.82297 15.5085 5.58547 15.3624 5.32026 15.32C4.94317 15.1839 4.61569 14.9376 4.38031 14.613C4.14493 14.2885 4.01252 13.9007 4.00025 13.5C4.00025 12.9696 4.21097 12.4609 4.58604 12.0858C4.96111 11.7107 5.46982 11.5 6.00025 11.5C6.26547 11.5 6.51983 11.3946 6.70736 11.2071C6.8949 11.0196 7.00026 10.7652 7.00026 10.5C7.00281 9.31728 7.42454 8.17375 8.19052 7.27259C8.95651 6.37142 10.0171 5.77095 11.184 5.57788C12.3509 5.3848 13.5484 5.61161 14.5638 6.21801C15.5793 6.82441 16.3469 7.77114 16.7303 8.89C16.7874 9.06184 16.8902 9.21493 17.0275 9.33293C17.1649 9.45094 17.3318 9.52942 17.5103 9.56C18.1116 9.66884 18.6654 9.95873 19.0974 10.3909C19.5295 10.823 19.8193 11.3768 19.9281 11.9782C20.0368 12.5796 19.9593 13.1998 19.7059 13.7559C19.4526 14.312 19.0354 14.7775 18.5103 15.09C18.2795 15.2226 18.1109 15.4414 18.0415 15.6984C17.9721 15.9553 18.0076 16.2293 18.1403 16.46C18.2729 16.6907 18.4917 16.8593 18.7486 16.9287C19.0056 16.9981 19.2795 16.9626 19.5103 16.83C20.2685 16.3899 20.8976 15.7582 21.3347 14.9982C21.7717 14.2382 22.0012 13.3767 22.0003 12.5C21.9972 11.4241 21.6472 10.3779 21.0023 9.51681C20.3573 8.65568 19.4518 8.02555 18.4203 7.72ZM12.0003 12.83C11.4463 12.5429 10.8153 12.4396 10.1987 12.5349C9.58208 12.6301 9.01176 12.9191 8.57025 13.36C8.02493 13.9089 7.71888 14.6513 7.71888 15.425C7.71888 16.1987 8.02493 16.9411 8.57025 17.49L11.2903 20.21C11.3832 20.3037 11.4938 20.3781 11.6157 20.4289C11.7375 20.4797 11.8682 20.5058 12.0003 20.5058C12.1323 20.5058 12.263 20.4797 12.3848 20.4289C12.5067 20.3781 12.6173 20.3037 12.7103 20.21L15.4303 17.49C15.9756 16.9411 16.2816 16.1987 16.2816 15.425C16.2816 14.6513 15.9756 13.9089 15.4303 13.36C14.9887 12.9191 14.4184 12.6301 13.8018 12.5349C13.1852 12.4396 12.5542 12.5429 12.0003 12.83ZM14.0003 16.07L12.0003 18.07L10.0003 16.07C9.91294 15.9861 9.8439 15.885 9.79744 15.7732C9.75098 15.6613 9.72811 15.5411 9.73025 15.42C9.7287 15.299 9.75185 15.1789 9.79827 15.0672C9.84469 14.9554 9.91342 14.8543 10.0003 14.77C10.1727 14.5978 10.4065 14.5011 10.6503 14.5011C10.894 14.5011 11.1278 14.5978 11.3003 14.77C11.3932 14.8637 11.5038 14.9381 11.6257 14.9889C11.7475 15.0397 11.8782 15.0658 12.0103 15.0658C12.1423 15.0658 12.273 15.0397 12.3948 14.9889C12.5167 14.9381 12.6273 14.8637 12.7203 14.77C12.8952 14.6025 13.1281 14.509 13.3703 14.509C13.6124 14.509 13.8453 14.6025 14.0203 14.77C14.1071 14.8543 14.1758 14.9554 14.2222 15.0672C14.2687 15.1789 14.2918 15.299 14.2903 15.42C14.2898 15.5426 14.2638 15.6637 14.2139 15.7756C14.164 15.8876 14.0912 15.9878 14.0003 16.07Z" />
</svg>
