<svg width="24" height="24" viewBox="0 0 24 24" xmlns="http://www.w3.org/2000/svg">
<path d="M18.4203 6.72C17.8092 5.31601 16.7547 4.15108 15.4183 3.40373C14.0819 2.65638 12.5373 2.36783 11.0212 2.58231C9.50513 2.79679 8.10118 3.50245 7.02451 4.59118C5.94784 5.6799 5.25784 7.09162 5.06025 8.61C4.22247 8.81405 3.47306 9.28337 2.9237 9.948C2.37435 10.6126 2.05447 11.437 2.01175 12.2982C1.96903 13.1594 2.20574 14.0114 2.68662 14.7271C3.16749 15.4428 3.86678 15.984 4.68025 16.27C4.78397 16.3019 4.89174 16.3188 5.00025 16.32C5.26547 16.3624 5.53668 16.2978 5.75422 16.1402C5.97177 15.9827 6.11782 15.7452 6.16025 15.48C6.20269 15.2148 6.13803 14.9436 5.9805 14.726C5.82297 14.5085 5.58547 14.3624 5.32026 14.32C4.94317 14.1839 4.61569 13.9376 4.38031 13.613C4.14493 13.2885 4.01252 12.9007 4.00025 12.5C4.00025 11.9696 4.21097 11.4609 4.58604 11.0858C4.96111 10.7107 5.46982 10.5 6.00025 10.5C6.26547 10.5 6.51983 10.3946 6.70736 10.2071C6.8949 10.0196 7.00026 9.76522 7.00026 9.5C7.00281 8.31728 7.42454 7.17375 8.19052 6.27259C8.95651 5.37142 10.0171 4.77095 11.184 4.57788C12.3509 4.3848 13.5484 4.61161 14.5638 5.21801C15.5793 5.82441 16.3469 6.77114 16.7303 7.89C16.7874 8.06184 16.8902 8.21493 17.0275 8.33293C17.1649 8.45094 17.3318 8.52942 17.5103 8.56C18.1116 8.66884 18.6654 8.95873 19.0974 9.39089C19.5295 9.82304 19.8193 10.3768 19.9281 10.9782C20.0368 11.5796 19.9593 12.1998 19.7059 12.7559C19.4526 13.312 19.0354 13.7775 18.5103 14.09C18.2795 14.2226 18.1109 14.4414 18.0415 14.6984C17.9721 14.9553 18.0076 15.2293 18.1403 15.46C18.2729 15.6907 18.4917 15.8594 18.7486 15.9287C19.0056 15.9981 19.2795 15.9626 19.5103 15.83C20.2685 15.3899 20.8976 14.7582 21.3347 13.9982C21.7717 13.2382 22.0012 12.3767 22.0003 11.5C21.9972 10.4241 21.6472 9.37794 21.0023 8.51681C20.3573 7.65568 19.4518 7.02555 18.4203 6.72ZM15.0003 15.72V14.5C15.0003 13.7044 14.6842 12.9413 14.1216 12.3787C13.559 11.8161 12.7959 11.5 12.0003 11.5C11.2046 11.5 10.4415 11.8161 9.87893 12.3787C9.31633 12.9413 9.00026 13.7044 9.00026 14.5V15.68C8.33888 15.92 7.7829 16.3848 7.42948 16.9931C7.07607 17.6015 6.94772 18.3147 7.06686 19.0081C7.186 19.7015 7.54505 20.331 8.08126 20.7865C8.61747 21.242 9.29671 21.4945 10.0003 21.5H14.0003C14.7038 21.4945 15.383 21.242 15.9192 20.7865C16.4555 20.331 16.8145 19.7015 16.9337 19.0081C17.0528 18.3147 16.9244 17.6015 16.571 16.9931C16.2176 16.3848 15.6616 15.92 15.0003 15.68V15.72ZM11.0003 14.5C11.0003 14.2348 11.1056 13.9804 11.2931 13.7929C11.4807 13.6054 11.735 13.5 12.0003 13.5C12.2655 13.5 12.5198 13.6054 12.7074 13.7929C12.8949 13.9804 13.0003 14.2348 13.0003 14.5V15.5H11.0003V14.5ZM14.0003 19.5H10.0003C9.73504 19.5 9.48068 19.3946 9.29315 19.2071C9.10561 19.0196 9.00026 18.7652 9.00026 18.5C9.00026 18.2348 9.10561 17.9804 9.29315 17.7929C9.48068 17.6054 9.73504 17.5 10.0003 17.5H14.0003C14.2655 17.5 14.5198 17.6054 14.7074 17.7929C14.8949 17.9804 15.0003 18.2348 15.0003 18.5C15.0003 18.7652 14.8949 19.0196 14.7074 19.2071C14.5198 19.3946 14.2655 19.5 14.0003 19.5Z" />
</svg>
