<svg width="24" height="24" viewBox="0 0 24 24" xmlns="http://www.w3.org/2000/svg">
<path d="M15.0003 12.5C14.8068 12.5013 14.6178 12.5586 14.4563 12.6651C14.2948 12.7716 14.1676 12.9227 14.0903 13.1C13.4595 12.7108 12.733 12.5045 11.9918 12.5041C11.2507 12.5038 10.524 12.7093 9.8928 13.0979C9.26165 13.4865 8.75086 14.0427 8.41743 14.7047C8.084 15.3666 7.94105 16.1082 8.00451 16.8466C8.06797 17.5851 8.33535 18.2914 8.77683 18.8867C9.2183 19.4821 9.81651 19.943 10.5047 20.2182C11.1929 20.4934 11.944 20.572 12.6743 20.4451C13.4045 20.3183 14.0851 19.9911 14.6403 19.5C14.7454 19.4153 14.8323 19.3102 14.8957 19.1911C14.9591 19.0719 14.9978 18.9411 15.0093 18.8066C15.0209 18.6721 15.005 18.5367 14.9628 18.4085C14.9206 18.2803 14.8529 18.1619 14.7637 18.0606C14.6745 17.9592 14.5657 17.877 14.4439 17.8188C14.3221 17.7607 14.1898 17.7277 14.0549 17.7221C13.92 17.7164 13.7854 17.7381 13.6592 17.7859C13.5329 17.8337 13.4176 17.9065 13.3203 18C12.9556 18.3216 12.4864 18.4993 12.0003 18.5C11.6964 18.4951 11.3977 18.4211 11.1268 18.2835C10.8559 18.1459 10.6199 17.9484 10.4367 17.7059C10.2536 17.4635 10.128 17.1825 10.0697 16.8843C10.0113 16.5861 10.0217 16.2785 10.1 15.9849C10.1783 15.6913 10.3225 15.4194 10.5215 15.1899C10.7206 14.9603 10.9694 14.7792 11.2489 14.6601C11.5285 14.5411 11.8315 14.4873 12.135 14.5029C12.4384 14.5185 12.7343 14.603 13.0003 14.75H12.7803C12.515 14.75 12.2607 14.8554 12.0731 15.0429C11.8856 15.2304 11.7803 15.4848 11.7803 15.75C11.7803 16.0152 11.8856 16.2696 12.0731 16.4571C12.2607 16.6446 12.515 16.75 12.7803 16.75H15.0003C15.2655 16.75 15.5198 16.6446 15.7074 16.4571C15.8949 16.2696 16.0003 16.0152 16.0003 15.75V13.5C16.0003 13.2348 15.8949 12.9804 15.7074 12.7929C15.5198 12.6054 15.2655 12.5 15.0003 12.5ZM18.4203 7.72C17.8092 6.31601 16.7547 5.15108 15.4183 4.40373C14.0819 3.65638 12.5373 3.36783 11.0212 3.58231C9.50513 3.79679 8.10118 4.50245 7.02451 5.59118C5.94784 6.6799 5.25784 8.09162 5.06025 9.61C4.22247 9.81405 3.47306 10.2834 2.9237 10.948C2.37435 11.6126 2.05447 12.437 2.01175 13.2982C1.96903 14.1594 2.20574 15.0114 2.68662 15.7271C3.16749 16.4428 3.86678 16.984 4.68025 17.27C4.78397 17.3019 4.89174 17.3188 5.00025 17.32C5.26547 17.3624 5.53668 17.2978 5.75422 17.1402C5.97177 16.9827 6.11782 16.7452 6.16025 16.48C6.20269 16.2148 6.13803 15.9436 5.9805 15.726C5.82297 15.5085 5.58547 15.3624 5.32026 15.32C4.94317 15.1839 4.61569 14.9376 4.38031 14.613C4.14493 14.2885 4.01252 13.9007 4.00025 13.5C4.00025 12.9696 4.21097 12.4609 4.58604 12.0858C4.96111 11.7107 5.46982 11.5 6.00025 11.5C6.26547 11.5 6.51983 11.3946 6.70736 11.2071C6.8949 11.0196 7.00026 10.7652 7.00026 10.5C7.00281 9.31728 7.42454 8.17375 8.19052 7.27259C8.95651 6.37142 10.0171 5.77095 11.184 5.57788C12.3509 5.3848 13.5484 5.61161 14.5638 6.21801C15.5793 6.82441 16.3469 7.77114 16.7303 8.89C16.7874 9.06184 16.8902 9.21493 17.0275 9.33293C17.1649 9.45094 17.3318 9.52942 17.5103 9.56C18.1116 9.66884 18.6654 9.95873 19.0974 10.3909C19.5295 10.823 19.8193 11.3768 19.9281 11.9782C20.0368 12.5796 19.9593 13.1998 19.7059 13.7559C19.4526 14.312 19.0354 14.7775 18.5103 15.09C18.2795 15.2226 18.1109 15.4414 18.0415 15.6984C17.9721 15.9553 18.0076 16.2293 18.1403 16.46C18.2729 16.6907 18.4917 16.8593 18.7486 16.9287C19.0056 16.9981 19.2795 16.9626 19.5103 16.83C20.2685 16.3899 20.8976 15.7582 21.3347 14.9982C21.7717 14.2382 22.0012 13.3767 22.0003 12.5C21.9972 11.4241 21.6472 10.3779 21.0023 9.51681C20.3573 8.65568 19.4518 8.02555 18.4203 7.72Z" />
</svg>
