<svg width="24" height="24" viewBox="0 0 24 24" xmlns="http://www.w3.org/2000/svg">
<path d="M8 17C7.80222 17 7.60888 17.0586 7.44443 17.1685C7.27998 17.2784 7.15181 17.4346 7.07612 17.6173C7.00043 17.8 6.98063 18.0011 7.01921 18.1951C7.0578 18.3891 7.15304 18.5673 7.29289 18.7071C7.43275 18.847 7.61093 18.9422 7.80491 18.9808C7.99889 19.0194 8.19996 18.9996 8.38268 18.9239C8.56541 18.8482 8.72159 18.72 8.83147 18.5556C8.94135 18.3911 9 18.1978 9 18C9 17.7348 8.89464 17.4804 8.70711 17.2929C8.51957 17.1054 8.26522 17 8 17ZM8 11C7.80222 11 7.60888 11.0586 7.44443 11.1685C7.27998 11.2784 7.15181 11.4346 7.07612 11.6173C7.00043 11.8 6.98063 12.0011 7.01921 12.1951C7.0578 12.3891 7.15304 12.5673 7.29289 12.7071C7.43275 12.847 7.61093 12.9422 7.80491 12.9808C7.99889 13.0194 8.19996 12.9996 8.38268 12.9239C8.56541 12.8482 8.72159 12.72 8.83147 12.5556C8.94135 12.3911 9 12.1978 9 12C9 11.7348 8.89464 11.4804 8.70711 11.2929C8.51957 11.1054 8.26522 11 8 11ZM8 5C7.80222 5 7.60888 5.05865 7.44443 5.16853C7.27998 5.27841 7.15181 5.43459 7.07612 5.61732C7.00043 5.80004 6.98063 6.00111 7.01921 6.19509C7.0578 6.38907 7.15304 6.56725 7.29289 6.70711C7.43275 6.84696 7.61093 6.9422 7.80491 6.98079C7.99889 7.01937 8.19996 6.99957 8.38268 6.92388C8.56541 6.84819 8.72159 6.72002 8.83147 6.55557C8.94135 6.39112 9 6.19778 9 6C9 5.73478 8.89464 5.48043 8.70711 5.29289C8.51957 5.10536 8.26522 5 8 5ZM20 5C20 4.20435 19.6839 3.44129 19.1213 2.87868C18.5587 2.31607 17.7956 2 17 2H7C6.20435 2 5.44129 2.31607 4.87868 2.87868C4.31607 3.44129 4 4.20435 4 5V7C4.00441 7.74005 4.28221 8.45236 4.78 9C4.28221 9.54764 4.00441 10.2599 4 11V13C4.00441 13.7401 4.28221 14.4524 4.78 15C4.28221 15.5476 4.00441 16.2599 4 17V19C4 19.7956 4.31607 20.5587 4.87868 21.1213C5.44129 21.6839 6.20435 22 7 22H17C17.7956 22 18.5587 21.6839 19.1213 21.1213C19.6839 20.5587 20 19.7956 20 19V17C19.9956 16.2599 19.7178 15.5476 19.22 15C19.7178 14.4524 19.9956 13.7401 20 13V11C19.9956 10.2599 19.7178 9.54764 19.22 9C19.7178 8.45236 19.9956 7.74005 20 7V5ZM18 19C18 19.2652 17.8946 19.5196 17.7071 19.7071C17.5196 19.8946 17.2652 20 17 20H7C6.73478 20 6.48043 19.8946 6.29289 19.7071C6.10536 19.5196 6 19.2652 6 19V17C6 16.7348 6.10536 16.4804 6.29289 16.2929C6.48043 16.1054 6.73478 16 7 16H17C17.2652 16 17.5196 16.1054 17.7071 16.2929C17.8946 16.4804 18 16.7348 18 17V19ZM18 13C18 13.2652 17.8946 13.5196 17.7071 13.7071C17.5196 13.8946 17.2652 14 17 14H7C6.73478 14 6.48043 13.8946 6.29289 13.7071C6.10536 13.5196 6 13.2652 6 13V11C6 10.7348 6.10536 10.4804 6.29289 10.2929C6.48043 10.1054 6.73478 10 7 10H17C17.2652 10 17.5196 10.1054 17.7071 10.2929C17.8946 10.4804 18 10.7348 18 11V13ZM18 7C18 7.26522 17.8946 7.51957 17.7071 7.70711C17.5196 7.89464 17.2652 8 17 8H7C6.73478 8 6.48043 7.89464 6.29289 7.70711C6.10536 7.51957 6 7.26522 6 7V5C6 4.73478 6.10536 4.48043 6.29289 4.29289C6.48043 4.10536 6.73478 4 7 4H17C17.2652 4 17.5196 4.10536 17.7071 4.29289C17.8946 4.48043 18 4.73478 18 5V7Z" />
</svg>
