<svg width="24" height="24" viewBox="0 0 24 24" xmlns="http://www.w3.org/2000/svg">
<path d="M15 17C14.8022 17 14.6089 17.0586 14.4444 17.1685C14.28 17.2784 14.1518 17.4346 14.0761 17.6173C14.0004 17.8 13.9806 18.0011 14.0192 18.1951C14.0578 18.3891 14.153 18.5673 14.2929 18.7071C14.4327 18.847 14.6109 18.9422 14.8049 18.9808C14.9989 19.0194 15.2 18.9996 15.3827 18.9239C15.5654 18.8482 15.7216 18.72 15.8315 18.5556C15.9414 18.3911 16 18.1978 16 18C16 17.7348 15.8946 17.4804 15.7071 17.2929C15.5196 17.1054 15.2652 17 15 17ZM11 17H9C8.73478 17 8.48043 17.1054 8.29289 17.2929C8.10536 17.4804 8 17.7348 8 18C8 18.2652 8.10536 18.5196 8.29289 18.7071C8.48043 18.8946 8.73478 19 9 19H11C11.2652 19 11.5196 18.8946 11.7071 18.7071C11.8946 18.5196 12 18.2652 12 18C12 17.7348 11.8946 17.4804 11.7071 17.2929C11.5196 17.1054 11.2652 17 11 17ZM11 11H9C8.73478 11 8.48043 11.1054 8.29289 11.2929C8.10536 11.4804 8 11.7348 8 12C8 12.2652 8.10536 12.5196 8.29289 12.7071C8.48043 12.8946 8.73478 13 9 13H11C11.2652 13 11.5196 12.8946 11.7071 12.7071C11.8946 12.5196 12 12.2652 12 12C12 11.7348 11.8946 11.4804 11.7071 11.2929C11.5196 11.1054 11.2652 11 11 11ZM15 11C14.8022 11 14.6089 11.0586 14.4444 11.1685C14.28 11.2784 14.1518 11.4346 14.0761 11.6173C14.0004 11.8 13.9806 12.0011 14.0192 12.1951C14.0578 12.3891 14.153 12.5673 14.2929 12.7071C14.4327 12.847 14.6109 12.9422 14.8049 12.9808C14.9989 13.0194 15.2 12.9996 15.3827 12.9239C15.5654 12.8482 15.7216 12.72 15.8315 12.5556C15.9414 12.3911 16 12.1978 16 12C16 11.7348 15.8946 11.4804 15.7071 11.2929C15.5196 11.1054 15.2652 11 15 11ZM23 8C23 7.20435 22.6839 6.44129 22.1213 5.87868C21.5587 5.31607 20.7956 5 20 5H19C19 4.20435 18.6839 3.44129 18.1213 2.87868C17.5587 2.31607 16.7956 2 16 2H8C7.20435 2 6.44129 2.31607 5.87868 2.87868C5.31607 3.44129 5 4.20435 5 5H4C3.20435 5 2.44129 5.31607 1.87868 5.87868C1.31607 6.44129 1 7.20435 1 8V10C1.00441 10.7401 1.28221 11.4524 1.78 12C1.28221 12.5476 1.00441 13.2599 1 14V16C1 16.7956 1.31607 17.5587 1.87868 18.1213C2.44129 18.6839 3.20435 19 4 19H5C5 19.7956 5.31607 20.5587 5.87868 21.1213C6.44129 21.6839 7.20435 22 8 22H16C16.7956 22 17.5587 21.6839 18.1213 21.1213C18.6839 20.5587 19 19.7956 19 19H20C20.7956 19 21.5587 18.6839 22.1213 18.1213C22.6839 17.5587 23 16.7956 23 16V14C22.9956 13.2599 22.7178 12.5476 22.22 12C22.7178 11.4524 22.9956 10.7401 23 10V8ZM5 17H4C3.73478 17 3.48043 16.8946 3.29289 16.7071C3.10536 16.5196 3 16.2652 3 16V14C3 13.7348 3.10536 13.4804 3.29289 13.2929C3.48043 13.1054 3.73478 13 4 13H5C5.00441 13.7401 5.28221 14.4524 5.78 15C5.28221 15.5476 5.00441 16.2599 5 17ZM5 11H4C3.73478 11 3.48043 10.8946 3.29289 10.7071C3.10536 10.5196 3 10.2652 3 10V8C3 7.73478 3.10536 7.48043 3.29289 7.29289C3.48043 7.10536 3.73478 7 4 7H5C5.00441 7.74005 5.28221 8.45236 5.78 9C5.28221 9.54764 5.00441 10.2599 5 11ZM17 19C17 19.2652 16.8946 19.5196 16.7071 19.7071C16.5196 19.8946 16.2652 20 16 20H8C7.73478 20 7.48043 19.8946 7.29289 19.7071C7.10536 19.5196 7 19.2652 7 19V17C7 16.7348 7.10536 16.4804 7.29289 16.2929C7.48043 16.1054 7.73478 16 8 16H16C16.2652 16 16.5196 16.1054 16.7071 16.2929C16.8946 16.4804 17 16.7348 17 17V19ZM17 13C17 13.2652 16.8946 13.5196 16.7071 13.7071C16.5196 13.8946 16.2652 14 16 14H8C7.73478 14 7.48043 13.8946 7.29289 13.7071C7.10536 13.5196 7 13.2652 7 13V11C7 10.7348 7.10536 10.4804 7.29289 10.2929C7.48043 10.1054 7.73478 10 8 10H16C16.2652 10 16.5196 10.1054 16.7071 10.2929C16.8946 10.4804 17 10.7348 17 11V13ZM17 7C17 7.26522 16.8946 7.51957 16.7071 7.70711C16.5196 7.89464 16.2652 8 16 8H8C7.73478 8 7.48043 7.89464 7.29289 7.70711C7.10536 7.51957 7 7.26522 7 7V5C7 4.73478 7.10536 4.48043 7.29289 4.29289C7.48043 4.10536 7.73478 4 8 4H16C16.2652 4 16.5196 4.10536 16.7071 4.29289C16.8946 4.48043 17 4.73478 17 5V7ZM21 16C21 16.2652 20.8946 16.5196 20.7071 16.7071C20.5196 16.8946 20.2652 17 20 17H19C18.9956 16.2599 18.7178 15.5476 18.22 15C18.7178 14.4524 18.9956 13.7401 19 13H20C20.2652 13 20.5196 13.1054 20.7071 13.2929C20.8946 13.4804 21 13.7348 21 14V16ZM21 10C21 10.2652 20.8946 10.5196 20.7071 10.7071C20.5196 10.8946 20.2652 11 20 11H19C18.9956 10.2599 18.7178 9.54764 18.22 9C18.7178 8.45236 18.9956 7.74005 19 7H20C20.2652 7 20.5196 7.10536 20.7071 7.29289C20.8946 7.48043 21 7.73478 21 8V10ZM15 5C14.8022 5 14.6089 5.05865 14.4444 5.16853C14.28 5.27841 14.1518 5.43459 14.0761 5.61732C14.0004 5.80004 13.9806 6.00111 14.0192 6.19509C14.0578 6.38907 14.153 6.56725 14.2929 6.70711C14.4327 6.84696 14.6109 6.9422 14.8049 6.98079C14.9989 7.01937 15.2 6.99957 15.3827 6.92388C15.5654 6.84819 15.7216 6.72002 15.8315 6.55557C15.9414 6.39112 16 6.19778 16 6C16 5.73478 15.8946 5.48043 15.7071 5.29289C15.5196 5.10536 15.2652 5 15 5ZM11 5H9C8.73478 5 8.48043 5.10536 8.29289 5.29289C8.10536 5.48043 8 5.73478 8 6C8 6.26522 8.10536 6.51957 8.29289 6.70711C8.48043 6.89464 8.73478 7 9 7H11C11.2652 7 11.5196 6.89464 11.7071 6.70711C11.8946 6.51957 12 6.26522 12 6C12 5.73478 11.8946 5.48043 11.7071 5.29289C11.5196 5.10536 11.2652 5 11 5Z" />
</svg>
