<svg width="24" height="24" viewBox="0 0 24 24" xmlns="http://www.w3.org/2000/svg">
<path d="M8 6H11C11.2652 6 11.5196 5.89464 11.7071 5.70711C11.8946 5.51957 12 5.26522 12 5C12 4.73478 11.8946 4.48043 11.7071 4.29289C11.5196 4.10536 11.2652 4 11 4H8C7.73478 4 7.48043 4.10536 7.29289 4.29289C7.10536 4.48043 7 4.73478 7 5C7 5.26522 7.10536 5.51957 7.29289 5.70711C7.48043 5.89464 7.73478 6 8 6ZM16 6C16.1978 6 16.3911 5.94135 16.5556 5.83147C16.72 5.72159 16.8482 5.56541 16.9239 5.38268C16.9996 5.19996 17.0194 4.99889 16.9808 4.80491C16.9422 4.61093 16.847 4.43275 16.7071 4.29289C16.5673 4.15304 16.3891 4.0578 16.1951 4.01921C16.0011 3.98063 15.8 4.00043 15.6173 4.07612C15.4346 4.15181 15.2784 4.27998 15.1685 4.44443C15.0586 4.60888 15 4.80222 15 5C15 5.26522 15.1054 5.51957 15.2929 5.70711C15.4804 5.89464 15.7348 6 16 6ZM16 10C15.8022 10 15.6089 10.0586 15.4444 10.1685C15.28 10.2784 15.1518 10.4346 15.0761 10.6173C15.0004 10.8 14.9806 11.0011 15.0192 11.1951C15.0578 11.3891 15.153 11.5673 15.2929 11.7071C15.4327 11.847 15.6109 11.9422 15.8049 11.9808C15.9989 12.0194 16.2 11.9996 16.3827 11.9239C16.5654 11.8482 16.7216 11.72 16.8315 11.5556C16.9414 11.3911 17 11.1978 17 11C17 10.7348 16.8946 10.4804 16.7071 10.2929C16.5196 10.1054 16.2652 10 16 10ZM21 19H14.82C14.6707 18.5806 14.4299 18.1997 14.1151 17.8849C13.8003 17.5701 13.4194 17.3293 13 17.18V15H17C17.7956 15 18.5587 14.6839 19.1213 14.1213C19.6839 13.5587 20 12.7956 20 12V10C19.9956 9.25994 19.7178 8.54764 19.22 8C19.7178 7.45236 19.9956 6.74005 20 6V4C20 3.20435 19.6839 2.44129 19.1213 1.87868C18.5587 1.31607 17.7956 1 17 1H7C6.20435 1 5.44129 1.31607 4.87868 1.87868C4.31607 2.44129 4 3.20435 4 4V6C4.00441 6.74005 4.28221 7.45236 4.78 8C4.28221 8.54764 4.00441 9.25994 4 10V12C4 12.7956 4.31607 13.5587 4.87868 14.1213C5.44129 14.6839 6.20435 15 7 15H11V17.18C10.5806 17.3293 10.1997 17.5701 9.8849 17.8849C9.57011 18.1997 9.32932 18.5806 9.18 19H3C2.73478 19 2.48043 19.1054 2.29289 19.2929C2.10536 19.4804 2 19.7348 2 20C2 20.2652 2.10536 20.5196 2.29289 20.7071C2.48043 20.8946 2.73478 21 3 21H9.18C9.3902 21.5792 9.77363 22.0795 10.2782 22.4332C10.7827 22.7868 11.3839 22.9765 12 22.9765C12.6161 22.9765 13.2173 22.7868 13.7218 22.4332C14.2264 22.0795 14.6098 21.5792 14.82 21H21C21.2652 21 21.5196 20.8946 21.7071 20.7071C21.8946 20.5196 22 20.2652 22 20C22 19.7348 21.8946 19.4804 21.7071 19.2929C21.5196 19.1054 21.2652 19 21 19ZM6 4C6 3.73478 6.10536 3.48043 6.29289 3.29289C6.48043 3.10536 6.73478 3 7 3H17C17.2652 3 17.5196 3.10536 17.7071 3.29289C17.8946 3.48043 18 3.73478 18 4V6C18 6.26522 17.8946 6.51957 17.7071 6.70711C17.5196 6.89464 17.2652 7 17 7H7C6.73478 7 6.48043 6.89464 6.29289 6.70711C6.10536 6.51957 6 6.26522 6 6V4ZM7 13C6.73478 13 6.48043 12.8946 6.29289 12.7071C6.10536 12.5196 6 12.2652 6 12V10C6 9.73478 6.10536 9.48043 6.29289 9.29289C6.48043 9.10536 6.73478 9 7 9H17C17.2652 9 17.5196 9.10536 17.7071 9.29289C17.8946 9.48043 18 9.73478 18 10V12C18 12.2652 17.8946 12.5196 17.7071 12.7071C17.5196 12.8946 17.2652 13 17 13H7ZM12 21C11.8022 21 11.6089 20.9414 11.4444 20.8315C11.28 20.7216 11.1518 20.5654 11.0761 20.3827C11.0004 20.2 10.9806 19.9989 11.0192 19.8049C11.0578 19.6109 11.153 19.4327 11.2929 19.2929C11.4327 19.153 11.6109 19.0578 11.8049 19.0192C11.9989 18.9806 12.2 19.0004 12.3827 19.0761C12.5654 19.1518 12.7216 19.28 12.8315 19.4444C12.9414 19.6089 13 19.8022 13 20C13 20.2652 12.8946 20.5196 12.7071 20.7071C12.5196 20.8946 12.2652 21 12 21ZM11 10H8C7.73478 10 7.48043 10.1054 7.29289 10.2929C7.10536 10.4804 7 10.7348 7 11C7 11.2652 7.10536 11.5196 7.29289 11.7071C7.48043 11.8946 7.73478 12 8 12H11C11.2652 12 11.5196 11.8946 11.7071 11.7071C11.8946 11.5196 12 11.2652 12 11C12 10.7348 11.8946 10.4804 11.7071 10.2929C11.5196 10.1054 11.2652 10 11 10Z" />
</svg>
