<svg width="24" height="24" viewBox="0 0 24 24" xmlns="http://www.w3.org/2000/svg">
<path d="M18.4203 7.22C17.8092 5.816 16.7547 4.65108 15.4183 3.90373C14.0819 3.15638 12.5373 2.86783 11.0212 3.08231C9.50513 3.29679 8.10118 4.00245 7.02451 5.09117C5.94784 6.1799 5.25784 7.59161 5.06025 9.11C4.22247 9.31405 3.47306 9.78337 2.9237 10.448C2.37435 11.1126 2.05447 11.937 2.01175 12.7982C1.96903 13.6594 2.20574 14.5114 2.68662 15.2271C3.16749 15.9428 3.86678 16.484 4.68025 16.77C4.78397 16.8019 4.89174 16.8188 5.00025 16.82C5.26547 16.8624 5.53668 16.7978 5.75422 16.6402C5.97177 16.4827 6.11782 16.2452 6.16025 15.98C6.20269 15.7148 6.13803 15.4436 5.9805 15.226C5.82297 15.0085 5.58547 14.8624 5.32026 14.82C4.94317 14.6839 4.61569 14.4376 4.38031 14.113C4.14493 13.7885 4.01252 13.4007 4.00025 13C4.00025 12.4696 4.21097 11.9609 4.58604 11.5858C4.96111 11.2107 5.46982 11 6.00025 11C6.26547 11 6.51983 10.8946 6.70736 10.7071C6.8949 10.5196 7.00026 10.2652 7.00026 10C7.00281 8.81728 7.42454 7.67375 8.19052 6.77258C8.95651 5.87141 10.0171 5.27095 11.184 5.07787C12.3509 4.8848 13.5484 5.11161 14.5638 5.71801C15.5793 6.32441 16.3469 7.27114 16.7303 8.39C16.7874 8.56184 16.8902 8.71493 17.0275 8.83293C17.1649 8.95093 17.3318 9.02942 17.5103 9.06C18.1116 9.16884 18.6654 9.45873 19.0974 9.89088C19.5295 10.323 19.8193 10.8768 19.9281 11.4782C20.0368 12.0796 19.9593 12.6998 19.7059 13.2559C19.4526 13.812 19.0354 14.2775 18.5103 14.59C18.2795 14.7226 18.1109 14.9414 18.0415 15.1984C17.9721 15.4553 18.0076 15.7293 18.1403 15.96C18.2729 16.1907 18.4917 16.3593 18.7486 16.4287C19.0056 16.4981 19.2795 16.4626 19.5103 16.33C20.2685 15.8899 20.8976 15.2582 21.3347 14.4982C21.7717 13.7382 22.0012 12.8767 22.0003 12C21.9972 10.9241 21.6472 9.87794 21.0023 9.01681C20.3573 8.15568 19.4518 7.52554 18.4203 7.22ZM14.7903 11.66C14.4112 11.7425 14.0189 11.7432 13.6396 11.6621C13.2602 11.5811 12.9025 11.4201 12.5903 11.19C12.419 11.0649 12.2124 10.9974 12.0003 10.9974C11.7881 10.9974 11.5815 11.0649 11.4103 11.19C11.0983 11.4207 10.7406 11.582 10.3611 11.6631C9.98167 11.7442 9.58926 11.7431 9.21026 11.66C9.06419 11.6285 8.91292 11.6301 8.76756 11.6647C8.62219 11.6993 8.48643 11.766 8.37025 11.86C8.25554 11.9531 8.16287 12.0704 8.09889 12.2035C8.03492 12.3366 8.00123 12.4823 8.00026 12.63V16C7.99948 16.7171 8.16528 17.4246 8.48458 18.0667C8.80389 18.7087 9.26798 19.2679 9.84026 19.7L11.4103 20.85C11.5815 20.9751 11.7881 21.0426 12.0003 21.0426C12.2124 21.0426 12.419 20.9751 12.5903 20.85L14.1603 19.69C14.7329 19.2605 15.1974 18.7033 15.5169 18.0627C15.8363 17.4221 16.0018 16.7158 16.0003 16V12.63C15.9993 12.4823 15.9656 12.3366 15.9016 12.2035C15.8376 12.0704 15.745 11.9531 15.6303 11.86C15.5141 11.766 15.3783 11.6993 15.233 11.6647C15.0876 11.6301 14.9363 11.6285 14.7903 11.66ZM14.0003 16C13.9915 16.3865 13.8972 16.7663 13.7243 17.112C13.5514 17.4578 13.3042 17.7611 13.0003 18L12.0003 18.72L11.0003 18C10.6963 17.7611 10.4491 17.4578 10.2762 17.112C10.1033 16.7663 10.0091 16.3865 10.0003 16V13.72C10.6997 13.6886 11.3831 13.5006 12.0003 13.17C12.6174 13.5006 13.3008 13.6886 14.0003 13.72V16Z" />
</svg>
