<svg width="24" height="24" viewBox="0 0 24 24" xmlns="http://www.w3.org/2000/svg">
<path d="M7 6V11C7 11.2652 7.10536 11.5196 7.29289 11.7071C7.48043 11.8946 7.73478 12 8 12H11V20H9C8.73478 20 8.48043 20.1054 8.29289 20.2929C8.10536 20.4804 8 20.7348 8 21C8 21.2652 8.10536 21.5196 8.29289 21.7071C8.48043 21.8946 8.73478 22 9 22H15C15.2652 22 15.5196 21.8946 15.7071 21.7071C15.8946 21.5196 16 21.2652 16 21C16 20.7348 15.8946 20.4804 15.7071 20.2929C15.5196 20.1054 15.2652 20 15 20H13V12H18C18.1494 12.0005 18.297 11.9675 18.432 11.9035C18.567 11.8395 18.6859 11.746 18.78 11.63L20.78 9.13C20.922 8.95264 20.9994 8.73221 20.9994 8.505C20.9994 8.27779 20.922 8.05736 20.78 7.88L18.78 5.38C18.6869 5.26215 18.5684 5.16679 18.4334 5.101C18.2983 5.03521 18.1502 5.00069 18 5H13V3C13 2.73478 12.8946 2.48043 12.7071 2.29289C12.5196 2.10536 12.2652 2 12 2C11.7348 2 11.4804 2.10536 11.2929 2.29289C11.1054 2.48043 11 2.73478 11 3V5H8C7.73478 5 7.48043 5.10536 7.29289 5.29289C7.10536 5.48043 7 5.73478 7 6ZM9 7H17.52L18.72 8.5L17.52 10H9V7Z" />
</svg>
