<svg width="24" height="24" viewBox="0 0 24 24" xmlns="http://www.w3.org/2000/svg">
<path d="M12.4404 13.11L12.2704 13C12.0873 12.9247 11.886 12.9054 11.692 12.9445C11.4979 12.9837 11.3199 13.0796 11.1804 13.22C11.0839 13.3088 11.0087 13.4181 10.9604 13.54C10.9078 13.6633 10.8806 13.796 10.8804 13.93C10.8819 14.0607 10.9091 14.1898 10.9604 14.31C11.0678 14.5503 11.2601 14.7426 11.5004 14.85C11.6206 14.9013 11.7497 14.9284 11.8804 14.93C12.0142 14.9275 12.1464 14.9004 12.2704 14.85C12.3904 14.7983 12.4991 14.7236 12.5904 14.63C12.7766 14.4427 12.8812 14.1892 12.8812 13.925C12.8812 13.6608 12.7766 13.4074 12.5904 13.22L12.4404 13.11ZM11.8804 6.00002C11.4032 5.99465 10.9329 6.11353 10.5156 6.34496C10.0983 6.5764 9.74847 6.91243 9.50037 7.32002C9.42802 7.43384 9.37943 7.56112 9.35754 7.6942C9.33565 7.82728 9.34091 7.96341 9.373 8.09441C9.40509 8.2254 9.46334 8.34856 9.54425 8.45646C9.62517 8.56435 9.72708 8.65477 9.84384 8.72227C9.96061 8.78976 10.0898 8.83294 10.2237 8.8492C10.3576 8.86546 10.4934 8.85448 10.6229 8.8169C10.7524 8.77932 10.873 8.71593 10.9774 8.63054C11.0818 8.54515 11.1679 8.43953 11.2304 8.32002C11.3041 8.21745 11.402 8.1346 11.5154 8.0788C11.6287 8.02299 11.7541 7.99594 11.8804 8.00002C12.0793 8.00002 12.27 8.07904 12.4107 8.21969C12.5514 8.36034 12.6304 8.55111 12.6304 8.75002C12.6304 8.94893 12.5514 9.1397 12.4107 9.28035C12.27 9.421 12.0793 9.50002 11.8804 9.50002C11.6152 9.50002 11.3608 9.60538 11.1733 9.79291C10.9857 9.98045 10.8804 10.2348 10.8804 10.5C10.8804 10.7652 10.9857 11.0196 11.1733 11.2071C11.3608 11.3947 11.6152 11.5 11.8804 11.5C12.6097 11.5 13.3092 11.2103 13.8249 10.6946C14.3406 10.1788 14.6304 9.47937 14.6304 8.75002C14.6304 8.02068 14.3406 7.3212 13.8249 6.80548C13.3092 6.28975 12.6097 6.00002 11.8804 6.00002ZM20.4604 9.68002C20.3278 8.21463 19.8171 6.80875 18.9782 5.59993C18.1393 4.39111 17.001 3.42074 15.6747 2.78377C14.3483 2.14679 12.8793 1.86503 11.4114 1.96604C9.94352 2.06705 8.52697 2.54737 7.30037 3.36002C6.24957 4.06267 5.36742 4.98932 4.71731 6.07341C4.0672 7.1575 3.66526 8.37213 3.54037 9.63002C3.41785 10.8797 3.57504 12.1409 4.00054 13.3223C4.42604 14.5037 5.10917 15.5755 6.00037 16.46L11.3004 21.77C11.3933 21.8638 11.5039 21.9381 11.6258 21.9889C11.7477 22.0397 11.8784 22.0658 12.0104 22.0658C12.1424 22.0658 12.2731 22.0397 12.3949 21.9889C12.5168 21.9381 12.6274 21.8638 12.7204 21.77L18.0004 16.46C18.8916 15.5755 19.5747 14.5037 20.0002 13.3223C20.4257 12.1409 20.5829 10.8797 20.4604 9.63002V9.68002ZM16.6004 15.05L12.0004 19.65L7.40037 15.05C6.72246 14.3721 6.20317 13.5524 5.87984 12.6498C5.5565 11.7472 5.43715 10.7842 5.53037 9.83002C5.62419 8.86112 5.93213 7.92518 6.43194 7.08986C6.93175 6.25455 7.61093 5.54073 8.42037 5.00002C9.48131 4.29526 10.7267 3.91932 12.0004 3.91932C13.2741 3.91932 14.5194 4.29526 15.5804 5.00002C16.3874 5.53864 17.065 6.2493 17.5647 7.08096C18.0644 7.91262 18.3737 8.84462 18.4704 9.81002C18.5666 10.7674 18.4488 11.7343 18.1254 12.6406C17.8019 13.5468 17.281 14.3699 16.6004 15.05Z" />
</svg>
