<svg width="24" height="24" viewBox="0 0 24 24" xmlns="http://www.w3.org/2000/svg">
<path d="M12 10.8C12.3956 10.8 12.7822 10.6827 13.1111 10.463C13.44 10.2432 13.6964 9.93085 13.8478 9.56539C13.9991 9.19994 14.0387 8.79781 13.9616 8.40985C13.8844 8.02188 13.6939 7.66552 13.4142 7.38581C13.1345 7.10611 12.7781 6.91563 12.3902 6.83846C12.0022 6.76129 11.6001 6.80089 11.2346 6.95227C10.8692 7.10364 10.5568 7.35999 10.3371 7.68889C10.1173 8.01779 10 8.40446 10 8.80003C10 9.33046 10.2107 9.83917 10.5858 10.2142C10.9609 10.5893 11.4696 10.8 12 10.8ZM11.29 17.71C11.383 17.8038 11.4936 17.8781 11.6154 17.9289C11.7373 17.9797 11.868 18.0058 12 18.0058C12.132 18.0058 12.2627 17.9797 12.3846 17.9289C12.5064 17.8781 12.617 17.8038 12.71 17.71L16.8 13.61C17.75 12.6606 18.397 11.4507 18.6593 10.1335C18.9216 8.81626 18.7873 7.45083 18.2735 6.20992C17.7597 4.969 16.8894 3.90834 15.7727 3.16209C14.656 2.41583 13.3431 2.01752 12 2.01752C10.6569 2.01752 9.344 2.41583 8.22731 3.16209C7.11062 3.90834 6.24033 4.969 5.72652 6.20992C5.2127 7.45083 5.07845 8.81626 5.34073 10.1335C5.60301 11.4507 6.25005 12.6606 7.2 13.61L11.29 17.71ZM7.23 8.34003C7.29833 7.62704 7.52502 6.93832 7.89352 6.32414C8.26203 5.70996 8.76305 5.18583 9.36 4.79003C10.1442 4.27512 11.0619 4.00079 12 4.00079C12.9381 4.00079 13.8558 4.27512 14.64 4.79003C15.233 5.18448 15.7311 5.70543 16.0987 6.31541C16.4663 6.9254 16.6942 7.60926 16.7659 8.31781C16.8376 9.02637 16.7514 9.74202 16.5135 10.4133C16.2756 11.0846 15.8919 11.6948 15.39 12.2L12 15.59L8.61 12.2C8.10752 11.6997 7.72293 11.0936 7.48421 10.4258C7.24548 9.7581 7.15864 9.04555 7.23 8.34003ZM19 20H5C4.73478 20 4.48043 20.1054 4.29289 20.2929C4.10536 20.4805 4 20.7348 4 21C4 21.2652 4.10536 21.5196 4.29289 21.7071C4.48043 21.8947 4.73478 22 5 22H19C19.2652 22 19.5196 21.8947 19.7071 21.7071C19.8946 21.5196 20 21.2652 20 21C20 20.7348 19.8946 20.4805 19.7071 20.2929C19.5196 20.1054 19.2652 20 19 20Z" />
</svg>
