<svg width="24" height="24" viewBox="0 0 24 24" xmlns="http://www.w3.org/2000/svg">
<path d="M20.17 9.23003L6.17001 3.45003C5.64029 3.23082 5.05884 3.16797 4.49451 3.26894C3.93018 3.36991 3.4066 3.63046 2.98575 4.01975C2.5649 4.40904 2.2644 4.91076 2.11983 5.46552C1.97526 6.02029 1.99268 6.60486 2.17001 7.15003L3.71001 12L2.13001 16.85C1.94788 17.3974 1.92742 17.9856 2.07108 18.5443C2.21475 19.103 2.51644 19.6084 2.94001 20C3.48465 20.5051 4.19729 20.7901 4.94001 20.8C5.33474 20.7998 5.72554 20.7216 6.09001 20.57L20.14 14.79C20.6872 14.5625 21.1547 14.1779 21.4836 13.685C21.8125 13.192 21.988 12.6126 21.988 12.02C21.988 11.4274 21.8125 10.8481 21.4836 10.3551C21.1547 9.86212 20.6872 9.47759 20.14 9.25003L20.17 9.23003ZM5.36001 18.7C5.18361 18.7728 4.99007 18.7936 4.80225 18.7599C4.61442 18.7262 4.44015 18.6395 4.30001 18.51C4.168 18.3839 4.07304 18.224 4.02545 18.0477C3.97785 17.8714 3.97943 17.6855 4.03001 17.51L5.49001 13H19.22L5.36001 18.7ZM5.49001 11L4.00001 6.53003C3.94943 6.35458 3.94785 6.16863 3.99545 5.99235C4.04304 5.81606 4.138 5.65618 4.27001 5.53003C4.36412 5.43131 4.47742 5.35288 4.60296 5.29957C4.7285 5.24625 4.86362 5.21919 5.00001 5.22003C5.13406 5.22029 5.26669 5.24749 5.39001 5.30003L19.22 11H5.49001Z" />
</svg>
