<svg width="24" height="24" viewBox="0 0 24 24" xmlns="http://www.w3.org/2000/svg">
<path d="M20.4696 2H3.52957C3.33915 1.99736 3.15007 2.03225 2.97314 2.10268C2.7962 2.17312 2.63487 2.27772 2.49837 2.41051C2.36186 2.5433 2.25285 2.70168 2.17756 2.87661C2.10227 3.05153 2.06218 3.23958 2.05957 3.43V20.57C2.06218 20.7604 2.10227 20.9485 2.17756 21.1234C2.25285 21.2983 2.36186 21.4567 2.49837 21.5895C2.63487 21.7223 2.7962 21.8269 2.97314 21.8973C3.15007 21.9678 3.33915 22.0026 3.52957 22H20.4696C20.66 22.0026 20.8491 21.9678 21.026 21.8973C21.2029 21.8269 21.3643 21.7223 21.5008 21.5895C21.6373 21.4567 21.7463 21.2983 21.8216 21.1234C21.8969 20.9485 21.937 20.7604 21.9396 20.57V3.43C21.937 3.23958 21.8969 3.05153 21.8216 2.87661C21.7463 2.70168 21.6373 2.5433 21.5008 2.41051C21.3643 2.27772 21.2029 2.17312 21.026 2.10268C20.8491 2.03225 20.66 1.99736 20.4696 2ZM8.08957 18.74H5.08957V9.74H8.08957V18.74ZM6.58957 8.48C6.17583 8.48 5.77904 8.31564 5.48648 8.02309C5.19393 7.73053 5.02957 7.33374 5.02957 6.92C5.02957 6.50626 5.19393 6.10947 5.48648 5.81691C5.77904 5.52436 6.17583 5.36 6.58957 5.36C6.80927 5.33508 7.03175 5.35685 7.24245 5.42388C7.45314 5.49091 7.64731 5.60169 7.81223 5.74896C7.97715 5.89623 8.1091 6.07668 8.19944 6.27848C8.28979 6.48029 8.33649 6.6989 8.33649 6.92C8.33649 7.1411 8.28979 7.35971 8.19944 7.56152C8.1091 7.76332 7.97715 7.94377 7.81223 8.09104C7.64731 8.23831 7.45314 8.34909 7.24245 8.41612C7.03175 8.48315 6.80927 8.50491 6.58957 8.48ZM18.9096 18.74H15.9096V13.91C15.9096 12.7 15.4796 11.91 14.3896 11.91C14.0522 11.9125 13.7238 12.0183 13.4484 12.2132C13.1731 12.4081 12.9641 12.6827 12.8496 13C12.7713 13.235 12.7374 13.4826 12.7496 13.73V18.73H9.74957C9.74957 18.73 9.74957 10.55 9.74957 9.73H12.7496V11C13.0221 10.5271 13.4185 10.1375 13.896 9.8732C14.3735 9.60888 14.9141 9.47985 15.4596 9.5C17.4596 9.5 18.9096 10.79 18.9096 13.56V18.74Z" />
</svg>
