<svg width="24" height="24" viewBox="0 0 24 24" xmlns="http://www.w3.org/2000/svg">
<path d="M21.4899 10.19L20.4899 9.64002L11.4899 4.64002H11.3799C11.3186 4.6141 11.255 4.59401 11.1899 4.58002H10.9999H10.8199C10.7516 4.59402 10.6846 4.6141 10.6199 4.64002H10.5099L1.50988 9.64002C1.35598 9.72724 1.22797 9.85371 1.13891 10.0066C1.04985 10.1594 1.00293 10.3331 1.00293 10.51C1.00293 10.6869 1.04985 10.8606 1.13891 11.0135C1.22797 11.1663 1.35598 11.2928 1.50988 11.38L3.99988 12.76V17.5C3.99988 18.2957 4.31595 19.0587 4.87856 19.6213C5.44117 20.1839 6.20423 20.5 6.99988 20.5H14.9999C15.7955 20.5 16.5586 20.1839 17.1212 19.6213C17.6838 19.0587 17.9999 18.2957 17.9999 17.5V12.76L19.9999 11.64V14.5C19.9999 14.7652 20.1052 15.0196 20.2928 15.2071C20.4803 15.3947 20.7347 15.5 20.9999 15.5C21.2651 15.5 21.5194 15.3947 21.707 15.2071C21.8945 15.0196 21.9999 14.7652 21.9999 14.5V11.06C21.9996 10.8828 21.9522 10.7089 21.8626 10.556C21.773 10.4032 21.6443 10.2768 21.4899 10.19ZM15.9999 17.5C15.9999 17.7652 15.8945 18.0196 15.707 18.2071C15.5194 18.3947 15.2651 18.5 14.9999 18.5H6.99988C6.73466 18.5 6.48031 18.3947 6.29277 18.2071C6.10524 18.0196 5.99988 17.7652 5.99988 17.5V13.87L10.5099 16.37L10.6599 16.43H10.7499C10.8329 16.4405 10.9169 16.4405 10.9999 16.43C11.0829 16.4405 11.1669 16.4405 11.2499 16.43H11.3399C11.393 16.4188 11.4437 16.3985 11.4899 16.37L15.9999 13.87V17.5ZM10.9999 14.36L4.05988 10.5L10.9999 6.64002L17.9399 10.5L10.9999 14.36Z" />
</svg>
