<svg width="24" height="24" viewBox="0 0 24 24" xmlns="http://www.w3.org/2000/svg">
<path d="M11.9996 2C10.4381 2.00113 8.89849 2.36793 7.5042 3.07104C6.10991 3.77414 4.89965 4.79399 3.97037 6.04891C3.04109 7.30383 2.4186 8.75894 2.15278 10.2977C1.88696 11.8364 1.98519 13.416 2.43959 14.91C2.4338 14.9431 2.4338 14.9769 2.43959 15.01C2.81636 16.2218 3.42421 17.3493 4.22959 18.33L2.22959 20.33C2.09083 20.4706 1.99684 20.6492 1.95946 20.8432C1.92209 21.0372 1.94301 21.2379 2.01959 21.42C2.10454 21.6049 2.24386 21.7595 2.41897 21.8631C2.59408 21.9668 2.79663 22.0145 2.99959 22H11.9996C14.0868 21.9985 16.1211 21.3439 17.8176 20.128C19.514 18.9122 20.7875 17.196 21.4596 15.22V15.14C21.8081 14.1294 21.9905 13.069 21.9996 12C21.9996 10.6868 21.7409 9.38642 21.2384 8.17317C20.7358 6.95991 19.9992 5.85752 19.0707 4.92893C18.1421 4.00035 17.0397 3.26375 15.8264 2.7612C14.6132 2.25866 13.3128 2 11.9996 2ZM11.9996 20H5.40959L5.70959 19.71L14.1196 11.29C14.3065 11.1068 14.5578 11.0041 14.8196 11.0041C15.0813 11.0041 15.3327 11.1068 15.5196 11.29L19.1396 14.89L19.3696 15.11C18.758 16.5594 17.7327 17.7964 16.4218 18.6661C15.111 19.5359 13.5728 19.9999 11.9996 20ZM4.53959 14.87L6.11959 13.29C6.30696 13.1037 6.56041 12.9992 6.82459 12.9992C7.08878 12.9992 7.34223 13.1037 7.52959 13.29L8.39959 14.16L5.67959 16.9C5.19851 16.2853 4.81408 15.6007 4.53959 14.87ZM19.9496 12.87L16.9496 9.87C16.3871 9.3082 15.6246 8.99264 14.8296 8.99264C14.0346 8.99264 13.2721 9.3082 12.7096 9.87L9.81959 12.76L8.93959 11.89C8.3775 11.3312 7.61715 11.0176 6.82459 11.0176C6.03204 11.0176 5.27168 11.3312 4.70959 11.89L3.99959 12.56C3.98963 12.3735 3.98963 12.1865 3.99959 12C3.99959 9.87827 4.84245 7.84344 6.34274 6.34315C7.84303 4.84285 9.87786 4 11.9996 4C14.1213 4 16.1562 4.84285 17.6564 6.34315C19.1567 7.84344 19.9996 9.87827 19.9996 12C20.0145 12.2865 20.0145 12.5735 19.9996 12.86L19.9496 12.87Z" />
</svg>
