<svg width="24" height="24" viewBox="0 0 24 24" xmlns="http://www.w3.org/2000/svg">
<path d="M11.9999 8.35C11.4285 8.05705 10.7796 7.95062 10.1446 8.04569C9.50961 8.14077 8.92039 8.43256 8.45987 8.88C7.89806 9.4425 7.58251 10.205 7.58251 11C7.58251 11.795 7.89806 12.5575 8.45987 13.12L11.2899 16C11.3828 16.0937 11.4934 16.1681 11.6153 16.2189C11.7371 16.2697 11.8679 16.2958 11.9999 16.2958C12.1319 16.2958 12.2626 16.2697 12.3844 16.2189C12.5063 16.1681 12.6169 16.0937 12.7099 16L15.5399 13.17C16.1017 12.6075 16.4172 11.845 16.4172 11.05C16.4172 10.255 16.1017 9.4925 15.5399 8.93C15.0851 8.47439 14.4986 8.17326 13.8634 8.06918C13.2281 7.9651 12.5762 8.06333 11.9999 8.35ZM14.1199 11.71L11.9999 13.83L9.87987 11.71C9.78614 11.617 9.71174 11.5064 9.66097 11.3846C9.61021 11.2627 9.58407 11.132 9.58407 11C9.58407 10.868 9.61021 10.7373 9.66097 10.6154C9.71174 10.4936 9.78614 10.383 9.87987 10.29C10.0672 10.1037 10.3207 9.99921 10.5849 9.99921C10.8491 9.99921 11.1025 10.1037 11.2899 10.29C11.3828 10.3837 11.4934 10.4581 11.6153 10.5089C11.7371 10.5597 11.8679 10.5858 11.9999 10.5858C12.1319 10.5858 12.2626 10.5597 12.3844 10.5089C12.5063 10.4581 12.6169 10.3837 12.7099 10.29C12.8972 10.1037 13.1507 9.99921 13.4149 9.99921C13.6791 9.99921 13.9325 10.1037 14.1199 10.29C14.2136 10.383 14.288 10.4936 14.3388 10.6154C14.3895 10.7373 14.4157 10.868 14.4157 11C14.4157 11.132 14.3895 11.2627 14.3388 11.3846C14.288 11.5064 14.2136 11.617 14.1199 11.71ZM11.9999 2C10.6866 2 9.38629 2.25866 8.17303 2.7612C6.95978 3.26375 5.85738 4.00035 4.9288 4.92893C3.05343 6.8043 1.99987 9.34784 1.99987 12C1.99112 14.3091 2.79066 16.5485 4.25987 18.33L2.25987 20.33C2.12111 20.4706 2.02711 20.6492 1.98974 20.8432C1.95236 21.0372 1.97329 21.2379 2.04987 21.42C2.13292 21.5999 2.26757 21.7511 2.43671 21.8544C2.60586 21.9577 2.80187 22.0083 2.99987 22H11.9999C14.652 22 17.1956 20.9464 19.0709 19.0711C20.9463 17.1957 21.9999 14.6522 21.9999 12C21.9999 9.34784 20.9463 6.8043 19.0709 4.92893C17.1956 3.05357 14.652 2 11.9999 2ZM11.9999 20H5.40987L6.33987 19.07C6.52612 18.8826 6.63066 18.6292 6.63066 18.365C6.63066 18.1008 6.52612 17.8474 6.33987 17.66C5.03045 16.352 4.21504 14.6305 4.03256 12.7888C3.85007 10.947 4.31181 9.09901 5.33909 7.55952C6.36638 6.02004 7.89566 4.88436 9.66638 4.34597C11.4371 3.80759 13.3397 3.8998 15.0501 4.60691C16.7604 5.31402 18.1727 6.59227 19.0463 8.22389C19.9199 9.85551 20.2007 11.7395 19.841 13.555C19.4813 15.3705 18.5032 17.005 17.0734 18.1802C15.6436 19.3554 13.8506 19.9985 11.9999 20Z" />
</svg>
