<svg width="24" height="24" viewBox="0 0 24 24" xmlns="http://www.w3.org/2000/svg">
<path d="M12 10V8C11.9983 7.38106 11.8051 6.7778 11.4471 6.27293C11.089 5.76807 10.5835 5.38631 10 5.18V4C10 3.20435 9.68393 2.44129 9.12132 1.87868C8.55871 1.31607 7.79565 1 7 1C6.20435 1 5.44129 1.31607 4.87868 1.87868C4.31607 2.44129 4 3.20435 4 4V5.18C3.41645 5.38631 2.911 5.76807 2.55294 6.27293C2.19488 6.7778 2.00174 7.38106 2 8V10C2 10.7956 2.31607 11.5587 2.87868 12.1213C3.44129 12.6839 4.20435 13 5 13H9C9.79565 13 10.5587 12.6839 11.1213 12.1213C11.6839 11.5587 12 10.7956 12 10ZM6 4C6 3.73478 6.10536 3.48043 6.29289 3.29289C6.48043 3.10536 6.73478 3 7 3C7.26522 3 7.51957 3.10536 7.70711 3.29289C7.89464 3.48043 8 3.73478 8 4V5H6V4ZM4 10V8C4 7.73478 4.10536 7.48043 4.29289 7.29289C4.48043 7.10536 4.73478 7 5 7H9C9.26522 7 9.51957 7.10536 9.70711 7.29289C9.89464 7.48043 10 7.73478 10 8V10C10 10.2652 9.89464 10.5196 9.70711 10.7071C9.51957 10.8946 9.26522 11 9 11H5C4.73478 11 4.48043 10.8946 4.29289 10.7071C4.10536 10.5196 4 10.2652 4 10ZM19 7H15C14.7348 7 14.4804 7.10536 14.2929 7.29289C14.1054 7.48043 14 7.73478 14 8C14 8.26522 14.1054 8.51957 14.2929 8.70711C14.4804 8.89464 14.7348 9 15 9H19C19.2652 9 19.5196 9.10536 19.7071 9.29289C19.8946 9.48043 20 9.73478 20 10V19.72L18.43 18.27C18.2456 18.0973 18.0026 18.0009 17.75 18H9C8.73478 18 8.48043 17.8946 8.29289 17.7071C8.10536 17.5196 8 17.2652 8 17V16C8 15.7348 7.89464 15.4804 7.70711 15.2929C7.51957 15.1054 7.26522 15 7 15C6.73478 15 6.48043 15.1054 6.29289 15.2929C6.10536 15.4804 6 15.7348 6 16V17C6 17.7956 6.31607 18.5587 6.87868 19.1213C7.44129 19.6839 8.20435 20 9 20H17.36L20.36 22.73C20.5342 22.8936 20.7613 22.9894 21 23C21.1372 22.9985 21.2728 22.9714 21.4 22.92C21.5789 22.8419 21.731 22.7132 21.8376 22.5497C21.9442 22.3863 22.0007 22.1952 22 22V10C22 9.20435 21.6839 8.44129 21.1213 7.87868C20.5587 7.31607 19.7956 7 19 7Z" />
</svg>
