<svg width="24" height="24" viewBox="0 0 24 24" xmlns="http://www.w3.org/2000/svg">
<path d="M19.0001 14C18.8728 13.9669 18.7401 13.9593 18.6098 13.9777C18.4794 13.996 18.354 14.0398 18.2407 14.1067C18.1273 14.1736 18.0283 14.2622 17.9493 14.3675C17.8702 14.4727 17.8128 14.5925 17.7801 14.72C17.3977 16.2285 16.5236 17.5666 15.2957 18.5228C14.0679 19.479 12.5564 19.9988 11.0001 20H5.41014L6.05014 19.37C6.23639 19.1826 6.34093 18.9292 6.34093 18.665C6.34093 18.4008 6.23639 18.1474 6.05014 17.96C5.17423 17.0876 4.54498 15.9988 4.22639 14.8043C3.9078 13.6098 3.91124 12.3522 4.23634 11.1595C4.56145 9.96676 5.19663 8.88139 6.0773 8.01378C6.95796 7.14617 8.05268 6.52726 9.25014 6.22C9.37752 6.18717 9.49719 6.12957 9.60231 6.05049C9.70743 5.97141 9.79595 5.8724 9.86281 5.75911C9.92967 5.64583 9.97356 5.52048 9.99197 5.39023C10.0104 5.25998 10.003 5.12738 9.97014 5C9.90384 4.74274 9.73805 4.52235 9.50926 4.38733C9.39597 4.32047 9.27062 4.27658 9.14037 4.25816C9.01012 4.23975 8.87752 4.24717 8.75014 4.28C7.29714 4.65884 5.96202 5.39522 4.8664 6.42203C3.77078 7.44885 2.94949 8.73347 2.47733 10.1589C2.00518 11.5843 1.89717 13.1052 2.16314 14.583C2.42912 16.0609 3.06063 17.4487 4.00014 18.62L2.29014 20.29C2.15138 20.4306 2.05739 20.6092 2.02001 20.8032C1.98264 20.9972 2.00356 21.1979 2.08014 21.38C2.15516 21.5626 2.28256 21.7189 2.44628 21.8293C2.61 21.9396 2.80271 21.999 3.00014 22H11.0001C12.9964 22.0013 14.9364 21.3388 16.515 20.1169C18.0936 18.895 19.2211 17.1829 19.7201 15.25C19.7578 15.1206 19.7689 14.985 19.7528 14.8512C19.7367 14.7175 19.6937 14.5883 19.6265 14.4716C19.5592 14.3549 19.4691 14.2529 19.3614 14.1719C19.2538 14.0908 19.1309 14.0324 19.0001 14ZM21.0001 2C20.7349 2 20.4806 2.10536 20.293 2.29289C20.1055 2.48043 20.0001 2.73478 20.0001 3C19.2444 2.43202 18.343 2.08995 17.4007 2.01347C16.4584 1.93699 15.5137 2.12924 14.6762 2.56791C13.8388 3.00659 13.1428 3.6737 12.6691 4.49189C12.1954 5.31007 11.9634 6.24578 12 7.19049C12.0366 8.13519 12.3402 9.05017 12.8757 9.82929C13.4113 10.6084 14.1567 11.2197 15.0256 11.5923C15.8945 11.965 16.8512 12.0836 17.7848 11.9345C18.7183 11.7854 19.5905 11.3747 20.3001 10.75C20.4177 10.671 20.5172 10.568 20.592 10.4477C20.6668 10.3273 20.7152 10.1925 20.7339 10.0521C20.7526 9.91168 20.7413 9.76888 20.7007 9.63317C20.6601 9.49745 20.5912 9.37191 20.4984 9.26486C20.4056 9.1578 20.2911 9.07169 20.1626 9.01221C20.034 8.95273 19.8943 8.92124 19.7526 8.91984C19.611 8.91843 19.4706 8.94714 19.3409 9.00406C19.2112 9.06098 19.095 9.14481 19.0001 9.25C18.6366 9.57061 18.2007 9.79836 17.7299 9.91373C17.2591 10.0291 16.7674 10.0287 16.2968 9.9125C15.8262 9.79631 15.3907 9.56782 15.0277 9.24658C14.6647 8.92534 14.385 8.52092 14.2124 8.06794C14.0398 7.61496 13.9796 7.12692 14.0369 6.64558C14.0941 6.16423 14.2672 5.70394 14.5412 5.30408C14.8152 4.90423 15.182 4.57673 15.6103 4.34962C16.0385 4.1225 16.5154 4.00254 17.0001 4C17.4212 4.00085 17.8374 4.09033 18.2216 4.26262C18.6058 4.43491 18.9494 4.68615 19.2301 5H18.0001C17.7349 5 17.4806 5.10536 17.293 5.29289C17.1055 5.48043 17.0001 5.73478 17.0001 6C17.0001 6.26521 17.1055 6.51957 17.293 6.70711C17.4806 6.89464 17.7349 7 18.0001 7H21.0001C21.2654 7 21.5197 6.89464 21.7072 6.70711C21.8948 6.51957 22.0001 6.26521 22.0001 6V3C22.0001 2.73478 21.8948 2.48043 21.7072 2.29289C21.5197 2.10536 21.2654 2 21.0001 2Z" />
</svg>
