<svg width="24" height="24" viewBox="0 0 24 24" xmlns="http://www.w3.org/2000/svg">
<path d="M21.7004 2.86C21.5842 2.76602 21.4484 2.69927 21.3031 2.66466C21.1577 2.63005 21.0064 2.62846 20.8604 2.66C20.4598 2.74309 20.0465 2.74337 19.6458 2.66082C19.2451 2.57828 18.8655 2.41465 18.5304 2.18C18.362 2.06166 18.1612 1.99815 17.9554 1.99815C17.7496 1.99815 17.5488 2.06166 17.3804 2.18C17.0453 2.41465 16.6657 2.57828 16.265 2.66082C15.8643 2.74337 15.451 2.74309 15.0504 2.66C14.9043 2.62846 14.753 2.63005 14.6077 2.66466C14.4623 2.69927 14.3266 2.76602 14.2104 2.86C14.0957 2.95305 14.003 3.07036 13.939 3.2035C13.875 3.33664 13.8414 3.48229 13.8404 3.63V7C13.8421 7.72408 14.0163 8.43733 14.3484 9.08074C14.6805 9.72415 15.1611 10.2792 15.7504 10.7L17.3704 11.86C17.5407 11.9829 17.7454 12.049 17.9554 12.049C18.1654 12.049 18.3701 11.9829 18.5404 11.86L20.1604 10.7C20.7496 10.2792 21.2302 9.72415 21.5624 9.08074C21.8945 8.43733 22.0686 7.72408 22.0704 7V3.63C22.0694 3.48229 22.0357 3.33664 21.9717 3.2035C21.9078 3.07036 21.8151 2.95305 21.7004 2.86ZM20.0704 7C20.0569 7.39301 19.9535 7.77769 19.768 8.12443C19.5825 8.47117 19.3199 8.77071 19.0004 9L18.0004 9.74L16.9104 9C16.5909 8.77071 16.3283 8.47117 16.1428 8.12443C15.9573 7.77769 15.8538 7.39301 15.8404 7V4.72C16.5918 4.6959 17.3289 4.5082 18.0004 4.17C18.6561 4.50271 19.3757 4.6903 20.1104 4.72L20.0704 7ZM18.9304 14C18.6745 13.9362 18.4038 13.9761 18.1772 14.1109C17.9506 14.2458 17.7864 14.4647 17.7204 14.72C17.3376 16.2302 16.4619 17.5695 15.232 18.5259C14.0021 19.4823 12.4883 20.001 10.9304 20H5.35038L6.00038 19.37C6.17475 19.1845 6.27183 18.9396 6.27183 18.685C6.27183 18.4304 6.17475 18.1855 6.00038 18C5.00521 17.025 4.32364 15.7752 4.04289 14.4105C3.76214 13.0459 3.89498 11.6285 4.42442 10.3398C4.95386 9.05115 5.8558 7.94975 7.01482 7.17663C8.17383 6.4035 9.53718 5.99381 10.9304 6C11.1956 6 11.4499 5.89464 11.6375 5.70711C11.825 5.51957 11.9304 5.26522 11.9304 5C11.9304 4.73478 11.825 4.48043 11.6375 4.29289C11.4499 4.10536 11.1956 4 10.9304 4C9.23784 4.00556 7.58118 4.48828 6.15056 5.39274C4.71995 6.2972 3.57337 7.58673 2.84245 9.11332C2.11152 10.6399 1.82589 12.3417 2.01832 14.0232C2.21076 15.7048 2.87347 17.298 3.93038 18.62L2.23038 20.29C2.08996 20.4293 1.99399 20.6071 1.9546 20.8009C1.91521 20.9947 1.93418 21.1958 2.00911 21.3789C2.08404 21.5619 2.21155 21.7186 2.37554 21.8292C2.53952 21.9397 2.73261 21.9992 2.93038 22H10.9304C12.9266 22.0013 14.8667 21.3388 16.4452 20.1169C18.0238 18.895 19.1513 17.1829 19.6504 15.25C19.688 15.1206 19.6991 14.985 19.683 14.8512C19.6669 14.7175 19.6239 14.5883 19.5567 14.4716C19.4895 14.3549 19.3993 14.2529 19.2917 14.1719C19.1841 14.0908 19.0612 14.0324 18.9304 14Z" />
</svg>
