<svg width="24" height="24" viewBox="0 0 24 24" xmlns="http://www.w3.org/2000/svg">
<path d="M19.5 6.5H14.5C14.2348 6.5 13.9804 6.60536 13.7929 6.79289C13.6054 6.98043 13.5 7.23478 13.5 7.5C13.5 7.76522 13.6054 8.01957 13.7929 8.20711C13.9804 8.39464 14.2348 8.5 14.5 8.5H19.5C19.7652 8.5 20.0196 8.60536 20.2071 8.79289C20.3946 8.98043 20.5 9.23478 20.5 9.5V19.22L18.93 17.77C18.7456 17.5973 18.5026 17.5009 18.25 17.5H9.5C9.23478 17.5 8.98043 17.3946 8.79289 17.2071C8.60536 17.0196 8.5 16.7652 8.5 16.5V14.5C8.5 14.2348 8.39464 13.9804 8.20711 13.7929C8.01957 13.6054 7.76522 13.5 7.5 13.5C7.23478 13.5 6.98043 13.6054 6.79289 13.7929C6.60536 13.9804 6.5 14.2348 6.5 14.5V16.5C6.5 17.2957 6.81607 18.0587 7.37868 18.6213C7.94129 19.1839 8.70435 19.5 9.5 19.5H17.86L20.86 22.23C21.0444 22.4027 21.2874 22.4991 21.54 22.5C21.6772 22.4985 21.8128 22.4714 21.94 22.42C22.1189 22.3419 22.271 22.2132 22.3776 22.0497C22.4842 21.8863 22.5407 21.6952 22.54 21.5V9.5C22.54 9.10265 22.4611 8.70924 22.3079 8.34264C22.1546 7.97603 21.9301 7.64352 21.6472 7.36441C21.3644 7.08531 21.0289 6.86517 20.6603 6.71678C20.2917 6.56839 19.8973 6.4947 19.5 6.5ZM9.5 11.5C9.81647 11.501 10.1287 11.427 10.4109 11.2838C10.6932 11.1407 10.9375 10.9327 11.1237 10.6768C11.3099 10.4209 11.4327 10.1245 11.4821 9.81188C11.5314 9.49928 11.5059 9.17943 11.4076 8.87863C11.3092 8.57782 11.1409 8.30463 10.9165 8.08153C10.692 7.85843 10.4178 7.69178 10.1164 7.59527C9.81503 7.49877 9.49503 7.47516 9.18274 7.5264C8.87044 7.57763 8.57476 7.70225 8.32 7.89L6.57 7.09L8.48 6.21C8.78188 6.39326 9.12691 6.49332 9.48 6.5C9.87556 6.5 10.2622 6.3827 10.5911 6.16294C10.92 5.94318 11.1764 5.63082 11.3278 5.26537C11.4791 4.89992 11.5187 4.49778 11.4416 4.10982C11.3644 3.72186 11.1739 3.36549 10.8942 3.08579C10.6145 2.80608 10.2581 2.6156 9.87018 2.53843C9.48222 2.46126 9.08009 2.50087 8.71463 2.65224C8.34918 2.80362 8.03682 3.05996 7.81706 3.38886C7.5973 3.71776 7.48 4.10444 7.48 4.5L5.58 5.37C5.26359 5.14436 4.8883 5.01579 4.5 5C3.96957 5 3.46086 5.21071 3.08579 5.58579C2.71071 5.96086 2.5 6.46957 2.5 7C2.5 7.53043 2.71071 8.03914 3.08579 8.41421C3.46086 8.78929 3.96957 9 4.5 9C4.82489 8.99673 5.1441 8.91435 5.43 8.76L7.52 9.76C7.58303 10.2408 7.81858 10.6823 8.1828 11.0023C8.54702 11.3224 9.01512 11.4993 9.5 11.5Z" />
</svg>
