<svg width="24" height="24" viewBox="0 0 24 24" xmlns="http://www.w3.org/2000/svg">
<path d="M5.50019 11C5.50019 11.2652 5.60554 11.5196 5.79308 11.7071C5.98062 11.8946 6.23497 12 6.50019 12C6.7654 12 7.01976 11.8946 7.20729 11.7071C7.39483 11.5196 7.50019 11.2652 7.50019 11V5.41L8.79018 6.71C8.88315 6.80373 8.99375 6.87813 9.11561 6.92889C9.23747 6.97966 9.36817 7.0058 9.50019 7.0058C9.6322 7.0058 9.7629 6.97966 9.88476 6.92889C10.0066 6.87813 10.1172 6.80373 10.2102 6.71C10.3039 6.61704 10.3783 6.50644 10.4291 6.38458C10.4798 6.26272 10.506 6.13201 10.506 6C10.506 5.86799 10.4798 5.73729 10.4291 5.61543C10.3783 5.49357 10.3039 5.38297 10.2102 5.29L7.21019 2.29C7.11508 2.19896 7.00294 2.1276 6.88019 2.08C6.63672 1.97999 6.36365 1.97999 6.12019 2.08C5.99743 2.1276 5.88529 2.19896 5.79019 2.29L2.79019 5.29C2.60188 5.47831 2.49609 5.7337 2.49609 6C2.49609 6.2663 2.60188 6.5217 2.79019 6.71C2.97849 6.89831 3.23388 7.0041 3.50019 7.0041C3.76649 7.0041 4.02188 6.89831 4.21019 6.71L5.50019 5.41V11ZM18.5002 6H13.5002C13.235 6 12.9806 6.10536 12.7931 6.2929C12.6055 6.48043 12.5002 6.73479 12.5002 7C12.5002 7.26522 12.6055 7.51957 12.7931 7.70711C12.9806 7.89465 13.235 8 13.5002 8H18.5002C18.7654 8 19.0198 8.10536 19.2073 8.2929C19.3948 8.48043 19.5002 8.73479 19.5002 9V18.72L17.9302 17.27C17.7458 17.0973 17.5028 17.0009 17.2502 17H8.50019C8.23497 17 7.98061 16.8946 7.79308 16.7071C7.60554 16.5196 7.50019 16.2652 7.50019 16V15C7.50019 14.7348 7.39483 14.4804 7.20729 14.2929C7.01976 14.1054 6.7654 14 6.50019 14C6.23497 14 5.98062 14.1054 5.79308 14.2929C5.60554 14.4804 5.50019 14.7348 5.50019 15V16C5.50019 16.7957 5.81626 17.5587 6.37887 18.1213C6.94147 18.6839 7.70454 19 8.50019 19H16.8602L19.8602 21.73C20.0446 21.9027 20.2876 21.9991 20.5402 22C20.6773 21.9985 20.813 21.9714 20.9402 21.92C21.1191 21.8419 21.2712 21.7132 21.3778 21.5498C21.4844 21.3863 21.5409 21.1952 21.5402 21V9C21.5402 8.60265 21.4613 8.20925 21.3081 7.84264C21.1548 7.47603 20.9302 7.14352 20.6474 6.86441C20.3646 6.58531 20.0291 6.36517 19.6605 6.21678C19.2919 6.06839 18.8975 5.9947 18.5002 6Z" />
</svg>
