<svg width="24" height="24" viewBox="0 0 24 24" xmlns="http://www.w3.org/2000/svg">
<path d="M19.0001 14C18.8728 13.9669 18.7401 13.9593 18.6098 13.9777C18.4794 13.996 18.354 14.0398 18.2407 14.1067C18.1273 14.1736 18.0283 14.2622 17.9493 14.3675C17.8702 14.4727 17.8128 14.5925 17.7801 14.72C17.3977 16.2285 16.5236 17.5666 15.2957 18.5228C14.0679 19.479 12.5564 19.9988 11.0001 20H5.41014L6.05014 19.37C6.23639 19.1826 6.34093 18.9292 6.34093 18.665C6.34093 18.4008 6.23639 18.1474 6.05014 17.96C5.06763 16.9816 4.39784 15.7334 4.12572 14.3737C3.85361 13.0141 3.99142 11.6043 4.52168 10.323C5.05195 9.04184 5.95078 7.94698 7.10416 7.17733C8.25755 6.40768 9.61354 5.99791 11.0001 6C11.2654 6 11.5197 5.89464 11.7072 5.7071C11.8948 5.51957 12.0001 5.26521 12.0001 5C12.0001 4.73478 11.8948 4.48043 11.7072 4.29289C11.5197 4.10535 11.2654 4 11.0001 4C9.3076 4.00556 7.65094 4.48828 6.22033 5.39274C4.78971 6.29719 3.64313 7.58673 2.91221 9.11331C2.18129 10.6399 1.89565 12.3416 2.08808 14.0232C2.28052 15.7048 2.94323 17.298 4.00014 18.62L2.29014 20.29C2.15138 20.4306 2.05739 20.6092 2.02001 20.8032C1.98264 20.9972 2.00356 21.1979 2.08014 21.38C2.15516 21.5626 2.28256 21.7189 2.44628 21.8293C2.61 21.9396 2.80271 21.999 3.00014 22H11.0001C12.9964 22.0013 14.9364 21.3388 16.515 20.1169C18.0936 18.895 19.2211 17.1829 19.7201 15.25C19.7578 15.1206 19.7689 14.985 19.7528 14.8512C19.7367 14.7175 19.6937 14.5883 19.6265 14.4716C19.5592 14.3549 19.4691 14.2529 19.3614 14.1719C19.2538 14.0908 19.1309 14.0324 19.0001 14ZM21.7101 5.26L18.7101 2.26C18.615 2.16896 18.5029 2.09759 18.3801 2.05C18.1367 1.94998 17.8636 1.94998 17.6201 2.05C17.4974 2.09759 17.3852 2.16896 17.2901 2.26L14.2901 5.26C14.1018 5.4483 13.996 5.70369 13.996 5.97C13.996 6.2363 14.1018 6.49169 14.2901 6.68C14.4784 6.8683 14.7338 6.97409 15.0001 6.97409C15.2664 6.97409 15.5218 6.8683 15.7101 6.68L17.0001 5.41V11C17.0001 11.2652 17.1055 11.5196 17.293 11.7071C17.4806 11.8946 17.7349 12 18.0001 12C18.2654 12 18.5197 11.8946 18.7072 11.7071C18.8948 11.5196 19.0001 11.2652 19.0001 11V5.41L20.2901 6.71C20.3831 6.80373 20.4937 6.87812 20.6156 6.92889C20.7374 6.97966 20.8681 7.0058 21.0001 7.0058C21.1322 7.0058 21.2629 6.97966 21.3847 6.92889C21.5066 6.87812 21.6172 6.80373 21.7101 6.71C21.8039 6.61703 21.8783 6.50643 21.929 6.38457C21.9798 6.26271 22.0059 6.13201 22.0059 6C22.0059 5.86798 21.9798 5.73728 21.929 5.61542C21.8783 5.49356 21.8039 5.38296 21.7101 5.29V5.26Z" />
</svg>
