<svg width="225" height="48" viewBox="0 0 225 48" fill="none" xmlns="http://www.w3.org/2000/svg">
<path d="M14.9414 4.56247C16.3976 2.04269 19.6228 1.17935 22.1451 2.63415L43.4574 14.9268C45.9796 16.3816 46.8438 19.6037 45.3876 22.1235L33.0829 43.415C31.6267 45.9348 28.4015 46.7981 25.8793 45.3433L4.56693 33.0506C2.04468 31.5958 1.1805 28.3738 2.63672 25.854L14.9414 4.56247Z" fill="#61DAFF"/>
<path d="M3.70862 16.7961C2.95482 13.9856 4.6243 11.0968 7.4375 10.3438L31.2083 3.98063C34.0215 3.22757 36.9132 4.89542 37.667 7.70587L44.0363 31.4535C44.7901 34.264 43.1206 37.1528 40.3074 37.9058L16.5366 44.269C13.7234 45.022 10.8318 43.3542 10.078 40.5437L3.70862 16.7961Z" fill="#00698F"/>
<g clip-path="url(#clip0_13_6186)">
<path d="M23.4375 21.0732C21.4453 21.0732 19.9219 19.5512 19.9219 17.561C19.9219 15.5707 21.4453 14.0488 23.4375 14.0488C25.4297 14.0488 26.9531 15.5707 26.9531 17.561C26.9531 19.5512 25.4297 21.0732 23.4375 21.0732Z" fill="white"/>
<path d="M25.7812 32.7805H21.0938V28.0976L18.75 25.7561V22.2439H28.125V25.7561L25.7812 28.0976V32.7805Z" fill="white"/>
<path d="M16.4062 19.9024C15.1172 19.9024 14.0625 18.8488 14.0625 17.561C14.0625 16.2732 15.1172 15.2195 16.4062 15.2195C17.6953 15.2195 18.75 16.2732 18.75 17.561C18.75 18.8488 17.6953 19.9024 16.4062 19.9024Z" fill="white"/>
<path d="M17.5781 26.2244V21.0732H14.0625V24.5854L15.2344 25.7561V30.439H18.75V27.3951L17.5781 26.2244Z" fill="white"/>
<path d="M30.4688 19.9024C31.7578 19.9024 32.8125 18.8488 32.8125 17.561C32.8125 16.2732 31.7578 15.2195 30.4688 15.2195C29.1797 15.2195 28.125 16.2732 28.125 17.561C28.125 18.8488 29.1797 19.9024 30.4688 19.9024Z" fill="white"/>
<path d="M29.2969 26.2244V21.0732H32.8125V24.5854L31.6406 25.7561V30.439H28.125V27.3951L29.2969 26.2244Z" fill="white"/>
</g>
<path d="M78.5101 26.4341C77.9666 28.7207 76.722 30.6119 74.7765 32.1077C72.8406 33.5939 70.609 34.3371 68.0817 34.3371C65.1349 34.3371 62.6124 33.3415 60.5143 31.3502C58.4162 29.359 57.3672 26.9581 57.3672 24.1475C57.3672 21.3369 58.4162 18.936 60.5143 16.9447C62.6124 14.9535 65.1349 13.9579 68.0817 13.9579C70.5994 13.9579 72.831 14.7058 74.7765 16.2016C76.722 17.6974 77.9666 19.5838 78.5101 21.8609H73.2173C72.769 20.87 72.0824 20.0697 71.1573 19.46C70.2418 18.8407 69.2166 18.5311 68.0817 18.5311C66.5177 18.5311 65.1873 19.0836 64.0906 20.1888C63.0034 21.2845 62.4598 22.604 62.4598 24.1475C62.4598 25.6909 63.0082 27.0152 64.1049 28.1204C65.2016 29.2161 66.5272 29.7639 68.0817 29.7639C69.2166 29.7639 70.2466 29.459 71.1716 28.8493C72.1062 28.23 72.7881 27.4249 73.2173 26.4341H78.5101Z" fill="#1F2833"/>
<path d="M83.2859 17.8022C82.5229 17.8022 81.8697 17.5354 81.3261 17.0019C80.7825 16.4588 80.5107 15.8157 80.5107 15.0726C80.5107 14.3295 80.7825 13.6911 81.3261 13.1576C81.8697 12.624 82.5229 12.3573 83.2859 12.3573C84.0297 12.3573 84.6782 12.6288 85.2314 13.1719C85.794 13.7149 86.0754 14.3485 86.0754 15.0726C86.0754 15.8157 85.794 16.4588 85.2314 17.0019C84.6782 17.5354 84.0297 17.8022 83.2859 17.8022ZM80.854 33.9512V19.4314H85.7178V33.9512H80.854Z" fill="#1F2833"/>
<path d="M94.3559 33.9512L86.8886 19.4314H92.1529L95.3858 26.5484L98.6331 19.4314H103.912L96.4301 33.9512H94.3559Z" fill="#1F2833"/>
<path d="M107.514 17.8022C106.751 17.8022 106.098 17.5354 105.555 17.0019C105.011 16.4588 104.739 15.8157 104.739 15.0726C104.739 14.3295 105.011 13.6911 105.555 13.1576C106.098 12.624 106.751 12.3573 107.514 12.3573C108.258 12.3573 108.907 12.6288 109.46 13.1719C110.023 13.7149 110.304 14.3485 110.304 15.0726C110.304 15.8157 110.023 16.4588 109.46 17.0019C108.907 17.5354 108.258 17.8022 107.514 17.8022ZM105.083 33.9512V19.4314H109.946V33.9512H105.083Z" fill="#1F2833"/>
<path d="M128.484 28.0918C128.245 29.8639 127.368 31.3502 125.851 32.5507C124.345 33.7416 122.585 34.3371 120.573 34.3371C118.284 34.3371 116.319 33.5892 114.679 32.0934C113.048 30.5976 112.233 28.7969 112.233 26.6913C112.233 24.5857 113.053 22.7851 114.693 21.2893C116.334 19.7839 118.294 19.0312 120.573 19.0312C122.585 19.0312 124.345 19.6362 125.851 20.8462C127.358 22.0467 128.236 23.5091 128.484 25.2336H123.534C123.315 24.6524 122.928 24.1808 122.375 23.8188C121.822 23.4472 121.193 23.2614 120.487 23.2614C119.552 23.2614 118.756 23.5997 118.098 24.2761C117.45 24.9526 117.125 25.7576 117.125 26.6913C117.125 27.6059 117.45 28.3967 118.098 29.0636C118.756 29.7306 119.552 30.064 120.487 30.064C121.956 30.064 122.971 29.4066 123.534 28.0918H128.484Z" fill="#1F2833"/>
<path d="M145.304 14.3437V16.4445H138.538V33.9512H136.049V16.4445H129.254V14.3437H145.304Z" fill="#1F2833"/>
<path d="M147.705 33.9512V12.8718H150.08V23.4186H150.109C150.5 22.2658 151.162 21.3274 152.097 20.6033C153.041 19.8792 154.085 19.5171 155.23 19.5171C157.128 19.5171 158.663 20.1698 159.836 21.475C161.009 22.7708 161.596 24.4047 161.596 26.3769V33.9512H159.221V26.577C159.221 25.1955 158.792 24.0284 157.933 23.0756C157.075 22.1134 155.983 21.6322 154.658 21.6322C153.408 21.6322 152.331 22.1372 151.425 23.1471C150.528 24.1475 150.08 25.3479 150.08 26.7485V33.9512H147.705Z" fill="#1F2833"/>
<path d="M172.279 32.2792C173.319 32.2792 174.272 32.0648 175.14 31.6361C176.008 31.2073 176.609 30.65 176.943 29.964H179.274C178.769 31.2502 177.858 32.2982 176.542 33.108C175.226 33.9083 173.767 34.3085 172.165 34.3085C170 34.3085 168.174 33.5987 166.686 32.1791C165.198 30.75 164.454 28.9779 164.454 26.8628C164.454 24.8144 165.165 23.0804 166.586 21.6608C168.016 20.2317 169.828 19.5171 172.022 19.5171C174.311 19.5171 176.151 20.2936 177.544 21.8466C178.936 23.3996 179.632 25.3289 179.632 27.6345H166.8C166.972 29.016 167.563 30.1355 168.574 30.9929C169.595 31.8504 170.83 32.2792 172.279 32.2792ZM172.022 21.5179C170.62 21.5179 169.452 21.9181 168.517 22.7184C167.592 23.5187 167.029 24.5524 166.829 25.8195H177.2C176.981 24.5143 176.409 23.471 175.484 22.6898C174.559 21.9085 173.405 21.5179 172.022 21.5179Z" fill="#1F2833"/>
<path d="M199.957 19.5171C201.769 19.5171 203.243 20.1364 204.378 21.375C205.513 22.6136 206.08 24.1618 206.08 26.0196V33.9512H203.705V26.1054C203.705 24.8573 203.324 23.7997 202.561 22.9327C201.798 22.0657 200.821 21.6322 199.628 21.6322C198.494 21.6322 197.526 22.0848 196.725 22.9899C195.923 23.895 195.523 24.9907 195.523 26.2769V33.9512H193.148V26.1054C193.148 24.8573 192.762 23.7997 191.99 22.9327C191.227 22.0657 190.249 21.6322 189.057 21.6322C187.941 21.6322 186.983 22.0848 186.182 22.9899C185.381 23.895 184.98 24.9907 184.98 26.2769V33.9512H182.605V19.8458H184.723L184.837 23.0614H184.866C185.238 22.0038 185.867 21.1511 186.754 20.5032C187.641 19.8458 188.614 19.5171 189.672 19.5171C190.845 19.5171 191.87 19.8077 192.748 20.3889C193.625 20.9606 194.307 21.7466 194.793 22.747C195.356 21.6703 196.095 20.8653 197.011 20.3317C197.936 19.7887 198.918 19.5171 199.957 19.5171Z" fill="#1F2833"/>
<path d="M216.764 32.2792C217.803 32.2792 218.757 32.0648 219.625 31.6361C220.493 31.2073 221.094 30.65 221.427 29.964H223.759C223.254 31.2502 222.343 32.2982 221.027 33.108C219.711 33.9083 218.252 34.3085 216.649 34.3085C214.485 34.3085 212.658 33.5987 211.171 32.1791C209.683 30.75 208.939 28.9779 208.939 26.8628C208.939 24.8144 209.649 23.0804 211.07 21.6608C212.501 20.2317 214.313 19.5171 216.506 19.5171C218.795 19.5171 220.636 20.2936 222.028 21.8466C223.42 23.3996 224.117 25.3289 224.117 27.6345H211.285C211.457 29.016 212.048 30.1355 213.059 30.9929C214.079 31.8504 215.314 32.2792 216.764 32.2792ZM216.506 21.5179C215.104 21.5179 213.936 21.9181 213.002 22.7184C212.077 23.5187 211.514 24.5524 211.314 25.8195H221.685C221.465 24.5143 220.893 23.471 219.968 22.6898C219.043 21.9085 217.889 21.5179 216.506 21.5179Z" fill="#1F2833"/>
<defs>
<clipPath id="clip0_13_6186">
<rect width="18.75" height="18.7317" fill="white" transform="translate(14.0625 14.0488)"/>
</clipPath>
</defs>
</svg>
