<svg width="24" height="24" viewBox="0 0 24 24" xmlns="http://www.w3.org/2000/svg">
<path d="M11.9996 2C10.06 2.00369 8.16344 2.57131 6.54079 3.63374C4.91814 4.69617 3.63946 6.20754 2.8605 7.98377C2.08155 9.76 1.83594 11.7244 2.15359 13.6378C2.47124 15.5511 3.33844 17.3308 4.64956 18.76C5.58598 19.775 6.7225 20.5851 7.9875 21.1392C9.25249 21.6933 10.6185 21.9793 11.9996 21.9793C13.3806 21.9793 14.7466 21.6933 16.0116 21.1392C17.2766 20.5851 18.4131 19.775 19.3496 18.76C20.6607 17.3308 21.5279 15.5511 21.8455 13.6378C22.1632 11.7244 21.9176 9.76 21.1386 7.98377C20.3597 6.20754 19.081 4.69617 17.4583 3.63374C15.8357 2.57131 13.9391 2.00369 11.9996 2ZM11.9996 20C9.92803 19.9969 7.93848 19.1903 6.44956 17.75C6.9016 16.6495 7.67059 15.7083 8.65881 15.0459C9.64703 14.3835 10.8099 14.0298 11.9996 14.0298C13.1893 14.0298 14.3521 14.3835 15.3403 15.0459C16.3285 15.7083 17.0975 16.6495 17.5496 17.75C16.0606 19.1903 14.0711 19.9969 11.9996 20ZM9.99956 10C9.99956 9.60444 10.1169 9.21776 10.3366 8.88886C10.5564 8.55996 10.8687 8.30362 11.2342 8.15224C11.5996 8.00087 12.0018 7.96126 12.3897 8.03843C12.7777 8.1156 13.1341 8.30608 13.4138 8.58579C13.6935 8.86549 13.884 9.22186 13.9611 9.60982C14.0383 9.99778 13.9987 10.3999 13.8473 10.7654C13.6959 11.1308 13.4396 11.4432 13.1107 11.6629C12.7818 11.8827 12.3951 12 11.9996 12C11.4691 12 10.9604 11.7893 10.5853 11.4142C10.2103 11.0391 9.99956 10.5304 9.99956 10ZM18.9096 16C18.0161 14.4718 16.641 13.283 14.9996 12.62C15.5087 12.0427 15.8405 11.3307 15.955 10.5694C16.0696 9.80822 15.962 9.03011 15.6453 8.3285C15.3286 7.62688 14.8161 7.03156 14.1695 6.61397C13.5228 6.19637 12.7694 5.97425 11.9996 5.97425C11.2298 5.97425 10.4763 6.19637 9.82965 6.61397C9.18298 7.03156 8.67053 7.62688 8.35381 8.3285C8.03709 9.03011 7.92955 9.80822 8.04409 10.5694C8.15863 11.3307 8.49039 12.0427 8.99956 12.62C7.35816 13.283 5.98303 14.4718 5.08956 16C4.3775 14.7871 4.00128 13.4065 3.99956 12C3.99956 9.87827 4.84242 7.84344 6.34271 6.34315C7.843 4.84285 9.87783 4 11.9996 4C14.1213 4 16.1561 4.84285 17.6564 6.34315C19.1567 7.84344 19.9996 9.87827 19.9996 12C19.9978 13.4065 19.6216 14.7871 18.9096 16Z" />
</svg>
