<svg width="24" height="24" viewBox="0 0 24 24" xmlns="http://www.w3.org/2000/svg">
<path d="M14.5498 12.22C15.0834 11.7581 15.5114 11.1869 15.8047 10.545C16.098 9.90316 16.2498 9.20571 16.2498 8.5C16.2498 7.17392 15.723 5.90215 14.7853 4.96447C13.8477 4.02678 12.5759 3.5 11.2498 3.5C9.92372 3.5 8.65195 4.02678 7.71427 4.96447C6.77659 5.90215 6.2498 7.17392 6.2498 8.5C6.25598 9.20958 6.41557 9.90944 6.71764 10.5515C7.01971 11.1937 7.4571 11.7628 7.9998 12.22C6.59994 12.8539 5.41227 13.8775 4.57878 15.1685C3.7453 16.4596 3.30128 17.9633 3.2998 19.5C3.2998 19.7652 3.40516 20.0196 3.5927 20.2071C3.78023 20.3946 4.03459 20.5 4.2998 20.5C4.56502 20.5 4.81938 20.3946 5.00691 20.2071C5.19445 20.0196 5.2998 19.7652 5.2998 19.5C5.2998 17.9087 5.93195 16.3826 7.05716 15.2574C8.18238 14.1321 9.70851 13.5 11.2998 13.5C12.8911 13.5 14.4172 14.1321 15.5424 15.2574C16.6677 16.3826 17.2998 17.9087 17.2998 19.5C17.2998 19.7652 17.4052 20.0196 17.5927 20.2071C17.7802 20.3946 18.0346 20.5 18.2998 20.5C18.565 20.5 18.8194 20.3946 19.0069 20.2071C19.1944 20.0196 19.2998 19.7652 19.2998 19.5C19.294 17.9578 18.8426 16.4502 17.9998 15.1586C17.1571 13.867 15.959 12.8465 14.5498 12.22ZM11.2498 11.5C10.6565 11.5 10.0764 11.3241 9.58309 10.9944C9.08975 10.6648 8.70523 10.1962 8.47817 9.64805C8.2511 9.09987 8.19169 8.49667 8.30745 7.91473C8.4232 7.33279 8.70893 6.79824 9.12848 6.37868C9.54804 5.95912 10.0826 5.6734 10.6645 5.55764C11.2465 5.44189 11.8497 5.5013 12.3979 5.72836C12.946 5.95542 13.4146 6.33994 13.7442 6.83329C14.0739 7.32664 14.2498 7.90666 14.2498 8.5C14.2498 9.29565 13.9337 10.0587 13.3711 10.6213C12.8085 11.1839 12.0455 11.5 11.2498 11.5ZM19.7498 6.5C19.4846 6.5 19.2302 6.60536 19.0427 6.79289C18.8552 6.98043 18.7498 7.23478 18.7498 7.5V9.5C18.7498 9.76522 18.8552 10.0196 19.0427 10.2071C19.2302 10.3946 19.4846 10.5 19.7498 10.5C20.015 10.5 20.2694 10.3946 20.4569 10.2071C20.6444 10.0196 20.7498 9.76522 20.7498 9.5V7.5C20.7498 7.23478 20.6444 6.98043 20.4569 6.79289C20.2694 6.60536 20.015 6.5 19.7498 6.5ZM18.9998 11.79C18.8171 11.9816 18.7135 12.2352 18.7098 12.5C18.709 12.6316 18.7343 12.7621 18.784 12.8839C18.8338 13.0057 18.9071 13.1166 18.9998 13.21C19.097 13.2983 19.2086 13.3694 19.3298 13.42C19.4495 13.4729 19.5789 13.5002 19.7098 13.5002C19.8407 13.5002 19.9701 13.4729 20.0898 13.42C20.2139 13.3751 20.3266 13.3034 20.4199 13.2101C20.5132 13.1168 20.5849 13.0041 20.6298 12.88C20.6858 12.7613 20.7132 12.6312 20.7098 12.5C20.711 12.3014 20.6529 12.1069 20.5431 11.9414C20.4333 11.7759 20.2767 11.6468 20.0933 11.5706C19.9098 11.4945 19.7079 11.4747 19.5131 11.5137C19.3184 11.5528 19.1397 11.649 18.9998 11.79Z" />
</svg>
