<svg width="24" height="24" viewBox="0 0 24 24" xmlns="http://www.w3.org/2000/svg">
<path d="M13.3 12.22C13.8336 11.7581 14.2616 11.1869 14.5549 10.545C14.8482 9.90316 15 9.20571 15 8.5C15 7.17392 14.4732 5.90215 13.5355 4.96447C12.5979 4.02678 11.3261 3.5 10 3.5C8.67392 3.5 7.40215 4.02678 6.46447 4.96447C5.52678 5.90215 5 7.17392 5 8.5C4.99999 9.20571 5.1518 9.90316 5.44513 10.545C5.73845 11.1869 6.16642 11.7581 6.7 12.22C5.30014 12.8539 4.11247 13.8775 3.27898 15.1685C2.4455 16.4596 2.00147 17.9633 2 19.5C2 19.7652 2.10536 20.0196 2.29289 20.2071C2.48043 20.3946 2.73478 20.5 3 20.5C3.26522 20.5 3.51957 20.3946 3.70711 20.2071C3.89464 20.0196 4 19.7652 4 19.5C4 17.9087 4.63214 16.3826 5.75736 15.2574C6.88258 14.1321 8.4087 13.5 10 13.5C11.5913 13.5 13.1174 14.1321 14.2426 15.2574C15.3679 16.3826 16 17.9087 16 19.5C16 19.7652 16.1054 20.0196 16.2929 20.2071C16.4804 20.3946 16.7348 20.5 17 20.5C17.2652 20.5 17.5196 20.3946 17.7071 20.2071C17.8946 20.0196 18 19.7652 18 19.5C17.9985 17.9633 17.5545 16.4596 16.721 15.1685C15.8875 13.8775 14.6999 12.8539 13.3 12.22ZM10 11.5C9.40666 11.5 8.82664 11.3241 8.33329 10.9944C7.83994 10.6648 7.45542 10.1962 7.22836 9.64805C7.0013 9.09987 6.94189 8.49667 7.05764 7.91473C7.1734 7.33279 7.45912 6.79824 7.87868 6.37868C8.29824 5.95912 8.83279 5.6734 9.41473 5.55764C9.99667 5.44189 10.5999 5.5013 11.1481 5.72836C11.6962 5.95542 12.1648 6.33994 12.4944 6.83329C12.8241 7.32664 13 7.90666 13 8.5C13 9.29565 12.6839 10.0587 12.1213 10.6213C11.5587 11.1839 10.7956 11.5 10 11.5ZM20.91 12L21.71 11.21C21.8032 11.1168 21.8772 11.0061 21.9277 10.8842C21.9781 10.7624 22.0041 10.6319 22.0041 10.5C22.0041 10.3681 21.9781 10.2376 21.9277 10.1158C21.8772 9.99393 21.8032 9.88324 21.71 9.79C21.6168 9.69676 21.5061 9.6228 21.3842 9.57234C21.2624 9.52188 21.1319 9.49591 21 9.49591C20.8681 9.49591 20.7376 9.52188 20.6158 9.57234C20.4939 9.6228 20.3832 9.69676 20.29 9.79L19.5 10.59L18.71 9.79C18.6168 9.69676 18.5061 9.6228 18.3842 9.57234C18.2624 9.52188 18.1319 9.49591 18 9.49591C17.7337 9.49591 17.4783 9.6017 17.29 9.79C17.1968 9.88324 17.1228 9.99393 17.0723 10.1158C17.0219 10.2376 16.9959 10.3681 16.9959 10.5C16.9959 10.7663 17.1017 11.0217 17.29 11.21L18.09 12L17.29 12.79C17.1963 12.883 17.1219 12.9936 17.0711 13.1154C17.0203 13.2373 16.9942 13.368 16.9942 13.5C16.9942 13.632 17.0203 13.7627 17.0711 13.8846C17.1219 14.0064 17.1963 14.117 17.29 14.21C17.383 14.3037 17.4936 14.3781 17.6154 14.4289C17.7373 14.4797 17.868 14.5058 18 14.5058C18.132 14.5058 18.2627 14.4797 18.3846 14.4289C18.5064 14.3781 18.617 14.3037 18.71 14.21L19.5 13.41L20.29 14.21C20.383 14.3037 20.4936 14.3781 20.6154 14.4289C20.7373 14.4797 20.868 14.5058 21 14.5058C21.132 14.5058 21.2627 14.4797 21.3846 14.4289C21.5064 14.3781 21.617 14.3037 21.71 14.21C21.8037 14.117 21.8781 14.0064 21.9289 13.8846C21.9797 13.7627 22.0058 13.632 22.0058 13.5C22.0058 13.368 21.9797 13.2373 21.9289 13.1154C21.8781 12.9936 21.8037 12.883 21.71 12.79L20.91 12Z" />
</svg>
