<svg width="24" height="24" viewBox="0 0 24 24" xmlns="http://www.w3.org/2000/svg">
<path d="M14.9996 11H9.99965C9.73443 11 9.48008 11.1054 9.29254 11.2929C9.105 11.4804 8.99965 11.7348 8.99965 12V20C8.99937 20.1817 9.04859 20.36 9.14202 20.5158C9.23545 20.6716 9.36956 20.799 9.52994 20.8843C9.69032 20.9697 9.87092 21.0097 10.0523 21.0001C10.2338 20.9905 10.4091 20.9317 10.5596 20.83L12.4996 19.53L14.3896 20.79C14.5642 20.9255 14.7787 20.9993 14.9996 21C15.152 21.0006 15.3025 20.9664 15.4396 20.9C15.6079 20.8175 15.7497 20.6894 15.8487 20.5303C15.9477 20.3712 16 20.1874 15.9996 20V12C15.9996 11.7348 15.8943 11.4804 15.7068 11.2929C15.5192 11.1054 15.2649 11 14.9996 11ZM13.9996 18.12L13.0596 17.49C12.8943 17.3782 12.6992 17.3185 12.4996 17.3185C12.3 17.3185 12.105 17.3782 11.9396 17.49L10.9996 18.13V13H13.9996V18.12ZM18.4196 7.22C17.8086 5.81601 16.7541 4.65108 15.4177 3.90373C14.0813 3.15638 12.5367 2.86783 11.0206 3.08231C9.50452 3.29679 8.10057 4.00245 7.0239 5.09118C5.94723 6.1799 5.25723 7.59162 5.05965 9.11C4.10623 9.33832 3.26987 9.90883 2.70938 10.7132C2.1489 11.5175 1.90333 12.4997 2.01931 13.4732C2.13529 14.4467 2.60474 15.3437 3.33851 15.9939C4.07229 16.644 5.01928 17.0021 5.99965 17C6.26486 17 6.51922 16.8946 6.70675 16.7071C6.89429 16.5196 6.99965 16.2652 6.99965 16C6.99965 15.7348 6.89429 15.4804 6.70675 15.2929C6.51922 15.1054 6.26486 15 5.99965 15C5.46921 15 4.96051 14.7893 4.58543 14.4142C4.21036 14.0391 3.99965 13.5304 3.99965 13C3.99965 12.4696 4.21036 11.9609 4.58543 11.5858C4.96051 11.2107 5.46921 11 5.99965 11C6.26486 11 6.51922 10.8946 6.70675 10.7071C6.89429 10.5196 6.99965 10.2652 6.99965 10C7.0022 8.81728 7.42393 7.67375 8.18992 6.77259C8.9559 5.87142 10.0165 5.27095 11.1834 5.07788C12.3503 4.8848 13.5478 5.11161 14.5632 5.71801C15.5787 6.32441 16.3463 7.27114 16.7296 8.39C16.7868 8.56184 16.8896 8.71493 17.0269 8.83293C17.1643 8.95094 17.3312 9.02942 17.5096 9.06C18.111 9.16884 18.6647 9.45873 19.0968 9.89089C19.5289 10.323 19.8187 10.8768 19.9275 11.4782C20.0362 12.0796 19.9587 12.6998 19.7053 13.2559C19.452 13.812 19.0348 14.2775 18.5096 14.59C18.2789 14.7226 18.1103 14.9414 18.0409 15.1984C17.9715 15.4553 18.007 15.7293 18.1396 15.96C18.2723 16.1907 18.4911 16.3593 18.748 16.4287C19.0049 16.4981 19.2789 16.4626 19.5096 16.33C20.2679 15.8899 20.897 15.2582 21.3341 14.4982C21.7711 13.7382 22.0006 12.8767 21.9996 12C21.9966 10.9241 21.6466 9.87794 21.0017 9.01681C20.3567 8.15568 19.4512 7.52555 18.4196 7.22Z" />
</svg>
