<svg width="24" height="24" viewBox="0 0 24 24" xmlns="http://www.w3.org/2000/svg">
<path d="M20.5201 3.87C20.1077 3.00824 19.4569 2.28269 18.645 1.77922C17.833 1.27576 16.8938 1.01546 15.9385 1.02914C14.9832 1.04282 14.0519 1.32989 13.2546 1.8564C12.4574 2.3829 11.8277 3.12678 11.4401 4H7.00012C6.20447 4 5.4414 4.31607 4.8788 4.87868C4.31619 5.44129 4.00012 6.20435 4.00012 7V11C4.00012 11.2652 4.10547 11.5196 4.29301 11.7071C4.48055 11.8946 4.7349 12 5.00012 12C5.26533 12 5.51969 11.8946 5.70722 11.7071C5.89476 11.5196 6.00012 11.2652 6.00012 11V7C6.00012 6.73478 6.10547 6.48043 6.29301 6.29289C6.48055 6.10536 6.7349 6 7.00012 6H9.78012C9.28233 6.54764 9.00453 7.25994 9.00012 8C9.00012 8.79565 9.31619 9.55871 9.87879 10.1213C10.4414 10.6839 11.2045 11 12.0001 11H19.3301C20.2009 11.0063 21.0453 10.7019 21.7118 10.1415C22.3783 9.58115 22.8232 8.8015 22.9665 7.94261C23.1099 7.08372 22.9423 6.20187 22.4939 5.45542C22.0455 4.70897 21.3457 4.14684 20.5201 3.87ZM19.3301 9H12.0001C11.7349 9 11.4805 8.89464 11.293 8.7071C11.1055 8.51957 11.0001 8.26521 11.0001 8C11.0001 7.73478 11.1055 7.48043 11.293 7.29289C11.4805 7.10536 11.7349 7 12.0001 7C12.2653 7 12.5197 6.89464 12.7072 6.7071C12.8948 6.51957 13.0001 6.26521 13.0001 6C12.992 5.28635 13.2387 4.59321 13.6957 4.04504C14.1527 3.49686 14.7901 3.12957 15.4936 3.00911C16.197 2.88866 16.9204 3.02294 17.5338 3.38783C18.1471 3.75272 18.6103 4.32433 18.8401 5C18.8973 5.17184 19 5.32493 19.1374 5.44293C19.2748 5.56093 19.4416 5.63941 19.6201 5.67C20.0112 5.73479 20.3658 5.93819 20.6192 6.24301C20.8727 6.54783 21.0078 6.93368 21.0001 7.33C21.0001 7.54931 20.9569 7.76647 20.873 7.96908C20.7891 8.17169 20.6661 8.35579 20.511 8.51087C20.3559 8.66594 20.1718 8.78895 19.9692 8.87288C19.7666 8.9568 19.5494 9 19.3301 9ZM19.0001 13C18.7349 13 18.4805 13.1054 18.293 13.2929C18.1055 13.4804 18.0001 13.7348 18.0001 14V17C18.0001 17.2652 17.8948 17.5196 17.7072 17.7071C17.5197 17.8946 17.2653 18 17.0001 18H14.7401C14.5468 17.5051 14.2482 17.0582 13.8648 16.6904C13.4814 16.3226 13.0226 16.0426 12.5201 15.87C12.067 14.9083 11.3191 14.1161 10.385 13.6084C9.45102 13.1006 8.37948 12.9038 7.32599 13.0465C6.27251 13.1892 5.29193 13.664 4.52662 14.4019C3.76131 15.1398 3.25112 16.1024 3.07012 17.15C2.3929 17.3726 1.81708 17.829 1.44582 18.4376C1.07456 19.0461 0.932128 19.767 1.04405 20.471C1.15597 21.175 1.51492 21.8162 2.0566 22.2796C2.59827 22.743 3.28726 22.9984 4.00012 23H11.3301C12.1863 23 13.0154 22.6998 13.6732 22.1517C14.3309 21.6036 14.7757 20.8422 14.9301 20H17.0001C17.7958 20 18.5588 19.6839 19.1214 19.1213C19.684 18.5587 20.0001 17.7956 20.0001 17V14C20.0001 13.7348 19.8948 13.4804 19.7072 13.2929C19.5197 13.1054 19.2653 13 19.0001 13ZM11.3301 21H4.00012C3.7349 21 3.48055 20.8946 3.29301 20.7071C3.10547 20.5196 3.00012 20.2652 3.00012 20C3.00012 19.7348 3.10547 19.4804 3.29301 19.2929C3.48055 19.1054 3.7349 19 4.00012 19C4.26533 19 4.51969 18.8946 4.70722 18.7071C4.89476 18.5196 5.00012 18.2652 5.00012 18C4.99205 17.2864 5.23866 16.5932 5.69567 16.045C6.15268 15.4969 6.79014 15.1296 7.49359 15.0091C8.19705 14.8887 8.9204 15.0229 9.53375 15.3878C10.1471 15.7527 10.6103 16.3243 10.8401 17C10.8973 17.1718 11 17.3249 11.1374 17.4429C11.2748 17.5609 11.4416 17.6394 11.6201 17.67C12.0112 17.7348 12.3658 17.9382 12.6192 18.243C12.8726 18.5478 13.0078 18.9337 13.0001 19.33C13.0001 19.5493 12.9569 19.7665 12.873 19.9691C12.7891 20.1717 12.6661 20.3558 12.511 20.5109C12.3559 20.6659 12.1718 20.789 11.9692 20.8729C11.7666 20.9568 11.5494 21 11.3301 21Z" />
</svg>
