<svg width="24" height="24" viewBox="0 0 24 24" xmlns="http://www.w3.org/2000/svg">
<path d="M8.50017 5.94C9.56754 5.33525 10.7734 5.01738 12.0002 5.01738C13.227 5.01738 14.4328 5.33525 15.5002 5.94C15.6143 6.00612 15.7404 6.049 15.8712 6.06619C16.0019 6.08337 16.1348 6.07451 16.2622 6.04012C16.3895 6.00573 16.5088 5.94649 16.6131 5.8658C16.7175 5.78512 16.8048 5.68459 16.8702 5.57C17.0005 5.34038 17.0348 5.06852 16.9655 4.81373C16.8962 4.55895 16.7289 4.34192 16.5002 4.21C15.1275 3.43354 13.5772 3.02547 12.0002 3.02547C10.4231 3.02547 8.87286 3.43354 7.50017 4.21C7.27144 4.34192 7.10417 4.55895 7.03485 4.81373C6.96553 5.06852 6.9998 5.34038 7.13017 5.57C7.1955 5.68459 7.28286 5.78512 7.3872 5.8658C7.49155 5.94649 7.61083 6.00573 7.73817 6.04012C7.86551 6.07451 7.99839 6.08337 8.12917 6.06619C8.25995 6.049 8.38604 6.00612 8.50017 5.94ZM18.4202 11.21C18.3163 10.9655 18.196 10.7283 18.0602 10.5C17.9915 10.3874 17.9013 10.2895 17.7947 10.2119C17.688 10.1343 17.5671 10.0785 17.4388 10.0478C17.3106 10.0172 17.1775 10.0122 17.0473 10.0331C16.9171 10.0541 16.7923 10.1006 16.6802 10.17C16.4555 10.3086 16.2947 10.5303 16.2329 10.787C16.171 11.0436 16.2132 11.3143 16.3502 11.54C16.5048 11.8065 16.6321 12.0879 16.7302 12.38C16.7873 12.5518 16.8901 12.7049 17.0275 12.8229C17.1648 12.9409 17.3317 13.0194 17.5102 13.05C18.206 13.17 18.8372 13.5317 19.2927 14.0713C19.7482 14.6109 19.9987 15.2939 20.0002 16C20.0002 16.7956 19.6841 17.5587 19.1215 18.1213C18.5589 18.6839 17.7958 19 17.0002 19H5.66017C5.25219 18.9372 4.87363 18.7497 4.57642 18.4633C4.27921 18.1768 4.07793 17.8054 4.00017 17.4C3.9401 17.106 3.94694 16.8024 4.02018 16.5114C4.09341 16.2205 4.23117 15.9497 4.42324 15.7192C4.61531 15.4887 4.85677 15.3044 5.12975 15.1799C5.40272 15.0554 5.70021 14.9939 6.00017 15C6.26539 15 6.51974 14.8946 6.70728 14.7071C6.89481 14.5196 7.00017 14.2652 7.00017 14C6.99816 13.1252 7.22944 12.2657 7.67017 11.51C7.73629 11.3959 7.77918 11.2698 7.79636 11.139C7.81354 11.0082 7.80468 10.8753 7.77029 10.748C7.7359 10.6207 7.67666 10.5014 7.59597 10.397C7.51529 10.2927 7.41476 10.2053 7.30017 10.14C7.07055 10.0096 6.79869 9.97536 6.54391 10.0447C6.28912 10.114 6.07209 10.2813 5.94017 10.51C5.47186 11.3072 5.17233 12.1922 5.06017 13.11C4.22581 13.3132 3.479 13.7795 2.93017 14.44C2.46338 14.9882 2.15319 15.6522 2.03234 16.3619C1.91149 17.0717 1.98445 17.8009 2.24353 18.4727C2.5026 19.1444 2.93819 19.7338 3.50434 20.1786C4.07048 20.6235 4.74619 20.9072 5.46017 21H5.59017H17.0002C18.1995 20.9967 19.3577 20.5624 20.2636 19.7763C21.1694 18.9902 21.7625 17.9047 21.9346 16.7177C22.1068 15.5308 21.8465 14.3215 21.2014 13.3105C20.5562 12.2994 19.5692 11.5539 18.4202 11.21ZM14.8702 9C14.8702 9 14.8702 9 14.8702 8.94C14.922 8.87925 14.9657 8.81202 15.0002 8.74C15.0949 8.49329 15.0881 8.21912 14.9813 7.97741C14.8745 7.73569 14.6764 7.54607 14.4302 7.45C13.8709 7.24235 13.2851 7.11443 12.6902 7.07C12.5902 7.07 12.4902 7.07 12.3902 7.07C12.1205 7.04998 11.8498 7.04998 11.5802 7.07C11.4769 7.06466 11.3734 7.06466 11.2702 7.07C10.6752 7.11443 10.0895 7.24235 9.53017 7.45C9.29123 7.55366 9.10216 7.74645 9.00318 7.98736C8.9042 8.22827 8.90312 8.4983 9.00017 8.74C9.03424 8.80689 9.07441 8.87049 9.12017 8.93C9.11686 8.96659 9.11686 9.00341 9.12017 9.04C9.18633 9.15375 9.2743 9.25333 9.37902 9.33302C9.48375 9.41271 9.60317 9.47094 9.73044 9.50439C9.85772 9.53783 9.99034 9.54583 10.1207 9.52791C10.2511 9.51 10.3766 9.46653 10.4902 9.4C10.9488 9.14428 11.4651 9.01005 11.9902 9.01005C12.5152 9.01005 13.0316 9.14428 13.4902 9.4C13.6065 9.46652 13.7351 9.50898 13.8682 9.52484C14.0013 9.5407 14.1362 9.52965 14.2649 9.49234C14.3936 9.45502 14.5136 9.39221 14.6175 9.30763C14.7215 9.22305 14.8074 9.11844 14.8702 9ZM11.0002 12C11.0002 12.1978 11.0588 12.3911 11.1687 12.5556C11.2786 12.72 11.4348 12.8482 11.6175 12.9239C11.8002 12.9996 12.0013 13.0194 12.1953 12.9808C12.3892 12.9422 12.5674 12.847 12.7073 12.7071C12.8471 12.5673 12.9424 12.3891 12.981 12.1951C13.0195 12.0011 12.9997 11.8 12.9241 11.6173C12.8484 11.4346 12.7202 11.2784 12.5557 11.1685C12.3913 11.0586 12.198 11 12.0002 11C11.735 11 11.4806 11.1054 11.2931 11.2929C11.1055 11.4804 11.0002 11.7348 11.0002 12Z" />
</svg>
