<svg width="24" height="24" viewBox="0 0 24 24" xmlns="http://www.w3.org/2000/svg">
<path d="M14.2896 17.29L12.9996 18.59V13C12.9996 12.7348 12.8943 12.4804 12.7068 12.2929C12.5192 12.1054 12.2649 12 11.9996 12C11.7344 12 11.4801 12.1054 11.2925 12.2929C11.105 12.4804 10.9996 12.7348 10.9996 13V18.59L9.70965 17.29C9.61641 17.1968 9.50572 17.1228 9.3839 17.0723C9.26207 17.0219 9.13151 16.9959 8.99965 16.9959C8.86779 16.9959 8.73722 17.0219 8.6154 17.0723C8.49357 17.1228 8.38288 17.1968 8.28965 17.29C8.19641 17.3832 8.12245 17.4939 8.07199 17.6158C8.02153 17.7376 7.99555 17.8681 7.99555 18C7.99555 18.1319 8.02153 18.2624 8.07199 18.3843C8.12245 18.5061 8.19641 18.6168 8.28965 18.71L11.2896 21.71C11.3847 21.801 11.4969 21.8724 11.6196 21.92C11.7393 21.9729 11.8688 22.0002 11.9996 22.0002C12.1305 22.0002 12.2599 21.9729 12.3796 21.92C12.5024 21.8724 12.6145 21.801 12.7096 21.71L15.7096 18.71C15.898 18.5217 16.0037 18.2663 16.0037 18C16.0037 17.7337 15.898 17.4783 15.7096 17.29C15.5213 17.1017 15.2659 16.9959 14.9996 16.9959C14.7333 16.9959 14.478 17.1017 14.2896 17.29ZM18.4196 6.22C17.8086 4.81601 16.7541 3.65108 15.4177 2.90373C14.0813 2.15638 12.5367 1.86783 11.0206 2.08231C9.50452 2.29679 8.10057 3.00245 7.0239 4.09118C5.94723 5.1799 5.25723 6.59162 5.05965 8.11C4.10623 8.33832 3.26987 8.90883 2.70938 9.71319C2.1489 10.5175 1.90333 11.4997 2.01931 12.4732C2.13529 13.4467 2.60474 14.3437 3.33851 14.9939C4.07229 15.644 5.01928 16.0021 5.99965 16C6.26486 16 6.51922 15.8946 6.70675 15.7071C6.89429 15.5196 6.99965 15.2652 6.99965 15C6.99965 14.7348 6.89429 14.4804 6.70675 14.2929C6.51922 14.1054 6.26486 14 5.99965 14C5.46921 14 4.96051 13.7893 4.58543 13.4142C4.21036 13.0391 3.99965 12.5304 3.99965 12C3.99965 11.4696 4.21036 10.9609 4.58543 10.5858C4.96051 10.2107 5.46921 10 5.99965 10C6.26486 10 6.51922 9.89464 6.70675 9.70711C6.89429 9.51957 6.99965 9.26522 6.99965 9C7.0022 7.81728 7.42393 6.67375 8.18992 5.77259C8.9559 4.87142 10.0165 4.27095 11.1834 4.07788C12.3503 3.8848 13.5478 4.11161 14.5632 4.71801C15.5787 5.32441 16.3463 6.27114 16.7296 7.39C16.7868 7.56184 16.8896 7.71493 17.0269 7.83293C17.1643 7.95094 17.3312 8.02942 17.5096 8.06C18.1757 8.18587 18.7795 8.5336 19.2227 9.04654C19.6658 9.55947 19.9222 10.2074 19.95 10.8846C19.9779 11.5619 19.7755 12.2287 19.3759 12.7762C18.9764 13.3238 18.4031 13.7199 17.7496 13.9C17.6223 13.9328 17.5026 13.9904 17.3975 14.0695C17.2924 14.1486 17.2038 14.2476 17.137 14.3609C17.0701 14.4742 17.0262 14.5995 17.0078 14.7298C16.9894 14.86 16.9968 14.9926 17.0296 15.12C17.0625 15.2474 17.1201 15.3671 17.1992 15.4722C17.2782 15.5773 17.3772 15.6658 17.4905 15.7327C17.6038 15.7995 17.7292 15.8434 17.8594 15.8618C17.9897 15.8803 18.1223 15.8728 18.2496 15.84C19.302 15.5619 20.2349 14.948 20.9067 14.0915C21.5784 13.2349 21.9522 12.1826 21.9715 11.0943C21.9907 10.0059 21.6543 8.94104 21.0132 8.06132C20.3722 7.1816 19.4616 6.5351 18.4196 6.22Z" />
</svg>
