<svg width="24" height="24" viewBox="0 0 24 24" xmlns="http://www.w3.org/2000/svg">
<path d="M16.7101 16.29L3.7101 3.29C3.5218 3.1017 3.26641 2.99591 3.0001 2.99591C2.7338 2.99591 2.47841 3.1017 2.2901 3.29C2.1018 3.47831 1.99601 3.7337 1.99601 4C1.99601 4.2663 2.1018 4.5217 2.2901 4.71L5.6501 8.06C5.35469 8.69347 5.15581 9.36762 5.0601 10.06C4.03449 10.2167 3.10987 10.7657 2.48142 11.5912C1.85296 12.4167 1.56984 13.4541 1.69182 14.4844C1.81379 15.5147 2.33132 16.4573 3.13516 17.1133C3.93901 17.7692 4.96626 18.0872 6.0001 18H15.5901L18.2901 20.71C18.3831 20.8037 18.4937 20.8781 18.6155 20.9289C18.7374 20.9797 18.8681 21.0058 19.0001 21.0058C19.1321 21.0058 19.2628 20.9797 19.3847 20.9289C19.5065 20.8781 19.6171 20.8037 19.7101 20.71C19.8038 20.617 19.8782 20.5064 19.929 20.3846C19.9798 20.2627 20.0059 20.132 20.0059 20C20.0059 19.868 19.9798 19.7373 19.929 19.6154C19.8782 19.4936 19.8038 19.383 19.7101 19.29L16.7101 16.29ZM6.0001 16C5.46967 16 4.96096 15.7893 4.58589 15.4142C4.21082 15.0391 4.0001 14.5304 4.0001 14C4.0001 13.4696 4.21082 12.9609 4.58589 12.5858C4.96096 12.2107 5.46967 12 6.0001 12C6.26532 12 6.51967 11.8946 6.70721 11.7071C6.89475 11.5196 7.0001 11.2652 7.0001 11C7.00105 10.5296 7.06838 10.0616 7.2001 9.61L13.5901 16H6.0001ZM18.4201 8.22C17.878 6.96725 16.9814 5.90032 15.8408 5.15054C14.7001 4.40076 13.3651 4.00084 12.0001 4C11.2093 3.9962 10.424 4.1316 9.6801 4.4C9.45207 4.50302 9.27095 4.68779 9.17249 4.91783C9.07403 5.14787 9.06539 5.40646 9.14827 5.64256C9.23116 5.87866 9.39955 6.0751 9.62019 6.19312C9.84084 6.31113 10.0977 6.34213 10.3401 6.28C10.8732 6.0918 11.4348 5.99707 12.0001 6C13.0437 6.00077 14.0609 6.32806 14.9091 6.93598C15.7573 7.54391 16.3941 8.402 16.7301 9.39C16.7873 9.56184 16.89 9.71493 17.0274 9.83294C17.1648 9.95094 17.3316 10.0294 17.5101 10.06C18.0186 10.15 18.4953 10.3697 18.894 10.6978C19.2927 11.026 19.5999 11.4516 19.786 11.9333C19.972 12.415 20.0306 12.9366 19.956 13.4475C19.8814 13.9585 19.6761 14.4416 19.3601 14.85C19.1966 15.0572 19.1217 15.3207 19.1516 15.583C19.1816 15.8452 19.3141 16.085 19.5201 16.25C19.696 16.3912 19.9145 16.4687 20.1401 16.47C20.2903 16.4693 20.4384 16.4348 20.5735 16.369C20.7085 16.3032 20.827 16.2079 20.9201 16.09C21.4215 15.4492 21.7589 14.6958 21.9031 13.895C22.0473 13.0943 21.994 12.2705 21.7476 11.495C21.5013 10.7196 21.0695 10.016 20.4896 9.44528C19.9097 8.87456 19.1994 8.45397 18.4201 8.22Z" />
</svg>
