<svg width="24" height="24" viewBox="0 0 24 24" xmlns="http://www.w3.org/2000/svg">
<path d="M15 17C14.8022 17 14.6089 17.0586 14.4444 17.1685C14.28 17.2784 14.1518 17.4346 14.0761 17.6173C14.0004 17.8 13.9806 18.0011 14.0192 18.1951C14.0578 18.3891 14.153 18.5673 14.2929 18.7071C14.4327 18.847 14.6109 18.9422 14.8049 18.9808C14.9989 19.0194 15.2 18.9996 15.3827 18.9239C15.5654 18.8482 15.7216 18.72 15.8315 18.5556C15.9414 18.3911 16 18.1978 16 18C16 17.7348 15.8946 17.4804 15.7071 17.2929C15.5196 17.1054 15.2652 17 15 17ZM9 17H6C5.73478 17 5.48043 17.1054 5.29289 17.2929C5.10536 17.4804 5 17.7348 5 18C5 18.2652 5.10536 18.5196 5.29289 18.7071C5.48043 18.8946 5.73478 19 6 19H9C9.26522 19 9.51957 18.8946 9.70711 18.7071C9.89464 18.5196 10 18.2652 10 18C10 17.7348 9.89464 17.4804 9.70711 17.2929C9.51957 17.1054 9.26522 17 9 17ZM18 17C17.8022 17 17.6089 17.0586 17.4444 17.1685C17.28 17.2784 17.1518 17.4346 17.0761 17.6173C17.0004 17.8 16.9806 18.0011 17.0192 18.1951C17.0578 18.3891 17.153 18.5673 17.2929 18.7071C17.4327 18.847 17.6109 18.9422 17.8049 18.9808C17.9989 19.0194 18.2 18.9996 18.3827 18.9239C18.5654 18.8482 18.7216 18.72 18.8315 18.5556C18.9414 18.3911 19 18.1978 19 18C19 17.7348 18.8946 17.4804 18.7071 17.2929C18.5196 17.1054 18.2652 17 18 17ZM15 11C14.8022 11 14.6089 11.0586 14.4444 11.1685C14.28 11.2784 14.1518 11.4346 14.0761 11.6173C14.0004 11.8 13.9806 12.0011 14.0192 12.1951C14.0578 12.3891 14.153 12.5673 14.2929 12.7071C14.4327 12.847 14.6109 12.9422 14.8049 12.9808C14.9989 13.0194 15.2 12.9996 15.3827 12.9239C15.5654 12.8482 15.7216 12.72 15.8315 12.5556C15.9414 12.3911 16 12.1978 16 12C16 11.7348 15.8946 11.4804 15.7071 11.2929C15.5196 11.1054 15.2652 11 15 11ZM9 11H6C5.73478 11 5.48043 11.1054 5.29289 11.2929C5.10536 11.4804 5 11.7348 5 12C5 12.2652 5.10536 12.5196 5.29289 12.7071C5.48043 12.8946 5.73478 13 6 13H9C9.26522 13 9.51957 12.8946 9.70711 12.7071C9.89464 12.5196 10 12.2652 10 12C10 11.7348 9.89464 11.4804 9.70711 11.2929C9.51957 11.1054 9.26522 11 9 11ZM18 5C17.8022 5 17.6089 5.05865 17.4444 5.16853C17.28 5.27841 17.1518 5.43459 17.0761 5.61732C17.0004 5.80004 16.9806 6.00111 17.0192 6.19509C17.0578 6.38907 17.153 6.56725 17.2929 6.70711C17.4327 6.84696 17.6109 6.9422 17.8049 6.98079C17.9989 7.01937 18.2 6.99957 18.3827 6.92388C18.5654 6.84819 18.7216 6.72002 18.8315 6.55557C18.9414 6.39112 19 6.19778 19 6C19 5.73478 18.8946 5.48043 18.7071 5.29289C18.5196 5.10536 18.2652 5 18 5ZM18 11C17.8022 11 17.6089 11.0586 17.4444 11.1685C17.28 11.2784 17.1518 11.4346 17.0761 11.6173C17.0004 11.8 16.9806 12.0011 17.0192 12.1951C17.0578 12.3891 17.153 12.5673 17.2929 12.7071C17.4327 12.847 17.6109 12.9422 17.8049 12.9808C17.9989 13.0194 18.2 12.9996 18.3827 12.9239C18.5654 12.8482 18.7216 12.72 18.8315 12.5556C18.9414 12.3911 19 12.1978 19 12C19 11.7348 18.8946 11.4804 18.7071 11.2929C18.5196 11.1054 18.2652 11 18 11ZM22 5C22 4.20435 21.6839 3.44129 21.1213 2.87868C20.5587 2.31607 19.7956 2 19 2H5C4.20435 2 3.44129 2.31607 2.87868 2.87868C2.31607 3.44129 2 4.20435 2 5V7C2.00441 7.74005 2.28221 8.45236 2.78 9C2.28221 9.54764 2.00441 10.2599 2 11V13C2.00441 13.7401 2.28221 14.4524 2.78 15C2.28221 15.5476 2.00441 16.2599 2 17V19C2 19.7956 2.31607 20.5587 2.87868 21.1213C3.44129 21.6839 4.20435 22 5 22H19C19.7956 22 20.5587 21.6839 21.1213 21.1213C21.6839 20.5587 22 19.7956 22 19V17C21.9956 16.2599 21.7178 15.5476 21.22 15C21.7178 14.4524 21.9956 13.7401 22 13V11C21.9956 10.2599 21.7178 9.54764 21.22 9C21.7178 8.45236 21.9956 7.74005 22 7V5ZM20 19C20 19.2652 19.8946 19.5196 19.7071 19.7071C19.5196 19.8946 19.2652 20 19 20H5C4.73478 20 4.48043 19.8946 4.29289 19.7071C4.10536 19.5196 4 19.2652 4 19V17C4 16.7348 4.10536 16.4804 4.29289 16.2929C4.48043 16.1054 4.73478 16 5 16H19C19.2652 16 19.5196 16.1054 19.7071 16.2929C19.8946 16.4804 20 16.7348 20 17V19ZM20 13C20 13.2652 19.8946 13.5196 19.7071 13.7071C19.5196 13.8946 19.2652 14 19 14H5C4.73478 14 4.48043 13.8946 4.29289 13.7071C4.10536 13.5196 4 13.2652 4 13V11C4 10.7348 4.10536 10.4804 4.29289 10.2929C4.48043 10.1054 4.73478 10 5 10H19C19.2652 10 19.5196 10.1054 19.7071 10.2929C19.8946 10.4804 20 10.7348 20 11V13ZM20 7C20 7.26522 19.8946 7.51957 19.7071 7.70711C19.5196 7.89464 19.2652 8 19 8H5C4.73478 8 4.48043 7.89464 4.29289 7.70711C4.10536 7.51957 4 7.26522 4 7V5C4 4.73478 4.10536 4.48043 4.29289 4.29289C4.48043 4.10536 4.73478 4 5 4H19C19.2652 4 19.5196 4.10536 19.7071 4.29289C19.8946 4.48043 20 4.73478 20 5V7ZM15 5C14.8022 5 14.6089 5.05865 14.4444 5.16853C14.28 5.27841 14.1518 5.43459 14.0761 5.61732C14.0004 5.80004 13.9806 6.00111 14.0192 6.19509C14.0578 6.38907 14.153 6.56725 14.2929 6.70711C14.4327 6.84696 14.6109 6.9422 14.8049 6.98079C14.9989 7.01937 15.2 6.99957 15.3827 6.92388C15.5654 6.84819 15.7216 6.72002 15.8315 6.55557C15.9414 6.39112 16 6.19778 16 6C16 5.73478 15.8946 5.48043 15.7071 5.29289C15.5196 5.10536 15.2652 5 15 5ZM9 5H6C5.73478 5 5.48043 5.10536 5.29289 5.29289C5.10536 5.48043 5 5.73478 5 6C5 6.26522 5.10536 6.51957 5.29289 6.70711C5.48043 6.89464 5.73478 7 6 7H9C9.26522 7 9.51957 6.89464 9.70711 6.70711C9.89464 6.51957 10 6.26522 10 6C10 5.73478 9.89464 5.48043 9.70711 5.29289C9.51957 5.10536 9.26522 5 9 5Z" />
</svg>
