<svg width="24" height="24" viewBox="0 0 24 24" xmlns="http://www.w3.org/2000/svg">
<path d="M14.5003 15C14.8958 15 15.2825 14.8827 15.6114 14.6629C15.9403 14.4432 16.1966 14.1308 16.348 13.7654C16.4994 13.3999 16.539 12.9978 16.4618 12.6098C16.3847 12.2219 16.1942 11.8655 15.9145 11.5858C15.6348 11.3061 15.2784 11.1156 14.8904 11.0384C14.5025 10.9613 14.1003 11.0009 13.7349 11.1522C13.3694 11.3036 13.0571 11.56 12.8373 11.8889C12.6176 12.2178 12.5003 12.6044 12.5003 13L10.6003 13.87C10.2737 13.6548 9.8913 13.5401 9.50026 13.54C8.96982 13.54 8.46111 13.7507 8.08604 14.1258C7.71097 14.5009 7.50026 15.0096 7.50026 15.54C7.50026 16.0704 7.71097 16.5791 8.08604 16.9542C8.46111 17.3293 8.96982 17.54 9.50026 17.54C9.82242 17.5401 10.1392 17.4575 10.4203 17.3L12.5203 18.3C12.5709 18.737 12.7642 19.1452 13.0703 19.4612C13.3763 19.7773 13.778 19.9836 14.2132 20.0482C14.6484 20.1128 15.0928 20.0321 15.4774 19.8186C15.8621 19.6052 16.1657 19.2708 16.3411 18.8673C16.5165 18.4639 16.554 18.0138 16.4478 17.5869C16.3415 17.1599 16.0975 16.78 15.7534 16.5058C15.4093 16.2316 14.9845 16.0785 14.5446 16.0702C14.1047 16.062 13.6744 16.1989 13.3203 16.46L11.5703 15.66L13.4803 14.78C13.7948 14.9423 14.1468 15.0182 14.5003 15ZM18.4203 7.22C17.8092 5.816 16.7547 4.65108 15.4183 3.90373C14.0819 3.15638 12.5373 2.86783 11.0212 3.08231C9.50513 3.29679 8.10118 4.00245 7.02451 5.09117C5.94784 6.1799 5.25784 7.59161 5.06025 9.11C4.22247 9.31405 3.47306 9.78337 2.9237 10.448C2.37435 11.1126 2.05447 11.937 2.01175 12.7982C1.96903 13.6594 2.20574 14.5114 2.68662 15.2271C3.16749 15.9428 3.86678 16.484 4.68025 16.77C4.78397 16.8019 4.89174 16.8188 5.00025 16.82C5.26547 16.8624 5.53668 16.7978 5.75422 16.6402C5.97177 16.4827 6.11782 16.2452 6.16025 15.98C6.20269 15.7148 6.13803 15.4436 5.9805 15.226C5.82297 15.0085 5.58547 14.8624 5.32026 14.82C4.94317 14.6839 4.61569 14.4376 4.38031 14.113C4.14493 13.7885 4.01252 13.4007 4.00025 13C4.00025 12.4696 4.21097 11.9609 4.58604 11.5858C4.96111 11.2107 5.46982 11 6.00025 11C6.26547 11 6.51983 10.8946 6.70736 10.7071C6.8949 10.5196 7.00026 10.2652 7.00026 10C7.00281 8.81728 7.42454 7.67375 8.19052 6.77258C8.95651 5.87141 10.0171 5.27095 11.184 5.07787C12.3509 4.8848 13.5484 5.11161 14.5638 5.71801C15.5793 6.32441 16.3469 7.27114 16.7303 8.39C16.7874 8.56184 16.8902 8.71493 17.0275 8.83293C17.1649 8.95093 17.3318 9.02942 17.5103 9.06C18.1116 9.16884 18.6654 9.45873 19.0974 9.89088C19.5295 10.323 19.8193 10.8768 19.9281 11.4782C20.0368 12.0796 19.9593 12.6998 19.7059 13.2559C19.4526 13.812 19.0354 14.2775 18.5103 14.59C18.2795 14.7226 18.1109 14.9414 18.0415 15.1984C17.9721 15.4553 18.0076 15.7293 18.1403 15.96C18.2729 16.1907 18.4917 16.3593 18.7486 16.4287C19.0056 16.4981 19.2795 16.4626 19.5103 16.33C20.2685 15.8899 20.8976 15.2582 21.3347 14.4982C21.7717 13.7382 22.0012 12.8767 22.0003 12C21.9972 10.9241 21.6472 9.87794 21.0023 9.01681C20.3573 8.15568 19.4518 7.52554 18.4203 7.22Z" />
</svg>
