<svg width="24" height="24" viewBox="0 0 24 24" xmlns="http://www.w3.org/2000/svg">
<path d="M21.7099 16.29C21.6169 16.1963 21.5063 16.1219 21.3845 16.0711C21.2626 16.0203 21.1319 15.9942 20.9999 15.9942C20.8679 15.9942 20.7372 16.0203 20.6153 16.0711C20.4935 16.1219 20.3829 16.1963 20.2899 16.29L17.9999 18.59V9C17.9999 8.20435 17.6838 7.44129 17.1212 6.87868C16.5586 6.31607 15.7955 6 14.9999 6H5.4099L7.7099 3.71C7.80313 3.61676 7.8771 3.50607 7.92756 3.38425C7.97802 3.26243 8.00399 3.13186 8.00399 3C8.00399 2.86814 7.97802 2.73758 7.92756 2.61575C7.8771 2.49393 7.80313 2.38324 7.7099 2.29C7.61666 2.19676 7.50597 2.1228 7.38415 2.07234C7.26232 2.02188 7.13176 1.99591 6.9999 1.99591C6.86804 1.99591 6.73747 2.02188 6.61565 2.07234C6.49383 2.1228 6.38313 2.19676 6.2899 2.29L2.2899 6.29C2.19886 6.38511 2.12749 6.49725 2.0799 6.62C1.97988 6.86346 1.97988 7.13654 2.0799 7.38C2.12749 7.50275 2.19886 7.6149 2.2899 7.71L6.2899 11.71C6.38286 11.8037 6.49346 11.8781 6.61532 11.9289C6.73718 11.9797 6.86788 12.0058 6.9999 12.0058C7.13191 12.0058 7.26261 11.9797 7.38447 11.9289C7.50633 11.8781 7.61693 11.8037 7.7099 11.71C7.80363 11.617 7.87802 11.5064 7.92879 11.3846C7.97956 11.2627 8.00569 11.132 8.00569 11C8.00569 10.868 7.97956 10.7373 7.92879 10.6154C7.87802 10.4936 7.80363 10.383 7.7099 10.29L5.4099 8H14.9999C15.2651 8 15.5195 8.10536 15.707 8.2929C15.8945 8.48043 15.9999 8.73479 15.9999 9V18.59L13.7099 16.29C13.6167 16.1968 13.506 16.1228 13.3841 16.0723C13.2623 16.0219 13.1318 15.9959 12.9999 15.9959C12.868 15.9959 12.7375 16.0219 12.6156 16.0723C12.4938 16.1228 12.3831 16.1968 12.2899 16.29C12.1967 16.3832 12.1227 16.4939 12.0722 16.6158C12.0218 16.7376 11.9958 16.8681 11.9958 17C11.9958 17.1319 12.0218 17.2624 12.0722 17.3843C12.1227 17.5061 12.1967 17.6168 12.2899 17.71L16.2899 21.71C16.385 21.801 16.4971 21.8724 16.6199 21.92C16.7396 21.9729 16.869 22.0002 16.9999 22.0002C17.1308 22.0002 17.2602 21.9729 17.3799 21.92C17.5026 21.8724 17.6148 21.801 17.7099 21.71L21.7099 17.71C21.8036 17.617 21.878 17.5064 21.9288 17.3846C21.9796 17.2627 22.0057 17.132 22.0057 17C22.0057 16.868 21.9796 16.7373 21.9288 16.6154C21.878 16.4936 21.8036 16.383 21.7099 16.29Z" />
</svg>
