<svg width="24" height="24" viewBox="0 0 24 24" xmlns="http://www.w3.org/2000/svg">
<path d="M11.4599 8.29C11.367 8.19627 11.2564 8.12188 11.1345 8.07111C11.0127 8.02034 10.882 7.9942 10.7499 7.9942C10.6179 7.9942 10.4872 8.02034 10.3654 8.07111C10.2435 8.12188 10.1329 8.19627 10.0399 8.29L7.03994 11.29C6.94621 11.383 6.87182 11.4936 6.82105 11.6154C6.77028 11.7373 6.74414 11.868 6.74414 12C6.74414 12.132 6.77028 12.2627 6.82105 12.3846C6.87182 12.5064 6.94621 12.617 7.03994 12.71L10.0399 15.71C10.1329 15.8037 10.2435 15.8781 10.3654 15.9289C10.4872 15.9797 10.6179 16.0058 10.7499 16.0058C10.882 16.0058 11.0127 15.9797 11.1345 15.9289C11.2564 15.8781 11.367 15.8037 11.4599 15.71C11.5537 15.617 11.6281 15.5064 11.6788 15.3846C11.7296 15.2627 11.7557 15.132 11.7557 15C11.7557 14.868 11.7296 14.7373 11.6788 14.6154C11.6281 14.4936 11.5537 14.383 11.4599 14.29L9.15994 12L11.4599 9.71C11.5537 9.61704 11.6281 9.50644 11.6788 9.38458C11.7296 9.26272 11.7557 9.13201 11.7557 9C11.7557 8.86799 11.7296 8.73728 11.6788 8.61542C11.6281 8.49356 11.5537 8.38296 11.4599 8.29ZM14.6599 12L16.9999 9.71C17.1882 9.5217 17.294 9.2663 17.294 9C17.294 8.7337 17.1882 8.4783 16.9999 8.29C16.8116 8.1017 16.5562 7.99591 16.2899 7.99591C16.0236 7.99591 15.7682 8.1017 15.5799 8.29L12.5799 11.29C12.4862 11.383 12.4118 11.4936 12.361 11.6154C12.3103 11.7373 12.2841 11.868 12.2841 12C12.2841 12.132 12.3103 12.2627 12.361 12.3846C12.4118 12.5064 12.4862 12.617 12.5799 12.71L15.5799 15.71C15.6729 15.8037 15.7835 15.8781 15.9054 15.9289C16.0272 15.9797 16.1579 16.0058 16.2899 16.0058C16.422 16.0058 16.5527 15.9797 16.6745 15.9289C16.7964 15.8781 16.907 15.8037 16.9999 15.71C17.0937 15.617 17.1681 15.5064 17.2188 15.3846C17.2696 15.2627 17.2957 15.132 17.2957 15C17.2957 14.868 17.2696 14.7373 17.2188 14.6154C17.1681 14.4936 17.0937 14.383 16.9999 14.29L14.6599 12Z" />
</svg>
