<svg width="24" height="24" viewBox="0 0 24 24" xmlns="http://www.w3.org/2000/svg">
<path d="M9.70994 6.29C9.61698 6.19627 9.50637 6.12188 9.38452 6.07111C9.26266 6.02034 9.13195 5.9942 8.99994 5.9942C8.86793 5.9942 8.73722 6.02034 8.61536 6.07111C8.4935 6.12188 8.3829 6.19627 8.28994 6.29L3.28994 11.29C3.19621 11.383 3.12182 11.4936 3.07105 11.6154C3.02028 11.7373 2.99414 11.868 2.99414 12C2.99414 12.132 3.02028 12.2627 3.07105 12.3846C3.12182 12.5064 3.19621 12.617 3.28994 12.71L8.28994 17.71C8.3829 17.8037 8.4935 17.8781 8.61536 17.9289C8.73722 17.9797 8.86793 18.0058 8.99994 18.0058C9.13195 18.0058 9.26266 17.9797 9.38452 17.9289C9.50637 17.8781 9.61698 17.8037 9.70994 17.71C9.80367 17.617 9.87806 17.5064 9.92883 17.3846C9.9796 17.2627 10.0057 17.132 10.0057 17C10.0057 16.868 9.9796 16.7373 9.92883 16.6154C9.87806 16.4936 9.80367 16.383 9.70994 16.29L5.40994 12L9.70994 7.71C9.80367 7.61704 9.87806 7.50644 9.92883 7.38458C9.9796 7.26272 10.0057 7.13201 10.0057 7C10.0057 6.86799 9.9796 6.73728 9.92883 6.61542C9.87806 6.49356 9.80367 6.38296 9.70994 6.29ZM20.7099 11.29L15.7099 6.29C15.6167 6.19676 15.506 6.1228 15.3842 6.07234C15.2624 6.02188 15.1318 5.99591 14.9999 5.99591C14.7336 5.99591 14.4782 6.1017 14.2899 6.29C14.1967 6.38324 14.1227 6.49393 14.0723 6.61575C14.0218 6.73757 13.9958 6.86814 13.9958 7C13.9958 7.2663 14.1016 7.5217 14.2899 7.71L18.5899 12L14.2899 16.29C14.1962 16.383 14.1218 16.4936 14.071 16.6154C14.0203 16.7373 13.9941 16.868 13.9941 17C13.9941 17.132 14.0203 17.2627 14.071 17.3846C14.1218 17.5064 14.1962 17.617 14.2899 17.71C14.3829 17.8037 14.4935 17.8781 14.6154 17.9289C14.7372 17.9797 14.8679 18.0058 14.9999 18.0058C15.132 18.0058 15.2627 17.9797 15.3845 17.9289C15.5064 17.8781 15.617 17.8037 15.7099 17.71L20.7099 12.71C20.8037 12.617 20.8781 12.5064 20.9288 12.3846C20.9796 12.2627 21.0057 12.132 21.0057 12C21.0057 11.868 20.9796 11.7373 20.9288 11.6154C20.8781 11.4936 20.8037 11.383 20.7099 11.29Z" />
</svg>
