<svg width="24" height="24" viewBox="0 0 24 24" xmlns="http://www.w3.org/2000/svg">
<path d="M11.2898 12L14.8298 8.46C15.0161 8.27264 15.1206 8.01919 15.1206 7.755C15.1206 7.49082 15.0161 7.23736 14.8298 7.05C14.7369 6.95627 14.6263 6.88188 14.5044 6.83111C14.3825 6.78034 14.2518 6.7542 14.1198 6.7542C13.9878 6.7542 13.8571 6.78034 13.7352 6.83111C13.6134 6.88188 13.5028 6.95627 13.4098 7.05L9.16982 11.29C9.07609 11.383 9.0017 11.4936 8.95093 11.6154C8.90016 11.7373 8.87402 11.868 8.87402 12C8.87402 12.132 8.90016 12.2627 8.95093 12.3846C9.0017 12.5064 9.07609 12.617 9.16982 12.71L13.4098 17C13.5033 17.0927 13.6141 17.166 13.7359 17.2158C13.8578 17.2655 13.9882 17.2908 14.1198 17.29C14.2514 17.2908 14.3819 17.2655 14.5037 17.2158C14.6256 17.166 14.7364 17.0927 14.8298 17C15.0161 16.8126 15.1206 16.5592 15.1206 16.295C15.1206 16.0308 15.0161 15.7774 14.8298 15.59L11.2898 12Z" />
</svg>
