<svg width="24" height="24" viewBox="0 0 24 24" xmlns="http://www.w3.org/2000/svg">
<path d="M21 11H9.41L11.71 8.71C11.8032 8.61676 11.8772 8.50607 11.9277 8.38425C11.9781 8.26243 12.0041 8.13186 12.0041 8C12.0041 7.86814 11.9781 7.73757 11.9277 7.61575C11.8772 7.49393 11.8032 7.38324 11.71 7.29C11.6168 7.19676 11.5061 7.1228 11.3842 7.07234C11.2624 7.02188 11.1319 6.99591 11 6.99591C10.8681 6.99591 10.7376 7.02188 10.6158 7.07234C10.4939 7.1228 10.3832 7.19676 10.29 7.29L6.29 11.29C6.19896 11.3851 6.12759 11.4972 6.08 11.62C5.97998 11.8635 5.97998 12.1365 6.08 12.38C6.12759 12.5028 6.19896 12.6149 6.29 12.71L10.29 16.71C10.383 16.8037 10.4936 16.8781 10.6154 16.9289C10.7373 16.9797 10.868 17.0058 11 17.0058C11.132 17.0058 11.2627 16.9797 11.3846 16.9289C11.5064 16.8781 11.617 16.8037 11.71 16.71C11.8037 16.617 11.8781 16.5064 11.9289 16.3846C11.9797 16.2627 12.0058 16.132 12.0058 16C12.0058 15.868 11.9797 15.7373 11.9289 15.6154C11.8781 15.4936 11.8037 15.383 11.71 15.29L9.41 13H21C21.2652 13 21.5196 12.8946 21.7071 12.7071C21.8946 12.5196 22 12.2652 22 12C22 11.7348 21.8946 11.4804 21.7071 11.2929C21.5196 11.1054 21.2652 11 21 11ZM3 3C2.73478 3 2.48043 3.10536 2.29289 3.29289C2.10536 3.48043 2 3.73478 2 4V20C2 20.2652 2.10536 20.5196 2.29289 20.7071C2.48043 20.8946 2.73478 21 3 21C3.26522 21 3.51957 20.8946 3.70711 20.7071C3.89464 20.5196 4 20.2652 4 20V4C4 3.73478 3.89464 3.48043 3.70711 3.29289C3.51957 3.10536 3.26522 3 3 3Z" />
</svg>
