<svg width="24" height="24" viewBox="0 0 24 24" xmlns="http://www.w3.org/2000/svg">
<path d="M8.69994 10C8.8873 10.1863 9.14075 10.2908 9.40494 10.2908C9.66912 10.2908 9.92258 10.1863 10.1099 10C10.2962 9.81264 10.4007 9.55919 10.4007 9.295C10.4007 9.03082 10.2962 8.77737 10.1099 8.59L3.83994 2.29C3.65164 2.1017 3.39624 1.99591 3.12994 1.99591C2.86364 1.99591 2.60824 2.1017 2.41994 2.29C2.23164 2.47831 2.12585 2.7337 2.12585 3C2.12585 3.2663 2.23164 3.5217 2.41994 3.71L8.69994 10ZM20.9999 14C20.7347 14 20.4804 14.1054 20.2928 14.2929C20.1053 14.4804 19.9999 14.7348 19.9999 15V18.59L15.4399 14C15.249 13.809 14.99 13.7018 14.7199 13.7018C14.4499 13.7018 14.1909 13.809 13.9999 14C13.809 14.191 13.7017 14.45 13.7017 14.72C13.7017 14.9901 13.809 15.249 13.9999 15.44L18.5899 20H14.9999C14.7347 20 14.4804 20.1054 14.2928 20.2929C14.1053 20.4804 13.9999 20.7348 13.9999 21C13.9999 21.2652 14.1053 21.5196 14.2928 21.7071C14.4804 21.8946 14.7347 22 14.9999 22H20.9999C21.1306 21.9984 21.2597 21.9712 21.3799 21.92C21.6243 21.8185 21.8185 21.6243 21.9199 21.38C21.9712 21.2598 21.9984 21.1307 21.9999 21V15C21.9999 14.7348 21.8946 14.4804 21.707 14.2929C21.5195 14.1054 21.2652 14 20.9999 14ZM21.9199 2.62C21.8185 2.37565 21.6243 2.18148 21.3799 2.08C21.2597 2.02876 21.1306 2.00158 20.9999 2H14.9999C14.7347 2 14.4804 2.10536 14.2928 2.2929C14.1053 2.48043 13.9999 2.73479 13.9999 3C13.9999 3.26522 14.1053 3.51957 14.2928 3.70711C14.4804 3.89465 14.7347 4 14.9999 4H18.5899L2.28994 20.29C2.19621 20.383 2.12182 20.4936 2.07105 20.6154C2.02028 20.7373 1.99414 20.868 1.99414 21C1.99414 21.132 2.02028 21.2627 2.07105 21.3846C2.12182 21.5064 2.19621 21.617 2.28994 21.71C2.3829 21.8037 2.4935 21.8781 2.61536 21.9289C2.73722 21.9797 2.86793 22.0058 2.99994 22.0058C3.13195 22.0058 3.26266 21.9797 3.38452 21.9289C3.50637 21.8781 3.61698 21.8037 3.70994 21.71L19.9999 5.41V9C19.9999 9.26522 20.1053 9.51957 20.2928 9.70711C20.4804 9.89465 20.7347 10 20.9999 10C21.2652 10 21.5195 9.89465 21.707 9.70711C21.8946 9.51957 21.9999 9.26522 21.9999 9V3C21.9984 2.86933 21.9712 2.74022 21.9199 2.62Z" />
</svg>
