<svg width="24" height="24" viewBox="0 0 24 24" xmlns="http://www.w3.org/2000/svg">
<path d="M3 10C3.26522 10 3.51957 9.89465 3.70711 9.70711C3.89464 9.51957 4 9.26522 4 9V5.41L8.56 10C8.65328 10.0968 8.76512 10.1738 8.88883 10.2263C9.01254 10.2789 9.14558 10.306 9.28 10.306C9.41442 10.306 9.54746 10.2789 9.67117 10.2263C9.79488 10.1738 9.90672 10.0968 10 10C10.1863 9.81264 10.2908 9.55919 10.2908 9.295C10.2908 9.03082 10.1863 8.77737 10 8.59L5.41 4H9C9.26522 4 9.51957 3.89465 9.70711 3.70711C9.89464 3.51957 10 3.26522 10 3C10 2.73479 9.89464 2.48043 9.70711 2.2929C9.51957 2.10536 9.26522 2 9 2H3C2.86932 2.00158 2.74022 2.02876 2.62 2.08C2.37565 2.18148 2.18147 2.37565 2.08 2.62C2.02876 2.74022 2.00158 2.86933 2 3V9C2 9.26522 2.10536 9.51957 2.29289 9.70711C2.48043 9.89465 2.73478 10 3 10ZM15.3 14C15.1087 13.8362 14.8626 13.7506 14.6109 13.7603C14.3593 13.77 14.1205 13.8743 13.9424 14.0524C13.7643 14.2305 13.66 14.4693 13.6503 14.7209C13.6406 14.9726 13.7262 15.2187 13.89 15.41L20.16 21.69C20.2534 21.7827 20.3643 21.856 20.4861 21.9058C20.6079 21.9555 20.7384 21.9808 20.87 21.98C21.0016 21.9808 21.1321 21.9555 21.2539 21.9058C21.3757 21.856 21.4866 21.7827 21.58 21.69C21.6737 21.597 21.7481 21.4864 21.7989 21.3646C21.8497 21.2427 21.8758 21.112 21.8758 20.98C21.8758 20.848 21.8497 20.7173 21.7989 20.5954C21.7481 20.4736 21.6737 20.363 21.58 20.27L15.3 14ZM9 20H5.41L21.71 3.71C21.8983 3.5217 22.0041 3.2663 22.0041 3C22.0041 2.7337 21.8983 2.47831 21.71 2.29C21.5217 2.1017 21.2663 1.99591 21 1.99591C20.7337 1.99591 20.4783 2.1017 20.29 2.29L4 18.59V15C4 14.7348 3.89464 14.4804 3.70711 14.2929C3.51957 14.1054 3.26522 14 3 14C2.73478 14 2.48043 14.1054 2.29289 14.2929C2.10536 14.4804 2 14.7348 2 15V21C2.00158 21.1307 2.02876 21.2598 2.08 21.38C2.18147 21.6243 2.37565 21.8185 2.62 21.92C2.74022 21.9712 2.86932 21.9984 3 22H9C9.26522 22 9.51957 21.8946 9.70711 21.7071C9.89464 21.5196 10 21.2652 10 21C10 20.7348 9.89464 20.4804 9.70711 20.2929C9.51957 20.1054 9.26522 20 9 20Z" />
</svg>
