<svg width="24" height="24" viewBox="0 0 24 24" xmlns="http://www.w3.org/2000/svg">
<path d="M20.9202 16.62C20.8726 16.4973 20.8012 16.3851 20.7102 16.29L17.7102 13.29C17.5219 13.1017 17.2665 12.9959 17.0002 12.9959C16.7339 12.9959 16.4785 13.1017 16.2902 13.29C16.1019 13.4783 15.9961 13.7337 15.9961 14C15.9961 14.2663 16.1019 14.5217 16.2902 14.71L17.5902 16H9.00019C8.73497 16 8.48062 15.8946 8.29308 15.7071C8.10554 15.5196 8.00019 15.2652 8.00019 15V6.41L9.29019 7.71C9.38315 7.80373 9.49375 7.87813 9.61561 7.92889C9.73747 7.97966 9.86817 8.0058 10.0002 8.0058C10.1322 8.0058 10.2629 7.97966 10.3848 7.92889C10.5066 7.87813 10.6172 7.80373 10.7102 7.71C10.8039 7.61704 10.8783 7.50644 10.9291 7.38458C10.9798 7.26272 11.006 7.13201 11.006 7C11.006 6.86799 10.9798 6.73729 10.9291 6.61543C10.8783 6.49357 10.8039 6.38297 10.7102 6.29L7.71019 3.29C7.61508 3.19896 7.50294 3.1276 7.38019 3.08C7.13672 2.97999 6.86365 2.97999 6.62019 3.08C6.49743 3.1276 6.38529 3.19896 6.29019 3.29L3.29019 6.29C3.10188 6.47831 2.99609 6.7337 2.99609 7C2.99609 7.13186 3.02207 7.26243 3.07253 7.38425C3.12299 7.50607 3.19695 7.61677 3.29019 7.71C3.38342 7.80324 3.49411 7.8772 3.61594 7.92766C3.73776 7.97812 3.86833 8.00409 4.00019 8.00409C4.26649 8.00409 4.52188 7.89831 4.71019 7.71L6.00019 6.41V15C6.00019 15.7957 6.31626 16.5587 6.87887 17.1213C7.44147 17.6839 8.20454 18 9.00019 18H17.5902L16.2902 19.29C16.1965 19.383 16.1221 19.4936 16.0713 19.6154C16.0205 19.7373 15.9944 19.868 15.9944 20C15.9944 20.132 16.0205 20.2627 16.0713 20.3846C16.1221 20.5064 16.1965 20.617 16.2902 20.71C16.3831 20.8037 16.4937 20.8781 16.6156 20.9289C16.7375 20.9797 16.8682 21.0058 17.0002 21.0058C17.1322 21.0058 17.2629 20.9797 17.3848 20.9289C17.5066 20.8781 17.6172 20.8037 17.7102 20.71L20.7102 17.71C20.8012 17.6149 20.8726 17.5028 20.9202 17.38C21.0202 17.1365 21.0202 16.8635 20.9202 16.62Z" />
</svg>
