<svg width="24" height="24" viewBox="0 0 24 24" xmlns="http://www.w3.org/2000/svg">
<path d="M19.6095 7.25C19.559 7.12641 19.4842 7.01421 19.3895 6.92L14.7595 2.29C14.5722 2.10375 14.3187 1.99921 14.0545 1.99921C13.7903 1.99921 13.5369 2.10375 13.3495 2.29C13.2558 2.38296 13.1814 2.49356 13.1306 2.61542C13.0799 2.73728 13.0537 2.86799 13.0537 3C13.0537 3.13201 13.0799 3.26272 13.1306 3.38458C13.1814 3.50644 13.2558 3.61704 13.3495 3.71L16.2695 6.63H8.26953C7.20867 6.63 6.19125 7.05143 5.4411 7.80157C4.69096 8.55172 4.26953 9.56913 4.26953 10.63V21C4.26953 21.2652 4.37489 21.5196 4.56242 21.7071C4.74996 21.8946 5.00431 22 5.26953 22C5.53475 22 5.7891 21.8946 5.97664 21.7071C6.16417 21.5196 6.26953 21.2652 6.26953 21V10.63C6.26953 10.0996 6.48024 9.59086 6.85532 9.21579C7.23039 8.84071 7.7391 8.63 8.26953 8.63H16.2695L13.3495 11.55C13.2085 11.6899 13.1123 11.8686 13.0733 12.0633C13.0342 12.2581 13.054 12.46 13.1302 12.6435C13.2063 12.8269 13.3354 12.9835 13.5009 13.0933C13.6664 13.2031 13.8609 13.2612 14.0595 13.26C14.3233 13.2562 14.5749 13.1484 14.7595 12.96L19.3895 8.34C19.4818 8.24007 19.5562 8.12507 19.6095 8C19.7068 7.75947 19.7068 7.49053 19.6095 7.25Z" />
</svg>
