<svg width="24" height="24" viewBox="0 0 24 24" xmlns="http://www.w3.org/2000/svg">
<path d="M18.6904 2.00001C18.4252 2.00001 18.1709 2.10536 17.9833 2.2929C17.7958 2.48044 17.6904 2.73479 17.6904 3.00001V13.37C17.6904 13.9004 17.4797 14.4091 17.1047 14.7842C16.7296 15.1593 16.2209 15.37 15.6904 15.37H7.69044L10.6104 12.45C10.7813 12.2637 10.8752 12.0195 10.8733 11.7667C10.8713 11.514 10.7738 11.2713 10.6002 11.0875C10.4265 10.9038 10.1898 10.7926 9.93751 10.7764C9.68524 10.7601 9.43618 10.84 9.24044 11L4.61044 15.66C4.51917 15.7569 4.4448 15.8685 4.39044 15.99C4.29043 16.2335 4.29043 16.5065 4.39044 16.75C4.44101 16.8736 4.51581 16.9858 4.61044 17.08L9.24044 21.71C9.4267 21.8948 9.6781 21.9989 9.94044 22C10.072 22.0008 10.2025 21.9755 10.3244 21.9258C10.4462 21.876 10.557 21.8027 10.6504 21.71C10.7442 21.617 10.8186 21.5064 10.8693 21.3846C10.9201 21.2627 10.9462 21.132 10.9462 21C10.9462 20.868 10.9201 20.7373 10.8693 20.6154C10.8186 20.4936 10.7442 20.383 10.6504 20.29L7.73044 17.37H15.7304C16.7913 17.37 17.8087 16.9486 18.5589 16.1984C19.309 15.4483 19.7304 14.4309 19.7304 13.37V3.00001C19.7306 2.86525 19.7034 2.73186 19.6507 2.60785C19.5979 2.48384 19.5207 2.37177 19.4236 2.27837C19.3264 2.18497 19.2114 2.11217 19.0854 2.06433C18.9594 2.0165 18.8251 1.99462 18.6904 2.00001Z" />
</svg>
