<svg width="24" height="24" viewBox="0 0 24 24" xmlns="http://www.w3.org/2000/svg">
<path d="M12.7098 12.54C12.6168 12.4463 12.5062 12.3719 12.3844 12.3211C12.2625 12.2703 12.1318 12.2442 11.9998 12.2442C11.8678 12.2442 11.7371 12.2703 11.6152 12.3211C11.4933 12.3719 11.3827 12.4463 11.2898 12.54L8.28978 15.54C8.09617 15.7283 7.98529 15.9858 7.98154 16.2559C7.97779 16.5259 8.08147 16.7864 8.26978 16.98C8.45808 17.1736 8.71558 17.2845 8.98564 17.2882C9.25569 17.292 9.51617 17.1883 9.70978 17L11.9998 14.66L14.2898 17C14.3827 17.0937 14.4933 17.1681 14.6152 17.2189C14.7371 17.2697 14.8678 17.2958 14.9998 17.2958C15.1318 17.2958 15.2625 17.2697 15.3844 17.2189C15.5062 17.1681 15.6168 17.0937 15.7098 17C15.8035 16.907 15.8779 16.7964 15.9287 16.6746C15.9794 16.5527 16.0056 16.422 16.0056 16.29C16.0056 16.158 15.9794 16.0273 15.9287 15.9054C15.8779 15.7836 15.8035 15.673 15.7098 15.58L12.7098 12.54ZM9.70978 11.46L11.9998 9.16L14.2898 11.46C14.3827 11.5537 14.4933 11.6281 14.6152 11.6789C14.7371 11.7297 14.8678 11.7558 14.9998 11.7558C15.1318 11.7558 15.2625 11.7297 15.3844 11.6789C15.5062 11.6281 15.6168 11.5537 15.7098 11.46C15.8035 11.367 15.8779 11.2564 15.9287 11.1346C15.9794 11.0127 16.0056 10.882 16.0056 10.75C16.0056 10.618 15.9794 10.4873 15.9287 10.3654C15.8779 10.2436 15.8035 10.133 15.7098 10.04L12.7098 7.04C12.6168 6.94627 12.5062 6.87188 12.3844 6.82111C12.2625 6.77034 12.1318 6.7442 11.9998 6.7442C11.8678 6.7442 11.7371 6.77034 11.6152 6.82111C11.4933 6.87188 11.3827 6.94627 11.2898 7.04L8.28978 10.04C8.10147 10.2283 7.99569 10.4837 7.99569 10.75C7.99569 11.0163 8.10147 11.2717 8.28978 11.46C8.47808 11.6483 8.73348 11.7541 8.99978 11.7541C9.26608 11.7541 9.52147 11.6483 9.70978 11.46Z" />
</svg>
