<svg width="24" height="24" viewBox="0 0 24 24" xmlns="http://www.w3.org/2000/svg">
<path d="M9.71 6.71L11 5.41V17C11 17.2652 11.1054 17.5196 11.2929 17.7071C11.4804 17.8946 11.7348 18 12 18C12.2652 18 12.5196 17.8946 12.7071 17.7071C12.8946 17.5196 13 17.2652 13 17V5.41L14.29 6.71C14.383 6.80373 14.4936 6.87812 14.6154 6.92889C14.7373 6.97966 14.868 7.0058 15 7.0058C15.132 7.0058 15.2627 6.97966 15.3846 6.92889C15.5064 6.87812 15.617 6.80373 15.71 6.71C15.8037 6.61704 15.8781 6.50644 15.9289 6.38458C15.9797 6.26272 16.0058 6.13201 16.0058 6C16.0058 5.86799 15.9797 5.73728 15.9289 5.61542C15.8781 5.49356 15.8037 5.38296 15.71 5.29L12.71 2.29C12.617 2.19627 12.5064 2.12188 12.3846 2.07111C12.2627 2.02034 12.132 1.9942 12 1.9942C11.868 1.9942 11.7373 2.02034 11.6154 2.07111C11.4936 2.12188 11.383 2.19627 11.29 2.29L8.29 5.29C8.1017 5.4783 7.99591 5.7337 7.99591 6C7.99591 6.2663 8.1017 6.5217 8.29 6.71C8.4783 6.8983 8.7337 7.00409 9 7.00409C9.2663 7.00409 9.5217 6.8983 9.71 6.71ZM18 9H16C15.7348 9 15.4804 9.10536 15.2929 9.29289C15.1054 9.48043 15 9.73478 15 10C15 10.2652 15.1054 10.5196 15.2929 10.7071C15.4804 10.8946 15.7348 11 16 11H18C18.2652 11 18.5196 11.1054 18.7071 11.2929C18.8946 11.4804 19 11.7348 19 12V19C19 19.2652 18.8946 19.5196 18.7071 19.7071C18.5196 19.8946 18.2652 20 18 20H6C5.73478 20 5.48043 19.8946 5.29289 19.7071C5.10536 19.5196 5 19.2652 5 19V12C5 11.7348 5.10536 11.4804 5.29289 11.2929C5.48043 11.1054 5.73478 11 6 11H8C8.26522 11 8.51957 10.8946 8.70711 10.7071C8.89464 10.5196 9 10.2652 9 10C9 9.73478 8.89464 9.48043 8.70711 9.29289C8.51957 9.10536 8.26522 9 8 9H6C5.20435 9 4.44129 9.31607 3.87868 9.87868C3.31607 10.4413 3 11.2044 3 12V19C3 19.7956 3.31607 20.5587 3.87868 21.1213C4.44129 21.6839 5.20435 22 6 22H18C18.7956 22 19.5587 21.6839 20.1213 21.1213C20.6839 20.5587 21 19.7956 21 19V12C21 11.2044 20.6839 10.4413 20.1213 9.87868C19.5587 9.31607 18.7956 9 18 9Z" />
</svg>
