<svg width="24" height="24" viewBox="0 0 24 24" xmlns="http://www.w3.org/2000/svg">
<path d="M15.71 6.29L10.41 11.59L8.29 9.47C8.20035 9.36532 8.09003 9.2803 7.96597 9.22027C7.84191 9.16025 7.70677 9.12652 7.56905 9.1212C7.43133 9.11588 7.294 9.13909 7.16568 9.18936C7.03735 9.23964 6.9208 9.3159 6.82335 9.41335C6.72589 9.5108 6.64964 9.62735 6.59936 9.75568C6.54909 9.884 6.52588 10.0213 6.5312 10.1591C6.53652 10.2968 6.57025 10.4319 6.63027 10.556C6.6903 10.68 6.77532 10.7904 6.88 10.88L9.71 13.71C9.89626 13.8947 10.1477 13.9989 10.41 14C10.5416 14.0008 10.6721 13.9755 10.7939 13.9258C10.9157 13.876 11.0266 13.8027 11.12 13.71L17.12 7.71C17.2137 7.61704 17.2881 7.50644 17.3389 7.38458C17.3897 7.26272 17.4158 7.13201 17.4158 7C17.4158 6.86799 17.3897 6.73728 17.3389 6.61542C17.2881 6.49356 17.2137 6.38296 17.12 6.29C16.9326 6.10375 16.6792 5.99921 16.415 5.99921C16.1508 5.99921 15.8974 6.10375 15.71 6.29ZM19 2H5C4.20435 2 3.44129 2.31607 2.87868 2.87868C2.31607 3.44129 2 4.20435 2 5V15C2 15.7956 2.31607 16.5587 2.87868 17.1213C3.44129 17.6839 4.20435 18 5 18H16.59L20.29 21.71C20.3834 21.8027 20.4943 21.876 20.6161 21.9258C20.7379 21.9755 20.8684 22.0008 21 22C21.1312 22.0034 21.2613 21.976 21.38 21.92C21.5626 21.845 21.7189 21.7176 21.8293 21.5539C21.9396 21.3901 21.999 21.1974 22 21V5C22 4.20435 21.6839 3.44129 21.1213 2.87868C20.5587 2.31607 19.7956 2 19 2ZM20 18.59L17.71 16.29C17.6166 16.1973 17.5057 16.124 17.3839 16.0742C17.2621 16.0245 17.1316 15.9992 17 16H5C4.73478 16 4.48043 15.8946 4.29289 15.7071C4.10536 15.5196 4 15.2652 4 15V5C4 4.73478 4.10536 4.48043 4.29289 4.29289C4.48043 4.10536 4.73478 4 5 4H19C19.2652 4 19.5196 4.10536 19.7071 4.29289C19.8946 4.48043 20 4.73478 20 5V18.59Z" />
</svg>
