<svg width="24" height="24" viewBox="0 0 24 24" xmlns="http://www.w3.org/2000/svg">
<path d="M13.29 7.13C13.1963 7.22296 13.1219 7.33356 13.0711 7.45542C13.0203 7.57728 12.9942 7.70799 12.9942 7.84C12.9942 7.97201 13.0203 8.10272 13.0711 8.22458C13.1219 8.34644 13.1963 8.45704 13.29 8.55L15.21 10.47C15.303 10.5637 15.4136 10.6381 15.5354 10.6889C15.6573 10.7397 15.788 10.7658 15.92 10.7658C16.052 10.7658 16.1827 10.7397 16.3046 10.6889C16.4264 10.6381 16.537 10.5637 16.63 10.47L20.71 6.39C20.8194 6.30115 20.9087 6.19019 20.9722 6.0644C21.0356 5.93861 21.0718 5.80083 21.0783 5.66008C21.0848 5.51933 21.0615 5.3788 21.0099 5.24769C20.9583 5.11658 20.8796 4.99786 20.7789 4.8993C20.6782 4.80074 20.5578 4.72457 20.4256 4.67578C20.2935 4.62699 20.1525 4.60669 20.0119 4.61619C19.8713 4.6257 19.7343 4.66481 19.6099 4.73095C19.4855 4.79709 19.3765 4.88878 19.29 5L15.92 8.35L14.71 7.13C14.617 7.03627 14.5064 6.96188 14.3846 6.91111C14.2627 6.86034 14.132 6.8342 14 6.8342C13.868 6.8342 13.7373 6.86034 13.6154 6.91111C13.4936 6.96188 13.383 7.03627 13.29 7.13ZM19.91 10.64C19.6463 10.6629 19.4023 10.7894 19.2318 10.9919C19.0612 11.1944 18.9778 11.4562 19 11.72C19.005 11.8133 19.005 11.9067 19 12C19 13.8565 18.2625 15.637 16.9498 16.9497C15.637 18.2625 13.8565 19 12 19H6.41L7.05 18.37C7.23626 18.1826 7.3408 17.9292 7.3408 17.665C7.3408 17.4008 7.23626 17.1474 7.05 16.96C6.15566 16.0705 5.51828 14.9559 5.20526 13.7339C4.89224 12.512 4.91521 11.2282 5.27174 10.0183C5.62827 8.80835 6.3051 7.71723 7.23069 6.86028C8.15628 6.00334 9.29623 5.41242 10.53 5.15C11.4542 4.9652 12.4058 4.9652 13.33 5.15C13.4613 5.17626 13.5965 5.17641 13.7279 5.15042C13.8593 5.12443 13.9843 5.07282 14.0957 4.99853C14.2071 4.92424 14.3028 4.82873 14.3773 4.71746C14.4519 4.60618 14.5037 4.48132 14.53 4.35C14.5563 4.21868 14.5564 4.08347 14.5304 3.95209C14.5044 3.82072 14.4528 3.69575 14.3785 3.58431C14.3042 3.47288 14.2087 3.37718 14.0975 3.30266C13.9862 3.22814 13.8613 3.17626 13.73 3.15C12.5386 2.91027 11.3114 2.91027 10.12 3.15C8.10119 3.59067 6.29398 4.70892 4.99871 6.31891C3.70344 7.9289 2.99813 9.93366 3 12C3.0084 14.0462 3.71384 16.0285 5 17.62L3.29 19.29C3.15125 19.4306 3.05725 19.6092 3.01988 19.8032C2.9825 19.9972 3.00342 20.1979 3.08 20.38C3.15502 20.5626 3.28242 20.7189 3.44614 20.8293C3.60986 20.9396 3.80258 20.999 4 21H12C14.387 21 16.6761 20.0518 18.364 18.364C20.0518 16.6761 21 14.3869 21 12C21 11.85 21 11.71 21 11.56C20.99 11.4276 20.9536 11.2985 20.8932 11.1803C20.8327 11.0621 20.7493 10.9571 20.6479 10.8715C20.5464 10.7859 20.4289 10.7213 20.3022 10.6815C20.1755 10.6418 20.0422 10.6277 19.91 10.64Z" />
</svg>
