<svg width="24" height="24" viewBox="0 0 24 24" xmlns="http://www.w3.org/2000/svg">
<path d="M18.9999 6H14.9999C14.7347 6 14.4803 6.10536 14.2928 6.29289C14.1052 6.48043 13.9999 6.73478 13.9999 7C13.9999 7.26522 14.1052 7.51957 14.2928 7.70711C14.4803 7.89464 14.7347 8 14.9999 8H18.9999C19.2651 8 19.5194 8.10536 19.707 8.29289C19.8945 8.48043 19.9999 8.73478 19.9999 9V18.72L18.4299 17.27C18.2454 17.0973 18.0025 17.0009 17.7499 17H8.99987C8.73465 17 8.4803 16.8946 8.29276 16.7071C8.10522 16.5196 7.99987 16.2652 7.99987 16V15C7.99987 14.7348 7.89451 14.4804 7.70697 14.2929C7.51944 14.1054 7.26508 14 6.99987 14C6.73465 14 6.4803 14.1054 6.29276 14.2929C6.10522 14.4804 5.99987 14.7348 5.99987 15V16C5.99987 16.7957 6.31594 17.5587 6.87855 18.1213C7.44116 18.6839 8.20422 19 8.99987 19H17.3599L20.3599 21.73C20.5341 21.8936 20.7611 21.9894 20.9999 22C21.137 21.9985 21.2727 21.9714 21.3999 21.92C21.5787 21.8419 21.7309 21.7132 21.8375 21.5497C21.9441 21.3863 22.0005 21.1952 21.9999 21V9C21.9999 8.20435 21.6838 7.44129 21.1212 6.87868C20.5586 6.31607 19.7955 6 18.9999 6ZM10.5399 10.54C11.3588 9.72315 11.8692 8.64764 11.9841 7.4967C12.099 6.34576 11.8113 5.19058 11.17 4.22795C10.5287 3.26533 9.57356 2.5548 8.4672 2.21743C7.36083 1.88005 6.17171 1.93669 5.10242 2.3777C4.03313 2.81871 3.14981 3.6168 2.60294 4.63602C2.05607 5.65524 1.87949 6.83253 2.10326 7.96734C2.32704 9.10215 2.93734 10.1243 3.83019 10.8596C4.72304 11.5949 5.8432 11.9979 6.99987 12C7.65692 12.0012 8.30775 11.8728 8.91517 11.6223C9.52259 11.3718 10.0747 11.004 10.5399 10.54ZM3.99987 7C3.99987 6.20435 4.31594 5.44129 4.87855 4.87868C5.44116 4.31607 6.20422 4 6.99987 4C7.44347 4.00413 7.88063 4.10659 8.27987 4.3L4.27987 8.3C4.09046 7.89307 3.99477 7.44882 3.99987 7ZM9.69987 5.71C9.89472 6.11228 9.99722 6.55302 9.99987 7C9.99765 7.50445 9.86826 8.00019 9.62367 8.44138C9.37908 8.88256 9.02719 9.25495 8.60054 9.5241C8.17389 9.79325 7.68626 9.95046 7.18274 9.98121C6.67923 10.012 6.17609 9.91524 5.71987 9.7L9.69987 5.71Z" />
</svg>
