<svg width="24" height="24" viewBox="0 0 24 24" xmlns="http://www.w3.org/2000/svg">
<path d="M19.0001 14C18.8728 13.9669 18.7401 13.9593 18.6098 13.9777C18.4794 13.996 18.354 14.0398 18.2407 14.1067C18.1273 14.1736 18.0283 14.2622 17.9493 14.3675C17.8702 14.4727 17.8128 14.5925 17.7801 14.72C17.3977 16.2285 16.5236 17.5666 15.2957 18.5228C14.0679 19.479 12.5564 19.9988 11.0001 20H5.41014L6.05014 19.37C6.23639 19.1826 6.34093 18.9292 6.34093 18.665C6.34093 18.4008 6.23639 18.1474 6.05014 17.96C5.17423 17.0876 4.54498 15.9988 4.22639 14.8043C3.9078 13.6098 3.91124 12.3522 4.23634 11.1595C4.56145 9.96676 5.19663 8.8814 6.0773 8.01379C6.95796 7.14618 8.05268 6.52727 9.25014 6.22C9.37752 6.18717 9.49719 6.12957 9.60231 6.0505C9.70743 5.97142 9.79595 5.87241 9.86281 5.75912C9.92967 5.64583 9.97356 5.52049 9.99197 5.39024C10.0104 5.25999 10.003 5.12739 9.97014 5C9.90384 4.74274 9.73805 4.52236 9.50926 4.38733C9.39597 4.32048 9.27062 4.27659 9.14037 4.25817C9.01012 4.23975 8.87752 4.24717 8.75014 4.28C7.29714 4.65885 5.96202 5.39522 4.8664 6.42204C3.77078 7.44885 2.94949 8.73348 2.47733 10.1589C2.00518 11.5843 1.89717 13.1052 2.16314 14.583C2.42912 16.0609 3.06063 17.4487 4.00014 18.62L2.29014 20.29C2.15138 20.4306 2.05739 20.6092 2.02001 20.8032C1.98264 20.9972 2.00356 21.1979 2.08014 21.38C2.15516 21.5626 2.28256 21.719 2.44628 21.8293C2.61 21.9396 2.80271 21.999 3.00014 22H11.0001C12.9964 22.0013 14.9364 21.3388 16.515 20.1169C18.0936 18.895 19.2211 17.1829 19.7201 15.25C19.7578 15.1206 19.7689 14.985 19.7528 14.8512C19.7367 14.7175 19.6937 14.5883 19.6265 14.4716C19.5592 14.3549 19.4691 14.2529 19.3614 14.1719C19.2538 14.0908 19.1309 14.0324 19.0001 14ZM20.5401 3.46C19.7233 2.64109 18.6478 2.13071 17.4968 2.01581C16.3459 1.9009 15.1907 2.18859 14.2281 2.82986C13.2655 3.47113 12.5549 4.42631 12.2176 5.53267C11.8802 6.63904 11.9368 7.82816 12.3778 8.89745C12.8188 9.96674 13.6169 10.8501 14.6362 11.3969C15.6554 11.9438 16.8327 12.1204 17.9675 11.8966C19.1023 11.6728 20.1244 11.0625 20.8597 10.1697C21.5951 9.27684 21.9981 8.15667 22.0001 7C22.0013 6.34295 21.873 5.69212 21.6225 5.0847C21.3719 4.47728 21.0042 3.92519 20.5401 3.46ZM14.0001 7C14.0001 6.20435 14.3162 5.44129 14.8788 4.87868C15.4414 4.31607 16.2045 4 17.0001 4C17.4471 4.00265 17.8879 4.10515 18.2901 4.3L14.2901 8.3C14.0973 7.89388 13.9982 7.44959 14.0001 7ZM19.1201 9.12C18.6749 9.54326 18.1132 9.82369 17.5074 9.92526C16.9015 10.0268 16.2791 9.9449 15.7201 9.69L19.7201 5.69C19.911 6.09998 20.0067 6.54781 20.0001 7C19.9994 7.79539 19.6829 8.55793 19.1201 9.12Z" />
</svg>
