<svg width="24" height="24" viewBox="0 0 24 24" xmlns="http://www.w3.org/2000/svg">
<path d="M11.9999 10C11.7346 10 11.4803 10.1054 11.2928 10.2929C11.1052 10.4804 10.9999 10.7348 10.9999 11V15C10.9999 15.2652 11.1052 15.5196 11.2928 15.7071C11.4803 15.8946 11.7346 16 11.9999 16C12.2651 16 12.5194 15.8946 12.707 15.7071C12.8945 15.5196 12.9999 15.2652 12.9999 15V11C12.9999 10.7348 12.8945 10.4804 12.707 10.2929C12.5194 10.1054 12.2651 10 11.9999 10ZM7.99987 13C7.73465 13 7.4803 13.1054 7.29276 13.2929C7.10522 13.4804 6.99987 13.7348 6.99987 14V15C6.99987 15.2652 7.10522 15.5196 7.29276 15.7071C7.4803 15.8946 7.73465 16 7.99987 16C8.26508 16 8.51944 15.8946 8.70697 15.7071C8.89451 15.5196 8.99987 15.2652 8.99987 15V14C8.99987 13.7348 8.89451 13.4804 8.70697 13.2929C8.51944 13.1054 8.26508 13 7.99987 13ZM11.9999 2C10.6866 2 9.38629 2.25866 8.17303 2.7612C6.95978 3.26375 5.85738 4.00035 4.9288 4.92893C3.05343 6.8043 1.99987 9.34784 1.99987 12C1.99112 14.3091 2.79066 16.5485 4.25987 18.33L2.25987 20.33C2.12111 20.4706 2.02711 20.6492 1.98974 20.8432C1.95236 21.0372 1.97329 21.2379 2.04987 21.42C2.13292 21.5999 2.26757 21.7511 2.43671 21.8544C2.60586 21.9577 2.80187 22.0083 2.99987 22H11.9999C14.652 22 17.1956 20.9464 19.0709 19.0711C20.9463 17.1957 21.9999 14.6522 21.9999 12C21.9999 9.34784 20.9463 6.8043 19.0709 4.92893C17.1956 3.05357 14.652 2 11.9999 2ZM11.9999 20H5.40987L6.33987 19.07C6.43435 18.9774 6.50952 18.8669 6.56102 18.7451C6.61252 18.6232 6.63932 18.4923 6.63987 18.36C6.63611 18.0962 6.52828 17.8446 6.33987 17.66C5.03045 16.352 4.21504 14.6305 4.03256 12.7888C3.85007 10.947 4.31181 9.09901 5.33909 7.55952C6.36638 6.02004 7.89566 4.88436 9.66638 4.34597C11.4371 3.80759 13.3397 3.8998 15.0501 4.60691C16.7604 5.31402 18.1727 6.59227 19.0463 8.22389C19.9199 9.85551 20.2007 11.7395 19.841 13.555C19.4813 15.3705 18.5032 17.005 17.0734 18.1802C15.6436 19.3554 13.8506 19.9985 11.9999 20ZM15.9999 8C15.7346 8 15.4803 8.10536 15.2928 8.29289C15.1052 8.48043 14.9999 8.73478 14.9999 9V15C14.9999 15.2652 15.1052 15.5196 15.2928 15.7071C15.4803 15.8946 15.7346 16 15.9999 16C16.2651 16 16.5194 15.8946 16.707 15.7071C16.8945 15.5196 16.9999 15.2652 16.9999 15V9C16.9999 8.73478 16.8945 8.48043 16.707 8.29289C16.5194 8.10536 16.2651 8 15.9999 8Z" />
</svg>
