<svg width="24" height="24" viewBox="0 0 24 24" xmlns="http://www.w3.org/2000/svg">
<path d="M20.6101 19.19C21.2368 18.3499 21.6669 17.3799 21.8686 16.3514C22.0703 15.3229 22.0385 14.2623 21.7755 13.2478C21.5125 12.2332 21.025 11.2907 20.3491 10.4897C19.6732 9.68878 18.826 9.04981 17.8701 8.62C17.6619 7.4221 17.1834 6.28742 16.4709 5.30217C15.7585 4.31692 14.8308 3.50703 13.7585 2.93403C12.6861 2.36103 11.4972 2.04 10.2822 1.99534C9.06713 1.95067 7.8579 2.18354 6.74635 2.67626C5.6348 3.16898 4.65018 3.90857 3.86731 4.83885C3.08443 5.76913 2.5239 6.86562 2.22831 8.045C1.93271 9.22437 1.90982 10.4556 2.16139 11.6452C2.41295 12.8347 2.93235 13.9513 3.68011 14.91L2.29011 16.29C2.15136 16.4306 2.05736 16.6092 2.01998 16.8032C1.98261 16.9972 2.00353 17.1979 2.08011 17.38C2.15513 17.5626 2.28253 17.7189 2.44625 17.8293C2.60997 17.9396 2.80269 17.999 3.00011 18H8.69011C9.25676 19.1946 10.1501 20.2043 11.2669 20.9122C12.3836 21.6201 13.6779 21.9972 15.0001 22H21.0001C21.1975 21.999 21.3903 21.9396 21.554 21.8293C21.7177 21.7189 21.8451 21.5626 21.9201 21.38C21.9967 21.1979 22.0176 20.9972 21.9802 20.8032C21.9429 20.6092 21.8489 20.4306 21.7101 20.29L20.6101 19.19ZM8.00011 15C8.00149 15.3349 8.02823 15.6692 8.08011 16H5.41011L5.76011 15.66C5.85384 15.567 5.92824 15.4564 5.979 15.3346C6.02977 15.2127 6.05591 15.082 6.05591 14.95C6.05591 14.818 6.02977 14.6873 5.979 14.5654C5.92824 14.4436 5.85384 14.333 5.76011 14.24C5.19967 13.6857 4.75536 13.0252 4.45317 12.2972C4.15097 11.5692 3.99695 10.7882 4.00011 10C4.00011 8.4087 4.63225 6.88258 5.75747 5.75736C6.88269 4.63214 8.40881 4 10.0001 4C11.2418 3.99254 12.4546 4.37438 13.468 5.09186C14.4815 5.80934 15.2446 6.82638 15.6501 8C15.4301 8 15.2201 8 15.0001 8C13.1436 8 11.3631 8.7375 10.0504 10.0503C8.73761 11.363 8.00011 13.1435 8.00011 15ZM18.5401 20L18.5901 20.05H15.0001C13.8435 20.0479 12.7233 19.6449 11.8304 18.9096C10.9376 18.1743 10.3273 17.1522 10.1035 16.0173C9.87973 14.8825 10.0563 13.7052 10.6032 12.686C11.1501 11.6668 12.0334 10.8687 13.1027 10.4277C14.172 9.98669 15.3611 9.93005 16.4674 10.2674C17.5738 10.6048 18.529 11.3153 19.1703 12.278C19.8115 13.2406 20.0992 14.3958 19.9843 15.5467C19.8694 16.6976 19.359 17.7731 18.5401 18.59C18.3517 18.7746 18.2439 19.0262 18.2401 19.29C18.2407 19.4223 18.2675 19.5532 18.319 19.6751C18.3705 19.7969 18.4456 19.9074 18.5401 20Z" />
</svg>
