<svg width="24" height="24" viewBox="0 0 24 24" xmlns="http://www.w3.org/2000/svg">
<path d="M7 7C6.80222 7 6.60888 7.05865 6.44443 7.16853C6.27998 7.27841 6.15181 7.43459 6.07612 7.61732C6.00043 7.80004 5.98063 8.00111 6.01921 8.19509C6.0578 8.38907 6.15304 8.56725 6.29289 8.70711C6.43275 8.84696 6.61093 8.9422 6.80491 8.98079C6.99889 9.01937 7.19996 8.99957 7.38268 8.92388C7.56541 8.84819 7.72159 8.72002 7.83147 8.55557C7.94135 8.39112 8 8.19778 8 8C8 7.73478 7.89464 7.48043 7.70711 7.29289C7.51957 7.10536 7.26522 7 7 7ZM7 11C6.80222 11 6.60888 11.0586 6.44443 11.1685C6.27998 11.2784 6.15181 11.4346 6.07612 11.6173C6.00043 11.8 5.98063 12.0011 6.01921 12.1951C6.0578 12.3891 6.15304 12.5673 6.29289 12.7071C6.43275 12.847 6.61093 12.9422 6.80491 12.9808C6.99889 13.0194 7.19996 12.9996 7.38268 12.9239C7.56541 12.8482 7.72159 12.72 7.83147 12.5556C7.94135 12.3911 8 12.1978 8 12C8 11.7348 7.89464 11.4804 7.70711 11.2929C7.51957 11.1054 7.26522 11 7 11ZM17 11H11C10.7348 11 10.4804 11.1054 10.2929 11.2929C10.1054 11.4804 10 11.7348 10 12C10 12.2652 10.1054 12.5196 10.2929 12.7071C10.4804 12.8946 10.7348 13 11 13H17C17.2652 13 17.5196 12.8946 17.7071 12.7071C17.8946 12.5196 18 12.2652 18 12C18 11.7348 17.8946 11.4804 17.7071 11.2929C17.5196 11.1054 17.2652 11 17 11ZM17 7H11C10.7348 7 10.4804 7.10536 10.2929 7.29289C10.1054 7.48043 10 7.73478 10 8C10 8.26522 10.1054 8.51957 10.2929 8.70711C10.4804 8.89464 10.7348 9 11 9H17C17.2652 9 17.5196 8.89464 17.7071 8.70711C17.8946 8.51957 18 8.26522 18 8C18 7.73478 17.8946 7.48043 17.7071 7.29289C17.5196 7.10536 17.2652 7 17 7ZM19 2H5C4.20435 2 3.44129 2.31607 2.87868 2.87868C2.31607 3.44129 2 4.20435 2 5V15C2 15.7956 2.31607 16.5587 2.87868 17.1213C3.44129 17.6839 4.20435 18 5 18H16.59L20.29 21.71C20.3834 21.8027 20.4943 21.876 20.6161 21.9258C20.7379 21.9755 20.8684 22.0008 21 22C21.1312 22.0034 21.2613 21.976 21.38 21.92C21.5626 21.845 21.7189 21.7176 21.8293 21.5539C21.9396 21.3901 21.999 21.1974 22 21V5C22 4.20435 21.6839 3.44129 21.1213 2.87868C20.5587 2.31607 19.7956 2 19 2ZM20 18.59L17.71 16.29C17.6166 16.1973 17.5057 16.124 17.3839 16.0742C17.2621 16.0245 17.1316 15.9992 17 16H5C4.73478 16 4.48043 15.8946 4.29289 15.7071C4.10536 15.5196 4 15.2652 4 15V5C4 4.73478 4.10536 4.48043 4.29289 4.29289C4.48043 4.10536 4.73478 4 5 4H19C19.2652 4 19.5196 4.10536 19.7071 4.29289C19.8946 4.48043 20 4.73478 20 5V18.59Z" />
</svg>
