<svg width="24" height="24" viewBox="0 0 24 24" xmlns="http://www.w3.org/2000/svg">
<path d="M11.9999 14C11.8021 14 11.6087 14.0586 11.4443 14.1685C11.2798 14.2784 11.1517 14.4346 11.076 14.6173C11.0003 14.8 10.9805 15.0011 11.0191 15.1951C11.0577 15.3891 11.1529 15.5673 11.2928 15.7071C11.4326 15.847 11.6108 15.9422 11.8048 15.9808C11.9988 16.0194 12.1998 15.9996 12.3826 15.9239C12.5653 15.8482 12.7215 15.72 12.8313 15.5556C12.9412 15.3911 12.9999 15.1978 12.9999 15C12.9999 14.7348 12.8945 14.4804 12.707 14.2929C12.5194 14.1054 12.2651 14 11.9999 14ZM11.9999 2C10.6866 2 9.38629 2.25866 8.17303 2.7612C6.95978 3.26375 5.85738 4.00035 4.9288 4.92893C3.05343 6.8043 1.99987 9.34784 1.99987 12C1.99112 14.3091 2.79066 16.5485 4.25987 18.33L2.25987 20.33C2.12111 20.4706 2.02711 20.6492 1.98974 20.8432C1.95236 21.0372 1.97329 21.2379 2.04987 21.42C2.13292 21.5999 2.26757 21.7511 2.43671 21.8544C2.60586 21.9577 2.80187 22.0083 2.99987 22H11.9999C14.652 22 17.1956 20.9464 19.0709 19.0711C20.9463 17.1957 21.9999 14.6522 21.9999 12C21.9999 9.34784 20.9463 6.8043 19.0709 4.92893C17.1956 3.05357 14.652 2 11.9999 2ZM11.9999 20H5.40987L6.33987 19.07C6.43435 18.9774 6.50952 18.8669 6.56102 18.7451C6.61252 18.6232 6.63932 18.4923 6.63987 18.36C6.63611 18.0962 6.52828 17.8446 6.33987 17.66C5.03045 16.352 4.21504 14.6305 4.03256 12.7888C3.85007 10.947 4.31181 9.09901 5.33909 7.55952C6.36638 6.02004 7.89566 4.88436 9.66638 4.34597C11.4371 3.80759 13.3397 3.8998 15.0501 4.60691C16.7604 5.31402 18.1727 6.59227 19.0463 8.22389C19.9199 9.85551 20.2007 11.7395 19.841 13.555C19.4813 15.3705 18.5032 17.005 17.0734 18.1802C15.6436 19.3554 13.8506 19.9985 11.9999 20ZM11.9999 8C11.7346 8 11.4803 8.10536 11.2928 8.29289C11.1052 8.48043 10.9999 8.73478 10.9999 9V12C10.9999 12.2652 11.1052 12.5196 11.2928 12.7071C11.4803 12.8946 11.7346 13 11.9999 13C12.2651 13 12.5194 12.8946 12.707 12.7071C12.8945 12.5196 12.9999 12.2652 12.9999 12V9C12.9999 8.73478 12.8945 8.48043 12.707 8.29289C12.5194 8.10536 12.2651 8 11.9999 8Z" />
</svg>
