<svg width="24" height="24" viewBox="0 0 24 24" xmlns="http://www.w3.org/2000/svg">
<path d="M19.2901 3.71C19.3831 3.80373 19.4937 3.87812 19.6156 3.92889C19.7374 3.97966 19.8681 4.0058 20.0001 4.0058C20.1322 4.0058 20.2629 3.97966 20.3847 3.92889C20.5066 3.87812 20.6172 3.80373 20.7101 3.71C20.7985 3.6128 20.8695 3.50119 20.9201 3.38C20.9714 3.25978 20.9986 3.13068 21.0001 3C21.0009 2.86839 20.9757 2.73793 20.9259 2.61609C20.8761 2.49426 20.8028 2.38344 20.7101 2.29L20.5601 2.17C20.5044 2.13215 20.4439 2.10189 20.3801 2.08C20.198 2.00342 19.9973 1.9825 19.8033 2.01987C19.6093 2.05725 19.4308 2.15124 19.2901 2.29C19.1975 2.38344 19.1241 2.49426 19.0744 2.61609C19.0246 2.73793 18.9994 2.86839 19.0001 3C19.0017 3.13068 19.0289 3.25978 19.0801 3.38C19.1308 3.50119 19.2018 3.6128 19.2901 3.71ZM20.0001 5C19.7349 5 19.4806 5.10536 19.293 5.29289C19.1055 5.48043 19.0001 5.73478 19.0001 6V10C19.0001 10.2652 19.1055 10.5196 19.293 10.7071C19.4806 10.8946 19.7349 11 20.0001 11C20.2654 11 20.5197 10.8946 20.7072 10.7071C20.8948 10.5196 21.0001 10.2652 21.0001 10V6C21.0001 5.73478 20.8948 5.48043 20.7072 5.29289C20.5197 5.10536 20.2654 5 20.0001 5ZM20.0601 13C19.7977 12.9689 19.5336 13.043 19.3257 13.206C19.1177 13.369 18.9827 13.6077 18.9501 13.87C18.738 15.5633 17.9146 17.1209 16.6348 18.2497C15.3549 19.3786 13.7067 20.001 12.0001 20H6.41014L7.05014 19.37C7.23639 19.1826 7.34093 18.9292 7.34093 18.665C7.34093 18.4008 7.23639 18.1474 7.05014 17.96C6.06763 16.9816 5.39784 15.7334 5.12572 14.3737C4.85361 13.0141 4.99142 11.6043 5.52168 10.3231C6.05195 9.04185 6.95078 7.94699 8.10416 7.17733C9.25755 6.40768 10.6135 5.99791 12.0001 6C13.2263 5.99815 14.4308 6.32258 15.4901 6.94C15.7157 7.04195 15.9711 7.05661 16.2069 6.98112C16.4427 6.90564 16.6421 6.74538 16.7665 6.53136C16.8909 6.31735 16.9315 6.06478 16.8805 5.82254C16.8294 5.5803 16.6904 5.36561 16.4901 5.22C15.1293 4.41969 13.5789 3.99843 12.0001 4C10.3076 4.00556 8.65094 4.48828 7.22033 5.39274C5.78971 6.2972 4.64313 7.58673 3.91221 9.11332C3.18129 10.6399 2.89565 12.3417 3.08808 14.0232C3.28052 15.7048 3.94323 17.298 5.00014 18.62L3.29014 20.29C3.15138 20.4306 3.05739 20.6092 3.02001 20.8032C2.98264 20.9972 3.00356 21.1979 3.08014 21.38C3.15516 21.5626 3.28256 21.7189 3.44628 21.8293C3.61 21.9396 3.80271 21.999 4.00014 22H12.0001C14.1931 22 16.3106 21.1993 17.9549 19.7483C19.5993 18.2973 20.6572 16.2959 20.9301 14.12C20.9469 13.9893 20.9377 13.8565 20.903 13.7294C20.8684 13.6022 20.8089 13.4832 20.728 13.3791C20.6472 13.275 20.5465 13.1879 20.4319 13.1229C20.3173 13.0578 20.191 13.0161 20.0601 13Z" />
</svg>
