<svg width="24" height="24" viewBox="0 0 24 24" xmlns="http://www.w3.org/2000/svg">
<path d="M5.00002 11C5.26523 11 5.51959 10.8946 5.70712 10.7071C5.89466 10.5196 6.00002 10.2652 6.00002 10V6C6.00002 5.73478 5.89466 5.48043 5.70712 5.29289C5.51959 5.10536 5.26523 5 5.00002 5C4.7348 5 4.48045 5.10536 4.29291 5.29289C4.10537 5.48043 4.00002 5.73478 4.00002 6V10C4.00002 10.2652 4.10537 10.5196 4.29291 10.7071C4.48045 10.8946 4.7348 11 5.00002 11ZM4.29002 3.71C4.43064 3.84876 4.60921 3.94275 4.8032 3.98013C4.99719 4.0175 5.19791 3.99658 5.38002 3.92C5.5012 3.86936 5.61282 3.79833 5.71002 3.71C5.79835 3.6128 5.86937 3.50119 5.92002 3.38C5.976 3.26132 6.0034 3.13118 6.00002 3C6.00078 2.86839 5.97555 2.73793 5.92579 2.61609C5.87602 2.49426 5.8027 2.38344 5.71002 2.29C5.56939 2.15124 5.39082 2.05725 5.19683 2.01987C5.00284 1.9825 4.80213 2.00342 4.62002 2.08C4.49727 2.12759 4.38512 2.19896 4.29002 2.29C4.19734 2.38344 4.12401 2.49426 4.07425 2.61609C4.02448 2.73793 3.99926 2.86839 4.00002 3C4.0016 3.13068 4.02878 3.25978 4.08002 3.38C4.13066 3.50119 4.20169 3.6128 4.29002 3.71ZM17 6H9.00002C8.7348 6 8.48045 6.10536 8.29291 6.29289C8.10537 6.48043 8.00002 6.73478 8.00002 7C8.00002 7.26522 8.10537 7.51957 8.29291 7.70711C8.48045 7.89464 8.7348 8 9.00002 8H17C17.2652 8 17.5196 8.10536 17.7071 8.29289C17.8947 8.48043 18 8.73478 18 9V18.72L16.43 17.27C16.2456 17.0973 16.0027 17.0009 15.75 17H7.00002C6.7348 17 6.48045 16.8946 6.29291 16.7071C6.10537 16.5196 6.00002 16.2652 6.00002 16V14C6.00002 13.7348 5.89466 13.4804 5.70712 13.2929C5.51959 13.1054 5.26523 13 5.00002 13C4.7348 13 4.48045 13.1054 4.29291 13.2929C4.10537 13.4804 4.00002 13.7348 4.00002 14V16C4.00002 16.7956 4.31609 17.5587 4.8787 18.1213C5.44131 18.6839 6.20437 19 7.00002 19H15.36L18.36 21.73C18.5342 21.8936 18.7613 21.9894 19 22C19.1372 21.9985 19.2728 21.9714 19.4 21.92C19.5789 21.8419 19.731 21.7132 19.8376 21.5497C19.9442 21.3863 20.0007 21.1952 20 21V9C20 8.20435 19.6839 7.44129 19.1213 6.87868C18.5587 6.31607 17.7957 6 17 6Z" />
</svg>
