<svg width="24" height="24" viewBox="0 0 24 24" xmlns="http://www.w3.org/2000/svg">
<path d="M6.29034 10.3C6.12731 10.4637 6.02602 10.6789 6.00366 10.9088C5.98131 11.1388 6.03927 11.3694 6.16771 11.5615C6.29614 11.7535 6.48712 11.8952 6.70818 11.9624C6.92924 12.0295 7.16675 12.0181 7.38034 11.93C7.50187 11.8756 7.61342 11.8013 7.71034 11.71C7.80029 11.6178 7.87159 11.5092 7.92034 11.39C7.9775 11.2682 8.00492 11.1345 8.00034 11C7.99923 10.7377 7.89508 10.4863 7.71034 10.3C7.61737 10.2063 7.50677 10.1319 7.38491 10.0811C7.26305 10.0303 7.13235 10.0042 7.00034 10.0042C6.86832 10.0042 6.73762 10.0303 6.61576 10.0811C6.4939 10.1319 6.3833 10.2063 6.29034 10.3ZM7.00034 5C7.26555 5 7.51991 5.10536 7.70744 5.29289C7.89498 5.48043 8.00034 5.73478 8.00034 6C8.00034 6.26522 7.89498 6.51957 7.70744 6.70711C7.51991 6.89464 7.26555 7 7.00034 7C6.73512 7 6.48077 7.10536 6.29323 7.29289C6.10569 7.48043 6.00034 7.73478 6.00034 8C6.00034 8.26522 6.10569 8.51957 6.29323 8.70711C6.48077 8.89464 6.73512 9 7.00034 9C7.52686 8.99966 8.04403 8.86075 8.49987 8.59723C8.95571 8.33371 9.33416 7.95486 9.59721 7.49875C9.86025 7.04264 9.99862 6.52533 9.99841 5.9988C9.9982 5.47227 9.85942 4.95507 9.59601 4.49917C9.3326 4.04326 8.95384 3.66472 8.49779 3.40156C8.04174 3.13841 7.52446 2.99992 6.99793 3C6.4714 3.00008 5.95417 3.13874 5.4982 3.40204C5.04224 3.66534 4.6636 4.04401 4.40034 4.5C4.33422 4.61413 4.29133 4.74022 4.27415 4.871C4.25696 5.00178 4.26582 5.13466 4.30021 5.262C4.3346 5.38934 4.39385 5.50862 4.47453 5.61297C4.55522 5.71732 4.65575 5.80467 4.77034 5.87C4.99995 6.00037 5.27181 6.03464 5.5266 5.96532C5.78139 5.896 5.99842 5.72873 6.13034 5.5C6.21844 5.34739 6.3453 5.22078 6.49808 5.13298C6.65086 5.04517 6.82413 4.9993 7.00034 5ZM19.0003 6H13.0003C12.7351 6 12.4808 6.10536 12.2932 6.29289C12.1057 6.48043 12.0003 6.73478 12.0003 7C12.0003 7.26522 12.1057 7.51957 12.2932 7.70711C12.4808 7.89464 12.7351 8 13.0003 8H19.0003C19.2656 8 19.5199 8.10536 19.7074 8.29289C19.895 8.48043 20.0003 8.73478 20.0003 9V18.72L18.4303 17.27C18.2459 17.0973 18.003 17.0009 17.7503 17H9.00034C8.73512 17 8.48077 16.8946 8.29323 16.7071C8.10569 16.5196 8.00034 16.2652 8.00034 16V15C8.00034 14.7348 7.89498 14.4804 7.70744 14.2929C7.51991 14.1054 7.26555 14 7.00034 14C6.73512 14 6.48077 14.1054 6.29323 14.2929C6.10569 14.4804 6.00034 14.7348 6.00034 15V16C6.00034 16.7956 6.31641 17.5587 6.87902 18.1213C7.44162 18.6839 8.20469 19 9.00034 19H17.3603L20.3603 21.73C20.5346 21.8936 20.7616 21.9894 21.0003 22C21.1375 21.9985 21.2732 21.9714 21.4003 21.92C21.5792 21.8419 21.7313 21.7132 21.838 21.5497C21.9446 21.3863 22.001 21.1952 22.0003 21V9C22.0003 8.20435 21.6843 7.44129 21.1217 6.87868C20.559 6.31607 19.796 6 19.0003 6Z" />
</svg>
