<svg width="24" height="24" viewBox="0 0 24 24" xmlns="http://www.w3.org/2000/svg">
<path d="M10.9999 11H16.9999C17.2651 11 17.5194 10.8946 17.707 10.7071C17.8945 10.5196 17.9999 10.2652 17.9999 10C17.9999 9.73478 17.8945 9.48043 17.707 9.29289C17.5194 9.10536 17.2651 9 16.9999 9H10.9999C10.7346 9 10.4803 9.10536 10.2928 9.29289C10.1052 9.48043 9.99987 9.73478 9.99987 10C9.99987 10.2652 10.1052 10.5196 10.2928 10.7071C10.4803 10.8946 10.7346 11 10.9999 11ZM6.99987 9C6.80208 9 6.60875 9.05865 6.4443 9.16853C6.27985 9.27841 6.15167 9.43459 6.07599 9.61732C6.0003 9.80004 5.9805 10.0011 6.01908 10.1951C6.05767 10.3891 6.15291 10.5673 6.29276 10.7071C6.43261 10.847 6.61079 10.9422 6.80478 10.9808C6.99876 11.0194 7.19982 10.9996 7.38255 10.9239C7.56528 10.8482 7.72145 10.72 7.83134 10.5556C7.94122 10.3911 7.99987 10.1978 7.99987 10C7.99987 9.73478 7.89451 9.48043 7.70697 9.29289C7.51944 9.10536 7.26508 9 6.99987 9ZM6.99987 13C6.80208 13 6.60875 13.0586 6.4443 13.1685C6.27985 13.2784 6.15167 13.4346 6.07599 13.6173C6.0003 13.8 5.9805 14.0011 6.01908 14.1951C6.05767 14.3891 6.15291 14.5673 6.29276 14.7071C6.43261 14.847 6.61079 14.9422 6.80478 14.9808C6.99876 15.0194 7.19982 14.9996 7.38255 14.9239C7.56528 14.8482 7.72145 14.72 7.83134 14.5556C7.94122 14.3911 7.99987 14.1978 7.99987 14C7.99987 13.7348 7.89451 13.4804 7.70697 13.2929C7.51944 13.1054 7.26508 13 6.99987 13ZM11.9999 2C10.6866 2 9.38629 2.25866 8.17303 2.7612C6.95978 3.26375 5.85738 4.00035 4.9288 4.92893C3.05343 6.8043 1.99987 9.34784 1.99987 12C1.99112 14.3091 2.79066 16.5485 4.25987 18.33L2.25987 20.33C2.12111 20.4706 2.02711 20.6492 1.98974 20.8432C1.95236 21.0372 1.97329 21.2379 2.04987 21.42C2.13292 21.5999 2.26757 21.7511 2.43671 21.8544C2.60586 21.9577 2.80187 22.0083 2.99987 22H11.9999C14.652 22 17.1956 20.9464 19.0709 19.0711C20.9463 17.1957 21.9999 14.6522 21.9999 12C21.9999 9.34784 20.9463 6.8043 19.0709 4.92893C17.1956 3.05357 14.652 2 11.9999 2ZM11.9999 20H5.40987L6.33987 19.07C6.43435 18.9774 6.50952 18.8669 6.56102 18.7451C6.61252 18.6232 6.63932 18.4923 6.63987 18.36C6.63611 18.0962 6.52828 17.8446 6.33987 17.66C5.03045 16.352 4.21504 14.6305 4.03256 12.7888C3.85007 10.947 4.31181 9.09901 5.33909 7.55952C6.36638 6.02004 7.89566 4.88436 9.66638 4.34597C11.4371 3.80759 13.3397 3.8998 15.0501 4.60691C16.7604 5.31402 18.1727 6.59227 19.0463 8.22389C19.9199 9.85551 20.2007 11.7395 19.841 13.555C19.4813 15.3705 18.5032 17.005 17.0734 18.1802C15.6436 19.3554 13.8506 19.9985 11.9999 20ZM16.9999 13H10.9999C10.7346 13 10.4803 13.1054 10.2928 13.2929C10.1052 13.4804 9.99987 13.7348 9.99987 14C9.99987 14.2652 10.1052 14.5196 10.2928 14.7071C10.4803 14.8946 10.7346 15 10.9999 15H16.9999C17.2651 15 17.5194 14.8946 17.707 14.7071C17.8945 14.5196 17.9999 14.2652 17.9999 14C17.9999 13.7348 17.8945 13.4804 17.707 13.2929C17.5194 13.1054 17.2651 13 16.9999 13Z" />
</svg>
