<svg width="24" height="24" viewBox="0 0 24 24" xmlns="http://www.w3.org/2000/svg">
<path d="M6.12019 11.92C6.23989 11.9729 6.36931 12.0002 6.50019 12.0002C6.63106 12.0002 6.76049 11.9729 6.88019 11.92C7.00294 11.8724 7.11508 11.801 7.21019 11.71L10.2102 8.71C10.3985 8.5217 10.5043 8.2663 10.5043 8C10.5043 7.7337 10.3985 7.4783 10.2102 7.29C10.0219 7.1017 9.76649 6.99591 9.50019 6.99591C9.23388 6.99591 8.97849 7.1017 8.79019 7.29L7.50019 8.59V3C7.50019 2.73478 7.39483 2.48043 7.20729 2.29289C7.01976 2.10536 6.7654 2 6.50019 2C6.23497 2 5.98062 2.10536 5.79308 2.29289C5.60554 2.48043 5.50019 2.73478 5.50019 3V8.59L4.21019 7.29C4.11695 7.19676 4.00626 7.1228 3.88443 7.07234C3.76261 7.02188 3.63204 6.99591 3.50019 6.99591C3.36833 6.99591 3.23776 7.02188 3.11594 7.07234C2.99411 7.1228 2.88342 7.19676 2.79019 7.29C2.69695 7.38324 2.62299 7.49393 2.57253 7.61575C2.52207 7.73757 2.49609 7.86814 2.49609 8C2.49609 8.13186 2.52207 8.26243 2.57253 8.38425C2.62299 8.50607 2.69695 8.61676 2.79019 8.71L5.79019 11.71C5.88529 11.801 5.99743 11.8724 6.12019 11.92ZM18.5002 6H13.5002C13.235 6 12.9806 6.10536 12.7931 6.29289C12.6055 6.48043 12.5002 6.73478 12.5002 7C12.5002 7.26522 12.6055 7.51957 12.7931 7.70711C12.9806 7.89464 13.235 8 13.5002 8H18.5002C18.7654 8 19.0198 8.10536 19.2073 8.29289C19.3948 8.48043 19.5002 8.73478 19.5002 9V18.72L17.9302 17.27C17.7458 17.0973 17.5028 17.0009 17.2502 17H8.50019C8.23497 17 7.98062 16.8946 7.79308 16.7071C7.60554 16.5196 7.50019 16.2652 7.50019 16V15C7.50019 14.7348 7.39483 14.4804 7.20729 14.2929C7.01976 14.1054 6.7654 14 6.50019 14C6.23497 14 5.98062 14.1054 5.79308 14.2929C5.60554 14.4804 5.50019 14.7348 5.50019 15V16C5.50019 16.7956 5.81626 17.5587 6.37887 18.1213C6.94147 18.6839 7.70454 19 8.50019 19H16.8602L19.8602 21.73C20.0446 21.9027 20.2876 21.9991 20.5402 22C20.6773 21.9985 20.813 21.9714 20.9402 21.92C21.1191 21.8419 21.2712 21.7132 21.3778 21.5497C21.4844 21.3863 21.5409 21.1952 21.5402 21V9C21.5402 8.60265 21.4613 8.20924 21.3081 7.84263C21.1548 7.47603 20.9302 7.14352 20.6474 6.86441C20.3646 6.58531 20.0291 6.36517 19.6605 6.21678C19.2919 6.06839 18.8975 5.9947 18.5002 6Z" />
</svg>
