<svg width="24" height="24" viewBox="0 0 24 24" xmlns="http://www.w3.org/2000/svg">
<path d="M19.0001 14C18.8728 13.9669 18.7401 13.9593 18.6098 13.9777C18.4794 13.996 18.354 14.0398 18.2407 14.1067C18.1273 14.1736 18.0283 14.2622 17.9493 14.3675C17.8702 14.4727 17.8128 14.5925 17.7801 14.72C17.3977 16.2285 16.5236 17.5666 15.2957 18.5228C14.0679 19.479 12.5564 19.9988 11.0001 20H5.41014L6.05014 19.37C6.23639 19.1826 6.34093 18.9292 6.34093 18.665C6.34093 18.4008 6.23639 18.1474 6.05014 17.96C5.06763 16.9816 4.39784 15.7334 4.12572 14.3737C3.85361 13.0141 3.99142 11.6043 4.52168 10.3231C5.05195 9.04185 5.95078 7.94699 7.10416 7.17733C8.25755 6.40768 9.61354 5.99791 11.0001 6C11.2933 5.98479 11.587 5.98479 11.8801 6C12.1454 6.03183 12.4124 5.95699 12.6224 5.79196C12.8324 5.62693 12.9683 5.38522 13.0001 5.12C13.032 4.85478 12.9571 4.58779 12.7921 4.37775C12.6271 4.16771 12.3854 4.03183 12.1201 4C11.7472 3.97484 11.373 3.97484 11.0001 4C9.3076 4.00556 7.65094 4.48828 6.22033 5.39274C4.78971 6.2972 3.64313 7.58673 2.91221 9.11332C2.18129 10.6399 1.89565 12.3417 2.08808 14.0232C2.28052 15.7048 2.94323 17.298 4.00014 18.62L2.29014 20.29C2.15138 20.4306 2.05739 20.6092 2.02001 20.8032C1.98264 20.9972 2.00356 21.1979 2.08014 21.38C2.15516 21.5626 2.28256 21.7189 2.44628 21.8293C2.61 21.9396 2.80271 21.999 3.00014 22H11.0001C12.9964 22.0013 14.9364 21.3388 16.515 20.1169C18.0936 18.895 19.2211 17.1829 19.7201 15.25C19.7578 15.1206 19.7689 14.985 19.7528 14.8512C19.7367 14.7175 19.6937 14.5883 19.6265 14.4716C19.5592 14.3549 19.4691 14.2529 19.3614 14.1719C19.2538 14.0908 19.1309 14.0324 19.0001 14ZM21.7101 7.26C21.6172 7.16627 21.5066 7.09188 21.3847 7.04111C21.2629 6.99034 21.1322 6.9642 21.0001 6.9642C20.8681 6.9642 20.7374 6.99034 20.6156 7.04111C20.4937 7.09188 20.3831 7.16627 20.2901 7.26L19.0001 8.59V3C19.0001 2.73478 18.8948 2.48043 18.7072 2.29289C18.5197 2.10536 18.2654 2 18.0001 2C17.7349 2 17.4806 2.10536 17.293 2.29289C17.1055 2.48043 17.0001 2.73478 17.0001 3V8.59L15.7101 7.29C15.6169 7.19676 15.5062 7.1228 15.3844 7.07234C15.2626 7.02188 15.132 6.99591 15.0001 6.99591C14.8683 6.99591 14.7377 7.02188 14.6159 7.07234C14.4941 7.1228 14.3834 7.19676 14.2901 7.29C14.1969 7.38324 14.1229 7.49393 14.0725 7.61575C14.022 7.73757 13.996 7.86814 13.996 8C13.996 8.13186 14.022 8.26243 14.0725 8.38425C14.1229 8.50607 14.1969 8.61676 14.2901 8.71L17.2901 11.71C17.3852 11.801 17.4974 11.8724 17.6201 11.92C17.7398 11.9729 17.8693 12.0002 18.0001 12.0002C18.131 12.0002 18.2604 11.9729 18.3801 11.92C18.5029 11.8724 18.615 11.801 18.7101 11.71L21.7101 8.71C21.8039 8.61704 21.8783 8.50644 21.929 8.38458C21.9798 8.26272 22.0059 8.13201 22.0059 8C22.0059 7.86799 21.9798 7.73728 21.929 7.61542C21.8783 7.49356 21.8039 7.38296 21.7101 7.29V7.26Z" />
</svg>
