<svg width="24" height="24" viewBox="0 0 24 24" xmlns="http://www.w3.org/2000/svg">
<path d="M21.7101 4.72L19.2801 2.29C19.0928 2.10375 18.8393 1.99921 18.5751 1.99921C18.311 1.99921 18.0575 2.10375 17.8701 2.29L12.2901 7.87C12.1975 7.96344 12.1241 8.07426 12.0744 8.19609C12.0246 8.31793 11.9994 8.44839 12.0001 8.58V11C12.0001 11.2652 12.1055 11.5196 12.293 11.7071C12.4806 11.8946 12.7349 12 13.0001 12H15.4201C15.5517 12.0008 15.6822 11.9755 15.804 11.9258C15.9259 11.876 16.0367 11.8027 16.1301 11.71L21.7101 6.13C21.8964 5.94264 22.0009 5.68919 22.0009 5.425C22.0009 5.16081 21.8964 4.90736 21.7101 4.72ZM15.0001 10H14.0001V9L18.5801 4.42L19.5801 5.42L15.0001 10ZM19.0001 12C18.7349 12 18.4806 12.1054 18.293 12.2929C18.1055 12.4804 18.0001 12.7348 18.0001 13C18.0001 14.8565 17.2626 16.637 15.9499 17.9497C14.6371 19.2625 12.8567 20 11.0001 20H5.41014L6.05014 19.37C6.14387 19.277 6.21826 19.1664 6.26903 19.0446C6.3198 18.9227 6.34594 18.792 6.34594 18.66C6.34594 18.528 6.3198 18.3973 6.26903 18.2754C6.21826 18.1536 6.14387 18.043 6.05014 17.95C5.07107 16.971 4.4043 15.7237 4.13417 14.3658C3.86403 13.0078 4.00265 11.6003 4.53251 10.3211C5.06236 9.042 5.95965 7.94872 7.11088 7.17955C8.26212 6.41039 9.6156 5.9999 11.0001 6C11.2654 6 11.5197 5.89464 11.7072 5.70711C11.8948 5.51957 12.0001 5.26522 12.0001 5C12.0001 4.73478 11.8948 4.48043 11.7072 4.29289C11.5197 4.10536 11.2654 4 11.0001 4C9.3076 4.00556 7.65094 4.48828 6.22033 5.39274C4.78971 6.2972 3.64313 7.58673 2.91221 9.11332C2.18129 10.6399 1.89565 12.3417 2.08808 14.0232C2.28052 15.7048 2.94323 17.298 4.00014 18.62L2.29014 20.29C2.15138 20.4306 2.05739 20.6092 2.02001 20.8032C1.98264 20.9972 2.00356 21.1979 2.08014 21.38C2.15516 21.5626 2.28256 21.7189 2.44628 21.8293C2.61 21.9396 2.80271 21.999 3.00014 22H11.0001C12.182 22 13.3524 21.7672 14.4443 21.3149C15.5362 20.8626 16.5284 20.1997 17.3641 19.364C18.1998 18.5282 18.8628 17.5361 19.3151 16.4442C19.7673 15.3522 20.0001 14.1819 20.0001 13C20.0001 12.7348 19.8948 12.4804 19.7072 12.2929C19.5197 12.1054 19.2654 12 19.0001 12Z" />
</svg>
