<svg width="24" height="24" viewBox="0 0 24 24" xmlns="http://www.w3.org/2000/svg">
<path d="M18.4998 5.5H14.4998C14.2346 5.5 13.9802 5.60536 13.7927 5.79289C13.6052 5.98043 13.4998 6.23478 13.4998 6.5C13.4998 6.76522 13.6052 7.01957 13.7927 7.20711C13.9802 7.39464 14.2346 7.5 14.4998 7.5H18.4998C18.765 7.5 19.0194 7.60536 19.2069 7.79289C19.3945 7.98043 19.4998 8.23478 19.4998 8.5V18.22L17.9298 16.77C17.7454 16.5973 17.5025 16.5009 17.2498 16.5H8.49982C8.2346 16.5 7.98025 16.3946 7.79271 16.2071C7.60517 16.0196 7.49982 15.7652 7.49982 15.5V14.5C7.49982 14.2348 7.39446 13.9804 7.20692 13.7929C7.01939 13.6054 6.76503 13.5 6.49982 13.5C6.2346 13.5 5.98025 13.6054 5.79271 13.7929C5.60517 13.9804 5.49982 14.2348 5.49982 14.5V15.5C5.49982 16.2956 5.81589 17.0587 6.3785 17.6213C6.9411 18.1839 7.70417 18.5 8.49982 18.5H16.8598L19.8598 21.23C20.0442 21.4027 20.2872 21.4991 20.5398 21.5C20.677 21.4985 20.8126 21.4714 20.9398 21.42C21.1187 21.3419 21.2708 21.2132 21.3774 21.0498C21.484 20.8863 21.5405 20.6952 21.5398 20.5V8.5C21.5399 8.10265 21.4609 7.70924 21.3077 7.34264C21.1544 6.97603 20.9299 6.64352 20.647 6.36441C20.3642 6.08531 20.0288 5.86517 19.6602 5.71678C19.2915 5.56839 18.8971 5.4947 18.4998 5.5ZM9.07982 12.5H11.4998C11.765 12.5 12.0194 12.3946 12.2069 12.2071C12.3945 12.0196 12.4998 11.7652 12.4998 11.5V9.08C12.5006 8.94839 12.4754 8.81793 12.4256 8.69609C12.3758 8.57426 12.3025 8.46344 12.2098 8.37L6.62982 2.79C6.44245 2.60375 6.189 2.49921 5.92482 2.49921C5.66063 2.49921 5.40718 2.60375 5.21982 2.79L2.78982 5.22C2.60357 5.40736 2.49902 5.66081 2.49902 5.925C2.49902 6.18919 2.60357 6.44264 2.78982 6.63L8.36982 12.21C8.46326 12.3027 8.57407 12.376 8.69591 12.4258C8.81775 12.4755 8.94821 12.5008 9.07982 12.5ZM5.91982 4.91L10.4998 9.49V10.49H9.49982L4.90982 5.92L5.91982 4.91Z" />
</svg>
