<svg width="24" height="24" viewBox="0 0 24 24" xmlns="http://www.w3.org/2000/svg">
<path d="M18.9202 16.13C18.8061 16.0639 18.68 16.021 18.5492 16.0038C18.4185 15.9866 18.2856 15.9955 18.1582 16.0299C18.0309 16.0643 17.9116 16.1235 17.8073 16.2042C17.7029 16.2849 17.6156 16.3854 17.5502 16.5C16.9369 17.5623 16.0552 18.4449 14.9933 19.0591C13.9315 19.6734 12.7269 19.9979 11.5002 20H5.91024L6.55025 19.37C6.7365 19.1826 6.84104 18.9292 6.84104 18.665C6.84104 18.4008 6.7365 18.1474 6.55025 17.96C5.61967 17.0347 4.96795 15.8664 4.66945 14.5885C4.37095 13.3106 4.43769 11.9745 4.86205 10.7327C5.28641 9.49086 6.05131 8.39335 7.06946 7.56537C8.08761 6.7374 9.318 6.2123 10.6202 6.05C10.7516 6.03424 10.8785 5.99277 10.9938 5.92796C11.1091 5.86314 11.2105 5.77626 11.2922 5.67225C11.3739 5.56825 11.4344 5.44917 11.47 5.32182C11.5057 5.19446 11.516 5.06132 11.5002 4.93C11.4845 4.79868 11.443 4.67175 11.3782 4.55645C11.3134 4.44116 11.2265 4.33976 11.1225 4.25804C11.0185 4.17632 10.8994 4.11589 10.7721 4.0802C10.6447 4.0445 10.5116 4.03424 10.3802 4.05C8.78942 4.24683 7.28003 4.86495 6.0081 5.84049C4.73618 6.81602 3.74787 8.11355 3.14535 9.59895C2.54283 11.0844 2.34795 12.7037 2.58088 14.2897C2.8138 15.8756 3.46606 17.3706 4.47024 18.62L2.79025 20.29C2.65149 20.4306 2.55749 20.6092 2.52012 20.8032C2.48274 20.9972 2.50367 21.1979 2.58025 21.38C2.65527 21.5626 2.78266 21.7189 2.94638 21.8293C3.1101 21.9396 3.30282 21.999 3.50025 22H11.5002C13.0794 21.9993 14.6305 21.583 15.9978 20.7932C17.3652 20.0033 18.5007 18.8676 19.2902 17.5C19.3564 17.3859 19.3993 17.2598 19.4164 17.129C19.4336 16.9982 19.4248 16.8653 19.3904 16.738C19.356 16.6107 19.2967 16.4914 19.216 16.387C19.1354 16.2827 19.0348 16.1953 18.9202 16.13ZM19.5002 6.18V5C19.5002 4.20435 19.1842 3.44129 18.6216 2.87868C18.059 2.31607 17.2959 2 16.5002 2C15.7046 2 14.9415 2.31607 14.3789 2.87868C13.8163 3.44129 13.5002 4.20435 13.5002 5V6.18C12.9167 6.38631 12.4112 6.76807 12.0532 7.27293C11.6951 7.7778 11.502 8.38106 11.5002 9V11C11.5002 11.7956 11.8163 12.5587 12.3789 13.1213C12.9415 13.6839 13.7046 14 14.5002 14H18.5002C19.2959 14 20.059 13.6839 20.6216 13.1213C21.1842 12.5587 21.5002 11.7956 21.5002 11V9C21.4985 8.38106 21.3054 7.7778 20.9473 7.27293C20.5892 6.76807 20.0838 6.38631 19.5002 6.18ZM15.5002 5C15.5002 4.73478 15.6056 4.48043 15.7931 4.29289C15.9807 4.10536 16.235 4 16.5002 4C16.7655 4 17.0198 4.10536 17.2074 4.29289C17.3949 4.48043 17.5002 4.73478 17.5002 5V6H15.5002V5ZM19.5002 11C19.5002 11.2652 19.3949 11.5196 19.2074 11.7071C19.0198 11.8946 18.7655 12 18.5002 12H14.5002C14.235 12 13.9807 11.8946 13.7931 11.7071C13.6056 11.5196 13.5002 11.2652 13.5002 11V9C13.5002 8.73478 13.6056 8.48043 13.7931 8.29289C13.9807 8.10536 14.235 8 14.5002 8H18.5002C18.7655 8 19.0198 8.10536 19.2074 8.29289C19.3949 8.48043 19.5002 8.73478 19.5002 9V11Z" />
</svg>
