<svg width="24" height="24" viewBox="0 0 24 24" xmlns="http://www.w3.org/2000/svg">
<path d="M10.3 10.75C10.4176 10.671 10.5171 10.568 10.5919 10.4477C10.6666 10.3273 10.715 10.1925 10.7337 10.0521C10.7525 9.91168 10.7412 9.76888 10.7006 9.63317C10.66 9.49745 10.591 9.37191 10.4982 9.26486C10.4054 9.1578 10.291 9.07169 10.1624 9.01221C10.0338 8.95273 9.8941 8.92124 9.75244 8.91984C9.61079 8.91843 9.47046 8.94714 9.34073 9.00406C9.21101 9.06098 9.09486 9.14481 8.99998 9.25C8.63642 9.57061 8.20058 9.79836 7.72978 9.91373C7.25898 10.0291 6.76723 10.0287 6.29662 9.9125C5.82602 9.79631 5.39058 9.56782 5.02757 9.24658C4.66457 8.92534 4.38481 8.52092 4.21225 8.06794C4.03968 7.61496 3.97945 7.12692 4.03671 6.64558C4.09397 6.16423 4.26702 5.70394 4.54104 5.30408C4.81505 4.90423 5.18188 4.57673 5.61012 4.34962C6.03835 4.1225 6.51525 4.00254 6.99998 4C7.42104 4.00085 7.83722 4.09033 8.22142 4.26262C8.60563 4.43491 8.94926 4.68615 9.22998 5H7.99998C7.73476 5 7.48041 5.10536 7.29287 5.29289C7.10533 5.48043 6.99998 5.73478 6.99998 6C6.99998 6.26521 7.10533 6.51957 7.29287 6.70711C7.48041 6.89464 7.73476 7 7.99998 7H11C11.2652 7 11.5195 6.89464 11.7071 6.70711C11.8946 6.51957 12 6.26521 12 6V3C12 2.73478 11.8946 2.48043 11.7071 2.29289C11.5195 2.10536 11.2652 2 11 2C10.7348 2 10.4804 2.10536 10.2929 2.29289C10.1053 2.48043 9.99998 2.73478 9.99998 3C9.2442 2.43202 8.34288 2.08995 7.40056 2.01347C6.45825 1.93699 5.51356 2.12924 4.67609 2.56791C3.83861 3.00659 3.14266 3.6737 2.66897 4.49189C2.19528 5.31007 1.96327 6.24578 1.99984 7.19049C2.03641 8.13519 2.34006 9.05017 2.87558 9.82929C3.4111 10.6084 4.15654 11.2197 5.02542 11.5923C5.8943 11.965 6.85102 12.0836 7.7846 11.9345C8.71819 11.7854 9.59037 11.3747 10.3 10.75ZM19 6H15C14.7348 6 14.4804 6.10536 14.2929 6.29289C14.1053 6.48043 14 6.73478 14 7C14 7.26521 14.1053 7.51957 14.2929 7.70711C14.4804 7.89464 14.7348 8 15 8H19C19.2652 8 19.5195 8.10536 19.7071 8.29289C19.8946 8.48043 20 8.73478 20 9V18.72L18.43 17.27C18.2456 17.0973 18.0026 17.0009 17.75 17H8.99998C8.73476 17 8.48041 16.8946 8.29287 16.7071C8.10533 16.5196 7.99998 16.2652 7.99998 16V15C7.99998 14.7348 7.89462 14.4804 7.70708 14.2929C7.51955 14.1054 7.26519 14 6.99998 14C6.73476 14 6.48041 14.1054 6.29287 14.2929C6.10533 14.4804 5.99998 14.7348 5.99998 15V16C5.99998 16.7956 6.31605 17.5587 6.87866 18.1213C7.44127 18.6839 8.20433 19 8.99998 19H17.36L20.36 21.73C20.5342 21.8936 20.7612 21.9894 21 22C21.1371 21.9985 21.2728 21.9714 21.4 21.92C21.5789 21.8419 21.731 21.7132 21.8376 21.5497C21.9442 21.3863 22.0007 21.1952 22 21V9C22 8.20435 21.6839 7.44129 21.1213 6.87868C20.5587 6.31607 19.7956 6 19 6Z" />
</svg>
