<svg width="24" height="24" viewBox="0 0 24 24" xmlns="http://www.w3.org/2000/svg">
<path d="M19 6H14C13.7348 6 13.4804 6.10536 13.2929 6.29289C13.1054 6.48043 13 6.73478 13 7C13 7.26522 13.1054 7.51957 13.2929 7.70711C13.4804 7.89464 13.7348 8 14 8H19C19.2652 8 19.5196 8.10536 19.7071 8.29289C19.8946 8.48043 20 8.73478 20 9V18.72L18.43 17.27C18.2456 17.0973 18.0026 17.0009 17.75 17H9C8.73478 17 8.48043 16.8946 8.29289 16.7071C8.10536 16.5196 8 16.2652 8 16V14C8 13.7348 7.89464 13.4804 7.70711 13.2929C7.51957 13.1054 7.26522 13 7 13C6.73478 13 6.48043 13.1054 6.29289 13.2929C6.10536 13.4804 6 13.7348 6 14V16C6 16.7957 6.31607 17.5587 6.87868 18.1213C7.44129 18.6839 8.20435 19 9 19H17.36L20.36 21.73C20.5342 21.8936 20.7613 21.9894 21 22C21.1372 21.9985 21.2728 21.9714 21.4 21.92C21.5789 21.8419 21.731 21.7132 21.8376 21.5497C21.9442 21.3863 22.0007 21.1952 22 21V9C22 8.20435 21.6839 7.44129 21.1213 6.87868C20.5587 6.31607 19.7956 6 19 6ZM8.57 10L10.29 11.73C10.383 11.8237 10.4936 11.8981 10.6154 11.9489C10.7373 11.9997 10.868 12.0258 11 12.0258C11.132 12.0258 11.2627 11.9997 11.3846 11.9489C11.5064 11.8981 11.617 11.8237 11.71 11.73C11.8037 11.637 11.8781 11.5264 11.9289 11.4046C11.9797 11.2827 12.0058 11.152 12.0058 11.02C12.0058 10.888 11.9797 10.7573 11.9289 10.6354C11.8781 10.5136 11.8037 10.403 11.71 10.31L10 8.57C10.4191 7.89021 10.6439 7.10857 10.65 6.31C10.65 5.16294 10.1943 4.06286 9.38324 3.25176C8.57214 2.44067 7.47206 1.985 6.325 1.985C5.17794 1.985 4.07786 2.44067 3.26676 3.25176C2.45567 4.06286 2 5.16294 2 6.31C2 7.45401 2.45377 8.5513 3.26176 9.36117C4.06976 10.171 5.166 10.6274 6.31 10.63C7.10682 10.631 7.88859 10.413 8.57 10ZM4 6.31C3.9998 6.00682 4.05981 5.70662 4.17654 5.42681C4.29327 5.147 4.4644 4.89315 4.68 4.68C4.8961 4.45866 5.15429 4.28278 5.43937 4.16269C5.72445 4.0426 6.03066 3.98074 6.34 3.98074C6.64934 3.98074 6.95555 4.0426 7.24063 4.16269C7.52571 4.28278 7.7839 4.45866 8 4.68C8.22258 4.89539 8.39957 5.15335 8.52044 5.43852C8.64132 5.7237 8.70361 6.03027 8.70361 6.34C8.70361 6.64973 8.64132 6.95631 8.52044 7.24148C8.39957 7.52666 8.22258 7.78461 8 8C7.67506 8.34197 7.25358 8.57676 6.79178 8.67306C6.32998 8.76936 5.8498 8.72259 5.41526 8.539C4.98072 8.35541 4.61247 8.04371 4.35961 7.64547C4.10676 7.24723 3.98131 6.78136 4 6.31Z" />
</svg>
