<svg width="24" height="24" viewBox="0 0 24 24" xmlns="http://www.w3.org/2000/svg">
<path d="M13.41 11.9999L16.71 8.70994C16.8032 8.6167 16.8772 8.50601 16.9277 8.38419C16.9781 8.26237 17.0041 8.1318 17.0041 7.99994C17.0041 7.86808 16.9781 7.73751 16.9277 7.61569C16.8772 7.49387 16.8032 7.38318 16.71 7.28994C16.6168 7.1967 16.5061 7.12274 16.3842 7.07228C16.2624 7.02182 16.1319 6.99585 16 6.99585C15.8681 6.99585 15.7376 7.02182 15.6158 7.07228C15.4939 7.12274 15.3832 7.1967 15.29 7.28994L11.29 11.2899C11.1963 11.3829 11.1219 11.4935 11.0711 11.6154C11.0203 11.7372 10.9942 11.8679 10.9942 11.9999C10.9942 12.132 11.0203 12.2627 11.0711 12.3845C11.1219 12.5064 11.1963 12.617 11.29 12.7099L15.29 16.7099C15.383 16.8037 15.4936 16.8781 15.6154 16.9288C15.7373 16.9796 15.868 17.0057 16 17.0057C16.132 17.0057 16.2627 16.9796 16.3846 16.9288C16.5064 16.8781 16.617 16.8037 16.71 16.7099C16.8037 16.617 16.8781 16.5064 16.9289 16.3845C16.9797 16.2627 17.0058 16.132 17.0058 15.9999C17.0058 15.8679 16.9797 15.7372 16.9289 15.6154C16.8781 15.4935 16.8037 15.3829 16.71 15.2899L13.41 11.9999ZM8 6.99994C7.73478 6.99994 7.48043 7.1053 7.29289 7.29283C7.10536 7.48037 7 7.73472 7 7.99994V15.9999C7 16.2652 7.10536 16.5195 7.29289 16.707C7.48043 16.8946 7.73478 16.9999 8 16.9999C8.26522 16.9999 8.51957 16.8946 8.70711 16.707C8.89464 16.5195 9 16.2652 9 15.9999V7.99994C9 7.73472 8.89464 7.48037 8.70711 7.29283C8.51957 7.1053 8.26522 6.99994 8 6.99994Z" />
</svg>
