<svg width="24" height="24" viewBox="0 0 24 24" xmlns="http://www.w3.org/2000/svg">
<path d="M12.29 5.20994L13.79 6.70994C13.883 6.80367 13.9936 6.87806 14.1154 6.92883C14.2373 6.9796 14.368 7.00574 14.5 7.00574C14.632 7.00574 14.7627 6.9796 14.8846 6.92883C15.0064 6.87806 15.117 6.80367 15.21 6.70994C15.3618 6.55064 15.4567 6.34575 15.4803 6.12699C15.5038 5.90824 15.4545 5.68784 15.34 5.49994H19C19.2652 5.49994 19.5196 5.39458 19.7071 5.20705C19.8946 5.01951 20 4.76516 20 4.49994C20 4.23472 19.8946 3.98037 19.7071 3.79283C19.5196 3.6053 19.2652 3.49994 19 3.49994H15.34C15.4545 3.31204 15.5038 3.09164 15.4803 2.87289C15.4567 2.65413 15.3618 2.44923 15.21 2.28994C15.117 2.19621 15.0064 2.12182 14.8846 2.07105C14.7627 2.02028 14.632 1.99414 14.5 1.99414C14.368 1.99414 14.2373 2.02028 14.1154 2.07105C13.9936 2.12182 13.883 2.19621 13.79 2.28994L12.29 3.78994C12.199 3.88504 12.1276 3.99719 12.08 4.11994C11.98 4.3634 11.98 4.63648 12.08 4.87994C12.1276 5.00269 12.199 5.11484 12.29 5.20994ZM22.92 9.11994C22.8724 8.99719 22.801 8.88504 22.71 8.78994L21.21 7.28994C21.117 7.19621 21.0064 7.12182 20.8846 7.07105C20.7627 7.02028 20.632 6.99414 20.5 6.99414C20.368 6.99414 20.2373 7.02028 20.1154 7.07105C19.9936 7.12182 19.883 7.19621 19.79 7.28994C19.6382 7.44923 19.5433 7.65413 19.5197 7.87289C19.4962 8.09164 19.5455 8.31204 19.66 8.49994H16C15.7348 8.49994 15.4804 8.6053 15.2929 8.79283C15.1054 8.98037 15 9.23472 15 9.49994C15 9.76516 15.1054 10.0195 15.2929 10.207C15.4804 10.3946 15.7348 10.4999 16 10.4999H19.66C19.5455 10.6878 19.4962 10.9082 19.5197 11.127C19.5433 11.3457 19.6382 11.5506 19.79 11.7099C19.883 11.8037 19.9936 11.8781 20.1154 11.9288C20.2373 11.9796 20.368 12.0057 20.5 12.0057C20.632 12.0057 20.7627 11.9796 20.8846 11.9288C21.0064 11.8781 21.117 11.8037 21.21 11.7099L22.71 10.2099C22.801 10.1148 22.8724 10.0027 22.92 9.87994C23.02 9.63648 23.02 9.3634 22.92 9.11994ZM11 9.99994C10.2089 9.99994 9.43552 10.2345 8.77772 10.6741C8.11992 11.1136 7.60723 11.7383 7.30448 12.4692C7.00173 13.2001 6.92252 14.0044 7.07686 14.7803C7.2312 15.5562 7.61216 16.269 8.17157 16.8284C8.73098 17.3878 9.44372 17.7687 10.2196 17.9231C10.9956 18.0774 11.7998 17.9982 12.5307 17.6955C13.2616 17.3927 13.8864 16.88 14.3259 16.2222C14.7654 15.5644 15 14.7911 15 13.9999C15 12.9391 14.5786 11.9217 13.8284 11.1715C13.0783 10.4214 12.0609 9.99994 11 9.99994ZM11 15.9999C10.6044 15.9999 10.2178 15.8826 9.88886 15.6629C9.55996 15.4431 9.30362 15.1308 9.15224 14.7653C9.00087 14.3999 8.96126 13.9977 9.03843 13.6098C9.1156 13.2218 9.30608 12.8654 9.58579 12.5857C9.86549 12.306 10.2219 12.1155 10.6098 12.0384C10.9978 11.9612 11.3999 12.0008 11.7654 12.1522C12.1308 12.3036 12.4432 12.5599 12.6629 12.8888C12.8827 13.2177 13 13.6044 13 13.9999C13 14.5304 12.7893 15.0391 12.4142 15.4142C12.0391 15.7892 11.5304 15.9999 11 15.9999ZM20 12.9999C19.7348 12.9999 19.4804 13.1053 19.2929 13.2928C19.1054 13.4804 19 13.7347 19 13.9999V18.9999C19 19.2652 18.8946 19.5195 18.7071 19.707C18.5196 19.8946 18.2652 19.9999 18 19.9999H4C3.73478 19.9999 3.48043 19.8946 3.29289 19.707C3.10536 19.5195 3 19.2652 3 18.9999V10.9999C3 10.7347 3.10536 10.4804 3.29289 10.2928C3.48043 10.1053 3.73478 9.99994 4 9.99994H6C6.21932 10.0107 6.43607 9.94892 6.6168 9.82421C6.79753 9.69951 6.93219 9.51879 7 9.30994L7.54 7.68994C7.60251 7.49733 7.72202 7.32823 7.88273 7.20502C8.04344 7.08181 8.23776 7.0103 8.44 6.99994H10C10.2652 6.99994 10.5196 6.89458 10.7071 6.70705C10.8946 6.51951 11 6.26516 11 5.99994C11 5.73472 10.8946 5.48037 10.7071 5.29283C10.5196 5.1053 10.2652 4.99994 10 4.99994H8.44C7.80861 4.99971 7.19324 5.19871 6.68152 5.56858C6.16981 5.93845 5.78784 6.46034 5.59 7.05994L5.28 7.99994H4C3.20435 7.99994 2.44129 8.31601 1.87868 8.87862C1.31607 9.44123 1 10.2043 1 10.9999V18.9999C1 19.7956 1.31607 20.5587 1.87868 21.1213C2.44129 21.6839 3.20435 21.9999 4 21.9999H18C18.7956 21.9999 19.5587 21.6839 20.1213 21.1213C20.6839 20.5587 21 19.7956 21 18.9999V13.9999C21 13.7347 20.8946 13.4804 20.7071 13.2928C20.5196 13.1053 20.2652 12.9999 20 12.9999Z" />
</svg>
