<svg width="24" height="24" viewBox="0 0 24 24" xmlns="http://www.w3.org/2000/svg">
<path d="M19 9.99995C18.7348 9.99995 18.4804 10.1053 18.2929 10.2928C18.1054 10.4804 18 10.7347 18 10.9999V14.3899L16.52 12.9099C16.2626 12.6508 15.9564 12.4452 15.6192 12.3049C15.2819 12.1645 14.9203 12.0923 14.555 12.0923C14.1897 12.0923 13.8281 12.1645 13.4908 12.3049C13.1536 12.4452 12.8474 12.6508 12.59 12.9099L11.89 13.6099L9.41 11.1199C8.88742 10.6015 8.18113 10.3106 7.445 10.3106C6.70887 10.3106 6.00258 10.6015 5.48 11.1199L4 12.5999V6.99995C4 6.73473 4.10536 6.48038 4.29289 6.29284C4.48043 6.10531 4.73478 5.99995 5 5.99995H13C13.2652 5.99995 13.5196 5.89459 13.7071 5.70706C13.8946 5.51952 14 5.26517 14 4.99995C14 4.73473 13.8946 4.48038 13.7071 4.29284C13.5196 4.10531 13.2652 3.99995 13 3.99995H5C4.20435 3.99995 3.44129 4.31602 2.87868 4.87863C2.31607 5.44124 2 6.2043 2 6.99995V18.9999C2 19.7956 2.31607 20.5587 2.87868 21.1213C3.44129 21.6839 4.20435 21.9999 5 21.9999H17C17.7956 21.9999 18.5587 21.6839 19.1213 21.1213C19.6839 20.5587 20 19.7956 20 18.9999V10.9999C20 10.7347 19.8946 10.4804 19.7071 10.2928C19.5196 10.1053 19.2652 9.99995 19 9.99995ZM5 19.9999C4.73478 19.9999 4.48043 19.8946 4.29289 19.7071C4.10536 19.5195 4 19.2652 4 18.9999V15.4299L6.9 12.5299C7.04691 12.3899 7.24206 12.3119 7.445 12.3119C7.64794 12.3119 7.84309 12.3899 7.99 12.5299L11.16 15.6999L15.45 19.9999H5ZM18 18.9999C17.9986 19.1914 17.9354 19.3772 17.82 19.5299L13.31 14.9999L14.01 14.2999C14.1562 14.1546 14.3539 14.073 14.56 14.073C14.7661 14.073 14.9638 14.1546 15.11 14.2999L18 17.2199V18.9999ZM20.41 4.99995L21.71 3.70995C21.8962 3.52259 22.0008 3.26913 22.0008 3.00495C22.0008 2.74076 21.8962 2.48731 21.71 2.29995C21.617 2.20622 21.5064 2.13183 21.3846 2.08106C21.2627 2.03029 21.132 2.00415 21 2.00415C20.868 2.00415 20.7373 2.03029 20.6154 2.08106C20.4936 2.13183 20.383 2.20622 20.29 2.29995L19 3.58995L17.71 2.29995C17.617 2.20622 17.5064 2.13183 17.3846 2.08106C17.2627 2.03029 17.132 2.00415 17 2.00415C16.868 2.00415 16.7373 2.03029 16.6154 2.08106C16.4936 2.13183 16.383 2.20622 16.29 2.29995C16.1038 2.48731 15.9992 2.74076 15.9992 3.00495C15.9992 3.26913 16.1038 3.52259 16.29 3.70995L17.59 4.99995L16.29 6.29995C16.1038 6.48731 15.9992 6.74076 15.9992 7.00495C15.9992 7.26913 16.1038 7.52259 16.29 7.70995C16.383 7.80368 16.4936 7.87807 16.6154 7.92884C16.7373 7.97961 16.868 8.00575 17 8.00575C17.132 8.00575 17.2627 7.97961 17.3846 7.92884C17.5064 7.87807 17.617 7.80368 17.71 7.70995L19 6.41995L20.29 7.70995C20.383 7.80368 20.4936 7.87807 20.6154 7.92884C20.7373 7.97961 20.868 8.00575 21 8.00575C21.132 8.00575 21.2627 7.97961 21.3846 7.92884C21.5064 7.87807 21.617 7.80368 21.71 7.70995C21.8962 7.52259 22.0008 7.26913 22.0008 7.00495C22.0008 6.74076 21.8962 6.48731 21.71 6.29995L20.41 4.99995Z" />
</svg>
