<svg width="24" height="24" viewBox="0 0 24 24" xmlns="http://www.w3.org/2000/svg">
<path d="M22.71 6.29C22.617 6.19627 22.5064 6.12188 22.3846 6.07111C22.2627 6.02034 22.132 5.9942 22 5.9942C21.868 5.9942 21.7373 6.02034 21.6154 6.07111C21.4936 6.12188 21.383 6.19627 21.29 6.29L20 7.59V2C20 1.73478 19.8946 1.48043 19.7071 1.29289C19.5196 1.10536 19.2652 1 19 1C18.7348 1 18.4804 1.10536 18.2929 1.29289C18.1054 1.48043 18 1.73478 18 2V7.59L16.71 6.29C16.5217 6.1017 16.2663 5.99591 16 5.99591C15.7337 5.99591 15.4783 6.1017 15.29 6.29C15.1017 6.4783 14.9959 6.7337 14.9959 7C14.9959 7.2663 15.1017 7.5217 15.29 7.71L18.29 10.71C18.3851 10.801 18.4972 10.8724 18.62 10.92C18.7397 10.9729 18.8691 11.0002 19 11.0002C19.1309 11.0002 19.2603 10.9729 19.38 10.92C19.5028 10.8724 19.6149 10.801 19.71 10.71L22.71 7.71C22.8037 7.61704 22.8781 7.50644 22.9289 7.38458C22.9797 7.26272 23.0058 7.13201 23.0058 7C23.0058 6.86799 22.9797 6.73728 22.9289 6.61542C22.8781 6.49356 22.8037 6.38296 22.71 6.29ZM19 13C18.7348 13 18.4804 13.1054 18.2929 13.2929C18.1054 13.4804 18 13.7348 18 14V14.38L16.52 12.9C15.9974 12.3815 15.2911 12.0906 14.555 12.0906C13.8189 12.0906 13.1126 12.3815 12.59 12.9L11.89 13.6L9.41 11.12C8.88012 10.6156 8.17657 10.3343 7.445 10.3343C6.71343 10.3343 6.00988 10.6156 5.48 11.12L4 12.6V7C4 6.73478 4.10536 6.48043 4.29289 6.29289C4.48043 6.10536 4.73478 6 5 6H13C13.2652 6 13.5196 5.89464 13.7071 5.70711C13.8946 5.51957 14 5.26522 14 5C14 4.73478 13.8946 4.48043 13.7071 4.29289C13.5196 4.10536 13.2652 4 13 4H5C4.20435 4 3.44129 4.31607 2.87868 4.87868C2.31607 5.44129 2 6.20435 2 7V19C2 19.7956 2.31607 20.5587 2.87868 21.1213C3.44129 21.6839 4.20435 22 5 22H17C17.7956 22 18.5587 21.6839 19.1213 21.1213C19.6839 20.5587 20 19.7956 20 19V14C20 13.7348 19.8946 13.4804 19.7071 13.2929C19.5196 13.1054 19.2652 13 19 13ZM5 20C4.73478 20 4.48043 19.8946 4.29289 19.7071C4.10536 19.5196 4 19.2652 4 19V15.43L6.9 12.53C7.04691 12.39 7.24206 12.3119 7.445 12.3119C7.64794 12.3119 7.84309 12.39 7.99 12.53L11.16 15.7L15.46 20H5ZM18 19C17.9986 19.1914 17.9354 19.3773 17.82 19.53L13.31 15L14.01 14.3C14.0817 14.2268 14.1673 14.1687 14.2617 14.129C14.3561 14.0893 14.4576 14.0689 14.56 14.0689C14.6624 14.0689 14.7639 14.0893 14.8583 14.129C14.9527 14.1687 15.0383 14.2268 15.11 14.3L18 17.21V19Z" />
</svg>
