<svg width="24" height="24" viewBox="0 0 24 24" xmlns="http://www.w3.org/2000/svg">
<path d="M20 3.99995C20.1966 3.99914 20.3886 3.9404 20.5519 3.83109C20.7153 3.72178 20.8429 3.56674 20.9186 3.38534C20.9944 3.20395 21.015 3.00425 20.9779 2.8112C20.9408 2.61816 20.8476 2.44033 20.71 2.29995C20.617 2.20622 20.5064 2.13183 20.3846 2.08106C20.2627 2.03029 20.132 2.00415 20 2.00415C19.868 2.00415 19.7373 2.03029 19.6154 2.08106C19.4936 2.13183 19.383 2.20622 19.29 2.29995C19.2001 2.3921 19.1287 2.50076 19.08 2.61995C19.024 2.73863 18.9966 2.86877 19 2.99995C19 3.26517 19.1054 3.51952 19.2929 3.70706C19.4804 3.89459 19.7348 3.99995 20 3.99995ZM20 12.9999C19.7348 12.9999 19.4804 13.1053 19.2929 13.2928C19.1054 13.4804 19 13.7347 19 13.9999V14.3899L17.52 12.9099C17.2626 12.6508 16.9564 12.4452 16.6192 12.3049C16.2819 12.1645 15.9203 12.0923 15.555 12.0923C15.1897 12.0923 14.8281 12.1645 14.4908 12.3049C14.1536 12.4452 13.8474 12.6508 13.59 12.9099L12.89 13.6099L10.41 11.1199C9.87897 10.6178 9.17585 10.338 8.445 10.338C7.71415 10.338 7.01103 10.6178 6.48 11.1199L5 12.5999V6.99995C5 6.73473 5.10536 6.48038 5.29289 6.29284C5.48043 6.10531 5.73478 5.99995 6 5.99995H16C16.2652 5.99995 16.5196 5.89459 16.7071 5.70706C16.8946 5.51952 17 5.26517 17 4.99995C17 4.73473 16.8946 4.48038 16.7071 4.29284C16.5196 4.10531 16.2652 3.99995 16 3.99995H6C5.20435 3.99995 4.44129 4.31602 3.87868 4.87863C3.31607 5.44124 3 6.2043 3 6.99995V18.9999C3 19.7956 3.31607 20.5587 3.87868 21.1213C4.44129 21.6839 5.20435 21.9999 6 21.9999H18C18.7956 21.9999 19.5587 21.6839 20.1213 21.1213C20.6839 20.5587 21 19.7956 21 18.9999V13.9999C21 13.7347 20.8946 13.4804 20.7071 13.2928C20.5196 13.1053 20.2652 12.9999 20 12.9999ZM6 19.9999C5.73478 19.9999 5.48043 19.8946 5.29289 19.7071C5.10536 19.5195 5 19.2652 5 18.9999V15.4299L7.9 12.5299C8.04691 12.3899 8.24206 12.3119 8.445 12.3119C8.64794 12.3119 8.84309 12.3899 8.99 12.5299L12.16 15.6999L16.45 19.9999H6ZM19 18.9999C18.9917 19.1901 18.9292 19.374 18.82 19.5299L14.31 14.9999L15.01 14.2999C15.1562 14.1546 15.3539 14.073 15.56 14.073C15.7661 14.073 15.9638 14.1546 16.11 14.2999L19 17.2199V18.9999ZM20 4.99995C19.7348 4.99995 19.4804 5.10531 19.2929 5.29284C19.1054 5.48038 19 5.73473 19 5.99995V9.99995C19 10.2652 19.1054 10.5195 19.2929 10.7071C19.4804 10.8946 19.7348 10.9999 20 10.9999C20.2652 10.9999 20.5196 10.8946 20.7071 10.7071C20.8946 10.5195 21 10.2652 21 9.99995V5.99995C21 5.73473 20.8946 5.48038 20.7071 5.29284C20.5196 5.10531 20.2652 4.99995 20 4.99995Z" />
</svg>
