<svg width="24" height="24" viewBox="0 0 24 24" xmlns="http://www.w3.org/2000/svg">
<path d="M21.5 1.49999C21.2348 1.49999 20.9804 1.60534 20.7929 1.79288C20.6054 1.98042 20.5 2.23477 20.5 2.49999C19.7442 1.93201 18.8429 1.58994 17.9006 1.51346C16.9583 1.43698 16.0136 1.62923 15.1761 2.0679C14.3386 2.50657 13.6427 3.17369 13.169 3.99188C12.6953 4.81006 12.4633 5.74577 12.4999 6.69048C12.5364 7.63518 12.8401 8.55016 13.3756 9.32927C13.9111 10.1084 14.6566 10.7197 15.5254 11.0923C16.3943 11.465 17.351 11.5836 18.2846 11.4345C19.2182 11.2854 20.0904 10.8747 20.8 10.25C21.0002 10.0749 21.1227 9.82753 21.1406 9.56216C21.1584 9.2968 21.07 9.03523 20.895 8.83499C20.72 8.63475 20.4725 8.51225 20.2072 8.49443C19.9418 8.47661 19.6802 8.56494 19.48 8.73999C19.0358 9.13205 18.4855 9.38383 17.8984 9.46356C17.3114 9.54329 16.7138 9.44741 16.1812 9.18802C15.6485 8.92862 15.2046 8.51731 14.9054 8.00596C14.6062 7.49461 14.4651 6.90612 14.4999 6.31469C14.5347 5.72325 14.7438 5.15536 15.1009 4.68262C15.458 4.20988 15.9471 3.85345 16.5065 3.65829C17.0659 3.46313 17.6705 3.43797 18.2442 3.58598C18.8179 3.73399 19.3349 4.04855 19.73 4.48999H18.5C18.2348 4.48999 17.9804 4.59534 17.7929 4.78288C17.6054 4.97042 17.5 5.22477 17.5 5.48999C17.5 5.7552 17.6054 6.00956 17.7929 6.19709C17.9804 6.38463 18.2348 6.48999 18.5 6.48999H21.5C21.7652 6.48999 22.0196 6.38463 22.2071 6.19709C22.3946 6.00956 22.5 5.7552 22.5 5.48999V2.48999C22.4974 2.22651 22.3908 1.97471 22.2036 1.78934C22.0163 1.60396 21.7635 1.49997 21.5 1.49999ZM18.5 13.5C18.2348 13.5 17.9804 13.6053 17.7929 13.7929C17.6054 13.9804 17.5 14.2348 17.5 14.5V14.89L16 13.41C15.7426 13.1509 15.4364 12.9452 15.0992 12.8049C14.7619 12.6646 14.4003 12.5923 14.035 12.5923C13.6697 12.5923 13.3081 12.6646 12.9708 12.8049C12.6336 12.9452 12.3274 13.1509 12.07 13.41L11.37 14.11L8.91 11.62C8.38742 11.1015 7.68113 10.8106 6.945 10.8106C6.20887 10.8106 5.50258 11.1015 4.98 11.62L3.5 13.1V7.49999C3.5 7.23477 3.60536 6.98042 3.79289 6.79288C3.98043 6.60534 4.23478 6.49999 4.5 6.49999H9.5C9.76522 6.49999 10.0196 6.39463 10.2071 6.20709C10.3946 6.01956 10.5 5.7652 10.5 5.49999C10.5 5.23477 10.3946 4.98042 10.2071 4.79288C10.0196 4.60534 9.76522 4.49999 9.5 4.49999H4.5C3.70435 4.49999 2.94129 4.81606 2.37868 5.37867C1.81607 5.94128 1.5 6.70434 1.5 7.49999V19.5C1.5 20.2956 1.81607 21.0587 2.37868 21.6213C2.94129 22.1839 3.70435 22.5 4.5 22.5H16.5C17.2956 22.5 18.0587 22.1839 18.6213 21.6213C19.1839 21.0587 19.5 20.2956 19.5 19.5V14.5C19.5 14.2348 19.3946 13.9804 19.2071 13.7929C19.0196 13.6053 18.7652 13.5 18.5 13.5ZM4.5 20.5C4.23478 20.5 3.98043 20.3946 3.79289 20.2071C3.60536 20.0196 3.5 19.7652 3.5 19.5V15.93L6.4 13C6.54691 12.86 6.74206 12.7819 6.945 12.7819C7.14794 12.7819 7.34309 12.86 7.49 13L10.66 16.17L15 20.5H4.5ZM17.5 19.5C17.4917 19.6902 17.4292 19.8741 17.32 20.03L12.81 15.52L13.51 14.82C13.6562 14.6747 13.8539 14.5931 14.06 14.5931C14.2661 14.5931 14.4638 14.6747 14.61 14.82L17.5 17.72V19.5Z" />
</svg>
