<svg width="24" height="24" viewBox="0 0 24 24" xmlns="http://www.w3.org/2000/svg">
<path d="M19 6.50002H17.72L17.4 5.50002C17.1926 4.91325 16.8077 4.40553 16.2989 4.04718C15.7901 3.68884 15.1824 3.49762 14.56 3.50002H9.44C8.81155 3.5012 8.19933 3.69971 7.68977 4.06753C7.1802 4.43535 6.79901 4.95391 6.6 5.55002L6.28 6.55002H5C4.20435 6.55002 3.44129 6.86609 2.87868 7.4287C2.31607 7.99131 2 8.75437 2 9.55002V17.55C2 18.3457 2.31607 19.1087 2.87868 19.6713C3.44129 20.234 4.20435 20.55 5 20.55H19C19.7956 20.55 20.5587 20.234 21.1213 19.6713C21.6839 19.1087 22 18.3457 22 17.55V9.55002C22.0066 9.15187 21.9339 8.75638 21.7862 8.38661C21.6384 8.01684 21.4184 7.6802 21.1392 7.39631C20.86 7.11241 20.527 6.88695 20.1597 6.73307C19.7924 6.57919 19.3982 6.49997 19 6.50002ZM20 17.5C20 17.7652 19.8946 18.0196 19.7071 18.2071C19.5196 18.3947 19.2652 18.5 19 18.5H5C4.73478 18.5 4.48043 18.3947 4.29289 18.2071C4.10536 18.0196 4 17.7652 4 17.5V9.50002C4 9.23481 4.10536 8.98045 4.29289 8.79292C4.48043 8.60538 4.73478 8.50002 5 8.50002H7C7.21807 8.5114 7.43386 8.4511 7.61443 8.32831C7.795 8.20552 7.93042 8.027 8 7.82002L8.54 6.18002C8.60709 5.9814 8.7349 5.80889 8.90537 5.68686C9.07584 5.56484 9.28036 5.49948 9.49 5.50002H14.61C14.8196 5.49948 15.0242 5.56484 15.1946 5.68686C15.3651 5.80889 15.4929 5.9814 15.56 6.18002L16.1 7.82002C16.1642 8.01077 16.2844 8.17771 16.445 8.29903C16.6055 8.42035 16.799 8.4904 17 8.50002H19C19.2652 8.50002 19.5196 8.60538 19.7071 8.79292C19.8946 8.98045 20 9.23481 20 9.50002V17.5ZM12 8.50002C11.2089 8.50002 10.4355 8.73462 9.77772 9.17414C9.11992 9.61367 8.60723 10.2384 8.30448 10.9693C8.00173 11.7002 7.92252 12.5045 8.07686 13.2804C8.2312 14.0563 8.61216 14.769 9.17157 15.3284C9.73098 15.8879 10.4437 16.2688 11.2196 16.4232C11.9956 16.5775 12.7998 16.4983 13.5307 16.1955C14.2616 15.8928 14.8864 15.3801 15.3259 14.7223C15.7654 14.0645 16 13.2911 16 12.5C16 11.4392 15.5786 10.4217 14.8284 9.6716C14.0783 8.92145 13.0609 8.50002 12 8.50002ZM12 14.5C11.6044 14.5 11.2178 14.3827 10.8889 14.163C10.56 13.9432 10.3036 13.6308 10.1522 13.2654C10.0009 12.8999 9.96126 12.4978 10.0384 12.1098C10.1156 11.7219 10.3061 11.3655 10.5858 11.0858C10.8655 10.8061 11.2219 10.6156 11.6098 10.5385C11.9978 10.4613 12.3999 10.5009 12.7654 10.6523C13.1308 10.8036 13.4432 11.06 13.6629 11.3889C13.8827 11.7178 14 12.1045 14 12.5C14 13.0305 13.7893 13.5392 13.4142 13.9142C13.0391 14.2893 12.5304 14.5 12 14.5Z" />
</svg>
