<svg width="24" height="24" viewBox="0 0 24 24" xmlns="http://www.w3.org/2000/svg">
<path d="M21 3H17C16.7348 3 16.4804 3.10536 16.2929 3.29289C16.1054 3.48043 16 3.73478 16 4C16 4.26522 16.1054 4.51957 16.2929 4.70711C16.4804 4.89464 16.7348 5 17 5H21C21.2652 5 21.5196 4.89464 21.7071 4.70711C21.8946 4.51957 22 4.26522 22 4C22 3.73478 21.8946 3.48043 21.7071 3.29289C21.5196 3.10536 21.2652 3 21 3ZM19 7C18.7348 7 18.4804 7.10536 18.2929 7.29289C18.1054 7.48043 18 7.73478 18 8V13.39L16.52 11.91C15.9974 11.3915 15.2911 11.1006 14.555 11.1006C13.8189 11.1006 13.1126 11.3915 12.59 11.91L11.89 12.61L9.41 10.12C8.88742 9.60155 8.18113 9.31063 7.445 9.31063C6.70887 9.31063 6.00258 9.60155 5.48 10.12L4 11.61V6C4 5.73478 4.10536 5.48043 4.29289 5.29289C4.48043 5.10536 4.73478 5 5 5H13C13.2652 5 13.5196 4.89464 13.7071 4.70711C13.8946 4.51957 14 4.26522 14 4C14 3.73478 13.8946 3.48043 13.7071 3.29289C13.5196 3.10536 13.2652 3 13 3H5C4.20435 3 3.44129 3.31607 2.87868 3.87868C2.31607 4.44129 2 5.20435 2 6V18C2 18.7956 2.31607 19.5587 2.87868 20.1213C3.44129 20.6839 4.20435 21 5 21H17C17.7956 21 18.5587 20.6839 19.1213 20.1213C19.6839 19.5587 20 18.7956 20 18V8C20 7.73478 19.8946 7.48043 19.7071 7.29289C19.5196 7.10536 19.2652 7 19 7ZM5 19C4.73478 19 4.48043 18.8946 4.29289 18.7071C4.10536 18.5196 4 18.2652 4 18V14.43L6.9 11.54C7.04691 11.4 7.24206 11.3219 7.445 11.3219C7.64794 11.3219 7.84309 11.4 7.99 11.54L11.16 14.71L15.45 19H5ZM18 18C17.9936 18.1936 17.931 18.3812 17.82 18.54L13.31 14L14.01 13.31C14.0817 13.2368 14.1673 13.1787 14.2617 13.139C14.3561 13.0993 14.4576 13.0789 14.56 13.0789C14.6624 13.0789 14.7639 13.0993 14.8583 13.139C14.9527 13.1787 15.0383 13.2368 15.11 13.31L18 16.22V18Z" />
</svg>
