<svg width="24" height="24" viewBox="0 0 24 24" xmlns="http://www.w3.org/2000/svg">
<path d="M15.5 7C15.2348 7 14.9804 7.10536 14.7929 7.29289C14.6054 7.48043 14.5 7.73478 14.5 8V9.69L10.5 7.38C10.1961 7.20455 9.85142 7.11214 9.50052 7.11205C9.14962 7.11196 8.80487 7.20419 8.50089 7.37949C8.19691 7.55478 7.94441 7.80697 7.76872 8.11072C7.59304 8.41447 7.50036 8.7591 7.5 9.11V14.89C7.50036 15.2407 7.59295 15.5852 7.76847 15.8888C7.94398 16.1925 8.19627 16.4446 8.5 16.62C8.80404 16.7955 9.14893 16.8879 9.5 16.8879C9.85108 16.8879 10.196 16.7955 10.5 16.62L14.5 14.31V16C14.5 16.2652 14.6054 16.5196 14.7929 16.7071C14.9804 16.8946 15.2348 17 15.5 17C15.7652 17 16.0196 16.8946 16.2071 16.7071C16.3946 16.5196 16.5 16.2652 16.5 16V8C16.5 7.73478 16.3946 7.48043 16.2071 7.29289C16.0196 7.10536 15.7652 7 15.5 7ZM14.5 12L9.5 14.89V9.11L14.5 11.99V12ZM12 2C10.0222 2 8.08879 2.58649 6.4443 3.6853C4.79981 4.78412 3.51809 6.3459 2.76121 8.17317C2.00433 10.0004 1.8063 12.0111 2.19215 13.9509C2.578 15.8907 3.53041 17.6725 4.92894 19.0711C6.32746 20.4696 8.10929 21.422 10.0491 21.8079C11.9889 22.1937 13.9996 21.9957 15.8268 21.2388C17.6541 20.4819 19.2159 19.2002 20.3147 17.5557C21.4135 15.9112 22 13.9778 22 12C22 10.6868 21.7413 9.38642 21.2388 8.17317C20.7363 6.95991 19.9997 5.85752 19.0711 4.92893C18.1425 4.00035 17.0401 3.26375 15.8268 2.7612C14.6136 2.25866 13.3132 2 12 2ZM12 20C10.4178 20 8.87104 19.5308 7.55544 18.6518C6.23985 17.7727 5.21447 16.5233 4.60897 15.0615C4.00347 13.5997 3.84504 11.9911 4.15372 10.4393C4.4624 8.88743 5.22433 7.46197 6.34315 6.34315C7.46197 5.22433 8.88743 4.4624 10.4393 4.15372C11.9911 3.84504 13.5997 4.00346 15.0615 4.60896C16.5233 5.21447 17.7727 6.23984 18.6518 7.55544C19.5308 8.87103 20 10.4177 20 12C20 14.1217 19.1572 16.1566 17.6569 17.6569C16.1566 19.1571 14.1217 20 12 20Z" />
</svg>
