<svg width="24" height="24" viewBox="0 0 24 24" xmlns="http://www.w3.org/2000/svg">
<path d="M5 3C4.20435 3 3.44129 3.31607 2.87868 3.87868C2.31607 4.44129 2 5.20435 2 6V18C2 18.7956 2.31607 19.5587 2.87868 20.1213C3.44129 20.6839 4.20435 21 5 21C5.79565 21 6.55871 20.6839 7.12132 20.1213C7.68393 19.5587 8 18.7956 8 18V6C8 5.20435 7.68393 4.44129 7.12132 3.87868C6.55871 3.31607 5.79565 3 5 3ZM6 18C6 18.2652 5.89464 18.5196 5.70711 18.7071C5.51957 18.8946 5.26522 19 5 19C4.73478 19 4.48043 18.8946 4.29289 18.7071C4.10536 18.5196 4 18.2652 4 18V6C4 5.73478 4.10536 5.48043 4.29289 5.29289C4.48043 5.10536 4.73478 5 5 5C5.26522 5 5.51957 5.10536 5.70711 5.29289C5.89464 5.48043 6 5.73478 6 6V18ZM20.68 9.65L14 5.66C13.6 5.4243 13.1442 5.3 12.68 5.3C12.2158 5.3 11.76 5.4243 11.36 5.66C10.9501 5.89892 10.6093 6.24018 10.3709 6.65036C10.1325 7.06054 10.0047 7.52559 10 8V16C9.99875 16.4822 10.1248 16.9561 10.3653 17.374C10.6059 17.7919 10.9524 18.1389 11.37 18.38C11.7689 18.6188 12.2251 18.7449 12.69 18.7449C13.1549 18.7449 13.6111 18.6188 14.01 18.38L20.68 14.38C21.0835 14.1347 21.4171 13.7897 21.6486 13.3781C21.8801 12.9665 22.0017 12.5022 22.0017 12.03C22.0017 11.5578 21.8801 11.0935 21.6486 10.6819C21.4171 10.2703 21.0835 9.92526 20.68 9.68V9.65ZM19.68 12.65L13.02 16.65C12.9249 16.7073 12.816 16.7376 12.705 16.7376C12.594 16.7376 12.4851 16.7073 12.39 16.65C12.271 16.5886 12.1714 16.4953 12.1025 16.3805C12.0336 16.2657 11.9981 16.1339 12 16V8C11.9971 7.87084 12.0289 7.74326 12.0923 7.63066C12.1556 7.51805 12.2481 7.42457 12.36 7.36C12.4549 7.3075 12.5616 7.27997 12.67 7.28C12.7828 7.28081 12.8933 7.31189 12.99 7.37L19.65 11.37C19.7574 11.4388 19.8457 11.5334 19.9069 11.6452C19.9681 11.7571 20.0001 11.8825 20.0001 12.01C20.0001 12.1375 19.9681 12.2629 19.9069 12.3748C19.8457 12.4866 19.7574 12.5812 19.65 12.65H19.68Z" />
</svg>
