<svg width="24" height="24" viewBox="0 0 24 24" xmlns="http://www.w3.org/2000/svg">
<path d="M19 13C18.7348 13 18.4804 13.1054 18.2929 13.2929C18.1054 13.4804 18 13.7348 18 14V14.38L16.52 12.9C15.9974 12.3816 15.2911 12.0906 14.555 12.0906C13.8189 12.0906 13.1126 12.3816 12.59 12.9L11.89 13.6L9.41 11.12C8.88012 10.6156 8.17657 10.3343 7.445 10.3343C6.71343 10.3343 6.00988 10.6156 5.48 11.12L4 12.6V7.00002C4 6.7348 4.10536 6.48045 4.29289 6.29291C4.48043 6.10538 4.73478 6.00002 5 6.00002H12C12.2652 6.00002 12.5196 5.89466 12.7071 5.70712C12.8946 5.51959 13 5.26523 13 5.00002C13 4.7348 12.8946 4.48045 12.7071 4.29291C12.5196 4.10538 12.2652 4.00002 12 4.00002H5C4.20435 4.00002 3.44129 4.31609 2.87868 4.8787C2.31607 5.44131 2 6.20437 2 7.00002V19C2 19.7957 2.31607 20.5587 2.87868 21.1213C3.44129 21.6839 4.20435 22 5 22H17C17.7956 22 18.5587 21.6839 19.1213 21.1213C19.6839 20.5587 20 19.7957 20 19V14C20 13.7348 19.8946 13.4804 19.7071 13.2929C19.5196 13.1054 19.2652 13 19 13ZM5 20C4.73478 20 4.48043 19.8947 4.29289 19.7071C4.10536 19.5196 4 19.2652 4 19V15.43L6.9 12.53C7.04691 12.39 7.24206 12.3119 7.445 12.3119C7.64794 12.3119 7.84309 12.39 7.99 12.53L11.16 15.7L15.46 20H5ZM18 19C17.9986 19.1914 17.9354 19.3773 17.82 19.53L13.31 15L14.01 14.3C14.0817 14.2268 14.1673 14.1687 14.2617 14.129C14.3561 14.0893 14.4576 14.0689 14.56 14.0689C14.6624 14.0689 14.7639 14.0893 14.8583 14.129C14.9527 14.1687 15.0383 14.2268 15.11 14.3L18 17.21V19ZM22.71 4.29002L19.71 1.29002C19.6149 1.19898 19.5028 1.12761 19.38 1.08002C19.1365 0.98 18.8635 0.98 18.62 1.08002C18.4972 1.12761 18.3851 1.19898 18.29 1.29002L15.29 4.29002C15.1968 4.38326 15.1228 4.49395 15.0723 4.61577C15.0219 4.73759 14.9959 4.86816 14.9959 5.00002C14.9959 5.26632 15.1017 5.52171 15.29 5.71002C15.4783 5.89832 15.7337 6.00411 16 6.00411C16.2663 6.00411 16.5217 5.89832 16.71 5.71002L18 4.41002V10C18 10.2652 18.1054 10.5196 18.2929 10.7071C18.4804 10.8947 18.7348 11 19 11C19.2652 11 19.5196 10.8947 19.7071 10.7071C19.8946 10.5196 20 10.2652 20 10V4.41002L21.29 5.71002C21.383 5.80375 21.4936 5.87814 21.6154 5.92891C21.7373 5.97968 21.868 6.00582 22 6.00582C22.132 6.00582 22.2627 5.97968 22.3846 5.92891C22.5064 5.87814 22.617 5.80375 22.71 5.71002C22.8037 5.61705 22.8781 5.50645 22.9289 5.38459C22.9797 5.26274 23.0058 5.13203 23.0058 5.00002C23.0058 4.86801 22.9797 4.7373 22.9289 4.61544C22.8781 4.49358 22.8037 4.38298 22.71 4.29002Z" />
</svg>
