<svg width="24" height="24" viewBox="0 0 24 24" xmlns="http://www.w3.org/2000/svg">
<path d="M16.29 8.71C16.383 8.80373 16.4936 8.87812 16.6154 8.92889C16.7373 8.97966 16.868 9.0058 17 9.0058C17.132 9.0058 17.2627 8.97966 17.3846 8.92889C17.5064 8.87812 17.617 8.80373 17.71 8.71L21.71 4.71C21.8983 4.5217 22.0041 4.2663 22.0041 4C22.0041 3.7337 21.8983 3.47831 21.71 3.29C21.5217 3.1017 21.2663 2.99591 21 2.99591C20.7337 2.99591 20.4783 3.1017 20.29 3.29L17 6.59L15.71 5.29C15.6168 5.19676 15.5061 5.1228 15.3842 5.07234C15.2624 5.02188 15.1319 4.99591 15 4.99591C14.7337 4.99591 14.4783 5.1017 14.29 5.29C14.1968 5.38324 14.1228 5.49393 14.0723 5.61575C14.0219 5.73758 13.9959 5.86814 13.9959 6C13.9959 6.2663 14.1017 6.5217 14.29 6.71L16.29 8.71ZM21 8C20.7348 8 20.4804 8.10536 20.2929 8.2929C20.1054 8.48043 20 8.73479 20 9V18C20 18.2652 19.8946 18.5196 19.7071 18.7071C19.5196 18.8946 19.2652 19 19 19H5C4.73478 19 4.48043 18.8946 4.29289 18.7071C4.10536 18.5196 4 18.2652 4 18V8.41L9.88 14.3C10.4412 14.8567 11.1995 15.1693 11.99 15.17C12.8004 15.1658 13.5764 14.8425 14.15 14.27L15.87 12.55C16.0583 12.3617 16.1641 12.1063 16.1641 11.84C16.1641 11.5737 16.0583 11.3183 15.87 11.13C15.6817 10.9417 15.4263 10.8359 15.16 10.8359C14.8937 10.8359 14.6383 10.9417 14.45 11.13L12.7 12.88C12.5131 13.0632 12.2618 13.1659 12 13.1659C11.7382 13.1659 11.4869 13.0632 11.3 12.88L5.41 7H11C11.2652 7 11.5196 6.89465 11.7071 6.70711C11.8946 6.51957 12 6.26522 12 6C12 5.73479 11.8946 5.48043 11.7071 5.2929C11.5196 5.10536 11.2652 5 11 5H5C4.20435 5 3.44129 5.31607 2.87868 5.87868C2.31607 6.44129 2 7.20435 2 8V18C2 18.7957 2.31607 19.5587 2.87868 20.1213C3.44129 20.6839 4.20435 21 5 21H19C19.7956 21 20.5587 20.6839 21.1213 20.1213C21.6839 19.5587 22 18.7957 22 18V9C22 8.73479 21.8946 8.48043 21.7071 8.2929C21.5196 8.10536 21.2652 8 21 8Z" />
</svg>
