<svg width="24" height="24" viewBox="0 0 24 24" xmlns="http://www.w3.org/2000/svg">
<path d="M13.64 9.74L13.35 11.47C13.3019 11.7604 13.3374 12.0586 13.4525 12.3295C13.5677 12.6005 13.7575 12.833 14 13C14.2268 13.1653 14.4965 13.2617 14.7767 13.2776C15.057 13.2936 15.3359 13.2285 15.58 13.09L17 12.28L18.44 13.07C18.68 13.2072 18.954 13.2735 19.2301 13.2611C19.5063 13.2487 19.7733 13.1582 20 13C20.2354 12.8321 20.4191 12.6017 20.5305 12.3349C20.6418 12.0681 20.6763 11.7754 20.63 11.49L20.34 9.76L21.54 8.54C21.738 8.33873 21.8769 8.08689 21.9415 7.81201C22.006 7.53712 21.9937 7.24979 21.906 6.98141C21.8183 6.71303 21.6584 6.47393 21.444 6.29027C21.2295 6.1066 20.9687 5.98543 20.69 5.94L19.07 5.7L18.34 4.15C18.2195 3.89092 18.0274 3.67167 17.7865 3.51803C17.5456 3.3644 17.2657 3.28278 16.98 3.28278C16.6943 3.28278 16.4144 3.3644 16.1735 3.51803C15.9326 3.67167 15.7405 3.89092 15.62 4.15L14.89 5.7L13.27 5.94C12.9913 5.98543 12.7305 6.1066 12.516 6.29027C12.3016 6.47393 12.1417 6.71303 12.054 6.98141C11.9663 7.24979 11.954 7.53712 12.0185 7.81201C12.0831 8.08689 12.222 8.33873 12.42 8.54L13.64 9.74ZM15.47 7.61C15.7152 7.57284 15.9475 7.47585 16.1463 7.3276C16.3451 7.17935 16.5044 6.98441 16.61 6.76L17 5.93L17.39 6.76C17.4972 6.98425 17.6567 7.17943 17.8551 7.32911C18.0535 7.47878 18.285 7.57855 18.53 7.62L19.53 7.76L18.8 8.5C18.6308 8.67543 18.5047 8.88785 18.4318 9.12043C18.3589 9.35301 18.3412 9.59937 18.38 9.84L18.54 10.84L17.75 10.41C17.5298 10.2874 17.282 10.2231 17.03 10.2231C16.778 10.2231 16.5302 10.2874 16.31 10.41L15.52 10.84L15.68 9.84C15.7196 9.6009 15.7022 9.35584 15.6292 9.12473C15.5562 8.89363 15.4297 8.68301 15.26 8.51L14.53 7.76L15.47 7.61ZM21 15.26C20.7348 15.26 20.4804 15.3654 20.2929 15.5529C20.1054 15.7404 20 15.9948 20 16.26V19.26C20 19.5252 19.8946 19.7796 19.7071 19.9671C19.5196 20.1546 19.2652 20.26 19 20.26H5C4.73478 20.26 4.48043 20.1546 4.29289 19.9671C4.10536 19.7796 4 19.5252 4 19.26V9.67L9.88 15.55C10.1539 15.8289 10.4808 16.0505 10.8414 16.2016C11.2019 16.3527 11.589 16.4303 11.98 16.43H12.25C12.5137 16.4071 12.7577 16.2806 12.9282 16.0781C13.0988 15.8757 13.1822 15.6138 13.16 15.35C13.1487 15.2185 13.1115 15.0905 13.0505 14.9734C12.9895 14.8564 12.9059 14.7526 12.8045 14.668C12.7032 14.5834 12.5861 14.5197 12.4601 14.4805C12.334 14.4414 12.2014 14.4276 12.07 14.44C11.9288 14.4545 11.7862 14.4368 11.6529 14.3883C11.5195 14.3398 11.3989 14.2618 11.3 14.16L5.41 8.26H9C9.26522 8.26 9.51957 8.15465 9.70711 7.96711C9.89464 7.77957 10 7.52522 10 7.26C10 6.99479 9.89464 6.74043 9.70711 6.5529C9.51957 6.36536 9.26522 6.26 9 6.26H5C4.20435 6.26 3.44129 6.57607 2.87868 7.13868C2.31607 7.70129 2 8.46435 2 9.26V19.26C2 20.0557 2.31607 20.8187 2.87868 21.3813C3.44129 21.9439 4.20435 22.26 5 22.26H19C19.7956 22.26 20.5587 21.9439 21.1213 21.3813C21.6839 20.8187 22 20.0557 22 19.26V16.26C22 15.9948 21.8946 15.7404 21.7071 15.5529C21.5196 15.3654 21.2652 15.26 21 15.26Z" />
</svg>
