<svg width="24" height="24" viewBox="0 0 24 24" xmlns="http://www.w3.org/2000/svg">
<path d="M20.4697 8.99999C20.6675 8.99999 20.8608 8.94134 21.0253 8.83146C21.1897 8.72158 21.3179 8.5654 21.3936 8.38267C21.4693 8.19995 21.4891 7.99888 21.4505 7.8049C21.4119 7.61092 21.3167 7.43274 21.1768 7.29288C21.037 7.15303 20.8588 7.05779 20.6648 7.0192C20.4708 6.98062 20.2698 7.00042 20.087 7.07611C19.9043 7.1518 19.7481 7.27997 19.6383 7.44442C19.5284 7.60887 19.4697 7.80221 19.4697 7.99999C19.4697 8.26521 19.5751 8.51956 19.7626 8.7071C19.9501 8.89463 20.2045 8.99999 20.4697 8.99999ZM17.4697 8.99999C17.6675 8.99999 17.8608 8.94134 18.0253 8.83146C18.1897 8.72158 18.3179 8.5654 18.3936 8.38267C18.4693 8.19995 18.4891 7.99888 18.4505 7.8049C18.4119 7.61092 18.3167 7.43274 18.1768 7.29288C18.037 7.15303 17.8588 7.05779 17.6648 7.0192C17.4708 6.98062 17.2698 7.00042 17.087 7.07611C16.9043 7.1518 16.7481 7.27997 16.6383 7.44442C16.5284 7.60887 16.4697 7.80221 16.4697 7.99999C16.4697 8.26521 16.5751 8.51956 16.7626 8.7071C16.9501 8.89463 17.2045 8.99999 17.4697 8.99999ZM14.4697 8.99999C14.6675 8.99999 14.8608 8.94134 15.0253 8.83146C15.1897 8.72158 15.3179 8.5654 15.3936 8.38267C15.4693 8.19995 15.4891 7.99888 15.4505 7.8049C15.4119 7.61092 15.3167 7.43274 15.1768 7.29288C15.037 7.15303 14.8588 7.05779 14.6648 7.0192C14.4708 6.98062 14.2698 7.00042 14.087 7.07611C13.9043 7.1518 13.7481 7.27997 13.6383 7.44442C13.5284 7.60887 13.4697 7.80221 13.4697 7.99999C13.4697 8.13131 13.4956 8.26135 13.5458 8.38267C13.5961 8.504 13.6698 8.61424 13.7626 8.7071C13.8555 8.79996 13.9657 8.87361 14.087 8.92387C14.2084 8.97412 14.3384 8.99999 14.4697 8.99999ZM18.9097 13C18.6897 13 18.4597 12.93 18.2397 12.88C17.7942 12.7818 17.3564 12.6515 16.9297 12.49C16.4658 12.3212 15.9559 12.33 15.498 12.5146C15.0402 12.6992 14.6668 13.0466 14.4497 13.49L14.2297 13.94C13.2542 13.3958 12.3562 12.7231 11.5597 11.94C10.7804 11.1439 10.1081 10.2497 9.55972 9.27999L9.99972 8.99999C10.4431 8.78291 10.7905 8.40952 10.9751 7.95168C11.1597 7.49384 11.1685 6.9839 10.9997 6.51999C10.8409 6.09241 10.7107 5.65479 10.6097 5.20999C10.5597 4.97999 10.5197 4.75999 10.4897 4.52999C10.3683 3.82561 9.99934 3.18773 9.44934 2.73123C8.89934 2.27473 8.20442 2.0296 7.48972 2.03999H4.48972C4.06697 2.03944 3.64887 2.12824 3.26284 2.30057C2.87681 2.47291 2.53155 2.72489 2.24972 3.03999C1.96341 3.36249 1.74999 3.74292 1.62402 4.15536C1.49804 4.5678 1.46247 5.00256 1.51972 5.42999C2.04643 9.61703 3.9521 13.5096 6.93612 16.4936C9.92014 19.4776 13.8127 21.3833 17.9997 21.91C18.1295 21.9199 18.2599 21.9199 18.3897 21.91C19.1854 21.91 19.9484 21.5939 20.511 21.0313C21.0736 20.4687 21.3897 19.7056 21.3897 18.91V15.91C21.3793 15.2122 21.126 14.5399 20.6734 14.0087C20.2207 13.4776 19.597 13.1209 18.9097 13ZM19.3997 19C19.4014 19.1449 19.3715 19.2885 19.3121 19.4208C19.2528 19.553 19.1654 19.6708 19.056 19.7659C18.9466 19.861 18.8178 19.9312 18.6786 19.9717C18.5394 20.0121 18.393 20.0217 18.2497 20C14.5159 19.5128 11.0468 17.8081 8.37972 15.15C5.71472 12.4648 4.01296 8.97343 3.53972 5.21999C3.518 5.07332 3.52916 4.92366 3.57239 4.78184C3.61563 4.64002 3.68987 4.50959 3.78972 4.39999C3.88231 4.29458 3.99605 4.20983 4.12354 4.15125C4.25103 4.09267 4.38942 4.06158 4.52972 4.05999H7.52972C7.76227 4.05482 7.98934 4.13087 8.17186 4.27506C8.35438 4.41925 8.48093 4.62256 8.52972 4.84999C8.56972 5.12332 8.61972 5.39332 8.67972 5.65999C8.79524 6.18713 8.94898 6.70517 9.13972 7.20999L7.73972 7.85999C7.62002 7.91491 7.51234 7.99294 7.42288 8.08959C7.33341 8.18623 7.26392 8.2996 7.21839 8.42318C7.17286 8.54677 7.15219 8.67812 7.15757 8.80971C7.16294 8.9413 7.19426 9.07054 7.24972 9.18999C8.68892 12.2727 11.167 14.7508 14.2497 16.19C14.4932 16.29 14.7663 16.29 15.0097 16.19C15.2579 16.0976 15.4593 15.9106 15.5697 15.67L16.1997 14.27C16.7167 14.4549 17.2443 14.6085 17.7797 14.73C18.0397 14.79 18.3197 14.84 18.5897 14.88C18.8153 14.9308 19.0163 15.0582 19.1585 15.2405C19.3007 15.4229 19.3754 15.6488 19.3697 15.88L19.3997 19Z" />
</svg>
