<svg width="24" height="24" viewBox="0 0 24 24" xmlns="http://www.w3.org/2000/svg">
<path d="M14.9396 6.55999H18.5196L17.7296 7.35999C17.5434 7.54735 17.4388 7.8008 17.4388 8.06499C17.4388 8.32918 17.5434 8.58263 17.7296 8.76999C17.917 8.95624 18.1704 9.06078 18.4346 9.06078C18.6988 9.06078 18.9522 8.95624 19.1396 8.76999L21.6396 6.26999C21.8259 6.08263 21.9304 5.82918 21.9304 5.56499C21.9304 5.3008 21.8259 5.04735 21.6396 4.85999L19.1396 2.35999C18.9483 2.19616 18.7022 2.11056 18.4506 2.12028C18.1989 2.13 17.9601 2.23433 17.782 2.41243C17.604 2.59052 17.4996 2.82926 17.4899 3.08094C17.4802 3.33261 17.5658 3.57869 17.7296 3.76999L18.5196 4.55999H14.9396C14.6744 4.55999 14.42 4.66535 14.2325 4.85288C14.045 5.04042 13.9396 5.29477 13.9396 5.55999C13.9396 5.82521 14.045 6.07956 14.2325 6.2671C14.42 6.45463 14.6744 6.55999 14.9396 6.55999ZM19.4396 13C19.2196 13 18.9896 12.93 18.7696 12.88C18.3241 12.7818 17.8863 12.6515 17.4596 12.49C16.9957 12.3212 16.4858 12.33 16.0279 12.5146C15.5701 12.6992 15.1967 13.0466 14.9796 13.49L14.7596 13.94C13.7856 13.3982 12.8906 12.7252 12.0996 11.94C11.3144 11.149 10.6414 10.254 10.0996 9.27999L10.5196 8.99999C10.963 8.78291 11.3104 8.40952 11.495 7.95168C11.6796 7.49384 11.6884 6.9839 11.5196 6.51999C11.3608 6.09241 11.2305 5.65479 11.1296 5.20999C11.0796 4.98999 11.0396 4.75999 11.0096 4.52999C10.8882 3.82561 10.5192 3.18773 9.96923 2.73123C9.41923 2.27473 8.72431 2.0296 8.00961 2.03999H5.00961C4.57864 2.03594 4.15186 2.1248 3.75832 2.30052C3.36478 2.47624 3.01372 2.73469 2.72904 3.05827C2.44436 3.38186 2.23275 3.76298 2.1086 4.1757C1.98445 4.58842 1.95069 5.02305 2.00961 5.44999C2.54235 9.63937 4.45564 13.5319 7.44726 16.5126C10.4389 19.4934 14.3383 21.3925 18.5296 21.91H18.9096C19.647 21.9111 20.359 21.6405 20.9096 21.15C21.226 20.867 21.4787 20.5202 21.6511 20.1323C21.8235 19.7444 21.9116 19.3244 21.9096 18.9V15.9C21.8974 15.2054 21.6444 14.5365 21.194 14.0077C20.7435 13.4788 20.1234 13.1226 19.4396 13ZM19.9396 19C19.9394 19.142 19.909 19.2823 19.8504 19.4116C19.7918 19.5409 19.7063 19.6563 19.5996 19.75C19.4879 19.8465 19.3572 19.9185 19.216 19.9616C19.0748 20.0046 18.9262 20.0177 18.7796 20C15.0345 19.5198 11.5558 17.8065 8.89233 15.1303C6.22881 12.4541 4.53202 8.96733 4.06961 5.21999C4.0537 5.07351 4.06765 4.92532 4.11061 4.78438C4.15358 4.64344 4.22468 4.51268 4.31961 4.39999C4.41332 4.29332 4.52867 4.20783 4.65799 4.14921C4.78731 4.09058 4.92763 4.06017 5.06961 4.05999H8.06961C8.30216 4.05482 8.52924 4.13087 8.71176 4.27506C8.89428 4.41925 9.02082 4.62256 9.06961 4.84999C9.10961 5.12332 9.15961 5.39332 9.21961 5.65999C9.33513 6.18713 9.48887 6.70517 9.67961 7.20999L8.27961 7.85999C8.15991 7.91491 8.05223 7.99294 7.96277 8.08959C7.87331 8.18623 7.80381 8.2996 7.75828 8.42318C7.71275 8.54677 7.69208 8.67812 7.69746 8.80971C7.70284 8.9413 7.73415 9.07054 7.78961 9.18999C9.22881 12.2727 11.7069 14.7508 14.7896 16.19C15.0331 16.29 15.3062 16.29 15.5496 16.19C15.6743 16.1454 15.7889 16.0764 15.8868 15.9872C15.9846 15.8979 16.0638 15.7901 16.1196 15.67L16.7396 14.27C17.2566 14.4549 17.7842 14.6085 18.3196 14.73C18.5863 14.79 18.8563 14.84 19.1296 14.88C19.357 14.9288 19.5604 15.0553 19.7045 15.2378C19.8487 15.4204 19.9248 15.6474 19.9196 15.88L19.9396 19Z" />
</svg>
