<svg width="24" height="24" viewBox="0 0 24 24" xmlns="http://www.w3.org/2000/svg">
<path d="M19.8496 5.56001L21.6396 3.77001C21.7443 3.68036 21.8293 3.57005 21.8893 3.44598C21.9494 3.32192 21.9831 3.18678 21.9884 3.04906C21.9937 2.91135 21.9705 2.77401 21.9202 2.64569C21.87 2.51736 21.7937 2.40082 21.6963 2.30336C21.5988 2.20591 21.4823 2.12965 21.3539 2.07937C21.2256 2.0291 21.0883 2.00589 20.9506 2.01121C20.8128 2.01653 20.6777 2.05026 20.5536 2.11029C20.4296 2.17031 20.3193 2.25533 20.2296 2.36001L18.4396 4.15001L16.6396 2.36001C16.4483 2.19618 16.2022 2.11058 15.9506 2.1203C15.6989 2.13002 15.4601 2.23435 15.282 2.41245C15.104 2.59054 14.9996 2.82928 14.9899 3.08096C14.9802 3.33263 15.0658 3.57871 15.2296 3.77001L16.9996 5.56001L15.2096 7.36001C15.0234 7.54737 14.9188 7.80082 14.9188 8.06501C14.9188 8.3292 15.0234 8.58265 15.2096 8.77001C15.397 8.95626 15.6504 9.0608 15.9146 9.0608C16.1788 9.0608 16.4323 8.95626 16.6196 8.77001L18.4396 7.00001L20.2296 8.79001C20.417 8.97626 20.6704 9.0808 20.9346 9.0808C21.1988 9.0808 21.4522 8.97626 21.6396 8.79001C21.8259 8.60265 21.9304 8.3492 21.9304 8.08501C21.9304 7.82083 21.8259 7.56737 21.6396 7.38001L19.8496 5.56001ZM19.4396 13C19.2196 13 18.9896 12.93 18.7696 12.88C18.3241 12.7818 17.8863 12.6515 17.4596 12.49C16.9957 12.3212 16.4858 12.33 16.0279 12.5146C15.5701 12.6992 15.1967 13.0466 14.9796 13.49L14.7596 13.94C13.7856 13.3982 12.8906 12.7252 12.0996 11.94C11.3144 11.149 10.6414 10.254 10.0996 9.28001L10.5196 9.00001C10.963 8.78293 11.3104 8.40954 11.495 7.9517C11.6796 7.49386 11.6884 6.98392 11.5196 6.52001C11.3608 6.09243 11.2305 5.65481 11.1296 5.21001C11.0796 4.99001 11.0396 4.76001 11.0096 4.53001C10.8882 3.82563 10.5192 3.18775 9.96923 2.73125C9.41923 2.27475 8.72431 2.02962 8.00961 2.04001H5.00961C4.57864 2.03596 4.15186 2.12482 3.75832 2.30054C3.36478 2.47626 3.01372 2.73471 2.72904 3.05829C2.44436 3.38188 2.23275 3.763 2.1086 4.17573C1.98445 4.58845 1.95069 5.02307 2.00961 5.45001C2.54235 9.63939 4.45564 13.5319 7.44726 16.5126C10.4389 19.4934 14.3383 21.3925 18.5296 21.91H18.9096C19.647 21.9111 20.359 21.6405 20.9096 21.15C21.226 20.8671 21.4787 20.5202 21.6511 20.1323C21.8235 19.7445 21.9116 19.3244 21.9096 18.9V15.9C21.8974 15.2054 21.6444 14.5366 21.194 14.0077C20.7435 13.4788 20.1234 13.1226 19.4396 13ZM19.9396 19C19.9394 19.142 19.909 19.2823 19.8504 19.4116C19.7918 19.541 19.7063 19.6563 19.5996 19.75C19.4879 19.8465 19.3572 19.9186 19.216 19.9616C19.0748 20.0047 18.9262 20.0177 18.7796 20C15.0345 19.5198 11.5558 17.8065 8.89233 15.1303C6.22881 12.4541 4.53202 8.96735 4.06961 5.22001C4.0537 5.07353 4.06765 4.92534 4.11061 4.7844C4.15358 4.64346 4.22468 4.5127 4.31961 4.40001C4.41332 4.29334 4.52867 4.20785 4.65799 4.14923C4.78731 4.0906 4.92763 4.06019 5.06961 4.06001H8.06961C8.30216 4.05484 8.52924 4.13089 8.71176 4.27508C8.89428 4.41927 9.02082 4.62258 9.06961 4.85001C9.10961 5.12334 9.15961 5.39334 9.21961 5.66001C9.33513 6.18716 9.48887 6.70519 9.67961 7.21001L8.27961 7.86001C8.15991 7.91493 8.05223 7.99296 7.96277 8.08961C7.87331 8.18626 7.80381 8.29963 7.75828 8.42321C7.71275 8.54679 7.69208 8.67814 7.69746 8.80973C7.70284 8.94132 7.73415 9.07056 7.78961 9.19001C9.22881 12.2728 11.7069 14.7508 14.7896 16.19C15.0331 16.29 15.3062 16.29 15.5496 16.19C15.6743 16.1454 15.7889 16.0765 15.8868 15.9872C15.9846 15.8979 16.0638 15.7901 16.1196 15.67L16.7396 14.27C17.2566 14.4549 17.7842 14.6085 18.3196 14.73C18.5863 14.79 18.8563 14.84 19.1296 14.88C19.357 14.9288 19.5604 15.0553 19.7045 15.2379C19.8487 15.4204 19.9248 15.6475 19.9196 15.88L19.9396 19Z" />
</svg>
