<svg width="24" height="24" viewBox="0 0 24 24" xmlns="http://www.w3.org/2000/svg">
<path d="M21 11C20.7348 11 20.4804 11.1054 20.2929 11.2929C20.1054 11.4804 20 11.7348 20 12V18C20 18.2652 19.8946 18.5196 19.7071 18.7071C19.5196 18.8946 19.2652 19 19 19H5C4.73478 19 4.48043 18.8946 4.29289 18.7071C4.10536 18.5196 4 18.2652 4 18V8.41L9.88 14.3C10.4412 14.8567 11.1995 15.1693 11.99 15.17C12.8004 15.1658 13.5764 14.8425 14.15 14.27L15.87 12.55C16.0583 12.3617 16.1641 12.1063 16.1641 11.84C16.1641 11.5737 16.0583 11.3183 15.87 11.13C15.6817 10.9417 15.4263 10.8359 15.16 10.8359C14.8937 10.8359 14.6383 10.9417 14.45 11.13L12.7 12.88C12.5131 13.0632 12.2618 13.1659 12 13.1659C11.7382 13.1659 11.4869 13.0632 11.3 12.88L5.41 7H13C13.2652 7 13.5196 6.89465 13.7071 6.70711C13.8946 6.51957 14 6.26522 14 6C14 5.73479 13.8946 5.48043 13.7071 5.2929C13.5196 5.10536 13.2652 5 13 5H5C4.20435 5 3.44129 5.31607 2.87868 5.87868C2.31607 6.44129 2 7.20435 2 8V18C2 18.7957 2.31607 19.5587 2.87868 20.1213C3.44129 20.6839 4.20435 21 5 21H19C19.7956 21 20.5587 20.6839 21.1213 20.1213C21.6839 19.5587 22 18.7957 22 18V12C22 11.7348 21.8946 11.4804 21.7071 11.2929C21.5196 11.1054 21.2652 11 21 11ZM20.41 6L21.71 4.71C21.8983 4.5217 22.0041 4.2663 22.0041 4C22.0041 3.7337 21.8983 3.47831 21.71 3.29C21.5217 3.1017 21.2663 2.99591 21 2.99591C20.7337 2.99591 20.4783 3.1017 20.29 3.29L19 4.59L17.71 3.29C17.6168 3.19676 17.5061 3.1228 17.3842 3.07234C17.2624 3.02188 17.1319 2.99591 17 2.99591C16.7337 2.99591 16.4783 3.1017 16.29 3.29C16.1017 3.47831 15.9959 3.7337 15.9959 4C15.9959 4.2663 16.1017 4.5217 16.29 4.71L17.59 6L16.29 7.29C16.1963 7.38297 16.1219 7.49357 16.0711 7.61543C16.0203 7.73728 15.9942 7.86799 15.9942 8C15.9942 8.13201 16.0203 8.26272 16.0711 8.38458C16.1219 8.50644 16.1963 8.61704 16.29 8.71C16.383 8.80373 16.4936 8.87812 16.6154 8.92889C16.7373 8.97966 16.868 9.0058 17 9.0058C17.132 9.0058 17.2627 8.97966 17.3846 8.92889C17.5064 8.87812 17.617 8.80373 17.71 8.71L19 7.41L20.29 8.71C20.383 8.80373 20.4936 8.87812 20.6154 8.92889C20.7373 8.97966 20.868 9.0058 21 9.0058C21.132 9.0058 21.2627 8.97966 21.3846 8.92889C21.5064 8.87812 21.617 8.80373 21.71 8.71C21.8037 8.61704 21.8781 8.50644 21.9289 8.38458C21.9797 8.26272 22.0058 8.13201 22.0058 8C22.0058 7.86799 21.9797 7.73728 21.9289 7.61543C21.8781 7.49357 21.8037 7.38297 21.71 7.29L20.41 6Z" />
</svg>
