<svg width="24" height="24" viewBox="0 0 24 24" xmlns="http://www.w3.org/2000/svg">
<path d="M5.99994 7.48999C6.26516 7.48999 6.51951 7.38463 6.70705 7.1971C6.89459 7.00956 6.99994 6.75521 6.99994 6.48999V5.89999L9.87994 8.77999C10.4424 9.34179 11.2049 9.65735 11.9999 9.65735C12.7949 9.65735 13.5574 9.34179 14.1199 8.77999L18.7099 4.18999C18.8962 4.00263 19.0007 3.74918 19.0007 3.48499C19.0007 3.2208 18.8962 2.96735 18.7099 2.77999C18.617 2.68626 18.5064 2.61187 18.3845 2.5611C18.2627 2.51033 18.132 2.48419 17.9999 2.48419C17.8679 2.48419 17.7372 2.51033 17.6154 2.5611C17.4935 2.61187 17.3829 2.68626 17.2899 2.77999L12.7099 7.35999C12.617 7.45372 12.5064 7.52811 12.3845 7.57888C12.2627 7.62965 12.132 7.65579 11.9999 7.65579C11.8679 7.65579 11.7372 7.62965 11.6154 7.57888C11.4935 7.52811 11.3829 7.45372 11.2899 7.35999L8.40994 4.48999H8.99994C9.26516 4.48999 9.51951 4.38463 9.70705 4.1971C9.89459 4.00956 9.99994 3.75521 9.99994 3.48999C9.99994 3.22477 9.89459 2.97042 9.70705 2.78288C9.51951 2.59535 9.26516 2.48999 8.99994 2.48999H5.99994C5.80365 2.49015 5.61175 2.54808 5.44815 2.65655C5.28455 2.76502 5.1565 2.91924 5.07994 3.09999C5.02956 3.22398 5.00244 3.35618 4.99994 3.48999V6.48999C4.99994 6.75521 5.1053 7.00956 5.29284 7.1971C5.48037 7.38463 5.73473 7.48999 5.99994 7.48999ZM21.9399 14.85C19.0924 12.6525 15.5968 11.4606 11.9999 11.4606C8.40304 11.4606 4.90753 12.6525 2.05994 14.85C1.75958 15.0921 1.51483 15.3961 1.34229 15.7412C1.16974 16.0862 1.07345 16.4644 1.05994 16.85C1.03383 17.2308 1.08997 17.6127 1.22456 17.9699C1.35915 18.3271 1.56903 18.6511 1.83994 18.92L3.59994 20.72C4.04969 21.1696 4.64464 21.4446 5.27848 21.4959C5.91233 21.5472 6.54376 21.3714 7.05994 21L7.52994 20.68C7.84998 20.4735 8.18414 20.2897 8.52994 20.13C8.95502 19.9423 9.29389 19.6015 9.47917 19.1753C9.66446 18.7492 9.68258 18.2689 9.52994 17.83L9.43994 17.59C11.1521 17.1501 12.9477 17.1501 14.6599 17.59L14.5699 17.83C14.4173 18.2689 14.4354 18.7492 14.6207 19.1753C14.806 19.6015 15.1449 19.9423 15.5699 20.13C15.9157 20.2897 16.2499 20.4735 16.5699 20.68L17.0399 21C17.4863 21.3276 18.0263 21.5029 18.5799 21.5C19.2992 21.5009 19.9896 21.2168 20.4999 20.71L22.3099 18.89C22.5634 18.6145 22.7559 18.2886 22.8748 17.9336C22.9937 17.5787 23.0364 17.2026 22.9999 16.83C22.9764 16.4431 22.8694 16.0658 22.6865 15.7241C22.5035 15.3823 22.2489 15.0842 21.9399 14.85ZM20.7999 17.49L18.9999 19.3C18.8905 19.414 18.7449 19.4863 18.5879 19.5045C18.431 19.5228 18.2726 19.4858 18.1399 19.4C17.9499 19.26 17.7599 19.13 17.5499 19C17.1978 18.7773 16.8339 18.5737 16.4599 18.39L16.8599 17.3C16.95 17.0507 16.9374 16.7758 16.8249 16.5358C16.7124 16.2958 16.5092 16.1103 16.2599 16.02C13.5148 15.0203 10.5051 15.0203 7.75994 16.02C7.51071 16.1103 7.3075 16.2958 7.195 16.5358C7.08249 16.7758 7.06988 17.0507 7.15994 17.3L7.55994 18.4C7.18085 18.5763 6.81344 18.7767 6.45994 19L5.87994 19.4C5.74697 19.4954 5.58329 19.538 5.42068 19.5195C5.25807 19.501 5.10812 19.4228 4.99994 19.3L3.19994 17.49C3.13508 17.4262 3.0839 17.3498 3.04951 17.2656C3.01513 17.1813 2.99826 17.091 2.99994 17C3.00825 16.8973 3.03735 16.7973 3.08549 16.7062C3.13362 16.6151 3.19978 16.5347 3.27994 16.47C5.77921 14.5449 8.84524 13.501 11.9999 13.501C15.1546 13.501 18.2207 14.5449 20.7199 16.47C20.8001 16.5347 20.8663 16.6151 20.9144 16.7062C20.9625 16.7973 20.9916 16.8973 20.9999 17C21.0016 17.091 20.9848 17.1813 20.9504 17.2656C20.916 17.3498 20.8648 17.4262 20.7999 17.49Z" />
</svg>
