<svg width="24" height="24" viewBox="0 0 24 24" xmlns="http://www.w3.org/2000/svg">
<path d="M16 10.5H8C7.20435 10.5 6.44129 10.8161 5.87868 11.3787C5.31607 11.9413 5 12.7044 5 13.5V18.5C5 19.2957 5.31607 20.0587 5.87868 20.6213C6.44129 21.1839 7.20435 21.5 8 21.5H16C16.7956 21.5 17.5587 21.1839 18.1213 20.6213C18.6839 20.0587 19 19.2957 19 18.5V13.5C19 12.7044 18.6839 11.9413 18.1213 11.3787C17.5587 10.8161 16.7956 10.5 16 10.5ZM15.58 12.5L12.7 15.38C12.5131 15.5632 12.2618 15.6659 12 15.6659C11.7382 15.6659 11.4869 15.5632 11.3 15.38L8.42 12.5H15.58ZM17 18.5C17 18.7652 16.8946 19.0196 16.7071 19.2071C16.5196 19.3946 16.2652 19.5 16 19.5H8C7.73478 19.5 7.48043 19.3946 7.29289 19.2071C7.10536 19.0196 7 18.7652 7 18.5V13.91L9.88 16.78C10.1555 17.0632 10.4851 17.2879 10.8494 17.4408C11.2136 17.5938 11.605 17.6717 12 17.67C12.7954 17.6693 13.5579 17.3528 14.12 16.79L17 13.91V18.5ZM9 6.5H12.59L12.29 6.79C12.1963 6.88297 12.1219 6.99357 12.0711 7.11543C12.0203 7.23728 11.9942 7.36799 11.9942 7.5C11.9942 7.63201 12.0203 7.76272 12.0711 7.88458C12.1219 8.00644 12.1963 8.11704 12.29 8.21C12.383 8.30373 12.4936 8.37812 12.6154 8.42889C12.7373 8.47966 12.868 8.5058 13 8.5058C13.132 8.5058 13.2627 8.47966 13.3846 8.42889C13.5064 8.37812 13.617 8.30373 13.71 8.21L15.71 6.21C15.801 6.1149 15.8724 6.00275 15.92 5.88C16.02 5.63654 16.02 5.36346 15.92 5.12C15.8724 4.99725 15.801 4.88511 15.71 4.79L13.71 2.79C13.5217 2.6017 13.2663 2.49591 13 2.49591C12.7337 2.49591 12.4783 2.6017 12.29 2.79C12.1017 2.97831 11.9959 3.2337 11.9959 3.5C11.9959 3.7663 12.1017 4.0217 12.29 4.21L12.59 4.5H9C8.73478 4.5 8.48043 4.60536 8.29289 4.7929C8.10536 4.98043 8 5.23479 8 5.5C8 5.76522 8.10536 6.01957 8.29289 6.20711C8.48043 6.39465 8.73478 6.5 9 6.5Z" />
</svg>
