<svg width="24" height="24" viewBox="0 0 24 24" xmlns="http://www.w3.org/2000/svg">
<path d="M16.77 5.37C16.9996 5.50037 17.2715 5.53464 17.5263 5.46532C17.7811 5.396 17.9981 5.22873 18.13 5C18.2181 4.84739 18.345 4.72078 18.4977 4.63298C18.6505 4.54517 18.8238 4.4993 19 4.5C19.2652 4.5 19.5196 4.60536 19.7071 4.79289C19.8946 4.98043 20 5.23478 20 5.5C20 5.76522 19.8946 6.01957 19.7071 6.20711C19.5196 6.39464 19.2652 6.5 19 6.5C18.7348 6.5 18.4804 6.60536 18.2929 6.79289C18.1054 6.98043 18 7.23478 18 7.5C18 7.76522 18.1054 8.01957 18.2929 8.20711C18.4804 8.39464 18.7348 8.5 19 8.5C19.5265 8.49966 20.0437 8.36075 20.4995 8.09723C20.9554 7.83371 21.3338 7.45486 21.5969 6.99875C21.8599 6.54264 21.9983 6.02533 21.9981 5.4988C21.9979 4.97227 21.8591 4.45507 21.5957 3.99917C21.3323 3.54326 20.9535 3.16472 20.4975 2.90156C20.0414 2.63841 19.5241 2.49992 18.9976 2.5C18.4711 2.50008 17.9538 2.63874 17.4979 2.90204C17.0419 3.16534 16.6633 3.54401 16.4 4C16.3339 4.11413 16.291 4.24022 16.2738 4.371C16.2566 4.50178 16.2655 4.63466 16.2999 4.762C16.3343 4.88934 16.3935 5.00862 16.4742 5.11297C16.5549 5.21732 16.6554 5.30467 16.77 5.37ZM21 13.5C20.7348 13.5 20.4804 13.6054 20.2929 13.7929C20.1054 13.9804 20 14.2348 20 14.5V18.5C20 18.7652 19.8946 19.0196 19.7071 19.2071C19.5196 19.3946 19.2652 19.5 19 19.5H5C4.73478 19.5 4.48043 19.3946 4.29289 19.2071C4.10536 19.0196 4 18.7652 4 18.5V8.91L9.88 14.8C10.4425 15.3618 11.205 15.6774 12 15.6774C12.795 15.6774 13.5575 15.3618 14.12 14.8L15.76 13.16C15.8532 13.0668 15.9272 12.9561 15.9777 12.8342C16.0281 12.7124 16.0541 12.5819 16.0541 12.45C16.0541 12.3181 16.0281 12.1876 15.9777 12.0658C15.9272 11.9439 15.8532 11.8332 15.76 11.74C15.6668 11.6468 15.5561 11.5728 15.4342 11.5223C15.3124 11.4719 15.1819 11.4459 15.05 11.4459C14.9181 11.4459 14.7876 11.4719 14.6658 11.5223C14.5439 11.5728 14.4332 11.6468 14.34 11.74L12.7 13.38C12.5131 13.5632 12.2618 13.6659 12 13.6659C11.7382 13.6659 11.4869 13.5632 11.3 13.38L5.41 7.5H13C13.2652 7.5 13.5196 7.39464 13.7071 7.20711C13.8946 7.01957 14 6.76522 14 6.5C14 6.23478 13.8946 5.98043 13.7071 5.79289C13.5196 5.60536 13.2652 5.5 13 5.5H5C4.20435 5.5 3.44129 5.81607 2.87868 6.37868C2.31607 6.94129 2 7.70435 2 8.5V18.5C2 19.2956 2.31607 20.0587 2.87868 20.6213C3.44129 21.1839 4.20435 21.5 5 21.5H19C19.7956 21.5 20.5587 21.1839 21.1213 20.6213C21.6839 20.0587 22 19.2956 22 18.5V14.5C22 14.2348 21.8946 13.9804 21.7071 13.7929C21.5196 13.6054 21.2652 13.5 21 13.5ZM18.29 9.79C18.1963 9.88296 18.1219 9.99356 18.0711 10.1154C18.0203 10.2373 17.9942 10.368 17.9942 10.5C17.9942 10.632 18.0203 10.7627 18.0711 10.8846C18.1219 11.0064 18.1963 11.117 18.29 11.21L18.44 11.33C18.4957 11.3678 18.5563 11.3981 18.62 11.42C18.6767 11.4488 18.7374 11.4691 18.8 11.48H19C19.1986 11.4812 19.3931 11.4231 19.5586 11.3133C19.7241 11.2035 19.8532 11.0469 19.9294 10.8635C20.0055 10.68 20.0254 10.4781 19.9863 10.2833C19.9472 10.0886 19.851 9.90987 19.71 9.77C19.6157 9.67757 19.5041 9.60472 19.3815 9.55566C19.2589 9.5066 19.1278 9.4823 18.9958 9.48416C18.8638 9.48602 18.7335 9.514 18.6123 9.56649C18.4912 9.61899 18.3816 9.69495 18.29 9.79Z" />
</svg>
