<svg width="24" height="24" viewBox="0 0 24 24" xmlns="http://www.w3.org/2000/svg">
<path d="M21 13.5C20.7348 13.5 20.4804 13.6054 20.2929 13.7929C20.1054 13.9804 20 14.2348 20 14.5V18.5C20 18.7652 19.8946 19.0196 19.7071 19.2071C19.5196 19.3946 19.2652 19.5 19 19.5H5C4.73478 19.5 4.48043 19.3946 4.29289 19.2071C4.10536 19.0196 4 18.7652 4 18.5V8.91L9.88 14.79C10.4425 15.3518 11.205 15.6674 12 15.6674C12.795 15.6674 13.5575 15.3518 14.12 14.79L17.71 11.21C17.8983 11.0217 18.0041 10.7663 18.0041 10.5C18.0041 10.2337 17.8983 9.9783 17.71 9.79C17.5217 9.6017 17.2663 9.49591 17 9.49591C16.7337 9.49591 16.4783 9.6017 16.29 9.79L12.71 13.38C12.617 13.4737 12.5064 13.5481 12.3846 13.5989C12.2627 13.6497 12.132 13.6758 12 13.6758C11.868 13.6758 11.7373 13.6497 11.6154 13.5989C11.4936 13.5481 11.383 13.4737 11.29 13.38L5.41 7.5H17C17.2652 7.5 17.5196 7.39464 17.7071 7.20711C17.8946 7.01957 18 6.76522 18 6.5C18 6.23478 17.8946 5.98043 17.7071 5.79289C17.5196 5.60536 17.2652 5.5 17 5.5H5C4.20435 5.5 3.44129 5.81607 2.87868 6.37868C2.31607 6.94129 2 7.70435 2 8.5V18.5C2 19.2956 2.31607 20.0587 2.87868 20.6213C3.44129 21.1839 4.20435 21.5 5 21.5H19C19.7956 21.5 20.5587 21.1839 21.1213 20.6213C21.6839 20.0587 22 19.2956 22 18.5V14.5C22 14.2348 21.8946 13.9804 21.7071 13.7929C21.5196 13.6054 21.2652 13.5 21 13.5ZM21 4.5C21.2648 4.49632 21.5184 4.39273 21.71 4.21L21.83 4.05C21.8696 3.99895 21.9 3.94143 21.92 3.88C21.9558 3.82449 21.9828 3.76377 22 3.7C22.0049 3.63342 22.0049 3.56658 22 3.5C21.9963 3.23523 21.8927 2.98163 21.71 2.79C21.617 2.69627 21.5064 2.62188 21.3846 2.57111C21.2627 2.52034 21.132 2.4942 21 2.4942C20.868 2.4942 20.7373 2.52034 20.6154 2.57111C20.4936 2.62188 20.383 2.69627 20.29 2.79C20.1963 2.88296 20.1219 2.99356 20.0711 3.11542C20.0203 3.23728 19.9942 3.36799 19.9942 3.5C19.9942 3.63201 20.0203 3.76272 20.0711 3.88458C20.1219 4.00644 20.1963 4.11704 20.29 4.21C20.4816 4.39273 20.7352 4.49632 21 4.5ZM21 5.5C20.7348 5.5 20.4804 5.60536 20.2929 5.79289C20.1054 5.98043 20 6.23478 20 6.5V10.5C20 10.7652 20.1054 11.0196 20.2929 11.2071C20.4804 11.3946 20.7348 11.5 21 11.5C21.2652 11.5 21.5196 11.3946 21.7071 11.2071C21.8946 11.0196 22 10.7652 22 10.5V6.5C22 6.23478 21.8946 5.98043 21.7071 5.79289C21.5196 5.60536 21.2652 5.5 21 5.5Z" />
</svg>
