<svg width="24" height="24" viewBox="0 0 24 24" xmlns="http://www.w3.org/2000/svg">
<path d="M20.5 13C20.2348 13 19.9804 13.1054 19.7929 13.2929C19.6054 13.4804 19.5 13.7348 19.5 14V18C19.5 18.2652 19.3946 18.5196 19.2071 18.7071C19.0196 18.8947 18.7652 19 18.5 19H4.5C4.23478 19 3.98043 18.8947 3.79289 18.7071C3.60536 18.5196 3.5 18.2652 3.5 18V8.41001L9.38 14.3C9.94125 14.8567 10.6995 15.1693 11.49 15.17C11.8903 15.171 12.2867 15.0919 12.656 14.9373C13.0252 14.7828 13.3598 14.5559 13.64 14.27L14.53 13.39C14.6669 13.1969 14.7309 12.9615 14.7106 12.7256C14.6902 12.4897 14.5869 12.2687 14.4188 12.1019C14.2508 11.9351 14.0291 11.8333 13.7931 11.8147C13.5571 11.796 13.3221 11.8617 13.13 12L12.2 12.91C12.0131 13.0932 11.7618 13.1959 11.5 13.1959C11.2382 13.1959 10.9869 13.0932 10.8 12.91L4.91 7.00001H9.5C9.76522 7.00001 10.0196 6.89466 10.2071 6.70712C10.3946 6.51958 10.5 6.26523 10.5 6.00001C10.5 5.7348 10.3946 5.48044 10.2071 5.29291C10.0196 5.10537 9.76522 5.00001 9.5 5.00001H4.5C3.70435 5.00001 2.94129 5.31609 2.37868 5.87869C1.81607 6.4413 1.5 7.20437 1.5 8.00001V18C1.5 18.7957 1.81607 19.5587 2.37868 20.1213C2.94129 20.6839 3.70435 21 4.5 21H18.5C19.2956 21 20.0587 20.6839 20.6213 20.1213C21.1839 19.5587 21.5 18.7957 21.5 18V14C21.5 13.7348 21.3946 13.4804 21.2071 13.2929C21.0196 13.1054 20.7652 13 20.5 13ZM21.55 4.00001C21.0433 3.51153 20.3949 3.19614 19.6978 3.09912C19.0007 3.00211 18.2908 3.12845 17.67 3.46001C16.9859 3.08377 16.1892 2.96637 15.4256 3.12929C14.6621 3.29221 13.9827 3.72455 13.5117 4.34725C13.0408 4.96995 12.8097 5.74138 12.8608 6.52045C12.9119 7.29953 13.2417 8.03417 13.79 8.59001L17 11.71C17.1916 11.8927 17.4452 11.9963 17.71 12C17.8416 12.0008 17.9721 11.9756 18.0939 11.9258C18.2157 11.876 18.3266 11.8027 18.42 11.71L21.59 8.54001C22.1748 7.92654 22.4977 7.10943 22.4902 6.26191C22.4828 5.41438 22.1455 4.60309 21.55 4.00001ZM20.14 7.12001L17.67 9.59001L15.21 7.12001C15.0944 7.00248 15.0032 6.86334 14.9414 6.71053C14.8796 6.55772 14.8485 6.39423 14.8499 6.22941C14.8527 5.89653 14.9876 5.57841 15.225 5.34501C15.4624 5.11162 15.7827 4.98209 16.1156 4.9849C16.4485 4.98771 16.7666 5.12265 17 5.36001C17.093 5.45374 17.2036 5.52814 17.3254 5.57891C17.4473 5.62967 17.578 5.65581 17.71 5.65581C17.842 5.65581 17.9727 5.62967 18.0946 5.57891C18.2164 5.52814 18.327 5.45374 18.42 5.36001C18.6577 5.13496 18.9726 5.00953 19.3 5.00953C19.6274 5.00953 19.9423 5.13496 20.18 5.36001C20.4044 5.60055 20.5258 5.91929 20.5184 6.24816C20.5109 6.57702 20.3751 6.88993 20.14 7.12001Z" />
</svg>
