<svg width="24" height="24" viewBox="0 0 24 24" xmlns="http://www.w3.org/2000/svg">
<path d="M20.21 8.82003L14 2.78003C13.474 2.27988 12.7759 2.00098 12.05 2.00098C11.3241 2.00098 10.626 2.27988 10.1 2.78003L3.89 8.78003C3.61408 9.02089 3.39216 9.31733 3.23879 9.64993C3.08541 9.98253 3.00404 10.3438 3 10.71V19.29C3.01054 20.0176 3.30904 20.7114 3.83012 21.2194C4.35119 21.7273 5.05235 22.008 5.78 22H18.22C18.9476 22.008 19.6488 21.7273 20.1699 21.2194C20.691 20.7114 20.9895 20.0176 21 19.29V10.71C20.9992 10.3585 20.929 10.0106 20.7935 9.68625C20.6579 9.36191 20.4596 9.06754 20.21 8.82003ZM11.44 4.22003C11.593 4.08019 11.7927 4.00264 12 4.00264C12.2073 4.00264 12.407 4.08019 12.56 4.22003L18 9.50003L12.53 14.78C12.377 14.9199 12.1773 14.9974 11.97 14.9974C11.7627 14.9974 11.563 14.9199 11.41 14.78L6 9.50003L11.44 4.22003ZM19 19.29C18.9871 19.4863 18.8987 19.67 18.7532 19.8024C18.6078 19.9348 18.4166 20.0056 18.22 20H5.78C5.58338 20.0056 5.39225 19.9348 5.24678 19.8024C5.10132 19.67 5.01286 19.4863 5 19.29V11.35L9.05 15.25L7.39 16.85C7.20375 17.0374 7.09921 17.2908 7.09921 17.555C7.09921 17.8192 7.20375 18.0727 7.39 18.26C7.48295 18.3575 7.59463 18.4352 7.71836 18.4885C7.84208 18.5418 7.9753 18.5695 8.11 18.57C8.36747 18.569 8.61462 18.4687 8.8 18.29L10.57 16.59C11.0096 16.8587 11.5148 17.0008 12.03 17.0008C12.5452 17.0008 13.0504 16.8587 13.49 16.59L15.26 18.29C15.4454 18.4687 15.6925 18.569 15.95 18.57C16.0847 18.5695 16.2179 18.5418 16.3416 18.4885C16.4654 18.4352 16.5771 18.3575 16.67 18.26C16.8563 18.0727 16.9608 17.8192 16.9608 17.555C16.9608 17.2908 16.8563 17.0374 16.67 16.85L15 15.25L19 11.35V19.29Z" />
</svg>
