<svg width="24" height="24" viewBox="0 0 24 24" xmlns="http://www.w3.org/2000/svg">
<path d="M2.87964 16.88C2.58489 17.1546 2.34848 17.4859 2.18451 17.8538C2.02055 18.2218 1.93238 18.6191 1.92527 19.0219C1.91816 19.4247 1.99226 19.8248 2.14315 20.1984C2.29403 20.5719 2.51861 20.9113 2.80348 21.1962C3.08836 21.481 3.42769 21.7056 3.80125 21.8565C4.1748 22.0074 4.57492 22.0815 4.97773 22.0744C5.38054 22.0673 5.77779 21.9791 6.14579 21.8151C6.51379 21.6512 6.84499 21.4147 7.11964 21.12C7.68144 20.5575 7.997 19.795 7.997 19C7.997 18.205 7.68144 17.4425 7.11964 16.88C6.54736 16.337 5.78854 16.0343 4.99964 16.0343C4.21074 16.0343 3.45192 16.337 2.87964 16.88ZM5.70964 19.71C5.61667 19.8037 5.50607 19.8781 5.38421 19.9289C5.26236 19.9797 5.13165 20.0058 4.99964 20.0058C4.86763 20.0058 4.73692 19.9797 4.61506 19.9289C4.4932 19.8781 4.3826 19.8037 4.28964 19.71C4.19591 19.617 4.12152 19.5064 4.07075 19.3846C4.01998 19.2627 3.99384 19.132 3.99384 19C3.99384 18.868 4.01998 18.7373 4.07075 18.6154C4.12152 18.4936 4.19591 18.383 4.28964 18.29C4.3826 18.1963 4.4932 18.1219 4.61506 18.0711C4.73692 18.0203 4.86763 17.9942 4.99964 17.9942C5.13165 17.9942 5.26236 18.0203 5.38421 18.0711C5.50607 18.1219 5.61667 18.1963 5.70964 18.29C5.80337 18.383 5.87776 18.4936 5.92853 18.6154C5.9793 18.7373 6.00544 18.868 6.00544 19C6.00544 19.132 5.9793 19.2627 5.92853 19.3846C5.87776 19.5064 5.80337 19.617 5.70964 19.71ZM4.99964 12C4.73442 12 4.48007 12.1054 4.29253 12.2929C4.10499 12.4804 3.99964 12.7348 3.99964 13C3.99964 13.2652 4.10499 13.5196 4.29253 13.7071C4.48007 13.8946 4.73442 14 4.99964 14C6.32572 14 7.59749 14.5268 8.53517 15.4645C9.47285 16.4021 9.99964 17.6739 9.99964 19C9.99964 19.2652 10.105 19.5196 10.2925 19.7071C10.4801 19.8946 10.7344 20 10.9996 20C11.2649 20 11.5192 19.8946 11.7067 19.7071C11.8943 19.5196 11.9996 19.2652 11.9996 19C11.9996 17.1435 11.2621 15.363 9.94938 14.0503C8.63663 12.7375 6.85615 12 4.99964 12ZM4.99964 8C4.73442 8 4.48007 8.10536 4.29253 8.29289C4.10499 8.48043 3.99964 8.73478 3.99964 9C3.99964 9.26522 4.10499 9.51957 4.29253 9.70711C4.48007 9.89464 4.73442 10 4.99964 10C7.38659 10 9.67577 10.9482 11.3636 12.636C13.0514 14.3239 13.9996 16.6131 13.9996 19C13.9996 19.2652 14.105 19.5196 14.2925 19.7071C14.4801 19.8946 14.7344 20 14.9996 20C15.2649 20 15.5192 19.8946 15.7067 19.7071C15.8943 19.5196 15.9996 19.2652 15.9996 19C15.9996 16.0826 14.8407 13.2847 12.7778 11.2218C10.7149 9.15893 7.91702 8 4.99964 8Z" />
</svg>
