<svg width="24" height="24" viewBox="0 0 24 24" xmlns="http://www.w3.org/2000/svg">
<path d="M22.21 10.29L20.48 8.57C20.8991 7.89021 21.1239 7.10857 21.13 6.31C21.128 5.45842 20.8738 4.62651 20.3995 3.91926C19.9251 3.21202 19.2519 2.66115 18.4648 2.33618C17.6776 2.0112 16.8118 1.9267 15.9767 2.09332C15.1416 2.25994 14.3745 2.67022 13.7724 3.27238C13.1702 3.87454 12.7599 4.64159 12.5933 5.47672C12.4267 6.31184 12.5112 7.17761 12.8362 7.96475C13.1612 8.75189 13.712 9.42512 14.4193 9.89947C15.1265 10.3738 15.9584 10.628 16.81 10.63C17.6067 10.6299 18.3882 10.4121 19.07 10L20.79 11.73C20.883 11.8237 20.9936 11.8981 21.1154 11.9489C21.2373 11.9997 21.368 12.0258 21.5 12.0258C21.632 12.0258 21.7627 11.9997 21.8846 11.9489C22.0064 11.8981 22.117 11.8237 22.21 11.73C22.3068 11.6367 22.3838 11.5249 22.4363 11.4012C22.4889 11.2775 22.516 11.1444 22.516 11.01C22.516 10.8756 22.4889 10.7425 22.4363 10.6188C22.3838 10.4951 22.3068 10.3833 22.21 10.29ZM18.45 8C18.0093 8.42 17.4238 8.65429 16.815 8.65429C16.2062 8.65429 15.6207 8.42 15.18 8C14.9636 7.78533 14.7921 7.5298 14.6754 7.24826C14.5586 6.96672 14.499 6.66478 14.5 6.36C14.4947 6.05282 14.5505 5.74765 14.6641 5.4622C14.7776 5.17675 14.9468 4.9167 15.1617 4.69715C15.3766 4.4776 15.633 4.30291 15.9159 4.18324C16.1989 4.06356 16.5028 4.00128 16.81 4C17.1148 3.99903 17.4167 4.05865 17.6983 4.17538C17.9798 4.29212 18.2353 4.46365 18.45 4.68C18.6661 4.89282 18.8375 5.1466 18.9542 5.42648C19.071 5.70637 19.1308 6.00674 19.13 6.31C19.1377 6.62315 19.0814 6.93458 18.9644 7.22519C18.8475 7.5158 18.6725 7.77946 18.45 8ZM20.5 14C20.2348 14 19.9804 14.1054 19.7929 14.2929C19.6054 14.4804 19.5 14.7348 19.5 15V19C19.5 19.2652 19.3946 19.5196 19.2071 19.7071C19.0196 19.8946 18.7652 20 18.5 20H4.5C4.23478 20 3.98043 19.8946 3.79289 19.7071C3.60536 19.5196 3.5 19.2652 3.5 19V9.41L9.38 15.3C9.9425 15.8618 10.705 16.1774 11.5 16.1774C12.295 16.1774 13.0575 15.8618 13.62 15.3L15 13.88C15.1883 13.6917 15.2941 13.4363 15.2941 13.17C15.2941 12.9037 15.1883 12.6483 15 12.46C14.8117 12.2717 14.5563 12.1659 14.29 12.1659C14.0237 12.1659 13.7683 12.2717 13.58 12.46L12.2 13.88C12.0131 14.0632 11.7618 14.1659 11.5 14.1659C11.2382 14.1659 10.9869 14.0632 10.8 13.88L4.91 8H9.5C9.76522 8 10.0196 7.89464 10.2071 7.70711C10.3946 7.51957 10.5 7.26522 10.5 7C10.5 6.73478 10.3946 6.48043 10.2071 6.29289C10.0196 6.10536 9.76522 6 9.5 6H4.5C3.70435 6 2.94129 6.31607 2.37868 6.87868C1.81607 7.44129 1.5 8.20435 1.5 9V19C1.5 19.7956 1.81607 20.5587 2.37868 21.1213C2.94129 21.6839 3.70435 22 4.5 22H18.5C19.2956 22 20.0587 21.6839 20.6213 21.1213C21.1839 20.5587 21.5 19.7956 21.5 19V15C21.5 14.7348 21.3946 14.4804 21.2071 14.2929C21.0196 14.1054 20.7652 14 20.5 14Z" />
</svg>
