<svg width="24" height="24" viewBox="0 0 24 24" xmlns="http://www.w3.org/2000/svg">
<path d="M20.5 14C20.2348 14 19.9804 14.1054 19.7929 14.2929C19.6054 14.4804 19.5 14.7348 19.5 15V19C19.5 19.2652 19.3946 19.5196 19.2071 19.7071C19.0196 19.8947 18.7652 20 18.5 20H4.5C4.23478 20 3.98043 19.8947 3.79289 19.7071C3.60536 19.5196 3.5 19.2652 3.5 19V9.41002L9.38 15.3C9.9425 15.8618 10.705 16.1774 11.5 16.1774C12.295 16.1774 13.0575 15.8618 13.62 15.3L15.26 13.66C15.4483 13.4717 15.5541 13.2163 15.5541 12.95C15.5541 12.6837 15.4483 12.4283 15.26 12.24C15.0717 12.0517 14.8163 11.9459 14.55 11.9459C14.2837 11.9459 14.0283 12.0517 13.84 12.24L12.2 13.88C12.0131 14.0632 11.7618 14.1659 11.5 14.1659C11.2382 14.1659 10.9869 14.0632 10.8 13.88L4.91 8.00002H11.5C11.7652 8.00002 12.0196 7.89466 12.2071 7.70713C12.3946 7.51959 12.5 7.26523 12.5 7.00002C12.5 6.7348 12.3946 6.48045 12.2071 6.29291C12.0196 6.10538 11.7652 6.00002 11.5 6.00002H4.5C3.70435 6.00002 2.94129 6.31609 2.37868 6.8787C1.81607 7.44131 1.5 8.20437 1.5 9.00002V19C1.5 19.7957 1.81607 20.5587 2.37868 21.1213C2.94129 21.6839 3.70435 22 4.5 22H18.5C19.2956 22 20.0587 21.6839 20.6213 21.1213C21.1839 20.5587 21.5 19.7957 21.5 19V15C21.5 14.7348 21.3946 14.4804 21.2071 14.2929C21.0196 14.1054 20.7652 14 20.5 14ZM22.21 5.29002L19.21 2.29002C19.1149 2.19898 19.0028 2.12761 18.88 2.08002C18.6365 1.98 18.3635 1.98 18.12 2.08002C17.9972 2.12761 17.8851 2.19898 17.79 2.29002L14.79 5.29002C14.6017 5.47832 14.4959 5.73372 14.4959 6.00002C14.4959 6.26632 14.6017 6.52172 14.79 6.71002C14.9783 6.89832 15.2337 7.00411 15.5 7.00411C15.7663 7.00411 16.0217 6.89832 16.21 6.71002L17.5 5.41002V11C17.5 11.2652 17.6054 11.5196 17.7929 11.7071C17.9804 11.8947 18.2348 12 18.5 12C18.7652 12 19.0196 11.8947 19.2071 11.7071C19.3946 11.5196 19.5 11.2652 19.5 11V5.41002L20.79 6.71002C20.883 6.80375 20.9936 6.87814 21.1154 6.92891C21.2373 6.97968 21.368 7.00582 21.5 7.00582C21.632 7.00582 21.7627 6.97968 21.8846 6.92891C22.0064 6.87814 22.117 6.80375 22.21 6.71002C22.3037 6.61706 22.3781 6.50645 22.4289 6.3846C22.4797 6.26274 22.5058 6.13203 22.5058 6.00002C22.5058 5.86801 22.4797 5.7373 22.4289 5.61544C22.3781 5.49358 22.3037 5.38298 22.21 5.29002Z" />
</svg>
