<svg width="24" height="24" viewBox="0 0 24 24" xmlns="http://www.w3.org/2000/svg">
<path d="M20 14C19.7348 14 19.4804 14.1054 19.2929 14.2929C19.1054 14.4804 19 14.7348 19 15V19C19 19.2652 18.8946 19.5196 18.7071 19.7071C18.5196 19.8946 18.2652 20 18 20H4C3.73478 20 3.48043 19.8946 3.29289 19.7071C3.10536 19.5196 3 19.2652 3 19V9.41L8.88 15.3C9.44125 15.8567 10.1995 16.1693 10.99 16.17C11.8004 16.1658 12.5764 15.8425 13.15 15.27L14.87 13.55C14.9632 13.4568 15.0372 13.3461 15.0877 13.2242C15.1381 13.1024 15.1641 12.9719 15.1641 12.84C15.1641 12.7081 15.1381 12.5776 15.0877 12.4558C15.0372 12.3339 14.9632 12.2232 14.87 12.13C14.7768 12.0368 14.6661 11.9628 14.5442 11.9123C14.4224 11.8619 14.2919 11.8359 14.16 11.8359C14.0281 11.8359 13.8976 11.8619 13.7758 11.9123C13.6539 11.9628 13.5432 12.0368 13.45 12.13L11.7 13.88C11.5131 14.0632 11.2618 14.1659 11 14.1659C10.7382 14.1659 10.4869 14.0632 10.3 13.88L4.41 8H10C10.2652 8 10.5196 7.89464 10.7071 7.70711C10.8946 7.51957 11 7.26522 11 7C11 6.73478 10.8946 6.48043 10.7071 6.29289C10.5196 6.10536 10.2652 6 10 6H4C3.20435 6 2.44129 6.31607 1.87868 6.87868C1.31607 7.44129 1 8.20435 1 9V19C1 19.7956 1.31607 20.5587 1.87868 21.1213C2.44129 21.6839 3.20435 22 4 22H18C18.7956 22 19.5587 21.6839 20.1213 21.1213C20.6839 20.5587 21 19.7956 21 19V15C21 14.7348 20.8946 14.4804 20.7071 14.2929C20.5196 14.1054 20.2652 14 20 14ZM20 8C19.5752 8.0014 19.1619 8.13799 18.82 8.39L17.07 7.59L19 6.71C19.3019 6.89326 19.6469 6.99332 20 7C20.3956 7 20.7822 6.8827 21.1111 6.66294C21.44 6.44318 21.6964 6.13082 21.8478 5.76537C21.9991 5.39992 22.0387 4.99778 21.9616 4.60982C21.8844 4.22186 21.6939 3.86549 21.4142 3.58579C21.1345 3.30608 20.7781 3.1156 20.3902 3.03843C20.0022 2.96126 19.6001 3.00087 19.2346 3.15224C18.8692 3.30362 18.5568 3.55996 18.3371 3.88886C18.1173 4.21776 18 4.60444 18 5L16.1 5.87C15.778 5.64066 15.3952 5.5119 15 5.5C14.4696 5.5 13.9609 5.71071 13.5858 6.08579C13.2107 6.46086 13 6.96957 13 7.5C13 8.03043 13.2107 8.53914 13.5858 8.91421C13.9609 9.28929 14.4696 9.5 15 9.5C15.3222 9.50015 15.639 9.41751 15.92 9.26L18.02 10.26C18.07 10.6413 18.2289 11.0002 18.4776 11.2935C18.7264 11.5868 19.0544 11.8022 19.4224 11.9139C19.7905 12.0255 20.1829 12.0287 20.5527 11.923C20.9224 11.8173 21.2539 11.6072 21.5074 11.318C21.7608 11.0287 21.9255 10.6725 21.9816 10.292C22.0377 9.91151 21.983 9.52291 21.8239 9.17276C21.6649 8.8226 21.4082 8.52574 21.0847 8.31774C20.7612 8.10974 20.3846 7.99942 20 8Z" />
</svg>
