<svg width="24" height="24" viewBox="0 0 24 24" xmlns="http://www.w3.org/2000/svg">
<path d="M21.3803 5.75998C21.3462 5.63229 21.2871 5.51263 21.2064 5.40792C21.1257 5.30322 21.0251 5.21555 20.9103 5.14998L15.7103 2.14998C15.5968 2.08345 15.4712 2.03998 15.3409 2.02206C15.2105 2.00415 15.0779 2.01215 14.9506 2.04559C14.8233 2.07903 14.7039 2.13727 14.5992 2.21696C14.4945 2.29665 14.4065 2.39623 14.3403 2.50998L12.0003 6.56998L9.66034 2.50998C9.59417 2.39623 9.50621 2.29665 9.40149 2.21696C9.29676 2.13727 9.17734 2.07903 9.05007 2.04559C8.92279 2.01215 8.79017 2.00415 8.6598 2.02206C8.52943 2.03998 8.40387 2.08345 8.29034 2.14998L3.09034 5.14998C2.97557 5.21555 2.87494 5.30322 2.79427 5.40792C2.71359 5.51263 2.65448 5.63229 2.62034 5.75998C2.55415 6.01343 2.59006 6.28273 2.72034 6.50998L6.72034 13.34C6.27408 14.1575 6.02738 15.069 6.00034 16C5.99796 16.9083 6.20182 17.8052 6.59656 18.6233C6.99129 19.4413 7.5666 20.159 8.27909 20.7223C8.99159 21.2857 9.82268 21.6799 10.7097 21.8753C11.5967 22.0706 12.5165 22.0621 13.3998 21.8502C14.283 21.6384 15.1066 21.2287 15.8085 20.6523C16.5104 20.0758 17.0722 19.3475 17.4517 18.5222C17.8311 17.697 18.0183 16.7964 17.999 15.8883C17.9797 14.9802 17.7545 14.0884 17.3403 13.28L21.2403 6.51998C21.3129 6.40892 21.3627 6.28453 21.3867 6.15405C21.4108 6.02357 21.4086 5.88961 21.3803 5.75998ZM5.00034 6.37998L8.46034 4.37998L11.6803 9.99998C10.3078 10.0848 9.00712 10.6432 8.00034 11.58L5.00034 6.37998ZM12.0003 20C10.9395 20 9.92206 19.5786 9.17191 18.8284C8.42176 18.0783 8.00034 17.0608 8.00034 16C8.00034 14.9391 8.42176 13.9217 9.17191 13.1716C9.92206 12.4214 10.9395 12 12.0003 12C13.0612 12 14.0786 12.4214 14.8288 13.1716C15.5789 13.9217 16.0003 14.9391 16.0003 16C16.0003 17.0608 15.5789 18.0783 14.8288 18.8284C14.0786 19.5786 13.0612 20 12.0003 20ZM16.0003 11.55C15.4574 11.0541 14.8266 10.6641 14.1403 10.4L13.1603 8.56998L15.5803 4.37998L19.0403 6.37998L16.0003 11.55Z" />
</svg>
