<svg width="24" height="24" viewBox="0 0 24 24" xmlns="http://www.w3.org/2000/svg">
<path d="M21.0005 7.99999C20.997 7.61675 20.8834 7.24259 20.6733 6.92204C20.4633 6.60149 20.1655 6.34805 19.8155 6.19188C19.4655 6.03572 19.078 5.9834 18.6992 6.04115C18.3203 6.09891 17.966 6.26431 17.6784 6.51767C17.3908 6.77103 17.1821 7.10168 17.0771 7.47026C16.9721 7.83885 16.9752 8.22985 17.086 8.59672C17.1969 8.9636 17.4108 9.2909 17.7023 9.53968C17.9939 9.78846 18.3507 9.94824 18.7305 9.99999C18.9406 10.58 19.0289 11.197 18.99 11.8127C18.9511 12.4283 18.7857 13.0293 18.5042 13.5782C18.2228 14.1271 17.8312 14.6121 17.354 15.003C16.8767 15.3938 16.3241 15.6822 15.7305 15.85C15.4667 15.243 15.0097 14.7402 14.4305 14.42C15.2593 13.3917 15.7803 12.1499 15.9333 10.838C16.0863 9.52618 15.8651 8.1978 15.2951 7.00636C14.7252 5.81492 13.8298 4.80902 12.7124 4.10489C11.595 3.40075 10.3012 3.0271 8.98047 3.0271C7.65972 3.0271 6.36592 3.40075 5.24853 4.10489C4.13114 4.80902 3.23575 5.81492 2.6658 7.00636C2.09585 8.1978 1.8746 9.52618 2.0276 10.838C2.18061 12.1499 2.70163 13.3917 3.53047 14.42C3.07147 14.678 2.68844 15.0522 2.41988 15.505C2.15131 15.9579 2.00667 16.4735 2.00047 17V18C2.00047 18.7956 2.31654 19.5587 2.87915 20.1213C3.44176 20.6839 4.20482 21 5.00047 21H13.0005C13.7961 21 14.5592 20.6839 15.1218 20.1213C15.6844 19.5587 16.0005 18.7956 16.0005 18V17.81C16.898 17.6004 17.7405 17.2014 18.4713 16.6398C19.2022 16.0782 19.8046 15.3669 20.2383 14.5535C20.672 13.7402 20.9268 12.8436 20.9858 11.9237C21.0448 11.0039 20.9066 10.0821 20.5805 9.21999C20.8514 8.87089 20.9991 8.44189 21.0005 7.99999ZM14.0005 18C14.0005 18.2652 13.8951 18.5196 13.7076 18.7071C13.52 18.8946 13.2657 19 13.0005 19H5.00047C4.73526 19 4.4809 18.8946 4.29337 18.7071C4.10583 18.5196 4.00047 18.2652 4.00047 18V17C4.00047 16.7348 4.10583 16.4804 4.29337 16.2929C4.4809 16.1053 4.73526 16 5.00047 16H5.41047C6.49352 16.6546 7.73495 17.0007 9.00047 17.0007C10.266 17.0007 11.5074 16.6546 12.5905 16H13.0005C13.2657 16 13.52 16.1053 13.7076 16.2929C13.8951 16.4804 14.0005 16.7348 14.0005 17V18ZM9.00047 15C8.01157 15 7.04487 14.7067 6.22262 14.1573C5.40038 13.6079 4.75951 12.827 4.38108 11.9134C4.00264 10.9998 3.90362 9.99444 4.09655 9.02454C4.28947 8.05464 4.76568 7.16372 5.46494 6.46446C6.1642 5.7652 7.05512 5.28899 8.02502 5.09607C8.99493 4.90314 10.0003 5.00216 10.9139 5.38059C11.8275 5.75903 12.6084 6.39989 13.1578 7.22214C13.7072 8.04439 14.0005 9.01109 14.0005 9.99999C14.0005 10.6566 13.8711 11.3068 13.6199 11.9134C13.3686 12.52 13.0003 13.0712 12.536 13.5355C12.0717 13.9998 11.5205 14.3681 10.9139 14.6194C10.3073 14.8707 9.65708 15 9.00047 15ZM9.00047 8.99999C8.80269 8.99999 8.60935 9.05864 8.4449 9.16852C8.28045 9.2784 8.15228 9.43458 8.07659 9.61731C8.00091 9.80003 7.9811 10.0011 8.01969 10.1951C8.05827 10.3891 8.15351 10.5672 8.29337 10.7071C8.43322 10.847 8.6114 10.9422 8.80538 10.9808C8.99936 11.0194 9.20043 10.9996 9.38316 10.9239C9.56588 10.8482 9.72206 10.72 9.83194 10.5556C9.94182 10.3911 10.0005 10.1978 10.0005 9.99999C10.0005 9.73478 9.89512 9.48042 9.70758 9.29288C9.52004 9.10535 9.26569 8.99999 9.00047 8.99999Z" />
</svg>
