<svg width="24" height="24" viewBox="0 0 24 24" xmlns="http://www.w3.org/2000/svg">
<path d="M22.0005 11C22.0033 10.2952 21.8198 9.60209 21.4686 8.99098C21.1173 8.37987 20.6109 7.87241 20.0005 7.51999C20.0155 7.34699 20.0155 7.173 20.0005 6.99999C20.0005 6.20434 19.6844 5.44128 19.1218 4.87867C18.5592 4.31606 17.7961 3.99999 17.0005 3.99999H16.8205C16.6539 3.53831 16.3767 3.12453 16.013 2.79494C15.6493 2.46535 15.2104 2.23003 14.7346 2.1096C14.2588 1.98917 13.7607 1.98731 13.284 2.10419C12.8073 2.22108 12.3666 2.45313 12.0005 2.77999C11.6344 2.45313 11.1936 2.22108 10.7169 2.10419C10.2403 1.98731 9.74219 1.98917 9.26639 2.1096C8.79059 2.23003 8.35161 2.46535 7.98793 2.79494C7.62426 3.12453 7.347 3.53831 7.18047 3.99999H7.00047C6.20482 3.99999 5.44176 4.31606 4.87915 4.87867C4.31654 5.44128 4.00047 6.20434 4.00047 6.99999C3.98542 7.173 3.98542 7.34699 4.00047 7.51999C3.43293 7.84079 2.9524 8.29544 2.60071 8.84437C2.24902 9.3933 2.03683 10.0199 1.98261 10.6695C1.92839 11.3192 2.03378 11.9723 2.28961 12.5719C2.54544 13.1715 2.94396 13.6996 3.45047 14.11C3.12274 14.7213 2.95959 15.4072 2.97702 16.1006C2.99445 16.794 3.19187 17.4709 3.5499 18.0649C3.90792 18.6589 4.41426 19.1496 5.0192 19.4889C5.62415 19.8282 6.30691 20.0043 7.00047 20H7.18047C7.347 20.4617 7.62426 20.8755 7.98793 21.205C8.35161 21.5346 8.79059 21.77 9.26639 21.8904C9.74219 22.0108 10.2403 22.0127 10.7169 21.8958C11.1936 21.7789 11.6344 21.5469 12.0005 21.22C12.3666 21.5469 12.8073 21.7789 13.284 21.8958C13.7607 22.0127 14.2588 22.0108 14.7346 21.8904C15.2104 21.77 15.6493 21.5346 16.013 21.205C16.3767 20.8755 16.6539 20.4617 16.8205 20H17.0005C17.6898 19.9956 18.3663 19.8132 18.9644 19.4704C19.5624 19.1276 20.0617 18.6361 20.4139 18.0434C20.766 17.4508 20.9591 16.7773 20.9742 16.0881C20.9894 15.3989 20.8262 14.7175 20.5005 14.11C20.9669 13.7366 21.3438 13.2634 21.6033 12.7252C21.8629 12.187 21.9986 11.5975 22.0005 11ZM11.0005 8.54999C10.7827 8.42542 10.5553 8.31842 10.3205 8.22999C10.0685 8.14512 9.79317 8.16382 9.555 8.28197C9.31682 8.40012 9.13534 8.60804 9.05047 8.85999C8.9656 9.11195 8.9843 9.3873 9.10245 9.62547C9.22059 9.86364 9.42852 10.0451 9.68047 10.13C10.0654 10.2692 10.3984 10.5231 10.6344 10.8575C10.8705 11.1919 10.9983 11.5907 11.0005 12V13.55C10.7827 13.4254 10.5553 13.3184 10.3205 13.23C10.0685 13.1451 9.79317 13.1638 9.555 13.282C9.31682 13.4001 9.13534 13.608 9.05047 13.86C8.9656 14.1119 8.9843 14.3873 9.10245 14.6255C9.22059 14.8636 9.42852 15.0451 9.68047 15.13C10.0654 15.2692 10.3984 15.5231 10.6344 15.8575C10.8705 16.1919 10.9983 16.5907 11.0005 17V19C11.0005 19.2652 10.8951 19.5196 10.7076 19.7071C10.52 19.8946 10.2657 20 10.0005 20C9.80701 19.9987 9.61806 19.9414 9.45654 19.8349C9.29502 19.7284 9.16786 19.5773 9.09047 19.4C9.25815 19.3016 9.41856 19.1913 9.57047 19.07C9.67159 18.9859 9.75516 18.8828 9.81642 18.7665C9.87768 18.6501 9.91542 18.5228 9.92749 18.3919C9.93957 18.261 9.92573 18.129 9.88678 18.0034C9.84783 17.8778 9.78452 17.7611 9.70047 17.66C9.61643 17.5589 9.51329 17.4753 9.39694 17.414C9.2806 17.3528 9.15333 17.315 9.0224 17.303C8.89147 17.2909 8.75944 17.3047 8.63386 17.3437C8.50827 17.3826 8.39159 17.4459 8.29047 17.53C7.9294 17.834 7.47246 18.0005 7.00047 18C6.47004 18 5.96133 17.7893 5.58626 17.4142C5.21119 17.0391 5.00047 16.5304 5.00047 16C5.00526 15.6236 5.11618 15.2562 5.32047 14.94C5.54489 14.9802 5.77247 15.0003 6.00047 15C6.26569 15 6.52004 14.8946 6.70758 14.7071C6.89512 14.5196 7.00047 14.2652 7.00047 14C7.00047 13.7348 6.89512 13.4804 6.70758 13.2929C6.52004 13.1054 6.26569 13 6.00047 13C5.76426 13.0014 5.53 12.9572 5.31047 12.87C4.95082 12.7403 4.63588 12.5102 4.40296 12.207C4.17005 11.9038 4.02892 11.5402 3.9963 11.1593C3.96368 10.7783 4.04093 10.396 4.2189 10.0576C4.39687 9.71925 4.66811 9.43897 5.00047 9.24999C5.14257 9.38073 5.29657 9.49791 5.46047 9.59999C5.69121 9.7326 5.96518 9.76812 6.2221 9.69873C6.47903 9.62934 6.69786 9.46073 6.83047 9.22999C6.96308 8.99926 6.9986 8.72529 6.92921 8.46836C6.85982 8.21144 6.69121 7.9926 6.46047 7.85999C6.3197 7.78234 6.2023 7.66839 6.12047 7.52999C6.02802 7.36944 5.98619 7.18471 6.00047 6.99999C6.00047 6.73478 6.10583 6.48042 6.29337 6.29289C6.4809 6.10535 6.73526 5.99999 7.00047 5.99999C7.07014 5.99028 7.14081 5.99028 7.21047 5.99999C7.26341 6.16066 7.32688 6.31767 7.40047 6.46999C7.4658 6.58458 7.55316 6.68511 7.6575 6.7658C7.76185 6.84648 7.88113 6.90572 8.00847 6.94012C8.13581 6.97451 8.2687 6.98337 8.39947 6.96618C8.53025 6.949 8.65634 6.90611 8.77047 6.83999C8.99218 6.7066 9.15355 6.49247 9.22068 6.24259C9.28781 5.99271 9.25548 5.72653 9.13047 5.49999C9.04657 5.3466 9.00191 5.17483 9.00047 4.99999C9.00047 4.73478 9.10583 4.48042 9.29337 4.29289C9.4809 4.10535 9.73526 3.99999 10.0005 3.99999C10.2657 3.99999 10.52 4.10535 10.7076 4.29289C10.8951 4.48042 11.0005 4.73478 11.0005 4.99999V8.54999ZM18.6905 12.87C18.471 12.9572 18.2367 13.0014 18.0005 13C17.7353 13 17.4809 13.1054 17.2934 13.2929C17.1058 13.4804 17.0005 13.7348 17.0005 14C17.0005 14.2652 17.1058 14.5196 17.2934 14.7071C17.4809 14.8946 17.7353 15 18.0005 15C18.2285 15.0003 18.4561 14.9802 18.6805 14.94C18.8848 15.2562 18.9957 15.6236 19.0005 16C19.0005 16.5304 18.7898 17.0391 18.4147 17.4142C18.0396 17.7893 17.5309 18 17.0005 18C16.5285 18.0005 16.0715 17.834 15.7105 17.53C15.5063 17.3603 15.243 17.2786 14.9785 17.303C14.7141 17.3274 14.4702 17.4558 14.3005 17.66C14.1307 17.8642 14.0491 18.1275 14.0735 18.3919C14.0978 18.6563 14.2263 18.9003 14.4305 19.07C14.5824 19.1913 14.7428 19.3016 14.9105 19.4C14.8331 19.5773 14.7059 19.7284 14.5444 19.8349C14.3829 19.9414 14.1939 19.9987 14.0005 20C13.7353 20 13.4809 19.8946 13.2934 19.7071C13.1058 19.5196 13.0005 19.2652 13.0005 19V17C13.0027 16.5907 13.1305 16.1919 13.3665 15.8575C13.6026 15.5231 13.9355 15.2692 14.3205 15.13C14.5724 15.0451 14.7804 14.8636 14.8985 14.6255C15.0166 14.3873 15.0353 14.1119 14.9505 13.86C14.8656 13.608 14.6841 13.4001 14.446 13.282C14.2078 13.1638 13.9324 13.1451 13.6805 13.23C13.4457 13.3184 13.2183 13.4254 13.0005 13.55V12C13.0027 11.5907 13.1305 11.1919 13.3665 10.8575C13.6026 10.5231 13.9355 10.2692 14.3205 10.13C14.5724 10.0451 14.7804 9.86364 14.8985 9.62547C15.0166 9.3873 15.0353 9.11195 14.9505 8.85999C14.8656 8.60804 14.6841 8.40012 14.446 8.28197C14.2078 8.16382 13.9324 8.14512 13.6805 8.22999C13.4457 8.31842 13.2183 8.42542 13.0005 8.54999V4.99999C13.0005 4.73478 13.1058 4.48042 13.2934 4.29289C13.4809 4.10535 13.7353 3.99999 14.0005 3.99999C14.2657 3.99999 14.52 4.10535 14.7076 4.29289C14.8951 4.48042 15.0005 4.73478 15.0005 4.99999C14.999 5.17483 14.9544 5.3466 14.8705 5.49999C14.8039 5.61353 14.7605 5.73908 14.7426 5.86945C14.7246 5.99982 14.7326 6.13245 14.7661 6.25972C14.7995 6.387 14.8578 6.50642 14.9375 6.61114C15.0171 6.71587 15.1167 6.80383 15.2305 6.86999C15.3446 6.93611 15.4707 6.979 15.6015 6.99618C15.7323 7.01337 15.8651 7.00451 15.9925 6.97012C16.1198 6.93572 16.2391 6.87648 16.3434 6.7958C16.4478 6.71511 16.5351 6.61458 16.6005 6.49999C16.6753 6.33793 16.7388 6.17086 16.7905 5.99999C16.8601 5.99028 16.9308 5.99028 17.0005 5.99999C17.2657 5.99999 17.52 6.10535 17.7076 6.29289C17.8951 6.48042 18.0005 6.73478 18.0005 6.99999C17.9989 7.19603 17.9398 7.38729 17.8305 7.54999C17.7487 7.67976 17.6351 7.78647 17.5005 7.85999C17.2697 7.9926 17.1011 8.21144 17.0317 8.46836C16.9623 8.72529 16.9979 8.99926 17.1305 9.22999C17.2631 9.46073 17.4819 9.62934 17.7388 9.69873C17.9958 9.76812 18.2697 9.7326 18.5005 9.59999C18.68 9.5029 18.8478 9.38546 19.0005 9.24999C19.334 9.43563 19.6074 9.71282 19.7884 10.0488C19.9695 10.3848 20.0506 10.7656 20.0222 11.1463C19.9938 11.5269 19.8571 11.8915 19.6282 12.1969C19.3993 12.5023 19.0878 12.7359 18.7305 12.87H18.6905Z" />
</svg>
