<svg width="24" height="24" viewBox="0 0 24 24" xmlns="http://www.w3.org/2000/svg">
<path d="M9.2 13.73C9.01933 13.537 8.76956 13.4233 8.50532 13.4139C8.24108 13.4046 7.98389 13.5002 7.79 13.68C6.60767 14.7214 5.65882 16.001 5.00566 17.4349C4.3525 18.8687 4.00979 20.4244 4 22C4 22.2652 4.10536 22.5196 4.29289 22.7071C4.48043 22.8946 4.73478 23 5 23C5.26522 23 5.51957 22.8946 5.70711 22.7071C5.89464 22.5196 6 22.2652 6 22C6.00687 20.6983 6.2914 19.413 6.83461 18.23C7.37782 17.047 8.16719 15.9936 9.15 15.14C9.34304 14.9593 9.45668 14.7096 9.46605 14.4453C9.47542 14.1811 9.37976 13.9239 9.2 13.73ZM19.37 18.37C18.9975 17.2922 18.4575 16.2798 17.77 15.37C16.7412 14.0372 15.4853 12.8963 14.06 12C16.3 10.57 20 7.4 20 2C20 1.73478 19.8946 1.48043 19.7071 1.29289C19.5196 1.10536 19.2652 1 19 1C18.7348 1 18.4804 1.10536 18.2929 1.29289C18.1054 1.48043 18 1.73478 18 2C18 7.4 13.41 10.17 12 10.89C11.0293 10.3726 10.1258 9.73787 9.31 9H12C12.2652 9 12.5196 8.89464 12.7071 8.70711C12.8946 8.51957 13 8.26522 13 8C13 7.73478 12.8946 7.48043 12.7071 7.29289C12.5196 7.10536 12.2652 7 12 7H7.55C7.1382 6.37554 6.80248 5.70412 6.55 5H15C15.2652 5 15.5196 4.89464 15.7071 4.70711C15.8946 4.51957 16 4.26522 16 4C16 3.73478 15.8946 3.48043 15.7071 3.29289C15.5196 3.10536 15.2652 3 15 3H6.06C6.01949 2.66821 5.99945 2.33425 6 2C6 1.73478 5.89464 1.48043 5.70711 1.29289C5.51957 1.10536 5.26522 1 5 1C4.73478 1 4.48043 1.10536 4.29289 1.29289C4.10536 1.48043 4 1.73478 4 2C4 9.57 11.3 12.79 11.61 12.92C12.735 13.4606 13.7758 14.1612 14.7 15H12C11.7348 15 11.4804 15.1054 11.2929 15.2929C11.1054 15.4804 11 15.7348 11 16C11 16.2652 11.1054 16.5196 11.2929 16.7071C11.4804 16.8946 11.7348 17 12 17H16.43C16.8446 17.6229 17.1804 18.2946 17.43 19H9C8.73478 19 8.48043 19.1054 8.29289 19.2929C8.10536 19.4804 8 19.7348 8 20C8 20.2652 8.10536 20.5196 8.29289 20.7071C8.48043 20.8946 8.73478 21 9 21H17.94C17.9802 21.3318 18.0003 21.6658 18 22C18 22.2652 18.1054 22.5196 18.2929 22.7071C18.4804 22.8946 18.7348 23 19 23C19.2652 23 19.5196 22.8946 19.7071 22.7071C19.8946 22.5196 20 22.2652 20 22C20.0036 21.2643 19.9299 20.5303 19.78 19.81C19.6826 19.3197 19.5454 18.8381 19.37 18.37Z" />
</svg>
