<svg width="24" height="24" viewBox="0 0 24 24" xmlns="http://www.w3.org/2000/svg">
<path d="M21 18H19V15C19 14.7348 18.8946 14.4805 18.7071 14.2929C18.5196 14.1054 18.2652 14 18 14H13V11.29L14.13 11.88C14.2948 11.9662 14.4804 12.0048 14.6658 11.9913C14.8513 11.9779 15.0294 11.913 15.18 11.8039C15.3307 11.6948 15.4479 11.5459 15.5185 11.3738C15.5892 11.2018 15.6105 11.0135 15.58 10.83L15.18 8.46002L16.9 6.77002C17.0303 6.6428 17.1233 6.48243 17.1692 6.3062C17.215 6.12997 17.2118 5.94458 17.16 5.77002C17.102 5.5923 16.9954 5.43437 16.8522 5.31418C16.7091 5.19398 16.5351 5.11633 16.35 5.09002L14 4.72002L12.9 2.56002C12.8181 2.39095 12.6903 2.24836 12.5311 2.14859C12.3719 2.04883 12.1879 1.99591 12 1.99591C11.8121 1.99591 11.6281 2.04883 11.4689 2.14859C11.3097 2.24836 11.1819 2.39095 11.1 2.56002L10 4.72002L7.61 5.07002C7.42492 5.09633 7.25092 5.17398 7.10775 5.29418C6.96458 5.41437 6.85796 5.5723 6.8 5.75002C6.74819 5.92458 6.74502 6.10997 6.79084 6.2862C6.83666 6.46243 6.92973 6.6228 7.06 6.75002L8.82 8.46002L8.42 10.83C8.38952 11.0135 8.4108 11.2018 8.48145 11.3738C8.5521 11.5459 8.66933 11.6948 8.81996 11.8039C8.9706 11.913 9.14866 11.9779 9.33415 11.9913C9.51964 12.0048 9.70521 11.9662 9.87 11.88L11 11.29V14H6C5.73478 14 5.48043 14.1054 5.29289 14.2929C5.10536 14.4805 5 14.7348 5 15V18H3C2.73478 18 2.48043 18.1054 2.29289 18.2929C2.10536 18.4804 2 18.7348 2 19V21C2 21.2652 2.10536 21.5196 2.29289 21.7071C2.48043 21.8947 2.73478 22 3 22C3.26522 22 3.51957 21.8947 3.70711 21.7071C3.89464 21.5196 4 21.2652 4 21V20H8V21C8 21.2652 8.10536 21.5196 8.29289 21.7071C8.48043 21.8947 8.73478 22 9 22C9.26522 22 9.51957 21.8947 9.70711 21.7071C9.89464 21.5196 10 21.2652 10 21V19C10 18.7348 9.89464 18.4804 9.70711 18.2929C9.51957 18.1054 9.26522 18 9 18H7V16H17V18H15C14.7348 18 14.4804 18.1054 14.2929 18.2929C14.1054 18.4804 14 18.7348 14 19V21C14 21.2652 14.1054 21.5196 14.2929 21.7071C14.4804 21.8947 14.7348 22 15 22C15.2652 22 15.5196 21.8947 15.7071 21.7071C15.8946 21.5196 16 21.2652 16 21V20H20V21C20 21.2652 20.1054 21.5196 20.2929 21.7071C20.4804 21.8947 20.7348 22 21 22C21.2652 22 21.5196 21.8947 21.7071 21.7071C21.8946 21.5196 22 21.2652 22 21V19C22 18.7348 21.8946 18.4804 21.7071 18.2929C21.5196 18.1054 21.2652 18 21 18ZM12 8.63002C11.8359 8.63084 11.6744 8.67205 11.53 8.75002L10.73 9.17002L10.88 8.27002C10.9062 8.11083 10.8936 7.94764 10.8431 7.79441C10.7926 7.64117 10.7057 7.50243 10.59 7.39002L9.94 6.75002L10.84 6.62002C11.001 6.59851 11.1544 6.5381 11.2868 6.44401C11.4192 6.34992 11.5267 6.22499 11.6 6.08002L12 5.26002L12.4 6.08002C12.4733 6.22499 12.5808 6.34992 12.7132 6.44401C12.8456 6.5381 12.999 6.59851 13.16 6.62002L14.06 6.75002L13.41 7.39002C13.2943 7.50243 13.2074 7.64117 13.1569 7.79441C13.1064 7.94764 13.0938 8.11083 13.12 8.27002L13.27 9.17002L12.47 8.75002C12.3256 8.67205 12.1641 8.63084 12 8.63002Z" />
</svg>
