<svg width="24" height="24" viewBox="0 0 24 24" xmlns="http://www.w3.org/2000/svg">
<path d="M21.1696 2.06C20.4528 1.93653 19.7269 1.87298 18.9996 1.87C16.518 1.86796 14.0881 2.57957 11.9996 3.92C9.90574 2.59717 7.47625 1.90303 4.9996 1.92C4.27224 1.92298 3.5464 1.98653 2.8296 2.11C2.5948 2.15048 2.38218 2.27346 2.23001 2.45679C2.07784 2.64013 1.99613 2.87177 1.9996 3.11V15.11C1.99745 15.2569 2.02772 15.4025 2.08825 15.5364C2.14877 15.6703 2.23806 15.7893 2.34977 15.8847C2.46148 15.9802 2.59285 16.0499 2.73455 16.0888C2.87625 16.1278 3.02479 16.135 3.1696 16.11C4.60262 15.8619 6.0708 15.9031 7.48766 16.2311C8.90453 16.5591 10.2414 17.1674 11.4196 18.02L11.5396 18.09H11.6496C11.7605 18.1362 11.8795 18.16 11.9996 18.16C12.1197 18.16 12.2387 18.1362 12.3496 18.09H12.4596L12.5796 18.02C13.7496 17.1483 15.0826 16.5203 16.4997 16.1734C17.9169 15.8264 19.3893 15.7674 20.8296 16C20.9744 16.025 21.1229 16.0178 21.2646 15.9788C21.4063 15.9399 21.5377 15.8702 21.6494 15.7747C21.7611 15.6793 21.8504 15.5603 21.9109 15.4264C21.9715 15.2925 22.0017 15.1469 21.9996 15V3C21.9892 2.77215 21.9012 2.55471 21.7502 2.38374C21.5993 2.21276 21.3944 2.09854 21.1696 2.06ZM10.9996 15.35C9.14948 14.3767 7.09011 13.8687 4.9996 13.87C4.6696 13.87 4.3396 13.87 3.9996 13.87V3.87C4.33265 3.8508 4.66654 3.8508 4.9996 3.87C7.13298 3.86764 9.21981 4.49369 10.9996 5.67V15.35ZM19.9996 13.91C19.6596 13.91 19.3296 13.91 18.9996 13.91C16.9091 13.9087 14.8497 14.4167 12.9996 15.39V5.67C14.7794 4.49369 16.8662 3.86764 18.9996 3.87C19.3327 3.8508 19.6665 3.8508 19.9996 3.87V13.91ZM21.1696 18.06C20.4528 17.9365 19.7269 17.873 18.9996 17.87C16.518 17.868 14.0881 18.5796 11.9996 19.92C9.91111 18.5796 7.48123 17.868 4.9996 17.87C4.27224 17.873 3.5464 17.9365 2.8296 18.06C2.69942 18.0807 2.57462 18.1268 2.46236 18.1959C2.3501 18.265 2.2526 18.3555 2.17546 18.4624C2.09833 18.5693 2.04308 18.6903 2.0129 18.8186C1.98272 18.9469 1.9782 19.0799 1.9996 19.21C2.05042 19.4697 2.20209 19.6986 2.42139 19.8467C2.64069 19.9948 2.90974 20.0499 3.1696 20C4.60262 19.7519 6.0708 19.7931 7.48766 20.1211C8.90453 20.4491 10.2414 21.0574 11.4196 21.91C11.589 22.0306 11.7917 22.0954 11.9996 22.0954C12.2075 22.0954 12.4102 22.0306 12.5796 21.91C13.7578 21.0574 15.0947 20.4491 16.5115 20.1211C17.9284 19.7931 19.3966 19.7519 20.8296 20C21.0895 20.0499 21.3585 19.9948 21.5778 19.8467C21.7971 19.6986 21.9488 19.4697 21.9996 19.21C22.021 19.0799 22.0165 18.9469 21.9863 18.8186C21.9561 18.6903 21.9009 18.5693 21.8237 18.4624C21.7466 18.3555 21.6491 18.265 21.5368 18.1959C21.4246 18.1268 21.2998 18.0807 21.1696 18.06Z" />
</svg>
