<svg width="24" height="24" viewBox="0 0 24 24" xmlns="http://www.w3.org/2000/svg">
<path d="M19.7903 7.13C19.6961 7.01082 19.576 6.91466 19.4391 6.84882C19.3023 6.78298 19.1522 6.74918 19.0003 6.75H8.00029V6.25C8.00153 5.81468 8.14478 5.39165 8.40828 5.04514C8.67177 4.69862 9.04113 4.44754 9.46029 4.33C9.72957 4.58983 10.0862 4.73963 10.4603 4.75H11.4603C11.8581 4.75 12.2396 4.59196 12.5209 4.31066C12.8023 4.02936 12.9603 3.64782 12.9603 3.25C12.9603 2.85218 12.8023 2.47064 12.5209 2.18934C12.2396 1.90804 11.8581 1.75 11.4603 1.75H10.4603C10.2349 1.75031 10.0124 1.80177 9.80976 1.9005C9.6071 1.99924 9.42948 2.14267 9.29029 2.32C8.36855 2.48625 7.53438 2.97067 6.93316 3.68884C6.33194 4.40702 6.00181 5.31339 6.00029 6.25V6.75H5.00029C4.8484 6.74918 4.69831 6.78298 4.56143 6.84882C4.42455 6.91466 4.30446 7.01082 4.21029 7.13C4.11011 7.24874 4.03898 7.38918 4.00253 7.5402C3.96608 7.69121 3.96531 7.84864 4.00029 8L4.62029 10.49C4.76833 11.0635 5.08284 11.5804 5.52417 11.9755C5.96551 12.3705 6.51392 12.6261 7.10029 12.71L7.88029 19.71H7.00029C6.73507 19.71 6.48072 19.8154 6.29318 20.0029C6.10565 20.1904 6.00029 20.4448 6.00029 20.71C6.00029 20.9752 6.10565 21.2296 6.29318 21.4171C6.48072 21.6046 6.73507 21.71 7.00029 21.71H17.0003C17.2655 21.71 17.5199 21.6046 17.7074 21.4171C17.8949 21.2296 18.0003 20.9752 18.0003 20.71C18.0003 20.4448 17.8949 20.1904 17.7074 20.0029C17.5199 19.8154 17.2655 19.71 17.0003 19.71H16.1203L16.9003 12.71C17.4825 12.6199 18.0253 12.3604 18.461 11.9639C18.8967 11.5673 19.206 11.0512 19.3503 10.48L20.0003 8C20.0353 7.84864 20.0345 7.69121 19.998 7.5402C19.9616 7.38918 19.8905 7.24874 19.7903 7.13ZM14.1003 19.75H9.90029L9.12029 12.75H14.8803L14.1003 19.75ZM17.4103 10C17.3555 10.2219 17.2264 10.4183 17.0445 10.5566C16.8625 10.6949 16.6387 10.7667 16.4103 10.76H7.56029C7.33185 10.7667 7.10803 10.6949 6.92608 10.5566C6.74413 10.4183 6.61504 10.2219 6.56029 10L6.28029 8.75H17.7203L17.4103 10Z" />
</svg>
