<svg width="24" height="24" viewBox="0 0 24 24" xmlns="http://www.w3.org/2000/svg">
<path d="M11.0595 20.1C10.8125 19.9859 10.5913 19.8226 10.4095 19.62C10.0867 19.308 9.85511 18.9139 9.73953 18.48C9.51702 17.6785 9.061 16.9614 8.42954 16.42C8.55154 15.8333 8.52389 15.2253 8.34913 14.6521C8.17436 14.0789 7.85812 13.5589 7.42953 13.14C6.86364 12.4907 6.06505 12.0901 5.20625 12.0246C4.34744 11.9591 3.49734 12.234 2.83953 12.79C2.28295 13.4495 2.00774 14.3012 2.0732 15.1616C2.13867 16.0221 2.53958 16.8224 3.18954 17.39C3.78356 17.9954 4.56004 18.389 5.39954 18.51H5.75954C6.30098 18.5117 6.83168 18.359 7.28954 18.07C7.53818 18.3299 7.71406 18.6507 7.79954 19C8.01505 19.7613 8.42921 20.4516 8.99954 21C9.34494 21.3613 9.75111 21.6592 10.1995 21.88C10.3367 21.9464 10.4872 21.9806 10.6395 21.98C10.8662 21.981 11.0865 21.9048 11.2643 21.7641C11.4421 21.6234 11.5667 21.4265 11.6179 21.2056C11.669 20.9848 11.6436 20.7531 11.5458 20.5486C11.448 20.3441 11.2836 20.1788 11.0795 20.08L11.0595 20.1ZM6.31954 16.33C6.22374 16.4108 6.11146 16.4696 5.99055 16.5024C5.86963 16.5352 5.74301 16.5413 5.61953 16.52C5.21779 16.4708 4.84435 16.2876 4.55954 16C3.98954 15.44 3.82953 14.61 4.19953 14.23C4.3546 14.0956 4.55442 14.0243 4.75954 14.03C5.22593 14.0393 5.67049 14.2294 5.99954 14.56C6.29815 14.8405 6.49217 15.2144 6.54954 15.62C6.567 15.748 6.55539 15.8784 6.51557 16.0013C6.47575 16.1242 6.40875 16.2366 6.31954 16.33ZM21.3195 10.21C20.9712 10.0935 20.658 9.89054 20.4095 9.62002C20.0867 9.30798 19.8551 8.91385 19.7395 8.48002C19.517 7.67855 19.061 6.96144 18.4295 6.42002C18.5453 5.82912 18.5098 5.21852 18.3262 4.64504C18.1426 4.07156 17.817 3.55383 17.3795 3.14002C16.8136 2.49072 16.0151 2.09006 15.1562 2.02458C14.2974 1.95909 13.4473 2.23403 12.7895 2.79002C12.2329 3.44947 11.9577 4.3012 12.0232 5.16165C12.0887 6.0221 12.4896 6.82238 13.1395 7.39002C13.7467 8.00526 14.5423 8.39955 15.3995 8.51002H15.7595C16.301 8.51167 16.8317 8.35905 17.2895 8.07002C17.5382 8.32992 17.7141 8.65065 17.7995 9.00002C18.0185 9.75982 18.4322 10.4492 18.9995 11C19.4741 11.4878 20.0563 11.8576 20.6995 12.08C20.8036 12.1105 20.9112 12.1273 21.0195 12.13C21.2292 12.1306 21.4337 12.0652 21.6042 11.9432C21.7746 11.8212 21.9024 11.6486 21.9695 11.45C22.045 11.1994 22.0193 10.9291 21.8977 10.6973C21.7762 10.4655 21.5686 10.2905 21.3195 10.21ZM16.3195 6.33002C16.2237 6.41077 16.1115 6.46961 15.9905 6.50243C15.8696 6.53525 15.743 6.54125 15.6195 6.52002C15.2178 6.4708 14.8444 6.2876 14.5595 6.00002C13.9895 5.44002 13.8295 4.61002 14.1995 4.23002C14.3546 4.09564 14.5544 4.02428 14.7595 4.03002C15.2259 4.03934 15.6705 4.22935 15.9995 4.56002C16.2981 4.84047 16.4922 5.2144 16.5495 5.62002C16.567 5.74804 16.5554 5.87836 16.5156 6.00127C16.4757 6.12419 16.4087 6.23656 16.3195 6.33002ZM21.7095 20.45C21.5133 19.67 21.1094 18.9577 20.5406 18.389C19.9718 17.8202 19.2596 17.4162 18.4795 17.22C17.9534 17.0708 17.4746 16.7883 17.0895 16.4C16.7004 16.0229 16.4234 15.5452 16.2895 15.02C16.0723 14.2384 15.6544 13.5272 15.0772 12.957C14.5001 12.3869 13.7838 11.9777 12.9995 11.77C12.4742 11.6366 11.9964 11.3596 11.6195 10.97C11.228 10.5891 10.9479 10.1085 10.8095 9.58002C10.6223 8.89193 10.2802 8.25574 9.80954 7.72002C9.96911 7.23698 10.0336 6.7276 9.99953 6.22002C9.86267 5.15531 9.36919 4.16835 8.59954 3.42002C7.84751 2.64094 6.85324 2.14028 5.77954 2.00002C5.27092 1.94903 4.75734 2.01235 4.27635 2.18537C3.79536 2.35839 3.35912 2.63672 2.99954 3.00002C2.63624 3.35961 2.3579 3.79585 2.18488 4.27684C2.01186 4.75783 1.94854 5.27141 1.99954 5.78002C2.1364 6.84474 2.62988 7.8317 3.39954 8.58002C4.15156 9.3591 5.14583 9.85976 6.21953 10H6.64954C7.36273 10.0154 8.0626 9.80547 8.64953 9.40002C8.78722 9.62016 8.89168 9.8594 8.95954 10.11C9.19501 10.9701 9.65103 11.7538 10.2825 12.3834C10.9139 13.0131 11.6988 13.4669 12.5595 13.7C12.9985 13.8205 13.3984 14.0537 13.7194 14.3765C14.0404 14.6992 14.2715 15.1004 14.3895 15.54C14.6226 16.4024 15.0776 17.1886 15.7093 17.8203C16.3409 18.4519 17.1272 18.907 17.9895 19.14C18.4273 19.2631 18.8246 19.5001 19.1408 19.8269C19.457 20.1536 19.6809 20.5585 19.7895 21C19.8294 21.1577 19.8829 21.3116 19.9495 21.46C20.0332 21.6216 20.1594 21.7572 20.3145 21.8524C20.4695 21.9475 20.6476 21.9986 20.8295 22C20.9812 21.9946 21.1304 21.9606 21.2695 21.9C21.5095 21.7873 21.6949 21.5838 21.7849 21.3344C21.8749 21.085 21.8622 20.8101 21.7495 20.57C21.7495 20.57 21.7195 20.47 21.7095 20.45ZM7.63953 7.64002C6.99954 8.27002 5.71953 8.05002 4.82954 7.17002C4.38089 6.74107 4.0887 6.1743 3.99954 5.56002C3.9661 5.34657 3.98014 5.12838 4.04063 4.92097C4.10113 4.71356 4.2066 4.52203 4.34953 4.36002C4.62202 4.11229 4.98167 3.98282 5.34953 4.00002C6.04336 4.03196 6.69844 4.32907 7.17953 4.83002C7.62451 5.26042 7.91309 5.82703 7.99954 6.44002C8.03163 6.65421 8.01601 6.87285 7.95377 7.0803C7.89154 7.28774 7.78424 7.47887 7.63953 7.64002Z" />
</svg>
