<svg width="24" height="24" viewBox="0 0 24 24" xmlns="http://www.w3.org/2000/svg">
<path d="M21.9002 7.58998L20.9002 3.71998C20.7984 3.33565 20.6211 2.97541 20.3788 2.66019C20.1365 2.34497 19.8339 2.08106 19.4887 1.8838C19.1435 1.68654 18.7626 1.55986 18.368 1.51114C17.9734 1.46241 17.573 1.49261 17.1902 1.59998L15.2602 2.11998C15.1325 2.15362 15.0128 2.21221 14.9079 2.29238C14.8029 2.37254 14.7149 2.47269 14.6489 2.58705C14.5829 2.7014 14.5402 2.82769 14.5233 2.95864C14.5063 3.08958 14.5155 3.22259 14.5502 3.34998L14.8102 4.34998L4.19021 7.15998C3.93455 7.22805 3.71628 7.39466 3.58321 7.62332C3.45013 7.85198 3.4131 8.12406 3.48021 8.37998L3.74021 9.37998L2.74021 9.63998C2.47499 9.67313 2.23381 9.81028 2.06971 10.0213C1.90562 10.2322 1.83206 10.4998 1.86521 10.765C1.89836 11.0302 2.03551 11.2714 2.24649 11.4355C2.45747 11.5996 2.72499 11.6731 2.99021 11.64C3.07656 11.6504 3.16385 11.6504 3.25021 11.64L4.25021 11.37L4.51021 12.37C4.57912 12.6225 4.74427 12.8379 4.97021 12.97C5.12164 13.0599 5.29412 13.1081 5.47021 13.11C5.55621 13.1251 5.6442 13.1251 5.73021 13.11L9.00021 12.08V12.5C9.0009 12.944 9.10354 13.3819 9.30021 13.78L4.30021 18.78C4.1119 18.967 4.00559 19.2211 4.00465 19.4864C4.00371 19.7518 4.10823 20.0067 4.29521 20.195C4.48219 20.3833 4.73631 20.4896 5.00167 20.4905C5.26704 20.4915 5.5219 20.387 5.71021 20.2L10.7102 15.2L10.9902 15.31V21.5C10.9902 21.7652 11.0956 22.0195 11.2831 22.2071C11.4706 22.3946 11.725 22.5 11.9902 22.5C12.2554 22.5 12.5098 22.3946 12.6973 22.2071C12.8849 22.0195 12.9902 21.7652 12.9902 21.5V15.32C13.0893 15.286 13.1861 15.246 13.2802 15.2L18.2802 20.2C18.4685 20.387 18.7234 20.4915 18.9887 20.4905C19.2541 20.4896 19.5082 20.3833 19.6952 20.195C19.8822 20.0067 19.9867 19.7518 19.9858 19.4864C19.9848 19.2211 19.8785 18.967 19.6902 18.78L14.6902 13.78C14.8843 13.3805 14.9901 12.944 15.0002 12.5V10.5L16.3502 10.14L16.6002 11.14C16.6588 11.3581 16.7895 11.55 16.9711 11.6844C17.1527 11.8188 17.3744 11.8877 17.6002 11.88H17.8602L19.7902 11.36C20.1803 11.2576 20.5457 11.0776 20.8647 10.8308C21.1836 10.584 21.4495 10.2754 21.6465 9.92344C21.8434 9.57151 21.9674 9.18348 22.011 8.78255C22.0546 8.38162 22.0169 7.97601 21.9002 7.58998ZM13.0002 12.5C12.9992 12.7574 12.8989 13.0046 12.7202 13.19C12.5348 13.3687 12.2877 13.469 12.0302 13.47C11.7679 13.4689 11.5165 13.3647 11.3302 13.18C11.1455 12.9937 11.0413 12.7423 11.0402 12.48V11.48L13.0002 11V12.5ZM6.19021 10.76L5.67021 8.82998L15.3302 6.23998L15.5902 7.23998L15.8502 8.23998L6.19021 10.76ZM19.8702 8.85998C19.8046 8.97474 19.717 9.07538 19.6123 9.15605C19.5076 9.23672 19.3879 9.29584 19.2602 9.32998L18.2602 9.58998L17.4802 6.68998L17.0002 4.75998L16.7402 3.75998L17.7402 3.49998C17.8676 3.46525 18.0006 3.4561 18.1315 3.47304C18.2625 3.48999 18.3888 3.53269 18.5031 3.5987C18.6175 3.66471 18.7176 3.75271 18.7978 3.85763C18.878 3.96254 18.9366 4.0823 18.9702 4.20998L19.9702 8.07998C20.0071 8.21 20.0173 8.34616 20.0001 8.48022C19.9829 8.61428 19.9387 8.74347 19.8702 8.85998Z" />
</svg>
