<svg width="24" height="24" viewBox="0 0 24 24" xmlns="http://www.w3.org/2000/svg">
<path d="M19 10C18.7348 10 18.4804 10.1054 18.2929 10.2929C18.1054 10.4804 18 10.7348 18 11V14.38L16.52 12.9C15.9974 12.3815 15.2911 12.0906 14.555 12.0906C13.8189 12.0906 13.1126 12.3815 12.59 12.9L11.89 13.61L9.41 11.12C8.88742 10.6015 8.18113 10.3106 7.445 10.3106C6.70887 10.3106 6.00258 10.6015 5.48 11.12L4 12.61V7C4 6.73478 4.10536 6.48043 4.29289 6.29289C4.48043 6.10536 4.73478 6 5 6H13C13.2652 6 13.5196 5.89464 13.7071 5.70711C13.8946 5.51957 14 5.26522 14 5C14 4.73478 13.8946 4.48043 13.7071 4.29289C13.5196 4.10536 13.2652 4 13 4H5C4.20435 4 3.44129 4.31607 2.87868 4.87868C2.31607 5.44129 2 6.20435 2 7V19.22C2.00264 19.9565 2.29637 20.6621 2.81715 21.1828C3.33794 21.7036 4.04351 21.9974 4.78 22H17.22C17.491 21.9978 17.7603 21.9574 18.02 21.88C18.5974 21.718 19.1058 21.3711 19.4671 20.8924C19.8283 20.4137 20.0226 19.8297 20.02 19.23V11C20.02 10.867 19.9935 10.7353 19.942 10.6126C19.8905 10.49 19.8151 10.3789 19.7201 10.2857C19.6251 10.1926 19.5125 10.1194 19.3888 10.0703C19.2652 10.0212 19.133 9.99734 19 10ZM5 20C4.73478 20 4.48043 19.8946 4.29289 19.7071C4.10536 19.5196 4 19.2652 4 19V15.43L6.89 12.54C7.03615 12.3947 7.23389 12.3131 7.44 12.3131C7.64611 12.3131 7.84385 12.3947 7.99 12.54L15.46 20H5ZM18 19C17.9936 19.1936 17.931 19.3812 17.82 19.54L13.3 15L14.01 14.3C14.0817 14.2268 14.1673 14.1687 14.2617 14.129C14.3561 14.0893 14.4576 14.0689 14.56 14.0689C14.6624 14.0689 14.7639 14.0893 14.8583 14.129C14.9527 14.1687 15.0383 14.2268 15.11 14.3L18 17.21V19ZM21 4H20V3C20 2.73478 19.8946 2.48043 19.7071 2.29289C19.5196 2.10536 19.2652 2 19 2C18.7348 2 18.4804 2.10536 18.2929 2.29289C18.1054 2.48043 18 2.73478 18 3V4H17C16.7348 4 16.4804 4.10536 16.2929 4.29289C16.1054 4.48043 16 4.73478 16 5C16 5.26522 16.1054 5.51957 16.2929 5.70711C16.4804 5.89464 16.7348 6 17 6H18V7C18 7.26522 18.1054 7.51957 18.2929 7.70711C18.4804 7.89464 18.7348 8 19 8C19.2652 8 19.5196 7.89464 19.7071 7.70711C19.8946 7.51957 20 7.26522 20 7V6H21C21.2652 6 21.5196 5.89464 21.7071 5.70711C21.8946 5.51957 22 5.26522 22 5C22 4.73478 21.8946 4.48043 21.7071 4.29289C21.5196 4.10536 21.2652 4 21 4Z" />
</svg>
