<svg width="24" height="24" viewBox="0 0 24 24" xmlns="http://www.w3.org/2000/svg">
<path d="M20.67 9.68994L14 5.83994C13.5944 5.60694 13.1348 5.48458 12.667 5.48511C12.1992 5.48564 11.7398 5.60905 11.3348 5.84297C10.9297 6.07689 10.5932 6.41313 10.359 6.818C10.1247 7.22288 10.0009 7.68219 10 8.14994L6.00004 5.83994C5.59444 5.60694 5.13476 5.48458 4.667 5.48511C4.19924 5.48564 3.73983 5.60905 3.33477 5.84297C2.92971 6.07689 2.59321 6.41313 2.35896 6.818C2.12471 7.22288 2.00094 7.68219 2.00004 8.14994V15.8499C1.9976 16.3169 2.11951 16.776 2.35325 17.1802C2.58699 17.5844 2.92413 17.9191 3.33004 18.1499C3.73504 18.3921 4.19813 18.52 4.67004 18.5199C5.13711 18.5174 5.59547 18.3934 6.00004 18.1599L10 15.8499C9.99789 16.3182 10.1198 16.7786 10.3535 17.1843C10.5871 17.5901 10.924 17.9267 11.33 18.1599C11.7356 18.3953 12.1961 18.5192 12.665 18.5192C13.1339 18.5192 13.5945 18.3953 14 18.1599L20.67 14.3099C21.0749 14.0753 21.4109 13.7384 21.6445 13.333C21.8781 12.9275 22.0011 12.4679 22.0011 11.9999C22.0011 11.532 21.8781 11.0723 21.6445 10.6669C21.4109 10.2615 21.0749 9.92459 20.67 9.68994ZM10 13.5399L5.00004 16.4199C4.89907 16.4771 4.78498 16.5071 4.66896 16.5069C4.55293 16.5068 4.43893 16.4765 4.33812 16.419C4.23732 16.3615 4.15316 16.2789 4.0939 16.1791C4.03464 16.0794 4.00229 15.966 4.00004 15.8499V8.14994C4.00229 8.03393 4.03464 7.9205 4.0939 7.82075C4.15316 7.721 4.23732 7.63834 4.33812 7.58089C4.43893 7.52343 4.55293 7.49313 4.66896 7.49297C4.78498 7.4928 4.89907 7.52277 5.00004 7.57994L10 10.4599V13.5399ZM19.67 12.5399L13 16.4299C12.8976 16.4869 12.7823 16.5167 12.665 16.5167C12.5478 16.5167 12.4325 16.4869 12.33 16.4299C12.2285 16.3713 12.1443 16.2867 12.0863 16.1847C12.0283 16.0828 11.9985 15.9672 12 15.8499V8.14994C11.9985 8.03266 12.0283 7.91711 12.0863 7.81516C12.1443 7.71322 12.2285 7.62858 12.33 7.56994C12.435 7.51445 12.5513 7.48367 12.67 7.47994C12.7862 7.47894 12.9004 7.51008 13 7.56994L19.67 11.4199C19.7718 11.4788 19.8563 11.5633 19.915 11.6651C19.9737 11.767 20.0046 11.8824 20.0046 11.9999C20.0046 12.1175 19.9737 12.2329 19.915 12.3347C19.8563 12.4365 19.7718 12.5211 19.67 12.5799V12.5399Z" />
</svg>
