<svg width="24" height="24" viewBox="0 0 24 24" xmlns="http://www.w3.org/2000/svg">
<path d="M20 5.18V4C20 3.20435 19.6839 2.44129 19.1213 1.87868C18.5587 1.31607 17.7956 1 17 1C16.2044 1 15.4413 1.31607 14.8787 1.87868C14.3161 2.44129 14 3.20435 14 4V5.18C13.4165 5.38631 12.911 5.76807 12.5529 6.27293C12.1949 6.7778 12.0017 7.38106 12 8V10C12 10.7956 12.3161 11.5587 12.8787 12.1213C13.4413 12.6839 14.2044 13 15 13H19C19.7956 13 20.5587 12.6839 21.1213 12.1213C21.6839 11.5587 22 10.7956 22 10V8C21.9983 7.38106 21.8051 6.7778 21.4471 6.27293C21.089 5.76807 20.5835 5.38631 20 5.18ZM16 4C16 3.73478 16.1054 3.48043 16.2929 3.29289C16.4804 3.10536 16.7348 3 17 3C17.2652 3 17.5196 3.10536 17.7071 3.29289C17.8946 3.48043 18 3.73478 18 4V5H16V4ZM20 10C20 10.2652 19.8946 10.5196 19.7071 10.7071C19.5196 10.8946 19.2652 11 19 11H15C14.7348 11 14.4804 10.8946 14.2929 10.7071C14.1054 10.5196 14 10.2652 14 10V8C14 7.73478 14.1054 7.48043 14.2929 7.29289C14.4804 7.10536 14.7348 7 15 7H19C19.2652 7 19.5196 7.10536 19.7071 7.29289C19.8946 7.48043 20 7.73478 20 8V10ZM19 15C18.7348 15 18.4804 15.1054 18.2929 15.2929C18.1054 15.4804 18 15.7348 18 16V19C17.9986 19.1914 17.9354 19.3773 17.82 19.53L9.41 11.12C8.87897 10.6179 8.17585 10.3381 7.445 10.3381C6.71415 10.3381 6.01103 10.6179 5.48 11.12L4 12.6V7C4 6.73478 4.10536 6.48043 4.29289 6.29289C4.48043 6.10536 4.73478 6 5 6H10C10.2652 6 10.5196 5.89464 10.7071 5.70711C10.8946 5.51957 11 5.26522 11 5C11 4.73478 10.8946 4.48043 10.7071 4.29289C10.5196 4.10536 10.2652 4 10 4H5C4.20435 4 3.44129 4.31607 2.87868 4.87868C2.31607 5.44129 2 6.20435 2 7V19C2 19.7956 2.31607 20.5587 2.87868 21.1213C3.44129 21.6839 4.20435 22 5 22H17C17.7956 22 18.5587 21.6839 19.1213 21.1213C19.6839 20.5587 20 19.7956 20 19V16C20 15.7348 19.8946 15.4804 19.7071 15.2929C19.5196 15.1054 19.2652 15 19 15ZM5 20C4.73478 20 4.48043 19.8946 4.29289 19.7071C4.10536 19.5196 4 19.2652 4 19V15.43L6.9 12.53C7.04691 12.39 7.24206 12.3119 7.445 12.3119C7.64794 12.3119 7.84309 12.39 7.99 12.53L15.46 20H5Z" />
</svg>
