<svg width="24" height="24" viewBox="0 0 24 24" xmlns="http://www.w3.org/2000/svg">
<path d="M10.4996 3.72998C10.677 3.51617 10.8971 3.34169 11.1458 3.21766C11.3944 3.09362 11.6662 3.02276 11.9437 3.00959C12.2213 2.99642 12.4985 3.04122 12.7578 3.14115C13.0171 3.24108 13.2527 3.39394 13.4496 3.58998C13.8105 3.96979 14.008 4.47608 13.9996 4.99998V8.40998C13.9996 8.67519 14.1049 8.92955 14.2925 9.11708C14.48 9.30462 14.7344 9.40998 14.9996 9.40998C15.2648 9.40998 15.5192 9.30462 15.7067 9.11708C15.8942 8.92955 15.9996 8.67519 15.9996 8.40998V4.99998C15.9767 4.19732 15.7128 3.42013 15.2422 2.76951C14.7716 2.1189 14.116 1.625 13.3608 1.35205C12.6057 1.07911 11.7858 1.03978 11.008 1.23916C10.2302 1.43854 9.53034 1.86742 8.99958 2.46998C8.88318 2.56205 8.78874 2.67889 8.7231 2.812C8.65746 2.94511 8.62227 3.09116 8.62009 3.23956C8.61791 3.38796 8.64879 3.53498 8.71048 3.66997C8.77218 3.80495 8.86315 3.92451 8.97679 4.01997C9.09043 4.11543 9.2239 4.18439 9.3675 4.22187C9.51111 4.25934 9.66126 4.26437 9.80705 4.23661C9.95285 4.20885 10.0906 4.14898 10.2104 4.06135C10.3302 3.97372 10.429 3.86052 10.4996 3.72998ZM18.7196 13.27H18.9196C19.1549 13.2743 19.3843 13.1954 19.5672 13.0472C19.7501 12.899 19.8749 12.6911 19.9196 12.46C19.9913 11.9768 20.0181 11.4881 19.9996 11C19.9996 10.7348 19.8942 10.4804 19.7067 10.2929C19.5192 10.1053 19.2648 9.99998 18.9996 9.99998C18.7344 9.99998 18.48 10.1053 18.2925 10.2929C18.1049 10.4804 17.9996 10.7348 17.9996 11C17.9997 11.3694 17.9628 11.7379 17.8896 12.1C17.8653 12.2315 17.8676 12.3666 17.8964 12.4972C17.9252 12.6278 17.9799 12.7513 18.0573 12.8604C18.1347 12.9695 18.2332 13.062 18.3469 13.1323C18.4607 13.2027 18.5874 13.2495 18.7196 13.27ZM21.7196 19.33L3.71958 1.32998C3.62662 1.23625 3.51602 1.16186 3.39416 1.11109C3.2723 1.06032 3.14159 1.03418 3.00958 1.03418C2.87757 1.03418 2.74686 1.06032 2.62501 1.11109C2.50315 1.16186 2.39254 1.23625 2.29958 1.32998C2.11333 1.51734 2.00879 1.77079 2.00879 2.03498C2.00879 2.29916 2.11333 2.55262 2.29958 2.73998L7.99958 8.47998V11C8.0003 11.7018 8.18565 12.391 8.53702 12.9985C8.88838 13.606 9.3934 14.1104 10.0014 14.461C10.6093 14.8116 11.2988 14.9961 12.0006 14.9959C12.7024 14.9957 13.3918 14.8109 13.9996 14.46L15.4596 15.92C14.56 16.555 13.503 16.9301 12.4044 17.0044C11.3058 17.0787 10.208 16.8493 9.23108 16.3412C8.25419 15.8332 7.43595 15.0661 6.86597 14.124C6.29599 13.1819 5.99625 12.1011 5.99958 11C5.99958 10.7348 5.89422 10.4804 5.70669 10.2929C5.51915 10.1053 5.2648 9.99998 4.99958 9.99998C4.73437 9.99998 4.48001 10.1053 4.29248 10.2929C4.10494 10.4804 3.99958 10.7348 3.99958 11C4.00135 12.9473 4.7133 14.8271 6.00198 16.2869C7.29066 17.7468 9.06756 18.6866 10.9996 18.93V21H8.99958C8.73437 21 8.48001 21.1053 8.29248 21.2929C8.10494 21.4804 7.99958 21.7348 7.99958 22C7.99958 22.2652 8.10494 22.5195 8.29248 22.7071C8.48001 22.8946 8.73437 23 8.99958 23H14.9996C15.2648 23 15.5192 22.8946 15.7067 22.7071C15.8942 22.5195 15.9996 22.2652 15.9996 22C15.9996 21.7348 15.8942 21.4804 15.7067 21.2929C15.5192 21.1053 15.2648 21 14.9996 21H12.9996V18.93C14.4024 18.7554 15.7323 18.2061 16.8496 17.34L20.2496 20.74C20.4366 20.9283 20.6907 21.0346 20.956 21.0355C21.2214 21.0365 21.4763 20.932 21.6646 20.745C21.8529 20.558 21.9592 20.3039 21.9601 20.0385C21.9611 19.7731 21.8566 19.5183 21.6696 19.33H21.7196ZM11.9996 13C11.4691 13 10.9604 12.7893 10.5854 12.4142C10.2103 12.0391 9.99958 11.5304 9.99958 11V10.48L12.4496 12.94C12.3028 12.9795 12.1516 12.9997 11.9996 13Z" />
</svg>
