<svg width="24" height="24" viewBox="0 0 24 24" xmlns="http://www.w3.org/2000/svg">
<path d="M19 11.48C18.7348 11.48 18.4804 11.5853 18.2929 11.7729C18.1054 11.9604 18 12.2147 18 12.48V14.87L16.5 13.39C15.973 12.8839 15.2706 12.6014 14.54 12.6014C13.8094 12.6014 13.107 12.8839 12.58 13.39L11.88 14.09L9.39 11.6C8.86912 11.0821 8.16448 10.7915 7.43 10.7915C6.69551 10.7915 5.99088 11.0821 5.47 11.6L4 13.09V7.47996C4 7.21474 4.10536 6.96039 4.29289 6.77285C4.48043 6.58531 4.73478 6.47996 5 6.47996H11C11.2652 6.47996 11.5196 6.3746 11.7071 6.18706C11.8946 5.99953 12 5.74517 12 5.47996C12 5.21474 11.8946 4.96039 11.7071 4.77285C11.5196 4.58531 11.2652 4.47996 11 4.47996H5C4.20435 4.47996 3.44129 4.79603 2.87868 5.35864C2.31607 5.92125 2 6.68431 2 7.47996V19.48C2 20.2756 2.31607 21.0387 2.87868 21.6013C3.44129 22.1639 4.20435 22.48 5 22.48H17C17.7956 22.48 18.5587 22.1639 19.1213 21.6013C19.6839 21.0387 20 20.2756 20 19.48V12.48C20 12.2147 19.8946 11.9604 19.7071 11.7729C19.5196 11.5853 19.2652 11.48 19 11.48ZM5 20.48C4.73478 20.48 4.48043 20.3746 4.29289 20.1871C4.10536 19.9995 4 19.7452 4 19.48V15.92L6.88 13C6.95271 12.925 7.03975 12.8653 7.13595 12.8246C7.23214 12.7839 7.33554 12.7629 7.44 12.7629C7.54446 12.7629 7.64786 12.7839 7.74405 12.8246C7.84025 12.8653 7.92729 12.925 8 13L11.17 16.17L15.43 20.43L5 20.48ZM18 19.48C17.9965 19.6726 17.9375 19.8601 17.83 20.02L13.29 15.5L13.99 14.81C14.1362 14.6646 14.3339 14.583 14.54 14.583C14.7461 14.583 14.9438 14.6646 15.09 14.81L18 17.7V19.48ZM21.72 4.22996L19.3 1.80996C19.1126 1.62371 18.8592 1.51917 18.595 1.51917C18.3308 1.51917 18.0774 1.62371 17.89 1.80996L13.31 6.38996C13.2137 6.48173 13.1367 6.5918 13.0835 6.71372C13.0302 6.83563 13.0018 6.96694 13 7.09996V9.51996C13 9.78518 13.1054 10.0395 13.2929 10.2271C13.4804 10.4146 13.7348 10.52 14 10.52H16.42C16.6823 10.5189 16.9337 10.4147 17.12 10.23L21.7 5.64996C21.795 5.55832 21.871 5.44877 21.9235 5.32763C21.976 5.20648 22.004 5.07614 22.0058 4.94412C22.0077 4.81211 21.9834 4.68103 21.9343 4.55846C21.8853 4.43588 21.8124 4.32423 21.72 4.22996ZM16 8.51996H15V7.51996L18.6 3.92996L19.6 4.92996L16 8.51996Z" />
</svg>
