<svg width="24" height="24" viewBox="0 0 24 24" xmlns="http://www.w3.org/2000/svg">
<path d="M20 7C19.5752 7.0014 19.1619 7.13799 18.82 7.39L17.07 6.59L19 5.71C19.3019 5.89326 19.6469 5.99332 20 6C20.3956 6 20.7822 5.8827 21.1111 5.66294C21.44 5.44318 21.6964 5.13082 21.8478 4.76537C21.9991 4.39992 22.0387 3.99778 21.9616 3.60982C21.8844 3.22186 21.6939 2.86549 21.4142 2.58579C21.1345 2.30608 20.7781 2.1156 20.3902 2.03843C20.0022 1.96126 19.6001 2.00087 19.2346 2.15224C18.8692 2.30362 18.5568 2.55996 18.3371 2.88886C18.1173 3.21776 18 3.60444 18 4L16.11 4.87C15.8518 4.68659 15.5537 4.56713 15.2402 4.52147C14.9268 4.47581 14.607 4.50524 14.3071 4.60736C14.0073 4.70947 13.736 4.88133 13.5156 5.1088C13.2952 5.33627 13.1319 5.61284 13.0393 5.91574C12.9467 6.21864 12.9273 6.53921 12.9828 6.85105C13.0383 7.1629 13.1671 7.4571 13.3586 7.70944C13.55 7.96177 13.7987 8.16503 14.084 8.30248C14.3694 8.43992 14.6833 8.50762 15 8.5C15.3222 8.50015 15.639 8.41751 15.92 8.26L18.02 9.26C18.07 9.64133 18.2289 10.0002 18.4776 10.2935C18.7264 10.5868 19.0544 10.8022 19.4224 10.9139C19.7905 11.0255 20.1829 11.0287 20.5527 10.923C20.9224 10.8173 21.2539 10.6072 21.5074 10.318C21.7608 10.0287 21.9255 9.67245 21.9816 9.29198C22.0377 8.91151 21.983 8.52291 21.8239 8.17276C21.6649 7.8226 21.4082 7.52574 21.0847 7.31774C20.7612 7.10974 20.3846 6.99942 20 7ZM19 13C18.7348 13 18.4804 13.1054 18.2929 13.2929C18.1054 13.4804 18 13.7348 18 14V14.39L16.52 12.91C16.2626 12.6509 15.9564 12.4452 15.6192 12.3049C15.2819 12.1646 14.9203 12.0924 14.555 12.0924C14.1897 12.0924 13.8281 12.1646 13.4908 12.3049C13.1536 12.4452 12.8474 12.6509 12.59 12.91L11.89 13.61L9.41 11.12C8.88742 10.6015 8.18113 10.3106 7.445 10.3106C6.70887 10.3106 6.00258 10.6015 5.48 11.12L4 12.6V7C4 6.73478 4.10536 6.48043 4.29289 6.29289C4.48043 6.10536 4.73478 6 5 6H10C10.2652 6 10.5196 5.89464 10.7071 5.70711C10.8946 5.51957 11 5.26522 11 5C11 4.73478 10.8946 4.48043 10.7071 4.29289C10.5196 4.10536 10.2652 4 10 4H5C4.20435 4 3.44129 4.31607 2.87868 4.87868C2.31607 5.44129 2 6.20435 2 7V19C2 19.7956 2.31607 20.5587 2.87868 21.1213C3.44129 21.6839 4.20435 22 5 22H17C17.7956 22 18.5587 21.6839 19.1213 21.1213C19.6839 20.5587 20 19.7956 20 19V14C20 13.7348 19.8946 13.4804 19.7071 13.2929C19.5196 13.1054 19.2652 13 19 13ZM5 20C4.73478 20 4.48043 19.8946 4.29289 19.7071C4.10536 19.5196 4 19.2652 4 19V15.43L6.9 12.53C7.04691 12.39 7.24206 12.3119 7.445 12.3119C7.64794 12.3119 7.84309 12.39 7.99 12.53L11.16 15.7L15.45 20H5ZM18 19C17.9986 19.1914 17.9354 19.3773 17.82 19.53L13.31 15L14.01 14.3C14.1562 14.1547 14.3539 14.0731 14.56 14.0731C14.7661 14.0731 14.9638 14.1547 15.11 14.3L18 17.22V19Z" />
</svg>
