<svg width="24" height="24" viewBox="0 0 24 24" xmlns="http://www.w3.org/2000/svg">
<path d="M20.28 3.43001C19.7819 3.13525 19.2138 2.97974 18.635 2.97974C18.0562 2.97974 17.4881 3.13525 16.99 3.43001L8 8.84001V6.00001C8 5.20436 7.68393 4.4413 7.12132 3.87869C6.55871 3.31608 5.79565 3.00001 5 3.00001C4.20435 3.00001 3.44129 3.31608 2.87868 3.87869C2.31607 4.4413 2 5.20436 2 6.00001V18C2 18.7957 2.31607 19.5587 2.87868 20.1213C3.44129 20.6839 4.20435 21 5 21C5.79565 21 6.55871 20.6839 7.12132 20.1213C7.68393 19.5587 8 18.7957 8 18V15.16L17 20.53C17.5073 20.8355 18.0878 20.9979 18.68 21C19.245 20.9995 19.8 20.8513 20.29 20.57C20.8203 20.2712 21.26 19.8347 21.5627 19.3066C21.8654 18.7786 22.02 18.1786 22.01 17.57V6.42001C22.0172 5.81211 21.8603 5.21352 21.5558 4.68731C21.2514 4.1611 20.8106 3.72675 20.28 3.43001ZM6 18C6 18.2652 5.89464 18.5196 5.70711 18.7071C5.51957 18.8947 5.26522 19 5 19C4.73478 19 4.48043 18.8947 4.29289 18.7071C4.10536 18.5196 4 18.2652 4 18V6.00001C4 5.73479 4.10536 5.48044 4.29289 5.2929C4.48043 5.10537 4.73478 5.00001 5 5.00001C5.26522 5.00001 5.51957 5.10537 5.70711 5.2929C5.89464 5.48044 6 5.73479 6 6.00001V18ZM20 17.58C20.0057 17.8331 19.9427 18.083 19.8177 18.3031C19.6927 18.5232 19.5103 18.7053 19.29 18.83C19.0972 18.9475 18.8758 19.0096 18.65 19.0096C18.4242 19.0096 18.2028 18.9475 18.01 18.83L8.68 13.23C8.47128 13.0997 8.29914 12.9184 8.17981 12.7033C8.06047 12.4881 7.99785 12.2461 7.99785 12C7.99785 11.754 8.06047 11.5119 8.17981 11.2968C8.29914 11.0816 8.47128 10.9003 8.68 10.77L18 5.19001C18.2004 5.06345 18.433 4.99748 18.67 5.00001C18.8877 5.00345 19.101 5.06193 19.29 5.17001C19.5103 5.29471 19.6927 5.47681 19.8177 5.69692C19.9427 5.91704 20.0057 6.16693 20 6.42001V17.58Z" />
</svg>
