<svg width="24" height="24" viewBox="0 0 24 24" xmlns="http://www.w3.org/2000/svg">
<path d="M20.9202 6.62C20.8726 6.49725 20.8012 6.38511 20.7102 6.29L17.7102 3.29C17.6169 3.19676 17.5063 3.1228 17.3844 3.07234C17.2626 3.02188 17.132 2.99591 17.0002 2.99591C16.7339 2.99591 16.4785 3.1017 16.2902 3.29C16.1019 3.47831 15.9961 3.7337 15.9961 4C15.9961 4.2663 16.1019 4.5217 16.2902 4.71L17.5902 6H9.00019C8.20454 6 7.44147 6.31607 6.87887 6.87868C6.31626 7.44129 6.00019 8.20435 6.00019 9V17.59L4.71019 16.29C4.52188 16.1017 4.26649 15.9959 4.00019 15.9959C3.73388 15.9959 3.47849 16.1017 3.29019 16.29C3.10188 16.4783 2.99609 16.7337 2.99609 17C2.99609 17.2663 3.10188 17.5217 3.29019 17.71L6.29019 20.71C6.38529 20.801 6.49743 20.8724 6.62019 20.92C6.73989 20.9729 6.86931 21.0002 7.00019 21.0002C7.13106 21.0002 7.26049 20.9729 7.38019 20.92C7.50294 20.8724 7.61508 20.801 7.71019 20.71L10.7102 17.71C10.8985 17.5217 11.0043 17.2663 11.0043 17C11.0043 16.7337 10.8985 16.4783 10.7102 16.29C10.5219 16.1017 10.2665 15.9959 10.0002 15.9959C9.73388 15.9959 9.47849 16.1017 9.29019 16.29L8.00019 17.59V9C8.00019 8.73479 8.10554 8.48043 8.29308 8.2929C8.48062 8.10536 8.73497 8 9.00019 8H17.5902L16.2902 9.29C16.1965 9.38297 16.1221 9.49357 16.0713 9.61543C16.0205 9.73728 15.9944 9.86799 15.9944 10C15.9944 10.132 16.0205 10.2627 16.0713 10.3846C16.1221 10.5064 16.1965 10.617 16.2902 10.71C16.3831 10.8037 16.4937 10.8781 16.6156 10.9289C16.7375 10.9797 16.8682 11.0058 17.0002 11.0058C17.1322 11.0058 17.2629 10.9797 17.3848 10.9289C17.5066 10.8781 17.6172 10.8037 17.7102 10.71L20.7102 7.71C20.8012 7.6149 20.8726 7.50275 20.9202 7.38C21.0202 7.13654 21.0202 6.86346 20.9202 6.62Z" />
</svg>
