<svg width="24" height="24" viewBox="0 0 24 24" xmlns="http://www.w3.org/2000/svg">
<path d="M11.29 15.71C11.3851 15.801 11.4972 15.8724 11.62 15.92C11.8635 16.02 12.1365 16.02 12.38 15.92C12.5028 15.8724 12.6149 15.801 12.71 15.71L15.71 12.71C15.8983 12.5217 16.0041 12.2663 16.0041 12C16.0041 11.7337 15.8983 11.4783 15.71 11.29C15.5217 11.1017 15.2663 10.9959 15 10.9959C14.7337 10.9959 14.4783 11.1017 14.29 11.29L13 12.59V9C13 8.73478 12.8946 8.48043 12.7071 8.29289C12.5196 8.10535 12.2652 8 12 8C11.7348 8 11.4804 8.10535 11.2929 8.29289C11.1054 8.48043 11 8.73478 11 9V12.59L9.71 11.29C9.61704 11.1963 9.50644 11.1219 9.38458 11.0711C9.26272 11.0203 9.13201 10.9942 9 10.9942C8.86799 10.9942 8.73728 11.0203 8.61542 11.0711C8.49356 11.1219 8.38296 11.1963 8.29 11.29C8.19627 11.383 8.12188 11.4936 8.07111 11.6154C8.02034 11.7373 7.9942 11.868 7.9942 12C7.9942 12.132 8.02034 12.2627 8.07111 12.3846C8.12188 12.5064 8.19627 12.617 8.29 12.71L11.29 15.71ZM12 22C13.9778 22 15.9112 21.4135 17.5557 20.3147C19.2002 19.2159 20.4819 17.6541 21.2388 15.8268C21.9957 13.9996 22.1937 11.9889 21.8079 10.0491C21.422 8.10928 20.4696 6.32745 19.0711 4.92893C17.6725 3.5304 15.8907 2.578 13.9509 2.19214C12.0111 1.80629 10.0004 2.00433 8.17317 2.7612C6.3459 3.51808 4.78412 4.7998 3.6853 6.44429C2.58649 8.08879 2 10.0222 2 12C2 14.6522 3.05357 17.1957 4.92893 19.0711C5.85752 19.9996 6.95991 20.7362 8.17317 21.2388C9.38642 21.7413 10.6868 22 12 22ZM12 4C13.5823 4 15.129 4.46919 16.4446 5.34824C17.7602 6.22729 18.7855 7.47672 19.391 8.93853C19.9965 10.4003 20.155 12.0089 19.8463 13.5607C19.5376 15.1126 18.7757 16.538 17.6569 17.6569C16.538 18.7757 15.1126 19.5376 13.5607 19.8463C12.0089 20.155 10.4003 19.9965 8.93853 19.391C7.47672 18.7855 6.22729 17.7602 5.34824 16.4446C4.46919 15.129 4 13.5822 4 12C4 9.87827 4.84285 7.84343 6.34315 6.34314C7.84344 4.84285 9.87827 4 12 4Z" />
</svg>
