<svg width="24" height="24" viewBox="0 0 24 24" xmlns="http://www.w3.org/2000/svg">
<path d="M21.7102 20.29L15.4102 14H17.0002C17.2654 14 17.5198 13.8946 17.7073 13.7071C17.8948 13.5196 18.0002 13.2652 18.0002 13C18.0002 12.7348 17.8948 12.4804 17.7073 12.2929C17.5198 12.1054 17.2654 12 17.0002 12H13.4102L19.0702 6.34C19.1749 6.25035 19.2599 6.14004 19.3199 6.01597C19.3799 5.89191 19.4137 5.75677 19.419 5.61905C19.4243 5.48133 19.4011 5.344 19.3508 5.21568C19.3005 5.08735 19.2243 4.9708 19.1268 4.87335C19.0294 4.7759 18.9128 4.69964 18.7845 4.64936C18.6562 4.59909 18.5189 4.57588 18.3811 4.5812C18.2434 4.58652 18.1083 4.62025 17.9842 4.68027C17.8602 4.7403 17.7498 4.82532 17.6602 4.93L12.0002 10.59V7C12.0002 6.73478 11.8948 6.48043 11.7073 6.29289C11.5198 6.10536 11.2654 6 11.0002 6C10.735 6 10.4806 6.10536 10.2931 6.29289C10.1055 6.48043 10.0002 6.73478 10.0002 7V8.59L3.71019 2.29C3.61695 2.19676 3.50626 2.1228 3.38443 2.07234C3.26261 2.02188 3.13204 1.99591 3.00019 1.99591C2.86833 1.99591 2.73776 2.02188 2.61594 2.07234C2.49411 2.1228 2.38342 2.19676 2.29019 2.29C2.10188 2.4783 1.99609 2.7337 1.99609 3C1.99609 3.2663 2.10188 3.5217 2.29019 3.71L8.59019 10H7.00019C6.73497 10 6.48062 10.1054 6.29308 10.2929C6.10554 10.4804 6.00019 10.7348 6.00019 11C6.00019 11.2652 6.10554 11.5196 6.29308 11.7071C6.48062 11.8946 6.73497 12 7.00019 12H10.5902L4.93019 17.66C4.74393 17.8474 4.63939 18.1008 4.63939 18.365C4.63939 18.6292 4.74393 18.8826 4.93019 19.07C5.11755 19.2563 5.371 19.3608 5.63519 19.3608C5.89937 19.3608 6.15282 19.2563 6.34019 19.07L12.0002 13.41V17C12.0002 17.2652 12.1055 17.5196 12.2931 17.7071C12.4806 17.8946 12.735 18 13.0002 18C13.2654 18 13.5198 17.8946 13.7073 17.7071C13.8948 17.5196 14.0002 17.2652 14.0002 17V15.41L20.2902 21.71C20.3831 21.8037 20.4937 21.8781 20.6156 21.9289C20.7375 21.9797 20.8682 22.0058 21.0002 22.0058C21.1322 22.0058 21.2629 21.9797 21.3848 21.9289C21.5066 21.8781 21.6172 21.8037 21.7102 21.71C21.8039 21.617 21.8783 21.5064 21.9291 21.3846C21.9798 21.2627 22.006 21.132 22.006 21C22.006 20.868 21.9798 20.7373 21.9291 20.6154C21.8783 20.4936 21.8039 20.383 21.7102 20.29Z" />
</svg>
