<svg width="24" height="24" viewBox="0 0 24 24" xmlns="http://www.w3.org/2000/svg">
<path d="M9.17 10.17C9.30161 10.1708 9.43207 10.1455 9.55391 10.0958C9.67574 10.046 9.78656 9.97268 9.88 9.88C9.97373 9.78704 10.0481 9.67644 10.0989 9.55458C10.1497 9.43272 10.1758 9.30201 10.1758 9.17C10.1758 9.03799 10.1497 8.90728 10.0989 8.78542C10.0481 8.66356 9.97373 8.55296 9.88 8.46L5.41 4H7C7.26522 4 7.51957 3.89464 7.70711 3.70711C7.89464 3.51957 8 3.26522 8 3C8 2.73478 7.89464 2.48043 7.70711 2.29289C7.51957 2.10536 7.26522 2 7 2H3C2.86932 2.00158 2.74022 2.02876 2.62 2.08C2.37565 2.18147 2.18147 2.37565 2.08 2.62C2.02876 2.74022 2.00158 2.86932 2 3V7C2 7.26522 2.10536 7.51957 2.29289 7.70711C2.48043 7.89464 2.73478 8 3 8C3.26522 8 3.51957 7.89464 3.70711 7.70711C3.89464 7.51957 4 7.26522 4 7V5.41L8.46 9.88C8.55344 9.97268 8.66426 10.046 8.78609 10.0958C8.90793 10.1455 9.03839 10.1708 9.17 10.17ZM15.54 8.46C15.447 8.36627 15.3364 8.29188 15.2146 8.24111C15.0927 8.19034 14.962 8.1642 14.83 8.1642C14.698 8.1642 14.5673 8.19034 14.4454 8.24111C14.3236 8.29188 14.213 8.36627 14.12 8.46L8.46 14.12C8.36627 14.213 8.29188 14.3236 8.24111 14.4454C8.19034 14.5673 8.1642 14.698 8.1642 14.83C8.1642 14.962 8.19034 15.0927 8.24111 15.2146C8.29188 15.3364 8.36627 15.447 8.46 15.54C8.55344 15.6327 8.66426 15.706 8.78609 15.7558C8.90793 15.8055 9.03839 15.8308 9.17 15.83C9.30161 15.8308 9.43207 15.8055 9.55391 15.7558C9.67574 15.706 9.78656 15.6327 9.88 15.54L15.54 9.88C15.6337 9.78704 15.7081 9.67644 15.7589 9.55458C15.8097 9.43272 15.8358 9.30201 15.8358 9.17C15.8358 9.03799 15.8097 8.90728 15.7589 8.78542C15.7081 8.66356 15.6337 8.55296 15.54 8.46ZM21 16C20.7348 16 20.4804 16.1054 20.2929 16.2929C20.1054 16.4804 20 16.7348 20 17V18.59L15.54 14.12C15.3517 13.9317 15.0963 13.8259 14.83 13.8259C14.5637 13.8259 14.3083 13.9317 14.12 14.12C13.9317 14.3083 13.8259 14.5637 13.8259 14.83C13.8259 15.0963 13.9317 15.3517 14.12 15.54L18.59 20H17C16.7348 20 16.4804 20.1054 16.2929 20.2929C16.1054 20.4804 16 20.7348 16 21C16 21.2652 16.1054 21.5196 16.2929 21.7071C16.4804 21.8946 16.7348 22 17 22H21C21.1307 21.9984 21.2598 21.9712 21.38 21.92C21.6243 21.8185 21.8185 21.6243 21.92 21.38C21.9712 21.2598 21.9984 21.1307 22 21V17C22 16.7348 21.8946 16.4804 21.7071 16.2929C21.5196 16.1054 21.2652 16 21 16Z" />
</svg>
