<svg width="24" height="24" viewBox="0 0 24 24" xmlns="http://www.w3.org/2000/svg">
<path d="M12 5C11.7348 5 11.4804 5.10536 11.2929 5.29289C11.1054 5.48043 11 5.73478 11 6V18C11 18.2652 11.1054 18.5196 11.2929 18.7071C11.4804 18.8946 11.7348 19 12 19C12.2652 19 12.5196 18.8946 12.7071 18.7071C12.8946 18.5196 13 18.2652 13 18V6C13 5.73478 12.8946 5.48043 12.7071 5.29289C12.5196 5.10536 12.2652 5 12 5ZM10.71 11.29L8.21 8.79C8.0217 8.6017 7.7663 8.49591 7.5 8.49591C7.2337 8.49591 6.9783 8.6017 6.79 8.79C6.6017 8.9783 6.49591 9.2337 6.49591 9.5C6.49591 9.63186 6.52188 9.76243 6.57234 9.88425C6.6228 10.0061 6.69676 10.1168 6.79 10.21L7.59 11H3C2.73478 11 2.48043 11.1054 2.29289 11.2929C2.10536 11.4804 2 11.7348 2 12C2 12.2652 2.10536 12.5196 2.29289 12.7071C2.48043 12.8946 2.73478 13 3 13H7.59L6.79 13.79C6.69627 13.883 6.62188 13.9936 6.57111 14.1154C6.52034 14.2373 6.4942 14.368 6.4942 14.5C6.4942 14.632 6.52034 14.7627 6.57111 14.8846C6.62188 15.0064 6.69627 15.117 6.79 15.21C6.88296 15.3037 6.99356 15.3781 7.11542 15.4289C7.23728 15.4797 7.36799 15.5058 7.5 15.5058C7.63201 15.5058 7.76272 15.4797 7.88458 15.4289C8.00644 15.3781 8.11704 15.3037 8.21 15.21L10.71 12.71C10.801 12.6149 10.8724 12.5028 10.92 12.38C10.9729 12.2603 11.0002 12.1309 11.0002 12C11.0002 11.8691 10.9729 11.7397 10.92 11.62C10.8724 11.4972 10.801 11.3851 10.71 11.29ZM21 11H16.41L17.21 10.21C17.3032 10.1168 17.3772 10.0061 17.4277 9.88425C17.4781 9.76243 17.5041 9.63186 17.5041 9.5C17.5041 9.36814 17.4781 9.23757 17.4277 9.11575C17.3772 8.99393 17.3032 8.88324 17.21 8.79C17.1168 8.69676 17.0061 8.6228 16.8842 8.57234C16.7624 8.52188 16.6319 8.49591 16.5 8.49591C16.3681 8.49591 16.2376 8.52188 16.1158 8.57234C15.9939 8.6228 15.8832 8.69676 15.79 8.79L13.29 11.29C13.1963 11.383 13.1219 11.4936 13.0711 11.6154C13.0203 11.7373 12.9942 11.868 12.9942 12C12.9942 12.132 13.0203 12.2627 13.0711 12.3846C13.1219 12.5064 13.1963 12.617 13.29 12.71L15.79 15.21C15.883 15.3037 15.9936 15.3781 16.1154 15.4289C16.2373 15.4797 16.368 15.5058 16.5 15.5058C16.632 15.5058 16.7627 15.4797 16.8846 15.4289C17.0064 15.3781 17.117 15.3037 17.21 15.21C17.3037 15.117 17.3781 15.0064 17.4289 14.8846C17.4797 14.7627 17.5058 14.632 17.5058 14.5C17.5058 14.368 17.4797 14.2373 17.4289 14.1154C17.3781 13.9936 17.3037 13.883 17.21 13.79L16.41 13H21C21.2652 13 21.5196 12.8946 21.7071 12.7071C21.8946 12.5196 22 12.2652 22 12C22 11.7348 21.8946 11.4804 21.7071 11.2929C21.5196 11.1054 21.2652 11 21 11Z" />
</svg>
