<svg width="24" height="24" viewBox="0 0 24 24" xmlns="http://www.w3.org/2000/svg">
<path d="M19.92 10.12C19.8724 9.99725 19.801 9.8851 19.71 9.79L16.71 6.79C16.6168 6.69676 16.5061 6.6228 16.3842 6.57234C16.2624 6.52188 16.1319 6.49591 16 6.49591C15.7337 6.49591 15.4783 6.6017 15.29 6.79C15.1968 6.88324 15.1228 6.99393 15.0723 7.11575C15.0219 7.23757 14.9959 7.36814 14.9959 7.5C14.9959 7.7663 15.1017 8.0217 15.29 8.21L16.59 9.5H7C6.20435 9.5 5.44129 9.81607 4.87868 10.3787C4.31607 10.9413 4 11.7044 4 12.5V16.5C4 16.7652 4.10536 17.0196 4.29289 17.2071C4.48043 17.3946 4.73478 17.5 5 17.5C5.26522 17.5 5.51957 17.3946 5.70711 17.2071C5.89464 17.0196 6 16.7652 6 16.5V12.5C6 12.2348 6.10536 11.9804 6.29289 11.7929C6.48043 11.6054 6.73478 11.5 7 11.5H16.59L15.29 12.79C15.1963 12.883 15.1219 12.9936 15.0711 13.1154C15.0203 13.2373 14.9942 13.368 14.9942 13.5C14.9942 13.632 15.0203 13.7627 15.0711 13.8846C15.1219 14.0064 15.1963 14.117 15.29 14.21C15.383 14.3037 15.4936 14.3781 15.6154 14.4289C15.7373 14.4797 15.868 14.5058 16 14.5058C16.132 14.5058 16.2627 14.4797 16.3846 14.4289C16.5064 14.3781 16.617 14.3037 16.71 14.21L19.71 11.21C19.801 11.1149 19.8724 11.0028 19.92 10.88C20.02 10.6365 20.02 10.3635 19.92 10.12Z" />
</svg>
