<svg width="24" height="24" viewBox="0 0 24 24" xmlns="http://www.w3.org/2000/svg">
<path d="M4.70994 6.29C4.52164 6.1017 4.26624 5.99591 3.99994 5.99591C3.73364 5.99591 3.47824 6.1017 3.28994 6.29C3.10164 6.47831 2.99585 6.7337 2.99585 7C2.99585 7.2663 3.10164 7.5217 3.28994 7.71L7.58994 12L3.28994 16.29C3.19621 16.383 3.12182 16.4936 3.07105 16.6154C3.02028 16.7373 2.99414 16.868 2.99414 17C2.99414 17.132 3.02028 17.2627 3.07105 17.3846C3.12182 17.5064 3.19621 17.617 3.28994 17.71C3.3829 17.8037 3.4935 17.8781 3.61536 17.9289C3.73722 17.9797 3.86793 18.0058 3.99994 18.0058C4.13195 18.0058 4.26266 17.9797 4.38452 17.9289C4.50638 17.8781 4.61698 17.8037 4.70994 17.71L9.70994 12.71C9.80367 12.617 9.87806 12.5064 9.92883 12.3846C9.9796 12.2627 10.0057 12.132 10.0057 12C10.0057 11.868 9.9796 11.7373 9.92883 11.6154C9.87806 11.4936 9.80367 11.383 9.70994 11.29L4.70994 6.29ZM16.4099 12L20.7099 7.71C20.8982 7.5217 21.004 7.2663 21.004 7C21.004 6.7337 20.8982 6.47831 20.7099 6.29C20.5216 6.1017 20.2662 5.99591 19.9999 5.99591C19.7336 5.99591 19.4782 6.1017 19.2899 6.29L14.2899 11.29C14.1962 11.383 14.1218 11.4936 14.071 11.6154C14.0203 11.7373 13.9941 11.868 13.9941 12C13.9941 12.132 14.0203 12.2627 14.071 12.3846C14.1218 12.5064 14.1962 12.617 14.2899 12.71L19.2899 17.71C19.3829 17.8037 19.4935 17.8781 19.6154 17.9289C19.7372 17.9797 19.8679 18.0058 19.9999 18.0058C20.132 18.0058 20.2627 17.9797 20.3845 17.9289C20.5064 17.8781 20.617 17.8037 20.7099 17.71C20.8037 17.617 20.8781 17.5064 20.9288 17.3846C20.9796 17.2627 21.0057 17.132 21.0057 17C21.0057 16.868 20.9796 16.7373 20.9288 16.6154C20.8781 16.4936 20.8037 16.383 20.7099 16.29L16.4099 12Z" />
</svg>
