<svg width="24" height="24" viewBox="0 0 24 24" xmlns="http://www.w3.org/2000/svg">
<path d="M20.9998 4.31H11.6298C10.3037 4.31 9.03196 4.83679 8.09428 5.77447C7.1566 6.71215 6.62982 7.98392 6.62982 9.31V16.31L3.70982 13.35C3.61685 13.2563 3.50625 13.1819 3.38439 13.1311C3.26253 13.0803 3.13183 13.0542 2.99982 13.0542C2.8678 13.0542 2.7371 13.0803 2.61524 13.1311C2.49338 13.1819 2.38278 13.2563 2.28982 13.35C2.10357 13.5374 1.99902 13.7908 1.99902 14.055C1.99902 14.3192 2.10357 14.5726 2.28982 14.76L6.91982 19.39C7.01402 19.4846 7.12623 19.5594 7.24982 19.61C7.36952 19.6629 7.49895 19.6902 7.62982 19.6902C7.76069 19.6902 7.89012 19.6629 8.00982 19.61C8.13135 19.5556 8.2429 19.4813 8.33982 19.39L12.9998 14.76C13.1636 14.5687 13.2492 14.3226 13.2395 14.071C13.2298 13.8193 13.1255 13.5805 12.9474 13.4024C12.7693 13.2243 12.5305 13.12 12.2789 13.1103C12.0272 13.1006 11.7811 13.1862 11.5898 13.35L8.62982 16.27V9.27C8.62982 8.47436 8.94589 7.71129 9.5085 7.14868C10.0711 6.58607 10.8342 6.27 11.6298 6.27H20.9998C21.265 6.27 21.5194 6.16465 21.7069 5.97711C21.8945 5.78957 21.9998 5.53522 21.9998 5.27C21.9998 5.00479 21.8945 4.75043 21.7069 4.5629C21.5194 4.37536 21.265 4.27 20.9998 4.27V4.31Z" />
</svg>
