<svg width="24" height="24" viewBox="0 0 24 24" xmlns="http://www.w3.org/2000/svg">
<path d="M11.2902 10.21C11.3831 10.3037 11.4937 10.3781 11.6156 10.4289C11.7375 10.4797 11.8682 10.5058 12.0002 10.5058C12.1322 10.5058 12.2629 10.4797 12.3848 10.4289C12.5066 10.3781 12.6172 10.3037 12.7102 10.21L15.7102 7.21C15.8985 7.0217 16.0043 6.7663 16.0043 6.5C16.0043 6.2337 15.8985 5.97831 15.7102 5.79C15.5219 5.6017 15.2665 5.49591 15.0002 5.49591C14.7339 5.49591 14.4785 5.6017 14.2902 5.79L12.0002 8.09L9.71019 5.79C9.52188 5.6017 9.26649 5.49591 9.00019 5.49591C8.73388 5.49591 8.47849 5.6017 8.29019 5.79C8.10188 5.97831 7.99609 6.2337 7.99609 6.5C7.99609 6.7663 8.10188 7.0217 8.29019 7.21L11.2902 10.21ZM12.7102 14.79C12.6172 14.6963 12.5066 14.6219 12.3848 14.5711C12.2629 14.5203 12.1322 14.4942 12.0002 14.4942C11.8682 14.4942 11.7375 14.5203 11.6156 14.5711C11.4937 14.6219 11.3831 14.6963 11.2902 14.79L8.29019 17.79C8.10188 17.9783 7.99609 18.2337 7.99609 18.5C7.99609 18.7663 8.10188 19.0217 8.29019 19.21C8.47849 19.3983 8.73388 19.5041 9.00019 19.5041C9.26649 19.5041 9.52188 19.3983 9.71019 19.21L12.0002 16.91L14.2902 19.21C14.3831 19.3037 14.4937 19.3781 14.6156 19.4289C14.7375 19.4797 14.8682 19.5058 15.0002 19.5058C15.1322 19.5058 15.2629 19.4797 15.3848 19.4289C15.5066 19.3781 15.6172 19.3037 15.7102 19.21C15.8039 19.117 15.8783 19.0064 15.9291 18.8846C15.9798 18.7627 16.006 18.632 16.006 18.5C16.006 18.368 15.9798 18.2373 15.9291 18.1154C15.8783 17.9936 15.8039 17.883 15.7102 17.79L12.7102 14.79Z" />
</svg>
