<svg width="24" height="24" viewBox="0 0 24 24" xmlns="http://www.w3.org/2000/svg">
<path d="M11.2902 9.71C11.3831 9.80373 11.4937 9.87812 11.6156 9.92889C11.7375 9.97966 11.8682 10.0058 12.0002 10.0058C12.1322 10.0058 12.2629 9.97966 12.3848 9.92889C12.5066 9.87812 12.6172 9.80373 12.7102 9.71L17.7102 4.71C17.8985 4.5217 18.0043 4.2663 18.0043 4C18.0043 3.7337 17.8985 3.47831 17.7102 3.29C17.5219 3.1017 17.2665 2.99591 17.0002 2.99591C16.7339 2.99591 16.4785 3.1017 16.2902 3.29L12.0002 7.59L7.71019 3.29C7.52188 3.1017 7.26649 2.99591 7.00019 2.99591C6.73388 2.99591 6.47849 3.1017 6.29019 3.29C6.10188 3.47831 5.99609 3.7337 5.99609 4C5.99609 4.2663 6.10188 4.5217 6.29019 4.71L11.2902 9.71ZM12.7102 14.29C12.6172 14.1963 12.5066 14.1219 12.3848 14.0711C12.2629 14.0203 12.1322 13.9942 12.0002 13.9942C11.8682 13.9942 11.7375 14.0203 11.6156 14.0711C11.4937 14.1219 11.3831 14.1963 11.2902 14.29L6.29019 19.29C6.10188 19.4783 5.99609 19.7337 5.99609 20C5.99609 20.2663 6.10188 20.5217 6.29019 20.71C6.47849 20.8983 6.73388 21.0041 7.00019 21.0041C7.26649 21.0041 7.52188 20.8983 7.71019 20.71L12.0002 16.41L16.2902 20.71C16.3831 20.8037 16.4937 20.8781 16.6156 20.9289C16.7375 20.9797 16.8682 21.0058 17.0002 21.0058C17.1322 21.0058 17.2629 20.9797 17.3848 20.9289C17.5066 20.8781 17.6172 20.8037 17.7102 20.71C17.8039 20.617 17.8783 20.5064 17.9291 20.3846C17.9798 20.2627 18.006 20.132 18.006 20C18.006 19.868 17.9798 19.7373 17.9291 19.6154C17.8783 19.4936 17.8039 19.383 17.7102 19.29L12.7102 14.29Z" />
</svg>
