<svg width="24" height="24" viewBox="0 0 24 24" xmlns="http://www.w3.org/2000/svg">
<path d="M12 2C10.0222 2 8.08879 2.58649 6.4443 3.6853C4.79981 4.78412 3.51809 6.3459 2.76121 8.17317C2.00433 10.0004 1.8063 12.0111 2.19215 13.9509C2.578 15.8907 3.53041 17.6725 4.92894 19.0711C6.32746 20.4696 8.10929 21.422 10.0491 21.8079C11.9889 22.1937 13.9996 21.9957 15.8268 21.2388C17.6541 20.4819 19.2159 19.2002 20.3147 17.5557C21.4135 15.9112 22 13.9778 22 12C22 10.6868 21.7413 9.38642 21.2388 8.17317C20.7363 6.95991 19.9997 5.85752 19.0711 4.92893C18.1425 4.00035 17.0401 3.26375 15.8268 2.7612C14.6136 2.25866 13.3132 2 12 2ZM12 20C10.4178 20 8.87104 19.5308 7.55544 18.6518C6.23985 17.7727 5.21447 16.5233 4.60897 15.0615C4.00347 13.5997 3.84504 11.9911 4.15372 10.4393C4.4624 8.88743 5.22433 7.46197 6.34315 6.34315C7.46197 5.22433 8.88743 4.4624 10.4393 4.15372C11.9911 3.84504 13.5997 4.00346 15.0615 4.60896C16.5233 5.21447 17.7727 6.23984 18.6518 7.55544C19.5308 8.87103 20 10.4177 20 12C20 14.1217 19.1572 16.1566 17.6569 17.6569C16.1566 19.1571 14.1217 20 12 20ZM10 9C10 8.80222 9.94136 8.60888 9.83147 8.44443C9.72159 8.27998 9.56541 8.15181 9.38269 8.07612C9.19996 8.00043 8.9989 7.98063 8.80491 8.01921C8.61093 8.0578 8.43275 8.15304 8.2929 8.29289C8.15305 8.43275 8.0578 8.61093 8.01922 8.80491C7.98063 8.99889 8.00044 9.19996 8.07612 9.38268C8.15181 9.56541 8.27998 9.72159 8.44443 9.83147C8.60888 9.94135 8.80222 10 9 10C9.26522 10 9.51957 9.89464 9.70711 9.70711C9.89465 9.51957 10 9.26522 10 9ZM15 8C14.8022 8 14.6089 8.05865 14.4444 8.16853C14.28 8.27841 14.1518 8.43459 14.0761 8.61732C14.0004 8.80004 13.9806 9.00111 14.0192 9.19509C14.0578 9.38907 14.153 9.56725 14.2929 9.70711C14.4328 9.84696 14.6109 9.9422 14.8049 9.98079C14.9989 10.0194 15.2 9.99957 15.3827 9.92388C15.5654 9.84819 15.7216 9.72002 15.8315 9.55557C15.9414 9.39112 16 9.19778 16 9C16 8.73478 15.8946 8.48043 15.7071 8.29289C15.5196 8.10536 15.2652 8 15 8ZM12 11C11.1061 11.0365 10.2628 11.4248 9.65396 12.0805C9.04516 12.7361 8.72023 13.6058 8.75 14.5C8.72023 15.3942 9.04516 16.2639 9.65396 16.9195C10.2628 17.5752 11.1061 17.9635 12 18C12.894 17.9635 13.7373 17.5752 14.3461 16.9195C14.9548 16.2639 15.2798 15.3942 15.25 14.5C15.2798 13.6058 14.9548 12.7361 14.3461 12.0805C13.7373 11.4248 12.894 11.0365 12 11ZM12 16C11.6363 15.9645 11.3012 15.7872 11.0673 15.5064C10.8333 15.2257 10.7194 14.8641 10.75 14.5C10.7194 14.1359 10.8333 13.7743 11.0673 13.4936C11.3012 13.2128 11.6363 13.0355 12 13C12.3637 13.0355 12.6988 13.2128 12.9327 13.4936C13.1667 13.7743 13.2807 14.1359 13.25 14.5C13.2807 14.8641 13.1667 15.2257 12.9327 15.5064C12.6988 15.7872 12.3637 15.9645 12 16Z" />
</svg>
