<svg width="24" height="24" viewBox="0 0 24 24" xmlns="http://www.w3.org/2000/svg">
<path d="M14.66 13.56L10.47 15.06C10.2498 15.1399 10.0646 15.2945 9.94677 15.497C9.82893 15.6994 9.78589 15.9368 9.82517 16.1678C9.86446 16.3987 9.98356 16.6085 10.1617 16.7606C10.3399 16.9127 10.5658 16.9974 10.8 17C10.916 16.9999 11.031 16.9796 11.14 16.94L15.34 15.44C15.467 15.3981 15.5842 15.3312 15.6849 15.2431C15.7855 15.1551 15.8675 15.0478 15.926 14.9276C15.9844 14.8073 16.0182 14.6766 16.0252 14.5431C16.0323 14.4095 16.0125 14.276 15.967 14.1502C15.9215 14.0245 15.8513 13.9092 15.7604 13.8111C15.6696 13.7129 15.56 13.634 15.4382 13.579C15.3163 13.524 15.1847 13.4939 15.051 13.4907C14.9174 13.4874 14.7844 13.511 14.66 13.56ZM10.66 10.56C10.8463 10.3726 10.9508 10.1192 10.9508 9.855C10.9508 9.59081 10.8463 9.33736 10.66 9.15C10.0877 8.60699 9.3289 8.30428 8.54 8.30428C7.75111 8.30428 6.99228 8.60699 6.42 9.15C6.31532 9.23965 6.2303 9.34996 6.17028 9.47403C6.11026 9.59809 6.07653 9.73323 6.07121 9.87095C6.06589 10.0087 6.08909 10.146 6.13937 10.2743C6.18964 10.4026 6.2659 10.5192 6.36335 10.6167C6.46081 10.7141 6.57736 10.7904 6.70568 10.8406C6.83401 10.8909 6.97134 10.9141 7.10906 10.9088C7.24678 10.9035 7.38191 10.8697 7.50597 10.8097C7.63004 10.7497 7.74036 10.6647 7.83 10.56C7.92297 10.4663 8.03357 10.3919 8.15543 10.3411C8.27729 10.2903 8.40799 10.2642 8.54 10.2642C8.67202 10.2642 8.80272 10.2903 8.92458 10.3411C9.04644 10.3919 9.15704 10.4663 9.25 10.56C9.43737 10.7463 9.69082 10.8508 9.955 10.8508C10.2192 10.8508 10.4726 10.7463 10.66 10.56ZM17.66 9.15C17.0877 8.60699 16.3289 8.30428 15.54 8.30428C14.7511 8.30428 13.9923 8.60699 13.42 9.15C13.2562 9.3413 13.1706 9.58738 13.1803 9.83905C13.19 10.0907 13.2943 10.3295 13.4724 10.5076C13.6505 10.6857 13.8893 10.79 14.141 10.7997C14.3926 10.8094 14.6387 10.7238 14.83 10.56C14.923 10.4663 15.0336 10.3919 15.1554 10.3411C15.2773 10.2903 15.408 10.2642 15.54 10.2642C15.672 10.2642 15.8027 10.2903 15.9246 10.3411C16.0464 10.3919 16.157 10.4663 16.25 10.56C16.4374 10.7463 16.6908 10.8508 16.955 10.8508C17.2192 10.8508 17.4726 10.7463 17.66 10.56C17.7527 10.4642 17.8253 10.3509 17.8736 10.2267C17.9218 10.1024 17.9448 9.96981 17.941 9.83658C17.9373 9.70335 17.907 9.57222 17.8519 9.45087C17.7967 9.32953 17.7179 9.22044 17.62 9.13L17.66 9.15ZM12 2C10.0222 2 8.08879 2.58649 6.4443 3.6853C4.79981 4.78412 3.51809 6.3459 2.76121 8.17317C2.00433 10.0004 1.8063 12.0111 2.19215 13.9509C2.578 15.8907 3.53041 17.6725 4.92894 19.0711C6.32746 20.4696 8.10929 21.422 10.0491 21.8079C11.9889 22.1937 13.9996 21.9957 15.8268 21.2388C17.6541 20.4819 19.2159 19.2002 20.3147 17.5557C21.4135 15.9112 22 13.9778 22 12C22 10.6868 21.7413 9.38642 21.2388 8.17317C20.7363 6.95991 19.9997 5.85752 19.0711 4.92893C18.1425 4.00035 17.0401 3.26375 15.8268 2.7612C14.6136 2.25866 13.3132 2 12 2ZM12 20C10.4178 20 8.87104 19.5308 7.55544 18.6518C6.23985 17.7727 5.21447 16.5233 4.60897 15.0615C4.00347 13.5997 3.84504 11.9911 4.15372 10.4393C4.4624 8.88743 5.22433 7.46197 6.34315 6.34315C7.46197 5.22433 8.88743 4.4624 10.4393 4.15372C11.9911 3.84504 13.5997 4.00346 15.0615 4.60896C16.5233 5.21447 17.7727 6.23984 18.6518 7.55544C19.5308 8.87103 20 10.4177 20 12C20 14.1217 19.1572 16.1566 17.6569 17.6569C16.1566 19.1571 14.1217 20 12 20Z" />
</svg>
