<svg width="24" height="24" viewBox="0 0 24 24" xmlns="http://www.w3.org/2000/svg">
<path d="M10 10C10 9.80222 9.94136 9.60888 9.83147 9.44443C9.72159 9.27998 9.56541 9.15181 9.38269 9.07612C9.19996 9.00043 8.9989 8.98063 8.80491 9.01921C8.61093 9.0578 8.43275 9.15304 8.2929 9.29289C8.15305 9.43275 8.0578 9.61093 8.01922 9.80491C7.98063 9.99889 8.00044 10.2 8.07612 10.3827C8.15181 10.5654 8.27998 10.7216 8.44443 10.8315C8.60888 10.9414 8.80222 11 9 11C9.26522 11 9.51957 10.8946 9.70711 10.7071C9.89465 10.5196 10 10.2652 10 10ZM14.5 14.06C14.3865 13.9935 14.2609 13.95 14.1305 13.9321C14.0002 13.9142 13.8675 13.9222 13.7403 13.9556C13.613 13.9891 13.4936 14.0473 13.3889 14.127C13.2841 14.2067 13.1962 14.3062 13.13 14.42C13.0165 14.6196 12.8521 14.7856 12.6536 14.901C12.4551 15.0165 12.2296 15.0773 12 15.0773C11.7704 15.0773 11.5449 15.0165 11.3464 14.901C11.1479 14.7856 10.9835 14.6196 10.87 14.42C10.8038 14.3062 10.7159 14.2067 10.6112 14.127C10.5064 14.0473 10.387 13.9891 10.2597 13.9556C10.1325 13.9222 9.99984 13.9142 9.86947 13.9321C9.73909 13.95 9.61354 13.9935 9.5 14.06C9.27127 14.1919 9.104 14.4089 9.03468 14.6637C8.96537 14.9185 8.99963 15.1904 9.13 15.42C9.42005 15.9248 9.83811 16.3442 10.342 16.6358C10.8459 16.9274 11.4178 17.081 12 17.081C12.5822 17.081 13.1541 16.9274 13.658 16.6358C14.1619 16.3442 14.58 15.9248 14.87 15.42C15.0004 15.1904 15.0346 14.9185 14.9653 14.6637C14.896 14.4089 14.7287 14.1919 14.5 14.06ZM15 9C14.8022 9 14.6089 9.05865 14.4444 9.16853C14.28 9.27841 14.1518 9.43459 14.0761 9.61732C14.0004 9.80004 13.9806 10.0011 14.0192 10.1951C14.0578 10.3891 14.153 10.5673 14.2929 10.7071C14.4328 10.847 14.6109 10.9422 14.8049 10.9808C14.9989 11.0194 15.2 10.9996 15.3827 10.9239C15.5654 10.8482 15.7216 10.72 15.8315 10.5556C15.9414 10.3911 16 10.1978 16 10C16 9.73478 15.8946 9.48043 15.7071 9.29289C15.5196 9.10536 15.2652 9 15 9ZM12 2C10.0222 2 8.08879 2.58649 6.4443 3.6853C4.79981 4.78412 3.51809 6.3459 2.76121 8.17317C2.00433 10.0004 1.8063 12.0111 2.19215 13.9509C2.578 15.8907 3.53041 17.6725 4.92894 19.0711C6.32746 20.4696 8.10929 21.422 10.0491 21.8079C11.9889 22.1937 13.9996 21.9957 15.8268 21.2388C17.6541 20.4819 19.2159 19.2002 20.3147 17.5557C21.4135 15.9112 22 13.9778 22 12C22 10.6868 21.7413 9.38642 21.2388 8.17317C20.7363 6.95991 19.9997 5.85752 19.0711 4.92893C18.1425 4.00035 17.0401 3.26375 15.8268 2.7612C14.6136 2.25866 13.3132 2 12 2ZM12 20C10.1373 20.008 8.33021 19.3658 6.89032 18.1842C5.45043 17.0025 4.46802 15.3554 4.11252 13.5269C3.75702 11.6984 4.05071 9.80322 4.94293 8.16811C5.83516 6.53299 7.27 5.26047 9 4.57C8.98972 4.71315 8.98972 4.85685 9 5C9 5.79565 9.31607 6.55871 9.87868 7.12132C10.4413 7.68393 11.2044 8 12 8C12.2652 8 12.5196 7.89464 12.7071 7.70711C12.8946 7.51957 13 7.26522 13 7C13 6.73478 12.8946 6.48043 12.7071 6.29289C12.5196 6.10536 12.2652 6 12 6C11.7348 6 11.4804 5.89464 11.2929 5.70711C11.1054 5.51957 11 5.26522 11 5C11 4.73478 11.1054 4.48043 11.2929 4.29289C11.4804 4.10536 11.7348 4 12 4C14.1217 4 16.1566 4.84285 17.6569 6.34315C19.1572 7.84344 20 9.87827 20 12C20 14.1217 19.1572 16.1566 17.6569 17.6569C16.1566 19.1571 14.1217 20 12 20Z" />
</svg>
