<svg width="24" height="24" viewBox="0 0 24 24" xmlns="http://www.w3.org/2000/svg">
<path d="M15 11C15.1978 11 15.3911 10.9414 15.5556 10.8315C15.72 10.7216 15.8482 10.5654 15.9239 10.3827C15.9996 10.2 16.0194 9.99889 15.9808 9.80491C15.9422 9.61093 15.847 9.43275 15.7071 9.29289C15.5673 9.15304 15.3891 9.0578 15.1951 9.01921C15.0011 8.98063 14.8 9.00043 14.6173 9.07612C14.4346 9.15181 14.2784 9.27998 14.1685 9.44443C14.0587 9.60888 14 9.80222 14 10C14 10.2652 14.1054 10.5196 14.2929 10.7071C14.4804 10.8946 14.7348 11 15 11ZM9 11C9.19779 11 9.39113 10.9414 9.55557 10.8315C9.72002 10.7216 9.8482 10.5654 9.92388 10.3827C9.99957 10.2 10.0194 9.99889 9.98079 9.80491C9.9422 9.61093 9.84696 9.43275 9.70711 9.29289C9.56726 9.15304 9.38908 9.0578 9.19509 9.01921C9.00111 8.98063 8.80005 9.00043 8.61732 9.07612C8.43459 9.15181 8.27842 9.27998 8.16853 9.44443C8.05865 9.60888 8 9.80222 8 10C8 10.2652 8.10536 10.5196 8.2929 10.7071C8.48043 10.8946 8.73479 11 9 11ZM12 2C10.0222 2 8.08879 2.58649 6.4443 3.6853C4.79981 4.78412 3.51809 6.3459 2.76121 8.17317C2.00433 10.0004 1.8063 12.0111 2.19215 13.9509C2.578 15.8907 3.53041 17.6725 4.92894 19.0711C6.32746 20.4696 8.10929 21.422 10.0491 21.8079C11.9889 22.1937 13.9996 21.9957 15.8268 21.2388C17.6541 20.4819 19.2159 19.2002 20.3147 17.5557C21.4135 15.9112 22 13.9778 22 12C22 10.6868 21.7413 9.38642 21.2388 8.17317C20.7363 6.95991 19.9997 5.85752 19.0711 4.92893C18.1425 4.00035 17.0401 3.26375 15.8268 2.7612C14.6136 2.25866 13.3132 2 12 2ZM12 20C10.4178 20 8.87104 19.5308 7.55544 18.6518C6.23985 17.7727 5.21447 16.5233 4.60897 15.0615C4.00347 13.5997 3.84504 11.9911 4.15372 10.4393C4.4624 8.88743 5.22433 7.46197 6.34315 6.34315C7.46197 5.22433 8.88743 4.4624 10.4393 4.15372C11.9911 3.84504 13.5997 4.00346 15.0615 4.60896C16.5233 5.21447 17.7727 6.23984 18.6518 7.55544C19.5308 8.87103 20 10.4177 20 12C20 14.1217 19.1572 16.1566 17.6569 17.6569C16.1566 19.1571 14.1217 20 12 20ZM16.28 12.88C16.115 12.674 15.8752 12.5415 15.613 12.5115C15.3507 12.4816 15.0872 12.5565 14.88 12.72C14.471 13.0544 14.1658 13.4984 14 14H10.35C10.1878 13.4882 9.88245 13.0336 9.47 12.69C9.26071 12.5432 9.00313 12.4821 8.75019 12.5193C8.49725 12.5565 8.26816 12.6891 8.11 12.89C7.9473 13.0941 7.87087 13.3538 7.89703 13.6135C7.92319 13.8732 8.04987 14.1124 8.25 14.28C8.42512 14.4776 8.51498 14.7364 8.5 15C8.50603 15.2623 8.41726 15.5179 8.25 15.72C8.14291 15.8005 8.05307 15.9016 7.98581 16.0174C7.91856 16.1333 7.87527 16.2615 7.8585 16.3944C7.84173 16.5273 7.85184 16.6622 7.88822 16.7911C7.92459 16.92 7.9865 17.0403 8.07026 17.1448C8.15402 17.2494 8.25792 17.336 8.37581 17.3996C8.4937 17.4632 8.62316 17.5025 8.75652 17.5151C8.88987 17.5277 9.0244 17.5134 9.15212 17.473C9.27984 17.4326 9.39814 17.367 9.5 17.28C9.88998 16.9366 10.1802 16.4944 10.34 16H14C14.1602 16.5153 14.47 16.9713 14.89 17.31C15.0572 17.4267 15.2561 17.4895 15.46 17.49C15.6102 17.4893 15.7583 17.4548 15.8934 17.389C16.0284 17.3232 16.1469 17.2279 16.24 17.11C16.4027 16.9059 16.4791 16.6462 16.453 16.3865C16.4268 16.1268 16.3001 15.8876 16.1 15.72C15.9249 15.5224 15.835 15.2636 15.85 15C15.844 14.7377 15.9327 14.4821 16.1 14.28C16.3091 14.1179 16.4454 13.8796 16.4792 13.6172C16.5129 13.3548 16.4413 13.0897 16.28 12.88Z" />
</svg>
