<svg width="24" height="24" viewBox="0 0 24 24" xmlns="http://www.w3.org/2000/svg">
<path d="M10 11C10.1847 10.9994 10.3656 10.9478 10.5227 10.8507C10.6798 10.7536 10.8069 10.6149 10.89 10.45C11.0086 10.2138 11.0289 9.94031 10.9465 9.68922C10.864 9.43813 10.6855 9.22989 10.45 9.11L8.45 8.11C8.33218 8.0391 8.20099 7.99327 8.06465 7.97536C7.92831 7.95745 7.78974 7.96785 7.6576 8.00592C7.52546 8.04399 7.40259 8.1089 7.29667 8.1966C7.19075 8.2843 7.10406 8.3929 7.04201 8.51562C6.97996 8.63834 6.94389 8.77254 6.93605 8.90983C6.92821 9.04712 6.94877 9.18455 6.99645 9.31353C7.04412 9.44252 7.11789 9.56029 7.21313 9.65947C7.30838 9.75866 7.42306 9.83714 7.55 9.89L9.55 10.89C9.68832 10.964 9.84313 11.0019 10 11ZM12 2C10.0222 2 8.08879 2.58649 6.4443 3.6853C4.79981 4.78412 3.51809 6.3459 2.76121 8.17317C2.00433 10.0004 1.8063 12.0111 2.19215 13.9509C2.578 15.8907 3.53041 17.6725 4.92894 19.0711C6.32746 20.4696 8.10929 21.422 10.0491 21.8079C11.9889 22.1937 13.9996 21.9957 15.8268 21.2388C17.6541 20.4819 19.2159 19.2002 20.3147 17.5557C21.4135 15.9112 22 13.9778 22 12C22 10.6868 21.7413 9.38642 21.2388 8.17317C20.7363 6.95991 19.9997 5.85752 19.0711 4.92893C18.1425 4.00035 17.0401 3.26375 15.8268 2.7612C14.6136 2.25866 13.3132 2 12 2ZM12 20C10.4178 20 8.87104 19.5308 7.55544 18.6518C6.23985 17.7727 5.21447 16.5233 4.60897 15.0615C4.00347 13.5997 3.84504 11.9911 4.15372 10.4393C4.4624 8.88743 5.22433 7.46197 6.34315 6.34315C7.46197 5.22433 8.88743 4.4624 10.4393 4.15372C11.9911 3.84504 13.5997 4.00346 15.0615 4.60896C16.5233 5.21447 17.7727 6.23984 18.6518 7.55544C19.5308 8.87103 20 10.4177 20 12C20 14.1217 19.1572 16.1566 17.6569 17.6569C16.1566 19.1571 14.1217 20 12 20ZM8.36 15.33C8.15844 15.4993 8.03176 15.7412 8.00742 16.0033C7.98308 16.2654 8.06306 16.5265 8.23 16.73C8.31395 16.8313 8.41705 16.915 8.5334 16.9763C8.64975 17.0377 8.77706 17.0755 8.90803 17.0875C9.03901 17.0996 9.17108 17.0857 9.29669 17.0467C9.42229 17.0076 9.53896 16.9442 9.64 16.86C10.3085 16.321 11.1413 16.0271 12 16.0271C12.8587 16.0271 13.6915 16.321 14.36 16.86C14.5399 17.0091 14.7664 17.0905 15 17.09C15.2036 17.088 15.4017 17.0239 15.5679 16.9063C15.734 16.7887 15.8604 16.6231 15.9299 16.4318C15.9995 16.2405 16.009 16.0325 15.9572 15.8356C15.9054 15.6387 15.7947 15.4623 15.64 15.33C14.6081 14.5006 13.3239 14.0484 12 14.0484C10.6761 14.0484 9.39188 14.5006 8.36 15.33ZM15.55 8.11L13.55 9.11C13.3145 9.22989 13.136 9.43813 13.0535 9.68922C12.9711 9.94031 12.9914 10.2138 13.11 10.45C13.1931 10.6149 13.3202 10.7536 13.4773 10.8507C13.6344 10.9478 13.8153 10.9994 14 11C14.1569 11.0019 14.3117 10.964 14.45 10.89L16.45 9.89C16.6664 9.75982 16.8254 9.55261 16.8953 9.30999C16.9652 9.06736 16.9408 8.80727 16.8268 8.58194C16.7129 8.35661 16.518 8.18272 16.2811 8.09518C16.0443 8.00764 15.7831 8.01293 15.55 8.11Z" />
</svg>
