<svg width="24" height="24" viewBox="0 0 24 24" xmlns="http://www.w3.org/2000/svg">
<path d="M19.44 5.34L19.38 5.27C18.443 4.24529 17.3029 3.42694 16.0323 2.86705C14.7617 2.30716 13.3885 2.01801 12 2.01801C10.6115 2.01801 9.23821 2.30716 7.96761 2.86705C6.69701 3.42694 5.55693 4.24529 4.61998 5.27L4.55998 5.34C3.4757 6.54732 2.70152 8.00038 2.30427 9.57375C1.90702 11.1471 1.89863 12.7935 2.27983 14.3709C2.66103 15.9482 3.42036 17.4091 4.49228 18.6274C5.5642 19.8457 6.91651 20.7848 8.43247 21.3638C9.94844 21.9427 11.5825 22.144 13.1937 21.9503C14.8048 21.7566 16.3446 21.1737 17.6802 20.2519C19.0157 19.3302 20.1069 18.0973 20.8595 16.6596C21.6121 15.222 22.0035 13.6227 22 12C22.0012 9.5395 21.089 7.16617 19.44 5.34ZM12 4C13.3512 3.99645 14.6805 4.34083 15.86 5H8.13998C9.31947 4.34083 10.6488 3.99645 12 4ZM5.75998 7H18.24C19.1613 8.15202 19.7462 9.53635 19.93 11H4.06998C4.25375 9.53635 4.83863 8.15202 5.75998 7ZM12 20C10.0527 19.9982 8.17289 19.2863 6.71301 17.9976C5.25312 16.7089 4.31339 14.932 4.06998 13H19.93C19.6866 14.932 18.7468 16.7089 17.2869 17.9976C15.8271 19.2863 13.9473 19.9982 12 20ZM7.99998 8C7.8022 8 7.60886 8.05865 7.44441 8.16853C7.27996 8.27841 7.15178 8.43459 7.0761 8.61731C7.00041 8.80004 6.98061 9.00111 7.01919 9.19509C7.05778 9.38907 7.15302 9.56725 7.29287 9.7071C7.43272 9.84696 7.6109 9.9422 7.80489 9.98078C7.99887 10.0194 8.19993 9.99957 8.38266 9.92388C8.56539 9.84819 8.72156 9.72002 8.83145 9.55557C8.94133 9.39112 8.99998 9.19778 8.99998 9C8.99998 8.73478 8.89462 8.48043 8.70708 8.29289C8.51955 8.10536 8.26519 8 7.99998 8ZM14 8C13.8022 8 13.6089 8.05865 13.4444 8.16853C13.28 8.27841 13.1518 8.43459 13.0761 8.61731C13.0004 8.80004 12.9806 9.00111 13.0192 9.19509C13.0578 9.38907 13.153 9.56725 13.2929 9.7071C13.4327 9.84696 13.6109 9.9422 13.8049 9.98078C13.9989 10.0194 14.1999 9.99957 14.3827 9.92388C14.5654 9.84819 14.7216 9.72002 14.8314 9.55557C14.9413 9.39112 15 9.19778 15 9C15 8.73478 14.8946 8.48043 14.7071 8.29289C14.5195 8.10536 14.2652 8 14 8ZM11 17.93C11.1494 18.0147 11.3182 18.0595 11.49 18.06C11.6672 18.0597 11.8411 18.0123 11.994 17.9227C12.1468 17.8331 12.2731 17.7045 12.36 17.55C12.6203 17.0784 13.0029 16.6856 13.4674 16.4129C13.9319 16.1402 14.4613 15.9975 15 16C15.2652 16 15.5195 15.8946 15.7071 15.7071C15.8946 15.5196 16 15.2652 16 15C16 14.7348 15.8946 14.4804 15.7071 14.2929C15.5195 14.1054 15.2652 14 15 14C14.1086 14 13.2334 14.2382 12.4651 14.6901C11.6968 15.1419 11.0632 15.791 10.63 16.57C10.4996 16.7996 10.4653 17.0715 10.5347 17.3263C10.604 17.581 10.7712 17.7981 11 17.93Z" />
</svg>
