<svg width="24" height="24" viewBox="0 0 24 24" xmlns="http://www.w3.org/2000/svg">
<path d="M21.4101 8.65C21.4101 8.65 21.4101 8.65 21.4101 8.59C20.7116 6.66395 19.4385 4.9989 17.7628 3.8201C16.0871 2.64129 14.0898 2.00562 12.041 1.99907C9.99225 1.99253 7.99092 2.61542 6.30774 3.7835C4.62457 4.95157 3.34078 6.60845 2.63006 8.53C2.59157 8.60556 2.5646 8.68646 2.55006 8.77C2.18805 9.80851 2.00215 10.9002 2.00006 12C1.99511 13.46 2.30993 14.9034 2.9224 16.2288C3.53487 17.5542 4.43014 18.7293 5.54529 19.6718C6.66045 20.6142 7.96844 21.301 9.37738 21.6839C10.7863 22.0668 12.262 22.1365 13.7008 21.8882C15.1395 21.6399 16.5065 21.0795 17.7055 20.2465C18.9046 19.4135 19.9067 18.328 20.6415 17.0663C21.3762 15.8046 21.8258 14.3973 21.9586 12.9433C22.0913 11.4893 21.9041 10.0239 21.4101 8.65ZM12.0001 4C13.403 4.00144 14.7808 4.37177 15.9954 5.07385C17.21 5.77592 18.2186 6.78505 18.9201 8H17.7201C17.4227 7.67313 17.0568 7.416 16.6485 7.24696C16.2402 7.07793 15.7996 7.00118 15.3583 7.0222C14.9169 7.04322 14.4856 7.16149 14.0952 7.36855C13.7048 7.57561 13.365 7.86636 13.1001 8.22C12.7494 8.08186 12.3769 8.00736 12.0001 8C11.6232 8.00736 11.2507 8.08186 10.9001 8.22C10.6351 7.86636 10.2953 7.57561 9.90492 7.36855C9.51454 7.16149 9.08325 7.04322 8.64186 7.0222C8.20047 7.00118 7.75989 7.07793 7.3516 7.24696C6.94332 7.416 6.57742 7.67313 6.28006 8H5.08006C5.78151 6.78505 6.79012 5.77592 8.00471 5.07385C9.2193 4.37177 10.5972 4.00144 12.0001 4ZM16.5001 10C16.5001 10.1978 16.4414 10.3911 16.3315 10.5556C16.2216 10.72 16.0655 10.8482 15.8827 10.9239C15.7 10.9996 15.4989 11.0194 15.305 10.9808C15.111 10.9422 14.9328 10.847 14.793 10.7071C14.6531 10.5673 14.5579 10.3891 14.5193 10.1951C14.4807 10.0011 14.5005 9.80004 14.5762 9.61732C14.6519 9.43459 14.78 9.27841 14.9445 9.16853C15.1089 9.05865 15.3023 9 15.5001 9C15.7653 9 16.0196 9.10536 16.2072 9.29289C16.3947 9.48043 16.5001 9.73478 16.5001 10ZM9.50006 10C9.50006 10.1978 9.44141 10.3911 9.33153 10.5556C9.22165 10.72 9.06547 10.8482 8.88274 10.9239C8.70002 10.9996 8.49895 11.0194 8.30497 10.9808C8.11099 10.9422 7.9328 10.847 7.79295 10.7071C7.6531 10.5673 7.55786 10.3891 7.51927 10.1951C7.48069 10.0011 7.50049 9.80004 7.57618 9.61732C7.65187 9.43459 7.78004 9.27841 7.94449 9.16853C8.10894 9.05865 8.30228 9 8.50006 9C8.76527 9 9.01963 9.10536 9.20716 9.29289C9.3947 9.48043 9.50006 9.73478 9.50006 10ZM12.0001 20C9.87833 20 7.84349 19.1571 6.3432 17.6569C4.84291 16.1566 4.00006 14.1217 4.00006 12C4.0045 11.3252 4.09182 10.6535 4.26006 10H5.50006C5.47619 10.7956 5.76937 11.5682 6.3151 12.1477C6.86083 12.7272 7.61441 13.0661 8.41006 13.09C9.20571 13.1139 9.97825 12.8207 10.5577 12.275C11.1372 11.7292 11.4762 10.9756 11.5001 10.18C11.6521 10.0922 11.8245 10.046 12.0001 10.046C12.1756 10.046 12.348 10.0922 12.5001 10.18C12.5239 10.9756 12.8629 11.7292 13.4424 12.275C14.0219 12.8207 14.7944 13.1139 15.5901 13.09C16.3857 13.0661 17.1393 12.7272 17.685 12.1477C18.2307 11.5682 18.5239 10.7956 18.5001 10H19.7401C19.9083 10.6535 19.9956 11.3252 20.0001 12C20.0001 14.1217 19.1572 16.1566 17.6569 17.6569C16.1566 19.1571 14.1218 20 12.0001 20ZM14.3601 14.23C13.6916 14.769 12.8588 15.0629 12.0001 15.0629C11.1414 15.0629 10.3085 14.769 9.64006 14.23C9.43584 14.0603 9.17256 13.9786 8.90813 14.003C8.64371 14.0274 8.3998 14.1558 8.23006 14.36C8.06032 14.5642 7.97866 14.8275 8.00304 15.0919C8.02742 15.3563 8.15584 15.6003 8.36006 15.77C9.3814 16.6226 10.6696 17.0896 12.0001 17.0896C13.3305 17.0896 14.6187 16.6226 15.6401 15.77C15.8443 15.6003 15.9727 15.3563 15.9971 15.0919C16.0215 14.8275 15.9398 14.5642 15.7701 14.36C15.686 14.2589 15.5829 14.1753 15.4665 14.1141C15.3502 14.0528 15.2229 14.0151 15.092 14.003C14.8276 13.9786 14.5643 14.0603 14.3601 14.23Z" />
</svg>
