<svg width="24" height="24" viewBox="0 0 24 24" xmlns="http://www.w3.org/2000/svg">
<path d="M9 11C9.19779 11 9.39113 10.9414 9.55557 10.8315C9.72002 10.7216 9.8482 10.5654 9.92388 10.3827C9.99957 10.2 10.0194 9.99889 9.98079 9.80491C9.9422 9.61093 9.84696 9.43275 9.70711 9.29289C9.56726 9.15304 9.38908 9.0578 9.19509 9.01921C9.00111 8.98063 8.80005 9.00043 8.61732 9.07612C8.43459 9.15181 8.27842 9.27998 8.16853 9.44443C8.05865 9.60888 8 9.80222 8 10C8 10.2652 8.10536 10.5196 8.2929 10.7071C8.48043 10.8946 8.73479 11 9 11ZM15 11C15.1978 11 15.3911 10.9414 15.5556 10.8315C15.72 10.7216 15.8482 10.5654 15.9239 10.3827C15.9996 10.2 16.0194 9.99889 15.9808 9.80491C15.9422 9.61093 15.847 9.43275 15.7071 9.29289C15.5673 9.15304 15.3891 9.0578 15.1951 9.01921C15.0011 8.98063 14.8 9.00043 14.6173 9.07612C14.4346 9.15181 14.2784 9.27998 14.1685 9.44443C14.0587 9.60888 14 9.80222 14 10C14 10.2652 14.1054 10.5196 14.2929 10.7071C14.4804 10.8946 14.7348 11 15 11ZM15.27 14.2C15.0969 14.0702 14.8864 14 14.67 14C14.4536 14 14.2431 14.0702 14.07 14.2L13.33 14.75L12.6 14.2C12.4269 14.0702 12.2164 14 12 14C11.7836 14 11.5731 14.0702 11.4 14.2L10.67 14.75L9.93 14.2C9.75691 14.0702 9.54637 14 9.33 14C9.11363 14 8.9031 14.0702 8.73 14.2L7.4 15.2C7.29495 15.2788 7.20644 15.3775 7.13953 15.4905C7.07262 15.6035 7.02863 15.7286 7.01005 15.8586C6.97255 16.1211 7.04087 16.3878 7.2 16.6C7.35913 16.8122 7.59603 16.9524 7.85858 16.99C8.12113 17.0275 8.38783 16.9591 8.6 16.8L9.33 16.25L10.07 16.8L10.19 16.86C10.2592 16.8969 10.3333 16.9239 10.41 16.94H10.53C10.613 16.9505 10.697 16.9505 10.78 16.94H10.88C11.002 16.9073 11.1171 16.8532 11.22 16.78L11.95 16.23L12.68 16.78C12.8221 16.8851 12.9895 16.9506 13.1652 16.9699C13.3408 16.9892 13.5185 16.9617 13.68 16.89L13.78 16.84C13.8197 16.8261 13.8568 16.8058 13.89 16.78L14.63 16.23L15.36 16.78C15.5331 16.9098 15.7436 16.98 15.96 16.98C16.1152 16.98 16.2684 16.9439 16.4072 16.8744C16.5461 16.805 16.6669 16.7042 16.76 16.58C16.9191 16.3678 16.9875 16.1011 16.95 15.8386C16.9124 15.576 16.7722 15.3391 16.56 15.18L15.27 14.2ZM12 2C10.0222 2 8.08879 2.58649 6.4443 3.6853C4.79981 4.78412 3.51809 6.3459 2.76121 8.17317C2.00433 10.0004 1.8063 12.0111 2.19215 13.9509C2.578 15.8907 3.53041 17.6725 4.92894 19.0711C6.32746 20.4696 8.10929 21.422 10.0491 21.8079C11.9889 22.1937 13.9996 21.9957 15.8268 21.2388C17.6541 20.4819 19.2159 19.2002 20.3147 17.5557C21.4135 15.9112 22 13.9778 22 12C22 10.6868 21.7413 9.38642 21.2388 8.17317C20.7363 6.95991 19.9997 5.85752 19.0711 4.92893C18.1425 4.00035 17.0401 3.26375 15.8268 2.7612C14.6136 2.25866 13.3132 2 12 2ZM12 20C10.4178 20 8.87104 19.5308 7.55544 18.6518C6.23985 17.7727 5.21447 16.5233 4.60897 15.0615C4.00347 13.5997 3.84504 11.9911 4.15372 10.4393C4.4624 8.88743 5.22433 7.46197 6.34315 6.34315C7.46197 5.22433 8.88743 4.4624 10.4393 4.15372C11.9911 3.84504 13.5997 4.00346 15.0615 4.60896C16.5233 5.21447 17.7727 6.23984 18.6518 7.55544C19.5308 8.87103 20 10.4177 20 12C20 14.1217 19.1572 16.1566 17.6569 17.6569C16.1566 19.1571 14.1217 20 12 20Z" />
</svg>
