<svg width="24" height="24" viewBox="0 0 24 24" xmlns="http://www.w3.org/2000/svg">
<path d="M8.36 15.33C8.15844 15.4993 8.03176 15.7412 8.00742 16.0033C7.98308 16.2654 8.06306 16.5265 8.23 16.73C8.31395 16.8313 8.41705 16.915 8.5334 16.9763C8.64975 17.0377 8.77706 17.0755 8.90803 17.0875C9.03901 17.0996 9.17108 17.0857 9.29669 17.0467C9.42229 17.0076 9.53896 16.9442 9.64 16.86C10.3085 16.321 11.1413 16.0271 12 16.0271C12.8587 16.0271 13.6915 16.321 14.36 16.86C14.4611 16.9442 14.5777 17.0076 14.7033 17.0467C14.8289 17.0857 14.961 17.0996 15.092 17.0875C15.223 17.0755 15.3503 17.0377 15.4666 16.9763C15.583 16.915 15.6861 16.8313 15.77 16.73C15.9369 16.5265 16.0169 16.2654 15.9926 16.0033C15.9683 15.7412 15.8416 15.4993 15.64 15.33C14.6081 14.5006 13.3239 14.0484 12 14.0484C10.6761 14.0484 9.39188 14.5006 8.36 15.33ZM9 11C9.19779 11 9.39113 10.9414 9.55557 10.8315C9.72002 10.7216 9.8482 10.5654 9.92388 10.3827C9.99957 10.2 10.0194 9.99889 9.98079 9.80491C9.9422 9.61093 9.84696 9.43275 9.70711 9.29289C9.56726 9.15304 9.38908 9.0578 9.19509 9.01921C9.00111 8.98063 8.80005 9.00043 8.61732 9.07612C8.43459 9.15181 8.27842 9.27998 8.16853 9.44443C8.05865 9.60888 8 9.80222 8 10C8 10.2652 8.10536 10.5196 8.2929 10.7071C8.48043 10.8946 8.73479 11 9 11ZM12 2C10.0222 2 8.08879 2.58649 6.4443 3.6853C4.79981 4.78412 3.51809 6.3459 2.76121 8.17317C2.00433 10.0004 1.8063 12.0111 2.19215 13.9509C2.578 15.8907 3.53041 17.6725 4.92894 19.0711C6.32746 20.4696 8.10929 21.422 10.0491 21.8079C11.9889 22.1937 13.9996 21.9957 15.8268 21.2388C17.6541 20.4819 19.2159 19.2002 20.3147 17.5557C21.4135 15.9112 22 13.9778 22 12C22 10.6868 21.7413 9.38642 21.2388 8.17317C20.7363 6.95991 19.9997 5.85752 19.0711 4.92893C18.1425 4.00035 17.0401 3.26375 15.8268 2.7612C14.6136 2.25866 13.3132 2 12 2ZM12 20C10.4178 20 8.87104 19.5308 7.55544 18.6518C6.23985 17.7727 5.21447 16.5233 4.60897 15.0615C4.00347 13.5997 3.84504 11.9911 4.15372 10.4393C4.4624 8.88743 5.22433 7.46197 6.34315 6.34315C7.46197 5.22433 8.88743 4.4624 10.4393 4.15372C11.9911 3.84504 13.5997 4.00346 15.0615 4.60896C16.5233 5.21447 17.7727 6.23984 18.6518 7.55544C19.5308 8.87103 20 10.4177 20 12C20 14.1217 19.1572 16.1566 17.6569 17.6569C16.1566 19.1571 14.1217 20 12 20ZM15 9C14.8022 9 14.6089 9.05865 14.4444 9.16853C14.28 9.27841 14.1518 9.43459 14.0761 9.61732C14.0004 9.80004 13.9806 10.0011 14.0192 10.1951C14.0578 10.3891 14.153 10.5673 14.2929 10.7071C14.4328 10.847 14.6109 10.9422 14.8049 10.9808C14.9989 11.0194 15.2 10.9996 15.3827 10.9239C15.5654 10.8482 15.7216 10.72 15.8315 10.5556C15.9414 10.3911 16 10.1978 16 10C16 9.73478 15.8946 9.48043 15.7071 9.29289C15.5196 9.10536 15.2652 9 15 9Z" />
</svg>
