<svg width="24" height="24" viewBox="0 0 24 24" xmlns="http://www.w3.org/2000/svg">
<path d="M14.5 7C13.7089 7 12.9355 7.2346 12.2777 7.67412C11.6199 8.11365 11.1072 8.73836 10.8045 9.46927C10.5017 10.2002 10.4225 11.0044 10.5769 11.7804C10.7312 12.5563 11.1122 13.269 11.6716 13.8284C12.231 14.3878 12.9437 14.7688 13.7196 14.9231C14.4956 15.0775 15.2998 14.9983 16.0307 14.6955C16.7616 14.3928 17.3864 13.8801 17.8259 13.2223C18.2654 12.5645 18.5 11.7911 18.5 11C18.5 9.93913 18.0786 8.92172 17.3284 8.17157C16.5783 7.42143 15.5609 7 14.5 7ZM14.5 13C14.1044 13 13.7178 12.8827 13.3889 12.6629C13.06 12.4432 12.8036 12.1308 12.6522 11.7654C12.5009 11.3999 12.4613 10.9978 12.5384 10.6098C12.6156 10.2219 12.8061 9.86549 13.0858 9.58579C13.3655 9.30608 13.7219 9.1156 14.1098 9.03843C14.4978 8.96126 14.8999 9.00087 15.2654 9.15224C15.6308 9.30362 15.9432 9.55996 16.1629 9.88886C16.3827 10.2178 16.5 10.6044 16.5 11C16.5 11.5304 16.2893 12.0391 15.9142 12.4142C15.5391 12.7893 15.0304 13 14.5 13ZM15.5 3H13.5C11.6435 3 9.86301 3.7375 8.55025 5.05025C7.2375 6.36301 6.5 8.14348 6.5 10V13H5.5C5.23478 13 4.98043 13.1054 4.79289 13.2929C4.60536 13.4804 4.5 13.7348 4.5 14C4.5 14.2652 4.60536 14.5196 4.79289 14.7071C4.98043 14.8946 5.23478 15 5.5 15H6.5V17H2.5C2.23478 17 1.98043 17.1054 1.79289 17.2929C1.60536 17.4804 1.5 17.7348 1.5 18V20C1.5 20.2652 1.60536 20.5196 1.79289 20.7071C1.98043 20.8946 2.23478 21 2.5 21C2.76522 21 3.01957 20.8946 3.20711 20.7071C3.39464 20.5196 3.5 20.2652 3.5 20V19H15.5C17.3565 19 19.137 18.2625 20.4497 16.9497C21.7625 15.637 22.5 13.8565 22.5 12V10C22.5 8.14348 21.7625 6.36301 20.4497 5.05025C19.137 3.7375 17.3565 3 15.5 3ZM20.5 12C20.5 12.6566 20.3707 13.3068 20.1194 13.9134C19.8681 14.52 19.4998 15.0712 19.0355 15.5355C18.5712 15.9998 18.02 16.3681 17.4134 16.6194C16.8068 16.8707 16.1566 17 15.5 17H8.5V10C8.5 8.67392 9.02678 7.40215 9.96447 6.46447C10.9021 5.52678 12.1739 5 13.5 5H15.5C16.1566 5 16.8068 5.12933 17.4134 5.3806C18.02 5.63188 18.5712 6.00017 19.0355 6.46447C19.4998 6.92876 19.8681 7.47996 20.1194 8.08658C20.3707 8.69321 20.5 9.34339 20.5 10V12Z" />
</svg>
