<svg width="24" height="24" viewBox="0 0 24 24" xmlns="http://www.w3.org/2000/svg">
<path d="M21.71 7.38L16.62 2.29C16.4326 2.10375 16.1792 1.99921 15.915 1.99921C15.6508 1.99921 15.3974 2.10375 15.21 2.29C15.1163 2.38296 15.0419 2.49356 14.9911 2.61542C14.9403 2.73728 14.9142 2.86799 14.9142 3C14.9142 3.13201 14.9403 3.26272 14.9911 3.38458C15.0419 3.50644 15.1163 3.61704 15.21 3.71L17 5.54L11.58 11L10.58 10C10.3013 9.72032 9.97012 9.49841 9.60546 9.34699C9.24081 9.19558 8.84985 9.11763 8.45501 9.11763C8.06017 9.11763 7.66921 9.19558 7.30455 9.34699C6.9399 9.49841 6.60872 9.72032 6.33001 10L2.88001 13.42C2.60016 13.6995 2.37834 14.0316 2.22732 14.3971C2.07629 14.7627 1.99904 15.1545 2.00001 15.55V19C2.00001 19.7956 2.31608 20.5587 2.87869 21.1213C3.4413 21.6839 4.20436 22 5.00001 22H8.45001C8.84553 22.001 9.23733 21.9237 9.60288 21.7727C9.96843 21.6217 10.3005 21.3999 10.58 21.12L14 17.69C14.2797 17.4113 14.5016 17.0801 14.653 16.7155C14.8044 16.3508 14.8824 15.9598 14.8824 15.565C14.8824 15.1702 14.8044 14.7792 14.653 14.4145C14.5016 14.0499 14.2797 13.7187 14 13.44L13 12.44L18.46 7L20.29 8.83C20.383 8.92373 20.4936 8.99812 20.6154 9.04889C20.7373 9.09966 20.868 9.1258 21 9.1258C21.132 9.1258 21.2627 9.09966 21.3846 9.04889C21.5064 8.99812 21.617 8.92373 21.71 8.83C21.8083 8.73658 21.8867 8.62413 21.9402 8.49949C21.9937 8.37486 22.0213 8.24064 22.0213 8.105C22.0213 7.96936 21.9937 7.83514 21.9402 7.71051C21.8867 7.58587 21.8083 7.47342 21.71 7.38ZM12.6 16.27L9.16001 19.71C9.06657 19.8027 8.95575 19.876 8.83392 19.9258C8.71208 19.9755 8.58162 20.0008 8.45001 20H5.00001C4.73479 20 4.48044 19.8946 4.2929 19.7071C4.10537 19.5196 4.00001 19.2652 4.00001 19V15.55C3.99925 15.4184 4.02447 15.2879 4.07424 15.1661C4.124 15.0443 4.19733 14.9334 4.29001 14.84L7.73001 11.4C7.91737 11.2137 8.17082 11.1092 8.43501 11.1092C8.6992 11.1092 8.95265 11.2137 9.14001 11.4L10.14 12.4L9.25001 13.3C9.06376 13.4874 8.95922 13.7408 8.95922 14.005C8.95922 14.2692 9.06376 14.5226 9.25001 14.71C9.34814 14.8076 9.46548 14.8838 9.59458 14.9337C9.72368 14.9836 9.86173 15.0062 10 15C10.2623 14.9989 10.5137 14.8947 10.7 14.71L11.6 13.82L12.6 14.82C12.6983 14.9134 12.7767 15.0259 12.8302 15.1505C12.8837 15.2751 12.9113 15.4094 12.9113 15.545C12.9113 15.6806 12.8837 15.8149 12.8302 15.9395C12.7767 16.0641 12.6983 16.1766 12.6 16.27Z" />
</svg>
