<svg width="24" height="24" viewBox="0 0 24 24" xmlns="http://www.w3.org/2000/svg">
<path d="M21.1199 2.87999C20.5477 2.33699 19.7888 2.03427 18.9999 2.03427C18.211 2.03427 17.4522 2.33699 16.8799 2.87999L14.4599 5.28999C14.0248 5.73015 13.7364 6.29413 13.6343 6.90463C13.5323 7.51512 13.6216 8.14224 13.8899 8.69999L11.7399 10.85L9.73994 8.84999C9.37915 8.48049 8.92908 8.21039 8.43329 8.06582C7.93751 7.92126 7.4128 7.90712 6.90995 8.02479C6.4071 8.14245 5.94315 8.38794 5.56298 8.73747C5.18282 9.08701 4.89933 9.52877 4.73994 10.02L2.07994 18.02C1.90317 18.5481 1.87689 19.115 2.00406 19.6572C2.13122 20.1994 2.4068 20.6955 2.79994 21.09C3.08514 21.3838 3.42745 21.6161 3.8058 21.7726C4.18416 21.9291 4.59055 22.0065 4.99994 22C5.34012 22.0064 5.67873 21.9522 5.99994 21.84L13.9999 19.18C14.4912 19.0206 14.9329 18.7371 15.2825 18.3569C15.632 17.9768 15.8775 17.5128 15.9951 17.01C16.1128 16.5071 16.0987 15.9824 15.9541 15.4866C15.8095 14.9909 15.5394 14.5408 15.1699 14.18L13.1699 12.18L15.3199 10.03C15.8777 10.2984 16.5048 10.3877 17.1153 10.2856C17.7258 10.1836 18.2898 9.89517 18.7299 9.45999L21.1399 7.03999C21.675 6.47849 21.9718 5.73158 21.9681 4.95596C21.9644 4.18035 21.6604 3.43632 21.1199 2.87999ZM13.6999 15.63C13.8189 15.7512 13.9051 15.9008 13.9503 16.0646C13.9954 16.2284 13.9981 16.401 13.9581 16.5661C13.9181 16.7312 13.8366 16.8834 13.7215 17.0083C13.6063 17.1332 13.4613 17.2267 13.2999 17.28L5.31994 20C5.14627 20.053 4.96142 20.0578 4.78525 20.0138C4.60907 19.9697 4.44822 19.8785 4.31994 19.75C4.1914 19.6217 4.10021 19.4609 4.05617 19.2847C4.01212 19.1085 4.01689 18.9237 4.06994 18.75L6.73994 10.75C6.778 10.5734 6.86318 10.4104 6.98643 10.2784C7.10968 10.1463 7.2664 10.0501 7.43994 9.99999C7.51638 9.99173 7.5935 9.99173 7.66994 9.99999C7.93228 10.0011 8.18368 10.1052 8.36994 10.29L10.3699 12.29L9.49994 13.15C9.40621 13.243 9.33182 13.3536 9.28105 13.4754C9.23028 13.5973 9.20414 13.728 9.20414 13.86C9.20414 13.992 9.23028 14.1227 9.28105 14.2446C9.33182 14.3664 9.40621 14.477 9.49994 14.57C9.5929 14.6637 9.7035 14.7381 9.82536 14.7889C9.94722 14.8397 10.0779 14.8658 10.2099 14.8658C10.342 14.8658 10.4727 14.8397 10.5945 14.7889C10.7164 14.7381 10.827 14.6637 10.9199 14.57L11.7799 13.7L13.6999 15.63ZM19.6999 5.70999L17.2899 8.11999C17.1496 8.2576 16.9717 8.35078 16.7787 8.38788C16.5856 8.42499 16.3859 8.40437 16.2045 8.32861C16.0232 8.25286 15.8681 8.12531 15.7588 7.96193C15.6495 7.79855 15.5908 7.60657 15.5899 7.40999C15.591 7.14765 15.6952 6.89625 15.8799 6.70999L18.2899 4.28999C18.3829 4.19626 18.4935 4.12187 18.6154 4.0711C18.7372 4.02033 18.8679 3.99419 18.9999 3.99419C19.132 3.99419 19.2627 4.02033 19.3845 4.0711C19.5064 4.12187 19.617 4.19626 19.7099 4.28999C19.8037 4.38296 19.8781 4.49356 19.9288 4.61542C19.9796 4.73728 20.0057 4.86798 20.0057 4.99999C20.0057 5.132 19.9796 5.26271 19.9288 5.38457C19.8781 5.50643 19.8037 5.61703 19.7099 5.70999H19.6999Z" />
</svg>
