<svg width="24" height="24" viewBox="0 0 24 24" xmlns="http://www.w3.org/2000/svg">
<path d="M21.0001 2H19.0001H18.9101H18.7001L18.5401 2.07L18.3701 2.18C18.3219 2.21819 18.2783 2.26181 18.2401 2.31C18.201 2.3595 18.1674 2.41316 18.1401 2.47C18.1052 2.52599 18.0782 2.58657 18.0601 2.65V2.74L17.3801 6H16.2401L13.1201 2.89C12.5501 2.34243 11.7904 2.03663 11.0001 2.03663C10.2097 2.03663 9.45001 2.34243 8.88007 2.89L5.76007 6H3.00007C2.82386 5.9993 2.65059 6.04517 2.49781 6.13298C2.34504 6.22078 2.21817 6.3474 2.13007 6.5C2.0423 6.65202 1.99609 6.82446 1.99609 7C1.99609 7.17554 2.0423 7.34798 2.13007 7.5L6.13007 14.5L5.36007 16C5.24027 15.9902 5.11987 15.9902 5.00007 16C4.40672 16 3.82671 16.1759 3.33336 16.5056C2.84001 16.8352 2.45549 17.3038 2.22843 17.8519C2.00137 18.4001 1.94196 19.0033 2.05771 19.5853C2.17347 20.1672 2.45919 20.7018 2.87875 21.1213C3.29831 21.5409 3.83285 21.8266 4.4148 21.9424C4.99674 22.0581 5.59994 21.9987 6.14812 21.7716C6.6963 21.5446 7.16483 21.1601 7.49448 20.6667C7.82412 20.1734 8.00007 19.5933 8.00007 19C7.99689 18.2227 7.69216 17.477 7.15007 16.92L8.15007 14.92L9.53007 14.78L13.4701 20.69C13.7455 21.1056 14.1224 21.444 14.5651 21.6732C15.0078 21.9024 15.5017 22.0149 16.0001 22C16.3864 21.9992 16.7693 21.9281 17.1301 21.79C17.7742 21.5395 18.312 21.0743 18.6528 20.473C18.9935 19.8718 19.1162 19.1713 19.0001 18.49L18.0001 13L19.7901 4H21.0001C21.2653 4 21.5196 3.89464 21.7072 3.70711C21.8947 3.51957 22.0001 3.26522 22.0001 3C22.0001 2.73478 21.8947 2.48043 21.7072 2.29289C21.5196 2.10536 21.2653 2 21.0001 2ZM5.00007 20C4.80229 20 4.60895 19.9414 4.4445 19.8315C4.28005 19.7216 4.15188 19.5654 4.07619 19.3827C4.0005 19.2 3.9807 18.9989 4.01928 18.8049C4.05787 18.6109 4.15311 18.4327 4.29296 18.2929C4.43281 18.153 4.611 18.0578 4.80498 18.0192C4.99896 17.9806 5.20003 18.0004 5.38275 18.0761C5.56548 18.1518 5.72166 18.28 5.83154 18.4444C5.94142 18.6089 6.00007 18.8022 6.00007 19C6.00007 19.2652 5.89471 19.5196 5.70717 19.7071C5.51964 19.8946 5.26528 20 5.00007 20ZM10.3001 4.29C10.487 4.10677 10.7383 4.00414 11.0001 4.00414C11.2618 4.00414 11.5131 4.10677 11.7001 4.29L13.4101 6H8.59007L10.3001 4.29ZM7.55007 12.94L4.72007 8H17.0001L16.1801 12.08L7.55007 12.94ZM16.3601 19.94C16.1468 20.0237 15.9112 20.0317 15.6928 19.9625C15.4743 19.8933 15.2863 19.7512 15.1601 19.56L11.8201 14.56L16.1901 14.13L17.0001 18.82C17.0402 19.0507 16.9981 19.2881 16.8812 19.491C16.7642 19.6938 16.5798 19.8492 16.3601 19.93V19.94Z" />
</svg>
