<svg width="24" height="24" viewBox="0 0 24 24" xmlns="http://www.w3.org/2000/svg">
<path d="M10.2476 2.40278C10.1562 2.2663 10.0327 2.15444 9.88778 2.07711C9.74291 1.99978 9.58121 1.95936 9.41699 1.95942H1.99219C1.86086 1.95939 1.7308 1.98523 1.60946 2.03547C1.48812 2.08571 1.37787 2.15937 1.285 2.25224C1.19214 2.3451 1.11848 2.45535 1.06824 2.5767C1.018 2.69804 0.992153 2.82809 0.992188 2.95942V21.0414C0.992218 21.2731 1.07265 21.4975 1.21974 21.6764C1.36683 21.8554 1.57148 21.9777 1.79873 22.0225C2.02597 22.0674 2.26174 22.0319 2.46578 21.9223C2.66981 21.8126 2.82947 21.6356 2.91748 21.4213L10.3423 3.33931C10.4045 3.18741 10.4285 3.02253 10.412 2.85921C10.3954 2.69588 10.339 2.53913 10.2476 2.40278ZM2.99219 15.9731V3.95942H7.92529L2.99219 15.9731ZM21.9922 1.95942H14.4746C14.3097 1.95948 14.1474 2.00032 14.0021 2.07828C13.8569 2.15624 13.7331 2.26892 13.6419 2.40628C13.5507 2.54363 13.4949 2.70141 13.4794 2.86556C13.4639 3.02971 13.4893 3.19514 13.5532 3.34712L21.0708 21.1967C21.1469 21.3781 21.275 21.533 21.4388 21.6419C21.6026 21.7509 21.795 21.809 21.9917 21.809C22.0582 21.8088 22.1246 21.8023 22.1899 21.7895C22.4162 21.7437 22.6197 21.621 22.7659 21.4423C22.9121 21.2636 22.992 21.0399 22.9922 20.809V2.95942C22.9922 2.82809 22.9664 2.69804 22.9161 2.5767C22.8659 2.45535 22.7922 2.3451 22.6994 2.25224C22.6065 2.15937 22.4963 2.08571 22.3749 2.03547C22.2536 1.98523 22.1235 1.95939 21.9922 1.95942ZM20.9922 15.8579L15.981 3.95942H20.9922V15.8579ZM12.9497 9.52C12.8785 9.33151 12.752 9.16894 12.5868 9.05358C12.4216 8.93822 12.2254 8.87546 12.0239 8.87352H12.0142C11.8144 8.8735 11.6192 8.9333 11.4538 9.04522C11.2884 9.15714 11.1602 9.31604 11.0859 9.50145L8.02686 17.1323C7.96603 17.284 7.94333 17.4484 7.96076 17.6109C7.97818 17.7735 8.03519 17.9293 8.12679 18.0647C8.2184 18.2001 8.3418 18.311 8.4862 18.3876C8.6306 18.4643 8.79159 18.5043 8.95508 18.5043H11.2095L12.732 21.4946C12.8155 21.6591 12.943 21.7974 13.1003 21.8939C13.2576 21.9904 13.4385 22.0415 13.6231 22.0415H16.2359C16.3977 22.0414 16.557 22.0022 16.7003 21.927C16.8436 21.8519 16.9665 21.7431 17.0585 21.61C17.1505 21.4769 17.2088 21.3235 17.2285 21.1629C17.2482 21.0023 17.2286 20.8393 17.1714 20.6879L12.9497 9.52ZM14.2363 20.0415L12.7139 17.0512C12.6303 16.8867 12.5029 16.7485 12.3456 16.6519C12.1883 16.5554 12.0073 16.5043 11.8228 16.5044H10.4331L11.9868 12.6294L14.7886 20.0415H14.2363Z" />
</svg>
