<svg width="24" height="24" viewBox="0 0 24 24" xmlns="http://www.w3.org/2000/svg">
<path d="M12 2C10.0222 2 8.08879 2.58649 6.4443 3.6853C4.79981 4.78412 3.51809 6.3459 2.76121 8.17317C2.00433 10.0004 1.8063 12.0111 2.19215 13.9509C2.578 15.8907 3.53041 17.6725 4.92894 19.0711C6.32746 20.4696 8.10929 21.422 10.0491 21.8079C11.9889 22.1937 13.9996 21.9957 15.8268 21.2388C17.6541 20.4819 19.2159 19.2002 20.3147 17.5557C21.4135 15.9112 22 13.9778 22 12C22 10.6868 21.7413 9.38642 21.2388 8.17317C20.7363 6.95991 19.9997 5.85752 19.0711 4.92893C18.1425 4.00035 17.0401 3.26375 15.8268 2.7612C14.6136 2.25866 13.3132 2 12 2ZM12 4C14.0547 3.99918 16.0298 4.79493 17.51 6.22C15.982 7.1162 14.3629 7.847 12.68 8.4C11.8425 6.95683 10.8823 5.58844 9.81 4.31C10.522 4.105 11.2591 4.00065 12 4ZM7.89 5.15C8.93769 6.34851 9.87797 7.6368 10.7 9C8.73711 9.4874 6.72251 9.73587 4.7 9.74H4.34C4.90721 7.81964 6.17394 6.18181 7.89 5.15ZM6 17.31C4.69876 15.8488 3.98608 13.9566 4 12C4 11.9 4 11.8 4 11.71H4.68C7.04738 11.6888 9.4014 11.3525 11.68 10.71C12 11.32 12.3 11.95 12.59 12.6C11.0315 13.1494 9.58001 13.9648 8.3 15.01L8 15.25C7.28712 15.8902 6.61889 16.5785 6 17.31ZM12 20C10.4061 20.0035 8.8482 19.5261 7.53 18.63C8.01685 18.0716 8.53784 17.5439 9.09 17.05L9.41 16.78C10.5932 15.7849 11.949 15.0155 13.41 14.51C14.0113 16.136 14.4795 17.8082 14.81 19.51C13.9098 19.8387 12.9583 20.0046 12 20ZM16.63 18.51C16.3028 16.9966 15.8752 15.5066 15.35 14.05H15.69C15.7294 14.0403 15.7706 14.0403 15.81 14.05H15.92H16.02H16.5C17.5524 14.053 18.5968 14.2322 19.59 14.58C19.0443 16.1704 18.0079 17.5464 16.63 18.51ZM16.5 12C16.29 12 16.08 12 15.88 12C15.7505 11.9837 15.6195 11.9837 15.49 12C15.2182 12.0167 14.9477 12.0501 14.68 12.1H14.58C14.29 11.43 13.99 10.78 13.66 10.1C15.4506 9.48506 17.1704 8.68049 18.79 7.7C19.5934 8.98937 20.0131 10.4809 20 12C20 12.17 20 12.34 20 12.51C18.8667 12.1602 17.686 11.9882 16.5 12Z" />
</svg>
