<svg width="24" height="24" viewBox="0 0 24 24" xmlns="http://www.w3.org/2000/svg">
<path d="M20.4444 9.05505C20.1559 7.43016 19.4009 5.92429 18.2715 4.72105C17.7901 4.20204 17.2451 3.74594 16.6493 3.36357C15.5528 2.65275 14.3069 2.2047 13.0088 2.0543C12.8476 2.04556 12.687 2.02743 12.5279 2H11.3935C11.3812 2.02863 11.3549 2.01819 11.334 2.02014C11.0419 2.0459 10.7512 2.07914 10.4629 2.13379C8.41413 2.49637 6.57105 3.60177 5.28643 5.2384C4.20205 6.58045 3.55956 8.22518 3.44713 9.9469C3.38328 10.7943 3.44555 11.6465 3.63189 12.4756C3.76961 13.0945 3.97912 13.6952 4.25615 14.2656C4.28063 14.3143 4.30474 14.363 4.32964 14.4116C4.77967 15.3084 5.38315 16.1196 6.11278 16.8083C7.67201 18.2831 9.72985 19.116 11.8759 19.1408C11.9761 19.1422 12.0033 19.1669 12.0027 19.2693C11.9982 20.1428 12.0001 21.0165 12.0004 21.8901C12.0004 21.9241 12.003 21.9579 12.005 22C12.0332 21.9885 12.0509 21.982 12.068 21.9739C13.705 21.216 15.2187 20.2162 16.5583 19.008C16.8253 18.7649 17.0816 18.5107 17.3272 18.2455C17.4325 18.1322 17.5369 18.0168 17.6424 17.9036C17.8054 17.7293 17.9465 17.5345 18.1002 17.351C18.2777 17.1393 18.437 16.9143 18.5942 16.6877C18.9433 16.1892 19.2505 15.6626 19.5127 15.1133C19.6447 14.8345 19.7703 14.5534 19.8815 14.2657C19.8857 14.2608 19.8894 14.2554 19.8925 14.2496C20.1917 13.4642 20.3934 12.6451 20.4931 11.8106C20.5292 11.5194 20.5526 11.2263 20.5673 10.9334C20.5991 10.3046 20.5579 9.6743 20.4444 9.05505ZM11.2544 11.8744C11.2553 12.2289 11.1808 12.5796 11.036 12.9032C10.8912 13.2269 10.6794 13.5161 10.4144 13.7517C10.386 13.7781 10.3584 13.8056 10.3307 13.8326C10.0541 14.0527 9.7368 14.2161 9.39693 14.3132C9.24957 14.3505 9.10011 14.3788 8.94936 14.3981C8.89837 14.4059 8.8463 14.3947 8.80302 14.3666C8.75973 14.3386 8.72821 14.2957 8.71444 14.246L8.7156 13.2778C8.72127 13.1828 8.683 13.081 8.75912 12.9972C8.79528 12.9555 8.84357 12.926 8.89728 12.9129C9.06939 12.8814 9.23591 12.8247 9.39142 12.7444C9.52678 12.6663 9.64448 12.5609 9.73709 12.435C9.8297 12.309 9.89521 12.1653 9.9295 12.0128C9.94165 11.9627 9.95331 11.9122 9.9649 11.8619C9.28435 11.8606 8.60389 11.8595 7.92351 11.8585C7.86486 11.8604 7.80623 11.8543 7.7492 11.8405C7.66351 11.8177 7.58744 11.7679 7.53224 11.6985C7.47704 11.6291 7.44563 11.5438 7.44268 11.4552C7.4414 10.4263 7.4419 9.39727 7.4442 8.3682C7.42795 8.28976 7.43214 8.20846 7.45637 8.13211C7.48061 8.05576 7.52406 7.98692 7.58257 7.9322C7.65256 7.86786 7.74379 7.83153 7.83886 7.83015C8.83941 7.82997 9.84 7.82979 10.8406 7.8296C10.9047 7.82985 10.9678 7.84488 11.025 7.8735C11.0823 7.90213 11.1322 7.94358 11.1708 7.99463C11.2095 8.04569 11.2358 8.10497 11.2478 8.16786C11.2598 8.23076 11.2571 8.29557 11.2399 8.35725C11.2556 8.40663 11.2613 8.45865 11.2565 8.51025C11.2568 9.63147 11.263 10.7532 11.2544 11.8744ZM16.5575 11.8794C16.5526 12.3768 16.4028 12.8619 16.1263 13.2754C15.8498 13.6888 15.4588 14.0127 15.001 14.2073C14.9776 14.2173 14.9554 14.2302 14.9325 14.2417L14.8944 14.2524L14.8728 14.2647C14.6796 14.3206 14.4829 14.3638 14.284 14.394C14.2515 14.4023 14.2174 14.403 14.1846 14.3959C14.1518 14.3888 14.1211 14.3741 14.0949 14.3531C14.0687 14.332 14.0478 14.3051 14.0339 14.2746C14.02 14.244 14.0133 14.2106 14.0146 14.1771C14.013 14.0697 14.0123 13.9621 14.0114 13.8546L14.017 13.2773C14.0161 13.2348 14.0146 13.1926 14.0147 13.1503C14.0149 13.0025 14.0717 12.9401 14.2555 12.8982C14.4896 12.8581 14.7085 12.7555 14.8891 12.6013C15.0947 12.4043 15.2277 12.1437 15.2666 11.8616L13.3808 11.858C13.3125 11.8579 13.2441 11.8589 13.1756 11.8577C13.1176 11.8597 13.0599 11.8496 13.0061 11.828C12.9523 11.8065 12.9035 11.7741 12.8628 11.7327C12.8222 11.6914 12.7906 11.6421 12.77 11.5879C12.7494 11.5337 12.7402 11.4758 12.7431 11.4179C12.7435 10.4016 12.7443 9.38536 12.7455 8.36915L12.7438 8.33979C12.7277 8.2527 12.7386 8.16277 12.775 8.08204C12.8115 8.00132 12.8717 7.93366 12.9477 7.88813C13.0115 7.8487 13.0853 7.82852 13.1603 7.83C14.1542 7.82945 15.1482 7.82917 16.1421 7.82914C16.2062 7.82943 16.2692 7.84448 16.3265 7.87312C16.3837 7.90176 16.4336 7.94322 16.4722 7.99427C16.5109 8.04533 16.5372 8.1046 16.5492 8.16749C16.5611 8.23037 16.5585 8.29517 16.5413 8.35685C16.5569 8.40622 16.5625 8.45818 16.5579 8.50974C16.5578 9.63295 16.5577 10.7562 16.5575 11.8794Z" />
</svg>
