<svg width="24" height="24" viewBox="0 0 24 24" xmlns="http://www.w3.org/2000/svg">
<path d="M14.4102 16.8672C13.728 17.3675 12.8829 17.5933 12.0421 17.5C11.2023 17.5935 10.3581 17.368 9.67683 16.8682C9.48904 16.6817 9.23503 16.5772 8.97039 16.5776C8.70575 16.578 8.45203 16.6832 8.26478 16.8702C8.07752 17.0572 7.97197 17.3107 7.97123 17.5754C7.97049 17.84 8.07462 18.0942 8.26083 18.2822C8.7779 18.7273 9.37887 19.0644 10.0283 19.2735C10.6777 19.4827 11.3624 19.5597 12.0421 19.5C12.7218 19.5594 13.4065 19.4824 14.056 19.2734C14.7055 19.0645 15.3067 18.7278 15.8243 18.2832C15.9176 18.1904 15.9917 18.0802 16.0423 17.9587C16.093 17.8373 16.1192 17.707 16.1194 17.5754C16.1196 17.4438 16.0939 17.3135 16.0437 17.1919C15.9935 17.0702 15.9198 16.9597 15.8268 16.8666C15.7339 16.7735 15.6234 16.6996 15.5019 16.6493C15.3803 16.5989 15.25 16.573 15.1184 16.5731C14.9868 16.5731 14.8565 16.5991 14.735 16.6496C14.6135 16.7001 14.5031 16.774 14.4102 16.8672L14.4102 16.8672ZM9.20056 15.0017C9.39834 15.0016 9.59166 14.9429 9.75608 14.833C9.9205 14.723 10.0486 14.5668 10.1243 14.3841C10.1999 14.2013 10.2196 14.0002 10.181 13.8063C10.1423 13.6123 10.0471 13.4341 9.90716 13.2943C9.76726 13.1545 9.58905 13.0593 9.39506 13.0208C9.20106 12.9823 9 13.0021 8.8173 13.0779C8.6346 13.1536 8.47846 13.2818 8.36863 13.4463C8.25879 13.6108 8.2002 13.8042 8.20026 14.002C8.20055 14.2671 8.30605 14.5213 8.4936 14.7087C8.68114 14.8962 8.93541 15.0015 9.20056 15.0017ZM15.2006 13.0017C15.0028 13.0016 14.8094 13.0602 14.6449 13.17C14.4805 13.2798 14.3522 13.436 14.2765 13.6187C14.2008 13.8014 14.1809 14.0025 14.2194 14.1964C14.2579 14.3904 14.3531 14.5687 14.4929 14.7085C14.6328 14.8484 14.8109 14.9437 15.0049 14.9824C15.1988 15.021 15.3999 15.0013 15.5827 14.9256C15.7654 14.85 15.9216 14.7219 16.0316 14.5575C16.1415 14.3931 16.2002 14.1997 16.2003 14.002C16.2 13.7368 16.0946 13.4827 15.9072 13.2952C15.7198 13.1076 15.4657 13.0021 15.2006 13.0017ZM23.0001 11.7803C23.0019 10.9872 22.7537 10.2137 22.2907 9.56984C21.8277 8.92593 21.1736 8.44435 20.4212 8.19356C19.6688 7.94276 18.8565 7.93552 18.0998 8.17285C17.3431 8.41018 16.6804 8.88002 16.2061 9.51556C15.2066 9.26111 14.1854 9.1009 13.156 9.03705L14.0118 3.33205L16.0993 4.04189C16.1088 4.83602 16.4332 5.59389 17.0011 6.14904C17.569 6.7042 18.3341 7.01123 19.1282 7.00271C19.9223 6.99419 20.6806 6.6708 21.2365 6.10358C21.7924 5.53637 22.1004 4.77171 22.0928 3.97756V3.95508C22.0737 3.1696 21.7501 2.42229 21.1904 1.87091C20.6306 1.31954 19.8785 1.00726 19.0928 1C18.642 1.00337 18.1979 1.10908 17.7939 1.30916C17.3899 1.50924 17.0366 1.79846 16.7608 2.155L13.5225 1.05371C13.3839 1.00629 13.2366 0.989917 13.091 1.00577C12.9454 1.02161 12.805 1.06929 12.6799 1.14542C12.5547 1.22155 12.4479 1.32427 12.3668 1.4463C12.2858 1.56833 12.2326 1.70668 12.211 1.85156L11.1345 9.027C10.0074 9.07635 8.88814 9.24005 7.79406 9.51556C7.21473 8.73413 6.35561 8.20706 5.3965 8.04466C4.4374 7.88227 3.45265 8.09714 2.64836 8.6443C1.84408 9.19146 1.2826 10.0285 1.08145 10.9802C0.880289 11.932 1.05505 12.9246 1.56914 13.7504C1.20067 14.4434 1.00542 15.2152 1.00006 16C1.00006 19.9248 5.83206 23 12.0001 23C18.1681 23 23.0001 19.9248 23.0001 16C22.9947 15.2155 22.7996 14.4439 22.4314 13.7511C22.7988 13.1591 22.9956 12.477 23.0001 11.7803ZM19.0928 3C19.2906 3 19.484 3.05865 19.6484 3.16853C19.8129 3.27841 19.941 3.43459 20.0167 3.61732C20.0924 3.80004 20.1122 4.00111 20.0736 4.19509C20.035 4.38907 19.9398 4.56726 19.7999 4.70711C19.6601 4.84696 19.4819 4.9422 19.2879 4.98079C19.0939 5.01937 18.8929 4.99957 18.7101 4.92388C18.5274 4.84819 18.3712 4.72002 18.2614 4.55557C18.1515 4.39112 18.0928 4.19778 18.0928 4C18.0971 3.73613 18.2039 3.48427 18.3905 3.29766C18.5771 3.11104 18.829 3.00431 19.0928 3ZM4.78033 10C5.09111 10.0038 5.39534 10.0899 5.66205 10.2495C4.6968 10.6646 3.80316 11.2295 3.01416 11.9234C3.01016 11.8756 3.00006 11.8284 3.00006 11.7803C3.00066 11.3083 3.18842 10.8558 3.52216 10.5221C3.85589 10.1884 4.30836 10.0006 4.78033 10ZM12.0001 21C7.12115 21 3.00006 18.71 3.00006 16C3.00006 13.29 7.12115 11 12.0001 11C16.879 11 21.0001 13.29 21.0001 16C21.0001 18.71 16.879 21 12.0001 21ZM20.986 11.9235C20.197 11.2295 19.3033 10.6646 18.3381 10.2495C18.6048 10.0899 18.909 10.0039 19.2198 10C19.6918 10.0006 20.1442 10.1884 20.478 10.5221C20.8117 10.8558 20.9995 11.3083 21.0001 11.7803C21.0001 11.8284 20.99 11.8756 20.986 11.9235Z" />
</svg>
