<svg width="24" height="24" viewBox="0 0 24 24" xmlns="http://www.w3.org/2000/svg">
<path d="M21.4349 14.1555C21.5772 13.4895 21.6481 12.8102 21.6464 12.1292C21.6394 10.8839 21.3869 9.6522 20.9035 8.50451C20.4201 7.35683 19.7153 6.31568 18.8292 5.44059C17.9432 4.56549 16.8934 3.87361 15.7398 3.40451C14.5862 2.9354 13.3514 2.69827 12.1061 2.70667C11.5613 2.70527 11.0175 2.75272 10.4812 2.84845C9.64857 2.32528 8.6916 2.03335 7.70873 2.00269C6.72586 1.97203 5.75256 2.20373 4.88894 2.67398C4.02532 3.14423 3.30255 3.83605 2.79498 4.67827C2.2874 5.5205 2.01334 6.48273 2.00098 7.466C2.00161 8.4354 2.2618 9.38695 2.75452 10.2218C2.63227 10.8426 2.5691 11.4736 2.56586 12.1063C2.5763 13.343 2.83227 14.5653 3.31892 15.7023C3.80558 16.8393 4.51321 17.8683 5.40076 18.7295C6.28831 19.5908 7.33808 20.2672 8.48916 20.7195C9.64024 21.1718 10.8697 21.3909 12.1061 21.3642C12.6912 21.3686 13.2751 21.313 13.8488 21.1984C14.6405 21.6784 15.5393 21.9539 16.464 22C17.397 22.0177 18.3189 21.7947 19.1407 21.3526C19.9625 20.9106 20.6566 20.2643 21.1561 19.476C21.6555 18.6878 21.9436 17.7842 21.9924 16.8523C22.0413 15.9204 21.8492 14.9916 21.4349 14.1555ZM16.44 15.9931C16.0262 16.5478 15.4624 16.9728 14.8151 17.2178C14.0142 17.5367 13.1566 17.6888 12.2948 17.6649C11.2937 17.6974 10.2997 17.4875 9.39716 17.0532C8.86927 16.7719 8.41669 16.368 8.07752 15.8754C7.77644 15.4636 7.6045 14.9717 7.58352 14.462C7.58115 14.3325 7.60738 14.204 7.66036 14.0858C7.71333 13.9676 7.79173 13.8626 7.88998 13.7781C8.1017 13.5857 8.38056 13.4843 8.66641 13.4957C8.89763 13.4861 9.12431 13.5618 9.30341 13.7084C9.4999 13.8916 9.65269 14.1167 9.75049 14.367C9.87146 14.6808 10.0383 14.9748 10.2457 15.2396C10.4353 15.4884 10.6868 15.6831 10.9752 15.8044C11.37 15.9708 11.7957 16.0511 12.2239 16.04C12.8297 16.0731 13.4308 15.9169 13.9438 15.5929C14.1418 15.4771 14.3066 15.3122 14.4222 15.1141C14.5378 14.916 14.6003 14.6913 14.6036 14.462C14.6104 14.2999 14.5823 14.1383 14.5214 13.988C14.4604 13.8377 14.368 13.7022 14.2502 13.5906C13.9908 13.345 13.6751 13.1667 13.3308 13.0714C12.9546 12.9537 12.4354 12.8359 11.7997 12.6952C11.0696 12.5408 10.353 12.3282 9.65674 12.0594C9.12161 11.845 8.65091 11.496 8.29023 11.0463C7.94906 10.5927 7.77425 10.0355 7.79511 9.46826C7.79443 8.88912 7.98498 8.32596 8.33716 7.86621C8.7362 7.36889 9.26664 6.99336 9.86829 6.78221C10.632 6.51301 11.4384 6.3855 12.2479 6.40598C12.8855 6.39782 13.5206 6.48492 14.1324 6.66441C14.6084 6.80229 15.0552 7.02588 15.4509 7.3242C15.7662 7.55923 16.0307 7.85562 16.2285 8.19554C16.3796 8.46133 16.4607 8.76119 16.464 9.06693C16.4644 9.19948 16.4374 9.33067 16.3846 9.45228C16.3319 9.57388 16.2546 9.68328 16.1576 9.7736C16.0608 9.87508 15.9436 9.95488 15.8137 10.0077C15.6838 10.0605 15.5441 10.0852 15.404 10.0801C15.1765 10.0935 14.9516 10.0268 14.7682 9.8914C14.579 9.71446 14.4198 9.50782 14.2971 9.27964C14.1097 8.90586 13.8446 8.57641 13.5195 8.31333C13.0838 8.04072 12.5714 7.91674 12.0593 7.96C11.5304 7.93535 11.0059 8.06657 10.551 8.33738C10.3876 8.42524 10.2497 8.55387 10.1507 8.71076C10.0518 8.86765 9.99504 9.04748 9.98609 9.23277C9.98735 9.43633 10.0534 9.63419 10.1747 9.79765C10.3207 9.97265 10.5066 10.1099 10.7168 10.1978C10.9315 10.315 11.1611 10.4023 11.3994 10.4574C11.635 10.5284 12.0124 10.6221 12.5532 10.7399C13.213 10.8817 13.826 11.0464 14.368 11.211C14.8588 11.3564 15.3265 11.5704 15.7574 11.8468C16.1243 12.0879 16.4306 12.4103 16.6527 12.789C16.8797 13.2167 16.9931 13.6955 16.9821 14.1795C17.0101 14.8278 16.8191 15.4666 16.44 15.9931Z" />
</svg>
