<svg width="24" height="24" viewBox="0 0 24 24" xmlns="http://www.w3.org/2000/svg">
<path d="M23 9.5C22.9989 8.57209 22.6298 7.6825 21.9736 7.02637C21.3175 6.37023 20.4279 6.00112 19.5 6C18.98 6.00279 18.4673 6.12279 18 6.35107V4.5C18.0011 3.80421 17.7944 3.12395 17.4065 2.54633C17.0186 1.96871 16.4671 1.52003 15.8226 1.25777C15.1781 0.9955 14.4701 0.931582 13.789 1.0742C13.108 1.21682 12.4851 1.55948 12 2.05829C11.4244 1.45964 10.6539 1.08612 9.82741 1.00496C9.00087 0.923806 8.17251 1.14034 7.49142 1.61559C6.81033 2.09084 6.32124 2.7936 6.11219 3.59737C5.90314 4.40114 5.98785 5.25313 6.35108 6H4.50001C3.80422 5.99894 3.12396 6.2056 2.54634 6.59351C1.96872 6.98142 1.52005 7.53293 1.25778 8.1774C0.995512 8.82186 0.931594 9.52995 1.07421 10.211C1.21683 10.892 1.55949 11.5149 2.0583 12C1.45965 12.5756 1.08613 13.3461 1.00498 14.1726C0.923818 14.9991 1.14035 15.8275 1.6156 16.5086C2.09085 17.1897 2.79361 17.6788 3.59738 17.8878C4.40115 18.0969 5.25314 18.0122 6.00001 17.6489V19.5C5.99895 20.1958 6.20561 20.8761 6.59352 21.4537C6.98143 22.0313 7.53294 22.48 8.17741 22.7422C8.82187 23.0045 9.52996 23.0684 10.211 22.9258C10.892 22.7832 11.5149 22.4405 12 21.9417C12.5757 22.5404 13.3461 22.9139 14.1726 22.995C14.9992 23.0762 15.8275 22.8597 16.5086 22.3844C17.1897 21.9092 17.6788 21.2064 17.8878 20.4026C18.0969 19.5989 18.0122 18.7469 17.6489 18H19.5C20.1958 18.0011 20.8761 17.7944 21.4537 17.4065C22.0313 17.0186 22.48 16.4671 22.7422 15.8226C23.0045 15.1781 23.0684 14.4701 22.9258 13.789C22.7832 13.108 22.4405 12.4851 21.9417 12C22.2764 11.6753 22.5425 11.2867 22.7243 10.8573C22.906 10.4278 22.9998 9.96631 23 9.5ZM13 4.5C13 4.10217 13.158 3.72064 13.4394 3.43934C13.7207 3.15804 14.1022 3 14.5 3C14.8978 3 15.2794 3.15804 15.5607 3.43934C15.842 3.72064 16 4.10217 16 4.5V9.5C16 9.89782 15.842 10.2794 15.5607 10.5607C15.2794 10.842 14.8978 11 14.5 11C14.1022 11 13.7207 10.842 13.4394 10.5607C13.158 10.2794 13 9.89782 13 9.5V4.5ZM6.00001 14.5C6.00001 14.7967 5.91204 15.0867 5.74722 15.3334C5.58239 15.58 5.34813 15.7723 5.07404 15.8858C4.79995 15.9994 4.49835 16.0291 4.20738 15.9712C3.9164 15.9133 3.64913 15.7704 3.43935 15.5607C3.22957 15.3509 3.08671 15.0836 3.02883 14.7926C2.97096 14.5017 3.00066 14.2001 3.11419 13.926C3.22772 13.6519 3.41998 13.4176 3.66666 13.2528C3.91333 13.088 4.20334 13 4.50001 13H6.00001V14.5ZM11 19.5C11 19.8978 10.842 20.2794 10.5607 20.5607C10.2794 20.842 9.89784 21 9.50001 21C9.10219 21 8.72066 20.842 8.43935 20.5607C8.15805 20.2794 8.00001 19.8978 8.00001 19.5V14.5C8.00001 14.1022 8.15805 13.7206 8.43935 13.4393C8.72066 13.158 9.10219 13 9.50001 13C9.89784 13 10.2794 13.158 10.5607 13.4393C10.842 13.7206 11 14.1022 11 14.5V19.5ZM9.50001 11H4.50001C4.10219 11 3.72066 10.842 3.43935 10.5607C3.15805 10.2794 3.00001 9.89782 3.00001 9.5C3.00001 9.10218 3.15805 8.72064 3.43935 8.43934C3.72066 8.15804 4.10219 8 4.50001 8H9.50001C9.89784 8 10.2794 8.15804 10.5607 8.43934C10.842 8.72064 11 9.10218 11 9.5C11 9.89782 10.842 10.2794 10.5607 10.5607C10.2794 10.842 9.89784 11 9.50001 11ZM11 6H9.50001C9.20334 6 8.91333 5.91203 8.66666 5.7472C8.41998 5.58238 8.22772 5.34811 8.11419 5.07403C8.00066 4.79994 7.97096 4.49834 8.02883 4.20736C8.08671 3.91639 8.22957 3.64912 8.43935 3.43934C8.64913 3.22956 8.9164 3.0867 9.20738 3.02882C9.49835 2.97094 9.79995 3.00065 10.074 3.11418C10.3481 3.22771 10.5824 3.41997 10.7472 3.66664C10.912 3.91332 11 4.20333 11 4.5V6ZM12 12.0583C11.9807 12.0385 11.9615 12.0194 11.9417 12C11.9615 11.9806 11.9807 11.9615 12 11.9417C12.0194 11.9615 12.0385 11.9806 12.0583 12C12.0385 12.0194 12.0194 12.0385 12 12.0583ZM14.5 21C14.1023 20.9996 13.721 20.8414 13.4398 20.5602C13.1586 20.279 13.0004 19.8977 13 19.5V18H14.5C14.8978 18 15.2794 18.158 15.5607 18.4393C15.842 18.7206 16 19.1022 16 19.5C16 19.8978 15.842 20.2794 15.5607 20.5607C15.2794 20.842 14.8978 21 14.5 21ZM19.5 16H14.5C14.1022 16 13.7207 15.842 13.4394 15.5607C13.158 15.2794 13 14.8978 13 14.5C13 14.1022 13.158 13.7206 13.4394 13.4393C13.7207 13.158 14.1022 13 14.5 13H19.5C19.8978 13 20.2794 13.158 20.5607 13.4393C20.842 13.7206 21 14.1022 21 14.5C21 14.8978 20.842 15.2794 20.5607 15.5607C20.2794 15.842 19.8978 16 19.5 16ZM19.5 11H18V9.5C18 9.20333 18.088 8.91332 18.2528 8.66665C18.4176 8.41997 18.6519 8.22771 18.926 8.11418C19.2001 8.00065 19.5017 7.97094 19.7926 8.02882C20.0836 8.0867 20.3509 8.22956 20.5607 8.43934C20.7704 8.64912 20.9133 8.91639 20.9712 9.20736C21.0291 9.49834 20.9994 9.79994 20.8858 10.074C20.7723 10.3481 20.58 10.5824 20.3334 10.7472C20.0867 10.912 19.7967 11 19.5 11Z" />
</svg>
