<svg width="24" height="24" viewBox="0 0 24 24" xmlns="http://www.w3.org/2000/svg">
<path d="M2 2V22H22V2H2ZM13.57 17.85C13.1008 17.8986 12.6267 17.8491 12.1777 17.7045C11.7287 17.56 11.3147 17.3236 10.962 17.0104C10.6093 16.6972 10.3257 16.3141 10.1291 15.8853C9.93245 15.4566 9.8272 14.9916 9.82 14.52V10.44H8.56V8.83C9.24671 8.56383 9.84212 8.10531 10.2749 7.50938C10.7076 6.91344 10.9594 6.20537 11 5.47C11 5.44613 11.0095 5.42324 11.0264 5.40636C11.0432 5.38948 11.0661 5.38 11.09 5.38H12.91V8.55H15.41V10.44H12.92V14.33C12.9016 14.4934 12.9197 14.6589 12.9731 14.8144C13.0264 14.9699 13.1137 15.1117 13.2285 15.2294C13.3433 15.3471 13.4829 15.4378 13.6371 15.495C13.7912 15.5522 13.9562 15.5744 14.12 15.56C14.4635 15.5445 14.8017 15.4701 15.12 15.34L15.72 17.12C15.1106 17.6069 14.3499 17.8652 13.57 17.85Z" />
</svg>
