<svg width="24" height="24" viewBox="0 0 24 24" xmlns="http://www.w3.org/2000/svg">
<path d="M14.89 10.48L11.89 8.74C11.6235 8.58253 11.3196 8.49946 11.01 8.49946C10.7004 8.49946 10.3965 8.58253 10.13 8.74C9.86143 8.8914 9.63879 9.11259 9.48564 9.38017C9.33248 9.64774 9.25452 9.95174 9.26 10.26V13.74C9.25452 14.0483 9.33248 14.3523 9.48564 14.6198C9.63879 14.8874 9.86143 15.1086 10.13 15.26C10.3965 15.4175 10.7004 15.5005 11.01 15.5005C11.3196 15.5005 11.6235 15.4175 11.89 15.26L14.89 13.52C15.1465 13.3626 15.3583 13.142 15.5052 12.8794C15.6522 12.6168 15.7293 12.3209 15.7293 12.02C15.7293 11.7191 15.6522 11.4232 15.5052 11.1606C15.3583 10.898 15.1465 10.6774 14.89 10.52V10.48ZM11.24 13.32V10.68L13.52 12L11.24 13.32ZM19 4H5C4.20435 4 3.44129 4.31607 2.87868 4.87868C2.31607 5.44129 2 6.20435 2 7V17C2 17.7956 2.31607 18.5587 2.87868 19.1213C3.44129 19.6839 4.20435 20 5 20H19C19.7956 20 20.5587 19.6839 21.1213 19.1213C21.6839 18.5587 22 17.7956 22 17V7C22 6.20435 21.6839 5.44129 21.1213 4.87868C20.5587 4.31607 19.7956 4 19 4ZM20 17C20 17.2652 19.8946 17.5196 19.7071 17.7071C19.5196 17.8946 19.2652 18 19 18H5C4.73478 18 4.48043 17.8946 4.29289 17.7071C4.10536 17.5196 4 17.2652 4 17V7C4 6.73478 4.10536 6.48043 4.29289 6.29289C4.48043 6.10536 4.73478 6 5 6H19C19.2652 6 19.5196 6.10536 19.7071 6.29289C19.8946 6.48043 20 6.73478 20 7V17Z" />
</svg>
