<svg xmlns="http://www.w3.org/2000/svg" xmlns:xlink="http://www.w3.org/1999/xlink"><defs><symbol viewBox="0 0 24 24" id="photography-tools-exposure">
<path d="M11 7H10V6C10 5.73478 9.89464 5.48043 9.70711 5.29289C9.51957 5.10536 9.26522 5 9 5C8.73478 5 8.48043 5.10536 8.29289 5.29289C8.10536 5.48043 8 5.73478 8 6V7H7C6.73478 7 6.48043 7.10536 6.29289 7.29289C6.10536 7.48043 6 7.73478 6 8C6 8.26522 6.10536 8.51957 6.29289 8.70711C6.48043 8.89464 6.73478 9 7 9H8V10C8 10.2652 8.10536 10.5196 8.29289 10.7071C8.48043 10.8946 8.73478 11 9 11C9.26522 11 9.51957 10.8946 9.70711 10.7071C9.89464 10.5196 10 10.2652 10 10V9H11C11.2652 9 11.5196 8.89464 11.7071 8.70711C11.8946 8.51957 12 8.26522 12 8C12 7.73478 11.8946 7.48043 11.7071 7.29289C11.5196 7.10536 11.2652 7 11 7ZM13 18H17C17.2652 18 17.5196 17.8946 17.7071 17.7071C17.8946 17.5196 18 17.2652 18 17C18 16.7348 17.8946 16.4804 17.7071 16.2929C17.5196 16.1054 17.2652 16 17 16H13C12.7348 16 12.4804 16.1054 12.2929 16.2929C12.1054 16.4804 12 16.7348 12 17C12 17.2652 12.1054 17.5196 12.2929 17.7071C12.4804 17.8946 12.7348 18 13 18ZM19 2H5C4.20435 2 3.44129 2.31607 2.87868 2.87868C2.31607 3.44129 2 4.20435 2 5V19C2 19.7956 2.31607 20.5587 2.87868 21.1213C3.44129 21.6839 4.20435 22 5 22H19C19.7956 22 20.5587 21.6839 21.1213 21.1213C21.6839 20.5587 22 19.7956 22 19V5C22 4.20435 21.6839 3.44129 21.1213 2.87868C20.5587 2.31607 19.7956 2 19 2ZM4 18.59V5C4 4.73478 4.10536 4.48043 4.29289 4.29289C4.48043 4.10536 4.73478 4 5 4H18.59L4 18.59ZM20 19C20 19.2652 19.8946 19.5196 19.7071 19.7071C19.5196 19.8946 19.2652 20 19 20H5.41L20 5.41V19Z" />
</symbol><symbol viewBox="0 0 24 24" id="photography-tools-exposure-1">
<path d="M11 6H7C6.73478 6 6.48043 6.10536 6.29289 6.29289C6.10536 6.48043 6 6.73478 6 7C6 7.26522 6.10536 7.51957 6.29289 7.70711C6.48043 7.89464 6.73478 8 7 8H11C11.2652 8 11.5196 7.89464 11.7071 7.70711C11.8946 7.51957 12 7.26522 12 7C12 6.73478 11.8946 6.48043 11.7071 6.29289C11.5196 6.10536 11.2652 6 11 6ZM19 2H5C4.20435 2 3.44129 2.31607 2.87868 2.87868C2.31607 3.44129 2 4.20435 2 5V19C2 19.7956 2.31607 20.5587 2.87868 21.1213C3.44129 21.6839 4.20435 22 5 22H19C19.7956 22 20.5587 21.6839 21.1213 21.1213C21.6839 20.5587 22 19.7956 22 19V5C22 4.20435 21.6839 3.44129 21.1213 2.87868C20.5587 2.31607 19.7956 2 19 2ZM4 18.59V5C4 4.73478 4.10536 4.48043 4.29289 4.29289C4.48043 4.10536 4.73478 4 5 4H18.59L4 18.59ZM20 19C20 19.2652 19.8946 19.5196 19.7071 19.7071C19.5196 19.8946 19.2652 20 19 20H5.41L20 5.41V19ZM13 17H14V18C14 18.2652 14.1054 18.5196 14.2929 18.7071C14.4804 18.8946 14.7348 19 15 19C15.2652 19 15.5196 18.8946 15.7071 18.7071C15.8946 18.5196 16 18.2652 16 18V17H17C17.2652 17 17.5196 16.8946 17.7071 16.7071C17.8946 16.5196 18 16.2652 18 16C18 15.7348 17.8946 15.4804 17.7071 15.2929C17.5196 15.1054 17.2652 15 17 15H16V14C16 13.7348 15.8946 13.4804 15.7071 13.2929C15.5196 13.1054 15.2652 13 15 13C14.7348 13 14.4804 13.1054 14.2929 13.2929C14.1054 13.4804 14 13.7348 14 14V15H13C12.7348 15 12.4804 15.1054 12.2929 15.2929C12.1054 15.4804 12 15.7348 12 16C12 16.2652 12.1054 16.5196 12.2929 16.7071C12.4804 16.8946 12.7348 17 13 17Z" />
</symbol><symbol viewBox="0 0 24 24" id="photography-tools-eye">
<path d="M21.9196 11.6C19.8996 6.91 16.0996 4 11.9996 4C7.89958 4 4.09958 6.91 2.07958 11.6C2.02452 11.7262 1.99609 11.8623 1.99609 12C1.99609 12.1377 2.02452 12.2738 2.07958 12.4C4.09958 17.09 7.89958 20 11.9996 20C16.0996 20 19.8996 17.09 21.9196 12.4C21.9746 12.2738 22.0031 12.1377 22.0031 12C22.0031 11.8623 21.9746 11.7262 21.9196 11.6ZM11.9996 18C8.82958 18 5.82958 15.71 4.09958 12C5.82958 8.29 8.82958 6 11.9996 6C15.1696 6 18.1696 8.29 19.8996 12C18.1696 15.71 15.1696 18 11.9996 18ZM11.9996 8C11.2085 8 10.4351 8.2346 9.7773 8.67412C9.1195 9.11365 8.60681 9.73836 8.30406 10.4693C8.00131 11.2002 7.9221 12.0044 8.07644 12.7804C8.23078 13.5563 8.61174 14.269 9.17115 14.8284C9.73056 15.3878 10.4433 15.7688 11.2192 15.9231C11.9951 16.0775 12.7994 15.9983 13.5303 15.6955C14.2612 15.3928 14.8859 14.8801 15.3255 14.2223C15.765 13.5645 15.9996 12.7911 15.9996 12C15.9996 10.9391 15.5782 9.92172 14.828 9.17157C14.0779 8.42143 13.0604 8 11.9996 8ZM11.9996 14C11.604 14 11.2173 13.8827 10.8884 13.6629C10.5595 13.4432 10.3032 13.1308 10.1518 12.7654C10.0004 12.3999 9.96084 11.9978 10.038 11.6098C10.1152 11.2219 10.3057 10.8655 10.5854 10.5858C10.8651 10.3061 11.2214 10.1156 11.6094 10.0384C11.9974 9.96126 12.3995 10.0009 12.7649 10.1522C13.1304 10.3036 13.4428 10.56 13.6625 10.8889C13.8823 11.2178 13.9996 11.6044 13.9996 12C13.9996 12.5304 13.7889 13.0391 13.4138 13.4142C13.0387 13.7893 12.53 14 11.9996 14Z" />
</symbol><symbol viewBox="0 0 24 24" id="photography-tools-focus">
<path d="M3 9C3.26522 9 3.51957 8.89464 3.70711 8.70711C3.89464 8.51957 4 8.26522 4 8V5C4 4.73478 4.10536 4.48043 4.29289 4.29289C4.48043 4.10536 4.73478 4 5 4H8C8.26522 4 8.51957 3.89464 8.70711 3.70711C8.89464 3.51957 9 3.26522 9 3C9 2.73478 8.89464 2.48043 8.70711 2.29289C8.51957 2.10536 8.26522 2 8 2H5C4.20435 2 3.44129 2.31607 2.87868 2.87868C2.31607 3.44129 2 4.20435 2 5V8C2 8.26522 2.10536 8.51957 2.29289 8.70711C2.48043 8.89464 2.73478 9 3 9ZM8 20H5C4.73478 20 4.48043 19.8946 4.29289 19.7071C4.10536 19.5196 4 19.2652 4 19V16C4 15.7348 3.89464 15.4804 3.70711 15.2929C3.51957 15.1054 3.26522 15 3 15C2.73478 15 2.48043 15.1054 2.29289 15.2929C2.10536 15.4804 2 15.7348 2 16V19C2 19.7956 2.31607 20.5587 2.87868 21.1213C3.44129 21.6839 4.20435 22 5 22H8C8.26522 22 8.51957 21.8946 8.70711 21.7071C8.89464 21.5196 9 21.2652 9 21C9 20.7348 8.89464 20.4804 8.70711 20.2929C8.51957 20.1054 8.26522 20 8 20ZM17 13C17.2652 13 17.5196 12.8946 17.7071 12.7071C17.8946 12.5196 18 12.2652 18 12C18 11.7348 17.8946 11.4804 17.7071 11.2929C17.5196 11.1054 17.2652 11 17 11H15.86C15.6804 10.3121 15.3208 9.68457 14.8181 9.18188C14.3154 8.67919 13.6879 8.31956 13 8.14V7C13 6.73478 12.8946 6.48043 12.7071 6.29289C12.5196 6.10536 12.2652 6 12 6C11.7348 6 11.4804 6.10536 11.2929 6.29289C11.1054 6.48043 11 6.73478 11 7V8.14C10.3121 8.31956 9.68457 8.67919 9.18188 9.18188C8.67919 9.68457 8.31956 10.3121 8.14 11H7C6.73478 11 6.48043 11.1054 6.29289 11.2929C6.10536 11.4804 6 11.7348 6 12C6 12.2652 6.10536 12.5196 6.29289 12.7071C6.48043 12.8946 6.73478 13 7 13H8.14C8.31956 13.6879 8.67919 14.3154 9.18188 14.8181C9.68457 15.3208 10.3121 15.6804 11 15.86V17C11 17.2652 11.1054 17.5196 11.2929 17.7071C11.4804 17.8946 11.7348 18 12 18C12.2652 18 12.5196 17.8946 12.7071 17.7071C12.8946 17.5196 13 17.2652 13 17V15.86C13.6879 15.6804 14.3154 15.3208 14.8181 14.8181C15.3208 14.3154 15.6804 13.6879 15.86 13H17ZM12 14C11.6044 14 11.2178 13.8827 10.8889 13.6629C10.56 13.4432 10.3036 13.1308 10.1522 12.7654C10.0009 12.3999 9.96126 11.9978 10.0384 11.6098C10.1156 11.2219 10.3061 10.8655 10.5858 10.5858C10.8655 10.3061 11.2219 10.1156 11.6098 10.0384C11.9978 9.96126 12.3999 10.0009 12.7654 10.1522C13.1308 10.3036 13.4432 10.56 13.6629 10.8889C13.8827 11.2178 14 11.6044 14 12C14 12.5304 13.7893 13.0391 13.4142 13.4142C13.0391 13.7893 12.5304 14 12 14ZM21 15C20.7348 15 20.4804 15.1054 20.2929 15.2929C20.1054 15.4804 20 15.7348 20 16V19C20 19.2652 19.8946 19.5196 19.7071 19.7071C19.5196 19.8946 19.2652 20 19 20H16C15.7348 20 15.4804 20.1054 15.2929 20.2929C15.1054 20.4804 15 20.7348 15 21C15 21.2652 15.1054 21.5196 15.2929 21.7071C15.4804 21.8946 15.7348 22 16 22H19C19.7956 22 20.5587 21.6839 21.1213 21.1213C21.6839 20.5587 22 19.7956 22 19V16C22 15.7348 21.8946 15.4804 21.7071 15.2929C21.5196 15.1054 21.2652 15 21 15ZM19 2H16C15.7348 2 15.4804 2.10536 15.2929 2.29289C15.1054 2.48043 15 2.73478 15 3C15 3.26522 15.1054 3.51957 15.2929 3.70711C15.4804 3.89464 15.7348 4 16 4H19C19.2652 4 19.5196 4.10536 19.7071 4.29289C19.8946 4.48043 20 4.73478 20 5V8C20 8.26522 20.1054 8.51957 20.2929 8.70711C20.4804 8.89464 20.7348 9 21 9C21.2652 9 21.5196 8.89464 21.7071 8.70711C21.8946 8.51957 22 8.26522 22 8V5C22 4.20435 21.6839 3.44129 21.1213 2.87868C20.5587 2.31607 19.7956 2 19 2Z" />
</symbol><symbol viewBox="0 0 24 24" id="photography-tools-focus-1">
<path d="M8 20H5C4.73478 20 4.48043 19.8946 4.29289 19.7071C4.10536 19.5196 4 19.2652 4 19V16C4 15.7348 3.89464 15.4804 3.70711 15.2929C3.51957 15.1054 3.26522 15 3 15C2.73478 15 2.48043 15.1054 2.29289 15.2929C2.10536 15.4804 2 15.7348 2 16V19C2 19.7956 2.31607 20.5587 2.87868 21.1213C3.44129 21.6839 4.20435 22 5 22H8C8.26522 22 8.51957 21.8946 8.70711 21.7071C8.89464 21.5196 9 21.2652 9 21C9 20.7348 8.89464 20.4804 8.70711 20.2929C8.51957 20.1054 8.26522 20 8 20ZM3 9C3.26522 9 3.51957 8.89464 3.70711 8.70711C3.89464 8.51957 4 8.26522 4 8V5C4 4.73478 4.10536 4.48043 4.29289 4.29289C4.48043 4.10536 4.73478 4 5 4H8C8.26522 4 8.51957 3.89464 8.70711 3.70711C8.89464 3.51957 9 3.26522 9 3C9 2.73478 8.89464 2.48043 8.70711 2.29289C8.51957 2.10536 8.26522 2 8 2H5C4.20435 2 3.44129 2.31607 2.87868 2.87868C2.31607 3.44129 2 4.20435 2 5V8C2 8.26522 2.10536 8.51957 2.29289 8.70711C2.48043 8.89464 2.73478 9 3 9ZM19 2H16C15.7348 2 15.4804 2.10536 15.2929 2.29289C15.1054 2.48043 15 2.73478 15 3C15 3.26522 15.1054 3.51957 15.2929 3.70711C15.4804 3.89464 15.7348 4 16 4H19C19.2652 4 19.5196 4.10536 19.7071 4.29289C19.8946 4.48043 20 4.73478 20 5V8C20 8.26522 20.1054 8.51957 20.2929 8.70711C20.4804 8.89464 20.7348 9 21 9C21.2652 9 21.5196 8.89464 21.7071 8.70711C21.8946 8.51957 22 8.26522 22 8V5C22 4.20435 21.6839 3.44129 21.1213 2.87868C20.5587 2.31607 19.7956 2 19 2ZM16 12C16 11.7348 15.8946 11.4804 15.7071 11.2929C15.5196 11.1054 15.2652 11 15 11H13V9C13 8.73478 12.8946 8.48043 12.7071 8.29289C12.5196 8.10536 12.2652 8 12 8C11.7348 8 11.4804 8.10536 11.2929 8.29289C11.1054 8.48043 11 8.73478 11 9V11H9C8.73478 11 8.48043 11.1054 8.29289 11.2929C8.10536 11.4804 8 11.7348 8 12C8 12.2652 8.10536 12.5196 8.29289 12.7071C8.48043 12.8946 8.73478 13 9 13H11V15C11 15.2652 11.1054 15.5196 11.2929 15.7071C11.4804 15.8946 11.7348 16 12 16C12.2652 16 12.5196 15.8946 12.7071 15.7071C12.8946 15.5196 13 15.2652 13 15V13H15C15.2652 13 15.5196 12.8946 15.7071 12.7071C15.8946 12.5196 16 12.2652 16 12ZM21 15C20.7348 15 20.4804 15.1054 20.2929 15.2929C20.1054 15.4804 20 15.7348 20 16V19C20 19.2652 19.8946 19.5196 19.7071 19.7071C19.5196 19.8946 19.2652 20 19 20H16C15.7348 20 15.4804 20.1054 15.2929 20.2929C15.1054 20.4804 15 20.7348 15 21C15 21.2652 15.1054 21.5196 15.2929 21.7071C15.4804 21.8946 15.7348 22 16 22H19C19.7956 22 20.5587 21.6839 21.1213 21.1213C21.6839 20.5587 22 19.7956 22 19V16C22 15.7348 21.8946 15.4804 21.7071 15.2929C21.5196 15.1054 21.2652 15 21 15Z" />
</symbol><symbol viewBox="0 0 24 24" id="photography-tools-focus-2">
<path d="M3 9C3.26522 9 3.51957 8.89464 3.70711 8.70711C3.89464 8.51957 4 8.26522 4 8V5C4 4.73478 4.10536 4.48043 4.29289 4.29289C4.48043 4.10536 4.73478 4 5 4H8C8.26522 4 8.51957 3.89464 8.70711 3.70711C8.89464 3.51957 9 3.26522 9 3C9 2.73478 8.89464 2.48043 8.70711 2.29289C8.51957 2.10536 8.26522 2 8 2H5C4.20435 2 3.44129 2.31607 2.87868 2.87868C2.31607 3.44129 2 4.20435 2 5V8C2 8.26522 2.10536 8.51957 2.29289 8.70711C2.48043 8.89464 2.73478 9 3 9ZM8 20H5C4.73478 20 4.48043 19.8946 4.29289 19.7071C4.10536 19.5196 4 19.2652 4 19V16C4 15.7348 3.89464 15.4804 3.70711 15.2929C3.51957 15.1054 3.26522 15 3 15C2.73478 15 2.48043 15.1054 2.29289 15.2929C2.10536 15.4804 2 15.7348 2 16V19C2 19.7956 2.31607 20.5587 2.87868 21.1213C3.44129 21.6839 4.20435 22 5 22H8C8.26522 22 8.51957 21.8946 8.70711 21.7071C8.89464 21.5196 9 21.2652 9 21C9 20.7348 8.89464 20.4804 8.70711 20.2929C8.51957 20.1054 8.26522 20 8 20ZM12 8C11.2089 8 10.4355 8.2346 9.77772 8.67412C9.11992 9.11365 8.60723 9.73836 8.30448 10.4693C8.00173 11.2002 7.92252 12.0044 8.07686 12.7804C8.2312 13.5563 8.61216 14.269 9.17157 14.8284C9.73098 15.3878 10.4437 15.7688 11.2196 15.9231C11.9956 16.0775 12.7998 15.9983 13.5307 15.6955C14.2616 15.3928 14.8864 14.8801 15.3259 14.2223C15.7654 13.5645 16 12.7911 16 12C16 10.9391 15.5786 9.92172 14.8284 9.17157C14.0783 8.42143 13.0609 8 12 8ZM12 14C11.6044 14 11.2178 13.8827 10.8889 13.6629C10.56 13.4432 10.3036 13.1308 10.1522 12.7654C10.0009 12.3999 9.96126 11.9978 10.0384 11.6098C10.1156 11.2219 10.3061 10.8655 10.5858 10.5858C10.8655 10.3061 11.2219 10.1156 11.6098 10.0384C11.9978 9.96126 12.3999 10.0009 12.7654 10.1522C13.1308 10.3036 13.4432 10.56 13.6629 10.8889C13.8827 11.2178 14 11.6044 14 12C14 12.5304 13.7893 13.0391 13.4142 13.4142C13.0391 13.7893 12.5304 14 12 14ZM19 2H16C15.7348 2 15.4804 2.10536 15.2929 2.29289C15.1054 2.48043 15 2.73478 15 3C15 3.26522 15.1054 3.51957 15.2929 3.70711C15.4804 3.89464 15.7348 4 16 4H19C19.2652 4 19.5196 4.10536 19.7071 4.29289C19.8946 4.48043 20 4.73478 20 5V8C20 8.26522 20.1054 8.51957 20.2929 8.70711C20.4804 8.89464 20.7348 9 21 9C21.2652 9 21.5196 8.89464 21.7071 8.70711C21.8946 8.51957 22 8.26522 22 8V5C22 4.20435 21.6839 3.44129 21.1213 2.87868C20.5587 2.31607 19.7956 2 19 2ZM21 15C20.7348 15 20.4804 15.1054 20.2929 15.2929C20.1054 15.4804 20 15.7348 20 16V19C20 19.2652 19.8946 19.5196 19.7071 19.7071C19.5196 19.8946 19.2652 20 19 20H16C15.7348 20 15.4804 20.1054 15.2929 20.2929C15.1054 20.4804 15 20.7348 15 21C15 21.2652 15.1054 21.5196 15.2929 21.7071C15.4804 21.8946 15.7348 22 16 22H19C19.7956 22 20.5587 21.6839 21.1213 21.1213C21.6839 20.5587 22 19.7956 22 19V16C22 15.7348 21.8946 15.4804 21.7071 15.2929C21.5196 15.1054 21.2652 15 21 15Z" />
</symbol><symbol viewBox="0 0 24 24" id="photography-tools-focus-3">
<path d="M8 2H3C2.73478 2 2.48043 2.10536 2.29289 2.29289C2.10536 2.48043 2 2.73478 2 3V8C2 8.26522 2.10536 8.51957 2.29289 8.70711C2.48043 8.89464 2.73478 9 3 9C3.26522 9 3.51957 8.89464 3.70711 8.70711C3.89464 8.51957 4 8.26522 4 8V4H8C8.26522 4 8.51957 3.89464 8.70711 3.70711C8.89464 3.51957 9 3.26522 9 3C9 2.73478 8.89464 2.48043 8.70711 2.29289C8.51957 2.10536 8.26522 2 8 2ZM8 20H4V16C4 15.7348 3.89464 15.4804 3.70711 15.2929C3.51957 15.1054 3.26522 15 3 15C2.73478 15 2.48043 15.1054 2.29289 15.2929C2.10536 15.4804 2 15.7348 2 16V21C2 21.2652 2.10536 21.5196 2.29289 21.7071C2.48043 21.8946 2.73478 22 3 22H8C8.26522 22 8.51957 21.8946 8.70711 21.7071C8.89464 21.5196 9 21.2652 9 21C9 20.7348 8.89464 20.4804 8.70711 20.2929C8.51957 20.1054 8.26522 20 8 20ZM21 2H16C15.7348 2 15.4804 2.10536 15.2929 2.29289C15.1054 2.48043 15 2.73478 15 3C15 3.26522 15.1054 3.51957 15.2929 3.70711C15.4804 3.89464 15.7348 4 16 4H20V8C20 8.26522 20.1054 8.51957 20.2929 8.70711C20.4804 8.89464 20.7348 9 21 9C21.2652 9 21.5196 8.89464 21.7071 8.70711C21.8946 8.51957 22 8.26522 22 8V3C22 2.73478 21.8946 2.48043 21.7071 2.29289C21.5196 2.10536 21.2652 2 21 2ZM21 15C20.7348 15 20.4804 15.1054 20.2929 15.2929C20.1054 15.4804 20 15.7348 20 16V20H16C15.7348 20 15.4804 20.1054 15.2929 20.2929C15.1054 20.4804 15 20.7348 15 21C15 21.2652 15.1054 21.5196 15.2929 21.7071C15.4804 21.8946 15.7348 22 16 22H21C21.2652 22 21.5196 21.8946 21.7071 21.7071C21.8946 21.5196 22 21.2652 22 21V16C22 15.7348 21.8946 15.4804 21.7071 15.2929C21.5196 15.1054 21.2652 15 21 15Z" />
</symbol><symbol viewBox="0 0 24 24" id="photography-tools-highbrightness">
<path d="M11.9999 7.99994C11.2088 7.99994 10.4355 8.23454 9.77766 8.67406C9.11986 9.11359 8.60717 9.7383 8.30442 10.4692C8.00167 11.2001 7.92246 12.0044 8.0768 12.7803C8.23114 13.5562 8.6121 14.269 9.17151 14.8284C9.73092 15.3878 10.4437 15.7687 11.2196 15.9231C11.9955 16.0774 12.7998 15.9982 13.5307 15.6955C14.2616 15.3927 14.8863 14.88 15.3258 14.2222C15.7653 13.5644 15.9999 12.7911 15.9999 11.9999C15.9999 10.9391 15.5785 9.92166 14.8284 9.17151C14.0782 8.42137 13.0608 7.99994 11.9999 7.99994ZM11.9999 13.9999C11.6044 13.9999 11.2177 13.8826 10.8888 13.6629C10.5599 13.4431 10.3036 13.1308 10.1522 12.7653C10.0008 12.3999 9.9612 11.9977 10.0384 11.6098C10.1155 11.2218 10.306 10.8654 10.5857 10.5857C10.8654 10.306 11.2218 10.1155 11.6098 10.0384C11.9977 9.9612 12.3999 10.0008 12.7653 10.1522C13.1308 10.3036 13.4431 10.5599 13.6629 10.8888C13.8826 11.2177 13.9999 11.6044 13.9999 11.9999C13.9999 12.5304 13.7892 13.0391 13.4142 13.4142C13.0391 13.7892 12.5304 13.9999 11.9999 13.9999ZM21.7099 11.2899L19.3599 8.99994V5.63994C19.3599 5.37472 19.2546 5.12037 19.067 4.93283C18.8795 4.7453 18.6252 4.63994 18.3599 4.63994H15.0499L12.7099 2.28994C12.617 2.19621 12.5064 2.12182 12.3845 2.07105C12.2627 2.02028 12.132 1.99414 11.9999 1.99414C11.8679 1.99414 11.7372 2.02028 11.6154 2.07105C11.4935 2.12182 11.3829 2.19621 11.2899 2.28994L8.99994 4.63994H5.63994C5.37472 4.63994 5.12037 4.7453 4.93283 4.93283C4.7453 5.12037 4.63994 5.37472 4.63994 5.63994V8.99994L2.28994 11.2899C2.19621 11.3829 2.12182 11.4935 2.07105 11.6154C2.02028 11.7372 1.99414 11.8679 1.99414 11.9999C1.99414 12.132 2.02028 12.2627 2.07105 12.3845C2.12182 12.5064 2.19621 12.617 2.28994 12.7099L4.63994 15.0499V18.3599C4.63994 18.6252 4.7453 18.8795 4.93283 19.067C5.12037 19.2546 5.37472 19.3599 5.63994 19.3599H8.99994L11.3399 21.7099C11.4329 21.8037 11.5435 21.8781 11.6654 21.9288C11.7872 21.9796 11.9179 22.0057 12.0499 22.0057C12.182 22.0057 12.3127 21.9796 12.4345 21.9288C12.5564 21.8781 12.667 21.8037 12.7599 21.7099L15.0999 19.3599H18.4099C18.6752 19.3599 18.9295 19.2546 19.117 19.067C19.3046 18.8795 19.4099 18.6252 19.4099 18.3599V15.0499L21.7599 12.7099C21.8505 12.6137 21.921 12.5005 21.9676 12.3769C22.0141 12.2532 22.0356 12.1215 22.031 11.9895C22.0264 11.8575 21.9956 11.7277 21.9405 11.6076C21.8854 11.4875 21.807 11.3796 21.7099 11.2899ZM17.6599 13.9299C17.5655 14.0226 17.4903 14.133 17.4388 14.2549C17.3873 14.3767 17.3605 14.5076 17.3599 14.6399V17.3599H14.6399C14.5076 17.3605 14.3767 17.3873 14.2549 17.4388C14.133 17.4903 14.0226 17.5655 13.9299 17.6599L11.9999 19.5899L10.0699 17.6599C9.97732 17.5655 9.86688 17.4903 9.745 17.4388C9.62313 17.3873 9.49225 17.3605 9.35994 17.3599H6.63994V14.6399C6.63939 14.5076 6.61259 14.3767 6.56109 14.2549C6.5096 14.133 6.43443 14.0226 6.33994 13.9299L4.40994 11.9999L6.33994 10.0699C6.43443 9.97732 6.5096 9.86688 6.56109 9.745C6.61259 9.62313 6.63939 9.49225 6.63994 9.35994V6.63994H9.35994C9.49225 6.63939 9.62313 6.61259 9.745 6.56109C9.86688 6.5096 9.97732 6.43443 10.0699 6.33994L11.9999 4.40994L13.9299 6.33994C14.0226 6.43443 14.133 6.5096 14.2549 6.56109C14.3767 6.61259 14.5076 6.63939 14.6399 6.63994H17.3599V9.35994C17.3605 9.49225 17.3873 9.62313 17.4388 9.745C17.4903 9.86688 17.5655 9.97732 17.6599 10.0699L19.5899 11.9999L17.6599 13.9299Z" />
</symbol></defs></svg>