<svg xmlns="http://www.w3.org/2000/svg" xmlns:xlink="http://www.w3.org/1999/xlink"><defs><symbol viewBox="0 0 24 24" id="education-atomic-molecules">
<path d="M11.9999 11C11.8021 11 11.6088 11.0586 11.4443 11.1685C11.2799 11.2784 11.1517 11.4346 11.076 11.6173C11.0003 11.8 10.9805 12.0011 11.0191 12.1951C11.0577 12.3891 11.153 12.5673 11.2928 12.7071C11.4327 12.847 11.6108 12.9422 11.8048 12.9808C11.9988 13.0194 12.1999 12.9996 12.3826 12.9239C12.5653 12.8482 12.7215 12.72 12.8314 12.5556C12.9413 12.3911 12.9999 12.1978 12.9999 12C12.9999 11.7348 12.8946 11.4804 12.707 11.2929C12.5195 11.1054 12.2651 11 11.9999 11ZM19.6199 12L19.7299 11.86C21.0799 10 21.3999 8.29 20.6599 7C19.9199 5.71 18.2599 5.14 15.9999 5.37H15.8199C14.9099 3.3 13.5599 2 11.9999 2C10.4399 2 9.08991 3.3 8.18991 5.4L7.99991 5.37C5.73991 5.14 4.07991 5.71 3.33991 7C2.59991 8.29 2.91991 10 4.26991 11.86L4.37991 12L4.26991 12.14C2.91991 14 2.59991 15.71 3.33991 17C3.99991 18.1 5.26991 18.68 6.99991 18.68C7.30991 18.68 7.62991 18.68 7.99991 18.63H8.17991C9.08991 20.7 10.4399 22 11.9999 22C13.5599 22 14.9099 20.7 15.8099 18.6H15.9899C16.3299 18.6 16.6499 18.65 16.9899 18.65C18.7599 18.65 20.0599 18.07 20.6899 16.97C21.4299 15.68 21.1099 13.97 19.7599 12.11L19.6199 12ZM5.06991 8C5.31991 7.56 6.06991 7.32 7.06991 7.32H7.55991C7.40321 7.93517 7.2863 8.5598 7.20991 9.19C6.70045 9.57537 6.21613 9.99288 5.75991 10.44C4.99991 9.44 4.77991 8.5 5.06991 8ZM5.06991 16C4.77991 15.5 5.06991 14.56 5.73991 13.53C6.19613 13.9771 6.68045 14.3946 7.18991 14.78C7.26631 15.4135 7.38322 16.0415 7.53991 16.66C6.29991 16.74 5.35991 16.5 5.06991 16ZM11.9999 4C12.5599 4 13.2299 4.66 13.7999 5.83C13.189 6.00731 12.5881 6.21762 11.9999 6.46C11.4117 6.21762 10.8109 6.00731 10.1999 5.83C10.7699 4.66 11.4399 4 11.9999 4ZM11.9999 20C11.4399 20 10.7699 19.34 10.1999 18.17C10.8109 17.9927 11.4117 17.7824 11.9999 17.54C12.5881 17.7824 13.189 17.9927 13.7999 18.17C13.2299 19.34 12.5599 20 11.9999 20ZM14.9299 13.69C14.4699 14.01 13.9999 14.31 13.4999 14.6C12.9999 14.89 12.4999 15.15 11.9999 15.38C11.4999 15.1467 10.9999 14.8867 10.4999 14.6C9.99991 14.31 9.49991 14.01 9.06991 13.69C8.99991 13.15 8.99991 12.59 8.99991 12C8.99991 11.41 8.99991 10.85 9.06991 10.31C9.52991 9.99 9.99991 9.69 10.4999 9.4C10.9999 9.11 11.4999 8.85 11.9999 8.62C12.4999 8.85333 12.9999 9.11333 13.4999 9.4C13.9999 9.69 14.4999 9.99 14.9299 10.31C14.9299 10.85 14.9999 11.41 14.9999 12C14.9999 12.59 14.9999 13.15 14.9299 13.69ZM18.9299 16C18.6399 16.5 17.6999 16.75 16.4599 16.66C16.6166 16.0415 16.7335 15.4135 16.8099 14.78C17.3194 14.3946 17.8037 13.9771 18.2599 13.53C18.9999 14.56 19.2199 15.5 18.9299 16ZM18.2599 10.47C17.8037 10.0229 17.3194 9.60537 16.8099 9.22C16.7335 8.5898 16.6166 7.96517 16.4599 7.35H16.9499C17.9499 7.35 18.6799 7.59 18.9499 8.03C19.2199 8.47 18.9999 9.44 18.2599 10.47Z" />
</symbol><symbol viewBox="0 0 24 24" id="education-award">
<path d="M21.3803 5.75998C21.3462 5.63229 21.2871 5.51263 21.2064 5.40792C21.1257 5.30322 21.0251 5.21555 20.9103 5.14998L15.7103 2.14998C15.5968 2.08345 15.4712 2.03998 15.3409 2.02206C15.2105 2.00415 15.0779 2.01215 14.9506 2.04559C14.8233 2.07903 14.7039 2.13727 14.5992 2.21696C14.4945 2.29665 14.4065 2.39623 14.3403 2.50998L12.0003 6.56998L9.66034 2.50998C9.59417 2.39623 9.50621 2.29665 9.40149 2.21696C9.29676 2.13727 9.17734 2.07903 9.05007 2.04559C8.92279 2.01215 8.79017 2.00415 8.6598 2.02206C8.52943 2.03998 8.40387 2.08345 8.29034 2.14998L3.09034 5.14998C2.97557 5.21555 2.87494 5.30322 2.79427 5.40792C2.71359 5.51263 2.65448 5.63229 2.62034 5.75998C2.55415 6.01343 2.59006 6.28273 2.72034 6.50998L6.72034 13.34C6.27408 14.1575 6.02738 15.069 6.00034 16C5.99796 16.9083 6.20182 17.8052 6.59656 18.6233C6.99129 19.4413 7.5666 20.159 8.27909 20.7223C8.99159 21.2857 9.82268 21.6799 10.7097 21.8753C11.5967 22.0706 12.5165 22.0621 13.3998 21.8502C14.283 21.6384 15.1066 21.2287 15.8085 20.6523C16.5104 20.0758 17.0722 19.3475 17.4517 18.5222C17.8311 17.697 18.0183 16.7964 17.999 15.8883C17.9797 14.9802 17.7545 14.0884 17.3403 13.28L21.2403 6.51998C21.3129 6.40892 21.3627 6.28453 21.3867 6.15405C21.4108 6.02357 21.4086 5.88961 21.3803 5.75998ZM5.00034 6.37998L8.46034 4.37998L11.6803 9.99998C10.3078 10.0848 9.00712 10.6432 8.00034 11.58L5.00034 6.37998ZM12.0003 20C10.9395 20 9.92206 19.5786 9.17191 18.8284C8.42176 18.0783 8.00034 17.0608 8.00034 16C8.00034 14.9391 8.42176 13.9217 9.17191 13.1716C9.92206 12.4214 10.9395 12 12.0003 12C13.0612 12 14.0786 12.4214 14.8288 13.1716C15.5789 13.9217 16.0003 14.9391 16.0003 16C16.0003 17.0608 15.5789 18.0783 14.8288 18.8284C14.0786 19.5786 13.0612 20 12.0003 20ZM16.0003 11.55C15.4574 11.0541 14.8266 10.6641 14.1403 10.4L13.1603 8.56998L15.5803 4.37998L19.0403 6.37998L16.0003 11.55Z" />
</symbol><symbol viewBox="0 0 24 24" id="education-badge">
<path d="M20.8701 17.25L18.1601 12.57C18.7146 11.5515 19.0035 10.4097 19.0001 9.25C19.0001 7.39348 18.2626 5.61301 16.9498 4.30025C15.6371 2.9875 13.8566 2.25 12.0001 2.25C10.1436 2.25 8.36308 2.9875 7.05033 4.30025C5.73757 5.61301 5.00007 7.39348 5.00007 9.25C4.99663 10.4097 5.28553 11.5515 5.84007 12.57L3.13007 17.25C3.04213 17.4023 2.99592 17.5751 2.99609 17.751C2.99627 17.9269 3.04282 18.0996 3.13106 18.2517C3.2193 18.4039 3.34611 18.53 3.49868 18.6175C3.65125 18.705 3.8242 18.7507 4.00007 18.75H6.87007L8.33007 21.21C8.37929 21.2915 8.4399 21.3656 8.51007 21.43C8.69545 21.6087 8.9426 21.709 9.20007 21.71H9.34007C9.49104 21.6893 9.63529 21.6345 9.76181 21.5495C9.88833 21.4646 9.99377 21.3519 10.0701 21.22L12.0001 17.9L13.9301 21.25C14.0075 21.38 14.1134 21.4908 14.2399 21.5739C14.3663 21.6571 14.51 21.7104 14.6601 21.73H14.8001C15.061 21.7316 15.3122 21.6311 15.5001 21.45C15.5673 21.3893 15.6247 21.3184 15.6701 21.24L17.1301 18.78H20.0001C20.1763 18.7807 20.3495 18.7348 20.5023 18.647C20.6551 18.5592 20.782 18.4326 20.8701 18.28C20.9635 18.1245 21.0129 17.9464 21.0129 17.765C21.0129 17.5836 20.9635 17.4055 20.8701 17.25ZM9.19007 18.78L8.30007 17.29C8.21244 17.1422 8.08818 17.0194 7.9393 16.9336C7.79041 16.8478 7.62192 16.8018 7.45007 16.8H5.72007L7.15007 14.32C8.1348 15.2689 9.37589 15.9085 10.7201 16.16L9.19007 18.78ZM12.0001 14.25C11.0112 14.25 10.0445 13.9568 9.22222 13.4073C8.39998 12.8579 7.75911 12.077 7.38068 11.1634C7.00224 10.2498 6.90322 9.24445 7.09615 8.27455C7.28907 7.30464 7.76528 6.41373 8.46454 5.71447C9.1638 5.0152 10.0547 4.539 11.0246 4.34607C11.9945 4.15315 12.9999 4.25216 13.9135 4.6306C14.8271 5.00904 15.608 5.6499 16.1574 6.47215C16.7068 7.29439 17.0001 8.26109 17.0001 9.25C17.0001 10.5761 16.4733 11.8479 15.5356 12.7855C14.5979 13.7232 13.3262 14.25 12.0001 14.25ZM16.5501 16.8C16.3782 16.8018 16.2097 16.8478 16.0609 16.9336C15.912 17.0194 15.7877 17.1422 15.7001 17.29L14.8101 18.78L13.2901 16.13C14.6296 15.8734 15.866 15.2343 16.8501 14.29L18.2801 16.77L16.5501 16.8Z" />
</symbol><symbol viewBox="0 0 24 24" id="education-bell">
<path d="M21.0005 7.99999C20.997 7.61675 20.8834 7.24259 20.6733 6.92204C20.4633 6.60149 20.1655 6.34805 19.8155 6.19188C19.4655 6.03572 19.078 5.9834 18.6992 6.04115C18.3203 6.09891 17.966 6.26431 17.6784 6.51767C17.3908 6.77103 17.1821 7.10168 17.0771 7.47026C16.9721 7.83885 16.9752 8.22985 17.086 8.59672C17.1969 8.9636 17.4108 9.2909 17.7023 9.53968C17.9939 9.78846 18.3507 9.94824 18.7305 9.99999C18.9406 10.58 19.0289 11.197 18.99 11.8127C18.9511 12.4283 18.7857 13.0293 18.5042 13.5782C18.2228 14.1271 17.8312 14.6121 17.354 15.003C16.8767 15.3938 16.3241 15.6822 15.7305 15.85C15.4667 15.243 15.0097 14.7402 14.4305 14.42C15.2593 13.3917 15.7803 12.1499 15.9333 10.838C16.0863 9.52618 15.8651 8.1978 15.2951 7.00636C14.7252 5.81492 13.8298 4.80902 12.7124 4.10489C11.595 3.40075 10.3012 3.0271 8.98047 3.0271C7.65972 3.0271 6.36592 3.40075 5.24853 4.10489C4.13114 4.80902 3.23575 5.81492 2.6658 7.00636C2.09585 8.1978 1.8746 9.52618 2.0276 10.838C2.18061 12.1499 2.70163 13.3917 3.53047 14.42C3.07147 14.678 2.68844 15.0522 2.41988 15.505C2.15131 15.9579 2.00667 16.4735 2.00047 17V18C2.00047 18.7956 2.31654 19.5587 2.87915 20.1213C3.44176 20.6839 4.20482 21 5.00047 21H13.0005C13.7961 21 14.5592 20.6839 15.1218 20.1213C15.6844 19.5587 16.0005 18.7956 16.0005 18V17.81C16.898 17.6004 17.7405 17.2014 18.4713 16.6398C19.2022 16.0782 19.8046 15.3669 20.2383 14.5535C20.672 13.7402 20.9268 12.8436 20.9858 11.9237C21.0448 11.0039 20.9066 10.0821 20.5805 9.21999C20.8514 8.87089 20.9991 8.44189 21.0005 7.99999ZM14.0005 18C14.0005 18.2652 13.8951 18.5196 13.7076 18.7071C13.52 18.8946 13.2657 19 13.0005 19H5.00047C4.73526 19 4.4809 18.8946 4.29337 18.7071C4.10583 18.5196 4.00047 18.2652 4.00047 18V17C4.00047 16.7348 4.10583 16.4804 4.29337 16.2929C4.4809 16.1053 4.73526 16 5.00047 16H5.41047C6.49352 16.6546 7.73495 17.0007 9.00047 17.0007C10.266 17.0007 11.5074 16.6546 12.5905 16H13.0005C13.2657 16 13.52 16.1053 13.7076 16.2929C13.8951 16.4804 14.0005 16.7348 14.0005 17V18ZM9.00047 15C8.01157 15 7.04487 14.7067 6.22262 14.1573C5.40038 13.6079 4.75951 12.827 4.38108 11.9134C4.00264 10.9998 3.90362 9.99444 4.09655 9.02454C4.28947 8.05464 4.76568 7.16372 5.46494 6.46446C6.1642 5.7652 7.05512 5.28899 8.02502 5.09607C8.99493 4.90314 10.0003 5.00216 10.9139 5.38059C11.8275 5.75903 12.6084 6.39989 13.1578 7.22214C13.7072 8.04439 14.0005 9.01109 14.0005 9.99999C14.0005 10.6566 13.8711 11.3068 13.6199 11.9134C13.3686 12.52 13.0003 13.0712 12.536 13.5355C12.0717 13.9998 11.5205 14.3681 10.9139 14.6194C10.3073 14.8707 9.65708 15 9.00047 15ZM9.00047 8.99999C8.80269 8.99999 8.60935 9.05864 8.4449 9.16852C8.28045 9.2784 8.15228 9.43458 8.07659 9.61731C8.00091 9.80003 7.9811 10.0011 8.01969 10.1951C8.05827 10.3891 8.15351 10.5672 8.29337 10.7071C8.43322 10.847 8.6114 10.9422 8.80538 10.9808C8.99936 11.0194 9.20043 10.9996 9.38316 10.9239C9.56588 10.8482 9.72206 10.72 9.83194 10.5556C9.94182 10.3911 10.0005 10.1978 10.0005 9.99999C10.0005 9.73478 9.89512 9.48042 9.70758 9.29288C9.52004 9.10535 9.26569 8.99999 9.00047 8.99999Z" />
</symbol><symbol viewBox="0 0 24 24" id="education-book">
<path d="M17 2H5C4.73478 2 4.48043 2.10536 4.29289 2.29289C4.10536 2.48043 4 2.73478 4 3V19C4 19.2652 4.10536 19.5196 4.29289 19.7071C4.48043 19.8946 4.73478 20 5 20H6V21C6 21.2652 6.10536 21.5196 6.29289 21.7071C6.48043 21.8946 6.73478 22 7 22C7.26522 22 7.51957 21.8946 7.70711 21.7071C7.89464 21.5196 8 21.2652 8 21V20H17C17.7956 20 18.5587 19.6839 19.1213 19.1213C19.6839 18.5587 20 17.7956 20 17V5C20 4.20435 19.6839 3.44129 19.1213 2.87868C18.5587 2.31607 17.7956 2 17 2ZM14 18H6V4H14V18ZM18 17C18 17.2652 17.8946 17.5196 17.7071 17.7071C17.5196 17.8946 17.2652 18 17 18H16V4H17C17.2652 4 17.5196 4.10536 17.7071 4.29289C17.8946 4.48043 18 4.73478 18 5V17Z" />
</symbol><symbol viewBox="0 0 24 24" id="education-book-1">
<path d="M17 2H5C4.73478 2 4.48043 2.10536 4.29289 2.29289C4.10536 2.48043 4 2.73478 4 3V21C4 21.2652 4.10536 21.5196 4.29289 21.7071C4.48043 21.8946 4.73478 22 5 22H17C17.7956 22 18.5587 21.6839 19.1213 21.1213C19.6839 20.5587 20 19.7956 20 19V5C20 4.20435 19.6839 3.44129 19.1213 2.87868C18.5587 2.31607 17.7956 2 17 2ZM8 20H6V4H8V20ZM18 19C18 19.2652 17.8946 19.5196 17.7071 19.7071C17.5196 19.8946 17.2652 20 17 20H10V4H17C17.2652 4 17.5196 4.10536 17.7071 4.29289C17.8946 4.48043 18 4.73478 18 5V19Z" />
</symbol><symbol viewBox="0 0 24 24" id="education-book-2">
<path d="M18 2H8C6.93913 2 5.92172 2.42143 5.17157 3.17157C4.42143 3.92172 4 4.93913 4 6V18C4 19.0609 4.42143 20.0783 5.17157 20.8284C5.92172 21.5786 6.93913 22 8 22H18C18.5304 22 19.0391 21.7893 19.4142 21.4142C19.7893 21.0391 20 20.5304 20 20V4C20 3.46957 19.7893 2.96086 19.4142 2.58579C19.0391 2.21071 18.5304 2 18 2ZM6 6C6 5.46957 6.21071 4.96086 6.58579 4.58579C6.96086 4.21071 7.46957 4 8 4H18V14H8C7.29504 14.003 6.60399 14.1964 6 14.56V6ZM8 20C7.46957 20 6.96086 19.7893 6.58579 19.4142C6.21071 19.0391 6 18.5304 6 18C6 17.4696 6.21071 16.9609 6.58579 16.5858C6.96086 16.2107 7.46957 16 8 16H18V20H8ZM10 8H14C14.2652 8 14.5196 7.89464 14.7071 7.70711C14.8946 7.51957 15 7.26522 15 7C15 6.73478 14.8946 6.48043 14.7071 6.29289C14.5196 6.10536 14.2652 6 14 6H10C9.73478 6 9.48043 6.10536 9.29289 6.29289C9.10536 6.48043 9 6.73478 9 7C9 7.26522 9.10536 7.51957 9.29289 7.70711C9.48043 7.89464 9.73478 8 10 8Z" />
</symbol><symbol viewBox="0 0 24 24" id="education-bookmark-inbook">
<path d="M21 6C20.7348 6 20.4804 6.10536 20.2929 6.29289C20.1054 6.48043 20 6.73478 20 7V17C20 17.7956 19.6839 18.5587 19.1213 19.1213C18.5587 19.6839 17.7956 20 17 20H7C6.73478 20 6.48043 20.1054 6.29289 20.2929C6.10536 20.4804 6 20.7348 6 21C6 21.2652 6.10536 21.5196 6.29289 21.7071C6.48043 21.8946 6.73478 22 7 22H17C18.3261 22 19.5979 21.4732 20.5355 20.5355C21.4732 19.5979 22 18.3261 22 17V7C22 6.73478 21.8946 6.48043 21.7071 6.29289C21.5196 6.10536 21.2652 6 21 6ZM18 15V5C18 4.20435 17.6839 3.44129 17.1213 2.87868C16.5587 2.31607 15.7956 2 15 2H5C4.20435 2 3.44129 2.31607 2.87868 2.87868C2.31607 3.44129 2 4.20435 2 5V15C2 15.7956 2.31607 16.5587 2.87868 17.1213C3.44129 17.6839 4.20435 18 5 18H15C15.7956 18 16.5587 17.6839 17.1213 17.1213C17.6839 16.5587 18 15.7956 18 15ZM10 4H12V8.86L11.64 8.56C11.4603 8.41033 11.2339 8.32837 11 8.32837C10.7661 8.32837 10.5397 8.41033 10.36 8.56L10 8.86V4ZM4 15V5C4 4.73478 4.10536 4.48043 4.29289 4.29289C4.48043 4.10536 4.73478 4 5 4H8V11C7.99999 11.1912 8.05477 11.3783 8.15785 11.5393C8.26094 11.7003 8.40801 11.8284 8.58164 11.9083C8.75527 11.9883 8.94819 12.0169 9.13754 11.9906C9.32688 11.9643 9.50473 11.8843 9.65 11.76L11 10.63L12.35 11.76C12.5311 11.9149 12.7617 12 13 12C13.1447 11.999 13.2876 11.9683 13.42 11.91C13.5936 11.8297 13.7405 11.7012 13.8433 11.5399C13.9461 11.3787 14.0005 11.1913 14 11V4H15C15.2652 4 15.5196 4.10536 15.7071 4.29289C15.8946 4.48043 16 4.73478 16 5V15C16 15.2652 15.8946 15.5196 15.7071 15.7071C15.5196 15.8946 15.2652 16 15 16H5C4.73478 16 4.48043 15.8946 4.29289 15.7071C4.10536 15.5196 4 15.2652 4 15Z" />
</symbol><symbol viewBox="0 0 24 24" id="education-brain">
<path d="M22.0005 11C22.0033 10.2952 21.8198 9.60209 21.4686 8.99098C21.1173 8.37987 20.6109 7.87241 20.0005 7.51999C20.0155 7.34699 20.0155 7.173 20.0005 6.99999C20.0005 6.20434 19.6844 5.44128 19.1218 4.87867C18.5592 4.31606 17.7961 3.99999 17.0005 3.99999H16.8205C16.6539 3.53831 16.3767 3.12453 16.013 2.79494C15.6493 2.46535 15.2104 2.23003 14.7346 2.1096C14.2588 1.98917 13.7607 1.98731 13.284 2.10419C12.8073 2.22108 12.3666 2.45313 12.0005 2.77999C11.6344 2.45313 11.1936 2.22108 10.7169 2.10419C10.2403 1.98731 9.74219 1.98917 9.26639 2.1096C8.79059 2.23003 8.35161 2.46535 7.98793 2.79494C7.62426 3.12453 7.347 3.53831 7.18047 3.99999H7.00047C6.20482 3.99999 5.44176 4.31606 4.87915 4.87867C4.31654 5.44128 4.00047 6.20434 4.00047 6.99999C3.98542 7.173 3.98542 7.34699 4.00047 7.51999C3.43293 7.84079 2.9524 8.29544 2.60071 8.84437C2.24902 9.3933 2.03683 10.0199 1.98261 10.6695C1.92839 11.3192 2.03378 11.9723 2.28961 12.5719C2.54544 13.1715 2.94396 13.6996 3.45047 14.11C3.12274 14.7213 2.95959 15.4072 2.97702 16.1006C2.99445 16.794 3.19187 17.4709 3.5499 18.0649C3.90792 18.6589 4.41426 19.1496 5.0192 19.4889C5.62415 19.8282 6.30691 20.0043 7.00047 20H7.18047C7.347 20.4617 7.62426 20.8755 7.98793 21.205C8.35161 21.5346 8.79059 21.77 9.26639 21.8904C9.74219 22.0108 10.2403 22.0127 10.7169 21.8958C11.1936 21.7789 11.6344 21.5469 12.0005 21.22C12.3666 21.5469 12.8073 21.7789 13.284 21.8958C13.7607 22.0127 14.2588 22.0108 14.7346 21.8904C15.2104 21.77 15.6493 21.5346 16.013 21.205C16.3767 20.8755 16.6539 20.4617 16.8205 20H17.0005C17.6898 19.9956 18.3663 19.8132 18.9644 19.4704C19.5624 19.1276 20.0617 18.6361 20.4139 18.0434C20.766 17.4508 20.9591 16.7773 20.9742 16.0881C20.9894 15.3989 20.8262 14.7175 20.5005 14.11C20.9669 13.7366 21.3438 13.2634 21.6033 12.7252C21.8629 12.187 21.9986 11.5975 22.0005 11ZM11.0005 8.54999C10.7827 8.42542 10.5553 8.31842 10.3205 8.22999C10.0685 8.14512 9.79317 8.16382 9.555 8.28197C9.31682 8.40012 9.13534 8.60804 9.05047 8.85999C8.9656 9.11195 8.9843 9.3873 9.10245 9.62547C9.22059 9.86364 9.42852 10.0451 9.68047 10.13C10.0654 10.2692 10.3984 10.5231 10.6344 10.8575C10.8705 11.1919 10.9983 11.5907 11.0005 12V13.55C10.7827 13.4254 10.5553 13.3184 10.3205 13.23C10.0685 13.1451 9.79317 13.1638 9.555 13.282C9.31682 13.4001 9.13534 13.608 9.05047 13.86C8.9656 14.1119 8.9843 14.3873 9.10245 14.6255C9.22059 14.8636 9.42852 15.0451 9.68047 15.13C10.0654 15.2692 10.3984 15.5231 10.6344 15.8575C10.8705 16.1919 10.9983 16.5907 11.0005 17V19C11.0005 19.2652 10.8951 19.5196 10.7076 19.7071C10.52 19.8946 10.2657 20 10.0005 20C9.80701 19.9987 9.61806 19.9414 9.45654 19.8349C9.29502 19.7284 9.16786 19.5773 9.09047 19.4C9.25815 19.3016 9.41856 19.1913 9.57047 19.07C9.67159 18.9859 9.75516 18.8828 9.81642 18.7665C9.87768 18.6501 9.91542 18.5228 9.92749 18.3919C9.93957 18.261 9.92573 18.129 9.88678 18.0034C9.84783 17.8778 9.78452 17.7611 9.70047 17.66C9.61643 17.5589 9.51329 17.4753 9.39694 17.414C9.2806 17.3528 9.15333 17.315 9.0224 17.303C8.89147 17.2909 8.75944 17.3047 8.63386 17.3437C8.50827 17.3826 8.39159 17.4459 8.29047 17.53C7.9294 17.834 7.47246 18.0005 7.00047 18C6.47004 18 5.96133 17.7893 5.58626 17.4142C5.21119 17.0391 5.00047 16.5304 5.00047 16C5.00526 15.6236 5.11618 15.2562 5.32047 14.94C5.54489 14.9802 5.77247 15.0003 6.00047 15C6.26569 15 6.52004 14.8946 6.70758 14.7071C6.89512 14.5196 7.00047 14.2652 7.00047 14C7.00047 13.7348 6.89512 13.4804 6.70758 13.2929C6.52004 13.1054 6.26569 13 6.00047 13C5.76426 13.0014 5.53 12.9572 5.31047 12.87C4.95082 12.7403 4.63588 12.5102 4.40296 12.207C4.17005 11.9038 4.02892 11.5402 3.9963 11.1593C3.96368 10.7783 4.04093 10.396 4.2189 10.0576C4.39687 9.71925 4.66811 9.43897 5.00047 9.24999C5.14257 9.38073 5.29657 9.49791 5.46047 9.59999C5.69121 9.7326 5.96518 9.76812 6.2221 9.69873C6.47903 9.62934 6.69786 9.46073 6.83047 9.22999C6.96308 8.99926 6.9986 8.72529 6.92921 8.46836C6.85982 8.21144 6.69121 7.9926 6.46047 7.85999C6.3197 7.78234 6.2023 7.66839 6.12047 7.52999C6.02802 7.36944 5.98619 7.18471 6.00047 6.99999C6.00047 6.73478 6.10583 6.48042 6.29337 6.29289C6.4809 6.10535 6.73526 5.99999 7.00047 5.99999C7.07014 5.99028 7.14081 5.99028 7.21047 5.99999C7.26341 6.16066 7.32688 6.31767 7.40047 6.46999C7.4658 6.58458 7.55316 6.68511 7.6575 6.7658C7.76185 6.84648 7.88113 6.90572 8.00847 6.94012C8.13581 6.97451 8.2687 6.98337 8.39947 6.96618C8.53025 6.949 8.65634 6.90611 8.77047 6.83999C8.99218 6.7066 9.15355 6.49247 9.22068 6.24259C9.28781 5.99271 9.25548 5.72653 9.13047 5.49999C9.04657 5.3466 9.00191 5.17483 9.00047 4.99999C9.00047 4.73478 9.10583 4.48042 9.29337 4.29289C9.4809 4.10535 9.73526 3.99999 10.0005 3.99999C10.2657 3.99999 10.52 4.10535 10.7076 4.29289C10.8951 4.48042 11.0005 4.73478 11.0005 4.99999V8.54999ZM18.6905 12.87C18.471 12.9572 18.2367 13.0014 18.0005 13C17.7353 13 17.4809 13.1054 17.2934 13.2929C17.1058 13.4804 17.0005 13.7348 17.0005 14C17.0005 14.2652 17.1058 14.5196 17.2934 14.7071C17.4809 14.8946 17.7353 15 18.0005 15C18.2285 15.0003 18.4561 14.9802 18.6805 14.94C18.8848 15.2562 18.9957 15.6236 19.0005 16C19.0005 16.5304 18.7898 17.0391 18.4147 17.4142C18.0396 17.7893 17.5309 18 17.0005 18C16.5285 18.0005 16.0715 17.834 15.7105 17.53C15.5063 17.3603 15.243 17.2786 14.9785 17.303C14.7141 17.3274 14.4702 17.4558 14.3005 17.66C14.1307 17.8642 14.0491 18.1275 14.0735 18.3919C14.0978 18.6563 14.2263 18.9003 14.4305 19.07C14.5824 19.1913 14.7428 19.3016 14.9105 19.4C14.8331 19.5773 14.7059 19.7284 14.5444 19.8349C14.3829 19.9414 14.1939 19.9987 14.0005 20C13.7353 20 13.4809 19.8946 13.2934 19.7071C13.1058 19.5196 13.0005 19.2652 13.0005 19V17C13.0027 16.5907 13.1305 16.1919 13.3665 15.8575C13.6026 15.5231 13.9355 15.2692 14.3205 15.13C14.5724 15.0451 14.7804 14.8636 14.8985 14.6255C15.0166 14.3873 15.0353 14.1119 14.9505 13.86C14.8656 13.608 14.6841 13.4001 14.446 13.282C14.2078 13.1638 13.9324 13.1451 13.6805 13.23C13.4457 13.3184 13.2183 13.4254 13.0005 13.55V12C13.0027 11.5907 13.1305 11.1919 13.3665 10.8575C13.6026 10.5231 13.9355 10.2692 14.3205 10.13C14.5724 10.0451 14.7804 9.86364 14.8985 9.62547C15.0166 9.3873 15.0353 9.11195 14.9505 8.85999C14.8656 8.60804 14.6841 8.40012 14.446 8.28197C14.2078 8.16382 13.9324 8.14512 13.6805 8.22999C13.4457 8.31842 13.2183 8.42542 13.0005 8.54999V4.99999C13.0005 4.73478 13.1058 4.48042 13.2934 4.29289C13.4809 4.10535 13.7353 3.99999 14.0005 3.99999C14.2657 3.99999 14.52 4.10535 14.7076 4.29289C14.8951 4.48042 15.0005 4.73478 15.0005 4.99999C14.999 5.17483 14.9544 5.3466 14.8705 5.49999C14.8039 5.61353 14.7605 5.73908 14.7426 5.86945C14.7246 5.99982 14.7326 6.13245 14.7661 6.25972C14.7995 6.387 14.8578 6.50642 14.9375 6.61114C15.0171 6.71587 15.1167 6.80383 15.2305 6.86999C15.3446 6.93611 15.4707 6.979 15.6015 6.99618C15.7323 7.01337 15.8651 7.00451 15.9925 6.97012C16.1198 6.93572 16.2391 6.87648 16.3434 6.7958C16.4478 6.71511 16.5351 6.61458 16.6005 6.49999C16.6753 6.33793 16.7388 6.17086 16.7905 5.99999C16.8601 5.99028 16.9308 5.99028 17.0005 5.99999C17.2657 5.99999 17.52 6.10535 17.7076 6.29289C17.8951 6.48042 18.0005 6.73478 18.0005 6.99999C17.9989 7.19603 17.9398 7.38729 17.8305 7.54999C17.7487 7.67976 17.6351 7.78647 17.5005 7.85999C17.2697 7.9926 17.1011 8.21144 17.0317 8.46836C16.9623 8.72529 16.9979 8.99926 17.1305 9.22999C17.2631 9.46073 17.4819 9.62934 17.7388 9.69873C17.9958 9.76812 18.2697 9.7326 18.5005 9.59999C18.68 9.5029 18.8478 9.38546 19.0005 9.24999C19.334 9.43563 19.6074 9.71282 19.7884 10.0488C19.9695 10.3848 20.0506 10.7656 20.0222 11.1463C19.9938 11.5269 19.8571 11.8915 19.6282 12.1969C19.3993 12.5023 19.0878 12.7359 18.7305 12.87H18.6905Z" />
</symbol><symbol viewBox="0 0 24 24" id="education-cells">
<path d="M21.49 4.72999L17 2.16999C16.848 2.08222 16.6755 2.03601 16.5 2.03601C16.3245 2.03601 16.152 2.08222 16 2.16999L12 4.44999L8 2.16999C7.84798 2.08222 7.67554 2.03601 7.5 2.03601C7.32446 2.03601 7.15202 2.08222 7 2.16999L2.51 4.72999C2.35553 4.81681 2.22691 4.94312 2.1373 5.09599C2.04769 5.24886 2.00031 5.42279 2 5.59999V10.72C2.00031 10.8972 2.04769 11.0711 2.1373 11.224C2.22691 11.3768 2.35553 11.5032 2.51 11.59L6.51 13.86V18.4C6.51031 18.5772 6.55769 18.7511 6.6473 18.904C6.73691 19.0568 6.86553 19.1832 7.02 19.27L11.52 21.83C11.672 21.9178 11.8445 21.964 12.02 21.964C12.1955 21.964 12.368 21.9178 12.52 21.83L17 19.27C17.1545 19.1832 17.2831 19.0568 17.3727 18.904C17.4623 18.7511 17.5097 18.5772 17.51 18.4V13.86L21.51 11.59C21.6645 11.5032 21.7931 11.3768 21.8827 11.224C21.9723 11.0711 22.0197 10.8972 22.02 10.72V5.59999C22.0177 5.42078 21.9673 5.24549 21.8741 5.09244C21.7809 4.93938 21.6482 4.8142 21.49 4.72999ZM4 10.14V6.13999L7.5 4.13999L11 6.13999V10.14L7.5 12.14L4 10.14ZM15.5 17.82L12 19.82L8.5 17.82V13.82L12 11.82L15.5 13.82V17.82ZM20 10.14L16.5 12.14L13 10.14V6.13999L16.5 4.13999L20 6.13999V10.14Z" />
</symbol><symbol viewBox="0 0 24 24" id="education-conical-flask">
<path d="M18.93 11.67C18.934 11.6368 18.934 11.6032 18.93 11.57C18.1847 9.79159 16.7746 8.37434 15 7.62V4H16C16.2653 4 16.5196 3.89464 16.7071 3.70711C16.8947 3.51957 17 3.26522 17 3C17 2.73478 16.8947 2.48043 16.7071 2.29289C16.5196 2.10536 16.2653 2 16 2H8.00004C7.73482 2 7.48047 2.10536 7.29293 2.29289C7.1054 2.48043 7.00004 2.73478 7.00004 3C7.00004 3.26522 7.1054 3.51957 7.29293 3.70711C7.48047 3.89464 7.73482 4 8.00004 4H9.00004V7.62C7.23112 8.39469 5.83511 9.83017 5.11004 11.62C5.10606 11.6532 5.10606 11.6868 5.11004 11.72C4.63848 12.8595 4.45517 14.0976 4.57633 15.3248C4.69749 16.5521 5.11939 17.7305 5.80468 18.7557C6.48996 19.7809 7.41747 20.6214 8.50509 21.2026C9.5927 21.7839 10.8069 22.0879 12.04 22.0879C13.2732 22.0879 14.4874 21.7839 15.575 21.2026C16.6626 20.6214 17.5901 19.7809 18.2754 18.7557C18.9607 17.7305 19.3826 16.5521 19.5038 15.3248C19.6249 14.0976 19.4416 12.8595 18.97 11.72L18.93 11.67ZM10.31 9.26C10.5105 9.19463 10.6852 9.06755 10.8091 8.89693C10.9331 8.72631 10.9999 8.52088 11 8.31V4H13V8.31C13.0002 8.52088 13.067 8.72631 13.1909 8.89693C13.3149 9.06755 13.4896 9.19463 13.69 9.26C14.6868 9.58279 15.569 10.1871 16.23 11H7.77004C8.4311 10.1871 9.31323 9.58279 10.31 9.26ZM12 20C10.5422 19.9974 9.14475 19.417 8.11387 18.3862C7.083 17.3553 6.50268 15.9579 6.50004 14.5C6.50166 13.9921 6.57574 13.487 6.72004 13H17.28C17.4243 13.487 17.4984 13.9921 17.5 14.5C17.4974 15.9579 16.9171 17.3553 15.8862 18.3862C14.8553 19.417 13.4579 19.9974 12 20ZM14 16C13.8023 16 13.6089 16.0586 13.4445 16.1685C13.28 16.2784 13.1518 16.4346 13.0762 16.6173C13.0005 16.8 12.9807 17.0011 13.0193 17.1951C13.0578 17.3891 13.1531 17.5673 13.2929 17.7071C13.4328 17.847 13.611 17.9422 13.805 17.9808C13.9989 18.0194 14.2 17.9996 14.3827 17.9239C14.5655 17.8482 14.7216 17.72 14.8315 17.5556C14.9414 17.3911 15 17.1978 15 17C15 16.7348 14.8947 16.4804 14.7071 16.2929C14.5196 16.1054 14.2653 16 14 16ZM10 15C9.80226 15 9.60892 15.0586 9.44447 15.1685C9.28002 15.2784 9.15185 15.4346 9.07616 15.6173C9.00047 15.8 8.98067 16.0011 9.01926 16.1951C9.05784 16.3891 9.15308 16.5673 9.29293 16.7071C9.43279 16.847 9.61097 16.9422 9.80495 16.9808C9.99893 17.0194 10.2 16.9996 10.3827 16.9239C10.5655 16.8482 10.7216 16.72 10.8315 16.5556C10.9414 16.3911 11 16.1978 11 16C11 15.7348 10.8947 15.4804 10.7071 15.2929C10.5196 15.1054 10.2653 15 10 15Z" />
</symbol><symbol viewBox="0 0 24 24" id="education-conical-flask-1">
<path d="M20.1101 17.49L15.0001 8.73V4H16.0001C16.2654 4 16.5197 3.89464 16.7073 3.70711C16.8948 3.51957 17.0001 3.26522 17.0001 3C17.0001 2.73478 16.8948 2.48043 16.7073 2.29289C16.5197 2.10536 16.2654 2 16.0001 2H8.00015C7.73493 2 7.48058 2.10536 7.29304 2.29289C7.1055 2.48043 7.00015 2.73478 7.00015 3C7.00015 3.26522 7.1055 3.51957 7.29304 3.70711C7.48058 3.89464 7.73493 4 8.00015 4H9.00015V8.73L3.89015 17.49C3.62469 17.9457 3.48406 18.4634 3.48244 18.9908C3.48081 19.5182 3.61825 20.0367 3.88089 20.494C4.14354 20.9514 4.52211 21.3314 4.97844 21.5958C5.43478 21.8602 5.95275 21.9996 6.48015 22H17.4801C18.0075 21.9996 18.5255 21.8602 18.9818 21.5958C19.4382 21.3314 19.8168 20.9514 20.0794 20.494C20.342 20.0367 20.4795 19.5182 20.4779 18.9908C20.4762 18.4634 20.3356 17.9457 20.0701 17.49H20.1101ZM10.8601 9.49C10.9483 9.3415 10.9966 9.17268 11.0001 9V4H13.0001V9C13.002 9.17609 13.0503 9.34857 13.1401 9.5L14.0001 11H10.0001L10.8601 9.49ZM18.3801 19.49C18.2929 19.6411 18.1676 19.7668 18.0167 19.8545C17.8659 19.9422 17.6947 19.9889 17.5201 19.99H6.52015C6.34563 19.9889 6.17443 19.9422 6.02356 19.8545C5.87269 19.7668 5.7474 19.6411 5.66015 19.49C5.57238 19.338 5.52617 19.1655 5.52617 18.99C5.52617 18.8145 5.57238 18.642 5.66015 18.49L8.83015 13H15.1801L18.3801 18.5C18.4679 18.652 18.5141 18.8245 18.5141 19C18.5141 19.1755 18.4679 19.348 18.3801 19.5V19.49ZM10.0001 15C9.80236 15 9.60902 15.0586 9.44457 15.1685C9.28013 15.2784 9.15195 15.4346 9.07627 15.6173C9.00058 15.8 8.98077 16.0011 9.01936 16.1951C9.05795 16.3891 9.15319 16.5673 9.29304 16.7071C9.43289 16.847 9.61107 16.9422 9.80506 16.9808C9.99904 17.0194 10.2001 16.9996 10.3828 16.9239C10.5656 16.8482 10.7217 16.72 10.8316 16.5556C10.9415 16.3911 11.0001 16.1978 11.0001 16C11.0001 15.7348 10.8948 15.4804 10.7073 15.2929C10.5197 15.1054 10.2654 15 10.0001 15ZM14.0001 16C13.8024 16 13.609 16.0586 13.4446 16.1685C13.2801 16.2784 13.152 16.4346 13.0763 16.6173C13.0006 16.8 12.9808 17.0011 13.0194 17.1951C13.0579 17.3891 13.1532 17.5673 13.293 17.7071C13.4329 17.847 13.6111 17.9422 13.8051 17.9808C13.999 18.0194 14.2001 17.9996 14.3828 17.9239C14.5656 17.8482 14.7217 17.72 14.8316 17.5556C14.9415 17.3911 15.0001 17.1978 15.0001 17C15.0001 16.7348 14.8948 16.4804 14.7073 16.2929C14.5197 16.1054 14.2654 16 14.0001 16Z" />
</symbol><symbol viewBox="0 0 24 24" id="education-dna">
<path d="M9.2 13.73C9.01933 13.537 8.76956 13.4233 8.50532 13.4139C8.24108 13.4046 7.98389 13.5002 7.79 13.68C6.60767 14.7214 5.65882 16.001 5.00566 17.4349C4.3525 18.8687 4.00979 20.4244 4 22C4 22.2652 4.10536 22.5196 4.29289 22.7071C4.48043 22.8946 4.73478 23 5 23C5.26522 23 5.51957 22.8946 5.70711 22.7071C5.89464 22.5196 6 22.2652 6 22C6.00687 20.6983 6.2914 19.413 6.83461 18.23C7.37782 17.047 8.16719 15.9936 9.15 15.14C9.34304 14.9593 9.45668 14.7096 9.46605 14.4453C9.47542 14.1811 9.37976 13.9239 9.2 13.73ZM19.37 18.37C18.9975 17.2922 18.4575 16.2798 17.77 15.37C16.7412 14.0372 15.4853 12.8963 14.06 12C16.3 10.57 20 7.4 20 2C20 1.73478 19.8946 1.48043 19.7071 1.29289C19.5196 1.10536 19.2652 1 19 1C18.7348 1 18.4804 1.10536 18.2929 1.29289C18.1054 1.48043 18 1.73478 18 2C18 7.4 13.41 10.17 12 10.89C11.0293 10.3726 10.1258 9.73787 9.31 9H12C12.2652 9 12.5196 8.89464 12.7071 8.70711C12.8946 8.51957 13 8.26522 13 8C13 7.73478 12.8946 7.48043 12.7071 7.29289C12.5196 7.10536 12.2652 7 12 7H7.55C7.1382 6.37554 6.80248 5.70412 6.55 5H15C15.2652 5 15.5196 4.89464 15.7071 4.70711C15.8946 4.51957 16 4.26522 16 4C16 3.73478 15.8946 3.48043 15.7071 3.29289C15.5196 3.10536 15.2652 3 15 3H6.06C6.01949 2.66821 5.99945 2.33425 6 2C6 1.73478 5.89464 1.48043 5.70711 1.29289C5.51957 1.10536 5.26522 1 5 1C4.73478 1 4.48043 1.10536 4.29289 1.29289C4.10536 1.48043 4 1.73478 4 2C4 9.57 11.3 12.79 11.61 12.92C12.735 13.4606 13.7758 14.1612 14.7 15H12C11.7348 15 11.4804 15.1054 11.2929 15.2929C11.1054 15.4804 11 15.7348 11 16C11 16.2652 11.1054 16.5196 11.2929 16.7071C11.4804 16.8946 11.7348 17 12 17H16.43C16.8446 17.6229 17.1804 18.2946 17.43 19H9C8.73478 19 8.48043 19.1054 8.29289 19.2929C8.10536 19.4804 8 19.7348 8 20C8 20.2652 8.10536 20.5196 8.29289 20.7071C8.48043 20.8946 8.73478 21 9 21H17.94C17.9802 21.3318 18.0003 21.6658 18 22C18 22.2652 18.1054 22.5196 18.2929 22.7071C18.4804 22.8946 18.7348 23 19 23C19.2652 23 19.5196 22.8946 19.7071 22.7071C19.8946 22.5196 20 22.2652 20 22C20.0036 21.2643 19.9299 20.5303 19.78 19.81C19.6826 19.3197 19.5454 18.8381 19.37 18.37Z" />
</symbol><symbol viewBox="0 0 24 24" id="education-hierarchy">
<path d="M21 18H19V15C19 14.7348 18.8946 14.4805 18.7071 14.2929C18.5196 14.1054 18.2652 14 18 14H13V11.29L14.13 11.88C14.2948 11.9662 14.4804 12.0048 14.6658 11.9913C14.8513 11.9779 15.0294 11.913 15.18 11.8039C15.3307 11.6948 15.4479 11.5459 15.5185 11.3738C15.5892 11.2018 15.6105 11.0135 15.58 10.83L15.18 8.46002L16.9 6.77002C17.0303 6.6428 17.1233 6.48243 17.1692 6.3062C17.215 6.12997 17.2118 5.94458 17.16 5.77002C17.102 5.5923 16.9954 5.43437 16.8522 5.31418C16.7091 5.19398 16.5351 5.11633 16.35 5.09002L14 4.72002L12.9 2.56002C12.8181 2.39095 12.6903 2.24836 12.5311 2.14859C12.3719 2.04883 12.1879 1.99591 12 1.99591C11.8121 1.99591 11.6281 2.04883 11.4689 2.14859C11.3097 2.24836 11.1819 2.39095 11.1 2.56002L10 4.72002L7.61 5.07002C7.42492 5.09633 7.25092 5.17398 7.10775 5.29418C6.96458 5.41437 6.85796 5.5723 6.8 5.75002C6.74819 5.92458 6.74502 6.10997 6.79084 6.2862C6.83666 6.46243 6.92973 6.6228 7.06 6.75002L8.82 8.46002L8.42 10.83C8.38952 11.0135 8.4108 11.2018 8.48145 11.3738C8.5521 11.5459 8.66933 11.6948 8.81996 11.8039C8.9706 11.913 9.14866 11.9779 9.33415 11.9913C9.51964 12.0048 9.70521 11.9662 9.87 11.88L11 11.29V14H6C5.73478 14 5.48043 14.1054 5.29289 14.2929C5.10536 14.4805 5 14.7348 5 15V18H3C2.73478 18 2.48043 18.1054 2.29289 18.2929C2.10536 18.4804 2 18.7348 2 19V21C2 21.2652 2.10536 21.5196 2.29289 21.7071C2.48043 21.8947 2.73478 22 3 22C3.26522 22 3.51957 21.8947 3.70711 21.7071C3.89464 21.5196 4 21.2652 4 21V20H8V21C8 21.2652 8.10536 21.5196 8.29289 21.7071C8.48043 21.8947 8.73478 22 9 22C9.26522 22 9.51957 21.8947 9.70711 21.7071C9.89464 21.5196 10 21.2652 10 21V19C10 18.7348 9.89464 18.4804 9.70711 18.2929C9.51957 18.1054 9.26522 18 9 18H7V16H17V18H15C14.7348 18 14.4804 18.1054 14.2929 18.2929C14.1054 18.4804 14 18.7348 14 19V21C14 21.2652 14.1054 21.5196 14.2929 21.7071C14.4804 21.8947 14.7348 22 15 22C15.2652 22 15.5196 21.8947 15.7071 21.7071C15.8946 21.5196 16 21.2652 16 21V20H20V21C20 21.2652 20.1054 21.5196 20.2929 21.7071C20.4804 21.8947 20.7348 22 21 22C21.2652 22 21.5196 21.8947 21.7071 21.7071C21.8946 21.5196 22 21.2652 22 21V19C22 18.7348 21.8946 18.4804 21.7071 18.2929C21.5196 18.1054 21.2652 18 21 18ZM12 8.63002C11.8359 8.63084 11.6744 8.67205 11.53 8.75002L10.73 9.17002L10.88 8.27002C10.9062 8.11083 10.8936 7.94764 10.8431 7.79441C10.7926 7.64117 10.7057 7.50243 10.59 7.39002L9.94 6.75002L10.84 6.62002C11.001 6.59851 11.1544 6.5381 11.2868 6.44401C11.4192 6.34992 11.5267 6.22499 11.6 6.08002L12 5.26002L12.4 6.08002C12.4733 6.22499 12.5808 6.34992 12.7132 6.44401C12.8456 6.5381 12.999 6.59851 13.16 6.62002L14.06 6.75002L13.41 7.39002C13.2943 7.50243 13.2074 7.64117 13.1569 7.79441C13.1064 7.94764 13.0938 8.11083 13.12 8.27002L13.27 9.17002L12.47 8.75002C12.3256 8.67205 12.1641 8.63084 12 8.63002Z" />
</symbol><symbol viewBox="0 0 24 24" id="education-library">
<path d="M15 6H9C8.73478 6 8.48043 6.10536 8.29289 6.29289C8.10536 6.48043 8 6.73478 8 7V11C8 11.2652 8.10536 11.5196 8.29289 11.7071C8.48043 11.8946 8.73478 12 9 12H15C15.2652 12 15.5196 11.8946 15.7071 11.7071C15.8946 11.5196 16 11.2652 16 11V7C16 6.73478 15.8946 6.48043 15.7071 6.29289C15.5196 6.10536 15.2652 6 15 6ZM14 10H10V8H14V10ZM17 2H5C4.73478 2 4.48043 2.10536 4.29289 2.29289C4.10536 2.48043 4 2.73478 4 3V21C4 21.2652 4.10536 21.5196 4.29289 21.7071C4.48043 21.8946 4.73478 22 5 22H17C17.7956 22 18.5587 21.6839 19.1213 21.1213C19.6839 20.5587 20 19.7956 20 19V5C20 4.20435 19.6839 3.44129 19.1213 2.87868C18.5587 2.31607 17.7956 2 17 2ZM18 19C18 19.2652 17.8946 19.5196 17.7071 19.7071C17.5196 19.8946 17.2652 20 17 20H6V4H17C17.2652 4 17.5196 4.10536 17.7071 4.29289C17.8946 4.48043 18 4.73478 18 5V19Z" />
</symbol><symbol viewBox="0 0 24 24" id="education-mathemetics-calculation">
<path d="M21 2C20.7348 2 20.4804 2.10536 20.2929 2.29289C20.1054 2.48043 20 2.73478 20 3V6H16V5C16 4.73478 15.8946 4.48043 15.7071 4.29289C15.5196 4.10536 15.2652 4 15 4C14.7348 4 14.4804 4.10536 14.2929 4.29289C14.1054 4.48043 14 4.73478 14 5V6H12V5C12 4.73478 11.8946 4.48043 11.7071 4.29289C11.5196 4.10536 11.2652 4 11 4C10.7348 4 10.4804 4.10536 10.2929 4.29289C10.1054 4.48043 10 4.73478 10 5V6H8V5C8 4.73478 7.89464 4.48043 7.70711 4.29289C7.51957 4.10536 7.26522 4 7 4C6.73478 4 6.48043 4.10536 6.29289 4.29289C6.10536 4.48043 6 4.73478 6 5V6H4V3C4 2.73478 3.89464 2.48043 3.70711 2.29289C3.51957 2.10536 3.26522 2 3 2C2.73478 2 2.48043 2.10536 2.29289 2.29289C2.10536 2.48043 2 2.73478 2 3V19C2 19.7956 2.31607 20.5587 2.87868 21.1213C3.44129 21.6839 4.20435 22 5 22H19C19.7956 22 20.5587 21.6839 21.1213 21.1213C21.6839 20.5587 22 19.7956 22 19V3C22 2.73478 21.8946 2.48043 21.7071 2.29289C21.5196 2.10536 21.2652 2 21 2ZM20 19C20 19.2652 19.8946 19.5196 19.7071 19.7071C19.5196 19.8946 19.2652 20 19 20H5C4.73478 20 4.48043 19.8946 4.29289 19.7071C4.10536 19.5196 4 19.2652 4 19V16H6V17C6 17.2652 6.10536 17.5196 6.29289 17.7071C6.48043 17.8946 6.73478 18 7 18C7.26522 18 7.51957 17.8946 7.70711 17.7071C7.89464 17.5196 8 17.2652 8 17V16H10V17C10 17.2652 10.1054 17.5196 10.2929 17.7071C10.4804 17.8946 10.7348 18 11 18C11.2652 18 11.5196 17.8946 11.7071 17.7071C11.8946 17.5196 12 17.2652 12 17V16H16V17C16 17.2652 16.1054 17.5196 16.2929 17.7071C16.4804 17.8946 16.7348 18 17 18C17.2652 18 17.5196 17.8946 17.7071 17.7071C17.8946 17.5196 18 17.2652 18 17V16H20V19ZM20 14H18V13C18 12.7348 17.8946 12.4804 17.7071 12.2929C17.5196 12.1054 17.2652 12 17 12C16.7348 12 16.4804 12.1054 16.2929 12.2929C16.1054 12.4804 16 12.7348 16 13V14H12V13C12 12.7348 11.8946 12.4804 11.7071 12.2929C11.5196 12.1054 11.2652 12 11 12C10.7348 12 10.4804 12.1054 10.2929 12.2929C10.1054 12.4804 10 12.7348 10 13V14H8V13C8 12.7348 7.89464 12.4804 7.70711 12.2929C7.51957 12.1054 7.26522 12 7 12C6.73478 12 6.48043 12.1054 6.29289 12.2929C6.10536 12.4804 6 12.7348 6 13V14H4V8H6V9C6 9.26522 6.10536 9.51957 6.29289 9.70711C6.48043 9.89464 6.73478 10 7 10C7.26522 10 7.51957 9.89464 7.70711 9.70711C7.89464 9.51957 8 9.26522 8 9V8H10V9C10 9.26522 10.1054 9.51957 10.2929 9.70711C10.4804 9.89464 10.7348 10 11 10C11.2652 10 11.5196 9.89464 11.7071 9.70711C11.8946 9.51957 12 9.26522 12 9V8H14V9C14 9.26522 14.1054 9.51957 14.2929 9.70711C14.4804 9.89464 14.7348 10 15 10C15.2652 10 15.5196 9.89464 15.7071 9.70711C15.8946 9.51957 16 9.26522 16 9V8H20V14Z" />
</symbol><symbol viewBox="0 0 24 24" id="education-medal">
<path d="M12 1C10.6234 1.00173 9.27794 1.40929 8.13179 2.17171C6.98564 2.93413 6.08973 4.01757 5.55612 5.28651C5.0225 6.55544 4.87487 7.95355 5.13169 9.30595C5.38851 10.6583 6.03838 11.905 7.00002 12.89V22C7.00053 22.1705 7.04461 22.338 7.12808 22.4866C7.21154 22.6352 7.33162 22.7601 7.4769 22.8492C7.62218 22.9384 7.78784 22.989 7.95816 22.9961C8.12847 23.0032 8.29779 22.9667 8.45002 22.89L12 21.12L15.55 22.89C15.6893 22.9614 15.8435 22.9991 16 23C16.1872 23.0006 16.3709 22.9486 16.53 22.85C16.6741 22.7599 16.7929 22.6346 16.8751 22.4859C16.9574 22.3372 17.0004 22.1699 17 22V12.89C17.9616 11.905 18.6115 10.6583 18.8683 9.30595C19.1252 7.95355 18.9775 6.55544 18.4439 5.28651C17.9103 4.01757 17.0144 2.93413 15.8682 2.17171C14.7221 1.40929 13.3766 1.00173 12 1ZM15 20.38L12.45 19.11C12.3104 19.0397 12.1563 19.003 12 19.003C11.8437 19.003 11.6896 19.0397 11.55 19.11L9.00002 20.38V14.32C9.63294 14.6189 10.3071 14.8211 11 14.92V16C11 16.2652 11.1054 16.5196 11.2929 16.7071C11.4804 16.8946 11.7348 17 12 17C12.2652 17 12.5196 16.8946 12.7071 16.7071C12.8947 16.5196 13 16.2652 13 16V14.92C13.6929 14.8211 14.3671 14.6189 15 14.32V20.38ZM12 13C11.0111 13 10.0444 12.7068 9.22216 12.1573C8.39992 11.6079 7.75906 10.827 7.38062 9.91342C7.00218 8.99979 6.90316 7.99445 7.09609 7.02455C7.28902 6.05464 7.76522 5.16373 8.46448 4.46447C9.16374 3.7652 10.0547 3.289 11.0246 3.09607C11.9945 2.90315 12.9998 3.00216 13.9134 3.3806C14.8271 3.75904 15.608 4.3999 16.1574 5.22215C16.7068 6.04439 17 7.01109 17 8C17 9.32608 16.4732 10.5979 15.5355 11.5355C14.5979 12.4732 13.3261 13 12 13Z" />
</symbol><symbol viewBox="0 0 24 24" id="education-mortarboard">
<path d="M21.4899 10.19L20.4899 9.64002L11.4899 4.64002H11.3799C11.3186 4.6141 11.255 4.59401 11.1899 4.58002H10.9999H10.8199C10.7516 4.59402 10.6846 4.6141 10.6199 4.64002H10.5099L1.50988 9.64002C1.35598 9.72724 1.22797 9.85371 1.13891 10.0066C1.04985 10.1594 1.00293 10.3331 1.00293 10.51C1.00293 10.6869 1.04985 10.8606 1.13891 11.0135C1.22797 11.1663 1.35598 11.2928 1.50988 11.38L3.99988 12.76V17.5C3.99988 18.2957 4.31595 19.0587 4.87856 19.6213C5.44117 20.1839 6.20423 20.5 6.99988 20.5H14.9999C15.7955 20.5 16.5586 20.1839 17.1212 19.6213C17.6838 19.0587 17.9999 18.2957 17.9999 17.5V12.76L19.9999 11.64V14.5C19.9999 14.7652 20.1052 15.0196 20.2928 15.2071C20.4803 15.3947 20.7347 15.5 20.9999 15.5C21.2651 15.5 21.5194 15.3947 21.707 15.2071C21.8945 15.0196 21.9999 14.7652 21.9999 14.5V11.06C21.9996 10.8828 21.9522 10.7089 21.8626 10.556C21.773 10.4032 21.6443 10.2768 21.4899 10.19ZM15.9999 17.5C15.9999 17.7652 15.8945 18.0196 15.707 18.2071C15.5194 18.3947 15.2651 18.5 14.9999 18.5H6.99988C6.73466 18.5 6.48031 18.3947 6.29277 18.2071C6.10524 18.0196 5.99988 17.7652 5.99988 17.5V13.87L10.5099 16.37L10.6599 16.43H10.7499C10.8329 16.4405 10.9169 16.4405 10.9999 16.43C11.0829 16.4405 11.1669 16.4405 11.2499 16.43H11.3399C11.393 16.4188 11.4437 16.3985 11.4899 16.37L15.9999 13.87V17.5ZM10.9999 14.36L4.05988 10.5L10.9999 6.64002L17.9399 10.5L10.9999 14.36Z" />
</symbol><symbol viewBox="0 0 24 24" id="education-notes">
<path d="M16 14H8C7.73478 14 7.48043 14.1054 7.29289 14.2929C7.10536 14.4804 7 14.7348 7 15C7 15.2652 7.10536 15.5196 7.29289 15.7071C7.48043 15.8946 7.73478 16 8 16H16C16.2652 16 16.5196 15.8946 16.7071 15.7071C16.8946 15.5196 17 15.2652 17 15C17 14.7348 16.8946 14.4804 16.7071 14.2929C16.5196 14.1054 16.2652 14 16 14ZM16 10H10C9.73478 10 9.48043 10.1054 9.29289 10.2929C9.10536 10.4804 9 10.7348 9 11C9 11.2652 9.10536 11.5196 9.29289 11.7071C9.48043 11.8946 9.73478 12 10 12H16C16.2652 12 16.5196 11.8946 16.7071 11.7071C16.8946 11.5196 17 11.2652 17 11C17 10.7348 16.8946 10.4804 16.7071 10.2929C16.5196 10.1054 16.2652 10 16 10ZM20 4H17V3C17 2.73478 16.8946 2.48043 16.7071 2.29289C16.5196 2.10536 16.2652 2 16 2C15.7348 2 15.4804 2.10536 15.2929 2.29289C15.1054 2.48043 15 2.73478 15 3V4H13V3C13 2.73478 12.8946 2.48043 12.7071 2.29289C12.5196 2.10536 12.2652 2 12 2C11.7348 2 11.4804 2.10536 11.2929 2.29289C11.1054 2.48043 11 2.73478 11 3V4H9V3C9 2.73478 8.89464 2.48043 8.70711 2.29289C8.51957 2.10536 8.26522 2 8 2C7.73478 2 7.48043 2.10536 7.29289 2.29289C7.10536 2.48043 7 2.73478 7 3V4H4C3.73478 4 3.48043 4.10536 3.29289 4.29289C3.10536 4.48043 3 4.73478 3 5V19C3 19.7956 3.31607 20.5587 3.87868 21.1213C4.44129 21.6839 5.20435 22 6 22H18C18.7956 22 19.5587 21.6839 20.1213 21.1213C20.6839 20.5587 21 19.7956 21 19V5C21 4.73478 20.8946 4.48043 20.7071 4.29289C20.5196 4.10536 20.2652 4 20 4ZM19 19C19 19.2652 18.8946 19.5196 18.7071 19.7071C18.5196 19.8946 18.2652 20 18 20H6C5.73478 20 5.48043 19.8946 5.29289 19.7071C5.10536 19.5196 5 19.2652 5 19V6H7V7C7 7.26522 7.10536 7.51957 7.29289 7.70711C7.48043 7.89464 7.73478 8 8 8C8.26522 8 8.51957 7.89464 8.70711 7.70711C8.89464 7.51957 9 7.26522 9 7V6H11V7C11 7.26522 11.1054 7.51957 11.2929 7.70711C11.4804 7.89464 11.7348 8 12 8C12.2652 8 12.5196 7.89464 12.7071 7.70711C12.8946 7.51957 13 7.26522 13 7V6H15V7C15 7.26522 15.1054 7.51957 15.2929 7.70711C15.4804 7.89464 15.7348 8 16 8C16.2652 8 16.5196 7.89464 16.7071 7.70711C16.8946 7.51957 17 7.26522 17 7V6H19V19Z" />
</symbol><symbol viewBox="0 0 24 24" id="education-open-book">
<path d="M21.1696 2.06C20.4528 1.93653 19.7269 1.87298 18.9996 1.87C16.518 1.86796 14.0881 2.57957 11.9996 3.92C9.90574 2.59717 7.47625 1.90303 4.9996 1.92C4.27224 1.92298 3.5464 1.98653 2.8296 2.11C2.5948 2.15048 2.38218 2.27346 2.23001 2.45679C2.07784 2.64013 1.99613 2.87177 1.9996 3.11V15.11C1.99745 15.2569 2.02772 15.4025 2.08825 15.5364C2.14877 15.6703 2.23806 15.7893 2.34977 15.8847C2.46148 15.9802 2.59285 16.0499 2.73455 16.0888C2.87625 16.1278 3.02479 16.135 3.1696 16.11C4.60262 15.8619 6.0708 15.9031 7.48766 16.2311C8.90453 16.5591 10.2414 17.1674 11.4196 18.02L11.5396 18.09H11.6496C11.7605 18.1362 11.8795 18.16 11.9996 18.16C12.1197 18.16 12.2387 18.1362 12.3496 18.09H12.4596L12.5796 18.02C13.7496 17.1483 15.0826 16.5203 16.4997 16.1734C17.9169 15.8264 19.3893 15.7674 20.8296 16C20.9744 16.025 21.1229 16.0178 21.2646 15.9788C21.4063 15.9399 21.5377 15.8702 21.6494 15.7747C21.7611 15.6793 21.8504 15.5603 21.9109 15.4264C21.9715 15.2925 22.0017 15.1469 21.9996 15V3C21.9892 2.77215 21.9012 2.55471 21.7502 2.38374C21.5993 2.21276 21.3944 2.09854 21.1696 2.06ZM10.9996 15.35C9.14948 14.3767 7.09011 13.8687 4.9996 13.87C4.6696 13.87 4.3396 13.87 3.9996 13.87V3.87C4.33265 3.8508 4.66654 3.8508 4.9996 3.87C7.13298 3.86764 9.21981 4.49369 10.9996 5.67V15.35ZM19.9996 13.91C19.6596 13.91 19.3296 13.91 18.9996 13.91C16.9091 13.9087 14.8497 14.4167 12.9996 15.39V5.67C14.7794 4.49369 16.8662 3.86764 18.9996 3.87C19.3327 3.8508 19.6665 3.8508 19.9996 3.87V13.91ZM21.1696 18.06C20.4528 17.9365 19.7269 17.873 18.9996 17.87C16.518 17.868 14.0881 18.5796 11.9996 19.92C9.91111 18.5796 7.48123 17.868 4.9996 17.87C4.27224 17.873 3.5464 17.9365 2.8296 18.06C2.69942 18.0807 2.57462 18.1268 2.46236 18.1959C2.3501 18.265 2.2526 18.3555 2.17546 18.4624C2.09833 18.5693 2.04308 18.6903 2.0129 18.8186C1.98272 18.9469 1.9782 19.0799 1.9996 19.21C2.05042 19.4697 2.20209 19.6986 2.42139 19.8467C2.64069 19.9948 2.90974 20.0499 3.1696 20C4.60262 19.7519 6.0708 19.7931 7.48766 20.1211C8.90453 20.4491 10.2414 21.0574 11.4196 21.91C11.589 22.0306 11.7917 22.0954 11.9996 22.0954C12.2075 22.0954 12.4102 22.0306 12.5796 21.91C13.7578 21.0574 15.0947 20.4491 16.5115 20.1211C17.9284 19.7931 19.3966 19.7519 20.8296 20C21.0895 20.0499 21.3585 19.9948 21.5778 19.8467C21.7971 19.6986 21.9488 19.4697 21.9996 19.21C22.021 19.0799 22.0165 18.9469 21.9863 18.8186C21.9561 18.6903 21.9009 18.5693 21.8237 18.4624C21.7466 18.3555 21.6491 18.265 21.5368 18.1959C21.4246 18.1268 21.2998 18.0807 21.1696 18.06Z" />
</symbol><symbol viewBox="0 0 24 24" id="education-play-presentation">
<path d="M21 14H20V4H21C21.2652 4 21.5196 3.89464 21.7071 3.70711C21.8946 3.51957 22 3.26522 22 3C22 2.73478 21.8946 2.48043 21.7071 2.29289C21.5196 2.10536 21.2652 2 21 2H3C2.73478 2 2.48043 2.10536 2.29289 2.29289C2.10536 2.48043 2 2.73478 2 3C2 3.26522 2.10536 3.51957 2.29289 3.70711C2.48043 3.89464 2.73478 4 3 4H4V14H3C2.73478 14 2.48043 14.1054 2.29289 14.2929C2.10536 14.4804 2 14.7348 2 15C2 15.2652 2.10536 15.5196 2.29289 15.7071C2.48043 15.8946 2.73478 16 3 16H11V17.15L6.45 20.15C6.26333 20.2655 6.11988 20.4393 6.04177 20.6445C5.96366 20.8496 5.95523 21.0748 6.01779 21.2852C6.08035 21.4957 6.21042 21.6797 6.38793 21.8089C6.56544 21.938 6.78053 22.0052 7 22C7.1966 22.0022 7.38896 21.9428 7.55 21.83L11 19.55V21C11 21.2652 11.1054 21.5196 11.2929 21.7071C11.4804 21.8946 11.7348 22 12 22C12.2652 22 12.5196 21.8946 12.7071 21.7071C12.8946 21.5196 13 21.2652 13 21V19.55L16.45 21.83C16.611 21.9428 16.8034 22.0022 17 22C17.2136 21.9984 17.4212 21.9283 17.5921 21.8002C17.7631 21.672 17.8885 21.4925 17.95 21.2879C18.0115 21.0832 18.0058 20.8643 17.9338 20.6631C17.8619 20.462 17.7273 20.2892 17.55 20.17L13 17.17V16H21C21.2652 16 21.5196 15.8946 21.7071 15.7071C21.8946 15.5196 22 15.2652 22 15C22 14.7348 21.8946 14.4804 21.7071 14.2929C21.5196 14.1054 21.2652 14 21 14ZM18 14H6V4H18V14ZM9.61 12.26C9.87653 12.4175 10.1804 12.5005 10.49 12.5005C10.7996 12.5005 11.1035 12.4175 11.37 12.26L14.37 10.52C14.6265 10.3626 14.8383 10.142 14.9852 9.87943C15.1322 9.61683 15.2093 9.32093 15.2093 9.02C15.2093 8.71907 15.1322 8.42317 14.9852 8.16057C14.8383 7.89796 14.6265 7.67741 14.37 7.52L11.37 5.78C11.1035 5.62253 10.7996 5.53946 10.49 5.53946C10.1804 5.53946 9.87653 5.62253 9.61 5.78C9.34143 5.9314 9.11879 6.15259 8.96564 6.42017C8.81248 6.68774 8.73452 6.99174 8.74 7.3V10.78C8.74167 11.0815 8.82302 11.3772 8.97581 11.6371C9.1286 11.897 9.34739 12.1119 9.61 12.26ZM10.74 7.68L13 9L10.72 10.32L10.74 7.68Z" />
</symbol><symbol viewBox="0 0 24 24" id="education-podium">
<path d="M19.7903 7.13C19.6961 7.01082 19.576 6.91466 19.4391 6.84882C19.3023 6.78298 19.1522 6.74918 19.0003 6.75H8.00029V6.25C8.00153 5.81468 8.14478 5.39165 8.40828 5.04514C8.67177 4.69862 9.04113 4.44754 9.46029 4.33C9.72957 4.58983 10.0862 4.73963 10.4603 4.75H11.4603C11.8581 4.75 12.2396 4.59196 12.5209 4.31066C12.8023 4.02936 12.9603 3.64782 12.9603 3.25C12.9603 2.85218 12.8023 2.47064 12.5209 2.18934C12.2396 1.90804 11.8581 1.75 11.4603 1.75H10.4603C10.2349 1.75031 10.0124 1.80177 9.80976 1.9005C9.6071 1.99924 9.42948 2.14267 9.29029 2.32C8.36855 2.48625 7.53438 2.97067 6.93316 3.68884C6.33194 4.40702 6.00181 5.31339 6.00029 6.25V6.75H5.00029C4.8484 6.74918 4.69831 6.78298 4.56143 6.84882C4.42455 6.91466 4.30446 7.01082 4.21029 7.13C4.11011 7.24874 4.03898 7.38918 4.00253 7.5402C3.96608 7.69121 3.96531 7.84864 4.00029 8L4.62029 10.49C4.76833 11.0635 5.08284 11.5804 5.52417 11.9755C5.96551 12.3705 6.51392 12.6261 7.10029 12.71L7.88029 19.71H7.00029C6.73507 19.71 6.48072 19.8154 6.29318 20.0029C6.10565 20.1904 6.00029 20.4448 6.00029 20.71C6.00029 20.9752 6.10565 21.2296 6.29318 21.4171C6.48072 21.6046 6.73507 21.71 7.00029 21.71H17.0003C17.2655 21.71 17.5199 21.6046 17.7074 21.4171C17.8949 21.2296 18.0003 20.9752 18.0003 20.71C18.0003 20.4448 17.8949 20.1904 17.7074 20.0029C17.5199 19.8154 17.2655 19.71 17.0003 19.71H16.1203L16.9003 12.71C17.4825 12.6199 18.0253 12.3604 18.461 11.9639C18.8967 11.5673 19.206 11.0512 19.3503 10.48L20.0003 8C20.0353 7.84864 20.0345 7.69121 19.998 7.5402C19.9616 7.38918 19.8905 7.24874 19.7903 7.13ZM14.1003 19.75H9.90029L9.12029 12.75H14.8803L14.1003 19.75ZM17.4103 10C17.3555 10.2219 17.2264 10.4183 17.0445 10.5566C16.8625 10.6949 16.6387 10.7667 16.4103 10.76H7.56029C7.33185 10.7667 7.10803 10.6949 6.92608 10.5566C6.74413 10.4183 6.61504 10.2219 6.56029 10L6.28029 8.75H17.7203L17.4103 10Z" />
</symbol><symbol viewBox="0 0 24 24" id="education-presentation">
<path d="M21 14H20V4H21C21.2652 4 21.5196 3.89464 21.7071 3.70711C21.8946 3.51957 22 3.26522 22 3C22 2.73478 21.8946 2.48043 21.7071 2.29289C21.5196 2.10536 21.2652 2 21 2H3C2.73478 2 2.48043 2.10536 2.29289 2.29289C2.10536 2.48043 2 2.73478 2 3C2 3.26522 2.10536 3.51957 2.29289 3.70711C2.48043 3.89464 2.73478 4 3 4H4V14H3C2.73478 14 2.48043 14.1054 2.29289 14.2929C2.10536 14.4804 2 14.7348 2 15C2 15.2652 2.10536 15.5196 2.29289 15.7071C2.48043 15.8946 2.73478 16 3 16H11V17.15L6.45 20.15C6.26333 20.2655 6.11988 20.4393 6.04177 20.6445C5.96366 20.8496 5.95523 21.0748 6.01779 21.2852C6.08035 21.4957 6.21042 21.6797 6.38793 21.8089C6.56544 21.938 6.78053 22.0052 7 22C7.1966 22.0022 7.38896 21.9428 7.55 21.83L11 19.55V21C11 21.2652 11.1054 21.5196 11.2929 21.7071C11.4804 21.8946 11.7348 22 12 22C12.2652 22 12.5196 21.8946 12.7071 21.7071C12.8946 21.5196 13 21.2652 13 21V19.55L16.45 21.83C16.611 21.9428 16.8034 22.0022 17 22C17.2136 21.9984 17.4212 21.9283 17.5921 21.8002C17.7631 21.672 17.8885 21.4925 17.95 21.2879C18.0115 21.0832 18.0058 20.8643 17.9338 20.6631C17.8619 20.462 17.7273 20.2892 17.55 20.17L13 17.17V16H21C21.2652 16 21.5196 15.8946 21.7071 15.7071C21.8946 15.5196 22 15.2652 22 15C22 14.7348 21.8946 14.4804 21.7071 14.2929C21.5196 14.1054 21.2652 14 21 14ZM18 14H6V4H18V14Z" />
</symbol><symbol viewBox="0 0 24 24" id="education-presentation-board">
<path d="M9.29 11.71C9.38296 11.8037 9.49356 11.8781 9.61542 11.9289C9.73728 11.9797 9.86799 12.0058 10 12.0058C10.132 12.0058 10.2627 11.9797 10.3846 11.9289C10.5064 11.8781 10.617 11.8037 10.71 11.71L12 10.41L13.29 11.71C13.383 11.8037 13.4936 11.8781 13.6154 11.9289C13.7373 11.9797 13.868 12.0058 14 12.0058C14.132 12.0058 14.2627 11.9797 14.3846 11.9289C14.5064 11.8781 14.617 11.8037 14.71 11.71C14.8037 11.617 14.8781 11.5064 14.9289 11.3846C14.9797 11.2627 15.0058 11.132 15.0058 11C15.0058 10.868 14.9797 10.7373 14.9289 10.6154C14.8781 10.4936 14.8037 10.383 14.71 10.29L13.41 9L14.71 7.71C14.8983 7.5217 15.0041 7.2663 15.0041 7C15.0041 6.7337 14.8983 6.4783 14.71 6.29C14.5217 6.1017 14.2663 5.99591 14 5.99591C13.7337 5.99591 13.4783 6.1017 13.29 6.29L12 7.59L10.71 6.29C10.5217 6.1017 10.2663 5.99591 10 5.99591C9.7337 5.99591 9.4783 6.1017 9.29 6.29C9.1017 6.4783 8.99591 6.7337 8.99591 7C8.99591 7.2663 9.1017 7.5217 9.29 7.71L10.59 9L9.29 10.29C9.19627 10.383 9.12188 10.4936 9.07111 10.6154C9.02034 10.7373 8.9942 10.868 8.9942 11C8.9942 11.132 9.02034 11.2627 9.07111 11.3846C9.12188 11.5064 9.19627 11.617 9.29 11.71ZM21 14H20V4H21C21.2652 4 21.5196 3.89464 21.7071 3.70711C21.8946 3.51957 22 3.26522 22 3C22 2.73478 21.8946 2.48043 21.7071 2.29289C21.5196 2.10536 21.2652 2 21 2H3C2.73478 2 2.48043 2.10536 2.29289 2.29289C2.10536 2.48043 2 2.73478 2 3C2 3.26522 2.10536 3.51957 2.29289 3.70711C2.48043 3.89464 2.73478 4 3 4H4V14H3C2.73478 14 2.48043 14.1054 2.29289 14.2929C2.10536 14.4804 2 14.7348 2 15C2 15.2652 2.10536 15.5196 2.29289 15.7071C2.48043 15.8946 2.73478 16 3 16H11V17.15L6.45 20.15C6.26333 20.2655 6.11988 20.4393 6.04177 20.6445C5.96366 20.8496 5.95523 21.0748 6.01779 21.2852C6.08035 21.4957 6.21042 21.6797 6.38793 21.8089C6.56544 21.938 6.78053 22.0052 7 22C7.1966 22.0022 7.38896 21.9428 7.55 21.83L11 19.55V21C11 21.2652 11.1054 21.5196 11.2929 21.7071C11.4804 21.8946 11.7348 22 12 22C12.2652 22 12.5196 21.8946 12.7071 21.7071C12.8946 21.5196 13 21.2652 13 21V19.55L16.45 21.83C16.611 21.9428 16.8034 22.0022 17 22C17.2136 21.9984 17.4212 21.9283 17.5921 21.8002C17.7631 21.672 17.8885 21.4925 17.95 21.2879C18.0115 21.0832 18.0058 20.8643 17.9338 20.6631C17.8619 20.462 17.7273 20.2892 17.55 20.17L13 17.17V16H21C21.2652 16 21.5196 15.8946 21.7071 15.7071C21.8946 15.5196 22 15.2652 22 15C22 14.7348 21.8946 14.4804 21.7071 14.2929C21.5196 14.1054 21.2652 14 21 14ZM18 14H6V4H18V14Z" />
</symbol><symbol viewBox="0 0 24 24" id="education-presentation-board-1">
<path d="M21 14H20V4H21C21.2652 4 21.5196 3.89464 21.7071 3.70711C21.8946 3.51957 22 3.26522 22 3C22 2.73478 21.8946 2.48043 21.7071 2.29289C21.5196 2.10536 21.2652 2 21 2H3C2.73478 2 2.48043 2.10536 2.29289 2.29289C2.10536 2.48043 2 2.73478 2 3C2 3.26522 2.10536 3.51957 2.29289 3.70711C2.48043 3.89464 2.73478 4 3 4H4V14H3C2.73478 14 2.48043 14.1054 2.29289 14.2929C2.10536 14.4804 2 14.7348 2 15C2 15.2652 2.10536 15.5196 2.29289 15.7071C2.48043 15.8946 2.73478 16 3 16H11V17.15L6.45 20.15C6.26333 20.2655 6.11988 20.4393 6.04177 20.6445C5.96366 20.8496 5.95523 21.0748 6.01779 21.2852C6.08035 21.4957 6.21042 21.6797 6.38793 21.8089C6.56544 21.938 6.78053 22.0052 7 22C7.1966 22.0022 7.38896 21.9428 7.55 21.83L11 19.55V21C11 21.2652 11.1054 21.5196 11.2929 21.7071C11.4804 21.8946 11.7348 22 12 22C12.2652 22 12.5196 21.8946 12.7071 21.7071C12.8946 21.5196 13 21.2652 13 21V19.55L16.45 21.83C16.611 21.9428 16.8034 22.0022 17 22C17.2136 21.9984 17.4212 21.9283 17.5921 21.8002C17.7631 21.672 17.8885 21.4925 17.95 21.2879C18.0115 21.0832 18.0058 20.8643 17.9338 20.6631C17.8619 20.462 17.7273 20.2892 17.55 20.17L13 17.17V16H21C21.2652 16 21.5196 15.8946 21.7071 15.7071C21.8946 15.5196 22 15.2652 22 15C22 14.7348 21.8946 14.4804 21.7071 14.2929C21.5196 14.1054 21.2652 14 21 14ZM18 14H6V4H18V14ZM10 10H11V11C11 11.2652 11.1054 11.5196 11.2929 11.7071C11.4804 11.8946 11.7348 12 12 12C12.2652 12 12.5196 11.8946 12.7071 11.7071C12.8946 11.5196 13 11.2652 13 11V10H14C14.2652 10 14.5196 9.89464 14.7071 9.70711C14.8946 9.51957 15 9.26522 15 9C15 8.73478 14.8946 8.48043 14.7071 8.29289C14.5196 8.10536 14.2652 8 14 8H13V7C13 6.73478 12.8946 6.48043 12.7071 6.29289C12.5196 6.10536 12.2652 6 12 6C11.7348 6 11.4804 6.10536 11.2929 6.29289C11.1054 6.48043 11 6.73478 11 7V8H10C9.73478 8 9.48043 8.10536 9.29289 8.29289C9.10536 8.48043 9 8.73478 9 9C9 9.26522 9.10536 9.51957 9.29289 9.70711C9.48043 9.89464 9.73478 10 10 10Z" />
</symbol><symbol viewBox="0 0 24 24" id="education-presentation-board-2">
<path d="M10 10H14C14.2652 10 14.5196 9.89464 14.7071 9.70711C14.8946 9.51957 15 9.26522 15 9C15 8.73478 14.8946 8.48043 14.7071 8.29289C14.5196 8.10536 14.2652 8 14 8H10C9.73478 8 9.48043 8.10536 9.29289 8.29289C9.10536 8.48043 9 8.73478 9 9C9 9.26522 9.10536 9.51957 9.29289 9.70711C9.48043 9.89464 9.73478 10 10 10ZM21 14H20V4H21C21.2652 4 21.5196 3.89464 21.7071 3.70711C21.8946 3.51957 22 3.26522 22 3C22 2.73478 21.8946 2.48043 21.7071 2.29289C21.5196 2.10536 21.2652 2 21 2H3C2.73478 2 2.48043 2.10536 2.29289 2.29289C2.10536 2.48043 2 2.73478 2 3C2 3.26522 2.10536 3.51957 2.29289 3.70711C2.48043 3.89464 2.73478 4 3 4H4V14H3C2.73478 14 2.48043 14.1054 2.29289 14.2929C2.10536 14.4804 2 14.7348 2 15C2 15.2652 2.10536 15.5196 2.29289 15.7071C2.48043 15.8946 2.73478 16 3 16H11V17.15L6.45 20.15C6.26333 20.2655 6.11988 20.4393 6.04177 20.6445C5.96366 20.8496 5.95523 21.0748 6.01779 21.2852C6.08035 21.4957 6.21042 21.6797 6.38793 21.8089C6.56544 21.938 6.78053 22.0052 7 22C7.1966 22.0022 7.38896 21.9428 7.55 21.83L11 19.55V21C11 21.2652 11.1054 21.5196 11.2929 21.7071C11.4804 21.8946 11.7348 22 12 22C12.2652 22 12.5196 21.8946 12.7071 21.7071C12.8946 21.5196 13 21.2652 13 21V19.55L16.45 21.83C16.611 21.9428 16.8034 22.0022 17 22C17.2136 21.9984 17.4212 21.9283 17.5921 21.8002C17.7631 21.672 17.8885 21.4925 17.95 21.2879C18.0115 21.0832 18.0058 20.8643 17.9338 20.6631C17.8619 20.462 17.7273 20.2892 17.55 20.17L13 17.17V16H21C21.2652 16 21.5196 15.8946 21.7071 15.7071C21.8946 15.5196 22 15.2652 22 15C22 14.7348 21.8946 14.4804 21.7071 14.2929C21.5196 14.1054 21.2652 14 21 14ZM18 14H6V4H18V14Z" />
</symbol><symbol viewBox="0 0 24 24" id="education-presentation-board-3">
<path d="M10.17 10.55C10.2507 10.6744 10.3581 10.7794 10.4843 10.8572C10.6106 10.9351 10.7526 10.9838 10.9 11C11.0481 11.015 11.1976 10.9967 11.3378 10.9466C11.4779 10.8964 11.6051 10.8156 11.71 10.71L12.84 9.57L14.17 11.57C14.2629 11.7039 14.387 11.813 14.5317 11.888C14.6763 11.9629 14.8371 12.0014 15 12C15.1966 12.0022 15.389 11.9428 15.55 11.83C15.7692 11.6834 15.9216 11.4561 15.9741 11.1976C16.0265 10.9392 15.9747 10.6705 15.83 10.45L13.83 7.45C13.7493 7.32555 13.6419 7.22061 13.5157 7.14278C13.3894 7.06495 13.2474 7.01618 13.1 7C12.9519 6.98501 12.8024 7.00327 12.6622 7.05344C12.5221 7.10361 12.3949 7.18443 12.29 7.29L11.16 8.43L9.83 6.43C9.76423 6.30739 9.67359 6.19985 9.56389 6.11426C9.45419 6.02867 9.32783 5.96692 9.1929 5.93295C9.05797 5.89898 8.91743 5.89355 8.78028 5.91699C8.64313 5.94044 8.51238 5.99225 8.39639 6.0691C8.28041 6.14596 8.18174 6.24618 8.10669 6.36335C8.03165 6.48052 7.98188 6.61206 7.96057 6.74955C7.93926 6.88705 7.94688 7.02749 7.98294 7.16187C8.01901 7.29626 8.08272 7.42164 8.17 7.53L10.17 10.55ZM21 14H20V4H21C21.2652 4 21.5196 3.89464 21.7071 3.70711C21.8946 3.51957 22 3.26522 22 3C22 2.73478 21.8946 2.48043 21.7071 2.29289C21.5196 2.10536 21.2652 2 21 2H3C2.73478 2 2.48043 2.10536 2.29289 2.29289C2.10536 2.48043 2 2.73478 2 3C2 3.26522 2.10536 3.51957 2.29289 3.70711C2.48043 3.89464 2.73478 4 3 4H4V14H3C2.73478 14 2.48043 14.1054 2.29289 14.2929C2.10536 14.4804 2 14.7348 2 15C2 15.2652 2.10536 15.5196 2.29289 15.7071C2.48043 15.8946 2.73478 16 3 16H11V17.15L6.45 20.15C6.26333 20.2655 6.11988 20.4393 6.04177 20.6445C5.96366 20.8496 5.95523 21.0748 6.01779 21.2852C6.08035 21.4957 6.21042 21.6797 6.38793 21.8089C6.56544 21.938 6.78053 22.0052 7 22C7.1966 22.0022 7.38896 21.9428 7.55 21.83L11 19.55V21C11 21.2652 11.1054 21.5196 11.2929 21.7071C11.4804 21.8946 11.7348 22 12 22C12.2652 22 12.5196 21.8946 12.7071 21.7071C12.8946 21.5196 13 21.2652 13 21V19.55L16.45 21.83C16.611 21.9428 16.8034 22.0022 17 22C17.2136 21.9984 17.4212 21.9283 17.5921 21.8002C17.7631 21.672 17.8885 21.4925 17.95 21.2879C18.0115 21.0832 18.0058 20.8643 17.9338 20.6631C17.8619 20.462 17.7273 20.2892 17.55 20.17L13 17.17V16H21C21.2652 16 21.5196 15.8946 21.7071 15.7071C21.8946 15.5196 22 15.2652 22 15C22 14.7348 21.8946 14.4804 21.7071 14.2929C21.5196 14.1054 21.2652 14 21 14ZM18 14H6V4H18V14Z" />
</symbol><symbol viewBox="0 0 24 24" id="education-presentation-board-4">
<path d="M9.41 13H11.83C11.9616 13.0008 12.0921 12.9755 12.2139 12.9258C12.3357 12.876 12.4466 12.8027 12.54 12.71L16.12 9.13C16.3063 8.94264 16.4108 8.68919 16.4108 8.425C16.4108 8.16081 16.3063 7.90736 16.12 7.72L13.7 5.32C13.5126 5.13375 13.2592 5.02921 12.995 5.02921C12.7308 5.02921 12.4774 5.13375 12.29 5.32L8.71 8.9C8.52159 9.08463 8.41376 9.33623 8.41 9.6V12C8.41 12.2652 8.51536 12.5196 8.70289 12.7071C8.89043 12.8946 9.14478 13 9.41 13ZM10.41 10L13 7.44L14 8.44L11.42 11H10.42L10.41 10ZM21 14H20V4H21C21.2652 4 21.5196 3.89464 21.7071 3.70711C21.8946 3.51957 22 3.26522 22 3C22 2.73478 21.8946 2.48043 21.7071 2.29289C21.5196 2.10536 21.2652 2 21 2H3C2.73478 2 2.48043 2.10536 2.29289 2.29289C2.10536 2.48043 2 2.73478 2 3C2 3.26522 2.10536 3.51957 2.29289 3.70711C2.48043 3.89464 2.73478 4 3 4H4V14H3C2.73478 14 2.48043 14.1054 2.29289 14.2929C2.10536 14.4804 2 14.7348 2 15C2 15.2652 2.10536 15.5196 2.29289 15.7071C2.48043 15.8946 2.73478 16 3 16H11V17.15L6.45 20.15C6.26333 20.2655 6.11988 20.4393 6.04177 20.6445C5.96366 20.8496 5.95523 21.0748 6.01779 21.2852C6.08035 21.4957 6.21042 21.6797 6.38793 21.8089C6.56544 21.938 6.78053 22.0052 7 22C7.1966 22.0022 7.38896 21.9428 7.55 21.83L11 19.55V21C11 21.2652 11.1054 21.5196 11.2929 21.7071C11.4804 21.8946 11.7348 22 12 22C12.2652 22 12.5196 21.8946 12.7071 21.7071C12.8946 21.5196 13 21.2652 13 21V19.55L16.45 21.83C16.611 21.9428 16.8034 22.0022 17 22C17.2136 21.9984 17.4212 21.9283 17.5921 21.8002C17.7631 21.672 17.8885 21.4925 17.95 21.2879C18.0115 21.0832 18.0058 20.8643 17.9338 20.6631C17.8619 20.462 17.7273 20.2892 17.55 20.17L13 17.17V16H21C21.2652 16 21.5196 15.8946 21.7071 15.7071C21.8946 15.5196 22 15.2652 22 15C22 14.7348 21.8946 14.4804 21.7071 14.2929C21.5196 14.1054 21.2652 14 21 14ZM18 14H6V4H18V14Z" />
</symbol><symbol viewBox="0 0 24 24" id="education-presentation-board-5">
<path d="M10.29 11.71C10.383 11.8037 10.4936 11.8781 10.6154 11.9289C10.7373 11.9797 10.868 12.0058 11 12.0058C11.132 12.0058 11.2627 11.9797 11.3846 11.9289C11.5064 11.8781 11.617 11.8037 11.71 11.71L15.71 7.71C15.8032 7.61676 15.8772 7.50607 15.9277 7.38425C15.9781 7.26243 16.0041 7.13186 16.0041 7C16.0041 6.86814 15.9781 6.73757 15.9277 6.61575C15.8772 6.49393 15.8032 6.38324 15.71 6.29C15.6168 6.19676 15.5061 6.1228 15.3842 6.07234C15.2624 6.02188 15.1319 5.99591 15 5.99591C14.8681 5.99591 14.7376 6.02188 14.6158 6.07234C14.4939 6.1228 14.3832 6.19676 14.29 6.29L11 9.59L9.71 8.29C9.5217 8.1017 9.2663 7.99591 9 7.99591C8.7337 7.99591 8.4783 8.1017 8.29 8.29C8.1017 8.4783 7.99591 8.7337 7.99591 9C7.99591 9.2663 8.1017 9.5217 8.29 9.71L10.29 11.71ZM21 14H20V4H21C21.2652 4 21.5196 3.89464 21.7071 3.70711C21.8946 3.51957 22 3.26522 22 3C22 2.73478 21.8946 2.48043 21.7071 2.29289C21.5196 2.10536 21.2652 2 21 2H3C2.73478 2 2.48043 2.10536 2.29289 2.29289C2.10536 2.48043 2 2.73478 2 3C2 3.26522 2.10536 3.51957 2.29289 3.70711C2.48043 3.89464 2.73478 4 3 4H4V14H3C2.73478 14 2.48043 14.1054 2.29289 14.2929C2.10536 14.4804 2 14.7348 2 15C2 15.2652 2.10536 15.5196 2.29289 15.7071C2.48043 15.8946 2.73478 16 3 16H11V17.15L6.45 20.15C6.26333 20.2655 6.11988 20.4393 6.04177 20.6445C5.96366 20.8496 5.95523 21.0748 6.01779 21.2852C6.08035 21.4957 6.21042 21.6797 6.38793 21.8089C6.56544 21.938 6.78053 22.0052 7 22C7.1966 22.0022 7.38896 21.9428 7.55 21.83L11 19.55V21C11 21.2652 11.1054 21.5196 11.2929 21.7071C11.4804 21.8946 11.7348 22 12 22C12.2652 22 12.5196 21.8946 12.7071 21.7071C12.8946 21.5196 13 21.2652 13 21V19.55L16.45 21.83C16.611 21.9428 16.8034 22.0022 17 22C17.2136 21.9984 17.4212 21.9283 17.5921 21.8002C17.7631 21.672 17.8885 21.4925 17.95 21.2879C18.0115 21.0832 18.0058 20.8643 17.9338 20.6631C17.8619 20.462 17.7273 20.2892 17.55 20.17L13 17.17V16H21C21.2652 16 21.5196 15.8946 21.7071 15.7071C21.8946 15.5196 22 15.2652 22 15C22 14.7348 21.8946 14.4804 21.7071 14.2929C21.5196 14.1054 21.2652 14 21 14ZM18 14H6V4H18V14Z" />
</symbol><symbol viewBox="0 0 24 24" id="education-presentation-board-6">
<path d="M7 10H9C9.26522 10 9.51957 9.89464 9.70711 9.70711C9.89464 9.51957 10 9.26522 10 9C10 8.73478 9.89464 8.48043 9.70711 8.29289C9.51957 8.10536 9.26522 8 9 8H7C6.73478 8 6.48043 8.10536 6.29289 8.29289C6.10536 8.48043 6 8.73478 6 9C6 9.26522 6.10536 9.51957 6.29289 9.70711C6.48043 9.89464 6.73478 10 7 10ZM21 4H13V3C13 2.73478 12.8946 2.48043 12.7071 2.29289C12.5196 2.10536 12.2652 2 12 2C11.7348 2 11.4804 2.10536 11.2929 2.29289C11.1054 2.48043 11 2.73478 11 3V4H3C2.73478 4 2.48043 4.10536 2.29289 4.29289C2.10536 4.48043 2 4.73478 2 5V15C2 15.7956 2.31607 16.5587 2.87868 17.1213C3.44129 17.6839 4.20435 18 5 18H9.59L7.29 20.29C7.19627 20.383 7.12188 20.4936 7.07111 20.6154C7.02034 20.7373 6.9942 20.868 6.9942 21C6.9942 21.132 7.02034 21.2627 7.07111 21.3846C7.12188 21.5064 7.19627 21.617 7.29 21.71C7.38296 21.8037 7.49356 21.8781 7.61542 21.9289C7.73728 21.9797 7.86799 22.0058 8 22.0058C8.13201 22.0058 8.26272 21.9797 8.38458 21.9289C8.50644 21.8781 8.61704 21.8037 8.71 21.71L11 19.41V21C11 21.2652 11.1054 21.5196 11.2929 21.7071C11.4804 21.8946 11.7348 22 12 22C12.2652 22 12.5196 21.8946 12.7071 21.7071C12.8946 21.5196 13 21.2652 13 21V19.41L15.29 21.71C15.383 21.8037 15.4936 21.8781 15.6154 21.9289C15.7373 21.9797 15.868 22.0058 16 22.0058C16.132 22.0058 16.2627 21.9797 16.3846 21.9289C16.5064 21.8781 16.617 21.8037 16.71 21.71C16.8037 21.617 16.8781 21.5064 16.9289 21.3846C16.9797 21.2627 17.0058 21.132 17.0058 21C17.0058 20.868 16.9797 20.7373 16.9289 20.6154C16.8781 20.4936 16.8037 20.383 16.71 20.29L14.41 18H19C19.7956 18 20.5587 17.6839 21.1213 17.1213C21.6839 16.5587 22 15.7956 22 15V5C22 4.73478 21.8946 4.48043 21.7071 4.29289C21.5196 4.10536 21.2652 4 21 4ZM20 15C20 15.2652 19.8946 15.5196 19.7071 15.7071C19.5196 15.8946 19.2652 16 19 16H5C4.73478 16 4.48043 15.8946 4.29289 15.7071C4.10536 15.5196 4 15.2652 4 15V6H20V15ZM7 14H13C13.2652 14 13.5196 13.8946 13.7071 13.7071C13.8946 13.5196 14 13.2652 14 13C14 12.7348 13.8946 12.4804 13.7071 12.2929C13.5196 12.1054 13.2652 12 13 12H7C6.73478 12 6.48043 12.1054 6.29289 12.2929C6.10536 12.4804 6 12.7348 6 13C6 13.2652 6.10536 13.5196 6.29289 13.7071C6.48043 13.8946 6.73478 14 7 14Z" />
</symbol><symbol viewBox="0 0 24 24" id="education-robot">
<path d="M9 15C8.80222 15 8.60888 15.0586 8.44443 15.1685C8.27998 15.2784 8.15181 15.4346 8.07612 15.6173C8.00043 15.8 7.98063 16.0011 8.01921 16.1951C8.0578 16.3891 8.15304 16.5673 8.29289 16.7071C8.43275 16.847 8.61093 16.9422 8.80491 16.9808C8.99889 17.0194 9.19996 16.9996 9.38268 16.9239C9.56541 16.8482 9.72159 16.72 9.83147 16.5556C9.94135 16.3911 10 16.1978 10 16C10 15.7348 9.89464 15.4804 9.70711 15.2929C9.51957 15.1054 9.26522 15 9 15ZM2 14C1.73478 14 1.48043 14.1054 1.29289 14.2929C1.10536 14.4804 1 14.7348 1 15V17C1 17.2652 1.10536 17.5196 1.29289 17.7071C1.48043 17.8946 1.73478 18 2 18C2.26522 18 2.51957 17.8946 2.70711 17.7071C2.89464 17.5196 3 17.2652 3 17V15C3 14.7348 2.89464 14.4804 2.70711 14.2929C2.51957 14.1054 2.26522 14 2 14ZM22 14C21.7348 14 21.4804 14.1054 21.2929 14.2929C21.1054 14.4804 21 14.7348 21 15V17C21 17.2652 21.1054 17.5196 21.2929 17.7071C21.4804 17.8946 21.7348 18 22 18C22.2652 18 22.5196 17.8946 22.7071 17.7071C22.8946 17.5196 23 17.2652 23 17V15C23 14.7348 22.8946 14.4804 22.7071 14.2929C22.5196 14.1054 22.2652 14 22 14ZM17 7H13V5.72C13.3023 5.54549 13.5536 5.29491 13.7291 4.99317C13.9045 4.69143 13.9979 4.34903 14 4C14 3.46957 13.7893 2.96086 13.4142 2.58579C13.0391 2.21071 12.5304 2 12 2C11.4696 2 10.9609 2.21071 10.5858 2.58579C10.2107 2.96086 10 3.46957 10 4C10.0021 4.34903 10.0955 4.69143 10.2709 4.99317C10.4464 5.29491 10.6977 5.54549 11 5.72V7H7C6.20435 7 5.44129 7.31607 4.87868 7.87868C4.31607 8.44129 4 9.20435 4 10V19C4 19.7956 4.31607 20.5587 4.87868 21.1213C5.44129 21.6839 6.20435 22 7 22H17C17.7956 22 18.5587 21.6839 19.1213 21.1213C19.6839 20.5587 20 19.7956 20 19V10C20 9.20435 19.6839 8.44129 19.1213 7.87868C18.5587 7.31607 17.7956 7 17 7ZM13.72 9L13.22 11H10.78L10.28 9H13.72ZM18 19C18 19.2652 17.8946 19.5196 17.7071 19.7071C17.5196 19.8946 17.2652 20 17 20H7C6.73478 20 6.48043 19.8946 6.29289 19.7071C6.10536 19.5196 6 19.2652 6 19V10C6 9.73478 6.10536 9.48043 6.29289 9.29289C6.48043 9.10536 6.73478 9 7 9H8.22L9 12.24C9.05475 12.4619 9.18385 12.6583 9.36579 12.7966C9.54774 12.9349 9.77157 13.0067 10 13H14C14.2284 13.0067 14.4523 12.9349 14.6342 12.7966C14.8162 12.6583 14.9452 12.4619 15 12.24L15.78 9H17C17.2652 9 17.5196 9.10536 17.7071 9.29289C17.8946 9.48043 18 9.73478 18 10V19ZM15 15C14.8022 15 14.6089 15.0586 14.4444 15.1685C14.28 15.2784 14.1518 15.4346 14.0761 15.6173C14.0004 15.8 13.9806 16.0011 14.0192 16.1951C14.0578 16.3891 14.153 16.5673 14.2929 16.7071C14.4327 16.847 14.6109 16.9422 14.8049 16.9808C14.9989 17.0194 15.2 16.9996 15.3827 16.9239C15.5654 16.8482 15.7216 16.72 15.8315 16.5556C15.9414 16.3911 16 16.1978 16 16C16 15.7348 15.8946 15.4804 15.7071 15.2929C15.5196 15.1054 15.2652 15 15 15Z" />
</symbol><symbol viewBox="0 0 24 24" id="education-school-bag">
<path d="M13 10H11C10.7348 10 10.4804 10.1054 10.2929 10.2929C10.1054 10.4804 10 10.7348 10 11C10 11.2652 10.1054 11.5196 10.2929 11.7071C10.4804 11.8946 10.7348 12 11 12H13C13.2652 12 13.5196 11.8946 13.7071 11.7071C13.8946 11.5196 14 11.2652 14 11C14 10.7348 13.8946 10.4804 13.7071 10.2929C13.5196 10.1054 13.2652 10 13 10ZM18 10C17.9971 9.11544 17.7011 8.25679 17.1583 7.55836C16.6155 6.85993 15.8565 6.36114 15 6.14V5C15 4.20435 14.6839 3.44129 14.1213 2.87868C13.5587 2.31607 12.7956 2 12 2C11.2044 2 10.4413 2.31607 9.87868 2.87868C9.31607 3.44129 9 4.20435 9 5V6.14C8.14353 6.36114 7.38451 6.85993 6.84169 7.55836C6.29887 8.25679 6.00287 9.11544 6 10C4.93913 10 3.92172 10.4214 3.17157 11.1716C2.42143 11.9217 2 12.9391 2 14V17C2 17.7956 2.31607 18.5587 2.87868 19.1213C3.44129 19.6839 4.20435 20 5 20H6.18C6.38631 20.5835 6.76807 21.089 7.27293 21.4471C7.7778 21.8051 8.38106 21.9983 9 22H15C15.6189 21.9983 16.2222 21.8051 16.7271 21.4471C17.2319 21.089 17.6137 20.5835 17.82 20H19C19.7956 20 20.5587 19.6839 21.1213 19.1213C21.6839 18.5587 22 17.7956 22 17V14C22 12.9391 21.5786 11.9217 20.8284 11.1716C20.0783 10.4214 19.0609 10 18 10ZM6 18H5C4.73478 18 4.48043 17.8946 4.29289 17.7071C4.10536 17.5196 4 17.2652 4 17V14C4 13.4696 4.21071 12.9609 4.58579 12.5858C4.96086 12.2107 5.46957 12 6 12V18ZM11 5C11 4.73478 11.1054 4.48043 11.2929 4.29289C11.4804 4.10536 11.7348 4 12 4C12.2652 4 12.5196 4.10536 12.7071 4.29289C12.8946 4.48043 13 4.73478 13 5V6H11V5ZM16 19C16 19.2652 15.8946 19.5196 15.7071 19.7071C15.5196 19.8946 15.2652 20 15 20H9C8.73478 20 8.48043 19.8946 8.29289 19.7071C8.10536 19.5196 8 19.2652 8 19V18C8 17.4696 8.21071 16.9609 8.58579 16.5858C8.96086 16.2107 9.46957 16 10 16H14C14.5304 16 15.0391 16.2107 15.4142 16.5858C15.7893 16.9609 16 17.4696 16 18V19ZM16 14.56C15.396 14.1964 14.705 14.003 14 14H10C9.29504 14.003 8.60399 14.1964 8 14.56V10C8 9.46957 8.21071 8.96086 8.58579 8.58579C8.96086 8.21071 9.46957 8 10 8H14C14.5304 8 15.0391 8.21071 15.4142 8.58579C15.7893 8.96086 16 9.46957 16 10V14.56ZM20 17C20 17.2652 19.8946 17.5196 19.7071 17.7071C19.5196 17.8946 19.2652 18 19 18H18V12C18.5304 12 19.0391 12.2107 19.4142 12.5858C19.7893 12.9609 20 13.4696 20 14V17Z" />
</symbol><symbol viewBox="0 0 24 24" id="education-sperm">
<path d="M11.0595 20.1C10.8125 19.9859 10.5913 19.8226 10.4095 19.62C10.0867 19.308 9.85511 18.9139 9.73953 18.48C9.51702 17.6785 9.061 16.9614 8.42954 16.42C8.55154 15.8333 8.52389 15.2253 8.34913 14.6521C8.17436 14.0789 7.85812 13.5589 7.42953 13.14C6.86364 12.4907 6.06505 12.0901 5.20625 12.0246C4.34744 11.9591 3.49734 12.234 2.83953 12.79C2.28295 13.4495 2.00774 14.3012 2.0732 15.1616C2.13867 16.0221 2.53958 16.8224 3.18954 17.39C3.78356 17.9954 4.56004 18.389 5.39954 18.51H5.75954C6.30098 18.5117 6.83168 18.359 7.28954 18.07C7.53818 18.3299 7.71406 18.6507 7.79954 19C8.01505 19.7613 8.42921 20.4516 8.99954 21C9.34494 21.3613 9.75111 21.6592 10.1995 21.88C10.3367 21.9464 10.4872 21.9806 10.6395 21.98C10.8662 21.981 11.0865 21.9048 11.2643 21.7641C11.4421 21.6234 11.5667 21.4265 11.6179 21.2056C11.669 20.9848 11.6436 20.7531 11.5458 20.5486C11.448 20.3441 11.2836 20.1788 11.0795 20.08L11.0595 20.1ZM6.31954 16.33C6.22374 16.4108 6.11146 16.4696 5.99055 16.5024C5.86963 16.5352 5.74301 16.5413 5.61953 16.52C5.21779 16.4708 4.84435 16.2876 4.55954 16C3.98954 15.44 3.82953 14.61 4.19953 14.23C4.3546 14.0956 4.55442 14.0243 4.75954 14.03C5.22593 14.0393 5.67049 14.2294 5.99954 14.56C6.29815 14.8405 6.49217 15.2144 6.54954 15.62C6.567 15.748 6.55539 15.8784 6.51557 16.0013C6.47575 16.1242 6.40875 16.2366 6.31954 16.33ZM21.3195 10.21C20.9712 10.0935 20.658 9.89054 20.4095 9.62002C20.0867 9.30798 19.8551 8.91385 19.7395 8.48002C19.517 7.67855 19.061 6.96144 18.4295 6.42002C18.5453 5.82912 18.5098 5.21852 18.3262 4.64504C18.1426 4.07156 17.817 3.55383 17.3795 3.14002C16.8136 2.49072 16.0151 2.09006 15.1562 2.02458C14.2974 1.95909 13.4473 2.23403 12.7895 2.79002C12.2329 3.44947 11.9577 4.3012 12.0232 5.16165C12.0887 6.0221 12.4896 6.82238 13.1395 7.39002C13.7467 8.00526 14.5423 8.39955 15.3995 8.51002H15.7595C16.301 8.51167 16.8317 8.35905 17.2895 8.07002C17.5382 8.32992 17.7141 8.65065 17.7995 9.00002C18.0185 9.75982 18.4322 10.4492 18.9995 11C19.4741 11.4878 20.0563 11.8576 20.6995 12.08C20.8036 12.1105 20.9112 12.1273 21.0195 12.13C21.2292 12.1306 21.4337 12.0652 21.6042 11.9432C21.7746 11.8212 21.9024 11.6486 21.9695 11.45C22.045 11.1994 22.0193 10.9291 21.8977 10.6973C21.7762 10.4655 21.5686 10.2905 21.3195 10.21ZM16.3195 6.33002C16.2237 6.41077 16.1115 6.46961 15.9905 6.50243C15.8696 6.53525 15.743 6.54125 15.6195 6.52002C15.2178 6.4708 14.8444 6.2876 14.5595 6.00002C13.9895 5.44002 13.8295 4.61002 14.1995 4.23002C14.3546 4.09564 14.5544 4.02428 14.7595 4.03002C15.2259 4.03934 15.6705 4.22935 15.9995 4.56002C16.2981 4.84047 16.4922 5.2144 16.5495 5.62002C16.567 5.74804 16.5554 5.87836 16.5156 6.00127C16.4757 6.12419 16.4087 6.23656 16.3195 6.33002ZM21.7095 20.45C21.5133 19.67 21.1094 18.9577 20.5406 18.389C19.9718 17.8202 19.2596 17.4162 18.4795 17.22C17.9534 17.0708 17.4746 16.7883 17.0895 16.4C16.7004 16.0229 16.4234 15.5452 16.2895 15.02C16.0723 14.2384 15.6544 13.5272 15.0772 12.957C14.5001 12.3869 13.7838 11.9777 12.9995 11.77C12.4742 11.6366 11.9964 11.3596 11.6195 10.97C11.228 10.5891 10.9479 10.1085 10.8095 9.58002C10.6223 8.89193 10.2802 8.25574 9.80954 7.72002C9.96911 7.23698 10.0336 6.7276 9.99953 6.22002C9.86267 5.15531 9.36919 4.16835 8.59954 3.42002C7.84751 2.64094 6.85324 2.14028 5.77954 2.00002C5.27092 1.94903 4.75734 2.01235 4.27635 2.18537C3.79536 2.35839 3.35912 2.63672 2.99954 3.00002C2.63624 3.35961 2.3579 3.79585 2.18488 4.27684C2.01186 4.75783 1.94854 5.27141 1.99954 5.78002C2.1364 6.84474 2.62988 7.8317 3.39954 8.58002C4.15156 9.3591 5.14583 9.85976 6.21953 10H6.64954C7.36273 10.0154 8.0626 9.80547 8.64953 9.40002C8.78722 9.62016 8.89168 9.8594 8.95954 10.11C9.19501 10.9701 9.65103 11.7538 10.2825 12.3834C10.9139 13.0131 11.6988 13.4669 12.5595 13.7C12.9985 13.8205 13.3984 14.0537 13.7194 14.3765C14.0404 14.6992 14.2715 15.1004 14.3895 15.54C14.6226 16.4024 15.0776 17.1886 15.7093 17.8203C16.3409 18.4519 17.1272 18.907 17.9895 19.14C18.4273 19.2631 18.8246 19.5001 19.1408 19.8269C19.457 20.1536 19.6809 20.5585 19.7895 21C19.8294 21.1577 19.8829 21.3116 19.9495 21.46C20.0332 21.6216 20.1594 21.7572 20.3145 21.8524C20.4695 21.9475 20.6476 21.9986 20.8295 22C20.9812 21.9946 21.1304 21.9606 21.2695 21.9C21.5095 21.7873 21.6949 21.5838 21.7849 21.3344C21.8749 21.085 21.8622 20.8101 21.7495 20.57C21.7495 20.57 21.7195 20.47 21.7095 20.45ZM7.63953 7.64002C6.99954 8.27002 5.71953 8.05002 4.82954 7.17002C4.38089 6.74107 4.0887 6.1743 3.99954 5.56002C3.9661 5.34657 3.98014 5.12838 4.04063 4.92097C4.10113 4.71356 4.2066 4.52203 4.34953 4.36002C4.62202 4.11229 4.98167 3.98282 5.34953 4.00002C6.04336 4.03196 6.69844 4.32907 7.17953 4.83002C7.62451 5.26042 7.91309 5.82703 7.99954 6.44002C8.03163 6.65421 8.01601 6.87285 7.95377 7.0803C7.89154 7.28774 7.78424 7.47887 7.63953 7.64002Z" />
</symbol><symbol viewBox="0 0 24 24" id="education-telescope">
<path d="M21.9002 7.58998L20.9002 3.71998C20.7984 3.33565 20.6211 2.97541 20.3788 2.66019C20.1365 2.34497 19.8339 2.08106 19.4887 1.8838C19.1435 1.68654 18.7626 1.55986 18.368 1.51114C17.9734 1.46241 17.573 1.49261 17.1902 1.59998L15.2602 2.11998C15.1325 2.15362 15.0128 2.21221 14.9079 2.29238C14.8029 2.37254 14.7149 2.47269 14.6489 2.58705C14.5829 2.7014 14.5402 2.82769 14.5233 2.95864C14.5063 3.08958 14.5155 3.22259 14.5502 3.34998L14.8102 4.34998L4.19021 7.15998C3.93455 7.22805 3.71628 7.39466 3.58321 7.62332C3.45013 7.85198 3.4131 8.12406 3.48021 8.37998L3.74021 9.37998L2.74021 9.63998C2.47499 9.67313 2.23381 9.81028 2.06971 10.0213C1.90562 10.2322 1.83206 10.4998 1.86521 10.765C1.89836 11.0302 2.03551 11.2714 2.24649 11.4355C2.45747 11.5996 2.72499 11.6731 2.99021 11.64C3.07656 11.6504 3.16385 11.6504 3.25021 11.64L4.25021 11.37L4.51021 12.37C4.57912 12.6225 4.74427 12.8379 4.97021 12.97C5.12164 13.0599 5.29412 13.1081 5.47021 13.11C5.55621 13.1251 5.6442 13.1251 5.73021 13.11L9.00021 12.08V12.5C9.0009 12.944 9.10354 13.3819 9.30021 13.78L4.30021 18.78C4.1119 18.967 4.00559 19.2211 4.00465 19.4864C4.00371 19.7518 4.10823 20.0067 4.29521 20.195C4.48219 20.3833 4.73631 20.4896 5.00167 20.4905C5.26704 20.4915 5.5219 20.387 5.71021 20.2L10.7102 15.2L10.9902 15.31V21.5C10.9902 21.7652 11.0956 22.0195 11.2831 22.2071C11.4706 22.3946 11.725 22.5 11.9902 22.5C12.2554 22.5 12.5098 22.3946 12.6973 22.2071C12.8849 22.0195 12.9902 21.7652 12.9902 21.5V15.32C13.0893 15.286 13.1861 15.246 13.2802 15.2L18.2802 20.2C18.4685 20.387 18.7234 20.4915 18.9887 20.4905C19.2541 20.4896 19.5082 20.3833 19.6952 20.195C19.8822 20.0067 19.9867 19.7518 19.9858 19.4864C19.9848 19.2211 19.8785 18.967 19.6902 18.78L14.6902 13.78C14.8843 13.3805 14.9901 12.944 15.0002 12.5V10.5L16.3502 10.14L16.6002 11.14C16.6588 11.3581 16.7895 11.55 16.9711 11.6844C17.1527 11.8188 17.3744 11.8877 17.6002 11.88H17.8602L19.7902 11.36C20.1803 11.2576 20.5457 11.0776 20.8647 10.8308C21.1836 10.584 21.4495 10.2754 21.6465 9.92344C21.8434 9.57151 21.9674 9.18348 22.011 8.78255C22.0546 8.38162 22.0169 7.97601 21.9002 7.58998ZM13.0002 12.5C12.9992 12.7574 12.8989 13.0046 12.7202 13.19C12.5348 13.3687 12.2877 13.469 12.0302 13.47C11.7679 13.4689 11.5165 13.3647 11.3302 13.18C11.1455 12.9937 11.0413 12.7423 11.0402 12.48V11.48L13.0002 11V12.5ZM6.19021 10.76L5.67021 8.82998L15.3302 6.23998L15.5902 7.23998L15.8502 8.23998L6.19021 10.76ZM19.8702 8.85998C19.8046 8.97474 19.717 9.07538 19.6123 9.15605C19.5076 9.23672 19.3879 9.29584 19.2602 9.32998L18.2602 9.58998L17.4802 6.68998L17.0002 4.75998L16.7402 3.75998L17.7402 3.49998C17.8676 3.46525 18.0006 3.4561 18.1315 3.47304C18.2625 3.48999 18.3888 3.53269 18.5031 3.5987C18.6175 3.66471 18.7176 3.75271 18.7978 3.85763C18.878 3.96254 18.9366 4.0823 18.9702 4.20998L19.9702 8.07998C20.0071 8.21 20.0173 8.34616 20.0001 8.48022C19.9829 8.61428 19.9387 8.74347 19.8702 8.85998Z" />
</symbol></defs></svg>