<svg xmlns="http://www.w3.org/2000/svg" xmlns:xlink="http://www.w3.org/1999/xlink"><defs><symbol viewBox="0 0 24 24" id="construction-barricade">
<path d="M21 5H20V4C20 3.73478 19.8946 3.48043 19.7071 3.29289C19.5196 3.10536 19.2652 3 19 3C18.7348 3 18.4804 3.10536 18.2929 3.29289C18.1054 3.48043 18 3.73478 18 4V5H6V4C6 3.73478 5.89464 3.48043 5.70711 3.29289C5.51957 3.10536 5.26522 3 5 3C4.73478 3 4.48043 3.10536 4.29289 3.29289C4.10536 3.48043 4 3.73478 4 4V5H3C2.73478 5 2.48043 5.10536 2.29289 5.29289C2.10536 5.48043 2 5.73478 2 6V12C2 12.2652 2.10536 12.5196 2.29289 12.7071C2.48043 12.8946 2.73478 13 3 13H4V20C4 20.2652 4.10536 20.5196 4.29289 20.7071C4.48043 20.8946 4.73478 21 5 21C5.26522 21 5.51957 20.8946 5.70711 20.7071C5.89464 20.5196 6 20.2652 6 20V13H18V20C18 20.2652 18.1054 20.5196 18.2929 20.7071C18.4804 20.8946 18.7348 21 19 21C19.2652 21 19.5196 20.8946 19.7071 20.7071C19.8946 20.5196 20 20.2652 20 20V13H21C21.2652 13 21.5196 12.8946 21.7071 12.7071C21.8946 12.5196 22 12.2652 22 12V6C22 5.73478 21.8946 5.48043 21.7071 5.29289C21.5196 5.10536 21.2652 5 21 5ZM4 9.52V7H6.52L4 9.52ZM5.34 11L9.34 7H12.67L8.67 11H5.34ZM11.49 11L15.49 7H18.67L14.67 11H11.49ZM20 11H17.49L20 8.49V11Z" />
</symbol><symbol viewBox="0 0 24 24" id="construction-brick-wall">
<path d="M21 9C21.2652 9 21.5196 8.89464 21.7071 8.70711C21.8946 8.51957 22 8.26522 22 8C22 7.73478 21.8946 7.48043 21.7071 7.29289C21.5196 7.10536 21.2652 7 21 7H20V5H21C21.2652 5 21.5196 4.89464 21.7071 4.70711C21.8946 4.51957 22 4.26522 22 4C22 3.73478 21.8946 3.48043 21.7071 3.29289C21.5196 3.10536 21.2652 3 21 3H3C2.73478 3 2.48043 3.10536 2.29289 3.29289C2.10536 3.48043 2 3.73478 2 4C2 4.26522 2.10536 4.51957 2.29289 4.70711C2.48043 4.89464 2.73478 5 3 5H6V7H3C2.73478 7 2.48043 7.10536 2.29289 7.29289C2.10536 7.48043 2 7.73478 2 8C2 8.26522 2.10536 8.51957 2.29289 8.70711C2.48043 8.89464 2.73478 9 3 9H4V11H3C2.73478 11 2.48043 11.1054 2.29289 11.2929C2.10536 11.4804 2 11.7348 2 12C2 12.2652 2.10536 12.5196 2.29289 12.7071C2.48043 12.8946 2.73478 13 3 13H6V15H3C2.73478 15 2.48043 15.1054 2.29289 15.2929C2.10536 15.4804 2 15.7348 2 16C2 16.2652 2.10536 16.5196 2.29289 16.7071C2.48043 16.8946 2.73478 17 3 17H4V19H3C2.73478 19 2.48043 19.1054 2.29289 19.2929C2.10536 19.4804 2 19.7348 2 20C2 20.2652 2.10536 20.5196 2.29289 20.7071C2.48043 20.8946 2.73478 21 3 21H21C21.2652 21 21.5196 20.8946 21.7071 20.7071C21.8946 20.5196 22 20.2652 22 20C22 19.7348 21.8946 19.4804 21.7071 19.2929C21.5196 19.1054 21.2652 19 21 19H18V17H21C21.2652 17 21.5196 16.8946 21.7071 16.7071C21.8946 16.5196 22 16.2652 22 16C22 15.7348 21.8946 15.4804 21.7071 15.2929C21.5196 15.1054 21.2652 15 21 15H20V13H21C21.2652 13 21.5196 12.8946 21.7071 12.7071C21.8946 12.5196 22 12.2652 22 12C22 11.7348 21.8946 11.4804 21.7071 11.2929C21.5196 11.1054 21.2652 11 21 11H18V9H21ZM8 5H12V7H8V5ZM16 9V11H12V9H16ZM6 9H10V11H6V9ZM12 13V15H8V13H12ZM10 19H6V17H10V19ZM16 19H12V17H16V19ZM18 15H14V13H18V15ZM14 7V5H18V7H14Z" />
</symbol><symbol viewBox="0 0 24 24" id="construction-constructor">
<path d="M19.9996 9.67001V9.50001C20.0056 7.79896 19.4659 6.14081 18.4597 4.76923C17.4536 3.39765 16.034 2.38497 14.4096 1.88001H14.3496C13.5106 1.62425 12.6365 1.50275 11.7596 1.52001C9.67141 1.63461 7.70567 2.54176 6.26357 4.05634C4.82147 5.57092 4.01172 7.57874 3.99958 9.67001C3.41359 9.87615 2.90604 10.2591 2.54699 10.766C2.18795 11.273 1.99512 11.8788 1.99512 12.5C1.99512 13.1212 2.18795 13.7271 2.54699 14.234C2.90604 14.7409 3.41359 15.1239 3.99958 15.33C4.20554 17.3048 5.1385 19.1324 6.61705 20.4576C8.09561 21.7827 10.0141 22.5107 11.9996 22.5H12.2296C14.1495 22.4071 15.9745 21.6369 17.3805 20.3261C18.7864 19.0153 19.6825 17.2488 19.9096 15.34C20.5025 15.1455 21.02 14.771 21.39 14.2686C21.76 13.7662 21.9642 13.161 21.9741 12.5371C21.984 11.9132 21.7992 11.3017 21.4453 10.7878C21.0913 10.274 20.586 9.88321 19.9996 9.67001ZM12.1796 20.5C10.732 20.5419 9.31807 20.0588 8.19878 19.1398C7.07949 18.2209 6.33034 16.9281 6.08958 15.5H17.8596C17.6155 16.8519 16.9216 18.0816 15.8904 18.9893C14.8593 19.897 13.5515 20.4294 12.1796 20.5ZM18.9996 13.5H4.99958C4.73436 13.5 4.48001 13.3947 4.29247 13.2071C4.10493 13.0196 3.99958 12.7652 3.99958 12.5C3.99958 12.2348 4.10493 11.9804 4.29247 11.7929C4.48001 11.6054 4.73436 11.5 4.99958 11.5H6.99958C7.26479 11.5 7.51915 11.3947 7.70668 11.2071C7.89422 11.0196 7.99958 10.7652 7.99958 10.5C7.99958 10.2348 7.89422 9.98044 7.70668 9.79291C7.51915 9.60537 7.26479 9.50001 6.99958 9.50001H5.99958C6.04434 8.46263 6.34084 7.45171 6.8635 6.55448C7.38615 5.65726 8.11926 4.90067 8.99958 4.35001V7.50001C8.99958 7.76523 9.10493 8.01959 9.29247 8.20712C9.48001 8.39466 9.73436 8.50001 9.99958 8.50001C10.2648 8.50001 10.5191 8.39466 10.7067 8.20712C10.8942 8.01959 10.9996 7.76523 10.9996 7.50001V3.59001C11.271 3.54467 11.5448 3.51462 11.8196 3.50001H11.9996C12.3347 3.50473 12.669 3.53482 12.9996 3.59001V7.50001C12.9996 7.76523 13.1049 8.01959 13.2925 8.20712C13.48 8.39466 13.7344 8.50001 13.9996 8.50001C14.2648 8.50001 14.5191 8.39466 14.7067 8.20712C14.8942 8.01959 14.9996 7.76523 14.9996 7.50001V4.32001C15.4238 4.56564 15.8195 4.85741 16.1796 5.19001C16.7561 5.74991 17.2143 6.41994 17.527 7.16031C17.8396 7.90069 18.0003 8.69633 17.9996 9.50001H16.9996C16.7344 9.50001 16.48 9.60537 16.2925 9.79291C16.1049 9.98044 15.9996 10.2348 15.9996 10.5C15.9996 10.7652 16.1049 11.0196 16.2925 11.2071C16.48 11.3947 16.7344 11.5 16.9996 11.5H18.9996C19.2648 11.5 19.5191 11.6054 19.7067 11.7929C19.8942 11.9804 19.9996 12.2348 19.9996 12.5C19.9996 12.7652 19.8942 13.0196 19.7067 13.2071C19.5191 13.3947 19.2648 13.5 18.9996 13.5Z" />
</symbol><symbol viewBox="0 0 24 24" id="construction-drill">
<path d="M19 4H9C8.73478 4 8.48043 4.10536 8.29289 4.29289C8.10536 4.48043 8 4.73478 8 5V7H3C2.73478 7 2.48043 7.10536 2.29289 7.29289C2.10536 7.48043 2 7.73478 2 8C2 8.26522 2.10536 8.51957 2.29289 8.70711C2.48043 8.89464 2.73478 9 3 9H8V13C8 13.2652 8.10536 13.5196 8.29289 13.7071C8.48043 13.8946 8.73478 14 9 14C9.26522 14 9.51957 13.8946 9.70711 13.7071C9.89464 13.5196 10 13.2652 10 13V12H14V19C14 19.2652 14.1054 19.5196 14.2929 19.7071C14.4804 19.8946 14.7348 20 15 20H17C17.7956 20 18.5587 19.6839 19.1213 19.1213C19.6839 18.5587 20 17.7956 20 17V11.82C20.5835 11.6137 21.089 11.2319 21.4471 10.7271C21.8051 10.2222 21.9983 9.61894 22 9V7C22 6.20435 21.6839 5.44129 21.1213 4.87868C20.5587 4.31607 19.7956 4 19 4ZM18 17C18 17.2652 17.8946 17.5196 17.7071 17.7071C17.5196 17.8946 17.2652 18 17 18H16V12H18V17ZM20 9C20 9.26522 19.8946 9.51957 19.7071 9.70711C19.5196 9.89464 19.2652 10 19 10H10V6H16V7C16 7.26522 16.1054 7.51957 16.2929 7.70711C16.4804 7.89464 16.7348 8 17 8C17.2652 8 17.5196 7.89464 17.7071 7.70711C17.8946 7.51957 18 7.26522 18 7V6H19C19.2652 6 19.5196 6.10536 19.7071 6.29289C19.8946 6.48043 20 6.73478 20 7V9Z" />
</symbol><symbol viewBox="0 0 24 24" id="construction-helmet">
<path d="M19.9996 13.17V13C20.0006 11.93 19.7869 10.8707 19.3712 9.88478C18.9556 8.89884 18.3463 8.00631 17.5796 7.26C16.6845 6.38898 15.5942 5.74442 14.3996 5.38H14.3496C13.512 5.11613 12.6377 4.98784 11.7596 5C9.66799 5.1148 7.69937 6.02476 6.25676 7.5436C4.81414 9.06243 4.00665 11.0753 3.99959 13.17C3.33126 13.4051 2.7677 13.8691 2.40873 14.4799C2.04975 15.0908 1.91853 15.8089 2.0383 16.5072C2.15808 17.2055 2.52112 17.8388 3.06312 18.2951C3.60512 18.7513 4.29112 19.0011 4.99959 19H18.9996C19.7081 19.0011 20.3941 18.7513 20.9361 18.2951C21.4781 17.8388 21.8411 17.2055 21.9609 16.5072C22.0807 15.8089 21.9494 15.0908 21.5905 14.4799C21.2315 13.8691 20.6679 13.4051 19.9996 13.17ZM18.9996 17H4.99959C4.73438 17 4.48002 16.8946 4.29249 16.7071C4.10495 16.5196 3.99959 16.2652 3.99959 16C3.99959 15.7348 4.10495 15.4804 4.29249 15.2929C4.48002 15.1054 4.73438 15 4.99959 15H6.99959C7.26481 15 7.51916 14.8946 7.7067 14.7071C7.89424 14.5196 7.99959 14.2652 7.99959 14C7.99959 13.7348 7.89424 13.4804 7.7067 13.2929C7.51916 13.1054 7.26481 13 6.99959 13H5.99959C6.0452 11.9628 6.34206 10.9522 6.86463 10.0551C7.38721 9.15803 8.11986 8.40129 8.99959 7.85V11C8.99959 11.2652 9.10495 11.5196 9.29249 11.7071C9.48002 11.8946 9.73438 12 9.99959 12C10.2648 12 10.5192 11.8946 10.7067 11.7071C10.8942 11.5196 10.9996 11.2652 10.9996 11V7.09C11.271 7.04465 11.5448 7.0146 11.8196 7H11.9996C12.3353 7.00307 12.67 7.03654 12.9996 7.1V11C12.9996 11.2652 13.1049 11.5196 13.2925 11.7071C13.48 11.8946 13.7344 12 13.9996 12C14.2648 12 14.5192 11.8946 14.7067 11.7071C14.8942 11.5196 14.9996 11.2652 14.9996 11V7.82C15.4238 8.06562 15.8195 8.35739 16.1796 8.69C16.7562 9.24989 17.2143 9.91992 17.527 10.6603C17.8396 11.4007 18.0003 12.1963 17.9996 13H16.9996C16.7344 13 16.48 13.1054 16.2925 13.2929C16.1049 13.4804 15.9996 13.7348 15.9996 14C15.9996 14.2652 16.1049 14.5196 16.2925 14.7071C16.48 14.8946 16.7344 15 16.9996 15H18.9996C19.2648 15 19.5192 15.1054 19.7067 15.2929C19.8942 15.4804 19.9996 15.7348 19.9996 16C19.9996 16.2652 19.8942 16.5196 19.7067 16.7071C19.5192 16.8946 19.2648 17 18.9996 17Z" />
</symbol><symbol viewBox="0 0 24 24" id="construction-jackhammer">
<path d="M18.85 15.69C18.6626 15.5037 18.4092 15.3992 18.145 15.3992C17.8808 15.3992 17.6274 15.5037 17.44 15.69L15.38 17.75C15.2567 17.8743 15.1681 18.0288 15.1232 18.1981C15.0784 18.3674 15.0787 18.5454 15.1243 18.7145C15.1699 18.8836 15.259 19.0378 15.3829 19.1616C15.5067 19.2854 15.6609 19.3745 15.83 19.42L16.09 19.49L15.29 20.29C15.1963 20.383 15.1219 20.4936 15.0711 20.6154C15.0203 20.7373 14.9942 20.868 14.9942 21C14.9942 21.132 15.0203 21.2627 15.0711 21.3846C15.1219 21.5064 15.1963 21.617 15.29 21.71C15.383 21.8037 15.4936 21.8781 15.6154 21.9289C15.7373 21.9797 15.868 22.0058 16 22.0058C16.132 22.0058 16.2627 21.9797 16.3846 21.9289C16.5064 21.8781 16.617 21.8037 16.71 21.71L18.71 19.71C18.8403 19.5828 18.9333 19.4224 18.9792 19.2462C19.025 19.07 19.0218 18.8846 18.97 18.71C18.9248 18.5396 18.8353 18.3841 18.7106 18.2594C18.5859 18.1347 18.4304 18.0452 18.26 18L18 17.94L18.83 17.1C19.0189 16.9153 19.1271 16.6633 19.1308 16.3991C19.1346 16.1349 19.0336 15.88 18.85 15.69ZM7.91 19.49L8.17 19.42C8.3391 19.3745 8.49329 19.2854 8.61714 19.1616C8.74098 19.0378 8.83015 18.8836 8.87571 18.7145C8.92127 18.5454 8.92163 18.3674 8.87676 18.1981C8.83188 18.0288 8.74334 17.8743 8.62 17.75L6.56 15.69C6.3687 15.5262 6.12262 15.4406 5.87095 15.4503C5.61927 15.46 5.38053 15.5643 5.20244 15.7424C5.02434 15.9205 4.92001 16.1593 4.91029 16.4109C4.90057 16.6626 4.98617 16.9087 5.15 17.1L5.98 17.94L5.72 18C5.54956 18.0452 5.39412 18.1347 5.26943 18.2594C5.14474 18.3841 5.05524 18.5396 5.01 18.71C4.95819 18.8846 4.95502 19.07 5.00084 19.2462C5.04666 19.4224 5.13973 19.5828 5.27 19.71L7.27 21.71C7.36296 21.8037 7.47356 21.8781 7.59542 21.9289C7.71728 21.9797 7.84799 22.0058 7.98 22.0058C8.11201 22.0058 8.24272 21.9797 8.36458 21.9289C8.48644 21.8781 8.59704 21.8037 8.69 21.71C8.78373 21.617 8.85812 21.5064 8.90889 21.3846C8.95966 21.2627 8.9858 21.132 8.9858 21C8.9858 20.868 8.95966 20.7373 8.90889 20.6154C8.85812 20.4936 8.78373 20.383 8.69 20.29L7.91 19.49ZM21 4C20.7348 4 20.4804 4.10536 20.2929 4.29289C20.1054 4.48043 20 4.73478 20 5H17C17 4.20435 16.6839 3.44129 16.1213 2.87868C15.5587 2.31607 14.7956 2 14 2H10C9.20435 2 8.44129 2.31607 7.87868 2.87868C7.31607 3.44129 7 4.20435 7 5H4C4 4.73478 3.89464 4.48043 3.70711 4.29289C3.51957 4.10536 3.26522 4 3 4C2.73478 4 2.48043 4.10536 2.29289 4.29289C2.10536 4.48043 2 4.73478 2 5V7C2 7.26522 2.10536 7.51957 2.29289 7.70711C2.48043 7.89464 2.73478 8 3 8C3.26522 8 3.51957 7.89464 3.70711 7.70711C3.89464 7.51957 4 7.26522 4 7H7V9C6.99967 9.62065 7.19186 10.2261 7.55006 10.733C7.90826 11.2398 8.41484 11.6231 9 11.83V13C9 13.5304 9.21071 14.0391 9.58579 14.4142C9.96086 14.7893 10.4696 15 11 15V21C11 21.2652 11.1054 21.5196 11.2929 21.7071C11.4804 21.8946 11.7348 22 12 22C12.2652 22 12.5196 21.8946 12.7071 21.7071C12.8946 21.5196 13 21.2652 13 21V15C13.5304 15 14.0391 14.7893 14.4142 14.4142C14.7893 14.0391 15 13.5304 15 13V11.83C15.5852 11.6231 16.0917 11.2398 16.4499 10.733C16.8081 10.2261 17.0003 9.62065 17 9V7H20C20 7.26522 20.1054 7.51957 20.2929 7.70711C20.4804 7.89464 20.7348 8 21 8C21.2652 8 21.5196 7.89464 21.7071 7.70711C21.8946 7.51957 22 7.26522 22 7V5C22 4.73478 21.8946 4.48043 21.7071 4.29289C21.5196 4.10536 21.2652 4 21 4ZM15 9C15 9.26522 14.8946 9.51957 14.7071 9.70711C14.5196 9.89464 14.2652 10 14 10C13.7348 10 13.4804 10.1054 13.2929 10.2929C13.1054 10.4804 13 10.7348 13 11V13H11V11C11 10.7348 10.8946 10.4804 10.7071 10.2929C10.5196 10.1054 10.2652 10 10 10C9.73478 10 9.48043 9.89464 9.29289 9.70711C9.10536 9.51957 9 9.26522 9 9V5C9 4.73478 9.10536 4.48043 9.29289 4.29289C9.48043 4.10536 9.73478 4 10 4H14C14.2652 4 14.5196 4.10536 14.7071 4.29289C14.8946 4.48043 15 4.73478 15 5V9ZM12 6C11.7348 6 11.4804 6.10536 11.2929 6.29289C11.1054 6.48043 11 6.73478 11 7V8C11 8.26522 11.1054 8.51957 11.2929 8.70711C11.4804 8.89464 11.7348 9 12 9C12.2652 9 12.5196 8.89464 12.7071 8.70711C12.8946 8.51957 13 8.26522 13 8V7C13 6.73478 12.8946 6.48043 12.7071 6.29289C12.5196 6.10536 12.2652 6 12 6Z" />
</symbol><symbol viewBox="0 0 24 24" id="construction-measuring-tape">
<path d="M14.5 7C13.7089 7 12.9355 7.2346 12.2777 7.67412C11.6199 8.11365 11.1072 8.73836 10.8045 9.46927C10.5017 10.2002 10.4225 11.0044 10.5769 11.7804C10.7312 12.5563 11.1122 13.269 11.6716 13.8284C12.231 14.3878 12.9437 14.7688 13.7196 14.9231C14.4956 15.0775 15.2998 14.9983 16.0307 14.6955C16.7616 14.3928 17.3864 13.8801 17.8259 13.2223C18.2654 12.5645 18.5 11.7911 18.5 11C18.5 9.93913 18.0786 8.92172 17.3284 8.17157C16.5783 7.42143 15.5609 7 14.5 7ZM14.5 13C14.1044 13 13.7178 12.8827 13.3889 12.6629C13.06 12.4432 12.8036 12.1308 12.6522 11.7654C12.5009 11.3999 12.4613 10.9978 12.5384 10.6098C12.6156 10.2219 12.8061 9.86549 13.0858 9.58579C13.3655 9.30608 13.7219 9.1156 14.1098 9.03843C14.4978 8.96126 14.8999 9.00087 15.2654 9.15224C15.6308 9.30362 15.9432 9.55996 16.1629 9.88886C16.3827 10.2178 16.5 10.6044 16.5 11C16.5 11.5304 16.2893 12.0391 15.9142 12.4142C15.5391 12.7893 15.0304 13 14.5 13ZM15.5 3H13.5C11.6435 3 9.86301 3.7375 8.55025 5.05025C7.2375 6.36301 6.5 8.14348 6.5 10V13H5.5C5.23478 13 4.98043 13.1054 4.79289 13.2929C4.60536 13.4804 4.5 13.7348 4.5 14C4.5 14.2652 4.60536 14.5196 4.79289 14.7071C4.98043 14.8946 5.23478 15 5.5 15H6.5V17H2.5C2.23478 17 1.98043 17.1054 1.79289 17.2929C1.60536 17.4804 1.5 17.7348 1.5 18V20C1.5 20.2652 1.60536 20.5196 1.79289 20.7071C1.98043 20.8946 2.23478 21 2.5 21C2.76522 21 3.01957 20.8946 3.20711 20.7071C3.39464 20.5196 3.5 20.2652 3.5 20V19H15.5C17.3565 19 19.137 18.2625 20.4497 16.9497C21.7625 15.637 22.5 13.8565 22.5 12V10C22.5 8.14348 21.7625 6.36301 20.4497 5.05025C19.137 3.7375 17.3565 3 15.5 3ZM20.5 12C20.5 12.6566 20.3707 13.3068 20.1194 13.9134C19.8681 14.52 19.4998 15.0712 19.0355 15.5355C18.5712 15.9998 18.02 16.3681 17.4134 16.6194C16.8068 16.8707 16.1566 17 15.5 17H8.5V10C8.5 8.67392 9.02678 7.40215 9.96447 6.46447C10.9021 5.52678 12.1739 5 13.5 5H15.5C16.1566 5 16.8068 5.12933 17.4134 5.3806C18.02 5.63188 18.5712 6.00017 19.0355 6.46447C19.4998 6.92876 19.8681 7.47996 20.1194 8.08658C20.3707 8.69321 20.5 9.34339 20.5 10V12Z" />
</symbol><symbol viewBox="0 0 24 24" id="construction-paint-roller">
<path d="M18 1H10C9.20435 1 8.44129 1.31607 7.87868 1.87868C7.31607 2.44129 7 3.20435 7 4H6C5.20435 4 4.44129 4.31607 3.87868 4.87868C3.31607 5.44129 3 6.20435 3 7V10C3 10.7956 3.31607 11.5587 3.87868 12.1213C4.44129 12.6839 5.20435 13 6 13H12C12.2652 13 12.5196 13.1054 12.7071 13.2929C12.8946 13.4804 13 13.7348 13 14V15C12.4696 15 11.9609 15.2107 11.5858 15.5858C11.2107 15.9609 11 16.4696 11 17V21C11 21.5304 11.2107 22.0391 11.5858 22.4142C11.9609 22.7893 12.4696 23 13 23H15C15.5304 23 16.0391 22.7893 16.4142 22.4142C16.7893 22.0391 17 21.5304 17 21V17C17 16.4696 16.7893 15.9609 16.4142 15.5858C16.0391 15.2107 15.5304 15 15 15V14C15 13.2044 14.6839 12.4413 14.1213 11.8787C13.5587 11.3161 12.7956 11 12 11H6C5.73478 11 5.48043 10.8946 5.29289 10.7071C5.10536 10.5196 5 10.2652 5 10V7C5 6.73478 5.10536 6.48043 5.29289 6.29289C5.48043 6.10536 5.73478 6 6 6H7C7 6.79565 7.31607 7.55871 7.87868 8.12132C8.44129 8.68393 9.20435 9 10 9H18C18.7956 9 19.5587 8.68393 20.1213 8.12132C20.6839 7.55871 21 6.79565 21 6V4C21 3.20435 20.6839 2.44129 20.1213 1.87868C19.5587 1.31607 18.7956 1 18 1ZM15 17V21H13V17H15ZM19 6C19 6.26522 18.8946 6.51957 18.7071 6.70711C18.5196 6.89464 18.2652 7 18 7H10C9.73478 7 9.48043 6.89464 9.29289 6.70711C9.10536 6.51957 9 6.26522 9 6V4C9 3.73478 9.10536 3.48043 9.29289 3.29289C9.48043 3.10536 9.73478 3 10 3H18C18.2652 3 18.5196 3.10536 18.7071 3.29289C18.8946 3.48043 19 3.73478 19 4V6Z" />
</symbol><symbol viewBox="0 0 24 24" id="construction-screw">
<path d="M21.71 10.12L13.88 2.29001C13.7485 2.15775 13.5826 2.06489 13.4011 2.02194C13.2197 1.97898 13.0298 1.98764 12.8529 2.04693C12.6761 2.10622 12.5194 2.21378 12.4005 2.35746C12.2816 2.50114 12.2052 2.67521 12.18 2.86001L11.45 8.00001L9.45 10L9.12 9.81001C8.90469 9.70532 8.65896 9.68136 8.42748 9.74247C8.196 9.80358 7.99413 9.94571 7.85854 10.143C7.72296 10.3403 7.66267 10.5798 7.68863 10.8178C7.71459 11.0558 7.82507 11.2766 8 11.44L6.85 12.61L6.52 12.42C6.30523 12.3214 6.06247 12.302 5.83477 12.3653C5.60708 12.4286 5.40916 12.5706 5.27614 12.7659C5.14312 12.9613 5.08358 13.1974 5.10808 13.4325C5.13258 13.6675 5.23955 13.8863 5.41 14.05L4.24 15.21L3.92 15C3.80587 14.9339 3.67978 14.891 3.549 14.8738C3.41822 14.8566 3.28534 14.8655 3.158 14.8999C3.03066 14.9343 2.91138 14.9935 2.80703 15.0742C2.70268 15.1549 2.61533 15.2554 2.55 15.37C2.43706 15.576 2.40022 15.8151 2.44593 16.0455C2.49165 16.2758 2.61699 16.4828 2.8 16.63L2.29 17.14C2.1974 17.2339 2.12581 17.3464 2.08 17.47C2.02876 17.5902 2.00158 17.7193 2 17.85V21C2 21.2652 2.10536 21.5196 2.29289 21.7071C2.48043 21.8947 2.73478 22 3 22H6.13C6.26068 21.9984 6.38978 21.9713 6.51 21.92C6.63364 21.8742 6.74613 21.8026 6.84 21.71L8.54 20L8.87 20.19C8.98354 20.2565 9.10909 20.3 9.23946 20.3179C9.36983 20.3358 9.50246 20.3278 9.62973 20.2944C9.757 20.261 9.87643 20.2027 9.98115 20.123C10.0859 20.0433 10.1738 19.9438 10.24 19.83C10.3567 19.6242 10.3967 19.3836 10.3527 19.151C10.3088 18.9185 10.1838 18.7091 10 18.56L11.17 17.4L11.5 17.59C11.6495 17.6747 11.8182 17.7195 11.99 17.72C12.1814 17.7028 12.3638 17.6307 12.5153 17.5125C12.6669 17.3943 12.7811 17.2349 12.8444 17.0534C12.9077 16.8719 12.9174 16.6761 12.8723 16.4893C12.8272 16.3024 12.7292 16.1326 12.59 16L13.76 14.84L14.09 15.03C14.2395 15.1147 14.4082 15.1595 14.58 15.16C14.7842 15.1564 14.9824 15.0903 15.1479 14.9706C15.3135 14.851 15.4384 14.6835 15.5059 14.4908C15.5734 14.298 15.5803 14.0892 15.5256 13.8924C15.4709 13.6956 15.3573 13.5203 15.2 13.39L15.99 12.6L21.14 11.87C21.3251 11.8437 21.4991 11.766 21.6423 11.6459C21.7854 11.5257 21.892 11.3677 21.95 11.19C22.0186 11.0077 22.0324 10.8093 21.9897 10.6192C21.9471 10.4291 21.8499 10.2556 21.71 10.12ZM5.72 20H4V18.28L4.57 17.71L6.75 19L5.72 20ZM8.21 17.5L6 16.25L7.14 15.11L9.31 16.36L8.21 17.5ZM10.82 14.9L8.64 13.64L9.79 12.5L12 13.75L10.82 14.9ZM13.43 12.29L11.25 11L12.39 9.86001L14.11 11.58L13.43 12.29ZM15.88 10.55L13.45 8.12001L13.88 5.12001L18.88 10.12L15.88 10.55Z" />
</symbol><symbol viewBox="0 0 24 24" id="construction-shovel">
<path d="M21.71 7.38L16.62 2.29C16.4326 2.10375 16.1792 1.99921 15.915 1.99921C15.6508 1.99921 15.3974 2.10375 15.21 2.29C15.1163 2.38296 15.0419 2.49356 14.9911 2.61542C14.9403 2.73728 14.9142 2.86799 14.9142 3C14.9142 3.13201 14.9403 3.26272 14.9911 3.38458C15.0419 3.50644 15.1163 3.61704 15.21 3.71L17 5.54L11.58 11L10.58 10C10.3013 9.72032 9.97012 9.49841 9.60546 9.34699C9.24081 9.19558 8.84985 9.11763 8.45501 9.11763C8.06017 9.11763 7.66921 9.19558 7.30455 9.34699C6.9399 9.49841 6.60872 9.72032 6.33001 10L2.88001 13.42C2.60016 13.6995 2.37834 14.0316 2.22732 14.3971C2.07629 14.7627 1.99904 15.1545 2.00001 15.55V19C2.00001 19.7956 2.31608 20.5587 2.87869 21.1213C3.4413 21.6839 4.20436 22 5.00001 22H8.45001C8.84553 22.001 9.23733 21.9237 9.60288 21.7727C9.96843 21.6217 10.3005 21.3999 10.58 21.12L14 17.69C14.2797 17.4113 14.5016 17.0801 14.653 16.7155C14.8044 16.3508 14.8824 15.9598 14.8824 15.565C14.8824 15.1702 14.8044 14.7792 14.653 14.4145C14.5016 14.0499 14.2797 13.7187 14 13.44L13 12.44L18.46 7L20.29 8.83C20.383 8.92373 20.4936 8.99812 20.6154 9.04889C20.7373 9.09966 20.868 9.1258 21 9.1258C21.132 9.1258 21.2627 9.09966 21.3846 9.04889C21.5064 8.99812 21.617 8.92373 21.71 8.83C21.8083 8.73658 21.8867 8.62413 21.9402 8.49949C21.9937 8.37486 22.0213 8.24064 22.0213 8.105C22.0213 7.96936 21.9937 7.83514 21.9402 7.71051C21.8867 7.58587 21.8083 7.47342 21.71 7.38ZM12.6 16.27L9.16001 19.71C9.06657 19.8027 8.95575 19.876 8.83392 19.9258C8.71208 19.9755 8.58162 20.0008 8.45001 20H5.00001C4.73479 20 4.48044 19.8946 4.2929 19.7071C4.10537 19.5196 4.00001 19.2652 4.00001 19V15.55C3.99925 15.4184 4.02447 15.2879 4.07424 15.1661C4.124 15.0443 4.19733 14.9334 4.29001 14.84L7.73001 11.4C7.91737 11.2137 8.17082 11.1092 8.43501 11.1092C8.6992 11.1092 8.95265 11.2137 9.14001 11.4L10.14 12.4L9.25001 13.3C9.06376 13.4874 8.95922 13.7408 8.95922 14.005C8.95922 14.2692 9.06376 14.5226 9.25001 14.71C9.34814 14.8076 9.46548 14.8838 9.59458 14.9337C9.72368 14.9836 9.86173 15.0062 10 15C10.2623 14.9989 10.5137 14.8947 10.7 14.71L11.6 13.82L12.6 14.82C12.6983 14.9134 12.7767 15.0259 12.8302 15.1505C12.8837 15.2751 12.9113 15.4094 12.9113 15.545C12.9113 15.6806 12.8837 15.8149 12.8302 15.9395C12.7767 16.0641 12.6983 16.1766 12.6 16.27Z" />
</symbol><symbol viewBox="0 0 24 24" id="construction-traffic-cone">
<path d="M21 20H19.76L15.37 4.2C15.1951 3.56776 14.8177 3.01029 14.2958 2.61295C13.7738 2.2156 13.136 2.0003 12.48 2H11.48C10.8309 2.00897 10.2022 2.22826 9.68829 2.62494C9.1744 3.02163 8.80305 3.57431 8.63 4.2L4.24 20H3C2.73478 20 2.48043 20.1054 2.29289 20.2929C2.10536 20.4804 2 20.7348 2 21C2 21.2652 2.10536 21.5196 2.29289 21.7071C2.48043 21.8946 2.73478 22 3 22H21C21.2652 22 21.5196 21.8946 21.7071 21.7071C21.8946 21.5196 22 21.2652 22 21C22 20.7348 21.8946 20.4804 21.7071 20.2929C21.5196 20.1054 21.2652 20 21 20ZM10.56 4.73C10.6205 4.5137 10.752 4.32406 10.9334 4.19163C11.1148 4.0592 11.3356 3.9917 11.56 4H12.56C12.7844 3.9917 13.0052 4.0592 13.1866 4.19163C13.368 4.32406 13.4995 4.5137 13.56 4.73L14.35 8H9.65L10.56 4.73ZM9.09 10H14.91L16 14H8L9.09 10ZM6.32 20L7.43 16H16.57L17.68 20H6.32Z" />
</symbol><symbol viewBox="0 0 24 24" id="construction-trowel">
<path d="M21.1199 2.87999C20.5477 2.33699 19.7888 2.03427 18.9999 2.03427C18.211 2.03427 17.4522 2.33699 16.8799 2.87999L14.4599 5.28999C14.0248 5.73015 13.7364 6.29413 13.6343 6.90463C13.5323 7.51512 13.6216 8.14224 13.8899 8.69999L11.7399 10.85L9.73994 8.84999C9.37915 8.48049 8.92908 8.21039 8.43329 8.06582C7.93751 7.92126 7.4128 7.90712 6.90995 8.02479C6.4071 8.14245 5.94315 8.38794 5.56298 8.73747C5.18282 9.08701 4.89933 9.52877 4.73994 10.02L2.07994 18.02C1.90317 18.5481 1.87689 19.115 2.00406 19.6572C2.13122 20.1994 2.4068 20.6955 2.79994 21.09C3.08514 21.3838 3.42745 21.6161 3.8058 21.7726C4.18416 21.9291 4.59055 22.0065 4.99994 22C5.34012 22.0064 5.67873 21.9522 5.99994 21.84L13.9999 19.18C14.4912 19.0206 14.9329 18.7371 15.2825 18.3569C15.632 17.9768 15.8775 17.5128 15.9951 17.01C16.1128 16.5071 16.0987 15.9824 15.9541 15.4866C15.8095 14.9909 15.5394 14.5408 15.1699 14.18L13.1699 12.18L15.3199 10.03C15.8777 10.2984 16.5048 10.3877 17.1153 10.2856C17.7258 10.1836 18.2898 9.89517 18.7299 9.45999L21.1399 7.03999C21.675 6.47849 21.9718 5.73158 21.9681 4.95596C21.9644 4.18035 21.6604 3.43632 21.1199 2.87999ZM13.6999 15.63C13.8189 15.7512 13.9051 15.9008 13.9503 16.0646C13.9954 16.2284 13.9981 16.401 13.9581 16.5661C13.9181 16.7312 13.8366 16.8834 13.7215 17.0083C13.6063 17.1332 13.4613 17.2267 13.2999 17.28L5.31994 20C5.14627 20.053 4.96142 20.0578 4.78525 20.0138C4.60907 19.9697 4.44822 19.8785 4.31994 19.75C4.1914 19.6217 4.10021 19.4609 4.05617 19.2847C4.01212 19.1085 4.01689 18.9237 4.06994 18.75L6.73994 10.75C6.778 10.5734 6.86318 10.4104 6.98643 10.2784C7.10968 10.1463 7.2664 10.0501 7.43994 9.99999C7.51638 9.99173 7.5935 9.99173 7.66994 9.99999C7.93228 10.0011 8.18368 10.1052 8.36994 10.29L10.3699 12.29L9.49994 13.15C9.40621 13.243 9.33182 13.3536 9.28105 13.4754C9.23028 13.5973 9.20414 13.728 9.20414 13.86C9.20414 13.992 9.23028 14.1227 9.28105 14.2446C9.33182 14.3664 9.40621 14.477 9.49994 14.57C9.5929 14.6637 9.7035 14.7381 9.82536 14.7889C9.94722 14.8397 10.0779 14.8658 10.2099 14.8658C10.342 14.8658 10.4727 14.8397 10.5945 14.7889C10.7164 14.7381 10.827 14.6637 10.9199 14.57L11.7799 13.7L13.6999 15.63ZM19.6999 5.70999L17.2899 8.11999C17.1496 8.2576 16.9717 8.35078 16.7787 8.38788C16.5856 8.42499 16.3859 8.40437 16.2045 8.32861C16.0232 8.25286 15.8681 8.12531 15.7588 7.96193C15.6495 7.79855 15.5908 7.60657 15.5899 7.40999C15.591 7.14765 15.6952 6.89625 15.8799 6.70999L18.2899 4.28999C18.3829 4.19626 18.4935 4.12187 18.6154 4.0711C18.7372 4.02033 18.8679 3.99419 18.9999 3.99419C19.132 3.99419 19.2627 4.02033 19.3845 4.0711C19.5064 4.12187 19.617 4.19626 19.7099 4.28999C19.8037 4.38296 19.8781 4.49356 19.9288 4.61542C19.9796 4.73728 20.0057 4.86798 20.0057 4.99999C20.0057 5.132 19.9796 5.26271 19.9288 5.38457C19.8781 5.50643 19.8037 5.61703 19.7099 5.70999H19.6999Z" />
</symbol><symbol viewBox="0 0 24 24" id="construction-wheel-barrow">
<path d="M21.0001 2H19.0001H18.9101H18.7001L18.5401 2.07L18.3701 2.18C18.3219 2.21819 18.2783 2.26181 18.2401 2.31C18.201 2.3595 18.1674 2.41316 18.1401 2.47C18.1052 2.52599 18.0782 2.58657 18.0601 2.65V2.74L17.3801 6H16.2401L13.1201 2.89C12.5501 2.34243 11.7904 2.03663 11.0001 2.03663C10.2097 2.03663 9.45001 2.34243 8.88007 2.89L5.76007 6H3.00007C2.82386 5.9993 2.65059 6.04517 2.49781 6.13298C2.34504 6.22078 2.21817 6.3474 2.13007 6.5C2.0423 6.65202 1.99609 6.82446 1.99609 7C1.99609 7.17554 2.0423 7.34798 2.13007 7.5L6.13007 14.5L5.36007 16C5.24027 15.9902 5.11987 15.9902 5.00007 16C4.40672 16 3.82671 16.1759 3.33336 16.5056C2.84001 16.8352 2.45549 17.3038 2.22843 17.8519C2.00137 18.4001 1.94196 19.0033 2.05771 19.5853C2.17347 20.1672 2.45919 20.7018 2.87875 21.1213C3.29831 21.5409 3.83285 21.8266 4.4148 21.9424C4.99674 22.0581 5.59994 21.9987 6.14812 21.7716C6.6963 21.5446 7.16483 21.1601 7.49448 20.6667C7.82412 20.1734 8.00007 19.5933 8.00007 19C7.99689 18.2227 7.69216 17.477 7.15007 16.92L8.15007 14.92L9.53007 14.78L13.4701 20.69C13.7455 21.1056 14.1224 21.444 14.5651 21.6732C15.0078 21.9024 15.5017 22.0149 16.0001 22C16.3864 21.9992 16.7693 21.9281 17.1301 21.79C17.7742 21.5395 18.312 21.0743 18.6528 20.473C18.9935 19.8718 19.1162 19.1713 19.0001 18.49L18.0001 13L19.7901 4H21.0001C21.2653 4 21.5196 3.89464 21.7072 3.70711C21.8947 3.51957 22.0001 3.26522 22.0001 3C22.0001 2.73478 21.8947 2.48043 21.7072 2.29289C21.5196 2.10536 21.2653 2 21.0001 2ZM5.00007 20C4.80229 20 4.60895 19.9414 4.4445 19.8315C4.28005 19.7216 4.15188 19.5654 4.07619 19.3827C4.0005 19.2 3.9807 18.9989 4.01928 18.8049C4.05787 18.6109 4.15311 18.4327 4.29296 18.2929C4.43281 18.153 4.611 18.0578 4.80498 18.0192C4.99896 17.9806 5.20003 18.0004 5.38275 18.0761C5.56548 18.1518 5.72166 18.28 5.83154 18.4444C5.94142 18.6089 6.00007 18.8022 6.00007 19C6.00007 19.2652 5.89471 19.5196 5.70717 19.7071C5.51964 19.8946 5.26528 20 5.00007 20ZM10.3001 4.29C10.487 4.10677 10.7383 4.00414 11.0001 4.00414C11.2618 4.00414 11.5131 4.10677 11.7001 4.29L13.4101 6H8.59007L10.3001 4.29ZM7.55007 12.94L4.72007 8H17.0001L16.1801 12.08L7.55007 12.94ZM16.3601 19.94C16.1468 20.0237 15.9112 20.0317 15.6928 19.9625C15.4743 19.8933 15.2863 19.7512 15.1601 19.56L11.8201 14.56L16.1901 14.13L17.0001 18.82C17.0402 19.0507 16.9981 19.2881 16.8812 19.491C16.7642 19.6938 16.5798 19.8492 16.3601 19.93V19.94Z" />
</symbol></defs></svg>