<svg xmlns="http://www.w3.org/2000/svg" xmlns:xlink="http://www.w3.org/1999/xlink"><defs><symbol viewBox="0 0 24 24" id="sports-american-football">
<path d="M21.8403 5.55999C21.7074 4.7084 21.3084 3.92075 20.7003 3.30999C20.0895 2.70188 19.3018 2.3028 18.4503 2.16999C16.2414 1.86555 13.992 2.07643 11.8782 2.7861C9.76445 3.49578 7.84357 4.685 6.26593 6.2607C4.6883 7.8364 3.49671 9.75582 2.78444 11.8687C2.07217 13.9817 1.85853 16.2308 2.16025 18.44C2.29306 19.2916 2.69214 20.0792 3.30025 20.69C3.91101 21.2981 4.69867 21.6972 5.55025 21.83C6.23797 21.9418 6.9335 21.9986 7.63025 22C11.431 21.9729 15.0663 20.4412 17.7402 17.74C19.3312 16.1737 20.5313 14.2551 21.2436 12.1392C21.9558 10.0233 22.1602 7.7695 21.8403 5.55999ZM4.21025 18.37C4.18099 18.2918 4.15759 18.2116 4.14025 18.13C3.86575 16.2317 4.0423 14.2955 4.65559 12.4783C5.26888 10.661 6.30166 9.01372 7.67025 7.66999C9.97214 5.34625 13.0995 4.027 16.3703 3.99999C16.9598 3.99687 17.5486 4.04371 18.1302 4.13999C18.2119 4.15733 18.2921 4.18073 18.3703 4.20999L13.4402 9.14999L12.7102 8.41999C12.6173 8.32626 12.5067 8.25186 12.3848 8.2011C12.263 8.15033 12.1323 8.12419 12.0002 8.12419C11.8682 8.12419 11.7375 8.15033 11.6157 8.2011C11.4938 8.25186 11.3832 8.32626 11.2902 8.41999C11.104 8.60735 10.9995 8.8608 10.9995 9.12499C10.9995 9.38917 11.104 9.64262 11.2902 9.82999L12.0203 10.56L10.5603 12L9.83025 11.27C9.64289 11.0837 9.38944 10.9792 9.12525 10.9792C8.86106 10.9792 8.60761 11.0837 8.42025 11.27C8.32652 11.363 8.25213 11.4736 8.20136 11.5954C8.15059 11.7173 8.12445 11.848 8.12445 11.98C8.12445 12.112 8.15059 12.2427 8.20136 12.3646C8.25213 12.4864 8.32652 12.597 8.42025 12.69L9.15025 13.42L4.21025 18.37ZM16.3302 16.37C14.9813 17.7295 13.3322 18.7535 11.5155 19.3596C9.69882 19.9657 7.76524 20.1371 5.87025 19.86C5.78862 19.8426 5.7084 19.8193 5.63025 19.79L10.5603 14.85L11.2902 15.58C11.3828 15.6732 11.4929 15.7473 11.6141 15.798C11.7353 15.8487 11.8653 15.8751 11.9967 15.8755C12.1281 15.876 12.2583 15.8506 12.3799 15.8007C12.5015 15.7509 12.612 15.6776 12.7052 15.585C12.7985 15.4924 12.8726 15.3824 12.9233 15.2611C12.974 15.1399 13.0003 15.0099 13.0008 14.8785C13.0013 14.7471 12.9758 14.6169 12.926 14.4954C12.8761 14.3738 12.8028 14.2632 12.7102 14.17L12.0002 13.44L13.4402 12L14.1702 12.73C14.2637 12.8227 14.3745 12.896 14.4963 12.9458C14.6182 12.9955 14.7486 13.0207 14.8802 13.02C15.078 13.0192 15.2711 12.9597 15.4351 12.8491C15.5991 12.7386 15.7266 12.5819 15.8015 12.3988C15.8764 12.2158 15.8954 12.0147 15.856 11.8209C15.8166 11.627 15.7207 11.4493 15.5802 11.31L14.8503 10.58L19.7903 5.64999C19.8195 5.72814 19.8429 5.80836 19.8603 5.88999C20.1315 7.78507 19.9533 9.71737 19.3401 11.5309C18.7269 13.3444 17.6959 14.9884 16.3302 16.33V16.37Z" />
</symbol><symbol viewBox="0 0 24 24" id="sports-barbell">
<path d="M17.4802 6.54994L14.6402 3.70994C14.5472 3.61621 14.4366 3.54182 14.3148 3.49105C14.1929 3.44028 14.0622 3.41414 13.9302 3.41414C13.7982 3.41414 13.6675 3.44028 13.5456 3.49105C13.4237 3.54182 13.3131 3.61621 13.2202 3.70994C13.0339 3.8973 12.9294 4.15076 12.9294 4.41494C12.9294 4.67913 13.0339 4.93258 13.2202 5.11994L15.3402 7.23994L7.24019 15.3399L5.12019 13.2199C4.93282 13.0337 4.67937 12.9291 4.41519 12.9291C4.151 12.9291 3.89755 13.0337 3.71019 13.2199C3.61646 13.3129 3.54206 13.4235 3.49129 13.5454C3.44053 13.6672 3.41439 13.7979 3.41439 13.9299C3.41439 14.062 3.44053 14.1927 3.49129 14.3145C3.54206 14.4364 3.61646 14.547 3.71019 14.6399L6.52019 17.4499L9.33019 20.2599C9.4228 20.3544 9.53325 20.4296 9.65512 20.4811C9.777 20.5326 9.90788 20.5594 10.0402 20.5599C10.2388 20.5611 10.4333 20.5031 10.5988 20.3933C10.7643 20.2835 10.8934 20.1269 10.9696 19.9434C11.0457 19.76 11.0655 19.558 11.0265 19.3633C10.9874 19.1685 10.8912 18.9898 10.7502 18.8499L8.66019 16.7599L16.7602 8.65994L18.8802 10.7799C18.9734 10.8725 19.084 10.9458 19.2056 10.9957C19.3271 11.0455 19.4573 11.071 19.5887 11.0705C19.7201 11.07 19.8501 11.0437 19.9713 10.993C20.0926 10.9423 20.2026 10.8682 20.2952 10.7749C20.3878 10.6817 20.4611 10.5711 20.5109 10.4496C20.5608 10.328 20.5862 10.1978 20.5857 10.0664C20.5853 9.93501 20.5589 9.80499 20.5082 9.68378C20.4575 9.56256 20.3834 9.45252 20.2902 9.35994L17.4802 6.54994ZM3.71019 17.4599C3.52188 17.2716 3.26649 17.1658 3.00019 17.1658C2.73388 17.1658 2.47849 17.2716 2.29019 17.4599C2.10188 17.6482 1.99609 17.9036 1.99609 18.1699C1.99609 18.4362 2.10188 18.6916 2.29019 18.8799L5.12019 21.7099C5.21363 21.8026 5.32444 21.8759 5.44628 21.9257C5.56812 21.9755 5.69858 22.0007 5.83019 21.9999C5.96179 22.0007 6.09225 21.9755 6.21409 21.9257C6.33593 21.8759 6.44675 21.8026 6.54019 21.7099C6.63391 21.617 6.70831 21.5064 6.75908 21.3845C6.80985 21.2627 6.83598 21.132 6.83598 20.9999C6.83598 20.8679 6.80985 20.7372 6.75908 20.6154C6.70831 20.4935 6.63391 20.3829 6.54019 20.2899L3.71019 17.4599ZM21.7102 5.11994L18.8802 2.28994C18.7869 2.1967 18.6763 2.12274 18.5544 2.07228C18.4326 2.02182 18.302 1.99585 18.1702 1.99585C18.0383 1.99585 17.9078 2.02182 17.7859 2.07228C17.6641 2.12274 17.5534 2.1967 17.4602 2.28994C17.3669 2.38318 17.293 2.49387 17.2425 2.61569C17.1921 2.73751 17.1661 2.86808 17.1661 2.99994C17.1661 3.1318 17.1921 3.26237 17.2425 3.38419C17.293 3.50601 17.3669 3.6167 17.4602 3.70994L20.2902 6.53994C20.3831 6.63367 20.4937 6.70806 20.6156 6.75883C20.7375 6.8096 20.8682 6.83574 21.0002 6.83574C21.1322 6.83574 21.2629 6.8096 21.3848 6.75883C21.5066 6.70806 21.6172 6.63367 21.7102 6.53994C21.8039 6.44698 21.8783 6.33638 21.9291 6.21452C21.9798 6.09266 22.006 5.96195 22.006 5.82994C22.006 5.69793 21.9798 5.56722 21.9291 5.44536C21.8783 5.32351 21.8039 5.2129 21.7102 5.11994Z" />
</symbol><symbol viewBox="0 0 24 24" id="sports-baseball">
<path d="M13.9219 6.4404C13.7825 6.21525 13.5594 6.05459 13.3017 5.99365C13.044 5.93271 12.7727 5.97647 12.5472 6.11533C12.3217 6.25419 12.1605 6.47682 12.0989 6.73438C12.0373 6.99194 12.0804 7.2634 12.2187 7.48923C12.3955 7.77536 12.584 8.05661 12.7842 8.33298C12.9401 8.5469 13.1746 8.69024 13.4361 8.73157C13.6975 8.7729 13.9647 8.70885 14.1791 8.55347C14.3934 8.39808 14.5374 8.16404 14.5794 7.90266C14.6215 7.64128 14.5581 7.3739 14.4033 7.15915C14.2324 6.9238 14.072 6.68422 13.9219 6.4404ZM11.1924 15.6621C11.1144 15.5564 11.0164 15.4671 10.9039 15.3993C10.7914 15.3315 10.6667 15.2866 10.5368 15.267C10.407 15.2474 10.2745 15.2536 10.1471 15.2852C10.0196 15.3168 9.89961 15.3732 9.79393 15.4511C9.68826 15.5291 9.59898 15.6271 9.53119 15.7396C9.4634 15.8521 9.41842 15.9768 9.39884 16.1067C9.37925 16.2365 9.38543 16.369 9.41703 16.4964C9.44863 16.6239 9.50502 16.7439 9.58299 16.8496C9.75291 17.0791 9.91014 17.3164 10.0586 17.5586C10.1273 17.6705 10.2174 17.7679 10.3238 17.845C10.4301 17.9221 10.5506 17.9775 10.6784 18.0081C10.8062 18.0387 10.9387 18.0438 11.0684 18.0231C11.1982 18.0024 11.3226 17.9564 11.4345 17.8877C11.5465 17.8189 11.6438 17.7288 11.721 17.6225C11.7981 17.5161 11.8535 17.3956 11.8841 17.2679C11.9146 17.1401 11.9197 17.0075 11.8991 16.8778C11.8784 16.7481 11.8324 16.6237 11.7637 16.5117C11.5859 16.2226 11.3955 15.9385 11.1924 15.6621ZM7.48537 12.2334C7.37342 12.1648 7.24904 12.1189 7.11935 12.0983C6.98966 12.0778 6.85719 12.083 6.72951 12.1136C6.60183 12.1443 6.48144 12.1998 6.37521 12.277C6.26897 12.3541 6.17898 12.4515 6.11037 12.5635C6.04176 12.6754 5.99588 12.7998 5.97533 12.9295C5.95479 13.0592 5.95999 13.1916 5.99064 13.3193C6.02129 13.447 6.07679 13.5674 6.15397 13.6736C6.23115 13.7799 6.3285 13.8698 6.44045 13.9385C6.68265 14.0869 6.92028 14.2464 7.15334 14.417C7.2595 14.4948 7.37997 14.5509 7.50785 14.5821C7.63573 14.6132 7.76851 14.6188 7.89857 14.5986C8.02862 14.5784 8.15341 14.5327 8.26577 14.4641C8.37813 14.3955 8.47585 14.3055 8.55333 14.1991C8.63082 14.0927 8.68654 13.972 8.71731 13.844C8.74808 13.7161 8.75329 13.5833 8.73264 13.4533C8.71199 13.3233 8.66588 13.1986 8.59697 13.0865C8.52806 12.9744 8.43769 12.8769 8.33104 12.7998C8.05468 12.5986 7.77278 12.4098 7.48534 12.2334H7.48537ZM17.5459 10.0664C17.3028 9.91695 17.0641 9.75712 16.8301 9.58687C16.6156 9.43149 16.3482 9.36752 16.0867 9.40898C15.8251 9.45045 15.5906 9.59398 15.4347 9.80808C15.2787 10.0222 15.2141 10.2894 15.2549 10.5511C15.2957 10.8128 15.4387 11.0476 15.6524 11.2041C15.9287 11.4052 16.211 11.5944 16.499 11.7714C16.611 11.8402 16.7354 11.8862 16.8651 11.9069C16.9949 11.9275 17.1274 11.9224 17.2552 11.8919C17.383 11.8613 17.5035 11.8059 17.6098 11.7288C17.7162 11.6516 17.8063 11.5543 17.875 11.4423C17.9438 11.3304 17.9898 11.206 18.0104 11.0763C18.0311 10.9465 18.026 10.814 17.9954 10.6862C17.9649 10.5584 17.9095 10.4379 17.8323 10.3316C17.7552 10.2252 17.6579 10.1351 17.5459 10.0664ZM18.9922 5.00097C17.6076 3.61617 15.8434 2.67307 13.9228 2.29093C12.0022 1.90879 10.0114 2.10479 8.20213 2.85412C6.39291 3.60345 4.84652 4.87247 3.75854 6.5007C2.67055 8.12892 2.08984 10.0432 2.08984 12.0015C2.08984 13.9597 2.67055 15.874 3.75854 17.5022C4.84652 19.1305 6.39291 20.3995 8.20213 21.1488C10.0114 21.8982 12.0022 22.0941 13.9228 21.712C15.8434 21.3299 17.6076 20.3868 18.9922 19.002C20.8458 17.1437 21.8867 14.6262 21.8867 12.0015C21.8867 9.37679 20.8458 6.85924 18.9922 5.00097ZM17.7187 17.7285C16.4976 18.9529 14.9139 19.7504 13.2031 20.0022C13.1169 19.8414 12.9871 19.7082 12.8286 19.6178C12.6701 19.5274 12.4893 19.4835 12.307 19.4911C12.1247 19.4988 11.9482 19.5577 11.7978 19.661C11.6475 19.7644 11.5293 19.908 11.4568 20.0755C9.49965 19.9514 7.65488 19.1181 6.26788 17.7317C4.88088 16.3454 4.04679 14.501 3.92178 12.5439C4.08812 12.4703 4.23053 12.3515 4.33292 12.2011C4.4353 12.0508 4.49358 11.8747 4.50115 11.693C4.50873 11.5112 4.4653 11.331 4.37579 11.1726C4.28627 11.0142 4.15423 10.884 3.9946 10.7968C4.24459 9.08554 5.03973 7.50053 6.26197 6.27703C7.48422 5.05354 9.06841 4.25678 10.7794 4.00504C10.8663 4.15547 10.9911 4.28055 11.1413 4.36788C11.2915 4.45521 11.462 4.50175 11.6357 4.5029C11.713 4.50276 11.7899 4.49391 11.8652 4.47653C12.0091 4.44119 12.1432 4.37373 12.2574 4.2792C12.3715 4.18467 12.4628 4.06553 12.5243 3.9307C14.4836 4.05284 16.3308 4.88633 17.7189 6.27453C19.1069 7.66274 19.9402 9.51008 20.062 11.4694C19.8965 11.5429 19.7548 11.6612 19.6529 11.811C19.5509 11.9607 19.4929 12.1359 19.4852 12.3169C19.4775 12.4979 19.5205 12.6774 19.6094 12.8352C19.6983 12.9931 19.8295 13.123 19.9882 13.2102C19.7369 14.9211 18.9411 16.5054 17.7187 17.7285Z" />
</symbol><symbol viewBox="0 0 24 24" id="sports-basket-ball">
<path d="M11.9995 2C10.3273 2.00171 8.68211 2.42276 7.21464 3.22463C5.74716 4.0265 4.50421 5.18359 3.59952 6.59C2.32708 8.58555 1.80366 10.9677 2.12234 13.3129C2.44102 15.658 3.58114 17.8142 5.33994 19.3978C7.09875 20.9815 9.36223 21.89 11.7279 21.9618C14.0935 22.0336 16.4079 21.264 18.2595 19.79C19.8711 18.4929 21.0406 16.7278 21.6071 14.7382C22.1736 12.7485 22.109 10.6321 21.4223 8.68067C20.7356 6.72923 19.4606 5.03878 17.773 3.84228C16.0854 2.64578 14.0682 2.00212 11.9995 2ZM13.9995 4.26C15.3814 4.61769 16.6423 5.33858 17.6516 6.34789C18.6609 7.3572 19.3818 8.61817 19.7395 10C18.0675 10.0471 16.4355 10.5222 14.9995 11.38C14.2784 10.562 13.4741 9.82132 12.5995 9.17C13.4807 7.68096 13.9628 5.98983 13.9995 4.26ZM11.9995 4C11.9962 5.43503 11.6021 6.84205 10.8595 8.07C10.7095 7.99 10.5695 7.9 10.4195 7.83C9.13188 7.15059 7.75505 6.65574 6.32952 6.36C7.07256 5.61252 7.95599 5.01923 8.92903 4.61423C9.90207 4.20922 10.9456 4.00048 11.9995 4ZM4.99952 8.16C6.56793 8.37788 8.08693 8.86504 9.48952 9.6L9.61952 9.68C8.88143 10.4174 8.00508 11.0019 7.04069 11.4C6.07631 11.7981 5.04284 12.002 3.99952 12C4.00508 10.6563 4.34899 9.33571 4.99952 8.16ZM9.99952 19.74C8.61768 19.3823 7.35671 18.6614 6.3474 17.6521C5.33809 16.6428 4.61721 15.3818 4.25952 14C5.59517 13.9703 6.911 13.6707 8.12777 13.119C9.34453 12.5673 10.437 11.7751 11.3395 10.79C12.0624 11.3244 12.7322 11.9272 13.3395 12.59C12.3269 13.4929 11.5086 14.5924 10.9344 15.8216C10.3602 17.0508 10.0421 18.384 9.99952 19.74ZM11.9995 20C12.0017 18.9014 12.2301 17.815 12.6705 16.8085C13.111 15.802 13.754 14.8971 14.5595 14.15C14.6195 14.23 14.6795 14.3 14.7295 14.38C15.5675 15.6632 16.1891 17.0753 16.5695 18.56C15.2311 19.4997 13.6349 20.0027 11.9995 20ZM18.2095 17C17.7752 15.677 17.1701 14.4163 16.4095 13.25L16.1995 13C17.3622 12.3532 18.669 12.0093 19.9995 12C19.9896 13.8219 19.3581 15.5858 18.2095 17Z" />
</symbol><symbol viewBox="0 0 24 24" id="sports-basketball">
<path d="M18 10H6C5.73478 10 5.48043 10.1054 5.29289 10.2929C5.10536 10.4804 5 10.7348 5 11C5 11.2652 5.10536 11.5196 5.29289 11.7071C5.48043 11.8946 5.73478 12 6 12H7V21C7 21.2652 7.10536 21.5196 7.29289 21.7071C7.48043 21.8946 7.73478 22 8 22C8.26522 22 8.51957 21.8946 8.70711 21.7071C8.89464 21.5196 9 21.2652 9 21V20H11V21C11 21.2652 11.1054 21.5196 11.2929 21.7071C11.4804 21.8946 11.7348 22 12 22C12.2652 22 12.5196 21.8946 12.7071 21.7071C12.8946 21.5196 13 21.2652 13 21V20H15V21C15 21.2652 15.1054 21.5196 15.2929 21.7071C15.4804 21.8946 15.7348 22 16 22C16.2652 22 16.5196 21.8946 16.7071 21.7071C16.8946 21.5196 17 21.2652 17 21V12H18C18.2652 12 18.5196 11.8946 18.7071 11.7071C18.8946 11.5196 19 11.2652 19 11C19 10.7348 18.8946 10.4804 18.7071 10.2929C18.5196 10.1054 18.2652 10 18 10ZM11 18H9V16H11V18ZM11 14H9V12H11V14ZM15 18H13V16H15V18ZM15 14H13V12H15V14ZM20 2H4C3.20435 2 2.44129 2.31607 1.87868 2.87868C1.31607 3.44129 1 4.20435 1 5V13C1 13.7956 1.31607 14.5587 1.87868 15.1213C2.44129 15.6839 3.20435 16 4 16C4.26522 16 4.51957 15.8946 4.70711 15.7071C4.89464 15.5196 5 15.2652 5 15C5 14.7348 4.89464 14.4804 4.70711 14.2929C4.51957 14.1054 4.26522 14 4 14C3.73478 14 3.48043 13.8946 3.29289 13.7071C3.10536 13.5196 3 13.2652 3 13V5C3 4.73478 3.10536 4.48043 3.29289 4.29289C3.48043 4.10536 3.73478 4 4 4H20C20.2652 4 20.5196 4.10536 20.7071 4.29289C20.8946 4.48043 21 4.73478 21 5V13C21 13.2652 20.8946 13.5196 20.7071 13.7071C20.5196 13.8946 20.2652 14 20 14C19.7348 14 19.4804 14.1054 19.2929 14.2929C19.1054 14.4804 19 14.7348 19 15C19 15.2652 19.1054 15.5196 19.2929 15.7071C19.4804 15.8946 19.7348 16 20 16C20.7956 16 21.5587 15.6839 22.1213 15.1213C22.6839 14.5587 23 13.7956 23 13V5C23 4.20435 22.6839 3.44129 22.1213 2.87868C21.5587 2.31607 20.7956 2 20 2ZM14 8C14.2652 8 14.5196 7.89464 14.7071 7.70711C14.8946 7.51957 15 7.26522 15 7C15 6.73478 14.8946 6.48043 14.7071 6.29289C14.5196 6.10536 14.2652 6 14 6H10C9.73478 6 9.48043 6.10536 9.29289 6.29289C9.10536 6.48043 9 6.73478 9 7C9 7.26522 9.10536 7.51957 9.29289 7.70711C9.48043 7.89464 9.73478 8 10 8H14Z" />
</symbol><symbol viewBox="0 0 24 24" id="sports-bowling">
<path d="M7.99171 8.00166C7.79392 8.00166 7.60058 8.06031 7.43613 8.17019C7.27169 8.28008 7.14351 8.43625 7.06783 8.61898C6.99214 8.80171 6.97233 9.00277 7.01092 9.19675C7.04951 9.39073 7.14475 9.56892 7.2846 9.70877C7.42445 9.84862 7.60263 9.94386 7.79662 9.98245C7.9906 10.021 8.19166 10.0012 8.37439 9.92554C8.55711 9.84986 8.71329 9.72168 8.82317 9.55723C8.93306 9.39278 8.99171 9.19944 8.99171 9.00166C8.99171 8.73645 8.88635 8.48209 8.69881 8.29456C8.51128 8.10702 8.25692 8.00166 7.99171 8.00166ZM11.9912 2.00195C10.0134 2.00195 8.08 2.58844 6.43551 3.68726C4.79102 4.78607 3.5093 6.34786 2.75242 8.17512C1.99554 10.0024 1.79751 12.013 2.18336 13.9529C2.56921 15.8927 3.52162 17.6745 4.92015 19.073C6.31867 20.4715 8.1005 21.424 10.0403 21.8098C11.9801 22.1957 13.9908 21.9976 15.8181 21.2407C17.6453 20.4839 19.2071 19.2021 20.3059 17.5577C21.4047 15.9132 21.9912 13.9798 21.9912 12.002C21.9881 9.35074 20.9335 6.80901 19.0588 4.93433C17.1842 3.05964 14.6424 2.00507 11.9912 2.00195ZM11.9912 20.002C10.409 20.002 8.86225 19.5328 7.54665 18.6537C6.23106 17.7747 5.20568 16.5252 4.60018 15.0634C3.99468 13.6016 3.83625 11.9931 4.14493 10.4412C4.45362 8.88938 5.21554 7.46392 6.33436 6.3451C7.45318 5.22628 8.87865 4.46435 10.4305 4.15567C11.9823 3.84699 13.5909 4.00542 15.0527 4.61092C16.5145 5.21642 17.7639 6.2418 18.643 7.55739C19.522 8.87298 19.9912 10.4197 19.9912 12.002C19.9888 14.1229 19.1452 16.1564 17.6454 17.6561C16.1456 19.1559 14.1122 19.9995 11.9912 20.002ZM10.9917 10.0017C10.7939 10.0017 10.6006 10.0603 10.4361 10.1702C10.2717 10.2801 10.1435 10.4363 10.0678 10.619C9.99214 10.8017 9.97234 11.0028 10.0109 11.1968C10.0495 11.3907 10.1447 11.5689 10.2846 11.7088C10.4245 11.8486 10.6026 11.9439 10.7966 11.9824C10.9906 12.021 11.1917 12.0012 11.3744 11.9255C11.5571 11.8499 11.7133 11.7217 11.8232 11.5572C11.9331 11.3928 11.9917 11.1994 11.9917 11.0017C11.9917 10.7364 11.8863 10.4821 11.6988 10.2946C11.5113 10.107 11.2569 10.0017 10.9917 10.0017ZM10.9917 6.00166C10.7939 6.00166 10.6006 6.06031 10.4361 6.17019C10.2717 6.28008 10.1435 6.43625 10.0678 6.61898C9.99214 6.80171 9.97234 7.00277 10.0109 7.19675C10.0495 7.39073 10.1447 7.56892 10.2846 7.70877C10.4245 7.84862 10.6026 7.94386 10.7966 7.98245C10.9906 8.02103 11.1917 8.00123 11.3744 7.92554C11.5571 7.84986 11.7133 7.72168 11.8232 7.55723C11.9331 7.39278 11.9917 7.19944 11.9917 7.00166C11.9917 6.73645 11.8863 6.48209 11.6988 6.29456C11.5113 6.10702 11.2569 6.00166 10.9917 6.00166Z" />
</symbol><symbol viewBox="0 0 24 24" id="sports-canoe">
<path d="M21.1203 16.88C20.6821 16.4453 20.1205 16.1563 19.512 16.0525C18.9035 15.9487 18.2779 16.0351 17.7203 16.3L16.5703 15.16C18.9264 12.6176 20.7039 9.59491 21.7803 6.29999C21.9846 5.73076 22.0229 5.11518 21.8906 4.52503C21.7584 3.93489 21.4611 3.39449 21.0335 2.96685C20.6058 2.5392 20.0654 2.24193 19.4753 2.1097C18.8851 1.97747 18.2696 2.01572 17.7003 2.21999C14.4054 3.29646 11.3828 5.07388 8.84032 7.42999L7.70032 6.27999C7.93716 5.78309 8.03271 5.2306 7.97652 4.68301C7.92032 4.13542 7.71455 3.61385 7.38173 3.1754C7.04891 2.73695 6.60188 2.39852 6.08957 2.19717C5.57725 1.99581 5.01942 1.9393 4.47713 2.0338C3.93484 2.12831 3.42901 2.3702 3.01501 2.73298C2.60101 3.09577 2.29481 3.56547 2.12993 4.09066C1.96505 4.61584 1.94784 5.17627 2.0802 5.71058C2.21255 6.2449 2.48936 6.73249 2.88032 7.11999C3.44239 7.68276 4.20494 7.99929 5.00032 7.99999C5.44392 7.99586 5.88109 7.8934 6.28032 7.69999L7.43032 8.83999C5.07421 11.3824 3.29679 14.4051 2.22032 17.7C2.03283 18.2684 2.00646 18.8777 2.14415 19.4602C2.28183 20.0427 2.57818 20.5757 3.00032 21C3.28619 21.3048 3.62949 21.55 4.01049 21.7216C4.39148 21.8933 4.80264 21.9879 5.22032 22C5.58671 21.9965 5.9506 21.9393 6.30032 21.83C9.59524 20.7535 12.6179 18.9761 15.1603 16.62L16.3003 17.77C16.0635 18.2669 15.9679 18.8194 16.0241 19.367C16.0803 19.9146 16.2861 20.4361 16.6189 20.8746C16.9517 21.313 17.3988 21.6515 17.9111 21.8528C18.4234 22.0542 18.9812 22.1107 19.5235 22.0162C20.0658 21.9217 20.5716 21.6798 20.9856 21.317C21.3996 20.9542 21.7058 20.4845 21.8707 19.9593C22.0356 19.4341 22.0528 18.8737 21.9205 18.3394C21.7881 17.8051 21.5113 17.3175 21.1203 16.93V16.88ZM5.71032 5.69999C5.52335 5.8883 5.26922 5.99461 5.00386 5.99555C4.7385 5.99649 4.48363 5.89197 4.29532 5.70499C4.10702 5.51802 4.00071 5.26389 3.99977 4.99853C3.99883 4.73317 4.10335 4.4783 4.29032 4.28999C4.4773 4.10169 4.73142 3.99538 4.99679 3.99444C5.26215 3.9935 5.51702 4.09802 5.70532 4.28499C5.89363 4.47197 5.99994 4.72609 6.00088 4.99146C6.00182 5.25682 5.8973 5.51169 5.71032 5.69999ZM18.3103 4.12999C18.4621 4.08 18.6205 4.05304 18.7803 4.04999C18.9343 4.04874 19.087 4.07815 19.2295 4.13653C19.372 4.1949 19.5015 4.28107 19.6103 4.38999C19.7733 4.55922 19.8844 4.77159 19.9305 5.00197C19.9765 5.23235 19.9557 5.4711 19.8703 5.68999C19.342 7.31379 18.6273 8.87085 17.7403 10.33L13.6703 6.25999C15.1295 5.37304 16.6865 4.65827 18.3103 4.12999ZM5.69032 19.87C5.47225 19.9573 5.23335 19.9787 5.00325 19.9314C4.77315 19.8842 4.56196 19.7706 4.39586 19.6045C4.22977 19.4384 4.11607 19.2272 4.06887 18.9971C4.02167 18.767 4.04303 18.5281 4.13032 18.31C4.6586 16.6862 5.37337 15.1291 6.26032 13.67L10.3303 17.74C8.87118 18.6269 7.31412 19.3417 5.69032 19.87ZM12.0003 16.59L7.41032 12C7.85596 11.3952 8.33329 10.8144 8.84032 10.26L13.7503 15.17C13.1925 15.6739 12.6083 16.1479 12.0003 16.59ZM15.1503 13.75L10.2503 8.83999C10.8079 8.33268 11.3921 7.85534 12.0003 7.40999L16.6003 12.01C16.1514 12.6151 15.6708 13.1959 15.1603 13.75H15.1503ZM19.7003 19.75C19.6077 19.8432 19.4977 19.9173 19.3765 19.968C19.2553 20.0187 19.1253 20.0451 18.9939 20.0456C18.8625 20.046 18.7323 20.0206 18.6107 19.9707C18.4891 19.9209 18.3786 19.8476 18.2853 19.755C18.1921 19.6624 18.118 19.5524 18.0673 19.4312C18.0166 19.3099 17.9902 19.1799 17.9898 19.0485C17.9893 18.9171 18.0147 18.7869 18.0646 18.6654C18.1144 18.5438 18.1877 18.4332 18.2803 18.34C18.4677 18.1537 18.7211 18.0492 18.9853 18.0492C19.2495 18.0492 19.503 18.1537 19.6903 18.34C19.8674 18.5229 19.9681 18.7665 19.9718 19.021C19.9755 19.2756 19.882 19.522 19.7103 19.71L19.7003 19.75Z" />
</symbol><symbol viewBox="0 0 24 24" id="sports-card">
<path d="M21.0002 12.5C20.9959 11.393 20.659 10.3129 20.0331 9.39986C19.4071 8.48683 18.5211 7.78308 17.4902 7.38C17.4902 5.92131 16.9107 4.52237 15.8792 3.49092C14.8478 2.45947 13.4488 1.88 11.9902 1.88C10.5315 1.88 9.13252 2.45947 8.10107 3.49092C7.06962 4.52237 6.49015 5.92131 6.49015 7.38C5.29726 7.84805 4.30524 8.71793 3.68536 9.83945C3.06549 10.961 2.85667 12.2637 3.09497 13.5228C3.33327 14.7819 4.00373 15.9182 4.99058 16.7357C5.97743 17.5531 7.21873 18.0003 8.50015 18H8.70015C8.44753 18.8703 8.0262 19.6824 7.46015 20.39C7.34684 20.5372 7.27675 20.713 7.25774 20.8978C7.23874 21.0825 7.27157 21.2689 7.35255 21.4361C7.43353 21.6032 7.55947 21.7445 7.71624 21.8441C7.87301 21.9437 8.05443 21.9977 8.24015 22H15.7602C15.9494 22.0007 16.1349 21.9476 16.2952 21.847C16.4555 21.7464 16.5839 21.6024 16.6656 21.4317C16.7473 21.261 16.7789 21.0706 16.7567 20.8827C16.7344 20.6947 16.6594 20.517 16.5402 20.37C15.9764 19.6683 15.5552 18.8632 15.3002 18H15.5002C16.958 17.9974 18.3554 17.417 19.3863 16.3862C20.4172 15.3553 20.9975 13.9579 21.0002 12.5ZM10.0602 20C10.4582 19.1926 10.7313 18.3294 10.8702 17.44C11.2739 17.2535 11.6533 17.0184 12.0002 16.74C12.347 17.0184 12.7264 17.2535 13.1302 17.44C13.269 18.3294 13.5421 19.1926 13.9402 20H10.0602ZM12.7802 14.7L12.7002 14.62L12.6202 14.54H12.5502L12.3702 14.45L12.1902 14.39H11.8102L11.6302 14.45C11.5687 14.47 11.5112 14.5004 11.4602 14.54H11.3802L11.3002 14.62L11.2202 14.7C10.8685 15.1348 10.4177 15.4791 9.90558 15.7038C9.39348 15.9286 8.83497 16.0274 8.27684 15.9919C7.7187 15.9565 7.1772 15.7878 6.69768 15.5C6.21816 15.2122 5.81458 14.8136 5.52077 14.3378C5.22695 13.8619 5.05145 13.3226 5.00896 12.7649C4.96647 12.2073 5.05822 11.6476 5.27654 11.1327C5.49487 10.6178 5.83339 10.1627 6.26377 9.80558C6.69414 9.44844 7.20384 9.19964 7.75015 9.08C7.80555 9.05769 7.85906 9.03093 7.91015 9C7.97193 8.97754 8.03208 8.95081 8.09015 8.92C8.14167 8.8822 8.18865 8.83858 8.23015 8.79C8.33043 8.71078 8.40377 8.60251 8.44015 8.48C8.47194 8.4272 8.49554 8.36988 8.51015 8.31001C8.51987 8.24369 8.51987 8.17632 8.51015 8.11C8.51498 8.05344 8.51498 7.99657 8.51015 7.94C8.50022 7.79017 8.50022 7.63984 8.51015 7.49C8.51015 6.56175 8.8789 5.67151 9.53528 5.01513C10.1917 4.35875 11.0819 3.99001 12.0102 3.99001C12.9384 3.99001 13.8286 4.35875 14.485 5.01513C15.1414 5.67151 15.5102 6.56175 15.5102 7.49C15.5201 7.63984 15.5201 7.79017 15.5102 7.94C15.5049 7.99321 15.5049 8.0468 15.5102 8.10001C15.5002 8.16965 15.5002 8.24036 15.5102 8.31001C15.5248 8.36988 15.5484 8.4272 15.5802 8.48C15.6165 8.60251 15.6899 8.71078 15.7902 8.79C15.8317 8.83858 15.8786 8.8822 15.9302 8.92C15.9882 8.95081 16.0484 8.97754 16.1102 9C16.1616 9.0275 16.2151 9.05091 16.2702 9.07C16.8165 9.18964 17.3262 9.43844 17.7565 9.79558C18.1869 10.1527 18.5254 10.6078 18.7438 11.1227C18.9621 11.6376 19.0538 12.1973 19.0113 12.7549C18.9689 13.3126 18.7934 13.8519 18.4995 14.3278C18.2057 14.8036 17.8022 15.2022 17.3226 15.49C16.8431 15.7778 16.3016 15.9465 15.7435 15.9819C15.1853 16.0174 14.6268 15.9186 14.1147 15.6938C13.6026 15.4691 13.1519 15.1248 12.8002 14.69L12.7802 14.7Z" />
</symbol><symbol viewBox="0 0 24 24" id="sports-card-1">
<path d="M21.0599 12.28C21.0528 10.7785 20.4525 9.34073 19.3899 8.27995L13.9999 2.80995C13.4692 2.27991 12.7499 1.98218 11.9999 1.98218C11.2499 1.98218 10.5305 2.27991 9.99988 2.80995L4.60988 8.22995C3.54726 9.29073 2.94699 10.7285 2.93988 12.23C2.93059 12.986 3.07183 13.7364 3.35538 14.4374C3.63892 15.1384 4.0591 15.7759 4.59144 16.3129C5.12379 16.8499 5.75766 17.2756 6.45614 17.5653C7.15462 17.8549 7.90374 18.0027 8.65988 18C8.40859 18.8627 7.99072 19.6679 7.42988 20.37C7.30888 20.5189 7.23329 20.6995 7.21212 20.8902C7.19095 21.0809 7.2251 21.2737 7.31049 21.4455C7.39588 21.6174 7.52891 21.761 7.69371 21.8593C7.8585 21.9576 8.0481 22.0065 8.23988 22H15.7599C15.9491 22.0006 16.1347 21.9475 16.2949 21.8469C16.4552 21.7463 16.5837 21.6023 16.6653 21.4316C16.747 21.2609 16.7786 21.0705 16.7564 20.8826C16.7342 20.6947 16.6591 20.5169 16.5399 20.37C15.9782 19.6684 15.5602 18.8631 15.3099 18C16.0638 18.0079 16.8118 17.8659 17.5104 17.5823C18.209 17.2987 18.8443 16.879 19.3793 16.3477C19.9143 15.8164 20.3384 15.1841 20.6269 14.4875C20.9154 13.7909 21.0626 13.0439 21.0599 12.29V12.28ZM17.9999 14.91C17.5269 15.3757 16.9397 15.7087 16.2972 15.8755C15.6547 16.0423 14.9796 16.0369 14.3399 15.86C14.2833 15.8551 14.2264 15.8551 14.1699 15.86H13.9699C13.8951 15.874 13.8215 15.894 13.7499 15.92H13.5999C13.5522 15.9511 13.5085 15.9881 13.4699 16.03C13.4066 16.068 13.3494 16.1152 13.2999 16.17C13.2838 16.2086 13.2637 16.2455 13.2399 16.28C13.196 16.3545 13.1559 16.4313 13.1199 16.51C13.115 16.5699 13.115 16.6301 13.1199 16.69C13.1199 16.75 13.1199 16.81 13.1199 16.87C13.1983 17.9549 13.4763 19.016 13.9399 20H10.0599C10.5336 19.062 10.8319 18.0452 10.9399 17C10.9399 16.94 10.9399 16.88 10.9399 16.81C10.9448 16.7501 10.9448 16.6899 10.9399 16.63C10.9065 16.545 10.8628 16.4644 10.8099 16.39C10.7936 16.3545 10.7735 16.321 10.7499 16.29C10.7064 16.2331 10.652 16.1856 10.5899 16.15C10.5491 16.1104 10.5056 16.0737 10.4599 16.04H10.3199C10.2468 16.0062 10.1694 15.9827 10.0899 15.97H9.89988C9.83998 15.965 9.77978 15.965 9.71988 15.97C9.06165 16.1414 8.36952 16.1335 7.71536 15.9471C7.0612 15.7607 6.46887 15.4026 5.99988 14.91C5.30496 14.2106 4.91338 13.2658 4.90988 12.28C4.90835 11.7912 5.00392 11.3071 5.19103 10.8556C5.37815 10.4041 5.65309 9.99431 5.99988 9.64995L11.3999 4.22995C11.5511 4.08274 11.7538 4.00036 11.9649 4.00036C12.1759 4.00036 12.3787 4.08274 12.5299 4.22995L17.9999 9.64995C18.3467 9.99431 18.6216 10.4041 18.8087 10.8556C18.9958 11.3071 19.0914 11.7912 19.0899 12.28C19.0832 13.2652 18.6921 14.2088 17.9999 14.91Z" />
</symbol><symbol viewBox="0 0 24 24" id="sports-card-2">
<path d="M20.1603 4.99997C19.094 3.94467 17.6856 3.30524 16.1893 3.19705C14.693 3.08886 13.2073 3.51904 12.0003 4.40997C10.7279 3.46361 9.14427 3.03448 7.5682 3.20901C5.99212 3.38353 4.54072 4.14875 3.50625 5.35055C2.47178 6.55236 1.9311 8.10149 1.99308 9.68598C2.05506 11.2705 2.71509 12.7726 3.84028 13.89L9.84028 19.94C10.4028 20.5018 11.1653 20.8173 11.9603 20.8173C12.7553 20.8173 13.5178 20.5018 14.0803 19.94L20.0803 13.89C20.6712 13.3126 21.1422 12.6242 21.4662 11.8642C21.7902 11.1042 21.9609 10.2877 21.9683 9.4616C21.9757 8.63548 21.8198 7.81603 21.5095 7.05035C21.1993 6.28467 20.7407 5.58786 20.1603 4.99997ZM18.7503 12.46L12.7503 18.46C12.6573 18.5537 12.5467 18.6281 12.4249 18.6789C12.303 18.7296 12.1723 18.7558 12.0403 18.7558C11.9083 18.7558 11.7776 18.7296 11.6557 18.6789C11.5338 18.6281 11.4232 18.5537 11.3303 18.46L5.33028 12.46C4.54603 11.6583 4.10689 10.5814 4.10689 9.45997C4.10689 8.3385 4.54603 7.26162 5.33028 6.45997C6.12943 5.67096 7.20725 5.22854 8.33028 5.22854C9.4533 5.22854 10.5311 5.67096 11.3303 6.45997C11.4232 6.5537 11.5338 6.62809 11.6557 6.67886C11.7776 6.72963 11.9083 6.75577 12.0403 6.75577C12.1723 6.75577 12.303 6.72963 12.4249 6.67886C12.5467 6.62809 12.6573 6.5537 12.7503 6.45997C13.571 5.80686 14.6035 5.47869 15.6507 5.53806C16.6979 5.59743 17.6867 6.04018 18.4284 6.78187C19.1701 7.52356 19.6128 8.5123 19.6722 9.55953C19.7316 10.6068 19.4034 11.6392 18.7503 12.46Z" />
</symbol><symbol viewBox="0 0 24 24" id="sports-card-3">
<path d="M19.9998 10.35L14.2198 2.93997C13.9294 2.63767 13.5801 2.39824 13.1934 2.23653C12.8067 2.07482 12.3909 1.99428 11.9717 1.99991C11.5526 2.00554 11.1391 2.09721 10.7569 2.26923C10.3747 2.44126 10.0319 2.68998 9.74977 2.99997L3.99977 10.35C3.68141 10.8415 3.5113 11.4143 3.50977 12C3.52647 12.5614 3.69587 13.1076 3.99977 13.58L4.05977 13.65L9.79977 21.06C10.0824 21.3592 10.4235 21.597 10.802 21.7588C11.1805 21.9205 11.5882 22.0026 11.9998 22C12.4253 21.9996 12.8461 21.9105 13.2352 21.7383C13.6243 21.5661 13.9733 21.3146 14.2598 21L19.9998 13.65C20.3135 13.1543 20.475 12.5775 20.4644 11.991C20.4537 11.4044 20.2713 10.8339 19.9398 10.35H19.9998ZM18.4298 12.49L12.7598 19.71C12.5687 19.886 12.3219 19.9894 12.0624 20.0021C11.803 20.0149 11.5472 19.9363 11.3398 19.78L5.64977 12.47C5.56481 12.3274 5.5167 12.1658 5.50977 12C5.51124 11.8446 5.54531 11.6913 5.60977 11.55L11.2798 4.32997C11.4709 4.15398 11.7176 4.05059 11.9771 4.03779C12.2366 4.025 12.4923 4.10363 12.6998 4.25997L18.3298 11.54C18.4337 11.7009 18.4893 11.8884 18.4898 12.08C18.483 12.2218 18.449 12.361 18.3898 12.49H18.4298Z" />
</symbol><symbol viewBox="0 0 24 24" id="sports-cup">
<path d="M21 4H18V3C18 2.73478 17.8946 2.48043 17.7071 2.29289C17.5196 2.10536 17.2652 2 17 2H7C6.73478 2 6.48043 2.10536 6.29289 2.29289C6.10536 2.48043 6 2.73478 6 3V4H3C2.73478 4 2.48043 4.10536 2.29289 4.29289C2.10536 4.48043 2 4.73478 2 5V8C2 9.06087 2.42143 10.0783 3.17157 10.8284C3.92172 11.5786 4.93913 12 6 12H7.54C8.44453 13.0091 9.66406 13.6824 11 13.91V16H10C9.20435 16 8.44129 16.3161 7.87868 16.8787C7.31607 17.4413 7 18.2044 7 19V21C7 21.2652 7.10536 21.5196 7.29289 21.7071C7.48043 21.8946 7.73478 22 8 22H16C16.2652 22 16.5196 21.8946 16.7071 21.7071C16.8946 21.5196 17 21.2652 17 21V19C17 18.2044 16.6839 17.4413 16.1213 16.8787C15.5587 16.3161 14.7956 16 14 16H13V13.91C14.3359 13.6824 15.5555 13.0091 16.46 12H18C19.0609 12 20.0783 11.5786 20.8284 10.8284C21.5786 10.0783 22 9.06087 22 8V5C22 4.73478 21.8946 4.48043 21.7071 4.29289C21.5196 4.10536 21.2652 4 21 4ZM6 10C5.46957 10 4.96086 9.78929 4.58579 9.41421C4.21071 9.03914 4 8.53043 4 8V6H6V8C6.0022 8.68171 6.12056 9.35806 6.35 10H6ZM14 18C14.2652 18 14.5196 18.1054 14.7071 18.2929C14.8946 18.4804 15 18.7348 15 19V20H9V19C9 18.7348 9.10536 18.4804 9.29289 18.2929C9.48043 18.1054 9.73478 18 10 18H14ZM16 8C16 9.06087 15.5786 10.0783 14.8284 10.8284C14.0783 11.5786 13.0609 12 12 12C10.9391 12 9.92172 11.5786 9.17157 10.8284C8.42143 10.0783 8 9.06087 8 8V4H16V8ZM20 8C20 8.53043 19.7893 9.03914 19.4142 9.41421C19.0391 9.78929 18.5304 10 18 10H17.65C17.8794 9.35806 17.9978 8.68171 18 8V6H20V8Z" />
</symbol><symbol viewBox="0 0 24 24" id="sports-dice">
<path d="M17 2H7C5.67392 2 4.40215 2.52678 3.46447 3.46447C2.52678 4.40215 2 5.67392 2 7V17C2 18.3261 2.52678 19.5979 3.46447 20.5355C4.40215 21.4732 5.67392 22 7 22H17C18.3261 22 19.5979 21.4732 20.5355 20.5355C21.4732 19.5979 22 18.3261 22 17V7C22 5.67392 21.4732 4.40215 20.5355 3.46447C19.5979 2.52678 18.3261 2 17 2ZM20 17C20 17.7956 19.6839 18.5587 19.1213 19.1213C18.5587 19.6839 17.7956 20 17 20H7C6.20435 20 5.44129 19.6839 4.87868 19.1213C4.31607 18.5587 4 17.7956 4 17V7C4 6.20435 4.31607 5.44129 4.87868 4.87868C5.44129 4.31607 6.20435 4 7 4H17C17.7956 4 18.5587 4.31607 19.1213 4.87868C19.6839 5.44129 20 6.20435 20 7V17ZM12 11C11.8022 11 11.6089 11.0586 11.4444 11.1685C11.28 11.2784 11.1518 11.4346 11.0761 11.6173C11.0004 11.8 10.9806 12.0011 11.0192 12.1951C11.0578 12.3891 11.153 12.5673 11.2929 12.7071C11.4327 12.847 11.6109 12.9422 11.8049 12.9808C11.9989 13.0194 12.2 12.9996 12.3827 12.9239C12.5654 12.8482 12.7216 12.72 12.8315 12.5556C12.9414 12.3911 13 12.1978 13 12C13 11.7348 12.8946 11.4804 12.7071 11.2929C12.5196 11.1054 12.2652 11 12 11Z" />
</symbol><symbol viewBox="0 0 24 24" id="sports-dice-1">
<path d="M15 14C14.8022 14 14.6089 14.0586 14.4444 14.1685C14.28 14.2784 14.1518 14.4346 14.0761 14.6173C14.0004 14.8 13.9806 15.0011 14.0192 15.1951C14.0578 15.3891 14.153 15.5673 14.2929 15.7071C14.4327 15.847 14.6109 15.9422 14.8049 15.9808C14.9989 16.0194 15.2 15.9996 15.3827 15.9239C15.5654 15.8482 15.7216 15.72 15.8315 15.5556C15.9414 15.3911 16 15.1978 16 15C16 14.7348 15.8946 14.4804 15.7071 14.2929C15.5196 14.1054 15.2652 14 15 14ZM9 8C8.80222 8 8.60888 8.05865 8.44443 8.16853C8.27998 8.27841 8.15181 8.43459 8.07612 8.61732C8.00043 8.80004 7.98063 9.00111 8.01921 9.19509C8.0578 9.38907 8.15304 9.56725 8.29289 9.70711C8.43275 9.84696 8.61093 9.9422 8.80491 9.98079C8.99889 10.0194 9.19996 9.99957 9.38268 9.92388C9.56541 9.84819 9.72159 9.72002 9.83147 9.55557C9.94135 9.39112 10 9.19778 10 9C10 8.73478 9.89464 8.48043 9.70711 8.29289C9.51957 8.10536 9.26522 8 9 8ZM9 14C8.80222 14 8.60888 14.0586 8.44443 14.1685C8.27998 14.2784 8.15181 14.4346 8.07612 14.6173C8.00043 14.8 7.98063 15.0011 8.01921 15.1951C8.0578 15.3891 8.15304 15.5673 8.29289 15.7071C8.43275 15.847 8.61093 15.9422 8.80491 15.9808C8.99889 16.0194 9.19996 15.9996 9.38268 15.9239C9.56541 15.8482 9.72159 15.72 9.83147 15.5556C9.94135 15.3911 10 15.1978 10 15C10 14.7348 9.89464 14.4804 9.70711 14.2929C9.51957 14.1054 9.26522 14 9 14ZM15 8C14.8022 8 14.6089 8.05865 14.4444 8.16853C14.28 8.27841 14.1518 8.43459 14.0761 8.61732C14.0004 8.80004 13.9806 9.00111 14.0192 9.19509C14.0578 9.38907 14.153 9.56725 14.2929 9.70711C14.4327 9.84696 14.6109 9.9422 14.8049 9.98079C14.9989 10.0194 15.2 9.99957 15.3827 9.92388C15.5654 9.84819 15.7216 9.72002 15.8315 9.55557C15.9414 9.39112 16 9.19778 16 9C16 8.73478 15.8946 8.48043 15.7071 8.29289C15.5196 8.10536 15.2652 8 15 8ZM17 2H7C5.67392 2 4.40215 2.52678 3.46447 3.46447C2.52678 4.40215 2 5.67392 2 7V17C2 18.3261 2.52678 19.5979 3.46447 20.5355C4.40215 21.4732 5.67392 22 7 22H17C18.3261 22 19.5979 21.4732 20.5355 20.5355C21.4732 19.5979 22 18.3261 22 17V7C22 5.67392 21.4732 4.40215 20.5355 3.46447C19.5979 2.52678 18.3261 2 17 2ZM20 17C20 17.7956 19.6839 18.5587 19.1213 19.1213C18.5587 19.6839 17.7956 20 17 20H7C6.20435 20 5.44129 19.6839 4.87868 19.1213C4.31607 18.5587 4 17.7956 4 17V7C4 6.20435 4.31607 5.44129 4.87868 4.87868C5.44129 4.31607 6.20435 4 7 4H17C17.7956 4 18.5587 4.31607 19.1213 4.87868C19.6839 5.44129 20 6.20435 20 7V17Z" />
</symbol><symbol viewBox="0 0 24 24" id="sports-dice-2">
<path d="M9 11C8.80222 11 8.60888 11.0586 8.44443 11.1685C8.27998 11.2784 8.15181 11.4346 8.07612 11.6173C8.00043 11.8 7.98063 12.0011 8.01921 12.1951C8.0578 12.3891 8.15304 12.5673 8.29289 12.7071C8.43275 12.847 8.61093 12.9422 8.80491 12.9808C8.99889 13.0194 9.19996 12.9996 9.38268 12.9239C9.56541 12.8482 9.72159 12.72 9.83147 12.5556C9.94135 12.3911 10 12.1978 10 12C10 11.7348 9.89464 11.4804 9.70711 11.2929C9.51957 11.1054 9.26522 11 9 11ZM17 2H7C5.67392 2 4.40215 2.52678 3.46447 3.46447C2.52678 4.40215 2 5.67392 2 7V17C2 18.3261 2.52678 19.5979 3.46447 20.5355C4.40215 21.4732 5.67392 22 7 22H17C18.3261 22 19.5979 21.4732 20.5355 20.5355C21.4732 19.5979 22 18.3261 22 17V7C22 5.67392 21.4732 4.40215 20.5355 3.46447C19.5979 2.52678 18.3261 2 17 2ZM20 17C20 17.7956 19.6839 18.5587 19.1213 19.1213C18.5587 19.6839 17.7956 20 17 20H7C6.20435 20 5.44129 19.6839 4.87868 19.1213C4.31607 18.5587 4 17.7956 4 17V7C4 6.20435 4.31607 5.44129 4.87868 4.87868C5.44129 4.31607 6.20435 4 7 4H17C17.7956 4 18.5587 4.31607 19.1213 4.87868C19.6839 5.44129 20 6.20435 20 7V17ZM15 11C14.8022 11 14.6089 11.0586 14.4444 11.1685C14.28 11.2784 14.1518 11.4346 14.0761 11.6173C14.0004 11.8 13.9806 12.0011 14.0192 12.1951C14.0578 12.3891 14.153 12.5673 14.2929 12.7071C14.4327 12.847 14.6109 12.9422 14.8049 12.9808C14.9989 13.0194 15.2 12.9996 15.3827 12.9239C15.5654 12.8482 15.7216 12.72 15.8315 12.5556C15.9414 12.3911 16 12.1978 16 12C16 11.7348 15.8946 11.4804 15.7071 11.2929C15.5196 11.1054 15.2652 11 15 11Z" />
</symbol><symbol viewBox="0 0 24 24" id="sports-dice-3">
<path d="M9 11C8.80222 11 8.60888 11.0586 8.44443 11.1685C8.27998 11.2784 8.15181 11.4346 8.07612 11.6173C8.00043 11.8 7.98063 12.0011 8.01921 12.1951C8.0578 12.3891 8.15304 12.5673 8.29289 12.7071C8.43275 12.847 8.61093 12.9422 8.80491 12.9808C8.99889 13.0194 9.19996 12.9996 9.38268 12.9239C9.56541 12.8482 9.72159 12.72 9.83147 12.5556C9.94135 12.3911 10 12.1978 10 12C10 11.7348 9.89464 11.4804 9.70711 11.2929C9.51957 11.1054 9.26522 11 9 11ZM9 15C8.80222 15 8.60888 15.0586 8.44443 15.1685C8.27998 15.2784 8.15181 15.4346 8.07612 15.6173C8.00043 15.8 7.98063 16.0011 8.01921 16.1951C8.0578 16.3891 8.15304 16.5673 8.29289 16.7071C8.43275 16.847 8.61093 16.9422 8.80491 16.9808C8.99889 17.0194 9.19996 16.9996 9.38268 16.9239C9.56541 16.8482 9.72159 16.72 9.83147 16.5556C9.94135 16.3911 10 16.1978 10 16C10 15.7348 9.89464 15.4804 9.70711 15.2929C9.51957 15.1054 9.26522 15 9 15ZM9 7C8.80222 7 8.60888 7.05865 8.44443 7.16853C8.27998 7.27841 8.15181 7.43459 8.07612 7.61732C8.00043 7.80004 7.98063 8.00111 8.01921 8.19509C8.0578 8.38907 8.15304 8.56725 8.29289 8.70711C8.43275 8.84696 8.61093 8.9422 8.80491 8.98079C8.99889 9.01937 9.19996 8.99957 9.38268 8.92388C9.56541 8.84819 9.72159 8.72002 9.83147 8.55557C9.94135 8.39112 10 8.19778 10 8C10 7.73478 9.89464 7.48043 9.70711 7.29289C9.51957 7.10536 9.26522 7 9 7ZM15 7C14.8022 7 14.6089 7.05865 14.4444 7.16853C14.28 7.27841 14.1518 7.43459 14.0761 7.61732C14.0004 7.80004 13.9806 8.00111 14.0192 8.19509C14.0578 8.38907 14.153 8.56725 14.2929 8.70711C14.4327 8.84696 14.6109 8.9422 14.8049 8.98079C14.9989 9.01937 15.2 8.99957 15.3827 8.92388C15.5654 8.84819 15.7216 8.72002 15.8315 8.55557C15.9414 8.39112 16 8.19778 16 8C16 7.73478 15.8946 7.48043 15.7071 7.29289C15.5196 7.10536 15.2652 7 15 7ZM17 2H7C5.67392 2 4.40215 2.52678 3.46447 3.46447C2.52678 4.40215 2 5.67392 2 7V17C2 18.3261 2.52678 19.5979 3.46447 20.5355C4.40215 21.4732 5.67392 22 7 22H17C18.3261 22 19.5979 21.4732 20.5355 20.5355C21.4732 19.5979 22 18.3261 22 17V7C22 5.67392 21.4732 4.40215 20.5355 3.46447C19.5979 2.52678 18.3261 2 17 2ZM20 17C20 17.7956 19.6839 18.5587 19.1213 19.1213C18.5587 19.6839 17.7956 20 17 20H7C6.20435 20 5.44129 19.6839 4.87868 19.1213C4.31607 18.5587 4 17.7956 4 17V7C4 6.20435 4.31607 5.44129 4.87868 4.87868C5.44129 4.31607 6.20435 4 7 4H17C17.7956 4 18.5587 4.31607 19.1213 4.87868C19.6839 5.44129 20 6.20435 20 7V17ZM15 11C14.8022 11 14.6089 11.0586 14.4444 11.1685C14.28 11.2784 14.1518 11.4346 14.0761 11.6173C14.0004 11.8 13.9806 12.0011 14.0192 12.1951C14.0578 12.3891 14.153 12.5673 14.2929 12.7071C14.4327 12.847 14.6109 12.9422 14.8049 12.9808C14.9989 13.0194 15.2 12.9996 15.3827 12.9239C15.5654 12.8482 15.7216 12.72 15.8315 12.5556C15.9414 12.3911 16 12.1978 16 12C16 11.7348 15.8946 11.4804 15.7071 11.2929C15.5196 11.1054 15.2652 11 15 11ZM15 15C14.8022 15 14.6089 15.0586 14.4444 15.1685C14.28 15.2784 14.1518 15.4346 14.0761 15.6173C14.0004 15.8 13.9806 16.0011 14.0192 16.1951C14.0578 16.3891 14.153 16.5673 14.2929 16.7071C14.4327 16.847 14.6109 16.9422 14.8049 16.9808C14.9989 17.0194 15.2 16.9996 15.3827 16.9239C15.5654 16.8482 15.7216 16.72 15.8315 16.5556C15.9414 16.3911 16 16.1978 16 16C16 15.7348 15.8946 15.4804 15.7071 15.2929C15.5196 15.1054 15.2652 15 15 15Z" />
</symbol><symbol viewBox="0 0 24 24" id="sports-football-ball">
<path d="M20.07 6.10996C18.9817 4.60734 17.4912 3.44264 15.77 2.74996C14.2526 2.13232 12.6067 1.89696 10.977 2.06455C9.3473 2.23215 7.78375 2.79757 6.42381 3.71111C5.06387 4.62465 3.94921 5.85832 3.17783 7.30364C2.40645 8.74897 2.00199 10.3617 2 12C2 12.19 2 12.38 2 12.56C2.08726 14.1241 2.54299 15.6454 3.33 17C4.61526 19.2558 6.72747 20.9233 9.22 21.65C10.1259 21.8951 11.0616 22.0129 12 22C12.6311 22.0029 13.2609 21.9426 13.88 21.82C15.9226 21.4246 17.7911 20.4019 19.2251 18.8944C20.659 17.387 21.5871 15.4698 21.88 13.41C21.9551 12.9436 21.9953 12.4723 22 12C22.0087 9.87987 21.3317 7.81379 20.07 6.10996ZM18.07 6.87996L17 9.73996L15.38 10.18L13 8.48996V6.63996L15.49 4.82996C16.5004 5.3172 17.394 6.0164 18.11 6.87996H18.07ZM14 11.67L13.22 14H10.77L10 11.67L12 10.24L14 11.67ZM12 3.99996C12.3716 4.00414 12.7425 4.03421 13.11 4.08996L12 4.88996L10.89 4.08996C11.2575 4.03421 11.6284 4.00414 12 3.99996ZM4.88 8.36996L5.28 9.68996L4.15 10.48C4.29195 9.74554 4.53775 9.03508 4.88 8.36996ZM6.25 17.54L7.63 17.59L8 18.92C7.35742 18.5405 6.76881 18.0764 6.25 17.54ZM8 15.6L4.85 15.49C4.45256 14.7094 4.1889 13.8677 4.07 13L6.56 11.26L8 11.88L8.89 14.64L8 15.6ZM8.86 10.07L7.3 9.36996L6.39 6.36996C7.00337 5.74351 7.71637 5.22312 8.5 4.82996L11 6.63996V8.48996L8.86 10.07ZM13 19.93C12.1227 20.034 11.2342 19.9935 10.37 19.81L9.54 16.89L10.37 16H13.44L14.11 17L13 19.93ZM15.41 19.23L15.87 18L17.23 18.07C16.6705 18.5411 16.0478 18.9316 15.38 19.23H15.41ZM18.87 16.11L15.76 16L15.05 14.9L15.94 12.14L17.45 11.73L19.81 13.73C19.6198 14.5712 19.2921 15.3754 18.84 16.11H18.87ZM18.92 10.28L19.4 8.99996C19.6816 9.67966 19.8602 10.3976 19.93 11.13L18.92 10.28Z" />
</symbol><symbol viewBox="0 0 24 24" id="sports-gambling">
<path d="M17 2H7C5.67392 2 4.40215 2.52678 3.46447 3.46447C2.52678 4.40215 2 5.67392 2 7V17C2 18.3261 2.52678 19.5979 3.46447 20.5355C4.40215 21.4732 5.67392 22 7 22H17C18.3261 22 19.5979 21.4732 20.5355 20.5355C21.4732 19.5979 22 18.3261 22 17V7C22 5.67392 21.4732 4.40215 20.5355 3.46447C19.5979 2.52678 18.3261 2 17 2ZM20 17C20 17.7956 19.6839 18.5587 19.1213 19.1213C18.5587 19.6839 17.7956 20 17 20H7C6.20435 20 5.44129 19.6839 4.87868 19.1213C4.31607 18.5587 4 17.7956 4 17V7C4 6.20435 4.31607 5.44129 4.87868 4.87868C5.44129 4.31607 6.20435 4 7 4H17C17.7956 4 18.5587 4.31607 19.1213 4.87868C19.6839 5.44129 20 6.20435 20 7V17ZM8 15C7.80222 15 7.60888 15.0586 7.44443 15.1685C7.27998 15.2784 7.15181 15.4346 7.07612 15.6173C7.00043 15.8 6.98063 16.0011 7.01921 16.1951C7.0578 16.3891 7.15304 16.5673 7.29289 16.7071C7.43275 16.847 7.61093 16.9422 7.80491 16.9808C7.99889 17.0194 8.19996 16.9996 8.38268 16.9239C8.56541 16.8482 8.72159 16.72 8.83147 16.5556C8.94135 16.3911 9 16.1978 9 16C9 15.7348 8.89464 15.4804 8.70711 15.2929C8.51957 15.1054 8.26522 15 8 15ZM12 11C11.8022 11 11.6089 11.0586 11.4444 11.1685C11.28 11.2784 11.1518 11.4346 11.0761 11.6173C11.0004 11.8 10.9806 12.0011 11.0192 12.1951C11.0578 12.3891 11.153 12.5673 11.2929 12.7071C11.4327 12.847 11.6109 12.9422 11.8049 12.9808C11.9989 13.0194 12.2 12.9996 12.3827 12.9239C12.5654 12.8482 12.7216 12.72 12.8315 12.5556C12.9414 12.3911 13 12.1978 13 12C13 11.7348 12.8946 11.4804 12.7071 11.2929C12.5196 11.1054 12.2652 11 12 11ZM8 7C7.80222 7 7.60888 7.05865 7.44443 7.16853C7.27998 7.27841 7.15181 7.43459 7.07612 7.61732C7.00043 7.80004 6.98063 8.00111 7.01921 8.19509C7.0578 8.38907 7.15304 8.56725 7.29289 8.70711C7.43275 8.84696 7.61093 8.9422 7.80491 8.98079C7.99889 9.01937 8.19996 8.99957 8.38268 8.92388C8.56541 8.84819 8.72159 8.72002 8.83147 8.55557C8.94135 8.39112 9 8.19778 9 8C9 7.73478 8.89464 7.48043 8.70711 7.29289C8.51957 7.10536 8.26522 7 8 7ZM16 15C15.8022 15 15.6089 15.0586 15.4444 15.1685C15.28 15.2784 15.1518 15.4346 15.0761 15.6173C15.0004 15.8 14.9806 16.0011 15.0192 16.1951C15.0578 16.3891 15.153 16.5673 15.2929 16.7071C15.4327 16.847 15.6109 16.9422 15.8049 16.9808C15.9989 17.0194 16.2 16.9996 16.3827 16.9239C16.5654 16.8482 16.7216 16.72 16.8315 16.5556C16.9414 16.3911 17 16.1978 17 16C17 15.7348 16.8946 15.4804 16.7071 15.2929C16.5196 15.1054 16.2652 15 16 15ZM16 7C15.8022 7 15.6089 7.05865 15.4444 7.16853C15.28 7.27841 15.1518 7.43459 15.0761 7.61732C15.0004 7.80004 14.9806 8.00111 15.0192 8.19509C15.0578 8.38907 15.153 8.56725 15.2929 8.70711C15.4327 8.84696 15.6109 8.9422 15.8049 8.98079C15.9989 9.01937 16.2 8.99957 16.3827 8.92388C16.5654 8.84819 16.7216 8.72002 16.8315 8.55557C16.9414 8.39112 17 8.19778 17 8C17 7.73478 16.8946 7.48043 16.7071 7.29289C16.5196 7.10536 16.2652 7 16 7Z" />
</symbol><symbol viewBox="0 0 24 24" id="sports-golf-ball">
<path d="M14 9C13.8022 9 13.6089 9.05865 13.4444 9.16853C13.28 9.27841 13.1518 9.43459 13.0761 9.61732C13.0004 9.80004 12.9806 10.0011 13.0192 10.1951C13.0578 10.3891 13.153 10.5673 13.2929 10.7071C13.4328 10.847 13.6109 10.9422 13.8049 10.9808C13.9989 11.0194 14.2 10.9996 14.3827 10.9239C14.5654 10.8482 14.7216 10.72 14.8315 10.5556C14.9414 10.3911 15 10.1978 15 10C15 9.73478 14.8946 9.48043 14.7071 9.29289C14.5196 9.10536 14.2652 9 14 9ZM14 6C13.8022 6 13.6089 6.05865 13.4444 6.16853C13.28 6.27841 13.1518 6.43459 13.0761 6.61732C13.0004 6.80004 12.9806 7.00111 13.0192 7.19509C13.0578 7.38907 13.153 7.56725 13.2929 7.70711C13.4328 7.84696 13.6109 7.9422 13.8049 7.98079C13.9989 8.01937 14.2 7.99957 14.3827 7.92388C14.5654 7.84819 14.7216 7.72002 14.8315 7.55557C14.9414 7.39112 15 7.19778 15 7C15 6.73478 14.8946 6.48043 14.7071 6.29289C14.5196 6.10536 14.2652 6 14 6ZM12 2C10.0222 2 8.08879 2.58649 6.4443 3.6853C4.79981 4.78412 3.51809 6.3459 2.76121 8.17317C2.00433 10.0004 1.8063 12.0111 2.19215 13.9509C2.578 15.8907 3.53041 17.6725 4.92894 19.0711C6.32746 20.4696 8.10929 21.422 10.0491 21.8079C11.9889 22.1937 13.9996 21.9957 15.8268 21.2388C17.6541 20.4819 19.2159 19.2002 20.3147 17.5557C21.4135 15.9112 22 13.9778 22 12C22 10.6868 21.7413 9.38642 21.2388 8.17317C20.7363 6.95991 19.9997 5.85752 19.0711 4.92893C18.1425 4.00035 17.0401 3.26375 15.8268 2.7612C14.6136 2.25866 13.3132 2 12 2ZM12 20C10.4178 20 8.87104 19.5308 7.55544 18.6518C6.23985 17.7727 5.21447 16.5233 4.60897 15.0615C4.00347 13.5997 3.84504 11.9911 4.15372 10.4393C4.4624 8.88743 5.22433 7.46197 6.34315 6.34315C7.46197 5.22433 8.88743 4.4624 10.4393 4.15372C11.9911 3.84504 13.5997 4.00346 15.0615 4.60896C16.5233 5.21447 17.7727 6.23984 18.6518 7.55544C19.5308 8.87103 20 10.4177 20 12C20 14.1217 19.1572 16.1566 17.6569 17.6569C16.1566 19.1571 14.1217 20 12 20ZM17 8C16.8022 8 16.6089 8.05865 16.4444 8.16853C16.28 8.27841 16.1518 8.43459 16.0761 8.61732C16.0004 8.80004 15.9806 9.00111 16.0192 9.19509C16.0578 9.38907 16.153 9.56725 16.2929 9.70711C16.4327 9.84696 16.6109 9.9422 16.8049 9.98079C16.9989 10.0194 17.2 9.99957 17.3827 9.92388C17.5654 9.84819 17.7216 9.72002 17.8315 9.55557C17.9414 9.39112 18 9.19778 18 9C18 8.73478 17.8946 8.48043 17.7071 8.29289C17.5196 8.10536 17.2652 8 17 8Z" />
</symbol><symbol viewBox="0 0 24 24" id="sports-pingpong">
<path d="M20.7104 16.1L19.0704 14.46C18.9269 14.3268 18.8285 14.1521 18.789 13.9603C18.7496 13.7684 18.7711 13.5691 18.8504 13.39C19.1992 12.6411 19.3833 11.8261 19.3904 11C19.3951 10.9669 19.3951 10.9332 19.3904 10.9C19.3939 9.70344 19.0233 8.53567 18.3304 7.56004C16.9915 5.68881 15.2171 4.17177 13.1604 3.14004C11.8559 2.50141 10.3849 2.28441 8.9515 2.51913C7.51808 2.75386 6.19318 3.42867 5.16043 4.45004L4.49043 5.12004C3.45831 6.15671 2.7769 7.49068 2.54194 8.93455C2.30698 10.3784 2.53026 11.8596 3.18043 13.17L3.28043 13.34C2.74677 13.8937 2.44607 14.6311 2.44043 15.4C2.4444 15.9307 2.58904 16.4507 2.85959 16.9072C3.13014 17.3637 3.51692 17.7402 3.98049 17.9984C4.44406 18.2567 4.96781 18.3873 5.49834 18.377C6.02888 18.3668 6.54719 18.216 7.00043 17.94C7.18043 18.08 7.34043 18.23 7.52043 18.36C7.89894 18.6232 8.30876 18.8382 8.74043 19H8.83043C9.01043 19.07 9.20043 19.13 9.40043 19.19H9.55043C9.86164 19.27 10.1797 19.3202 10.5004 19.34H10.7804H10.9004H11.1204C11.3304 19.34 11.5304 19.34 11.7404 19.28H11.9104C12.4021 19.1956 12.8799 19.0442 13.3304 18.83C13.51 18.7577 13.7066 18.7391 13.8966 18.7764C14.0865 18.8136 14.2615 18.9052 14.4004 19.04L15.8604 20.5C16.4939 21.1357 17.353 21.4952 18.2504 21.5C19.0032 21.492 19.7222 21.1864 20.2504 20.65L20.6304 20.27C21.182 19.7211 21.4987 18.9793 21.5136 18.2012C21.5285 17.4232 21.2405 16.6698 20.7104 16.1ZM5.41043 16.42C5.21265 16.42 5.01931 16.3614 4.85486 16.2515C4.69041 16.1416 4.56224 15.9855 4.48655 15.8027C4.41086 15.62 4.39106 15.4189 4.42964 15.225C4.46823 15.031 4.56347 14.8528 4.70332 14.7129C4.84318 14.5731 5.02136 14.4778 5.21534 14.4393C5.40932 14.4007 5.61039 14.4205 5.79311 14.4962C5.97584 14.5718 6.13202 14.7 6.2419 14.8645C6.35178 15.0289 6.41043 15.2223 6.41043 15.42C6.41043 15.6853 6.30507 15.9396 6.11754 16.1271C5.93 16.3147 5.67565 16.42 5.41043 16.42ZM8.51043 16.56L8.25043 16.36C8.35456 16.0575 8.4086 15.74 8.41043 15.42C8.41043 14.6244 8.09436 13.8613 7.53175 13.2987C6.96914 12.7361 6.20608 12.42 5.41043 12.42C5.28043 12.42 5.16043 12.42 5.03043 12.42L4.94043 12.26C4.47531 11.3246 4.31488 10.2669 4.48169 9.23564C4.64849 8.20433 5.13414 7.25118 5.87043 6.51004L6.54043 5.84004C7.29108 5.12059 8.24735 4.65305 9.27615 4.50249C10.305 4.35194 11.3551 4.52585 12.2804 5.00004C13.9602 5.84026 15.4194 7.06305 16.5404 8.57004L8.51043 16.56ZM19.2904 18.93L18.9204 19.31C18.5004 19.73 17.8504 19.65 17.3104 19.11L15.8504 17.66C15.4205 17.2329 14.8712 16.946 14.275 16.8371C13.6788 16.7282 13.0636 16.8024 12.5104 17.05C12.1952 17.2045 11.8578 17.3091 11.5104 17.36C11.3193 17.3965 11.125 17.4133 10.9304 17.41H10.5904H10.4904L17.3604 10.54C17.4304 11.2252 17.3129 11.9165 17.0204 12.54C16.7728 13.0932 16.6986 13.7084 16.8075 14.3046C16.9164 14.9008 17.2033 15.4501 17.6304 15.88L19.2704 17.53C19.4564 17.7143 19.5626 17.9642 19.5663 18.226C19.5701 18.4877 19.471 18.7405 19.2904 18.93Z" />
</symbol><symbol viewBox="0 0 24 24" id="sports-tennis-ball">
<path d="M11.9996 2C10.06 2.00369 8.16344 2.57131 6.54079 3.63374C4.91814 4.69617 3.63946 6.20754 2.8605 7.98377C2.08155 9.76 1.83594 11.7244 2.15359 13.6378C2.47124 15.5511 3.33844 17.3308 4.64956 18.76L4.73956 18.86C5.67401 19.8465 6.79972 20.6322 8.04795 21.1692C9.29617 21.7061 10.6407 21.9831 11.9996 21.9831C13.3584 21.9831 14.7029 21.7061 15.9512 21.1692C17.1994 20.6322 18.3251 19.8465 19.2596 18.86L19.3496 18.76C20.6607 17.3308 21.5279 15.5511 21.8455 13.6378C22.1632 11.7244 21.9176 9.76 21.1386 7.98377C20.3597 6.20754 19.081 4.69617 17.4583 3.63374C15.8357 2.57131 13.9391 2.00369 11.9996 2ZM5.60956 16.79C4.56486 15.4116 3.99943 13.7295 3.99943 12C3.99943 10.2705 4.56486 8.58836 5.60956 7.21C6.35094 7.76925 6.95239 8.49297 7.36654 9.32416C7.7807 10.1554 7.99627 11.0713 7.99627 12C7.99627 12.9287 7.7807 13.8446 7.36654 14.6758C6.95239 15.507 6.35094 16.2307 5.60956 16.79ZM11.9996 20C10.1789 20.003 8.41285 19.3779 6.99956 18.23C7.93032 17.4802 8.68125 16.5314 9.19717 15.4533C9.71309 14.3752 9.98089 13.1952 9.98089 12C9.98089 10.8048 9.71309 9.6248 9.19717 8.5467C8.68125 7.46859 7.93032 6.51978 6.99956 5.77C8.41458 4.62532 10.1795 4.00082 11.9996 4.00082C13.8196 4.00082 15.5845 4.62532 16.9996 5.77C16.0688 6.51978 15.3179 7.46859 14.802 8.5467C14.286 9.6248 14.0182 10.8048 14.0182 12C14.0182 13.1952 14.286 14.3752 14.802 15.4533C15.3179 16.5314 16.0688 17.4802 16.9996 18.23C15.5863 19.3779 13.8203 20.003 11.9996 20ZM18.3896 16.79C17.6482 16.2307 17.0467 15.507 16.6326 14.6758C16.2184 13.8446 16.0029 12.9287 16.0029 12C16.0029 11.0713 16.2184 10.1554 16.6326 9.32416C17.0467 8.49297 17.6482 7.76925 18.3896 7.21C19.4343 8.58836 19.9997 10.2705 19.9997 12C19.9997 13.7295 19.4343 15.4116 18.3896 16.79Z" />
</symbol><symbol viewBox="0 0 24 24" id="sports-three-dice">
<path d="M12 11C11.8022 11 11.6089 11.0586 11.4444 11.1685C11.28 11.2784 11.1518 11.4346 11.0761 11.6173C11.0004 11.8 10.9806 12.0011 11.0192 12.1951C11.0578 12.3891 11.153 12.5673 11.2929 12.7071C11.4327 12.847 11.6109 12.9422 11.8049 12.9808C11.9989 13.0194 12.2 12.9996 12.3827 12.9239C12.5654 12.8482 12.7216 12.72 12.8315 12.5556C12.9414 12.3911 13 12.1978 13 12C13 11.7348 12.8946 11.4804 12.7071 11.2929C12.5196 11.1054 12.2652 11 12 11ZM8 7C7.80222 7 7.60888 7.05865 7.44443 7.16853C7.27998 7.27841 7.15181 7.43459 7.07612 7.61732C7.00043 7.80004 6.98063 8.00111 7.01921 8.19509C7.0578 8.38907 7.15304 8.56725 7.29289 8.70711C7.43275 8.84696 7.61093 8.9422 7.80491 8.98079C7.99889 9.01937 8.19996 8.99957 8.38268 8.92388C8.56541 8.84819 8.72159 8.72002 8.83147 8.55557C8.94135 8.39112 9 8.19778 9 8C9 7.73478 8.89464 7.48043 8.70711 7.29289C8.51957 7.10536 8.26522 7 8 7ZM17 2H7C5.67392 2 4.40215 2.52678 3.46447 3.46447C2.52678 4.40215 2 5.67392 2 7V17C2 18.3261 2.52678 19.5979 3.46447 20.5355C4.40215 21.4732 5.67392 22 7 22H17C18.3261 22 19.5979 21.4732 20.5355 20.5355C21.4732 19.5979 22 18.3261 22 17V7C22 5.67392 21.4732 4.40215 20.5355 3.46447C19.5979 2.52678 18.3261 2 17 2ZM20 17C20 17.7956 19.6839 18.5587 19.1213 19.1213C18.5587 19.6839 17.7956 20 17 20H7C6.20435 20 5.44129 19.6839 4.87868 19.1213C4.31607 18.5587 4 17.7956 4 17V7C4 6.20435 4.31607 5.44129 4.87868 4.87868C5.44129 4.31607 6.20435 4 7 4H17C17.7956 4 18.5587 4.31607 19.1213 4.87868C19.6839 5.44129 20 6.20435 20 7V17ZM16 15C15.8022 15 15.6089 15.0586 15.4444 15.1685C15.28 15.2784 15.1518 15.4346 15.0761 15.6173C15.0004 15.8 14.9806 16.0011 15.0192 16.1951C15.0578 16.3891 15.153 16.5673 15.2929 16.7071C15.4327 16.847 15.6109 16.9422 15.8049 16.9808C15.9989 17.0194 16.2 16.9996 16.3827 16.9239C16.5654 16.8482 16.7216 16.72 16.8315 16.5556C16.9414 16.3911 17 16.1978 17 16C17 15.7348 16.8946 15.4804 16.7071 15.2929C16.5196 15.1054 16.2652 15 16 15Z" />
</symbol></defs></svg>