<svg xmlns="http://www.w3.org/2000/svg" xmlns:xlink="http://www.w3.org/1999/xlink"><defs><symbol viewBox="0 0 24 24" id="shapes-bullet-1">
<circle cx="12" cy="12" r="2" />
</symbol><symbol viewBox="0 0 24 24" id="shapes-bullet-2">
<circle cx="12" cy="12" r="3" />
</symbol><symbol viewBox="0 0 24 24" id="shapes-bullet-3">
<circle cx="12" cy="12" r="4" />
</symbol><symbol viewBox="0 0 24 24" id="shapes-bullet-4">
<circle cx="12" cy="12" r="5" />
</symbol><symbol viewBox="0 0 24 24" id="shapes-bullet-5">
<circle cx="12" cy="12" r="6" />
</symbol><symbol viewBox="0 0 24 24" id="shapes-heart">
<path d="M20.1603 5.00004C19.1002 3.93725 17.6951 3.28858 16.1986 3.17121C14.7021 3.05384 13.213 3.47551 12.0003 4.36004C10.7279 3.41368 9.14427 2.98455 7.5682 3.15908C5.99212 3.33361 4.54072 4.09882 3.50625 5.30063C2.47178 6.50244 1.9311 8.05156 1.99308 9.63606C2.05506 11.2206 2.71509 12.7227 3.84028 13.84L10.0503 20.06C10.5703 20.5718 11.2707 20.8587 12.0003 20.8587C12.7299 20.8587 13.4303 20.5718 13.9503 20.06L20.1603 13.84C21.3279 12.6653 21.9832 11.0763 21.9832 9.42004C21.9832 7.76377 21.3279 6.17478 20.1603 5.00004ZM18.7503 12.46L12.5403 18.67C12.4696 18.7414 12.3855 18.798 12.2928 18.8367C12.2001 18.8753 12.1007 18.8953 12.0003 18.8953C11.8999 18.8953 11.8004 18.8753 11.7077 18.8367C11.615 18.798 11.5309 18.7414 11.4603 18.67L5.25028 12.43C4.46603 11.6284 4.02689 10.5515 4.02689 9.43004C4.02689 8.30858 4.46603 7.2317 5.25028 6.43004C6.04943 5.64103 7.12725 5.19861 8.25028 5.19861C9.3733 5.19861 10.4511 5.64103 11.2503 6.43004C11.3432 6.52377 11.4538 6.59817 11.5757 6.64893C11.6976 6.6997 11.8283 6.72584 11.9603 6.72584C12.0923 6.72584 12.223 6.6997 12.3449 6.64893C12.4667 6.59817 12.5773 6.52377 12.6703 6.43004C13.4694 5.64103 14.5472 5.19861 15.6703 5.19861C16.7933 5.19861 17.8711 5.64103 18.6703 6.43004C19.4653 7.22119 19.9189 8.29223 19.9338 9.41373C19.9488 10.5352 19.5239 11.618 18.7503 12.43V12.46Z" />
</symbol><symbol viewBox="0 0 24 24" id="shapes-love">
<path d="M20.1603 4.61006C19.0986 3.54806 17.691 2.90238 16.1935 2.79044C14.696 2.67849 13.2081 3.10772 12.0003 4.00006C10.7279 3.0537 9.14427 2.62457 7.5682 2.7991C5.99212 2.97362 4.54072 3.73884 3.50625 4.94064C2.47178 6.14245 1.9311 7.69158 1.99308 9.27607C2.05506 10.8606 2.71509 12.3627 3.84028 13.4801L11.2903 20.9301C11.3832 21.0238 11.4938 21.0982 11.6157 21.1489C11.7376 21.1997 11.8683 21.2259 12.0003 21.2259C12.1323 21.2259 12.263 21.1997 12.3849 21.1489C12.5067 21.0982 12.6173 21.0238 12.7103 20.9301L20.1603 13.4801C20.7429 12.8978 21.2051 12.2064 21.5205 11.4454C21.8358 10.6844 21.9982 9.86879 21.9982 9.04506C21.9982 8.22133 21.8358 7.40567 21.5205 6.64469C21.2051 5.88371 20.7429 5.19233 20.1603 4.61006ZM18.7503 12.0701L12.0003 18.8101L5.25028 12.0701C4.65545 11.4728 4.25025 10.7131 4.0855 9.8864C3.92076 9.05969 4.00381 8.20274 4.32423 7.42305C4.64465 6.64336 5.18817 5.97565 5.88662 5.50368C6.58507 5.03171 7.40734 4.7765 8.25028 4.77006C9.37639 4.77282 10.4554 5.22239 11.2503 6.02006C11.3432 6.11379 11.4538 6.18818 11.5757 6.23895C11.6976 6.28972 11.8283 6.31586 11.9603 6.31586C12.0923 6.31586 12.223 6.28972 12.3449 6.23895C12.4667 6.18818 12.5773 6.11379 12.6703 6.02006C13.4886 5.31094 14.5458 4.9392 15.6278 4.98008C16.7099 5.02096 17.736 5.47141 18.4985 6.24025C19.2609 7.00909 19.7029 8.0389 19.7348 9.12125C19.7667 10.2036 19.3862 11.2576 18.6703 12.0701H18.7503Z" />
</symbol><symbol viewBox="0 0 24 24" id="shapes-shape">
<path d="M21.71 7.57L16.44 2.29C16.2484 2.10727 15.9948 2.00368 15.73 2H8.27C8.00523 2.00368 7.75163 2.10727 7.56 2.29L2.29 7.57C2.10526 7.75626 2.0011 8.00766 2 8.27V15.73C2.0011 15.9923 2.10526 16.2437 2.29 16.43L7.56 21.71C7.75163 21.8927 8.00523 21.9963 8.27 22H15.73C15.9948 21.9963 16.2484 21.8927 16.44 21.71L21.71 16.43C21.8947 16.2437 21.9989 15.9923 22 15.73V8.27C21.9989 8.00766 21.8947 7.75626 21.71 7.57ZM20 15.31L15.31 20H8.69L4 15.31V8.69L8.69 4H15.31L20 8.69V15.31Z" />
</symbol><symbol viewBox="0 0 24 24" id="shapes-shape-1">
<path d="M21.8701 19.29L12.8701 3.70995C12.7829 3.55605 12.6564 3.42805 12.5035 3.33899C12.3507 3.24993 12.177 3.203 12.0001 3.203C11.8232 3.203 11.6494 3.24993 11.4966 3.33899C11.3438 3.42805 11.2173 3.55605 11.1301 3.70995L2.13007 19.29C2.0423 19.442 1.99609 19.6144 1.99609 19.79C1.99609 19.9655 2.0423 20.1379 2.13007 20.29C2.21817 20.4426 2.34504 20.5692 2.49781 20.657C2.65059 20.7448 2.82386 20.7907 3.00007 20.79H21.0001C21.1763 20.7907 21.3495 20.7448 21.5023 20.657C21.6551 20.5692 21.782 20.4426 21.8701 20.29C21.9578 20.1379 22.004 19.9655 22.004 19.79C22.004 19.6144 21.9578 19.442 21.8701 19.29ZM4.73007 18.79L12.0001 6.20995L19.2701 18.79H4.73007Z" />
</symbol><symbol viewBox="0 0 24 24" id="shapes-shape-2">
<path d="M17 2H7C5.67392 2 4.40215 2.52678 3.46447 3.46447C2.52678 4.40215 2 5.67392 2 7V17C2 18.3261 2.52678 19.5979 3.46447 20.5355C4.40215 21.4732 5.67392 22 7 22H17C18.3261 22 19.5979 21.4732 20.5355 20.5355C21.4732 19.5979 22 18.3261 22 17V7C22 5.67392 21.4732 4.40215 20.5355 3.46447C19.5979 2.52678 18.3261 2 17 2ZM20 17C20 17.7956 19.6839 18.5587 19.1213 19.1213C18.5587 19.6839 17.7956 20 17 20H7C6.20435 20 5.44129 19.6839 4.87868 19.1213C4.31607 18.5587 4 17.7956 4 17V7C4 6.20435 4.31607 5.44129 4.87868 4.87868C5.44129 4.31607 6.20435 4 7 4H17C17.7956 4 18.5587 4.31607 19.1213 4.87868C19.6839 5.44129 20 6.20435 20 7V17Z" />
</symbol><symbol viewBox="0 0 24 24" id="shapes-shape-3">
<path d="M21 2H3C2.73478 2 2.48043 2.10536 2.29289 2.29289C2.10536 2.48043 2 2.73478 2 3V21C2 21.2652 2.10536 21.5196 2.29289 21.7071C2.48043 21.8946 2.73478 22 3 22H21C21.2652 22 21.5196 21.8946 21.7071 21.7071C21.8946 21.5196 22 21.2652 22 21V3C22 2.73478 21.8946 2.48043 21.7071 2.29289C21.5196 2.10536 21.2652 2 21 2ZM20 20H4V4H20V20Z" />
</symbol><symbol viewBox="0 0 24 24" id="shapes-shape-4">
<path d="M12 2C10.0222 2 8.08879 2.58649 6.4443 3.6853C4.79981 4.78412 3.51809 6.3459 2.76121 8.17317C2.00433 10.0004 1.8063 12.0111 2.19215 13.9509C2.578 15.8907 3.53041 17.6725 4.92894 19.0711C6.32746 20.4696 8.10929 21.422 10.0491 21.8079C11.9889 22.1937 13.9996 21.9957 15.8268 21.2388C17.6541 20.4819 19.2159 19.2002 20.3147 17.5557C21.4135 15.9112 22 13.9778 22 12C22 10.6868 21.7413 9.38642 21.2388 8.17317C20.7363 6.95991 19.9997 5.85752 19.0711 4.92893C18.1425 4.00035 17.0401 3.26375 15.8268 2.7612C14.6136 2.25866 13.3132 2 12 2ZM12 20C10.4178 20 8.87104 19.5308 7.55544 18.6518C6.23985 17.7727 5.21447 16.5233 4.60897 15.0615C4.00347 13.5997 3.84504 11.9911 4.15372 10.4393C4.4624 8.88743 5.22433 7.46197 6.34315 6.34315C7.46197 5.22433 8.88743 4.4624 10.4393 4.15372C11.9911 3.84504 13.5997 4.00346 15.0615 4.60896C16.5233 5.21447 17.7727 6.23984 18.6518 7.55544C19.5308 8.87103 20 10.4177 20 12C20 14.1217 19.1572 16.1566 17.6569 17.6569C16.1566 19.1571 14.1217 20 12 20Z" />
</symbol><symbol viewBox="0 0 24 24" id="shapes-shape-5">
<path d="M21.8701 11.5L17.3701 3.70997C17.282 3.55736 17.1551 3.43075 17.0023 3.34295C16.8495 3.25514 16.6763 3.20927 16.5001 3.20997H7.50007C7.32386 3.20927 7.15059 3.25514 6.99781 3.34295C6.84504 3.43075 6.71817 3.55736 6.63007 3.70997L2.13007 11.5C2.0423 11.652 1.99609 11.8244 1.99609 12C1.99609 12.1755 2.0423 12.3479 2.13007 12.5L6.63007 20.29C6.71817 20.4426 6.84504 20.5692 6.99781 20.657C7.15059 20.7448 7.32386 20.7907 7.50007 20.79H16.5001C16.6763 20.7907 16.8495 20.7448 17.0023 20.657C17.1551 20.5692 17.282 20.4426 17.3701 20.29L21.8701 12.5C21.9578 12.3479 22.004 12.1755 22.004 12C22.004 11.8244 21.9578 11.652 21.8701 11.5ZM15.8701 18.79H8.08007L4.15007 12L8.08007 5.20997H15.9201L19.8501 12L15.8701 18.79Z" />
</symbol><symbol viewBox="0 0 24 24" id="shapes-shape-6">
<path d="M21.5901 9.16997L12.5901 2.62997C12.4188 2.50483 12.2122 2.43738 12.0001 2.43738C11.788 2.43738 11.5814 2.50483 11.4101 2.62997L2.41009 9.16997C2.23942 9.29466 2.11265 9.47021 2.04797 9.67144C1.98329 9.87266 1.98404 10.0892 2.05009 10.29L5.49009 20.87C5.5579 21.0788 5.69256 21.2595 5.87329 21.3843C6.05402 21.509 6.27078 21.5707 6.49009 21.56H17.5601C17.7794 21.5707 17.9962 21.509 18.1769 21.3843C18.3576 21.2595 18.4923 21.0788 18.5601 20.87L22.0001 10.29C22.0611 10.084 22.0542 9.86388 21.9803 9.66216C21.9065 9.46044 21.7697 9.28786 21.5901 9.16997ZM16.8401 19.56H7.16009L4.16009 10.36L12.0001 4.67997L19.8201 10.36L16.8401 19.56Z" />
</symbol><symbol viewBox="0 0 24 24" id="shapes-star-shape">
<path d="M22.0005 9.67002C21.9373 9.48711 21.8224 9.32645 21.6698 9.20753C21.5171 9.0886 21.3333 9.01652 21.1405 9.00002L15.4505 8.17002L12.9005 3.00002C12.8186 2.83095 12.6907 2.68837 12.5316 2.5886C12.3724 2.48883 12.1883 2.43591 12.0005 2.43591C11.8126 2.43591 11.6286 2.48883 11.4694 2.5886C11.3102 2.68837 11.1824 2.83095 11.1005 3.00002L8.55047 8.16002L2.86047 9.00002C2.67539 9.02633 2.50139 9.10399 2.35822 9.22418C2.21504 9.34438 2.10843 9.5023 2.05047 9.68002C1.99741 9.8537 1.99265 10.0385 2.03669 10.2147C2.08074 10.3909 2.17192 10.5517 2.30047 10.68L6.43047 14.68L5.43047 20.36C5.39477 20.5475 5.41346 20.7413 5.48434 20.9185C5.55522 21.0957 5.67532 21.2489 5.83047 21.36C5.98168 21.4681 6.16004 21.5319 6.34551 21.5443C6.53099 21.5567 6.71624 21.5171 6.88047 21.43L12.0005 18.76L17.1005 21.44C17.2408 21.5192 17.3993 21.5606 17.5605 21.56C17.7723 21.5608 17.9789 21.4942 18.1505 21.37C18.3056 21.2589 18.4257 21.1057 18.4966 20.9285C18.5675 20.7513 18.5862 20.5575 18.5505 20.37L17.5505 14.69L21.6805 10.69C21.8248 10.5677 21.9316 10.4069 21.9882 10.2264C22.0448 10.0458 22.0491 9.8529 22.0005 9.67002ZM15.8505 13.67C15.7332 13.7835 15.6454 13.9239 15.5949 14.079C15.5444 14.2341 15.5325 14.3993 15.5605 14.56L16.2805 18.75L12.5205 16.75C12.3758 16.673 12.2144 16.6327 12.0505 16.6327C11.8865 16.6327 11.7251 16.673 11.5805 16.75L7.82047 18.75L8.54047 14.56C8.5684 14.3993 8.55658 14.2341 8.50603 14.079C8.45548 13.9239 8.36774 13.7835 8.25047 13.67L5.25047 10.67L9.46047 10.06C9.62246 10.0375 9.77646 9.97556 9.90896 9.87967C10.0415 9.78379 10.1484 9.65686 10.2205 9.51002L12.0005 5.70002L13.8805 9.52002C13.9525 9.66686 14.0595 9.79379 14.192 9.88968C14.3245 9.98556 14.4785 10.0475 14.6405 10.07L18.8505 10.68L15.8505 13.67Z" />
</symbol></defs></svg>