<svg xmlns="http://www.w3.org/2000/svg" xmlns:xlink="http://www.w3.org/1999/xlink"><defs><symbol viewBox="0 0 24 24" id="device-chip">
<path d="M14 9H10C9.73478 9 9.48043 9.10536 9.29289 9.29289C9.10536 9.48043 9 9.73478 9 10V14C9 14.2652 9.10536 14.5196 9.29289 14.7071C9.48043 14.8946 9.73478 15 10 15H14C14.2652 15 14.5196 14.8946 14.7071 14.7071C14.8946 14.5196 15 14.2652 15 14V10C15 9.73478 14.8946 9.48043 14.7071 9.29289C14.5196 9.10536 14.2652 9 14 9ZM13 13H11V11H13V13ZM21 13C21.2652 13 21.5196 12.8946 21.7071 12.7071C21.8946 12.5196 22 12.2652 22 12C22 11.7348 21.8946 11.4804 21.7071 11.2929C21.5196 11.1054 21.2652 11 21 11H19V9H21C21.2652 9 21.5196 8.89464 21.7071 8.70711C21.8946 8.51957 22 8.26522 22 8C22 7.73478 21.8946 7.48043 21.7071 7.29289C21.5196 7.10536 21.2652 7 21 7H18.82C18.6707 6.5806 18.4299 6.19969 18.1151 5.8849C17.8003 5.57011 17.4194 5.32932 17 5.18V3C17 2.73478 16.8946 2.48043 16.7071 2.29289C16.5196 2.10536 16.2652 2 16 2C15.7348 2 15.4804 2.10536 15.2929 2.29289C15.1054 2.48043 15 2.73478 15 3V5H13V3C13 2.73478 12.8946 2.48043 12.7071 2.29289C12.5196 2.10536 12.2652 2 12 2C11.7348 2 11.4804 2.10536 11.2929 2.29289C11.1054 2.48043 11 2.73478 11 3V5H9V3C9 2.73478 8.89464 2.48043 8.70711 2.29289C8.51957 2.10536 8.26522 2 8 2C7.73478 2 7.48043 2.10536 7.29289 2.29289C7.10536 2.48043 7 2.73478 7 3V5.18C6.5806 5.32932 6.19969 5.57011 5.8849 5.8849C5.57011 6.19969 5.32932 6.5806 5.18 7H3C2.73478 7 2.48043 7.10536 2.29289 7.29289C2.10536 7.48043 2 7.73478 2 8C2 8.26522 2.10536 8.51957 2.29289 8.70711C2.48043 8.89464 2.73478 9 3 9H5V11H3C2.73478 11 2.48043 11.1054 2.29289 11.2929C2.10536 11.4804 2 11.7348 2 12C2 12.2652 2.10536 12.5196 2.29289 12.7071C2.48043 12.8946 2.73478 13 3 13H5V15H3C2.73478 15 2.48043 15.1054 2.29289 15.2929C2.10536 15.4804 2 15.7348 2 16C2 16.2652 2.10536 16.5196 2.29289 16.7071C2.48043 16.8946 2.73478 17 3 17H5.18C5.32932 17.4194 5.57011 17.8003 5.8849 18.1151C6.19969 18.4299 6.5806 18.6707 7 18.82V21C7 21.2652 7.10536 21.5196 7.29289 21.7071C7.48043 21.8946 7.73478 22 8 22C8.26522 22 8.51957 21.8946 8.70711 21.7071C8.89464 21.5196 9 21.2652 9 21V19H11V21C11 21.2652 11.1054 21.5196 11.2929 21.7071C11.4804 21.8946 11.7348 22 12 22C12.2652 22 12.5196 21.8946 12.7071 21.7071C12.8946 21.5196 13 21.2652 13 21V19H15V21C15 21.2652 15.1054 21.5196 15.2929 21.7071C15.4804 21.8946 15.7348 22 16 22C16.2652 22 16.5196 21.8946 16.7071 21.7071C16.8946 21.5196 17 21.2652 17 21V18.82C17.4194 18.6707 17.8003 18.4299 18.1151 18.1151C18.4299 17.8003 18.6707 17.4194 18.82 17H21C21.2652 17 21.5196 16.8946 21.7071 16.7071C21.8946 16.5196 22 16.2652 22 16C22 15.7348 21.8946 15.4804 21.7071 15.2929C21.5196 15.1054 21.2652 15 21 15H19V13H21ZM17 16C17 16.2652 16.8946 16.5196 16.7071 16.7071C16.5196 16.8946 16.2652 17 16 17H8C7.73478 17 7.48043 16.8946 7.29289 16.7071C7.10536 16.5196 7 16.2652 7 16V8C7 7.73478 7.10536 7.48043 7.29289 7.29289C7.48043 7.10536 7.73478 7 8 7H16C16.2652 7 16.5196 7.10536 16.7071 7.29289C16.8946 7.48043 17 7.73478 17 8V16Z" />
</symbol><symbol viewBox="0 0 24 24" id="device-circuit">
<path d="M10 13C9.80222 13 9.60888 13.0586 9.44443 13.1685C9.27998 13.2784 9.15181 13.4346 9.07612 13.6173C9.00043 13.8 8.98063 14.0011 9.01921 14.1951C9.0578 14.3891 9.15304 14.5673 9.29289 14.7071C9.43275 14.847 9.61093 14.9422 9.80491 14.9808C9.99889 15.0194 10.2 14.9996 10.3827 14.9239C10.5654 14.8482 10.7216 14.72 10.8315 14.5556C10.9414 14.3911 11 14.1978 11 14C11 13.7348 10.8946 13.4804 10.7071 13.2929C10.5196 13.1054 10.2652 13 10 13ZM10 9C9.80222 9 9.60888 9.05865 9.44443 9.16853C9.27998 9.27841 9.15181 9.43459 9.07612 9.61732C9.00043 9.80004 8.98063 10.0011 9.01921 10.1951C9.0578 10.3891 9.15304 10.5673 9.29289 10.7071C9.43275 10.847 9.61093 10.9422 9.80491 10.9808C9.99889 11.0194 10.2 10.9996 10.3827 10.9239C10.5654 10.8482 10.7216 10.72 10.8315 10.5556C10.9414 10.3911 11 10.1978 11 10C11 9.73478 10.8946 9.48043 10.7071 9.29289C10.5196 9.10536 10.2652 9 10 9ZM14 9C13.8022 9 13.6089 9.05865 13.4444 9.16853C13.28 9.27841 13.1518 9.43459 13.0761 9.61732C13.0004 9.80004 12.9806 10.0011 13.0192 10.1951C13.0578 10.3891 13.153 10.5673 13.2929 10.7071C13.4327 10.847 13.6109 10.9422 13.8049 10.9808C13.9989 11.0194 14.2 10.9996 14.3827 10.9239C14.5654 10.8482 14.7216 10.72 14.8315 10.5556C14.9414 10.3911 15 10.1978 15 10C15 9.73478 14.8946 9.48043 14.7071 9.29289C14.5196 9.10536 14.2652 9 14 9ZM21 13C21.2652 13 21.5196 12.8946 21.7071 12.7071C21.8946 12.5196 22 12.2652 22 12C22 11.7348 21.8946 11.4804 21.7071 11.2929C21.5196 11.1054 21.2652 11 21 11H19V9H21C21.2652 9 21.5196 8.89464 21.7071 8.70711C21.8946 8.51957 22 8.26522 22 8C22 7.73478 21.8946 7.48043 21.7071 7.29289C21.5196 7.10536 21.2652 7 21 7H18.82C18.6707 6.5806 18.4299 6.19969 18.1151 5.8849C17.8003 5.57011 17.4194 5.32932 17 5.18V3C17 2.73478 16.8946 2.48043 16.7071 2.29289C16.5196 2.10536 16.2652 2 16 2C15.7348 2 15.4804 2.10536 15.2929 2.29289C15.1054 2.48043 15 2.73478 15 3V5H13V3C13 2.73478 12.8946 2.48043 12.7071 2.29289C12.5196 2.10536 12.2652 2 12 2C11.7348 2 11.4804 2.10536 11.2929 2.29289C11.1054 2.48043 11 2.73478 11 3V5H9V3C9 2.73478 8.89464 2.48043 8.70711 2.29289C8.51957 2.10536 8.26522 2 8 2C7.73478 2 7.48043 2.10536 7.29289 2.29289C7.10536 2.48043 7 2.73478 7 3V5.18C6.5806 5.32932 6.19969 5.57011 5.8849 5.8849C5.57011 6.19969 5.32932 6.5806 5.18 7H3C2.73478 7 2.48043 7.10536 2.29289 7.29289C2.10536 7.48043 2 7.73478 2 8C2 8.26522 2.10536 8.51957 2.29289 8.70711C2.48043 8.89464 2.73478 9 3 9H5V11H3C2.73478 11 2.48043 11.1054 2.29289 11.2929C2.10536 11.4804 2 11.7348 2 12C2 12.2652 2.10536 12.5196 2.29289 12.7071C2.48043 12.8946 2.73478 13 3 13H5V15H3C2.73478 15 2.48043 15.1054 2.29289 15.2929C2.10536 15.4804 2 15.7348 2 16C2 16.2652 2.10536 16.5196 2.29289 16.7071C2.48043 16.8946 2.73478 17 3 17H5.18C5.32932 17.4194 5.57011 17.8003 5.8849 18.1151C6.19969 18.4299 6.5806 18.6707 7 18.82V21C7 21.2652 7.10536 21.5196 7.29289 21.7071C7.48043 21.8946 7.73478 22 8 22C8.26522 22 8.51957 21.8946 8.70711 21.7071C8.89464 21.5196 9 21.2652 9 21V19H11V21C11 21.2652 11.1054 21.5196 11.2929 21.7071C11.4804 21.8946 11.7348 22 12 22C12.2652 22 12.5196 21.8946 12.7071 21.7071C12.8946 21.5196 13 21.2652 13 21V19H15V21C15 21.2652 15.1054 21.5196 15.2929 21.7071C15.4804 21.8946 15.7348 22 16 22C16.2652 22 16.5196 21.8946 16.7071 21.7071C16.8946 21.5196 17 21.2652 17 21V18.82C17.4194 18.6707 17.8003 18.4299 18.1151 18.1151C18.4299 17.8003 18.6707 17.4194 18.82 17H21C21.2652 17 21.5196 16.8946 21.7071 16.7071C21.8946 16.5196 22 16.2652 22 16C22 15.7348 21.8946 15.4804 21.7071 15.2929C21.5196 15.1054 21.2652 15 21 15H19V13H21ZM17 16C17 16.2652 16.8946 16.5196 16.7071 16.7071C16.5196 16.8946 16.2652 17 16 17H8C7.73478 17 7.48043 16.8946 7.29289 16.7071C7.10536 16.5196 7 16.2652 7 16V8C7 7.73478 7.10536 7.48043 7.29289 7.29289C7.48043 7.10536 7.73478 7 8 7H16C16.2652 7 16.5196 7.10536 16.7071 7.29289C16.8946 7.48043 17 7.73478 17 8V16ZM14 13C13.8022 13 13.6089 13.0586 13.4444 13.1685C13.28 13.2784 13.1518 13.4346 13.0761 13.6173C13.0004 13.8 12.9806 14.0011 13.0192 14.1951C13.0578 14.3891 13.153 14.5673 13.2929 14.7071C13.4327 14.847 13.6109 14.9422 13.8049 14.9808C13.9989 15.0194 14.2 14.9996 14.3827 14.9239C14.5654 14.8482 14.7216 14.72 14.8315 14.5556C14.9414 14.3911 15 14.1978 15 14C15 13.7348 14.8946 13.4804 14.7071 13.2929C14.5196 13.1054 14.2652 13 14 13Z" />
</symbol><symbol viewBox="0 0 24 24" id="device-computer">
<path d="M21 14H20V7C20 6.20435 19.6839 5.44129 19.1213 4.87868C18.5587 4.31607 17.7956 4 17 4H7C6.20435 4 5.44129 4.31607 4.87868 4.87868C4.31607 5.44129 4 6.20435 4 7V14H3C2.73478 14 2.48043 14.1054 2.29289 14.2929C2.10536 14.4804 2 14.7348 2 15V17C2 17.7956 2.31607 18.5587 2.87868 19.1213C3.44129 19.6839 4.20435 20 5 20H19C19.7956 20 20.5587 19.6839 21.1213 19.1213C21.6839 18.5587 22 17.7956 22 17V15C22 14.7348 21.8946 14.4804 21.7071 14.2929C21.5196 14.1054 21.2652 14 21 14ZM6 7C6 6.73478 6.10536 6.48043 6.29289 6.29289C6.48043 6.10536 6.73478 6 7 6H17C17.2652 6 17.5196 6.10536 17.7071 6.29289C17.8946 6.48043 18 6.73478 18 7V14H6V7ZM20 17C20 17.2652 19.8946 17.5196 19.7071 17.7071C19.5196 17.8946 19.2652 18 19 18H5C4.73478 18 4.48043 17.8946 4.29289 17.7071C4.10536 17.5196 4 17.2652 4 17V16H20V17Z" />
</symbol><symbol viewBox="0 0 24 24" id="device-computer-mouse">
<path d="M12 6C11.7348 6 11.4804 6.10536 11.2929 6.29289C11.1054 6.48043 11 6.73478 11 7V9C11 9.26522 11.1054 9.51957 11.2929 9.70711C11.4804 9.89464 11.7348 10 12 10C12.2652 10 12.5196 9.89464 12.7071 9.70711C12.8946 9.51957 13 9.26522 13 9V7C13 6.73478 12.8946 6.48043 12.7071 6.29289C12.5196 6.10536 12.2652 6 12 6ZM12 2C10.1435 2 8.36301 2.7375 7.05025 4.05025C5.7375 5.36301 5 7.14348 5 9V15C5 16.8565 5.7375 18.637 7.05025 19.9497C8.36301 21.2625 10.1435 22 12 22C13.8565 22 15.637 21.2625 16.9497 19.9497C18.2625 18.637 19 16.8565 19 15V9C19 7.14348 18.2625 5.36301 16.9497 4.05025C15.637 2.7375 13.8565 2 12 2ZM17 15C17 16.3261 16.4732 17.5979 15.5355 18.5355C14.5979 19.4732 13.3261 20 12 20C10.6739 20 9.40215 19.4732 8.46447 18.5355C7.52678 17.5979 7 16.3261 7 15V9C7 7.67392 7.52678 6.40215 8.46447 5.46447C9.40215 4.52678 10.6739 4 12 4C13.3261 4 14.5979 4.52678 15.5355 5.46447C16.4732 6.40215 17 7.67392 17 9V15Z" />
</symbol><symbol viewBox="0 0 24 24" id="device-computer-mouse-1">
<path d="M12 2C10.1435 2 8.36301 2.7375 7.05025 4.05025C5.7375 5.36301 5 7.14348 5 9V15C5 16.8565 5.7375 18.637 7.05025 19.9497C8.36301 21.2625 10.1435 22 12 22C13.8565 22 15.637 21.2625 16.9497 19.9497C18.2625 18.637 19 16.8565 19 15V9C19 7.14348 18.2625 5.36301 16.9497 4.05025C15.637 2.7375 13.8565 2 12 2ZM17 15C17 16.3261 16.4732 17.5979 15.5355 18.5355C14.5979 19.4732 13.3261 20 12 20C10.6739 20 9.40215 19.4732 8.46447 18.5355C7.52678 17.5979 7 16.3261 7 15V9C6.99976 7.84735 7.39778 6.73001 8.12669 5.8371C8.8556 4.94418 9.87064 4.33053 11 4.1V12C11 12.2652 11.1054 12.5196 11.2929 12.7071C11.4804 12.8946 11.7348 13 12 13C12.2652 13 12.5196 12.8946 12.7071 12.7071C12.8946 12.5196 13 12.2652 13 12V4.1C14.1294 4.33053 15.1444 4.94418 15.8733 5.8371C16.6022 6.73001 17.0002 7.84735 17 9V15Z" />
</symbol><symbol viewBox="0 0 24 24" id="device-hard-disk">
<path d="M22 14.86V14.81C21.9879 14.6169 21.9544 14.4257 21.9 14.24L20.26 4.51C20.1428 3.80195 19.7757 3.15936 19.2253 2.69884C18.6749 2.23831 17.9776 1.99037 17.26 2H6.69C5.98097 2.00229 5.29566 2.25565 4.75565 2.71512C4.21563 3.17459 3.85581 3.81048 3.74 4.51L2.12 14.22C2.06564 14.4057 2.0321 14.5969 2.02 14.79V14.84C2 14.91 2 15 2 15V19C2 19.7956 2.31607 20.5587 2.87868 21.1213C3.44129 21.6839 4.20435 22 5 22H19C19.7956 22 20.5587 21.6839 21.1213 21.1213C21.6839 20.5587 22 19.7956 22 19V15C22 15 22 14.91 22 14.86ZM5.71 4.83C5.75048 4.5952 5.87346 4.38258 6.05679 4.23041C6.24013 4.07824 6.47177 3.99653 6.71 4H17.31C17.5482 3.99653 17.7799 4.07824 17.9632 4.23041C18.1465 4.38258 18.2695 4.5952 18.31 4.83L19.51 12.05C19.342 12.0168 19.1712 12 19 12H5C4.83546 12.0013 4.67141 12.018 4.51 12.05L5.71 4.83ZM20 19C20 19.2652 19.8946 19.5196 19.7071 19.7071C19.5196 19.8946 19.2652 20 19 20H5C4.73478 20 4.48043 19.8946 4.29289 19.7071C4.10536 19.5196 4 19.2652 4 19V15.08L4.08 14.62C4.15502 14.4374 4.28242 14.281 4.44614 14.1707C4.60986 14.0604 4.80257 14.001 5 14H19C19.1974 14.001 19.3901 14.0604 19.5539 14.1707C19.7176 14.281 19.845 14.4374 19.92 14.62L20 15.08V19ZM17 16C16.8022 16 16.6089 16.0586 16.4444 16.1685C16.28 16.2784 16.1518 16.4346 16.0761 16.6173C16.0004 16.8 15.9806 17.0011 16.0192 17.1951C16.0578 17.3891 16.153 17.5673 16.2929 17.7071C16.4327 17.847 16.6109 17.9422 16.8049 17.9808C16.9989 18.0194 17.2 17.9996 17.3827 17.9239C17.5654 17.8482 17.7216 17.72 17.8315 17.5556C17.9414 17.3911 18 17.1978 18 17C18 16.7348 17.8946 16.4804 17.7071 16.2929C17.5196 16.1054 17.2652 16 17 16Z" />
</symbol><symbol viewBox="0 0 24 24" id="device-mobile">
<path d="M16 2H8C7.20435 2 6.44129 2.31607 5.87868 2.87868C5.31607 3.44129 5 4.20435 5 5V19C5 19.7956 5.31607 20.5587 5.87868 21.1213C6.44129 21.6839 7.20435 22 8 22H16C16.7956 22 17.5587 21.6839 18.1213 21.1213C18.6839 20.5587 19 19.7956 19 19V5C19 4.20435 18.6839 3.44129 18.1213 2.87868C17.5587 2.31607 16.7956 2 16 2ZM17 19C17 19.2652 16.8946 19.5196 16.7071 19.7071C16.5196 19.8946 16.2652 20 16 20H8C7.73478 20 7.48043 19.8946 7.29289 19.7071C7.10536 19.5196 7 19.2652 7 19V18H17V19ZM17 16H7V5C7 4.73478 7.10536 4.48043 7.29289 4.29289C7.48043 4.10536 7.73478 4 8 4H16C16.2652 4 16.5196 4.10536 16.7071 4.29289C16.8946 4.48043 17 4.73478 17 5V16Z" />
</symbol><symbol viewBox="0 0 24 24" id="device-mobile-1">
<path d="M12.71 16.29L12.56 16.17C12.5043 16.1322 12.4437 16.1019 12.38 16.08L12.2 16C12.0378 15.9661 11.8698 15.973 11.7109 16.0201C11.5521 16.0673 11.4074 16.1531 11.29 16.27C11.2017 16.3672 11.1306 16.4788 11.08 16.6C11.0043 16.7822 10.9842 16.9827 11.0223 17.1763C11.0603 17.3699 11.1547 17.5479 11.2937 17.688C11.4327 17.828 11.61 17.9238 11.8033 17.9633C11.9966 18.0028 12.1972 17.9843 12.38 17.91C12.4995 17.852 12.6105 17.778 12.71 17.69C12.8488 17.5494 12.9428 17.3708 12.9801 17.1768C13.0175 16.9828 12.9966 16.7821 12.92 16.6C12.8701 16.4844 12.7989 16.3792 12.71 16.29ZM16 2H8C7.20435 2 6.44129 2.31607 5.87868 2.87868C5.31607 3.44129 5 4.20435 5 5V19C5 19.7956 5.31607 20.5587 5.87868 21.1213C6.44129 21.6839 7.20435 22 8 22H16C16.7956 22 17.5587 21.6839 18.1213 21.1213C18.6839 20.5587 19 19.7956 19 19V5C19 4.20435 18.6839 3.44129 18.1213 2.87868C17.5587 2.31607 16.7956 2 16 2ZM17 19C17 19.2652 16.8946 19.5196 16.7071 19.7071C16.5196 19.8946 16.2652 20 16 20H8C7.73478 20 7.48043 19.8946 7.29289 19.7071C7.10536 19.5196 7 19.2652 7 19V5C7 4.73478 7.10536 4.48043 7.29289 4.29289C7.48043 4.10536 7.73478 4 8 4H16C16.2652 4 16.5196 4.10536 16.7071 4.29289C16.8946 4.48043 17 4.73478 17 5V19Z" />
</symbol><symbol viewBox="0 0 24 24" id="device-modem">
<path d="M21.48 13.13C21.4741 13.0611 21.4572 12.9936 21.43 12.93C21.4094 12.8707 21.3826 12.8137 21.35 12.76C21.3226 12.7032 21.2891 12.6495 21.25 12.6L21.09 12.47L21 12.38L6.28 3.88C6.04926 3.74739 5.7753 3.71187 5.51837 3.78126C5.26145 3.85065 5.04261 4.01926 4.91 4.25C4.77739 4.48074 4.74188 4.7547 4.81126 5.01163C4.88065 5.26855 5.04926 5.48739 5.28 5.62L16.77 12.25H3.5C3.23478 12.25 2.98043 12.3554 2.79289 12.5429C2.60536 12.7304 2.5 12.9848 2.5 13.25V17.25C2.5 18.0456 2.81607 18.8087 3.37868 19.3713C3.94129 19.9339 4.70435 20.25 5.5 20.25H18.5C19.2956 20.25 20.0587 19.9339 20.6213 19.3713C21.1839 18.8087 21.5 18.0456 21.5 17.25V13.25C21.5 13.25 21.48 13.17 21.48 13.13ZM19.48 17.25C19.48 17.5152 19.3746 17.7696 19.1871 17.9571C18.9996 18.1446 18.7452 18.25 18.48 18.25H5.5C5.23478 18.25 4.98043 18.1446 4.79289 17.9571C4.60536 17.7696 4.5 17.5152 4.5 17.25V14.25H19.5L19.48 17.25ZM16.48 17.25C16.6778 17.25 16.8711 17.1913 17.0356 17.0815C17.2 16.9716 17.3282 16.8154 17.4039 16.6327C17.4796 16.45 17.4994 16.2489 17.4608 16.0549C17.4222 15.8609 17.327 15.6827 17.1871 15.5429C17.0473 15.403 16.8691 15.3078 16.6751 15.2692C16.4811 15.2306 16.28 15.2504 16.0973 15.3261C15.9146 15.4018 15.7584 15.53 15.6485 15.6944C15.5386 15.8589 15.48 16.0522 15.48 16.25C15.48 16.383 15.5065 16.5147 15.558 16.6374C15.6095 16.76 15.6849 16.8711 15.7799 16.9643C15.8749 17.0574 15.9875 17.1306 16.1112 17.1797C16.2348 17.2288 16.367 17.2527 16.5 17.25H16.48Z" />
</symbol><symbol viewBox="0 0 24 24" id="device-modem-1">
<path d="M8.90039 17C8.70261 17 8.50927 17.0587 8.34482 17.1685C8.18037 17.2784 8.0522 17.4346 7.97651 17.6173C7.90082 17.8001 7.88102 18.0011 7.91961 18.1951C7.95819 18.3891 8.05343 18.5673 8.19328 18.7071C8.33314 18.847 8.51132 18.9422 8.7053 18.9808C8.89928 19.0194 9.10035 18.9996 9.28307 18.9239C9.4658 18.8482 9.62198 18.72 9.73186 18.5556C9.84174 18.3911 9.90039 18.1978 9.90039 18C9.90039 17.7348 9.79503 17.4804 9.6075 17.2929C9.41996 17.1054 9.16561 17 8.90039 17ZM5.90039 17C5.70261 17 5.50927 17.0587 5.34482 17.1685C5.18037 17.2784 5.0522 17.4346 4.97651 17.6173C4.90082 17.8001 4.88102 18.0011 4.91961 18.1951C4.95819 18.3891 5.05343 18.5673 5.19328 18.7071C5.33314 18.847 5.51132 18.9422 5.7053 18.9808C5.89928 19.0194 6.10035 18.9996 6.28307 18.9239C6.4658 18.8482 6.62198 18.72 6.73186 18.5556C6.84174 18.3911 6.90039 18.1978 6.90039 18C6.90039 17.7348 6.79503 17.4804 6.6075 17.2929C6.41996 17.1054 6.16561 17 5.90039 17ZM11.9004 17C11.7026 17 11.5093 17.0587 11.3448 17.1685C11.1804 17.2784 11.0522 17.4346 10.9765 17.6173C10.9008 17.8001 10.881 18.0011 10.9196 18.1951C10.9582 18.3891 11.0534 18.5673 11.1933 18.7071C11.3331 18.847 11.5113 18.9422 11.7053 18.9808C11.8993 19.0194 12.1003 18.9996 12.2831 18.9239C12.4658 18.8482 12.622 18.72 12.7319 18.5556C12.8417 18.3911 12.9004 18.1978 12.9004 18C12.9004 17.7348 12.795 17.4804 12.6075 17.2929C12.42 17.1054 12.1656 17 11.9004 17ZM15.0004 8.50001C15.0883 8.34848 15.2145 8.22269 15.3663 8.13525C15.5181 8.04781 15.6902 8.00179 15.8654 8.00179C16.0406 8.00179 16.2127 8.04781 16.3645 8.13525C16.5163 8.22269 16.6425 8.34848 16.7304 8.50001C16.8623 8.72875 17.0793 8.89602 17.3341 8.96534C17.5889 9.03465 17.8608 9.00039 18.0904 8.87001C18.2083 8.8081 18.3127 8.72325 18.3974 8.62043C18.4822 8.51761 18.5455 8.39891 18.5837 8.27128C18.6218 8.14366 18.6342 8.00969 18.6199 7.87725C18.6056 7.7448 18.5649 7.61655 18.5004 7.50001C18.2373 7.04305 17.8585 6.66349 17.4021 6.39957C16.9456 6.13564 16.4277 5.99668 15.9004 5.99668C15.3731 5.99668 14.8552 6.13564 14.3987 6.39957C13.9423 6.66349 13.5634 7.04305 13.3004 7.50001C13.216 7.72089 13.2125 7.96455 13.2907 8.18771C13.3689 8.41088 13.5236 8.59912 13.7275 8.71901C13.9313 8.83891 14.171 8.88269 14.404 8.8426C14.6371 8.80251 14.8484 8.68113 15.0004 8.50001ZM22.0004 5.50001C21.3857 4.4369 20.5022 3.5542 19.4385 2.94052C18.3748 2.32684 17.1684 2.00378 15.9404 2.00378C14.7124 2.00378 13.506 2.32684 12.4423 2.94052C11.3786 3.5542 10.4951 4.4369 9.88039 5.50001C9.81427 5.61415 9.77139 5.74024 9.7542 5.87101C9.73702 6.00179 9.74588 6.13468 9.78027 6.26202C9.81466 6.38936 9.8739 6.50864 9.95459 6.61298C10.0353 6.71733 10.1358 6.80468 10.2504 6.87001C10.388 6.94836 10.5422 6.99292 10.7004 7.00001C10.8766 7.00071 11.0499 6.95484 11.2026 6.86704C11.3554 6.77923 11.4823 6.65262 11.5704 6.50001C12.0092 5.73998 12.6404 5.10885 13.4005 4.67004C14.1606 4.23124 15.0228 4.00023 15.9004 4.00023C16.778 4.00023 17.6402 4.23124 18.4003 4.67004C19.1604 5.10885 19.7915 5.73998 20.2304 6.50001C20.2957 6.6146 20.3831 6.71513 20.4874 6.79582C20.5918 6.8765 20.711 6.93575 20.8384 6.97014C20.9657 7.00453 21.0986 7.01339 21.2294 6.9962C21.3602 6.97902 21.4863 6.93613 21.6004 6.87001C21.7175 6.80723 21.8209 6.72175 21.9046 6.61854C21.9883 6.51534 22.0506 6.39649 22.0878 6.26894C22.1251 6.14139 22.1365 6.0077 22.1215 5.87568C22.1065 5.74365 22.0653 5.61594 22.0004 5.50001ZM17.9004 14H16.9004V11C16.9004 10.7348 16.795 10.4804 16.6075 10.2929C16.42 10.1054 16.1656 10 15.9004 10C15.6352 10 15.3808 10.1054 15.1933 10.2929C15.0057 10.4804 14.9004 10.7348 14.9004 11V14H4.90039C4.10474 14 3.34168 14.3161 2.77907 14.8787C2.21646 15.4413 1.90039 16.2044 1.90039 17V19C1.90039 19.7957 2.21646 20.5587 2.77907 21.1213C3.34168 21.6839 4.10474 22 4.90039 22H17.9004C18.696 22 19.4591 21.6839 20.0217 21.1213C20.5843 20.5587 20.9004 19.7957 20.9004 19V17C20.9004 16.2044 20.5843 15.4413 20.0217 14.8787C19.4591 14.3161 18.696 14 17.9004 14ZM18.9004 19C18.9004 19.2652 18.795 19.5196 18.6075 19.7071C18.42 19.8947 18.1656 20 17.9004 20H4.90039C4.63517 20 4.38082 19.8947 4.19328 19.7071C4.00575 19.5196 3.90039 19.2652 3.90039 19V17C3.90039 16.7348 4.00575 16.4804 4.19328 16.2929C4.38082 16.1054 4.63517 16 4.90039 16H17.9004C18.1656 16 18.42 16.1054 18.6075 16.2929C18.795 16.4804 18.9004 16.7348 18.9004 17V19Z" />
</symbol><symbol viewBox="0 0 24 24" id="device-monitor">
<path d="M19 2H5C4.20435 2 3.44129 2.31607 2.87868 2.87868C2.31607 3.44129 2 4.20435 2 5V15C2 15.7956 2.31607 16.5587 2.87868 17.1213C3.44129 17.6839 4.20435 18 5 18H8V20H5C4.73478 20 4.48043 20.1054 4.29289 20.2929C4.10536 20.4804 4 20.7348 4 21C4 21.2652 4.10536 21.5196 4.29289 21.7071C4.48043 21.8946 4.73478 22 5 22H19C19.2652 22 19.5196 21.8946 19.7071 21.7071C19.8946 21.5196 20 21.2652 20 21C20 20.7348 19.8946 20.4804 19.7071 20.2929C19.5196 20.1054 19.2652 20 19 20H16V18H19C19.7956 18 20.5587 17.6839 21.1213 17.1213C21.6839 16.5587 22 15.7956 22 15V5C22 4.20435 21.6839 3.44129 21.1213 2.87868C20.5587 2.31607 19.7956 2 19 2ZM14 20H10V18H14V20ZM20 15C20 15.2652 19.8946 15.5196 19.7071 15.7071C19.5196 15.8946 19.2652 16 19 16H5C4.73478 16 4.48043 15.8946 4.29289 15.7071C4.10536 15.5196 4 15.2652 4 15V14H20V15ZM20 12H4V5C4 4.73478 4.10536 4.48043 4.29289 4.29289C4.48043 4.10536 4.73478 4 5 4H19C19.2652 4 19.5196 4.10536 19.7071 4.29289C19.8946 4.48043 20 4.73478 20 5V12Z" />
</symbol><symbol viewBox="0 0 24 24" id="device-monitor-1">
<path d="M19 3H5C4.20435 3 3.44129 3.31607 2.87868 3.87868C2.31607 4.44129 2 5.20435 2 6V14C2 14.7956 2.31607 15.5587 2.87868 16.1213C3.44129 16.6839 4.20435 17 5 17H11V19H7C6.73478 19 6.48043 19.1054 6.29289 19.2929C6.10536 19.4804 6 19.7348 6 20C6 20.2652 6.10536 20.5196 6.29289 20.7071C6.48043 20.8946 6.73478 21 7 21H17C17.2652 21 17.5196 20.8946 17.7071 20.7071C17.8946 20.5196 18 20.2652 18 20C18 19.7348 17.8946 19.4804 17.7071 19.2929C17.5196 19.1054 17.2652 19 17 19H13V17H19C19.7956 17 20.5587 16.6839 21.1213 16.1213C21.6839 15.5587 22 14.7956 22 14V6C22 5.20435 21.6839 4.44129 21.1213 3.87868C20.5587 3.31607 19.7956 3 19 3ZM20 14C20 14.2652 19.8946 14.5196 19.7071 14.7071C19.5196 14.8946 19.2652 15 19 15H5C4.73478 15 4.48043 14.8946 4.29289 14.7071C4.10536 14.5196 4 14.2652 4 14V6C4 5.73478 4.10536 5.48043 4.29289 5.29289C4.48043 5.10536 4.73478 5 5 5H19C19.2652 5 19.5196 5.10536 19.7071 5.29289C19.8946 5.48043 20 5.73478 20 6V14Z" />
</symbol><symbol viewBox="0 0 24 24" id="device-mouse">
<path d="M12 2C10.1435 2 8.36301 2.7375 7.05025 4.05025C5.7375 5.36301 5 7.14348 5 9V15C5 16.8565 5.7375 18.637 7.05025 19.9497C8.36301 21.2625 10.1435 22 12 22C13.8565 22 15.637 21.2625 16.9497 19.9497C18.2625 18.637 19 16.8565 19 15V9C19 7.14348 18.2625 5.36301 16.9497 4.05025C15.637 2.7375 13.8565 2 12 2ZM7 9C6.99976 7.84735 7.39778 6.73001 8.12669 5.8371C8.8556 4.94418 9.87064 4.33053 11 4.1V10H7V9ZM17 15C17 16.3261 16.4732 17.5979 15.5355 18.5355C14.5979 19.4732 13.3261 20 12 20C10.6739 20 9.40215 19.4732 8.46447 18.5355C7.52678 17.5979 7 16.3261 7 15V12H17V15ZM17 10H13V4.1C14.1294 4.33053 15.1444 4.94418 15.8733 5.8371C16.6022 6.73001 17.0002 7.84735 17 9V10Z" />
</symbol><symbol viewBox="0 0 24 24" id="device-printer">
<path d="M7 10C6.80222 10 6.60888 10.0586 6.44443 10.1685C6.27998 10.2784 6.15181 10.4346 6.07612 10.6173C6.00043 10.8 5.98063 11.0011 6.01921 11.1951C6.0578 11.3891 6.15304 11.5673 6.29289 11.7071C6.43275 11.847 6.61093 11.9422 6.80491 11.9808C6.99889 12.0194 7.19996 11.9996 7.38268 11.9239C7.56541 11.8482 7.72159 11.72 7.83147 11.5556C7.94135 11.3911 8 11.1978 8 11C8 10.7348 7.89464 10.4804 7.70711 10.2929C7.51957 10.1054 7.26522 10 7 10ZM19 6H18V3C18 2.73478 17.8946 2.48043 17.7071 2.29289C17.5196 2.10536 17.2652 2 17 2H7C6.73478 2 6.48043 2.10536 6.29289 2.29289C6.10536 2.48043 6 2.73478 6 3V6H5C4.20435 6 3.44129 6.31607 2.87868 6.87868C2.31607 7.44129 2 8.20435 2 9V15C2 15.7956 2.31607 16.5587 2.87868 17.1213C3.44129 17.6839 4.20435 18 5 18H6V21C6 21.2652 6.10536 21.5196 6.29289 21.7071C6.48043 21.8946 6.73478 22 7 22H17C17.2652 22 17.5196 21.8946 17.7071 21.7071C17.8946 21.5196 18 21.2652 18 21V18H19C19.7956 18 20.5587 17.6839 21.1213 17.1213C21.6839 16.5587 22 15.7956 22 15V9C22 8.20435 21.6839 7.44129 21.1213 6.87868C20.5587 6.31607 19.7956 6 19 6ZM8 4H16V6H8V4ZM16 20H8V16H16V20ZM20 15C20 15.2652 19.8946 15.5196 19.7071 15.7071C19.5196 15.8946 19.2652 16 19 16H18V15C18 14.7348 17.8946 14.4804 17.7071 14.2929C17.5196 14.1054 17.2652 14 17 14H7C6.73478 14 6.48043 14.1054 6.29289 14.2929C6.10536 14.4804 6 14.7348 6 15V16H5C4.73478 16 4.48043 15.8946 4.29289 15.7071C4.10536 15.5196 4 15.2652 4 15V9C4 8.73478 4.10536 8.48043 4.29289 8.29289C4.48043 8.10536 4.73478 8 5 8H19C19.2652 8 19.5196 8.10536 19.7071 8.29289C19.8946 8.48043 20 8.73478 20 9V15Z" />
</symbol><symbol viewBox="0 0 24 24" id="device-screen">
<path d="M19 2H5C4.20435 2 3.44129 2.31607 2.87868 2.87868C2.31607 3.44129 2 4.20435 2 5V15C2 15.7956 2.31607 16.5587 2.87868 17.1213C3.44129 17.6839 4.20435 18 5 18H7.64L7.06 19C6.88446 19.304 6.79205 19.6489 6.79205 20C6.79205 20.3511 6.88446 20.696 7.06 21C7.23705 21.3067 7.49235 21.5609 7.79982 21.7366C8.10729 21.9123 8.45589 22.0032 8.81 22H15.27C15.6207 21.9996 15.9652 21.9071 16.2688 21.7315C16.5725 21.556 16.8246 21.3037 17 21C17.1755 20.696 17.268 20.3511 17.268 20C17.268 19.6489 17.1755 19.304 17 19L16.41 18H19C19.7956 18 20.5587 17.6839 21.1213 17.1213C21.6839 16.5587 22 15.7956 22 15V5C22 4.20435 21.6839 3.44129 21.1213 2.87868C20.5587 2.31607 19.7956 2 19 2ZM8.77 20L10 18H14L15.2 20H8.77ZM20 15C20 15.2652 19.8946 15.5196 19.7071 15.7071C19.5196 15.8946 19.2652 16 19 16H5C4.73478 16 4.48043 15.8946 4.29289 15.7071C4.10536 15.5196 4 15.2652 4 15V14H20V15ZM20 12H4V5C4 4.73478 4.10536 4.48043 4.29289 4.29289C4.48043 4.10536 4.73478 4 5 4H19C19.2652 4 19.5196 4.10536 19.7071 4.29289C19.8946 4.48043 20 4.73478 20 5V12Z" />
</symbol><symbol viewBox="0 0 24 24" id="device-tab">
<path d="M17 2H7C6.20435 2 5.44129 2.31607 4.87868 2.87868C4.31607 3.44129 4 4.20435 4 5V19C4 19.7956 4.31607 20.5587 4.87868 21.1213C5.44129 21.6839 6.20435 22 7 22H17C17.7956 22 18.5587 21.6839 19.1213 21.1213C19.6839 20.5587 20 19.7956 20 19V5C20 4.20435 19.6839 3.44129 19.1213 2.87868C18.5587 2.31607 17.7956 2 17 2ZM18 19C18 19.2652 17.8946 19.5196 17.7071 19.7071C17.5196 19.8946 17.2652 20 17 20H7C6.73478 20 6.48043 19.8946 6.29289 19.7071C6.10536 19.5196 6 19.2652 6 19V5C6 4.73478 6.10536 4.48043 6.29289 4.29289C6.48043 4.10536 6.73478 4 7 4H17C17.2652 4 17.5196 4.10536 17.7071 4.29289C17.8946 4.48043 18 4.73478 18 5V19ZM12.71 16.29C12.5945 16.1696 12.4508 16.08 12.2919 16.0293C12.1329 15.9787 11.9638 15.9686 11.8 16L11.62 16.06C11.5563 16.0819 11.4957 16.1122 11.44 16.15L11.29 16.27C11.199 16.3651 11.1276 16.4772 11.08 16.6C11.0034 16.7821 10.9825 16.9828 11.0199 17.1768C11.0572 17.3708 11.1512 17.5494 11.29 17.69C11.3895 17.778 11.5005 17.852 11.62 17.91C11.8031 17.9853 12.0044 18.0046 12.1984 17.9655C12.3924 17.9263 12.5705 17.8304 12.71 17.69C12.8923 17.5062 12.9963 17.2589 13 17C13.0034 16.8688 12.976 16.7387 12.92 16.62C12.8694 16.4988 12.7983 16.3872 12.71 16.29Z" />
</symbol><symbol viewBox="0 0 24 24" id="device-webcam">
<path d="M12 13C12.5934 13 13.1734 12.8241 13.6667 12.4944C14.1601 12.1648 14.5446 11.6962 14.7717 11.1481C14.9987 10.5999 15.0581 9.99668 14.9424 9.41474C14.8266 8.8328 14.5409 8.29825 14.1213 7.87869C13.7018 7.45913 13.1672 7.17341 12.5853 7.05766C12.0033 6.9419 11.4001 7.00131 10.852 7.22837C10.3038 7.45544 9.83525 7.83995 9.5056 8.3333C9.17596 8.82665 9.00001 9.40667 9.00001 10C9.00001 10.7957 9.31608 11.5587 9.87869 12.1213C10.4413 12.6839 11.2044 13 12 13ZM12 9.00001C12.1978 9.00001 12.3911 9.05866 12.5556 9.16854C12.72 9.27842 12.8482 9.4346 12.9239 9.61733C12.9996 9.80005 13.0194 10.0011 12.9808 10.1951C12.9422 10.3891 12.847 10.5673 12.7071 10.7071C12.5673 10.847 12.3891 10.9422 12.1951 10.9808C12.0011 11.0194 11.8001 10.9996 11.6173 10.9239C11.4346 10.8482 11.2784 10.72 11.1685 10.5556C11.0587 10.3911 11 10.1978 11 10C11 9.7348 11.1054 9.48044 11.2929 9.29291C11.4804 9.10537 11.7348 9.00001 12 9.00001ZM21.59 18.16C21.1017 16.5405 20.2106 15.0714 19 13.89C19.6739 12.6721 20.0183 11.2994 19.9993 9.9076C19.9802 8.51581 19.5984 7.15306 18.8915 5.95402C18.1845 4.75497 17.177 3.76112 15.9684 3.07066C14.7598 2.3802 13.3919 2.01703 12 2.01703C10.6081 2.01703 9.24025 2.3802 8.03164 3.07066C6.82304 3.76112 5.8155 4.75497 5.10857 5.95402C4.40165 7.15306 4.0198 8.51581 4.00076 9.9076C3.98172 11.2994 4.32615 12.6721 5.00001 13.89C3.78232 15.0675 2.88711 16.5377 2.40001 18.16C2.26984 18.6049 2.24454 19.0739 2.32608 19.5302C2.40763 19.9865 2.59381 20.4177 2.87001 20.79C3.15142 21.1685 3.51811 21.4753 3.94032 21.6856C4.36253 21.8958 4.82837 22.0035 5.30001 22H18.7C19.17 22.002 19.6338 21.8935 20.0542 21.6833C20.4745 21.4731 20.8396 21.1672 21.12 20.79C21.3962 20.4177 21.5824 19.9865 21.6639 19.5302C21.7455 19.0739 21.7202 18.6049 21.59 18.16ZM12 4.00001C13.1867 4.00001 14.3467 4.35191 15.3334 5.01119C16.3201 5.67048 17.0892 6.60756 17.5433 7.70391C17.9974 8.80027 18.1162 10.0067 17.8847 11.1706C17.6532 12.3344 17.0818 13.4035 16.2427 14.2427C15.4035 15.0818 14.3344 15.6532 13.1706 15.8847C12.0067 16.1162 10.8003 15.9974 9.70391 15.5433C8.60755 15.0892 7.67048 14.3201 7.01119 13.3334C6.35191 12.3467 6.00001 11.1867 6.00001 10C6.00001 8.40871 6.63215 6.88259 7.75737 5.75737C8.88259 4.63215 10.4087 4.00001 12 4.00001ZM19.52 19.59C19.4259 19.7188 19.3024 19.8232 19.1598 19.8945C19.0171 19.9658 18.8595 20.002 18.7 20H5.30001C5.14054 20.002 4.98291 19.9658 4.84026 19.8945C4.69761 19.8232 4.57409 19.7188 4.48001 19.59C4.3901 19.4661 4.32981 19.3233 4.30381 19.1725C4.2778 19.0216 4.28677 18.8668 4.33001 18.72C4.68897 17.5113 5.33383 16.4068 6.21001 15.5C6.95711 16.2836 7.85549 16.9074 8.85072 17.3336C9.84596 17.7598 10.9174 17.9795 12 17.9795C13.0827 17.9795 14.1541 17.7598 15.1493 17.3336C16.1445 16.9074 17.0429 16.2836 17.79 15.5C18.6662 16.4068 19.311 17.5113 19.67 18.72C19.7133 18.8668 19.7222 19.0216 19.6962 19.1725C19.6702 19.3233 19.6099 19.4661 19.52 19.59Z" />
</symbol><symbol viewBox="0 0 24 24" id="device-weight-scale">
<path d="M19 4.00001H17.55C17.4306 3.63532 17.244 3.29617 17 3.00001C16.717 2.68364 16.3702 2.43092 15.9823 2.25854C15.5945 2.08616 15.1744 1.99804 14.75 2.00001H9.27C8.8422 1.99519 8.41832 2.08193 8.02681 2.25441C7.63529 2.42688 7.28519 2.6811 7 3.00001C6.74885 3.29456 6.55547 3.63382 6.43 4.00001H5C4.20435 4.00001 3.44129 4.31608 2.87868 4.87869C2.31607 5.4413 2 6.20436 2 7.00001V19C2 19.7957 2.31607 20.5587 2.87868 21.1213C3.44129 21.6839 4.20435 22 5 22H19C19.7956 22 20.5587 21.6839 21.1213 21.1213C21.6839 20.5587 22 19.7957 22 19V7.00001C22 6.20436 21.6839 5.4413 21.1213 4.87869C20.5587 4.31608 19.7956 4.00001 19 4.00001ZM8.52 4.34001C8.61371 4.23334 8.72906 4.14785 8.85838 4.08922C8.9877 4.0306 9.12802 4.00019 9.27 4.00001H14.73C14.872 4.00019 15.0123 4.0306 15.1416 4.08922C15.2709 4.14785 15.3863 4.23334 15.48 4.34001C15.5744 4.44501 15.6454 4.5688 15.6885 4.70324C15.7316 4.83767 15.7457 4.97971 15.73 5.12001L15.23 9.12001C15.2005 9.36392 15.0823 9.58844 14.8979 9.75075C14.7134 9.91305 14.4757 10.0018 14.23 10H12.59L13.73 7.60001C13.8224 7.36465 13.8223 7.10302 13.7296 6.86778C13.6369 6.63253 13.4585 6.44115 13.2303 6.33214C13.0022 6.22313 12.7412 6.20461 12.4999 6.28028C12.2587 6.35596 12.055 6.52022 11.93 6.74001L10.37 10H9.77C9.52432 10.0018 9.28659 9.91305 9.10215 9.75075C8.91771 9.58844 8.79948 9.36392 8.77 9.12001L8.27 5.12001C8.25425 4.97971 8.26839 4.83767 8.31148 4.70324C8.35457 4.5688 8.42563 4.44501 8.52 4.34001ZM20 19C20 19.2652 19.8946 19.5196 19.7071 19.7071C19.5196 19.8947 19.2652 20 19 20H5C4.73478 20 4.48043 19.8947 4.29289 19.7071C4.10536 19.5196 4 19.2652 4 19V7.00001C4 6.73479 4.10536 6.48044 4.29289 6.2929C4.48043 6.10536 4.73478 6.00001 5 6.00001H6.37L6.79 9.37001C6.88069 10.0999 7.23638 10.7711 7.78946 11.256C8.34255 11.7408 9.05449 12.0056 9.79 12H14.25C14.9855 12.0056 15.6975 11.7408 16.2505 11.256C16.8036 10.7711 17.1593 10.0999 17.25 9.37001L17.63 6.00001H19C19.2652 6.00001 19.5196 6.10536 19.7071 6.2929C19.8946 6.48044 20 6.73479 20 7.00001V19ZM14 16H10C9.73478 16 9.48043 16.1054 9.29289 16.2929C9.10536 16.4804 9 16.7348 9 17C9 17.2652 9.10536 17.5196 9.29289 17.7071C9.48043 17.8947 9.73478 18 10 18H14C14.2652 18 14.5196 17.8947 14.7071 17.7071C14.8946 17.5196 15 17.2652 15 17C15 16.7348 14.8946 16.4804 14.7071 16.2929C14.5196 16.1054 14.2652 16 14 16Z" />
</symbol></defs></svg>