<svg xmlns="http://www.w3.org/2000/svg" xmlns:xlink="http://www.w3.org/1999/xlink"><defs><symbol viewBox="0 0 24 24" id="time-clock">
<path d="M11 2C9.02219 2 7.08879 2.58649 5.4443 3.6853C3.79981 4.78412 2.51809 6.3459 1.76121 8.17317C1.00433 10.0004 0.806299 12.0111 1.19215 13.9509C1.578 15.8907 2.53041 17.6725 3.92894 19.0711C5.32746 20.4696 7.10929 21.422 9.0491 21.8079C10.9889 22.1937 12.9996 21.9957 14.8268 21.2388C16.6541 20.4819 18.2159 19.2002 19.3147 17.5557C20.4135 15.9112 21 13.9778 21 12C21 10.6868 20.7413 9.38642 20.2388 8.17317C19.7363 6.95991 18.9997 5.85752 18.0711 4.92893C17.1425 4.00035 16.0401 3.26375 14.8268 2.7612C13.6136 2.25866 12.3132 2 11 2ZM11 20C9.41775 20 7.87104 19.5308 6.55544 18.6518C5.23985 17.7727 4.21447 16.5233 3.60897 15.0615C3.00347 13.5997 2.84504 11.9911 3.15372 10.4393C3.4624 8.88743 4.22433 7.46197 5.34315 6.34315C6.46197 5.22433 7.88743 4.4624 9.43928 4.15372C10.9911 3.84504 12.5997 4.00346 14.0615 4.60896C15.5233 5.21447 16.7727 6.23984 17.6518 7.55544C18.5308 8.87103 19 10.4177 19 12C19 14.1217 18.1572 16.1566 16.6569 17.6569C15.1566 19.1571 13.1217 20 11 20ZM11 6C10.7348 6 10.4804 6.10536 10.2929 6.29289C10.1054 6.48043 10 6.73478 10 7V11.42L7.9 12.63C7.70736 12.7392 7.5564 12.9092 7.47078 13.1134C7.38517 13.3176 7.36975 13.5444 7.42695 13.7583C7.48414 13.9722 7.61072 14.1611 7.78682 14.2953C7.96292 14.4296 8.17859 14.5015 8.4 14.5C8.57518 14.5012 8.7476 14.4564 8.9 14.37L11.5 12.87L11.59 12.78L11.75 12.65C11.7891 12.6005 11.8226 12.5468 11.85 12.49C11.8826 12.4363 11.9094 12.3793 11.93 12.32C11.9572 12.2564 11.9741 12.1889 11.98 12.12L12 12V7C12 6.73478 11.8946 6.48043 11.7071 6.29289C11.5196 6.10536 11.2652 6 11 6Z" />
</symbol><symbol viewBox="0 0 24 24" id="time-clock-1">
<path d="M12 2C10.0222 2 8.08879 2.58649 6.4443 3.6853C4.79981 4.78412 3.51809 6.3459 2.76121 8.17317C2.00433 10.0004 1.8063 12.0111 2.19215 13.9509C2.578 15.8907 3.53041 17.6725 4.92894 19.0711C6.32746 20.4696 8.10929 21.422 10.0491 21.8079C11.9889 22.1937 13.9996 21.9957 15.8268 21.2388C17.6541 20.4819 19.2159 19.2002 20.3147 17.5557C21.4135 15.9112 22 13.9778 22 12C22 10.6868 21.7413 9.38642 21.2388 8.17317C20.7363 6.95991 19.9997 5.85752 19.0711 4.92893C18.1425 4.00035 17.0401 3.26375 15.8268 2.7612C14.6136 2.25866 13.3132 2 12 2ZM12 20C10.4178 20 8.87104 19.5308 7.55544 18.6518C6.23985 17.7727 5.21447 16.5233 4.60897 15.0615C4.00347 13.5997 3.84504 11.9911 4.15372 10.4393C4.4624 8.88743 5.22433 7.46197 6.34315 6.34315C7.46197 5.22433 8.88743 4.4624 10.4393 4.15372C11.9911 3.84504 13.5997 4.00346 15.0615 4.60896C16.5233 5.21447 17.7727 6.23984 18.6518 7.55544C19.5308 8.87103 20 10.4177 20 12C20 14.1217 19.1572 16.1566 17.6569 17.6569C16.1566 19.1571 14.1217 20 12 20ZM14.1 9.63L13 10.27V7C13 6.73478 12.8946 6.48043 12.7071 6.29289C12.5196 6.10536 12.2652 6 12 6C11.7348 6 11.4804 6.10536 11.2929 6.29289C11.1054 6.48043 11 6.73478 11 7V12C11 12 11 12 11 12.06C10.9953 12.1266 10.9953 12.1934 11 12.26C11.0155 12.3214 11.0355 12.3816 11.06 12.44C11.06 12.44 11.06 12.44 11.06 12.5C11.1078 12.5709 11.1613 12.6378 11.22 12.7C11.3008 12.7801 11.3957 12.8445 11.5 12.89H11.58C11.7103 12.957 11.8536 12.9945 12 13C12.1166 12.9967 12.2316 12.973 12.34 12.93H12.43H12.5L15.1 11.43C15.3307 11.2974 15.4994 11.0786 15.5687 10.8216C15.6381 10.5647 15.6026 10.2907 15.47 10.06C15.3374 9.82926 15.1186 9.66065 14.8616 9.59126C14.6047 9.52188 14.3307 9.55739 14.1 9.69V9.63Z" />
</symbol><symbol viewBox="0 0 24 24" id="time-clock-2">
<path d="M15 11H13V7C13 6.73478 12.8946 6.48043 12.7071 6.29289C12.5196 6.10536 12.2652 6 12 6C11.7348 6 11.4804 6.10536 11.2929 6.29289C11.1054 6.48043 11 6.73478 11 7V12C11 12.2652 11.1054 12.5196 11.2929 12.7071C11.4804 12.8946 11.7348 13 12 13H15C15.2652 13 15.5196 12.8946 15.7071 12.7071C15.8946 12.5196 16 12.2652 16 12C16 11.7348 15.8946 11.4804 15.7071 11.2929C15.5196 11.1054 15.2652 11 15 11ZM12 2C10.0222 2 8.08879 2.58649 6.4443 3.6853C4.79981 4.78412 3.51809 6.3459 2.76121 8.17317C2.00433 10.0004 1.8063 12.0111 2.19215 13.9509C2.578 15.8907 3.53041 17.6725 4.92894 19.0711C6.32746 20.4696 8.10929 21.422 10.0491 21.8079C11.9889 22.1937 13.9996 21.9957 15.8268 21.2388C17.6541 20.4819 19.2159 19.2002 20.3147 17.5557C21.4135 15.9112 22 13.9778 22 12C22 10.6868 21.7413 9.38642 21.2388 8.17317C20.7363 6.95991 19.9997 5.85752 19.0711 4.92893C18.1425 4.00035 17.0401 3.26375 15.8268 2.7612C14.6136 2.25866 13.3132 2 12 2ZM12 20C10.4178 20 8.87104 19.5308 7.55544 18.6518C6.23985 17.7727 5.21447 16.5233 4.60897 15.0615C4.00347 13.5997 3.84504 11.9911 4.15372 10.4393C4.4624 8.88743 5.22433 7.46197 6.34315 6.34315C7.46197 5.22433 8.88743 4.4624 10.4393 4.15372C11.9911 3.84504 13.5997 4.00346 15.0615 4.60896C16.5233 5.21447 17.7727 6.23984 18.6518 7.55544C19.5308 8.87103 20 10.4177 20 12C20 14.1217 19.1572 16.1566 17.6569 17.6569C16.1566 19.1571 14.1217 20 12 20Z" />
</symbol><symbol viewBox="0 0 24 24" id="time-clock-3">
<path d="M11 2C9.02219 2 7.08879 2.58649 5.4443 3.6853C3.79981 4.78412 2.51809 6.3459 1.76121 8.17317C1.00433 10.0004 0.806299 12.0111 1.19215 13.9509C1.578 15.8907 2.53041 17.6725 3.92894 19.0711C5.32746 20.4696 7.10929 21.422 9.0491 21.8079C10.9889 22.1937 12.9996 21.9957 14.8268 21.2388C16.6541 20.4819 18.2159 19.2002 19.3147 17.5557C20.4135 15.9112 21 13.9778 21 12C21 10.6868 20.7413 9.38642 20.2388 8.17317C19.7363 6.95991 18.9997 5.85752 18.0711 4.92893C17.1425 4.00035 16.0401 3.26375 14.8268 2.7612C13.6136 2.25866 12.3132 2 11 2ZM11 20C9.41775 20 7.87104 19.5308 6.55544 18.6518C5.23985 17.7727 4.21447 16.5233 3.60897 15.0615C3.00347 13.5997 2.84504 11.9911 3.15372 10.4393C3.4624 8.88743 4.22433 7.46197 5.34315 6.34315C6.46197 5.22433 7.88743 4.4624 9.43928 4.15372C10.9911 3.84504 12.5997 4.00346 14.0615 4.60896C15.5233 5.21447 16.7727 6.23984 17.6518 7.55544C18.5308 8.87103 19 10.4177 19 12C19 14.1217 18.1572 16.1566 16.6569 17.6569C15.1566 19.1571 13.1217 20 11 20ZM11 6C10.7348 6 10.4804 6.10536 10.2929 6.29289C10.1054 6.48043 10 6.73478 10 7V11.93L8.63 14.3C8.4974 14.5307 8.46188 14.8047 8.53127 15.0616C8.60066 15.3186 8.76927 15.5374 9 15.67C9.23074 15.8026 9.50471 15.8381 9.76163 15.7687C10.0186 15.6993 10.2374 15.5307 10.37 15.3L11.87 12.7C11.9662 12.5192 12.0046 12.3133 11.98 12.11L12 12V7C12 6.73478 11.8946 6.48043 11.7071 6.29289C11.5196 6.10536 11.2652 6 11 6Z" />
</symbol><symbol viewBox="0 0 24 24" id="time-clock-4">
<path d="M11 2C9.02219 2 7.08879 2.58649 5.4443 3.6853C3.79981 4.78412 2.51809 6.3459 1.76121 8.17317C1.00433 10.0004 0.806299 12.0111 1.19215 13.9509C1.578 15.8907 2.53041 17.6725 3.92894 19.0711C5.32746 20.4696 7.10929 21.422 9.0491 21.8079C10.9889 22.1937 12.9996 21.9957 14.8268 21.2388C16.6541 20.4819 18.2159 19.2002 19.3147 17.5557C20.4135 15.9112 21 13.9778 21 12C21 10.6868 20.7413 9.38642 20.2388 8.17317C19.7363 6.95991 18.9997 5.85752 18.0711 4.92893C17.1425 4.00035 16.0401 3.26375 14.8268 2.7612C13.6136 2.25866 12.3132 2 11 2ZM11 20C9.41775 20 7.87104 19.5308 6.55544 18.6518C5.23985 17.7727 4.21447 16.5233 3.60897 15.0615C3.00347 13.5997 2.84504 11.9911 3.15372 10.4393C3.4624 8.88743 4.22433 7.46197 5.34315 6.34315C6.46197 5.22433 7.88743 4.4624 9.43928 4.15372C10.9911 3.84504 12.5997 4.00346 14.0615 4.60896C15.5233 5.21447 16.7727 6.23984 17.6518 7.55544C18.5308 8.87103 19 10.4177 19 12C19 14.1217 18.1572 16.1566 16.6569 17.6569C15.1566 19.1571 13.1217 20 11 20ZM11 6C10.7348 6 10.4804 6.10536 10.2929 6.29289C10.1054 6.48043 10 6.73478 10 7V11H8C7.73479 11 7.48043 11.1054 7.2929 11.2929C7.10536 11.4804 7 11.7348 7 12C7 12.2652 7.10536 12.5196 7.2929 12.7071C7.48043 12.8946 7.73479 13 8 13H11C11.2652 13 11.5196 12.8946 11.7071 12.7071C11.8946 12.5196 12 12.2652 12 12V7C12 6.73478 11.8946 6.48043 11.7071 6.29289C11.5196 6.10536 11.2652 6 11 6Z" />
</symbol><symbol viewBox="0 0 24 24" id="time-clock-5">
<path d="M11 2C9.02219 2 7.08879 2.58649 5.4443 3.6853C3.79981 4.78412 2.51809 6.3459 1.76121 8.17317C1.00433 10.0004 0.806299 12.0111 1.19215 13.9509C1.578 15.8907 2.53041 17.6725 3.92894 19.0711C5.32746 20.4696 7.10929 21.422 9.0491 21.8079C10.9889 22.1937 12.9996 21.9957 14.8268 21.2388C16.6541 20.4819 18.2159 19.2002 19.3147 17.5557C20.4135 15.9112 21 13.9778 21 12C21 10.6868 20.7413 9.38642 20.2388 8.17317C19.7363 6.95991 18.9997 5.85752 18.0711 4.92893C17.1425 4.00035 16.0401 3.26375 14.8268 2.7612C13.6136 2.25866 12.3132 2 11 2ZM11 20C9.41775 20 7.87104 19.5308 6.55544 18.6518C5.23985 17.7727 4.21447 16.5233 3.60897 15.0615C3.00347 13.5997 2.84504 11.9911 3.15372 10.4393C3.4624 8.88743 4.22433 7.46197 5.34315 6.34315C6.46197 5.22433 7.88743 4.4624 9.43928 4.15372C10.9911 3.84504 12.5997 4.00346 14.0615 4.60896C15.5233 5.21447 16.7727 6.23984 17.6518 7.55544C18.5308 8.87103 19 10.4177 19 12C19 14.1217 18.1572 16.1566 16.6569 17.6569C15.1566 19.1571 13.1217 20 11 20ZM11 6C10.7348 6 10.4804 6.10536 10.2929 6.29289C10.1054 6.48043 10 6.73478 10 7V10.27L8.9 9.63C8.66927 9.49739 8.3953 9.46187 8.13837 9.53126C7.88145 9.60065 7.66261 9.76926 7.53 10C7.3974 10.2307 7.36188 10.5047 7.43127 10.7616C7.50066 11.0186 7.66927 11.2374 7.9 11.37L10.5 12.87H10.57H10.66C10.7644 12.9338 10.8797 12.9778 11 13C11.1166 12.9967 11.2316 12.973 11.34 12.93H11.42C11.5243 12.8845 11.6192 12.8201 11.7 12.74C11.7548 12.6806 11.805 12.6171 11.85 12.55C11.85 12.55 11.85 12.55 11.85 12.49C11.8745 12.4316 11.8945 12.3714 11.91 12.31C11.9147 12.2434 11.9147 12.1766 11.91 12.11C11.91 12.11 11.91 12.11 11.91 12.05V7C11.911 6.74966 11.8181 6.50805 11.6496 6.3229C11.4811 6.13775 11.2493 6.02253 11 6Z" />
</symbol><symbol viewBox="0 0 24 24" id="time-clock-6">
<path d="M11 2C9.02219 2 7.08879 2.58649 5.4443 3.6853C3.79981 4.78412 2.51809 6.3459 1.76121 8.17317C1.00433 10.0004 0.806299 12.0111 1.19215 13.9509C1.578 15.8907 2.53041 17.6725 3.92894 19.0711C5.32746 20.4696 7.10929 21.422 9.0491 21.8079C10.9889 22.1937 12.9996 21.9957 14.8268 21.2388C16.6541 20.4819 18.2159 19.2002 19.3147 17.5557C20.4135 15.9112 21 13.9778 21 12C21 10.6868 20.7413 9.38642 20.2388 8.17317C19.7363 6.95991 18.9997 5.85752 18.0711 4.92893C17.1425 4.00035 16.0401 3.26375 14.8268 2.7612C13.6136 2.25866 12.3132 2 11 2ZM11 20C9.41775 20 7.87104 19.5308 6.55544 18.6518C5.23985 17.7727 4.21447 16.5233 3.60897 15.0615C3.00347 13.5997 2.84504 11.9911 3.15372 10.4393C3.4624 8.88743 4.22433 7.46197 5.34315 6.34315C6.46197 5.22433 7.88743 4.4624 9.43928 4.15372C10.9911 3.84504 12.5997 4.00346 14.0615 4.60896C15.5233 5.21447 16.7727 6.23984 17.6518 7.55544C18.5308 8.87103 19 10.4177 19 12C19 14.1217 18.1572 16.1566 16.6569 17.6569C15.1566 19.1571 13.1217 20 11 20ZM12 11.93V7C12 6.73478 11.8946 6.48043 11.7071 6.29289C11.5196 6.10536 11.2652 6 11 6C10.7348 6 10.4804 6.10536 10.2929 6.29289C10.1054 6.48043 10 6.73478 10 7V12C10 12 10 12.07 10 12.11C9.9754 12.3133 10.0138 12.5192 10.11 12.7L11.61 15.3C11.7426 15.5307 11.9615 15.6993 12.2184 15.7687C12.4753 15.8381 12.7493 15.8026 12.98 15.67C13.2107 15.5374 13.3794 15.3186 13.4487 15.0616C13.5181 14.8047 13.4826 14.5307 13.35 14.3L12 11.93Z" />
</symbol><symbol viewBox="0 0 24 24" id="time-hand-watch">
<path d="M16.9997 8.60996L15.9997 2.83996C15.9613 2.60334 15.8393 2.38835 15.6557 2.23417C15.4722 2.07999 15.2393 1.99688 14.9997 1.99996H8.99965C8.75996 1.99688 8.52714 2.07999 8.34359 2.23417C8.16004 2.38835 8.03798 2.60334 7.99965 2.83996L6.99965 8.60996C6.31602 9.60829 5.9502 10.79 5.9502 12C5.9502 13.2099 6.31602 14.3916 6.99965 15.39L7.99965 21.16C8.03798 21.3966 8.16004 21.6116 8.34359 21.7657C8.52714 21.9199 8.75996 22.003 8.99965 22H14.9997C15.2393 22.003 15.4722 21.9199 15.6557 21.7657C15.8393 21.6116 15.9613 21.3966 15.9997 21.16L16.9997 15.39C17.6833 14.3916 18.0491 13.2099 18.0491 12C18.0491 10.79 17.6833 9.60829 16.9997 8.60996ZM9.84965 3.99996H14.1496L14.5897 6.58996C13.7811 6.20301 12.8961 6.00216 11.9997 6.00216C11.1032 6.00216 10.2182 6.20301 9.40965 6.58996L9.84965 3.99996ZM14.1496 20H9.84965L9.40965 17.41C10.2182 17.7969 11.1032 17.9978 11.9997 17.9978C12.8961 17.9978 13.7811 17.7969 14.5897 17.41L14.1496 20ZM11.9997 16C11.2085 16 10.4352 15.7654 9.77737 15.3258C9.11957 14.8863 8.60688 14.2616 8.30413 13.5307C8.00138 12.7998 7.92217 11.9955 8.07651 11.2196C8.23085 10.4437 8.61181 9.73094 9.17122 9.17153C9.73063 8.61212 10.4434 8.23116 11.2193 8.07682C11.9952 7.92248 12.7995 8.00169 13.5304 8.30444C14.2613 8.60719 14.886 9.11988 15.3255 9.77768C15.7651 10.4355 15.9997 11.2088 15.9997 12C15.9997 13.0608 15.5782 14.0782 14.8281 14.8284C14.0779 15.5785 13.0605 16 11.9997 16Z" />
</symbol><symbol viewBox="0 0 24 24" id="time-hand-watch-1">
<path d="M17 6.78V3C17 2.73478 16.8946 2.48043 16.7071 2.29289C16.5196 2.10536 16.2652 2 16 2H8C7.73478 2 7.48043 2.10536 7.29289 2.29289C7.10536 2.48043 7 2.73478 7 3V6.78C6.6874 7.05959 6.4369 7.40161 6.26465 7.78399C6.09241 8.16637 6.00225 8.58062 6 9V15C6.00225 15.4194 6.09241 15.8336 6.26465 16.216C6.4369 16.5984 6.6874 16.9404 7 17.22V21C7 21.2652 7.10536 21.5196 7.29289 21.7071C7.48043 21.8946 7.73478 22 8 22H16C16.2652 22 16.5196 21.8946 16.7071 21.7071C16.8946 21.5196 17 21.2652 17 21V17.22C17.3126 16.9404 17.5631 16.5984 17.7353 16.216C17.9076 15.8336 17.9977 15.4194 18 15V9C17.9977 8.58062 17.9076 8.16637 17.7353 7.78399C17.5631 7.40161 17.3126 7.05959 17 6.78ZM9 4H15V6H9V4ZM15 20H9V18H15V20ZM16 15C16 15.2652 15.8946 15.5196 15.7071 15.7071C15.5196 15.8946 15.2652 16 15 16H9C8.73478 16 8.48043 15.8946 8.29289 15.7071C8.10536 15.5196 8 15.2652 8 15V9C8 8.73478 8.10536 8.48043 8.29289 8.29289C8.48043 8.10536 8.73478 8 9 8H15C15.2652 8 15.5196 8.10536 15.7071 8.29289C15.8946 8.48043 16 8.73478 16 9V15Z" />
</symbol><symbol viewBox="0 0 24 24" id="time-off-stopwatch">
<path d="M10.6002 5.63C10.335 5.67774 10.0996 5.82888 9.9458 6.05017C9.79202 6.27147 9.73245 6.54478 9.78018 6.81C9.82792 7.07522 9.97906 7.31061 10.2004 7.46439C10.4217 7.61817 10.695 7.67774 10.9602 7.63C11.2905 7.57293 11.625 7.54283 11.9602 7.54C13.5515 7.54 15.0776 8.17214 16.2028 9.29736C17.328 10.4226 17.9602 11.9487 17.9602 13.54C17.9574 13.8752 17.9273 14.2097 17.8702 14.54C17.8234 14.7998 17.8813 15.0675 18.0312 15.2848C18.181 15.5021 18.4107 15.6514 18.6702 15.7H18.8502C19.087 15.7039 19.3174 15.6236 19.5006 15.4734C19.6837 15.3232 19.8076 15.113 19.8502 14.88C19.943 14.4257 19.9932 13.9637 20.0002 13.5C19.9956 11.7198 19.3974 9.99193 18.3002 8.59L19.2102 7.69C19.3985 7.5017 19.5043 7.2463 19.5043 6.98C19.5043 6.7137 19.3985 6.4583 19.2102 6.27C19.0219 6.0817 18.7665 5.97591 18.5002 5.97591C18.2339 5.97591 17.9785 6.0817 17.7902 6.27L16.8902 7.18C15.4911 6.09417 13.7712 5.50329 12.0002 5.5C11.5305 5.4991 11.0617 5.54263 10.6002 5.63ZM10.0002 4.5H14.0002C14.2654 4.5 14.5198 4.39464 14.7073 4.20711C14.8948 4.01957 15.0002 3.76522 15.0002 3.5C15.0002 3.23478 14.8948 2.98043 14.7073 2.79289C14.5198 2.60536 14.2654 2.5 14.0002 2.5H10.0002C9.73497 2.5 9.48061 2.60536 9.29308 2.79289C9.10554 2.98043 9.00019 3.23478 9.00019 3.5C9.00019 3.76522 9.10554 4.01957 9.29308 4.20711C9.48061 4.39464 9.73497 4.5 10.0002 4.5ZM13.4902 13.58C13.4902 13.58 13.4902 13.53 13.4902 13.5C13.4902 13.47 13.4902 13.45 13.4902 13.42L14.8302 12.09C14.9234 11.9968 14.9974 11.8861 15.0478 11.7642C15.0983 11.6424 15.1243 11.5119 15.1243 11.38C15.1243 11.2481 15.0983 11.1176 15.0478 10.9958C14.9974 10.8739 14.9234 10.7632 14.8302 10.67C14.7369 10.5768 14.6263 10.5028 14.5044 10.4523C14.3826 10.4019 14.252 10.3759 14.1202 10.3759C13.9883 10.3759 13.8578 10.4019 13.7359 10.4523C13.6141 10.5028 13.5034 10.5768 13.4102 10.67L12.0802 12H11.9202L5.71019 5.79C5.52188 5.6017 5.26649 5.49591 5.00019 5.49591C4.73388 5.49591 4.47849 5.6017 4.29019 5.79C4.10188 5.9783 3.99609 6.2337 3.99609 6.5C3.99609 6.7663 4.10188 7.0217 4.29019 7.21L4.77019 7.69L5.68019 8.6C4.49366 10.1396 3.90825 12.0585 4.03333 13.9983C4.15842 15.938 4.98545 17.7658 6.3599 19.1403C7.73435 20.5147 9.56219 21.3418 11.5019 21.4669C13.4417 21.5919 15.3606 21.0065 16.9002 19.82L18.2902 21.21C18.3831 21.3037 18.4937 21.3781 18.6156 21.4289C18.7375 21.4797 18.8682 21.5058 19.0002 21.5058C19.1322 21.5058 19.2629 21.4797 19.3848 21.4289C19.5066 21.3781 19.6172 21.3037 19.7102 21.21C19.8039 21.117 19.8783 21.0064 19.9291 20.8846C19.9798 20.7627 20.006 20.632 20.006 20.5C20.006 20.368 19.9798 20.2373 19.9291 20.1154C19.8783 19.9936 19.8039 19.883 19.7102 19.79L13.4902 13.58ZM12.0002 19.5C10.895 19.5031 9.81052 19.2008 8.86624 18.6266C7.92196 18.0525 7.15461 17.2286 6.64882 16.246C6.14303 15.2634 5.91846 14.1602 5.99987 13.058C6.08128 11.9559 6.46551 10.8976 7.11019 10L10.5102 13.39C10.5102 13.39 10.5102 13.44 10.5102 13.47C10.5062 13.6687 10.5417 13.8661 10.6147 14.0509C10.6877 14.2357 10.7966 14.4042 10.9353 14.5466C11.0739 14.6889 11.2394 14.8023 11.4222 14.8801C11.605 14.958 11.8015 14.9987 12.0002 15H12.0802L15.4702 18.4C14.4553 19.1172 13.2429 19.5015 12.0002 19.5Z" />
</symbol><symbol viewBox="0 0 24 24" id="time-stopwatch">
<path d="M18.3 8.59L19.21 7.69C19.3983 7.5017 19.5041 7.2463 19.5041 6.98C19.5041 6.7137 19.3983 6.4583 19.21 6.27C19.0217 6.0817 18.7663 5.97591 18.5 5.97591C18.2337 5.97591 17.9783 6.0817 17.79 6.27L16.89 7.18C15.4886 6.09585 13.7669 5.50764 11.995 5.50764C10.2232 5.50764 8.50147 6.09585 7.10003 7.18L6.19003 6.26C6.0004 6.0717 5.74373 5.96644 5.47649 5.96737C5.20925 5.96831 4.95333 6.07537 4.76503 6.265C4.57672 6.45463 4.47146 6.7113 4.4724 6.97854C4.47334 7.24578 4.5804 7.5017 4.77003 7.69L5.69003 8.6C4.59304 9.99755 3.99782 11.7233 4.00003 13.5C3.99676 14.7754 4.29849 16.0331 4.88005 17.1683C5.46161 18.3034 6.30614 19.283 7.34322 20.0254C8.38029 20.7679 9.57985 21.2516 10.8418 21.4362C12.1038 21.6208 13.3917 21.5011 14.598 21.0869C15.8043 20.6727 16.8941 19.9761 17.7764 19.0552C18.6588 18.1342 19.3082 17.0157 19.6705 15.7928C20.0328 14.5699 20.0974 13.2781 19.859 12.0251C19.6206 10.7722 19.0861 9.5944 18.3 8.59ZM12 19.5C10.8133 19.5 9.6533 19.1481 8.6666 18.4888C7.67991 17.8295 6.91087 16.8925 6.45675 15.7961C6.00262 14.6997 5.8838 13.4933 6.11531 12.3295C6.34683 11.1656 6.91827 10.0965 7.75739 9.25736C8.5965 8.41824 9.6656 7.8468 10.8295 7.61529C11.9934 7.38378 13.1998 7.5026 14.2961 7.95672C15.3925 8.41085 16.3296 9.17988 16.9888 10.1666C17.6481 11.1533 18 12.3133 18 13.5C18 15.0913 17.3679 16.6174 16.2427 17.7426C15.1174 18.8679 13.5913 19.5 12 19.5ZM10 4.5H14C14.2652 4.5 14.5196 4.39464 14.7071 4.20711C14.8947 4.01957 15 3.76522 15 3.5C15 3.23478 14.8947 2.98043 14.7071 2.79289C14.5196 2.60536 14.2652 2.5 14 2.5H10C9.73481 2.5 9.48046 2.60536 9.29292 2.79289C9.10538 2.98043 9.00003 3.23478 9.00003 3.5C9.00003 3.76522 9.10538 4.01957 9.29292 4.20711C9.48046 4.39464 9.73481 4.5 10 4.5ZM13 10.5C13 10.2348 12.8947 9.98043 12.7071 9.79289C12.5196 9.60536 12.2652 9.5 12 9.5C11.7348 9.5 11.4805 9.60536 11.2929 9.79289C11.1054 9.98043 11 10.2348 11 10.5V12.39C10.7736 12.5925 10.614 12.859 10.5423 13.1542C10.4707 13.4495 10.4904 13.7595 10.5988 14.0433C10.7072 14.3271 10.8992 14.5712 11.1494 14.7435C11.3996 14.9158 11.6962 15.008 12 15.008C12.3038 15.008 12.6004 14.9158 12.8507 14.7435C13.1009 14.5712 13.2929 14.3271 13.4013 14.0433C13.5097 13.7595 13.5294 13.4495 13.4577 13.1542C13.3861 12.859 13.2265 12.5925 13 12.39V10.5Z" />
</symbol><symbol viewBox="0 0 24 24" id="time-watch">
<path d="M11 2C9.02219 2 7.08879 2.58649 5.4443 3.6853C3.79981 4.78412 2.51809 6.3459 1.76121 8.17317C1.00433 10.0004 0.806299 12.0111 1.19215 13.9509C1.578 15.8907 2.53041 17.6725 3.92894 19.0711C5.32746 20.4696 7.10929 21.422 9.0491 21.8079C10.9889 22.1937 12.9996 21.9957 14.8268 21.2388C16.6541 20.4819 18.2159 19.2002 19.3147 17.5557C20.4135 15.9112 21 13.9778 21 12C21 10.6868 20.7413 9.38642 20.2388 8.17317C19.7363 6.95991 18.9997 5.85752 18.0711 4.92893C17.1425 4.00035 16.0401 3.26375 14.8268 2.7612C13.6136 2.25866 12.3132 2 11 2ZM11 20C9.41775 20 7.87104 19.5308 6.55544 18.6518C5.23985 17.7727 4.21447 16.5233 3.60897 15.0615C3.00347 13.5997 2.84504 11.9911 3.15372 10.4393C3.4624 8.88743 4.22433 7.46197 5.34315 6.34315C6.46197 5.22433 7.88743 4.4624 9.43928 4.15372C10.9911 3.84504 12.5997 4.00346 14.0615 4.60896C15.5233 5.21447 16.7727 6.23984 17.6518 7.55544C18.5308 8.87103 19 10.4177 19 12C19 14.1217 18.1572 16.1566 16.6569 17.6569C15.1566 19.1571 13.1217 20 11 20ZM14.1 12.63L12 11.42V7C12 6.73478 11.8946 6.48043 11.7071 6.29289C11.5196 6.10536 11.2652 6 11 6C10.7348 6 10.4804 6.10536 10.2929 6.29289C10.1054 6.48043 10 6.73478 10 7V12C10 12 10 12.08 10 12.12C10.0059 12.1889 10.0228 12.2564 10.05 12.32C10.0706 12.3793 10.0974 12.4363 10.13 12.49C10.1574 12.5468 10.1909 12.6005 10.23 12.65L10.39 12.78L10.48 12.87L13.08 14.37C13.2324 14.4564 13.4048 14.5012 13.58 14.5C13.8014 14.5015 14.0171 14.4296 14.1932 14.2953C14.3693 14.1611 14.4959 13.9722 14.5531 13.7583C14.6103 13.5444 14.5948 13.3176 14.5092 13.1134C14.4236 12.9092 14.2726 12.7392 14.08 12.63H14.1Z" />
</symbol></defs></svg>