<svg width="24" height="24" viewBox="0 0 24 24" xmlns="http://www.w3.org/2000/svg">
<path d="M17.34 5.46a1.202 1.202 0 0 0-1.177 1.434A1.199 1.199 0 1 0 17.34 5.46Zm4.6 2.42a7.578 7.578 0 0 0-.46-2.43 4.933 4.933 0 0 0-1.16-1.77 4.688 4.688 0 0 0-1.77-1.15 7.288 7.288 0 0 0-2.43-.47C15.06 2 14.72 2 12 2s-3.06 0-4.12.06a7.288 7.288 0 0 0-2.43.47 4.793 4.793 0 0 0-1.77 1.15 4.688 4.688 0 0 0-1.15 1.77 7.288 7.288 0 0 0-.47 2.43C2 8.94 2 9.28 2 12s0 3.06.06 4.12c.017.831.176 1.653.47 2.43.244.67.637 1.275 1.15 1.77.497.51 1.102.903 1.77 1.15a7.288 7.288 0 0 0 2.43.47C8.94 22 9.28 22 12 22s3.06 0 4.12-.06a7.288 7.288 0 0 0 2.43-.47 4.688 4.688 0 0 0 1.77-1.15 4.855 4.855 0 0 0 1.16-1.77c.285-.779.441-1.6.46-2.43 0-1.06.06-1.4.06-4.12s0-3.06-.06-4.12ZM20.14 16a5.594 5.594 0 0 1-.34 1.86c-.16.435-.416.828-.75 1.15a3.188 3.188 0 0 1-1.15.75 5.594 5.594 0 0 1-1.86.34c-1 .05-1.37.06-4 .06s-3 0-4-.06a5.737 5.737 0 0 1-1.94-.3 3.267 3.267 0 0 1-1.1-.75 3 3 0 0 1-.74-1.15 5.533 5.533 0 0 1-.4-1.9c0-1-.06-1.37-.06-4s0-3 .06-4a5.53 5.53 0 0 1 .35-1.9A3 3 0 0 1 5 5a3.136 3.136 0 0 1 1.1-.8A5.729 5.729 0 0 1 8 3.86c1 0 1.37-.06 4-.06s3 0 4 .06a5.594 5.594 0 0 1 1.86.34 3.07 3.07 0 0 1 1.19.8c.328.307.584.683.75 1.1.222.609.337 1.252.34 1.9.05 1 .06 1.37.06 4s-.01 3-.06 4ZM12 6.87a5.12 5.12 0 0 0-4.732 3.174 5.128 5.128 0 0 0 6.707 6.694A5.126 5.126 0 0 0 17.14 12a5.126 5.126 0 0 0-3.172-4.745A5.109 5.109 0 0 0 12 6.87Zm0 8.46a3.329 3.329 0 0 1-.65-6.596 3.326 3.326 0 0 1 3.419 1.416A3.329 3.329 0 0 1 12 15.33Z"/>
</svg>
