<svg width="24" height="24" viewBox="0 0 24 24" xmlns="http://www.w3.org/2000/svg">
<path d="M18.4196 8.22C17.8086 6.81601 16.7541 5.65108 15.4177 4.90373C14.0813 4.15638 12.5367 3.86783 11.0206 4.08231C9.50452 4.29679 8.10057 5.00245 7.0239 6.09118C5.94723 7.1799 5.25723 8.59162 5.05965 10.11C4.10623 10.3383 3.26987 10.9088 2.70938 11.7132C2.1489 12.5175 1.90333 13.4997 2.01931 14.4732C2.13529 15.4467 2.60474 16.3437 3.33851 16.9939C4.07229 17.644 5.01928 18.0021 5.99965 18C6.26486 18 6.51922 17.8946 6.70675 17.7071C6.89429 17.5196 6.99965 17.2652 6.99965 17C6.99965 16.7348 6.89429 16.4804 6.70675 16.2929C6.51922 16.1054 6.26486 16 5.99965 16C5.46921 16 4.96051 15.7893 4.58543 15.4142C4.21036 15.0391 3.99965 14.5304 3.99965 14C3.99965 13.4696 4.21036 12.9609 4.58543 12.5858C4.96051 12.2107 5.46921 12 5.99965 12C6.26486 12 6.51922 11.8946 6.70675 11.7071C6.89429 11.5196 6.99965 11.2652 6.99965 11C7.0022 9.81728 7.42393 8.67376 8.18992 7.77259C8.9559 6.87142 10.0165 6.27095 11.1834 6.07788C12.3503 5.8848 13.5478 6.11161 14.5632 6.71801C15.5787 7.32441 16.3463 8.27114 16.7296 9.39C16.7868 9.56184 16.8896 9.71493 17.0269 9.83294C17.1643 9.95094 17.3312 10.0294 17.5096 10.06C18.1757 10.1859 18.7795 10.5336 19.2227 11.0465C19.6658 11.5595 19.9222 12.2074 19.95 12.8846C19.9779 13.5619 19.7755 14.2287 19.3759 14.7762C18.9764 15.3238 18.4031 15.7199 17.7496 15.9C17.4924 15.9663 17.272 16.1321 17.137 16.3609C17.0019 16.5897 16.9633 16.8627 17.0296 17.12C17.096 17.3773 17.2617 17.5976 17.4905 17.7327C17.7193 17.8677 17.9924 17.9063 18.2496 17.84C19.302 17.5619 20.2349 16.948 20.9067 16.0915C21.5784 15.2349 21.9522 14.1826 21.9715 13.0943C21.9907 12.0059 21.6543 10.941 21.0132 10.0613C20.3722 9.1816 19.4616 8.5351 18.4196 8.22ZM14.7096 14.29C14.6167 14.1963 14.5061 14.1219 14.3842 14.0711C14.2624 14.0203 14.1317 13.9942 13.9996 13.9942C13.8676 13.9942 13.7369 14.0203 13.6151 14.0711C13.4932 14.1219 13.3826 14.1963 13.2896 14.29L11.9996 15.59L10.7096 14.29C10.5213 14.1017 10.2659 13.9959 9.99965 13.9959C9.73334 13.9959 9.47795 14.1017 9.28965 14.29C9.10134 14.4783 8.99555 14.7337 8.99555 15C8.99555 15.2663 9.10134 15.5217 9.28965 15.71L10.5896 17L9.28965 18.29C9.19592 18.383 9.12152 18.4936 9.07076 18.6154C9.01999 18.7373 8.99385 18.868 8.99385 19C8.99385 19.132 9.01999 19.2627 9.07076 19.3846C9.12152 19.5064 9.19592 19.617 9.28965 19.71C9.38261 19.8037 9.49321 19.8781 9.61507 19.9289C9.73693 19.9797 9.86763 20.0058 9.99965 20.0058C10.1317 20.0058 10.2624 19.9797 10.3842 19.9289C10.5061 19.8781 10.6167 19.8037 10.7096 19.71L11.9996 18.41L13.2896 19.71C13.3826 19.8037 13.4932 19.8781 13.6151 19.9289C13.7369 19.9797 13.8676 20.0058 13.9996 20.0058C14.1317 20.0058 14.2624 19.9797 14.3842 19.9289C14.5061 19.8781 14.6167 19.8037 14.7096 19.71C14.8034 19.617 14.8778 19.5064 14.9285 19.3846C14.9793 19.2627 15.0054 19.132 15.0054 19C15.0054 18.868 14.9793 18.7373 14.9285 18.6154C14.8778 18.4936 14.8034 18.383 14.7096 18.29L13.4096 17L14.7096 15.71C14.8034 15.617 14.8778 15.5064 14.9285 15.3846C14.9793 15.2627 15.0054 15.132 15.0054 15C15.0054 14.868 14.9793 14.7373 14.9285 14.6154C14.8778 14.4936 14.8034 14.383 14.7096 14.29Z" />
</svg>
