<svg width="24" height="24" viewBox="0 0 24 24" xmlns="http://www.w3.org/2000/svg">
<path d="M22.5001 14.5C22.5001 13.9696 22.2894 13.4609 21.9143 13.0858C21.5393 12.7107 21.0306 12.5 20.5001 12.5H14.5001C13.9697 12.5 13.461 12.7107 13.0859 13.0858C12.7108 13.4609 12.5001 13.9696 12.5001 14.5H9.50012V11.5H11.8301C12.6991 11.5014 13.5403 11.1936 14.2031 10.6317C14.8659 10.0697 15.3072 9.2902 15.4479 8.43267C15.5886 7.57513 15.4196 6.69551 14.9712 5.95117C14.5227 5.20683 13.824 4.64635 13.0001 4.37C12.5428 3.41644 11.795 2.63242 10.8641 2.13065C9.93316 1.62888 8.86712 1.4352 7.81919 1.57744C6.77127 1.71968 5.79543 2.19052 5.03195 2.92229C4.26847 3.65405 3.75667 4.60905 3.57012 5.65C2.8929 5.87258 2.31708 6.32904 1.94582 6.93759C1.57456 7.54614 1.43213 8.267 1.54405 8.97102C1.65597 9.67503 2.01492 10.3162 2.5566 10.7796C3.09827 11.243 3.78726 11.4984 4.50012 11.5H7.50012V19.5C7.50012 19.7652 7.60547 20.0196 7.79301 20.2071C7.98055 20.3946 8.2349 20.5 8.50012 20.5H12.5001C12.5001 21.0304 12.7108 21.5391 13.0859 21.9142C13.461 22.2893 13.9697 22.5 14.5001 22.5H20.5001C21.0306 22.5 21.5393 22.2893 21.9143 21.9142C22.2894 21.5391 22.5001 21.0304 22.5001 20.5V18.5C22.4965 18.1478 22.3999 17.8029 22.2201 17.5C22.3999 17.1971 22.4965 16.8522 22.5001 16.5V14.5ZM4.50012 9.5C4.2349 9.5 3.98055 9.39464 3.79301 9.20711C3.60547 9.01957 3.50012 8.76522 3.50012 8.5C3.50012 8.23478 3.60547 7.98043 3.79301 7.79289C3.98055 7.60536 4.2349 7.5 4.50012 7.5C4.76533 7.5 5.01969 7.39464 5.20722 7.20711C5.39476 7.01957 5.50012 6.76522 5.50012 6.5C5.49205 5.78636 5.73866 5.09321 6.19567 4.54504C6.65268 3.99686 7.29014 3.62957 7.99359 3.50912C8.69705 3.38866 9.4204 3.52294 10.0338 3.88783C10.6471 4.25272 11.1103 4.82433 11.3401 5.5C11.3988 5.66998 11.5022 5.82099 11.6395 5.93714C11.7767 6.05329 11.9428 6.13028 12.1201 6.16C12.5129 6.22502 12.869 6.42988 13.1226 6.7368C13.3762 7.04371 13.5103 7.43198 13.5001 7.83C13.5001 8.27291 13.3242 8.69768 13.011 9.01087C12.6978 9.32405 12.273 9.5 11.8301 9.5H4.50012ZM12.5001 18.5H9.50012V16.5H12.5001C12.5038 16.8522 12.6004 17.1971 12.7801 17.5C12.6004 17.8029 12.5038 18.1478 12.5001 18.5ZM14.5001 20.5V18.5H20.5001V20.5H14.5001ZM14.5001 16.5V14.5H20.5001V16.5H14.5001Z" />
</svg>
