<svg width="24" height="24" viewBox="0 0 24 24" xmlns="http://www.w3.org/2000/svg">
<path d="M18.4196 8.22C17.8086 6.81601 16.7541 5.65108 15.4177 4.90373C14.0813 4.15638 12.5367 3.86783 11.0206 4.08231C9.50452 4.29679 8.10057 5.00245 7.0239 6.09118C5.94723 7.1799 5.25723 8.59162 5.05965 10.11C4.10623 10.3383 3.26987 10.9088 2.70938 11.7132C2.1489 12.5175 1.90333 13.4997 2.01931 14.4732C2.13529 15.4467 2.60474 16.3437 3.33851 16.9939C4.07229 17.644 5.01928 18.0021 5.99965 18H7.99965C8.26486 18 8.51922 17.8946 8.70675 17.7071C8.89429 17.5196 8.99965 17.2652 8.99965 17C8.99965 16.7348 8.89429 16.4804 8.70675 16.2929C8.51922 16.1054 8.26486 16 7.99965 16H5.99965C5.46921 16 4.96051 15.7893 4.58543 15.4142C4.21036 15.0391 3.99965 14.5304 3.99965 14C3.99965 13.4696 4.21036 12.9609 4.58543 12.5858C4.96051 12.2107 5.46921 12 5.99965 12C6.26486 12 6.51922 11.8946 6.70675 11.7071C6.89429 11.5196 6.99965 11.2652 6.99965 11C7.0022 9.81728 7.42393 8.67376 8.18992 7.77259C8.9559 6.87142 10.0165 6.27095 11.1834 6.07788C12.3503 5.8848 13.5478 6.11161 14.5632 6.71801C15.5787 7.32441 16.3463 8.27114 16.7296 9.39C16.7868 9.56184 16.8896 9.71493 17.0269 9.83294C17.1643 9.95094 17.3312 10.0294 17.5096 10.06C18.2038 10.1797 18.8337 10.5399 19.289 11.0775C19.7442 11.615 19.9958 12.2956 19.9996 13C19.9996 13.7957 19.6836 14.5587 19.121 15.1213C18.5584 15.6839 17.7953 16 16.9996 16C16.7344 16 16.4801 16.1054 16.2925 16.2929C16.105 16.4804 15.9996 16.7348 15.9996 17C15.9996 17.2652 16.105 17.5196 16.2925 17.7071C16.4801 17.8946 16.7344 18 16.9996 18C18.1933 17.989 19.3436 17.5513 20.2426 16.7661C21.1416 15.9809 21.7301 14.8999 21.9016 13.7187C22.0731 12.5374 21.8164 11.3337 21.1778 10.3252C20.5392 9.31675 19.5608 8.57002 18.4196 8.22ZM12.9196 18.62C12.8997 18.5586 12.8692 18.5011 12.8296 18.45L12.7096 18.29C12.6124 18.2017 12.5008 18.1306 12.3796 18.08C12.1975 18.0034 11.9968 17.9825 11.8028 18.0199C11.6088 18.0572 11.4303 18.1512 11.2896 18.29L11.1696 18.45C11.1301 18.5011 11.0996 18.5586 11.0796 18.62C11.0508 18.6767 11.0306 18.7374 11.0196 18.8C11.0152 18.8666 11.0152 18.9334 11.0196 19C11.0147 19.0632 11.0147 19.1268 11.0196 19.19C11.0289 19.2562 11.0492 19.3205 11.0796 19.38C11.0996 19.4414 11.1301 19.4989 11.1696 19.55L11.2896 19.71C11.4813 19.8927 11.7349 19.9963 11.9996 20C12.1303 19.9984 12.2594 19.9712 12.3796 19.92C12.5008 19.8694 12.6124 19.7983 12.7096 19.71L12.8296 19.55C12.8692 19.4989 12.8997 19.4414 12.9196 19.38C12.9501 19.3205 12.9704 19.2562 12.9796 19.19C12.9912 19.1273 12.9979 19.0638 12.9996 19C13.0041 18.9334 13.0041 18.8666 12.9996 18.8C12.9824 18.7362 12.9554 18.6755 12.9196 18.62ZM11.9996 11C11.4727 10.9997 10.955 11.1381 10.4986 11.4014C10.0421 11.6648 9.66311 12.0437 9.39965 12.5C9.33353 12.6141 9.29064 12.7402 9.27346 12.871C9.25627 13.0018 9.26513 13.1347 9.29952 13.262C9.33392 13.3893 9.39316 13.5086 9.47384 13.613C9.55453 13.7173 9.65506 13.8047 9.76965 13.87C9.99926 14.0004 10.2711 14.0346 10.5259 13.9653C10.7807 13.896 10.9977 13.7287 11.1296 13.5C11.2178 13.3474 11.3446 13.2208 11.4974 13.133C11.6502 13.0452 11.8234 12.9993 11.9996 13C12.2649 13 12.5192 13.1054 12.7068 13.2929C12.8943 13.4804 12.9996 13.7348 12.9996 14C12.9996 14.2652 12.8943 14.5196 12.7068 14.7071C12.5192 14.8946 12.2649 15 11.9996 15C11.7344 15 11.4801 15.1054 11.2925 15.2929C11.105 15.4804 10.9996 15.7348 10.9996 16C10.9996 16.2652 11.105 16.5196 11.2925 16.7071C11.4801 16.8946 11.7344 17 11.9996 17C12.7953 17 13.5584 16.6839 14.121 16.1213C14.6836 15.5587 14.9996 14.7957 14.9996 14C14.9996 13.2044 14.6836 12.4413 14.121 11.8787C13.5584 11.3161 12.7953 11 11.9996 11Z" />
</svg>
