<svg width="24" height="24" viewBox="0 0 24 24" xmlns="http://www.w3.org/2000/svg">
<path d="M18.4196 8.22C17.8086 6.816 16.7541 5.65108 15.4177 4.90373C14.0813 4.15638 12.5367 3.86783 11.0206 4.08231C9.50452 4.29679 8.10057 5.00245 7.0239 6.09118C5.94723 7.1799 5.25723 8.59161 5.05965 10.11C4.10623 10.3383 3.26987 10.9088 2.70938 11.7132C2.1489 12.5175 1.90333 13.4997 2.01931 14.4732C2.13529 15.4467 2.60474 16.3437 3.33851 16.9939C4.07229 17.644 5.01928 18.0021 5.99965 18C6.26486 18 6.51922 17.8946 6.70675 17.7071C6.89429 17.5196 6.99965 17.2652 6.99965 17C6.99965 16.7348 6.89429 16.4804 6.70675 16.2929C6.51922 16.1054 6.26486 16 5.99965 16C5.46921 16 4.96051 15.7893 4.58543 15.4142C4.21036 15.0391 3.99965 14.5304 3.99965 14C3.99965 13.4696 4.21036 12.9609 4.58543 12.5858C4.96051 12.2107 5.46921 12 5.99965 12C6.26486 12 6.51922 11.8946 6.70675 11.7071C6.89429 11.5196 6.99965 11.2652 6.99965 11C7.0022 9.81728 7.42393 8.67375 8.18992 7.77258C8.9559 6.87141 10.0165 6.27095 11.1834 6.07787C12.3503 5.8848 13.5478 6.11161 14.5632 6.71801C15.5787 7.32441 16.3463 8.27114 16.7296 9.39C16.7868 9.56184 16.8896 9.71493 17.0269 9.83293C17.1643 9.95093 17.3312 10.0294 17.5096 10.06C18.1757 10.1859 18.7795 10.5336 19.2227 11.0465C19.6658 11.5595 19.9222 12.2074 19.95 12.8846C19.9779 13.5619 19.7755 14.2287 19.3759 14.7762C18.9764 15.3238 18.4031 15.7199 17.7496 15.9C17.4924 15.9663 17.272 16.1321 17.137 16.3609C17.0019 16.5897 16.9633 16.8627 17.0296 17.12C17.096 17.3773 17.2617 17.5976 17.4905 17.7327C17.7193 17.8677 17.9924 17.9063 18.2496 17.84C19.302 17.5619 20.2349 16.948 20.9067 16.0915C21.5784 15.2349 21.9522 14.1826 21.9715 13.0943C21.9907 12.0059 21.6543 10.941 21.0132 10.0613C20.3722 9.1816 19.4616 8.5351 18.4196 8.22ZM12.7096 10.29C12.6145 10.199 12.5024 10.1276 12.3796 10.08C12.1362 9.97998 11.8631 9.97998 11.6196 10.08C11.4969 10.1276 11.3847 10.199 11.2896 10.29L8.28965 13.29C8.10134 13.4783 7.99555 13.7337 7.99555 14C7.99555 14.2663 8.10134 14.5217 8.28965 14.71C8.47795 14.8983 8.73334 15.0041 8.99965 15.0041C9.26595 15.0041 9.52134 14.8983 9.70965 14.71L10.9996 13.41V19C10.9996 19.2652 11.105 19.5196 11.2925 19.7071C11.4801 19.8946 11.7344 20 11.9996 20C12.2649 20 12.5192 19.8946 12.7068 19.7071C12.8943 19.5196 12.9996 19.2652 12.9996 19V13.41L14.2896 14.71C14.3826 14.8037 14.4932 14.8781 14.6151 14.9289C14.7369 14.9797 14.8676 15.0058 14.9996 15.0058C15.1317 15.0058 15.2624 14.9797 15.3842 14.9289C15.5061 14.8781 15.6167 14.8037 15.7096 14.71C15.8034 14.617 15.8778 14.5064 15.9285 14.3846C15.9793 14.2627 16.0054 14.132 16.0054 14C16.0054 13.868 15.9793 13.7373 15.9285 13.6154C15.8778 13.4936 15.8034 13.383 15.7096 13.29L12.7096 10.29Z" />
</svg>
