<svg width="24" height="24" viewBox="0 0 24 24" xmlns="http://www.w3.org/2000/svg">
<path d="M11.24 13.14C11.1265 13.0735 11.0009 13.03 10.8705 13.0121C10.7402 12.9942 10.6075 13.0022 10.4803 13.0356C10.353 13.0691 10.2336 13.1273 10.1289 13.207C10.0241 13.2867 9.93617 13.3862 9.87 13.5C9.792 13.6328 9.68437 13.7458 9.5555 13.8302C9.42664 13.9146 9.28002 13.9681 9.12708 13.9865C8.97414 14.0049 8.81903 13.9877 8.67383 13.9363C8.52863 13.8848 8.39727 13.8006 8.29 13.69C8.19651 13.6013 8.12245 13.4942 8.07253 13.3755C8.0226 13.2567 7.99791 13.1288 8 13V11C7.99888 10.777 8.07234 10.56 8.2087 10.3835C8.34507 10.207 8.53652 10.0812 8.75261 10.026C8.9687 9.97086 9.19703 9.98951 9.40131 10.079C9.60559 10.1685 9.77408 10.3237 9.88 10.52C10.0169 10.7464 10.238 10.9093 10.4948 10.973C10.7516 11.0367 11.0231 10.9961 11.25 10.86C11.3634 10.7922 11.4623 10.7026 11.5409 10.5963C11.6195 10.49 11.6762 10.3692 11.7078 10.2409C11.7395 10.1126 11.7453 9.97927 11.7251 9.84866C11.7049 9.71805 11.659 9.59275 11.59 9.48C11.4612 9.26537 11.3067 9.06725 11.13 8.89C10.8513 8.60834 10.5196 8.38468 10.154 8.23192C9.78845 8.07917 9.39622 8.00034 9 8C8.20435 8 7.44129 8.31607 6.87868 8.87868C6.31607 9.44129 6 10.2044 6 11V13C6.00304 13.6578 6.22222 14.2964 6.6238 14.8175C7.02538 15.3385 7.5871 15.7132 8.22247 15.8836C8.85784 16.0541 9.53163 16.0111 10.1401 15.7611C10.7486 15.511 11.258 15.0679 11.59 14.5C11.7221 14.2728 11.7594 14.0027 11.6939 13.7482C11.6284 13.4937 11.4653 13.2752 11.24 13.14ZM17.24 13.14C17.1265 13.0735 17.0009 13.03 16.8705 13.0121C16.7402 12.9942 16.6075 13.0022 16.4803 13.0356C16.353 13.0691 16.2336 13.1273 16.1289 13.207C16.0241 13.2867 15.9362 13.3862 15.87 13.5C15.792 13.6328 15.6844 13.7458 15.5555 13.8302C15.4266 13.9146 15.28 13.9681 15.1271 13.9865C14.9741 14.0049 14.819 13.9877 14.6738 13.9363C14.5286 13.8848 14.3973 13.8006 14.29 13.69C14.1965 13.6013 14.1224 13.4942 14.0725 13.3755C14.0226 13.2567 13.9979 13.1288 14 13V11C13.9989 10.777 14.0723 10.56 14.2087 10.3835C14.3451 10.207 14.5365 10.0812 14.7526 10.026C14.9687 9.97086 15.197 9.98951 15.4013 10.079C15.6056 10.1685 15.7741 10.3237 15.88 10.52C16.0169 10.7464 16.238 10.9093 16.4948 10.973C16.7516 11.0367 17.0231 10.9961 17.25 10.86C17.3634 10.7922 17.4623 10.7026 17.5409 10.5963C17.6195 10.49 17.6762 10.3692 17.7078 10.2409C17.7395 10.1126 17.7453 9.97927 17.7251 9.84866C17.7049 9.71805 17.659 9.59275 17.59 9.48C17.4612 9.26537 17.3067 9.06725 17.13 8.89C16.8513 8.60834 16.5196 8.38468 16.154 8.23192C15.7884 8.07917 15.3962 8.00034 15 8C14.2044 8 13.4413 8.31607 12.8787 8.87868C12.3161 9.44129 12 10.2044 12 11V13C12.003 13.6578 12.2222 14.2964 12.6238 14.8175C13.0254 15.3385 13.5871 15.7132 14.2225 15.8836C14.8578 16.0541 15.5316 16.0111 16.1401 15.7611C16.7486 15.511 17.258 15.0679 17.59 14.5C17.7221 14.2728 17.7594 14.0027 17.6939 13.7482C17.6284 13.4937 17.4653 13.2752 17.24 13.14ZM12 2C10.0222 2 8.08879 2.58649 6.4443 3.6853C4.79981 4.78412 3.51809 6.3459 2.76121 8.17317C2.00433 10.0004 1.8063 12.0111 2.19215 13.9509C2.578 15.8907 3.53041 17.6725 4.92894 19.0711C6.32746 20.4696 8.10929 21.422 10.0491 21.8079C11.9889 22.1937 13.9996 21.9957 15.8268 21.2388C17.6541 20.4819 19.2159 19.2002 20.3147 17.5557C21.4135 15.9112 22 13.9778 22 12C22 10.6868 21.7413 9.38642 21.2388 8.17317C20.7363 6.95991 19.9997 5.85752 19.0711 4.92893C18.1425 4.00035 17.0401 3.26375 15.8268 2.7612C14.6136 2.25866 13.3132 2 12 2ZM12 20C10.4178 20 8.87104 19.5308 7.55544 18.6518C6.23985 17.7727 5.21447 16.5233 4.60897 15.0615C4.00347 13.5997 3.84504 11.9911 4.15372 10.4393C4.4624 8.88743 5.22433 7.46197 6.34315 6.34315C7.46197 5.22433 8.88743 4.4624 10.4393 4.15372C11.9911 3.84504 13.5997 4.00346 15.0615 4.60896C16.5233 5.21447 17.7727 6.23984 18.6518 7.55544C19.5308 8.87103 20 10.4177 20 12C20 14.1217 19.1572 16.1566 17.6569 17.6569C16.1566 19.1571 14.1217 20 12 20Z" />
</svg>
