<svg width="24" height="24" viewBox="0 0 24 24" xmlns="http://www.w3.org/2000/svg">
<path d="M17.1108 6.66294C16.7819 6.8827 16.3952 7 15.9996 7C15.4692 7 14.9605 6.78929 14.5854 6.41421C14.2103 6.03914 13.9996 5.53043 13.9996 5C13.9996 4.60444 14.1169 4.21776 14.3367 3.88886C14.5565 3.55996 14.8688 3.30362 15.2343 3.15224C15.5997 3.00087 16.0018 2.96126 16.3898 3.03843C16.7778 3.1156 17.1341 3.30608 17.4138 3.58579C17.6935 3.86549 17.884 4.22186 17.9612 4.60982C18.0384 4.99778 17.9988 5.39992 17.8474 5.76537C17.696 6.13082 17.4397 6.44318 17.1108 6.66294Z" />
<path d="M11.1729 19.615C11.7743 19.3422 12.2988 18.9248 12.6996 18.4C12.8588 18.1878 13.0957 18.0476 13.3582 18.0101C13.6208 17.9725 13.8875 18.0409 14.0996 18.2C14.3118 18.3591 14.4521 18.596 14.4896 18.8586C14.5271 19.1211 14.4588 19.3878 14.2996 19.6C13.7407 20.3452 13.016 20.95 12.1829 21.3666C11.3498 21.7831 10.4311 22 9.49963 22C7.90833 22.0888 6.34691 21.5419 5.15887 20.4795C3.97082 19.4171 3.25347 17.9263 3.16463 16.335C3.07578 14.7437 3.62271 13.1823 4.68511 11.9942C5.7475 10.8062 7.23833 10.0888 8.82963 10C9.09484 9.97083 9.36079 10.0482 9.56895 10.2151C9.77712 10.382 9.91045 10.6248 9.93963 10.89C9.9688 11.1552 9.89142 11.4212 9.72452 11.6293C9.55761 11.8375 9.31484 11.9708 9.04963 12C8.39386 12.0778 7.76754 12.3167 7.22658 12.6954C6.68562 13.0742 6.24684 13.5809 5.94941 14.1705C5.65197 14.7601 5.50513 15.4142 5.522 16.0743C5.53886 16.7345 5.7189 17.3802 6.04605 17.9538C6.3732 18.5274 6.83728 19.0111 7.39687 19.3618C7.95647 19.7124 8.59416 19.919 9.25305 19.9632C9.91193 20.0074 10.5715 19.8878 11.1729 19.615Z" />
</svg>
