<svg width="24" height="24" viewBox="0 0 24 24" xmlns="http://www.w3.org/2000/svg">
<path d="M12 2C10.0222 2 8.08879 2.58649 6.4443 3.6853C4.79981 4.78412 3.51809 6.3459 2.76121 8.17317C2.00433 10.0004 1.8063 12.0111 2.19215 13.9509C2.578 15.8907 3.53041 17.6725 4.92894 19.0711C6.32746 20.4696 8.10929 21.422 10.0491 21.8079C11.9889 22.1937 13.9996 21.9957 15.8268 21.2388C17.6541 20.4819 19.2159 19.2002 20.3147 17.5557C21.4135 15.9112 22 13.9778 22 12C22 10.6868 21.7413 9.38642 21.2388 8.17317C20.7363 6.95991 19.9997 5.85752 19.0711 4.92893C18.1425 4.00035 17.0401 3.26375 15.8268 2.7612C14.6136 2.25866 13.3132 2 12 2ZM12 20C9.87827 20 7.84344 19.1571 6.34315 17.6569C4.84286 16.1566 4 14.1217 4 12C3.9978 10.2233 4.59302 8.49755 5.69 7.1L7.2 8.61C6.82876 8.88843 6.52718 9.24918 6.31895 9.66389C6.11073 10.0786 6.00155 10.536 6 11V13C6.00304 13.6578 6.22222 14.2964 6.6238 14.8175C7.02538 15.3385 7.5871 15.7132 8.22247 15.8836C8.85784 16.0541 9.53163 16.0111 10.1401 15.7611C10.7486 15.511 11.258 15.0679 11.59 14.5C11.6723 14.3868 11.7299 14.2577 11.7592 14.1208C11.7884 13.984 11.7886 13.8426 11.7598 13.7056C11.7309 13.5687 11.6737 13.4394 11.5917 13.326C11.5097 13.2126 11.4048 13.1177 11.2839 13.0473C11.1629 12.977 11.0285 12.9328 10.8894 12.9177C10.7503 12.9026 10.6096 12.9168 10.4763 12.9595C10.3431 13.0021 10.2203 13.0723 10.1158 13.1654C10.0114 13.2585 9.92763 13.3725 9.87 13.5C9.792 13.6328 9.68437 13.7458 9.5555 13.8302C9.42664 13.9146 9.28002 13.9681 9.12708 13.9865C8.97414 14.0049 8.81903 13.9877 8.67383 13.9363C8.52863 13.8848 8.39727 13.8006 8.29 13.69C8.19651 13.6013 8.12245 13.4942 8.07253 13.3755C8.0226 13.2567 7.99791 13.1288 8 13V11C8.0049 10.7967 8.07165 10.5998 8.19136 10.4354C8.31106 10.271 8.47803 10.147 8.67 10.08L12 13.46C12.0926 14.1008 12.39 14.6944 12.8478 15.1522C13.3056 15.61 13.8992 15.9074 14.54 16L16.9 18.36C15.4959 19.4391 13.7708 20.0165 12 20ZM18.31 16.9L16.79 15.38C17.1138 15.1442 17.3861 14.8448 17.59 14.5C17.6723 14.3868 17.7299 14.2577 17.7592 14.1208C17.7884 13.984 17.7886 13.8426 17.7598 13.7056C17.7309 13.5687 17.6737 13.4394 17.5917 13.326C17.5097 13.2126 17.4048 13.1177 17.2839 13.0473C17.1629 12.977 17.0285 12.9328 16.8894 12.9177C16.7503 12.9026 16.6096 12.9168 16.4763 12.9595C16.3431 13.0021 16.2203 13.0723 16.1158 13.1654C16.0114 13.2585 15.9276 13.3725 15.87 13.5C15.7407 13.6972 15.5459 13.8425 15.32 13.91L14 12.59V11C13.9989 10.777 14.0723 10.56 14.2087 10.3835C14.3451 10.207 14.5365 10.0812 14.7526 10.026C14.9687 9.97086 15.197 9.98951 15.4013 10.079C15.6056 10.1685 15.7741 10.3237 15.88 10.52C16.0169 10.7464 16.238 10.9093 16.4948 10.973C16.7516 11.0367 17.0231 10.9961 17.25 10.86C17.3634 10.7922 17.4623 10.7026 17.5409 10.5963C17.6195 10.49 17.6762 10.3692 17.7078 10.2409C17.7395 10.1126 17.7453 9.97927 17.7251 9.84866C17.7049 9.71805 17.659 9.59275 17.59 9.48C17.4612 9.26537 17.3067 9.06725 17.13 8.89C16.7354 8.48383 16.2339 8.19765 15.6835 8.06453C15.1331 7.93141 14.5562 7.9568 14.0196 8.13776C13.483 8.31871 13.0086 8.64785 12.6512 9.08711C12.2938 9.52637 12.068 10.0578 12 10.62L11.65 10.27C11.6883 10.1385 11.6992 10.0005 11.682 9.86462C11.6648 9.72872 11.6199 9.59781 11.55 9.48C11.4212 9.26537 11.2667 9.06725 11.09 8.89C10.6396 8.43577 10.0532 8.14086 9.42 8.05L7.1 5.69C8.49755 4.59302 10.2233 3.99779 12 4C14.1217 4 16.1566 4.84285 17.6569 6.34315C19.1572 7.84344 20 9.87827 20 12C20.0022 13.7767 19.407 15.5025 18.31 16.9Z" />
</svg>
