<svg width="24" height="24" viewBox="0 0 24 24" xmlns="http://www.w3.org/2000/svg">
<path d="M5.5 9H9.5C9.76522 9 10.0196 8.89464 10.2071 8.70711C10.3946 8.51957 10.5 8.26522 10.5 8C10.5 7.73478 10.3946 7.48043 10.2071 7.29289C10.0196 7.10536 9.76522 7 9.5 7H5.5C4.70435 7 3.94129 7.31607 3.37868 7.87868C2.81607 8.44129 2.5 9.20435 2.5 10C2.5 10.7956 2.81607 11.5587 3.37868 12.1213C3.94129 12.6839 4.70435 13 5.5 13H7.5C7.76522 13 8.01957 13.1054 8.20711 13.2929C8.39464 13.4804 8.5 13.7348 8.5 14C8.5 14.2652 8.39464 14.5196 8.20711 14.7071C8.01957 14.8946 7.76522 15 7.5 15H3.5C3.23478 15 2.98043 15.1054 2.79289 15.2929C2.60536 15.4804 2.5 15.7348 2.5 16C2.5 16.2652 2.60536 16.5196 2.79289 16.7071C2.98043 16.8946 3.23478 17 3.5 17H7.5C8.29565 17 9.05871 16.6839 9.62132 16.1213C10.1839 15.5587 10.5 14.7956 10.5 14C10.5 13.2044 10.1839 12.4413 9.62132 11.8787C9.05871 11.3161 8.29565 11 7.5 11H5.5C5.23478 11 4.98043 10.8946 4.79289 10.7071C4.60536 10.5196 4.5 10.2652 4.5 10C4.5 9.73478 4.60536 9.48043 4.79289 9.29289C4.98043 9.10536 5.23478 9 5.5 9ZM21.42 7.62C21.3185 7.37565 21.1243 7.18147 20.88 7.08C20.6365 6.97998 20.3635 6.97998 20.12 7.08C19.9972 7.12759 19.8851 7.19896 19.79 7.29L17 10.09L14.21 7.29C14.1149 7.19896 14.0028 7.12759 13.88 7.08C13.6365 6.97998 13.3635 6.97998 13.12 7.08C12.8757 7.18147 12.6815 7.37565 12.58 7.62C12.5288 7.74022 12.5016 7.86932 12.5 8V16C12.5 16.2652 12.6054 16.5196 12.7929 16.7071C12.9804 16.8946 13.2348 17 13.5 17C13.7652 17 14.0196 16.8946 14.2071 16.7071C14.3946 16.5196 14.5 16.2652 14.5 16V10.41L16.29 12.21C16.383 12.3037 16.4936 12.3781 16.6154 12.4289C16.7373 12.4797 16.868 12.5058 17 12.5058C17.132 12.5058 17.2627 12.4797 17.3846 12.4289C17.5064 12.3781 17.617 12.3037 17.71 12.21L19.5 10.41V16C19.5 16.2652 19.6054 16.5196 19.7929 16.7071C19.9804 16.8946 20.2348 17 20.5 17C20.7652 17 21.0196 16.8946 21.2071 16.7071C21.3946 16.5196 21.5 16.2652 21.5 16V8C21.4984 7.86932 21.4712 7.74022 21.42 7.62Z" />
</svg>
