<svg width="24" height="24" viewBox="0 0 24 24" xmlns="http://www.w3.org/2000/svg">
<path d="M9.5 7H3.5C3.23478 7 2.98043 7.10536 2.79289 7.29289C2.60536 7.48043 2.5 7.73478 2.5 8C2.5 8.26522 2.60536 8.51957 2.79289 8.70711C2.98043 8.89464 3.23478 9 3.5 9H5.5V16C5.5 16.2652 5.60536 16.5196 5.79289 16.7071C5.98043 16.8946 6.23478 17 6.5 17C6.76522 17 7.01957 16.8946 7.20711 16.7071C7.39464 16.5196 7.5 16.2652 7.5 16V9H9.5C9.76522 9 10.0196 8.89464 10.2071 8.70711C10.3946 8.51957 10.5 8.26522 10.5 8C10.5 7.73478 10.3946 7.48043 10.2071 7.29289C10.0196 7.10536 9.76522 7 9.5 7ZM21.42 7.62C21.3185 7.37565 21.1243 7.18147 20.88 7.08C20.6365 6.97998 20.3635 6.97998 20.12 7.08C19.9972 7.12759 19.8851 7.19896 19.79 7.29L17 10.09L14.21 7.29C14.1149 7.19896 14.0028 7.12759 13.88 7.08C13.6365 6.97998 13.3635 6.97998 13.12 7.08C12.8757 7.18147 12.6815 7.37565 12.58 7.62C12.5288 7.74022 12.5016 7.86932 12.5 8V16C12.5 16.2652 12.6054 16.5196 12.7929 16.7071C12.9804 16.8946 13.2348 17 13.5 17C13.7652 17 14.0196 16.8946 14.2071 16.7071C14.3946 16.5196 14.5 16.2652 14.5 16V10.41L16.29 12.21C16.383 12.3037 16.4936 12.3781 16.6154 12.4289C16.7373 12.4797 16.868 12.5058 17 12.5058C17.132 12.5058 17.2627 12.4797 17.3846 12.4289C17.5064 12.3781 17.617 12.3037 17.71 12.21L19.5 10.41V16C19.5 16.2652 19.6054 16.5196 19.7929 16.7071C19.9804 16.8946 20.2348 17 20.5 17C20.7652 17 21.0196 16.8946 21.2071 16.7071C21.3946 16.5196 21.5 16.2652 21.5 16V8C21.4984 7.86932 21.4712 7.74022 21.42 7.62Z" />
</svg>
