<svg width="24" height="24" viewBox="0 0 24 24" xmlns="http://www.w3.org/2000/svg">
<path d="M10 9H7C6.73479 9 6.48043 9.10536 6.2929 9.29289C6.10536 9.48043 6 9.73478 6 10C6 10.2652 6.10536 10.5196 6.2929 10.7071C6.48043 10.8946 6.73479 11 7 11H7.5V14C7.5 14.2652 7.60536 14.5196 7.7929 14.7071C7.98043 14.8946 8.23479 15 8.5 15C8.76522 15 9.01957 14.8946 9.20711 14.7071C9.39465 14.5196 9.5 14.2652 9.5 14V11H10C10.2652 11 10.5196 10.8946 10.7071 10.7071C10.8946 10.5196 11 10.2652 11 10C11 9.73478 10.8946 9.48043 10.7071 9.29289C10.5196 9.10536 10.2652 9 10 9ZM17.38 9.08C17.1979 9.00342 16.9972 8.9825 16.8032 9.01987C16.6092 9.05725 16.4306 9.15124 16.29 9.29L15 10.59L13.71 9.29C13.5694 9.15124 13.3908 9.05725 13.1968 9.01987C13.0028 8.9825 12.8021 9.00342 12.62 9.08C12.4374 9.15502 12.2811 9.28242 12.1707 9.44614C12.0604 9.60986 12.001 9.80257 12 10V14C12 14.2652 12.1054 14.5196 12.2929 14.7071C12.4804 14.8946 12.7348 15 13 15C13.2652 15 13.5196 14.8946 13.7071 14.7071C13.8946 14.5196 14 14.2652 14 14V12.41L14.29 12.71C14.383 12.8037 14.4936 12.8781 14.6154 12.9289C14.7373 12.9797 14.868 13.0058 15 13.0058C15.132 13.0058 15.2627 12.9797 15.3846 12.9289C15.5064 12.8781 15.617 12.8037 15.71 12.71L16 12.41V14C16 14.2652 16.1054 14.5196 16.2929 14.7071C16.4804 14.8946 16.7348 15 17 15C17.2652 15 17.5196 14.8946 17.7071 14.7071C17.8946 14.5196 18 14.2652 18 14V10C17.999 9.80257 17.9396 9.60986 17.8293 9.44614C17.719 9.28242 17.5626 9.15502 17.38 9.08ZM12 2C10.0222 2 8.08879 2.58649 6.4443 3.6853C4.79981 4.78412 3.51809 6.3459 2.76121 8.17317C2.00433 10.0004 1.8063 12.0111 2.19215 13.9509C2.578 15.8907 3.53041 17.6725 4.92894 19.0711C6.32746 20.4696 8.10929 21.422 10.0491 21.8079C11.9889 22.1937 13.9996 21.9957 15.8268 21.2388C17.6541 20.4819 19.2159 19.2002 20.3147 17.5557C21.4135 15.9112 22 13.9778 22 12C22 10.6868 21.7413 9.38642 21.2388 8.17317C20.7363 6.95991 19.9997 5.85752 19.0711 4.92893C18.1425 4.00035 17.0401 3.26375 15.8268 2.7612C14.6136 2.25866 13.3132 2 12 2ZM12 20C10.4178 20 8.87104 19.5308 7.55544 18.6518C6.23985 17.7727 5.21447 16.5233 4.60897 15.0615C4.00347 13.5997 3.84504 11.9911 4.15372 10.4393C4.4624 8.88743 5.22433 7.46197 6.34315 6.34315C7.46197 5.22433 8.88743 4.4624 10.4393 4.15372C11.9911 3.84504 13.5997 4.00346 15.0615 4.60896C16.5233 5.21447 17.7727 6.23984 18.6518 7.55544C19.5308 8.87103 20 10.4177 20 12C20 14.1217 19.1572 16.1566 17.6569 17.6569C16.1566 19.1571 14.1217 20 12 20Z" />
</svg>
