<svg width="24" height="24" viewBox="0 0 24 24" xmlns="http://www.w3.org/2000/svg">
<path d="M21.48 13.13C21.4741 13.0611 21.4572 12.9936 21.43 12.93C21.4094 12.8707 21.3826 12.8137 21.35 12.76C21.3226 12.7032 21.2891 12.6495 21.25 12.6L21.09 12.47L21 12.38L6.28 3.88C6.04926 3.74739 5.7753 3.71187 5.51837 3.78126C5.26145 3.85065 5.04261 4.01926 4.91 4.25C4.77739 4.48074 4.74188 4.7547 4.81126 5.01163C4.88065 5.26855 5.04926 5.48739 5.28 5.62L16.77 12.25H3.5C3.23478 12.25 2.98043 12.3554 2.79289 12.5429C2.60536 12.7304 2.5 12.9848 2.5 13.25V17.25C2.5 18.0456 2.81607 18.8087 3.37868 19.3713C3.94129 19.9339 4.70435 20.25 5.5 20.25H18.5C19.2956 20.25 20.0587 19.9339 20.6213 19.3713C21.1839 18.8087 21.5 18.0456 21.5 17.25V13.25C21.5 13.25 21.48 13.17 21.48 13.13ZM19.48 17.25C19.48 17.5152 19.3746 17.7696 19.1871 17.9571C18.9996 18.1446 18.7452 18.25 18.48 18.25H5.5C5.23478 18.25 4.98043 18.1446 4.79289 17.9571C4.60536 17.7696 4.5 17.5152 4.5 17.25V14.25H19.5L19.48 17.25ZM16.48 17.25C16.6778 17.25 16.8711 17.1913 17.0356 17.0815C17.2 16.9716 17.3282 16.8154 17.4039 16.6327C17.4796 16.45 17.4994 16.2489 17.4608 16.0549C17.4222 15.8609 17.327 15.6827 17.1871 15.5429C17.0473 15.403 16.8691 15.3078 16.6751 15.2692C16.4811 15.2306 16.28 15.2504 16.0973 15.3261C15.9146 15.4018 15.7584 15.53 15.6485 15.6944C15.5386 15.8589 15.48 16.0522 15.48 16.25C15.48 16.383 15.5065 16.5147 15.558 16.6374C15.6095 16.76 15.6849 16.8711 15.7799 16.9643C15.8749 17.0574 15.9875 17.1306 16.1112 17.1797C16.2348 17.2288 16.367 17.2527 16.5 17.25H16.48Z" />
</svg>
