<svg width="24" height="24" viewBox="0 0 24 24" xmlns="http://www.w3.org/2000/svg">
<path d="M19 2H5C4.20435 2 3.44129 2.31607 2.87868 2.87868C2.31607 3.44129 2 4.20435 2 5V15C2 15.7956 2.31607 16.5587 2.87868 17.1213C3.44129 17.6839 4.20435 18 5 18H8V20H5C4.73478 20 4.48043 20.1054 4.29289 20.2929C4.10536 20.4804 4 20.7348 4 21C4 21.2652 4.10536 21.5196 4.29289 21.7071C4.48043 21.8946 4.73478 22 5 22H19C19.2652 22 19.5196 21.8946 19.7071 21.7071C19.8946 21.5196 20 21.2652 20 21C20 20.7348 19.8946 20.4804 19.7071 20.2929C19.5196 20.1054 19.2652 20 19 20H16V18H19C19.7956 18 20.5587 17.6839 21.1213 17.1213C21.6839 16.5587 22 15.7956 22 15V5C22 4.20435 21.6839 3.44129 21.1213 2.87868C20.5587 2.31607 19.7956 2 19 2ZM14 20H10V18H14V20ZM20 15C20 15.2652 19.8946 15.5196 19.7071 15.7071C19.5196 15.8946 19.2652 16 19 16H5C4.73478 16 4.48043 15.8946 4.29289 15.7071C4.10536 15.5196 4 15.2652 4 15V14H20V15ZM20 12H4V5C4 4.73478 4.10536 4.48043 4.29289 4.29289C4.48043 4.10536 4.73478 4 5 4H19C19.2652 4 19.5196 4.10536 19.7071 4.29289C19.8946 4.48043 20 4.73478 20 5V12Z" />
</svg>
