<svg width="24" height="24" viewBox="0 0 24 24" xmlns="http://www.w3.org/2000/svg">
<path d="M19 4.00001H17.55C17.4306 3.63532 17.244 3.29617 17 3.00001C16.717 2.68364 16.3702 2.43092 15.9823 2.25854C15.5945 2.08616 15.1744 1.99804 14.75 2.00001H9.27C8.8422 1.99519 8.41832 2.08193 8.02681 2.25441C7.63529 2.42688 7.28519 2.6811 7 3.00001C6.74885 3.29456 6.55547 3.63382 6.43 4.00001H5C4.20435 4.00001 3.44129 4.31608 2.87868 4.87869C2.31607 5.4413 2 6.20436 2 7.00001V19C2 19.7957 2.31607 20.5587 2.87868 21.1213C3.44129 21.6839 4.20435 22 5 22H19C19.7956 22 20.5587 21.6839 21.1213 21.1213C21.6839 20.5587 22 19.7957 22 19V7.00001C22 6.20436 21.6839 5.4413 21.1213 4.87869C20.5587 4.31608 19.7956 4.00001 19 4.00001ZM8.52 4.34001C8.61371 4.23334 8.72906 4.14785 8.85838 4.08922C8.9877 4.0306 9.12802 4.00019 9.27 4.00001H14.73C14.872 4.00019 15.0123 4.0306 15.1416 4.08922C15.2709 4.14785 15.3863 4.23334 15.48 4.34001C15.5744 4.44501 15.6454 4.5688 15.6885 4.70324C15.7316 4.83767 15.7457 4.97971 15.73 5.12001L15.23 9.12001C15.2005 9.36392 15.0823 9.58844 14.8979 9.75075C14.7134 9.91305 14.4757 10.0018 14.23 10H12.59L13.73 7.60001C13.8224 7.36465 13.8223 7.10302 13.7296 6.86778C13.6369 6.63253 13.4585 6.44115 13.2303 6.33214C13.0022 6.22313 12.7412 6.20461 12.4999 6.28028C12.2587 6.35596 12.055 6.52022 11.93 6.74001L10.37 10H9.77C9.52432 10.0018 9.28659 9.91305 9.10215 9.75075C8.91771 9.58844 8.79948 9.36392 8.77 9.12001L8.27 5.12001C8.25425 4.97971 8.26839 4.83767 8.31148 4.70324C8.35457 4.5688 8.42563 4.44501 8.52 4.34001ZM20 19C20 19.2652 19.8946 19.5196 19.7071 19.7071C19.5196 19.8947 19.2652 20 19 20H5C4.73478 20 4.48043 19.8947 4.29289 19.7071C4.10536 19.5196 4 19.2652 4 19V7.00001C4 6.73479 4.10536 6.48044 4.29289 6.2929C4.48043 6.10536 4.73478 6.00001 5 6.00001H6.37L6.79 9.37001C6.88069 10.0999 7.23638 10.7711 7.78946 11.256C8.34255 11.7408 9.05449 12.0056 9.79 12H14.25C14.9855 12.0056 15.6975 11.7408 16.2505 11.256C16.8036 10.7711 17.1593 10.0999 17.25 9.37001L17.63 6.00001H19C19.2652 6.00001 19.5196 6.10536 19.7071 6.2929C19.8946 6.48044 20 6.73479 20 7.00001V19ZM14 16H10C9.73478 16 9.48043 16.1054 9.29289 16.2929C9.10536 16.4804 9 16.7348 9 17C9 17.2652 9.10536 17.5196 9.29289 17.7071C9.48043 17.8947 9.73478 18 10 18H14C14.2652 18 14.5196 17.8947 14.7071 17.7071C14.8946 17.5196 15 17.2652 15 17C15 16.7348 14.8946 16.4804 14.7071 16.2929C14.5196 16.1054 14.2652 16 14 16Z" />
</svg>
