<svg width="158" height="158" viewBox="0 0 158 158" xmlns="http://www.w3.org/2000/svg">
<path fill-rule="evenodd" clip-rule="evenodd" d="M72.738 2.875C63.77 -2.30267 52.3027 0.769993 47.125 9.738L37.9538 25.623L20.4475 30.3138C10.445 32.994 4.50899 43.2753 7.18919 53.2778L11.88 70.7841L3.37499 85.5152C-1.80268 94.483 1.26998 105.951 10.238 111.128L24.9691 119.633L29.8359 137.796C32.516 147.799 42.7973 153.735 52.7998 151.055L70.963 146.188L86.0152 154.878C94.983 160.056 106.451 156.983 111.628 148.015L120.319 132.963L137.318 128.408C147.321 125.728 153.257 115.446 150.577 105.444L146.022 88.4442L155.378 72.238C160.556 63.27 157.483 51.8027 148.515 46.625L132.309 37.2684L127.93 20.9254C125.25 10.9229 114.968 4.987 104.966 7.6672L88.623 12.0462L72.738 2.875ZM64.8333 56C64.8333 63.0833 70.25 68.5 77.3333 68.5C84.4167 68.5 89.8333 63.0833 89.8333 56C89.8333 48.9167 84.4167 43.5 77.3333 43.5C70.25 43.5 64.8333 48.9167 64.8333 56ZM69 110.167H85.6667V93.5L94 85.1667V72.6667H60.6667V85.1667L69 93.5V110.167ZM52.3333 64.3333C47.75 64.3333 44 60.5833 44 56C44 51.4167 47.75 47.6667 52.3333 47.6667C56.9167 47.6667 60.6667 51.4167 60.6667 56C60.6667 60.5833 56.9167 64.3333 52.3333 64.3333ZM56.5 68.5V86.8333L60.6667 91V101.833H48.1667V85.1667L44 81V68.5H56.5ZM102.333 64.3333C106.917 64.3333 110.667 60.5833 110.667 56C110.667 51.4167 106.917 47.6667 102.333 47.6667C97.75 47.6667 94 51.4167 94 56C94 60.5833 97.75 64.3333 102.333 64.3333ZM98.167 68.5V86.8333L94 91V101.833H106.5V85.1667L110.667 81V68.5H98.167Z" />
</svg>
