<svg width="24" height="24" viewBox="0 0 24 24" xmlns="http://www.w3.org/2000/svg">
<path d="M20.5398 3.46C19.84 2.762 18.9491 2.28706 17.9795 2.09515C17.01 1.90325 16.0053 2.00301 15.0924 2.38181C14.1795 2.76062 13.3993 3.40149 12.8505 4.22346C12.3016 5.04544 12.0087 6.01163 12.0087 7C12.0087 7.98837 12.3016 8.95457 12.8505 9.77654C13.3993 10.5985 14.1795 11.2394 15.0924 11.6182C16.0053 11.997 17.01 12.0968 17.9795 11.9049C18.9491 11.7129 19.84 11.238 20.5398 10.54C21.0054 10.0755 21.3748 9.52379 21.6269 8.91634C21.879 8.30889 22.0087 7.65768 22.0087 7C22.0087 6.34233 21.879 5.69112 21.6269 5.08367C21.3748 4.47621 21.0054 3.92446 20.5398 3.46ZM14.8798 4.88C15.4419 4.31723 16.2044 4.0007 16.9998 4C17.4434 4.00413 17.8805 4.10659 18.2798 4.3L14.2798 8.3C14.0129 7.73809 13.9272 7.1071 14.0347 6.49438C14.1422 5.88165 14.4375 5.31749 14.8798 4.88ZM19.1198 9.12C18.6816 9.55471 18.1199 9.84367 17.5115 9.94747C16.903 10.0513 16.2773 9.96485 15.7198 9.7L19.7198 5.7C19.9867 6.26191 20.0723 6.8929 19.9648 7.50563C19.8574 8.11835 19.562 8.68251 19.1198 9.12ZM7.99978 10C7.21869 9.99688 6.44467 10.1481 5.72219 10.445C4.99971 10.7419 4.343 11.1786 3.78978 11.73C2.94321 12.5657 2.36416 13.6342 2.12618 14.7997C1.8882 15.9652 2.00204 17.1751 2.45324 18.2758C2.90444 19.3765 3.67263 20.3182 4.66022 20.9813C5.64781 21.6444 6.81022 21.999 7.99978 22C9.54183 21.9992 11.0244 21.4048 12.1398 20.34L12.2598 20.26C12.2808 20.2219 12.3042 20.1852 12.3298 20.15C13.1427 19.3011 13.6885 18.2322 13.8992 17.0759C14.11 15.9195 13.9765 14.7268 13.5153 13.6457C13.0541 12.5646 12.2855 11.6427 11.305 10.9946C10.3244 10.3465 9.17515 10.0006 7.99978 10ZM5.16978 18.83C4.55087 18.2042 4.15565 17.3917 4.04537 16.5185C3.93508 15.6453 4.1159 14.76 4.55978 14L9.99978 19.44C9.23975 19.8839 8.35452 20.0647 7.4813 19.9544C6.60807 19.8441 5.79559 19.4489 5.16978 18.83ZM11.4398 18L5.99978 12.56C6.60552 12.2005 7.29544 12.0073 7.99978 12C8.69989 12.0042 9.38662 12.1921 9.99135 12.5449C10.5961 12.8977 11.0976 13.403 11.4458 14.0104C11.7941 14.6178 11.9768 15.3059 11.9757 16.006C11.9747 16.7061 11.7899 17.3937 11.4398 18Z" />
</svg>
