<svg width="24" height="24" viewBox="0 0 24 24" xmlns="http://www.w3.org/2000/svg">
<path d="M19.5002 4.50002C18.54 3.54007 17.2379 3.00079 15.8802 3.00079C14.5225 3.00079 13.2203 3.54007 12.2602 4.50002L4.50018 12.26C4.01333 12.7328 3.62534 13.2977 3.35877 13.9219C3.09219 14.546 2.95236 15.2169 2.9474 15.8955C2.94244 16.5742 3.07245 17.247 3.32987 17.875C3.5873 18.5029 3.96699 19.0734 4.44688 19.5533C4.92677 20.0332 5.49727 20.4129 6.12522 20.6703C6.75317 20.9277 7.42604 21.0578 8.10468 21.0528C8.78333 21.0478 9.45422 20.908 10.0783 20.6414C10.7025 20.3749 11.2674 19.9869 11.7402 19.5L19.5002 11.74C20.4601 10.7799 20.9994 9.47774 20.9994 8.12002C20.9994 6.7623 20.4601 5.46017 19.5002 4.50002ZM10.3202 18.09C9.72421 18.6533 8.93524 18.9672 8.11518 18.9672C7.29512 18.9672 6.50615 18.6533 5.91018 18.09C5.32822 17.5037 5.00164 16.7111 5.00164 15.885C5.00164 15.0589 5.32822 14.2663 5.91018 13.68L9.09018 10.5L13.5002 14.91L10.3202 18.09ZM18.0902 10.32L14.9102 13.5L10.5002 9.09002L13.6802 5.91002C14.2712 5.35634 15.0544 5.05417 15.8641 5.06737C16.6739 5.08058 17.4468 5.40813 18.0194 5.98078C18.5921 6.55344 18.9196 7.32633 18.9328 8.13608C18.946 8.94584 18.6439 9.72899 18.0902 10.32Z" />
</svg>
