<svg width="24" height="24" viewBox="0 0 24 24" xmlns="http://www.w3.org/2000/svg">
<path d="M12.92 16.12C12.8981 16.0563 12.8678 15.9958 12.83 15.94C12.7931 15.8876 12.753 15.8375 12.71 15.79L12.56 15.67L12.38 15.58C12.3205 15.5496 12.2562 15.5293 12.19 15.52C12.0293 15.4879 11.8632 15.4957 11.7063 15.5427C11.5494 15.5898 11.4064 15.6747 11.29 15.79L11.17 15.94C11.1322 15.9958 11.1019 16.0563 11.08 16.12C11.0512 16.1767 11.0309 16.2374 11.02 16.3C11.0151 16.3666 11.0151 16.4334 11.02 16.5C11.0216 16.6307 11.0488 16.7598 11.1 16.88C11.1506 17.0012 11.2217 17.1128 11.31 17.21C11.4495 17.3505 11.6276 17.4463 11.8216 17.4855C12.0156 17.5247 12.2169 17.5054 12.4 17.43C12.5195 17.372 12.6305 17.298 12.73 17.21C12.818 17.1105 12.892 16.9995 12.95 16.88C12.991 16.7578 13.008 16.6287 13 16.5C13.0049 16.4334 13.0049 16.3666 13 16.3C12.9828 16.2363 12.9558 16.1755 12.92 16.12ZM12 10.5C11.7348 10.5 11.4804 10.6054 11.2929 10.7929C11.1054 10.9805 11 11.2348 11 11.5V13.5C11 13.7652 11.1054 14.0196 11.2929 14.2071C11.4804 14.3947 11.7348 14.5 12 14.5C12.2652 14.5 12.5196 14.3947 12.7071 14.2071C12.8946 14.0196 13 13.7652 13 13.5V11.5C13 11.2348 12.8946 10.9805 12.7071 10.7929C12.5196 10.6054 12.2652 10.5 12 10.5ZM19 5.50002H12.72L12.4 4.50002C12.1926 3.91325 11.8077 3.40553 11.2989 3.04718C10.7901 2.68884 10.1824 2.49762 9.56 2.50002H5C4.20435 2.50002 3.44129 2.81609 2.87868 3.3787C2.31607 3.94131 2 4.70437 2 5.50002V18.5C2 19.2957 2.31607 20.0587 2.87868 20.6213C3.44129 21.184 4.20435 21.5 5 21.5H19C19.7956 21.5 20.5587 21.184 21.1213 20.6213C21.6839 20.0587 22 19.2957 22 18.5V8.50002C22 7.70437 21.6839 6.94131 21.1213 6.3787C20.5587 5.81609 19.7956 5.50002 19 5.50002ZM20 18.5C20 18.7652 19.8946 19.0196 19.7071 19.2071C19.5196 19.3947 19.2652 19.5 19 19.5H5C4.73478 19.5 4.48043 19.3947 4.29289 19.2071C4.10536 19.0196 4 18.7652 4 18.5V5.50002C4 5.23481 4.10536 4.98045 4.29289 4.79292C4.48043 4.60538 4.73478 4.50002 5 4.50002H9.56C9.76964 4.49948 9.97416 4.56484 10.1446 4.68686C10.3151 4.80889 10.4429 4.9814 10.51 5.18002L11.05 6.82002C11.1171 7.01864 11.2449 7.19116 11.4154 7.31318C11.5858 7.4352 11.7904 7.50056 12 7.50002H19C19.2652 7.50002 19.5196 7.60538 19.7071 7.79292C19.8946 7.98045 20 8.23481 20 8.50002V18.5Z" />
</svg>
