<svg width="24" height="24" viewBox="0 0 24 24" xmlns="http://www.w3.org/2000/svg">
<path d="M23 9.94C22.9896 9.84813 22.9695 9.75763 22.94 9.67V9.58C22.8919 9.47718 22.8278 9.38267 22.75 9.3L16.75 3.3C16.6673 3.22222 16.5728 3.15808 16.47 3.11H16.38C16.2784 3.05174 16.1662 3.01434 16.05 3H8C7.20435 3 6.44129 3.31607 5.87868 3.87868C5.31607 4.44129 5 5.20435 5 6V7H4C3.20435 7 2.44129 7.31607 1.87868 7.87868C1.31607 8.44129 1 9.20435 1 10V18C1 18.7956 1.31607 19.5587 1.87868 20.1213C2.44129 20.6839 3.20435 21 4 21H16C16.7956 21 17.5587 20.6839 18.1213 20.1213C18.6839 19.5587 19 18.7956 19 18V17H20C20.7956 17 21.5587 16.6839 22.1213 16.1213C22.6839 15.5587 23 14.7956 23 14V10C23 10 23 10 23 9.94ZM17 6.41L19.59 9H18C17.7348 9 17.4804 8.89464 17.2929 8.70711C17.1054 8.51957 17 8.26522 17 8V6.41ZM17 18C17 18.2652 16.8946 18.5196 16.7071 18.7071C16.5196 18.8946 16.2652 19 16 19H4C3.73478 19 3.48043 18.8946 3.29289 18.7071C3.10536 18.5196 3 18.2652 3 18V10C3 9.73478 3.10536 9.48043 3.29289 9.29289C3.48043 9.10536 3.73478 9 4 9H5V14C5 14.7956 5.31607 15.5587 5.87868 16.1213C6.44129 16.6839 7.20435 17 8 17H17V18ZM21 14C21 14.2652 20.8946 14.5196 20.7071 14.7071C20.5196 14.8946 20.2652 15 20 15H8C7.73478 15 7.48043 14.8946 7.29289 14.7071C7.10536 14.5196 7 14.2652 7 14V6C7 5.73478 7.10536 5.48043 7.29289 5.29289C7.48043 5.10536 7.73478 5 8 5H15V8C15 8.79565 15.3161 9.55871 15.8787 10.1213C16.4413 10.6839 17.2044 11 18 11H21V14Z" />
</svg>
