<svg width="24" height="24" viewBox="0 0 24 24" xmlns="http://www.w3.org/2000/svg">
<path d="M4 4.00002H8.56C8.76964 3.99948 8.97416 4.06484 9.14463 4.18686C9.3151 4.30889 9.44291 4.4814 9.51 4.68002L10.05 6.32002C10.1171 6.51864 10.2449 6.69116 10.4154 6.81318C10.5858 6.9352 10.7904 7.00056 11 7.00002H18C18.2652 7.00002 18.5196 7.10538 18.7071 7.29292C18.8946 7.48045 19 7.73481 19 8.00002C19 8.26524 19.1054 8.51959 19.2929 8.70713C19.4804 8.89467 19.7348 9.00002 20 9.00002C20.2652 9.00002 20.5196 8.89467 20.7071 8.70713C20.8946 8.51959 21 8.26524 21 8.00002C21 7.20437 20.6839 6.44131 20.1213 5.8787C19.5587 5.31609 18.7956 5.00002 18 5.00002H11.72L11.4 4.00002C11.1926 3.41325 10.8077 2.90553 10.2989 2.54718C9.79005 2.18884 9.18236 1.99762 8.56 2.00002H4C3.20435 2.00002 2.44129 2.31609 1.87868 2.8787C1.31607 3.44131 1 4.20437 1 5.00002V18C1 18.7957 1.31607 19.5587 1.87868 20.1213C2.44129 20.684 3.20435 21 4 21H10C10.2652 21 10.5196 20.8947 10.7071 20.7071C10.8946 20.5196 11 20.2652 11 20C11 19.7348 10.8946 19.4805 10.7071 19.2929C10.5196 19.1054 10.2652 19 10 19H4C3.73478 19 3.48043 18.8947 3.29289 18.7071C3.10536 18.5196 3 18.2652 3 18V5.00002C3 4.73481 3.10536 4.48045 3.29289 4.29292C3.48043 4.10538 3.73478 4.00002 4 4.00002ZM21 15.18V14C21 13.2044 20.6839 12.4413 20.1213 11.8787C19.5587 11.3161 18.7956 11 18 11C17.2044 11 16.4413 11.3161 15.8787 11.8787C15.3161 12.4413 15 13.2044 15 14V15.18C14.4165 15.3863 13.911 15.7681 13.5529 16.273C13.1949 16.7778 13.0017 17.3811 13 18V20C13 20.7957 13.3161 21.5587 13.8787 22.1213C14.4413 22.684 15.2044 23 16 23H20C20.7956 23 21.5587 22.684 22.1213 22.1213C22.6839 21.5587 23 20.7957 23 20V18C22.9983 17.3811 22.8051 16.7778 22.4471 16.273C22.089 15.7681 21.5835 15.3863 21 15.18ZM17 14C17 13.7348 17.1054 13.4805 17.2929 13.2929C17.4804 13.1054 17.7348 13 18 13C18.2652 13 18.5196 13.1054 18.7071 13.2929C18.8946 13.4805 19 13.7348 19 14V15H17V14ZM21 20C21 20.2652 20.8946 20.5196 20.7071 20.7071C20.5196 20.8947 20.2652 21 20 21H16C15.7348 21 15.4804 20.8947 15.2929 20.7071C15.1054 20.5196 15 20.2652 15 20V18C15 17.7348 15.1054 17.4805 15.2929 17.2929C15.4804 17.1054 15.7348 17 16 17H20C20.2652 17 20.5196 17.1054 20.7071 17.2929C20.8946 17.4805 21 17.7348 21 18V20Z" />
</svg>
