<svg width="24" height="24" viewBox="0 0 24 24" xmlns="http://www.w3.org/2000/svg">
<path d="M21.7102 2.29C21.6172 2.19627 21.5066 2.12188 21.3848 2.07111C21.2629 2.02034 21.1322 1.9942 21.0002 1.9942C20.8682 1.9942 20.7375 2.02034 20.6156 2.07111C20.4937 2.12188 20.3831 2.19627 20.2902 2.29L18.1702 4.41L17.4602 3.71C17.2728 3.52375 17.0194 3.41921 16.7552 3.41921C16.491 3.41921 16.2375 3.52375 16.0502 3.71L14.6402 5.12L13.9302 4.41C13.8372 4.31627 13.7266 4.24188 13.6048 4.19111C13.4829 4.14034 13.3522 4.1142 13.2202 4.1142C13.0882 4.1142 12.9575 4.14034 12.8356 4.19111C12.7137 4.24188 12.6031 4.31627 12.5102 4.41L4.74019 12.19L4.00019 11.49C3.80609 11.3544 3.57016 11.292 3.33439 11.314C3.09862 11.336 2.87831 11.441 2.71268 11.6102C2.54705 11.7794 2.44684 12.002 2.42991 12.2381C2.41297 12.4743 2.4804 12.7089 2.62019 12.9L6.15019 16.44L4.42019 18.18L3.71019 17.46C3.52188 17.2717 3.26649 17.1659 3.00019 17.1659C2.73388 17.1659 2.47849 17.2717 2.29019 17.46C2.10188 17.6483 1.99609 17.9037 1.99609 18.17C1.99609 18.4363 2.10188 18.6917 2.29019 18.88L5.12019 21.71C5.21363 21.8027 5.32444 21.876 5.44628 21.9258C5.56812 21.9755 5.69858 22.0008 5.83019 22C5.96179 22.0008 6.09225 21.9755 6.21409 21.9258C6.33593 21.876 6.44675 21.8027 6.54019 21.71C6.63391 21.617 6.70831 21.5064 6.75908 21.3846C6.80985 21.2627 6.83598 21.132 6.83598 21C6.83598 20.868 6.80985 20.7373 6.75908 20.6154C6.70831 20.4936 6.63391 20.383 6.54019 20.29L5.83019 19.59L7.57019 17.85L11.1002 21.38C11.1928 21.4745 11.3032 21.5497 11.4251 21.6012C11.547 21.6527 11.6779 21.6795 11.8102 21.68C12.008 21.6792 12.201 21.6197 12.365 21.5092C12.529 21.3986 12.6565 21.2419 12.7315 21.0589C12.8064 20.8758 12.8253 20.6747 12.786 20.4809C12.7466 20.2871 12.6506 20.1093 12.5102 19.97L11.8102 19.26L19.5902 11.49C19.6839 11.397 19.7583 11.2864 19.8091 11.1646C19.8598 11.0427 19.886 10.912 19.886 10.78C19.886 10.648 19.8598 10.5173 19.8091 10.3954C19.7583 10.2736 19.6839 10.163 19.5902 10.07L18.8802 9.36L20.2902 8C20.4764 7.81264 20.581 7.55919 20.581 7.295C20.581 7.03081 20.4764 6.77736 20.2902 6.59L19.5902 5.88L21.7102 3.76C21.8117 3.66636 21.8927 3.55271 21.9481 3.42621C22.0035 3.29971 22.0321 3.1631 22.0321 3.025C22.0321 2.8869 22.0035 2.75029 21.9481 2.62379C21.8927 2.49729 21.8117 2.38364 21.7102 2.29ZM7.57019 15L6.15019 13.61L7.56019 12.19L9.00019 13.61L7.57019 15ZM10.3902 17.83L9.00019 16.44L10.3902 15L11.8102 16.42L10.3902 17.83ZM13.2202 15L9.00019 10.78L13.2402 6.54L13.9502 7.24L17.4802 10.78L13.2202 15ZM17.4602 8L16.0502 6.54L16.7602 5.83L17.4602 6.53L18.1602 7.23L17.4602 8Z" />
</svg>
