<svg width="24" height="24" viewBox="0 0 24 24" xmlns="http://www.w3.org/2000/svg">
<path d="M7.50013 15C7.23491 15 6.98056 15.1054 6.79302 15.2929C6.60548 15.4804 6.50013 15.7348 6.50013 16V17C6.50013 17.2652 6.60548 17.5196 6.79302 17.7071C6.98056 17.8946 7.23491 18 7.50013 18C7.76534 18 8.0197 17.8946 8.20723 17.7071C8.39477 17.5196 8.50013 17.2652 8.50013 17V16C8.50013 15.7348 8.39477 15.4804 8.20723 15.2929C8.0197 15.1054 7.76534 15 7.50013 15ZM22.0001 7H20.9001C20.7668 6.37352 20.5194 5.77691 20.1701 5.24L21.0001 4.47C21.0934 4.37676 21.1673 4.26607 21.2178 4.14425C21.2682 4.02243 21.2942 3.89186 21.2942 3.76C21.2942 3.62814 21.2682 3.49757 21.2178 3.37575C21.1673 3.25393 21.0934 3.14324 21.0001 3.05C20.9069 2.95676 20.7962 2.8828 20.6744 2.83234C20.5526 2.78188 20.422 2.75591 20.2901 2.75591C20.1583 2.75591 20.0277 2.78188 19.9059 2.83234C19.7841 2.8828 19.6734 2.95676 19.5801 3.05L18.8101 3.83C18.2606 3.47014 17.6456 3.22208 17.0001 3.1V2C17.0001 1.73478 16.8948 1.48043 16.7072 1.29289C16.5197 1.10536 16.2653 1 16.0001 1C15.7349 1 15.4806 1.10536 15.293 1.29289C15.1055 1.48043 15.0001 1.73478 15.0001 2V3.1C14.3736 3.23329 13.777 3.48075 13.2401 3.83L12.4701 3.05C12.3769 2.95676 12.2662 2.8828 12.1444 2.83234C12.0226 2.78188 11.892 2.75591 11.7601 2.75591C11.6283 2.75591 11.4977 2.78188 11.3759 2.83234C11.2541 2.8828 11.1434 2.95676 11.0501 3.05C10.8618 3.2383 10.756 3.4937 10.756 3.76C10.756 4.0263 10.8618 4.2817 11.0501 4.47L11.8301 5.24C11.4336 5.84404 11.1711 6.526 11.0601 7.24C10.5536 7.0888 10.0287 7.00804 9.50013 7C8.05898 6.99918 6.66569 7.5171 5.575 8.45906C4.48431 9.40102 3.76909 10.7041 3.56013 12.13C2.86376 12.3239 2.24452 12.7287 1.78746 13.2887C1.33041 13.8487 1.05796 14.5365 1.00755 15.2576C0.957136 15.9787 1.13123 16.6978 1.50592 17.3159C1.88061 17.9341 2.43752 18.4211 3.10013 18.71C3.22757 18.7605 3.36307 18.7876 3.50013 18.79C3.73132 18.7919 3.95603 18.7136 4.13601 18.5685C4.31598 18.4233 4.44011 18.2203 4.48727 17.994C4.53442 17.7676 4.50169 17.532 4.39464 17.327C4.28759 17.1221 4.11284 16.9606 3.90013 16.87C3.63182 16.7557 3.40326 16.5647 3.24314 16.321C3.08302 16.0772 2.99848 15.7916 3.00013 15.5C3.00013 15.1022 3.15816 14.7206 3.43947 14.4393C3.72077 14.158 4.1023 14 4.50013 14C4.76534 14 5.0197 13.8946 5.20723 13.7071C5.39477 13.5196 5.50013 13.2652 5.50013 13C5.50442 12.0557 5.84265 11.1434 6.45497 10.4245C7.06728 9.70558 7.91419 9.22651 8.84578 9.07204C9.77738 8.91757 10.7336 9.09768 11.5451 9.58047C12.3567 10.0633 12.9713 10.8176 13.2801 11.71C13.3373 11.8818 13.44 12.0349 13.5774 12.1529C13.7148 12.2709 13.8816 12.3494 14.0601 12.38C14.5246 12.4488 14.9573 12.6569 15.3009 12.9768C15.6446 13.2967 15.8832 13.7133 15.985 14.1717C16.0869 14.63 16.0473 15.1085 15.8714 15.5439C15.6956 15.9792 15.3917 16.351 15.0001 16.61C14.8898 16.6822 14.7948 16.7755 14.7205 16.8844C14.6463 16.9934 14.5942 17.1159 14.5672 17.2449C14.5403 17.374 14.5391 17.5071 14.5636 17.6367C14.5881 17.7662 14.6379 17.8897 14.7101 18C14.856 18.2228 15.0844 18.3785 15.3451 18.4329C15.4741 18.4598 15.6073 18.4611 15.7368 18.4365C15.8664 18.412 15.9898 18.3622 16.1001 18.29C16.6898 17.8891 17.1717 17.3491 17.5031 16.7177C17.8345 16.0864 18.0052 15.383 18.0001 14.67C17.997 14.0042 17.8431 13.3478 17.5501 12.75C17.9769 12.6101 18.3837 12.4151 18.7601 12.17L19.5301 12.95C19.6203 13.0548 19.7311 13.1397 19.8558 13.1995C19.9804 13.2592 20.116 13.2925 20.2542 13.2972C20.3923 13.3019 20.5299 13.2779 20.6583 13.2268C20.7867 13.1756 20.9031 13.0984 21.0001 13C21.0939 12.907 21.1683 12.7964 21.219 12.6746C21.2698 12.5527 21.2959 12.422 21.2959 12.29C21.2959 12.158 21.2698 12.0273 21.219 11.9054C21.1683 11.7836 21.0939 11.673 21.0001 11.58L20.2201 10.81C20.5624 10.2567 20.7934 9.64183 20.9001 9H22.0001C22.2653 9 22.5197 8.89464 22.7072 8.70711C22.8948 8.51957 23.0001 8.26522 23.0001 8C23.0001 7.73478 22.8948 7.48043 22.7072 7.29289C22.5197 7.10536 22.2653 7 22.0001 7ZM18.1301 10.12C17.8506 10.3998 17.5186 10.6217 17.153 10.7727C16.7875 10.9237 16.3956 11.001 16.0001 11H15.9401C15.6289 10.8026 15.2925 10.6479 14.9401 10.54C14.497 9.58293 13.8066 8.76136 12.9401 8.16C12.9401 8.1 12.9401 8.06 12.9401 8C12.9382 7.20605 13.251 6.4437 13.8101 5.88C14.3852 5.33857 15.1453 5.03707 15.9351 5.03707C16.725 5.03707 17.485 5.33857 18.0601 5.88C18.3398 6.15871 18.5617 6.48989 18.7131 6.85454C18.8646 7.2192 18.9425 7.61016 18.9425 8.005C18.9425 8.39984 18.8646 8.7908 18.7131 9.15546C18.5617 9.52011 18.3398 9.85129 18.0601 10.13L18.1301 10.12ZM7.50013 20C7.23491 20 6.98056 20.1054 6.79302 20.2929C6.60548 20.4804 6.50013 20.7348 6.50013 21V22C6.50013 22.2652 6.60548 22.5196 6.79302 22.7071C6.98056 22.8946 7.23491 23 7.50013 23C7.76534 23 8.0197 22.8946 8.20723 22.7071C8.39477 22.5196 8.50013 22.2652 8.50013 22V21C8.50013 20.7348 8.39477 20.4804 8.20723 20.2929C8.0197 20.1054 7.76534 20 7.50013 20ZM11.5001 19C11.2349 19 10.9806 19.1054 10.793 19.2929C10.6055 19.4804 10.5001 19.7348 10.5001 20V21C10.5001 21.2652 10.6055 21.5196 10.793 21.7071C10.9806 21.8946 11.2349 22 11.5001 22C11.7653 22 12.0197 21.8946 12.2072 21.7071C12.3948 21.5196 12.5001 21.2652 12.5001 21V20C12.5001 19.7348 12.3948 19.4804 12.2072 19.2929C12.0197 19.1054 11.7653 19 11.5001 19ZM11.5001 14C11.2349 14 10.9806 14.1054 10.793 14.2929C10.6055 14.4804 10.5001 14.7348 10.5001 15V16C10.5001 16.2652 10.6055 16.5196 10.793 16.7071C10.9806 16.8946 11.2349 17 11.5001 17C11.7653 17 12.0197 16.8946 12.2072 16.7071C12.3948 16.5196 12.5001 16.2652 12.5001 16V15C12.5001 14.7348 12.3948 14.4804 12.2072 14.2929C12.0197 14.1054 11.7653 14 11.5001 14Z" />
</svg>
