<svg width="24" height="24" viewBox="0 0 24 24" xmlns="http://www.w3.org/2000/svg">
<path d="M12.5002 16.92H11.7302L12.1202 16.25C12.2528 16.0193 12.2883 15.7453 12.2189 15.4884C12.1495 15.2315 11.9809 15.0127 11.7502 14.88C11.5194 14.7474 11.2455 14.7119 10.9885 14.7813C10.7316 14.8507 10.5128 15.0193 10.3802 15.25L10.0002 15.92L9.62016 15.25C9.48755 15.0193 9.26871 14.8507 9.01179 14.7813C8.75486 14.7119 8.4809 14.7474 8.25016 14.88C8.01942 15.0127 7.85081 15.2315 7.78142 15.4884C7.71203 15.7453 7.74755 16.0193 7.88016 16.25L8.27016 16.92H7.50016C7.23494 16.92 6.98059 17.0254 6.79305 17.2129C6.60552 17.4005 6.50016 17.6548 6.50016 17.92C6.50016 18.1853 6.60552 18.4396 6.79305 18.6272C6.98059 18.8147 7.23494 18.92 7.50016 18.92H8.27016L7.88016 19.58C7.74755 19.8108 7.71203 20.0847 7.78142 20.3417C7.85081 20.5986 8.01942 20.8174 8.25016 20.95C8.4809 21.0827 8.75486 21.1182 9.01179 21.0488C9.26871 20.9794 9.48755 20.8108 9.62016 20.58L10.0002 19.92L10.3802 20.58C10.4458 20.6943 10.5333 20.7945 10.6377 20.8749C10.7421 20.9553 10.8613 21.0144 10.9885 21.0488C11.1157 21.0831 11.2485 21.0921 11.3792 21.0752C11.5098 21.0582 11.6359 21.0157 11.7502 20.95C11.8644 20.8844 11.9646 20.7969 12.045 20.6925C12.1255 20.5881 12.1845 20.4689 12.2189 20.3417C12.2533 20.2145 12.2622 20.0817 12.2453 19.951C12.2283 19.8204 12.1858 19.6943 12.1202 19.58L11.7302 18.92H12.5002C12.7654 18.92 13.0197 18.8147 13.2073 18.6272C13.3948 18.4396 13.5002 18.1853 13.5002 17.92C13.5002 17.6548 13.3948 17.4005 13.2073 17.2129C13.0197 17.0254 12.7654 16.92 12.5002 16.92ZM21.0002 7.92004H20.2002C20.0968 7.47134 19.9211 7.04241 19.6802 6.65004L20.2402 6.09004C20.404 5.89874 20.4896 5.65267 20.4799 5.40099C20.4701 5.14931 20.3658 4.91058 20.1877 4.73248C20.0096 4.55439 19.7709 4.45005 19.5192 4.44033C19.2675 4.43061 19.0215 4.51622 18.8302 4.68004L18.2702 5.24004C17.8778 4.99906 17.4489 4.82343 17.0002 4.72004V3.92004C17.0002 3.65483 16.8948 3.40047 16.7073 3.21294C16.5197 3.0254 16.2654 2.92004 16.0002 2.92004C15.7349 2.92004 15.4806 3.0254 15.2931 3.21294C15.1055 3.40047 15.0002 3.65483 15.0002 3.92004V4.72004C14.5541 4.82186 14.1282 4.99762 13.7402 5.24004L13.1702 4.68004C12.9789 4.51622 12.7328 4.43061 12.4811 4.44033C12.2294 4.45005 11.9907 4.55439 11.8126 4.73248C11.6345 4.91058 11.5302 5.14931 11.5204 5.40099C11.5107 5.65267 11.5963 5.89874 11.7602 6.09004L12.3202 6.65004C12.2302 6.81004 12.1602 6.98004 12.0802 7.14004C11.566 6.99491 11.0344 6.92089 10.5002 6.92004C9.06642 6.91743 7.67913 7.4283 6.58952 8.36016C5.4999 9.29202 4.78 10.5833 4.56016 12C3.81749 12.2105 3.1646 12.6593 2.70202 13.2773C2.23945 13.8953 1.99284 14.6482 2.00016 15.42C2.00053 15.963 2.1283 16.4982 2.37318 16.9828C2.61807 17.4674 2.97325 17.8877 3.41016 18.21C3.51507 18.2975 3.63677 18.3625 3.76777 18.4011C3.89877 18.4397 4.03629 18.451 4.17184 18.4344C4.30739 18.4178 4.43811 18.3737 4.55594 18.3046C4.67377 18.2356 4.7762 18.1431 4.85693 18.033C4.93766 17.9228 4.99497 17.7973 5.02534 17.6642C5.0557 17.531 5.05847 17.3931 5.03347 17.2588C5.00848 17.1246 4.95625 16.9968 4.88001 16.8835C4.80376 16.7702 4.70512 16.6738 4.59016 16.6C4.4061 16.4635 4.25677 16.2855 4.15428 16.0805C4.05178 15.8755 3.99898 15.6492 4.00016 15.42C4.00016 15.0222 4.15819 14.6407 4.4395 14.3594C4.7208 14.0781 5.10233 13.92 5.50016 13.92C5.76538 13.92 6.01973 13.8147 6.20726 13.6272C6.3948 13.4396 6.50016 13.1853 6.50016 12.92C6.50445 11.9757 6.84268 11.0634 7.455 10.3445C8.06731 9.62563 8.91422 9.14655 9.84581 8.99208C10.7774 8.83762 11.7336 9.01772 12.5452 9.50051C13.3567 9.98331 13.9713 10.7377 14.2802 11.63C14.3388 11.8 14.4422 11.951 14.5795 12.0672C14.7168 12.1833 14.8828 12.2603 15.0602 12.29C15.5573 12.372 16.0145 12.613 16.3632 12.9767C16.7118 13.3405 16.9332 13.8075 16.994 14.3077C17.0548 14.8079 16.9519 15.3143 16.7006 15.751C16.4493 16.1878 16.0632 16.5313 15.6002 16.73C15.4791 16.7822 15.3695 16.8579 15.2777 16.9526C15.186 17.0473 15.1139 17.1592 15.0655 17.2819C15.0172 17.4045 14.9936 17.5356 14.9961 17.6674C14.9986 17.7992 15.0272 17.9293 15.0802 18.05C15.1582 18.2289 15.2869 18.381 15.4504 18.4877C15.6139 18.5943 15.805 18.6507 16.0002 18.65C16.1385 18.6502 16.2752 18.6194 16.4002 18.56C17.1776 18.2212 17.8385 17.6615 18.3007 16.9504C18.7629 16.2393 19.0061 15.4081 19.0002 14.56C18.9981 14.0259 18.8964 13.4968 18.7002 13L18.8302 13.13C19.0164 13.3148 19.2678 13.4189 19.5302 13.42C19.6618 13.4208 19.7922 13.3956 19.9141 13.3458C20.0359 13.2961 20.1467 13.2227 20.2402 13.13C20.3339 13.0371 20.4083 12.9265 20.459 12.8046C20.5098 12.6828 20.536 12.5521 20.536 12.42C20.536 12.288 20.5098 12.1573 20.459 12.0355C20.4083 11.9136 20.3339 11.803 20.2402 11.71L19.6802 11.15C19.9209 10.7612 20.0966 10.3356 20.2002 9.89004H21.0002C21.2654 9.89004 21.5197 9.78469 21.7073 9.59715C21.8948 9.40961 22.0002 9.15526 22.0002 8.89004C22.0002 8.62483 21.8948 8.37047 21.7073 8.18294C21.5197 7.9954 21.2654 7.89004 21.0002 7.89004V7.92004ZM17.6602 10.56C17.4886 10.7342 17.2848 10.8735 17.0602 10.97C16.7328 10.7506 16.3759 10.5789 16.0002 10.46C15.5331 9.46076 14.7995 8.60958 13.8802 8.00004C13.9868 7.73917 14.143 7.50145 14.3402 7.30004C14.7881 6.8825 15.3778 6.65033 15.9902 6.65033C16.6026 6.65033 17.1922 6.8825 17.6402 7.30004C18.0731 7.73807 18.316 8.32914 18.316 8.94504C18.316 9.56095 18.0731 10.152 17.6402 10.59L17.6602 10.56Z" />
</svg>
