<svg width="24" height="24" viewBox="0 0 24 24" xmlns="http://www.w3.org/2000/svg">
<path d="M18 2C17.2089 2 16.4355 2.2346 15.7777 2.67412C15.1199 3.11365 14.6072 3.73836 14.3045 4.46927C14.0017 5.20017 13.9225 6.00444 14.0769 6.78036C14.2312 7.55629 14.6122 8.26902 15.1716 8.82843C15.731 9.38784 16.4437 9.7688 17.2196 9.92314C17.9956 10.0775 18.7998 9.99827 19.5307 9.69552C20.2616 9.39277 20.8864 8.88008 21.3259 8.22228C21.7654 7.56448 22 6.79113 22 6C22 4.93913 21.5786 3.92172 20.8284 3.17157C20.0783 2.42143 19.0609 2 18 2ZM18 8C17.6044 8 17.2178 7.8827 16.8889 7.66294C16.56 7.44318 16.3036 7.13082 16.1522 6.76537C16.0009 6.39991 15.9613 5.99778 16.0384 5.60982C16.1156 5.22186 16.3061 4.86549 16.5858 4.58579C16.8655 4.30608 17.2219 4.1156 17.6098 4.03843C17.9978 3.96126 18.3999 4.00087 18.7654 4.15224C19.1308 4.30362 19.4432 4.55996 19.6629 4.88886C19.8827 5.21776 20 5.60444 20 6C20 6.53043 19.7893 7.03914 19.4142 7.41421C19.0391 7.78929 18.5304 8 18 8ZM15 20H13V18C13 17.7348 12.8946 17.4804 12.7071 17.2929C12.5196 17.1054 12.2652 17 12 17C11.7348 17 11.4804 17.1054 11.2929 17.2929C11.1054 17.4804 11 17.7348 11 18V20H9V16.62L12.45 14.89C12.6149 14.8069 12.7536 14.6798 12.8507 14.5227C12.9478 14.3656 12.9994 14.1847 13 14V10C13 9.73478 12.8946 9.48043 12.7071 9.29289C12.5196 9.10536 12.2652 9 12 9C11.7348 9 11.4804 9.10536 11.2929 9.29289C11.1054 9.48043 11 9.73478 11 10V13.38L9 14.38V8C9 7.73478 8.89464 7.48043 8.70711 7.29289C8.51957 7.10536 8.26522 7 8 7C7.73478 7 7.48043 7.10536 7.29289 7.29289C7.10536 7.48043 7 7.73478 7 8V16.38L5 15.38V13C5 12.7348 4.89464 12.4804 4.70711 12.2929C4.51957 12.1054 4.26522 12 4 12C3.73478 12 3.48043 12.1054 3.29289 12.2929C3.10536 12.4804 3 12.7348 3 13V16C3.00056 16.1847 3.05224 16.3656 3.14932 16.5227C3.2464 16.6798 3.38509 16.8069 3.55 16.89L7 18.62V20H3C2.73478 20 2.48043 20.1054 2.29289 20.2929C2.10536 20.4804 2 20.7348 2 21C2 21.2652 2.10536 21.5196 2.29289 21.7071C2.48043 21.8946 2.73478 22 3 22H15C15.2652 22 15.5196 21.8946 15.7071 21.7071C15.8946 21.5196 16 21.2652 16 21C16 20.7348 15.8946 20.4804 15.7071 20.2929C15.5196 20.1054 15.2652 20 15 20Z" />
</svg>
