<svg width="24" height="24" viewBox="0 0 24 24" xmlns="http://www.w3.org/2000/svg">
<path d="M9.21013 16.29C9.11502 16.199 9.00288 16.1276 8.88013 16.08C8.69802 16.0034 8.4973 15.9825 8.30331 16.0199C8.10932 16.0572 7.93075 16.1512 7.79013 16.29C7.7018 16.3872 7.63077 16.4988 7.58013 16.62C7.52415 16.7387 7.49675 16.8688 7.50013 17C7.50094 17.1638 7.54198 17.3248 7.61962 17.4691C7.69726 17.6133 7.80914 17.7362 7.94542 17.8271C8.08169 17.9179 8.2382 17.9739 8.40118 17.9901C8.56416 18.0063 8.72863 17.9822 8.88013 17.92C9.00131 17.8693 9.11293 17.7983 9.21013 17.71C9.34889 17.5694 9.44288 17.3908 9.48026 17.1968C9.51763 17.0028 9.49671 16.8021 9.42013 16.62C9.36949 16.4988 9.29846 16.3872 9.21013 16.29ZM9.21013 20.29C9.11293 20.2017 9.00131 20.1306 8.88013 20.08C8.69802 20.0034 8.4973 19.9825 8.30331 20.0199C8.10932 20.0572 7.93075 20.1512 7.79013 20.29C7.7018 20.3872 7.63077 20.4988 7.58013 20.62C7.51534 20.7721 7.48927 20.9378 7.50423 21.1024C7.5192 21.2671 7.57474 21.4254 7.66589 21.5633C7.75703 21.7012 7.88094 21.8144 8.02652 21.8926C8.17211 21.9709 8.33483 22.0119 8.50013 22.0119C8.66543 22.0119 8.82815 21.9709 8.97373 21.8926C9.11932 21.8144 9.24322 21.7012 9.33437 21.5633C9.42552 21.4254 9.48105 21.2671 9.49602 21.1024C9.51099 20.9378 9.48491 20.7721 9.42013 20.62C9.36949 20.4988 9.29846 20.3872 9.21013 20.29ZM13.0601 14.17L12.8801 14.08L12.7001 14C12.5051 13.9619 12.3032 13.9828 12.1201 14.06C11.9965 14.1058 11.884 14.1774 11.7901 14.27C11.6974 14.3634 11.6241 14.4742 11.5744 14.5961C11.5246 14.7179 11.4994 14.8484 11.5001 14.98C11.4994 15.1116 11.5246 15.2421 11.5744 15.3639C11.6241 15.4857 11.6974 15.5966 11.7901 15.69C11.8873 15.7783 11.9989 15.8493 12.1201 15.9C12.2398 15.9529 12.3693 15.9802 12.5001 15.9802C12.631 15.9802 12.7604 15.9529 12.8801 15.9C13.0013 15.8493 13.1129 15.7783 13.2101 15.69C13.3925 15.5062 13.4964 15.2589 13.5001 15C13.4964 14.7352 13.3929 14.4816 13.2101 14.29L13.0601 14.17ZM13.2101 18.29C13.0695 18.1512 12.8909 18.0572 12.6969 18.0199C12.503 17.9825 12.3022 18.0034 12.1201 18.08C11.996 18.1249 11.8833 18.1966 11.79 18.2899C11.6967 18.3832 11.625 18.4959 11.5801 18.62C11.5035 18.8021 11.4826 19.0028 11.52 19.1968C11.5574 19.3908 11.6514 19.5694 11.7901 19.71C11.8873 19.7983 11.9989 19.8694 12.1201 19.92C12.2398 19.9729 12.3693 20.0002 12.5001 20.0002C12.631 20.0002 12.7604 19.9729 12.8801 19.92C13.0013 19.8694 13.1129 19.7983 13.2101 19.71C13.3489 19.5694 13.4429 19.3908 13.4803 19.1968C13.5176 19.0028 13.4967 18.8021 13.4201 18.62C13.3695 18.4988 13.2985 18.3872 13.2101 18.29ZM21.7001 7.06999C21.5787 6.95002 21.4285 6.86314 21.264 6.81763C21.0994 6.77211 20.926 6.76949 20.7601 6.80999C20.547 6.8603 20.3291 6.88713 20.1101 6.88999C19.3145 6.88999 18.5514 6.57392 17.9888 6.01131C17.4262 5.4487 17.1101 4.68564 17.1101 3.88999C17.113 3.67106 17.1398 3.45309 17.1901 3.23999C17.2362 3.07294 17.2381 2.89678 17.1956 2.72879C17.153 2.5608 17.0676 2.40674 16.9476 2.28171C16.8276 2.15668 16.6772 2.06498 16.5111 2.01559C16.345 1.96621 16.1689 1.96083 16.0001 1.99999C15.0048 2.21973 14.1021 2.74255 13.4163 3.49649C12.7304 4.25043 12.295 5.19842 12.1701 6.20999C11.6255 6.06489 11.0637 5.99425 10.5001 5.99999C9.05898 5.99917 7.66569 6.51709 6.575 7.45905C5.48431 8.40101 4.76909 9.70408 4.56013 11.13C3.86376 11.3239 3.24452 11.7287 2.78746 12.2887C2.33041 12.8487 2.05796 13.5365 2.00755 14.2576C1.95714 14.9787 2.13123 15.6977 2.50592 16.3159C2.88061 16.9341 3.43752 17.4211 4.10013 17.71C4.22757 17.7605 4.36307 17.7876 4.50013 17.79C4.73132 17.7919 4.95603 17.7136 5.13601 17.5685C5.31598 17.4233 5.44011 17.2203 5.48727 16.994C5.53442 16.7676 5.50169 16.5319 5.39464 16.327C5.28759 16.1221 5.11284 15.9606 4.90013 15.87C4.63182 15.7557 4.40326 15.5647 4.24314 15.321C4.08302 15.0772 3.99848 14.7916 4.00013 14.5C4.00013 14.1022 4.15816 13.7206 4.43947 13.4393C4.72077 13.158 5.1023 13 5.50013 13C5.76534 13 6.0197 12.8946 6.20723 12.7071C6.39477 12.5196 6.50013 12.2652 6.50013 12C6.50013 10.9391 6.92156 9.92171 7.6717 9.17156C8.42185 8.42142 9.43926 7.99999 10.5001 7.99999C11.2783 8.00557 12.0385 8.23466 12.6901 8.65999C13.4208 9.13654 13.9756 9.83887 14.2701 10.66C14.3273 10.8318 14.43 10.9849 14.5674 11.1029C14.7048 11.2209 14.8716 11.2994 15.0501 11.33C15.5292 11.3854 15.979 11.5887 16.3371 11.9117C16.6953 12.2346 16.9438 12.6611 17.0483 13.1319C17.1528 13.6027 17.108 14.0943 16.9202 14.5384C16.7323 14.9825 16.4107 15.3571 16.0001 15.61C15.8898 15.6822 15.7948 15.7755 15.7205 15.8844C15.6463 15.9934 15.5942 16.1159 15.5672 16.2449C15.5403 16.374 15.5391 16.5071 15.5636 16.6367C15.5881 16.7662 15.6379 16.8897 15.7101 17C15.7824 17.1103 15.8756 17.2053 15.9845 17.2796C16.0935 17.3539 16.216 17.4059 16.3451 17.4329C16.4741 17.4598 16.6073 17.461 16.7368 17.4365C16.8664 17.412 16.9898 17.3622 17.1001 17.29C17.6898 16.8891 18.1717 16.3491 18.5031 15.7177C18.8345 15.0863 19.0052 14.383 19.0001 13.67C19.004 12.9731 18.8357 12.2861 18.5101 11.67C19.3689 11.4302 20.1468 10.9624 20.7612 10.3163C21.3757 9.67012 21.8038 8.86974 22.0001 7.99999C22.0339 7.83226 22.024 7.65868 21.9715 7.49585C21.9189 7.33302 21.8255 7.1864 21.7001 7.06999ZM17.1101 9.88999C16.9703 9.90082 16.8299 9.90082 16.6901 9.88999C16.4704 9.75416 16.2395 9.63707 16.0001 9.53999C15.5882 8.64313 14.9634 7.86045 14.1801 7.25999C14.1801 7.13999 14.1801 7.00999 14.1801 6.88999C14.1801 6.45667 14.2739 6.02848 14.4552 5.63489C14.6365 5.2413 14.9008 4.89165 15.2301 4.60999C15.385 5.67685 15.8805 6.66509 16.6427 7.42737C17.405 8.18965 18.3933 8.68515 19.4601 8.83999C19.1709 9.17841 18.8099 9.44821 18.4035 9.62982C17.997 9.81144 17.5552 9.90031 17.1101 9.88999Z" />
</svg>
