<svg width="24" height="24" viewBox="0 0 24 24" xmlns="http://www.w3.org/2000/svg">
<path d="M11 19.0001H8C7.73478 19.0001 7.48043 19.1054 7.29289 19.2929C7.10536 19.4805 7 19.7348 7 20.0001C7 20.2653 7.10536 20.5196 7.29289 20.7072C7.48043 20.8947 7.73478 21.0001 8 21.0001H11C11.2652 21.0001 11.5196 20.8947 11.7071 20.7072C11.8946 20.5196 12 20.2653 12 20.0001C12 19.7348 11.8946 19.4805 11.7071 19.2929C11.5196 19.1054 11.2652 19.0001 11 19.0001ZM20 15.0001H18.84C19.4153 14.1018 19.8094 13.0996 20 12.0501C20.0289 11.8789 20.0128 11.7031 19.9532 11.54C19.8936 11.377 19.7925 11.2322 19.66 11.1201C19.5256 11.0018 19.3619 10.9217 19.186 10.8883C19.0101 10.8549 18.8284 10.8693 18.66 10.9301C18.0417 11.1405 17.3932 11.2486 16.74 11.2501C15.1431 11.2501 13.6108 10.6199 12.476 9.49639C11.3412 8.37286 10.6958 6.84685 10.68 5.25006C10.6891 4.91474 10.7225 4.58053 10.78 4.25006C10.806 4.07954 10.7874 3.90522 10.726 3.74401C10.6647 3.5828 10.5627 3.4402 10.43 3.33006C10.2946 3.21344 10.1304 3.13524 9.95457 3.10359C9.7787 3.07193 9.59756 3.08798 9.43 3.15006C7.85902 3.69224 6.49405 4.70679 5.522 6.05477C4.54995 7.40275 4.01835 9.01825 4 10.6801C4.00099 12.212 4.44179 13.7114 5.27 15.0001H4C3.73478 15.0001 3.48043 15.1054 3.29289 15.2929C3.10536 15.4805 3 15.7348 3 16.0001C3 16.2653 3.10536 16.5196 3.29289 16.7072C3.48043 16.8947 3.73478 17.0001 4 17.0001H20C20.2652 17.0001 20.5196 16.8947 20.7071 16.7072C20.8946 16.5196 21 16.2653 21 16.0001C21 15.7348 20.8946 15.4805 20.7071 15.2929C20.5196 15.1054 20.2652 15.0001 20 15.0001ZM16.28 15.0001H7.83C7.17747 14.3744 6.67474 13.6094 6.35938 12.7622C6.04401 11.915 5.92416 11.0075 6.00878 10.1075C6.0934 9.20743 6.3803 8.33815 6.84804 7.56457C7.31579 6.79099 7.95229 6.1331 8.71 5.64006C8.82502 7.69703 9.72335 9.63188 11.2205 11.0472C12.7176 12.4624 14.6998 13.2507 16.76 13.2501C17.0231 13.2649 17.2869 13.2649 17.55 13.2501C17.2346 13.9046 16.8045 14.4973 16.28 15.0001ZM16 19.0001H15C14.7348 19.0001 14.4804 19.1054 14.2929 19.2929C14.1054 19.4805 14 19.7348 14 20.0001C14 20.2653 14.1054 20.5196 14.2929 20.7072C14.4804 20.8947 14.7348 21.0001 15 21.0001H16C16.2652 21.0001 16.5196 20.8947 16.7071 20.7072C16.8946 20.5196 17 20.2653 17 20.0001C17 19.7348 16.8946 19.4805 16.7071 19.2929C16.5196 19.1054 16.2652 19.0001 16 19.0001Z" />
</svg>
