<svg width="24" height="24" viewBox="0 0 24 24" xmlns="http://www.w3.org/2000/svg">
<path d="M11.0501 14.33C10.8858 14.2204 10.6927 14.1618 10.4951 14.1618C10.2976 14.1618 10.1045 14.2204 9.94013 14.33C9.84013 14.41 7.50013 16 7.50013 18.5C7.50013 19.2956 7.8162 20.0587 8.37881 20.6213C8.94142 21.1839 9.70448 21.5 10.5001 21.5C11.2958 21.5 12.0588 21.1839 12.6214 20.6213C13.1841 20.0587 13.5001 19.2956 13.5001 18.5C13.5001 16 11.1601 14.4 11.0501 14.33ZM10.5001 19.5C10.2349 19.5 9.98056 19.3946 9.79302 19.2071C9.60548 19.0196 9.50013 18.7652 9.50013 18.5C9.56327 17.7294 9.92151 17.0129 10.5001 16.5C11.0787 17.0129 11.437 17.7294 11.5001 18.5C11.5001 18.7652 11.3948 19.0196 11.2072 19.2071C11.0197 19.3946 10.7653 19.5 10.5001 19.5ZM21.0001 7.5H20.2001C20.0967 7.05129 19.9211 6.62237 19.6801 6.23L20.2401 5.67C20.404 5.4787 20.4896 5.23262 20.4798 4.98095C20.4701 4.72927 20.3658 4.49053 20.1877 4.31244C20.0096 4.13434 19.7709 4.03001 19.5192 4.02029C19.2675 4.01057 19.0214 4.09617 18.8301 4.26L18.2701 4.82C17.8778 4.57901 17.4488 4.40339 17.0001 4.3V3.5C17.0001 3.23478 16.8948 2.98043 16.7072 2.79289C16.5197 2.60536 16.2653 2.5 16.0001 2.5C15.7349 2.5 15.4806 2.60536 15.293 2.79289C15.1055 2.98043 15.0001 3.23478 15.0001 3.5V4.3C14.5541 4.40181 14.1282 4.57758 13.7401 4.82L13.1701 4.26C12.9788 4.09617 12.7327 4.01057 12.4811 4.02029C12.2294 4.03001 11.9907 4.13434 11.8126 4.31244C11.6345 4.49053 11.5301 4.72927 11.5204 4.98095C11.5107 5.23262 11.5963 5.4787 11.7601 5.67L12.3201 6.24C12.2301 6.39 12.1601 6.56 12.0801 6.72C11.566 6.57486 11.0344 6.50084 10.5001 6.5C9.05898 6.49918 7.66569 7.0171 6.575 7.95906C5.48431 8.90102 4.76909 10.2041 4.56013 11.63C3.86376 11.8239 3.24452 12.2287 2.78746 12.7887C2.33041 13.3487 2.05796 14.0365 2.00755 14.7576C1.95714 15.4787 2.13123 16.1978 2.50592 16.8159C2.88061 17.4341 3.43752 17.9211 4.10013 18.21C4.22757 18.2605 4.36307 18.2876 4.50013 18.29C4.73132 18.2919 4.95603 18.2136 5.13601 18.0685C5.31598 17.9233 5.44011 17.7203 5.48727 17.494C5.53442 17.2676 5.50169 17.032 5.39464 16.827C5.28759 16.6221 5.11284 16.4606 4.90013 16.37C4.63182 16.2557 4.40326 16.0647 4.24314 15.821C4.08302 15.5772 3.99848 15.2916 4.00013 15C4.00013 14.6022 4.15816 14.2206 4.43947 13.9393C4.72077 13.658 5.1023 13.5 5.50013 13.5C5.76534 13.5 6.0197 13.3946 6.20723 13.2071C6.39477 13.0196 6.50013 12.7652 6.50013 12.5C6.50442 11.5557 6.84265 10.6434 7.45497 9.92447C8.06728 9.20558 8.91419 8.72651 9.84578 8.57204C10.7774 8.41757 11.7336 8.59767 12.5451 9.08047C13.3567 9.56326 13.9713 10.3176 14.2801 11.21C14.3373 11.3818 14.44 11.5349 14.5774 11.6529C14.7148 11.7709 14.8816 11.8494 15.0601 11.88C15.5246 11.9488 15.9573 12.1569 16.3009 12.4768C16.6446 12.7967 16.8832 13.2133 16.985 13.6717C17.0869 14.13 17.0473 14.6085 16.8714 15.0439C16.6956 15.4792 16.3917 15.851 16.0001 16.11C15.7773 16.2559 15.6216 16.4843 15.5672 16.7449C15.5129 17.0056 15.5643 17.2772 15.7101 17.5C15.856 17.7228 16.0844 17.8785 16.3451 17.9329C16.6057 17.9873 16.8773 17.9359 17.1001 17.79C17.9297 17.2487 18.547 16.4377 18.8476 15.4938C19.1482 14.55 19.1138 13.5314 18.7501 12.61L18.8801 12.74C19.0664 12.9247 19.3178 13.0289 19.5801 13.03C19.7117 13.0308 19.8422 13.0055 19.964 12.9558C20.0859 12.906 20.1967 12.8327 20.2901 12.74C20.4764 12.5526 20.5809 12.2992 20.5809 12.035C20.5809 11.7708 20.4764 11.5174 20.2901 11.33L19.7301 10.77C19.9537 10.3745 20.1123 9.94573 20.2001 9.5H21.0001C21.2653 9.5 21.5197 9.39464 21.7072 9.20711C21.8948 9.01957 22.0001 8.76522 22.0001 8.5C22.0001 8.23478 21.8948 7.98043 21.7072 7.79289C21.5197 7.60536 21.2653 7.5 21.0001 7.5ZM17.6601 10.15C17.4816 10.3157 17.2794 10.4539 17.0601 10.56C16.7356 10.3233 16.3786 10.1346 16.0001 10C15.5407 8.99676 14.8185 8.13641 13.9101 7.51C14.0194 7.25349 14.1754 7.01951 14.3701 6.82C14.8176 6.40532 15.4051 6.17493 16.0151 6.17493C16.6252 6.17493 17.2127 6.40532 17.6601 6.82C18.089 7.2622 18.3288 7.854 18.3288 8.47C18.3288 9.086 18.089 9.6778 17.6601 10.12V10.15Z" />
</svg>
