<svg width="24" height="24" viewBox="0 0 24 24" xmlns="http://www.w3.org/2000/svg">
<path d="M11.5804 16.5H10.3204L11.1804 15C11.2528 14.8862 11.3014 14.7589 11.3232 14.6258C11.3451 14.4927 11.3399 14.3566 11.3078 14.2256C11.2757 14.0946 11.2175 13.9715 11.1365 13.8636C11.0556 13.7557 10.9537 13.6652 10.837 13.5978C10.7202 13.5303 10.591 13.4871 10.4571 13.4708C10.3232 13.4546 10.1874 13.4655 10.0579 13.5031C9.92836 13.5407 9.80777 13.6041 9.70337 13.6895C9.59898 13.7749 9.51294 13.8805 9.45042 14L7.72042 17C7.6329 17.1516 7.5867 17.3235 7.58644 17.4985C7.58617 17.6735 7.63185 17.8456 7.71891 17.9974C7.80596 18.1492 7.93135 18.2756 8.08253 18.3638C8.23371 18.452 8.4054 18.4989 8.58042 18.5H9.85042L9.00042 20C8.86781 20.2307 8.8323 20.5047 8.90169 20.7616C8.97107 21.0186 9.13968 21.2374 9.37042 21.37C9.60116 21.5026 9.87513 21.5381 10.1321 21.4687C10.389 21.3993 10.6078 21.2307 10.7404 21L12.4704 18C12.5582 17.848 12.6044 17.6755 12.6044 17.5C12.6044 17.3245 12.5582 17.152 12.4704 17C12.3807 16.8444 12.2506 16.7159 12.094 16.6279C11.9374 16.5399 11.76 16.4957 11.5804 16.5ZM21.0004 7.5H20.2004C20.097 7.05129 19.9214 6.62237 19.6804 6.23L20.2404 5.67C20.4042 5.4787 20.4899 5.23262 20.4801 4.98095C20.4704 4.72927 20.3661 4.49053 20.188 4.31244C20.0099 4.13434 19.7712 4.03001 19.5195 4.02029C19.2678 4.01057 19.0217 4.09617 18.8304 4.26L18.2704 4.82C17.8781 4.57901 17.4491 4.40339 17.0004 4.3V3.5C17.0004 3.23478 16.8951 2.98043 16.7075 2.79289C16.52 2.60536 16.2656 2.5 16.0004 2.5C15.7352 2.5 15.4809 2.60536 15.2933 2.79289C15.1058 2.98043 15.0004 3.23478 15.0004 3.5V4.3C14.5517 4.40339 14.1228 4.57901 13.7304 4.82L13.1704 4.26C12.9791 4.09617 12.733 4.01057 12.4814 4.02029C12.2297 4.03001 11.991 4.13434 11.8129 4.31244C11.6348 4.49053 11.5304 4.72927 11.5207 4.98095C11.511 5.23262 11.5966 5.4787 11.7604 5.67L12.3204 6.24C12.2304 6.39 12.1604 6.56 12.0804 6.72C11.5663 6.57486 11.0347 6.50084 10.5004 6.5C9.05928 6.49918 7.66598 7.0171 6.57529 7.95906C5.4846 8.90102 4.76939 10.2041 4.56042 11.63C3.85213 11.824 3.22307 12.2364 2.76279 12.8086C2.3025 13.3808 2.03445 14.0837 1.99678 14.8171C1.95912 15.5505 2.15376 16.2771 2.553 16.8934C2.95224 17.5098 3.53573 17.9845 4.22042 18.25C4.34468 18.309 4.47978 18.3418 4.61728 18.3463C4.75478 18.3507 4.89172 18.3267 5.01953 18.2758C5.14734 18.2249 5.26327 18.1482 5.36008 18.0505C5.45689 17.9527 5.53249 17.8361 5.58215 17.7078C5.63181 17.5795 5.65447 17.4423 5.6487 17.3049C5.64294 17.1674 5.60887 17.0326 5.54864 16.9089C5.48841 16.7853 5.40331 16.6753 5.29865 16.586C5.194 16.4967 5.07205 16.43 4.94042 16.39C4.61826 16.2593 4.3515 16.0208 4.18573 15.7152C4.01996 15.4096 3.96549 15.056 4.03163 14.7146C4.09776 14.3733 4.2804 14.0656 4.54831 13.8441C4.81622 13.6225 5.15277 13.5009 5.50042 13.5C5.76564 13.5 6.01999 13.3946 6.20753 13.2071C6.39506 13.0196 6.50042 12.7652 6.50042 12.5C6.50471 11.5557 6.84295 10.6434 7.45526 9.92447C8.06757 9.20558 8.91448 8.72651 9.84608 8.57204C10.7777 8.41757 11.7339 8.59767 12.5454 9.08047C13.357 9.56326 13.9716 10.3176 14.2804 11.21C14.3376 11.3818 14.4403 11.5349 14.5777 11.6529C14.7151 11.7709 14.8819 11.8494 15.0604 11.88C15.5778 11.9716 16.0491 12.2354 16.3977 12.6286C16.7463 13.0218 16.9517 13.5213 16.9807 14.0459C17.0096 14.5706 16.8604 15.0896 16.5572 15.5188C16.254 15.9479 15.8146 16.262 15.3104 16.41C15.0452 16.4458 14.8051 16.5855 14.6429 16.7984C14.4806 17.0112 14.4096 17.2798 14.4454 17.545C14.4812 17.8102 14.6209 18.0503 14.8338 18.2126C15.0466 18.3748 15.3152 18.4458 15.5804 18.41C15.6698 18.4246 15.761 18.4246 15.8504 18.41C16.431 18.2488 16.9712 17.9674 17.4361 17.5839C17.9009 17.2005 18.28 16.7237 18.5487 16.1844C18.8174 15.6451 18.9698 15.0553 18.9959 14.4533C19.022 13.8513 18.9214 13.2506 18.7004 12.69L18.8304 12.82C19.0167 13.0047 19.2681 13.1089 19.5304 13.11C19.662 13.1108 19.7925 13.0855 19.9143 13.0358C20.0362 12.986 20.147 12.9127 20.2404 12.82C20.4267 12.6326 20.5312 12.3792 20.5312 12.115C20.5312 11.8508 20.4267 11.5974 20.2404 11.41L19.6804 10.85C19.9296 10.433 20.1055 9.97641 20.2004 9.5H21.0004C21.2656 9.5 21.52 9.39464 21.7075 9.20711C21.8951 9.01957 22.0004 8.76522 22.0004 8.5C22.0004 8.23478 21.8951 7.98043 21.7075 7.79289C21.52 7.60536 21.2656 7.5 21.0004 7.5ZM17.6604 10.15C17.4836 10.3179 17.2811 10.4563 17.0604 10.56C16.7359 10.3233 16.3789 10.1346 16.0004 10C15.541 8.99676 14.8188 8.13641 13.9104 7.51C14.0219 7.2517 14.1776 7.01482 14.3704 6.81C14.8195 6.39464 15.4087 6.16393 16.0204 6.16393C16.6321 6.16393 17.2213 6.39464 17.6704 6.81C18.0993 7.2522 18.3391 7.844 18.3391 8.46C18.3391 9.076 18.0993 9.6678 17.6704 10.11L17.6604 10.15Z" />
</svg>
