<svg width="24" height="24" viewBox="0 0 24 24" xmlns="http://www.w3.org/2000/svg">
<path d="M13.4996 15H11.2296L12.6796 12.5C12.7453 12.3858 12.7878 12.2597 12.8048 12.129C12.8217 11.9984 12.8127 11.8656 12.7784 11.7384C12.744 11.6112 12.6849 11.492 12.6045 11.3876C12.5241 11.2832 12.4239 11.1957 12.3096 11.13C12.1954 11.0644 12.0693 11.0219 11.9387 11.0049C11.808 10.988 11.6752 10.9969 11.548 11.0313C11.4208 11.0657 11.3016 11.1247 11.1972 11.2052C11.0928 11.2856 11.0053 11.3858 10.9396 11.5L8.62965 15.5C8.54188 15.6521 8.49567 15.8245 8.49567 16C8.49567 16.1756 8.54188 16.348 8.62965 16.5C8.71775 16.6526 8.84461 16.7793 8.99739 16.8671C9.15017 16.9549 9.32344 17.0007 9.49965 17H11.7696L10.3196 19.5C10.187 19.7308 10.1515 20.0047 10.2209 20.2617C10.2903 20.5186 10.4589 20.7374 10.6896 20.87C10.9204 21.0026 11.1944 21.0382 11.4513 20.9688C11.7082 20.8994 11.927 20.7308 12.0596 20.5L14.3696 16.5C14.4574 16.348 14.5036 16.1756 14.5036 16C14.5036 15.8245 14.4574 15.6521 14.3696 15.5C14.2815 15.3474 14.1547 15.2208 14.0019 15.133C13.8491 15.0452 13.6759 14.9993 13.4996 15ZM18.4196 7.21003C17.808 5.80584 16.7526 4.64103 15.4154 3.89419C14.0782 3.14735 12.5329 2.8597 11.0165 3.07536C9.50015 3.29101 8.09635 3.99806 7.02036 5.08809C5.94438 6.17813 5.25561 7.59098 5.05965 9.11003C4.10623 9.33836 3.26987 9.90887 2.70938 10.7132C2.1489 11.5176 1.90333 12.4998 2.01931 13.4732C2.13529 14.4467 2.60474 15.3437 3.33851 15.9939C4.07229 16.6441 5.01928 17.0021 5.99965 17C6.26486 17 6.51922 16.8947 6.70675 16.7071C6.89429 16.5196 6.99965 16.2653 6.99965 16C6.99965 15.7348 6.89429 15.4805 6.70675 15.2929C6.51922 15.1054 6.26486 15 5.99965 15C5.46921 15 4.96051 14.7893 4.58543 14.4142C4.21036 14.0392 3.99965 13.5305 3.99965 13C3.99965 12.4696 4.21036 11.9609 4.58543 11.5858C4.96051 11.2107 5.46921 11 5.99965 11C6.26486 11 6.51922 10.8947 6.70675 10.7071C6.89429 10.5196 6.99965 10.2652 6.99965 10C7.0022 8.81731 7.42393 7.67379 8.18992 6.77262C8.9559 5.87145 10.0165 5.27098 11.1834 5.07791C12.3503 4.88483 13.5478 5.11164 14.5632 5.71804C15.5787 6.32444 16.3463 7.27117 16.7296 8.39003C16.7883 8.56001 16.8917 8.71102 17.029 8.82717C17.1663 8.94332 17.3323 9.02031 17.5096 9.05003C18.2426 9.18529 18.899 9.58856 19.351 10.1813C19.8029 10.774 20.018 11.5138 19.9543 12.2564C19.8907 12.9991 19.5528 13.6914 19.0066 14.1986C18.4604 14.7058 17.745 14.9915 16.9996 15C16.7344 15 16.4801 15.1054 16.2925 15.2929C16.105 15.4805 15.9996 15.7348 15.9996 16C15.9996 16.2653 16.105 16.5196 16.2925 16.7071C16.4801 16.8947 16.7344 17 16.9996 17C18.199 16.9967 19.3572 16.5624 20.263 15.7763C21.1689 14.9902 21.7619 13.9047 21.9341 12.7178C22.1063 11.5308 21.846 10.3216 21.2009 9.31049C20.5557 8.29943 19.5686 7.55396 18.4196 7.21003Z" />
</svg>
