<svg width="24" height="24" viewBox="0 0 24 24" xmlns="http://www.w3.org/2000/svg">
<path d="M11.5804 16.5001H10.3204L11.1804 15.0001C11.2528 14.8863 11.3014 14.759 11.3232 14.6259C11.3451 14.4928 11.3399 14.3567 11.3078 14.2257C11.2757 14.0947 11.2175 13.9716 11.1365 13.8637C11.0556 13.7558 10.9537 13.6654 10.837 13.5979C10.7202 13.5304 10.591 13.4872 10.4571 13.4709C10.3232 13.4547 10.1874 13.4656 10.0579 13.5032C9.92836 13.5408 9.80777 13.6042 9.70337 13.6896C9.59898 13.775 9.51294 13.8806 9.45042 14.0001L7.72042 17.0001C7.6329 17.1517 7.5867 17.3236 7.58644 17.4986C7.58617 17.6736 7.63185 17.8457 7.71891 17.9975C7.80596 18.1493 7.93135 18.2757 8.08253 18.3639C8.23371 18.4521 8.4054 18.499 8.58042 18.5001H9.85042L9.00042 20.0001C8.86781 20.2308 8.8323 20.5048 8.90169 20.7617C8.97107 21.0187 9.13968 21.2375 9.37042 21.3701C9.60116 21.5027 9.87513 21.5382 10.1321 21.4688C10.389 21.3994 10.6078 21.2308 10.7404 21.0001L12.4704 18.0001C12.5582 17.8481 12.6044 17.6756 12.6044 17.5001C12.6044 17.3246 12.5582 17.1521 12.4704 17.0001C12.3807 16.8445 12.2506 16.716 12.094 16.628C11.9374 16.54 11.76 16.4958 11.5804 16.5001ZM21.7004 7.5701C21.58 7.45177 21.4315 7.36587 21.2689 7.32041C21.1063 7.27494 20.9348 7.2714 20.7704 7.3101C20.5538 7.35961 20.3326 7.38642 20.1104 7.3901C19.3148 7.3901 18.5517 7.07403 17.9891 6.51142C17.4265 5.94881 17.1104 5.18575 17.1104 4.3901C17.1133 4.17116 17.1401 3.9532 17.1904 3.7401C17.2302 3.57503 17.2272 3.40256 17.1818 3.23895C17.1365 3.07534 17.0502 2.92597 16.9312 2.80491C16.8121 2.68386 16.6642 2.59511 16.5014 2.54704C16.3385 2.49896 16.1661 2.49313 16.0004 2.5301C15.0051 2.74984 14.1024 3.27266 13.4165 4.0266C12.7307 4.78054 12.2953 5.72853 12.1704 6.7401C11.6272 6.58487 11.0654 6.50413 10.5004 6.5001C9.05928 6.49928 7.66598 7.0172 6.57529 7.95916C5.4846 8.90112 4.76939 10.2042 4.56042 11.6301C3.85213 11.8241 3.22307 12.2365 2.76279 12.8087C2.3025 13.3809 2.03445 14.0838 1.99678 14.8172C1.95912 15.5506 2.15376 16.2772 2.553 16.8935C2.95224 17.5099 3.53573 17.9846 4.22042 18.2501C4.34468 18.3091 4.47978 18.3419 4.61728 18.3464C4.75478 18.3508 4.89172 18.3268 5.01953 18.2759C5.14734 18.225 5.26327 18.1483 5.36008 18.0506C5.45689 17.9528 5.53249 17.8362 5.58215 17.7079C5.63181 17.5796 5.65447 17.4424 5.6487 17.305C5.64294 17.1675 5.60887 17.0327 5.54864 16.909C5.48841 16.7854 5.40331 16.6754 5.29865 16.5861C5.194 16.4969 5.07205 16.4301 4.94042 16.3901C4.61826 16.2594 4.3515 16.0209 4.18573 15.7153C4.01996 15.4097 3.96549 15.0561 4.03163 14.7147C4.09776 14.3734 4.2804 14.0657 4.54831 13.8442C4.81622 13.6226 5.15277 13.501 5.50042 13.5001C5.76564 13.5001 6.01999 13.3947 6.20753 13.2072C6.39506 13.0197 6.50042 12.7653 6.50042 12.5001C6.50042 11.4392 6.92185 10.4218 7.67199 9.67167C8.42214 8.92153 9.43956 8.5001 10.5004 8.5001C11.2764 8.49948 12.0351 8.72918 12.6804 9.1601C13.4074 9.63827 13.9585 10.3404 14.2504 11.1601C14.3076 11.3319 14.4103 11.485 14.5477 11.603C14.6851 11.721 14.8519 11.7995 15.0304 11.8301C15.5478 11.9217 16.0191 12.1855 16.3677 12.5787C16.7163 12.9719 16.9217 13.4714 16.9507 13.996C16.9796 14.5207 16.8304 15.0397 16.5272 15.4689C16.224 15.898 15.7846 16.2121 15.2804 16.3601C15.0152 16.3959 14.7751 16.5356 14.6129 16.7485C14.4506 16.9613 14.3796 17.2299 14.4154 17.4951C14.4512 17.7603 14.5909 18.0005 14.8038 18.1627C15.0166 18.3249 15.2852 18.3959 15.5504 18.3601C15.6398 18.3747 15.731 18.3747 15.8204 18.3601C16.7369 18.1076 17.5449 17.5606 18.1196 16.8033C18.6943 16.0461 19.0038 15.1207 19.0004 14.1701C19.0043 13.4733 18.836 12.7862 18.5104 12.1701C19.3692 11.9303 20.1471 11.4625 20.7615 10.8164C21.3759 10.1702 21.8041 9.36985 22.0004 8.5001C22.0341 8.33237 22.0243 8.15879 21.9718 7.99596C21.9192 7.83314 21.8258 7.68651 21.7004 7.5701ZM17.1104 10.3901C16.9706 10.4014 16.8302 10.4014 16.6904 10.3901C16.4721 10.2405 16.2412 10.11 16.0004 10.0001C15.5906 9.10194 14.9654 8.31879 14.1804 7.7201C14.1804 7.6001 14.1804 7.4701 14.1804 7.3501C14.1804 6.91678 14.2742 6.48859 14.4555 6.095C14.6368 5.70141 14.9011 5.35176 15.2304 5.0701C15.3853 6.13696 15.8808 7.1252 16.643 7.88748C17.4053 8.64976 18.3936 9.14526 19.4604 9.3001C19.175 9.64582 18.8158 9.92319 18.4091 10.1118C18.0025 10.3005 17.5587 10.3955 17.1104 10.3901Z" />
</svg>
