<svg width="24" height="24" viewBox="0 0 24 24" xmlns="http://www.w3.org/2000/svg">
<path d="M20.9999 9H20.1999C20.0965 8.55129 19.9209 8.12237 19.6799 7.73L20.2399 7.17C20.4037 6.9787 20.4893 6.73262 20.4796 6.48095C20.4699 6.22927 20.3655 5.99053 20.1874 5.81244C20.0093 5.63434 19.7706 5.53001 19.5189 5.52029C19.2672 5.51057 19.0212 5.59617 18.8299 5.76L18.2699 6.32C17.8775 6.07901 17.4486 5.90339 16.9999 5.8V5C16.9999 4.73478 16.8945 4.48043 16.707 4.29289C16.5194 4.10536 16.2651 4 15.9999 4C15.7346 4 15.4803 4.10536 15.2928 4.29289C15.1052 4.48043 14.9999 4.73478 14.9999 5V5.8C14.5538 5.90181 14.1279 6.07758 13.7399 6.32L13.1699 5.76C12.9786 5.59617 12.7325 5.51057 12.4808 5.52029C12.2291 5.53001 11.9904 5.63434 11.8123 5.81244C11.6342 5.99053 11.5299 6.22927 11.5202 6.48095C11.5104 6.73262 11.596 6.9787 11.7599 7.17L12.3199 7.74C12.2299 7.89 12.1599 8.06 12.0799 8.22C11.5657 8.07487 11.0341 8.00084 10.4999 8C9.05872 7.99918 7.66543 8.5171 6.57474 9.45906C5.48404 10.401 4.76883 11.7041 4.55986 13.13C3.74606 13.3582 3.04232 13.8732 2.57863 14.5799C2.11494 15.2865 1.92262 16.1371 2.0372 16.9745C2.15178 17.8119 2.56551 18.5795 3.20198 19.1356C3.83845 19.6918 4.65466 19.9988 5.49986 20H14.6699C15.8183 20 16.9196 19.5438 17.7316 18.7318C18.5437 17.9197 18.9999 16.8184 18.9999 15.67C18.999 15.139 18.8972 14.613 18.6999 14.12L18.8299 14.24C19.0161 14.4247 19.2675 14.5289 19.5299 14.53C19.6615 14.5308 19.7919 14.5055 19.9138 14.4558C20.0356 14.406 20.1464 14.3327 20.2399 14.24C20.4261 14.0526 20.5307 13.7992 20.5307 13.535C20.5307 13.2708 20.4261 13.0174 20.2399 12.83L19.6799 12.27C19.9209 11.8776 20.0965 11.4487 20.1999 11H20.9999C21.2651 11 21.5194 10.8946 21.707 10.7071C21.8945 10.5196 21.9999 10.2652 21.9999 10C21.9999 9.73478 21.8945 9.48043 21.707 9.29289C21.5194 9.10536 21.2651 9 20.9999 9ZM14.6699 18H5.49986C5.10204 18 4.72051 17.842 4.4392 17.5607C4.1579 17.2794 3.99986 16.8978 3.99986 16.5C3.99986 16.1022 4.1579 15.7206 4.4392 15.4393C4.72051 15.158 5.10204 15 5.49986 15C5.76508 15 6.01943 14.8946 6.20697 14.7071C6.39451 14.5196 6.49986 14.2652 6.49986 14C6.50415 13.0557 6.84239 12.1434 7.4547 11.4245C8.06702 10.7056 8.91392 10.2265 9.84552 10.072C10.7771 9.91757 11.7333 10.0977 12.5449 10.5805C13.3564 11.0633 13.971 11.8176 14.2799 12.71C14.337 12.8818 14.4398 13.0349 14.5772 13.1529C14.7145 13.2709 14.8814 13.3494 15.0599 13.38C15.6275 13.4861 16.1354 13.7992 16.4853 14.2586C16.8352 14.718 17.002 15.2909 16.9534 15.8663C16.9048 16.4417 16.6443 16.9785 16.2224 17.3728C15.8005 17.767 15.2472 17.9905 14.6699 18ZM17.6699 11.65C17.4936 11.8159 17.2908 11.9511 17.0699 12.05C16.7373 11.8335 16.3775 11.662 15.9999 11.54C15.5404 10.5368 14.8183 9.67641 13.9099 9.05C14.0191 8.79349 14.1751 8.55951 14.3699 8.36C14.8173 7.94532 15.4048 7.71493 16.0149 7.71493C16.6249 7.71493 17.2124 7.94532 17.6599 8.36C18.0887 8.8022 18.3286 9.394 18.3286 10.01C18.3286 10.626 18.0887 11.2178 17.6599 11.66L17.6699 11.65Z" />
</svg>
