<svg width="24" height="24" viewBox="0 0 24 24" xmlns="http://www.w3.org/2000/svg">
<path d="M10 21H8C7.73478 21 7.48043 21.1054 7.29289 21.2929C7.10536 21.4804 7 21.7348 7 22C7 22.2652 7.10536 22.5196 7.29289 22.7071C7.48043 22.8946 7.73478 23 8 23H10C10.2652 23 10.5196 22.8946 10.7071 22.7071C10.8946 22.5196 11 22.2652 11 22C11 21.7348 10.8946 21.4804 10.7071 21.2929C10.5196 21.1054 10.2652 21 10 21ZM11 17H6C5.73478 17 5.48043 17.1054 5.29289 17.2929C5.10536 17.4804 5 17.7348 5 18C5 18.2652 5.10536 18.5196 5.29289 18.7071C5.48043 18.8946 5.73478 19 6 19H11C11.2652 19 11.5196 18.8946 11.7071 18.7071C11.8946 18.5196 12 18.2652 12 18C12 17.7348 11.8946 17.4804 11.7071 17.2929C11.5196 17.1054 11.2652 17 11 17ZM18 2C18 1.73478 17.8946 1.48043 17.7071 1.29289C17.5196 1.10536 17.2652 1 17 1H3C2.73478 1 2.48043 1.10536 2.29289 1.29289C2.10536 1.48043 2 1.73478 2 2C2 2.26522 2.10536 2.51957 2.29289 2.70711C2.48043 2.89464 2.73478 3 3 3H17C17.2652 3 17.5196 2.89464 17.7071 2.70711C17.8946 2.51957 18 2.26522 18 2ZM21 5H6C5.73478 5 5.48043 5.10536 5.29289 5.29289C5.10536 5.48043 5 5.73478 5 6C5 6.26522 5.10536 6.51957 5.29289 6.70711C5.48043 6.89464 5.73478 7 6 7H21C21.2652 7 21.5196 6.89464 21.7071 6.70711C21.8946 6.51957 22 6.26522 22 6C22 5.73478 21.8946 5.48043 21.7071 5.29289C21.5196 5.10536 21.2652 5 21 5ZM19 9H10C9.73478 9 9.48043 9.10536 9.29289 9.29289C9.10536 9.48043 9 9.73478 9 10C9 10.2652 9.10536 10.5196 9.29289 10.7071C9.48043 10.8946 9.73478 11 10 11H19C19.2652 11 19.5196 10.8946 19.7071 10.7071C19.8946 10.5196 20 10.2652 20 10C20 9.73478 19.8946 9.48043 19.7071 9.29289C19.5196 9.10536 19.2652 9 19 9ZM14 13H8C7.73478 13 7.48043 13.1054 7.29289 13.2929C7.10536 13.4804 7 13.7348 7 14C7 14.2652 7.10536 14.5196 7.29289 14.7071C7.48043 14.8946 7.73478 15 8 15H14C14.2652 15 14.5196 14.8946 14.7071 14.7071C14.8946 14.5196 15 14.2652 15 14C15 13.7348 14.8946 13.4804 14.7071 13.2929C14.5196 13.1054 14.2652 13 14 13Z" />
</svg>
