<svg width="24" height="24" viewBox="0 0 24 24" xmlns="http://www.w3.org/2000/svg">
<path d="M21 15.26C20.7348 15.26 20.4804 15.3654 20.2929 15.5529C20.1054 15.7404 20 15.9948 20 16.26V19.26C20 19.5252 19.8946 19.7796 19.7071 19.9671C19.5196 20.1547 19.2652 20.26 19 20.26H5C4.73478 20.26 4.48043 20.1547 4.29289 19.9671C4.10536 19.7796 4 19.5252 4 19.26V9.67001L9.88 15.56C10.4388 16.1142 11.193 16.4267 11.98 16.43C12.4792 16.4309 12.9707 16.3071 13.41 16.07C13.5258 16.0072 13.628 15.9222 13.7109 15.8197C13.7937 15.7173 13.8555 15.5995 13.8926 15.4731C13.9298 15.3468 13.9416 15.2143 13.9274 15.0833C13.9133 14.9524 13.8734 14.8255 13.81 14.71C13.7472 14.5942 13.6621 14.492 13.5597 14.4091C13.4573 14.3263 13.3395 14.2646 13.2131 14.2274C13.0868 14.1902 12.9543 14.1784 12.8233 14.1926C12.6924 14.2067 12.5655 14.2467 12.45 14.31C12.2645 14.4051 12.0539 14.4398 11.8478 14.4093C11.6416 14.3788 11.4501 14.2847 11.3 14.14L5.41 8.26001H12C12.2652 8.26001 12.5196 8.15465 12.7071 7.96712C12.8946 7.77958 13 7.52523 13 7.26001C13 6.99479 12.8946 6.74044 12.7071 6.5529C12.5196 6.36537 12.2652 6.26001 12 6.26001H5C4.20435 6.26001 3.44129 6.57608 2.87868 7.13869C2.31607 7.7013 2 8.46436 2 9.26001V19.26C2 20.0557 2.31607 20.8187 2.87868 21.3813C3.44129 21.9439 4.20435 22.26 5 22.26H19C19.7956 22.26 20.5587 21.9439 21.1213 21.3813C21.6839 20.8187 22 20.0557 22 19.26V16.26C22 15.9948 21.8946 15.7404 21.7071 15.5529C21.5196 15.3654 21.2652 15.26 21 15.26ZM21 3.26001H16C15.7348 3.26001 15.4804 3.36537 15.2929 3.5529C15.1054 3.74044 15 3.99479 15 4.26001V12.26C15.0003 12.4424 15.0505 12.6213 15.1452 12.7773C15.2398 12.9332 15.3753 13.0603 15.537 13.1447C15.6988 13.2292 15.8805 13.2678 16.0625 13.2564C16.2446 13.245 16.4201 13.184 16.57 13.08L18.5 11.79L20.41 13.07C20.5833 13.1907 20.7888 13.2569 21 13.26C21.1415 13.2594 21.2812 13.2287 21.41 13.17C21.5854 13.0911 21.7344 12.9633 21.8391 12.8019C21.9437 12.6405 21.9996 12.4524 22 12.26V4.26001C22 3.99479 21.8946 3.74044 21.7071 3.5529C21.5196 3.36537 21.2652 3.26001 21 3.26001ZM20 10.38L19.06 9.75001C18.8946 9.63823 18.6996 9.5785 18.5 9.5785C18.3004 9.5785 18.1054 9.63823 17.94 9.75001L17 10.38V5.26001H20V10.38Z" />
</svg>
