<svg width="24" height="24" viewBox="0 0 24 24" xmlns="http://www.w3.org/2000/svg">
<path d="M4.5 10H10C10.7 9.99836 11.3774 9.75197 11.915 9.30349C12.4525 8.85502 12.8162 8.23269 12.9432 7.54427C13.0702 6.85586 12.9525 6.1447 12.6104 5.53395C12.2683 4.9232 11.7234 4.45131 11.07 4.2C10.694 3.46203 10.0982 2.85897 9.36489 2.47406C8.63154 2.08915 7.79679 1.94137 6.97587 2.05112C6.15495 2.16087 5.38834 2.52274 4.78186 3.08677C4.17537 3.6508 3.75893 4.38919 3.59 5.2C3.06481 5.42315 2.63176 5.81926 2.36279 6.32252C2.09381 6.82579 2.00511 7.40593 2.1114 7.96658C2.21769 8.52723 2.51258 9.03464 2.94709 9.40454C3.3816 9.77444 3.92957 9.98456 4.5 10ZM4.5 7C4.76522 7 5.01957 6.89464 5.20711 6.70711C5.39464 6.51957 5.5 6.26522 5.5 6C5.5033 5.52827 5.67324 5.07289 5.9798 4.71433C6.28635 4.35577 6.70978 4.11711 7.17527 4.04053C7.64075 3.96395 8.11832 4.05437 8.52359 4.29581C8.92886 4.53726 9.23574 4.91419 9.39 5.36C9.44866 5.52998 9.55207 5.68099 9.68934 5.79714C9.82661 5.91329 9.99266 5.99028 10.17 6.02C10.4014 6.05991 10.6114 6.17998 10.7631 6.35916C10.9149 6.53833 10.9987 6.7652 11 7C11 7.26522 10.8946 7.51957 10.7071 7.70711C10.5196 7.89464 10.2652 8 10 8H4.5C4.36739 8 4.24021 7.94732 4.14645 7.85355C4.05268 7.75979 4 7.63261 4 7.5C4 7.36739 4.05268 7.24021 4.14645 7.14645C4.24021 7.05268 4.36739 7 4.5 7ZM19 2H14C13.7348 2 13.4804 2.10536 13.2929 2.29289C13.1054 2.48043 13 2.73478 13 3C13 3.26522 13.1054 3.51957 13.2929 3.70711C13.4804 3.89464 13.7348 4 14 4H19C19.2652 4 19.5196 4.10536 19.7071 4.29289C19.8946 4.48043 20 4.73478 20 5V12H3C2.73478 12 2.48043 12.1054 2.29289 12.2929C2.10536 12.4804 2 12.7348 2 13V15C2 15.7956 2.31607 16.5587 2.87868 17.1213C3.44129 17.6839 4.20435 18 5 18H8V20H5C4.73478 20 4.48043 20.1054 4.29289 20.2929C4.10536 20.4804 4 20.7348 4 21C4 21.2652 4.10536 21.5196 4.29289 21.7071C4.48043 21.8946 4.73478 22 5 22H19C19.2652 22 19.5196 21.8946 19.7071 21.7071C19.8946 21.5196 20 21.2652 20 21C20 20.7348 19.8946 20.4804 19.7071 20.2929C19.5196 20.1054 19.2652 20 19 20H16V18H19C19.7956 18 20.5587 17.6839 21.1213 17.1213C21.6839 16.5587 22 15.7956 22 15V5C22 4.20435 21.6839 3.44129 21.1213 2.87868C20.5587 2.31607 19.7956 2 19 2ZM14 20H10V18H14V20ZM20 15C20 15.2652 19.8946 15.5196 19.7071 15.7071C19.5196 15.8946 19.2652 16 19 16H5C4.73478 16 4.48043 15.8946 4.29289 15.7071C4.10536 15.5196 4 15.2652 4 15V14H20V15Z" />
</svg>
