<svg width="24" height="24" viewBox="0 0 24 24" xmlns="http://www.w3.org/2000/svg">
<path d="M4.5 10H10C10.7 9.99839 11.3774 9.752 11.915 9.30352C12.4525 8.85504 12.8162 8.23271 12.9432 7.5443C13.0702 6.85588 12.9525 6.14473 12.6104 5.53398C12.2683 4.92323 11.7234 4.45134 11.07 4.20003C10.694 3.46206 10.0982 2.859 9.36489 2.47409C8.63154 2.08918 7.79679 1.9414 6.97587 2.05115C6.15495 2.1609 5.38834 2.52276 4.78186 3.08679C4.17537 3.65083 3.75893 4.38921 3.59 5.20003C3.06481 5.42318 2.63176 5.81928 2.36279 6.32255C2.09381 6.82582 2.00511 7.40596 2.1114 7.9666C2.21769 8.52725 2.51258 9.03467 2.94709 9.40457C3.3816 9.77447 3.92957 9.98459 4.5 10ZM4.5 7.00003C4.76522 7.00003 5.01957 6.89467 5.20711 6.70713C5.39464 6.5196 5.5 6.26524 5.5 6.00003C5.5033 5.5283 5.67324 5.07292 5.9798 4.71436C6.28635 4.3558 6.70978 4.11714 7.17527 4.04056C7.64075 3.96397 8.11832 4.05439 8.52359 4.29584C8.92886 4.53729 9.23574 4.91422 9.39 5.36003C9.44866 5.53 9.55207 5.68102 9.68934 5.79717C9.82661 5.91332 9.99266 5.9903 10.17 6.02003C10.4014 6.05994 10.6114 6.18 10.7631 6.35918C10.9149 6.53836 10.9987 6.76522 11 7.00003C11 7.26524 10.8946 7.5196 10.7071 7.70713C10.5196 7.89467 10.2652 8.00003 10 8.00003H4.5C4.36739 8.00003 4.24021 7.94735 4.14645 7.85358C4.05268 7.75981 4 7.63263 4 7.50003C4 7.36742 4.05268 7.24024 4.14645 7.14647C4.24021 7.0527 4.36739 7.00003 4.5 7.00003ZM21 16H20V9.00003C20 8.20438 19.6839 7.44131 19.1213 6.87871C18.5587 6.3161 17.7956 6.00003 17 6.00003H16C15.7348 6.00003 15.4804 6.10538 15.2929 6.29292C15.1054 6.48046 15 6.73481 15 7.00003C15 7.26524 15.1054 7.5196 15.2929 7.70713C15.4804 7.89467 15.7348 8.00003 16 8.00003H17C17.2652 8.00003 17.5196 8.10538 17.7071 8.29292C17.8946 8.48046 18 8.73481 18 9.00003V16H6V13C6 12.7348 5.89464 12.4805 5.70711 12.2929C5.51957 12.1054 5.26522 12 5 12C4.73478 12 4.48043 12.1054 4.29289 12.2929C4.10536 12.4805 4 12.7348 4 13V16H3C2.73478 16 2.48043 16.1054 2.29289 16.2929C2.10536 16.4805 2 16.7348 2 17V19C2 19.7957 2.31607 20.5587 2.87868 21.1213C3.44129 21.684 4.20435 22 5 22H19C19.7956 22 20.5587 21.684 21.1213 21.1213C21.6839 20.5587 22 19.7957 22 19V17C22 16.7348 21.8946 16.4805 21.7071 16.2929C21.5196 16.1054 21.2652 16 21 16ZM20 19C20 19.2652 19.8946 19.5196 19.7071 19.7071C19.5196 19.8947 19.2652 20 19 20H5C4.73478 20 4.48043 19.8947 4.29289 19.7071C4.10536 19.5196 4 19.2652 4 19V18H20V19Z" />
</svg>
