<svg width="24" height="21" viewBox="0 0 24 21" xmlns="http://www.w3.org/2000/svg">
<path d="M17 18.63H5C4.20435 18.63 3.44129 18.3139 2.87868 17.7513C2.31607 17.1887 2 16.4257 2 15.63V7.63C2 7.3648 1.89464 7.1104 1.70711 6.9229C1.51957 6.73536 1.26522 6.63 1 6.63C0.734784 6.63 0.48043 6.73536 0.292893 6.9229C0.105357 7.1104 0 7.3648 0 7.63V15.63C0 16.9561 0.526784 18.2279 1.46447 19.1655C2.40215 20.1032 3.67392 20.63 5 20.63H17C17.2652 20.63 17.5196 20.5246 17.7071 20.3371C17.8946 20.1496 18 19.8952 18 19.63C18 19.3648 17.8946 19.1104 17.7071 18.9229C17.5196 18.7354 17.2652 18.63 17 18.63ZM21 0.630005H7C6.20435 0.630005 5.44129 0.946085 4.87868 1.50868C4.31607 2.07129 4 2.83436 4 3.63V13.63C4 14.4257 4.31607 15.1887 4.87868 15.7513C5.44129 16.3139 6.20435 16.63 7 16.63H21C21.7956 16.63 22.5587 16.3139 23.1213 15.7513C23.6839 15.1887 24 14.4257 24 13.63V3.63C24 2.83436 23.6839 2.07129 23.1213 1.50868C22.5587 0.946085 21.7956 0.630005 21 0.630005ZM20.59 2.63L14.71 8.51C14.617 8.6037 14.5064 8.6781 14.3846 8.7289C14.2627 8.7797 14.132 8.80581 14 8.80581C13.868 8.80581 13.7373 8.7797 13.6154 8.7289C13.4936 8.6781 13.383 8.6037 13.29 8.51L7.41 2.63H20.59ZM22 13.63C22 13.8952 21.8946 14.1496 21.7071 14.3371C21.5196 14.5246 21.2652 14.63 21 14.63H7C6.73478 14.63 6.48043 14.5246 6.29289 14.3371C6.10536 14.1496 6 13.8952 6 13.63V4L11.88 9.88C12.4425 10.4418 13.205 10.7574 14 10.7574C14.795 10.7574 15.5575 10.4418 16.12 9.88L22 4V13.63Z" />
</svg>
