<svg width="24" height="24" viewBox="0 0 24 24" xmlns="http://www.w3.org/2000/svg">
<path d="M11 13H13C13.2652 13 13.5196 12.8947 13.7071 12.7071C13.8946 12.5196 14 12.2652 14 12C14 11.7348 13.8946 11.4804 13.7071 11.2929C13.5196 11.1054 13.2652 11 13 11H11C10.7348 11 10.4804 11.1054 10.2929 11.2929C10.1054 11.4804 10 11.7348 10 12C10 12.2652 10.1054 12.5196 10.2929 12.7071C10.4804 12.8947 10.7348 13 11 13ZM19 20H18V9.00001H19C19.2652 9.00001 19.5196 8.89466 19.7071 8.70712C19.8946 8.51958 20 8.26523 20 8.00001C20 7.7348 19.8946 7.48044 19.7071 7.29291C19.5196 7.10537 19.2652 7.00001 19 7.00001H17.91C17.6664 5.60943 16.9402 4.34928 15.8593 3.44122C14.7783 2.53315 13.4118 2.03534 12 2.03534C10.5882 2.03534 9.22169 2.53315 8.14072 3.44122C7.05975 4.34928 6.33361 5.60943 6.09 7.00001H5C4.73478 7.00001 4.48043 7.10537 4.29289 7.29291C4.10536 7.48044 4 7.7348 4 8.00001C4 8.26523 4.10536 8.51958 4.29289 8.70712C4.48043 8.89466 4.73478 9.00001 5 9.00001H6V20H5C4.73478 20 4.48043 20.1054 4.29289 20.2929C4.10536 20.4804 4 20.7348 4 21C4 21.2652 4.10536 21.5196 4.29289 21.7071C4.48043 21.8947 4.73478 22 5 22H19C19.2652 22 19.5196 21.8947 19.7071 21.7071C19.8946 21.5196 20 21.2652 20 21C20 20.7348 19.8946 20.4804 19.7071 20.2929C19.5196 20.1054 19.2652 20 19 20ZM12 4.00001C12.8846 4.00289 13.7432 4.29888 14.4416 4.8417C15.1401 5.38452 15.6389 6.14354 15.86 7.00001H8.14C8.36114 6.14354 8.85993 5.38452 9.55836 4.8417C10.2568 4.29888 11.1154 4.00289 12 4.00001ZM16 20H8V18H16V20ZM16 16H8V9.00001H16V16Z" />
</svg>
