<svg width="24" height="24" viewBox="0 0 24 24" xmlns="http://www.w3.org/2000/svg">
<path d="M21.63 5.11999C21.5138 5.02601 21.3781 4.95927 21.2327 4.92465C21.0873 4.89004 20.9361 4.88845 20.79 4.91999C20.4116 5.00321 20.0199 5.00524 19.6407 4.92595C19.2614 4.84666 18.9033 4.68784 18.59 4.45999C18.4187 4.33484 18.2121 4.2674 18 4.2674C17.7879 4.2674 17.5813 4.33484 17.41 4.45999C17.0967 4.68784 16.7386 4.84666 16.3593 4.92595C15.9801 5.00524 15.5884 5.00321 15.21 4.91999C15.064 4.88863 14.9128 4.89037 14.7676 4.92508C14.6223 4.9598 14.4867 5.0266 14.3706 5.1206C14.2546 5.21459 14.161 5.33339 14.0969 5.46826C14.0328 5.60313 13.9997 5.75065 14 5.89999V9.20999C13.9984 9.92722 14.1639 10.635 14.4833 11.2772C14.8026 11.9194 15.2671 12.4784 15.84 12.91L17.41 14.07C17.5813 14.1951 17.7879 14.2626 18 14.2626C18.2121 14.2626 18.4187 14.1951 18.59 14.07L20.16 12.91C20.7329 12.4784 21.1974 11.9194 21.5167 11.2772C21.8361 10.635 22.0016 9.92722 22 9.20999V5.89999C22.0005 5.7506 21.9675 5.60299 21.9035 5.46801C21.8395 5.33303 21.746 5.21411 21.63 5.11999ZM20 9.20999C20.0055 9.61184 19.9181 10.0095 19.7446 10.372C19.5712 10.7346 19.3163 11.0521 19 11.3L18 12L17 11.28C16.6837 11.0321 16.4288 10.7146 16.2554 10.352C16.0819 9.98952 15.9945 9.59184 16 9.18999V6.99999C16.6987 6.97199 17.3822 6.78745 18 6.45999C18.6178 6.78745 19.3013 6.97199 20 6.99999V9.20999ZM21 15.21C20.7348 15.21 20.4804 15.3153 20.2929 15.5029C20.1054 15.6904 20 15.9448 20 16.21V19.21C20 19.4752 19.8946 19.7296 19.7071 19.9171C19.5196 20.1046 19.2652 20.21 19 20.21H5C4.73478 20.21 4.48043 20.1046 4.29289 19.9171C4.10536 19.7296 4 19.4752 4 19.21V9.66999L9.88 15.55C10.4396 16.1103 11.1981 16.4266 11.99 16.43C12.3903 16.431 12.7867 16.3519 13.156 16.1973C13.5252 16.0428 13.8598 15.8159 14.14 15.53L13.44 14.82L12.7 14.14C12.5131 14.3232 12.2618 14.4258 12 14.4258C11.7382 14.4258 11.4869 14.3232 11.3 14.14L5.41 8.25999H11C11.2652 8.25999 11.5196 8.15464 11.7071 7.9671C11.8946 7.77956 12 7.52521 12 7.25999C12 6.99478 11.8946 6.74042 11.7071 6.55289C11.5196 6.36535 11.2652 6.25999 11 6.25999H5C4.20435 6.25999 3.44129 6.57606 2.87868 7.13867C2.31607 7.70128 2 8.46434 2 9.25999V19.26C2 20.0556 2.31607 20.8187 2.87868 21.3813C3.44129 21.9439 4.20435 22.26 5 22.26H19C19.7956 22.26 20.5587 21.9439 21.1213 21.3813C21.6839 20.8187 22 20.0556 22 19.26V16.26C22 15.9948 21.8946 15.7404 21.7071 15.5529C21.5196 15.3653 21.2652 15.26 21 15.26V15.21Z" />
</svg>
