<svg width="24" height="24" viewBox="0 0 24 24" xmlns="http://www.w3.org/2000/svg">
<path d="M20.5 14C20.2348 14 19.9804 14.1054 19.7929 14.2929C19.6054 14.4804 19.5 14.7348 19.5 15V19C19.5 19.2652 19.3946 19.5196 19.2071 19.7071C19.0196 19.8946 18.7652 20 18.5 20H4.5C4.23478 20 3.98043 19.8946 3.79289 19.7071C3.60536 19.5196 3.5 19.2652 3.5 19V9.41L9.38 15.3C9.9425 15.8618 10.705 16.1774 11.5 16.1774C12.295 16.1774 13.0575 15.8618 13.62 15.3L15.26 13.66C15.4483 13.4717 15.5541 13.2163 15.5541 12.95C15.5541 12.6837 15.4483 12.4283 15.26 12.24C15.0717 12.0517 14.8163 11.9459 14.55 11.9459C14.2837 11.9459 14.0283 12.0517 13.84 12.24L12.2 13.88C12.0131 14.0632 11.7618 14.1659 11.5 14.1659C11.2382 14.1659 10.9869 14.0632 10.8 13.88L4.91 8H11.5C11.7652 8 12.0196 7.89464 12.2071 7.70711C12.3946 7.51957 12.5 7.26522 12.5 7C12.5 6.73478 12.3946 6.48043 12.2071 6.29289C12.0196 6.10536 11.7652 6 11.5 6H4.5C3.70435 6 2.94129 6.31607 2.37868 6.87868C1.81607 7.44129 1.5 8.20435 1.5 9V19C1.5 19.7956 1.81607 20.5587 2.37868 21.1213C2.94129 21.6839 3.70435 22 4.5 22H18.5C19.2956 22 20.0587 21.6839 20.6213 21.1213C21.1839 20.5587 21.5 19.7956 21.5 19V15C21.5 14.7348 21.3946 14.4804 21.2071 14.2929C21.0196 14.1054 20.7652 14 20.5 14ZM22.21 7.29C22.117 7.19627 22.0064 7.12188 21.8846 7.07111C21.7627 7.02034 21.632 6.9942 21.5 6.9942C21.368 6.9942 21.2373 7.02034 21.1154 7.07111C20.9936 7.12188 20.883 7.19627 20.79 7.29L19.5 8.59V3C19.5 2.73478 19.3946 2.48043 19.2071 2.29289C19.0196 2.10536 18.7652 2 18.5 2C18.2348 2 17.9804 2.10536 17.7929 2.29289C17.6054 2.48043 17.5 2.73478 17.5 3V8.59L16.21 7.29C16.1168 7.19676 16.0061 7.1228 15.8842 7.07234C15.7624 7.02188 15.6319 6.99591 15.5 6.99591C15.2337 6.99591 14.9783 7.1017 14.79 7.29C14.6968 7.38324 14.6228 7.49393 14.5723 7.61575C14.5219 7.73757 14.4959 7.86814 14.4959 8C14.4959 8.2663 14.6017 8.5217 14.79 8.71L17.79 11.71C17.8851 11.801 17.9972 11.8724 18.12 11.92C18.2397 11.9729 18.3691 12.0002 18.5 12.0002C18.6309 12.0002 18.7603 11.9729 18.88 11.92C19.0028 11.8724 19.1149 11.801 19.21 11.71L22.21 8.71C22.3037 8.61704 22.3781 8.50644 22.4289 8.38458C22.4797 8.26272 22.5058 8.13201 22.5058 8C22.5058 7.86799 22.4797 7.73728 22.4289 7.61542C22.3781 7.49356 22.3037 7.38296 22.21 7.29Z" />
</svg>
