<svg width="24" height="24" viewBox="0 0 24 24" xmlns="http://www.w3.org/2000/svg">
<path d="M21 8C20.7348 8 20.4804 8.10536 20.2929 8.29289C20.1054 8.48043 20 8.73478 20 9V17C20 17.2652 19.8946 17.5196 19.7071 17.7071C19.5196 17.8946 19.2652 18 19 18H5C4.73478 18 4.48043 17.8946 4.29289 17.7071C4.10536 17.5196 4 17.2652 4 17V7.41L9.88 13.29C10.4425 13.8518 11.205 14.1674 12 14.1674C12.795 14.1674 13.5575 13.8518 14.12 13.29L17.71 9.71C17.8983 9.5217 18.0041 9.2663 18.0041 9C18.0041 8.7337 17.8983 8.4783 17.71 8.29C17.5217 8.1017 17.2663 7.99591 17 7.99591C16.7337 7.99591 16.4783 8.1017 16.29 8.29L12.71 11.88C12.617 11.9737 12.5064 12.0481 12.3846 12.0989C12.2627 12.1497 12.132 12.1758 12 12.1758C11.868 12.1758 11.7373 12.1497 11.6154 12.0989C11.4936 12.0481 11.383 11.9737 11.29 11.88L5.41 6H13C13.2652 6 13.5196 5.89464 13.7071 5.70711C13.8946 5.51957 14 5.26522 14 5C14 4.73478 13.8946 4.48043 13.7071 4.29289C13.5196 4.10536 13.2652 4 13 4H5C4.20435 4 3.44129 4.31607 2.87868 4.87868C2.31607 5.44129 2 6.20435 2 7V17C2 17.7956 2.31607 18.5587 2.87868 19.1213C3.44129 19.6839 4.20435 20 5 20H19C19.7956 20 20.5587 19.6839 21.1213 19.1213C21.6839 18.5587 22 17.7956 22 17V9C22 8.73478 21.8946 8.48043 21.7071 8.29289C21.5196 8.10536 21.2652 8 21 8ZM17 6H21C21.2652 6 21.5196 5.89464 21.7071 5.70711C21.8946 5.51957 22 5.26522 22 5C22 4.73478 21.8946 4.48043 21.7071 4.29289C21.5196 4.10536 21.2652 4 21 4H17C16.7348 4 16.4804 4.10536 16.2929 4.29289C16.1054 4.48043 16 4.73478 16 5C16 5.26522 16.1054 5.51957 16.2929 5.70711C16.4804 5.89464 16.7348 6 17 6Z" />
</svg>
