<svg width="24" height="24" viewBox="0 0 24 24" xmlns="http://www.w3.org/2000/svg">
<path d="M19 9.00003C19.0016 7.65791 18.6173 6.34364 17.8929 5.21378C17.1685 4.08393 16.1346 3.18613 14.9144 2.62736C13.6941 2.06858 12.3389 1.87239 11.0103 2.06214C9.68166 2.2519 8.43559 2.81961 7.42053 3.69764C6.40547 4.57566 5.66422 5.72699 5.28509 7.01444C4.90597 8.3019 4.90495 9.6712 5.28216 10.9592C5.65937 12.2472 6.39891 13.3997 7.41266 14.2792C8.42641 15.1587 9.67164 15.7283 11 15.92V18H10C9.73478 18 9.48042 18.1054 9.29289 18.2929C9.10535 18.4805 8.99999 18.7348 8.99999 19C8.99999 19.2652 9.10535 19.5196 9.29289 19.7071C9.48042 19.8947 9.73478 20 10 20H11V21C11 21.2652 11.1054 21.5196 11.2929 21.7071C11.4804 21.8947 11.7348 22 12 22C12.2652 22 12.5196 21.8947 12.7071 21.7071C12.8946 21.5196 13 21.2652 13 21V20H14C14.2652 20 14.5196 19.8947 14.7071 19.7071C14.8946 19.5196 15 19.2652 15 19C15 18.7348 14.8946 18.4805 14.7071 18.2929C14.5196 18.1054 14.2652 18 14 18H13V15.92C14.6646 15.6798 16.187 14.8482 17.2888 13.5775C18.3906 12.3068 18.998 10.6819 19 9.00003ZM12 14C11.0111 14 10.0444 13.7068 9.22214 13.1574C8.3999 12.608 7.75904 11.8271 7.3806 10.9134C7.00216 9.99981 6.90314 8.99448 7.09607 8.02458C7.28899 7.05467 7.7652 6.16376 8.46446 5.46449C9.16372 4.76523 10.0546 4.28903 11.0245 4.0961C11.9944 3.90318 12.9998 4.00219 13.9134 4.38063C14.827 4.75907 15.6079 5.39993 16.1573 6.22218C16.7068 7.04442 17 8.01112 17 9.00003C17 9.65664 16.8707 10.3068 16.6194 10.9134C16.3681 11.5201 15.9998 12.0713 15.5355 12.5356C15.0712 12.9999 14.52 13.3682 13.9134 13.6194C13.3068 13.8707 12.6566 14 12 14Z" />
</svg>
