<svg width="24" height="24" viewBox="0 0 24 24" xmlns="http://www.w3.org/2000/svg">
<path d="M14.5001 15.9201H13.7301L14.1201 15.2501C14.2527 15.0193 14.2883 14.7453 14.2189 14.4884C14.1495 14.2315 13.9809 14.0127 13.7501 13.8801C13.5194 13.7474 13.2454 13.7119 12.9885 13.7813C12.7316 13.8507 12.5127 14.0193 12.3801 14.2501L12.0001 14.9201L11.6201 14.2501C11.4875 14.0193 11.2687 13.8507 11.0118 13.7813C10.7548 13.7119 10.4809 13.7474 10.2501 13.8801C10.0194 14.0127 9.85078 14.2315 9.78139 14.4884C9.712 14.7453 9.74752 15.0193 9.88013 15.2501L10.2701 15.9201H9.50013C9.23491 15.9201 8.98056 16.0254 8.79302 16.2129C8.60548 16.4005 8.50013 16.6548 8.50013 16.9201C8.50013 17.1853 8.60548 17.4396 8.79302 17.6272C8.98056 17.8147 9.23491 17.9201 9.50013 17.9201H10.2701L9.88013 18.5801C9.74752 18.8108 9.712 19.0848 9.78139 19.3417C9.85078 19.5986 10.0194 19.8174 10.2501 19.9501C10.4809 20.0827 10.7548 20.1182 11.0118 20.0488C11.2687 19.9794 11.4875 19.8108 11.6201 19.5801L12.0001 18.9201L12.3801 19.5801C12.5127 19.8108 12.7316 19.9794 12.9885 20.0488C13.2454 20.1182 13.5194 20.0827 13.7501 19.9501C13.9809 19.8174 14.1495 19.5986 14.2189 19.3417C14.2883 19.0848 14.2527 18.8108 14.1201 18.5801L13.7301 17.9201H14.5001C14.7653 17.9201 15.0197 17.8147 15.2072 17.6272C15.3948 17.4396 15.5001 17.1853 15.5001 16.9201C15.5001 16.6548 15.3948 16.4005 15.2072 16.2129C15.0197 16.0254 14.7653 15.9201 14.5001 15.9201ZM18.4201 8.13005C17.8105 6.72643 16.7577 5.56126 15.4229 4.81288C14.0881 4.06451 12.5448 3.77416 11.0293 3.98629C9.51373 4.19842 8.10948 4.90133 7.03143 5.98743C5.95339 7.07354 5.26096 8.48299 5.06013 10.0001C4.18252 10.2122 3.4025 10.715 2.84693 11.4267C2.29135 12.1385 1.99291 13.0172 2.00013 13.9201C2.00371 14.8639 2.34093 15.776 2.95215 16.4952C3.56337 17.2144 4.40922 17.6943 5.34013 17.8501H5.50013C5.76534 17.8713 6.02813 17.7863 6.23067 17.6137C6.43321 17.4412 6.55891 17.1953 6.58013 16.9301C6.60135 16.6648 6.51634 16.4021 6.3438 16.1995C6.17127 15.997 5.92534 15.8713 5.66013 15.8501C5.19054 15.7691 4.76529 15.5231 4.46095 15.1565C4.15662 14.7898 3.9932 14.3265 4.00013 13.8501C4.00013 13.3196 4.21084 12.8109 4.58591 12.4358C4.96099 12.0608 5.46969 11.8501 6.00013 11.8501C6.26534 11.8501 6.5197 11.7447 6.70723 11.5572C6.89477 11.3696 7.00013 11.1153 7.00013 10.8501C7.00268 9.66733 7.42441 8.5238 8.1904 7.62263C8.95638 6.72146 10.017 6.121 11.1839 5.92792C12.3507 5.73485 13.5483 5.96166 14.5637 6.56806C15.5791 7.17446 16.3467 8.12119 16.7301 9.24005C16.7888 9.41003 16.8922 9.56104 17.0295 9.67719C17.1667 9.79334 17.3328 9.87033 17.5101 9.90005C18.1469 10.0157 18.7291 10.3341 19.17 10.8078C19.6109 11.2815 19.8868 11.8851 19.9566 12.5285C20.0263 13.1719 19.8861 13.8205 19.557 14.3777C19.2278 14.9349 18.7273 15.3707 18.1301 15.6201C17.9975 15.6602 17.8746 15.7275 17.7693 15.8177C17.6641 15.9078 17.5787 16.0189 17.5186 16.1438C17.4586 16.2688 17.4251 16.4048 17.4204 16.5433C17.4157 16.6819 17.4399 16.8199 17.4914 16.9486C17.5429 17.0772 17.6205 17.1938 17.7195 17.2909C17.8184 17.388 17.9364 17.4635 18.0661 17.5125C18.1957 17.5615 18.3341 17.5831 18.4726 17.5758C18.611 17.5685 18.7464 17.5325 18.8701 17.47C19.8248 17.0778 20.6347 16.3998 21.1887 15.529C21.7427 14.6582 22.0136 13.6372 21.9643 12.6063C21.915 11.5754 21.5479 10.585 20.9133 9.77102C20.2788 8.95704 19.4079 8.35938 18.4201 8.06005V8.13005Z" />
</svg>
