<svg width="24" height="24" viewBox="0 0 24 24" xmlns="http://www.w3.org/2000/svg">
<path d="M21.1604 16.13L19.1604 14.98L20.0504 14.74C20.1811 14.7095 20.3043 14.6531 20.4127 14.574C20.5212 14.4949 20.6126 14.3948 20.6815 14.2797C20.7504 14.1645 20.7955 14.0367 20.8139 13.9037C20.8324 13.7708 20.8239 13.6355 20.789 13.5059C20.7541 13.3763 20.6935 13.2551 20.6107 13.1495C20.528 13.0438 20.4248 12.9559 20.3073 12.8909C20.1899 12.826 20.0606 12.7854 19.9271 12.7715C19.7936 12.7576 19.6587 12.7707 19.5304 12.81L16.7104 13.57L14.0004 12L16.7104 10.43L19.5304 11.19H19.7904C20.0556 11.2245 20.3236 11.1522 20.5355 10.989C20.7475 10.8259 20.8859 10.5852 20.9204 10.32C20.9548 10.0548 20.8825 9.78673 20.7194 9.57482C20.5562 9.3629 20.3156 9.22448 20.0504 9.19L19.1604 9L21.1604 7.85C21.2746 7.78434 21.3748 7.69682 21.4552 7.59243C21.5357 7.48805 21.5947 7.36885 21.6291 7.24163C21.6635 7.11441 21.6724 6.98168 21.6555 6.85099C21.6385 6.72031 21.596 6.59425 21.5304 6.48C21.4647 6.36575 21.3772 6.26555 21.2728 6.18513C21.1684 6.1047 21.0492 6.04562 20.922 6.01126C20.7948 5.97691 20.662 5.96794 20.5314 5.98488C20.4007 6.00182 20.2746 6.04434 20.1604 6.11L18.0004 7.37L18.3004 6.26C18.3397 6.13169 18.3528 5.99677 18.3389 5.86328C18.325 5.7298 18.2844 5.60048 18.2194 5.48303C18.1545 5.36558 18.0666 5.2624 17.9609 5.17965C17.8552 5.09689 17.734 5.03625 17.6044 5.00133C17.4748 4.96642 17.3396 4.95795 17.2066 4.97642C17.0737 4.9949 16.9458 5.03994 16.8307 5.10886C16.7155 5.17779 16.6154 5.26919 16.5363 5.37762C16.4573 5.48605 16.4008 5.60929 16.3704 5.74L15.5504 8.74L13.0004 10.27V7.14L15.0704 5.07C15.2566 4.88264 15.3612 4.62919 15.3612 4.365C15.3612 4.10081 15.2566 3.84736 15.0704 3.66C14.9774 3.56627 14.8668 3.49188 14.7449 3.44111C14.6231 3.39034 14.4924 3.3642 14.3604 3.3642C14.2283 3.3642 14.0976 3.39034 13.9758 3.44111C13.8539 3.49188 13.7433 3.56627 13.6504 3.66L13.0004 4.31V2C13.0004 1.73478 12.895 1.48043 12.7075 1.29289C12.5199 1.10536 12.2656 1 12.0004 1C11.7351 1 11.4808 1.10536 11.2933 1.29289C11.1057 1.48043 11.0004 1.73478 11.0004 2V4.47L10.1904 3.66C10.0974 3.56627 9.98679 3.49188 9.86493 3.44111C9.74308 3.39034 9.61237 3.3642 9.48036 3.3642C9.34835 3.3642 9.21764 3.39034 9.09578 3.44111C8.97392 3.49188 8.86332 3.56627 8.77036 3.66C8.58411 3.84736 8.47957 4.10081 8.47957 4.365C8.47957 4.62919 8.58411 4.88264 8.77036 5.07L11.0004 7.3V10.3L8.43036 8.78L7.61036 5.78C7.57991 5.64929 7.52346 5.52605 7.44437 5.41762C7.36528 5.30919 7.26518 5.21779 7.15003 5.14886C7.03487 5.07994 6.90702 5.03489 6.77409 5.01642C6.64116 4.99795 6.50587 5.00642 6.37629 5.04133C6.2467 5.07625 6.12547 5.13689 6.01981 5.21965C5.91416 5.3024 5.82624 5.40558 5.7613 5.52303C5.69636 5.64048 5.65573 5.7698 5.64182 5.90328C5.62792 6.03677 5.64102 6.17169 5.68036 6.3L6.00036 7.37L3.84036 6.13C3.72611 6.06434 3.60004 6.02182 3.46936 6.00488C3.33868 5.98794 3.20594 5.99691 3.07873 6.03126C2.95151 6.06562 2.83231 6.1247 2.72792 6.20513C2.62354 6.28555 2.53602 6.38575 2.47036 6.5C2.4047 6.61425 2.36218 6.74031 2.34524 6.871C2.3283 7.00168 2.33726 7.13441 2.37162 7.26163C2.44101 7.51855 2.60962 7.73739 2.84036 7.87L4.84036 9L4.00036 9.26C3.73514 9.29448 3.49448 9.4329 3.33133 9.64482C3.16817 9.85673 3.09588 10.1248 3.13036 10.39C3.16484 10.6552 3.30326 10.8959 3.51518 11.059C3.72709 11.2222 3.99514 11.2945 4.26036 11.26H4.52036L7.34036 10.5L10.0004 12L7.29036 13.57L4.47036 12.81C4.33804 12.7609 4.19682 12.7403 4.05598 12.7497C3.91515 12.759 3.77789 12.7981 3.65323 12.8643C3.52857 12.9305 3.41934 13.0223 3.33272 13.1338C3.2461 13.2452 3.18405 13.3737 3.15065 13.5108C3.11726 13.648 3.11327 13.7906 3.13896 13.9294C3.16464 14.0682 3.21941 14.2 3.29968 14.3161C3.37994 14.4322 3.48387 14.53 3.60464 14.6031C3.7254 14.6761 3.86026 14.7228 4.00036 14.74L4.89036 14.98L2.89036 16.13C2.65962 16.2626 2.49101 16.4814 2.42162 16.7384C2.35223 16.9953 2.38775 17.2693 2.52036 17.5C2.65297 17.7307 2.8718 17.8993 3.12873 17.9687C3.38565 18.0381 3.65962 18.0026 3.89036 17.87L6.00036 16.63L5.70036 17.74C5.66072 17.868 5.64721 18.0027 5.66063 18.136C5.67406 18.2693 5.71414 18.3986 5.77851 18.5161C5.84287 18.6337 5.9302 18.7371 6.03531 18.8202C6.14041 18.9033 6.26116 18.9645 6.39036 19C6.47675 19.0098 6.56397 19.0098 6.65036 19C6.87612 19.0077 7.09785 18.9388 7.27943 18.8044C7.46102 18.6701 7.59176 18.4782 7.65036 18.26L8.47036 15.26L11.0004 13.73V16.86L8.93036 18.93C8.74411 19.1174 8.63956 19.3708 8.63956 19.635C8.63956 19.8992 8.74411 20.1526 8.93036 20.34C9.02297 20.4345 9.13342 20.5097 9.25529 20.5612C9.37717 20.6127 9.50805 20.6395 9.64036 20.64C9.77267 20.6395 9.90355 20.6127 10.0254 20.5612C10.1473 20.5097 10.2577 20.4345 10.3504 20.34L11.0004 19.69V22C11.0004 22.2652 11.1057 22.5196 11.2933 22.7071C11.4808 22.8946 11.7351 23 12.0004 23C12.2656 23 12.5199 22.8946 12.7075 22.7071C12.895 22.5196 13.0004 22.2652 13.0004 22V19.53L13.8104 20.34C13.9033 20.4337 14.0139 20.5081 14.1358 20.5589C14.2576 20.6097 14.3883 20.6358 14.5204 20.6358C14.6524 20.6358 14.7831 20.6097 14.9049 20.5589C15.0268 20.5081 15.1374 20.4337 15.2304 20.34C15.4166 20.1526 15.5212 19.8992 15.5212 19.635C15.5212 19.3708 15.4166 19.1174 15.2304 18.93L13.0004 16.7V13.7L15.5704 15.19L16.3904 18.19C16.449 18.4082 16.5797 18.6001 16.7613 18.7344C16.9429 18.8688 17.1646 18.9377 17.3904 18.93C17.4767 18.9398 17.564 18.9398 17.6504 18.93C17.778 18.8964 17.8978 18.8378 18.0027 18.7576C18.1076 18.6774 18.1956 18.5773 18.2616 18.4629C18.3276 18.3486 18.3703 18.2223 18.3873 18.0913C18.4042 17.9604 18.3951 17.8274 18.3604 17.7L18.0004 16.63L20.1404 17.87C20.2546 17.9357 20.3807 17.9782 20.5114 17.9951C20.642 18.0121 20.7748 18.0031 20.902 17.9687C21.0292 17.9344 21.1484 17.8753 21.2528 17.7949C21.3572 17.7144 21.4447 17.6143 21.5104 17.5C21.576 17.3857 21.6185 17.2597 21.6355 17.129C21.6524 16.9983 21.6435 16.8656 21.6091 16.7384C21.5747 16.6112 21.5157 16.492 21.4352 16.3876C21.3548 16.2832 21.2546 16.1957 21.1404 16.13H21.1604Z" />
</svg>
