<svg width="24" height="24" viewBox="0 0 24 24" xmlns="http://www.w3.org/2000/svg">
<path d="M21.7002 8.00006C21.5787 7.88008 21.4285 7.79321 21.264 7.74769C21.0995 7.70218 20.926 7.69955 20.7602 7.74006C20.5471 7.79036 20.3291 7.81719 20.1102 7.82006C19.3145 7.82006 18.5514 7.50399 17.9888 6.94138C17.4262 6.37877 17.1102 5.61571 17.1102 4.82006C17.1127 4.5978 17.1395 4.37649 17.1902 4.16006C17.2307 3.99421 17.228 3.82076 17.1825 3.65621C17.137 3.49167 17.0501 3.34152 16.9302 3.22006C16.8117 3.09821 16.6642 3.00856 16.5014 2.95957C16.3387 2.91058 16.1662 2.90387 16.0002 2.94006C15.008 3.1697 14.1095 3.69685 13.4251 4.45099C12.7406 5.20513 12.3028 6.1503 12.1702 7.16006C11.628 6.99992 11.0655 6.91908 10.5002 6.92006C9.06642 6.91744 7.67913 7.42832 6.58952 8.36018C5.4999 9.29204 4.78 10.5833 4.56016 12.0001C3.81749 12.2105 3.1646 12.6593 2.70202 13.2773C2.23945 13.8953 1.99284 14.6482 2.00016 15.4201C2.00053 15.963 2.1283 16.4983 2.37318 16.9828C2.61807 17.4674 2.97325 17.8877 3.41016 18.2101C3.51507 18.2975 3.63677 18.3625 3.76777 18.4011C3.89877 18.4397 4.03629 18.451 4.17184 18.4345C4.30739 18.4179 4.43811 18.3737 4.55594 18.3046C4.67377 18.2356 4.7762 18.1432 4.85693 18.033C4.93766 17.9229 4.99497 17.7973 5.02534 17.6642C5.0557 17.531 5.05847 17.3931 5.03347 17.2588C5.00848 17.1246 4.95625 16.9969 4.88001 16.8836C4.80376 16.7703 4.70512 16.6738 4.59016 16.6001C4.4061 16.4635 4.25677 16.2855 4.15428 16.0805C4.05178 15.8755 3.99898 15.6493 4.00016 15.4201C4.00016 15.0222 4.15819 14.6407 4.4395 14.3594C4.7208 14.0781 5.10233 13.9201 5.50016 13.9201C5.76538 13.9201 6.01973 13.8147 6.20726 13.6272C6.3948 13.4396 6.50016 13.1853 6.50016 12.9201C6.50199 12.2019 6.69715 11.4974 7.06514 10.8807C7.43313 10.264 7.96038 9.75768 8.59153 9.415C9.22268 9.07231 9.93445 8.90588 10.6521 8.93316C11.3698 8.96044 12.0668 9.18044 12.6702 9.57006C13.4022 10.0426 13.9549 10.7467 14.2402 11.5701C14.2988 11.74 14.4022 11.891 14.5395 12.0072C14.6768 12.1233 14.8428 12.2003 15.0202 12.2301C15.5173 12.312 15.9745 12.553 16.3232 12.9168C16.6718 13.2805 16.8932 13.7475 16.954 14.2477C17.0148 14.7479 16.9119 15.2543 16.6606 15.6911C16.4093 16.1278 16.0232 16.4713 15.5602 16.6701C15.4391 16.7222 15.3295 16.7979 15.2377 16.8926C15.146 16.9873 15.0739 17.0992 15.0255 17.2219C14.9772 17.3446 14.9536 17.4756 14.9561 17.6074C14.9586 17.7393 14.9872 17.8693 15.0402 17.9901C15.1182 18.1689 15.2469 18.3211 15.4104 18.4277C15.5739 18.5343 15.765 18.5907 15.9602 18.5901C16.0983 18.588 16.2345 18.5574 16.3602 18.5001C17.1376 18.1612 17.7985 17.6015 18.2607 16.8904C18.7229 16.1793 18.9661 15.3482 18.9602 14.5001C18.9641 13.8032 18.7957 13.1162 18.4702 12.5001C19.3251 12.2739 20.1037 11.8224 20.7247 11.1927C21.3456 10.563 21.7861 9.77813 22.0002 8.92006C22.0321 8.75385 22.0213 8.58226 21.9689 8.42135C21.9164 8.26045 21.8239 8.11549 21.7002 8.00006ZM17.1102 10.8201C16.9704 10.8309 16.8299 10.8309 16.6902 10.8201C16.4594 10.6964 16.2185 10.5927 15.9702 10.5101C15.5635 9.60991 14.9378 8.82603 14.1502 8.23006C14.1502 8.11006 14.1502 7.98006 14.1502 7.86006C14.1501 7.42674 14.244 6.99855 14.4252 6.60496C14.6065 6.21137 14.8709 5.86172 15.2002 5.58006C15.357 6.6451 15.8534 7.63108 16.6155 8.3914C17.3776 9.15172 18.3647 9.64576 19.4302 9.80006C19.1404 10.1272 18.7826 10.3872 18.3819 10.5616C17.9811 10.7361 17.5471 10.8209 17.1102 10.8101V10.8201ZM12.5002 16.9201H11.7302L12.1202 16.2501C12.2528 16.0193 12.2883 15.7454 12.2189 15.4884C12.1495 15.2315 11.9809 15.0127 11.7502 14.8801C11.5194 14.7474 11.2455 14.7119 10.9885 14.7813C10.7316 14.8507 10.5128 15.0193 10.3802 15.2501L10.0002 15.9201L9.62016 15.2501C9.48755 15.0193 9.26871 14.8507 9.01179 14.7813C8.75486 14.7119 8.4809 14.7474 8.25016 14.8801C8.01942 15.0127 7.85081 15.2315 7.78142 15.4884C7.71203 15.7454 7.74755 16.0193 7.88016 16.2501L8.27016 16.9201H7.50016C7.23494 16.9201 6.98059 17.0254 6.79305 17.213C6.60552 17.4005 6.50016 17.6548 6.50016 17.9201C6.50016 18.1853 6.60552 18.4396 6.79305 18.6272C6.98059 18.8147 7.23494 18.9201 7.50016 18.9201H8.27016L7.88016 19.5801C7.74755 19.8108 7.71203 20.0848 7.78142 20.3417C7.85081 20.5986 8.01942 20.8175 8.25016 20.9501C8.4809 21.0827 8.75486 21.1182 9.01179 21.0488C9.26871 20.9794 9.48755 20.8108 9.62016 20.5801L10.0002 19.9201L10.3802 20.5801C10.4458 20.6943 10.5333 20.7945 10.6377 20.8749C10.7421 20.9554 10.8613 21.0144 10.9885 21.0488C11.1157 21.0832 11.2485 21.0921 11.3792 21.0752C11.5098 21.0582 11.6359 21.0157 11.7502 20.9501C11.8644 20.8844 11.9646 20.7969 12.045 20.6925C12.1255 20.5881 12.1845 20.4689 12.2189 20.3417C12.2533 20.2145 12.2622 20.0817 12.2453 19.9511C12.2283 19.8204 12.1858 19.6943 12.1202 19.5801L11.7302 18.9201H12.5002C12.7654 18.9201 13.0197 18.8147 13.2073 18.6272C13.3948 18.4396 13.5002 18.1853 13.5002 17.9201C13.5002 17.6548 13.3948 17.4005 13.2073 17.213C13.0197 17.0254 12.7654 16.9201 12.5002 16.9201Z" />
</svg>
