<svg width="24" height="24" viewBox="0 0 24 24" xmlns="http://www.w3.org/2000/svg">
<path d="M21 19H15C14.2044 19 13.4413 18.6839 12.8787 18.1213C12.3161 17.5587 12 16.7956 12 16V8C12 7.20435 12.3161 6.44129 12.8787 5.87868C13.4413 5.31607 14.2044 5 15 5H21C21.2652 5 21.5196 4.89464 21.7071 4.70711C21.8946 4.51957 22 4.26522 22 4C22 3.73478 21.8946 3.48043 21.7071 3.29289C21.5196 3.10536 21.2652 3 21 3H15C13.6739 3 12.4021 3.52678 11.4645 4.46447C10.5268 5.40215 10 6.67392 10 8V16C10 17.3261 10.5268 18.5979 11.4645 19.5355C12.4021 20.4732 13.6739 21 15 21H21C21.2652 21 21.5196 20.8946 21.7071 20.7071C21.8946 20.5196 22 20.2652 22 20C22 19.7348 21.8946 19.4804 21.7071 19.2929C21.5196 19.1054 21.2652 19 21 19ZM5 3C4.40666 3 3.82664 3.17595 3.33329 3.50559C2.83994 3.83524 2.45543 4.30377 2.22836 4.85195C2.0013 5.40013 1.94189 6.00333 2.05765 6.58527C2.1734 7.16721 2.45912 7.70176 2.87868 8.12132C3.29824 8.54088 3.83279 8.8266 4.41473 8.94236C4.99667 9.05811 5.59987 8.9987 6.14805 8.77164C6.69623 8.54458 7.16477 8.16006 7.49441 7.66671C7.82405 7.17336 8 6.59334 8 6C8 5.20435 7.68393 4.44129 7.12132 3.87868C6.55871 3.31607 5.79565 3 5 3ZM5 7C4.80222 7 4.60888 6.94135 4.44443 6.83147C4.27998 6.72159 4.15181 6.56541 4.07612 6.38268C4.00043 6.19996 3.98063 5.99889 4.01922 5.80491C4.0578 5.61093 4.15304 5.43275 4.29289 5.29289C4.43275 5.15304 4.61093 5.0578 4.80491 5.01921C4.99889 4.98063 5.19996 5.00043 5.38268 5.07612C5.56541 5.15181 5.72159 5.27998 5.83147 5.44443C5.94135 5.60888 6 5.80222 6 6C6 6.26522 5.89464 6.51957 5.70711 6.70711C5.51957 6.89464 5.26522 7 5 7Z" />
</svg>
