<svg width="24" height="24" viewBox="0 0 24 24" xmlns="http://www.w3.org/2000/svg">
<path d="M11.9998 2C11.2799 2.00274 10.5624 2.0832 9.85982 2.24H9.73982C7.55635 2.75585 5.60979 3.99098 4.21309 5.74679C2.8164 7.50261 2.05074 9.6771 2.03919 11.9206C2.02765 14.1642 2.77091 16.3464 4.14946 18.1165C5.52802 19.8866 7.46177 21.1417 9.63982 21.68H9.77982C10.5047 21.8733 11.2498 21.9807 11.9998 22C14.652 22 17.1955 20.9464 19.0709 19.0711C20.9462 17.1957 21.9998 14.6522 21.9998 12C21.9998 9.34784 20.9462 6.8043 19.0709 4.92893C17.1955 3.05357 14.652 2 11.9998 2ZM9.99982 19.74C8.28782 19.2925 6.77249 18.2901 5.69097 16.8896C4.60945 15.4891 4.02279 13.7695 4.02279 12C4.02279 10.2305 4.60945 8.51093 5.69097 7.11041C6.77249 5.70989 8.28782 4.70746 9.99982 4.26C11.7118 4.70746 13.2271 5.70989 14.3087 7.11041C15.3902 8.51093 15.9768 10.2305 15.9768 12C15.9768 13.7695 15.3902 15.4891 14.3087 16.8896C13.2271 18.2901 11.7118 19.2925 9.99982 19.74ZM14.5298 19.58C15.6208 18.6412 16.4963 17.478 17.0964 16.1698C17.6966 14.8616 18.0073 13.4393 18.0073 12C18.0073 10.5607 17.6966 9.13839 17.0964 7.83019C16.4963 6.522 15.6208 5.35878 14.5298 4.42C16.1159 4.95526 17.4941 5.97458 18.4704 7.3344C19.4467 8.69422 19.9718 10.326 19.9718 12C19.9718 13.674 19.4467 15.3058 18.4704 16.6656C17.4941 18.0254 16.1159 19.0447 14.5298 19.58Z" />
</svg>
