<svg width="24" height="24" viewBox="0 0 24 24" xmlns="http://www.w3.org/2000/svg">
<path d="M9.21013 20.29C9.0695 20.1512 8.89093 20.0572 8.69694 20.0199C8.50295 19.9825 8.30224 20.0034 8.12013 20.08C7.99648 20.1258 7.884 20.1974 7.79013 20.29C7.7018 20.3872 7.63077 20.4988 7.58013 20.62C7.52722 20.7397 7.4999 20.8691 7.4999 21C7.4999 21.1309 7.52722 21.2603 7.58013 21.38C7.62504 21.5041 7.69669 21.6168 7.79001 21.7101C7.88333 21.8034 7.99603 21.8751 8.12013 21.92C8.23983 21.9729 8.36926 22.0002 8.50013 22.0002C8.631 22.0002 8.76043 21.9729 8.88013 21.92C9.00131 21.8694 9.11293 21.7983 9.21013 21.71C9.30281 21.6166 9.37613 21.5057 9.4259 21.3839C9.47566 21.2621 9.50089 21.1316 9.50013 21C9.50351 20.8688 9.47611 20.7387 9.42013 20.62C9.36949 20.4988 9.29846 20.3872 9.21013 20.29ZM13.2101 18.29C13.1163 18.1974 13.0038 18.1258 12.8801 18.08C12.698 18.0034 12.4973 17.9825 12.3033 18.0199C12.1093 18.0572 11.9308 18.1512 11.7901 18.29C11.7018 18.3872 11.6308 18.4988 11.5801 18.62C11.5074 18.8017 11.4896 19.0008 11.5289 19.1926C11.5682 19.3843 11.663 19.5603 11.8014 19.6987C11.9398 19.8371 12.1158 19.9319 12.3076 19.9712C12.4993 20.0105 12.6984 19.9927 12.8801 19.92C13.0013 19.8694 13.1129 19.7983 13.2101 19.71C13.3489 19.5694 13.4429 19.3908 13.4803 19.1968C13.5176 19.0028 13.4967 18.8021 13.4201 18.62C13.3695 18.4988 13.2985 18.3872 13.2101 18.29ZM9.21013 16.29C9.0695 16.1512 8.89093 16.0572 8.69694 16.0199C8.50295 15.9825 8.30224 16.0034 8.12013 16.08C7.99738 16.1276 7.88523 16.199 7.79013 16.29C7.7018 16.3872 7.63077 16.4988 7.58013 16.62C7.50355 16.8021 7.48263 17.0028 7.52 17.1968C7.55737 17.3908 7.65137 17.5694 7.79013 17.71C7.88733 17.7983 7.99894 17.8694 8.12013 17.92C8.23983 17.9729 8.36926 18.0002 8.50013 18.0002C8.631 18.0002 8.76043 17.9729 8.88013 17.92C9.00131 17.8694 9.11293 17.7983 9.21013 17.71C9.30281 17.6166 9.37613 17.5057 9.4259 17.3839C9.47566 17.2621 9.50089 17.1316 9.50013 17C9.50351 16.8688 9.47611 16.7387 9.42013 16.62C9.36949 16.4988 9.29846 16.3872 9.21013 16.29ZM12.1201 14.08C11.9974 14.1276 11.8852 14.199 11.7901 14.29C11.6074 14.4816 11.5038 14.7352 11.5001 15C11.4994 15.1316 11.5246 15.2621 11.5744 15.3839C11.6241 15.5057 11.6974 15.6166 11.7901 15.71C11.8873 15.7983 11.9989 15.8694 12.1201 15.92C12.2388 15.976 12.369 16.0034 12.5001 16C12.7653 16 13.0197 15.8946 13.2072 15.7071C13.3948 15.5196 13.5001 15.2652 13.5001 15C13.4964 14.7352 13.3929 14.4816 13.2101 14.29C13.0695 14.1512 12.8909 14.0572 12.6969 14.0199C12.503 13.9825 12.3022 14.0034 12.1201 14.08ZM21.0001 7H20.2001C20.0967 6.55129 19.9211 6.12237 19.6801 5.73L20.2401 5.17C20.404 4.9787 20.4896 4.73262 20.4798 4.48095C20.4701 4.22927 20.3658 3.99053 20.1877 3.81244C20.0096 3.63434 19.7709 3.53001 19.5192 3.52029C19.2675 3.51057 19.0214 3.59617 18.8301 3.76L18.2701 4.32C17.8778 4.07901 17.4488 3.90339 17.0001 3.8V3C17.0001 2.73478 16.8948 2.48043 16.7072 2.29289C16.5197 2.10536 16.2653 2 16.0001 2C15.7349 2 15.4806 2.10536 15.293 2.29289C15.1055 2.48043 15.0001 2.73478 15.0001 3V3.8C14.5541 3.90181 14.1282 4.07758 13.7401 4.32L13.1701 3.76C12.9788 3.59617 12.7327 3.51057 12.4811 3.52029C12.2294 3.53001 11.9907 3.63434 11.8126 3.81244C11.6345 3.99053 11.5301 4.22927 11.5204 4.48095C11.5107 4.73262 11.5963 4.9787 11.7601 5.17L12.3201 5.74C12.2301 5.89 12.1601 6.06 12.0801 6.22C11.566 6.07486 11.0344 6.00084 10.5001 6C9.05898 5.99918 7.66569 6.5171 6.575 7.45906C5.48431 8.40102 4.76909 9.70409 4.56013 11.13C3.86376 11.3239 3.24452 11.7287 2.78746 12.2887C2.33041 12.8487 2.05796 13.5365 2.00755 14.2576C1.95714 14.9787 2.13123 15.6978 2.50592 16.3159C2.88061 16.9341 3.43752 17.4211 4.10013 17.71C4.22757 17.7605 4.36307 17.7876 4.50013 17.79C4.73132 17.7919 4.95603 17.7136 5.13601 17.5685C5.31598 17.4233 5.44011 17.2203 5.48727 16.994C5.53442 16.7676 5.50169 16.532 5.39464 16.327C5.28759 16.1221 5.11284 15.9606 4.90013 15.87C4.63182 15.7557 4.40326 15.5647 4.24314 15.321C4.08302 15.0772 3.99848 14.7916 4.00013 14.5C4.00013 14.1022 4.15816 13.7206 4.43947 13.4393C4.72077 13.158 5.1023 13 5.50013 13C5.76534 13 6.0197 12.8946 6.20723 12.7071C6.39477 12.5196 6.50013 12.2652 6.50013 12C6.50442 11.0557 6.84265 10.1434 7.45497 9.42447C8.06728 8.70558 8.91419 8.22651 9.84578 8.07204C10.7774 7.91757 11.7336 8.09767 12.5451 8.58047C13.3567 9.06326 13.9713 9.81761 14.2801 10.71C14.3373 10.8818 14.44 11.0349 14.5774 11.1529C14.7148 11.2709 14.8816 11.3494 15.0601 11.38C15.5246 11.4488 15.9573 11.6569 16.3009 11.9768C16.6446 12.2967 16.8832 12.7133 16.985 13.1717C17.0869 13.63 17.0473 14.1085 16.8714 14.5439C16.6956 14.9792 16.3917 15.351 16.0001 15.61C15.8898 15.6822 15.7948 15.7755 15.7205 15.8844C15.6463 15.9934 15.5942 16.1159 15.5672 16.2449C15.5403 16.374 15.5391 16.5071 15.5636 16.6367C15.5881 16.7662 15.6379 16.8897 15.7101 17C15.7824 17.1103 15.8756 17.2053 15.9845 17.2796C16.0935 17.3539 16.216 17.4059 16.3451 17.4329C16.4741 17.4598 16.6073 17.4611 16.7368 17.4365C16.8664 17.412 16.9898 17.3622 17.1001 17.29C17.6898 16.8891 18.1717 16.3491 18.5031 15.7177C18.8345 15.0864 19.0052 14.383 19.0001 13.67C18.9992 13.139 18.8974 12.613 18.7001 12.12L18.8301 12.24C19.0164 12.4247 19.2678 12.5289 19.5301 12.53C19.6617 12.5308 19.7922 12.5055 19.914 12.4558C20.0359 12.406 20.1467 12.3327 20.2401 12.24C20.4264 12.0526 20.5309 11.7992 20.5309 11.535C20.5309 11.2708 20.4264 11.0174 20.2401 10.83L19.6801 10.27C19.9211 9.87763 20.0967 9.44871 20.2001 9H21.0001C21.2653 9 21.5197 8.89464 21.7072 8.70711C21.8948 8.51957 22.0001 8.26522 22.0001 8C22.0001 7.73478 21.8948 7.48043 21.7072 7.29289C21.5197 7.10536 21.2653 7 21.0001 7ZM17.6601 9.65C17.4864 9.82422 17.2833 9.96641 17.0601 10.07C16.7338 9.84377 16.3769 9.6653 16.0001 9.54C15.5407 8.53676 14.8185 7.67641 13.9101 7.05C14.0216 6.7917 14.1773 6.55482 14.3701 6.35C14.8192 5.93464 15.4084 5.70393 16.0201 5.70393C16.6318 5.70393 17.2211 5.93464 17.6701 6.35C18.099 6.7922 18.3388 7.384 18.3388 8C18.3388 8.616 18.099 9.2078 17.6701 9.65H17.6601Z" />
</svg>
