<svg width="24" height="24" viewBox="0 0 24 24" xmlns="http://www.w3.org/2000/svg">
<path d="M10.5003 15.28V5.5C10.5003 5.23478 10.3949 4.98043 10.2074 4.79289C10.0198 4.60536 9.76549 4.5 9.50027 4.5C9.23506 4.5 8.9807 4.60536 8.79317 4.79289C8.60563 4.98043 8.50027 5.23478 8.50027 5.5V15.28C8.198 15.4545 7.94665 15.7051 7.77122 16.0068C7.59579 16.3086 7.50238 16.651 7.50027 17C7.50027 17.5304 7.71099 18.0391 8.08606 18.4142C8.46113 18.7893 8.96984 19 9.50027 19C10.0307 19 10.5394 18.7893 10.9145 18.4142C11.2896 18.0391 11.5003 17.5304 11.5003 17C11.4982 16.651 11.4048 16.3086 11.2293 16.0068C11.0539 15.7051 10.8025 15.4545 10.5003 15.28ZM19.5003 2.5H19.0003V2C19.0003 1.73478 18.8949 1.48043 18.7074 1.29289C18.5198 1.10536 18.2655 1 18.0003 1C17.7351 1 17.4807 1.10536 17.2932 1.29289C17.1056 1.48043 17.0003 1.73478 17.0003 2V2.5H16.5003C16.2351 2.5 15.9807 2.60536 15.7932 2.79289C15.6056 2.98043 15.5003 3.23478 15.5003 3.5C15.5003 3.76522 15.6056 4.01957 15.7932 4.20711C15.9807 4.39464 16.2351 4.5 16.5003 4.5H17.0003V5C17.0003 5.26522 17.1056 5.51957 17.2932 5.70711C17.4807 5.89464 17.7351 6 18.0003 6C18.2655 6 18.5198 5.89464 18.7074 5.70711C18.8949 5.51957 19.0003 5.26522 19.0003 5V4.5H19.5003C19.7655 4.5 20.0198 4.39464 20.2074 4.20711C20.3949 4.01957 20.5003 3.76522 20.5003 3.5C20.5003 3.23478 20.3949 2.98043 20.2074 2.79289C20.0198 2.60536 19.7655 2.5 19.5003 2.5ZM14.0003 5.5C14.0003 4.30653 13.5262 3.16193 12.6823 2.31802C11.8383 1.47411 10.6937 1 9.50027 1C8.3068 1 7.1622 1.47411 6.31829 2.31802C5.47438 3.16193 5.00027 4.30653 5.00027 5.5V13C4.30911 13.7832 3.8344 14.7333 3.62308 15.7562C3.41177 16.7792 3.47117 17.8396 3.79543 18.8326C4.11968 19.8255 4.69754 20.7166 5.47185 21.4177C6.24616 22.1188 7.19009 22.6056 8.21027 22.83C8.63079 22.926 9.05928 22.9829 9.49027 23C10.6517 23.0074 11.7904 22.6774 12.768 22.0503C13.7456 21.4231 14.5202 20.5257 14.9977 19.4669C15.4752 18.4081 15.6352 17.2334 15.4581 16.0855C15.2811 14.9376 14.7746 13.8657 14.0003 13V5.5ZM12.0003 20.11C11.4736 20.5382 10.8466 20.8254 10.1782 20.9444C9.50994 21.0634 8.82234 21.0104 8.18017 20.7904C7.53801 20.5703 6.96241 20.1905 6.50758 19.6865C6.05274 19.1826 5.73362 18.5713 5.58027 17.91C5.42578 17.2415 5.44581 16.5446 5.63845 15.8861C5.83109 15.2276 6.18986 14.6298 6.68027 14.15C6.77476 14.0574 6.84993 13.9469 6.90143 13.8251C6.95292 13.7032 6.97972 13.5723 6.98027 13.44V5.5C6.98027 4.83696 7.24366 4.20107 7.7125 3.73223C8.18135 3.26339 8.81723 3 9.48027 3C10.1433 3 10.7792 3.26339 11.248 3.73223C11.7169 4.20107 11.9803 4.83696 11.9803 5.5V13.44C11.9808 13.5723 12.0076 13.7032 12.0591 13.8251C12.1106 13.9469 12.1858 14.0574 12.2803 14.15C12.689 14.5449 13.0089 15.0223 13.2187 15.5505C13.4285 16.0787 13.5232 16.6456 13.4968 17.2133C13.4703 17.781 13.3231 18.3366 13.065 18.843C12.807 19.3493 12.444 19.7949 12.0003 20.15V20.11Z" />
</svg>
