<svg width="24" height="24" viewBox="0 0 24 24" xmlns="http://www.w3.org/2000/svg">
<path d="M21.6401 13C21.4958 12.8807 21.3208 12.8043 21.1352 12.7796C20.9496 12.7548 20.7607 12.7827 20.5901 12.86C19.5327 13.3439 18.383 13.593 17.2201 13.59C15.069 13.5874 13.0061 12.7345 11.4813 11.2171C9.95644 9.69979 9.09333 7.64114 9.08014 5.49003C9.0847 4.81586 9.16861 4.14458 9.33014 3.49003C9.36441 3.31557 9.35156 3.13512 9.29289 2.96728C9.23423 2.79944 9.13187 2.65028 8.99638 2.53516C8.86088 2.42004 8.69714 2.34313 8.52203 2.31234C8.34692 2.28156 8.16677 2.29802 8.00014 2.36003C6.43246 3.06494 5.06971 4.15679 4.03989 5.53301C3.01008 6.90924 2.34702 8.52465 2.11298 10.2275C1.87895 11.9304 2.08164 13.6648 2.70201 15.2678C3.32237 16.8708 4.34005 18.2898 5.65944 19.3915C6.97882 20.4932 8.55661 21.2414 10.2446 21.5658C11.9325 21.8903 13.6753 21.7803 15.3091 21.2463C16.9429 20.7122 18.4141 19.7716 19.5845 18.5128C20.755 17.254 21.5862 15.7183 22.0001 14.05C22.0506 13.859 22.0433 13.6574 21.9792 13.4705C21.9151 13.2836 21.7971 13.1199 21.6401 13ZM12.1401 19.69C10.4619 19.6782 8.82834 19.1479 7.46313 18.1718C6.09792 17.1956 5.0678 15.8214 4.51382 14.2372C3.95984 12.6529 3.90907 10.9362 4.36847 9.32203C4.82788 7.70785 5.77499 6.27513 7.08014 5.22003V5.49003C7.08278 8.17851 8.15195 10.7561 10.053 12.6572C11.954 14.5582 14.5317 15.6274 17.2201 15.63C17.926 15.6326 18.6301 15.5589 19.3201 15.41C18.63 16.7155 17.5966 17.8079 16.3313 18.5692C15.066 19.3305 13.6168 19.7319 12.1401 19.73V19.69Z" />
</svg>
