<svg width="24" height="24" viewBox="0 0 24 24" xmlns="http://www.w3.org/2000/svg">
<path d="M12.0001 19H7.00005C6.73484 19 6.48048 19.1054 6.29295 19.2929C6.10541 19.4804 6.00005 19.7348 6.00005 20C6.00005 20.2652 6.10541 20.5196 6.29295 20.7071C6.48048 20.8947 6.73484 21 7.00005 21H12.0001C12.2642 21.0035 12.5165 21.11 12.7033 21.2968C12.8901 21.4836 12.9966 21.7359 13.0001 22C13.0001 22.2652 13.1054 22.5196 13.2929 22.7071C13.4805 22.8947 13.7348 23 14.0001 23C14.2653 23 14.5196 22.8947 14.7072 22.7071C14.8947 22.5196 15.0001 22.2652 15.0001 22C14.9992 21.2046 14.6828 20.4421 14.1204 19.8797C13.558 19.3172 12.7954 19.0009 12.0001 19ZM14.0001 9.00002C14.1978 9.00002 14.3912 8.94137 14.5556 8.83149C14.7201 8.7216 14.8482 8.56543 14.9239 8.3827C14.9996 8.19997 15.0194 7.99891 14.9808 7.80493C14.9423 7.61095 14.847 7.43276 14.7072 7.29291C14.5673 7.15306 14.3891 7.05782 14.1951 7.01923C14.0012 6.98065 13.8001 7.00045 13.6174 7.07614C13.4346 7.15182 13.2785 7.28 13.1686 7.44445C13.0587 7.6089 13.0001 7.80224 13.0001 8.00002C13.0001 8.26523 13.1054 8.51959 13.2929 8.70712C13.4805 8.89466 13.7348 9.00002 14.0001 9.00002ZM18.0001 9.00002H20.0001C20.7954 8.99915 21.558 8.6828 22.1204 8.12038C22.6828 7.55796 22.9992 6.7954 23.0001 6.00002C23.0001 5.7348 22.8947 5.48045 22.7072 5.29291C22.5196 5.10537 22.2653 5.00002 22.0001 5.00002C21.7348 5.00002 21.4805 5.10537 21.2929 5.29291C21.1054 5.48045 21.0001 5.7348 21.0001 6.00002C20.9966 6.26415 20.8901 6.51648 20.7033 6.70326C20.5165 6.89005 20.2642 6.99653 20.0001 7.00002H18.0001C17.7348 7.00002 17.4805 7.10537 17.2929 7.29291C17.1054 7.48045 17.0001 7.7348 17.0001 8.00002C17.0001 8.26523 17.1054 8.51959 17.2929 8.70712C17.4805 8.89466 17.7348 9.00002 18.0001 9.00002ZM20.0001 15H17.8387C18.4126 14.1023 18.8024 13.0995 18.9854 12.0498C19.0147 11.8791 18.9992 11.7037 18.9404 11.5408C18.8815 11.3779 18.7814 11.2331 18.6498 11.1204C18.5182 11.0078 18.3596 10.9313 18.1896 10.8984C18.0195 10.8655 17.8439 10.8773 17.6797 10.9326C17.0614 11.1427 16.4128 11.25 15.7598 11.25C14.1546 11.2494 12.6151 10.6122 11.4792 9.47802C10.3432 8.34387 9.70343 6.80544 9.70025 5.20022C9.70699 4.84868 9.73963 4.49812 9.7979 4.15139C9.82401 3.98178 9.806 3.80831 9.7456 3.64769C9.6852 3.48706 9.58446 3.3447 9.45308 3.23431C9.32169 3.12392 9.16409 3.04923 8.99546 3.01743C8.82683 2.98563 8.65285 2.99779 8.49028 3.05275C7.33105 3.43946 6.27534 4.08559 5.40355 4.94194C4.53175 5.79828 3.86685 6.84227 3.45947 7.9944C3.0521 9.14653 2.91299 10.3764 3.05274 11.5904C3.19249 12.8045 3.60742 13.9706 4.26592 15H3.00005C2.73484 15 2.48048 15.1054 2.29295 15.2929C2.10541 15.4804 2.00005 15.7348 2.00005 16C2.00005 16.2652 2.10541 16.5196 2.29295 16.7071C2.48048 16.8947 2.73484 17 3.00005 17H8.00005C8.26527 17 8.51962 16.8947 8.70716 16.7071C8.8947 16.5196 9.00005 16.2652 9.00005 16C9.00005 15.7348 8.8947 15.4804 8.70716 15.2929C8.51962 15.1054 8.26527 15 8.00005 15H6.83056C6.18293 14.3717 5.68462 13.606 5.3724 12.7594C5.06017 11.9128 4.942 11.0068 5.02659 10.1085C5.11118 9.2101 5.39639 8.34218 5.86116 7.56874C6.32593 6.79529 6.95842 6.13606 7.71196 5.63967C7.82817 7.69587 8.72656 9.62973 10.2229 11.0448C11.7193 12.4598 13.7003 13.2488 15.7598 13.25C16.0233 13.2502 16.2867 13.2372 16.5489 13.211C16.2381 13.8801 15.8071 14.4865 15.2773 15H12.0001C11.7348 15 11.4805 15.1054 11.2929 15.2929C11.1054 15.4804 11.0001 15.7348 11.0001 16C11.0001 16.2652 11.1054 16.5196 11.2929 16.7071C11.4805 16.8947 11.7348 17 12.0001 17H20.0001C20.2653 17 20.5196 17.1054 20.7072 17.2929C20.8947 17.4804 21.0001 17.7348 21.0001 18C21.0001 18.2652 20.8947 18.5196 20.7072 18.7071C20.5196 18.8947 20.2653 19 20.0001 19C19.7348 19 19.4805 19.1054 19.2929 19.2929C19.1054 19.4804 19.0001 19.7348 19.0001 20C19.0001 20.2652 19.1054 20.5196 19.2929 20.7071C19.4805 20.8947 19.7348 21 20.0001 21C20.7957 21 21.5588 20.6839 22.1214 20.1213C22.684 19.5587 23.0001 18.7957 23.0001 18C23.0001 17.2044 22.684 16.4413 22.1214 15.8787C21.5588 15.3161 20.7957 15 20.0001 15ZM2.62017 19.0801C2.49893 19.1307 2.38728 19.2017 2.29009 19.2901C2.10544 19.4805 2.00152 19.7348 2.00005 20C1.99835 20.1647 2.03775 20.3272 2.11471 20.4728C2.19166 20.6184 2.30373 20.7425 2.44075 20.8338C2.57778 20.9252 2.73543 20.9809 2.89943 20.9959C3.06343 21.011 3.22858 20.9848 3.37993 20.9199C3.50106 20.8692 3.61269 20.7982 3.71005 20.71C3.80303 20.6168 3.87654 20.506 3.92633 20.3841C3.97611 20.2622 4.00117 20.1317 4.00005 20C3.99614 19.7353 3.89259 19.4818 3.71005 19.29C3.56932 19.1515 3.39077 19.0576 3.19685 19.0203C3.00293 18.9829 2.8023 19.0037 2.62017 19.0801Z" />
</svg>
