<svg width="24" height="24" viewBox="0 0 24 24" xmlns="http://www.w3.org/2000/svg">
<path d="M9 7.75004C9 5.00004 6.42 3.24004 6.31 3.17004C6.14463 3.05827 5.9496 2.99854 5.75 2.99854C5.5504 2.99854 5.35537 3.05827 5.19 3.17004C5.08 3.25004 2.5 5.00004 2.5 7.75004C2.5 8.612 2.84241 9.43865 3.4519 10.0481C4.0614 10.6576 4.88805 11 5.75 11C6.61195 11 7.4386 10.6576 8.0481 10.0481C8.65759 9.43865 9 8.612 9 7.75004ZM5.75 9.00004C5.41848 9.00004 5.10054 8.86835 4.86612 8.63393C4.6317 8.39951 4.5 8.08156 4.5 7.75004C4.58229 6.80192 5.03065 5.92314 5.75 5.30004C6.47364 5.91977 6.92296 6.80042 7 7.75004C7 8.08156 6.8683 8.39951 6.63388 8.63393C6.39946 8.86835 6.08152 9.00004 5.75 9.00004ZM11.81 10.17C11.6446 10.0583 11.4496 9.99853 11.25 9.99853C11.0504 9.99853 10.8554 10.0583 10.69 10.17C10.52 10.29 6.5 13.07 6.5 17.25C6.5 18.5098 7.00045 19.718 7.89124 20.6088C8.78204 21.4996 9.99022 22 11.25 22C12.5098 22 13.718 21.4996 14.6088 20.6088C15.4996 19.718 16 18.5098 16 17.25C16 13 12 10.28 11.81 10.17ZM11.25 20C10.8889 20 10.5313 19.9289 10.1976 19.7907C9.86398 19.6525 9.56082 19.4499 9.30546 19.1946C9.0501 18.9392 8.84753 18.6361 8.70933 18.3024C8.57113 17.9688 8.5 17.6112 8.5 17.25C8.5 14.94 10.31 13.08 11.26 12.25C12.2 13.04 14 14.88 14 17.25C14 17.6112 13.9289 17.9688 13.7907 18.3024C13.6525 18.6361 13.4499 18.9392 13.1945 19.1946C12.9392 19.4499 12.636 19.6525 12.3024 19.7907C11.9687 19.9289 11.6111 20 11.25 20ZM18.06 2.17004C17.8946 2.05827 17.6996 1.99854 17.5 1.99854C17.3004 1.99854 17.1054 2.05827 16.94 2.17004C16.8 2.27004 13.5 4.55004 13.5 8.00004C13.5 9.06091 13.9214 10.0783 14.6716 10.8285C15.4217 11.5786 16.4391 12 17.5 12C18.5609 12 19.5783 11.5786 20.3284 10.8285C21.0786 10.0783 21.5 9.06091 21.5 8.00004C21.5 4.51004 18.2 2.26004 18.06 2.17004ZM17.5 10C16.9696 10 16.4609 9.78933 16.0858 9.41426C15.7107 9.03918 15.5 8.53048 15.5 8.00004C15.5685 7.27796 15.7808 6.57687 16.1242 5.93802C16.4677 5.29917 16.9355 4.73546 17.5 4.28004C18.0666 4.73352 18.5359 5.29676 18.8795 5.93599C19.2232 6.57522 19.4343 7.27727 19.5 8.00004C19.5 8.53048 19.2893 9.03918 18.9142 9.41426C18.5391 9.78933 18.0304 10 17.5 10Z" />
</svg>
