<svg width="24" height="24" viewBox="0 0 24 24" xmlns="http://www.w3.org/2000/svg">
<path d="M12 16.9999C11.8022 16.9999 11.6089 17.0585 11.4444 17.1684C11.28 17.2783 11.1518 17.4345 11.0761 17.6172C11.0005 17.7999 10.9806 18.001 11.0192 18.195C11.0578 18.389 11.1531 18.5672 11.2929 18.707C11.4328 18.8469 11.6109 18.9421 11.8049 18.9807C11.9989 19.0193 12.2 18.9995 12.3827 18.9238C12.5654 18.8481 12.7216 18.7199 12.8315 18.5555C12.9414 18.391 13 18.1977 13 17.9999C13 17.7347 12.8947 17.4803 12.7071 17.2928C12.5196 17.1053 12.2652 16.9999 12 16.9999ZM8.00002 10.9999C7.80224 10.9999 7.6089 11.0585 7.44445 11.1684C7.28 11.2783 7.15183 11.4345 7.07614 11.6172C7.00045 11.7999 6.98065 12.001 7.01923 12.195C7.05782 12.389 7.15306 12.5671 7.29291 12.707C7.43277 12.8469 7.61095 12.9421 7.80493 12.9807C7.99891 13.0193 8.19998 12.9995 8.3827 12.9238C8.56543 12.8481 8.72161 12.7199 8.83149 12.5555C8.94137 12.391 9.00002 12.1977 9.00002 11.9999C9.00002 11.7347 8.89466 11.4803 8.70713 11.2928C8.51959 11.1053 8.26524 10.9999 8.00002 10.9999ZM12 12.9999C11.8022 12.9999 11.6089 13.0585 11.4444 13.1684C11.28 13.2783 11.1518 13.4345 11.0761 13.6172C11.0005 13.7999 10.9806 14.001 11.0192 14.195C11.0578 14.389 11.1531 14.5671 11.2929 14.707C11.4328 14.8469 11.6109 14.9421 11.8049 14.9807C11.9989 15.0193 12.2 14.9995 12.3827 14.9238C12.5654 14.8481 12.7216 14.7199 12.8315 14.5555C12.9414 14.391 13 14.1977 13 13.9999C13 13.7347 12.8947 13.4803 12.7071 13.2928C12.5196 13.1053 12.2652 12.9999 12 12.9999ZM8.00002 18.9999C7.80224 18.9999 7.6089 19.0585 7.44445 19.1684C7.28 19.2783 7.15183 19.4345 7.07614 19.6172C7.00045 19.7999 6.98065 20.001 7.01923 20.195C7.05782 20.389 7.15306 20.5672 7.29291 20.707C7.43277 20.8469 7.61095 20.9421 7.80493 20.9807C7.99891 21.0193 8.19998 20.9995 8.3827 20.9238C8.56543 20.8481 8.72161 20.7199 8.83149 20.5555C8.94137 20.391 9.00002 20.1977 9.00002 19.9999C9.00002 19.7347 8.89466 19.4803 8.70713 19.2928C8.51959 19.1053 8.26524 18.9999 8.00002 18.9999ZM8.00002 14.9999C7.80224 14.9999 7.6089 15.0585 7.44445 15.1684C7.28 15.2783 7.15183 15.4345 7.07614 15.6172C7.00045 15.7999 6.98065 16.001 7.01923 16.195C7.05782 16.389 7.15306 16.5672 7.29291 16.707C7.43277 16.8469 7.61095 16.9421 7.80493 16.9807C7.99891 17.0193 8.19998 16.9995 8.3827 16.9238C8.56543 16.8481 8.72161 16.7199 8.83149 16.5555C8.94137 16.391 9.00002 16.1977 9.00002 15.9999C9.00002 15.7347 8.89466 15.4803 8.70713 15.2928C8.51959 15.1053 8.26524 14.9999 8.00002 14.9999ZM16 14.9999C15.8022 14.9999 15.6089 15.0585 15.4444 15.1684C15.28 15.2783 15.1518 15.4345 15.0761 15.6172C15.0005 15.7999 14.9806 16.001 15.0192 16.195C15.0578 16.389 15.1531 16.5672 15.2929 16.707C15.4328 16.8469 15.6109 16.9421 15.8049 16.9807C15.9989 17.0193 16.2 16.9995 16.3827 16.9238C16.5654 16.8481 16.7216 16.7199 16.8315 16.5555C16.9414 16.391 17 16.1977 17 15.9999C17 15.7347 16.8947 15.4803 16.7071 15.2928C16.5196 15.1053 16.2652 14.9999 16 14.9999ZM12 8.99989C11.8022 8.99989 11.6089 9.05854 11.4444 9.16843C11.28 9.27831 11.1518 9.43448 11.0761 9.61721C11.0005 9.79994 10.9806 10.001 11.0192 10.195C11.0578 10.389 11.1531 10.5671 11.2929 10.707C11.4328 10.8469 11.6109 10.9421 11.8049 10.9807C11.9989 11.0193 12.2 10.9995 12.3827 10.9238C12.5654 10.8481 12.7216 10.7199 12.8315 10.5555C12.9414 10.391 13 10.1977 13 9.99989C13 9.73468 12.8947 9.48032 12.7071 9.29279C12.5196 9.10525 12.2652 8.99989 12 8.99989ZM16 10.9999C15.8022 10.9999 15.6089 11.0585 15.4444 11.1684C15.28 11.2783 15.1518 11.4345 15.0761 11.6172C15.0005 11.7999 14.9806 12.001 15.0192 12.195C15.0578 12.389 15.1531 12.5671 15.2929 12.707C15.4328 12.8469 15.6109 12.9421 15.8049 12.9807C15.9989 13.0193 16.2 12.9995 16.3827 12.9238C16.5654 12.8481 16.7216 12.7199 16.8315 12.5555C16.9414 12.391 17 12.1977 17 11.9999C17 11.7347 16.8947 11.4803 16.7071 11.2928C16.5196 11.1053 16.2652 10.9999 16 10.9999ZM18.42 6.21989C17.809 4.8159 16.7545 3.65097 15.4181 2.90362C14.0817 2.15627 12.5371 1.86773 11.021 2.0822C9.50489 2.29668 8.10095 3.00235 7.02427 4.09107C5.9476 5.17979 5.25761 6.59151 5.06002 8.10989C4.18743 8.32086 3.41118 8.81922 2.85615 9.52481C2.30111 10.2304 1.99957 11.1022 2.00002 11.9999C1.99823 12.5663 2.11677 13.1267 2.34777 13.6438C2.57878 14.161 2.91699 14.6232 3.34002 14.9999C3.43738 15.0934 3.55266 15.1662 3.67892 15.214C3.80518 15.2618 3.9398 15.2835 4.07467 15.2778C4.20955 15.2722 4.34188 15.2392 4.46369 15.1811C4.5855 15.1229 4.69428 15.0407 4.78346 14.9393C4.87264 14.838 4.94037 14.7196 4.98259 14.5914C5.0248 14.4632 5.04062 14.3277 5.02909 14.1933C5.01755 14.0588 4.97891 13.928 4.91548 13.8088C4.85205 13.6897 4.76515 13.5846 4.66002 13.4999C4.45032 13.3107 4.28309 13.0791 4.16933 12.8206C4.05557 12.5621 3.99787 12.2823 4.00002 11.9999C4.00002 11.4695 4.21073 10.9608 4.58581 10.5857C4.96088 10.2106 5.46959 9.99989 6.00002 9.99989C6.26524 9.99989 6.51959 9.89454 6.70713 9.707C6.89466 9.51946 7.00002 9.26511 7.00002 8.99989C7.00257 7.81717 7.42431 6.67365 8.19029 5.77248C8.95627 4.87131 10.0169 4.27085 11.1838 4.07777C12.3506 3.88469 13.5482 4.1115 14.5636 4.7179C15.579 5.32431 16.3466 6.27103 16.73 7.38989C16.7872 7.56173 16.8899 7.71483 17.0273 7.83283C17.1647 7.95083 17.3315 8.02931 17.51 8.0599C18.2042 8.17964 18.8341 8.53983 19.2893 9.07736C19.7446 9.61489 19.9962 10.2955 20 10.9999C20.0153 11.7362 19.7509 12.4509 19.26 12.9999C19.1004 13.1987 19.0227 13.451 19.0429 13.7052C19.063 13.9593 19.1795 14.1962 19.3686 14.3673C19.5576 14.5385 19.8048 14.6309 20.0597 14.6258C20.3147 14.6207 20.558 14.5185 20.74 14.3399C21.2908 13.7105 21.6749 12.9529 21.8572 12.1366C22.0394 11.3203 22.0139 10.4713 21.7831 9.66733C21.5523 8.8634 21.1234 8.13022 20.5359 7.53493C19.9483 6.93963 19.2209 6.50124 18.42 6.25989V6.21989ZM16 18.9999C15.8022 18.9999 15.6089 19.0585 15.4444 19.1684C15.28 19.2783 15.1518 19.4345 15.0761 19.6172C15.0005 19.7999 14.9806 20.001 15.0192 20.195C15.0578 20.389 15.1531 20.5672 15.2929 20.707C15.4328 20.8469 15.6109 20.9421 15.8049 20.9807C15.9989 21.0193 16.2 20.9995 16.3827 20.9238C16.5654 20.8481 16.7216 20.7199 16.8315 20.5555C16.9414 20.391 17 20.1977 17 19.9999C17 19.7347 16.8947 19.4803 16.7071 19.2928C16.5196 19.1053 16.2652 18.9999 16 18.9999Z" />
</svg>
