<svg width="24" height="24" viewBox="0 0 24 24" xmlns="http://www.w3.org/2000/svg">
<path d="M21.7001 7.5701C21.5797 7.45177 21.4312 7.36587 21.2686 7.32041C21.106 7.27494 20.9345 7.2714 20.7701 7.3101C20.5535 7.35961 20.3323 7.38642 20.1101 7.3901C19.3145 7.3901 18.5514 7.07403 17.9888 6.51142C17.4262 5.94881 17.1101 5.18575 17.1101 4.3901C17.113 4.17116 17.1398 3.9532 17.1901 3.7401C17.2299 3.57503 17.2269 3.40256 17.1815 3.23895C17.1362 3.07534 17.0499 2.92597 16.9309 2.80491C16.8118 2.68386 16.6639 2.59511 16.5011 2.54704C16.3382 2.49896 16.1658 2.49313 16.0001 2.5301C15.0048 2.74984 14.1021 3.27266 13.4163 4.0266C12.7304 4.78054 12.295 5.72853 12.1701 6.7401C11.6269 6.58487 11.0651 6.50413 10.5001 6.5001C9.05898 6.49928 7.66569 7.0172 6.575 7.95916C5.48431 8.90112 4.76909 10.2042 4.56013 11.6301C3.86376 11.824 3.24452 12.2288 2.78746 12.7888C2.33041 13.3488 2.05796 14.0366 2.00755 14.7577C1.95714 15.4788 2.13123 16.1979 2.50592 16.816C2.88061 17.4342 3.43752 17.9212 4.10013 18.2101C4.22757 18.2606 4.36307 18.2877 4.50013 18.2901C4.73132 18.292 4.95603 18.2137 5.13601 18.0686C5.31598 17.9234 5.44011 17.7204 5.48727 17.4941C5.53442 17.2677 5.50169 17.0321 5.39464 16.8271C5.28759 16.6222 5.11284 16.4607 4.90013 16.3701C4.63182 16.2558 4.40326 16.0648 4.24314 15.8211C4.08302 15.5773 3.99848 15.2917 4.00013 15.0001C4.00013 14.6023 4.15816 14.2207 4.43947 13.9394C4.72077 13.6581 5.1023 13.5001 5.50013 13.5001C5.76534 13.5001 6.0197 13.3947 6.20723 13.2072C6.39477 13.0197 6.50013 12.7653 6.50013 12.5001C6.50013 11.4392 6.92156 10.4218 7.6717 9.67167C8.42185 8.92153 9.43926 8.5001 10.5001 8.5001C11.2761 8.49948 12.0348 8.72918 12.6801 9.1601C13.4071 9.63827 13.9582 10.3404 14.2501 11.1601C14.3073 11.3319 14.41 11.485 14.5474 11.603C14.6848 11.721 14.8516 11.7995 15.0301 11.8301C15.5107 11.8821 15.963 12.083 16.3239 12.4046C16.6847 12.7261 16.9362 13.1524 17.043 13.6238C17.1498 14.0952 17.1068 14.5883 16.9198 15.034C16.7328 15.4798 16.4113 15.856 16.0001 16.1101C15.7773 16.256 15.6216 16.4844 15.5672 16.745C15.5129 17.0057 15.5643 17.2773 15.7101 17.5001C15.856 17.7229 16.0844 17.8786 16.3451 17.933C16.6057 17.9874 16.8773 17.936 17.1001 17.7901C17.6911 17.3905 18.1739 16.8508 18.5055 16.2191C18.837 15.5874 19.007 14.8835 19.0001 14.1701C19.004 13.4733 18.8357 12.7862 18.5101 12.1701C19.3689 11.9303 20.1468 11.4625 20.7612 10.8164C21.3757 10.1702 21.8038 9.36985 22.0001 8.5001C22.0339 8.33237 22.024 8.15879 21.9715 7.99596C21.9189 7.83314 21.8255 7.68651 21.7001 7.5701ZM17.1101 10.3901C16.9704 10.4014 16.8299 10.4014 16.6901 10.3901C16.4718 10.2405 16.2409 10.11 16.0001 10.0001C15.5903 9.10194 14.9651 8.31879 14.1801 7.7201C14.1801 7.6001 14.1801 7.4701 14.1801 7.3501C14.1801 6.91678 14.2739 6.48859 14.4552 6.095C14.6365 5.70141 14.9008 5.35176 15.2301 5.0701C15.385 6.13696 15.8805 7.1252 16.6427 7.88748C17.405 8.64976 18.3933 9.14526 19.4601 9.3001C19.1747 9.64582 18.8155 9.92319 18.4088 10.1118C18.0022 10.3005 17.5584 10.3955 17.1101 10.3901ZM11.1101 14.3301C10.9448 14.2183 10.7497 14.1586 10.5501 14.1586C10.3505 14.1586 10.1555 14.2183 9.99013 14.3301C9.84013 14.4101 7.50013 16.0001 7.50013 18.5001C7.50013 19.2958 7.8162 20.0588 8.37881 20.6214C8.94142 21.184 9.70448 21.5001 10.5001 21.5001C11.2958 21.5001 12.0588 21.184 12.6214 20.6214C13.1841 20.0588 13.5001 19.2958 13.5001 18.5001C13.5001 16.0001 11.1501 14.4001 11.0601 14.3301H11.1101ZM10.5001 19.5001C10.2349 19.5001 9.98056 19.3947 9.79302 19.2072C9.60548 19.0197 9.50013 18.7653 9.50013 18.5001C9.56327 17.7295 9.92151 17.013 10.5001 16.5001C11.0787 17.013 11.437 17.7295 11.5001 18.5001C11.5001 18.7653 11.3948 19.0197 11.2072 19.2072C11.0197 19.3947 10.7653 19.5001 10.5001 19.5001Z" />
</svg>
