<svg width="24" height="24" viewBox="0 0 24 24" xmlns="http://www.w3.org/2000/svg">
<path d="M21.0001 7H20.2001C20.0967 6.55129 19.9211 6.12237 19.6801 5.73L20.2401 5.17C20.404 4.9787 20.4896 4.73262 20.4798 4.48095C20.4701 4.22927 20.3658 3.99053 20.1877 3.81244C20.0096 3.63434 19.7709 3.53001 19.5192 3.52029C19.2675 3.51057 19.0214 3.59617 18.8301 3.76L18.2701 4.32C17.8778 4.07901 17.4488 3.90339 17.0001 3.8V3C17.0001 2.73478 16.8948 2.48043 16.7072 2.29289C16.5197 2.10536 16.2653 2 16.0001 2C15.7349 2 15.4806 2.10536 15.293 2.29289C15.1055 2.48043 15.0001 2.73478 15.0001 3V3.8C14.5541 3.90181 14.1282 4.07758 13.7401 4.32L13.1701 3.76C12.9788 3.59617 12.7327 3.51057 12.4811 3.52029C12.2294 3.53001 11.9907 3.63434 11.8126 3.81244C11.6345 3.99053 11.5301 4.22927 11.5204 4.48095C11.5107 4.73262 11.5963 4.9787 11.7601 5.17L12.3201 5.74C12.2301 5.89 12.1601 6.06 12.0801 6.22C11.566 6.07486 11.0344 6.00084 10.5001 6C9.05898 5.99918 7.66569 6.5171 6.575 7.45906C5.48431 8.40102 4.76909 9.70409 4.56013 11.13C3.86376 11.3239 3.24452 11.7287 2.78746 12.2887C2.33041 12.8487 2.05796 13.5365 2.00755 14.2576C1.95714 14.9787 2.13123 15.6978 2.50592 16.3159C2.88061 16.9341 3.43752 17.4211 4.10013 17.71C4.22757 17.7605 4.36307 17.7876 4.50013 17.79C4.73132 17.7919 4.95603 17.7136 5.13601 17.5685C5.31598 17.4233 5.44011 17.2203 5.48727 16.994C5.53442 16.7676 5.50169 16.532 5.39464 16.327C5.28759 16.1221 5.11284 15.9606 4.90013 15.87C4.63182 15.7557 4.40326 15.5647 4.24314 15.321C4.08302 15.0772 3.99848 14.7916 4.00013 14.5C4.00013 14.1022 4.15816 13.7206 4.43947 13.4393C4.72077 13.158 5.1023 13 5.50013 13C5.76534 13 6.0197 12.8946 6.20723 12.7071C6.39477 12.5196 6.50013 12.2652 6.50013 12C6.50442 11.0557 6.84265 10.1434 7.45497 9.42447C8.06728 8.70558 8.91419 8.22651 9.84578 8.07204C10.7774 7.91757 11.7336 8.09767 12.5451 8.58047C13.3567 9.06326 13.9713 9.81761 14.2801 10.71C14.3373 10.8818 14.44 11.0349 14.5774 11.1529C14.7148 11.2709 14.8816 11.3494 15.0601 11.38C15.5246 11.4488 15.9573 11.6569 16.3009 11.9768C16.6446 12.2967 16.8832 12.7133 16.985 13.1717C17.0869 13.63 17.0473 14.1085 16.8714 14.5439C16.6956 14.9792 16.3917 15.351 16.0001 15.61C15.8898 15.6822 15.7948 15.7755 15.7205 15.8844C15.6463 15.9934 15.5942 16.1159 15.5672 16.2449C15.5403 16.374 15.5391 16.5071 15.5636 16.6367C15.5881 16.7662 15.6379 16.8897 15.7101 17C15.7824 17.1103 15.8756 17.2053 15.9845 17.2796C16.0935 17.3539 16.216 17.4059 16.3451 17.4329C16.4741 17.4598 16.6073 17.4611 16.7368 17.4365C16.8664 17.412 16.9898 17.3622 17.1001 17.29C17.6898 16.8891 18.1717 16.3491 18.5031 15.7177C18.8345 15.0864 19.0052 14.383 19.0001 13.67C18.9992 13.139 18.8974 12.613 18.7001 12.12L18.8301 12.24C19.0164 12.4247 19.2678 12.5289 19.5301 12.53C19.6617 12.5308 19.7922 12.5055 19.914 12.4558C20.0359 12.406 20.1467 12.3327 20.2401 12.24C20.4264 12.0526 20.5309 11.7992 20.5309 11.535C20.5309 11.2708 20.4264 11.0174 20.2401 10.83L19.6801 10.27C19.9211 9.87763 20.0967 9.44871 20.2001 9H21.0001C21.2653 9 21.5197 8.89464 21.7072 8.70711C21.8948 8.51957 22.0001 8.26522 22.0001 8C22.0001 7.73478 21.8948 7.48043 21.7072 7.29289C21.5197 7.10536 21.2653 7 21.0001 7ZM17.6601 9.65C17.4864 9.82422 17.2833 9.96641 17.0601 10.07C16.7338 9.84377 16.3769 9.6653 16.0001 9.54C15.5407 8.53676 14.8185 7.67641 13.9101 7.05C14.0216 6.7917 14.1773 6.55482 14.3701 6.35C14.8192 5.93464 15.4084 5.70393 16.0201 5.70393C16.6318 5.70393 17.2211 5.93464 17.6701 6.35C18.099 6.7922 18.3388 7.384 18.3388 8C18.3388 8.616 18.099 9.2078 17.6701 9.65H17.6601ZM8.50013 14C8.23491 14 7.98056 14.1054 7.79302 14.2929C7.60548 14.4804 7.50013 14.7348 7.50013 15V21C7.50013 21.2652 7.60548 21.5196 7.79302 21.7071C7.98056 21.8946 8.23491 22 8.50013 22C8.76534 22 9.0197 21.8946 9.20723 21.7071C9.39477 21.5196 9.50013 21.2652 9.50013 21V15C9.50013 14.7348 9.39477 14.4804 9.20723 14.2929C9.0197 14.1054 8.76534 14 8.50013 14ZM12.5001 13C12.2349 13 11.9806 13.1054 11.793 13.2929C11.6055 13.4804 11.5001 13.7348 11.5001 14V20C11.5001 20.2652 11.6055 20.5196 11.793 20.7071C11.9806 20.8946 12.2349 21 12.5001 21C12.7653 21 13.0197 20.8946 13.2072 20.7071C13.3948 20.5196 13.5001 20.2652 13.5001 20V14C13.5001 13.7348 13.3948 13.4804 13.2072 13.2929C13.0197 13.1054 12.7653 13 12.5001 13Z" />
</svg>
