<svg width="24" height="24" viewBox="0 0 24 24" xmlns="http://www.w3.org/2000/svg">
<path d="M8.50013 14.0001C8.23491 14.0001 7.98056 14.1054 7.79302 14.293C7.60548 14.4805 7.50013 14.7349 7.50013 15.0001V21.0001C7.50013 21.2653 7.60548 21.5197 7.79302 21.7072C7.98056 21.8947 8.23491 22.0001 8.50013 22.0001C8.76534 22.0001 9.0197 21.8947 9.20723 21.7072C9.39477 21.5197 9.50013 21.2653 9.50013 21.0001V15.0001C9.50013 14.7349 9.39477 14.4805 9.20723 14.293C9.0197 14.1054 8.76534 14.0001 8.50013 14.0001ZM12.5001 13.0001C12.2349 13.0001 11.9806 13.1054 11.793 13.293C11.6055 13.4805 11.5001 13.7349 11.5001 14.0001V20.0001C11.5001 20.2653 11.6055 20.5197 11.793 20.7072C11.9806 20.8947 12.2349 21.0001 12.5001 21.0001C12.7653 21.0001 13.0197 20.8947 13.2072 20.7072C13.3948 20.5197 13.5001 20.2653 13.5001 20.0001V14.0001C13.5001 13.7349 13.3948 13.4805 13.2072 13.293C13.0197 13.1054 12.7653 13.0001 12.5001 13.0001ZM21.7001 7.07009C21.5787 6.95012 21.4285 6.86324 21.264 6.81773C21.0994 6.77222 20.926 6.76959 20.7601 6.81009C20.547 6.8604 20.3291 6.88723 20.1101 6.89009C19.3145 6.89009 18.5514 6.57402 17.9888 6.01141C17.4262 5.4488 17.1101 4.68574 17.1101 3.89009C17.1133 3.66788 17.1401 3.44663 17.1901 3.23009C17.2288 3.06573 17.2253 2.89425 17.1798 2.73163C17.1344 2.56901 17.0485 2.42055 16.9301 2.30009C16.8137 2.17471 16.6671 2.08129 16.5043 2.02876C16.3414 1.97624 16.1679 1.96636 16.0001 2.00009C15.0048 2.21983 14.1021 2.74265 13.4163 3.49659C12.7304 4.25053 12.295 5.19852 12.1701 6.21009C11.6255 6.06499 11.0637 5.99435 10.5001 6.00009C9.05898 5.99927 7.66569 6.51719 6.575 7.45915C5.48431 8.40111 4.76909 9.70418 4.56013 11.1301C3.86376 11.324 3.24452 11.7288 2.78746 12.2888C2.33041 12.8488 2.05796 13.5366 2.00755 14.2577C1.95714 14.9788 2.13123 15.6978 2.50592 16.316C2.88061 16.9342 3.43752 17.4212 4.10013 17.7101C4.22757 17.7606 4.36307 17.7877 4.50013 17.7901C4.73132 17.792 4.95603 17.7137 5.13601 17.5686C5.31598 17.4234 5.44011 17.2204 5.48727 16.9941C5.53442 16.7677 5.50169 16.532 5.39464 16.3271C5.28759 16.1222 5.11284 15.9607 4.90013 15.8701C4.63182 15.7558 4.40326 15.5648 4.24314 15.3211C4.08302 15.0773 3.99848 14.7917 4.00013 14.5001C4.00013 14.1023 4.15816 13.7207 4.43947 13.4394C4.72077 13.1581 5.1023 13.0001 5.50013 13.0001C5.76534 13.0001 6.0197 12.8947 6.20723 12.7072C6.39477 12.5197 6.50013 12.2653 6.50013 12.0001C6.50013 10.9392 6.92156 9.92181 7.6717 9.17167C8.42185 8.42152 9.43926 8.00009 10.5001 8.00009C11.2728 8.00085 12.0279 8.23052 12.6701 8.66009C13.4001 9.13494 13.9522 9.83824 14.2401 10.6601C14.2973 10.8319 14.4 10.985 14.5374 11.103C14.6748 11.221 14.8416 11.2995 15.0201 11.3301C15.5015 11.3804 15.955 11.58 16.3173 11.9009C16.6795 12.2218 16.9324 12.648 17.0404 13.1197C17.1484 13.5915 17.1062 14.0852 16.9197 14.5317C16.7331 14.9783 16.4116 15.3553 16.0001 15.6101C15.8898 15.6823 15.7948 15.7756 15.7205 15.8845C15.6463 15.9935 15.5942 16.116 15.5672 16.245C15.5403 16.3741 15.5391 16.5072 15.5636 16.6368C15.5881 16.7663 15.6379 16.8898 15.7101 17.0001C15.7824 17.1104 15.8756 17.2054 15.9845 17.2797C16.0935 17.354 16.216 17.406 16.3451 17.433C16.4741 17.4599 16.6073 17.4611 16.7368 17.4366C16.8664 17.4121 16.9898 17.3623 17.1001 17.2901C17.6911 16.8905 18.1739 16.3508 18.5055 15.7191C18.837 15.0874 19.007 14.3835 19.0001 13.6701C19.004 12.9732 18.8357 12.2862 18.5101 11.6701C19.3689 11.4303 20.1468 10.9625 20.7612 10.3164C21.3757 9.67022 21.8038 8.86984 22.0001 8.00009C22.0339 7.83236 22.024 7.65878 21.9715 7.49595C21.9189 7.33313 21.8255 7.1865 21.7001 7.07009ZM17.1101 9.89009C16.9703 9.90092 16.8299 9.90092 16.6901 9.89009C16.4704 9.75426 16.2395 9.63718 16.0001 9.54009C15.5882 8.64323 14.9634 7.86055 14.1801 7.26009C14.1801 7.14009 14.1801 7.01009 14.1801 6.89009C14.1801 6.45677 14.2739 6.02858 14.4552 5.63499C14.6365 5.2414 14.9008 4.89175 15.2301 4.61009C15.385 5.67695 15.8805 6.66519 16.6427 7.42747C17.405 8.18975 18.3933 8.68525 19.4601 8.84009C19.1709 9.17851 18.8099 9.44831 18.4035 9.62992C17.997 9.81154 17.5552 9.90041 17.1101 9.89009Z" />
</svg>
