<svg width="24" height="24" viewBox="0 0 24 24" xmlns="http://www.w3.org/2000/svg">
<path d="M10.5 8.00004C10.5 4.51004 7.2 2.26004 7.06 2.17004C6.89463 2.05827 6.6996 1.99854 6.5 1.99854C6.3004 1.99854 6.10537 2.05827 5.94 2.17004C5.8 2.27004 2.5 4.55004 2.5 8.00004C2.5 9.06091 2.92143 10.0783 3.67157 10.8285C4.42172 11.5786 5.43913 12 6.5 12C7.56087 12 8.57828 11.5786 9.32843 10.8285C10.0786 10.0783 10.5 9.06091 10.5 8.00004ZM6.5 10C5.96957 10 5.46086 9.78933 5.08579 9.41426C4.71071 9.03918 4.5 8.53048 4.5 8.00004C4.56853 7.27796 4.78078 6.57687 5.12425 5.93802C5.46771 5.29917 5.93547 4.73546 6.5 4.28004C7.06664 4.73352 7.53587 5.29676 7.87954 5.93599C8.22321 6.57522 8.43425 7.27727 8.5 8.00004C8.5 8.53048 8.28929 9.03918 7.91421 9.41426C7.53914 9.78933 7.03043 10 6.5 10ZM18.06 2.17004C17.8946 2.05827 17.6996 1.99854 17.5 1.99854C17.3004 1.99854 17.1054 2.05827 16.94 2.17004C16.8 2.27004 13.5 4.55004 13.5 8.00004C13.5 9.06091 13.9214 10.0783 14.6716 10.8285C15.4217 11.5786 16.4391 12 17.5 12C18.5609 12 19.5783 11.5786 20.3284 10.8285C21.0786 10.0783 21.5 9.06091 21.5 8.00004C21.5 4.51004 18.2 2.26004 18.06 2.17004ZM17.5 10C16.9696 10 16.4609 9.78933 16.0858 9.41426C15.7107 9.03918 15.5 8.53048 15.5 8.00004C15.5685 7.27796 15.7808 6.57687 16.1242 5.93802C16.4677 5.29917 16.9355 4.73546 17.5 4.28004C18.0666 4.73352 18.5359 5.29676 18.8795 5.93599C19.2232 6.57522 19.4343 7.27727 19.5 8.00004C19.5 8.53048 19.2893 9.03918 18.9142 9.41426C18.5391 9.78933 18.0304 10 17.5 10ZM13.06 12.17C12.8946 12.0583 12.6996 11.9985 12.5 11.9985C12.3004 11.9985 12.1054 12.0583 11.94 12.17C11.8 12.27 8.5 14.55 8.5 18C8.5 19.0609 8.92143 20.0783 9.67157 20.8285C10.4217 21.5786 11.4391 22 12.5 22C13.5609 22 14.5783 21.5786 15.3284 20.8285C16.0786 20.0783 16.5 19.0609 16.5 18C16.5 14.51 13.2 12.26 13.06 12.17ZM12.5 20C11.9696 20 11.4609 19.7893 11.0858 19.4143C10.7107 19.0392 10.5 18.5305 10.5 18C10.5685 17.278 10.7808 16.5769 11.1242 15.938C11.4677 15.2992 11.9355 14.7355 12.5 14.28C13.0666 14.7335 13.5359 15.2968 13.8795 15.936C14.2232 16.5752 14.4343 17.2773 14.5 18C14.5 18.5305 14.2893 19.0392 13.9142 19.4143C13.5391 19.7893 13.0304 20 12.5 20Z" />
</svg>
