<svg width="24" height="24" viewBox="0 0 24 24" xmlns="http://www.w3.org/2000/svg">
<path d="M12.89 18.0599C12.6407 17.9698 12.3658 17.9824 12.1258 18.0949C11.8858 18.2075 11.7003 18.4107 11.61 18.6599L10.88 20.6599C10.79 20.9092 10.8026 21.1841 10.9151 21.4241C11.0276 21.6641 11.2308 21.8496 11.48 21.9399C11.589 21.9795 11.7041 21.9998 11.82 21.9999C12.0255 21.9998 12.226 21.9364 12.3942 21.8183C12.5624 21.7002 12.6901 21.5332 12.76 21.3399L13.49 19.3399C13.5801 19.0906 13.5675 18.8157 13.455 18.5757C13.3425 18.3357 13.1393 18.1502 12.89 18.0599ZM8.89002 18.0599C8.64071 17.9698 8.36584 17.9824 8.12583 18.0949C7.88581 18.2075 7.70028 18.4107 7.61002 18.6599L6.88002 20.6599C6.78996 20.9092 6.80257 21.1841 6.91507 21.4241C7.02758 21.6641 7.23078 21.8496 7.48002 21.9399C7.58902 21.9795 7.70407 21.9998 7.82002 21.9999C8.02553 21.9998 8.22603 21.9364 8.39423 21.8183C8.56242 21.7002 8.69015 21.5332 8.76002 21.3399L9.49002 19.3399C9.58008 19.0906 9.56747 18.8157 9.45497 18.5757C9.34246 18.3357 9.13926 18.1502 8.89002 18.0599ZM8.89002 11.0599C8.64071 10.9698 8.36584 10.9824 8.12583 11.0949C7.88581 11.2075 7.70028 11.4107 7.61002 11.6599L6.51002 14.6599C6.45544 14.8109 6.438 14.9728 6.4592 15.1319C6.48039 15.2911 6.53959 15.4427 6.63179 15.5742C6.72398 15.7056 6.84647 15.8129 6.98889 15.887C7.13131 15.9611 7.28948 15.9998 7.45002 15.9999C7.65553 15.9998 7.85603 15.9364 8.02423 15.8183C8.19242 15.7002 8.32015 15.5332 8.39002 15.3399L9.49002 12.3399C9.58008 12.0906 9.56747 11.8157 9.45497 11.5757C9.34246 11.3357 9.13926 11.1502 8.89002 11.0599ZM12.89 11.0599C12.6407 10.9698 12.3658 10.9824 12.1258 11.0949C11.8858 11.2075 11.7003 11.4107 11.61 11.6599L10.51 14.6599C10.4554 14.8109 10.438 14.9728 10.4592 15.1319C10.4804 15.2911 10.5396 15.4427 10.6318 15.5742C10.724 15.7056 10.8465 15.8129 10.9889 15.887C11.1313 15.9611 11.2895 15.9998 11.45 15.9999C11.6555 15.9998 11.856 15.9364 12.0242 15.8183C12.1924 15.7002 12.3201 15.5332 12.39 15.3399L13.49 12.3399C13.5801 12.0906 13.5675 11.8157 13.455 11.5757C13.3425 11.3357 13.1393 11.1502 12.89 11.0599ZM18.42 6.21989C17.809 4.8159 16.7545 3.65097 15.4181 2.90362C14.0817 2.15627 12.5371 1.86773 11.021 2.0822C9.50489 2.29668 8.10095 3.00235 7.02427 4.09107C5.9476 5.17979 5.25761 6.59151 5.06002 8.10989C4.18743 8.32086 3.41118 8.81922 2.85615 9.52481C2.30111 10.2304 1.99957 11.1022 2.00002 11.9999C1.99823 12.5663 2.11677 13.1267 2.34777 13.6438C2.57878 14.161 2.91699 14.6232 3.34002 14.9999C3.43738 15.0934 3.55266 15.1662 3.67892 15.214C3.80518 15.2618 3.9398 15.2835 4.07467 15.2778C4.20955 15.2722 4.34188 15.2392 4.46369 15.1811C4.5855 15.1229 4.69428 15.0407 4.78346 14.9393C4.87264 14.838 4.94037 14.7196 4.98259 14.5914C5.0248 14.4632 5.04062 14.3277 5.02909 14.1933C5.01755 14.0588 4.97891 13.928 4.91548 13.8088C4.85205 13.6897 4.76515 13.5846 4.66002 13.4999C4.45032 13.3107 4.28309 13.0791 4.16933 12.8206C4.05557 12.5621 3.99787 12.2823 4.00002 11.9999C4.00002 11.4695 4.21073 10.9608 4.58581 10.5857C4.96088 10.2106 5.46959 9.99989 6.00002 9.99989C6.26524 9.99989 6.51959 9.89454 6.70713 9.707C6.89466 9.51946 7.00002 9.26511 7.00002 8.99989C7.00257 7.81717 7.42431 6.67365 8.19029 5.77248C8.95627 4.87131 10.0169 4.27085 11.1838 4.07777C12.3506 3.88469 13.5482 4.1115 14.5636 4.7179C15.579 5.32431 16.3466 6.27103 16.73 7.38989C16.7872 7.56173 16.8899 7.71483 17.0273 7.83283C17.1647 7.95083 17.3315 8.02931 17.51 8.0599C18.2042 8.17964 18.8341 8.53983 19.2893 9.07736C19.7446 9.61489 19.9962 10.2955 20 10.9999C20.0153 11.7362 19.7509 12.4509 19.26 12.9999C19.1004 13.1987 19.0227 13.451 19.0429 13.7052C19.063 13.9593 19.1795 14.1962 19.3686 14.3673C19.5576 14.5385 19.8048 14.6309 20.0597 14.6258C20.3147 14.6207 20.558 14.5185 20.74 14.3399C21.2908 13.7105 21.6749 12.9529 21.8572 12.1366C22.0394 11.3203 22.0139 10.4713 21.7831 9.66733C21.5523 8.8634 21.1234 8.13022 20.5359 7.53493C19.9483 6.93963 19.2209 6.50124 18.42 6.25989V6.21989ZM16.89 18.0599C16.6407 17.9698 16.3658 17.9824 16.1258 18.0949C15.8858 18.2075 15.7003 18.4107 15.61 18.6599L14.88 20.6599C14.79 20.9092 14.8026 21.1841 14.9151 21.4241C15.0276 21.6641 15.2308 21.8496 15.48 21.9399C15.589 21.9795 15.7041 21.9998 15.82 21.9999C16.0255 21.9998 16.226 21.9364 16.3942 21.8183C16.5624 21.7002 16.6901 21.5332 16.76 21.3399L17.49 19.3399C17.5801 19.0906 17.5675 18.8157 17.455 18.5757C17.3425 18.3357 17.1393 18.1502 16.89 18.0599ZM16.89 11.0599C16.6407 10.9698 16.3658 10.9824 16.1258 11.0949C15.8858 11.2075 15.7003 11.4107 15.61 11.6599L14.51 14.6599C14.4554 14.8109 14.438 14.9728 14.4592 15.1319C14.4804 15.2911 14.5396 15.4427 14.6318 15.5742C14.724 15.7056 14.8465 15.8129 14.9889 15.887C15.1313 15.9611 15.2895 15.9998 15.45 15.9999C15.6555 15.9998 15.856 15.9364 16.0242 15.8183C16.1924 15.7002 16.3201 15.5332 16.39 15.3399L17.49 12.3399C17.5801 12.0906 17.5675 11.8157 17.455 11.5757C17.3425 11.3357 17.1393 11.1502 16.89 11.0599Z" />
</svg>
