<svg width="24" height="24" viewBox="0 0 24 24" xmlns="http://www.w3.org/2000/svg">
<path d="M16.5003 13V5.5C16.5003 4.30653 16.0262 3.16193 15.1823 2.31802C14.3383 1.47411 13.1937 1 12.0003 1C10.8068 1 9.66221 1.47411 8.81829 2.31802C7.97438 3.16193 7.50027 4.30653 7.50027 5.5V13C6.80911 13.7832 6.3344 14.7333 6.12308 15.7562C5.91177 16.7792 5.97117 17.8396 6.29543 18.8326C6.61968 19.8255 7.19754 20.7166 7.97185 21.4177C8.74616 22.1188 9.69009 22.6056 10.7103 22.83C11.1341 22.9266 11.5659 22.9835 12.0003 23C13.1609 23.0054 14.2982 22.6741 15.2743 22.0461C16.2504 21.4182 17.0234 20.5207 17.4997 19.4623C17.976 18.4038 18.1351 17.23 17.9577 16.083C17.7803 14.936 17.274 13.8651 16.5003 13ZM14.5003 20.07C13.7046 20.7755 12.6613 21.136 11.5999 21.0722C10.5384 21.0085 9.54575 20.5256 8.84027 19.73C8.1348 18.9344 7.77429 17.891 7.83805 16.8296C7.90181 15.7681 8.38462 14.7755 9.18027 14.07C9.27476 13.9774 9.34993 13.8669 9.40143 13.7451C9.45292 13.6232 9.47972 13.4923 9.48027 13.36V5.5C9.48027 4.83696 9.74366 4.20107 10.2125 3.73223C10.6813 3.26339 11.3172 3 11.9803 3C12.6433 3 13.2792 3.26339 13.748 3.73223C14.2169 4.20107 14.4803 4.83696 14.4803 5.5V13.44C14.4808 13.5723 14.5076 13.7032 14.5591 13.8251C14.6106 13.9469 14.6858 14.0574 14.7803 14.15C15.189 14.5449 15.5089 15.0223 15.7187 15.5505C15.9285 16.0787 16.0232 16.6456 15.9968 17.2133C15.9703 17.781 15.8231 18.3366 15.565 18.843C15.307 19.3493 14.944 19.7949 14.5003 20.15V20.07ZM13.0003 15.28V12.5C13.0003 12.2348 12.8949 11.9804 12.7074 11.7929C12.5198 11.6054 12.2655 11.5 12.0003 11.5C11.7351 11.5 11.4807 11.6054 11.2932 11.7929C11.1056 11.9804 11.0003 12.2348 11.0003 12.5V15.28C10.698 15.4545 10.4467 15.7051 10.2712 16.0068C10.0958 16.3086 10.0024 16.651 10.0003 17C10.0003 17.5304 10.211 18.0391 10.5861 18.4142C10.9611 18.7893 11.4698 19 12.0003 19C12.5307 19 13.0394 18.7893 13.4145 18.4142C13.7896 18.0391 14.0003 17.5304 14.0003 17C13.9982 16.651 13.9048 16.3086 13.7293 16.0068C13.5539 15.7051 13.3025 15.4545 13.0003 15.28Z" />
</svg>
