<svg width="24" height="24" viewBox="0 0 24 24" xmlns="http://www.w3.org/2000/svg">
<path d="M2.71996 7.6501C2.91552 7.70752 3.10351 7.78809 3.27996 7.8901C3.89978 8.26003 4.60814 8.45535 5.32996 8.45535C6.05178 8.45535 6.76015 8.26003 7.37996 7.8901C7.77042 7.66926 8.21137 7.5532 8.65996 7.5532C9.10855 7.5532 9.5495 7.66926 9.93996 7.8901C10.5673 8.24879 11.2773 8.43748 12 8.43748C12.7226 8.43748 13.4327 8.24879 14.06 7.8901C14.4504 7.66926 14.8914 7.5532 15.34 7.5532C15.7885 7.5532 16.2295 7.66926 16.62 7.8901C17.2537 8.25229 17.97 8.44515 18.7 8.4501C19.4051 8.44865 20.0966 8.25504 20.7 7.8901C20.8764 7.78809 21.0644 7.70752 21.26 7.6501C21.5146 7.57584 21.7292 7.40348 21.8568 7.17093C21.9843 6.93839 22.0142 6.66471 21.94 6.4101C21.8657 6.15549 21.6933 5.94081 21.4608 5.81329C21.2282 5.68576 20.9546 5.65584 20.7 5.7301C20.3494 5.8383 20.0135 5.98945 19.7 6.1801C19.3814 6.36639 19.019 6.46458 18.65 6.46458C18.2809 6.46458 17.9185 6.36639 17.6 6.1801C16.9066 5.79117 16.1249 5.58691 15.33 5.58691C14.535 5.58691 13.7533 5.79117 13.06 6.1801C12.738 6.36715 12.3723 6.46568 12 6.46568C11.6276 6.46568 11.2619 6.36715 10.94 6.1801C10.2466 5.79117 9.46495 5.58691 8.66996 5.58691C7.87497 5.58691 7.09332 5.79117 6.39996 6.1801C6.08139 6.36639 5.719 6.46458 5.34996 6.46458C4.98092 6.46458 4.61853 6.36639 4.29996 6.1801C3.98645 5.98945 3.65057 5.8383 3.29996 5.7301C3.04535 5.65584 2.77167 5.68576 2.53913 5.81329C2.30658 5.94081 2.13422 6.15549 2.05996 6.4101C1.9857 6.66471 2.01562 6.93839 2.14315 7.17093C2.27067 7.40348 2.48535 7.57584 2.73996 7.6501H2.71996ZM20.72 15.7301C20.3694 15.8383 20.0335 15.9894 19.72 16.1801C19.4014 16.3664 19.039 16.4646 18.67 16.4646C18.3009 16.4646 17.9385 16.3664 17.62 16.1801C16.9266 15.7912 16.1449 15.5869 15.35 15.5869C14.555 15.5869 13.7733 15.7912 13.08 16.1801C12.758 16.3672 12.3923 16.4657 12.02 16.4657C11.6476 16.4657 11.2819 16.3672 10.96 16.1801C10.2666 15.7912 9.48495 15.5869 8.68996 15.5869C7.89497 15.5869 7.11332 15.7912 6.41996 16.1801C6.10139 16.3664 5.739 16.4646 5.36996 16.4646C5.00092 16.4646 4.63853 16.3664 4.31996 16.1801C4.00645 15.9894 3.67057 15.8383 3.31996 15.7301C3.19389 15.6933 3.06182 15.6818 2.93127 15.696C2.80073 15.7103 2.67427 15.7501 2.55913 15.8133C2.44398 15.8764 2.3424 15.9616 2.26019 16.064C2.17797 16.1664 2.11673 16.284 2.07996 16.4101C2.04319 16.5362 2.03161 16.6682 2.04589 16.7988C2.06016 16.9293 2.1 17.0558 2.16315 17.1709C2.22629 17.2861 2.3115 17.3877 2.4139 17.4699C2.5163 17.5521 2.63389 17.6133 2.75996 17.6501C2.95552 17.7075 3.14351 17.7881 3.31996 17.8901C3.93978 18.26 4.64814 18.4554 5.36996 18.4554C6.09178 18.4554 6.80015 18.26 7.41996 17.8901C7.81042 17.6693 8.25137 17.5532 8.69996 17.5532C9.14855 17.5532 9.5895 17.6693 9.97996 17.8901C10.6073 18.2488 11.3173 18.4375 12.04 18.4375C12.7626 18.4375 13.4727 18.2488 14.1 17.8901C14.4904 17.6693 14.9314 17.5532 15.38 17.5532C15.8285 17.5532 16.2695 17.6693 16.66 17.8901C17.2937 18.2523 18.01 18.4452 18.74 18.4501C19.4451 18.4486 20.1366 18.255 20.74 17.8901C20.9164 17.7881 21.1044 17.7075 21.3 17.6501C21.5546 17.5758 21.7692 17.4035 21.8968 17.1709C22.0243 16.9384 22.0542 16.6647 21.98 16.4101C21.9057 16.1555 21.7333 15.9408 21.5008 15.8133C21.2682 15.6858 20.9946 15.6558 20.74 15.7301H20.72ZM20.72 10.7301C20.3694 10.8383 20.0335 10.9894 19.72 11.1801C19.4014 11.3664 19.039 11.4646 18.67 11.4646C18.3009 11.4646 17.9385 11.3664 17.62 11.1801C16.9266 10.7912 16.1449 10.5869 15.35 10.5869C14.555 10.5869 13.7733 10.7912 13.08 11.1801C12.758 11.3672 12.3923 11.4657 12.02 11.4657C11.6476 11.4657 11.2819 11.3672 10.96 11.1801C10.2666 10.7912 9.48495 10.5869 8.68996 10.5869C7.89497 10.5869 7.11332 10.7912 6.41996 11.1801C6.10139 11.3664 5.739 11.4646 5.36996 11.4646C5.00092 11.4646 4.63853 11.3664 4.31996 11.1801C4.00645 10.9894 3.67057 10.8383 3.31996 10.7301C3.18902 10.6807 3.04917 10.6593 2.90944 10.6673C2.76971 10.6753 2.63322 10.7126 2.5088 10.7767C2.38438 10.8408 2.2748 10.9303 2.18715 11.0394C2.0995 11.1485 2.03573 11.2748 1.99996 11.4101C1.96319 11.5362 1.95161 11.6682 1.96589 11.7988C1.98016 11.9293 2.02 12.0558 2.08315 12.1709C2.14629 12.2861 2.2315 12.3877 2.3339 12.4699C2.4363 12.5521 2.55389 12.6133 2.67996 12.6501C2.87552 12.7075 3.06351 12.7881 3.23996 12.8901C3.85978 13.26 4.56814 13.4554 5.28996 13.4554C6.01178 13.4554 6.72015 13.26 7.33996 12.8901C7.73042 12.6693 8.17137 12.5532 8.61996 12.5532C9.06855 12.5532 9.5095 12.6693 9.89996 12.8901C10.5273 13.2488 11.2373 13.4375 11.96 13.4375C12.6826 13.4375 13.3927 13.2488 14.02 12.8901C14.4104 12.6693 14.8514 12.5532 15.3 12.5532C15.7485 12.5532 16.1895 12.6693 16.58 12.8901C17.2137 13.2523 17.93 13.4452 18.66 13.4501C19.3651 13.4486 20.0566 13.255 20.66 12.8901C20.8364 12.7881 21.0244 12.7075 21.22 12.6501C21.4746 12.5758 21.6892 12.4035 21.8168 12.1709C21.9443 11.9384 21.9742 11.6647 21.9 11.4101C21.8257 11.1555 21.6533 10.9408 21.4208 10.8133C21.1882 10.6858 20.9146 10.6558 20.66 10.7301H20.72Z" />
</svg>
