<svg width="24" height="24" viewBox="0 0 24 24" xmlns="http://www.w3.org/2000/svg">
<path d="M4.99965 18C4.80186 18 4.60853 18.0586 4.44408 18.1685C4.27963 18.2784 4.15145 18.4346 4.07577 18.6173C4.00008 18.8 3.98028 19.0011 4.01886 19.1951C4.05745 19.3891 4.15269 19.5672 4.29254 19.7071C4.43239 19.8469 4.61057 19.9422 4.80456 19.9808C4.99854 20.0194 5.1996 19.9995 5.38233 19.9239C5.56506 19.8482 5.72123 19.72 5.83112 19.5556C5.941 19.3911 5.99965 19.1978 5.99965 19C5.99965 18.7348 5.89429 18.4804 5.70675 18.2929C5.51922 18.1053 5.26486 18 4.99965 18ZM18.9996 14H11.9996C11.7344 14 11.4801 14.1053 11.2925 14.2929C11.105 14.4804 10.9996 14.7348 10.9996 15C10.9996 15.2652 11.105 15.5196 11.2925 15.7071C11.4801 15.8946 11.7344 16 11.9996 16H18.9996C19.2649 16 19.5192 16.1053 19.7068 16.2929C19.8943 16.4804 19.9996 16.7348 19.9996 17C19.9996 17.2652 19.8943 17.5196 19.7068 17.7071C19.5192 17.8946 19.2649 18 18.9996 18C18.7344 18 18.4801 18.1053 18.2925 18.2929C18.105 18.4804 17.9996 18.7348 17.9996 19C17.9996 19.2652 18.105 19.5196 18.2925 19.7071C18.4801 19.8946 18.7344 20 18.9996 20C19.7953 20 20.5584 19.6839 21.121 19.1213C21.6836 18.5587 21.9996 17.7956 21.9996 17C21.9996 16.2043 21.6836 15.4413 21.121 14.8787C20.5584 14.3161 19.7953 14 18.9996 14ZM13.9996 11C13.9996 11.2652 14.105 11.5196 14.2925 11.7071C14.4801 11.8946 14.7344 12 14.9996 12H18.9996C19.7953 12 20.5584 11.6839 21.121 11.1213C21.6836 10.5587 21.9996 9.79563 21.9996 8.99998C21.9996 8.73477 21.8943 8.48041 21.7068 8.29288C21.5192 8.10534 21.2649 7.99998 20.9996 7.99998C20.7344 7.99998 20.4801 8.10534 20.2925 8.29288C20.105 8.48041 19.9996 8.73477 19.9996 8.99998C19.9996 9.2652 19.8943 9.51955 19.7068 9.70709C19.5192 9.89462 19.2649 9.99998 18.9996 9.99998H14.9996C14.7344 9.99998 14.4801 10.1053 14.2925 10.2929C14.105 10.4804 13.9996 10.7348 13.9996 11ZM9.99965 15C9.99965 14.7348 9.89429 14.4804 9.70675 14.2929C9.51922 14.1053 9.26486 14 8.99965 14H5.99965C5.46921 14 4.96051 13.7893 4.58543 13.4142C4.21036 13.0391 3.99965 12.5304 3.99965 12C3.99965 11.4695 4.21036 10.9608 4.58543 10.5858C4.96051 10.2107 5.46921 9.99998 5.99965 9.99998C6.26486 9.99998 6.51922 9.89462 6.70675 9.70709C6.89429 9.51955 6.99965 9.2652 6.99965 8.99998C7.0022 7.81726 7.42393 6.67374 8.18992 5.77257C8.9559 4.8714 10.0165 4.27093 11.1834 4.07786C12.3503 3.88478 13.5478 4.11159 14.5632 4.71799C15.5787 5.32439 16.3463 6.27112 16.7296 7.38998C16.8145 7.64194 16.996 7.84986 17.2342 7.96801C17.4723 8.08616 17.7477 8.10485 17.9996 8.01998C18.2516 7.93511 18.4595 7.75363 18.5777 7.51546C18.6958 7.27729 18.7145 7.00194 18.6296 6.74998C18.1204 5.25261 17.1192 3.9718 15.789 3.11625C14.4587 2.26071 12.878 1.88085 11.3043 2.03856C9.73061 2.19628 8.2567 2.88228 7.12273 3.98479C5.98876 5.0873 5.26157 6.54134 5.05965 8.10998C4.10623 8.3383 3.26987 8.90882 2.70938 9.71317C2.1489 10.5175 1.90333 11.4997 2.01931 12.4732C2.13529 13.4467 2.60474 14.3437 3.33851 14.9938C4.07229 15.644 5.01928 16.002 5.99965 16H8.99965C9.26486 16 9.51922 15.8946 9.70675 15.7071C9.89429 15.5196 9.99965 15.2652 9.99965 15ZM9.99965 11C9.99965 11.1978 10.0583 11.3911 10.1682 11.5556C10.2781 11.72 10.4342 11.8482 10.617 11.9239C10.7997 11.9995 11.0008 12.0194 11.1947 11.9808C11.3887 11.9422 11.5669 11.8469 11.7068 11.7071C11.8466 11.5672 11.9418 11.3891 11.9804 11.1951C12.019 11.0011 11.9992 10.8 11.9235 10.6173C11.8478 10.4346 11.7197 10.2784 11.5552 10.1685C11.3908 10.0586 11.1974 9.99998 10.9996 9.99998C10.7344 9.99998 10.4801 10.1053 10.2925 10.2929C10.105 10.4804 9.99965 10.7348 9.99965 11ZM13.9996 18H8.99965C8.73443 18 8.48008 18.1053 8.29254 18.2929C8.105 18.4804 7.99965 18.7348 7.99965 19C7.99965 19.2652 8.105 19.5196 8.29254 19.7071C8.48008 19.8946 8.73443 20 8.99965 20H13.9996C14.2649 20 14.5192 20.1053 14.7068 20.2929C14.8943 20.4804 14.9996 20.7348 14.9996 21C14.9996 21.2652 15.105 21.5196 15.2925 21.7071C15.4801 21.8946 15.7344 22 15.9996 22C16.2649 22 16.5192 21.8946 16.7068 21.7071C16.8943 21.5196 16.9996 21.2652 16.9996 21C16.9996 20.2043 16.6836 19.4413 16.121 18.8787C15.5584 18.3161 14.7953 18 13.9996 18Z" />
</svg>
