<svg width="24" height="24" viewBox="0 0 24 24" xmlns="http://www.w3.org/2000/svg">
<path d="M7.5 10H8.5C8.76522 10 9.01957 9.89464 9.20711 9.70711C9.39464 9.51957 9.5 9.26522 9.5 9C9.5 8.73478 9.39464 8.48043 9.20711 8.29289C9.01957 8.10536 8.76522 8 8.5 8H7.5C7.23478 8 6.98043 8.10536 6.79289 8.29289C6.60536 8.48043 6.5 8.73478 6.5 9C6.5 9.26522 6.60536 9.51957 6.79289 9.70711C6.98043 9.89464 7.23478 10 7.5 10ZM11.5 16H7.5C7.23478 16 6.98043 16.1054 6.79289 16.2929C6.60536 16.4804 6.5 16.7348 6.5 17C6.5 17.2652 6.60536 17.5196 6.79289 17.7071C6.98043 17.8946 7.23478 18 7.5 18H11.5C11.7652 18 12.0196 17.8946 12.2071 17.7071C12.3946 17.5196 12.5 17.2652 12.5 17C12.5 16.7348 12.3946 16.4804 12.2071 16.2929C12.0196 16.1054 11.7652 16 11.5 16ZM11.5 12H7.5C7.23478 12 6.98043 12.1054 6.79289 12.2929C6.60536 12.4804 6.5 12.7348 6.5 13C6.5 13.2652 6.60536 13.5196 6.79289 13.7071C6.98043 13.8946 7.23478 14 7.5 14H11.5C11.7652 14 12.0196 13.8946 12.2071 13.7071C12.3946 13.5196 12.5 13.2652 12.5 13C12.5 12.7348 12.3946 12.4804 12.2071 12.2929C12.0196 12.1054 11.7652 12 11.5 12ZM18.42 9.38C18.4966 9.19789 18.5175 8.99718 18.4801 8.80319C18.4428 8.6092 18.3488 8.43062 18.21 8.29L12.21 2.29C12.1273 2.21222 12.0328 2.14808 11.93 2.1C11.9002 2.09576 11.8699 2.09576 11.84 2.1L11.56 2H5.5C4.70435 2 3.94129 2.31607 3.37868 2.87868C2.81607 3.44129 2.5 4.20435 2.5 5V19C2.5 19.7956 2.81607 20.5587 3.37868 21.1213C3.94129 21.6839 4.70435 22 5.5 22H11.5C11.7652 22 12.0196 21.8946 12.2071 21.7071C12.3946 21.5196 12.5 21.2652 12.5 21C12.5 20.7348 12.3946 20.4804 12.2071 20.2929C12.0196 20.1054 11.7652 20 11.5 20H5.5C5.23478 20 4.98043 19.8946 4.79289 19.7071C4.60536 19.5196 4.5 19.2652 4.5 19V5C4.5 4.73478 4.60536 4.48043 4.79289 4.29289C4.98043 4.10536 5.23478 4 5.5 4H10.5V7C10.5 7.79565 10.8161 8.55871 11.3787 9.12132C11.9413 9.68393 12.7044 10 13.5 10H17.5C17.6974 9.99901 17.8901 9.93961 18.0539 9.82928C18.2176 9.71895 18.345 9.56262 18.42 9.38ZM13.5 8C13.2348 8 12.9804 7.89464 12.7929 7.70711C12.6054 7.51957 12.5 7.26522 12.5 7V5.41L15.09 8H13.5ZM20.5 12H15.5C15.2348 12 14.9804 12.1054 14.7929 12.2929C14.6054 12.4804 14.5 12.7348 14.5 13V21C14.5005 21.1809 14.55 21.3583 14.6434 21.5133C14.7367 21.6682 14.8703 21.795 15.03 21.88C15.1864 21.9603 15.3611 21.9979 15.5367 21.9892C15.7123 21.9804 15.8824 21.9255 16.03 21.83L18 20.53L20 21.83C20.1494 21.9164 20.3186 21.9627 20.4912 21.9643C20.6637 21.9659 20.8338 21.9229 20.9848 21.8393C21.1358 21.7558 21.2626 21.6346 21.3529 21.4875C21.4432 21.3404 21.4938 21.1725 21.5 21V13C21.5 12.7348 21.3946 12.4804 21.2071 12.2929C21.0196 12.1054 20.7652 12 20.5 12ZM19.5 19.12L18.56 18.49C18.3946 18.3782 18.1996 18.3185 18 18.3185C17.8004 18.3185 17.6054 18.3782 17.44 18.49L16.5 19.12V14H19.5V19.12Z" />
</svg>
