<svg width="24" height="24" viewBox="0 0 24 24" xmlns="http://www.w3.org/2000/svg">
<path d="M14.71 12.29C14.617 12.1963 14.5064 12.1219 14.3846 12.0711C14.2627 12.0203 14.132 11.9942 14 11.9942C13.868 11.9942 13.7373 12.0203 13.6154 12.0711C13.4936 12.1219 13.383 12.1963 13.29 12.29L12 13.59L10.71 12.29C10.5217 12.1017 10.2663 11.9959 10 11.9959C9.7337 11.9959 9.4783 12.1017 9.29 12.29C9.1017 12.4783 8.99591 12.7337 8.99591 13C8.99591 13.2663 9.1017 13.5217 9.29 13.71L10.59 15L9.29 16.29C9.19627 16.383 9.12188 16.4936 9.07111 16.6154C9.02034 16.7373 8.9942 16.868 8.9942 17C8.9942 17.132 9.02034 17.2627 9.07111 17.3846C9.12188 17.5064 9.19627 17.617 9.29 17.71C9.38296 17.8037 9.49356 17.8781 9.61542 17.9289C9.73728 17.9797 9.86799 18.0058 10 18.0058C10.132 18.0058 10.2627 17.9797 10.3846 17.9289C10.5064 17.8781 10.617 17.8037 10.71 17.71L12 16.41L13.29 17.71C13.383 17.8037 13.4936 17.8781 13.6154 17.9289C13.7373 17.9797 13.868 18.0058 14 18.0058C14.132 18.0058 14.2627 17.9797 14.3846 17.9289C14.5064 17.8781 14.617 17.8037 14.71 17.71C14.8037 17.617 14.8781 17.5064 14.9289 17.3846C14.9797 17.2627 15.0058 17.132 15.0058 17C15.0058 16.868 14.9797 16.7373 14.9289 16.6154C14.8781 16.4936 14.8037 16.383 14.71 16.29L13.41 15L14.71 13.71C14.8037 13.617 14.8781 13.5064 14.9289 13.3846C14.9797 13.2627 15.0058 13.132 15.0058 13C15.0058 12.868 14.9797 12.7373 14.9289 12.6154C14.8781 12.4936 14.8037 12.383 14.71 12.29ZM20 8.94C19.9896 8.84813 19.9695 8.75763 19.94 8.67V8.58C19.8919 8.47718 19.8278 8.38267 19.75 8.3L13.75 2.3C13.6673 2.22222 13.5728 2.15808 13.47 2.11H13.37C13.2728 2.058 13.1683 2.02092 13.06 2H7C6.20435 2 5.44129 2.31607 4.87868 2.87868C4.31607 3.44129 4 4.20435 4 5V19C4 19.7956 4.31607 20.5587 4.87868 21.1213C5.44129 21.6839 6.20435 22 7 22H17C17.7956 22 18.5587 21.6839 19.1213 21.1213C19.6839 20.5587 20 19.7956 20 19V9C20 9 20 9 20 8.94ZM14 5.41L16.59 8H15C14.7348 8 14.4804 7.89464 14.2929 7.70711C14.1054 7.51957 14 7.26522 14 7V5.41ZM18 19C18 19.2652 17.8946 19.5196 17.7071 19.7071C17.5196 19.8946 17.2652 20 17 20H7C6.73478 20 6.48043 19.8946 6.29289 19.7071C6.10536 19.5196 6 19.2652 6 19V5C6 4.73478 6.10536 4.48043 6.29289 4.29289C6.48043 4.10536 6.73478 4 7 4H12V7C12 7.79565 12.3161 8.55871 12.8787 9.12132C13.4413 9.68393 14.2044 10 15 10H18V19Z" />
</svg>
