<svg width="24" height="24" viewBox="0 0 24 24" xmlns="http://www.w3.org/2000/svg">
<path d="M18 19H6C5.20435 19 4.44129 18.6839 3.87868 18.1213C3.31607 17.5587 3 16.7956 3 16V8C3 7.73478 2.89464 7.48043 2.70711 7.29289C2.51957 7.10536 2.26522 7 2 7C1.73478 7 1.48043 7.10536 1.29289 7.29289C1.10536 7.48043 1 7.73478 1 8V16C1 17.3261 1.52678 18.5979 2.46447 19.5355C2.92876 19.9998 3.47995 20.3681 4.08658 20.6194C4.69321 20.8707 5.34339 21 6 21H18C18.2652 21 18.5196 20.8946 18.7071 20.7071C18.8946 20.5196 19 20.2652 19 20C19 19.7348 18.8946 19.4804 18.7071 19.2929C18.5196 19.1054 18.2652 19 18 19ZM23 9.94C22.9896 9.84813 22.9695 9.75763 22.94 9.67V9.58C22.8919 9.47718 22.8278 9.38267 22.75 9.3L16.75 3.3C16.6673 3.22222 16.5728 3.15808 16.47 3.11H16.38L16.06 3H8C7.20435 3 6.44129 3.31607 5.87868 3.87868C5.31607 4.44129 5 5.20435 5 6V14C5 14.7956 5.31607 15.5587 5.87868 16.1213C6.44129 16.6839 7.20435 17 8 17H20C20.7956 17 21.5587 16.6839 22.1213 16.1213C22.6839 15.5587 23 14.7956 23 14V10C23 10 23 10 23 9.94ZM17 6.41L19.59 9H18C17.7348 9 17.4804 8.89464 17.2929 8.70711C17.1054 8.51957 17 8.26522 17 8V6.41ZM21 14C21 14.2652 20.8946 14.5196 20.7071 14.7071C20.5196 14.8946 20.2652 15 20 15H8C7.73478 15 7.48043 14.8946 7.29289 14.7071C7.10536 14.5196 7 14.2652 7 14V6C7 5.73478 7.10536 5.48043 7.29289 5.29289C7.48043 5.10536 7.73478 5 8 5H15V8C15 8.79565 15.3161 9.55871 15.8787 10.1213C16.4413 10.6839 17.2044 11 18 11H21V14Z" />
</svg>
