<svg width="24" height="24" viewBox="0 0 24 24" xmlns="http://www.w3.org/2000/svg">
<path d="M12 14C11.7348 14 11.4804 14.1054 11.2929 14.2929C11.1054 14.4804 11 14.7348 11 15V17C11 17.2652 11.1054 17.5196 11.2929 17.7071C11.4804 17.8946 11.7348 18 12 18C12.2652 18 12.5196 17.8946 12.7071 17.7071C12.8946 17.5196 13 17.2652 13 17V15C13 14.7348 12.8946 14.4804 12.7071 14.2929C12.5196 14.1054 12.2652 14 12 14ZM12.38 11.08C12.199 10.9961 11.997 10.9682 11.8 11L11.62 11.06L11.44 11.15L11.29 11.27C11.1949 11.3658 11.1202 11.4799 11.0703 11.6053C11.0205 11.7308 10.9966 11.865 11 12C10.9992 12.1316 11.0245 12.2621 11.0742 12.3839C11.124 12.5057 11.1973 12.6166 11.29 12.71C11.3851 12.801 11.4972 12.8724 11.62 12.92C11.7387 12.976 11.8688 13.0034 12 13C12.1316 13.0008 12.2621 12.9755 12.3839 12.9258C12.5057 12.876 12.6166 12.8027 12.71 12.71C12.8027 12.6166 12.876 12.5057 12.9258 12.3839C12.9755 12.2621 13.0008 12.1316 13 12C13.0008 11.8684 12.9755 11.7379 12.9258 11.6161C12.876 11.4943 12.8027 11.3834 12.71 11.29C12.6128 11.2017 12.5012 11.1306 12.38 11.08ZM20 8.94C19.9896 8.84813 19.9695 8.75763 19.94 8.67V8.58C19.8919 8.47718 19.8278 8.38267 19.75 8.3L13.75 2.3C13.6673 2.22222 13.5728 2.15808 13.47 2.11H13.37C13.2728 2.058 13.1683 2.02092 13.06 2H7C6.20435 2 5.44129 2.31607 4.87868 2.87868C4.31607 3.44129 4 4.20435 4 5V19C4 19.7956 4.31607 20.5587 4.87868 21.1213C5.44129 21.6839 6.20435 22 7 22H17C17.7956 22 18.5587 21.6839 19.1213 21.1213C19.6839 20.5587 20 19.7956 20 19V9C20 9 20 9 20 8.94ZM14 5.41L16.59 8H15C14.7348 8 14.4804 7.89464 14.2929 7.70711C14.1054 7.51957 14 7.26522 14 7V5.41ZM18 19C18 19.2652 17.8946 19.5196 17.7071 19.7071C17.5196 19.8946 17.2652 20 17 20H7C6.73478 20 6.48043 19.8946 6.29289 19.7071C6.10536 19.5196 6 19.2652 6 19V5C6 4.73478 6.10536 4.48043 6.29289 4.29289C6.48043 4.10536 6.73478 4 7 4H12V7C12 7.79565 12.3161 8.55871 12.8787 9.12132C13.4413 9.68393 14.2044 10 15 10H18V19Z" />
</svg>
