<svg width="24" height="24" viewBox="0 0 24 24" xmlns="http://www.w3.org/2000/svg">
<path d="M21 18H14.82C14.6707 17.5806 14.4299 17.1997 14.1151 16.8849C13.8003 16.5701 13.4194 16.3293 13 16.18V14H16.67C17.2871 13.9974 17.8783 13.7511 18.3147 13.3147C18.751 12.8783 18.9974 12.2872 19 11.67V6.33001C18.9974 5.71287 18.751 5.12175 18.3147 4.68536C17.8783 4.24897 17.2871 4.00264 16.67 4.00001H12.67L12.54 3.59001C12.3858 3.13395 12.0947 2.73655 11.7063 2.452C11.318 2.16746 10.8513 2.00962 10.37 2.00001H7.37C7.06103 1.99605 6.75434 2.05331 6.46762 2.16851C6.1809 2.2837 5.91983 2.45454 5.69949 2.67117C5.47915 2.88779 5.30389 3.14591 5.18383 3.43063C5.06377 3.71534 5.0013 4.02102 5 4.33001V11.67C5.00263 12.2872 5.24896 12.8783 5.68535 13.3147C6.12174 13.7511 6.71286 13.9974 7.33 14H11V16.18C10.5806 16.3293 10.1997 16.5701 9.8849 16.8849C9.57011 17.1997 9.32932 17.5806 9.18 18H3C2.73478 18 2.48043 18.1054 2.29289 18.2929C2.10536 18.4804 2 18.7348 2 19C2 19.2652 2.10536 19.5196 2.29289 19.7071C2.48043 19.8947 2.73478 20 3 20H9.18C9.3902 20.5792 9.77363 21.0795 10.2782 21.4332C10.7827 21.7868 11.3839 21.9765 12 21.9765C12.6161 21.9765 13.2173 21.7868 13.7218 21.4332C14.2264 21.0795 14.6098 20.5792 14.82 20H21C21.2652 20 21.5196 19.8947 21.7071 19.7071C21.8946 19.5196 22 19.2652 22 19C22 18.7348 21.8946 18.4804 21.7071 18.2929C21.5196 18.1054 21.2652 18 21 18ZM7.33 12C7.24248 12 7.15854 11.9652 7.09665 11.9034C7.03477 11.8415 7 11.7575 7 11.67V4.33001C7 4.24249 7.03477 4.15855 7.09665 4.09666C7.15854 4.03478 7.24248 4.00001 7.33 4.00001H10.33C10.401 3.99883 10.4705 4.02056 10.5281 4.062C10.5857 4.10343 10.6285 4.16235 10.65 4.23001L11.01 5.32001C11.0791 5.52528 11.213 5.70256 11.3915 5.82519C11.5701 5.94782 11.7836 6.00917 12 6.00001H16.67C16.7575 6.00001 16.8415 6.03478 16.9033 6.09666C16.9652 6.15855 17 6.24249 17 6.33001V11.67C17 11.7575 16.9652 11.8415 16.9033 11.9034C16.8415 11.9652 16.7575 12 16.67 12H7.33ZM12 20C11.8022 20 11.6089 19.9414 11.4444 19.8315C11.28 19.7216 11.1518 19.5654 11.0761 19.3827C11.0004 19.2 10.9806 18.9989 11.0192 18.8049C11.0578 18.6109 11.153 18.4328 11.2929 18.2929C11.4327 18.153 11.6109 18.0578 11.8049 18.0192C11.9989 17.9806 12.2 18.0004 12.3827 18.0761C12.5654 18.1518 12.7216 18.28 12.8315 18.4444C12.9414 18.6089 13 18.8022 13 19C13 19.2652 12.8946 19.5196 12.7071 19.7071C12.5196 19.8947 12.2652 20 12 20Z" />
</svg>
