<svg width="24" height="24" viewBox="0 0 24 24" xmlns="http://www.w3.org/2000/svg">
<path d="M13.0701 12H8.07012C7.8049 12 7.55055 12.1054 7.36301 12.2929C7.17547 12.4804 7.07012 12.7348 7.07012 13C7.07012 13.2652 7.17547 13.5196 7.36301 13.7071C7.55055 13.8946 7.8049 14 8.07012 14H13.0701C13.3353 14 13.5897 13.8946 13.7772 13.7071C13.9648 13.5196 14.0701 13.2652 14.0701 13C14.0701 12.7348 13.9648 12.4804 13.7772 12.2929C13.5897 12.1054 13.3353 12 13.0701 12ZM14.0701 20H6.07012C5.8049 20 5.55055 19.8946 5.36301 19.7071C5.17547 19.5196 5.07012 19.2652 5.07012 19V5C5.07012 4.73478 5.17547 4.48043 5.36301 4.29289C5.55055 4.10536 5.8049 4 6.07012 4H11.0701V7C11.0701 7.79565 11.3862 8.55871 11.9488 9.12132C12.5114 9.68393 13.2745 10 14.0701 10H17.0701V11C17.0701 11.2652 17.1755 11.5196 17.363 11.7071C17.5505 11.8946 17.8049 12 18.0701 12C18.3353 12 18.5897 11.8946 18.7772 11.7071C18.9648 11.5196 19.0701 11.2652 19.0701 11V9C19.0745 8.98024 19.0745 8.95976 19.0701 8.94C19.0616 8.84679 19.038 8.75559 19.0001 8.67V8.58C18.952 8.47718 18.8879 8.38267 18.8101 8.3L12.8101 2.3C12.7253 2.22026 12.6271 2.15597 12.5201 2.11C12.5201 2.11 12.4701 2.11 12.4401 2.11C12.3416 2.05298 12.2329 2.01562 12.1201 2H6.12012C5.32447 2 4.56141 2.31607 3.9988 2.87868C3.43619 3.44129 3.12012 4.20435 3.12012 5V19C3.12012 19.7956 3.43619 20.5587 3.9988 21.1213C4.56141 21.6839 5.32447 22 6.12012 22H14.1201C14.3853 22 14.6397 21.8946 14.8272 21.7071C15.0148 21.5196 15.1201 21.2652 15.1201 21C15.1201 20.7348 15.0148 20.4804 14.8272 20.2929C14.6397 20.1054 14.3853 20 14.1201 20H14.0701ZM13.0701 5.41L15.6501 8H14.0701C13.8049 8 13.5505 7.89464 13.363 7.70711C13.1755 7.51957 13.0701 7.26522 13.0701 7V5.41ZM18.6401 20.29C18.5926 20.247 18.5425 20.2069 18.4901 20.17C18.3802 20.0986 18.2582 20.0477 18.1301 20.02C17.9695 19.9878 17.8034 19.9956 17.6464 20.0427C17.4895 20.0898 17.3465 20.1747 17.2301 20.29C17.1364 20.383 17.062 20.4936 17.0112 20.6154C16.9605 20.7373 16.9343 20.868 16.9343 21C16.9343 21.132 16.9605 21.2627 17.0112 21.3846C17.062 21.5064 17.1364 21.617 17.2301 21.71C17.4164 21.8947 17.6678 21.9989 17.9301 22C18.0947 22.0008 18.257 21.961 18.4026 21.884C18.5481 21.8071 18.6724 21.6954 18.7644 21.5589C18.8564 21.4223 18.9133 21.2652 18.93 21.1014C18.9467 20.9377 18.9227 20.7723 18.8601 20.62C18.8058 20.4985 18.7314 20.3869 18.6401 20.29ZM13.0701 16H8.07012C7.8049 16 7.55055 16.1054 7.36301 16.2929C7.17547 16.4804 7.07012 16.7348 7.07012 17C7.07012 17.2652 7.17547 17.5196 7.36301 17.7071C7.55055 17.8946 7.8049 18 8.07012 18H13.0701C13.3353 18 13.5897 17.8946 13.7772 17.7071C13.9648 17.5196 14.0701 17.2652 14.0701 17C14.0701 16.7348 13.9648 16.4804 13.7772 16.2929C13.5897 16.1054 13.3353 16 13.0701 16ZM17.9301 13C17.4032 12.9997 16.8855 13.1381 16.429 13.4014C15.9726 13.6648 15.5936 14.0437 15.3301 14.5C15.2645 14.6143 15.2219 14.7403 15.205 14.871C15.1881 15.0017 15.197 15.1344 15.2314 15.2616C15.2657 15.3888 15.3248 15.508 15.4052 15.6124C15.4857 15.7168 15.5859 15.8043 15.7001 15.87C15.8144 15.9357 15.9404 15.9782 16.0711 15.9951C16.2018 16.0121 16.3345 16.0031 16.4617 15.9687C16.589 15.9344 16.7082 15.8753 16.8126 15.7949C16.9169 15.7144 17.0045 15.6143 17.0701 15.5C17.158 15.3478 17.2845 15.2214 17.4368 15.1336C17.5891 15.0458 17.7619 14.9998 17.9377 15C18.1134 15.0003 18.2861 15.0469 18.4381 15.1351C18.5901 15.2234 18.7162 15.3501 18.8037 15.5026C18.8911 15.6551 18.9368 15.828 18.9361 16.0038C18.9355 16.1796 18.8885 16.3521 18.7999 16.5039C18.7113 16.6558 18.5843 16.7816 18.4316 16.8687C18.2789 16.9558 18.1059 17.0011 17.9301 17C17.6649 17 17.4105 17.1054 17.223 17.2929C17.0355 17.4804 16.9301 17.7348 16.9301 18C16.9301 18.2652 17.0355 18.5196 17.223 18.7071C17.4105 18.8946 17.6649 19 17.9301 19C18.7258 19 19.4888 18.6839 20.0514 18.1213C20.614 17.5587 20.9301 16.7956 20.9301 16C20.9301 15.2044 20.614 14.4413 20.0514 13.8787C19.4888 13.3161 18.7258 13 17.9301 13ZM8.07012 10H9.07012C9.33533 10 9.58969 9.89464 9.77722 9.70711C9.96476 9.51957 10.0701 9.26522 10.0701 9C10.0701 8.73478 9.96476 8.48043 9.77722 8.29289C9.58969 8.10536 9.33533 8 9.07012 8H8.07012C7.8049 8 7.55055 8.10536 7.36301 8.29289C7.17547 8.48043 7.07012 8.73478 7.07012 9C7.07012 9.26522 7.17547 9.51957 7.36301 9.70711C7.55055 9.89464 7.8049 10 8.07012 10Z" />
</svg>
