<svg width="24" height="24" viewBox="0 0 24 24" xmlns="http://www.w3.org/2000/svg">
<path d="M10.5 20H5.5C5.23478 20 4.98043 19.8946 4.79289 19.7071C4.60536 19.5196 4.5 19.2652 4.5 19V5C4.5 4.73478 4.60536 4.48043 4.79289 4.29289C4.98043 4.10536 5.23478 4 5.5 4H10.5V7C10.5 7.79565 10.8161 8.55871 11.3787 9.12132C11.9413 9.68393 12.7044 10 13.5 10H16.5C16.5 10.2652 16.6054 10.5196 16.7929 10.7071C16.9804 10.8946 17.2348 11 17.5 11C17.7652 11 18.0196 10.8946 18.2071 10.7071C18.3946 10.5196 18.5 10.2652 18.5 10V9C18.5 9 18.5 9 18.5 8.94C18.4896 8.84813 18.4695 8.75763 18.44 8.67V8.58C18.3919 8.47718 18.3278 8.38267 18.25 8.3L12.25 2.3C12.1673 2.22222 12.0728 2.15808 11.97 2.11C11.9402 2.10576 11.9099 2.10576 11.88 2.11L11.56 2H5.5C4.70435 2 3.94129 2.31607 3.37868 2.87868C2.81607 3.44129 2.5 4.20435 2.5 5V19C2.5 19.7956 2.81607 20.5587 3.37868 21.1213C3.94129 21.6839 4.70435 22 5.5 22H10.5C10.7652 22 11.0196 21.8946 11.2071 21.7071C11.3946 21.5196 11.5 21.2652 11.5 21C11.5 20.7348 11.3946 20.4804 11.2071 20.2929C11.0196 20.1054 10.7652 20 10.5 20ZM12.5 5.41L15.09 8H13.5C13.2348 8 12.9804 7.89464 12.7929 7.70711C12.6054 7.51957 12.5 7.26522 12.5 7V5.41ZM7.5 8C7.23478 8 6.98043 8.10536 6.79289 8.29289C6.60536 8.48043 6.5 8.73478 6.5 9C6.5 9.26522 6.60536 9.51957 6.79289 9.70711C6.98043 9.89464 7.23478 10 7.5 10H8.5C8.76522 10 9.01957 9.89464 9.20711 9.70711C9.39464 9.51957 9.5 9.26522 9.5 9C9.5 8.73478 9.39464 8.48043 9.20711 8.29289C9.01957 8.10536 8.76522 8 8.5 8H7.5ZM21.13 13.86C21.0138 13.766 20.8781 13.6993 20.7327 13.6647C20.5873 13.6301 20.4361 13.6285 20.29 13.66C19.9108 13.7399 19.5191 13.7394 19.1401 13.6584C18.7612 13.5774 18.4034 13.4179 18.09 13.19C17.9187 13.0649 17.7121 12.9974 17.5 12.9974C17.2879 12.9974 17.0813 13.0649 16.91 13.19C16.5963 13.4173 16.2385 13.5765 15.8597 13.6575C15.4808 13.7384 15.0892 13.7393 14.71 13.66C14.5623 13.6282 14.4094 13.6304 14.2626 13.6662C14.1159 13.702 13.9791 13.7706 13.8627 13.8668C13.7463 13.9631 13.6531 14.0844 13.5903 14.2218C13.5275 14.3592 13.4966 14.509 13.5 14.66V17C13.4984 17.7158 13.664 18.4221 13.9834 19.0627C14.3028 19.7033 14.7673 20.2605 15.34 20.69L16.9 21.8C17.0731 21.9298 17.2836 22 17.5 22C17.7164 22 17.9269 21.9298 18.1 21.8L19.66 20.64C20.2259 20.2156 20.6864 19.6664 21.0055 19.0351C21.3246 18.4038 21.4938 17.7074 21.5 17V14.63C21.499 14.4823 21.4653 14.3366 21.4014 14.2035C21.3374 14.0704 21.2447 13.9531 21.13 13.86ZM19.5 17C19.5047 17.4017 19.417 17.7991 19.2436 18.1615C19.0702 18.5239 18.8158 18.8416 18.5 19.09L17.5 19.81L16.5 19.09C16.1842 18.8416 15.9298 18.5239 15.7564 18.1615C15.583 17.7991 15.4953 17.4017 15.5 17V15.72C16.1994 15.6886 16.8829 15.5006 17.5 15.17C18.1171 15.5006 18.8006 15.6886 19.5 15.72V17ZM10.5 16.05H7.5C7.23478 16.05 6.98043 16.1554 6.79289 16.3429C6.60536 16.5304 6.5 16.7848 6.5 17.05C6.5 17.3152 6.60536 17.5696 6.79289 17.7571C6.98043 17.9446 7.23478 18.05 7.5 18.05H10.5C10.7652 18.05 11.0196 17.9446 11.2071 17.7571C11.3946 17.5696 11.5 17.3152 11.5 17.05C11.5 16.7848 11.3946 16.5304 11.2071 16.3429C11.0196 16.1554 10.7652 16.05 10.5 16.05ZM11.5 12.05H7.5C7.23478 12.05 6.98043 12.1554 6.79289 12.3429C6.60536 12.5304 6.5 12.7848 6.5 13.05C6.5 13.3152 6.60536 13.5696 6.79289 13.7571C6.98043 13.9446 7.23478 14.05 7.5 14.05H11.5C11.7652 14.05 12.0196 13.9446 12.2071 13.7571C12.3946 13.5696 12.5 13.3152 12.5 13.05C12.5 12.7848 12.3946 12.5304 12.2071 12.3429C12.0196 12.1554 11.7652 12.05 11.5 12.05Z" />
</svg>
