<svg width="24" height="24" viewBox="0 0 24 24" xmlns="http://www.w3.org/2000/svg">
<path d="M14 13C14 12.7348 13.8946 12.4804 13.7071 12.2929C13.5196 12.1054 13.2652 12 13 12H8C7.73478 12 7.48043 12.1054 7.29289 12.2929C7.10536 12.4804 7 12.7348 7 13C7 13.2652 7.10536 13.5196 7.29289 13.7071C7.48043 13.8946 7.73478 14 8 14H13C13.2652 14 13.5196 13.8946 13.7071 13.7071C13.8946 13.5196 14 13.2652 14 13ZM11 20H6C5.73478 20 5.48043 19.8946 5.29289 19.7071C5.10536 19.5196 5 19.2652 5 19V5C5 4.73478 5.10536 4.48043 5.29289 4.29289C5.48043 4.10536 5.73478 4 6 4H11V7C11 7.79565 11.3161 8.55871 11.8787 9.12132C12.4413 9.68393 13.2044 10 14 10H17V11C17 11.2652 17.1054 11.5196 17.2929 11.7071C17.4804 11.8946 17.7348 12 18 12C18.2652 12 18.5196 11.8946 18.7071 11.7071C18.8946 11.5196 19 11.2652 19 11V9C19 9 19 9 19 8.94C18.9907 8.84796 18.9705 8.75734 18.94 8.67V8.58C18.8945 8.47572 18.8301 8.38078 18.75 8.3L12.75 2.3C12.6673 2.22222 12.5728 2.15808 12.47 2.11H12.38C12.2817 2.0525 12.1729 2.01511 12.06 2H6C5.20435 2 4.44129 2.31607 3.87868 2.87868C3.31607 3.44129 3 4.20435 3 5V19C3 19.7956 3.31607 20.5587 3.87868 21.1213C4.44129 21.6839 5.20435 22 6 22H11C11.2652 22 11.5196 21.8946 11.7071 21.7071C11.8946 21.5196 12 21.2652 12 21C12 20.7348 11.8946 20.4804 11.7071 20.2929C11.5196 20.1054 11.2652 20 11 20ZM13 5.41L15.59 8H14C13.7348 8 13.4804 7.89464 13.2929 7.70711C13.1054 7.51957 13 7.26522 13 7V5.41ZM20 14C19.8065 14.0013 19.6176 14.0586 19.4561 14.1651C19.2945 14.2716 19.1674 14.4227 19.09 14.6C18.4606 14.2142 17.7382 14.0068 17 14C16.3526 13.9991 15.7146 14.1553 15.1408 14.4553C14.5671 14.7553 14.0747 15.1901 13.706 15.7223C13.3374 16.2546 13.1034 16.8683 13.0243 17.5109C12.9451 18.1535 13.0231 18.8057 13.2516 19.4115C13.4801 20.0173 13.8522 20.5586 14.3359 20.9889C14.8197 21.4192 15.4007 21.7256 16.029 21.8818C16.6574 22.038 17.3142 22.0394 17.9432 21.8858C18.5721 21.7322 19.1544 21.4282 19.64 21C19.8402 20.825 19.9627 20.5775 19.9806 20.3122C19.9984 20.0468 19.91 19.7852 19.735 19.585C19.56 19.3848 19.3125 19.2623 19.0472 19.2444C18.7818 19.2266 18.5202 19.315 18.32 19.49C17.9569 19.8152 17.4874 19.9965 17 20C16.6962 19.9951 16.3975 19.921 16.1266 19.7835C15.8557 19.6459 15.6197 19.4484 15.4365 19.2059C15.2533 18.9635 15.1278 18.6825 15.0694 18.3843C15.0111 18.0861 15.0215 17.7785 15.0998 17.4849C15.178 17.1913 15.3222 16.9194 15.5213 16.6899C15.7204 16.4603 15.9691 16.2792 16.2487 16.1601C16.5283 16.0411 16.8313 15.9873 17.1347 16.0029C17.4382 16.0185 17.7341 16.103 18 16.25H17.78C17.5148 16.25 17.2604 16.3554 17.0729 16.5429C16.8854 16.7304 16.78 16.9848 16.78 17.25C16.78 17.5152 16.8854 17.7696 17.0729 17.9571C17.2604 18.1446 17.5148 18.25 17.78 18.25H20C20.2652 18.25 20.5196 18.1446 20.7071 17.9571C20.8946 17.7696 21 17.5152 21 17.25V15C21 14.7348 20.8946 14.4804 20.7071 14.2929C20.5196 14.1054 20.2652 14 20 14ZM8 10H9C9.26522 10 9.51957 9.89464 9.70711 9.70711C9.89464 9.51957 10 9.26522 10 9C10 8.73478 9.89464 8.48043 9.70711 8.29289C9.51957 8.10536 9.26522 8 9 8H8C7.73478 8 7.48043 8.10536 7.29289 8.29289C7.10536 8.48043 7 8.73478 7 9C7 9.26522 7.10536 9.51957 7.29289 9.70711C7.48043 9.89464 7.73478 10 8 10ZM8 16C7.73478 16 7.48043 16.1054 7.29289 16.2929C7.10536 16.4804 7 16.7348 7 17C7 17.2652 7.10536 17.5196 7.29289 17.7071C7.48043 17.8946 7.73478 18 8 18H10C10.2652 18 10.5196 17.8946 10.7071 17.7071C10.8946 17.5196 11 17.2652 11 17C11 16.7348 10.8946 16.4804 10.7071 16.2929C10.5196 16.1054 10.2652 16 10 16H8Z" />
</svg>
