<svg width="24" height="24" viewBox="0 0 24 24" xmlns="http://www.w3.org/2000/svg">
<path d="M13 10H11C10.7348 10 10.4804 10.1054 10.2929 10.2929C10.1054 10.4804 10 10.7348 10 11C10 11.2652 10.1054 11.5196 10.2929 11.7071C10.4804 11.8946 10.7348 12 11 12H13C13.2652 12 13.5196 11.8946 13.7071 11.7071C13.8946 11.5196 14 11.2652 14 11C14 10.7348 13.8946 10.4804 13.7071 10.2929C13.5196 10.1054 13.2652 10 13 10ZM18 10C17.9971 9.11544 17.7011 8.25679 17.1583 7.55836C16.6155 6.85993 15.8565 6.36114 15 6.14V5C15 4.20435 14.6839 3.44129 14.1213 2.87868C13.5587 2.31607 12.7956 2 12 2C11.2044 2 10.4413 2.31607 9.87868 2.87868C9.31607 3.44129 9 4.20435 9 5V6.14C8.14353 6.36114 7.38451 6.85993 6.84169 7.55836C6.29887 8.25679 6.00287 9.11544 6 10C4.93913 10 3.92172 10.4214 3.17157 11.1716C2.42143 11.9217 2 12.9391 2 14V17C2 17.7956 2.31607 18.5587 2.87868 19.1213C3.44129 19.6839 4.20435 20 5 20H6.18C6.38631 20.5835 6.76807 21.089 7.27293 21.4471C7.7778 21.8051 8.38106 21.9983 9 22H15C15.6189 21.9983 16.2222 21.8051 16.7271 21.4471C17.2319 21.089 17.6137 20.5835 17.82 20H19C19.7956 20 20.5587 19.6839 21.1213 19.1213C21.6839 18.5587 22 17.7956 22 17V14C22 12.9391 21.5786 11.9217 20.8284 11.1716C20.0783 10.4214 19.0609 10 18 10ZM6 18H5C4.73478 18 4.48043 17.8946 4.29289 17.7071C4.10536 17.5196 4 17.2652 4 17V14C4 13.4696 4.21071 12.9609 4.58579 12.5858C4.96086 12.2107 5.46957 12 6 12V18ZM11 5C11 4.73478 11.1054 4.48043 11.2929 4.29289C11.4804 4.10536 11.7348 4 12 4C12.2652 4 12.5196 4.10536 12.7071 4.29289C12.8946 4.48043 13 4.73478 13 5V6H11V5ZM16 19C16 19.2652 15.8946 19.5196 15.7071 19.7071C15.5196 19.8946 15.2652 20 15 20H9C8.73478 20 8.48043 19.8946 8.29289 19.7071C8.10536 19.5196 8 19.2652 8 19V18C8 17.4696 8.21071 16.9609 8.58579 16.5858C8.96086 16.2107 9.46957 16 10 16H14C14.5304 16 15.0391 16.2107 15.4142 16.5858C15.7893 16.9609 16 17.4696 16 18V19ZM16 14.56C15.396 14.1964 14.705 14.003 14 14H10C9.29504 14.003 8.60399 14.1964 8 14.56V10C8 9.46957 8.21071 8.96086 8.58579 8.58579C8.96086 8.21071 9.46957 8 10 8H14C14.5304 8 15.0391 8.21071 15.4142 8.58579C15.7893 8.96086 16 9.46957 16 10V14.56ZM20 17C20 17.2652 19.8946 17.5196 19.7071 17.7071C19.5196 17.8946 19.2652 18 19 18H18V12C18.5304 12 19.0391 12.2107 19.4142 12.5858C19.7893 12.9609 20 13.4696 20 14V17Z" />
</svg>
