<svg width="24" height="24" viewBox="0 0 24 24" xmlns="http://www.w3.org/2000/svg">
<path d="M10 11H3C2.73478 11 2.48043 11.1054 2.29289 11.2929C2.10536 11.4804 2 11.7348 2 12C2 12.2652 2.10536 12.5196 2.29289 12.7071C2.48043 12.8946 2.73478 13 3 13H10C10.2652 13 10.5196 12.8946 10.7071 12.7071C10.8946 12.5196 11 12.2652 11 12C11 11.7348 10.8946 11.4804 10.7071 11.2929C10.5196 11.1054 10.2652 11 10 11ZM10 19H3C2.73478 19 2.48043 19.1054 2.29289 19.2929C2.10536 19.4804 2 19.7348 2 20C2 20.2652 2.10536 20.5196 2.29289 20.7071C2.48043 20.8946 2.73478 21 3 21H10C10.2652 21 10.5196 20.8946 10.7071 20.7071C10.8946 20.5196 11 20.2652 11 20C11 19.7348 10.8946 19.4804 10.7071 19.2929C10.5196 19.1054 10.2652 19 10 19ZM14 5H21C21.2652 5 21.5196 4.89464 21.7071 4.70711C21.8946 4.51957 22 4.26522 22 4C22 3.73478 21.8946 3.48043 21.7071 3.29289C21.5196 3.10536 21.2652 3 21 3H14C13.7348 3 13.4804 3.10536 13.2929 3.29289C13.1054 3.48043 13 3.73478 13 4C13 4.26522 13.1054 4.51957 13.2929 4.70711C13.4804 4.89464 13.7348 5 14 5ZM10 7H3C2.73478 7 2.48043 7.10536 2.29289 7.29289C2.10536 7.48043 2 7.73478 2 8C2 8.26522 2.10536 8.51957 2.29289 8.70711C2.48043 8.89464 2.73478 9 3 9H10C10.2652 9 10.5196 8.89464 10.7071 8.70711C10.8946 8.51957 11 8.26522 11 8C11 7.73478 10.8946 7.48043 10.7071 7.29289C10.5196 7.10536 10.2652 7 10 7ZM10 15H3C2.73478 15 2.48043 15.1054 2.29289 15.2929C2.10536 15.4804 2 15.7348 2 16C2 16.2652 2.10536 16.5196 2.29289 16.7071C2.48043 16.8946 2.73478 17 3 17H10C10.2652 17 10.5196 16.8946 10.7071 16.7071C10.8946 16.5196 11 16.2652 11 16C11 15.7348 10.8946 15.4804 10.7071 15.2929C10.5196 15.1054 10.2652 15 10 15ZM10 3H7C6.73478 3 6.48043 3.10536 6.29289 3.29289C6.10536 3.48043 6 3.73478 6 4C6 4.26522 6.10536 4.51957 6.29289 4.70711C6.48043 4.89464 6.73478 5 7 5H10C10.2652 5 10.5196 4.89464 10.7071 4.70711C10.8946 4.51957 11 4.26522 11 4C11 3.73478 10.8946 3.48043 10.7071 3.29289C10.5196 3.10536 10.2652 3 10 3ZM21 7H14C13.7348 7 13.4804 7.10536 13.2929 7.29289C13.1054 7.48043 13 7.73478 13 8C13 8.26522 13.1054 8.51957 13.2929 8.70711C13.4804 8.89464 13.7348 9 14 9H21C21.2652 9 21.5196 8.89464 21.7071 8.70711C21.8946 8.51957 22 8.26522 22 8C22 7.73478 21.8946 7.48043 21.7071 7.29289C21.5196 7.10536 21.2652 7 21 7ZM21 11H14C13.7348 11 13.4804 11.1054 13.2929 11.2929C13.1054 11.4804 13 11.7348 13 12C13 12.2652 13.1054 12.5196 13.2929 12.7071C13.4804 12.8946 13.7348 13 14 13H21C21.2652 13 21.5196 12.8946 21.7071 12.7071C21.8946 12.5196 22 12.2652 22 12C22 11.7348 21.8946 11.4804 21.7071 11.2929C21.5196 11.1054 21.2652 11 21 11ZM17 19H14C13.7348 19 13.4804 19.1054 13.2929 19.2929C13.1054 19.4804 13 19.7348 13 20C13 20.2652 13.1054 20.5196 13.2929 20.7071C13.4804 20.8946 13.7348 21 14 21H17C17.2652 21 17.5196 20.8946 17.7071 20.7071C17.8946 20.5196 18 20.2652 18 20C18 19.7348 17.8946 19.4804 17.7071 19.2929C17.5196 19.1054 17.2652 19 17 19ZM21 15H14C13.7348 15 13.4804 15.1054 13.2929 15.2929C13.1054 15.4804 13 15.7348 13 16C13 16.2652 13.1054 16.5196 13.2929 16.7071C13.4804 16.8946 13.7348 17 14 17H21C21.2652 17 21.5196 16.8946 21.7071 16.7071C21.8946 16.5196 22 16.2652 22 16C22 15.7348 21.8946 15.4804 21.7071 15.2929C21.5196 15.1054 21.2652 15 21 15Z" />
</svg>
