<svg width="24" height="24" viewBox="0 0 24 24" xmlns="http://www.w3.org/2000/svg">
<path d="M21.42 17.62C21.3724 17.4972 21.301 17.3851 21.21 17.29L18.21 14.29C18.0217 14.1017 17.7663 13.9959 17.5 13.9959C17.2337 13.9959 16.9783 14.1017 16.79 14.29C16.6017 14.4783 16.4959 14.7337 16.4959 15C16.4959 15.2663 16.6017 15.5217 16.79 15.71L18.09 17H3.5C3.23478 17 2.98043 17.1054 2.79289 17.2929C2.60536 17.4804 2.5 17.7348 2.5 18C2.5 18.2652 2.60536 18.5196 2.79289 18.7071C2.98043 18.8946 3.23478 19 3.5 19H18.09L16.79 20.29C16.6963 20.383 16.6219 20.4936 16.5711 20.6154C16.5203 20.7373 16.4942 20.868 16.4942 21C16.4942 21.132 16.5203 21.2627 16.5711 21.3846C16.6219 21.5064 16.6963 21.617 16.79 21.71C16.883 21.8037 16.9936 21.8781 17.1154 21.9289C17.2373 21.9797 17.368 22.0058 17.5 22.0058C17.632 22.0058 17.7627 21.9797 17.8846 21.9289C18.0064 21.8781 18.117 21.8037 18.21 21.71L21.21 18.71C21.301 18.6149 21.3724 18.5028 21.42 18.38C21.52 18.1365 21.52 17.8635 21.42 17.62ZM8.5 10V14C8.5 14.2652 8.60536 14.5196 8.79289 14.7071C8.98043 14.8946 9.23478 15 9.5 15C9.76522 15 10.0196 14.8946 10.2071 14.7071C10.3946 14.5196 10.5 14.2652 10.5 14V4H12.5V14C12.5 14.2652 12.6054 14.5196 12.7929 14.7071C12.9804 14.8946 13.2348 15 13.5 15C13.7652 15 14.0196 14.8946 14.2071 14.7071C14.3946 14.5196 14.5 14.2652 14.5 14V4H15.5C15.7652 4 16.0196 3.89464 16.2071 3.70711C16.3946 3.51957 16.5 3.26522 16.5 3C16.5 2.73478 16.3946 2.48043 16.2071 2.29289C16.0196 2.10536 15.7652 2 15.5 2H8.5C7.43913 2 6.42172 2.42143 5.67157 3.17157C4.92143 3.92172 4.5 4.93913 4.5 6C4.5 7.06087 4.92143 8.07828 5.67157 8.82843C6.42172 9.57857 7.43913 10 8.5 10ZM8.5 4V8C7.96957 8 7.46086 7.78929 7.08579 7.41421C6.71071 7.03914 6.5 6.53043 6.5 6C6.5 5.46957 6.71071 4.96086 7.08579 4.58579C7.46086 4.21071 7.96957 4 8.5 4Z" />
</svg>
