<svg width="24" height="24" viewBox="0 0 24 24" xmlns="http://www.w3.org/2000/svg">
<path d="M20.4999 17H5.9099L7.2099 15.71C7.3982 15.5217 7.50399 15.2663 7.50399 15C7.50399 14.7337 7.3982 14.4783 7.2099 14.29C7.02159 14.1017 6.7662 13.9959 6.4999 13.9959C6.23359 13.9959 5.9782 14.1017 5.7899 14.29L2.7899 17.29C2.69886 17.3851 2.62749 17.4972 2.5799 17.62C2.47988 17.8635 2.47988 18.1365 2.5799 18.38C2.62749 18.5028 2.69886 18.6149 2.7899 18.71L5.7899 21.71C5.88286 21.8037 5.99346 21.8781 6.11532 21.9289C6.23718 21.9797 6.36788 22.0058 6.4999 22.0058C6.63191 22.0058 6.76261 21.9797 6.88447 21.9289C7.00633 21.8781 7.11693 21.8037 7.2099 21.71C7.30363 21.617 7.37802 21.5064 7.42879 21.3846C7.47956 21.2627 7.50569 21.132 7.50569 21C7.50569 20.868 7.47956 20.7373 7.42879 20.6154C7.37802 20.4936 7.30363 20.383 7.2099 20.29L5.9099 19H20.4999C20.7651 19 21.0195 18.8946 21.207 18.7071C21.3945 18.5196 21.4999 18.2652 21.4999 18C21.4999 17.7348 21.3945 17.4804 21.207 17.2929C21.0195 17.1054 20.7651 17 20.4999 17ZM11.4999 10V14C11.4999 14.2652 11.6053 14.5196 11.7928 14.7071C11.9803 14.8946 12.2347 15 12.4999 15C12.7651 15 13.0195 14.8946 13.207 14.7071C13.3945 14.5196 13.4999 14.2652 13.4999 14V4H15.4999V14C15.4999 14.2652 15.6053 14.5196 15.7928 14.7071C15.9803 14.8946 16.2347 15 16.4999 15C16.7651 15 17.0195 14.8946 17.207 14.7071C17.3945 14.5196 17.4999 14.2652 17.4999 14V4H18.4999C18.7651 4 19.0195 3.89464 19.207 3.70711C19.3945 3.51957 19.4999 3.26522 19.4999 3C19.4999 2.73478 19.3945 2.48043 19.207 2.29289C19.0195 2.10536 18.7651 2 18.4999 2H11.4999C10.439 2 9.42161 2.42143 8.67147 3.17157C7.92132 3.92172 7.4999 4.93913 7.4999 6C7.4999 7.06087 7.92132 8.07828 8.67147 8.82843C9.42161 9.57857 10.439 10 11.4999 10ZM11.4999 4V8C10.9695 8 10.4608 7.78929 10.0857 7.41421C9.71061 7.03914 9.4999 6.53043 9.4999 6C9.4999 5.46957 9.71061 4.96086 10.0857 4.58579C10.4608 4.21071 10.9695 4 11.4999 4Z" />
</svg>
