<svg width="24" height="24" viewBox="0 0 24 24" xmlns="http://www.w3.org/2000/svg">
<path d="M17 6H11C10.7348 6 10.4804 6.10536 10.2929 6.29289C10.1054 6.48043 10 6.73478 10 7C10 7.26522 10.1054 7.51957 10.2929 7.70711C10.4804 7.89464 10.7348 8 11 8H12.52L9.32 16H7C6.73478 16 6.48043 16.1054 6.29289 16.2929C6.10536 16.4804 6 16.7348 6 17C6 17.2652 6.10536 17.5196 6.29289 17.7071C6.48043 17.8946 6.73478 18 7 18H13C13.2652 18 13.5196 17.8946 13.7071 17.7071C13.8946 17.5196 14 17.2652 14 17C14 16.7348 13.8946 16.4804 13.7071 16.2929C13.5196 16.1054 13.2652 16 13 16H11.48L14.68 8H17C17.2652 8 17.5196 7.89464 17.7071 7.70711C17.8946 7.51957 18 7.26522 18 7C18 6.73478 17.8946 6.48043 17.7071 6.29289C17.5196 6.10536 17.2652 6 17 6Z" />
</svg>
