<svg width="24" height="24" viewBox="0 0 24 24" xmlns="http://www.w3.org/2000/svg">
<path d="M3 7H21C21.2652 7 21.5196 6.89464 21.7071 6.70711C21.8946 6.51957 22 6.26522 22 6C22 5.73478 21.8946 5.48043 21.7071 5.29289C21.5196 5.10536 21.2652 5 21 5H3C2.73478 5 2.48043 5.10536 2.29289 5.29289C2.10536 5.48043 2 5.73478 2 6C2 6.26522 2.10536 6.51957 2.29289 6.70711C2.48043 6.89464 2.73478 7 3 7ZM3 11H13C13.2652 11 13.5196 10.8946 13.7071 10.7071C13.8946 10.5196 14 10.2652 14 10C14 9.73478 13.8946 9.48043 13.7071 9.29289C13.5196 9.10536 13.2652 9 13 9H3C2.73478 9 2.48043 9.10536 2.29289 9.29289C2.10536 9.48043 2 9.73478 2 10C2 10.2652 2.10536 10.5196 2.29289 10.7071C2.48043 10.8946 2.73478 11 3 11ZM21.77 9.69C21.6853 9.58947 21.5817 9.50661 21.465 9.44616C21.3483 9.38572 21.2208 9.34887 21.0899 9.33772C20.9589 9.32658 20.8271 9.34135 20.7018 9.38121C20.5766 9.42107 20.4604 9.48522 20.36 9.57L18.36 11.23C18.2468 11.3238 18.1556 11.4415 18.093 11.5746C18.0305 11.7077 17.998 11.8529 17.998 12C17.998 12.1471 18.0305 12.2923 18.093 12.4254C18.1556 12.5585 18.2468 12.6762 18.36 12.77L20.36 14.43C20.5385 14.5827 20.7651 14.6677 21 14.67C21.1469 14.6702 21.2921 14.6381 21.4252 14.5759C21.5582 14.5137 21.676 14.4229 21.77 14.31C21.8542 14.209 21.9176 14.0923 21.9567 13.9667C21.9957 13.8411 22.0096 13.709 21.9975 13.578C21.9855 13.4471 21.9477 13.3197 21.8863 13.2034C21.825 13.087 21.7413 12.9839 21.64 12.9L20.56 12L21.64 11.1C21.7413 11.0161 21.825 10.913 21.8863 10.7966C21.9477 10.6803 21.9855 10.5529 21.9975 10.422C22.0096 10.291 21.9957 10.1589 21.9567 10.0333C21.9176 9.90771 21.8542 9.79105 21.77 9.69ZM21 17H3C2.73478 17 2.48043 17.1054 2.29289 17.2929C2.10536 17.4804 2 17.7348 2 18C2 18.2652 2.10536 18.5196 2.29289 18.7071C2.48043 18.8946 2.73478 19 3 19H21C21.2652 19 21.5196 18.8946 21.7071 18.7071C21.8946 18.5196 22 18.2652 22 18C22 17.7348 21.8946 17.4804 21.7071 17.2929C21.5196 17.1054 21.2652 17 21 17ZM3 15H13C13.2652 15 13.5196 14.8946 13.7071 14.7071C13.8946 14.5196 14 14.2652 14 14C14 13.7348 13.8946 13.4804 13.7071 13.2929C13.5196 13.1054 13.2652 13 13 13H3C2.73478 13 2.48043 13.1054 2.29289 13.2929C2.10536 13.4804 2 13.7348 2 14C2 14.2652 2.10536 14.5196 2.29289 14.7071C2.48043 14.8946 2.73478 15 3 15Z" />
</svg>
