<svg width="24" height="24" viewBox="0 0 24 24" xmlns="http://www.w3.org/2000/svg">
<path d="M9 5C8.73479 5 8.48043 5.10536 8.2929 5.29289C8.10536 5.48043 8 5.73478 8 6V18C8 18.2652 8.10536 18.5196 8.2929 18.7071C8.48043 18.8946 8.73479 19 9 19C9.26522 19 9.51957 18.8946 9.70711 18.7071C9.89465 18.5196 10 18.2652 10 18V6C10 5.73478 9.89465 5.48043 9.70711 5.29289C9.51957 5.10536 9.26522 5 9 5ZM13 7H21C21.2652 7 21.5196 6.89464 21.7071 6.70711C21.8946 6.51957 22 6.26522 22 6C22 5.73478 21.8946 5.48043 21.7071 5.29289C21.5196 5.10536 21.2652 5 21 5H13C12.7348 5 12.4804 5.10536 12.2929 5.29289C12.1054 5.48043 12 5.73478 12 6C12 6.26522 12.1054 6.51957 12.2929 6.70711C12.4804 6.89464 12.7348 7 13 7ZM5.77 9.69C5.68605 9.58874 5.58295 9.50504 5.46661 9.44369C5.35026 9.38234 5.22295 9.34454 5.09197 9.33246C4.961 9.32039 4.82893 9.33427 4.70332 9.37331C4.57772 9.41236 4.46105 9.4758 4.36 9.56L2.36 11.23C2.24676 11.3238 2.15561 11.4415 2.09305 11.5746C2.03048 11.7077 1.99805 11.8529 1.99805 12C1.99805 12.1471 2.03048 12.2923 2.09305 12.4254C2.15561 12.5585 2.24676 12.6762 2.36 12.77L4.36 14.44C4.46105 14.5242 4.57772 14.5876 4.70332 14.6267C4.82893 14.6657 4.961 14.6796 5.09197 14.6675C5.22295 14.6555 5.35026 14.6177 5.46661 14.5563C5.58295 14.495 5.68605 14.4113 5.77 14.31C5.8542 14.209 5.91764 14.0923 5.95669 13.9667C5.99573 13.8411 6.00962 13.709 5.99754 13.578C5.98546 13.4471 5.94767 13.3197 5.88632 13.2034C5.82496 13.087 5.74126 12.9839 5.64 12.9L4.56 12L5.64 11.1C5.74126 11.0161 5.82496 10.913 5.88632 10.7966C5.94767 10.6803 5.98546 10.5529 5.99754 10.422C6.00962 10.291 5.99573 10.1589 5.95669 10.0333C5.91764 9.90771 5.8542 9.79105 5.77 9.69ZM21 9H13C12.7348 9 12.4804 9.10536 12.2929 9.29289C12.1054 9.48043 12 9.73478 12 10C12 10.2652 12.1054 10.5196 12.2929 10.7071C12.4804 10.8946 12.7348 11 13 11H21C21.2652 11 21.5196 10.8946 21.7071 10.7071C21.8946 10.5196 22 10.2652 22 10C22 9.73478 21.8946 9.48043 21.7071 9.29289C21.5196 9.10536 21.2652 9 21 9ZM21 13H13C12.7348 13 12.4804 13.1054 12.2929 13.2929C12.1054 13.4804 12 13.7348 12 14C12 14.2652 12.1054 14.5196 12.2929 14.7071C12.4804 14.8946 12.7348 15 13 15H21C21.2652 15 21.5196 14.8946 21.7071 14.7071C21.8946 14.5196 22 14.2652 22 14C22 13.7348 21.8946 13.4804 21.7071 13.2929C21.5196 13.1054 21.2652 13 21 13ZM21 17H13C12.7348 17 12.4804 17.1054 12.2929 17.2929C12.1054 17.4804 12 17.7348 12 18C12 18.2652 12.1054 18.5196 12.2929 18.7071C12.4804 18.8946 12.7348 19 13 19H21C21.2652 19 21.5196 18.8946 21.7071 18.7071C21.8946 18.5196 22 18.2652 22 18C22 17.7348 21.8946 17.4804 21.7071 17.2929C21.5196 17.1054 21.2652 17 21 17Z" />
</svg>
