<svg width="24" height="24" viewBox="0 0 24 24" xmlns="http://www.w3.org/2000/svg">
<path d="M8 18.5C7.80222 18.5 7.60888 18.5586 7.44443 18.6685C7.27998 18.7784 7.15181 18.9346 7.07612 19.1173C7.00043 19.3 6.98063 19.5011 7.01922 19.6951C7.0578 19.8891 7.15304 20.0673 7.29289 20.2071C7.43275 20.347 7.61093 20.4422 7.80491 20.4808C7.99889 20.5194 8.19996 20.4996 8.38268 20.4239C8.56541 20.3482 8.72159 20.22 8.83147 20.0556C8.94135 19.8911 9 19.6978 9 19.5C9 19.2348 8.89464 18.9804 8.70711 18.7929C8.51957 18.6054 8.26522 18.5 8 18.5ZM8 10.5C7.80222 10.5 7.60888 10.5586 7.44443 10.6685C7.27998 10.7784 7.15181 10.9346 7.07612 11.1173C7.00043 11.3 6.98063 11.5011 7.01922 11.6951C7.0578 11.8891 7.15304 12.0673 7.29289 12.2071C7.43275 12.347 7.61093 12.4422 7.80491 12.4808C7.99889 12.5194 8.19996 12.4996 8.38268 12.4239C8.56541 12.3482 8.72159 12.22 8.83147 12.0556C8.94135 11.8911 9 11.6978 9 11.5C9 11.2348 8.89464 10.9804 8.70711 10.7929C8.51957 10.6054 8.26522 10.5 8 10.5ZM12 18.5C11.8022 18.5 11.6089 18.5586 11.4444 18.6685C11.28 18.7784 11.1518 18.9346 11.0761 19.1173C11.0004 19.3 10.9806 19.5011 11.0192 19.6951C11.0578 19.8891 11.153 20.0673 11.2929 20.2071C11.4327 20.347 11.6109 20.4422 11.8049 20.4808C11.9989 20.5194 12.2 20.4996 12.3827 20.4239C12.5654 20.3482 12.7216 20.22 12.8315 20.0556C12.9414 19.8911 13 19.6978 13 19.5C13 19.2348 12.8946 18.9804 12.7071 18.7929C12.5196 18.6054 12.2652 18.5 12 18.5ZM4 6.5C3.80222 6.5 3.60888 6.55865 3.44443 6.66853C3.27998 6.77841 3.15181 6.93459 3.07612 7.11732C3.00043 7.30004 2.98063 7.50111 3.01922 7.69509C3.0578 7.88907 3.15304 8.06725 3.29289 8.20711C3.43275 8.34696 3.61093 8.4422 3.80491 8.48079C3.99889 8.51937 4.19996 8.49957 4.38268 8.42388C4.56541 8.34819 4.72159 8.22002 4.83147 8.05557C4.94135 7.89112 5 7.69778 5 7.5C5 7.23478 4.89464 6.98043 4.70711 6.79289C4.51957 6.60536 4.26522 6.5 4 6.5ZM4 18.5C3.80222 18.5 3.60888 18.5586 3.44443 18.6685C3.27998 18.7784 3.15181 18.9346 3.07612 19.1173C3.00043 19.3 2.98063 19.5011 3.01922 19.6951C3.0578 19.8891 3.15304 20.0673 3.29289 20.2071C3.43275 20.347 3.61093 20.4422 3.80491 20.4808C3.99889 20.5194 4.19996 20.4996 4.38268 20.4239C4.56541 20.3482 4.72159 20.22 4.83147 20.0556C4.94135 19.8911 5 19.6978 5 19.5C5 19.2348 4.89464 18.9804 4.70711 18.7929C4.51957 18.6054 4.26522 18.5 4 18.5ZM4 4.5H20C20.2652 4.5 20.5196 4.39464 20.7071 4.20711C20.8946 4.01957 21 3.76522 21 3.5C21 3.23478 20.8946 2.98043 20.7071 2.79289C20.5196 2.60536 20.2652 2.5 20 2.5H4C3.73478 2.5 3.48043 2.60536 3.29289 2.79289C3.10536 2.98043 3 3.23478 3 3.5C3 3.76522 3.10536 4.01957 3.29289 4.20711C3.48043 4.39464 3.73478 4.5 4 4.5ZM4 14.5C3.80222 14.5 3.60888 14.5586 3.44443 14.6685C3.27998 14.7784 3.15181 14.9346 3.07612 15.1173C3.00043 15.3 2.98063 15.5011 3.01922 15.6951C3.0578 15.8891 3.15304 16.0673 3.29289 16.2071C3.43275 16.347 3.61093 16.4422 3.80491 16.4808C3.99889 16.5194 4.19996 16.4996 4.38268 16.4239C4.56541 16.3482 4.72159 16.22 4.83147 16.0556C4.94135 15.8911 5 15.6978 5 15.5C5 15.2348 4.89464 14.9804 4.70711 14.7929C4.51957 14.6054 4.26522 14.5 4 14.5ZM4 10.5C3.80222 10.5 3.60888 10.5586 3.44443 10.6685C3.27998 10.7784 3.15181 10.9346 3.07612 11.1173C3.00043 11.3 2.98063 11.5011 3.01922 11.6951C3.0578 11.8891 3.15304 12.0673 3.29289 12.2071C3.43275 12.347 3.61093 12.4422 3.80491 12.4808C3.99889 12.5194 4.19996 12.4996 4.38268 12.4239C4.56541 12.3482 4.72159 12.22 4.83147 12.0556C4.94135 11.8911 5 11.6978 5 11.5C5 11.2348 4.89464 10.9804 4.70711 10.7929C4.51957 10.6054 4.26522 10.5 4 10.5ZM12 6.5C11.8022 6.5 11.6089 6.55865 11.4444 6.66853C11.28 6.77841 11.1518 6.93459 11.0761 7.11732C11.0004 7.30004 10.9806 7.50111 11.0192 7.69509C11.0578 7.88907 11.153 8.06725 11.2929 8.20711C11.4327 8.34696 11.6109 8.4422 11.8049 8.48079C11.9989 8.51937 12.2 8.49957 12.3827 8.42388C12.5654 8.34819 12.7216 8.22002 12.8315 8.05557C12.9414 7.89112 13 7.69778 13 7.5C13 7.23478 12.8946 6.98043 12.7071 6.79289C12.5196 6.60536 12.2652 6.5 12 6.5ZM20 14.5C19.8022 14.5 19.6089 14.5586 19.4444 14.6685C19.28 14.7784 19.1518 14.9346 19.0761 15.1173C19.0004 15.3 18.9806 15.5011 19.0192 15.6951C19.0578 15.8891 19.153 16.0673 19.2929 16.2071C19.4327 16.347 19.6109 16.4422 19.8049 16.4808C19.9989 16.5194 20.2 16.4996 20.3827 16.4239C20.5654 16.3482 20.7216 16.22 20.8315 16.0556C20.9414 15.8911 21 15.6978 21 15.5C21 15.2348 20.8946 14.9804 20.7071 14.7929C20.5196 14.6054 20.2652 14.5 20 14.5ZM20 18.5C19.8022 18.5 19.6089 18.5586 19.4444 18.6685C19.28 18.7784 19.1518 18.9346 19.0761 19.1173C19.0004 19.3 18.9806 19.5011 19.0192 19.6951C19.0578 19.8891 19.153 20.0673 19.2929 20.2071C19.4327 20.347 19.6109 20.4422 19.8049 20.4808C19.9989 20.5194 20.2 20.4996 20.3827 20.4239C20.5654 20.3482 20.7216 20.22 20.8315 20.0556C20.9414 19.8911 21 19.6978 21 19.5C21 19.2348 20.8946 18.9804 20.7071 18.7929C20.5196 18.6054 20.2652 18.5 20 18.5ZM12 14.5C11.8022 14.5 11.6089 14.5586 11.4444 14.6685C11.28 14.7784 11.1518 14.9346 11.0761 15.1173C11.0004 15.3 10.9806 15.5011 11.0192 15.6951C11.0578 15.8891 11.153 16.0673 11.2929 16.2071C11.4327 16.347 11.6109 16.4422 11.8049 16.4808C11.9989 16.5194 12.2 16.4996 12.3827 16.4239C12.5654 16.3482 12.7216 16.22 12.8315 16.0556C12.9414 15.8911 13 15.6978 13 15.5C13 15.2348 12.8946 14.9804 12.7071 14.7929C12.5196 14.6054 12.2652 14.5 12 14.5ZM20 6.5C19.8022 6.5 19.6089 6.55865 19.4444 6.66853C19.28 6.77841 19.1518 6.93459 19.0761 7.11732C19.0004 7.30004 18.9806 7.50111 19.0192 7.69509C19.0578 7.88907 19.153 8.06725 19.2929 8.20711C19.4327 8.34696 19.6109 8.4422 19.8049 8.48079C19.9989 8.51937 20.2 8.49957 20.3827 8.42388C20.5654 8.34819 20.7216 8.22002 20.8315 8.05557C20.9414 7.89112 21 7.69778 21 7.5C21 7.23478 20.8946 6.98043 20.7071 6.79289C20.5196 6.60536 20.2652 6.5 20 6.5ZM20 10.5C19.8022 10.5 19.6089 10.5586 19.4444 10.6685C19.28 10.7784 19.1518 10.9346 19.0761 11.1173C19.0004 11.3 18.9806 11.5011 19.0192 11.6951C19.0578 11.8891 19.153 12.0673 19.2929 12.2071C19.4327 12.347 19.6109 12.4422 19.8049 12.4808C19.9989 12.5194 20.2 12.4996 20.3827 12.4239C20.5654 12.3482 20.7216 12.22 20.8315 12.0556C20.9414 11.8911 21 11.6978 21 11.5C21 11.2348 20.8946 10.9804 20.7071 10.7929C20.5196 10.6054 20.2652 10.5 20 10.5ZM12 10.5C11.8022 10.5 11.6089 10.5586 11.4444 10.6685C11.28 10.7784 11.1518 10.9346 11.0761 11.1173C11.0004 11.3 10.9806 11.5011 11.0192 11.6951C11.0578 11.8891 11.153 12.0673 11.2929 12.2071C11.4327 12.347 11.6109 12.4422 11.8049 12.4808C11.9989 12.5194 12.2 12.4996 12.3827 12.4239C12.5654 12.3482 12.7216 12.22 12.8315 12.0556C12.9414 11.8911 13 11.6978 13 11.5C13 11.2348 12.8946 10.9804 12.7071 10.7929C12.5196 10.6054 12.2652 10.5 12 10.5ZM16 10.5C15.8022 10.5 15.6089 10.5586 15.4444 10.6685C15.28 10.7784 15.1518 10.9346 15.0761 11.1173C15.0004 11.3 14.9806 11.5011 15.0192 11.6951C15.0578 11.8891 15.153 12.0673 15.2929 12.2071C15.4327 12.347 15.6109 12.4422 15.8049 12.4808C15.9989 12.5194 16.2 12.4996 16.3827 12.4239C16.5654 12.3482 16.7216 12.22 16.8315 12.0556C16.9414 11.8911 17 11.6978 17 11.5C17 11.2348 16.8946 10.9804 16.7071 10.7929C16.5196 10.6054 16.2652 10.5 16 10.5ZM16 18.5C15.8022 18.5 15.6089 18.5586 15.4444 18.6685C15.28 18.7784 15.1518 18.9346 15.0761 19.1173C15.0004 19.3 14.9806 19.5011 15.0192 19.6951C15.0578 19.8891 15.153 20.0673 15.2929 20.2071C15.4327 20.347 15.6109 20.4422 15.8049 20.4808C15.9989 20.5194 16.2 20.4996 16.3827 20.4239C16.5654 20.3482 16.7216 20.22 16.8315 20.0556C16.9414 19.8911 17 19.6978 17 19.5C17 19.2348 16.8946 18.9804 16.7071 18.7929C16.5196 18.6054 16.2652 18.5 16 18.5Z" />
</svg>
