<svg xmlns="http://www.w3.org/2000/svg" xmlns:xlink="http://www.w3.org/1999/xlink"><defs><symbol viewBox="0 0 24 24" id="sign-andsymbol-block">
<path d="M12 2C10.0222 2 8.08879 2.58649 6.4443 3.6853C4.79981 4.78412 3.51809 6.3459 2.76121 8.17317C2.00433 10.0004 1.8063 12.0111 2.19215 13.9509C2.578 15.8907 3.53041 17.6725 4.92894 19.0711C6.32746 20.4696 8.10929 21.422 10.0491 21.8079C11.9889 22.1937 13.9996 21.9957 15.8268 21.2388C17.6541 20.4819 19.2159 19.2002 20.3147 17.5557C21.4135 15.9112 22 13.9778 22 12C22 10.6868 21.7413 9.38642 21.2388 8.17317C20.7363 6.95991 19.9997 5.85752 19.0711 4.92893C18.1425 4.00035 17.0401 3.26375 15.8268 2.7612C14.6136 2.25866 13.3132 2 12 2ZM12 20C9.87827 20 7.84344 19.1571 6.34315 17.6569C4.84286 16.1566 4 14.1217 4 12C3.9978 10.2233 4.59302 8.49755 5.69 7.1L16.9 18.31C15.5025 19.407 13.7767 20.0022 12 20ZM18.31 16.9L7.1 5.69C8.49755 4.59302 10.2233 3.99779 12 4C14.1217 4 16.1566 4.84285 17.6569 6.34315C19.1572 7.84344 20 9.87827 20 12C20.0022 13.7767 19.407 15.5025 18.31 16.9Z" />
</symbol><symbol viewBox="0 0 24 24" id="sign-andsymbol-copyright sign">
<path d="M11 9H13C13.2652 9 13.5196 9.10536 13.7071 9.29289C13.8946 9.48043 14 9.73478 14 10C14 10.2652 14.1054 10.5196 14.2929 10.7071C14.4804 10.8946 14.7348 11 15 11C15.2652 11 15.5196 10.8946 15.7071 10.7071C15.8946 10.5196 16 10.2652 16 10C16 9.20435 15.6839 8.44129 15.1213 7.87868C14.5587 7.31607 13.7957 7 13 7H11C10.2044 7 9.44129 7.31607 8.87868 7.87868C8.31607 8.44129 8 9.20435 8 10V14C8 14.7956 8.31607 15.5587 8.87868 16.1213C9.44129 16.6839 10.2044 17 11 17H13C13.7957 17 14.5587 16.6839 15.1213 16.1213C15.6839 15.5587 16 14.7956 16 14C16 13.7348 15.8946 13.4804 15.7071 13.2929C15.5196 13.1054 15.2652 13 15 13C14.7348 13 14.4804 13.1054 14.2929 13.2929C14.1054 13.4804 14 13.7348 14 14C14 14.2652 13.8946 14.5196 13.7071 14.7071C13.5196 14.8946 13.2652 15 13 15H11C10.7348 15 10.4804 14.8946 10.2929 14.7071C10.1054 14.5196 10 14.2652 10 14V10C10 9.73478 10.1054 9.48043 10.2929 9.29289C10.4804 9.10536 10.7348 9 11 9ZM12 2C10.0222 2 8.08879 2.58649 6.4443 3.6853C4.79981 4.78412 3.51809 6.3459 2.76121 8.17317C2.00433 10.0004 1.8063 12.0111 2.19215 13.9509C2.578 15.8907 3.53041 17.6725 4.92894 19.0711C6.32746 20.4696 8.10929 21.422 10.0491 21.8079C11.9889 22.1937 13.9996 21.9957 15.8268 21.2388C17.6541 20.4819 19.2159 19.2002 20.3147 17.5557C21.4135 15.9112 22 13.9778 22 12C22 10.6868 21.7413 9.38642 21.2388 8.17317C20.7363 6.95991 19.9997 5.85752 19.0711 4.92893C18.1425 4.00035 17.0401 3.26375 15.8268 2.7612C14.6136 2.25866 13.3132 2 12 2ZM12 20C10.4178 20 8.87104 19.5308 7.55544 18.6518C6.23985 17.7727 5.21447 16.5233 4.60897 15.0615C4.00347 13.5997 3.84504 11.9911 4.15372 10.4393C4.4624 8.88743 5.22433 7.46197 6.34315 6.34315C7.46197 5.22433 8.88743 4.4624 10.4393 4.15372C11.9911 3.84504 13.5997 4.00346 15.0615 4.60896C16.5233 5.21447 17.7727 6.23984 18.6518 7.55544C19.5308 8.87103 20 10.4177 20 12C20 14.1217 19.1572 16.1566 17.6569 17.6569C16.1566 19.1571 14.1217 20 12 20Z" />
</symbol><symbol viewBox="0 0 24 24" id="sign-andsymbol-creative commons">
<path d="M11.24 13.14C11.1265 13.0735 11.0009 13.03 10.8705 13.0121C10.7402 12.9942 10.6075 13.0022 10.4803 13.0356C10.353 13.0691 10.2336 13.1273 10.1289 13.207C10.0241 13.2867 9.93617 13.3862 9.87 13.5C9.792 13.6328 9.68437 13.7458 9.5555 13.8302C9.42664 13.9146 9.28002 13.9681 9.12708 13.9865C8.97414 14.0049 8.81903 13.9877 8.67383 13.9363C8.52863 13.8848 8.39727 13.8006 8.29 13.69C8.19651 13.6013 8.12245 13.4942 8.07253 13.3755C8.0226 13.2567 7.99791 13.1288 8 13V11C7.99888 10.777 8.07234 10.56 8.2087 10.3835C8.34507 10.207 8.53652 10.0812 8.75261 10.026C8.9687 9.97086 9.19703 9.98951 9.40131 10.079C9.60559 10.1685 9.77408 10.3237 9.88 10.52C10.0169 10.7464 10.238 10.9093 10.4948 10.973C10.7516 11.0367 11.0231 10.9961 11.25 10.86C11.3634 10.7922 11.4623 10.7026 11.5409 10.5963C11.6195 10.49 11.6762 10.3692 11.7078 10.2409C11.7395 10.1126 11.7453 9.97927 11.7251 9.84866C11.7049 9.71805 11.659 9.59275 11.59 9.48C11.4612 9.26537 11.3067 9.06725 11.13 8.89C10.8513 8.60834 10.5196 8.38468 10.154 8.23192C9.78845 8.07917 9.39622 8.00034 9 8C8.20435 8 7.44129 8.31607 6.87868 8.87868C6.31607 9.44129 6 10.2044 6 11V13C6.00304 13.6578 6.22222 14.2964 6.6238 14.8175C7.02538 15.3385 7.5871 15.7132 8.22247 15.8836C8.85784 16.0541 9.53163 16.0111 10.1401 15.7611C10.7486 15.511 11.258 15.0679 11.59 14.5C11.7221 14.2728 11.7594 14.0027 11.6939 13.7482C11.6284 13.4937 11.4653 13.2752 11.24 13.14ZM17.24 13.14C17.1265 13.0735 17.0009 13.03 16.8705 13.0121C16.7402 12.9942 16.6075 13.0022 16.4803 13.0356C16.353 13.0691 16.2336 13.1273 16.1289 13.207C16.0241 13.2867 15.9362 13.3862 15.87 13.5C15.792 13.6328 15.6844 13.7458 15.5555 13.8302C15.4266 13.9146 15.28 13.9681 15.1271 13.9865C14.9741 14.0049 14.819 13.9877 14.6738 13.9363C14.5286 13.8848 14.3973 13.8006 14.29 13.69C14.1965 13.6013 14.1224 13.4942 14.0725 13.3755C14.0226 13.2567 13.9979 13.1288 14 13V11C13.9989 10.777 14.0723 10.56 14.2087 10.3835C14.3451 10.207 14.5365 10.0812 14.7526 10.026C14.9687 9.97086 15.197 9.98951 15.4013 10.079C15.6056 10.1685 15.7741 10.3237 15.88 10.52C16.0169 10.7464 16.238 10.9093 16.4948 10.973C16.7516 11.0367 17.0231 10.9961 17.25 10.86C17.3634 10.7922 17.4623 10.7026 17.5409 10.5963C17.6195 10.49 17.6762 10.3692 17.7078 10.2409C17.7395 10.1126 17.7453 9.97927 17.7251 9.84866C17.7049 9.71805 17.659 9.59275 17.59 9.48C17.4612 9.26537 17.3067 9.06725 17.13 8.89C16.8513 8.60834 16.5196 8.38468 16.154 8.23192C15.7884 8.07917 15.3962 8.00034 15 8C14.2044 8 13.4413 8.31607 12.8787 8.87868C12.3161 9.44129 12 10.2044 12 11V13C12.003 13.6578 12.2222 14.2964 12.6238 14.8175C13.0254 15.3385 13.5871 15.7132 14.2225 15.8836C14.8578 16.0541 15.5316 16.0111 16.1401 15.7611C16.7486 15.511 17.258 15.0679 17.59 14.5C17.7221 14.2728 17.7594 14.0027 17.6939 13.7482C17.6284 13.4937 17.4653 13.2752 17.24 13.14ZM12 2C10.0222 2 8.08879 2.58649 6.4443 3.6853C4.79981 4.78412 3.51809 6.3459 2.76121 8.17317C2.00433 10.0004 1.8063 12.0111 2.19215 13.9509C2.578 15.8907 3.53041 17.6725 4.92894 19.0711C6.32746 20.4696 8.10929 21.422 10.0491 21.8079C11.9889 22.1937 13.9996 21.9957 15.8268 21.2388C17.6541 20.4819 19.2159 19.2002 20.3147 17.5557C21.4135 15.9112 22 13.9778 22 12C22 10.6868 21.7413 9.38642 21.2388 8.17317C20.7363 6.95991 19.9997 5.85752 19.0711 4.92893C18.1425 4.00035 17.0401 3.26375 15.8268 2.7612C14.6136 2.25866 13.3132 2 12 2ZM12 20C10.4178 20 8.87104 19.5308 7.55544 18.6518C6.23985 17.7727 5.21447 16.5233 4.60897 15.0615C4.00347 13.5997 3.84504 11.9911 4.15372 10.4393C4.4624 8.88743 5.22433 7.46197 6.34315 6.34315C7.46197 5.22433 8.88743 4.4624 10.4393 4.15372C11.9911 3.84504 13.5997 4.00346 15.0615 4.60896C16.5233 5.21447 17.7727 6.23984 18.6518 7.55544C19.5308 8.87103 20 10.4177 20 12C20 14.1217 19.1572 16.1566 17.6569 17.6569C16.1566 19.1571 14.1217 20 12 20Z" />
</symbol><symbol viewBox="0 0 24 24" id="sign-andsymbol-female symbol">
<path d="M19 9.00003C19.0016 7.65791 18.6173 6.34364 17.8929 5.21378C17.1685 4.08393 16.1346 3.18613 14.9144 2.62736C13.6941 2.06858 12.3389 1.87239 11.0103 2.06214C9.68166 2.2519 8.43559 2.81961 7.42053 3.69764C6.40547 4.57566 5.66422 5.72699 5.28509 7.01444C4.90597 8.3019 4.90495 9.6712 5.28216 10.9592C5.65937 12.2472 6.39891 13.3997 7.41266 14.2792C8.42641 15.1587 9.67164 15.7283 11 15.92V18H10C9.73478 18 9.48042 18.1054 9.29289 18.2929C9.10535 18.4805 8.99999 18.7348 8.99999 19C8.99999 19.2652 9.10535 19.5196 9.29289 19.7071C9.48042 19.8947 9.73478 20 10 20H11V21C11 21.2652 11.1054 21.5196 11.2929 21.7071C11.4804 21.8947 11.7348 22 12 22C12.2652 22 12.5196 21.8947 12.7071 21.7071C12.8946 21.5196 13 21.2652 13 21V20H14C14.2652 20 14.5196 19.8947 14.7071 19.7071C14.8946 19.5196 15 19.2652 15 19C15 18.7348 14.8946 18.4805 14.7071 18.2929C14.5196 18.1054 14.2652 18 14 18H13V15.92C14.6646 15.6798 16.187 14.8482 17.2888 13.5775C18.3906 12.3068 18.998 10.6819 19 9.00003ZM12 14C11.0111 14 10.0444 13.7068 9.22214 13.1574C8.3999 12.608 7.75904 11.8271 7.3806 10.9134C7.00216 9.99981 6.90314 8.99448 7.09607 8.02458C7.28899 7.05467 7.7652 6.16376 8.46446 5.46449C9.16372 4.76523 10.0546 4.28903 11.0245 4.0961C11.9944 3.90318 12.9998 4.00219 13.9134 4.38063C14.827 4.75907 15.6079 5.39993 16.1573 6.22218C16.7068 7.04442 17 8.01112 17 9.00003C17 9.65664 16.8707 10.3068 16.6194 10.9134C16.3681 11.5201 15.9998 12.0713 15.5355 12.5356C15.0712 12.9999 14.52 13.3682 13.9134 13.6194C13.3068 13.8707 12.6566 14 12 14Z" />
</symbol><symbol viewBox="0 0 24 24" id="sign-andsymbol-handicap symbol">
<path d="M12 6.5C12.3955 6.5 12.7822 6.3827 13.1111 6.16294C13.44 5.94318 13.6963 5.63082 13.8477 5.26537C13.9991 4.89992 14.0387 4.49778 13.9615 4.10982C13.8844 3.72186 13.6939 3.36549 13.4142 3.08579C13.1345 2.80608 12.7781 2.6156 12.3901 2.53843C12.0022 2.46126 11.6 2.50087 11.2346 2.65224C10.8691 2.80362 10.5568 3.05996 10.337 3.38886C10.1173 3.71776 9.99996 4.10444 9.99996 4.5C9.99996 5.03043 10.2107 5.53914 10.5857 5.91421C10.9608 6.28929 11.4695 6.5 12 6.5ZM19.5 20.5H18.5V15.5C18.5 15.2348 18.3946 14.9804 18.2071 14.7929C18.0195 14.6054 17.7652 14.5 17.5 14.5H12.5V12.5H17.5C17.7652 12.5 18.0195 12.3946 18.2071 12.2071C18.3946 12.0196 18.5 11.7652 18.5 11.5C18.5 11.2348 18.3946 10.9804 18.2071 10.7929C18.0195 10.6054 17.7652 10.5 17.5 10.5H12.5V8.5C12.5 8.23478 12.3946 7.98043 12.2071 7.79289C12.0195 7.60536 11.7652 7.5 11.5 7.5C11.2347 7.5 10.9804 7.60536 10.7929 7.79289C10.6053 7.98043 10.5 8.23478 10.5 8.5V15.5C10.5 15.7652 10.6053 16.0196 10.7929 16.2071C10.9804 16.3946 11.2347 16.5 11.5 16.5H16.5V21.5C16.5 21.7652 16.6053 22.0196 16.7929 22.2071C16.9804 22.3946 17.2347 22.5 17.5 22.5H19.5C19.7652 22.5 20.0195 22.3946 20.2071 22.2071C20.3946 22.0196 20.5 21.7652 20.5 21.5C20.5 21.2348 20.3946 20.9804 20.2071 20.7929C20.0195 20.6054 19.7652 20.5 19.5 20.5ZM12.7 18.9C12.1962 19.5716 11.494 20.0677 10.6926 20.3181C9.89129 20.5684 9.0315 20.5602 8.23505 20.2947C7.4386 20.0293 6.74588 19.5199 6.25499 18.8388C5.76411 18.1578 5.49996 17.3395 5.49996 16.5C5.50114 15.7227 5.72875 14.9626 6.15498 14.3126C6.58121 13.6626 7.18758 13.1509 7.89996 12.84C8.14396 12.7339 8.33582 12.5352 8.43334 12.2877C8.53086 12.0401 8.52605 11.764 8.41996 11.52C8.31388 11.276 8.11521 11.0841 7.86766 10.9866C7.62011 10.8891 7.34396 10.8939 7.09996 11C6.25846 11.3674 5.51252 11.9231 4.91959 12.6243C4.32666 13.3254 3.90257 14.1532 3.67996 15.0441C3.45736 15.9349 3.44218 16.865 3.63561 17.7626C3.82904 18.6602 4.22591 19.5014 4.79565 20.2215C5.3654 20.9416 6.09281 21.5214 6.92188 21.9161C7.75095 22.3108 8.65955 22.5099 9.5777 22.4982C10.4959 22.4864 11.3991 22.2641 12.2178 21.8483C13.0365 21.4326 13.7488 20.8344 14.3 20.1C14.4591 19.8878 14.5274 19.6211 14.4899 19.3586C14.4524 19.096 14.3121 18.8591 14.1 18.7C13.8878 18.5409 13.6211 18.4725 13.3585 18.51C13.096 18.5476 12.8591 18.6878 12.7 18.9Z" />
</symbol><symbol viewBox="0 0 24 24" id="sign-andsymbol-handicap symbol-1">
<path d="M17.1108 6.66294C16.7819 6.8827 16.3952 7 15.9996 7C15.4692 7 14.9605 6.78929 14.5854 6.41421C14.2103 6.03914 13.9996 5.53043 13.9996 5C13.9996 4.60444 14.1169 4.21776 14.3367 3.88886C14.5565 3.55996 14.8688 3.30362 15.2343 3.15224C15.5997 3.00087 16.0018 2.96126 16.3898 3.03843C16.7778 3.1156 17.1341 3.30608 17.4138 3.58579C17.6935 3.86549 17.884 4.22186 17.9612 4.60982C18.0384 4.99778 17.9988 5.39992 17.8474 5.76537C17.696 6.13082 17.4397 6.44318 17.1108 6.66294Z" />
<path d="M11.1729 19.615C11.7743 19.3422 12.2988 18.9248 12.6996 18.4C12.8588 18.1878 13.0957 18.0476 13.3582 18.0101C13.6208 17.9725 13.8875 18.0409 14.0996 18.2C14.3118 18.3591 14.4521 18.596 14.4896 18.8586C14.5271 19.1211 14.4588 19.3878 14.2996 19.6C13.7407 20.3452 13.016 20.95 12.1829 21.3666C11.3498 21.7831 10.4311 22 9.49963 22C7.90833 22.0888 6.34691 21.5419 5.15887 20.4795C3.97082 19.4171 3.25347 17.9263 3.16463 16.335C3.07578 14.7437 3.62271 13.1823 4.68511 11.9942C5.7475 10.8062 7.23833 10.0888 8.82963 10C9.09484 9.97083 9.36079 10.0482 9.56895 10.2151C9.77712 10.382 9.91045 10.6248 9.93963 10.89C9.9688 11.1552 9.89142 11.4212 9.72452 11.6293C9.55761 11.8375 9.31484 11.9708 9.04963 12C8.39386 12.0778 7.76754 12.3167 7.22658 12.6954C6.68562 13.0742 6.24684 13.5809 5.94941 14.1705C5.65197 14.7601 5.50513 15.4142 5.522 16.0743C5.53886 16.7345 5.7189 17.3802 6.04605 17.9538C6.3732 18.5274 6.83728 19.0111 7.39687 19.3618C7.95647 19.7124 8.59416 19.919 9.25305 19.9632C9.91193 20.0074 10.5715 19.8878 11.1729 19.615Z" />
</symbol><symbol viewBox="0 0 24 24" id="sign-andsymbol-male symbol">
<path d="M20.4204 4.12C20.3189 3.87565 20.1247 3.68147 19.8804 3.58C19.7602 3.52876 19.6311 3.50158 19.5004 3.5H15.5004C15.2352 3.5 14.9808 3.60536 14.7933 3.79289C14.6057 3.98043 14.5004 4.23478 14.5004 4.5C14.5004 4.76522 14.6057 5.01957 14.7933 5.20711C14.9808 5.39464 15.2352 5.5 15.5004 5.5H17.0904L14.6904 7.9C13.2733 6.83945 11.5071 6.3551 9.74722 6.54446C7.98738 6.73382 6.3646 7.58282 5.20558 8.92057C4.04656 10.2583 3.43734 11.9855 3.50057 13.7543C3.56379 15.5232 4.29477 17.2025 5.54635 18.454C6.79793 19.7056 8.47718 20.4366 10.246 20.4998C12.0149 20.563 13.7421 19.9538 15.0798 18.7948C16.4176 17.6358 17.2666 16.013 17.4559 14.2532C17.6453 12.4933 17.1609 10.7271 16.1004 9.31L18.5004 6.91V8.5C18.5004 8.76522 18.6057 9.01957 18.7933 9.20711C18.9808 9.39464 19.2352 9.5 19.5004 9.5C19.7656 9.5 20.02 9.39464 20.2075 9.20711C20.395 9.01957 20.5004 8.76522 20.5004 8.5V4.5C20.4988 4.36932 20.4716 4.24022 20.4204 4.12ZM14.0004 17C13.3052 17.7093 12.4145 18.1954 11.4419 18.3965C10.4693 18.5975 9.45883 18.5044 8.53937 18.1289C7.61992 17.7534 6.83311 17.1126 6.27928 16.2882C5.72544 15.4638 5.42967 14.4932 5.42967 13.5C5.42967 12.5068 5.72544 11.5362 6.27928 10.7118C6.83311 9.88736 7.61992 9.24657 8.53937 8.87109C9.45883 8.49562 10.4693 8.40247 11.4419 8.60353C12.4145 8.80459 13.3052 9.29074 14.0004 10C14.9165 10.9346 15.4297 12.1912 15.4297 13.5C15.4297 14.8088 14.9165 16.0654 14.0004 17Z" />
</symbol><symbol viewBox="0 0 24 24" id="sign-andsymbol-no copyright">
<path d="M12 2C10.0222 2 8.08879 2.58649 6.4443 3.6853C4.79981 4.78412 3.51809 6.3459 2.76121 8.17317C2.00433 10.0004 1.8063 12.0111 2.19215 13.9509C2.578 15.8907 3.53041 17.6725 4.92894 19.0711C6.32746 20.4696 8.10929 21.422 10.0491 21.8079C11.9889 22.1937 13.9996 21.9957 15.8268 21.2388C17.6541 20.4819 19.2159 19.2002 20.3147 17.5557C21.4135 15.9112 22 13.9778 22 12C22 10.6868 21.7413 9.38642 21.2388 8.17317C20.7363 6.95991 19.9997 5.85752 19.0711 4.92893C18.1425 4.00035 17.0401 3.26375 15.8268 2.7612C14.6136 2.25866 13.3132 2 12 2ZM12 20C9.87827 20 7.84344 19.1571 6.34315 17.6569C4.84286 16.1566 4 14.1217 4 12C3.9978 10.2233 4.59302 8.49755 5.69 7.1L8.05 9.47C8.01802 9.64489 8.00129 9.82222 8 10V14C8 14.7956 8.31607 15.5587 8.87868 16.1213C9.44129 16.6839 10.2044 17 11 17H13C13.6906 16.9944 14.3582 16.7507 14.89 16.31L16.89 18.31C15.4952 19.4049 13.7732 20 12 20ZM10 14V11.41L13.46 14.87C13.321 14.9536 13.1622 14.9984 13 15H11C10.7348 15 10.4804 14.8946 10.2929 14.7071C10.1054 14.5196 10 14.2652 10 14ZM18.31 16.9L16 14.53C16.0153 14.3537 16.0153 14.1763 16 14C16 13.7348 15.8946 13.4804 15.7071 13.2929C15.5196 13.1054 15.2652 13 15 13C14.8378 13.0016 14.679 13.0464 14.54 13.13L10.54 9.13C10.679 9.04645 10.8378 9.00157 11 9H13C13.2652 9 13.5196 9.10536 13.7071 9.29289C13.8946 9.48043 14 9.73478 14 10C14 10.2652 14.1054 10.5196 14.2929 10.7071C14.4804 10.8946 14.7348 11 15 11C15.2652 11 15.5196 10.8946 15.7071 10.7071C15.8946 10.5196 16 10.2652 16 10C16 9.20435 15.6839 8.44129 15.1213 7.87868C14.5587 7.31607 13.7957 7 13 7H11C10.3094 7.00558 9.64179 7.2493 9.11 7.69L7.11 5.69C8.50485 4.59513 10.2268 4.00003 12 4C14.1217 4 16.1566 4.84285 17.6569 6.34315C19.1572 7.84344 20 9.87827 20 12C20.0022 13.7767 19.407 15.5025 18.31 16.9Z" />
</symbol><symbol viewBox="0 0 24 24" id="sign-andsymbol-no creative commons">
<path d="M12 2C10.0222 2 8.08879 2.58649 6.4443 3.6853C4.79981 4.78412 3.51809 6.3459 2.76121 8.17317C2.00433 10.0004 1.8063 12.0111 2.19215 13.9509C2.578 15.8907 3.53041 17.6725 4.92894 19.0711C6.32746 20.4696 8.10929 21.422 10.0491 21.8079C11.9889 22.1937 13.9996 21.9957 15.8268 21.2388C17.6541 20.4819 19.2159 19.2002 20.3147 17.5557C21.4135 15.9112 22 13.9778 22 12C22 10.6868 21.7413 9.38642 21.2388 8.17317C20.7363 6.95991 19.9997 5.85752 19.0711 4.92893C18.1425 4.00035 17.0401 3.26375 15.8268 2.7612C14.6136 2.25866 13.3132 2 12 2ZM12 20C9.87827 20 7.84344 19.1571 6.34315 17.6569C4.84286 16.1566 4 14.1217 4 12C3.9978 10.2233 4.59302 8.49755 5.69 7.1L7.2 8.61C6.82876 8.88843 6.52718 9.24918 6.31895 9.66389C6.11073 10.0786 6.00155 10.536 6 11V13C6.00304 13.6578 6.22222 14.2964 6.6238 14.8175C7.02538 15.3385 7.5871 15.7132 8.22247 15.8836C8.85784 16.0541 9.53163 16.0111 10.1401 15.7611C10.7486 15.511 11.258 15.0679 11.59 14.5C11.6723 14.3868 11.7299 14.2577 11.7592 14.1208C11.7884 13.984 11.7886 13.8426 11.7598 13.7056C11.7309 13.5687 11.6737 13.4394 11.5917 13.326C11.5097 13.2126 11.4048 13.1177 11.2839 13.0473C11.1629 12.977 11.0285 12.9328 10.8894 12.9177C10.7503 12.9026 10.6096 12.9168 10.4763 12.9595C10.3431 13.0021 10.2203 13.0723 10.1158 13.1654C10.0114 13.2585 9.92763 13.3725 9.87 13.5C9.792 13.6328 9.68437 13.7458 9.5555 13.8302C9.42664 13.9146 9.28002 13.9681 9.12708 13.9865C8.97414 14.0049 8.81903 13.9877 8.67383 13.9363C8.52863 13.8848 8.39727 13.8006 8.29 13.69C8.19651 13.6013 8.12245 13.4942 8.07253 13.3755C8.0226 13.2567 7.99791 13.1288 8 13V11C8.0049 10.7967 8.07165 10.5998 8.19136 10.4354C8.31106 10.271 8.47803 10.147 8.67 10.08L12 13.46C12.0926 14.1008 12.39 14.6944 12.8478 15.1522C13.3056 15.61 13.8992 15.9074 14.54 16L16.9 18.36C15.4959 19.4391 13.7708 20.0165 12 20ZM18.31 16.9L16.79 15.38C17.1138 15.1442 17.3861 14.8448 17.59 14.5C17.6723 14.3868 17.7299 14.2577 17.7592 14.1208C17.7884 13.984 17.7886 13.8426 17.7598 13.7056C17.7309 13.5687 17.6737 13.4394 17.5917 13.326C17.5097 13.2126 17.4048 13.1177 17.2839 13.0473C17.1629 12.977 17.0285 12.9328 16.8894 12.9177C16.7503 12.9026 16.6096 12.9168 16.4763 12.9595C16.3431 13.0021 16.2203 13.0723 16.1158 13.1654C16.0114 13.2585 15.9276 13.3725 15.87 13.5C15.7407 13.6972 15.5459 13.8425 15.32 13.91L14 12.59V11C13.9989 10.777 14.0723 10.56 14.2087 10.3835C14.3451 10.207 14.5365 10.0812 14.7526 10.026C14.9687 9.97086 15.197 9.98951 15.4013 10.079C15.6056 10.1685 15.7741 10.3237 15.88 10.52C16.0169 10.7464 16.238 10.9093 16.4948 10.973C16.7516 11.0367 17.0231 10.9961 17.25 10.86C17.3634 10.7922 17.4623 10.7026 17.5409 10.5963C17.6195 10.49 17.6762 10.3692 17.7078 10.2409C17.7395 10.1126 17.7453 9.97927 17.7251 9.84866C17.7049 9.71805 17.659 9.59275 17.59 9.48C17.4612 9.26537 17.3067 9.06725 17.13 8.89C16.7354 8.48383 16.2339 8.19765 15.6835 8.06453C15.1331 7.93141 14.5562 7.9568 14.0196 8.13776C13.483 8.31871 13.0086 8.64785 12.6512 9.08711C12.2938 9.52637 12.068 10.0578 12 10.62L11.65 10.27C11.6883 10.1385 11.6992 10.0005 11.682 9.86462C11.6648 9.72872 11.6199 9.59781 11.55 9.48C11.4212 9.26537 11.2667 9.06725 11.09 8.89C10.6396 8.43577 10.0532 8.14086 9.42 8.05L7.1 5.69C8.49755 4.59302 10.2233 3.99779 12 4C14.1217 4 16.1566 4.84285 17.6569 6.34315C19.1572 7.84344 20 9.87827 20 12C20.0022 13.7767 19.407 15.5025 18.31 16.9Z" />
</symbol><symbol viewBox="0 0 24 24" id="sign-andsymbol-p sign">
<path d="M13 7H10C9.73479 7 9.48043 7.10536 9.2929 7.29289C9.10536 7.48043 9 7.73478 9 8V16C9 16.2652 9.10536 16.5196 9.2929 16.7071C9.48043 16.8946 9.73479 17 10 17C10.2652 17 10.5196 16.8946 10.7071 16.7071C10.8946 16.5196 11 16.2652 11 16V14H13C13.7957 14 14.5587 13.6839 15.1213 13.1213C15.6839 12.5587 16 11.7956 16 11V10C16 9.20435 15.6839 8.44129 15.1213 7.87868C14.5587 7.31607 13.7957 7 13 7ZM14 11C14 11.2652 13.8946 11.5196 13.7071 11.7071C13.5196 11.8946 13.2652 12 13 12H11V9H13C13.2652 9 13.5196 9.10536 13.7071 9.29289C13.8946 9.48043 14 9.73478 14 10V11ZM12 2C10.0222 2 8.08879 2.58649 6.4443 3.6853C4.79981 4.78412 3.51809 6.3459 2.76121 8.17317C2.00433 10.0004 1.8063 12.0111 2.19215 13.9509C2.578 15.8907 3.53041 17.6725 4.92894 19.0711C6.32746 20.4696 8.10929 21.422 10.0491 21.8079C11.9889 22.1937 13.9996 21.9957 15.8268 21.2388C17.6541 20.4819 19.2159 19.2002 20.3147 17.5557C21.4135 15.9112 22 13.9778 22 12C22 10.6868 21.7413 9.38642 21.2388 8.17317C20.7363 6.95991 19.9997 5.85752 19.0711 4.92893C18.1425 4.00035 17.0401 3.26375 15.8268 2.7612C14.6136 2.25866 13.3132 2 12 2ZM12 20C10.4178 20 8.87104 19.5308 7.55544 18.6518C6.23985 17.7727 5.21447 16.5233 4.60897 15.0615C4.00347 13.5997 3.84504 11.9911 4.15372 10.4393C4.4624 8.88743 5.22433 7.46197 6.34315 6.34315C7.46197 5.22433 8.88743 4.4624 10.4393 4.15372C11.9911 3.84504 13.5997 4.00346 15.0615 4.60896C16.5233 5.21447 17.7727 6.23984 18.6518 7.55544C19.5308 8.87103 20 10.4177 20 12C20 14.1217 19.1572 16.1566 17.6569 17.6569C16.1566 19.1571 14.1217 20 12 20Z" />
</symbol><symbol viewBox="0 0 24 24" id="sign-andsymbol-parking sign">
<path d="M12 6H9C8.73478 6 8.48043 6.10536 8.29289 6.29289C8.10536 6.48043 8 6.73478 8 7V17C8 17.2652 8.10536 17.5196 8.29289 17.7071C8.48043 17.8946 8.73478 18 9 18C9.26522 18 9.51957 17.8946 9.70711 17.7071C9.89464 17.5196 10 17.2652 10 17V14H12C13.0609 14 14.0783 13.5786 14.8284 12.8284C15.5786 12.0783 16 11.0609 16 10C16 8.93913 15.5786 7.92172 14.8284 7.17157C14.0783 6.42143 13.0609 6 12 6ZM12 12H10V8H12C12.5304 8 13.0391 8.21071 13.4142 8.58579C13.7893 8.96086 14 9.46957 14 10C14 10.5304 13.7893 11.0391 13.4142 11.4142C13.0391 11.7893 12.5304 12 12 12ZM19 2H5C4.20435 2 3.44129 2.31607 2.87868 2.87868C2.31607 3.44129 2 4.20435 2 5V19C2 19.7956 2.31607 20.5587 2.87868 21.1213C3.44129 21.6839 4.20435 22 5 22H19C19.7956 22 20.5587 21.6839 21.1213 21.1213C21.6839 20.5587 22 19.7956 22 19V5C22 4.20435 21.6839 3.44129 21.1213 2.87868C20.5587 2.31607 19.7956 2 19 2ZM20 19C20 19.2652 19.8946 19.5196 19.7071 19.7071C19.5196 19.8946 19.2652 20 19 20H5C4.73478 20 4.48043 19.8946 4.29289 19.7071C4.10536 19.5196 4 19.2652 4 19V5C4 4.73478 4.10536 4.48043 4.29289 4.29289C4.48043 4.10536 4.73478 4 5 4H19C19.2652 4 19.5196 4.10536 19.7071 4.29289C19.8946 4.48043 20 4.73478 20 5V19Z" />
</symbol><symbol viewBox="0 0 24 24" id="sign-andsymbol-registered symbol">
<path d="M12 2C10.0222 2 8.08879 2.58649 6.4443 3.6853C4.79981 4.78412 3.51809 6.3459 2.76121 8.17317C2.00433 10.0004 1.8063 12.0111 2.19215 13.9509C2.578 15.8907 3.53041 17.6725 4.92894 19.0711C6.32746 20.4696 8.10929 21.422 10.0491 21.8079C11.9889 22.1937 13.9996 21.9957 15.8268 21.2388C17.6541 20.4819 19.2159 19.2002 20.3147 17.5557C21.4135 15.9112 22 13.9778 22 12C22 10.6868 21.7413 9.38642 21.2388 8.17317C20.7363 6.95991 19.9997 5.85752 19.0711 4.92893C18.1425 4.00035 17.0401 3.26375 15.8268 2.7612C14.6136 2.25866 13.3132 2 12 2ZM12 20C10.4178 20 8.87104 19.5308 7.55544 18.6518C6.23985 17.7727 5.21447 16.5233 4.60897 15.0615C4.00347 13.5997 3.84504 11.9911 4.15372 10.4393C4.4624 8.88743 5.22433 7.46197 6.34315 6.34315C7.46197 5.22433 8.88743 4.4624 10.4393 4.15372C11.9911 3.84504 13.5997 4.00346 15.0615 4.60896C16.5233 5.21447 17.7727 6.23984 18.6518 7.55544C19.5308 8.87103 20 10.4177 20 12C20 14.1217 19.1572 16.1566 17.6569 17.6569C16.1566 19.1571 14.1217 20 12 20ZM12.5 7H9.5C9.23479 7 8.98043 7.10536 8.7929 7.29289C8.60536 7.48043 8.5 7.73478 8.5 8V16C8.5 16.2652 8.60536 16.5196 8.7929 16.7071C8.98043 16.8946 9.23479 17 9.5 17C9.76522 17 10.0196 16.8946 10.2071 16.7071C10.3946 16.5196 10.5 16.2652 10.5 16V14H12.5C12.7652 14 13.0196 14.1054 13.2071 14.2929C13.3946 14.4804 13.5 14.7348 13.5 15V16C13.5 16.2652 13.6054 16.5196 13.7929 16.7071C13.9804 16.8946 14.2348 17 14.5 17C14.7652 17 15.0196 16.8946 15.2071 16.7071C15.3946 16.5196 15.5 16.2652 15.5 16V15C15.4956 14.2599 15.2178 13.5476 14.72 13C15.2178 12.4524 15.4956 11.7401 15.5 11V10C15.5 9.20435 15.1839 8.44129 14.6213 7.87868C14.0587 7.31607 13.2957 7 12.5 7ZM13.5 11C13.5 11.2652 13.3946 11.5196 13.2071 11.7071C13.0196 11.8946 12.7652 12 12.5 12H10.5V9H12.5C12.7652 9 13.0196 9.10536 13.2071 9.29289C13.3946 9.48043 13.5 9.73478 13.5 10V11Z" />
</symbol><symbol viewBox="0 0 24 24" id="sign-andsymbol-service mark symbol">
<path d="M5.5 9H9.5C9.76522 9 10.0196 8.89464 10.2071 8.70711C10.3946 8.51957 10.5 8.26522 10.5 8C10.5 7.73478 10.3946 7.48043 10.2071 7.29289C10.0196 7.10536 9.76522 7 9.5 7H5.5C4.70435 7 3.94129 7.31607 3.37868 7.87868C2.81607 8.44129 2.5 9.20435 2.5 10C2.5 10.7956 2.81607 11.5587 3.37868 12.1213C3.94129 12.6839 4.70435 13 5.5 13H7.5C7.76522 13 8.01957 13.1054 8.20711 13.2929C8.39464 13.4804 8.5 13.7348 8.5 14C8.5 14.2652 8.39464 14.5196 8.20711 14.7071C8.01957 14.8946 7.76522 15 7.5 15H3.5C3.23478 15 2.98043 15.1054 2.79289 15.2929C2.60536 15.4804 2.5 15.7348 2.5 16C2.5 16.2652 2.60536 16.5196 2.79289 16.7071C2.98043 16.8946 3.23478 17 3.5 17H7.5C8.29565 17 9.05871 16.6839 9.62132 16.1213C10.1839 15.5587 10.5 14.7956 10.5 14C10.5 13.2044 10.1839 12.4413 9.62132 11.8787C9.05871 11.3161 8.29565 11 7.5 11H5.5C5.23478 11 4.98043 10.8946 4.79289 10.7071C4.60536 10.5196 4.5 10.2652 4.5 10C4.5 9.73478 4.60536 9.48043 4.79289 9.29289C4.98043 9.10536 5.23478 9 5.5 9ZM21.42 7.62C21.3185 7.37565 21.1243 7.18147 20.88 7.08C20.6365 6.97998 20.3635 6.97998 20.12 7.08C19.9972 7.12759 19.8851 7.19896 19.79 7.29L17 10.09L14.21 7.29C14.1149 7.19896 14.0028 7.12759 13.88 7.08C13.6365 6.97998 13.3635 6.97998 13.12 7.08C12.8757 7.18147 12.6815 7.37565 12.58 7.62C12.5288 7.74022 12.5016 7.86932 12.5 8V16C12.5 16.2652 12.6054 16.5196 12.7929 16.7071C12.9804 16.8946 13.2348 17 13.5 17C13.7652 17 14.0196 16.8946 14.2071 16.7071C14.3946 16.5196 14.5 16.2652 14.5 16V10.41L16.29 12.21C16.383 12.3037 16.4936 12.3781 16.6154 12.4289C16.7373 12.4797 16.868 12.5058 17 12.5058C17.132 12.5058 17.2627 12.4797 17.3846 12.4289C17.5064 12.3781 17.617 12.3037 17.71 12.21L19.5 10.41V16C19.5 16.2652 19.6054 16.5196 19.7929 16.7071C19.9804 16.8946 20.2348 17 20.5 17C20.7652 17 21.0196 16.8946 21.2071 16.7071C21.3946 16.5196 21.5 16.2652 21.5 16V8C21.4984 7.86932 21.4712 7.74022 21.42 7.62Z" />
</symbol><symbol viewBox="0 0 24 24" id="sign-andsymbol-trademark">
<path d="M10 9H7C6.73479 9 6.48043 9.10536 6.2929 9.29289C6.10536 9.48043 6 9.73478 6 10C6 10.2652 6.10536 10.5196 6.2929 10.7071C6.48043 10.8946 6.73479 11 7 11H7.5V14C7.5 14.2652 7.60536 14.5196 7.7929 14.7071C7.98043 14.8946 8.23479 15 8.5 15C8.76522 15 9.01957 14.8946 9.20711 14.7071C9.39465 14.5196 9.5 14.2652 9.5 14V11H10C10.2652 11 10.5196 10.8946 10.7071 10.7071C10.8946 10.5196 11 10.2652 11 10C11 9.73478 10.8946 9.48043 10.7071 9.29289C10.5196 9.10536 10.2652 9 10 9ZM17.38 9.08C17.1979 9.00342 16.9972 8.9825 16.8032 9.01987C16.6092 9.05725 16.4306 9.15124 16.29 9.29L15 10.59L13.71 9.29C13.5694 9.15124 13.3908 9.05725 13.1968 9.01987C13.0028 8.9825 12.8021 9.00342 12.62 9.08C12.4374 9.15502 12.2811 9.28242 12.1707 9.44614C12.0604 9.60986 12.001 9.80257 12 10V14C12 14.2652 12.1054 14.5196 12.2929 14.7071C12.4804 14.8946 12.7348 15 13 15C13.2652 15 13.5196 14.8946 13.7071 14.7071C13.8946 14.5196 14 14.2652 14 14V12.41L14.29 12.71C14.383 12.8037 14.4936 12.8781 14.6154 12.9289C14.7373 12.9797 14.868 13.0058 15 13.0058C15.132 13.0058 15.2627 12.9797 15.3846 12.9289C15.5064 12.8781 15.617 12.8037 15.71 12.71L16 12.41V14C16 14.2652 16.1054 14.5196 16.2929 14.7071C16.4804 14.8946 16.7348 15 17 15C17.2652 15 17.5196 14.8946 17.7071 14.7071C17.8946 14.5196 18 14.2652 18 14V10C17.999 9.80257 17.9396 9.60986 17.8293 9.44614C17.719 9.28242 17.5626 9.15502 17.38 9.08ZM12 2C10.0222 2 8.08879 2.58649 6.4443 3.6853C4.79981 4.78412 3.51809 6.3459 2.76121 8.17317C2.00433 10.0004 1.8063 12.0111 2.19215 13.9509C2.578 15.8907 3.53041 17.6725 4.92894 19.0711C6.32746 20.4696 8.10929 21.422 10.0491 21.8079C11.9889 22.1937 13.9996 21.9957 15.8268 21.2388C17.6541 20.4819 19.2159 19.2002 20.3147 17.5557C21.4135 15.9112 22 13.9778 22 12C22 10.6868 21.7413 9.38642 21.2388 8.17317C20.7363 6.95991 19.9997 5.85752 19.0711 4.92893C18.1425 4.00035 17.0401 3.26375 15.8268 2.7612C14.6136 2.25866 13.3132 2 12 2ZM12 20C10.4178 20 8.87104 19.5308 7.55544 18.6518C6.23985 17.7727 5.21447 16.5233 4.60897 15.0615C4.00347 13.5997 3.84504 11.9911 4.15372 10.4393C4.4624 8.88743 5.22433 7.46197 6.34315 6.34315C7.46197 5.22433 8.88743 4.4624 10.4393 4.15372C11.9911 3.84504 13.5997 4.00346 15.0615 4.60896C16.5233 5.21447 17.7727 6.23984 18.6518 7.55544C19.5308 8.87103 20 10.4177 20 12C20 14.1217 19.1572 16.1566 17.6569 17.6569C16.1566 19.1571 14.1217 20 12 20Z" />
</symbol><symbol viewBox="0 0 24 24" id="sign-andsymbol-trademark sign">
<path d="M9.5 7H3.5C3.23478 7 2.98043 7.10536 2.79289 7.29289C2.60536 7.48043 2.5 7.73478 2.5 8C2.5 8.26522 2.60536 8.51957 2.79289 8.70711C2.98043 8.89464 3.23478 9 3.5 9H5.5V16C5.5 16.2652 5.60536 16.5196 5.79289 16.7071C5.98043 16.8946 6.23478 17 6.5 17C6.76522 17 7.01957 16.8946 7.20711 16.7071C7.39464 16.5196 7.5 16.2652 7.5 16V9H9.5C9.76522 9 10.0196 8.89464 10.2071 8.70711C10.3946 8.51957 10.5 8.26522 10.5 8C10.5 7.73478 10.3946 7.48043 10.2071 7.29289C10.0196 7.10536 9.76522 7 9.5 7ZM21.42 7.62C21.3185 7.37565 21.1243 7.18147 20.88 7.08C20.6365 6.97998 20.3635 6.97998 20.12 7.08C19.9972 7.12759 19.8851 7.19896 19.79 7.29L17 10.09L14.21 7.29C14.1149 7.19896 14.0028 7.12759 13.88 7.08C13.6365 6.97998 13.3635 6.97998 13.12 7.08C12.8757 7.18147 12.6815 7.37565 12.58 7.62C12.5288 7.74022 12.5016 7.86932 12.5 8V16C12.5 16.2652 12.6054 16.5196 12.7929 16.7071C12.9804 16.8946 13.2348 17 13.5 17C13.7652 17 14.0196 16.8946 14.2071 16.7071C14.3946 16.5196 14.5 16.2652 14.5 16V10.41L16.29 12.21C16.383 12.3037 16.4936 12.3781 16.6154 12.4289C16.7373 12.4797 16.868 12.5058 17 12.5058C17.132 12.5058 17.2627 12.4797 17.3846 12.4289C17.5064 12.3781 17.617 12.3037 17.71 12.21L19.5 10.41V16C19.5 16.2652 19.6054 16.5196 19.7929 16.7071C19.9804 16.8946 20.2348 17 20.5 17C20.7652 17 21.0196 16.8946 21.2071 16.7071C21.3946 16.5196 21.5 16.2652 21.5 16V8C21.4984 7.86932 21.4712 7.74022 21.42 7.62Z" />
</symbol></defs></svg>