<svg xmlns="http://www.w3.org/2000/svg" xmlns:xlink="http://www.w3.org/1999/xlink"><defs><symbol viewBox="0 0 24 24" id="cloud-approved-cloud">
<path d="M14.2902 14.19L11.0002 17.48L9.71019 16.19C9.61722 16.0963 9.50662 16.0219 9.38476 15.9711C9.2629 15.9203 9.1322 15.8942 9.00019 15.8942C8.86817 15.8942 8.73747 15.9203 8.61561 15.9711C8.49375 16.0219 8.38315 16.0963 8.29019 16.19C8.10393 16.3774 7.99939 16.6308 7.99939 16.895C7.99939 17.1592 8.10393 17.4126 8.29019 17.6L10.2902 19.6C10.3831 19.6937 10.4937 19.7681 10.6156 19.8189C10.7375 19.8697 10.8682 19.8958 11.0002 19.8958C11.1322 19.8958 11.2629 19.8697 11.3848 19.8189C11.5066 19.7681 11.6172 19.6937 11.7102 19.6L15.7102 15.6C15.8964 15.4126 16.001 15.1592 16.001 14.895C16.001 14.6308 15.8964 14.3774 15.7102 14.19C15.6172 14.0963 15.5066 14.0219 15.3848 13.9711C15.2629 13.9203 15.1322 13.8942 15.0002 13.8942C14.8682 13.8942 14.7375 13.9203 14.6156 13.9711C14.4937 14.0219 14.3831 14.0963 14.2902 14.19ZM18.4202 8.32C17.8085 6.91581 16.7531 5.751 15.4159 5.00416C14.0787 4.25732 12.5334 3.96967 11.0171 4.18533C9.50069 4.40098 8.09689 5.10803 7.0209 6.19806C5.94492 7.2881 5.25615 8.70095 5.06019 10.22C4.22618 10.4269 3.48098 10.8969 2.93493 11.5604C2.38887 12.2239 2.071 13.0456 2.02837 13.9038C1.98573 14.7621 2.22061 15.6112 2.69823 16.3256C3.17584 17.0399 3.87079 17.5814 4.68019 17.87C4.80792 17.937 4.94864 17.9756 5.09269 17.9831C5.23675 17.9907 5.38072 17.9669 5.51474 17.9136C5.64876 17.8602 5.76964 17.7785 5.86911 17.674C5.96857 17.5696 6.04425 17.4448 6.09096 17.3083C6.13767 17.1718 6.1543 17.0269 6.13971 16.8834C6.12512 16.7399 6.07965 16.6012 6.00643 16.4769C5.93321 16.3526 5.83397 16.2457 5.71552 16.1633C5.59706 16.081 5.4622 16.0253 5.32019 16C4.93042 15.8591 4.59405 15.6006 4.35758 15.2602C4.12111 14.9199 3.99622 14.5144 4.00019 14.1C4.00019 13.5696 4.2109 13.0609 4.58597 12.6858C4.96105 12.3107 5.46975 12.1 6.00019 12.1C6.2654 12.1 6.51976 11.9946 6.70729 11.8071C6.89483 11.6196 7.00019 11.3652 7.00019 11.1C7.00508 9.91813 7.42848 8.7762 8.19526 7.87682C8.96204 6.97743 10.0226 6.37874 11.1888 6.18697C12.3551 5.9952 13.5515 6.22274 14.5659 6.82923C15.5803 7.43572 16.3471 8.38193 16.7302 9.5C16.7888 9.66998 16.8923 9.82099 17.0295 9.93714C17.1668 10.0533 17.3328 10.1303 17.5102 10.16C18.1763 10.2859 18.7801 10.6336 19.2232 11.1465C19.6664 11.6595 19.9228 12.3074 19.9506 12.9846C19.9784 13.6619 19.7761 14.3287 19.3765 14.8762C18.9769 15.4238 18.4037 15.8199 17.7502 16C17.485 16.0332 17.2438 16.1703 17.0797 16.3813C16.9156 16.5923 16.842 16.8598 16.8752 17.125C16.9083 17.3902 17.0455 17.6314 17.2565 17.7955C17.4674 17.9596 17.735 18.0332 18.0002 18H18.2502C19.3026 17.7219 20.2355 17.108 20.9072 16.2515C21.5789 15.3949 21.9528 14.3426 21.972 13.2543C21.9913 12.1659 21.6548 11.101 21.0138 10.2213C20.3727 9.3416 19.4621 8.6951 18.4202 8.38V8.32Z" />
</symbol><symbol viewBox="0 0 24 24" id="cloud-block-cloud">
<path d="M18.4203 7.72C17.8092 6.31601 16.7547 5.15108 15.4183 4.40373C14.0819 3.65638 12.5373 3.36783 11.0212 3.58231C9.50513 3.79679 8.10118 4.50245 7.02451 5.59118C5.94784 6.6799 5.25784 8.09162 5.06025 9.61C4.22247 9.81405 3.47306 10.2834 2.9237 10.948C2.37435 11.6126 2.05447 12.437 2.01175 13.2982C1.96903 14.1594 2.20574 15.0114 2.68662 15.7271C3.16749 16.4428 3.86678 16.984 4.68025 17.27C4.78397 17.3019 4.89174 17.3188 5.00025 17.32C5.26547 17.3624 5.53668 17.2978 5.75422 17.1402C5.97177 16.9827 6.11782 16.7452 6.16025 16.48C6.20269 16.2148 6.13803 15.9436 5.9805 15.726C5.82297 15.5085 5.58547 15.3624 5.32026 15.32C4.94317 15.1839 4.61569 14.9376 4.38031 14.613C4.14493 14.2885 4.01252 13.9007 4.00025 13.5C4.00025 12.9696 4.21097 12.4609 4.58604 12.0858C4.96111 11.7107 5.46982 11.5 6.00025 11.5C6.26547 11.5 6.51983 11.3946 6.70736 11.2071C6.8949 11.0196 7.00026 10.7652 7.00026 10.5C7.00281 9.31728 7.42454 8.17375 8.19052 7.27259C8.95651 6.37142 10.0171 5.77095 11.184 5.57788C12.3509 5.3848 13.5484 5.61161 14.5638 6.21801C15.5793 6.82441 16.3469 7.77114 16.7303 8.89C16.7874 9.06184 16.8902 9.21493 17.0275 9.33293C17.1649 9.45094 17.3318 9.52942 17.5103 9.56C18.1116 9.66884 18.6654 9.95873 19.0974 10.3909C19.5295 10.823 19.8193 11.3768 19.9281 11.9782C20.0368 12.5796 19.9593 13.1998 19.7059 13.7559C19.4526 14.312 19.0354 14.7775 18.5103 15.09C18.2795 15.2226 18.1109 15.4414 18.0415 15.6984C17.9721 15.9553 18.0076 16.2293 18.1403 16.46C18.2729 16.6907 18.4917 16.8593 18.7486 16.9287C19.0056 16.9981 19.2795 16.9626 19.5103 16.83C20.2685 16.3899 20.8976 15.7582 21.3347 14.9982C21.7717 14.2382 22.0012 13.3767 22.0003 12.5C21.9972 11.4241 21.6472 10.3779 21.0023 9.51681C20.3573 8.65568 19.4518 8.02555 18.4203 7.72ZM9.17026 13.72C8.61129 14.2796 8.23077 14.9923 8.07679 15.7681C7.92281 16.5439 8.00228 17.348 8.30516 18.0786C8.60804 18.8093 9.12074 19.4337 9.77844 19.873C10.4361 20.3124 11.2093 20.5469 12.0003 20.5469C12.7912 20.5469 13.5644 20.3124 14.2221 19.873C14.8798 19.4337 15.3925 18.8093 15.6953 18.0786C15.9982 17.348 16.0777 16.5439 15.9237 15.7681C15.7697 14.9923 15.3892 14.2796 14.8303 13.72C14.0741 12.9858 13.0642 12.5709 12.0103 12.5616C10.9563 12.5523 9.93927 12.9492 9.17026 13.67V13.72ZM10.0003 16.5C10.0003 15.9696 10.211 15.4609 10.586 15.0858C10.9611 14.7107 11.4698 14.5 12.0003 14.5C12.1725 14.5022 12.3438 14.5257 12.5103 14.57L10.0703 17C10.0268 16.8368 10.0033 16.6689 10.0003 16.5ZM13.4103 17.91C13.1624 18.1515 12.856 18.3245 12.5213 18.4121C12.1865 18.4998 11.8347 18.499 11.5003 18.41L13.9303 16C13.9745 16.1665 13.998 16.3378 14.0003 16.51C13.9954 17.0361 13.7834 17.5391 13.4103 17.91Z" />
</symbol><symbol viewBox="0 0 24 24" id="cloud-bookmark-cloud">
<path d="M14.9996 11H9.99965C9.73443 11 9.48008 11.1054 9.29254 11.2929C9.105 11.4804 8.99965 11.7348 8.99965 12V20C8.99937 20.1817 9.04859 20.36 9.14202 20.5158C9.23545 20.6716 9.36956 20.799 9.52994 20.8843C9.69032 20.9697 9.87092 21.0097 10.0523 21.0001C10.2338 20.9905 10.4091 20.9317 10.5596 20.83L12.4996 19.53L14.3896 20.79C14.5642 20.9255 14.7787 20.9993 14.9996 21C15.152 21.0006 15.3025 20.9664 15.4396 20.9C15.6079 20.8175 15.7497 20.6894 15.8487 20.5303C15.9477 20.3712 16 20.1874 15.9996 20V12C15.9996 11.7348 15.8943 11.4804 15.7068 11.2929C15.5192 11.1054 15.2649 11 14.9996 11ZM13.9996 18.12L13.0596 17.49C12.8943 17.3782 12.6992 17.3185 12.4996 17.3185C12.3 17.3185 12.105 17.3782 11.9396 17.49L10.9996 18.13V13H13.9996V18.12ZM18.4196 7.22C17.8086 5.81601 16.7541 4.65108 15.4177 3.90373C14.0813 3.15638 12.5367 2.86783 11.0206 3.08231C9.50452 3.29679 8.10057 4.00245 7.0239 5.09118C5.94723 6.1799 5.25723 7.59162 5.05965 9.11C4.10623 9.33832 3.26987 9.90883 2.70938 10.7132C2.1489 11.5175 1.90333 12.4997 2.01931 13.4732C2.13529 14.4467 2.60474 15.3437 3.33851 15.9939C4.07229 16.644 5.01928 17.0021 5.99965 17C6.26486 17 6.51922 16.8946 6.70675 16.7071C6.89429 16.5196 6.99965 16.2652 6.99965 16C6.99965 15.7348 6.89429 15.4804 6.70675 15.2929C6.51922 15.1054 6.26486 15 5.99965 15C5.46921 15 4.96051 14.7893 4.58543 14.4142C4.21036 14.0391 3.99965 13.5304 3.99965 13C3.99965 12.4696 4.21036 11.9609 4.58543 11.5858C4.96051 11.2107 5.46921 11 5.99965 11C6.26486 11 6.51922 10.8946 6.70675 10.7071C6.89429 10.5196 6.99965 10.2652 6.99965 10C7.0022 8.81728 7.42393 7.67375 8.18992 6.77259C8.9559 5.87142 10.0165 5.27095 11.1834 5.07788C12.3503 4.8848 13.5478 5.11161 14.5632 5.71801C15.5787 6.32441 16.3463 7.27114 16.7296 8.39C16.7868 8.56184 16.8896 8.71493 17.0269 8.83293C17.1643 8.95094 17.3312 9.02942 17.5096 9.06C18.111 9.16884 18.6647 9.45873 19.0968 9.89089C19.5289 10.323 19.8187 10.8768 19.9275 11.4782C20.0362 12.0796 19.9587 12.6998 19.7053 13.2559C19.452 13.812 19.0348 14.2775 18.5096 14.59C18.2789 14.7226 18.1103 14.9414 18.0409 15.1984C17.9715 15.4553 18.007 15.7293 18.1396 15.96C18.2723 16.1907 18.4911 16.3593 18.748 16.4287C19.0049 16.4981 19.2789 16.4626 19.5096 16.33C20.2679 15.8899 20.897 15.2582 21.3341 14.4982C21.7711 13.7382 22.0006 12.8767 21.9996 12C21.9966 10.9241 21.6466 9.87794 21.0017 9.01681C20.3567 8.15568 19.4512 7.52555 18.4196 7.22Z" />
</symbol><symbol viewBox="0 0 24 24" id="cloud-bug">
<path d="M19 14H21C21.2652 14 21.5196 13.8946 21.7071 13.7071C21.8946 13.5196 22 13.2652 22 13C22 12.7348 21.8946 12.4804 21.7071 12.2929C21.5196 12.1054 21.2652 12 21 12H19V11C18.9912 10.5393 18.9205 10.0819 18.79 9.64C19.73 9.27962 20.5393 8.64391 21.112 7.81603C21.6847 6.98815 21.9942 6.00667 22 5C22 4.73478 21.8946 4.48043 21.7071 4.29289C21.5196 4.10536 21.2652 4 21 4C20.7348 4 20.4804 4.10536 20.2929 4.29289C20.1054 4.48043 20 4.73478 20 5C19.9991 5.64484 19.7905 6.27224 19.405 6.7892C19.0196 7.30615 18.4778 7.68514 17.86 7.87C17.3668 7.23797 16.7289 6.7338 16 6.4C16.0104 6.26687 16.0104 6.13313 16 6C16 4.93913 15.5786 3.92172 14.8284 3.17157C14.0783 2.42143 13.0609 2 12 2C10.9391 2 9.92172 2.42143 9.17157 3.17157C8.42143 3.92172 8 4.93913 8 6C7.98965 6.13313 7.98965 6.26687 8 6.4C7.25662 6.72831 6.60446 7.23288 6.1 7.87C5.48968 7.67807 4.9567 7.29604 4.5789 6.77971C4.2011 6.26338 3.99826 5.63979 4 5C4 4.73478 3.89464 4.48043 3.70711 4.29289C3.51957 4.10536 3.26522 4 3 4C2.73478 4 2.48043 4.10536 2.29289 4.29289C2.10536 4.48043 2 4.73478 2 5C2.00577 6.00667 2.31526 6.98815 2.888 7.81603C3.46074 8.64391 4.27003 9.27962 5.21 9.64C5.07948 10.0819 5.00885 10.5393 5 11V12H3C2.73478 12 2.48043 12.1054 2.29289 12.2929C2.10536 12.4804 2 12.7348 2 13C2 13.2652 2.10536 13.5196 2.29289 13.7071C2.48043 13.8946 2.73478 14 3 14H5V15C5.00086 15.4635 5.04776 15.9258 5.14 16.38C4.21628 16.7502 3.42404 17.3876 2.86466 18.2106C2.30528 19.0336 2.00422 20.0049 2 21C2 21.2652 2.10536 21.5196 2.29289 21.7071C2.48043 21.8946 2.73478 22 3 22C3.26522 22 3.51957 21.8946 3.70711 21.7071C3.89464 21.5196 4 21.2652 4 21C4.0027 20.4168 4.17535 19.847 4.49681 19.3604C4.81828 18.8737 5.27462 18.4913 5.81 18.26C6.40471 19.3862 7.29541 20.3289 8.38616 20.9864C9.47692 21.6439 10.7264 21.9914 12 21.9914C13.2736 21.9914 14.5231 21.6439 15.6138 20.9864C16.7046 20.3289 17.5953 19.3862 18.19 18.26C18.7254 18.4913 19.1817 18.8737 19.5032 19.3604C19.8247 19.847 19.9973 20.4168 20 21C20 21.2652 20.1054 21.5196 20.2929 21.7071C20.4804 21.8946 20.7348 22 21 22C21.2652 22 21.5196 21.8946 21.7071 21.7071C21.8946 21.5196 22 21.2652 22 21C21.9958 20.0049 21.6947 19.0336 21.1353 18.2106C20.576 17.3876 19.7837 16.7502 18.86 16.38C18.9522 15.9258 18.9991 15.4635 19 15V14ZM11 19.9C9.87064 19.6695 8.8556 19.0558 8.12669 18.1629C7.39778 17.27 6.99976 16.1527 7 15V11C7 10.2044 7.31607 9.44129 7.87868 8.87868C8.44129 8.31607 9.20435 8 10 8H11V19.9ZM10 6C10 5.46957 10.2107 4.96086 10.5858 4.58579C10.9609 4.21071 11.4696 4 12 4C12.5304 4 13.0391 4.21071 13.4142 4.58579C13.7893 4.96086 14 5.46957 14 6H10ZM17 15C17.0002 16.1527 16.6022 17.27 15.8733 18.1629C15.1444 19.0558 14.1294 19.6695 13 19.9V8H14C14.7956 8 15.5587 8.31607 16.1213 8.87868C16.6839 9.44129 17 10.2044 17 11V15Z" />
</symbol><symbol viewBox="0 0 24 24" id="cloud-cancel-cloud">
<path d="M18.4196 8.22C17.8086 6.81601 16.7541 5.65108 15.4177 4.90373C14.0813 4.15638 12.5367 3.86783 11.0206 4.08231C9.50452 4.29679 8.10057 5.00245 7.0239 6.09118C5.94723 7.1799 5.25723 8.59162 5.05965 10.11C4.10623 10.3383 3.26987 10.9088 2.70938 11.7132C2.1489 12.5175 1.90333 13.4997 2.01931 14.4732C2.13529 15.4467 2.60474 16.3437 3.33851 16.9939C4.07229 17.644 5.01928 18.0021 5.99965 18C6.26486 18 6.51922 17.8946 6.70675 17.7071C6.89429 17.5196 6.99965 17.2652 6.99965 17C6.99965 16.7348 6.89429 16.4804 6.70675 16.2929C6.51922 16.1054 6.26486 16 5.99965 16C5.46921 16 4.96051 15.7893 4.58543 15.4142C4.21036 15.0391 3.99965 14.5304 3.99965 14C3.99965 13.4696 4.21036 12.9609 4.58543 12.5858C4.96051 12.2107 5.46921 12 5.99965 12C6.26486 12 6.51922 11.8946 6.70675 11.7071C6.89429 11.5196 6.99965 11.2652 6.99965 11C7.0022 9.81728 7.42393 8.67376 8.18992 7.77259C8.9559 6.87142 10.0165 6.27095 11.1834 6.07788C12.3503 5.8848 13.5478 6.11161 14.5632 6.71801C15.5787 7.32441 16.3463 8.27114 16.7296 9.39C16.7868 9.56184 16.8896 9.71493 17.0269 9.83294C17.1643 9.95094 17.3312 10.0294 17.5096 10.06C18.1757 10.1859 18.7795 10.5336 19.2227 11.0465C19.6658 11.5595 19.9222 12.2074 19.95 12.8846C19.9779 13.5619 19.7755 14.2287 19.3759 14.7762C18.9764 15.3238 18.4031 15.7199 17.7496 15.9C17.4924 15.9663 17.272 16.1321 17.137 16.3609C17.0019 16.5897 16.9633 16.8627 17.0296 17.12C17.096 17.3773 17.2617 17.5976 17.4905 17.7327C17.7193 17.8677 17.9924 17.9063 18.2496 17.84C19.302 17.5619 20.2349 16.948 20.9067 16.0915C21.5784 15.2349 21.9522 14.1826 21.9715 13.0943C21.9907 12.0059 21.6543 10.941 21.0132 10.0613C20.3722 9.1816 19.4616 8.5351 18.4196 8.22ZM14.7096 14.29C14.6167 14.1963 14.5061 14.1219 14.3842 14.0711C14.2624 14.0203 14.1317 13.9942 13.9996 13.9942C13.8676 13.9942 13.7369 14.0203 13.6151 14.0711C13.4932 14.1219 13.3826 14.1963 13.2896 14.29L11.9996 15.59L10.7096 14.29C10.5213 14.1017 10.2659 13.9959 9.99965 13.9959C9.73334 13.9959 9.47795 14.1017 9.28965 14.29C9.10134 14.4783 8.99555 14.7337 8.99555 15C8.99555 15.2663 9.10134 15.5217 9.28965 15.71L10.5896 17L9.28965 18.29C9.19592 18.383 9.12152 18.4936 9.07076 18.6154C9.01999 18.7373 8.99385 18.868 8.99385 19C8.99385 19.132 9.01999 19.2627 9.07076 19.3846C9.12152 19.5064 9.19592 19.617 9.28965 19.71C9.38261 19.8037 9.49321 19.8781 9.61507 19.9289C9.73693 19.9797 9.86763 20.0058 9.99965 20.0058C10.1317 20.0058 10.2624 19.9797 10.3842 19.9289C10.5061 19.8781 10.6167 19.8037 10.7096 19.71L11.9996 18.41L13.2896 19.71C13.3826 19.8037 13.4932 19.8781 13.6151 19.9289C13.7369 19.9797 13.8676 20.0058 13.9996 20.0058C14.1317 20.0058 14.2624 19.9797 14.3842 19.9289C14.5061 19.8781 14.6167 19.8037 14.7096 19.71C14.8034 19.617 14.8778 19.5064 14.9285 19.3846C14.9793 19.2627 15.0054 19.132 15.0054 19C15.0054 18.868 14.9793 18.7373 14.9285 18.6154C14.8778 18.4936 14.8034 18.383 14.7096 18.29L13.4096 17L14.7096 15.71C14.8034 15.617 14.8778 15.5064 14.9285 15.3846C14.9793 15.2627 15.0054 15.132 15.0054 15C15.0054 14.868 14.9793 14.7373 14.9285 14.6154C14.8778 14.4936 14.8034 14.383 14.7096 14.29Z" />
</symbol><symbol viewBox="0 0 24 24" id="cloud-cloud-connection">
<path d="M20.9996 20H17.9996C17.7344 20 17.4801 19.8946 17.2925 19.7071C17.105 19.5196 16.9996 19.2652 16.9996 19V16C18.1933 15.989 19.3436 15.5513 20.2426 14.7661C21.1416 13.9809 21.7301 12.8999 21.9016 11.7187C22.0731 10.5374 21.8164 9.3337 21.1778 8.32523C20.5392 7.31675 19.5608 6.57002 18.4196 6.22C17.8086 4.81601 16.7541 3.65108 15.4177 2.90373C14.0813 2.15638 12.5367 1.86783 11.0206 2.08231C9.50452 2.29679 8.10057 3.00245 7.0239 4.09118C5.94723 5.1799 5.25723 6.59162 5.05965 8.11C4.10623 8.33832 3.26987 8.90883 2.70938 9.71319C2.1489 10.5175 1.90333 11.4997 2.01931 12.4732C2.13529 13.4467 2.60474 14.3437 3.33851 14.9939C4.07229 15.644 5.01928 16.0021 5.99965 16H6.99965V19C6.99965 19.2652 6.89429 19.5196 6.70675 19.7071C6.51922 19.8946 6.26486 20 5.99965 20H2.99965C2.73443 20 2.48008 20.1054 2.29254 20.2929C2.105 20.4804 1.99965 20.7348 1.99965 21C1.99965 21.2652 2.105 21.5196 2.29254 21.7071C2.48008 21.8946 2.73443 22 2.99965 22H5.99965C6.7953 22 7.55836 21.6839 8.12097 21.1213C8.68358 20.5587 8.99965 19.7957 8.99965 19V16H10.9996V21C10.9996 21.2652 11.105 21.5196 11.2925 21.7071C11.4801 21.8946 11.7344 22 11.9996 22C12.2649 22 12.5192 21.8946 12.7068 21.7071C12.8943 21.5196 12.9996 21.2652 12.9996 21V16H14.9996V19C14.9996 19.7957 15.3157 20.5587 15.8783 21.1213C16.4409 21.6839 17.204 22 17.9996 22H20.9996C21.2649 22 21.5192 21.8946 21.7068 21.7071C21.8943 21.5196 21.9996 21.2652 21.9996 21C21.9996 20.7348 21.8943 20.4804 21.7068 20.2929C21.5192 20.1054 21.2649 20 20.9996 20ZM5.99965 14C5.46921 14 4.96051 13.7893 4.58543 13.4142C4.21036 13.0391 3.99965 12.5304 3.99965 12C3.99965 11.4696 4.21036 10.9609 4.58543 10.5858C4.96051 10.2107 5.46921 10 5.99965 10C6.26486 10 6.51922 9.89464 6.70675 9.70711C6.89429 9.51957 6.99965 9.26522 6.99965 9C7.0022 7.81728 7.42393 6.67375 8.18992 5.77259C8.9559 4.87142 10.0165 4.27095 11.1834 4.07788C12.3503 3.8848 13.5478 4.11161 14.5632 4.71801C15.5787 5.32441 16.3463 6.27114 16.7296 7.39C16.7868 7.56184 16.8896 7.71493 17.0269 7.83293C17.1643 7.95094 17.3312 8.02942 17.5096 8.06C18.2038 8.17974 18.8337 8.53993 19.289 9.07747C19.7442 9.615 19.9958 10.2956 19.9996 11C19.9996 11.7957 19.6836 12.5587 19.121 13.1213C18.5584 13.6839 17.7953 14 16.9996 14H5.99965Z" />
</symbol><symbol viewBox="0 0 24 24" id="cloud-cloud-connection-1">
<path d="M22.5001 14.5C22.5001 13.9696 22.2894 13.4609 21.9143 13.0858C21.5393 12.7107 21.0306 12.5 20.5001 12.5H14.5001C13.9697 12.5 13.461 12.7107 13.0859 13.0858C12.7108 13.4609 12.5001 13.9696 12.5001 14.5H9.50012V11.5H11.8301C12.6991 11.5014 13.5403 11.1936 14.2031 10.6317C14.8659 10.0697 15.3072 9.2902 15.4479 8.43267C15.5886 7.57513 15.4196 6.69551 14.9712 5.95117C14.5227 5.20683 13.824 4.64635 13.0001 4.37C12.5428 3.41644 11.795 2.63242 10.8641 2.13065C9.93316 1.62888 8.86712 1.4352 7.81919 1.57744C6.77127 1.71968 5.79543 2.19052 5.03195 2.92229C4.26847 3.65405 3.75667 4.60905 3.57012 5.65C2.8929 5.87258 2.31708 6.32904 1.94582 6.93759C1.57456 7.54614 1.43213 8.267 1.54405 8.97102C1.65597 9.67503 2.01492 10.3162 2.5566 10.7796C3.09827 11.243 3.78726 11.4984 4.50012 11.5H7.50012V19.5C7.50012 19.7652 7.60547 20.0196 7.79301 20.2071C7.98055 20.3946 8.2349 20.5 8.50012 20.5H12.5001C12.5001 21.0304 12.7108 21.5391 13.0859 21.9142C13.461 22.2893 13.9697 22.5 14.5001 22.5H20.5001C21.0306 22.5 21.5393 22.2893 21.9143 21.9142C22.2894 21.5391 22.5001 21.0304 22.5001 20.5V18.5C22.4965 18.1478 22.3999 17.8029 22.2201 17.5C22.3999 17.1971 22.4965 16.8522 22.5001 16.5V14.5ZM4.50012 9.5C4.2349 9.5 3.98055 9.39464 3.79301 9.20711C3.60547 9.01957 3.50012 8.76522 3.50012 8.5C3.50012 8.23478 3.60547 7.98043 3.79301 7.79289C3.98055 7.60536 4.2349 7.5 4.50012 7.5C4.76533 7.5 5.01969 7.39464 5.20722 7.20711C5.39476 7.01957 5.50012 6.76522 5.50012 6.5C5.49205 5.78636 5.73866 5.09321 6.19567 4.54504C6.65268 3.99686 7.29014 3.62957 7.99359 3.50912C8.69705 3.38866 9.4204 3.52294 10.0338 3.88783C10.6471 4.25272 11.1103 4.82433 11.3401 5.5C11.3988 5.66998 11.5022 5.82099 11.6395 5.93714C11.7767 6.05329 11.9428 6.13028 12.1201 6.16C12.5129 6.22502 12.869 6.42988 13.1226 6.7368C13.3762 7.04371 13.5103 7.43198 13.5001 7.83C13.5001 8.27291 13.3242 8.69768 13.011 9.01087C12.6978 9.32405 12.273 9.5 11.8301 9.5H4.50012ZM12.5001 18.5H9.50012V16.5H12.5001C12.5038 16.8522 12.6004 17.1971 12.7801 17.5C12.6004 17.8029 12.5038 18.1478 12.5001 18.5ZM14.5001 20.5V18.5H20.5001V20.5H14.5001ZM14.5001 16.5V14.5H20.5001V16.5H14.5001Z" />
</symbol><symbol viewBox="0 0 24 24" id="cloud-cloud-connection-2">
<path d="M20.5201 3.87C20.1077 3.00824 19.4569 2.28269 18.645 1.77922C17.833 1.27576 16.8938 1.01546 15.9385 1.02914C14.9832 1.04282 14.0519 1.32989 13.2546 1.8564C12.4574 2.3829 11.8277 3.12678 11.4401 4H7.00012C6.20447 4 5.4414 4.31607 4.8788 4.87868C4.31619 5.44129 4.00012 6.20435 4.00012 7V11C4.00012 11.2652 4.10547 11.5196 4.29301 11.7071C4.48055 11.8946 4.7349 12 5.00012 12C5.26533 12 5.51969 11.8946 5.70722 11.7071C5.89476 11.5196 6.00012 11.2652 6.00012 11V7C6.00012 6.73478 6.10547 6.48043 6.29301 6.29289C6.48055 6.10536 6.7349 6 7.00012 6H9.78012C9.28233 6.54764 9.00453 7.25994 9.00012 8C9.00012 8.79565 9.31619 9.55871 9.87879 10.1213C10.4414 10.6839 11.2045 11 12.0001 11H19.3301C20.2009 11.0063 21.0453 10.7019 21.7118 10.1415C22.3783 9.58115 22.8232 8.8015 22.9665 7.94261C23.1099 7.08372 22.9423 6.20187 22.4939 5.45542C22.0455 4.70897 21.3457 4.14684 20.5201 3.87ZM19.3301 9H12.0001C11.7349 9 11.4805 8.89464 11.293 8.7071C11.1055 8.51957 11.0001 8.26521 11.0001 8C11.0001 7.73478 11.1055 7.48043 11.293 7.29289C11.4805 7.10536 11.7349 7 12.0001 7C12.2653 7 12.5197 6.89464 12.7072 6.7071C12.8948 6.51957 13.0001 6.26521 13.0001 6C12.992 5.28635 13.2387 4.59321 13.6957 4.04504C14.1527 3.49686 14.7901 3.12957 15.4936 3.00911C16.197 2.88866 16.9204 3.02294 17.5338 3.38783C18.1471 3.75272 18.6103 4.32433 18.8401 5C18.8973 5.17184 19 5.32493 19.1374 5.44293C19.2748 5.56093 19.4416 5.63941 19.6201 5.67C20.0112 5.73479 20.3658 5.93819 20.6192 6.24301C20.8727 6.54783 21.0078 6.93368 21.0001 7.33C21.0001 7.54931 20.9569 7.76647 20.873 7.96908C20.7891 8.17169 20.6661 8.35579 20.511 8.51087C20.3559 8.66594 20.1718 8.78895 19.9692 8.87288C19.7666 8.9568 19.5494 9 19.3301 9ZM19.0001 13C18.7349 13 18.4805 13.1054 18.293 13.2929C18.1055 13.4804 18.0001 13.7348 18.0001 14V17C18.0001 17.2652 17.8948 17.5196 17.7072 17.7071C17.5197 17.8946 17.2653 18 17.0001 18H14.7401C14.5468 17.5051 14.2482 17.0582 13.8648 16.6904C13.4814 16.3226 13.0226 16.0426 12.5201 15.87C12.067 14.9083 11.3191 14.1161 10.385 13.6084C9.45102 13.1006 8.37948 12.9038 7.32599 13.0465C6.27251 13.1892 5.29193 13.664 4.52662 14.4019C3.76131 15.1398 3.25112 16.1024 3.07012 17.15C2.3929 17.3726 1.81708 17.829 1.44582 18.4376C1.07456 19.0461 0.932128 19.767 1.04405 20.471C1.15597 21.175 1.51492 21.8162 2.0566 22.2796C2.59827 22.743 3.28726 22.9984 4.00012 23H11.3301C12.1863 23 13.0154 22.6998 13.6732 22.1517C14.3309 21.6036 14.7757 20.8422 14.9301 20H17.0001C17.7958 20 18.5588 19.6839 19.1214 19.1213C19.684 18.5587 20.0001 17.7956 20.0001 17V14C20.0001 13.7348 19.8948 13.4804 19.7072 13.2929C19.5197 13.1054 19.2653 13 19.0001 13ZM11.3301 21H4.00012C3.7349 21 3.48055 20.8946 3.29301 20.7071C3.10547 20.5196 3.00012 20.2652 3.00012 20C3.00012 19.7348 3.10547 19.4804 3.29301 19.2929C3.48055 19.1054 3.7349 19 4.00012 19C4.26533 19 4.51969 18.8946 4.70722 18.7071C4.89476 18.5196 5.00012 18.2652 5.00012 18C4.99205 17.2864 5.23866 16.5932 5.69567 16.045C6.15268 15.4969 6.79014 15.1296 7.49359 15.0091C8.19705 14.8887 8.9204 15.0229 9.53375 15.3878C10.1471 15.7527 10.6103 16.3243 10.8401 17C10.8973 17.1718 11 17.3249 11.1374 17.4429C11.2748 17.5609 11.4416 17.6394 11.6201 17.67C12.0112 17.7348 12.3658 17.9382 12.6192 18.243C12.8726 18.5478 13.0078 18.9337 13.0001 19.33C13.0001 19.5493 12.9569 19.7665 12.873 19.9691C12.7891 20.1717 12.6661 20.3558 12.511 20.5109C12.3559 20.6659 12.1718 20.789 11.9692 20.8729C11.7666 20.9568 11.5494 21 11.3301 21Z" />
</symbol><symbol viewBox="0 0 24 24" id="cloud-cloud-connection-3">
<path d="M21 18.5H14.82C14.6707 18.0806 14.4299 17.6997 14.1151 17.3849C13.8003 17.0701 13.4194 16.8293 13 16.68V13.5H16.17C17.2289 13.5348 18.2637 13.1802 19.0787 12.5033C19.8937 11.8264 20.4323 10.8742 20.5924 9.82696C20.7526 8.77971 20.5233 7.71008 19.9478 6.82054C19.3724 5.931 18.4909 5.28328 17.47 5C16.9352 3.81508 16.0301 2.83589 14.8907 2.20981C13.7514 1.58373 12.4396 1.34462 11.1526 1.52847C9.86569 1.71232 8.67327 2.30918 7.75483 3.22923C6.83639 4.14928 6.24161 5.34274 6.06 6.63C5.24619 6.85821 4.54245 7.3732 4.07876 8.07985C3.61507 8.7865 3.42276 9.63708 3.53734 10.4745C3.65192 11.3119 4.06565 12.0795 4.70212 12.6356C5.33859 13.1918 6.1548 13.4988 7 13.5H11V16.68C10.5806 16.8293 10.1997 17.0701 9.8849 17.3849C9.57011 17.6997 9.32932 18.0806 9.18 18.5H3C2.73478 18.5 2.48043 18.6054 2.29289 18.7929C2.10536 18.9804 2 19.2348 2 19.5C2 19.7652 2.10536 20.0196 2.29289 20.2071C2.48043 20.3946 2.73478 20.5 3 20.5H9.18C9.3902 21.0792 9.77363 21.5795 10.2782 21.9332C10.7827 22.2868 11.3839 22.4765 12 22.4765C12.6161 22.4765 13.2173 22.2868 13.7218 21.9332C14.2264 21.5795 14.6098 21.0792 14.82 20.5H21C21.2652 20.5 21.5196 20.3946 21.7071 20.2071C21.8946 20.0196 22 19.7652 22 19.5C22 19.2348 21.8946 18.9804 21.7071 18.7929C21.5196 18.6054 21.2652 18.5 21 18.5ZM7 11.5C6.60218 11.5 6.22064 11.342 5.93934 11.0607C5.65804 10.7794 5.5 10.3978 5.5 10C5.5 9.60217 5.65804 9.22064 5.93934 8.93934C6.22064 8.65803 6.60218 8.5 7 8.5C7.26522 8.5 7.51957 8.39464 7.70711 8.20711C7.89464 8.01957 8 7.76522 8 7.5C7.99738 6.55053 8.33259 5.63109 8.94569 4.9061C9.55878 4.1811 10.4098 3.69784 11.3465 3.54272C12.2832 3.3876 13.2446 3.57075 14.0586 4.05941C14.8727 4.54807 15.4864 5.31037 15.79 6.21C15.8472 6.38184 15.9499 6.53493 16.0873 6.65293C16.2247 6.77093 16.3915 6.84942 16.57 6.88C17.1113 6.97026 17.6027 7.25027 17.9564 7.66987C18.31 8.08947 18.5027 8.62126 18.5 9.17C18.4974 9.78714 18.251 10.3783 17.8147 10.8147C17.3783 11.251 16.7871 11.4974 16.17 11.5H7ZM12 20.5C11.8022 20.5 11.6089 20.4414 11.4444 20.3315C11.28 20.2216 11.1518 20.0654 11.0761 19.8827C11.0004 19.7 10.9806 19.4989 11.0192 19.3049C11.0578 19.1109 11.153 18.9327 11.2929 18.7929C11.4327 18.653 11.6109 18.5578 11.8049 18.5192C11.9989 18.4806 12.2 18.5004 12.3827 18.5761C12.5654 18.6518 12.7216 18.78 12.8315 18.9444C12.9414 19.1089 13 19.3022 13 19.5C13 19.7652 12.8946 20.0196 12.7071 20.2071C12.5196 20.3946 12.2652 20.5 12 20.5Z" />
</symbol><symbol viewBox="0 0 24 24" id="cloud-cloud-info">
<path d="M12.7096 18.79C12.6124 18.7017 12.5008 18.6306 12.3796 18.58C12.1975 18.5034 11.9968 18.4825 11.8028 18.5199C11.6088 18.5573 11.4303 18.6512 11.2896 18.79C11.1069 18.9816 11.0033 19.2352 10.9996 19.5C10.9989 19.6316 11.0241 19.7621 11.0739 19.8839C11.1236 20.0057 11.197 20.1166 11.2896 20.21C11.3868 20.2983 11.4985 20.3694 11.6196 20.42C11.8014 20.4927 12.0005 20.5106 12.1922 20.4712C12.384 20.4319 12.56 20.3371 12.6984 20.1987C12.8368 20.0603 12.9315 19.8843 12.9709 19.6926C13.0102 19.5008 12.9924 19.3017 12.9196 19.12C12.8721 18.9973 12.8007 18.8851 12.7096 18.79ZM11.9996 12.5C11.7344 12.5 11.4801 12.6054 11.2925 12.7929C11.105 12.9804 10.9996 13.2348 10.9996 13.5V16.5C10.9996 16.7652 11.105 17.0196 11.2925 17.2071C11.4801 17.3946 11.7344 17.5 11.9996 17.5C12.2649 17.5 12.5192 17.3946 12.7068 17.2071C12.8943 17.0196 12.9996 16.7652 12.9996 16.5V13.5C12.9996 13.2348 12.8943 12.9804 12.7068 12.7929C12.5192 12.6054 12.2649 12.5 11.9996 12.5ZM18.4196 7.71C17.808 6.30581 16.7526 5.141 15.4154 4.39416C14.0782 3.64732 12.5329 3.35967 11.0165 3.57533C9.50015 3.79098 8.09635 4.49803 7.02036 5.58806C5.94438 6.6781 5.25561 8.09095 5.05965 9.61C4.10623 9.83833 3.26987 10.4088 2.70938 11.2132C2.1489 12.0175 1.90333 12.9997 2.01931 13.9732C2.13529 14.9467 2.60474 15.8437 3.33851 16.4939C4.07229 17.144 5.01928 17.5021 5.99965 17.5H7.99965C8.26486 17.5 8.51922 17.3946 8.70675 17.2071C8.89429 17.0196 8.99965 16.7652 8.99965 16.5C8.99965 16.2348 8.89429 15.9804 8.70675 15.7929C8.51922 15.6054 8.26486 15.5 7.99965 15.5H5.99965C5.46921 15.5 4.96051 15.2893 4.58543 14.9142C4.21036 14.5391 3.99965 14.0304 3.99965 13.5C3.99965 12.9696 4.21036 12.4609 4.58543 12.0858C4.96051 11.7107 5.46921 11.5 5.99965 11.5C6.26486 11.5 6.51922 11.3946 6.70675 11.2071C6.89429 11.0196 6.99965 10.7652 6.99965 10.5C7.0022 9.31728 7.42393 8.17376 8.18992 7.27259C8.9559 6.37142 10.0165 5.77095 11.1834 5.57788C12.3503 5.3848 13.5478 5.61161 14.5632 6.21801C15.5787 6.82441 16.3463 7.77114 16.7296 8.89C16.7883 9.05998 16.8917 9.21099 17.029 9.32714C17.1663 9.44329 17.3323 9.52028 17.5096 9.55C18.2426 9.68526 18.899 10.0885 19.351 10.6813C19.8029 11.274 20.018 12.0138 19.9543 12.7564C19.8907 13.499 19.5528 14.1914 19.0066 14.6986C18.4604 15.2058 17.745 15.4915 16.9996 15.5H15.9996C15.7344 15.5 15.4801 15.6054 15.2925 15.7929C15.105 15.9804 14.9996 16.2348 14.9996 16.5C14.9996 16.7652 15.105 17.0196 15.2925 17.2071C15.4801 17.3946 15.7344 17.5 15.9996 17.5H16.9996C18.199 17.4967 19.3572 17.0624 20.263 16.2763C21.1689 15.4902 21.7619 14.4047 21.9341 13.2177C22.1063 12.0308 21.846 10.8215 21.2009 9.81046C20.5557 8.7994 19.5686 8.05393 18.4196 7.71Z" />
</symbol><symbol viewBox="0 0 24 24" id="cloud-cloud-signal">
<path d="M8.50017 5.94C9.56754 5.33525 10.7734 5.01738 12.0002 5.01738C13.227 5.01738 14.4328 5.33525 15.5002 5.94C15.6143 6.00612 15.7404 6.049 15.8712 6.06619C16.0019 6.08337 16.1348 6.07451 16.2622 6.04012C16.3895 6.00573 16.5088 5.94649 16.6131 5.8658C16.7175 5.78512 16.8048 5.68459 16.8702 5.57C17.0005 5.34038 17.0348 5.06852 16.9655 4.81373C16.8962 4.55895 16.7289 4.34192 16.5002 4.21C15.1275 3.43354 13.5772 3.02547 12.0002 3.02547C10.4231 3.02547 8.87286 3.43354 7.50017 4.21C7.27144 4.34192 7.10417 4.55895 7.03485 4.81373C6.96553 5.06852 6.9998 5.34038 7.13017 5.57C7.1955 5.68459 7.28286 5.78512 7.3872 5.8658C7.49155 5.94649 7.61083 6.00573 7.73817 6.04012C7.86551 6.07451 7.99839 6.08337 8.12917 6.06619C8.25995 6.049 8.38604 6.00612 8.50017 5.94ZM18.4202 11.21C18.3163 10.9655 18.196 10.7283 18.0602 10.5C17.9915 10.3874 17.9013 10.2895 17.7947 10.2119C17.688 10.1343 17.5671 10.0785 17.4388 10.0478C17.3106 10.0172 17.1775 10.0122 17.0473 10.0331C16.9171 10.0541 16.7923 10.1006 16.6802 10.17C16.4555 10.3086 16.2947 10.5303 16.2329 10.787C16.171 11.0436 16.2132 11.3143 16.3502 11.54C16.5048 11.8065 16.6321 12.0879 16.7302 12.38C16.7873 12.5518 16.8901 12.7049 17.0275 12.8229C17.1648 12.9409 17.3317 13.0194 17.5102 13.05C18.206 13.17 18.8372 13.5317 19.2927 14.0713C19.7482 14.6109 19.9987 15.2939 20.0002 16C20.0002 16.7956 19.6841 17.5587 19.1215 18.1213C18.5589 18.6839 17.7958 19 17.0002 19H5.66017C5.25219 18.9372 4.87363 18.7497 4.57642 18.4633C4.27921 18.1768 4.07793 17.8054 4.00017 17.4C3.9401 17.106 3.94694 16.8024 4.02018 16.5114C4.09341 16.2205 4.23117 15.9497 4.42324 15.7192C4.61531 15.4887 4.85677 15.3044 5.12975 15.1799C5.40272 15.0554 5.70021 14.9939 6.00017 15C6.26539 15 6.51974 14.8946 6.70728 14.7071C6.89481 14.5196 7.00017 14.2652 7.00017 14C6.99816 13.1252 7.22944 12.2657 7.67017 11.51C7.73629 11.3959 7.77918 11.2698 7.79636 11.139C7.81354 11.0082 7.80468 10.8753 7.77029 10.748C7.7359 10.6207 7.67666 10.5014 7.59597 10.397C7.51529 10.2927 7.41476 10.2053 7.30017 10.14C7.07055 10.0096 6.79869 9.97536 6.54391 10.0447C6.28912 10.114 6.07209 10.2813 5.94017 10.51C5.47186 11.3072 5.17233 12.1922 5.06017 13.11C4.22581 13.3132 3.479 13.7795 2.93017 14.44C2.46338 14.9882 2.15319 15.6522 2.03234 16.3619C1.91149 17.0717 1.98445 17.8009 2.24353 18.4727C2.5026 19.1444 2.93819 19.7338 3.50434 20.1786C4.07048 20.6235 4.74619 20.9072 5.46017 21H5.59017H17.0002C18.1995 20.9967 19.3577 20.5624 20.2636 19.7763C21.1694 18.9902 21.7625 17.9047 21.9346 16.7177C22.1068 15.5308 21.8465 14.3215 21.2014 13.3105C20.5562 12.2994 19.5692 11.5539 18.4202 11.21ZM14.8702 9C14.8702 9 14.8702 9 14.8702 8.94C14.922 8.87925 14.9657 8.81202 15.0002 8.74C15.0949 8.49329 15.0881 8.21912 14.9813 7.97741C14.8745 7.73569 14.6764 7.54607 14.4302 7.45C13.8709 7.24235 13.2851 7.11443 12.6902 7.07C12.5902 7.07 12.4902 7.07 12.3902 7.07C12.1205 7.04998 11.8498 7.04998 11.5802 7.07C11.4769 7.06466 11.3734 7.06466 11.2702 7.07C10.6752 7.11443 10.0895 7.24235 9.53017 7.45C9.29123 7.55366 9.10216 7.74645 9.00318 7.98736C8.9042 8.22827 8.90312 8.4983 9.00017 8.74C9.03424 8.80689 9.07441 8.87049 9.12017 8.93C9.11686 8.96659 9.11686 9.00341 9.12017 9.04C9.18633 9.15375 9.2743 9.25333 9.37902 9.33302C9.48375 9.41271 9.60317 9.47094 9.73044 9.50439C9.85772 9.53783 9.99034 9.54583 10.1207 9.52791C10.2511 9.51 10.3766 9.46653 10.4902 9.4C10.9488 9.14428 11.4651 9.01005 11.9902 9.01005C12.5152 9.01005 13.0316 9.14428 13.4902 9.4C13.6065 9.46652 13.7351 9.50898 13.8682 9.52484C14.0013 9.5407 14.1362 9.52965 14.2649 9.49234C14.3936 9.45502 14.5136 9.39221 14.6175 9.30763C14.7215 9.22305 14.8074 9.11844 14.8702 9ZM11.0002 12C11.0002 12.1978 11.0588 12.3911 11.1687 12.5556C11.2786 12.72 11.4348 12.8482 11.6175 12.9239C11.8002 12.9996 12.0013 13.0194 12.1953 12.9808C12.3892 12.9422 12.5674 12.847 12.7073 12.7071C12.8471 12.5673 12.9424 12.3891 12.981 12.1951C13.0195 12.0011 12.9997 11.8 12.9241 11.6173C12.8484 11.4346 12.7202 11.2784 12.5557 11.1685C12.3913 11.0586 12.198 11 12.0002 11C11.735 11 11.4806 11.1054 11.2931 11.2929C11.1055 11.4804 11.0002 11.7348 11.0002 12Z" />
</symbol><symbol viewBox="0 0 24 24" id="cloud-data-storage">
<path d="M8 16.5C7.80222 16.5 7.60888 16.5586 7.44443 16.6685C7.27998 16.7784 7.15181 16.9346 7.07612 17.1173C7.00043 17.3 6.98063 17.5011 7.01921 17.6951C7.0578 17.8891 7.15304 18.0673 7.29289 18.2071C7.43275 18.347 7.61093 18.4422 7.80491 18.4808C7.99889 18.5194 8.19996 18.4996 8.38268 18.4239C8.56541 18.3482 8.72159 18.22 8.83147 18.0556C8.94135 17.8911 9 17.6978 9 17.5C9 17.2348 8.89464 16.9804 8.70711 16.7929C8.51957 16.6054 8.26522 16.5 8 16.5ZM12 2C8 2 4 3.37 4 6V18C4 20.63 8 22 12 22C16 22 20 20.63 20 18V6C20 3.37 16 2 12 2ZM18 18C18 18.71 15.72 20 12 20C8.28 20 6 18.71 6 18V14.73C7.87207 15.62 9.92789 16.0551 12 16C14.0721 16.0551 16.1279 15.62 18 14.73V18ZM18 12C18 12.71 15.72 14 12 14C8.28 14 6 12.71 6 12V8.73C7.87207 9.61996 9.92789 10.0551 12 10C14.0721 10.0551 16.1279 9.61996 18 8.73V12ZM12 8C8.28 8 6 6.71 6 6C6 5.29 8.28 4 12 4C15.72 4 18 5.29 18 6C18 6.71 15.72 8 12 8ZM8 10.5C7.80222 10.5 7.60888 10.5586 7.44443 10.6685C7.27998 10.7784 7.15181 10.9346 7.07612 11.1173C7.00043 11.3 6.98063 11.5011 7.01921 11.6951C7.0578 11.8891 7.15304 12.0673 7.29289 12.2071C7.43275 12.347 7.61093 12.4422 7.80491 12.4808C7.99889 12.5194 8.19996 12.4996 8.38268 12.4239C8.56541 12.3482 8.72159 12.22 8.83147 12.0556C8.94135 11.8911 9 11.6978 9 11.5C9 11.2348 8.89464 10.9804 8.70711 10.7929C8.51957 10.6054 8.26522 10.5 8 10.5Z" />
</symbol><symbol viewBox="0 0 24 24" id="cloud-database">
<path d="M8 17C7.80222 17 7.60888 17.0586 7.44443 17.1685C7.27998 17.2784 7.15181 17.4346 7.07612 17.6173C7.00043 17.8 6.98063 18.0011 7.01921 18.1951C7.0578 18.3891 7.15304 18.5673 7.29289 18.7071C7.43275 18.847 7.61093 18.9422 7.80491 18.9808C7.99889 19.0194 8.19996 18.9996 8.38268 18.9239C8.56541 18.8482 8.72159 18.72 8.83147 18.5556C8.94135 18.3911 9 18.1978 9 18C9 17.7348 8.89464 17.4804 8.70711 17.2929C8.51957 17.1054 8.26522 17 8 17ZM8 11C7.80222 11 7.60888 11.0586 7.44443 11.1685C7.27998 11.2784 7.15181 11.4346 7.07612 11.6173C7.00043 11.8 6.98063 12.0011 7.01921 12.1951C7.0578 12.3891 7.15304 12.5673 7.29289 12.7071C7.43275 12.847 7.61093 12.9422 7.80491 12.9808C7.99889 13.0194 8.19996 12.9996 8.38268 12.9239C8.56541 12.8482 8.72159 12.72 8.83147 12.5556C8.94135 12.3911 9 12.1978 9 12C9 11.7348 8.89464 11.4804 8.70711 11.2929C8.51957 11.1054 8.26522 11 8 11ZM16 2H8C6.93913 2 5.92172 2.42143 5.17157 3.17157C4.42143 3.92172 4 4.93913 4 6V18C4 19.0609 4.42143 20.0783 5.17157 20.8284C5.92172 21.5786 6.93913 22 8 22H16C17.0609 22 18.0783 21.5786 18.8284 20.8284C19.5786 20.0783 20 19.0609 20 18V6C20 4.93913 19.5786 3.92172 18.8284 3.17157C18.0783 2.42143 17.0609 2 16 2ZM18 18C18 18.5304 17.7893 19.0391 17.4142 19.4142C17.0391 19.7893 16.5304 20 16 20H8C7.46957 20 6.96086 19.7893 6.58579 19.4142C6.21071 19.0391 6 18.5304 6 18V15.44C6.60399 15.8036 7.29504 15.997 8 16H16C16.705 15.997 17.396 15.8036 18 15.44V18ZM18 12C18 12.5304 17.7893 13.0391 17.4142 13.4142C17.0391 13.7893 16.5304 14 16 14H8C7.46957 14 6.96086 13.7893 6.58579 13.4142C6.21071 13.0391 6 12.5304 6 12V9.44C6.60399 9.80355 7.29504 9.99705 8 10H16C16.705 9.99705 17.396 9.80355 18 9.44V12ZM16 8H8C7.46957 8 6.96086 7.78929 6.58579 7.41421C6.21071 7.03914 6 6.53043 6 6C6 5.46957 6.21071 4.96086 6.58579 4.58579C6.96086 4.21071 7.46957 4 8 4H16C16.5304 4 17.0391 4.21071 17.4142 4.58579C17.7893 4.96086 18 5.46957 18 6C18 6.53043 17.7893 7.03914 17.4142 7.41421C17.0391 7.78929 16.5304 8 16 8Z" />
</symbol><symbol viewBox="0 0 24 24" id="cloud-download">
<path d="M14.2896 17.29L12.9996 18.59V13C12.9996 12.7348 12.8943 12.4804 12.7068 12.2929C12.5192 12.1054 12.2649 12 11.9996 12C11.7344 12 11.4801 12.1054 11.2925 12.2929C11.105 12.4804 10.9996 12.7348 10.9996 13V18.59L9.70965 17.29C9.61641 17.1968 9.50572 17.1228 9.3839 17.0723C9.26207 17.0219 9.13151 16.9959 8.99965 16.9959C8.86779 16.9959 8.73722 17.0219 8.6154 17.0723C8.49357 17.1228 8.38288 17.1968 8.28965 17.29C8.19641 17.3832 8.12245 17.4939 8.07199 17.6158C8.02153 17.7376 7.99555 17.8681 7.99555 18C7.99555 18.1319 8.02153 18.2624 8.07199 18.3843C8.12245 18.5061 8.19641 18.6168 8.28965 18.71L11.2896 21.71C11.3847 21.801 11.4969 21.8724 11.6196 21.92C11.7393 21.9729 11.8688 22.0002 11.9996 22.0002C12.1305 22.0002 12.2599 21.9729 12.3796 21.92C12.5024 21.8724 12.6145 21.801 12.7096 21.71L15.7096 18.71C15.898 18.5217 16.0037 18.2663 16.0037 18C16.0037 17.7337 15.898 17.4783 15.7096 17.29C15.5213 17.1017 15.2659 16.9959 14.9996 16.9959C14.7333 16.9959 14.478 17.1017 14.2896 17.29ZM18.4196 6.22C17.8086 4.81601 16.7541 3.65108 15.4177 2.90373C14.0813 2.15638 12.5367 1.86783 11.0206 2.08231C9.50452 2.29679 8.10057 3.00245 7.0239 4.09118C5.94723 5.1799 5.25723 6.59162 5.05965 8.11C4.10623 8.33832 3.26987 8.90883 2.70938 9.71319C2.1489 10.5175 1.90333 11.4997 2.01931 12.4732C2.13529 13.4467 2.60474 14.3437 3.33851 14.9939C4.07229 15.644 5.01928 16.0021 5.99965 16C6.26486 16 6.51922 15.8946 6.70675 15.7071C6.89429 15.5196 6.99965 15.2652 6.99965 15C6.99965 14.7348 6.89429 14.4804 6.70675 14.2929C6.51922 14.1054 6.26486 14 5.99965 14C5.46921 14 4.96051 13.7893 4.58543 13.4142C4.21036 13.0391 3.99965 12.5304 3.99965 12C3.99965 11.4696 4.21036 10.9609 4.58543 10.5858C4.96051 10.2107 5.46921 10 5.99965 10C6.26486 10 6.51922 9.89464 6.70675 9.70711C6.89429 9.51957 6.99965 9.26522 6.99965 9C7.0022 7.81728 7.42393 6.67375 8.18992 5.77259C8.9559 4.87142 10.0165 4.27095 11.1834 4.07788C12.3503 3.8848 13.5478 4.11161 14.5632 4.71801C15.5787 5.32441 16.3463 6.27114 16.7296 7.39C16.7868 7.56184 16.8896 7.71493 17.0269 7.83293C17.1643 7.95094 17.3312 8.02942 17.5096 8.06C18.1757 8.18587 18.7795 8.5336 19.2227 9.04654C19.6658 9.55947 19.9222 10.2074 19.95 10.8846C19.9779 11.5619 19.7755 12.2287 19.3759 12.7762C18.9764 13.3238 18.4031 13.7199 17.7496 13.9C17.6223 13.9328 17.5026 13.9904 17.3975 14.0695C17.2924 14.1486 17.2038 14.2476 17.137 14.3609C17.0701 14.4742 17.0262 14.5995 17.0078 14.7298C16.9894 14.86 16.9968 14.9926 17.0296 15.12C17.0625 15.2474 17.1201 15.3671 17.1992 15.4722C17.2782 15.5773 17.3772 15.6658 17.4905 15.7327C17.6038 15.7995 17.7292 15.8434 17.8594 15.8618C17.9897 15.8803 18.1223 15.8728 18.2496 15.84C19.302 15.5619 20.2349 14.948 20.9067 14.0915C21.5784 13.2349 21.9522 12.1826 21.9715 11.0943C21.9907 10.0059 21.6543 8.94104 21.0132 8.06132C20.3722 7.1816 19.4616 6.5351 18.4196 6.22Z" />
</symbol><symbol viewBox="0 0 24 24" id="cloud-help">
<path d="M18.4196 8.22C17.8086 6.81601 16.7541 5.65108 15.4177 4.90373C14.0813 4.15638 12.5367 3.86783 11.0206 4.08231C9.50452 4.29679 8.10057 5.00245 7.0239 6.09118C5.94723 7.1799 5.25723 8.59162 5.05965 10.11C4.10623 10.3383 3.26987 10.9088 2.70938 11.7132C2.1489 12.5175 1.90333 13.4997 2.01931 14.4732C2.13529 15.4467 2.60474 16.3437 3.33851 16.9939C4.07229 17.644 5.01928 18.0021 5.99965 18H7.99965C8.26486 18 8.51922 17.8946 8.70675 17.7071C8.89429 17.5196 8.99965 17.2652 8.99965 17C8.99965 16.7348 8.89429 16.4804 8.70675 16.2929C8.51922 16.1054 8.26486 16 7.99965 16H5.99965C5.46921 16 4.96051 15.7893 4.58543 15.4142C4.21036 15.0391 3.99965 14.5304 3.99965 14C3.99965 13.4696 4.21036 12.9609 4.58543 12.5858C4.96051 12.2107 5.46921 12 5.99965 12C6.26486 12 6.51922 11.8946 6.70675 11.7071C6.89429 11.5196 6.99965 11.2652 6.99965 11C7.0022 9.81728 7.42393 8.67376 8.18992 7.77259C8.9559 6.87142 10.0165 6.27095 11.1834 6.07788C12.3503 5.8848 13.5478 6.11161 14.5632 6.71801C15.5787 7.32441 16.3463 8.27114 16.7296 9.39C16.7868 9.56184 16.8896 9.71493 17.0269 9.83294C17.1643 9.95094 17.3312 10.0294 17.5096 10.06C18.2038 10.1797 18.8337 10.5399 19.289 11.0775C19.7442 11.615 19.9958 12.2956 19.9996 13C19.9996 13.7957 19.6836 14.5587 19.121 15.1213C18.5584 15.6839 17.7953 16 16.9996 16C16.7344 16 16.4801 16.1054 16.2925 16.2929C16.105 16.4804 15.9996 16.7348 15.9996 17C15.9996 17.2652 16.105 17.5196 16.2925 17.7071C16.4801 17.8946 16.7344 18 16.9996 18C18.1933 17.989 19.3436 17.5513 20.2426 16.7661C21.1416 15.9809 21.7301 14.8999 21.9016 13.7187C22.0731 12.5374 21.8164 11.3337 21.1778 10.3252C20.5392 9.31675 19.5608 8.57002 18.4196 8.22ZM12.9196 18.62C12.8997 18.5586 12.8692 18.5011 12.8296 18.45L12.7096 18.29C12.6124 18.2017 12.5008 18.1306 12.3796 18.08C12.1975 18.0034 11.9968 17.9825 11.8028 18.0199C11.6088 18.0572 11.4303 18.1512 11.2896 18.29L11.1696 18.45C11.1301 18.5011 11.0996 18.5586 11.0796 18.62C11.0508 18.6767 11.0306 18.7374 11.0196 18.8C11.0152 18.8666 11.0152 18.9334 11.0196 19C11.0147 19.0632 11.0147 19.1268 11.0196 19.19C11.0289 19.2562 11.0492 19.3205 11.0796 19.38C11.0996 19.4414 11.1301 19.4989 11.1696 19.55L11.2896 19.71C11.4813 19.8927 11.7349 19.9963 11.9996 20C12.1303 19.9984 12.2594 19.9712 12.3796 19.92C12.5008 19.8694 12.6124 19.7983 12.7096 19.71L12.8296 19.55C12.8692 19.4989 12.8997 19.4414 12.9196 19.38C12.9501 19.3205 12.9704 19.2562 12.9796 19.19C12.9912 19.1273 12.9979 19.0638 12.9996 19C13.0041 18.9334 13.0041 18.8666 12.9996 18.8C12.9824 18.7362 12.9554 18.6755 12.9196 18.62ZM11.9996 11C11.4727 10.9997 10.955 11.1381 10.4986 11.4014C10.0421 11.6648 9.66311 12.0437 9.39965 12.5C9.33353 12.6141 9.29064 12.7402 9.27346 12.871C9.25627 13.0018 9.26513 13.1347 9.29952 13.262C9.33392 13.3893 9.39316 13.5086 9.47384 13.613C9.55453 13.7173 9.65506 13.8047 9.76965 13.87C9.99926 14.0004 10.2711 14.0346 10.5259 13.9653C10.7807 13.896 10.9977 13.7287 11.1296 13.5C11.2178 13.3474 11.3446 13.2208 11.4974 13.133C11.6502 13.0452 11.8234 12.9993 11.9996 13C12.2649 13 12.5192 13.1054 12.7068 13.2929C12.8943 13.4804 12.9996 13.7348 12.9996 14C12.9996 14.2652 12.8943 14.5196 12.7068 14.7071C12.5192 14.8946 12.2649 15 11.9996 15C11.7344 15 11.4801 15.1054 11.2925 15.2929C11.105 15.4804 10.9996 15.7348 10.9996 16C10.9996 16.2652 11.105 16.5196 11.2925 16.7071C11.4801 16.8946 11.7344 17 11.9996 17C12.7953 17 13.5584 16.6839 14.121 16.1213C14.6836 15.5587 14.9996 14.7957 14.9996 14C14.9996 13.2044 14.6836 12.4413 14.121 11.8787C13.5584 11.3161 12.7953 11 11.9996 11Z" />
</symbol><symbol viewBox="0 0 24 24" id="cloud-info-cloud">
<path d="M11.2896 12.29C11.1486 12.4299 11.0524 12.6086 11.0134 12.8033C10.9743 12.9981 10.9941 13.2 11.0703 13.3835C11.1464 13.5669 11.2755 13.7235 11.441 13.8333C11.6066 13.9431 11.801 14.0012 11.9996 14H12.1896C12.2559 13.9907 12.3201 13.9705 12.3796 13.94C12.4411 13.92 12.4986 13.8896 12.5496 13.85L12.6996 13.73C12.7934 13.637 12.8678 13.5264 12.9185 13.4046C12.9693 13.2827 12.9954 13.152 12.9954 13.02C12.9954 12.888 12.9693 12.7573 12.9185 12.6354C12.8678 12.5136 12.7934 12.403 12.6996 12.31C12.5149 12.1211 12.263 12.0129 11.9988 12.0092C11.7346 12.0054 11.4796 12.1064 11.2896 12.29ZM11.9996 15C11.7344 15 11.4801 15.1054 11.2925 15.2929C11.105 15.4804 10.9996 15.7348 10.9996 16V19C10.9996 19.2652 11.105 19.5196 11.2925 19.7071C11.4801 19.8946 11.7344 20 11.9996 20C12.2649 20 12.5192 19.8946 12.7068 19.7071C12.8943 19.5196 12.9996 19.2652 12.9996 19V16C12.9996 15.7348 12.8943 15.4804 12.7068 15.2929C12.5192 15.1054 12.2649 15 11.9996 15ZM18.4196 8.22C17.8086 6.81601 16.7541 5.65108 15.4177 4.90373C14.0813 4.15638 12.5367 3.86783 11.0206 4.08231C9.50452 4.29679 8.10057 5.00245 7.0239 6.09118C5.94723 7.1799 5.25723 8.59162 5.05965 10.11C4.10623 10.3383 3.26987 10.9088 2.70938 11.7132C2.1489 12.5175 1.90333 13.4997 2.01931 14.4732C2.13529 15.4467 2.60474 16.3437 3.33851 16.9939C4.07229 17.644 5.01928 18.0021 5.99965 18H7.99965C8.26486 18 8.51922 17.8946 8.70675 17.7071C8.89429 17.5196 8.99965 17.2652 8.99965 17C8.99965 16.7348 8.89429 16.4804 8.70675 16.2929C8.51922 16.1054 8.26486 16 7.99965 16H5.99965C5.46921 16 4.96051 15.7893 4.58543 15.4142C4.21036 15.0391 3.99965 14.5304 3.99965 14C3.99965 13.4696 4.21036 12.9609 4.58543 12.5858C4.96051 12.2107 5.46921 12 5.99965 12C6.26486 12 6.51922 11.8946 6.70675 11.7071C6.89429 11.5196 6.99965 11.2652 6.99965 11C7.0022 9.81728 7.42393 8.67376 8.18992 7.77259C8.9559 6.87142 10.0165 6.27095 11.1834 6.07788C12.3503 5.8848 13.5478 6.11161 14.5632 6.71801C15.5787 7.32441 16.3463 8.27114 16.7296 9.39C16.7868 9.56184 16.8896 9.71493 17.0269 9.83294C17.1643 9.95094 17.3312 10.0294 17.5096 10.06C18.2038 10.1797 18.8337 10.5399 19.289 11.0775C19.7442 11.615 19.9958 12.2956 19.9996 13C19.9996 13.7957 19.6836 14.5587 19.121 15.1213C18.5584 15.6839 17.7953 16 16.9996 16H15.9996C15.7344 16 15.4801 16.1054 15.2925 16.2929C15.105 16.4804 14.9996 16.7348 14.9996 17C14.9996 17.2652 15.105 17.5196 15.2925 17.7071C15.4801 17.8946 15.7344 18 15.9996 18H16.9996C18.1933 17.989 19.3436 17.5513 20.2426 16.7661C21.1416 15.9809 21.7301 14.8999 21.9016 13.7187C22.0731 12.5374 21.8164 11.3337 21.1778 10.3252C20.5392 9.31675 19.5608 8.57002 18.4196 8.22Z" />
</symbol><symbol viewBox="0 0 24 24" id="cloud-like-cloud">
<path d="M18.4203 7.72C17.8092 6.31601 16.7547 5.15108 15.4183 4.40373C14.0819 3.65638 12.5373 3.36783 11.0212 3.58231C9.50513 3.79679 8.10118 4.50245 7.02451 5.59118C5.94784 6.6799 5.25784 8.09162 5.06025 9.61C4.22247 9.81405 3.47306 10.2834 2.9237 10.948C2.37435 11.6126 2.05447 12.437 2.01175 13.2982C1.96903 14.1594 2.20574 15.0114 2.68662 15.7271C3.16749 16.4428 3.86678 16.984 4.68025 17.27C4.78397 17.3019 4.89174 17.3188 5.00025 17.32C5.26547 17.3624 5.53668 17.2978 5.75422 17.1402C5.97177 16.9827 6.11782 16.7452 6.16025 16.48C6.20269 16.2148 6.13803 15.9436 5.9805 15.726C5.82297 15.5085 5.58547 15.3624 5.32026 15.32C4.94317 15.1839 4.61569 14.9376 4.38031 14.613C4.14493 14.2885 4.01252 13.9007 4.00025 13.5C4.00025 12.9696 4.21097 12.4609 4.58604 12.0858C4.96111 11.7107 5.46982 11.5 6.00025 11.5C6.26547 11.5 6.51983 11.3946 6.70736 11.2071C6.8949 11.0196 7.00026 10.7652 7.00026 10.5C7.00281 9.31728 7.42454 8.17375 8.19052 7.27259C8.95651 6.37142 10.0171 5.77095 11.184 5.57788C12.3509 5.3848 13.5484 5.61161 14.5638 6.21801C15.5793 6.82441 16.3469 7.77114 16.7303 8.89C16.7874 9.06184 16.8902 9.21493 17.0275 9.33293C17.1649 9.45094 17.3318 9.52942 17.5103 9.56C18.1116 9.66884 18.6654 9.95873 19.0974 10.3909C19.5295 10.823 19.8193 11.3768 19.9281 11.9782C20.0368 12.5796 19.9593 13.1998 19.7059 13.7559C19.4526 14.312 19.0354 14.7775 18.5103 15.09C18.2795 15.2226 18.1109 15.4414 18.0415 15.6984C17.9721 15.9553 18.0076 16.2293 18.1403 16.46C18.2729 16.6907 18.4917 16.8593 18.7486 16.9287C19.0056 16.9981 19.2795 16.9626 19.5103 16.83C20.2685 16.3899 20.8976 15.7582 21.3347 14.9982C21.7717 14.2382 22.0012 13.3767 22.0003 12.5C21.9972 11.4241 21.6472 10.3779 21.0023 9.51681C20.3573 8.65568 19.4518 8.02555 18.4203 7.72ZM12.0003 12.83C11.4463 12.5429 10.8153 12.4396 10.1987 12.5349C9.58208 12.6301 9.01176 12.9191 8.57025 13.36C8.02493 13.9089 7.71888 14.6513 7.71888 15.425C7.71888 16.1987 8.02493 16.9411 8.57025 17.49L11.2903 20.21C11.3832 20.3037 11.4938 20.3781 11.6157 20.4289C11.7375 20.4797 11.8682 20.5058 12.0003 20.5058C12.1323 20.5058 12.263 20.4797 12.3848 20.4289C12.5067 20.3781 12.6173 20.3037 12.7103 20.21L15.4303 17.49C15.9756 16.9411 16.2816 16.1987 16.2816 15.425C16.2816 14.6513 15.9756 13.9089 15.4303 13.36C14.9887 12.9191 14.4184 12.6301 13.8018 12.5349C13.1852 12.4396 12.5542 12.5429 12.0003 12.83ZM14.0003 16.07L12.0003 18.07L10.0003 16.07C9.91294 15.9861 9.8439 15.885 9.79744 15.7732C9.75098 15.6613 9.72811 15.5411 9.73025 15.42C9.7287 15.299 9.75185 15.1789 9.79827 15.0672C9.84469 14.9554 9.91342 14.8543 10.0003 14.77C10.1727 14.5978 10.4065 14.5011 10.6503 14.5011C10.894 14.5011 11.1278 14.5978 11.3003 14.77C11.3932 14.8637 11.5038 14.9381 11.6257 14.9889C11.7475 15.0397 11.8782 15.0658 12.0103 15.0658C12.1423 15.0658 12.273 15.0397 12.3948 14.9889C12.5167 14.9381 12.6273 14.8637 12.7203 14.77C12.8952 14.6025 13.1281 14.509 13.3703 14.509C13.6124 14.509 13.8453 14.6025 14.0203 14.77C14.1071 14.8543 14.1758 14.9554 14.2222 15.0672C14.2687 15.1789 14.2918 15.299 14.2903 15.42C14.2898 15.5426 14.2638 15.6637 14.2139 15.7756C14.164 15.8876 14.0912 15.9878 14.0003 16.07Z" />
</symbol><symbol viewBox="0 0 24 24" id="cloud-lock-cloud">
<path d="M18.4203 6.72C17.8092 5.31601 16.7547 4.15108 15.4183 3.40373C14.0819 2.65638 12.5373 2.36783 11.0212 2.58231C9.50513 2.79679 8.10118 3.50245 7.02451 4.59118C5.94784 5.6799 5.25784 7.09162 5.06025 8.61C4.22247 8.81405 3.47306 9.28337 2.9237 9.948C2.37435 10.6126 2.05447 11.437 2.01175 12.2982C1.96903 13.1594 2.20574 14.0114 2.68662 14.7271C3.16749 15.4428 3.86678 15.984 4.68025 16.27C4.78397 16.3019 4.89174 16.3188 5.00025 16.32C5.26547 16.3624 5.53668 16.2978 5.75422 16.1402C5.97177 15.9827 6.11782 15.7452 6.16025 15.48C6.20269 15.2148 6.13803 14.9436 5.9805 14.726C5.82297 14.5085 5.58547 14.3624 5.32026 14.32C4.94317 14.1839 4.61569 13.9376 4.38031 13.613C4.14493 13.2885 4.01252 12.9007 4.00025 12.5C4.00025 11.9696 4.21097 11.4609 4.58604 11.0858C4.96111 10.7107 5.46982 10.5 6.00025 10.5C6.26547 10.5 6.51983 10.3946 6.70736 10.2071C6.8949 10.0196 7.00026 9.76522 7.00026 9.5C7.00281 8.31728 7.42454 7.17375 8.19052 6.27259C8.95651 5.37142 10.0171 4.77095 11.184 4.57788C12.3509 4.3848 13.5484 4.61161 14.5638 5.21801C15.5793 5.82441 16.3469 6.77114 16.7303 7.89C16.7874 8.06184 16.8902 8.21493 17.0275 8.33293C17.1649 8.45094 17.3318 8.52942 17.5103 8.56C18.1116 8.66884 18.6654 8.95873 19.0974 9.39089C19.5295 9.82304 19.8193 10.3768 19.9281 10.9782C20.0368 11.5796 19.9593 12.1998 19.7059 12.7559C19.4526 13.312 19.0354 13.7775 18.5103 14.09C18.2795 14.2226 18.1109 14.4414 18.0415 14.6984C17.9721 14.9553 18.0076 15.2293 18.1403 15.46C18.2729 15.6907 18.4917 15.8594 18.7486 15.9287C19.0056 15.9981 19.2795 15.9626 19.5103 15.83C20.2685 15.3899 20.8976 14.7582 21.3347 13.9982C21.7717 13.2382 22.0012 12.3767 22.0003 11.5C21.9972 10.4241 21.6472 9.37794 21.0023 8.51681C20.3573 7.65568 19.4518 7.02555 18.4203 6.72ZM15.0003 15.72V14.5C15.0003 13.7044 14.6842 12.9413 14.1216 12.3787C13.559 11.8161 12.7959 11.5 12.0003 11.5C11.2046 11.5 10.4415 11.8161 9.87893 12.3787C9.31633 12.9413 9.00026 13.7044 9.00026 14.5V15.68C8.33888 15.92 7.7829 16.3848 7.42948 16.9931C7.07607 17.6015 6.94772 18.3147 7.06686 19.0081C7.186 19.7015 7.54505 20.331 8.08126 20.7865C8.61747 21.242 9.29671 21.4945 10.0003 21.5H14.0003C14.7038 21.4945 15.383 21.242 15.9192 20.7865C16.4555 20.331 16.8145 19.7015 16.9337 19.0081C17.0528 18.3147 16.9244 17.6015 16.571 16.9931C16.2176 16.3848 15.6616 15.92 15.0003 15.68V15.72ZM11.0003 14.5C11.0003 14.2348 11.1056 13.9804 11.2931 13.7929C11.4807 13.6054 11.735 13.5 12.0003 13.5C12.2655 13.5 12.5198 13.6054 12.7074 13.7929C12.8949 13.9804 13.0003 14.2348 13.0003 14.5V15.5H11.0003V14.5ZM14.0003 19.5H10.0003C9.73504 19.5 9.48068 19.3946 9.29315 19.2071C9.10561 19.0196 9.00026 18.7652 9.00026 18.5C9.00026 18.2348 9.10561 17.9804 9.29315 17.7929C9.48068 17.6054 9.73504 17.5 10.0003 17.5H14.0003C14.2655 17.5 14.5198 17.6054 14.7074 17.7929C14.8949 17.9804 15.0003 18.2348 15.0003 18.5C15.0003 18.7652 14.8949 19.0196 14.7074 19.2071C14.5198 19.3946 14.2655 19.5 14.0003 19.5Z" />
</symbol><symbol viewBox="0 0 24 24" id="cloud-no-connection">
<path d="M16.7101 16.29L3.7101 3.29C3.5218 3.1017 3.26641 2.99591 3.0001 2.99591C2.7338 2.99591 2.47841 3.1017 2.2901 3.29C2.1018 3.47831 1.99601 3.7337 1.99601 4C1.99601 4.2663 2.1018 4.5217 2.2901 4.71L5.6501 8.06C5.35469 8.69347 5.15581 9.36762 5.0601 10.06C4.03449 10.2167 3.10987 10.7657 2.48142 11.5912C1.85296 12.4167 1.56984 13.4541 1.69182 14.4844C1.81379 15.5147 2.33132 16.4573 3.13516 17.1133C3.93901 17.7692 4.96626 18.0872 6.0001 18H15.5901L18.2901 20.71C18.3831 20.8037 18.4937 20.8781 18.6155 20.9289C18.7374 20.9797 18.8681 21.0058 19.0001 21.0058C19.1321 21.0058 19.2628 20.9797 19.3847 20.9289C19.5065 20.8781 19.6171 20.8037 19.7101 20.71C19.8038 20.617 19.8782 20.5064 19.929 20.3846C19.9798 20.2627 20.0059 20.132 20.0059 20C20.0059 19.868 19.9798 19.7373 19.929 19.6154C19.8782 19.4936 19.8038 19.383 19.7101 19.29L16.7101 16.29ZM6.0001 16C5.46967 16 4.96096 15.7893 4.58589 15.4142C4.21082 15.0391 4.0001 14.5304 4.0001 14C4.0001 13.4696 4.21082 12.9609 4.58589 12.5858C4.96096 12.2107 5.46967 12 6.0001 12C6.26532 12 6.51967 11.8946 6.70721 11.7071C6.89475 11.5196 7.0001 11.2652 7.0001 11C7.00105 10.5296 7.06838 10.0616 7.2001 9.61L13.5901 16H6.0001ZM18.4201 8.22C17.878 6.96725 16.9814 5.90032 15.8408 5.15054C14.7001 4.40076 13.3651 4.00084 12.0001 4C11.2093 3.9962 10.424 4.1316 9.6801 4.4C9.45207 4.50302 9.27095 4.68779 9.17249 4.91783C9.07403 5.14787 9.06539 5.40646 9.14827 5.64256C9.23116 5.87866 9.39955 6.0751 9.62019 6.19312C9.84084 6.31113 10.0977 6.34213 10.3401 6.28C10.8732 6.0918 11.4348 5.99707 12.0001 6C13.0437 6.00077 14.0609 6.32806 14.9091 6.93598C15.7573 7.54391 16.3941 8.402 16.7301 9.39C16.7873 9.56184 16.89 9.71493 17.0274 9.83294C17.1648 9.95094 17.3316 10.0294 17.5101 10.06C18.0186 10.15 18.4953 10.3697 18.894 10.6978C19.2927 11.026 19.5999 11.4516 19.786 11.9333C19.972 12.415 20.0306 12.9366 19.956 13.4475C19.8814 13.9585 19.6761 14.4416 19.3601 14.85C19.1966 15.0572 19.1217 15.3207 19.1516 15.583C19.1816 15.8452 19.3141 16.085 19.5201 16.25C19.696 16.3912 19.9145 16.4687 20.1401 16.47C20.2903 16.4693 20.4384 16.4348 20.5735 16.369C20.7085 16.3032 20.827 16.2079 20.9201 16.09C21.4215 15.4492 21.7589 14.6958 21.9031 13.895C22.0473 13.0943 21.994 12.2705 21.7476 11.495C21.5013 10.7196 21.0695 10.016 20.4896 9.44528C19.9097 8.87456 19.1994 8.45397 18.4201 8.22Z" />
</symbol><symbol viewBox="0 0 24 24" id="cloud-refresh-cloud">
<path d="M15.0003 12.5C14.8068 12.5013 14.6178 12.5586 14.4563 12.6651C14.2948 12.7716 14.1676 12.9227 14.0903 13.1C13.4595 12.7108 12.733 12.5045 11.9918 12.5041C11.2507 12.5038 10.524 12.7093 9.8928 13.0979C9.26165 13.4865 8.75086 14.0427 8.41743 14.7047C8.084 15.3666 7.94105 16.1082 8.00451 16.8466C8.06797 17.5851 8.33535 18.2914 8.77683 18.8867C9.2183 19.4821 9.81651 19.943 10.5047 20.2182C11.1929 20.4934 11.944 20.572 12.6743 20.4451C13.4045 20.3183 14.0851 19.9911 14.6403 19.5C14.7454 19.4153 14.8323 19.3102 14.8957 19.1911C14.9591 19.0719 14.9978 18.9411 15.0093 18.8066C15.0209 18.6721 15.005 18.5367 14.9628 18.4085C14.9206 18.2803 14.8529 18.1619 14.7637 18.0606C14.6745 17.9592 14.5657 17.877 14.4439 17.8188C14.3221 17.7607 14.1898 17.7277 14.0549 17.7221C13.92 17.7164 13.7854 17.7381 13.6592 17.7859C13.5329 17.8337 13.4176 17.9065 13.3203 18C12.9556 18.3216 12.4864 18.4993 12.0003 18.5C11.6964 18.4951 11.3977 18.4211 11.1268 18.2835C10.8559 18.1459 10.6199 17.9484 10.4367 17.7059C10.2536 17.4635 10.128 17.1825 10.0697 16.8843C10.0113 16.5861 10.0217 16.2785 10.1 15.9849C10.1783 15.6913 10.3225 15.4194 10.5215 15.1899C10.7206 14.9603 10.9694 14.7792 11.2489 14.6601C11.5285 14.5411 11.8315 14.4873 12.135 14.5029C12.4384 14.5185 12.7343 14.603 13.0003 14.75H12.7803C12.515 14.75 12.2607 14.8554 12.0731 15.0429C11.8856 15.2304 11.7803 15.4848 11.7803 15.75C11.7803 16.0152 11.8856 16.2696 12.0731 16.4571C12.2607 16.6446 12.515 16.75 12.7803 16.75H15.0003C15.2655 16.75 15.5198 16.6446 15.7074 16.4571C15.8949 16.2696 16.0003 16.0152 16.0003 15.75V13.5C16.0003 13.2348 15.8949 12.9804 15.7074 12.7929C15.5198 12.6054 15.2655 12.5 15.0003 12.5ZM18.4203 7.72C17.8092 6.31601 16.7547 5.15108 15.4183 4.40373C14.0819 3.65638 12.5373 3.36783 11.0212 3.58231C9.50513 3.79679 8.10118 4.50245 7.02451 5.59118C5.94784 6.6799 5.25784 8.09162 5.06025 9.61C4.22247 9.81405 3.47306 10.2834 2.9237 10.948C2.37435 11.6126 2.05447 12.437 2.01175 13.2982C1.96903 14.1594 2.20574 15.0114 2.68662 15.7271C3.16749 16.4428 3.86678 16.984 4.68025 17.27C4.78397 17.3019 4.89174 17.3188 5.00025 17.32C5.26547 17.3624 5.53668 17.2978 5.75422 17.1402C5.97177 16.9827 6.11782 16.7452 6.16025 16.48C6.20269 16.2148 6.13803 15.9436 5.9805 15.726C5.82297 15.5085 5.58547 15.3624 5.32026 15.32C4.94317 15.1839 4.61569 14.9376 4.38031 14.613C4.14493 14.2885 4.01252 13.9007 4.00025 13.5C4.00025 12.9696 4.21097 12.4609 4.58604 12.0858C4.96111 11.7107 5.46982 11.5 6.00025 11.5C6.26547 11.5 6.51983 11.3946 6.70736 11.2071C6.8949 11.0196 7.00026 10.7652 7.00026 10.5C7.00281 9.31728 7.42454 8.17375 8.19052 7.27259C8.95651 6.37142 10.0171 5.77095 11.184 5.57788C12.3509 5.3848 13.5484 5.61161 14.5638 6.21801C15.5793 6.82441 16.3469 7.77114 16.7303 8.89C16.7874 9.06184 16.8902 9.21493 17.0275 9.33293C17.1649 9.45094 17.3318 9.52942 17.5103 9.56C18.1116 9.66884 18.6654 9.95873 19.0974 10.3909C19.5295 10.823 19.8193 11.3768 19.9281 11.9782C20.0368 12.5796 19.9593 13.1998 19.7059 13.7559C19.4526 14.312 19.0354 14.7775 18.5103 15.09C18.2795 15.2226 18.1109 15.4414 18.0415 15.6984C17.9721 15.9553 18.0076 16.2293 18.1403 16.46C18.2729 16.6907 18.4917 16.8593 18.7486 16.9287C19.0056 16.9981 19.2795 16.9626 19.5103 16.83C20.2685 16.3899 20.8976 15.7582 21.3347 14.9982C21.7717 14.2382 22.0012 13.3767 22.0003 12.5C21.9972 11.4241 21.6472 10.3779 21.0023 9.51681C20.3573 8.65568 19.4518 8.02555 18.4203 7.72Z" />
</symbol><symbol viewBox="0 0 24 24" id="cloud-server">
<path d="M8 17C7.80222 17 7.60888 17.0586 7.44443 17.1685C7.27998 17.2784 7.15181 17.4346 7.07612 17.6173C7.00043 17.8 6.98063 18.0011 7.01921 18.1951C7.0578 18.3891 7.15304 18.5673 7.29289 18.7071C7.43275 18.847 7.61093 18.9422 7.80491 18.9808C7.99889 19.0194 8.19996 18.9996 8.38268 18.9239C8.56541 18.8482 8.72159 18.72 8.83147 18.5556C8.94135 18.3911 9 18.1978 9 18C9 17.7348 8.89464 17.4804 8.70711 17.2929C8.51957 17.1054 8.26522 17 8 17ZM8 11C7.80222 11 7.60888 11.0586 7.44443 11.1685C7.27998 11.2784 7.15181 11.4346 7.07612 11.6173C7.00043 11.8 6.98063 12.0011 7.01921 12.1951C7.0578 12.3891 7.15304 12.5673 7.29289 12.7071C7.43275 12.847 7.61093 12.9422 7.80491 12.9808C7.99889 13.0194 8.19996 12.9996 8.38268 12.9239C8.56541 12.8482 8.72159 12.72 8.83147 12.5556C8.94135 12.3911 9 12.1978 9 12C9 11.7348 8.89464 11.4804 8.70711 11.2929C8.51957 11.1054 8.26522 11 8 11ZM8 5C7.80222 5 7.60888 5.05865 7.44443 5.16853C7.27998 5.27841 7.15181 5.43459 7.07612 5.61732C7.00043 5.80004 6.98063 6.00111 7.01921 6.19509C7.0578 6.38907 7.15304 6.56725 7.29289 6.70711C7.43275 6.84696 7.61093 6.9422 7.80491 6.98079C7.99889 7.01937 8.19996 6.99957 8.38268 6.92388C8.56541 6.84819 8.72159 6.72002 8.83147 6.55557C8.94135 6.39112 9 6.19778 9 6C9 5.73478 8.89464 5.48043 8.70711 5.29289C8.51957 5.10536 8.26522 5 8 5ZM20 5C20 4.20435 19.6839 3.44129 19.1213 2.87868C18.5587 2.31607 17.7956 2 17 2H7C6.20435 2 5.44129 2.31607 4.87868 2.87868C4.31607 3.44129 4 4.20435 4 5V7C4.00441 7.74005 4.28221 8.45236 4.78 9C4.28221 9.54764 4.00441 10.2599 4 11V13C4.00441 13.7401 4.28221 14.4524 4.78 15C4.28221 15.5476 4.00441 16.2599 4 17V19C4 19.7956 4.31607 20.5587 4.87868 21.1213C5.44129 21.6839 6.20435 22 7 22H17C17.7956 22 18.5587 21.6839 19.1213 21.1213C19.6839 20.5587 20 19.7956 20 19V17C19.9956 16.2599 19.7178 15.5476 19.22 15C19.7178 14.4524 19.9956 13.7401 20 13V11C19.9956 10.2599 19.7178 9.54764 19.22 9C19.7178 8.45236 19.9956 7.74005 20 7V5ZM18 19C18 19.2652 17.8946 19.5196 17.7071 19.7071C17.5196 19.8946 17.2652 20 17 20H7C6.73478 20 6.48043 19.8946 6.29289 19.7071C6.10536 19.5196 6 19.2652 6 19V17C6 16.7348 6.10536 16.4804 6.29289 16.2929C6.48043 16.1054 6.73478 16 7 16H17C17.2652 16 17.5196 16.1054 17.7071 16.2929C17.8946 16.4804 18 16.7348 18 17V19ZM18 13C18 13.2652 17.8946 13.5196 17.7071 13.7071C17.5196 13.8946 17.2652 14 17 14H7C6.73478 14 6.48043 13.8946 6.29289 13.7071C6.10536 13.5196 6 13.2652 6 13V11C6 10.7348 6.10536 10.4804 6.29289 10.2929C6.48043 10.1054 6.73478 10 7 10H17C17.2652 10 17.5196 10.1054 17.7071 10.2929C17.8946 10.4804 18 10.7348 18 11V13ZM18 7C18 7.26522 17.8946 7.51957 17.7071 7.70711C17.5196 7.89464 17.2652 8 17 8H7C6.73478 8 6.48043 7.89464 6.29289 7.70711C6.10536 7.51957 6 7.26522 6 7V5C6 4.73478 6.10536 4.48043 6.29289 4.29289C6.48043 4.10536 6.73478 4 7 4H17C17.2652 4 17.5196 4.10536 17.7071 4.29289C17.8946 4.48043 18 4.73478 18 5V7Z" />
</symbol><symbol viewBox="0 0 24 24" id="cloud-server-1">
<path d="M11 13C10.8022 13 10.6089 13.0586 10.4444 13.1685C10.28 13.2784 10.1518 13.4346 10.0761 13.6173C10.0004 13.8 9.98063 14.0011 10.0192 14.1951C10.0578 14.3891 10.153 14.5673 10.2929 14.7071C10.4327 14.847 10.6109 14.9422 10.8049 14.9808C10.9989 15.0194 11.2 14.9996 11.3827 14.9239C11.5654 14.8482 11.7216 14.72 11.8315 14.5556C11.9414 14.3911 12 14.1978 12 14C12 13.7348 11.8946 13.4804 11.7071 13.2929C11.5196 13.1054 11.2652 13 11 13ZM7 13C6.80222 13 6.60888 13.0586 6.44443 13.1685C6.27998 13.2784 6.15181 13.4346 6.07612 13.6173C6.00043 13.8 5.98063 14.0011 6.01921 14.1951C6.0578 14.3891 6.15304 14.5673 6.29289 14.7071C6.43275 14.847 6.61093 14.9422 6.80491 14.9808C6.99889 15.0194 7.19996 14.9996 7.38268 14.9239C7.56541 14.8482 7.72159 14.72 7.83147 14.5556C7.94135 14.3911 8 14.1978 8 14C8 13.7348 7.89464 13.4804 7.70711 13.2929C7.51957 13.1054 7.26522 13 7 13ZM22 4C22 3.20435 21.6839 2.44129 21.1213 1.87868C20.5587 1.31607 19.7956 1 19 1H5C4.20435 1 3.44129 1.31607 2.87868 1.87868C2.31607 2.44129 2 3.20435 2 4V8C2.00441 8.74005 2.28221 9.45236 2.78 10C2.28221 10.5476 2.00441 11.2599 2 12V16C2 16.7956 2.31607 17.5587 2.87868 18.1213C3.44129 18.6839 4.20435 19 5 19H11V21H3C2.73478 21 2.48043 21.1054 2.29289 21.2929C2.10536 21.4804 2 21.7348 2 22C2 22.2652 2.10536 22.5196 2.29289 22.7071C2.48043 22.8946 2.73478 23 3 23H21C21.2652 23 21.5196 22.8946 21.7071 22.7071C21.8946 22.5196 22 22.2652 22 22C22 21.7348 21.8946 21.4804 21.7071 21.2929C21.5196 21.1054 21.2652 21 21 21H13V19H19C19.7956 19 20.5587 18.6839 21.1213 18.1213C21.6839 17.5587 22 16.7956 22 16V12C21.9956 11.2599 21.7178 10.5476 21.22 10C21.7178 9.45236 21.9956 8.74005 22 8V4ZM20 16C20 16.2652 19.8946 16.5196 19.7071 16.7071C19.5196 16.8946 19.2652 17 19 17H5C4.73478 17 4.48043 16.8946 4.29289 16.7071C4.10536 16.5196 4 16.2652 4 16V12C4 11.7348 4.10536 11.4804 4.29289 11.2929C4.48043 11.1054 4.73478 11 5 11H19C19.2652 11 19.5196 11.1054 19.7071 11.2929C19.8946 11.4804 20 11.7348 20 12V16ZM20 8C20 8.26522 19.8946 8.51957 19.7071 8.70711C19.5196 8.89464 19.2652 9 19 9H5C4.73478 9 4.48043 8.89464 4.29289 8.70711C4.10536 8.51957 4 8.26522 4 8V4C4 3.73478 4.10536 3.48043 4.29289 3.29289C4.48043 3.10536 4.73478 3 5 3H19C19.2652 3 19.5196 3.10536 19.7071 3.29289C19.8946 3.48043 20 3.73478 20 4V8ZM11 5C10.8022 5 10.6089 5.05865 10.4444 5.16853C10.28 5.27841 10.1518 5.43459 10.0761 5.61732C10.0004 5.80004 9.98063 6.00111 10.0192 6.19509C10.0578 6.38907 10.153 6.56725 10.2929 6.70711C10.4327 6.84696 10.6109 6.9422 10.8049 6.98079C10.9989 7.01937 11.2 6.99957 11.3827 6.92388C11.5654 6.84819 11.7216 6.72002 11.8315 6.55557C11.9414 6.39112 12 6.19778 12 6C12 5.73478 11.8946 5.48043 11.7071 5.29289C11.5196 5.10536 11.2652 5 11 5ZM7 5C6.80222 5 6.60888 5.05865 6.44443 5.16853C6.27998 5.27841 6.15181 5.43459 6.07612 5.61732C6.00043 5.80004 5.98063 6.00111 6.01921 6.19509C6.0578 6.38907 6.15304 6.56725 6.29289 6.70711C6.43275 6.84696 6.61093 6.9422 6.80491 6.98079C6.99889 7.01937 7.19996 6.99957 7.38268 6.92388C7.56541 6.84819 7.72159 6.72002 7.83147 6.55557C7.94135 6.39112 8 6.19778 8 6C8 5.73478 7.89464 5.48043 7.70711 5.29289C7.51957 5.10536 7.26522 5 7 5Z" />
</symbol><symbol viewBox="0 0 24 24" id="cloud-server-2">
<path d="M15 17C14.8022 17 14.6089 17.0586 14.4444 17.1685C14.28 17.2784 14.1518 17.4346 14.0761 17.6173C14.0004 17.8 13.9806 18.0011 14.0192 18.1951C14.0578 18.3891 14.153 18.5673 14.2929 18.7071C14.4327 18.847 14.6109 18.9422 14.8049 18.9808C14.9989 19.0194 15.2 18.9996 15.3827 18.9239C15.5654 18.8482 15.7216 18.72 15.8315 18.5556C15.9414 18.3911 16 18.1978 16 18C16 17.7348 15.8946 17.4804 15.7071 17.2929C15.5196 17.1054 15.2652 17 15 17ZM9 17H6C5.73478 17 5.48043 17.1054 5.29289 17.2929C5.10536 17.4804 5 17.7348 5 18C5 18.2652 5.10536 18.5196 5.29289 18.7071C5.48043 18.8946 5.73478 19 6 19H9C9.26522 19 9.51957 18.8946 9.70711 18.7071C9.89464 18.5196 10 18.2652 10 18C10 17.7348 9.89464 17.4804 9.70711 17.2929C9.51957 17.1054 9.26522 17 9 17ZM18 17C17.8022 17 17.6089 17.0586 17.4444 17.1685C17.28 17.2784 17.1518 17.4346 17.0761 17.6173C17.0004 17.8 16.9806 18.0011 17.0192 18.1951C17.0578 18.3891 17.153 18.5673 17.2929 18.7071C17.4327 18.847 17.6109 18.9422 17.8049 18.9808C17.9989 19.0194 18.2 18.9996 18.3827 18.9239C18.5654 18.8482 18.7216 18.72 18.8315 18.5556C18.9414 18.3911 19 18.1978 19 18C19 17.7348 18.8946 17.4804 18.7071 17.2929C18.5196 17.1054 18.2652 17 18 17ZM15 11C14.8022 11 14.6089 11.0586 14.4444 11.1685C14.28 11.2784 14.1518 11.4346 14.0761 11.6173C14.0004 11.8 13.9806 12.0011 14.0192 12.1951C14.0578 12.3891 14.153 12.5673 14.2929 12.7071C14.4327 12.847 14.6109 12.9422 14.8049 12.9808C14.9989 13.0194 15.2 12.9996 15.3827 12.9239C15.5654 12.8482 15.7216 12.72 15.8315 12.5556C15.9414 12.3911 16 12.1978 16 12C16 11.7348 15.8946 11.4804 15.7071 11.2929C15.5196 11.1054 15.2652 11 15 11ZM9 11H6C5.73478 11 5.48043 11.1054 5.29289 11.2929C5.10536 11.4804 5 11.7348 5 12C5 12.2652 5.10536 12.5196 5.29289 12.7071C5.48043 12.8946 5.73478 13 6 13H9C9.26522 13 9.51957 12.8946 9.70711 12.7071C9.89464 12.5196 10 12.2652 10 12C10 11.7348 9.89464 11.4804 9.70711 11.2929C9.51957 11.1054 9.26522 11 9 11ZM18 5C17.8022 5 17.6089 5.05865 17.4444 5.16853C17.28 5.27841 17.1518 5.43459 17.0761 5.61732C17.0004 5.80004 16.9806 6.00111 17.0192 6.19509C17.0578 6.38907 17.153 6.56725 17.2929 6.70711C17.4327 6.84696 17.6109 6.9422 17.8049 6.98079C17.9989 7.01937 18.2 6.99957 18.3827 6.92388C18.5654 6.84819 18.7216 6.72002 18.8315 6.55557C18.9414 6.39112 19 6.19778 19 6C19 5.73478 18.8946 5.48043 18.7071 5.29289C18.5196 5.10536 18.2652 5 18 5ZM18 11C17.8022 11 17.6089 11.0586 17.4444 11.1685C17.28 11.2784 17.1518 11.4346 17.0761 11.6173C17.0004 11.8 16.9806 12.0011 17.0192 12.1951C17.0578 12.3891 17.153 12.5673 17.2929 12.7071C17.4327 12.847 17.6109 12.9422 17.8049 12.9808C17.9989 13.0194 18.2 12.9996 18.3827 12.9239C18.5654 12.8482 18.7216 12.72 18.8315 12.5556C18.9414 12.3911 19 12.1978 19 12C19 11.7348 18.8946 11.4804 18.7071 11.2929C18.5196 11.1054 18.2652 11 18 11ZM22 5C22 4.20435 21.6839 3.44129 21.1213 2.87868C20.5587 2.31607 19.7956 2 19 2H5C4.20435 2 3.44129 2.31607 2.87868 2.87868C2.31607 3.44129 2 4.20435 2 5V7C2.00441 7.74005 2.28221 8.45236 2.78 9C2.28221 9.54764 2.00441 10.2599 2 11V13C2.00441 13.7401 2.28221 14.4524 2.78 15C2.28221 15.5476 2.00441 16.2599 2 17V19C2 19.7956 2.31607 20.5587 2.87868 21.1213C3.44129 21.6839 4.20435 22 5 22H19C19.7956 22 20.5587 21.6839 21.1213 21.1213C21.6839 20.5587 22 19.7956 22 19V17C21.9956 16.2599 21.7178 15.5476 21.22 15C21.7178 14.4524 21.9956 13.7401 22 13V11C21.9956 10.2599 21.7178 9.54764 21.22 9C21.7178 8.45236 21.9956 7.74005 22 7V5ZM20 19C20 19.2652 19.8946 19.5196 19.7071 19.7071C19.5196 19.8946 19.2652 20 19 20H5C4.73478 20 4.48043 19.8946 4.29289 19.7071C4.10536 19.5196 4 19.2652 4 19V17C4 16.7348 4.10536 16.4804 4.29289 16.2929C4.48043 16.1054 4.73478 16 5 16H19C19.2652 16 19.5196 16.1054 19.7071 16.2929C19.8946 16.4804 20 16.7348 20 17V19ZM20 13C20 13.2652 19.8946 13.5196 19.7071 13.7071C19.5196 13.8946 19.2652 14 19 14H5C4.73478 14 4.48043 13.8946 4.29289 13.7071C4.10536 13.5196 4 13.2652 4 13V11C4 10.7348 4.10536 10.4804 4.29289 10.2929C4.48043 10.1054 4.73478 10 5 10H19C19.2652 10 19.5196 10.1054 19.7071 10.2929C19.8946 10.4804 20 10.7348 20 11V13ZM20 7C20 7.26522 19.8946 7.51957 19.7071 7.70711C19.5196 7.89464 19.2652 8 19 8H5C4.73478 8 4.48043 7.89464 4.29289 7.70711C4.10536 7.51957 4 7.26522 4 7V5C4 4.73478 4.10536 4.48043 4.29289 4.29289C4.48043 4.10536 4.73478 4 5 4H19C19.2652 4 19.5196 4.10536 19.7071 4.29289C19.8946 4.48043 20 4.73478 20 5V7ZM15 5C14.8022 5 14.6089 5.05865 14.4444 5.16853C14.28 5.27841 14.1518 5.43459 14.0761 5.61732C14.0004 5.80004 13.9806 6.00111 14.0192 6.19509C14.0578 6.38907 14.153 6.56725 14.2929 6.70711C14.4327 6.84696 14.6109 6.9422 14.8049 6.98079C14.9989 7.01937 15.2 6.99957 15.3827 6.92388C15.5654 6.84819 15.7216 6.72002 15.8315 6.55557C15.9414 6.39112 16 6.19778 16 6C16 5.73478 15.8946 5.48043 15.7071 5.29289C15.5196 5.10536 15.2652 5 15 5ZM9 5H6C5.73478 5 5.48043 5.10536 5.29289 5.29289C5.10536 5.48043 5 5.73478 5 6C5 6.26522 5.10536 6.51957 5.29289 6.70711C5.48043 6.89464 5.73478 7 6 7H9C9.26522 7 9.51957 6.89464 9.70711 6.70711C9.89464 6.51957 10 6.26522 10 6C10 5.73478 9.89464 5.48043 9.70711 5.29289C9.51957 5.10536 9.26522 5 9 5Z" />
</symbol><symbol viewBox="0 0 24 24" id="cloud-server-connection">
<path d="M8 6H11C11.2652 6 11.5196 5.89464 11.7071 5.70711C11.8946 5.51957 12 5.26522 12 5C12 4.73478 11.8946 4.48043 11.7071 4.29289C11.5196 4.10536 11.2652 4 11 4H8C7.73478 4 7.48043 4.10536 7.29289 4.29289C7.10536 4.48043 7 4.73478 7 5C7 5.26522 7.10536 5.51957 7.29289 5.70711C7.48043 5.89464 7.73478 6 8 6ZM16 6C16.1978 6 16.3911 5.94135 16.5556 5.83147C16.72 5.72159 16.8482 5.56541 16.9239 5.38268C16.9996 5.19996 17.0194 4.99889 16.9808 4.80491C16.9422 4.61093 16.847 4.43275 16.7071 4.29289C16.5673 4.15304 16.3891 4.0578 16.1951 4.01921C16.0011 3.98063 15.8 4.00043 15.6173 4.07612C15.4346 4.15181 15.2784 4.27998 15.1685 4.44443C15.0586 4.60888 15 4.80222 15 5C15 5.26522 15.1054 5.51957 15.2929 5.70711C15.4804 5.89464 15.7348 6 16 6ZM16 10C15.8022 10 15.6089 10.0586 15.4444 10.1685C15.28 10.2784 15.1518 10.4346 15.0761 10.6173C15.0004 10.8 14.9806 11.0011 15.0192 11.1951C15.0578 11.3891 15.153 11.5673 15.2929 11.7071C15.4327 11.847 15.6109 11.9422 15.8049 11.9808C15.9989 12.0194 16.2 11.9996 16.3827 11.9239C16.5654 11.8482 16.7216 11.72 16.8315 11.5556C16.9414 11.3911 17 11.1978 17 11C17 10.7348 16.8946 10.4804 16.7071 10.2929C16.5196 10.1054 16.2652 10 16 10ZM21 19H14.82C14.6707 18.5806 14.4299 18.1997 14.1151 17.8849C13.8003 17.5701 13.4194 17.3293 13 17.18V15H17C17.7956 15 18.5587 14.6839 19.1213 14.1213C19.6839 13.5587 20 12.7956 20 12V10C19.9956 9.25994 19.7178 8.54764 19.22 8C19.7178 7.45236 19.9956 6.74005 20 6V4C20 3.20435 19.6839 2.44129 19.1213 1.87868C18.5587 1.31607 17.7956 1 17 1H7C6.20435 1 5.44129 1.31607 4.87868 1.87868C4.31607 2.44129 4 3.20435 4 4V6C4.00441 6.74005 4.28221 7.45236 4.78 8C4.28221 8.54764 4.00441 9.25994 4 10V12C4 12.7956 4.31607 13.5587 4.87868 14.1213C5.44129 14.6839 6.20435 15 7 15H11V17.18C10.5806 17.3293 10.1997 17.5701 9.8849 17.8849C9.57011 18.1997 9.32932 18.5806 9.18 19H3C2.73478 19 2.48043 19.1054 2.29289 19.2929C2.10536 19.4804 2 19.7348 2 20C2 20.2652 2.10536 20.5196 2.29289 20.7071C2.48043 20.8946 2.73478 21 3 21H9.18C9.3902 21.5792 9.77363 22.0795 10.2782 22.4332C10.7827 22.7868 11.3839 22.9765 12 22.9765C12.6161 22.9765 13.2173 22.7868 13.7218 22.4332C14.2264 22.0795 14.6098 21.5792 14.82 21H21C21.2652 21 21.5196 20.8946 21.7071 20.7071C21.8946 20.5196 22 20.2652 22 20C22 19.7348 21.8946 19.4804 21.7071 19.2929C21.5196 19.1054 21.2652 19 21 19ZM6 4C6 3.73478 6.10536 3.48043 6.29289 3.29289C6.48043 3.10536 6.73478 3 7 3H17C17.2652 3 17.5196 3.10536 17.7071 3.29289C17.8946 3.48043 18 3.73478 18 4V6C18 6.26522 17.8946 6.51957 17.7071 6.70711C17.5196 6.89464 17.2652 7 17 7H7C6.73478 7 6.48043 6.89464 6.29289 6.70711C6.10536 6.51957 6 6.26522 6 6V4ZM7 13C6.73478 13 6.48043 12.8946 6.29289 12.7071C6.10536 12.5196 6 12.2652 6 12V10C6 9.73478 6.10536 9.48043 6.29289 9.29289C6.48043 9.10536 6.73478 9 7 9H17C17.2652 9 17.5196 9.10536 17.7071 9.29289C17.8946 9.48043 18 9.73478 18 10V12C18 12.2652 17.8946 12.5196 17.7071 12.7071C17.5196 12.8946 17.2652 13 17 13H7ZM12 21C11.8022 21 11.6089 20.9414 11.4444 20.8315C11.28 20.7216 11.1518 20.5654 11.0761 20.3827C11.0004 20.2 10.9806 19.9989 11.0192 19.8049C11.0578 19.6109 11.153 19.4327 11.2929 19.2929C11.4327 19.153 11.6109 19.0578 11.8049 19.0192C11.9989 18.9806 12.2 19.0004 12.3827 19.0761C12.5654 19.1518 12.7216 19.28 12.8315 19.4444C12.9414 19.6089 13 19.8022 13 20C13 20.2652 12.8946 20.5196 12.7071 20.7071C12.5196 20.8946 12.2652 21 12 21ZM11 10H8C7.73478 10 7.48043 10.1054 7.29289 10.2929C7.10536 10.4804 7 10.7348 7 11C7 11.2652 7.10536 11.5196 7.29289 11.7071C7.48043 11.8946 7.73478 12 8 12H11C11.2652 12 11.5196 11.8946 11.7071 11.7071C11.8946 11.5196 12 11.2652 12 11C12 10.7348 11.8946 10.4804 11.7071 10.2929C11.5196 10.1054 11.2652 10 11 10Z" />
</symbol><symbol viewBox="0 0 24 24" id="cloud-server-connection-1">
<path d="M8 6C8.19778 6 8.39112 5.94135 8.55557 5.83147C8.72002 5.72159 8.84819 5.56541 8.92388 5.38268C8.99957 5.19996 9.01937 4.99889 8.98079 4.80491C8.9422 4.61093 8.84696 4.43275 8.70711 4.29289C8.56725 4.15304 8.38907 4.0578 8.19509 4.01921C8.00111 3.98063 7.80004 4.00043 7.61732 4.07612C7.43459 4.15181 7.27841 4.27998 7.16853 4.44443C7.05865 4.60888 7 4.80222 7 5C7 5.26522 7.10536 5.51957 7.29289 5.70711C7.48043 5.89464 7.73478 6 8 6ZM21 19H14.82C14.6707 18.5806 14.4299 18.1997 14.1151 17.8849C13.8003 17.5701 13.4194 17.3293 13 17.18V15H17C17.7956 15 18.5587 14.6839 19.1213 14.1213C19.6839 13.5587 20 12.7956 20 12V10C19.9956 9.25994 19.7178 8.54764 19.22 8C19.7178 7.45236 19.9956 6.74005 20 6V4C20 3.20435 19.6839 2.44129 19.1213 1.87868C18.5587 1.31607 17.7956 1 17 1H7C6.20435 1 5.44129 1.31607 4.87868 1.87868C4.31607 2.44129 4 3.20435 4 4V6C4.00441 6.74005 4.28221 7.45236 4.78 8C4.28221 8.54764 4.00441 9.25994 4 10V12C4 12.7956 4.31607 13.5587 4.87868 14.1213C5.44129 14.6839 6.20435 15 7 15H11V17.18C10.5806 17.3293 10.1997 17.5701 9.8849 17.8849C9.57011 18.1997 9.32932 18.5806 9.18 19H3C2.73478 19 2.48043 19.1054 2.29289 19.2929C2.10536 19.4804 2 19.7348 2 20C2 20.2652 2.10536 20.5196 2.29289 20.7071C2.48043 20.8946 2.73478 21 3 21H9.18C9.3902 21.5792 9.77363 22.0795 10.2782 22.4332C10.7827 22.7868 11.3839 22.9765 12 22.9765C12.6161 22.9765 13.2173 22.7868 13.7218 22.4332C14.2264 22.0795 14.6098 21.5792 14.82 21H21C21.2652 21 21.5196 20.8946 21.7071 20.7071C21.8946 20.5196 22 20.2652 22 20C22 19.7348 21.8946 19.4804 21.7071 19.2929C21.5196 19.1054 21.2652 19 21 19ZM6 4C6 3.73478 6.10536 3.48043 6.29289 3.29289C6.48043 3.10536 6.73478 3 7 3H17C17.2652 3 17.5196 3.10536 17.7071 3.29289C17.8946 3.48043 18 3.73478 18 4V6C18 6.26522 17.8946 6.51957 17.7071 6.70711C17.5196 6.89464 17.2652 7 17 7H7C6.73478 7 6.48043 6.89464 6.29289 6.70711C6.10536 6.51957 6 6.26522 6 6V4ZM7 13C6.73478 13 6.48043 12.8946 6.29289 12.7071C6.10536 12.5196 6 12.2652 6 12V10C6 9.73478 6.10536 9.48043 6.29289 9.29289C6.48043 9.10536 6.73478 9 7 9H17C17.2652 9 17.5196 9.10536 17.7071 9.29289C17.8946 9.48043 18 9.73478 18 10V12C18 12.2652 17.8946 12.5196 17.7071 12.7071C17.5196 12.8946 17.2652 13 17 13H7ZM12 21C11.8022 21 11.6089 20.9414 11.4444 20.8315C11.28 20.7216 11.1518 20.5654 11.0761 20.3827C11.0004 20.2 10.9806 19.9989 11.0192 19.8049C11.0578 19.6109 11.153 19.4327 11.2929 19.2929C11.4327 19.153 11.6109 19.0578 11.8049 19.0192C11.9989 18.9806 12.2 19.0004 12.3827 19.0761C12.5654 19.1518 12.7216 19.28 12.8315 19.4444C12.9414 19.6089 13 19.8022 13 20C13 20.2652 12.8946 20.5196 12.7071 20.7071C12.5196 20.8946 12.2652 21 12 21ZM8 10C7.80222 10 7.60888 10.0586 7.44443 10.1685C7.27998 10.2784 7.15181 10.4346 7.07612 10.6173C7.00043 10.8 6.98063 11.0011 7.01921 11.1951C7.0578 11.3891 7.15304 11.5673 7.29289 11.7071C7.43275 11.847 7.61093 11.9422 7.80491 11.9808C7.99889 12.0194 8.19996 11.9996 8.38268 11.9239C8.56541 11.8482 8.72159 11.72 8.83147 11.5556C8.94135 11.3911 9 11.1978 9 11C9 10.7348 8.89464 10.4804 8.70711 10.2929C8.51957 10.1054 8.26522 10 8 10Z" />
</symbol><symbol viewBox="0 0 24 24" id="cloud-server-connection-2">
<path d="M15 17C14.8022 17 14.6089 17.0586 14.4444 17.1685C14.28 17.2784 14.1518 17.4346 14.0761 17.6173C14.0004 17.8 13.9806 18.0011 14.0192 18.1951C14.0578 18.3891 14.153 18.5673 14.2929 18.7071C14.4327 18.847 14.6109 18.9422 14.8049 18.9808C14.9989 19.0194 15.2 18.9996 15.3827 18.9239C15.5654 18.8482 15.7216 18.72 15.8315 18.5556C15.9414 18.3911 16 18.1978 16 18C16 17.7348 15.8946 17.4804 15.7071 17.2929C15.5196 17.1054 15.2652 17 15 17ZM11 17H9C8.73478 17 8.48043 17.1054 8.29289 17.2929C8.10536 17.4804 8 17.7348 8 18C8 18.2652 8.10536 18.5196 8.29289 18.7071C8.48043 18.8946 8.73478 19 9 19H11C11.2652 19 11.5196 18.8946 11.7071 18.7071C11.8946 18.5196 12 18.2652 12 18C12 17.7348 11.8946 17.4804 11.7071 17.2929C11.5196 17.1054 11.2652 17 11 17ZM11 11H9C8.73478 11 8.48043 11.1054 8.29289 11.2929C8.10536 11.4804 8 11.7348 8 12C8 12.2652 8.10536 12.5196 8.29289 12.7071C8.48043 12.8946 8.73478 13 9 13H11C11.2652 13 11.5196 12.8946 11.7071 12.7071C11.8946 12.5196 12 12.2652 12 12C12 11.7348 11.8946 11.4804 11.7071 11.2929C11.5196 11.1054 11.2652 11 11 11ZM15 11C14.8022 11 14.6089 11.0586 14.4444 11.1685C14.28 11.2784 14.1518 11.4346 14.0761 11.6173C14.0004 11.8 13.9806 12.0011 14.0192 12.1951C14.0578 12.3891 14.153 12.5673 14.2929 12.7071C14.4327 12.847 14.6109 12.9422 14.8049 12.9808C14.9989 13.0194 15.2 12.9996 15.3827 12.9239C15.5654 12.8482 15.7216 12.72 15.8315 12.5556C15.9414 12.3911 16 12.1978 16 12C16 11.7348 15.8946 11.4804 15.7071 11.2929C15.5196 11.1054 15.2652 11 15 11ZM23 8C23 7.20435 22.6839 6.44129 22.1213 5.87868C21.5587 5.31607 20.7956 5 20 5H19C19 4.20435 18.6839 3.44129 18.1213 2.87868C17.5587 2.31607 16.7956 2 16 2H8C7.20435 2 6.44129 2.31607 5.87868 2.87868C5.31607 3.44129 5 4.20435 5 5H4C3.20435 5 2.44129 5.31607 1.87868 5.87868C1.31607 6.44129 1 7.20435 1 8V10C1.00441 10.7401 1.28221 11.4524 1.78 12C1.28221 12.5476 1.00441 13.2599 1 14V16C1 16.7956 1.31607 17.5587 1.87868 18.1213C2.44129 18.6839 3.20435 19 4 19H5C5 19.7956 5.31607 20.5587 5.87868 21.1213C6.44129 21.6839 7.20435 22 8 22H16C16.7956 22 17.5587 21.6839 18.1213 21.1213C18.6839 20.5587 19 19.7956 19 19H20C20.7956 19 21.5587 18.6839 22.1213 18.1213C22.6839 17.5587 23 16.7956 23 16V14C22.9956 13.2599 22.7178 12.5476 22.22 12C22.7178 11.4524 22.9956 10.7401 23 10V8ZM5 17H4C3.73478 17 3.48043 16.8946 3.29289 16.7071C3.10536 16.5196 3 16.2652 3 16V14C3 13.7348 3.10536 13.4804 3.29289 13.2929C3.48043 13.1054 3.73478 13 4 13H5C5.00441 13.7401 5.28221 14.4524 5.78 15C5.28221 15.5476 5.00441 16.2599 5 17ZM5 11H4C3.73478 11 3.48043 10.8946 3.29289 10.7071C3.10536 10.5196 3 10.2652 3 10V8C3 7.73478 3.10536 7.48043 3.29289 7.29289C3.48043 7.10536 3.73478 7 4 7H5C5.00441 7.74005 5.28221 8.45236 5.78 9C5.28221 9.54764 5.00441 10.2599 5 11ZM17 19C17 19.2652 16.8946 19.5196 16.7071 19.7071C16.5196 19.8946 16.2652 20 16 20H8C7.73478 20 7.48043 19.8946 7.29289 19.7071C7.10536 19.5196 7 19.2652 7 19V17C7 16.7348 7.10536 16.4804 7.29289 16.2929C7.48043 16.1054 7.73478 16 8 16H16C16.2652 16 16.5196 16.1054 16.7071 16.2929C16.8946 16.4804 17 16.7348 17 17V19ZM17 13C17 13.2652 16.8946 13.5196 16.7071 13.7071C16.5196 13.8946 16.2652 14 16 14H8C7.73478 14 7.48043 13.8946 7.29289 13.7071C7.10536 13.5196 7 13.2652 7 13V11C7 10.7348 7.10536 10.4804 7.29289 10.2929C7.48043 10.1054 7.73478 10 8 10H16C16.2652 10 16.5196 10.1054 16.7071 10.2929C16.8946 10.4804 17 10.7348 17 11V13ZM17 7C17 7.26522 16.8946 7.51957 16.7071 7.70711C16.5196 7.89464 16.2652 8 16 8H8C7.73478 8 7.48043 7.89464 7.29289 7.70711C7.10536 7.51957 7 7.26522 7 7V5C7 4.73478 7.10536 4.48043 7.29289 4.29289C7.48043 4.10536 7.73478 4 8 4H16C16.2652 4 16.5196 4.10536 16.7071 4.29289C16.8946 4.48043 17 4.73478 17 5V7ZM21 16C21 16.2652 20.8946 16.5196 20.7071 16.7071C20.5196 16.8946 20.2652 17 20 17H19C18.9956 16.2599 18.7178 15.5476 18.22 15C18.7178 14.4524 18.9956 13.7401 19 13H20C20.2652 13 20.5196 13.1054 20.7071 13.2929C20.8946 13.4804 21 13.7348 21 14V16ZM21 10C21 10.2652 20.8946 10.5196 20.7071 10.7071C20.5196 10.8946 20.2652 11 20 11H19C18.9956 10.2599 18.7178 9.54764 18.22 9C18.7178 8.45236 18.9956 7.74005 19 7H20C20.2652 7 20.5196 7.10536 20.7071 7.29289C20.8946 7.48043 21 7.73478 21 8V10ZM15 5C14.8022 5 14.6089 5.05865 14.4444 5.16853C14.28 5.27841 14.1518 5.43459 14.0761 5.61732C14.0004 5.80004 13.9806 6.00111 14.0192 6.19509C14.0578 6.38907 14.153 6.56725 14.2929 6.70711C14.4327 6.84696 14.6109 6.9422 14.8049 6.98079C14.9989 7.01937 15.2 6.99957 15.3827 6.92388C15.5654 6.84819 15.7216 6.72002 15.8315 6.55557C15.9414 6.39112 16 6.19778 16 6C16 5.73478 15.8946 5.48043 15.7071 5.29289C15.5196 5.10536 15.2652 5 15 5ZM11 5H9C8.73478 5 8.48043 5.10536 8.29289 5.29289C8.10536 5.48043 8 5.73478 8 6C8 6.26522 8.10536 6.51957 8.29289 6.70711C8.48043 6.89464 8.73478 7 9 7H11C11.2652 7 11.5196 6.89464 11.7071 6.70711C11.8946 6.51957 12 6.26522 12 6C12 5.73478 11.8946 5.48043 11.7071 5.29289C11.5196 5.10536 11.2652 5 11 5Z" />
</symbol><symbol viewBox="0 0 24 24" id="cloud-share-cloud">
<path d="M14.5003 15C14.8958 15 15.2825 14.8827 15.6114 14.6629C15.9403 14.4432 16.1966 14.1308 16.348 13.7654C16.4994 13.3999 16.539 12.9978 16.4618 12.6098C16.3847 12.2219 16.1942 11.8655 15.9145 11.5858C15.6348 11.3061 15.2784 11.1156 14.8904 11.0384C14.5025 10.9613 14.1003 11.0009 13.7349 11.1522C13.3694 11.3036 13.0571 11.56 12.8373 11.8889C12.6176 12.2178 12.5003 12.6044 12.5003 13L10.6003 13.87C10.2737 13.6548 9.8913 13.5401 9.50026 13.54C8.96982 13.54 8.46111 13.7507 8.08604 14.1258C7.71097 14.5009 7.50026 15.0096 7.50026 15.54C7.50026 16.0704 7.71097 16.5791 8.08604 16.9542C8.46111 17.3293 8.96982 17.54 9.50026 17.54C9.82242 17.5401 10.1392 17.4575 10.4203 17.3L12.5203 18.3C12.5709 18.737 12.7642 19.1452 13.0703 19.4612C13.3763 19.7773 13.778 19.9836 14.2132 20.0482C14.6484 20.1128 15.0928 20.0321 15.4774 19.8186C15.8621 19.6052 16.1657 19.2708 16.3411 18.8673C16.5165 18.4639 16.554 18.0138 16.4478 17.5869C16.3415 17.1599 16.0975 16.78 15.7534 16.5058C15.4093 16.2316 14.9845 16.0785 14.5446 16.0702C14.1047 16.062 13.6744 16.1989 13.3203 16.46L11.5703 15.66L13.4803 14.78C13.7948 14.9423 14.1468 15.0182 14.5003 15ZM18.4203 7.22C17.8092 5.816 16.7547 4.65108 15.4183 3.90373C14.0819 3.15638 12.5373 2.86783 11.0212 3.08231C9.50513 3.29679 8.10118 4.00245 7.02451 5.09117C5.94784 6.1799 5.25784 7.59161 5.06025 9.11C4.22247 9.31405 3.47306 9.78337 2.9237 10.448C2.37435 11.1126 2.05447 11.937 2.01175 12.7982C1.96903 13.6594 2.20574 14.5114 2.68662 15.2271C3.16749 15.9428 3.86678 16.484 4.68025 16.77C4.78397 16.8019 4.89174 16.8188 5.00025 16.82C5.26547 16.8624 5.53668 16.7978 5.75422 16.6402C5.97177 16.4827 6.11782 16.2452 6.16025 15.98C6.20269 15.7148 6.13803 15.4436 5.9805 15.226C5.82297 15.0085 5.58547 14.8624 5.32026 14.82C4.94317 14.6839 4.61569 14.4376 4.38031 14.113C4.14493 13.7885 4.01252 13.4007 4.00025 13C4.00025 12.4696 4.21097 11.9609 4.58604 11.5858C4.96111 11.2107 5.46982 11 6.00025 11C6.26547 11 6.51983 10.8946 6.70736 10.7071C6.8949 10.5196 7.00026 10.2652 7.00026 10C7.00281 8.81728 7.42454 7.67375 8.19052 6.77258C8.95651 5.87141 10.0171 5.27095 11.184 5.07787C12.3509 4.8848 13.5484 5.11161 14.5638 5.71801C15.5793 6.32441 16.3469 7.27114 16.7303 8.39C16.7874 8.56184 16.8902 8.71493 17.0275 8.83293C17.1649 8.95093 17.3318 9.02942 17.5103 9.06C18.1116 9.16884 18.6654 9.45873 19.0974 9.89088C19.5295 10.323 19.8193 10.8768 19.9281 11.4782C20.0368 12.0796 19.9593 12.6998 19.7059 13.2559C19.4526 13.812 19.0354 14.2775 18.5103 14.59C18.2795 14.7226 18.1109 14.9414 18.0415 15.1984C17.9721 15.4553 18.0076 15.7293 18.1403 15.96C18.2729 16.1907 18.4917 16.3593 18.7486 16.4287C19.0056 16.4981 19.2795 16.4626 19.5103 16.33C20.2685 15.8899 20.8976 15.2582 21.3347 14.4982C21.7717 13.7382 22.0012 12.8767 22.0003 12C21.9972 10.9241 21.6472 9.87794 21.0023 9.01681C20.3573 8.15568 19.4518 7.52554 18.4203 7.22Z" />
</symbol><symbol viewBox="0 0 24 24" id="cloud-shield">
<path d="M18.4203 7.22C17.8092 5.816 16.7547 4.65108 15.4183 3.90373C14.0819 3.15638 12.5373 2.86783 11.0212 3.08231C9.50513 3.29679 8.10118 4.00245 7.02451 5.09117C5.94784 6.1799 5.25784 7.59161 5.06025 9.11C4.22247 9.31405 3.47306 9.78337 2.9237 10.448C2.37435 11.1126 2.05447 11.937 2.01175 12.7982C1.96903 13.6594 2.20574 14.5114 2.68662 15.2271C3.16749 15.9428 3.86678 16.484 4.68025 16.77C4.78397 16.8019 4.89174 16.8188 5.00025 16.82C5.26547 16.8624 5.53668 16.7978 5.75422 16.6402C5.97177 16.4827 6.11782 16.2452 6.16025 15.98C6.20269 15.7148 6.13803 15.4436 5.9805 15.226C5.82297 15.0085 5.58547 14.8624 5.32026 14.82C4.94317 14.6839 4.61569 14.4376 4.38031 14.113C4.14493 13.7885 4.01252 13.4007 4.00025 13C4.00025 12.4696 4.21097 11.9609 4.58604 11.5858C4.96111 11.2107 5.46982 11 6.00025 11C6.26547 11 6.51983 10.8946 6.70736 10.7071C6.8949 10.5196 7.00026 10.2652 7.00026 10C7.00281 8.81728 7.42454 7.67375 8.19052 6.77258C8.95651 5.87141 10.0171 5.27095 11.184 5.07787C12.3509 4.8848 13.5484 5.11161 14.5638 5.71801C15.5793 6.32441 16.3469 7.27114 16.7303 8.39C16.7874 8.56184 16.8902 8.71493 17.0275 8.83293C17.1649 8.95093 17.3318 9.02942 17.5103 9.06C18.1116 9.16884 18.6654 9.45873 19.0974 9.89088C19.5295 10.323 19.8193 10.8768 19.9281 11.4782C20.0368 12.0796 19.9593 12.6998 19.7059 13.2559C19.4526 13.812 19.0354 14.2775 18.5103 14.59C18.2795 14.7226 18.1109 14.9414 18.0415 15.1984C17.9721 15.4553 18.0076 15.7293 18.1403 15.96C18.2729 16.1907 18.4917 16.3593 18.7486 16.4287C19.0056 16.4981 19.2795 16.4626 19.5103 16.33C20.2685 15.8899 20.8976 15.2582 21.3347 14.4982C21.7717 13.7382 22.0012 12.8767 22.0003 12C21.9972 10.9241 21.6472 9.87794 21.0023 9.01681C20.3573 8.15568 19.4518 7.52554 18.4203 7.22ZM14.7903 11.66C14.4112 11.7425 14.0189 11.7432 13.6396 11.6621C13.2602 11.5811 12.9025 11.4201 12.5903 11.19C12.419 11.0649 12.2124 10.9974 12.0003 10.9974C11.7881 10.9974 11.5815 11.0649 11.4103 11.19C11.0983 11.4207 10.7406 11.582 10.3611 11.6631C9.98167 11.7442 9.58926 11.7431 9.21026 11.66C9.06419 11.6285 8.91292 11.6301 8.76756 11.6647C8.62219 11.6993 8.48643 11.766 8.37025 11.86C8.25554 11.9531 8.16287 12.0704 8.09889 12.2035C8.03492 12.3366 8.00123 12.4823 8.00026 12.63V16C7.99948 16.7171 8.16528 17.4246 8.48458 18.0667C8.80389 18.7087 9.26798 19.2679 9.84026 19.7L11.4103 20.85C11.5815 20.9751 11.7881 21.0426 12.0003 21.0426C12.2124 21.0426 12.419 20.9751 12.5903 20.85L14.1603 19.69C14.7329 19.2605 15.1974 18.7033 15.5169 18.0627C15.8363 17.4221 16.0018 16.7158 16.0003 16V12.63C15.9993 12.4823 15.9656 12.3366 15.9016 12.2035C15.8376 12.0704 15.745 11.9531 15.6303 11.86C15.5141 11.766 15.3783 11.6993 15.233 11.6647C15.0876 11.6301 14.9363 11.6285 14.7903 11.66ZM14.0003 16C13.9915 16.3865 13.8972 16.7663 13.7243 17.112C13.5514 17.4578 13.3042 17.7611 13.0003 18L12.0003 18.72L11.0003 18C10.6963 17.7611 10.4491 17.4578 10.2762 17.112C10.1033 16.7663 10.0091 16.3865 10.0003 16V13.72C10.6997 13.6886 11.3831 13.5006 12.0003 13.17C12.6174 13.5006 13.3008 13.6886 14.0003 13.72V16Z" />
</symbol><symbol viewBox="0 0 24 24" id="cloud-unlock-cloud">
<path d="M14.0003 15.5H11.0003V14.5C10.9945 14.2752 11.0646 14.0551 11.1994 13.8751C11.3341 13.6951 11.5256 13.5657 11.7429 13.508C11.9602 13.4502 12.1906 13.4673 12.397 13.5566C12.6033 13.6458 12.7736 13.8021 12.8803 14C13.0172 14.2264 13.2382 14.3893 13.495 14.453C13.7518 14.5167 14.0234 14.4761 14.2503 14.34C14.4686 14.2034 14.6258 13.9878 14.6891 13.7382C14.7524 13.4886 14.717 13.2242 14.5903 13C14.4615 12.7854 14.307 12.5872 14.1303 12.41C13.8532 12.1247 13.5223 11.8974 13.1566 11.7411C12.791 11.5849 12.3979 11.503 12.0003 11.5C11.2046 11.5 10.4415 11.8161 9.87893 12.3787C9.31633 12.9413 9.00026 13.7044 9.00026 14.5V15.68C8.33888 15.92 7.7829 16.3848 7.42948 16.9931C7.07607 17.6015 6.94772 18.3147 7.06686 19.0081C7.186 19.7015 7.54505 20.331 8.08126 20.7865C8.61747 21.242 9.29671 21.4945 10.0003 21.5H14.0003C14.7959 21.5 15.559 21.1839 16.1216 20.6213C16.6842 20.0587 17.0003 19.2956 17.0003 18.5C17.0003 17.7044 16.6842 16.9413 16.1216 16.3787C15.559 15.8161 14.7959 15.5 14.0003 15.5ZM14.0003 19.5H10.0003C9.73504 19.5 9.48068 19.3946 9.29315 19.2071C9.10561 19.0196 9.00026 18.7652 9.00026 18.5C9.00026 18.2348 9.10561 17.9804 9.29315 17.7929C9.48068 17.6054 9.73504 17.5 10.0003 17.5H14.0003C14.2655 17.5 14.5198 17.6054 14.7074 17.7929C14.8949 17.9804 15.0003 18.2348 15.0003 18.5C15.0003 18.7652 14.8949 19.0196 14.7074 19.2071C14.5198 19.3946 14.2655 19.5 14.0003 19.5ZM18.4203 6.72C17.8092 5.316 16.7547 4.15108 15.4183 3.40373C14.0819 2.65638 12.5373 2.36783 11.0212 2.58231C9.50513 2.79679 8.10118 3.50245 7.02451 4.59117C5.94784 5.6799 5.25784 7.09161 5.06025 8.61C4.22247 8.81405 3.47306 9.28337 2.9237 9.948C2.37435 10.6126 2.05447 11.437 2.01175 12.2982C1.96903 13.1594 2.20574 14.0114 2.68662 14.7271C3.16749 15.4428 3.86678 15.984 4.68025 16.27C4.78397 16.3019 4.89174 16.3188 5.00025 16.32C5.26547 16.3624 5.53668 16.2978 5.75422 16.1402C5.97177 15.9827 6.11782 15.7452 6.16025 15.48C6.20269 15.2148 6.13803 14.9436 5.9805 14.726C5.82297 14.5085 5.58547 14.3624 5.32026 14.32C4.94317 14.1839 4.61569 13.9376 4.38031 13.613C4.14493 13.2885 4.01252 12.9007 4.00025 12.5C4.00025 11.9696 4.21097 11.4609 4.58604 11.0858C4.96111 10.7107 5.46982 10.5 6.00025 10.5C6.26547 10.5 6.51983 10.3946 6.70736 10.2071C6.8949 10.0196 7.00026 9.76522 7.00026 9.5C7.00281 8.31728 7.42454 7.17375 8.19052 6.27258C8.95651 5.37141 10.0171 4.77095 11.184 4.57787C12.3509 4.3848 13.5484 4.61161 14.5638 5.21801C15.5793 5.82441 16.3469 6.77114 16.7303 7.89C16.7874 8.06184 16.8902 8.21493 17.0275 8.33293C17.1649 8.45093 17.3318 8.52942 17.5103 8.56C18.1116 8.66884 18.6654 8.95873 19.0974 9.39088C19.5295 9.82304 19.8193 10.3768 19.9281 10.9782C20.0368 11.5796 19.9593 12.1998 19.7059 12.7559C19.4526 13.312 19.0354 13.7775 18.5103 14.09C18.2795 14.2226 18.1109 14.4414 18.0415 14.6984C17.9721 14.9553 18.0076 15.2293 18.1403 15.46C18.2729 15.6907 18.4917 15.8593 18.7486 15.9287C19.0056 15.9981 19.2795 15.9626 19.5103 15.83C20.2685 15.3899 20.8976 14.7582 21.3347 13.9982C21.7717 13.2382 22.0012 12.3767 22.0003 11.5C21.9972 10.4241 21.6472 9.37794 21.0023 8.51681C20.3573 7.65568 19.4518 7.02554 18.4203 6.72Z" />
</symbol><symbol viewBox="0 0 24 24" id="cloud-upload">
<path d="M18.4196 8.22C17.8086 6.816 16.7541 5.65108 15.4177 4.90373C14.0813 4.15638 12.5367 3.86783 11.0206 4.08231C9.50452 4.29679 8.10057 5.00245 7.0239 6.09118C5.94723 7.1799 5.25723 8.59161 5.05965 10.11C4.10623 10.3383 3.26987 10.9088 2.70938 11.7132C2.1489 12.5175 1.90333 13.4997 2.01931 14.4732C2.13529 15.4467 2.60474 16.3437 3.33851 16.9939C4.07229 17.644 5.01928 18.0021 5.99965 18C6.26486 18 6.51922 17.8946 6.70675 17.7071C6.89429 17.5196 6.99965 17.2652 6.99965 17C6.99965 16.7348 6.89429 16.4804 6.70675 16.2929C6.51922 16.1054 6.26486 16 5.99965 16C5.46921 16 4.96051 15.7893 4.58543 15.4142C4.21036 15.0391 3.99965 14.5304 3.99965 14C3.99965 13.4696 4.21036 12.9609 4.58543 12.5858C4.96051 12.2107 5.46921 12 5.99965 12C6.26486 12 6.51922 11.8946 6.70675 11.7071C6.89429 11.5196 6.99965 11.2652 6.99965 11C7.0022 9.81728 7.42393 8.67375 8.18992 7.77258C8.9559 6.87141 10.0165 6.27095 11.1834 6.07787C12.3503 5.8848 13.5478 6.11161 14.5632 6.71801C15.5787 7.32441 16.3463 8.27114 16.7296 9.39C16.7868 9.56184 16.8896 9.71493 17.0269 9.83293C17.1643 9.95093 17.3312 10.0294 17.5096 10.06C18.1757 10.1859 18.7795 10.5336 19.2227 11.0465C19.6658 11.5595 19.9222 12.2074 19.95 12.8846C19.9779 13.5619 19.7755 14.2287 19.3759 14.7762C18.9764 15.3238 18.4031 15.7199 17.7496 15.9C17.4924 15.9663 17.272 16.1321 17.137 16.3609C17.0019 16.5897 16.9633 16.8627 17.0296 17.12C17.096 17.3773 17.2617 17.5976 17.4905 17.7327C17.7193 17.8677 17.9924 17.9063 18.2496 17.84C19.302 17.5619 20.2349 16.948 20.9067 16.0915C21.5784 15.2349 21.9522 14.1826 21.9715 13.0943C21.9907 12.0059 21.6543 10.941 21.0132 10.0613C20.3722 9.1816 19.4616 8.5351 18.4196 8.22ZM12.7096 10.29C12.6145 10.199 12.5024 10.1276 12.3796 10.08C12.1362 9.97998 11.8631 9.97998 11.6196 10.08C11.4969 10.1276 11.3847 10.199 11.2896 10.29L8.28965 13.29C8.10134 13.4783 7.99555 13.7337 7.99555 14C7.99555 14.2663 8.10134 14.5217 8.28965 14.71C8.47795 14.8983 8.73334 15.0041 8.99965 15.0041C9.26595 15.0041 9.52134 14.8983 9.70965 14.71L10.9996 13.41V19C10.9996 19.2652 11.105 19.5196 11.2925 19.7071C11.4801 19.8946 11.7344 20 11.9996 20C12.2649 20 12.5192 19.8946 12.7068 19.7071C12.8943 19.5196 12.9996 19.2652 12.9996 19V13.41L14.2896 14.71C14.3826 14.8037 14.4932 14.8781 14.6151 14.9289C14.7369 14.9797 14.8676 15.0058 14.9996 15.0058C15.1317 15.0058 15.2624 14.9797 15.3842 14.9289C15.5061 14.8781 15.6167 14.8037 15.7096 14.71C15.8034 14.617 15.8778 14.5064 15.9285 14.3846C15.9793 14.2627 16.0054 14.132 16.0054 14C16.0054 13.868 15.9793 13.7373 15.9285 13.6154C15.8778 13.4936 15.8034 13.383 15.7096 13.29L12.7096 10.29Z" />
</symbol><symbol viewBox="0 0 24 24" id="cloud-web">
<path d="M10 5C9.80222 5 9.60888 5.05865 9.44443 5.16853C9.27998 5.27841 9.15181 5.43459 9.07612 5.61732C9.00043 5.80004 8.98063 6.00111 9.01921 6.19509C9.0578 6.38907 9.15304 6.56725 9.29289 6.70711C9.43275 6.84696 9.61093 6.9422 9.80491 6.98079C9.99889 7.01937 10.2 6.99957 10.3827 6.92388C10.5654 6.84819 10.7216 6.72002 10.8315 6.55557C10.9414 6.39112 11 6.19778 11 6C11 5.73478 10.8946 5.48043 10.7071 5.29289C10.5196 5.10536 10.2652 5 10 5ZM6 5C5.80222 5 5.60888 5.05865 5.44443 5.16853C5.27998 5.27841 5.15181 5.43459 5.07612 5.61732C5.00043 5.80004 4.98063 6.00111 5.01921 6.19509C5.0578 6.38907 5.15304 6.56725 5.29289 6.70711C5.43275 6.84696 5.61093 6.9422 5.80491 6.98079C5.99889 7.01937 6.19996 6.99957 6.38268 6.92388C6.56541 6.84819 6.72159 6.72002 6.83147 6.55557C6.94135 6.39112 7 6.19778 7 6C7 5.73478 6.89464 5.48043 6.70711 5.29289C6.51957 5.10536 6.26522 5 6 5ZM14 5C13.8022 5 13.6089 5.05865 13.4444 5.16853C13.28 5.27841 13.1518 5.43459 13.0761 5.61732C13.0004 5.80004 12.9806 6.00111 13.0192 6.19509C13.0578 6.38907 13.153 6.56725 13.2929 6.70711C13.4327 6.84696 13.6109 6.9422 13.8049 6.98079C13.9989 7.01937 14.2 6.99957 14.3827 6.92388C14.5654 6.84819 14.7216 6.72002 14.8315 6.55557C14.9414 6.39112 15 6.19778 15 6C15 5.73478 14.8946 5.48043 14.7071 5.29289C14.5196 5.10536 14.2652 5 14 5ZM20 1H4C3.20435 1 2.44129 1.31607 1.87868 1.87868C1.31607 2.44129 1 3.20435 1 4V20C1 20.7956 1.31607 21.5587 1.87868 22.1213C2.44129 22.6839 3.20435 23 4 23H20C20.7956 23 21.5587 22.6839 22.1213 22.1213C22.6839 21.5587 23 20.7956 23 20V4C23 3.20435 22.6839 2.44129 22.1213 1.87868C21.5587 1.31607 20.7956 1 20 1ZM21 20C21 20.2652 20.8946 20.5196 20.7071 20.7071C20.5196 20.8946 20.2652 21 20 21H4C3.73478 21 3.48043 20.8946 3.29289 20.7071C3.10536 20.5196 3 20.2652 3 20V11H21V20ZM21 9H3V4C3 3.73478 3.10536 3.48043 3.29289 3.29289C3.48043 3.10536 3.73478 3 4 3H20C20.2652 3 20.5196 3.10536 20.7071 3.29289C20.8946 3.48043 21 3.73478 21 4V9Z" />
</symbol><symbol viewBox="0 0 24 24" id="cloud-web-layout">
<path d="M21 2H3C2.73478 2 2.48043 2.10536 2.29289 2.29289C2.10536 2.48043 2 2.73478 2 3V21C2 21.2652 2.10536 21.5196 2.29289 21.7071C2.48043 21.8946 2.73478 22 3 22H21C21.2652 22 21.5196 21.8946 21.7071 21.7071C21.8946 21.5196 22 21.2652 22 21V3C22 2.73478 21.8946 2.48043 21.7071 2.29289C21.5196 2.10536 21.2652 2 21 2ZM8 20H4V10H8V20ZM14 20H10V10H14V20ZM20 20H16V10H20V20ZM20 8H4V4H20V8Z" />
</symbol><symbol viewBox="0 0 24 24" id="cloud-web-layout-1">
<path d="M21 2H3C2.73478 2 2.48043 2.10536 2.29289 2.29289C2.10536 2.48043 2 2.73478 2 3V21C2 21.2652 2.10536 21.5196 2.29289 21.7071C2.48043 21.8946 2.73478 22 3 22H21C21.2652 22 21.5196 21.8946 21.7071 21.7071C21.8946 21.5196 22 21.2652 22 21V3C22 2.73478 21.8946 2.48043 21.7071 2.29289C21.5196 2.10536 21.2652 2 21 2ZM20 20H4V10H20V20ZM20 8H4V4H20V8Z" />
</symbol><symbol viewBox="0 0 24 24" id="cloud-web-layout-2">
<path d="M21 2H3C2.73478 2 2.48043 2.10536 2.29289 2.29289C2.10536 2.48043 2 2.73478 2 3V21C2 21.2652 2.10536 21.5196 2.29289 21.7071C2.48043 21.8946 2.73478 22 3 22H21C21.2652 22 21.5196 21.8946 21.7071 21.7071C21.8946 21.5196 22 21.2652 22 21V3C22 2.73478 21.8946 2.48043 21.7071 2.29289C21.5196 2.10536 21.2652 2 21 2ZM8 20H4V4H8V20ZM20 20H10V13H20V20ZM20 11H10V4H20V11Z" />
</symbol><symbol viewBox="0 0 24 24" id="cloud-web-layout-3">
<path d="M21 2H3C2.73478 2 2.48043 2.10536 2.29289 2.29289C2.10536 2.48043 2 2.73478 2 3V21C2 21.2652 2.10536 21.5196 2.29289 21.7071C2.48043 21.8946 2.73478 22 3 22H21C21.2652 22 21.5196 21.8946 21.7071 21.7071C21.8946 21.5196 22 21.2652 22 21V3C22 2.73478 21.8946 2.48043 21.7071 2.29289C21.5196 2.10536 21.2652 2 21 2ZM11 20H4V4H11V20ZM20 20H13V4H20V20Z" />
</symbol><symbol viewBox="0 0 24 24" id="cloud-web-layout-4">
<path d="M21 2H3C2.73478 2 2.48043 2.10536 2.29289 2.29289C2.10536 2.48043 2 2.73478 2 3V21C2 21.2652 2.10536 21.5196 2.29289 21.7071C2.48043 21.8946 2.73478 22 3 22H21C21.2652 22 21.5196 21.8946 21.7071 21.7071C21.8946 21.5196 22 21.2652 22 21V3C22 2.73478 21.8946 2.48043 21.7071 2.29289C21.5196 2.10536 21.2652 2 21 2ZM8 20H4V4H8V20ZM20 20H10V4H20V20Z" />
</symbol><symbol viewBox="0 0 24 24" id="cloud-web-layout-5">
<path d="M21 2H3C2.73478 2 2.48043 2.10536 2.29289 2.29289C2.10536 2.48043 2 2.73478 2 3V21C2 21.2652 2.10536 21.5196 2.29289 21.7071C2.48043 21.8946 2.73478 22 3 22H21C21.2652 22 21.5196 21.8946 21.7071 21.7071C21.8946 21.5196 22 21.2652 22 21V3C22 2.73478 21.8946 2.48043 21.7071 2.29289C21.5196 2.10536 21.2652 2 21 2ZM14 20H4V4H14V20ZM20 20H16V4H20V20Z" />
</symbol><symbol viewBox="0 0 24 24" id="cloud-web-layout-6">
<path d="M21 2H3C2.73478 2 2.48043 2.10536 2.29289 2.29289C2.10536 2.48043 2 2.73478 2 3V21C2 21.2652 2.10536 21.5196 2.29289 21.7071C2.48043 21.8946 2.73478 22 3 22H21C21.2652 22 21.5196 21.8946 21.7071 21.7071C21.8946 21.5196 22 21.2652 22 21V3C22 2.73478 21.8946 2.48043 21.7071 2.29289C21.5196 2.10536 21.2652 2 21 2ZM11 20H4V16H11V20ZM11 14H4V10H11V14ZM20 20H13V16H20V20ZM20 14H13V10H20V14ZM20 8H4V4H20V8Z" />
</symbol><symbol viewBox="0 0 24 24" id="cloud-web-layout-7">
<path d="M21 2H3C2.73478 2 2.48043 2.10536 2.29289 2.29289C2.10536 2.48043 2 2.73478 2 3V21C2 21.2652 2.10536 21.5196 2.29289 21.7071C2.48043 21.8946 2.73478 22 3 22H21C21.2652 22 21.5196 21.8946 21.7071 21.7071C21.8946 21.5196 22 21.2652 22 21V3C22 2.73478 21.8946 2.48043 21.7071 2.29289C21.5196 2.10536 21.2652 2 21 2ZM11 20H4V10H11V20ZM20 20H13V10H20V20ZM20 8H4V4H20V8Z" />
</symbol><symbol viewBox="0 0 24 24" id="cloud-web-layout-8">
<path d="M21 2H3C2.73478 2 2.48043 2.10536 2.29289 2.29289C2.10536 2.48043 2 2.73478 2 3V21C2 21.2652 2.10536 21.5196 2.29289 21.7071C2.48043 21.8946 2.73478 22 3 22H21C21.2652 22 21.5196 21.8946 21.7071 21.7071C21.8946 21.5196 22 21.2652 22 21V3C22 2.73478 21.8946 2.48043 21.7071 2.29289C21.5196 2.10536 21.2652 2 21 2ZM14 20H4V13H14V20ZM14 11H4V4H14V11ZM20 20H16V4H20V20Z" />
</symbol><symbol viewBox="0 0 24 24" id="cloud-window-restore">
<path d="M19 2H9C8.20435 2 7.44129 2.31607 6.87868 2.87868C6.31607 3.44129 6 4.20435 6 5V6H5C4.20435 6 3.44129 6.31607 2.87868 6.87868C2.31607 7.44129 2 8.20435 2 9V19C2 19.7956 2.31607 20.5587 2.87868 21.1213C3.44129 21.6839 4.20435 22 5 22H15C15.7956 22 16.5587 21.6839 17.1213 21.1213C17.6839 20.5587 18 19.7956 18 19V18H19C19.7956 18 20.5587 17.6839 21.1213 17.1213C21.6839 16.5587 22 15.7956 22 15V5C22 4.20435 21.6839 3.44129 21.1213 2.87868C20.5587 2.31607 19.7956 2 19 2ZM16 19C16 19.2652 15.8946 19.5196 15.7071 19.7071C15.5196 19.8946 15.2652 20 15 20H5C4.73478 20 4.48043 19.8946 4.29289 19.7071C4.10536 19.5196 4 19.2652 4 19V12H16V19ZM16 10H4V9C4 8.73478 4.10536 8.48043 4.29289 8.29289C4.48043 8.10536 4.73478 8 5 8H15C15.2652 8 15.5196 8.10536 15.7071 8.29289C15.8946 8.48043 16 8.73478 16 9V10ZM20 15C20 15.2652 19.8946 15.5196 19.7071 15.7071C19.5196 15.8946 19.2652 16 19 16H18V9C17.9973 8.65886 17.9364 8.32067 17.82 8H20V15ZM20 6H8V5C8 4.73478 8.10536 4.48043 8.29289 4.29289C8.48043 4.10536 8.73478 4 9 4H19C19.2652 4 19.5196 4.10536 19.7071 4.29289C19.8946 4.48043 20 4.73478 20 5V6Z" />
</symbol></defs></svg>