<svg xmlns="http://www.w3.org/2000/svg" xmlns:xlink="http://www.w3.org/1999/xlink"><defs><symbol viewBox="0 0 24 24" id="shopping-archive">
<path d="M10 14H14C14.2652 14 14.5196 13.8946 14.7071 13.7071C14.8946 13.5196 15 13.2652 15 13C15 12.7348 14.8946 12.4804 14.7071 12.2929C14.5196 12.1054 14.2652 12 14 12H10C9.73478 12 9.48043 12.1054 9.29289 12.2929C9.10536 12.4804 9 12.7348 9 13C9 13.2652 9.10536 13.5196 9.29289 13.7071C9.48043 13.8946 9.73478 14 10 14ZM19 3H5C4.20435 3 3.44129 3.31607 2.87868 3.87868C2.31607 4.44129 2 5.20435 2 6V9C2 9.26522 2.10536 9.51957 2.29289 9.70711C2.48043 9.89464 2.73478 10 3 10H4V18C4 18.7956 4.31607 19.5587 4.87868 20.1213C5.44129 20.6839 6.20435 21 7 21H17C17.7956 21 18.5587 20.6839 19.1213 20.1213C19.6839 19.5587 20 18.7956 20 18V10H21C21.2652 10 21.5196 9.89464 21.7071 9.70711C21.8946 9.51957 22 9.26522 22 9V6C22 5.20435 21.6839 4.44129 21.1213 3.87868C20.5587 3.31607 19.7956 3 19 3ZM18 18C18 18.2652 17.8946 18.5196 17.7071 18.7071C17.5196 18.8946 17.2652 19 17 19H7C6.73478 19 6.48043 18.8946 6.29289 18.7071C6.10536 18.5196 6 18.2652 6 18V10H18V18ZM20 8H4V6C4 5.73478 4.10536 5.48043 4.29289 5.29289C4.48043 5.10536 4.73478 5 5 5H19C19.2652 5 19.5196 5.10536 19.7071 5.29289C19.8946 5.48043 20 5.73478 20 6V8Z" />
</symbol><symbol viewBox="0 0 24 24" id="shopping-basket">
<path d="M14.0003 18C14.2655 18 14.5199 17.8947 14.7074 17.7071C14.8949 17.5196 15.0003 17.2652 15.0003 17V15C15.0003 14.7348 14.8949 14.4805 14.7074 14.2929C14.5199 14.1054 14.2655 14 14.0003 14C13.7351 14 13.4807 14.1054 13.2932 14.2929C13.1056 14.4805 13.0003 14.7348 13.0003 15V17C13.0003 17.2652 13.1056 17.5196 13.2932 17.7071C13.4807 17.8947 13.7351 18 14.0003 18ZM10.0003 18C10.2655 18 10.5199 17.8947 10.7074 17.7071C10.8949 17.5196 11.0003 17.2652 11.0003 17V15C11.0003 14.7348 10.8949 14.4805 10.7074 14.2929C10.5199 14.1054 10.2655 14 10.0003 14C9.73506 14 9.48071 14.1054 9.29317 14.2929C9.10564 14.4805 9.00028 14.7348 9.00028 15V17C9.00028 17.2652 9.10564 17.5196 9.29317 17.7071C9.48071 17.8947 9.73506 18 10.0003 18ZM19.0003 6.00003H17.6203L15.8903 2.55003C15.8374 2.42308 15.7589 2.3084 15.6598 2.21316C15.5606 2.11791 15.4428 2.04414 15.3138 1.99647C15.1848 1.94879 15.0474 1.92823 14.9101 1.93607C14.7728 1.94392 14.6386 1.97999 14.5159 2.04204C14.3932 2.10408 14.2846 2.19078 14.1969 2.2967C14.1092 2.40261 14.0443 2.52548 14.0062 2.65762C13.9681 2.78976 13.9577 2.92833 13.9756 3.06467C13.9935 3.20102 14.0394 3.3322 14.1103 3.45003L15.3803 6.00003H8.62028L9.89028 3.45003C9.98735 3.21693 9.99264 2.95575 9.9051 2.71891C9.81756 2.48208 9.64367 2.28712 9.41834 2.17319C9.19301 2.05926 8.93292 2.03479 8.6903 2.10469C8.44767 2.17458 8.24046 2.33368 8.11028 2.55003L6.38028 6.00003H5.00028C4.29347 6.01078 3.61316 6.27077 3.07933 6.73416C2.5455 7.19755 2.19245 7.83455 2.08245 8.53283C1.97245 9.23112 2.11256 9.94581 2.47807 10.5509C2.84358 11.1559 3.41101 11.6125 4.08028 11.84L4.82028 19.3C4.8949 20.0426 5.24363 20.7307 5.79835 21.2299C6.35308 21.7292 7.07398 22.0038 7.82028 22H16.2003C16.9466 22.0038 17.6675 21.7292 18.2222 21.2299C18.7769 20.7307 19.1257 20.0426 19.2003 19.3L19.9403 11.84C20.611 11.6118 21.1793 11.1536 21.5446 10.5465C21.9098 9.93942 22.0484 9.22266 21.9359 8.52317C21.8233 7.82368 21.4667 7.18661 20.9294 6.7248C20.3921 6.26299 19.7087 6.00624 19.0003 6.00003ZM17.1903 19.1C17.1654 19.3475 17.0492 19.5769 16.8643 19.7433C16.6793 19.9098 16.439 20.0013 16.1903 20H7.81028C7.56151 20.0013 7.32121 19.9098 7.1363 19.7433C6.9514 19.5769 6.83515 19.3475 6.81028 19.1L6.10028 12H17.9003L17.1903 19.1ZM19.0003 10H5.00028C4.73506 10 4.48071 9.89467 4.29317 9.70713C4.10564 9.5196 4.00028 9.26524 4.00028 9.00003C4.00028 8.73481 4.10564 8.48046 4.29317 8.29292C4.48071 8.10538 4.73506 8.00003 5.00028 8.00003H19.0003C19.2655 8.00003 19.5199 8.10538 19.7074 8.29292C19.8949 8.48046 20.0003 8.73481 20.0003 9.00003C20.0003 9.26524 19.8949 9.5196 19.7074 9.70713C19.5199 9.89467 19.2655 10 19.0003 10Z" />
</symbol><symbol viewBox="0 0 24 24" id="shopping-cart">
<path d="M21.5 15C21.4978 14.3997 21.3155 13.8139 20.9768 13.3183C20.6381 12.8227 20.1585 12.4401 19.6 12.22L21.47 5.22001C21.5091 5.07093 21.5131 4.91484 21.4819 4.76392C21.4507 4.61301 21.385 4.47135 21.29 4.35001C21.1929 4.23632 21.0715 4.14585 20.9348 4.08528C20.798 4.02471 20.6495 3.99557 20.5 4.00001H6.8L6.47 2.74001C6.41263 2.52692 6.28638 2.33879 6.11093 2.20494C5.93547 2.0711 5.72068 1.99904 5.5 2.00001H3.5V4.00001H4.73L7.21 13.26C7.2686 13.4782 7.39934 13.6701 7.58092 13.8044C7.76251 13.9388 7.98424 14.0077 8.21 14H18.5C18.7652 14 19.0196 14.1054 19.2071 14.2929C19.3946 14.4804 19.5 14.7348 19.5 15C19.5 15.2652 19.3946 15.5196 19.2071 15.7071C19.0196 15.8947 18.7652 16 18.5 16H5.5C5.23478 16 4.98043 16.1054 4.79289 16.2929C4.60536 16.4804 4.5 16.7348 4.5 17C4.5 17.2652 4.60536 17.5196 4.79289 17.7071C4.98043 17.8947 5.23478 18 5.5 18H6.68C6.51554 18.4531 6.46269 18.9392 6.52593 19.4171C6.58917 19.895 6.76665 20.3506 7.04332 20.7454C7.31999 21.1401 7.68772 21.4624 8.11535 21.6849C8.54299 21.9074 9.01795 22.0235 9.5 22.0235C9.98205 22.0235 10.457 21.9074 10.8846 21.6849C11.3123 21.4624 11.68 21.1401 11.9567 20.7454C12.2334 20.3506 12.4108 19.895 12.4741 19.4171C12.5373 18.9392 12.4845 18.4531 12.32 18H14.68C14.5303 18.4126 14.4729 18.853 14.512 19.2902C14.551 19.7274 14.6856 20.1507 14.906 20.5302C15.1265 20.9098 15.4276 21.2363 15.788 21.4868C16.1485 21.7373 16.5595 21.9056 16.9921 21.98C17.4247 22.0543 17.8683 22.0328 18.2917 21.917C18.715 21.8012 19.1078 21.5939 19.4424 21.3097C19.7769 21.0255 20.045 20.6714 20.2277 20.2723C20.4105 19.8732 20.5034 19.4389 20.5 19C20.4981 18.4834 20.3602 17.9764 20.1 17.53C20.5276 17.2604 20.8802 16.8871 21.1249 16.4448C21.3697 16.0025 21.4987 15.5055 21.5 15ZM17.59 12H9L7.34 6.00001H19.2L17.59 12ZM9.5 20C9.30222 20 9.10888 19.9414 8.94443 19.8315C8.77998 19.7216 8.65181 19.5654 8.57612 19.3827C8.50043 19.2 8.48063 18.9989 8.51921 18.8049C8.5578 18.6109 8.65304 18.4328 8.79289 18.2929C8.93275 18.153 9.11093 18.0578 9.30491 18.0192C9.49889 17.9806 9.69996 18.0004 9.88268 18.0761C10.0654 18.1518 10.2216 18.28 10.3315 18.4444C10.4414 18.6089 10.5 18.8022 10.5 19C10.5 19.2652 10.3946 19.5196 10.2071 19.7071C10.0196 19.8947 9.76522 20 9.5 20ZM17.5 20C17.3022 20 17.1089 19.9414 16.9444 19.8315C16.78 19.7216 16.6518 19.5654 16.5761 19.3827C16.5004 19.2 16.4806 18.9989 16.5192 18.8049C16.5578 18.6109 16.653 18.4328 16.7929 18.2929C16.9327 18.153 17.1109 18.0578 17.3049 18.0192C17.4989 17.9806 17.7 18.0004 17.8827 18.0761C18.0654 18.1518 18.2216 18.28 18.3315 18.4444C18.4414 18.6089 18.5 18.8022 18.5 19C18.5 19.2652 18.3946 19.5196 18.2071 19.7071C18.0196 19.8947 17.7652 20 17.5 20Z" />
</symbol><symbol viewBox="0 0 24 24" id="shopping-cart-1">
<path d="M21 16H7C6.73478 16 6.48043 15.8946 6.29289 15.7071C6.10536 15.5196 6 15.2652 6 15C6 14.7348 6.10536 14.4804 6.29289 14.2929C6.48043 14.1054 6.73478 14 7 14H17.44C18.1087 14 18.7582 13.7767 19.2854 13.3654C19.8126 12.9542 20.1873 12.3786 20.35 11.73L22 5.24C22.0375 5.09241 22.0407 4.93821 22.0095 4.78917C21.9783 4.64013 21.9135 4.50018 21.82 4.38C21.7227 4.25673 21.5978 4.1581 21.4554 4.09208C21.3129 4.02606 21.1569 3.99452 21 4H6.76C6.55369 3.41645 6.17193 2.911 5.66707 2.55294C5.1622 2.19488 4.55894 2.00174 3.94 2H3C2.73478 2 2.48043 2.10536 2.29289 2.29289C2.10536 2.48043 2 2.73478 2 3C2 3.26522 2.10536 3.51957 2.29289 3.70711C2.48043 3.89464 2.73478 4 3 4H3.94C4.16843 3.99334 4.39226 4.06513 4.57421 4.20341C4.75615 4.34169 4.88525 4.53812 4.94 4.76L5 5.24L6.73 12C5.93435 12.0358 5.18551 12.3862 4.64822 12.9741C4.11093 13.5621 3.8292 14.3394 3.865 15.135C3.9008 15.9306 4.25121 16.6795 4.83914 17.2168C5.42707 17.7541 6.20435 18.0358 7 18H7.18C7.01554 18.4531 6.96269 18.9392 7.02593 19.4171C7.08917 19.895 7.26665 20.3506 7.54332 20.7454C7.81999 21.1401 8.18772 21.4624 8.61535 21.6849C9.04299 21.9074 9.51795 22.0235 10 22.0235C10.4821 22.0235 10.957 21.9074 11.3846 21.6849C11.8123 21.4624 12.18 21.1401 12.4567 20.7454C12.7334 20.3506 12.9108 19.895 12.9741 19.4171C13.0373 18.9392 12.9845 18.4531 12.82 18H15.18C15.0155 18.4531 14.9627 18.9392 15.0259 19.4171C15.0892 19.895 15.2666 20.3506 15.5433 20.7454C15.82 21.1401 16.1877 21.4624 16.6154 21.6849C17.043 21.9074 17.5179 22.0235 18 22.0235C18.4821 22.0235 18.957 21.9074 19.3846 21.6849C19.8123 21.4624 20.18 21.1401 20.4567 20.7454C20.7334 20.3506 20.9108 19.895 20.9741 19.4171C21.0373 18.9392 20.9845 18.4531 20.82 18H21C21.2652 18 21.5196 17.8946 21.7071 17.7071C21.8946 17.5196 22 17.2652 22 17C22 16.7348 21.8946 16.4804 21.7071 16.2929C21.5196 16.1054 21.2652 16 21 16ZM19.72 6L18.41 11.24C18.3552 11.4619 18.2262 11.6583 18.0442 11.7966C17.8623 11.9349 17.6384 12.0067 17.41 12H8.78L7.28 6H19.72ZM10 20C9.80222 20 9.60888 19.9414 9.44443 19.8315C9.27998 19.7216 9.15181 19.5654 9.07612 19.3827C9.00043 19.2 8.98063 18.9989 9.01921 18.8049C9.0578 18.6109 9.15304 18.4327 9.29289 18.2929C9.43275 18.153 9.61093 18.0578 9.80491 18.0192C9.99889 17.9806 10.2 18.0004 10.3827 18.0761C10.5654 18.1518 10.7216 18.28 10.8315 18.4444C10.9414 18.6089 11 18.8022 11 19C11 19.2652 10.8946 19.5196 10.7071 19.7071C10.5196 19.8946 10.2652 20 10 20ZM18 20C17.8022 20 17.6089 19.9414 17.4444 19.8315C17.28 19.7216 17.1518 19.5654 17.0761 19.3827C17.0004 19.2 16.9806 18.9989 17.0192 18.8049C17.0578 18.6109 17.153 18.4327 17.2929 18.2929C17.4327 18.153 17.6109 18.0578 17.8049 18.0192C17.9989 17.9806 18.2 18.0004 18.3827 18.0761C18.5654 18.1518 18.7216 18.28 18.8315 18.4444C18.9414 18.6089 19 18.8022 19 19C19 19.2652 18.8946 19.5196 18.7071 19.7071C18.5196 19.8946 18.2652 20 18 20Z" />
</symbol><symbol viewBox="0 0 24 24" id="shopping-gift">
<path d="M18 7.00004H17.65C17.8782 6.5328 17.9979 6.02002 18 5.50004C18.003 4.80336 17.7975 4.12173 17.4098 3.54287C17.0221 2.96401 16.4701 2.51442 15.8247 2.25198C15.1794 1.98953 14.4703 1.92624 13.7886 2.07025C13.107 2.21426 12.4841 2.55898 12 3.06004C11.5159 2.55898 10.893 2.21426 10.2114 2.07025C9.52975 1.92624 8.82061 1.98953 8.17525 2.25198C7.5299 2.51442 6.97786 2.96401 6.59019 3.54287C6.20252 4.12173 5.99697 4.80336 6 5.50004C6.00213 6.02002 6.12178 6.5328 6.35 7.00004H6C5.20435 7.00004 4.44129 7.31611 3.87868 7.87872C3.31607 8.44133 3 9.20439 3 10V12C3 12.2653 3.10536 12.5196 3.29289 12.7071C3.48043 12.8947 3.73478 13 4 13H5V19C5 19.7957 5.31607 20.5588 5.87868 21.1214C6.44129 21.684 7.20435 22 8 22H16C16.7956 22 17.5587 21.684 18.1213 21.1214C18.6839 20.5588 19 19.7957 19 19V13H20C20.2652 13 20.5196 12.8947 20.7071 12.7071C20.8946 12.5196 21 12.2653 21 12V10C21 9.20439 20.6839 8.44133 20.1213 7.87872C19.5587 7.31611 18.7956 7.00004 18 7.00004ZM11 20H8C7.73478 20 7.48043 19.8947 7.29289 19.7071C7.10536 19.5196 7 19.2653 7 19V13H11V20ZM11 11H5V10C5 9.73482 5.10536 9.48047 5.29289 9.29293C5.48043 9.10539 5.73478 9.00004 6 9.00004H11V11ZM11 7.00004H9.5C9.20333 7.00004 8.91332 6.91206 8.66665 6.74724C8.41997 6.58242 8.22771 6.34815 8.11418 6.07406C8.00065 5.79997 7.97094 5.49837 8.02882 5.2074C8.0867 4.91643 8.22956 4.64916 8.43934 4.43938C8.64912 4.2296 8.91639 4.08674 9.20736 4.02886C9.49834 3.97098 9.79994 4.00069 10.074 4.11422C10.3481 4.22775 10.5824 4.42001 10.7472 4.66668C10.912 4.91336 11 5.20337 11 5.50004V7.00004ZM13 5.50004C13 5.20337 13.088 4.91336 13.2528 4.66668C13.4176 4.42001 13.6519 4.22775 13.926 4.11422C14.2001 4.00069 14.5017 3.97098 14.7926 4.02886C15.0836 4.08674 15.3509 4.2296 15.5607 4.43938C15.7704 4.64916 15.9133 4.91643 15.9712 5.2074C16.0291 5.49837 15.9994 5.79997 15.8858 6.07406C15.7723 6.34815 15.58 6.58242 15.3334 6.74724C15.0867 6.91206 14.7967 7.00004 14.5 7.00004H13V5.50004ZM17 19C17 19.2653 16.8946 19.5196 16.7071 19.7071C16.5196 19.8947 16.2652 20 16 20H13V13H17V19ZM19 11H13V9.00004H18C18.2652 9.00004 18.5196 9.10539 18.7071 9.29293C18.8946 9.48047 19 9.73482 19 10V11Z" />
</symbol><symbol viewBox="0 0 24 24" id="shopping-label">
<path d="M21.12 10.71L12.71 2.29002C12.6166 2.19734 12.5058 2.12401 12.3839 2.07425C12.2621 2.02448 12.1316 1.99926 12 2.00002H3.00002C2.7348 2.00002 2.48045 2.10537 2.29291 2.29291C2.10537 2.48045 2.00002 2.7348 2.00002 3.00002V12C1.99926 12.1316 2.02448 12.2621 2.07425 12.3839C2.12401 12.5058 2.19734 12.6166 2.29002 12.71L10.71 21.12C11.2725 21.6818 12.035 21.9974 12.83 21.9974C13.625 21.9974 14.3875 21.6818 14.95 21.12L21.12 15C21.6818 14.4375 21.9974 13.675 21.9974 12.88C21.9974 12.085 21.6818 11.3225 21.12 10.76V10.71ZM19.71 13.53L13.53 19.7C13.3427 19.8863 13.0892 19.9908 12.825 19.9908C12.5608 19.9908 12.3074 19.8863 12.12 19.7L4.00002 11.59V4.00002H11.59L19.71 12.12C19.8027 12.2135 19.876 12.3243 19.9258 12.4461C19.9756 12.5679 20.0008 12.6984 20 12.83C19.9989 13.0924 19.8948 13.3438 19.71 13.53Z" />
</symbol><symbol viewBox="0 0 24 24" id="shopping-shop">
<path d="M22 5H2C1.73478 5 1.48043 5.10536 1.29289 5.29289C1.10536 5.48043 1 5.73478 1 6V10C1.00174 10.6189 1.19488 11.2222 1.55294 11.7271C1.911 12.2319 2.41645 12.6137 3 12.82V22C3 22.2652 3.10536 22.5196 3.29289 22.7071C3.48043 22.8946 3.73478 23 4 23H20C20.2652 23 20.5196 22.8946 20.7071 22.7071C20.8946 22.5196 21 22.2652 21 22V12.82C21.5835 12.6137 22.089 12.2319 22.4471 11.7271C22.8051 11.2222 22.9983 10.6189 23 10V6C23 5.73478 22.8946 5.48043 22.7071 5.29289C22.5196 5.10536 22.2652 5 22 5ZM15 7H17V10C17 10.2652 16.8946 10.5196 16.7071 10.7071C16.5196 10.8946 16.2652 11 16 11C15.7348 11 15.4804 10.8946 15.2929 10.7071C15.1054 10.5196 15 10.2652 15 10V7ZM11 7H13V10C13 10.2652 12.8946 10.5196 12.7071 10.7071C12.5196 10.8946 12.2652 11 12 11C11.7348 11 11.4804 10.8946 11.2929 10.7071C11.1054 10.5196 11 10.2652 11 10V7ZM7 7H9V10C9 10.2652 8.89464 10.5196 8.70711 10.7071C8.51957 10.8946 8.26522 11 8 11C7.73478 11 7.48043 10.8946 7.29289 10.7071C7.10536 10.5196 7 10.2652 7 10V7ZM4 11C3.73478 11 3.48043 10.8946 3.29289 10.7071C3.10536 10.5196 3 10.2652 3 10V7H5V10C5 10.2652 4.89464 10.5196 4.70711 10.7071C4.51957 10.8946 4.26522 11 4 11ZM14 21H10V19C10 18.4696 10.2107 17.9609 10.5858 17.5858C10.9609 17.2107 11.4696 17 12 17C12.5304 17 13.0391 17.2107 13.4142 17.5858C13.7893 17.9609 14 18.4696 14 19V21ZM19 21H16V19C16 17.9391 15.5786 16.9217 14.8284 16.1716C14.0783 15.4214 13.0609 15 12 15C10.9391 15 9.92172 15.4214 9.17157 16.1716C8.42143 16.9217 8 17.9391 8 19V21H5V12.82C5.36757 12.6836 5.70664 12.4801 6 12.22C6.55002 12.712 7.26207 12.9839 8 12.9839C8.73793 12.9839 9.44998 12.712 10 12.22C10.55 12.712 11.2621 12.9839 12 12.9839C12.7379 12.9839 13.45 12.712 14 12.22C14.55 12.712 15.2621 12.9839 16 12.9839C16.7379 12.9839 17.45 12.712 18 12.22C18.2934 12.4801 18.6324 12.6836 19 12.82V21ZM21 10C21 10.2652 20.8946 10.5196 20.7071 10.7071C20.5196 10.8946 20.2652 11 20 11C19.7348 11 19.4804 10.8946 19.2929 10.7071C19.1054 10.5196 19 10.2652 19 10V7H21V10ZM4.3 3H20C20.2652 3 20.5196 2.89464 20.7071 2.70711C20.8946 2.51957 21 2.26522 21 2C21 1.73478 20.8946 1.48043 20.7071 1.29289C20.5196 1.10536 20.2652 1 20 1H4.3C4.03478 1 3.78043 1.10536 3.59289 1.29289C3.40536 1.48043 3.3 1.73478 3.3 2C3.3 2.26522 3.40536 2.51957 3.59289 2.70711C3.78043 2.89464 4.03478 3 4.3 3Z" />
</symbol><symbol viewBox="0 0 24 24" id="shopping-shop-1">
<path d="M22 2H2C1.73478 2 1.48043 2.10536 1.29289 2.29289C1.10536 2.48043 1 2.73478 1 3V7C1.00174 7.61894 1.19488 8.2222 1.55294 8.72707C1.911 9.23193 2.41645 9.61369 3 9.82V21C3 21.2652 3.10536 21.5196 3.29289 21.7071C3.48043 21.8946 3.73478 22 4 22H20C20.2652 22 20.5196 21.8946 20.7071 21.7071C20.8946 21.5196 21 21.2652 21 21V9.82C21.5835 9.61369 22.089 9.23193 22.4471 8.72707C22.8051 8.2222 22.9983 7.61894 23 7V3C23 2.73478 22.8946 2.48043 22.7071 2.29289C22.5196 2.10536 22.2652 2 22 2ZM15 4H17V7C17 7.26522 16.8946 7.51957 16.7071 7.70711C16.5196 7.89464 16.2652 8 16 8C15.7348 8 15.4804 7.89464 15.2929 7.70711C15.1054 7.51957 15 7.26522 15 7V4ZM11 4H13V7C13 7.26522 12.8946 7.51957 12.7071 7.70711C12.5196 7.89464 12.2652 8 12 8C11.7348 8 11.4804 7.89464 11.2929 7.70711C11.1054 7.51957 11 7.26522 11 7V4ZM7 4H9V7C9 7.26522 8.89464 7.51957 8.70711 7.70711C8.51957 7.89464 8.26522 8 8 8C7.73478 8 7.48043 7.89464 7.29289 7.70711C7.10536 7.51957 7 7.26522 7 7V4ZM4 8C3.73478 8 3.48043 7.89464 3.29289 7.70711C3.10536 7.51957 3 7.26522 3 7V4H5V7C5 7.26522 4.89464 7.51957 4.70711 7.70711C4.51957 7.89464 4.26522 8 4 8ZM14 20H10V16C10 15.4696 10.2107 14.9609 10.5858 14.5858C10.9609 14.2107 11.4696 14 12 14C12.5304 14 13.0391 14.2107 13.4142 14.5858C13.7893 14.9609 14 15.4696 14 16V20ZM19 20H16V16C16 14.9391 15.5786 13.9217 14.8284 13.1716C14.0783 12.4214 13.0609 12 12 12C10.9391 12 9.92172 12.4214 9.17157 13.1716C8.42143 13.9217 8 14.9391 8 16V20H5V9.82C5.36757 9.68356 5.70664 9.48012 6 9.22C6.55002 9.71196 7.26207 9.98393 8 9.98393C8.73793 9.98393 9.44998 9.71196 10 9.22C10.55 9.71196 11.2621 9.98393 12 9.98393C12.7379 9.98393 13.45 9.71196 14 9.22C14.55 9.71196 15.2621 9.98393 16 9.98393C16.7379 9.98393 17.45 9.71196 18 9.22C18.2934 9.48012 18.6324 9.68356 19 9.82V20ZM21 7C21 7.26522 20.8946 7.51957 20.7071 7.70711C20.5196 7.89464 20.2652 8 20 8C19.7348 8 19.4804 7.89464 19.2929 7.70711C19.1054 7.51957 19 7.26522 19 7V4H21V7Z" />
</symbol><symbol viewBox="0 0 24 24" id="shopping-shop-2">
<path d="M22 7.82001C22.0048 7.75677 22.0048 7.69325 22 7.63001L20 2.63001C19.9219 2.43237 19.7828 2.26475 19.603 2.15147C19.4232 2.03819 19.212 1.98514 19 2.00001H5C4.79972 1.99982 4.604 2.05977 4.43818 2.17209C4.27237 2.28442 4.1441 2.44395 4.07 2.63001L2.07 7.63001C2.06518 7.69325 2.06518 7.75677 2.07 7.82001C2.03677 7.87568 2.01311 7.93652 2 8.00001C2.01113 8.69125 2.20123 9.36781 2.55174 9.96369C2.90226 10.5596 3.40124 11.0544 4 11.4V21C4 21.2652 4.10536 21.5196 4.29289 21.7071C4.48043 21.8947 4.73478 22 5 22H19C19.2652 22 19.5196 21.8947 19.7071 21.7071C19.8946 21.5196 20 21.2652 20 21V11.44C20.6046 11.091 21.1072 10.5898 21.4581 9.98635C21.809 9.38287 21.9958 8.69807 22 8.00001C22.0094 7.94038 22.0094 7.87965 22 7.82001ZM13 20H11V16H13V20ZM18 20H15V15C15 14.7348 14.8946 14.4804 14.7071 14.2929C14.5196 14.1054 14.2652 14 14 14H10C9.73478 14 9.48043 14.1054 9.29289 14.2929C9.10536 14.4804 9 14.7348 9 15V20H6V12C6.56947 11.9968 7.13169 11.872 7.64905 11.634C8.16642 11.3961 8.627 11.0503 9 10.62C9.37537 11.0456 9.83701 11.3865 10.3542 11.62C10.8715 11.8535 11.4325 11.9743 12 11.9743C12.5675 11.9743 13.1285 11.8535 13.6458 11.62C14.163 11.3865 14.6246 11.0456 15 10.62C15.373 11.0503 15.8336 11.3961 16.3509 11.634C16.8683 11.872 17.4305 11.9968 18 12V20ZM18 10C17.4696 10 16.9609 9.7893 16.5858 9.41423C16.2107 9.03915 16 8.53045 16 8.00001C16 7.7348 15.8946 7.48044 15.7071 7.29291C15.5196 7.10537 15.2652 7.00001 15 7.00001C14.7348 7.00001 14.4804 7.10537 14.2929 7.29291C14.1054 7.48044 14 7.7348 14 8.00001C14 8.53045 13.7893 9.03915 13.4142 9.41423C13.0391 9.7893 12.5304 10 12 10C11.4696 10 10.9609 9.7893 10.5858 9.41423C10.2107 9.03915 10 8.53045 10 8.00001C10 7.7348 9.89464 7.48044 9.70711 7.29291C9.51957 7.10537 9.26522 7.00001 9 7.00001C8.73478 7.00001 8.48043 7.10537 8.29289 7.29291C8.10536 7.48044 8 7.7348 8 8.00001C8.00985 8.26266 7.96787 8.52467 7.87646 8.77109C7.78505 9.01751 7.646 9.24351 7.46725 9.43619C7.28849 9.62887 7.07354 9.78446 6.83466 9.89407C6.59578 10.0037 6.33764 10.0652 6.075 10.075C5.54457 10.0949 5.02796 9.90327 4.63882 9.54226C4.44614 9.36351 4.29055 9.14855 4.18094 8.90967C4.07133 8.67079 4.00985 8.41266 4 8.15001L5.68 4.00001H18.32L20 8.15001C19.9621 8.65403 19.7348 9.125 19.3637 9.46822C18.9927 9.81143 18.5054 10.0014 18 10Z" />
</symbol><symbol viewBox="0 0 24 24" id="shopping-shopping-bag">
<path d="M19 7H16V6C16 4.93913 15.5786 3.92172 14.8284 3.17157C14.0783 2.42143 13.0609 2 12 2C10.9391 2 9.92172 2.42143 9.17157 3.17157C8.42143 3.92172 8 4.93913 8 6V7H5C4.73478 7 4.48043 7.10536 4.29289 7.29289C4.10536 7.48043 4 7.73478 4 8V19C4 19.7956 4.31607 20.5587 4.87868 21.1213C5.44129 21.6839 6.20435 22 7 22H17C17.7956 22 18.5587 21.6839 19.1213 21.1213C19.6839 20.5587 20 19.7956 20 19V8C20 7.73478 19.8946 7.48043 19.7071 7.29289C19.5196 7.10536 19.2652 7 19 7ZM10 6C10 5.46957 10.2107 4.96086 10.5858 4.58579C10.9609 4.21071 11.4696 4 12 4C12.5304 4 13.0391 4.21071 13.4142 4.58579C13.7893 4.96086 14 5.46957 14 6V7H10V6ZM18 19C18 19.2652 17.8946 19.5196 17.7071 19.7071C17.5196 19.8946 17.2652 20 17 20H7C6.73478 20 6.48043 19.8946 6.29289 19.7071C6.10536 19.5196 6 19.2652 6 19V9H8V10C8 10.2652 8.10536 10.5196 8.29289 10.7071C8.48043 10.8946 8.73478 11 9 11C9.26522 11 9.51957 10.8946 9.70711 10.7071C9.89464 10.5196 10 10.2652 10 10V9H14V10C14 10.2652 14.1054 10.5196 14.2929 10.7071C14.4804 10.8946 14.7348 11 15 11C15.2652 11 15.5196 10.8946 15.7071 10.7071C15.8946 10.5196 16 10.2652 16 10V9H18V19Z" />
</symbol><symbol viewBox="0 0 24 24" id="shopping-tag">
<path d="M7.00002 6.00002C6.80224 6.00002 6.6089 6.05867 6.44445 6.16855C6.28 6.27843 6.15182 6.43461 6.07614 6.61733C6.00045 6.80006 5.98065 7.00113 6.01923 7.19511C6.05782 7.38909 6.15306 7.56727 6.29291 7.70712C6.43276 7.84698 6.61095 7.94222 6.80493 7.9808C6.99891 8.01939 7.19997 7.99958 7.3827 7.9239C7.56543 7.84821 7.7216 7.72004 7.83149 7.55559C7.94137 7.39114 8.00002 7.1978 8.00002 7.00002C8.00002 6.7348 7.89466 6.48045 7.70712 6.29291C7.51959 6.10537 7.26523 6.00002 7.00002 6.00002ZM21.71 11.78L12.23 2.32002C12.1368 2.21948 12.0239 2.13919 11.8983 2.08414C11.7727 2.02909 11.6371 2.00046 11.5 2.00002H5.50002C5.36841 1.99926 5.23795 2.02448 5.11611 2.07425C4.99427 2.12401 4.88346 2.19734 4.79002 2.29002L2.29002 4.78002C2.19734 4.87346 2.12401 4.98427 2.07425 5.10611C2.02448 5.22795 1.99926 5.35841 2.00002 5.49002V11.49C2.0037 11.7548 2.10728 12.0084 2.29002 12.2L11.78 21.7C11.9717 21.8828 12.2253 21.9863 12.49 21.99C12.6216 21.9908 12.7521 21.9656 12.8739 21.9158C12.9958 21.866 13.1066 21.7927 13.2 21.7L21.71 13.19C21.8027 13.0966 21.876 12.9858 21.9258 12.8639C21.9756 12.7421 22.0008 12.6116 22 12.48C21.9938 12.2187 21.8904 11.9691 21.71 11.78ZM12.49 19.59L4.00002 11.09V5.90002L5.90002 4.00002H11.08L19.58 12.49L12.49 19.59Z" />
</symbol><symbol viewBox="0 0 24 24" id="shopping-tag-1">
<path d="M7.50002 6.00002C7.20334 6.00002 6.91333 6.08799 6.66666 6.25281C6.41999 6.41763 6.22773 6.6519 6.1142 6.92599C6.00067 7.20008 5.97096 7.50168 6.02884 7.79265C6.08672 8.08362 6.22958 8.3509 6.43936 8.56068C6.64914 8.77046 6.91641 8.91332 7.20738 8.97119C7.49835 9.02907 7.79995 8.99937 8.07404 8.88584C8.34813 8.7723 8.5824 8.58005 8.74722 8.33337C8.91204 8.0867 9.00002 7.79669 9.00002 7.50002C9.00002 7.10219 8.84198 6.72066 8.56068 6.43936C8.27937 6.15805 7.89784 6.00002 7.50002 6.00002ZM21.12 10.71L12.71 2.29002C12.6166 2.19734 12.5058 2.12401 12.3839 2.07425C12.2621 2.02448 12.1316 1.99926 12 2.00002H3.00002C2.7348 2.00002 2.48045 2.10537 2.29291 2.29291C2.10537 2.48045 2.00002 2.7348 2.00002 3.00002V12C1.99926 12.1316 2.02448 12.2621 2.07425 12.3839C2.12401 12.5058 2.19734 12.6166 2.29002 12.71L10.71 21.12C11.2725 21.6818 12.035 21.9974 12.83 21.9974C13.625 21.9974 14.3875 21.6818 14.95 21.12L21.12 15C21.6818 14.4375 21.9974 13.675 21.9974 12.88C21.9974 12.085 21.6818 11.3225 21.12 10.76V10.71ZM19.71 13.53L13.53 19.7C13.3427 19.8863 13.0892 19.9908 12.825 19.9908C12.5608 19.9908 12.3074 19.8863 12.12 19.7L4.00002 11.59V4.00002H11.59L19.71 12.12C19.8027 12.2135 19.876 12.3243 19.9258 12.4461C19.9756 12.5679 20.0008 12.6984 20 12.83C19.9989 13.0924 19.8948 13.3438 19.71 13.53Z" />
</symbol><symbol viewBox="0 0 24 24" id="shopping-tag-2">
<path d="M15 12C15 12.1978 15.0586 12.3911 15.1685 12.5556C15.2784 12.72 15.4346 12.8482 15.6173 12.9239C15.8 12.9996 16.0011 13.0194 16.1951 12.9808C16.3891 12.9422 16.5673 12.847 16.7071 12.7071C16.847 12.5673 16.9422 12.3891 16.9808 12.1951C17.0194 12.0011 16.9996 11.8001 16.9239 11.6173C16.8482 11.4346 16.72 11.2784 16.5556 11.1685C16.3911 11.0587 16.1978 11 16 11C15.7348 11 15.4804 11.1054 15.2929 11.2929C15.1054 11.4804 15 11.7348 15 12ZM21.71 11.29L16.71 6.29002C16.6166 6.19734 16.5057 6.12401 16.3839 6.07425C16.2621 6.02448 16.1316 5.99926 16 6.00002H5C4.20435 6.00002 3.44129 6.31609 2.87868 6.8787C2.31607 7.44131 2 8.20437 2 9.00002V15C2 15.7957 2.31607 16.5587 2.87868 17.1213C3.44129 17.6839 4.20435 18 5 18H16C16.1316 18.0008 16.2621 17.9756 16.3839 17.9258C16.5057 17.876 16.6166 17.8027 16.71 17.71L21.71 12.71C21.8037 12.6171 21.8781 12.5065 21.9289 12.3846C21.9797 12.2627 22.0058 12.132 22.0058 12C22.0058 11.868 21.9797 11.7373 21.9289 11.6154C21.8781 11.4936 21.8037 11.383 21.71 11.29ZM15.59 16H5C4.73478 16 4.48043 15.8947 4.29289 15.7071C4.10536 15.5196 4 15.2652 4 15V9.00002C4 8.7348 4.10536 8.48045 4.29289 8.29291C4.48043 8.10537 4.73478 8.00002 5 8.00002H15.59L19.59 12L15.59 16Z" />
</symbol><symbol viewBox="0 0 24 24" id="shopping-tag-3">
<path d="M21.71 11.29L16.71 6.29002C16.6166 6.19734 16.5057 6.12401 16.3839 6.07425C16.2621 6.02448 16.1316 5.99926 16 6.00002H5C4.20435 6.00002 3.44129 6.31609 2.87868 6.8787C2.31607 7.44131 2 8.20437 2 9.00002V15C2 15.7957 2.31607 16.5587 2.87868 17.1213C3.44129 17.6839 4.20435 18 5 18H16C16.1316 18.0008 16.2621 17.9756 16.3839 17.9258C16.5057 17.876 16.6166 17.8027 16.71 17.71L21.71 12.71C21.8037 12.6171 21.8781 12.5065 21.9289 12.3846C21.9797 12.2627 22.0058 12.132 22.0058 12C22.0058 11.868 21.9797 11.7373 21.9289 11.6154C21.8781 11.4936 21.8037 11.383 21.71 11.29ZM15.59 16H5C4.73478 16 4.48043 15.8947 4.29289 15.7071C4.10536 15.5196 4 15.2652 4 15V9.00002C4 8.7348 4.10536 8.48045 4.29289 8.29291C4.48043 8.10537 4.73478 8.00002 5 8.00002H15.59L19.59 12L15.59 16Z" />
</symbol></defs></svg>