<svg xmlns="http://www.w3.org/2000/svg" xmlns:xlink="http://www.w3.org/1999/xlink"><defs><symbol viewBox="0 0 24 24" id="security-key-hole">
<path d="M12 8C11.4696 8 10.9609 8.21071 10.5858 8.58579C10.2107 8.96086 10 9.46957 10 10C10.0021 10.349 10.0955 10.6914 10.271 10.9932C10.4464 11.2949 10.6977 11.5455 11 11.72V15C11 15.2652 11.1054 15.5196 11.2929 15.7071C11.4804 15.8946 11.7348 16 12 16C12.2652 16 12.5196 15.8946 12.7071 15.7071C12.8946 15.5196 13 15.2652 13 15V11.72C13.3023 11.5455 13.5536 11.2949 13.7291 10.9932C13.9045 10.6914 13.9979 10.349 14 10C14 9.46957 13.7893 8.96086 13.4142 8.58579C13.0391 8.21071 12.5304 8 12 8ZM12 2C10.0222 2 8.08879 2.58649 6.4443 3.6853C4.79981 4.78412 3.51809 6.3459 2.76121 8.17317C2.00433 10.0004 1.8063 12.0111 2.19215 13.9509C2.578 15.8907 3.53041 17.6725 4.92894 19.0711C6.32746 20.4696 8.10929 21.422 10.0491 21.8079C11.9889 22.1937 13.9996 21.9957 15.8268 21.2388C17.6541 20.4819 19.2159 19.2002 20.3147 17.5557C21.4135 15.9112 22 13.9778 22 12C22 10.6868 21.7413 9.38642 21.2388 8.17317C20.7363 6.95991 19.9997 5.85752 19.0711 4.92893C18.1425 4.00035 17.0401 3.26375 15.8268 2.7612C14.6136 2.25866 13.3132 2 12 2ZM12 20C10.4178 20 8.87104 19.5308 7.55544 18.6518C6.23985 17.7727 5.21447 16.5233 4.60897 15.0615C4.00347 13.5997 3.84504 11.9911 4.15372 10.4393C4.4624 8.88743 5.22433 7.46197 6.34315 6.34315C7.46197 5.22433 8.88743 4.4624 10.4393 4.15372C11.9911 3.84504 13.5997 4.00346 15.0615 4.60896C16.5233 5.21447 17.7727 6.23984 18.6518 7.55544C19.5308 8.87103 20 10.4177 20 12C20 14.1217 19.1572 16.1566 17.6569 17.6569C16.1566 19.1571 14.1217 20 12 20Z" />
</symbol><symbol viewBox="0 0 24 24" id="security-key-hole-1">
<path d="M11 11.72V15C11 15.2652 11.1054 15.5196 11.2929 15.7071C11.4804 15.8946 11.7348 16 12 16C12.2652 16 12.5196 15.8946 12.7071 15.7071C12.8946 15.5196 13 15.2652 13 15V11.72C13.3023 11.5455 13.5536 11.2949 13.7291 10.9932C13.9045 10.6914 13.9979 10.349 14 10C14 9.46957 13.7893 8.96086 13.4142 8.58579C13.0391 8.21071 12.5304 8 12 8C11.4696 8 10.9609 8.21071 10.5858 8.58579C10.2107 8.96086 10 9.46957 10 10C10.0021 10.349 10.0955 10.6914 10.2709 10.9932C10.4464 11.2949 10.6977 11.5455 11 11.72ZM21 2H3C2.73478 2 2.48043 2.10536 2.29289 2.29289C2.10536 2.48043 2 2.73478 2 3V21C2 21.2652 2.10536 21.5196 2.29289 21.7071C2.48043 21.8946 2.73478 22 3 22H21C21.2652 22 21.5196 21.8946 21.7071 21.7071C21.8946 21.5196 22 21.2652 22 21V3C22 2.73478 21.8946 2.48043 21.7071 2.29289C21.5196 2.10536 21.2652 2 21 2ZM20 20H4V4H20V20Z" />
</symbol><symbol viewBox="0 0 24 24" id="security-keyhole">
<path d="M19 2H5C4.20435 2 3.44129 2.31607 2.87868 2.87868C2.31607 3.44129 2 4.20435 2 5V19C2 19.7956 2.31607 20.5587 2.87868 21.1213C3.44129 21.6839 4.20435 22 5 22H19C19.7956 22 20.5587 21.6839 21.1213 21.1213C21.6839 20.5587 22 19.7956 22 19V5C22 4.20435 21.6839 3.44129 21.1213 2.87868C20.5587 2.31607 19.7956 2 19 2ZM20 19C20 19.2652 19.8946 19.5196 19.7071 19.7071C19.5196 19.8946 19.2652 20 19 20H5C4.73478 20 4.48043 19.8946 4.29289 19.7071C4.10536 19.5196 4 19.2652 4 19V5C4 4.73478 4.10536 4.48043 4.29289 4.29289C4.48043 4.10536 4.73478 4 5 4H19C19.2652 4 19.5196 4.10536 19.7071 4.29289C19.8946 4.48043 20 4.73478 20 5V19ZM12 8C11.4696 8 10.9609 8.21071 10.5858 8.58579C10.2107 8.96086 10 9.46957 10 10C10.0021 10.349 10.0955 10.6914 10.2709 10.9932C10.4464 11.2949 10.6977 11.5455 11 11.72V15C11 15.2652 11.1054 15.5196 11.2929 15.7071C11.4804 15.8946 11.7348 16 12 16C12.2652 16 12.5196 15.8946 12.7071 15.7071C12.8946 15.5196 13 15.2652 13 15V11.72C13.3023 11.5455 13.5536 11.2949 13.7291 10.9932C13.9045 10.6914 13.9979 10.349 14 10C14 9.46957 13.7893 8.96086 13.4142 8.58579C13.0391 8.21071 12.5304 8 12 8Z" />
</symbol><symbol viewBox="0 0 24 24" id="security-lock">
<path d="M21 2H15C14.7348 2 14.4804 2.10536 14.2929 2.29289C14.1054 2.48043 14 2.73478 14 3C14 3.26522 14.1054 3.51957 14.2929 3.70711C14.4804 3.89464 14.7348 4 15 4H20V9C20 9.26522 20.1054 9.51957 20.2929 9.70711C20.4804 9.89464 20.7348 10 21 10C21.2652 10 21.5196 9.89464 21.7071 9.70711C21.8946 9.51957 22 9.26522 22 9V3C22 2.73478 21.8946 2.48043 21.7071 2.29289C21.5196 2.10536 21.2652 2 21 2ZM21 14C20.7348 14 20.4804 14.1054 20.2929 14.2929C20.1054 14.4804 20 14.7348 20 15V20H15C14.7348 20 14.4804 20.1054 14.2929 20.2929C14.1054 20.4804 14 20.7348 14 21C14 21.2652 14.1054 21.5196 14.2929 21.7071C14.4804 21.8946 14.7348 22 15 22H21C21.2652 22 21.5196 21.8946 21.7071 21.7071C21.8946 21.5196 22 21.2652 22 21V15C22 14.7348 21.8946 14.4804 21.7071 14.2929C21.5196 14.1054 21.2652 14 21 14ZM12 6C11.2044 6 10.4413 6.31607 9.87868 6.87868C9.31607 7.44129 9 8.20435 9 9V10C8.46957 10 7.96086 10.2107 7.58579 10.5858C7.21071 10.9609 7 11.4696 7 12V16C7 16.5304 7.21071 17.0391 7.58579 17.4142C7.96086 17.7893 8.46957 18 9 18H15C15.5304 18 16.0391 17.7893 16.4142 17.4142C16.7893 17.0391 17 16.5304 17 16V12C17 11.4696 16.7893 10.9609 16.4142 10.5858C16.0391 10.2107 15.5304 10 15 10V9C15 8.20435 14.6839 7.44129 14.1213 6.87868C13.5587 6.31607 12.7956 6 12 6ZM11 9C11 8.73478 11.1054 8.48043 11.2929 8.29289C11.4804 8.10536 11.7348 8 12 8C12.2652 8 12.5196 8.10536 12.7071 8.29289C12.8946 8.48043 13 8.73478 13 9V10H11V9ZM15 16H9V12H15V16ZM3 10C3.26522 10 3.51957 9.89464 3.70711 9.70711C3.89464 9.51957 4 9.26522 4 9V4H9C9.26522 4 9.51957 3.89464 9.70711 3.70711C9.89464 3.51957 10 3.26522 10 3C10 2.73478 9.89464 2.48043 9.70711 2.29289C9.51957 2.10536 9.26522 2 9 2H3C2.73478 2 2.48043 2.10536 2.29289 2.29289C2.10536 2.48043 2 2.73478 2 3V9C2 9.26522 2.10536 9.51957 2.29289 9.70711C2.48043 9.89464 2.73478 10 3 10ZM9 20H4V15C4 14.7348 3.89464 14.4804 3.70711 14.2929C3.51957 14.1054 3.26522 14 3 14C2.73478 14 2.48043 14.1054 2.29289 14.2929C2.10536 14.4804 2 14.7348 2 15V21C2 21.2652 2.10536 21.5196 2.29289 21.7071C2.48043 21.8946 2.73478 22 3 22H9C9.26522 22 9.51957 21.8946 9.70711 21.7071C9.89464 21.5196 10 21.2652 10 21C10 20.7348 9.89464 20.4804 9.70711 20.2929C9.51957 20.1054 9.26522 20 9 20Z" />
</symbol><symbol viewBox="0 0 24 24" id="security-lock-1">
<path d="M12 13C11.7348 13 11.4804 13.1054 11.2929 13.2929C11.1054 13.4804 11 13.7348 11 14V17C11 17.2652 11.1054 17.5196 11.2929 17.7071C11.4804 17.8946 11.7348 18 12 18C12.2652 18 12.5196 17.8946 12.7071 17.7071C12.8946 17.5196 13 17.2652 13 17V14C13 13.7348 12.8946 13.4804 12.7071 13.2929C12.5196 13.1054 12.2652 13 12 13ZM17 9V7C17 5.67392 16.4732 4.40215 15.5355 3.46447C14.5979 2.52678 13.3261 2 12 2C10.6739 2 9.40215 2.52678 8.46447 3.46447C7.52678 4.40215 7 5.67392 7 7V9C6.20435 9 5.44129 9.31607 4.87868 9.87868C4.31607 10.4413 4 11.2044 4 12V19C4 19.7956 4.31607 20.5587 4.87868 21.1213C5.44129 21.6839 6.20435 22 7 22H17C17.7956 22 18.5587 21.6839 19.1213 21.1213C19.6839 20.5587 20 19.7956 20 19V12C20 11.2044 19.6839 10.4413 19.1213 9.87868C18.5587 9.31607 17.7956 9 17 9ZM9 7C9 6.20435 9.31607 5.44129 9.87868 4.87868C10.4413 4.31607 11.2044 4 12 4C12.7956 4 13.5587 4.31607 14.1213 4.87868C14.6839 5.44129 15 6.20435 15 7V9H9V7ZM18 19C18 19.2652 17.8946 19.5196 17.7071 19.7071C17.5196 19.8946 17.2652 20 17 20H7C6.73478 20 6.48043 19.8946 6.29289 19.7071C6.10536 19.5196 6 19.2652 6 19V12C6 11.7348 6.10536 11.4804 6.29289 11.2929C6.48043 11.1054 6.73478 11 7 11H17C17.2652 11 17.5196 11.1054 17.7071 11.2929C17.8946 11.4804 18 11.7348 18 12V19Z" />
</symbol><symbol viewBox="0 0 24 24" id="security-lock-2">
<path d="M12 13C11.6955 12.9964 11.3973 13.0862 11.1454 13.2573C10.8936 13.4284 10.7001 13.6725 10.5912 13.9568C10.4823 14.2411 10.4631 14.552 10.5361 14.8476C10.6092 15.1431 10.7711 15.4092 11 15.61V17C11 17.2652 11.1054 17.5196 11.2929 17.7071C11.4804 17.8946 11.7348 18 12 18C12.2652 18 12.5196 17.8946 12.7071 17.7071C12.8946 17.5196 13 17.2652 13 17V15.61C13.2289 15.4092 13.3908 15.1431 13.4639 14.8476C13.5369 14.552 13.5177 14.2411 13.4088 13.9568C13.2999 13.6725 13.1064 13.4284 12.8546 13.2573C12.6027 13.0862 12.3045 12.9964 12 13ZM17 9V7C17 5.67392 16.4732 4.40215 15.5355 3.46447C14.5979 2.52678 13.3261 2 12 2C10.6739 2 9.40215 2.52678 8.46447 3.46447C7.52678 4.40215 7 5.67392 7 7V9C6.20435 9 5.44129 9.31607 4.87868 9.87868C4.31607 10.4413 4 11.2044 4 12V19C4 19.7956 4.31607 20.5587 4.87868 21.1213C5.44129 21.6839 6.20435 22 7 22H17C17.7956 22 18.5587 21.6839 19.1213 21.1213C19.6839 20.5587 20 19.7956 20 19V12C20 11.2044 19.6839 10.4413 19.1213 9.87868C18.5587 9.31607 17.7956 9 17 9ZM9 7C9 6.20435 9.31607 5.44129 9.87868 4.87868C10.4413 4.31607 11.2044 4 12 4C12.7956 4 13.5587 4.31607 14.1213 4.87868C14.6839 5.44129 15 6.20435 15 7V9H9V7ZM18 19C18 19.2652 17.8946 19.5196 17.7071 19.7071C17.5196 19.8946 17.2652 20 17 20H7C6.73478 20 6.48043 19.8946 6.29289 19.7071C6.10536 19.5196 6 19.2652 6 19V12C6 11.7348 6.10536 11.4804 6.29289 11.2929C6.48043 11.1054 6.73478 11 7 11H17C17.2652 11 17.5196 11.1054 17.7071 11.2929C17.8946 11.4804 18 11.7348 18 12V19Z" />
</symbol><symbol viewBox="0 0 24 24" id="security-lock-open">
<path d="M17 9.00004H9V7.00004C8.99854 6.40623 9.17334 5.82534 9.50226 5.33095C9.83118 4.83655 10.2994 4.45089 10.8477 4.2228C11.3959 3.99472 11.9996 3.93447 12.5821 4.04969C13.1646 4.16491 13.6999 4.45041 14.12 4.87004C14.4959 5.25411 14.7649 5.72987 14.9 6.25004C14.9328 6.37742 14.9904 6.49709 15.0695 6.60221C15.1486 6.70734 15.2476 6.79585 15.3609 6.86271C15.4742 6.92957 15.5995 6.97346 15.7298 6.99188C15.86 7.01029 15.9926 7.00287 16.12 6.97004C16.2474 6.93721 16.3671 6.87961 16.4722 6.80053C16.5773 6.72146 16.6658 6.62245 16.7327 6.50916C16.7995 6.39587 16.8434 6.27052 16.8618 6.14028C16.8802 6.01003 16.8728 5.87742 16.84 5.75004C16.6122 4.88484 16.1603 4.09498 15.53 3.46004C14.8302 2.76241 13.9393 2.28778 12.97 2.09609C12.0006 1.90439 10.9961 2.00423 10.0835 2.383C9.17078 2.76176 8.3908 3.40247 7.84201 4.22422C7.29321 5.04596 7.00021 6.01189 7 7.00004V9.00004C6.20435 9.00004 5.44129 9.31611 4.87868 9.87872C4.31607 10.4413 4 11.2044 4 12V19C4 19.7957 4.31607 20.5588 4.87868 21.1214C5.44129 21.684 6.20435 22 7 22H17C17.7956 22 18.5587 21.684 19.1213 21.1214C19.6839 20.5588 20 19.7957 20 19V12C20 11.2044 19.6839 10.4413 19.1213 9.87872C18.5587 9.31611 17.7956 9.00004 17 9.00004ZM18 19C18 19.2653 17.8946 19.5196 17.7071 19.7071C17.5196 19.8947 17.2652 20 17 20H7C6.73478 20 6.48043 19.8947 6.29289 19.7071C6.10536 19.5196 6 19.2653 6 19V12C6 11.7348 6.10536 11.4805 6.29289 11.2929C6.48043 11.1054 6.73478 11 7 11H17C17.2652 11 17.5196 11.1054 17.7071 11.2929C17.8946 11.4805 18 11.7348 18 12V19Z" />
</symbol><symbol viewBox="0 0 24 24" id="security-not-protected">
<path d="M21.7102 20.2899L5.71019 4.28994L3.71019 2.28994C3.52188 2.10164 3.26649 1.99585 3.00019 1.99585C2.73388 1.99585 2.47849 2.10164 2.29019 2.28994C2.10188 2.47824 1.99609 2.73364 1.99609 2.99994C1.99609 3.26624 2.10188 3.52164 2.29019 3.70994L4.00019 5.40994V11.8799C4.00089 13.312 4.34331 14.7232 4.99901 15.9963C5.6547 17.2695 6.60474 18.3678 7.77019 19.1999L11.4202 21.8099C11.5895 21.9305 11.7923 21.9953 12.0002 21.9953C12.2081 21.9953 12.4108 21.9305 12.5802 21.8099L16.2302 19.1999C16.5323 18.9863 16.8196 18.7524 17.0902 18.4999L20.2902 21.7099C20.3831 21.8037 20.4937 21.8781 20.6156 21.9288C20.7375 21.9796 20.8682 22.0057 21.0002 22.0057C21.1322 22.0057 21.2629 21.9796 21.3848 21.9288C21.5066 21.8781 21.6172 21.8037 21.7102 21.7099C21.8039 21.617 21.8783 21.5064 21.9291 21.3845C21.9798 21.2627 22.006 21.132 22.006 20.9999C22.006 20.8679 21.9798 20.7372 21.9291 20.6154C21.8783 20.4935 21.8039 20.3829 21.7102 20.2899ZM15.0702 17.5799L12.0002 19.7699L8.93019 17.5799C8.02322 16.9318 7.28417 16.0764 6.77453 15.085C6.2649 14.0935 5.99942 12.9947 6.00019 11.8799V7.40994L15.6702 17.0899C15.4802 17.2599 15.2802 17.4199 15.0702 17.5799ZM10.0702 5.06994C10.7425 4.84482 11.3894 4.54988 12.0002 4.18994C13.7994 5.28469 15.9029 5.772 18.0002 5.57994V11.8799C18.0008 12.2754 17.9674 12.6702 17.9002 13.0599C17.8788 13.19 17.8833 13.323 17.9135 13.4513C17.9437 13.5796 17.9989 13.7007 18.0761 13.8075C18.1532 13.9144 18.2507 14.005 18.3629 14.074C18.4752 14.1431 18.6 14.1893 18.7302 14.2099H18.8902C19.1299 14.213 19.3627 14.1299 19.5462 13.9757C19.7298 13.8215 19.8519 13.6066 19.8902 13.3699C19.9687 12.8738 20.0088 12.3723 20.0102 11.8699V4.42994C20.0092 4.28223 19.9755 4.13658 19.9115 4.00344C19.8476 3.87031 19.7549 3.753 19.6402 3.65994C19.526 3.56568 19.3923 3.49794 19.2488 3.46162C19.1053 3.42531 18.9555 3.42132 18.8102 3.44994C17.7405 3.68199 16.6341 3.68891 15.5616 3.47027C14.489 3.25163 13.4737 2.8122 12.5802 2.17994C12.4128 2.06381 12.2139 2.00159 12.0102 2.00159C11.8065 2.00159 11.6076 2.06381 11.4402 2.17994C10.8236 2.60526 10.1504 2.94188 9.44019 3.17994C9.31543 3.22196 9.20017 3.28815 9.10099 3.37471C9.00182 3.46128 8.92066 3.56653 8.86216 3.68446C8.80366 3.80239 8.76896 3.93069 8.76004 4.06203C8.75112 4.19337 8.76816 4.32519 8.81019 4.44994C8.85221 4.5747 8.91839 4.68995 9.00496 4.78913C9.09152 4.88831 9.19678 4.96947 9.31471 5.02797C9.55288 5.14611 9.82823 5.16481 10.0802 5.07994L10.0702 5.06994Z" />
</symbol><symbol viewBox="0 0 24 24" id="security-pad-lock">
<path d="M17 9V7C17 5.67392 16.4732 4.40215 15.5355 3.46447C14.5979 2.52678 13.3261 2 12 2C10.6739 2 9.40215 2.52678 8.46447 3.46447C7.52678 4.40215 7 5.67392 7 7V9C6.20435 9 5.44129 9.31607 4.87868 9.87868C4.31607 10.4413 4 11.2044 4 12V19C4 19.7956 4.31607 20.5587 4.87868 21.1213C5.44129 21.6839 6.20435 22 7 22H17C17.7956 22 18.5587 21.6839 19.1213 21.1213C19.6839 20.5587 20 19.7956 20 19V12C20 11.2044 19.6839 10.4413 19.1213 9.87868C18.5587 9.31607 17.7956 9 17 9ZM9 7C9 6.20435 9.31607 5.44129 9.87868 4.87868C10.4413 4.31607 11.2044 4 12 4C12.7956 4 13.5587 4.31607 14.1213 4.87868C14.6839 5.44129 15 6.20435 15 7V9H9V7ZM18 19C18 19.2652 17.8946 19.5196 17.7071 19.7071C17.5196 19.8946 17.2652 20 17 20H7C6.73478 20 6.48043 19.8946 6.29289 19.7071C6.10536 19.5196 6 19.2652 6 19V12C6 11.7348 6.10536 11.4804 6.29289 11.2929C6.48043 11.1054 6.73478 11 7 11H17C17.2652 11 17.5196 11.1054 17.7071 11.2929C17.8946 11.4804 18 11.7348 18 12V19Z" />
</symbol><symbol viewBox="0 0 24 24" id="security-secure">
<path d="M19.63 3.64994C19.5138 3.55596 19.3781 3.48922 19.2327 3.45461C19.0873 3.41999 18.9361 3.4184 18.79 3.44994C17.7214 3.67389 16.6183 3.67674 15.5486 3.45833C14.4789 3.23991 13.4653 2.80486 12.57 2.17994C12.4026 2.06381 12.2037 2.00159 12 2.00159C11.7963 2.00159 11.5974 2.06381 11.43 2.17994C10.5348 2.80486 9.52108 3.23991 8.45137 3.45833C7.38166 3.67674 6.27857 3.67389 5.21001 3.44994C5.06394 3.4184 4.91267 3.41999 4.76731 3.45461C4.62194 3.48922 4.48618 3.55596 4.37001 3.64994C4.25399 3.74406 4.16053 3.86298 4.0965 3.99796C4.03247 4.13294 3.9995 4.28055 4.00001 4.42994V11.8799C3.99912 13.3137 4.34078 14.7269 4.99654 16.0019C5.6523 17.2769 6.60319 18.3768 7.77001 19.2099L11.42 21.8099C11.5894 21.9305 11.7921 21.9953 12 21.9953C12.2079 21.9953 12.4106 21.9305 12.58 21.8099L16.23 19.2099C17.3968 18.3768 18.3477 17.2769 19.0035 16.0019C19.6592 14.7269 20.0009 13.3137 20 11.8799V4.42994C20.0005 4.28055 19.9675 4.13294 19.9035 3.99796C19.8395 3.86298 19.746 3.74406 19.63 3.64994ZM18 11.8799C18.0008 12.9947 17.7353 14.0935 17.2257 15.085C16.716 16.0764 15.977 16.9318 15.07 17.5799L12 19.7699L8.93001 17.5799C8.02304 16.9318 7.28399 16.0764 6.77435 15.085C6.26472 14.0935 5.99924 12.9947 6.00001 11.8799V5.57994C8.09643 5.75938 10.196 5.27297 12 4.18994C13.804 5.27297 15.9036 5.75938 18 5.57994V11.8799Z" />
</symbol><symbol viewBox="0 0 24 24" id="security-shield">
<path d="M11.29 14.66C11.1053 14.8462 11.0011 15.0976 11 15.36C11.0003 15.494 11.0275 15.6266 11.08 15.75C11.1703 15.9619 11.3309 16.1361 11.5348 16.2433C11.7387 16.3504 11.9733 16.3839 12.1991 16.338C12.4248 16.2922 12.6278 16.1698 12.7737 15.9916C12.9196 15.8134 12.9996 15.5903 13 15.36C12.9989 15.0976 12.8947 14.8462 12.71 14.66C12.617 14.5662 12.5064 14.4918 12.3846 14.4411C12.2627 14.3903 12.132 14.3642 12 14.3642C11.868 14.3642 11.7373 14.3903 11.6154 14.4411C11.4936 14.4918 11.383 14.5662 11.29 14.66ZM19.63 3.65995C19.5138 3.56597 19.3781 3.49923 19.2327 3.46461C19.0873 3.43 18.9361 3.42841 18.79 3.45995C17.7214 3.6839 16.6183 3.68675 15.5486 3.46834C14.4789 3.24992 13.4653 2.81487 12.57 2.18995C12.4026 2.07382 12.2037 2.0116 12 2.0116C11.7963 2.0116 11.5974 2.07382 11.43 2.18995C10.534 2.81315 9.51998 3.24643 8.45029 3.46312C7.38061 3.6798 6.2779 3.67532 5.21001 3.44995C5.06394 3.41841 4.91267 3.42 4.76731 3.45461C4.62194 3.48923 4.48618 3.55597 4.37001 3.64995C4.25399 3.74407 4.16053 3.86299 4.0965 3.99797C4.03247 4.13295 3.9995 4.28056 4.00001 4.42995V11.88C3.99912 13.3137 4.34078 14.7269 4.99654 16.0019C5.6523 17.2769 6.60319 18.3768 7.77001 19.21L11.42 21.81C11.5894 21.9305 11.7921 21.9953 12 21.9953C12.2079 21.9953 12.4106 21.9305 12.58 21.81L16.23 19.21C17.3968 18.3768 18.3477 17.2769 19.0035 16.0019C19.6592 14.7269 20.0009 13.3137 20 11.88V4.42995C20.0005 4.28056 19.9675 4.13295 19.9035 3.99797C19.8395 3.86299 19.746 3.74407 19.63 3.64995V3.65995ZM18 11.88C18.0008 12.9947 17.7353 14.0935 17.2257 15.085C16.716 16.0764 15.977 16.9318 15.07 17.58L12 19.77L8.93001 17.58C8.02304 16.9318 7.28399 16.0764 6.77435 15.085C6.26472 14.0935 5.99924 12.9947 6.00001 11.88V5.57995C8.09643 5.75939 10.196 5.27297 12 4.18995C13.804 5.27297 15.9036 5.75939 18 5.57995V11.88ZM12 7.35995C11.4731 7.35961 10.9553 7.49807 10.4989 7.76139C10.0425 8.02472 9.66347 8.40361 9.40001 8.85995C9.28045 9.08849 9.25383 9.35439 9.32569 9.6021C9.39755 9.84981 9.56234 10.0602 9.78565 10.1892C10.0089 10.3183 10.2735 10.3561 10.524 10.2948C10.7745 10.2334 10.9916 10.0776 11.13 9.85995C11.2177 9.70808 11.3438 9.58194 11.4956 9.49418C11.6474 9.40642 11.8197 9.36013 11.995 9.35996C12.1704 9.35979 12.3427 9.40573 12.4947 9.49319C12.6467 9.58065 12.7731 9.70654 12.8611 9.85824C12.949 10.0099 12.9956 10.1821 12.996 10.3575C12.9965 10.5328 12.9508 10.7052 12.8635 10.8574C12.7763 11.0095 12.6506 11.136 12.499 11.2242C12.3475 11.3125 12.1754 11.3593 12 11.36C11.7348 11.36 11.4804 11.4653 11.2929 11.6528C11.1054 11.8404 11 12.0947 11 12.36C11 12.6252 11.1054 12.8795 11.2929 13.0671C11.4804 13.2546 11.7348 13.36 12 13.36C12.7957 13.36 13.5587 13.0439 14.1213 12.4813C14.6839 11.9187 15 11.1556 15 10.36C15 9.5643 14.6839 8.80124 14.1213 8.23863C13.5587 7.67602 12.7957 7.35995 12 7.35995Z" />
</symbol><symbol viewBox="0 0 24 24" id="security-shield-1">
<path d="M19.63 3.64994C19.5138 3.55596 19.3781 3.48922 19.2327 3.45461C19.0873 3.41999 18.9361 3.4184 18.79 3.44994C17.7214 3.67389 16.6183 3.67674 15.5486 3.45833C14.4789 3.23991 13.4653 2.80486 12.57 2.17994C12.4026 2.06381 12.2037 2.00159 12 2.00159C11.7963 2.00159 11.5974 2.06381 11.43 2.17994C10.5348 2.80486 9.52108 3.23991 8.45137 3.45833C7.38166 3.67674 6.27857 3.67389 5.21001 3.44994C5.06394 3.4184 4.91267 3.41999 4.76731 3.45461C4.62194 3.48922 4.48618 3.55596 4.37001 3.64994C4.25399 3.74406 4.16053 3.86298 4.0965 3.99796C4.03247 4.13294 3.9995 4.28055 4.00001 4.42994V11.8799C3.99912 13.3137 4.34078 14.7269 4.99654 16.0019C5.6523 17.2769 6.60319 18.3768 7.77001 19.2099L11.42 21.8099C11.5894 21.9305 11.7921 21.9953 12 21.9953C12.2079 21.9953 12.4106 21.9305 12.58 21.8099L16.23 19.2099C17.3968 18.3768 18.3477 17.2769 19.0035 16.0019C19.6592 14.7269 20.0009 13.3137 20 11.8799V4.42994C20.0005 4.28055 19.9675 4.13294 19.9035 3.99796C19.8395 3.86298 19.746 3.74406 19.63 3.64994ZM18 11.8799C18.0008 12.9947 17.7353 14.0935 17.2257 15.085C16.716 16.0764 15.977 16.9318 15.07 17.5799L12 19.7699L8.93001 17.5799C8.02304 16.9318 7.28399 16.0764 6.77435 15.085C6.26472 14.0935 5.99924 12.9947 6.00001 11.8799V5.57994C8.09643 5.75938 10.196 5.27297 12 4.18994C13.804 5.27297 15.9036 5.75938 18 5.57994V11.8799ZM13.54 9.58994L10.85 12.2899L9.96001 11.3899C9.7717 11.2016 9.51631 11.0958 9.25001 11.0958C8.9837 11.0958 8.72831 11.2016 8.54001 11.3899C8.3517 11.5782 8.24591 11.8336 8.24591 12.0999C8.24591 12.3662 8.3517 12.6216 8.54001 12.8099L10.14 14.4099C10.233 14.5037 10.3436 14.5781 10.4654 14.6288C10.5873 14.6796 10.718 14.7057 10.85 14.7057C10.982 14.7057 11.1127 14.6796 11.2346 14.6288C11.3564 14.5781 11.467 14.5037 11.56 14.4099L15 10.9999C15.1883 10.8116 15.2941 10.5562 15.2941 10.2899C15.2941 10.0236 15.1883 9.76825 15 9.57994C14.8117 9.39164 14.5563 9.28585 14.29 9.28585C14.0237 9.28585 13.7683 9.39164 13.58 9.57994L13.54 9.58994Z" />
</symbol><symbol viewBox="0 0 24 24" id="security-shield-2">
<path d="M12.92 14.9999C12.9 14.9385 12.8696 14.881 12.83 14.8299L12.71 14.6799C12.617 14.5862 12.5064 14.5118 12.3846 14.4611C12.2627 14.4103 12.132 14.3841 12 14.3841C11.868 14.3841 11.7373 14.4103 11.6154 14.4611C11.4936 14.5118 11.383 14.5862 11.29 14.6799C11.2423 14.7233 11.2018 14.7739 11.17 14.8299C11.1304 14.881 11.1 14.9385 11.08 14.9999C11.051 15.0601 11.0308 15.1241 11.02 15.1899C11.0151 15.2532 11.0151 15.3167 11.02 15.3799C11.0165 15.5143 11.0439 15.6478 11.1 15.7699C11.2018 16.0131 11.3954 16.2063 11.6389 16.3074C11.8823 16.4086 12.1559 16.4095 12.4 16.3099C12.5215 16.2556 12.6331 16.1812 12.73 16.0899C12.82 15.9978 12.8913 15.8891 12.94 15.7699C12.9925 15.6466 13.0197 15.514 13.02 15.3799C13.0249 15.3167 13.0249 15.2532 13.02 15.1899C12.9966 15.1218 12.9629 15.0578 12.92 14.9999ZM12 7.35994C11.7348 7.35994 11.4804 7.4653 11.2929 7.65284C11.1054 7.84037 11 8.09473 11 8.35994V11.3599C11 11.6252 11.1054 11.8795 11.2929 12.067C11.4804 12.2546 11.7348 12.3599 12 12.3599C12.2652 12.3599 12.5196 12.2546 12.7071 12.067C12.8946 11.8795 13 11.6252 13 11.3599V8.35994C13 8.09473 12.8946 7.84037 12.7071 7.65284C12.5196 7.4653 12.2652 7.35994 12 7.35994ZM19.63 3.64994C19.5138 3.55596 19.3781 3.48922 19.2327 3.45461C19.0873 3.41999 18.9361 3.4184 18.79 3.44994C17.7214 3.67389 16.6183 3.67674 15.5486 3.45833C14.4789 3.23991 13.4653 2.80486 12.57 2.17994C12.4026 2.06381 12.2037 2.00159 12 2.00159C11.7963 2.00159 11.5974 2.06381 11.43 2.17994C10.5348 2.80486 9.52108 3.23991 8.45137 3.45833C7.38166 3.67674 6.27857 3.67389 5.21001 3.44994C5.06394 3.4184 4.91267 3.41999 4.76731 3.45461C4.62194 3.48922 4.48618 3.55596 4.37001 3.64994C4.25399 3.74406 4.16053 3.86298 4.0965 3.99796C4.03247 4.13294 3.9995 4.28055 4.00001 4.42994V11.8799C3.99912 13.3137 4.34078 14.7269 4.99654 16.0019C5.6523 17.2769 6.60319 18.3768 7.77001 19.2099L11.42 21.8099C11.5894 21.9305 11.7921 21.9953 12 21.9953C12.2079 21.9953 12.4106 21.9305 12.58 21.8099L16.23 19.2099C17.3968 18.3768 18.3477 17.2769 19.0035 16.0019C19.6592 14.7269 20.0009 13.3137 20 11.8799V4.42994C20.0005 4.28055 19.9675 4.13294 19.9035 3.99796C19.8395 3.86298 19.746 3.74406 19.63 3.64994ZM18 11.8799C18.0008 12.9947 17.7353 14.0935 17.2257 15.085C16.716 16.0764 15.977 16.9318 15.07 17.5799L12 19.7699L8.93001 17.5799C8.02304 16.9318 7.28399 16.0764 6.77435 15.085C6.26472 14.0935 5.99924 12.9947 6.00001 11.8799V5.57994C8.09643 5.75938 10.196 5.27297 12 4.18994C13.804 5.27297 15.9036 5.75938 18 5.57994V11.8799Z" />
</symbol><symbol viewBox="0 0 24 24" id="security-unlock">
<path d="M12 13C11.6955 12.9965 11.3973 13.0863 11.1454 13.2573C10.8936 13.4284 10.7001 13.6725 10.5912 13.9568C10.4823 14.2412 10.4631 14.552 10.5361 14.8476C10.6092 15.1432 10.7711 15.4093 11 15.61V17C11 17.2653 11.1054 17.5196 11.2929 17.7071C11.4804 17.8947 11.7348 18 12 18C12.2652 18 12.5196 17.8947 12.7071 17.7071C12.8946 17.5196 13 17.2653 13 17V15.61C13.2289 15.4093 13.3908 15.1432 13.4639 14.8476C13.5369 14.552 13.5177 14.2412 13.4088 13.9568C13.2999 13.6725 13.1064 13.4284 12.8546 13.2573C12.6027 13.0863 12.3045 12.9965 12 13ZM17 9.00004H9V7.00004C8.99854 6.40623 9.17334 5.82534 9.50226 5.33095C9.83118 4.83655 10.2994 4.45089 10.8477 4.2228C11.3959 3.99472 11.9996 3.93447 12.5821 4.04969C13.1646 4.16491 13.6999 4.45041 14.12 4.87004C14.4959 5.25411 14.7649 5.72987 14.9 6.25004C14.9328 6.37742 14.9904 6.49709 15.0695 6.60221C15.1486 6.70734 15.2476 6.79585 15.3609 6.86271C15.4742 6.92957 15.5995 6.97346 15.7298 6.99188C15.86 7.01029 15.9926 7.00287 16.12 6.97004C16.2474 6.93721 16.3671 6.87961 16.4722 6.80053C16.5773 6.72146 16.6658 6.62245 16.7327 6.50916C16.7995 6.39587 16.8434 6.27052 16.8618 6.14028C16.8802 6.01003 16.8728 5.87742 16.84 5.75004C16.6122 4.88484 16.1603 4.09498 15.53 3.46004C14.8302 2.76241 13.9393 2.28778 12.97 2.09609C12.0006 1.90439 10.9961 2.00423 10.0835 2.383C9.17078 2.76176 8.3908 3.40247 7.84201 4.22422C7.29321 5.04596 7.00021 6.01189 7 7.00004V9.00004C6.20435 9.00004 5.44129 9.31611 4.87868 9.87872C4.31607 10.4413 4 11.2044 4 12V19C4 19.7957 4.31607 20.5588 4.87868 21.1214C5.44129 21.684 6.20435 22 7 22H17C17.7956 22 18.5587 21.684 19.1213 21.1214C19.6839 20.5588 20 19.7957 20 19V12C20 11.2044 19.6839 10.4413 19.1213 9.87872C18.5587 9.31611 17.7956 9.00004 17 9.00004ZM18 19C18 19.2653 17.8946 19.5196 17.7071 19.7071C17.5196 19.8947 17.2652 20 17 20H7C6.73478 20 6.48043 19.8947 6.29289 19.7071C6.10536 19.5196 6 19.2653 6 19V12C6 11.7348 6.10536 11.4805 6.29289 11.2929C6.48043 11.1054 6.73478 11 7 11H17C17.2652 11 17.5196 11.1054 17.7071 11.2929C17.8946 11.4805 18 11.7348 18 12V19Z" />
</symbol><symbol viewBox="0 0 24 24" id="security-unlock-1">
<path d="M12 13C11.7348 13 11.4804 13.1054 11.2929 13.2929C11.1054 13.4805 11 13.7348 11 14V17C11 17.2653 11.1054 17.5196 11.2929 17.7071C11.4804 17.8947 11.7348 18 12 18C12.2652 18 12.5196 17.8947 12.7071 17.7071C12.8946 17.5196 13 17.2653 13 17V14C13 13.7348 12.8946 13.4805 12.7071 13.2929C12.5196 13.1054 12.2652 13 12 13ZM17 9.00004H9V7.00004C8.99854 6.40623 9.17334 5.82534 9.50226 5.33095C9.83118 4.83655 10.2994 4.45089 10.8477 4.2228C11.3959 3.99472 11.9996 3.93447 12.5821 4.04969C13.1646 4.16491 13.6999 4.45041 14.12 4.87004C14.4959 5.25411 14.7649 5.72987 14.9 6.25004C14.9328 6.37742 14.9904 6.49709 15.0695 6.60221C15.1486 6.70734 15.2476 6.79585 15.3609 6.86271C15.4742 6.92957 15.5995 6.97346 15.7298 6.99188C15.86 7.01029 15.9926 7.00287 16.12 6.97004C16.2474 6.93721 16.3671 6.87961 16.4722 6.80053C16.5773 6.72146 16.6658 6.62245 16.7327 6.50916C16.7995 6.39587 16.8434 6.27052 16.8618 6.14028C16.8802 6.01003 16.8728 5.87742 16.84 5.75004C16.6122 4.88484 16.1603 4.09498 15.53 3.46004C14.8302 2.76241 13.9393 2.28778 12.97 2.09609C12.0006 1.90439 10.9961 2.00423 10.0835 2.383C9.17078 2.76176 8.3908 3.40247 7.84201 4.22422C7.29321 5.04596 7.00021 6.01189 7 7.00004V9.00004C6.20435 9.00004 5.44129 9.31611 4.87868 9.87872C4.31607 10.4413 4 11.2044 4 12V19C4 19.7957 4.31607 20.5588 4.87868 21.1214C5.44129 21.684 6.20435 22 7 22H17C17.7956 22 18.5587 21.684 19.1213 21.1214C19.6839 20.5588 20 19.7957 20 19V12C20 11.2044 19.6839 10.4413 19.1213 9.87872C18.5587 9.31611 17.7956 9.00004 17 9.00004ZM18 19C18 19.2653 17.8946 19.5196 17.7071 19.7071C17.5196 19.8947 17.2652 20 17 20H7C6.73478 20 6.48043 19.8947 6.29289 19.7071C6.10536 19.5196 6 19.2653 6 19V12C6 11.7348 6.10536 11.4805 6.29289 11.2929C6.48043 11.1054 6.73478 11 7 11H17C17.2652 11 17.5196 11.1054 17.7071 11.2929C17.8946 11.4805 18 11.7348 18 12V19Z" />
</symbol></defs></svg>