<svg xmlns="http://www.w3.org/2000/svg" xmlns:xlink="http://www.w3.org/1999/xlink"><defs><symbol viewBox="0 0 24 24" id="medical-add-book">
<path d="M13 9H11V7C11 6.73478 10.8946 6.48043 10.7071 6.29289C10.5196 6.10536 10.2652 6 10 6C9.73478 6 9.48043 6.10536 9.29289 6.29289C9.10536 6.48043 9 6.73478 9 7V9H7C6.73478 9 6.48043 9.10536 6.29289 9.29289C6.10536 9.48043 6 9.73478 6 10C6 10.2652 6.10536 10.5196 6.29289 10.7071C6.48043 10.8946 6.73478 11 7 11H9V13C9 13.2652 9.10536 13.5196 9.29289 13.7071C9.48043 13.8946 9.73478 14 10 14C10.2652 14 10.5196 13.8946 10.7071 13.7071C10.8946 13.5196 11 13.2652 11 13V11H13C13.2652 11 13.5196 10.8946 13.7071 10.7071C13.8946 10.5196 14 10.2652 14 10C14 9.73478 13.8946 9.48043 13.7071 9.29289C13.5196 9.10536 13.2652 9 13 9ZM18 15V5C18 4.20435 17.6839 3.44129 17.1213 2.87868C16.5587 2.31607 15.7956 2 15 2H5C4.20435 2 3.44129 2.31607 2.87868 2.87868C2.31607 3.44129 2 4.20435 2 5V15C2 15.7956 2.31607 16.5587 2.87868 17.1213C3.44129 17.6839 4.20435 18 5 18H15C15.7956 18 16.5587 17.6839 17.1213 17.1213C17.6839 16.5587 18 15.7956 18 15ZM4 15V5C4 4.73478 4.10536 4.48043 4.29289 4.29289C4.48043 4.10536 4.73478 4 5 4H15C15.2652 4 15.5196 4.10536 15.7071 4.29289C15.8946 4.48043 16 4.73478 16 5V15C16 15.2652 15.8946 15.5196 15.7071 15.7071C15.5196 15.8946 15.2652 16 15 16H5C4.73478 16 4.48043 15.8946 4.29289 15.7071C4.10536 15.5196 4 15.2652 4 15ZM21 6C20.7348 6 20.4804 6.10536 20.2929 6.29289C20.1054 6.48043 20 6.73478 20 7V17C20 17.7956 19.6839 18.5587 19.1213 19.1213C18.5587 19.6839 17.7956 20 17 20H7C6.73478 20 6.48043 20.1054 6.29289 20.2929C6.10536 20.4804 6 20.7348 6 21C6 21.2652 6.10536 21.5196 6.29289 21.7071C6.48043 21.8946 6.73478 22 7 22H17C18.3261 22 19.5979 21.4732 20.5355 20.5355C21.4732 19.5979 22 18.3261 22 17V7C22 6.73478 21.8946 6.48043 21.7071 6.29289C21.5196 6.10536 21.2652 6 21 6Z" />
</symbol><symbol viewBox="0 0 24 24" id="medical-ambulance">
<path d="M10.5 9.5H9.5V8.5C9.5 8.23478 9.39464 7.98043 9.20711 7.79289C9.01957 7.60536 8.76522 7.5 8.5 7.5C8.23478 7.5 7.98043 7.60536 7.79289 7.79289C7.60536 7.98043 7.5 8.23478 7.5 8.5V9.5H6.5C6.23478 9.5 5.98043 9.60536 5.79289 9.79289C5.60536 9.98043 5.5 10.2348 5.5 10.5C5.5 10.7652 5.60536 11.0196 5.79289 11.2071C5.98043 11.3946 6.23478 11.5 6.5 11.5H7.5V12.5C7.5 12.7652 7.60536 13.0196 7.79289 13.2071C7.98043 13.3946 8.23478 13.5 8.5 13.5C8.76522 13.5 9.01957 13.3946 9.20711 13.2071C9.39464 13.0196 9.5 12.7652 9.5 12.5V11.5H10.5C10.7652 11.5 11.0196 11.3946 11.2071 11.2071C11.3946 11.0196 11.5 10.7652 11.5 10.5C11.5 10.2348 11.3946 9.98043 11.2071 9.79289C11.0196 9.60536 10.7652 9.5 10.5 9.5ZM22.93 11.65L22.87 11.54C22.8528 11.4905 22.8292 11.4435 22.8 11.4L20.4 8.2C20.1206 7.82741 19.7582 7.525 19.3416 7.31672C18.9251 7.10844 18.4657 7 18 7H16V6C16 5.20435 15.6839 4.44129 15.1213 3.87868C14.5587 3.31607 13.7956 3 13 3H4C3.20435 3 2.44129 3.31607 1.87868 3.87868C1.31607 4.44129 1 5.20435 1 6V17C1 17.2652 1.10536 17.5196 1.29289 17.7071C1.48043 17.8946 1.73478 18 2 18H3C3 18.7956 3.31607 19.5587 3.87868 20.1213C4.44129 20.6839 5.20435 21 6 21C6.79565 21 7.55871 20.6839 8.12132 20.1213C8.68393 19.5587 9 18.7956 9 18H15C15 18.7956 15.3161 19.5587 15.8787 20.1213C16.4413 20.6839 17.2044 21 18 21C18.7956 21 19.5587 20.6839 20.1213 20.1213C20.6839 19.5587 21 18.7956 21 18H22C22.2652 18 22.5196 17.8946 22.7071 17.7071C22.8946 17.5196 23 17.2652 23 17V12C22.9978 11.8801 22.9741 11.7615 22.93 11.65ZM6 19C5.80222 19 5.60888 18.9414 5.44443 18.8315C5.27998 18.7216 5.15181 18.5654 5.07612 18.3827C5.00043 18.2 4.98063 17.9989 5.01921 17.8049C5.0578 17.6109 5.15304 17.4327 5.29289 17.2929C5.43275 17.153 5.61093 17.0578 5.80491 17.0192C5.99889 16.9806 6.19996 17.0004 6.38268 17.0761C6.56541 17.1518 6.72159 17.28 6.83147 17.4444C6.94135 17.6089 7 17.8022 7 18C7 18.2652 6.89464 18.5196 6.70711 18.7071C6.51957 18.8946 6.26522 19 6 19ZM14 16H8.22C7.93882 15.6906 7.59609 15.4435 7.21378 15.2743C6.83148 15.1052 6.41805 15.0178 6 15.0178C5.58195 15.0178 5.16852 15.1052 4.78622 15.2743C4.40391 15.4435 4.06118 15.6906 3.78 16H3V6C3 5.73478 3.10536 5.48043 3.29289 5.29289C3.48043 5.10536 3.73478 5 4 5H13C13.2652 5 13.5196 5.10536 13.7071 5.29289C13.8946 5.48043 14 5.73478 14 6V16ZM16 9H18C18.1552 9 18.3084 9.03615 18.4472 9.10557C18.5861 9.175 18.7069 9.2758 18.8 9.4L20 11H16V9ZM18 19C17.8022 19 17.6089 18.9414 17.4444 18.8315C17.28 18.7216 17.1518 18.5654 17.0761 18.3827C17.0004 18.2 16.9806 17.9989 17.0192 17.8049C17.0578 17.6109 17.153 17.4327 17.2929 17.2929C17.4327 17.153 17.6109 17.0578 17.8049 17.0192C17.9989 16.9806 18.2 17.0004 18.3827 17.0761C18.5654 17.1518 18.7216 17.28 18.8315 17.4444C18.9414 17.6089 19 17.8022 19 18C19 18.2652 18.8946 18.5196 18.7071 18.7071C18.5196 18.8946 18.2652 19 18 19ZM21 16H20.22C19.6879 15.414 18.9457 15.0621 18.1553 15.0209C17.3649 14.9797 16.5902 15.2526 16 15.78V13H21V16Z" />
</symbol><symbol viewBox="0 0 24 24" id="medical-assistive-listeningsystems">
<path d="M11 3C9.14349 3 7.36301 3.7375 6.05025 5.05025C4.7375 6.36301 4 8.14348 4 10C4 10.2652 4.10536 10.5196 4.29289 10.7071C4.48043 10.8946 4.73478 11 5 11C5.26522 11 5.51957 10.8946 5.70711 10.7071C5.89464 10.5196 6 10.2652 6 10C6 8.67392 6.52678 7.40215 7.46447 6.46447C8.40215 5.52678 9.67392 5 11 5C12.3261 5 13.5979 5.52678 14.5355 6.46447C15.4732 7.40215 16 8.67392 16 10C15.9969 10.9047 15.7517 11.792 15.29 12.57L11.73 20C11.5546 20.3037 11.3025 20.556 10.9988 20.7315C10.6952 20.9071 10.3507 20.9996 10 21C9.46957 21 8.96086 20.7893 8.58579 20.4142C8.21071 20.0391 8 19.5304 8 19C8 18.7348 7.89464 18.4804 7.70711 18.2929C7.51957 18.1054 7.26522 18 7 18C6.73478 18 6.48043 18.1054 6.29289 18.2929C6.10536 18.4804 6 18.7348 6 19C6 20.0609 6.42143 21.0783 7.17157 21.8284C7.92172 22.5786 8.93913 23 10 23C10.7152 22.9994 11.4171 22.807 12.0327 22.4429C12.6482 22.0789 13.1549 21.5564 13.5 20.93L17.06 13.5C17.6782 12.4374 18.0027 11.2294 18 10C18 8.14348 17.2625 6.36301 15.9497 5.05025C14.637 3.7375 12.8565 3 11 3ZM4 15C3.80222 15 3.60888 15.0586 3.44443 15.1685C3.27998 15.2784 3.15181 15.4346 3.07612 15.6173C3.00043 15.8 2.98063 16.0011 3.01922 16.1951C3.0578 16.3891 3.15304 16.5673 3.29289 16.7071C3.43275 16.847 3.61093 16.9422 3.80491 16.9808C3.99889 17.0194 4.19996 16.9996 4.38268 16.9239C4.56541 16.8482 4.72159 16.72 4.83147 16.5556C4.94135 16.3911 5 16.1978 5 16C5 15.7348 4.89464 15.4804 4.70711 15.2929C4.51957 15.1054 4.26522 15 4 15ZM17.59 1.2C17.4849 1.12121 17.3654 1.06388 17.2382 1.03129C17.111 0.998695 16.9786 0.991479 16.8486 1.01005C16.7186 1.02862 16.5935 1.07262 16.4805 1.13953C16.3675 1.20643 16.2688 1.29494 16.19 1.4C16.1112 1.50506 16.0539 1.62461 16.0213 1.75182C15.9887 1.87903 15.9815 2.01142 16.0001 2.14142C16.0186 2.27142 16.0626 2.39649 16.1295 2.50949C16.1964 2.62249 16.2849 2.72121 16.39 2.8C17.5096 3.63728 18.4188 4.72387 19.0454 5.97363C19.672 7.22339 19.9988 8.60195 20 10C20 10.2652 20.1054 10.5196 20.2929 10.7071C20.4804 10.8946 20.7348 11 21 11C21.2652 11 21.5196 10.8946 21.7071 10.7071C21.8946 10.5196 22 10.2652 22 10C21.9942 8.29228 21.593 6.6091 20.8279 5.08236C20.0628 3.55562 18.9546 2.22679 17.59 1.2ZM11 9C11.2652 9 11.5196 9.10536 11.7071 9.29289C11.8946 9.48043 12 9.73478 12 10C12 10.2652 12.1054 10.5196 12.2929 10.7071C12.4804 10.8946 12.7348 11 13 11C13.2652 11 13.5196 10.8946 13.7071 10.7071C13.8946 10.5196 14 10.2652 14 10C14 9.20435 13.6839 8.44129 13.1213 7.87868C12.5587 7.31607 11.7957 7 11 7C10.2044 7 9.44129 7.31607 8.87868 7.87868C8.31607 8.44129 8 9.20435 8 10C7.99866 10.5983 8.17627 11.1834 8.51 11.68C8.6478 11.8756 8.80529 12.0565 8.98 12.22L9.18 12.44C9.28964 12.6043 9.34815 12.7975 9.34815 12.995C9.34815 13.1925 9.28964 13.3857 9.18 13.55C9.02918 13.7676 8.97081 14.0361 9.01767 14.2967C9.06454 14.5572 9.21282 14.7886 9.43 14.94C9.59721 15.0567 9.79609 15.1195 10 15.12C10.1612 15.1197 10.32 15.0805 10.4628 15.0056C10.6055 14.9307 10.7281 14.8225 10.82 14.69C11.1618 14.1908 11.3447 13.6 11.3447 12.995C11.3447 12.39 11.1618 11.7992 10.82 11.3C10.7148 11.1508 10.5978 11.0103 10.47 10.88L10.33 10.74C10.2715 10.6848 10.2179 10.6246 10.17 10.56C10.0588 10.3945 9.99956 10.1994 10 10C10 9.73478 10.1054 9.48043 10.2929 9.29289C10.4804 9.10536 10.7348 9 11 9ZM7 15C7.19778 15 7.39112 14.9414 7.55557 14.8315C7.72002 14.7216 7.84819 14.5654 7.92388 14.3827C7.99957 14.2 8.01937 13.9989 7.98079 13.8049C7.9422 13.6109 7.84696 13.4327 7.70711 13.2929C7.56725 13.153 7.38907 13.0578 7.19509 13.0192C7.00111 12.9806 6.80004 13.0004 6.61732 13.0761C6.43459 13.1518 6.27841 13.28 6.16853 13.4444C6.05865 13.6089 6 13.8022 6 14C6 14.2652 6.10536 14.5196 6.29289 14.7071C6.48043 14.8946 6.73478 15 7 15Z" />
</symbol><symbol viewBox="0 0 24 24" id="medical-bandage">
<path d="M8.81962 11.29C8.72589 11.383 8.65149 11.4936 8.60073 11.6154C8.54996 11.7373 8.52382 11.868 8.52382 12C8.52382 12.132 8.54996 12.2627 8.60073 12.3846C8.65149 12.5065 8.72589 12.6171 8.81962 12.71C9.00698 12.8963 9.26043 13.0008 9.52462 13.0008C9.7888 13.0008 10.0423 12.8963 10.2296 12.71C10.3233 12.6171 10.3977 12.5065 10.4485 12.3846C10.4993 12.2627 10.5254 12.132 10.5254 12C10.5254 11.868 10.4993 11.7373 10.4485 11.6154C10.3977 11.4936 10.3233 11.383 10.2296 11.29C10.0423 11.1038 9.7888 10.9992 9.52462 10.9992C9.26043 10.9992 9.00698 11.1038 8.81962 11.29ZM11.2896 13.77C11.1034 13.9574 10.9988 14.2108 10.9988 14.475C10.9988 14.7392 11.1034 14.9927 11.2896 15.18C11.3826 15.2737 11.4932 15.3481 11.615 15.3989C11.7369 15.4497 11.8676 15.4758 11.9996 15.4758C12.1316 15.4758 12.2623 15.4497 12.3842 15.3989C12.5061 15.3481 12.6167 15.2737 12.7096 15.18C12.8959 14.9927 13.0004 14.7392 13.0004 14.475C13.0004 14.2108 12.8959 13.9574 12.7096 13.77C12.6167 13.6763 12.5061 13.6019 12.3842 13.5511C12.2623 13.5004 12.1316 13.4742 11.9996 13.4742C11.8676 13.4742 11.7369 13.5004 11.615 13.5511C11.4932 13.6019 11.3826 13.6763 11.2896 13.77ZM20.2896 3.77002C19.2018 2.67324 17.7329 2.03827 16.1887 1.99729C14.6446 1.95631 13.1441 2.51248 11.9996 3.55002C10.8605 2.5246 9.37208 1.974 7.83984 2.01119C6.3076 2.04838 4.84768 2.67054 3.75962 3.75002C2.67863 4.83986 2.05647 6.30256 2.02112 7.83717C1.98578 9.37178 2.53995 10.8616 3.56962 12C2.79979 12.8607 2.29466 13.9251 2.11483 15.0658C1.935 16.2064 2.08812 17.3746 2.55582 18.4304C3.02351 19.4861 3.78591 20.3845 4.75152 21.0177C5.71714 21.6508 6.84495 21.9919 7.99962 22C9.47984 22.0016 10.907 21.4486 11.9996 20.45C13.1393 21.4784 14.6298 22.0308 16.1645 21.9936C17.6991 21.9564 19.1611 21.3324 20.2496 20.25C21.3292 19.1589 21.9496 17.6955 21.983 16.1609C22.0165 14.6263 21.4606 13.1372 20.4296 12C21.4606 10.8628 22.0165 9.37376 21.983 7.83916C21.9496 6.30456 21.3292 4.84116 20.2496 3.75002L20.2896 3.77002ZM18.8296 5.17002C19.525 5.88541 19.928 6.83486 19.9595 7.83206C19.9909 8.82927 19.6486 9.80223 18.9996 10.56L13.4396 5.00002C14.204 4.36575 15.174 4.03293 16.1668 4.06424C17.1596 4.09555 18.1067 4.48884 18.8296 5.17002ZM5.16962 18.83C4.47418 18.1146 4.0712 17.1652 4.03975 16.168C4.0083 15.1708 4.35065 14.1978 4.99962 13.44L10.5996 19.04C9.82673 19.678 8.84604 20.0093 7.84457 19.9705C6.8431 19.9318 5.89093 19.5258 5.16962 18.83ZM18.8296 18.83C18.0704 19.5562 17.0602 19.9615 16.0096 19.9615C14.959 19.9615 13.9489 19.5562 13.1896 18.83L5.18962 10.83C4.44461 10.0806 4.02645 9.06676 4.02645 8.01002C4.02645 6.95327 4.44461 5.93947 5.18962 5.19002C5.93907 4.44501 6.95287 4.02685 8.00962 4.02685C9.06636 4.02685 10.0802 4.44501 10.8296 5.19002L18.8296 13.19C19.5746 13.9395 19.9928 14.9533 19.9928 16.01C19.9928 17.0668 19.5746 18.0806 18.8296 18.83ZM13.7696 11.29C13.6759 11.383 13.6015 11.4936 13.5507 11.6154C13.5 11.7373 13.4738 11.868 13.4738 12C13.4738 12.132 13.5 12.2627 13.5507 12.3846C13.6015 12.5065 13.6759 12.6171 13.7696 12.71C13.957 12.8963 14.2104 13.0008 14.4746 13.0008C14.7388 13.0008 14.9923 12.8963 15.1796 12.71C15.2733 12.6171 15.3477 12.5065 15.3985 12.3846C15.4493 12.2627 15.4754 12.132 15.4754 12C15.4754 11.868 15.4493 11.7373 15.3985 11.6154C15.3477 11.4936 15.2733 11.383 15.1796 11.29C14.9923 11.1038 14.7388 10.9992 14.4746 10.9992C14.2104 10.9992 13.957 11.1038 13.7696 11.29ZM11.2896 8.82002C11.1034 9.00738 10.9988 9.26083 10.9988 9.52502C10.9988 9.7892 11.1034 10.0427 11.2896 10.23C11.3826 10.3237 11.4932 10.3981 11.615 10.4489C11.7369 10.4997 11.8676 10.5258 11.9996 10.5258C12.1316 10.5258 12.2623 10.4997 12.3842 10.4489C12.5061 10.3981 12.6167 10.3237 12.7096 10.23C12.8959 10.0427 13.0004 9.7892 13.0004 9.52502C13.0004 9.26083 12.8959 9.00738 12.7096 8.82002C12.6167 8.72629 12.5061 8.65189 12.3842 8.60113C12.2623 8.55036 12.1316 8.52422 11.9996 8.52422C11.8676 8.52422 11.7369 8.55036 11.615 8.60113C11.4932 8.65189 11.3826 8.72629 11.2896 8.82002Z" />
</symbol><symbol viewBox="0 0 24 24" id="medical-ear">
<path d="M12 8C12.2652 8.00018 12.5194 8.10559 12.7069 8.29309C12.8944 8.48059 12.9998 8.73484 13 9C13 9.26522 13.1054 9.51957 13.2929 9.70711C13.4804 9.89464 13.7348 10 14 10C14.2652 10 14.5196 9.89464 14.7071 9.70711C14.8946 9.51957 15 9.26522 15 9C14.9997 8.50078 14.8749 8.00952 14.6367 7.57077C14.3986 7.13201 14.0547 6.75963 13.6362 6.48739C13.2178 6.21514 12.738 6.05165 12.2404 6.01172C11.7428 5.97179 11.2431 6.0567 10.7866 6.25874C10.33 6.46079 9.93119 6.77357 9.62614 7.16875C9.32109 7.56392 9.11949 8.02899 9.03963 8.52178C8.95977 9.01456 9.00417 9.51949 9.1688 9.99078C9.33343 10.4621 9.61309 10.8848 9.98242 11.2207C9.99242 11.2298 10.1436 11.3906 10.1758 11.4355C10.289 11.6002 10.3496 11.7953 10.3496 11.9951C10.3496 12.1949 10.289 12.3901 10.1758 12.5547C10.1015 12.6629 10.0493 12.7847 10.0221 12.9131C9.99496 13.0416 9.99334 13.1741 10.0174 13.3031C10.0414 13.4322 10.0906 13.5552 10.1622 13.6652C10.2338 13.7752 10.3263 13.8701 10.4346 13.9443C10.5428 14.0186 10.6646 14.0708 10.793 14.098C10.9214 14.1252 11.054 14.1268 11.183 14.1028C11.312 14.0787 11.4351 14.0295 11.5451 13.9579C11.6551 13.8863 11.75 13.7938 11.8242 13.6855C12.1672 13.1869 12.3505 12.5957 12.3496 11.9905C12.3487 11.3852 12.1638 10.7945 11.8193 10.2969C11.6654 10.1029 11.5014 9.91712 11.3281 9.74023C11.2686 9.68592 11.2155 9.62498 11.1699 9.55859C11.0688 9.40803 11.0105 9.23283 11.0013 9.05171C10.9921 8.8706 11.0322 8.69037 11.1175 8.53031C11.2027 8.37024 11.3298 8.23635 11.4853 8.14294C11.6407 8.04954 11.8186 8.00013 12 8ZM12 2C10.9263 2.00009 9.86707 2.24714 8.90414 2.72204C7.9412 3.19694 7.10041 3.88696 6.44677 4.73874C5.79314 5.59053 5.34419 6.58124 5.13463 7.63426C4.92508 8.68728 4.96054 9.77439 5.23828 10.8115C5.30772 11.0668 5.47548 11.2841 5.70481 11.4159C5.93414 11.5477 6.20636 11.5833 6.46186 11.5148C6.71737 11.4464 6.93533 11.2795 7.06804 11.0507C7.20075 10.8218 7.23738 10.5498 7.16992 10.294C6.98576 9.60651 6.9505 8.88763 7.06648 8.18542C7.18245 7.4832 7.44701 6.81384 7.84245 6.22208C8.23789 5.63032 8.7551 5.1298 9.35951 4.75398C9.96393 4.37815 10.6416 4.1357 11.3472 4.04281C12.0529 3.94992 12.7702 4.00874 13.4513 4.21535C14.1324 4.42195 14.7615 4.77157 15.2966 5.24084C15.8317 5.7101 16.2605 6.2882 16.5542 6.93648C16.848 7.58475 17 8.28827 17 9C16.9958 9.90303 16.7525 10.7888 16.2949 11.5674L12.7315 19C12.5556 19.3036 12.3031 19.5558 11.9993 19.7313C11.6955 19.9068 11.3509 19.9994 11 20C10.4717 19.993 9.96709 19.7801 9.59352 19.4065C9.21995 19.0329 9.00699 18.5283 9 18C8.99999 17.6492 9.09263 17.3045 9.26855 17.001C9.40142 16.7713 9.43759 16.4982 9.3691 16.2418C9.30061 15.9854 9.13307 15.7667 8.90334 15.6338C8.67361 15.5009 8.4005 15.4647 8.1441 15.5332C7.8877 15.6017 7.669 15.7693 7.53613 15.999C7.27151 16.4565 7.10022 16.962 7.03215 17.4861C6.96409 18.0102 7.00061 18.5427 7.13959 19.0526C7.27858 19.5625 7.51728 20.0399 7.84189 20.457C8.1665 20.8741 8.57058 21.2227 9.03076 21.4827C9.49094 21.7427 9.99809 21.9088 10.5229 21.9716C11.0477 22.0343 11.5797 21.9924 12.0882 21.8483C12.5967 21.7041 13.0716 21.4606 13.4854 21.1318C13.8992 20.803 14.2437 20.3954 14.499 19.9326L18.0625 12.5C18.6768 11.4358 19.0001 10.2287 19 8.99998C18.9999 7.77125 18.6764 6.56418 18.062 5.50008C17.4476 4.43598 16.564 3.55234 15.4999 2.93795C14.4358 2.32356 13.2287 2.00008 12 2Z" />
</symbol><symbol viewBox="0 0 24 24" id="medical-health">
<path d="M14.0003 11H13.0003V9.99997C13.0003 9.73475 12.8949 9.4804 12.7074 9.29286C12.5198 9.10533 12.2655 8.99997 12.0003 8.99997C11.7351 8.99997 11.4807 9.10533 11.2932 9.29286C11.1056 9.4804 11.0003 9.73475 11.0003 9.99997V11H10.0003C9.73506 11 9.4807 11.1053 9.29317 11.2929C9.10563 11.4804 9.00028 11.7348 9.00028 12C9.00028 12.2652 9.10563 12.5195 9.29317 12.7071C9.4807 12.8946 9.73506 13 10.0003 13H11.0003V14C11.0003 14.2652 11.1056 14.5195 11.2932 14.7071C11.4807 14.8946 11.7351 15 12.0003 15C12.2655 15 12.5198 14.8946 12.7074 14.7071C12.8949 14.5195 13.0003 14.2652 13.0003 14V13H14.0003C14.2655 13 14.5198 12.8946 14.7074 12.7071C14.8949 12.5195 15.0003 12.2652 15.0003 12C15.0003 11.7348 14.8949 11.4804 14.7074 11.2929C14.5198 11.1053 14.2655 11 14.0003 11ZM20.1603 4.99997C19.094 3.94467 17.6856 3.30524 16.1893 3.19705C14.693 3.08886 13.2073 3.51904 12.0003 4.40997C10.7279 3.46361 9.14427 3.03448 7.5682 3.20901C5.99212 3.38353 4.54072 4.14875 3.50625 5.35055C2.47178 6.55236 1.9311 8.10149 1.99308 9.68598C2.05506 11.2705 2.71509 12.7726 3.84028 13.89L9.84028 19.94C10.4028 20.5018 11.1653 20.8173 11.9603 20.8173C12.7553 20.8173 13.5178 20.5018 14.0803 19.94L20.0803 13.89C20.6712 13.3126 21.1422 12.6242 21.4662 11.8642C21.7902 11.1042 21.9609 10.2877 21.9683 9.4616C21.9757 8.63548 21.8198 7.81603 21.5095 7.05035C21.1993 6.28467 20.7407 5.58786 20.1603 4.99997ZM18.7503 12.46L12.7503 18.46C12.6573 18.5537 12.5467 18.6281 12.4249 18.6789C12.303 18.7296 12.1723 18.7558 12.0403 18.7558C11.9083 18.7558 11.7776 18.7296 11.6557 18.6789C11.5338 18.6281 11.4232 18.5537 11.3303 18.46L5.33028 12.46C4.54603 11.6583 4.10689 10.5814 4.10689 9.45997C4.10689 8.3385 4.54603 7.26162 5.33028 6.45997C6.12943 5.67096 7.20725 5.22854 8.33028 5.22854C9.4533 5.22854 10.5311 5.67096 11.3303 6.45997C11.4232 6.5537 11.5338 6.62809 11.6557 6.67886C11.7776 6.72963 11.9083 6.75577 12.0403 6.75577C12.1723 6.75577 12.303 6.72963 12.4249 6.67886C12.5467 6.62809 12.6573 6.5537 12.7503 6.45997C13.5494 5.67096 14.6272 5.22854 15.7503 5.22854C16.8733 5.22854 17.9511 5.67096 18.7503 6.45997C19.5405 7.26252 19.9835 8.34365 19.9835 9.46997C19.9835 10.5963 19.5405 11.6774 18.7503 12.48V12.46Z" />
</symbol><symbol viewBox="0 0 24 24" id="medical-health-1">
<path d="M19 2H5C4.20435 2 3.44129 2.31607 2.87868 2.87868C2.31607 3.44129 2 4.20435 2 5V19C2 19.7956 2.31607 20.5587 2.87868 21.1213C3.44129 21.6839 4.20435 22 5 22H19C19.7956 22 20.5587 21.6839 21.1213 21.1213C21.6839 20.5587 22 19.7956 22 19V5C22 4.20435 21.6839 3.44129 21.1213 2.87868C20.5587 2.31607 19.7956 2 19 2ZM20 19C20 19.2652 19.8946 19.5196 19.7071 19.7071C19.5196 19.8946 19.2652 20 19 20H5C4.73478 20 4.48043 19.8946 4.29289 19.7071C4.10536 19.5196 4 19.2652 4 19V5C4 4.73478 4.10536 4.48043 4.29289 4.29289C4.48043 4.10536 4.73478 4 5 4H19C19.2652 4 19.5196 4.10536 19.7071 4.29289C19.8946 4.48043 20 4.73478 20 5V19ZM17 9H15V7C15 6.73478 14.8946 6.48043 14.7071 6.29289C14.5196 6.10536 14.2652 6 14 6H10C9.73478 6 9.48043 6.10536 9.29289 6.29289C9.10536 6.48043 9 6.73478 9 7V9H7C6.73478 9 6.48043 9.10536 6.29289 9.29289C6.10536 9.48043 6 9.73478 6 10V14C6 14.2652 6.10536 14.5196 6.29289 14.7071C6.48043 14.8946 6.73478 15 7 15H9V17C9 17.2652 9.10536 17.5196 9.29289 17.7071C9.48043 17.8946 9.73478 18 10 18H14C14.2652 18 14.5196 17.8946 14.7071 17.7071C14.8946 17.5196 15 17.2652 15 17V15H17C17.2652 15 17.5196 14.8946 17.7071 14.7071C17.8946 14.5196 18 14.2652 18 14V10C18 9.73478 17.8946 9.48043 17.7071 9.29289C17.5196 9.10536 17.2652 9 17 9ZM16 13H14C13.7348 13 13.4804 13.1054 13.2929 13.2929C13.1054 13.4804 13 13.7348 13 14V16H11V14C11 13.7348 10.8946 13.4804 10.7071 13.2929C10.5196 13.1054 10.2652 13 10 13H8V11H10C10.2652 11 10.5196 10.8946 10.7071 10.7071C10.8946 10.5196 11 10.2652 11 10V8H13V10C13 10.2652 13.1054 10.5196 13.2929 10.7071C13.4804 10.8946 13.7348 11 14 11H16V13Z" />
</symbol><symbol viewBox="0 0 24 24" id="medical-heart-beat">
<path d="M21 10.41H18.5C18.3677 10.4106 18.2368 10.4374 18.1149 10.4889C17.9931 10.5404 17.8826 10.6155 17.79 10.71L16.55 12L13.75 8.81002C13.6565 8.71011 13.5434 8.63046 13.4179 8.57601C13.2923 8.52156 13.1569 8.49346 13.02 8.49346C12.8831 8.49346 12.7477 8.52156 12.6222 8.57601C12.4966 8.63046 12.3836 8.71011 12.29 8.81002L10.59 10.51H9.00001C8.7348 10.51 8.48044 10.6154 8.2929 10.8029C8.10537 10.9904 8.00001 11.2448 8.00001 11.51C8.00001 11.7752 8.10537 12.0296 8.2929 12.2171C8.48044 12.4047 8.7348 12.51 9.00001 12.51H11C11.1316 12.5108 11.2621 12.4856 11.3839 12.4358C11.5058 12.386 11.6166 12.3127 11.71 12.22L13 10.88L15.8 14.07C15.8903 14.173 16.0009 14.2563 16.1247 14.3148C16.2486 14.3733 16.3831 14.4057 16.52 14.41C16.6516 14.4108 16.7821 14.3856 16.9039 14.3358C17.0258 14.286 17.1366 14.2127 17.23 14.12L18.93 12.41H21C21.2652 12.41 21.5196 12.3047 21.7071 12.1171C21.8947 11.9296 22 11.6752 22 11.41C22 11.1448 21.8947 10.8904 21.7071 10.7029C21.5196 10.5154 21.2652 10.41 21 10.41ZM13.61 15.71L11.71 17.61C11.617 17.7037 11.5064 17.7781 11.3846 17.8289C11.2627 17.8797 11.132 17.9058 11 17.9058C10.868 17.9058 10.7373 17.8797 10.6154 17.8289C10.4936 17.7781 10.383 17.7037 10.29 17.61L5.08001 12.4C4.73713 12.0573 4.46513 11.6505 4.27955 11.2026C4.09398 10.7548 3.99846 10.2748 3.99846 9.79002C3.99846 9.30525 4.09398 8.82524 4.27955 8.37741C4.46513 7.92957 4.73713 7.52269 5.08001 7.18002C5.77167 6.49059 6.70843 6.10346 7.68501 6.10346C8.66159 6.10346 9.59835 6.49059 10.29 7.18002C10.383 7.27375 10.4936 7.34814 10.6154 7.39891C10.7373 7.44968 10.868 7.47581 11 7.47581C11.132 7.47581 11.2627 7.44968 11.3846 7.39891C11.5064 7.34814 11.617 7.27375 11.71 7.18002C12.4127 6.51174 13.3453 6.13906 14.315 6.13906C15.2847 6.13906 16.2173 6.51174 16.92 7.18002C17.1428 7.40576 17.3376 7.65758 17.5 7.93002C17.6456 8.13023 17.8603 8.26932 18.1026 8.32036C18.3448 8.37141 18.5974 8.33079 18.8114 8.20636C19.0254 8.08193 19.1856 7.88254 19.2611 7.64677C19.3366 7.411 19.322 7.15561 19.22 6.93002C18.9728 6.51957 18.6774 6.1402 18.34 5.80002C17.391 4.83987 16.1311 4.24912 14.786 4.13367C13.4409 4.01823 12.0988 4.38563 11 5.17002C10.1509 4.55831 9.14924 4.19309 8.10565 4.11467C7.06206 4.03624 6.0171 4.24766 5.08607 4.72559C4.15504 5.20351 3.37416 5.92937 2.82958 6.82305C2.28501 7.71673 1.99793 8.74349 2.00001 9.79002C1.99971 10.5341 2.14718 11.2709 2.43385 11.9575C2.72053 12.6441 3.14071 13.267 3.67001 13.79L8.88001 19C9.44251 19.5618 10.205 19.8774 11 19.8774C11.795 19.8774 12.5575 19.5618 13.12 19L15 17.12C15.1863 16.9327 15.2908 16.6792 15.2908 16.415C15.2908 16.1508 15.1863 15.8974 15 15.71C14.8135 15.5298 14.5644 15.429 14.305 15.429C14.0457 15.429 13.7965 15.5298 13.61 15.71Z" />
</symbol><symbol viewBox="0 0 24 24" id="medical-heart-ratemachine">
<path d="M9 19C9.13068 18.9984 9.25978 18.9712 9.38 18.92C9.50118 18.8694 9.6128 18.7983 9.71 18.71C9.75525 18.6608 9.79545 18.6072 9.83 18.55C9.86958 18.4989 9.90003 18.4414 9.92 18.38C9.9558 18.3245 9.98278 18.2638 10 18.2C10.0049 18.1334 10.0049 18.0666 10 18C9.99842 17.8693 9.97124 17.7402 9.92 17.62C9.87509 17.4959 9.80343 17.3832 9.71011 17.2899C9.6168 17.1966 9.5041 17.1249 9.38 17.08C9.19898 16.9961 8.99698 16.9682 8.8 17L8.62 17.06C8.55857 17.08 8.50105 17.1104 8.45 17.15C8.39279 17.1846 8.33919 17.2248 8.29 17.27C8.19896 17.3651 8.12759 17.4772 8.08 17.6C8.02613 17.7264 7.9989 17.8626 8 18C8 18.2652 8.10536 18.5196 8.29289 18.7071C8.48043 18.8946 8.73478 19 9 19ZM5.29 18.71C5.3872 18.7983 5.49882 18.8694 5.62 18.92C5.74022 18.9712 5.86932 18.9984 6 19H6.19C6.25623 18.9907 6.32045 18.9704 6.38 18.94C6.44372 18.9181 6.50425 18.8878 6.56 18.85L6.71 18.73C6.79833 18.6328 6.86936 18.5212 6.92 18.4C6.97913 18.2753 7.00661 18.1379 7 18C7.00491 17.9334 7.00491 17.8666 7 17.8C6.98905 17.7374 6.96883 17.6767 6.94 17.62C6.92003 17.5586 6.88958 17.5011 6.85 17.45C6.81545 17.3928 6.77525 17.3392 6.73 17.29C6.58938 17.1512 6.4108 17.0572 6.21681 17.0199C6.02282 16.9825 5.82211 17.0034 5.64 17.08C5.51725 17.1276 5.4051 17.199 5.31 17.29C5.26475 17.3392 5.22455 17.3928 5.19 17.45C5.15042 17.5011 5.11997 17.5586 5.1 17.62C5.05717 17.6742 5.0234 17.735 5 17.8C4.99509 17.8666 4.99509 17.9334 5 18C5.00158 18.1307 5.02876 18.2598 5.08 18.38C5.13064 18.5012 5.20167 18.6128 5.29 18.71ZM19 2H5C4.20435 2 3.44129 2.31607 2.87868 2.87868C2.31607 3.44129 2 4.20435 2 5V19C2 19.7956 2.31607 20.5587 2.87868 21.1213C3.44129 21.6839 4.20435 22 5 22H19C19.7956 22 20.5587 21.6839 21.1213 21.1213C21.6839 20.5587 22 19.7956 22 19V5C22 4.20435 21.6839 3.44129 21.1213 2.87868C20.5587 2.31607 19.7956 2 19 2ZM20 19C20 19.2652 19.8946 19.5196 19.7071 19.7071C19.5196 19.8946 19.2652 20 19 20H5C4.73478 20 4.48043 19.8946 4.29289 19.7071C4.10536 19.5196 4 19.2652 4 19V16H20V19ZM20 14H4V10H8C8.13161 10.0008 8.26207 9.97554 8.38391 9.92577C8.50574 9.87601 8.61656 9.80268 8.71 9.71L10 8.46L12.8 11.66C12.8903 11.763 13.0008 11.8463 13.1247 11.9048C13.2486 11.9632 13.3831 11.9957 13.52 12C13.6516 12.0008 13.7821 11.9755 13.9039 11.9258C14.0257 11.876 14.1366 11.8027 14.23 11.71L15.91 10H20V14ZM20 8H15.5C15.3684 7.99924 15.2379 8.02446 15.1161 8.07423C14.9943 8.12399 14.8834 8.19732 14.79 8.29L13.55 9.54L10.75 6.34C10.6565 6.24009 10.5434 6.16044 10.4178 6.10599C10.2923 6.05154 10.1569 6.02345 10.02 6.02345C9.88314 6.02345 9.74773 6.05154 9.62216 6.10599C9.49659 6.16044 9.38354 6.24009 9.29 6.34L7.59 8H4V5C4 4.73478 4.10536 4.48043 4.29289 4.29289C4.48043 4.10536 4.73478 4 5 4H19C19.2652 4 19.5196 4.10536 19.7071 4.29289C19.8946 4.48043 20 4.73478 20 5V8Z" />
</symbol><symbol viewBox="0 0 24 24" id="medical-medical">
<path d="M17 6H15V4H17C17.2652 4 17.5196 3.89464 17.7071 3.70711C17.8946 3.51957 18 3.26522 18 3C18 2.73478 17.8946 2.48043 17.7071 2.29289C17.5196 2.10536 17.2652 2 17 2H9C7.67392 2 6.40215 2.52678 5.46447 3.46447C4.52678 4.40215 4 5.67392 4 7V21C4 21.2652 4.10536 21.5196 4.29289 21.7071C4.48043 21.8946 4.73478 22 5 22C5.26522 22 5.51957 21.8946 5.70711 21.7071C5.89464 21.5196 6 21.2652 6 21V7C6 6.20435 6.31607 5.44129 6.87868 4.87868C7.44129 4.31607 8.20435 4 9 4H13V6H11C10.2044 6 9.44129 6.31607 8.87868 6.87868C8.31607 7.44129 8 8.20435 8 9V13.93C7.99982 14.4249 8.12207 14.9122 8.35587 15.3484C8.58968 15.7846 8.92776 16.1562 9.34 16.43L11 17.54V18C11 18.5304 11.2107 19.0391 11.5858 19.4142C11.9609 19.7893 12.4696 20 13 20V21C13 21.2652 13.1054 21.5196 13.2929 21.7071C13.4804 21.8946 13.7348 22 14 22C14.2652 22 14.5196 21.8946 14.7071 21.7071C14.8946 21.5196 15 21.2652 15 21V20C15.5304 20 16.0391 19.7893 16.4142 19.4142C16.7893 19.0391 17 18.5304 17 18V17.54L18.66 16.43C19.0722 16.1562 19.4103 15.7846 19.6441 15.3484C19.8779 14.9122 20.0002 14.4249 20 13.93V9C20 8.20435 19.6839 7.44129 19.1213 6.87868C18.5587 6.31607 17.7956 6 17 6ZM16 11H18V12H17C16.7348 12 16.4804 12.1054 16.2929 12.2929C16.1054 12.4804 16 12.7348 16 13C16 13.2652 16.1054 13.5196 16.2929 13.7071C16.4804 13.8946 16.7348 14 17 14H18C17.9893 14.1518 17.9441 14.2992 17.8679 14.4309C17.7916 14.5626 17.6863 14.6752 17.56 14.76L15.46 16.17C15.3206 16.2594 15.2056 16.3821 15.1253 16.527C15.045 16.6718 15.0019 16.8344 15 17V18H13V17C12.9991 16.8353 12.9576 16.6733 12.8791 16.5285C12.8006 16.3838 12.6876 16.2606 12.55 16.17L10.45 14.76C10.3124 14.6694 10.1994 14.5462 10.1209 14.4015C10.0424 14.2567 10.0009 14.0947 10 13.93V9C10 8.73478 10.1054 8.48043 10.2929 8.29289C10.4804 8.10536 10.7348 8 11 8H17C17.2652 8 17.5196 8.10536 17.7071 8.29289C17.8946 8.48043 18 8.73478 18 9H16C15.7348 9 15.4804 9.10536 15.2929 9.29289C15.1054 9.48043 15 9.73478 15 10C15 10.2652 15.1054 10.5196 15.2929 10.7071C15.4804 10.8946 15.7348 11 16 11Z" />
</symbol><symbol viewBox="0 0 24 24" id="medical-medical-file">
<path d="M18 18C17.7348 18 17.4804 18.1054 17.2929 18.2929C17.1054 18.4804 17 18.7348 17 19C17 19.2652 16.8946 19.5196 16.7071 19.7071C16.5196 19.8946 16.2652 20 16 20H6C5.73478 20 5.48043 19.8946 5.29289 19.7071C5.10536 19.5196 5 19.2652 5 19V5C5 4.73478 5.10536 4.48043 5.29289 4.29289C5.48043 4.10536 5.73478 4 6 4H11V7C11 7.79565 11.3161 8.55871 11.8787 9.12132C12.4413 9.68393 13.2044 10 14 10H17V11C17 11.2652 17.1054 11.5196 17.2929 11.7071C17.4804 11.8946 17.7348 12 18 12C18.2652 12 18.5196 11.8946 18.7071 11.7071C18.8946 11.5196 19 11.2652 19 11V9C19 9 19 9 19 8.94C18.9896 8.84813 18.9695 8.75763 18.94 8.67C18.9442 8.64015 18.9442 8.60985 18.94 8.58C18.8919 8.47718 18.8278 8.38267 18.75 8.3L12.75 2.3C12.6673 2.22222 12.5728 2.15808 12.47 2.11H12.37C12.2757 2.05943 12.1747 2.0224 12.07 2H6C5.20435 2 4.44129 2.31607 3.87868 2.87868C3.31607 3.44129 3 4.20435 3 5V19C3 19.7956 3.31607 20.5587 3.87868 21.1213C4.44129 21.6839 5.20435 22 6 22H16C16.7956 22 17.5587 21.6839 18.1213 21.1213C18.6839 20.5587 19 19.7956 19 19C19 18.7348 18.8946 18.4804 18.7071 18.2929C18.5196 18.1054 18.2652 18 18 18ZM13 5.41L15.59 8H14C13.7348 8 13.4804 7.89464 13.2929 7.70711C13.1054 7.51957 13 7.26522 13 7V5.41ZM20 14H17.5C17.3684 13.9992 17.2379 14.0245 17.1161 14.0742C16.9943 14.124 16.8834 14.1973 16.79 14.29L15.55 15.54L12.75 12.34C12.6599 12.2368 12.5496 12.1532 12.4259 12.0944C12.3022 12.0356 12.1677 12.0029 12.0309 11.9982C11.894 11.9935 11.7576 12.017 11.6301 12.0672C11.5027 12.1174 11.3869 12.1932 11.29 12.29L9.59 14H8C7.73478 14 7.48043 14.1054 7.29289 14.2929C7.10536 14.4804 7 14.7348 7 15C7 15.2652 7.10536 15.5196 7.29289 15.7071C7.48043 15.8946 7.73478 16 8 16H10C10.1316 16.0008 10.2621 15.9755 10.3839 15.9258C10.5057 15.876 10.6166 15.8027 10.71 15.71L12 14.46L14.8 17.66C14.8903 17.763 15.0008 17.8463 15.1247 17.9048C15.2486 17.9632 15.3831 17.9957 15.52 18C15.6516 18.0008 15.7821 17.9755 15.9039 17.9258C16.0257 17.876 16.1366 17.8027 16.23 17.71L17.91 16H20C20.2652 16 20.5196 15.8946 20.7071 15.7071C20.8946 15.5196 21 15.2652 21 15C21 14.7348 20.8946 14.4804 20.7071 14.2929C20.5196 14.1054 20.2652 14 20 14Z" />
</symbol><symbol viewBox="0 0 24 24" id="medical-medical-kit">
<path d="M10 17H11V18C11 18.2652 11.1054 18.5196 11.2929 18.7071C11.4804 18.8946 11.7348 19 12 19C12.2652 19 12.5196 18.8946 12.7071 18.7071C12.8946 18.5196 13 18.2652 13 18V17H14C14.2652 17 14.5196 16.8946 14.7071 16.7071C14.8946 16.5196 15 16.2652 15 16C15 15.7348 14.8946 15.4804 14.7071 15.2929C14.5196 15.1054 14.2652 15 14 15H13V14C13 13.7348 12.8946 13.4804 12.7071 13.2929C12.5196 13.1054 12.2652 13 12 13C11.7348 13 11.4804 13.1054 11.2929 13.2929C11.1054 13.4804 11 13.7348 11 14V15H10C9.73478 15 9.48043 15.1054 9.29289 15.2929C9.10536 15.4804 9 15.7348 9 16C9 16.2652 9.10536 16.5196 9.29289 16.7071C9.48043 16.8946 9.73478 17 10 17ZM19 6H17V5C17 4.20435 16.6839 3.44129 16.1213 2.87868C15.5587 2.31607 14.7956 2 14 2H10C9.20435 2 8.44129 2.31607 7.87868 2.87868C7.31607 3.44129 7 4.20435 7 5V6H5C4.20435 6 3.44129 6.31607 2.87868 6.87868C2.31607 7.44129 2 8.20435 2 9V19C2 19.7956 2.31607 20.5587 2.87868 21.1213C3.44129 21.6839 4.20435 22 5 22H19C19.7956 22 20.5587 21.6839 21.1213 21.1213C21.6839 20.5587 22 19.7956 22 19V9C22 8.20435 21.6839 7.44129 21.1213 6.87868C20.5587 6.31607 19.7956 6 19 6ZM9 5C9 4.73478 9.10536 4.48043 9.29289 4.29289C9.48043 4.10536 9.73478 4 10 4H14C14.2652 4 14.5196 4.10536 14.7071 4.29289C14.8946 4.48043 15 4.73478 15 5V6H9V5ZM20 19C20 19.2652 19.8946 19.5196 19.7071 19.7071C19.5196 19.8946 19.2652 20 19 20H5C4.73478 20 4.48043 19.8946 4.29289 19.7071C4.10536 19.5196 4 19.2652 4 19V12H20V19ZM20 10H4V9C4 8.73478 4.10536 8.48043 4.29289 8.29289C4.48043 8.10536 4.73478 8 5 8H19C19.2652 8 19.5196 8.10536 19.7071 8.29289C19.8946 8.48043 20 8.73478 20 9V10Z" />
</symbol><symbol viewBox="0 0 24 24" id="medical-medical-signboard">
<path d="M21 2H3C2.73478 2 2.48043 2.10536 2.29289 2.29289C2.10536 2.48043 2 2.73478 2 3V21C2 21.2652 2.10536 21.5196 2.29289 21.7071C2.48043 21.8946 2.73478 22 3 22H21C21.2652 22 21.5196 21.8946 21.7071 21.7071C21.8946 21.5196 22 21.2652 22 21V3C22 2.73478 21.8946 2.48043 21.7071 2.29289C21.5196 2.10536 21.2652 2 21 2ZM20 20H4V4H20V20ZM7 14.79H9V16.79C9 17.0552 9.10536 17.3096 9.29289 17.4971C9.48043 17.6846 9.73478 17.79 10 17.79H14C14.2652 17.79 14.5196 17.6846 14.7071 17.4971C14.8946 17.3096 15 17.0552 15 16.79V14.79H17C17.2652 14.79 17.5196 14.6846 17.7071 14.4971C17.8946 14.3096 18 14.0552 18 13.79V9.79C18 9.52478 17.8946 9.27043 17.7071 9.08289C17.5196 8.89536 17.2652 8.79 17 8.79H15V6.79C15 6.52478 14.8946 6.27043 14.7071 6.08289C14.5196 5.89536 14.2652 5.79 14 5.79H10C9.73478 5.79 9.48043 5.89536 9.29289 6.08289C9.10536 6.27043 9 6.52478 9 6.79V8.79H7C6.73478 8.79 6.48043 8.89536 6.29289 9.08289C6.10536 9.27043 6 9.52478 6 9.79V13.79C6 14.0552 6.10536 14.3096 6.29289 14.4971C6.48043 14.6846 6.73478 14.79 7 14.79ZM8 10.79H10C10.2652 10.79 10.5196 10.6846 10.7071 10.4971C10.8946 10.3096 11 10.0552 11 9.79V7.79H13V9.79C13 10.0552 13.1054 10.3096 13.2929 10.4971C13.4804 10.6846 13.7348 10.79 14 10.79H16V12.79H14C13.7348 12.79 13.4804 12.8954 13.2929 13.0829C13.1054 13.2704 13 13.5248 13 13.79V15.79H11V13.79C11 13.5248 10.8946 13.2704 10.7071 13.0829C10.5196 12.8954 10.2652 12.79 10 12.79H8V10.79Z" />
</symbol><symbol viewBox="0 0 24 24" id="medical-medicine">
<path d="M20.5398 3.46C19.84 2.762 18.9491 2.28706 17.9795 2.09515C17.01 1.90325 16.0053 2.00301 15.0924 2.38181C14.1795 2.76062 13.3993 3.40149 12.8505 4.22346C12.3016 5.04544 12.0087 6.01163 12.0087 7C12.0087 7.98837 12.3016 8.95457 12.8505 9.77654C13.3993 10.5985 14.1795 11.2394 15.0924 11.6182C16.0053 11.997 17.01 12.0968 17.9795 11.9049C18.9491 11.7129 19.84 11.238 20.5398 10.54C21.0054 10.0755 21.3748 9.52379 21.6269 8.91634C21.879 8.30889 22.0087 7.65768 22.0087 7C22.0087 6.34233 21.879 5.69112 21.6269 5.08367C21.3748 4.47621 21.0054 3.92446 20.5398 3.46ZM14.8798 4.88C15.4419 4.31723 16.2044 4.0007 16.9998 4C17.4434 4.00413 17.8805 4.10659 18.2798 4.3L14.2798 8.3C14.0129 7.73809 13.9272 7.1071 14.0347 6.49438C14.1422 5.88165 14.4375 5.31749 14.8798 4.88ZM19.1198 9.12C18.6816 9.55471 18.1199 9.84367 17.5115 9.94747C16.903 10.0513 16.2773 9.96485 15.7198 9.7L19.7198 5.7C19.9867 6.26191 20.0723 6.8929 19.9648 7.50563C19.8574 8.11835 19.562 8.68251 19.1198 9.12ZM7.99978 10C7.21869 9.99688 6.44467 10.1481 5.72219 10.445C4.99971 10.7419 4.343 11.1786 3.78978 11.73C2.94321 12.5657 2.36416 13.6342 2.12618 14.7997C1.8882 15.9652 2.00204 17.1751 2.45324 18.2758C2.90444 19.3765 3.67263 20.3182 4.66022 20.9813C5.64781 21.6444 6.81022 21.999 7.99978 22C9.54183 21.9992 11.0244 21.4048 12.1398 20.34L12.2598 20.26C12.2808 20.2219 12.3042 20.1852 12.3298 20.15C13.1427 19.3011 13.6885 18.2322 13.8992 17.0759C14.11 15.9195 13.9765 14.7268 13.5153 13.6457C13.0541 12.5646 12.2855 11.6427 11.305 10.9946C10.3244 10.3465 9.17515 10.0006 7.99978 10ZM5.16978 18.83C4.55087 18.2042 4.15565 17.3917 4.04537 16.5185C3.93508 15.6453 4.1159 14.76 4.55978 14L9.99978 19.44C9.23975 19.8839 8.35452 20.0647 7.4813 19.9544C6.60807 19.8441 5.79559 19.4489 5.16978 18.83ZM11.4398 18L5.99978 12.56C6.60552 12.2005 7.29544 12.0073 7.99978 12C8.69989 12.0042 9.38662 12.1921 9.99135 12.5449C10.5961 12.8977 11.0976 13.403 11.4458 14.0104C11.7941 14.6178 11.9768 15.3059 11.9757 16.006C11.9747 16.7061 11.7899 17.3937 11.4398 18Z" />
</symbol><symbol viewBox="0 0 24 24" id="medical-medicine-1">
<path d="M19.5002 4.50002C18.54 3.54007 17.2379 3.00079 15.8802 3.00079C14.5225 3.00079 13.2203 3.54007 12.2602 4.50002L4.50018 12.26C4.01333 12.7328 3.62534 13.2977 3.35877 13.9219C3.09219 14.546 2.95236 15.2169 2.9474 15.8955C2.94244 16.5742 3.07245 17.247 3.32987 17.875C3.5873 18.5029 3.96699 19.0734 4.44688 19.5533C4.92677 20.0332 5.49727 20.4129 6.12522 20.6703C6.75317 20.9277 7.42604 21.0578 8.10468 21.0528C8.78333 21.0478 9.45422 20.908 10.0783 20.6414C10.7025 20.3749 11.2674 19.9869 11.7402 19.5L19.5002 11.74C20.4601 10.7799 20.9994 9.47774 20.9994 8.12002C20.9994 6.7623 20.4601 5.46017 19.5002 4.50002ZM10.3202 18.09C9.72421 18.6533 8.93524 18.9672 8.11518 18.9672C7.29512 18.9672 6.50615 18.6533 5.91018 18.09C5.32822 17.5037 5.00164 16.7111 5.00164 15.885C5.00164 15.0589 5.32822 14.2663 5.91018 13.68L9.09018 10.5L13.5002 14.91L10.3202 18.09ZM18.0902 10.32L14.9102 13.5L10.5002 9.09002L13.6802 5.91002C14.2712 5.35634 15.0544 5.05417 15.8641 5.06737C16.6739 5.08058 17.4468 5.40813 18.0194 5.98078C18.5921 6.55344 18.9196 7.32633 18.9328 8.13608C18.946 8.94584 18.6439 9.72899 18.0902 10.32Z" />
</symbol><symbol viewBox="0 0 24 24" id="medical-medicine-bottle">
<path d="M19 2H5C4.46957 2 3.96086 2.21071 3.58579 2.58579C3.21071 2.96086 3 3.46957 3 4V6C3 6.53043 3.21071 7.03914 3.58579 7.41421C3.96086 7.78929 4.46957 8 5 8V19C5 19.7956 5.31607 20.5587 5.87868 21.1213C6.44129 21.6839 7.20435 22 8 22H16C16.7956 22 17.5587 21.6839 18.1213 21.1213C18.6839 20.5587 19 19.7956 19 19V8C19.5304 8 20.0391 7.78929 20.4142 7.41421C20.7893 7.03914 21 6.53043 21 6V4C21 3.46957 20.7893 2.96086 20.4142 2.58579C20.0391 2.21071 19.5304 2 19 2ZM17 16H11V12H17V16ZM17 10H10C9.73478 10 9.48043 10.1054 9.29289 10.2929C9.10536 10.4804 9 10.7348 9 11V17C9 17.2652 9.10536 17.5196 9.29289 17.7071C9.48043 17.8946 9.73478 18 10 18H17V19C17 19.2652 16.8946 19.5196 16.7071 19.7071C16.5196 19.8946 16.2652 20 16 20H8C7.73478 20 7.48043 19.8946 7.29289 19.7071C7.10536 19.5196 7 19.2652 7 19V8H17V10ZM5 6V4H19V6H5Z" />
</symbol><symbol viewBox="0 0 24 24" id="medical-pulse">
<path d="M21 11H17.06C16.9903 10.9905 16.9197 10.9905 16.85 11H16.68C16.6277 11.0298 16.5776 11.0632 16.53 11.1C16.4743 11.1368 16.4209 11.1768 16.37 11.22C16.3366 11.2609 16.3065 11.3043 16.28 11.35C16.2342 11.413 16.194 11.4799 16.16 11.55L14.56 15.96L10.39 4.65999C10.3199 4.46693 10.1921 4.30014 10.0239 4.18227C9.85577 4.06439 9.65537 4.00116 9.45 4.00116C9.24463 4.00116 9.04423 4.06439 8.87605 4.18227C8.70788 4.30014 8.58007 4.46693 8.51 4.65999L6.2 11H3C2.73478 11 2.48043 11.1053 2.29289 11.2929C2.10536 11.4804 2 11.7348 2 12C2 12.2652 2.10536 12.5196 2.29289 12.7071C2.48043 12.8946 2.73478 13 3 13H6.92H7.15H7.3C7.35684 12.9726 7.4105 12.9391 7.46 12.9C7.51568 12.8632 7.56911 12.8231 7.62 12.78L7.71 12.65C7.75766 12.5882 7.79794 12.5211 7.83 12.45L9.45 7.91999L13.61 19.34C13.6799 19.5333 13.8076 19.7003 13.9758 19.8184C14.144 19.9365 14.3445 19.9999 14.55 20C14.7555 19.9999 14.956 19.9365 15.1242 19.8184C15.2924 19.7003 15.4201 19.5333 15.49 19.34L17.79 13H21C21.2652 13 21.5196 12.8946 21.7071 12.7071C21.8946 12.5196 22 12.2652 22 12C22 11.7348 21.8946 11.4804 21.7071 11.2929C21.5196 11.1053 21.2652 11 21 11Z" />
</symbol><symbol viewBox="0 0 24 24" id="medical-stretcher">
<path d="M18 4.5H21C21.2652 4.5 21.5196 4.39464 21.7071 4.20711C21.8946 4.01957 22 3.76522 22 3.5C22 3.23478 21.8946 2.98043 21.7071 2.79289C21.5196 2.60536 21.2652 2.5 21 2.5H18C17.7348 2.5 17.4804 2.60536 17.2929 2.79289C17.1054 2.98043 17 3.23478 17 3.5C17 3.76522 17.1054 4.01957 17.2929 4.20711C17.4804 4.39464 17.7348 4.5 18 4.5ZM21 6.5H3C2.73478 6.5 2.48043 6.60536 2.29289 6.79289C2.10536 6.98043 2 7.23478 2 7.5V11.5C2 11.7652 2.10536 12.0196 2.29289 12.2071C2.48043 12.3946 2.73478 12.5 3 12.5H4.55L9.66 15.06L7.08 16.35C6.52296 15.8079 5.77727 15.5032 5 15.5C4.40666 15.5 3.82664 15.6759 3.33329 16.0056C2.83994 16.3352 2.45543 16.8038 2.22836 17.3519C2.0013 17.9001 1.94189 18.5033 2.05765 19.0853C2.1734 19.6672 2.45912 20.2018 2.87868 20.6213C3.29824 21.0409 3.83279 21.3266 4.41473 21.4424C4.99667 21.5581 5.59987 21.4987 6.14805 21.2716C6.69623 21.0446 7.16477 20.6601 7.49441 20.1667C7.82405 19.6734 8 19.0933 8 18.5C8.00984 18.3802 8.00984 18.2598 8 18.14L11.94 16.14L16 18.24C15.9951 18.3266 15.9951 18.4134 16 18.5C16 19.0933 16.1759 19.6734 16.5056 20.1667C16.8352 20.6601 17.3038 21.0446 17.852 21.2716C18.4001 21.4987 19.0033 21.5581 19.5853 21.4424C20.1672 21.3266 20.7018 21.0409 21.1213 20.6213C21.5409 20.2018 21.8266 19.6672 21.9424 19.0853C22.0581 18.5033 21.9987 17.9001 21.7716 17.3519C21.5446 16.8038 21.1601 16.3352 20.6667 16.0056C20.1734 15.6759 19.5933 15.5 19 15.5C18.5983 15.5016 18.201 15.5838 17.8317 15.7419C17.4623 15.8999 17.1285 16.1305 16.85 16.42L14.13 15.06L19.24 12.5H21C21.2652 12.5 21.5196 12.3946 21.7071 12.2071C21.8946 12.0196 22 11.7652 22 11.5V7.5C22 7.36868 21.9741 7.23864 21.9239 7.11732C21.8736 6.99599 21.8 6.88575 21.7071 6.79289C21.6143 6.70003 21.504 6.62638 21.3827 6.57612C21.2614 6.52587 21.1313 6.5 21 6.5ZM5 19.5C4.80222 19.5 4.60888 19.4414 4.44443 19.3315C4.27998 19.2216 4.15181 19.0654 4.07612 18.8827C4.00043 18.7 3.98063 18.4989 4.01922 18.3049C4.0578 18.1109 4.15304 17.9327 4.29289 17.7929C4.43275 17.653 4.61093 17.5578 4.80491 17.5192C4.99889 17.4806 5.19996 17.5004 5.38268 17.5761C5.56541 17.6518 5.72159 17.78 5.83147 17.9444C5.94135 18.1089 6 18.3022 6 18.5C6 18.7652 5.89464 19.0196 5.70711 19.2071C5.51957 19.3946 5.26522 19.5 5 19.5ZM19 17.5C19.1978 17.5 19.3911 17.5586 19.5556 17.6685C19.72 17.7784 19.8482 17.9346 19.9239 18.1173C19.9996 18.3 20.0194 18.5011 19.9808 18.6951C19.9422 18.8891 19.847 19.0673 19.7071 19.2071C19.5673 19.347 19.3891 19.4422 19.1951 19.4808C19.0011 19.5194 18.8 19.4996 18.6173 19.4239C18.4346 19.3482 18.2784 19.22 18.1685 19.0556C18.0586 18.8911 18 18.6978 18 18.5C18 18.2348 18.1054 17.9804 18.2929 17.7929C18.4804 17.6054 18.7348 17.5 19 17.5ZM11.9 13.94L9 12.5H14.75L11.9 13.94ZM20 10.5H4V8.5H20V10.5Z" />
</symbol><symbol viewBox="0 0 24 24" id="medical-syringe">
<path d="M21.7102 2.29C21.6172 2.19627 21.5066 2.12188 21.3848 2.07111C21.2629 2.02034 21.1322 1.9942 21.0002 1.9942C20.8682 1.9942 20.7375 2.02034 20.6156 2.07111C20.4937 2.12188 20.3831 2.19627 20.2902 2.29L18.1702 4.41L17.4602 3.71C17.2728 3.52375 17.0194 3.41921 16.7552 3.41921C16.491 3.41921 16.2375 3.52375 16.0502 3.71L14.6402 5.12L13.9302 4.41C13.8372 4.31627 13.7266 4.24188 13.6048 4.19111C13.4829 4.14034 13.3522 4.1142 13.2202 4.1142C13.0882 4.1142 12.9575 4.14034 12.8356 4.19111C12.7137 4.24188 12.6031 4.31627 12.5102 4.41L4.74019 12.19L4.00019 11.49C3.80609 11.3544 3.57016 11.292 3.33439 11.314C3.09862 11.336 2.87831 11.441 2.71268 11.6102C2.54705 11.7794 2.44684 12.002 2.42991 12.2381C2.41297 12.4743 2.4804 12.7089 2.62019 12.9L6.15019 16.44L4.42019 18.18L3.71019 17.46C3.52188 17.2717 3.26649 17.1659 3.00019 17.1659C2.73388 17.1659 2.47849 17.2717 2.29019 17.46C2.10188 17.6483 1.99609 17.9037 1.99609 18.17C1.99609 18.4363 2.10188 18.6917 2.29019 18.88L5.12019 21.71C5.21363 21.8027 5.32444 21.876 5.44628 21.9258C5.56812 21.9755 5.69858 22.0008 5.83019 22C5.96179 22.0008 6.09225 21.9755 6.21409 21.9258C6.33593 21.876 6.44675 21.8027 6.54019 21.71C6.63391 21.617 6.70831 21.5064 6.75908 21.3846C6.80985 21.2627 6.83598 21.132 6.83598 21C6.83598 20.868 6.80985 20.7373 6.75908 20.6154C6.70831 20.4936 6.63391 20.383 6.54019 20.29L5.83019 19.59L7.57019 17.85L11.1002 21.38C11.1928 21.4745 11.3032 21.5497 11.4251 21.6012C11.547 21.6527 11.6779 21.6795 11.8102 21.68C12.008 21.6792 12.201 21.6197 12.365 21.5092C12.529 21.3986 12.6565 21.2419 12.7315 21.0589C12.8064 20.8758 12.8253 20.6747 12.786 20.4809C12.7466 20.2871 12.6506 20.1093 12.5102 19.97L11.8102 19.26L19.5902 11.49C19.6839 11.397 19.7583 11.2864 19.8091 11.1646C19.8598 11.0427 19.886 10.912 19.886 10.78C19.886 10.648 19.8598 10.5173 19.8091 10.3954C19.7583 10.2736 19.6839 10.163 19.5902 10.07L18.8802 9.36L20.2902 8C20.4764 7.81264 20.581 7.55919 20.581 7.295C20.581 7.03081 20.4764 6.77736 20.2902 6.59L19.5902 5.88L21.7102 3.76C21.8117 3.66636 21.8927 3.55271 21.9481 3.42621C22.0035 3.29971 22.0321 3.1631 22.0321 3.025C22.0321 2.8869 22.0035 2.75029 21.9481 2.62379C21.8927 2.49729 21.8117 2.38364 21.7102 2.29ZM7.57019 15L6.15019 13.61L7.56019 12.19L9.00019 13.61L7.57019 15ZM10.3902 17.83L9.00019 16.44L10.3902 15L11.8102 16.42L10.3902 17.83ZM13.2202 15L9.00019 10.78L13.2402 6.54L13.9502 7.24L17.4802 10.78L13.2202 15ZM17.4602 8L16.0502 6.54L16.7602 5.83L17.4602 6.53L18.1602 7.23L17.4602 8Z" />
</symbol><symbol viewBox="0 0 24 24" id="medical-thermometer">
<path d="M16.2899 6.29003L9.28994 13.29C9.19621 13.383 9.12182 13.4936 9.07105 13.6154C9.02028 13.7373 8.99414 13.868 8.99414 14C8.99414 14.132 9.02028 14.2627 9.07105 14.3846C9.12182 14.5065 9.19621 14.6171 9.28994 14.71C9.3829 14.8038 9.4935 14.8781 9.61536 14.9289C9.73722 14.9797 9.86793 15.0058 9.99994 15.0058C10.132 15.0058 10.2627 14.9797 10.3845 14.9289C10.5064 14.8781 10.617 14.8038 10.7099 14.71L17.7099 7.71003C17.8982 7.52172 18.004 7.26633 18.004 7.00003C18.004 6.73373 17.8982 6.47833 17.7099 6.29003C17.5216 6.10172 17.2662 5.99593 16.9999 5.99593C16.7336 5.99593 16.4782 6.10172 16.2899 6.29003ZM20.5399 3.46003C20.0755 2.99439 19.5237 2.62497 18.9163 2.3729C18.3088 2.12084 17.6576 1.99109 16.9999 1.99109C16.3423 1.99109 15.6911 2.12084 15.0836 2.3729C14.4762 2.62497 13.9244 2.99439 13.4599 3.46003L5.28994 11.69C5.10519 11.8763 5.00104 12.1277 4.99994 12.39V17.58L2.28994 20.29C2.19621 20.383 2.12182 20.4936 2.07105 20.6154C2.02028 20.7373 1.99414 20.868 1.99414 21C1.99414 21.132 2.02028 21.2627 2.07105 21.3846C2.12182 21.5065 2.19621 21.6171 2.28994 21.71C2.3829 21.8038 2.4935 21.8782 2.61536 21.9289C2.73722 21.9797 2.86793 22.0058 2.99994 22.0058C3.13195 22.0058 3.26266 21.9797 3.38452 21.9289C3.50637 21.8782 3.61698 21.8038 3.70994 21.71L6.41994 19H11.6099C11.8723 18.9989 12.1237 18.8948 12.3099 18.71L20.5399 10.54C21.0056 10.0756 21.375 9.52381 21.6271 8.91636C21.8791 8.30891 22.0089 7.6577 22.0089 7.00003C22.0089 6.34235 21.8791 5.69114 21.6271 5.08369C21.375 4.47624 21.0056 3.92448 20.5399 3.46003ZM19.1199 9.12003L11.1999 17H6.99994V12.8L14.8799 4.88003C15.4486 4.35011 16.2008 4.06161 16.978 4.07533C17.7552 4.08904 18.4968 4.40389 19.0464 4.95354C19.5961 5.50319 19.9109 6.24473 19.9246 7.02194C19.9384 7.79914 19.6499 8.55133 19.1199 9.12003Z" />
</symbol><symbol viewBox="0 0 24 24" id="medical-wheel-chair">
<path d="M20 16.18V16C19.9983 15.3811 19.8051 14.7778 19.4471 14.2729C19.089 13.7681 18.5836 13.3863 18 13.18V7H19C19.2652 7 19.5196 6.89464 19.7071 6.70711C19.8946 6.51957 20 6.26522 20 6C20 5.73478 19.8946 5.48043 19.7071 5.29289C19.5196 5.10536 19.2652 5 19 5H7C7 4.20435 6.68393 3.44129 6.12132 2.87868C5.55871 2.31607 4.79565 2 4 2H3C2.73478 2 2.48043 2.10536 2.29289 2.29289C2.10536 2.48043 2 2.73478 2 3C2 3.26522 2.10536 3.51957 2.29289 3.70711C2.48043 3.89464 2.73478 4 3 4H4C4.26522 4 4.51957 4.10536 4.70711 4.29289C4.89464 4.48043 5 4.73478 5 5V12.42C4.17371 12.7806 3.4603 13.358 2.93528 14.0909C2.41027 14.8238 2.09318 15.685 2.0176 16.5834C1.94202 17.4818 2.11075 18.3839 2.50593 19.1942C2.90111 20.0046 3.50804 20.693 4.26247 21.1866C5.01689 21.6802 5.89074 21.9606 6.79152 21.9982C7.69229 22.0358 8.58647 21.8292 9.3794 21.4001C10.1723 20.9711 10.8345 20.3356 11.2958 19.5611C11.7572 18.7865 12.0005 17.9016 12 17C12.0009 16.3113 11.8579 15.6301 11.58 15H17C17.2652 15 17.5196 15.1054 17.7071 15.2929C17.8946 15.4804 18 15.7348 18 16V16.18C17.3328 16.4159 16.7704 16.8801 16.4124 17.4905C16.0543 18.1009 15.9235 18.8182 16.0432 19.5157C16.1629 20.2132 16.5253 20.846 17.0663 21.3021C17.6074 21.7582 18.2923 22.0084 19 22.0084C19.7077 22.0084 20.3926 21.7582 20.9337 21.3021C21.4747 20.846 21.8371 20.2132 21.9568 19.5157C22.0765 18.8182 21.9457 18.1009 21.5876 17.4905C21.2296 16.8801 20.6672 16.4159 20 16.18ZM7 20C6.40666 20 5.82664 19.8241 5.33329 19.4944C4.83994 19.1648 4.45543 18.6962 4.22836 18.1481C4.0013 17.5999 3.94189 16.9967 4.05765 16.4147C4.1734 15.8328 4.45912 15.2982 4.87868 14.8787C5.29824 14.4591 5.83279 14.1734 6.41473 14.0576C6.99667 13.9419 7.59987 14.0013 8.14805 14.2284C8.69623 14.4554 9.16477 14.8399 9.49441 15.3333C9.82405 15.8266 10 16.4067 10 17C10 17.7956 9.68393 18.5587 9.12132 19.1213C8.55871 19.6839 7.79565 20 7 20ZM16 13H10C9.13694 12.3463 8.08268 11.9949 7 12V11H16V13ZM16 9H7V7H16V9ZM19 20C18.8022 20 18.6089 19.9414 18.4444 19.8315C18.28 19.7216 18.1518 19.5654 18.0761 19.3827C18.0004 19.2 17.9806 18.9989 18.0192 18.8049C18.0578 18.6109 18.153 18.4327 18.2929 18.2929C18.4327 18.153 18.6109 18.0578 18.8049 18.0192C18.9989 17.9806 19.2 18.0004 19.3827 18.0761C19.5654 18.1518 19.7216 18.28 19.8315 18.4444C19.9414 18.6089 20 18.8022 20 19C20 19.2652 19.8946 19.5196 19.7071 19.7071C19.5196 19.8946 19.2652 20 19 20ZM7 16C6.80222 16 6.60888 16.0586 6.44443 16.1685C6.27998 16.2784 6.15181 16.4346 6.07612 16.6173C6.00043 16.8 5.98063 17.0011 6.01922 17.1951C6.0578 17.3891 6.15304 17.5673 6.29289 17.7071C6.43275 17.847 6.61093 17.9422 6.80491 17.9808C6.99889 18.0194 7.19996 17.9996 7.38268 17.9239C7.56541 17.8482 7.72159 17.72 7.83147 17.5556C7.94135 17.3911 8 17.1978 8 17C8 16.7348 7.89464 16.4804 7.70711 16.2929C7.51957 16.1054 7.26522 16 7 16Z" />
</symbol></defs></svg>