<svg xmlns="http://www.w3.org/2000/svg" xmlns:xlink="http://www.w3.org/1999/xlink"><defs><symbol viewBox="0 0 24 24" id="transport-boat">
<path d="M3.61979 17.28C3.71792 17.5267 3.91001 17.7242 4.15381 17.8292C4.3976 17.9343 4.67314 17.9381 4.91979 17.84C5.16644 17.7419 5.36401 17.5498 5.46903 17.306C5.57405 17.0622 5.57792 16.7867 5.47979 16.54L4.35979 13.72L10.9998 12.25V17C10.9998 17.2652 11.1051 17.5196 11.2927 17.7071C11.4802 17.8946 11.7346 18 11.9998 18C12.265 18 12.5194 17.8946 12.7069 17.7071C12.8944 17.5196 12.9998 17.2652 12.9998 17V12.25L19.6398 13.72L18.5198 16.54C18.4711 16.6621 18.4469 16.7926 18.4487 16.9241C18.4505 17.0556 18.4782 17.1854 18.5302 17.3061C18.5822 17.4269 18.6575 17.5362 18.7518 17.6278C18.8461 17.7194 18.9576 17.7915 19.0798 17.84C19.1976 17.8866 19.3231 17.9103 19.4498 17.91C19.6501 17.9102 19.8458 17.8502 20.0116 17.7379C20.1774 17.6256 20.3057 17.4661 20.3798 17.28L21.9298 13.37C21.983 13.2348 22.0061 13.0896 21.9974 12.9445C21.9888 12.7994 21.9487 12.658 21.8798 12.53C21.813 12.4025 21.7194 12.2909 21.6055 12.2029C21.4916 12.1149 21.36 12.0525 21.2198 12.02L17.9998 11.31V7C17.9998 6.73478 17.8944 6.48043 17.7069 6.29289C17.5194 6.10536 17.265 6 16.9998 6H14.9998V3C14.9998 2.73478 14.8944 2.48043 14.7069 2.29289C14.5194 2.10536 14.265 2 13.9998 2H9.99979C9.73457 2 9.48022 2.10536 9.29268 2.29289C9.10514 2.48043 8.99979 2.73478 8.99979 3V6H6.99979C6.73457 6 6.48022 6.10536 6.29268 6.29289C6.10514 6.48043 5.99979 6.73478 5.99979 7V11.31L2.77979 12C2.63955 12.0325 2.50798 12.0949 2.39408 12.1829C2.28017 12.2709 2.18661 12.3825 2.11979 12.51C2.05092 12.638 2.01077 12.7794 2.00213 12.9245C1.9935 13.0696 2.01658 13.2148 2.06979 13.35L3.61979 17.28ZM10.9998 4H12.9998V6H10.9998V4ZM7.99979 8H15.9998V10.86L12.2198 10H12.1198H11.9998H11.8798H11.7798L7.99979 10.86V8ZM20.7098 19.28C20.3589 19.3875 20.023 19.5387 19.7098 19.73C19.3912 19.9163 19.0288 20.0145 18.6598 20.0145C18.2907 20.0145 17.9284 19.9163 17.6098 19.73C16.9171 19.3392 16.1352 19.1339 15.3398 19.1339C14.5444 19.1339 13.7625 19.3392 13.0698 19.73C12.7469 19.9141 12.3815 20.011 12.0098 20.011C11.638 20.011 11.2727 19.9141 10.9498 19.73C10.2564 19.3411 9.47478 19.1368 8.67979 19.1368C7.8848 19.1368 7.10314 19.3411 6.40979 19.73C6.09122 19.9163 5.72883 20.0145 5.35979 20.0145C4.99075 20.0145 4.62835 19.9163 4.30979 19.73C3.99662 19.5387 3.66066 19.3875 3.30979 19.28C3.17673 19.2327 3.03516 19.2141 2.8944 19.2255C2.75364 19.2368 2.61688 19.2778 2.49312 19.3459C2.36937 19.4139 2.26142 19.5073 2.17639 19.6201C2.09135 19.7328 2.03117 19.8623 1.99979 20C1.92513 20.2533 1.95368 20.5258 2.0792 20.7581C2.20472 20.9904 2.41702 21.1636 2.66979 21.24C2.87115 21.2946 3.06326 21.3788 3.23979 21.49C3.84649 21.846 4.53636 22.0357 5.23979 22.04C5.97039 22.0401 6.68801 21.8469 7.31979 21.48C7.71176 21.2638 8.15213 21.1504 8.59979 21.1504C9.04745 21.1504 9.48781 21.2638 9.87979 21.48C10.5071 21.8387 11.2172 22.0274 11.9398 22.0274C12.6624 22.0274 13.3725 21.8387 13.9998 21.48C14.3918 21.2638 14.8321 21.1504 15.2798 21.1504C15.7274 21.1504 16.1678 21.2638 16.5598 21.48C17.1796 21.8499 17.888 22.0453 18.6098 22.0453C19.3316 22.0453 20.04 21.8499 20.6598 21.48C20.8363 21.3688 21.0284 21.2846 21.2298 21.23C21.3629 21.2031 21.4891 21.1493 21.6007 21.0721C21.7123 20.9948 21.8071 20.8956 21.8791 20.7805C21.9512 20.6654 21.999 20.5368 22.0198 20.4027C22.0405 20.2685 22.0337 20.1315 21.9998 20C21.968 19.8647 21.9084 19.7374 21.8247 19.6265C21.7409 19.5155 21.635 19.4232 21.5136 19.3554C21.3922 19.2877 21.2581 19.246 21.1197 19.233C20.9813 19.22 20.8417 19.236 20.7098 19.28Z" />
</symbol><symbol viewBox="0 0 24 24" id="transport-bus">
<path d="M18.5 2H6.5C5.70435 2 4.94129 2.31607 4.37868 2.87868C3.81607 3.44129 3.5 4.20435 3.5 5V17C3.50174 17.6189 3.69488 18.2222 4.05294 18.7271C4.411 19.2319 4.91645 19.6137 5.5 19.82V21C5.5 21.2652 5.60536 21.5196 5.79289 21.7071C5.98043 21.8946 6.23478 22 6.5 22C6.76522 22 7.01957 21.8946 7.20711 21.7071C7.39464 21.5196 7.5 21.2652 7.5 21V20H17.5V21C17.5 21.2652 17.6054 21.5196 17.7929 21.7071C17.9804 21.8946 18.2348 22 18.5 22C18.7652 22 19.0196 21.8946 19.2071 21.7071C19.3946 21.5196 19.5 21.2652 19.5 21V19.82C20.0835 19.6137 20.589 19.2319 20.9471 18.7271C21.3051 18.2222 21.4983 17.6189 21.5 17V5C21.5 4.20435 21.1839 3.44129 20.6213 2.87868C20.0587 2.31607 19.2956 2 18.5 2ZM5.5 8H11.5V12H5.5V8ZM19.5 17C19.5 17.2652 19.3946 17.5196 19.2071 17.7071C19.0196 17.8946 18.7652 18 18.5 18H6.5C6.23478 18 5.98043 17.8946 5.79289 17.7071C5.60536 17.5196 5.5 17.2652 5.5 17V14H19.5V17ZM19.5 12H13.5V8H19.5V12ZM19.5 6H5.5V5C5.5 4.73478 5.60536 4.48043 5.79289 4.29289C5.98043 4.10536 6.23478 4 6.5 4H18.5C18.7652 4 19.0196 4.10536 19.2071 4.29289C19.3946 4.48043 19.5 4.73478 19.5 5V6ZM16.12 16.92C16.2402 16.9712 16.3693 16.9984 16.5 17C16.7652 17 17.0196 16.8946 17.2071 16.7071C17.3946 16.5196 17.5 16.2652 17.5 16C17.5049 15.9334 17.5049 15.8666 17.5 15.8C17.4891 15.7374 17.4688 15.6767 17.44 15.62C17.4181 15.5563 17.3878 15.4957 17.35 15.44C17.3131 15.3876 17.273 15.3375 17.23 15.29L17.08 15.17C17.0243 15.1322 16.9637 15.1019 16.9 15.08C16.8383 15.0422 16.7707 15.0152 16.7 15C16.5378 14.9661 16.3698 14.973 16.2109 15.0201C16.0521 15.0673 15.9074 15.1531 15.79 15.27C15.747 15.3175 15.7069 15.3676 15.67 15.42C15.6322 15.4757 15.6019 15.5363 15.58 15.6C15.5512 15.6567 15.5309 15.7174 15.52 15.78C15.5151 15.8466 15.5151 15.9134 15.52 15.98C15.5211 16.2423 15.6253 16.4937 15.81 16.68C15.8965 16.7797 16.0018 16.8612 16.12 16.92ZM8.12 16.92C8.24022 16.9712 8.36932 16.9984 8.5 17C8.76522 17 9.01957 16.8946 9.20711 16.7071C9.39464 16.5196 9.5 16.2652 9.5 16C9.50491 15.9334 9.50491 15.8666 9.5 15.8C9.48905 15.7374 9.46883 15.6767 9.44 15.62C9.41811 15.5563 9.38785 15.4957 9.35 15.44C9.31308 15.3876 9.27301 15.3375 9.23 15.29L9.08 15.17L8.9 15.08L8.7 15C8.53782 14.9661 8.36976 14.973 8.21092 15.0201C8.05208 15.0673 7.90744 15.1531 7.79 15.27C7.74699 15.3175 7.70692 15.3676 7.67 15.42C7.63215 15.4757 7.60189 15.5363 7.58 15.6C7.55117 15.6567 7.53095 15.7174 7.52 15.78C7.51509 15.8466 7.51509 15.9134 7.52 15.98C7.5211 16.2423 7.62526 16.4937 7.81 16.68C7.89649 16.7797 8.00184 16.8612 8.12 16.92Z" />
</symbol><symbol viewBox="0 0 24 24" id="transport-car">
<path d="M19 9.50001H18.68L17.43 6.38001C17.2068 5.82527 16.8228 5.3499 16.3275 5.01492C15.8321 4.67993 15.248 4.50063 14.65 4.50001H8.65C7.95529 4.49802 7.28142 4.7372 6.74342 5.17673C6.20541 5.61625 5.83662 6.22886 5.7 6.91001L5.18 9.50001H5C4.20435 9.50001 3.44129 9.81608 2.87868 10.3787C2.31607 10.9413 2 11.7044 2 12.5V15.5C2 15.7652 2.10536 16.0196 2.29289 16.2071C2.48043 16.3947 2.73478 16.5 3 16.5H4C4 17.2957 4.31607 18.0587 4.87868 18.6213C5.44129 19.1839 6.20435 19.5 7 19.5C7.79565 19.5 8.55871 19.1839 9.12132 18.6213C9.68393 18.0587 10 17.2957 10 16.5H14C14 17.2957 14.3161 18.0587 14.8787 18.6213C15.4413 19.1839 16.2044 19.5 17 19.5C17.7956 19.5 18.5587 19.1839 19.1213 18.6213C19.6839 18.0587 20 17.2957 20 16.5H21C21.2652 16.5 21.5196 16.3947 21.7071 16.2071C21.8946 16.0196 22 15.7652 22 15.5V12.5C22 11.7044 21.6839 10.9413 21.1213 10.3787C20.5587 9.81608 19.7956 9.50001 19 9.50001ZM13 6.50001H14.65C14.8486 6.50181 15.0421 6.56269 15.206 6.67488C15.3698 6.78708 15.4965 6.94552 15.57 7.13001L16.52 9.50001H13V6.50001ZM7.66 7.30001C7.70675 7.07074 7.83242 6.86511 8.01514 6.71894C8.19786 6.57277 8.42605 6.49529 8.66 6.50001H11V9.50001H7.22L7.66 7.30001ZM7 17.5C6.80222 17.5 6.60888 17.4414 6.44443 17.3315C6.27998 17.2216 6.15181 17.0654 6.07612 16.8827C6.00043 16.7 5.98063 16.4989 6.01921 16.3049C6.0578 16.1109 6.15304 15.9328 6.29289 15.7929C6.43275 15.6531 6.61093 15.5578 6.80491 15.5192C6.99889 15.4806 7.19996 15.5004 7.38268 15.5761C7.56541 15.6518 7.72159 15.78 7.83147 15.9444C7.94135 16.1089 8 16.3022 8 16.5C8 16.7652 7.89464 17.0196 7.70711 17.2071C7.51957 17.3947 7.26522 17.5 7 17.5ZM17 17.5C16.8022 17.5 16.6089 17.4414 16.4444 17.3315C16.28 17.2216 16.1518 17.0654 16.0761 16.8827C16.0004 16.7 15.9806 16.4989 16.0192 16.3049C16.0578 16.1109 16.153 15.9328 16.2929 15.7929C16.4327 15.6531 16.6109 15.5578 16.8049 15.5192C16.9989 15.4806 17.2 15.5004 17.3827 15.5761C17.5654 15.6518 17.7216 15.78 17.8315 15.9444C17.9414 16.1089 18 16.3022 18 16.5C18 16.7652 17.8946 17.0196 17.7071 17.2071C17.5196 17.3947 17.2652 17.5 17 17.5ZM20 14.5H19.22C18.9388 14.1907 18.5961 13.9435 18.2138 13.7743C17.8315 13.6052 17.418 13.5178 17 13.5178C16.582 13.5178 16.1685 13.6052 15.7862 13.7743C15.4039 13.9435 15.0612 14.1907 14.78 14.5H9.22C8.93882 14.1907 8.59609 13.9435 8.21378 13.7743C7.83148 13.6052 7.41805 13.5178 7 13.5178C6.58195 13.5178 6.16852 13.6052 5.78622 13.7743C5.40391 13.9435 5.06118 14.1907 4.78 14.5H4V12.5C4 12.2348 4.10536 11.9804 4.29289 11.7929C4.48043 11.6054 4.73478 11.5 5 11.5H19C19.2652 11.5 19.5196 11.6054 19.7071 11.7929C19.8946 11.9804 20 12.2348 20 12.5V14.5Z" />
</symbol><symbol viewBox="0 0 24 24" id="transport-car-1">
<path d="M7.5 3.99994C7.63161 4.0007 7.76207 3.97548 7.88391 3.92571C8.00574 3.87595 8.11656 3.80262 8.21 3.70994L9.21 2.70994C9.3983 2.52164 9.50409 2.26624 9.50409 1.99994C9.50409 1.73364 9.3983 1.47824 9.21 1.28994C9.0217 1.10164 8.7663 0.99585 8.5 0.99585C8.2337 0.99585 7.9783 1.10164 7.79 1.28994L6.79 2.28994C6.69627 2.3829 6.62188 2.49351 6.57111 2.61536C6.52034 2.73722 6.4942 2.86793 6.4942 2.99994C6.4942 3.13195 6.52034 3.26266 6.57111 3.38452C6.62188 3.50638 6.69627 3.61698 6.79 3.70994C6.88344 3.80262 6.99426 3.87595 7.11609 3.92571C7.23793 3.97548 7.36839 4.0007 7.5 3.99994ZM11.5 3.99994C11.6316 4.0007 11.7621 3.97548 11.8839 3.92571C12.0057 3.87595 12.1166 3.80262 12.21 3.70994L13.21 2.70994C13.3983 2.52164 13.5041 2.26624 13.5041 1.99994C13.5041 1.73364 13.3983 1.47824 13.21 1.28994C13.0217 1.10164 12.7663 0.99585 12.5 0.99585C12.2337 0.99585 11.9783 1.10164 11.79 1.28994L10.79 2.28994C10.6963 2.3829 10.6219 2.49351 10.5711 2.61536C10.5203 2.73722 10.4942 2.86793 10.4942 2.99994C10.4942 3.13195 10.5203 3.26266 10.5711 3.38452C10.6219 3.50638 10.6963 3.61698 10.79 3.70994C10.8834 3.80262 10.9943 3.87595 11.1161 3.92571C11.2379 3.97548 11.3684 4.0007 11.5 3.99994ZM15.5 3.99994C15.6316 4.0007 15.7621 3.97548 15.8839 3.92571C16.0057 3.87595 16.1166 3.80262 16.21 3.70994L17.21 2.70994C17.3032 2.6167 17.3772 2.50601 17.4277 2.38419C17.4781 2.26237 17.5041 2.1318 17.5041 1.99994C17.5041 1.86808 17.4781 1.73751 17.4277 1.61569C17.3772 1.49387 17.3032 1.38318 17.21 1.28994C17.1168 1.1967 17.0061 1.12274 16.8842 1.07228C16.7624 1.02182 16.6319 0.99585 16.5 0.99585C16.3681 0.99585 16.2376 1.02182 16.1158 1.07228C15.9939 1.12274 15.8832 1.1967 15.79 1.28994L14.79 2.28994C14.6963 2.3829 14.6219 2.49351 14.5711 2.61536C14.5203 2.73722 14.4942 2.86793 14.4942 2.99994C14.4942 3.13195 14.5203 3.26266 14.5711 3.38452C14.6219 3.50638 14.6963 3.61698 14.79 3.70994C14.8834 3.80262 14.9943 3.87595 15.1161 3.92571C15.2379 3.97548 15.3684 4.0007 15.5 3.99994ZM17.92 15.6199C17.8981 15.5562 17.8678 15.4957 17.83 15.4399L17.71 15.2899L17.56 15.1699C17.5043 15.1321 17.4437 15.1018 17.38 15.0799C17.3205 15.0495 17.2562 15.0292 17.19 15.0199C17.0293 14.9878 16.8632 14.9956 16.7063 15.0427C16.5494 15.0897 16.4064 15.1747 16.29 15.2899C16.247 15.3375 16.2069 15.3876 16.17 15.4399C16.1322 15.4957 16.1019 15.5562 16.08 15.6199C16.0512 15.6766 16.0309 15.7373 16.02 15.7999C16.0151 15.8665 16.0151 15.9334 16.02 15.9999C16.0211 16.2623 16.1253 16.5137 16.31 16.6999C16.4025 16.7966 16.5152 16.8718 16.64 16.9199C16.754 16.9687 16.8761 16.9958 17 16.9999C17.2652 16.9999 17.5196 16.8946 17.7071 16.707C17.8946 16.5195 18 16.2652 18 15.9999C18.0049 15.9334 18.0049 15.8665 18 15.7999C17.9828 15.7362 17.9558 15.6755 17.92 15.6199ZM19.76 11.1099L18.4 7.04994C18.1926 6.46317 17.8077 5.95544 17.2989 5.5971C16.7901 5.23876 16.1824 5.04754 15.56 5.04994H8.44C7.81764 5.04754 7.20995 5.23876 6.7011 5.5971C6.19225 5.95544 5.80745 6.46317 5.6 7.04994L4.24 11.1099C3.60033 11.2774 3.03392 11.6516 2.62883 12.1742C2.22374 12.6969 2.00268 13.3387 2 13.9999V17.9999C2.00174 18.6189 2.19488 19.2221 2.55294 19.727C2.911 20.2319 3.41645 20.6136 4 20.8199V21.9999C4 22.2652 4.10536 22.5195 4.29289 22.707C4.48043 22.8946 4.73478 22.9999 5 22.9999C5.26522 22.9999 5.51957 22.8946 5.70711 22.707C5.89464 22.5195 6 22.2652 6 21.9999V20.9999H18V21.9999C18 22.2652 18.1054 22.5195 18.2929 22.707C18.4804 22.8946 18.7348 22.9999 19 22.9999C19.2652 22.9999 19.5196 22.8946 19.7071 22.707C19.8946 22.5195 20 22.2652 20 21.9999V20.8199C20.5835 20.6136 21.089 20.2319 21.4471 19.727C21.8051 19.2221 21.9983 18.6189 22 17.9999V13.9999C21.9973 13.3387 21.7763 12.6969 21.3712 12.1742C20.9661 11.6516 20.3997 11.2774 19.76 11.1099ZM7.49 7.67994C7.55709 7.48132 7.6849 7.30881 7.85537 7.18678C8.02584 7.06476 8.23036 6.9994 8.44 6.99994H15.56C15.7781 6.98856 15.9939 7.04887 16.1744 7.17166C16.355 7.29444 16.4904 7.47296 16.56 7.67994L17.61 10.9999H6.39L7.49 7.67994ZM20 17.9999C20 18.2652 19.8946 18.5195 19.7071 18.707C19.5196 18.8946 19.2652 18.9999 19 18.9999H5C4.73478 18.9999 4.48043 18.8946 4.29289 18.707C4.10536 18.5195 4 18.2652 4 17.9999V13.9999C4 13.7347 4.10536 13.4804 4.29289 13.2928C4.48043 13.1053 4.73478 12.9999 5 12.9999H19C19.2652 12.9999 19.5196 13.1053 19.7071 13.2928C19.8946 13.4804 20 13.7347 20 13.9999V17.9999ZM13 14.9999H11C10.7348 14.9999 10.4804 15.1053 10.2929 15.2928C10.1054 15.4804 10 15.7347 10 15.9999C10 16.2652 10.1054 16.5195 10.2929 16.707C10.4804 16.8946 10.7348 16.9999 11 16.9999H13C13.2652 16.9999 13.5196 16.8946 13.7071 16.707C13.8946 16.5195 14 16.2652 14 15.9999C14 15.7347 13.8946 15.4804 13.7071 15.2928C13.5196 15.1053 13.2652 14.9999 13 14.9999ZM7.92 15.6199C7.89811 15.5562 7.86785 15.4957 7.83 15.4399L7.71 15.2899C7.56938 15.1512 7.3908 15.0572 7.19681 15.0198C7.00282 14.9824 6.80211 15.0034 6.62 15.0799C6.49725 15.1275 6.3851 15.1989 6.29 15.2899C6.24699 15.3375 6.20692 15.3876 6.17 15.4399C6.13215 15.4957 6.10189 15.5562 6.08 15.6199C6.0442 15.6755 6.01722 15.7362 6 15.7999C5.99509 15.8665 5.99509 15.9334 6 15.9999C6.00083 16.1977 6.06028 16.3908 6.17085 16.5548C6.28141 16.7188 6.43812 16.8463 6.62115 16.9212C6.80418 16.9961 7.00532 17.0151 7.19913 16.9757C7.39295 16.9363 7.57073 16.8404 7.71 16.6999C7.89474 16.5137 7.9989 16.2623 8 15.9999C8.00491 15.9334 8.00491 15.8665 8 15.7999C7.98278 15.7362 7.9558 15.6755 7.92 15.6199Z" />
</symbol><symbol viewBox="0 0 24 24" id="transport-hand-truck">
<path d="M22 16H19.82C19.9364 15.6793 19.9973 15.3411 20 15V10C20 9.20435 19.6839 8.44129 19.1213 7.87868C18.5587 7.31607 17.7956 7 17 7H11C10.2044 7 9.44129 7.31607 8.87868 7.87868C8.31607 8.44129 8 9.20435 8 10V15C8.0027 15.3411 8.06358 15.6793 8.18 16H7C6.73478 16 6.48043 15.8946 6.29289 15.7071C6.10536 15.5196 6 15.2652 6 15V5C6 4.20435 5.68393 3.44129 5.12132 2.87868C4.55871 2.31607 3.79565 2 3 2H2C1.73478 2 1.48043 2.10536 1.29289 2.29289C1.10536 2.48043 1 2.73478 1 3C1 3.26522 1.10536 3.51957 1.29289 3.70711C1.48043 3.89464 1.73478 4 2 4H3C3.26522 4 3.51957 4.10536 3.70711 4.29289C3.89464 4.48043 4 4.73478 4 5V15C4.00369 15.6569 4.22288 16.2944 4.62392 16.8147C5.02497 17.335 5.58569 17.7092 6.22 17.88C6.03583 18.3305 5.96406 18.8191 6.01087 19.3036C6.05767 19.7881 6.22166 20.2539 6.48867 20.6609C6.75568 21.0678 7.11771 21.4037 7.5435 21.6395C7.96929 21.8753 8.44607 22.004 8.93269 22.0144C9.41931 22.0249 9.90116 21.9167 10.3367 21.6994C10.7722 21.482 11.1482 21.1619 11.4324 20.7668C11.7167 20.3717 11.9004 19.9133 11.968 19.4313C12.0355 18.9492 11.9847 18.458 11.82 18H15.18C15.0155 18.4531 14.9627 18.9392 15.0259 19.4171C15.0892 19.895 15.2666 20.3506 15.5433 20.7454C15.82 21.1401 16.1877 21.4624 16.6154 21.6849C17.043 21.9074 17.5179 22.0235 18 22.0235C18.4821 22.0235 18.957 21.9074 19.3846 21.6849C19.8123 21.4624 20.18 21.1401 20.4567 20.7454C20.7334 20.3506 20.9108 19.895 20.9741 19.4171C21.0373 18.9392 20.9845 18.4531 20.82 18H22C22.2652 18 22.5196 17.8946 22.7071 17.7071C22.8946 17.5196 23 17.2652 23 17C23 16.7348 22.8946 16.4804 22.7071 16.2929C22.5196 16.1054 22.2652 16 22 16ZM9 20C8.80222 20 8.60888 19.9414 8.44443 19.8315C8.27998 19.7216 8.15181 19.5654 8.07612 19.3827C8.00043 19.2 7.98063 18.9989 8.01921 18.8049C8.0578 18.6109 8.15304 18.4327 8.29289 18.2929C8.43275 18.153 8.61093 18.0578 8.80491 18.0192C8.99889 17.9806 9.19996 18.0004 9.38268 18.0761C9.56541 18.1518 9.72159 18.28 9.83147 18.4444C9.94135 18.6089 10 18.8022 10 19C10 19.2652 9.89464 19.5196 9.70711 19.7071C9.51957 19.8946 9.26522 20 9 20ZM11 16C10.7348 16 10.4804 15.8946 10.2929 15.7071C10.1054 15.5196 10 15.2652 10 15V10C10 9.73478 10.1054 9.48043 10.2929 9.29289C10.4804 9.10536 10.7348 9 11 9H17C17.2652 9 17.5196 9.10536 17.7071 9.29289C17.8946 9.48043 18 9.73478 18 10V15C18 15.2652 17.8946 15.5196 17.7071 15.7071C17.5196 15.8946 17.2652 16 17 16H11ZM18 20C17.8022 20 17.6089 19.9414 17.4444 19.8315C17.28 19.7216 17.1518 19.5654 17.0761 19.3827C17.0004 19.2 16.9806 18.9989 17.0192 18.8049C17.0578 18.6109 17.153 18.4327 17.2929 18.2929C17.4327 18.153 17.6109 18.0578 17.8049 18.0192C17.9989 17.9806 18.2 18.0004 18.3827 18.0761C18.5654 18.1518 18.7216 18.28 18.8315 18.4444C18.9414 18.6089 19 18.8022 19 19C19 19.2652 18.8946 19.5196 18.7071 19.7071C18.5196 19.8946 18.2652 20 18 20Z" />
</symbol><symbol viewBox="0 0 24 24" id="transport-luggage">
<path d="M2 13.5V15.5C2 15.7652 2.10536 16.0196 2.29289 16.2071C2.48043 16.3946 2.73478 16.5 3 16.5H13C13 17.2956 13.3161 18.0587 13.8787 18.6213C14.4413 19.1839 15.2044 19.5 16 19.5C16.7956 19.5 17.5587 19.1839 18.1213 18.6213C18.6839 18.0587 19 17.2956 19 16.5H21C21.2652 16.5 21.5196 16.3946 21.7071 16.2071C21.8946 16.0196 22 15.7652 22 15.5V7.5C22 6.70435 21.6839 5.94129 21.1213 5.37868C20.5587 4.81607 19.7956 4.5 19 4.5H9C8.20435 4.5 7.44129 4.81607 6.87868 5.37868C6.31607 5.94129 6 6.70435 6 7.5V14.5H4V13.5C4 13.2348 3.89464 12.9804 3.70711 12.7929C3.51957 12.6054 3.26522 12.5 3 12.5C2.73478 12.5 2.48043 12.6054 2.29289 12.7929C2.10536 12.9804 2 13.2348 2 13.5ZM15 16.5C15 16.3022 15.0586 16.1089 15.1685 15.9444C15.2784 15.78 15.4346 15.6518 15.6173 15.5761C15.8 15.5004 16.0011 15.4806 16.1951 15.5192C16.3891 15.5578 16.5673 15.653 16.7071 15.7929C16.847 15.9327 16.9422 16.1109 16.9808 16.3049C17.0194 16.4989 16.9996 16.7 16.9239 16.8827C16.8482 17.0654 16.72 17.2216 16.5556 17.3315C16.3911 17.4414 16.1978 17.5 16 17.5C15.7348 17.5 15.4804 17.3946 15.2929 17.2071C15.1054 17.0196 15 16.7652 15 16.5ZM8 10.5H20V14.5H18.22C17.9388 14.1906 17.5961 13.9435 17.2138 13.7743C16.8315 13.6052 16.418 13.5178 16 13.5178C15.582 13.5178 15.1685 13.6052 14.7862 13.7743C14.4039 13.9435 14.0612 14.1906 13.78 14.5H8V10.5ZM8 7.5C8 7.23478 8.10536 6.98043 8.29289 6.79289C8.48043 6.60536 8.73478 6.5 9 6.5H19C19.2652 6.5 19.5196 6.60536 19.7071 6.79289C19.8946 6.98043 20 7.23478 20 7.5V8.5H8V7.5Z" />
</symbol><symbol viewBox="0 0 24 24" id="transport-metro">
<path d="M8.71001 14.29C8.56929 14.1515 8.39075 14.0576 8.19684 14.0202C8.00293 13.9829 7.8023 14.0037 7.62017 14.08C7.49611 14.125 7.38344 14.1966 7.29012 14.2899C7.19681 14.3833 7.12514 14.4959 7.08017 14.62C7.01531 14.7721 6.98917 14.9379 7.0041 15.1026C7.01902 15.2672 7.07453 15.4256 7.16568 15.5636C7.25682 15.7015 7.38075 15.8147 7.52637 15.8931C7.67198 15.9714 7.83475 16.0124 8.00009 16.0124C8.16544 16.0124 8.32821 15.9714 8.47382 15.8931C8.61944 15.8147 8.74337 15.7015 8.83451 15.5636C8.92566 15.4256 8.98117 15.2672 8.99609 15.1026C9.01102 14.9379 8.98488 14.7721 8.92001 14.62C8.86942 14.4988 8.79839 14.3872 8.71001 14.29ZM16.71 14.29C16.5167 14.1115 16.2632 14.0124 16.0001 14.0124C15.7369 14.0124 15.4834 14.1115 15.2901 14.29C15.2017 14.3872 15.1307 14.4988 15.0801 14.6201C15.0021 14.8019 14.9804 15.003 15.0178 15.1973C15.0552 15.3916 15.15 15.5702 15.29 15.71C15.3872 15.7984 15.4989 15.8694 15.6201 15.92C15.7398 15.9728 15.8692 16.0001 16 16.0001C16.1308 16.0001 16.2602 15.9728 16.3799 15.92C16.501 15.8692 16.6126 15.7982 16.7099 15.71C16.8499 15.5702 16.9448 15.3916 16.9822 15.1973C17.0196 15.003 16.9979 14.802 16.9199 14.6202C16.8694 14.4989 16.7984 14.3872 16.71 14.29ZM19.3094 18.8953C20.0174 18.331 20.5578 17.584 20.8722 16.7351C21.1867 15.8861 21.2633 14.9674 21.0938 14.0781L19.5938 6.07808C19.3788 4.93216 18.77 3.89741 17.8729 3.15275C16.9758 2.40809 15.8466 2.00034 14.6807 2H9.31935C8.15343 2.00035 7.02428 2.40811 6.12715 3.15278C5.23002 3.89745 4.62131 4.9322 4.40626 6.07812L2.90626 14.0781C2.73675 14.9674 2.81336 15.8862 3.12782 16.7351C3.44229 17.5841 3.98267 18.331 4.69062 18.8953L3.29301 20.293C3.19879 20.3855 3.12382 20.4958 3.07245 20.6175C3.02109 20.7392 2.99433 20.8698 2.99373 21.0019C2.99313 21.1339 3.0187 21.2648 3.06897 21.387C3.11923 21.5091 3.19319 21.62 3.28658 21.7134C3.37997 21.8068 3.49093 21.8808 3.61306 21.931C3.73519 21.9813 3.86607 22.0069 3.99814 22.0063C4.13021 22.0057 4.26085 21.9789 4.38252 21.9276C4.50419 21.8762 4.61448 21.8012 4.70701 21.707L6.57615 19.8379C6.98212 19.9438 7.3998 19.9983 7.81936 20H16.1807C16.6002 19.9983 17.0179 19.9438 17.4238 19.8379L19.293 21.707C19.4811 21.8917 19.7345 21.9947 19.9981 21.9935C20.2618 21.9923 20.5142 21.887 20.7006 21.7006C20.887 21.5142 20.9923 21.2617 20.9935 20.9981C20.9947 20.7345 20.8917 20.4811 20.707 20.293L19.3094 18.8953ZM6.3711 6.44727C6.5004 5.75974 6.86574 5.13895 7.40404 4.69213C7.94233 4.2453 8.61977 4.0005 9.31935 4H14.6807C15.3803 4.0005 16.0577 4.2453 16.596 4.69213C17.1343 5.13895 17.4996 5.75974 17.6289 6.44727L17.9756 8.2962C17.229 9.14576 16.3099 9.82636 15.2794 10.2926C14.249 10.7588 13.131 11 12 11C10.869 11 9.75102 10.7588 8.7206 10.2926C7.69018 9.82636 6.77102 9.14576 6.02442 8.2962L6.3711 6.44727ZM18.4883 16.916C18.2073 17.2556 17.8548 17.5289 17.4558 17.7163C17.0569 17.9037 16.6214 18.0006 16.1807 18H7.81936C7.37862 17.9998 6.94334 17.9026 6.54444 17.7152C6.14555 17.5278 5.79284 17.2548 5.51139 16.9156C5.22993 16.5764 5.02665 16.1795 4.91599 15.7528C4.80533 15.3262 4.79 14.8805 4.8711 14.4473L5.58216 10.6549C7.37776 12.1693 9.65105 13 12 13C14.349 13 16.6223 12.1693 18.4179 10.6549L19.1289 14.4473C19.2108 14.8805 19.1958 15.3266 19.085 15.7534C18.9743 16.1802 18.7705 16.5772 18.4883 16.916Z" />
</symbol><symbol viewBox="0 0 24 24" id="transport-package">
<path d="M7 14H9C9.26522 14 9.51957 13.8946 9.70711 13.7071C9.89464 13.5196 10 13.2652 10 13C10 12.7348 9.89464 12.4804 9.70711 12.2929C9.51957 12.1054 9.26522 12 9 12H7C6.73478 12 6.48043 12.1054 6.29289 12.2929C6.10536 12.4804 6 12.7348 6 13C6 13.2652 6.10536 13.5196 6.29289 13.7071C6.48043 13.8946 6.73478 14 7 14ZM13 16H7C6.73478 16 6.48043 16.1054 6.29289 16.2929C6.10536 16.4804 6 16.7348 6 17C6 17.2652 6.10536 17.5196 6.29289 17.7071C6.48043 17.8946 6.73478 18 7 18H13C13.2652 18 13.5196 17.8946 13.7071 17.7071C13.8946 17.5196 14 17.2652 14 17C14 16.7348 13.8946 16.4804 13.7071 16.2929C13.5196 16.1054 13.2652 16 13 16ZM19 2H5C4.20435 2 3.44129 2.31607 2.87868 2.87868C2.31607 3.44129 2 4.20435 2 5V19C2 19.7956 2.31607 20.5587 2.87868 21.1213C3.44129 21.6839 4.20435 22 5 22H19C19.7956 22 20.5587 21.6839 21.1213 21.1213C21.6839 20.5587 22 19.7956 22 19V5C22 4.20435 21.6839 3.44129 21.1213 2.87868C20.5587 2.31607 19.7956 2 19 2ZM14 4V7.29L12.49 6.45C12.338 6.36223 12.1655 6.31603 11.99 6.31603C11.8145 6.31603 11.642 6.36223 11.49 6.45L10 7.29V4H14ZM20 19C20 19.2652 19.8946 19.5196 19.7071 19.7071C19.5196 19.8946 19.2652 20 19 20H5C4.73478 20 4.48043 19.8946 4.29289 19.7071C4.10536 19.5196 4 19.2652 4 19V5C4 4.73478 4.10536 4.48043 4.29289 4.29289C4.48043 4.10536 4.73478 4 5 4H8V9C8.00105 9.17451 8.04776 9.34571 8.13547 9.49658C8.22319 9.64746 8.34886 9.77274 8.5 9.86C8.65202 9.94777 8.82446 9.99397 9 9.99397C9.17554 9.99397 9.34798 9.94777 9.5 9.86L12 8.47L14.51 9.87C14.6595 9.9547 14.8282 9.99947 15 10C15.2652 10 15.5196 9.89464 15.7071 9.70711C15.8946 9.51957 16 9.26522 16 9V4H19C19.2652 4 19.5196 4.10536 19.7071 4.29289C19.8946 4.48043 20 4.73478 20 5V19Z" />
</symbol><symbol viewBox="0 0 24 24" id="transport-school-bus">
<path d="M8.5 17C8.76522 17 9.01957 16.8946 9.20711 16.7071C9.39464 16.5196 9.5 16.2652 9.5 16C9.50491 15.9334 9.50491 15.8666 9.5 15.8C9.48905 15.7374 9.46883 15.6767 9.44 15.62C9.41811 15.5563 9.38785 15.4957 9.35 15.44L9.23 15.29C9.1349 15.199 9.02275 15.1276 8.9 15.08C8.71307 14.992 8.50346 14.964 8.3 15L8.12 15.06L7.94 15.15C7.88761 15.1869 7.83752 15.227 7.79 15.27L7.67 15.42C7.63215 15.4757 7.60189 15.5363 7.58 15.6C7.55117 15.6567 7.53095 15.7174 7.52 15.78C7.51509 15.8466 7.51509 15.9134 7.52 15.98C7.52 16.2452 7.62536 16.4996 7.81289 16.6871C8.00043 16.8746 8.25478 16.98 8.52 16.98L8.5 17ZM16.5 17C16.7652 17 17.0196 16.8946 17.2071 16.7071C17.3946 16.5196 17.5 16.2652 17.5 16C17.5049 15.9334 17.5049 15.8666 17.5 15.8C17.4891 15.7374 17.4688 15.6767 17.44 15.62C17.4181 15.5563 17.3878 15.4957 17.35 15.44L17.23 15.29C17.1328 15.2017 17.0212 15.1306 16.9 15.08C16.6565 14.98 16.3835 14.98 16.14 15.08C16.0188 15.1306 15.9072 15.2017 15.81 15.29L15.69 15.44C15.6522 15.4957 15.6219 15.5563 15.6 15.62C15.5712 15.6767 15.5509 15.7374 15.54 15.8C15.5351 15.8666 15.5351 15.9334 15.54 16C15.5411 16.2623 15.6453 16.5137 15.83 16.7C16.0072 16.8813 16.2467 16.9886 16.5 17ZM13.5 5H11.5C11.2348 5 10.9804 5.10536 10.7929 5.29289C10.6054 5.48043 10.5 5.73478 10.5 6C10.5 6.26522 10.6054 6.51957 10.7929 6.70711C10.9804 6.89464 11.2348 7 11.5 7H13.5C13.7652 7 14.0196 6.89464 14.2071 6.70711C14.3946 6.51957 14.5 6.26522 14.5 6C14.5 5.73478 14.3946 5.48043 14.2071 5.29289C14.0196 5.10536 13.7652 5 13.5 5ZM18.5 2H6.5C5.70435 2 4.94129 2.31607 4.37868 2.87868C3.81607 3.44129 3.5 4.20435 3.5 5V17C3.50174 17.6189 3.69488 18.2222 4.05294 18.7271C4.411 19.2319 4.91645 19.6137 5.5 19.82V21C5.5 21.2652 5.60536 21.5196 5.79289 21.7071C5.98043 21.8946 6.23478 22 6.5 22C6.76522 22 7.01957 21.8946 7.20711 21.7071C7.39464 21.5196 7.5 21.2652 7.5 21V20H17.5V21C17.5 21.2652 17.6054 21.5196 17.7929 21.7071C17.9804 21.8946 18.2348 22 18.5 22C18.7652 22 19.0196 21.8946 19.2071 21.7071C19.3946 21.5196 19.5 21.2652 19.5 21V19.82C20.0835 19.6137 20.589 19.2319 20.9471 18.7271C21.3051 18.2222 21.4983 17.6189 21.5 17V5C21.5 4.20435 21.1839 3.44129 20.6213 2.87868C20.0587 2.31607 19.2956 2 18.5 2ZM19.5 17C19.5 17.2652 19.3946 17.5196 19.2071 17.7071C19.0196 17.8946 18.7652 18 18.5 18H6.5C6.23478 18 5.98043 17.8946 5.79289 17.7071C5.60536 17.5196 5.5 17.2652 5.5 17V14H19.5V17ZM19.5 12H5.5V5C5.5 4.73478 5.60536 4.48043 5.79289 4.29289C5.98043 4.10536 6.23478 4 6.5 4H18.5C18.7652 4 19.0196 4.10536 19.2071 4.29289C19.3946 4.48043 19.5 4.73478 19.5 5V12Z" />
</symbol><symbol viewBox="0 0 24 24" id="transport-school-bus-1">
<path d="M1 12.5V16.5C1 16.7652 1.10536 17.0196 1.29289 17.2071C1.48043 17.3946 1.73478 17.5 2 17.5H3C3 18.2956 3.31607 19.0587 3.87868 19.6213C4.44129 20.1839 5.20435 20.5 6 20.5C6.79565 20.5 7.55871 20.1839 8.12132 19.6213C8.68393 19.0587 9 18.2956 9 17.5H15C15 18.2956 15.3161 19.0587 15.8787 19.6213C16.4413 20.1839 17.2044 20.5 18 20.5C18.7956 20.5 19.5587 20.1839 20.1213 19.6213C20.6839 19.0587 21 18.2956 21 17.5H22C22.2652 17.5 22.5196 17.3946 22.7071 17.2071C22.8946 17.0196 23 16.7652 23 16.5V6.5C23 5.70435 22.6839 4.94129 22.1213 4.37868C21.5587 3.81607 20.7956 3.5 20 3.5H8.44C7.81155 3.50118 7.19933 3.69968 6.68977 4.06751C6.1802 4.43533 5.79901 4.95389 5.6 5.55L4.16 9.86L1.45 11.67C1.31244 11.7606 1.19938 11.8838 1.12088 12.0285C1.04238 12.1733 1.00085 12.3353 1 12.5ZM21 9.5H19V5.5H20C20.2652 5.5 20.5196 5.60536 20.7071 5.79289C20.8946 5.98043 21 6.23478 21 6.5V9.5ZM17 17.5C17 17.3022 17.0586 17.1089 17.1685 16.9444C17.2784 16.78 17.4346 16.6518 17.6173 16.5761C17.8 16.5004 18.0011 16.4806 18.1951 16.5192C18.3891 16.5578 18.5673 16.653 18.7071 16.7929C18.847 16.9327 18.9422 17.1109 18.9808 17.3049C19.0194 17.4989 18.9996 17.7 18.9239 17.8827C18.8482 18.0654 18.72 18.2216 18.5556 18.3315C18.3911 18.4414 18.1978 18.5 18 18.5C17.7348 18.5 17.4804 18.3946 17.2929 18.2071C17.1054 18.0196 17 17.7652 17 17.5ZM15 11.5H21V15.5H20.22C19.9388 15.1906 19.5961 14.9435 19.2138 14.7743C18.8315 14.6052 18.418 14.5178 18 14.5178C17.582 14.5178 17.1685 14.6052 16.7862 14.7743C16.4039 14.9435 16.0612 15.1906 15.78 15.5H15V11.5ZM15 5.5H17V9.5H15V5.5ZM11 11.5H13V15.5H11V11.5ZM11 5.5H13V9.5H11V5.5ZM9 9.5H6.39L7.49 6.18C7.55709 5.98138 7.6849 5.80887 7.85537 5.68684C8.02584 5.56482 8.23036 5.49946 8.44 5.5H9V9.5ZM5 17.5C5 17.3022 5.05865 17.1089 5.16853 16.9444C5.27841 16.78 5.43459 16.6518 5.61732 16.5761C5.80004 16.5004 6.00111 16.4806 6.19509 16.5192C6.38907 16.5578 6.56725 16.653 6.70711 16.7929C6.84696 16.9327 6.9422 17.1109 6.98079 17.3049C7.01937 17.4989 6.99957 17.7 6.92388 17.8827C6.84819 18.0654 6.72002 18.2216 6.55557 18.3315C6.39112 18.4414 6.19778 18.5 6 18.5C5.73478 18.5 5.48043 18.3946 5.29289 18.2071C5.10536 18.0196 5 17.7652 5 17.5ZM3 13L5.3 11.5H9V15.5H8.22C7.93882 15.1906 7.59609 14.9435 7.21378 14.7743C6.83148 14.6052 6.41805 14.5178 6 14.5178C5.58195 14.5178 5.16852 14.6052 4.78622 14.7743C4.40391 14.9435 4.06118 15.1906 3.78 15.5H3V13Z" />
</symbol><symbol viewBox="0 0 24 24" id="transport-shipping-truck">
<path d="M1 12.5V17.5C1 17.7652 1.10536 18.0196 1.29289 18.2071C1.48043 18.3946 1.73478 18.5 2 18.5H3C3 19.2956 3.31607 20.0587 3.87868 20.6213C4.44129 21.1839 5.20435 21.5 6 21.5C6.79565 21.5 7.55871 21.1839 8.12132 20.6213C8.68393 20.0587 9 19.2956 9 18.5H15C15 19.2956 15.3161 20.0587 15.8787 20.6213C16.4413 21.1839 17.2044 21.5 18 21.5C18.7956 21.5 19.5587 21.1839 20.1213 20.6213C20.6839 20.0587 21 19.2956 21 18.5H22C22.2652 18.5 22.5196 18.3946 22.7071 18.2071C22.8946 18.0196 23 17.7652 23 17.5V5.5C23 4.70435 22.6839 3.94129 22.1213 3.37868C21.5587 2.81607 20.7956 2.5 20 2.5H11C10.2044 2.5 9.44129 2.81607 8.87868 3.37868C8.31607 3.94129 8 4.70435 8 5.5V7.5H6C5.53426 7.5 5.07493 7.60844 4.65836 7.81672C4.24179 8.025 3.87944 8.32741 3.6 8.7L1.2 11.9C1.17075 11.9435 1.14722 11.9905 1.13 12.04L1.07 12.15C1.02587 12.2615 1.00216 12.3801 1 12.5ZM17 18.5C17 18.3022 17.0586 18.1089 17.1685 17.9444C17.2784 17.78 17.4346 17.6518 17.6173 17.5761C17.8 17.5004 18.0011 17.4806 18.1951 17.5192C18.3891 17.5578 18.5673 17.653 18.7071 17.7929C18.847 17.9327 18.9422 18.1109 18.9808 18.3049C19.0194 18.4989 18.9996 18.7 18.9239 18.8827C18.8482 19.0654 18.72 19.2216 18.5556 19.3315C18.3911 19.4414 18.1978 19.5 18 19.5C17.7348 19.5 17.4804 19.3946 17.2929 19.2071C17.1054 19.0196 17 18.7652 17 18.5ZM10 5.5C10 5.23478 10.1054 4.98043 10.2929 4.79289C10.4804 4.60536 10.7348 4.5 11 4.5H20C20.2652 4.5 20.5196 4.60536 20.7071 4.79289C20.8946 4.98043 21 5.23478 21 5.5V16.5H20.22C19.9388 16.1906 19.5961 15.9435 19.2138 15.7743C18.8315 15.6052 18.418 15.5178 18 15.5178C17.582 15.5178 17.1685 15.6052 16.7862 15.7743C16.4039 15.9435 16.0612 16.1906 15.78 16.5H10V5.5ZM8 11.5H4L5.2 9.9C5.29315 9.7758 5.41393 9.675 5.55279 9.60557C5.69164 9.53615 5.84475 9.5 6 9.5H8V11.5ZM5 18.5C5 18.3022 5.05865 18.1089 5.16853 17.9444C5.27841 17.78 5.43459 17.6518 5.61732 17.5761C5.80004 17.5004 6.00111 17.4806 6.19509 17.5192C6.38907 17.5578 6.56725 17.653 6.70711 17.7929C6.84696 17.9327 6.9422 18.1109 6.98079 18.3049C7.01937 18.4989 6.99957 18.7 6.92388 18.8827C6.84819 19.0654 6.72002 19.2216 6.55557 19.3315C6.39112 19.4414 6.19778 19.5 6 19.5C5.73478 19.5 5.48043 19.3946 5.29289 19.2071C5.10536 19.0196 5 18.7652 5 18.5ZM3 13.5H8V16.28C7.40983 15.7526 6.63513 15.4797 5.84469 15.5209C5.05425 15.5621 4.31212 15.914 3.78 16.5H3V13.5Z" />
</symbol><symbol viewBox="0 0 24 24" id="transport-train">
<path d="M14.9999 17H15.9999C16.2652 17 16.5195 16.8946 16.707 16.7071C16.8946 16.5196 16.9999 16.2652 16.9999 16C16.9999 15.7348 16.8946 15.4804 16.707 15.2929C16.5195 15.1054 16.2652 15 15.9999 15H14.9999C14.7347 15 14.4804 15.1054 14.2928 15.2929C14.1053 15.4804 13.9999 15.7348 13.9999 16C13.9999 16.2652 14.1053 16.5196 14.2928 16.7071C14.4804 16.8946 14.7347 17 14.9999 17ZM20.9999 17V9C20.9999 8.20435 20.6839 7.44129 20.1213 6.87868C19.5587 6.31607 18.7956 6 17.9999 6H12.9999V4H16.9999C17.2652 4 17.5195 3.89464 17.707 3.70711C17.8946 3.51957 17.9999 3.26522 17.9999 3C17.9999 2.73478 17.8946 2.48043 17.707 2.29289C17.5195 2.10536 17.2652 2 16.9999 2H6.99994C6.73472 2 6.48037 2.10536 6.29283 2.29289C6.1053 2.48043 5.99994 2.73478 5.99994 3C5.99994 3.26522 6.1053 3.51957 6.29283 3.70711C6.48037 3.89464 6.73472 4 6.99994 4H10.9999V6H5.99994C5.20429 6 4.44123 6.31607 3.87862 6.87868C3.31601 7.44129 2.99994 8.20435 2.99994 9V17C3.00149 17.464 3.11067 17.9214 3.31889 18.3361C3.52711 18.7508 3.8287 19.1116 4.19994 19.39L3.28994 20.29C3.19621 20.383 3.12182 20.4936 3.07105 20.6154C3.02028 20.7373 2.99414 20.868 2.99414 21C2.99414 21.132 3.02028 21.2627 3.07105 21.3846C3.12182 21.5064 3.19621 21.617 3.28994 21.71C3.3829 21.8037 3.4935 21.8781 3.61536 21.9289C3.73722 21.9797 3.86793 22.0058 3.99994 22.0058C4.13195 22.0058 4.26266 21.9797 4.38452 21.9289C4.50638 21.8781 4.61698 21.8037 4.70994 21.71L6.40994 20H17.5899L19.2899 21.71C19.3829 21.8037 19.4935 21.8781 19.6154 21.9289C19.7372 21.9797 19.8679 22.0058 19.9999 22.0058C20.132 22.0058 20.2627 21.9797 20.3845 21.9289C20.5064 21.8781 20.617 21.8037 20.7099 21.71C20.8037 21.617 20.8781 21.5064 20.9288 21.3846C20.9796 21.2627 21.0057 21.132 21.0057 21C21.0057 20.868 20.9796 20.7373 20.9288 20.6154C20.8781 20.4936 20.8037 20.383 20.7099 20.29L19.7999 19.39C20.1712 19.1116 20.4728 18.7508 20.681 18.3361C20.8892 17.9214 20.9984 17.464 20.9999 17ZM4.99994 9C4.99994 8.73478 5.1053 8.48043 5.29283 8.29289C5.48037 8.10536 5.73472 8 5.99994 8H10.9999V12H4.99994V9ZM18.9999 17C18.9999 17.2652 18.8946 17.5196 18.707 17.7071C18.5195 17.8946 18.2652 18 17.9999 18H5.99994C5.73472 18 5.48037 17.8946 5.29283 17.7071C5.1053 17.5196 4.99994 17.2652 4.99994 17V14H18.9999V17ZM18.9999 12H12.9999V8H17.9999C18.2652 8 18.5195 8.10536 18.707 8.29289C18.8946 8.48043 18.9999 8.73478 18.9999 9V12ZM7.99994 17H8.99994C9.26516 17 9.51951 16.8946 9.70705 16.7071C9.89458 16.5196 9.99994 16.2652 9.99994 16C9.99994 15.7348 9.89458 15.4804 9.70705 15.2929C9.51951 15.1054 9.26516 15 8.99994 15H7.99994C7.73472 15 7.48037 15.1054 7.29283 15.2929C7.1053 15.4804 6.99994 15.7348 6.99994 16C6.99994 16.2652 7.1053 16.5196 7.29283 16.7071C7.48037 16.8946 7.73472 17 7.99994 17Z" />
</symbol><symbol viewBox="0 0 24 24" id="transport-train-1">
<path d="M15.9999 17C16.2652 17 16.5195 16.8946 16.707 16.7071C16.8946 16.5196 16.9999 16.2652 16.9999 16C17.0048 15.9334 17.0048 15.8666 16.9999 15.8C16.989 15.7374 16.9688 15.6767 16.9399 15.62C16.9181 15.5563 16.8878 15.4957 16.8499 15.44L16.7299 15.29C16.6327 15.2017 16.5211 15.1306 16.3999 15.08C16.1565 14.98 15.8834 14.98 15.6399 15.08C15.5188 15.1306 15.4071 15.2017 15.3099 15.29L15.1899 15.44C15.1521 15.4957 15.1218 15.5563 15.0999 15.62C15.0711 15.6767 15.0509 15.7374 15.0399 15.8C15.035 15.8666 15.035 15.9334 15.0399 16C15.0399 16.2652 15.1453 16.5196 15.3328 16.7071C15.5204 16.8946 15.7747 17 16.0399 17H15.9999ZM17.9999 2H5.99994C5.20429 2 4.44123 2.31607 3.87862 2.87868C3.31601 3.44129 2.99994 4.20435 2.99994 5V17C3.00149 17.464 3.11067 17.9214 3.31889 18.3361C3.52711 18.7508 3.8287 19.1116 4.19994 19.39L3.28994 20.29C3.19621 20.383 3.12182 20.4936 3.07105 20.6154C3.02028 20.7373 2.99414 20.868 2.99414 21C2.99414 21.132 3.02028 21.2627 3.07105 21.3846C3.12182 21.5064 3.19621 21.617 3.28994 21.71C3.3829 21.8037 3.4935 21.8781 3.61536 21.9289C3.73722 21.9797 3.86793 22.0058 3.99994 22.0058C4.13195 22.0058 4.26266 21.9797 4.38452 21.9289C4.50638 21.8781 4.61698 21.8037 4.70994 21.71L6.40994 20H17.5899L19.2899 21.71C19.3829 21.8037 19.4935 21.8781 19.6154 21.9289C19.7372 21.9797 19.8679 22.0058 19.9999 22.0058C20.132 22.0058 20.2627 21.9797 20.3845 21.9289C20.5064 21.8781 20.617 21.8037 20.7099 21.71C20.8037 21.617 20.8781 21.5064 20.9288 21.3846C20.9796 21.2627 21.0057 21.132 21.0057 21C21.0057 20.868 20.9796 20.7373 20.9288 20.6154C20.8781 20.4936 20.8037 20.383 20.7099 20.29L19.7999 19.39C20.1712 19.1116 20.4728 18.7508 20.681 18.3361C20.8892 17.9214 20.9984 17.464 20.9999 17V5C20.9999 4.20435 20.6839 3.44129 20.1213 2.87868C19.5587 2.31607 18.7956 2 17.9999 2ZM4.99994 8H10.9999V12H4.99994V8ZM18.9999 17C18.9999 17.2652 18.8946 17.5196 18.707 17.7071C18.5195 17.8946 18.2652 18 17.9999 18H5.99994C5.73472 18 5.48037 17.8946 5.29283 17.7071C5.1053 17.5196 4.99994 17.2652 4.99994 17V14H18.9999V17ZM18.9999 12H12.9999V8H18.9999V12ZM18.9999 6H4.99994V5C4.99994 4.73478 5.1053 4.48043 5.29283 4.29289C5.48037 4.10536 5.73472 4 5.99994 4H17.9999C18.2652 4 18.5195 4.10536 18.707 4.29289C18.8946 4.48043 18.9999 4.73478 18.9999 5V6ZM7.99994 17C8.26516 17 8.51951 16.8946 8.70705 16.7071C8.89458 16.5196 8.99994 16.2652 8.99994 16C9.00485 15.9334 9.00485 15.8666 8.99994 15.8C8.98899 15.7374 8.96877 15.6767 8.93994 15.62C8.91805 15.5563 8.88779 15.4957 8.84994 15.44L8.72994 15.29C8.63274 15.2017 8.52112 15.1306 8.39994 15.08C8.15648 14.98 7.8834 14.98 7.63994 15.08C7.51875 15.1306 7.40714 15.2017 7.30994 15.29L7.18994 15.44C7.15209 15.4957 7.12183 15.5563 7.09994 15.62C7.05711 15.6742 7.02334 15.735 6.99994 15.8C6.99503 15.8666 6.99503 15.9334 6.99994 16C7.00104 16.2623 7.10519 16.5137 7.28994 16.7C7.38255 16.7945 7.493 16.8697 7.61487 16.9212C7.73675 16.9727 7.86763 16.9995 7.99994 17Z" />
</symbol><symbol viewBox="0 0 24 24" id="transport-truck">
<path d="M17.38 14.58C17.1969 14.5028 16.995 14.4819 16.8 14.52C16.7374 14.5309 16.6767 14.5512 16.62 14.58C16.5563 14.6019 16.4957 14.6322 16.44 14.67L16.29 14.79C16.1073 14.9816 16.0037 15.2352 16 15.5C15.9992 15.6316 16.0245 15.7621 16.0742 15.8839C16.124 16.0057 16.1973 16.1166 16.29 16.21C16.3869 16.3013 16.4985 16.3756 16.62 16.43C16.8031 16.5053 17.0044 16.5246 17.1984 16.4855C17.3924 16.4463 17.5705 16.3504 17.71 16.21C17.7983 16.1128 17.8694 16.0012 17.92 15.88C17.976 15.7613 18.0034 15.6312 18 15.5C17.9963 15.2352 17.8927 14.9816 17.71 14.79C17.6161 14.6974 17.5036 14.6258 17.38 14.58ZM20 10.68V7.5C20 6.70435 19.6839 5.94129 19.1213 5.37868C18.5587 4.81607 17.7956 4.5 17 4.5H16.22L15.45 2.18C15.3829 1.98138 15.2551 1.80887 15.0846 1.68685C14.9142 1.56482 14.7096 1.49946 14.5 1.5H9.5C9.29036 1.49946 9.08584 1.56482 8.91537 1.68685C8.7449 1.80887 8.61709 1.98138 8.55 2.18L7.78 4.5H7C6.20435 4.5 5.44129 4.81607 4.87868 5.37868C4.31607 5.94129 4 6.70435 4 7.5V10.68C3.41645 10.8863 2.911 11.2681 2.55294 11.7729C2.19488 12.2778 2.00174 12.8811 2 13.5V19.5C2 19.7652 2.10536 20.0196 2.29289 20.2071C2.48043 20.3946 2.73478 20.5 3 20.5H4V21.5C4 21.7652 4.10536 22.0196 4.29289 22.2071C4.48043 22.3946 4.73478 22.5 5 22.5C5.26522 22.5 5.51957 22.3946 5.70711 22.2071C5.89464 22.0196 6 21.7652 6 21.5V20.5H18V21.5C18 21.7652 18.1054 22.0196 18.2929 22.2071C18.4804 22.3946 18.7348 22.5 19 22.5C19.2652 22.5 19.5196 22.3946 19.7071 22.2071C19.8946 22.0196 20 21.7652 20 21.5V20.5H21C21.2652 20.5 21.5196 20.3946 21.7071 20.2071C21.8946 20.0196 22 19.7652 22 19.5V13.5C21.9983 12.8811 21.8051 12.2778 21.4471 11.7729C21.089 11.2681 20.5835 10.8863 20 10.68ZM10.22 3.5H13.78L14.11 4.5H9.89L10.22 3.5ZM6 7.5C6 7.23479 6.10536 6.98043 6.29289 6.7929C6.48043 6.60536 6.73478 6.5 7 6.5H17C17.2652 6.5 17.5196 6.60536 17.7071 6.7929C17.8946 6.98043 18 7.23479 18 7.5V10.5H6V7.5ZM20 18.5H4V13.5C4 13.2348 4.10536 12.9804 4.29289 12.7929C4.48043 12.6054 4.73478 12.5 5 12.5H19C19.2652 12.5 19.5196 12.6054 19.7071 12.7929C19.8946 12.9804 20 13.2348 20 13.5V18.5ZM6.62 14.58C6.49725 14.6276 6.3851 14.699 6.29 14.79C6.10727 14.9816 6.00368 15.2352 6 15.5C5.99917 15.6646 6.03901 15.8269 6.11596 15.9725C6.19291 16.118 6.30461 16.2423 6.44113 16.3343C6.57766 16.4263 6.73478 16.4832 6.89857 16.4999C7.06235 16.5166 7.22772 16.4926 7.38 16.43C7.50153 16.3756 7.61308 16.3013 7.71 16.21C7.80268 16.1166 7.87601 16.0057 7.92577 15.8839C7.97554 15.7621 8.00076 15.6316 8 15.5C7.99632 15.2352 7.89273 14.9816 7.71 14.79C7.56938 14.6512 7.3908 14.5572 7.19681 14.5199C7.00282 14.4825 6.80211 14.5034 6.62 14.58ZM13 14.5H11C10.7348 14.5 10.4804 14.6054 10.2929 14.7929C10.1054 14.9804 10 15.2348 10 15.5C10 15.7652 10.1054 16.0196 10.2929 16.2071C10.4804 16.3946 10.7348 16.5 11 16.5H13C13.2652 16.5 13.5196 16.3946 13.7071 16.2071C13.8946 16.0196 14 15.7652 14 15.5C14 15.2348 13.8946 14.9804 13.7071 14.7929C13.5196 14.6054 13.2652 14.5 13 14.5Z" />
</symbol></defs></svg>