<svg xmlns="http://www.w3.org/2000/svg" xmlns:xlink="http://www.w3.org/1999/xlink"><defs><symbol viewBox="0 0 24 24" id="users-account">
<path d="M14.81 12.28C15.443 11.6002 15.7996 10.7088 15.81 9.78C15.81 8.77748 15.4118 7.81602 14.7029 7.10714C13.994 6.39825 13.0325 6 12.03 6C11.0275 6 10.066 6.39825 9.35714 7.10714C8.64825 7.81602 8.25 8.77748 8.25 9.78C8.26044 10.7088 8.61702 11.6002 9.25 12.28C8.36865 12.7189 7.61022 13.3699 7.04292 14.1746C6.47561 14.9793 6.11723 15.9124 6 16.89C5.97083 17.1552 6.0482 17.4212 6.21511 17.6293C6.38202 17.8375 6.62478 17.9708 6.89 18C7.15522 18.0292 7.42116 17.9518 7.62932 17.7849C7.83749 17.618 7.97083 17.3752 8 17.11C8.11933 16.1411 8.58885 15.2494 9.32009 14.6027C10.0513 13.956 10.9938 13.599 11.97 13.599C12.9462 13.599 13.8887 13.956 14.6199 14.6027C15.3512 15.2494 15.8207 16.1411 15.94 17.11C15.9678 17.3664 16.0936 17.6022 16.2911 17.768C16.4887 17.9339 16.7426 18.017 17 18H17.11C17.3721 17.9698 17.6117 17.8373 17.7766 17.6313C17.9414 17.4252 18.0181 17.1624 17.99 16.9C17.8815 15.9276 17.5344 14.997 16.9796 14.191C16.4248 13.3851 15.6796 12.7286 14.81 12.28ZM12 11.56C11.6479 11.56 11.3038 11.4556 11.0111 11.26C10.7184 11.0644 10.4902 10.7864 10.3555 10.4612C10.2208 10.1359 10.1855 9.77803 10.2542 9.43274C10.3229 9.08745 10.4924 8.77029 10.7414 8.52135C10.9903 8.27241 11.3075 8.10288 11.6527 8.0342C11.998 7.96552 12.3559 8.00077 12.6812 8.13549C13.0064 8.27022 13.2844 8.49837 13.48 8.79109C13.6756 9.0838 13.78 9.42795 13.78 9.78C13.78 10.2521 13.5925 10.7048 13.2586 11.0387C12.9248 11.3725 12.4721 11.56 12 11.56ZM19 2H5C4.20435 2 3.44129 2.31607 2.87868 2.87868C2.31607 3.44129 2 4.20435 2 5V19C2 19.7956 2.31607 20.5587 2.87868 21.1213C3.44129 21.6839 4.20435 22 5 22H19C19.7956 22 20.5587 21.6839 21.1213 21.1213C21.6839 20.5587 22 19.7956 22 19V5C22 4.20435 21.6839 3.44129 21.1213 2.87868C20.5587 2.31607 19.7956 2 19 2ZM20 19C20 19.2652 19.8946 19.5196 19.7071 19.7071C19.5196 19.8946 19.2652 20 19 20H5C4.73478 20 4.48043 19.8946 4.29289 19.7071C4.10536 19.5196 4 19.2652 4 19V5C4 4.73478 4.10536 4.48043 4.29289 4.29289C4.48043 4.10536 4.73478 4 5 4H19C19.2652 4 19.5196 4.10536 19.7071 4.29289C19.8946 4.48043 20 4.73478 20 5V19Z" />
</symbol><symbol viewBox="0 0 24 24" id="users-account-1">
<path d="M15.7105 12.71C16.6909 11.9387 17.4065 10.8809 17.7577 9.68394C18.109 8.48697 18.0784 7.21027 17.6703 6.03147C17.2621 4.85267 16.4967 3.83039 15.4806 3.10686C14.4644 2.38332 13.2479 1.99451 12.0005 1.99451C10.753 1.99451 9.5366 2.38332 8.52041 3.10686C7.50423 3.83039 6.73883 4.85267 6.3307 6.03147C5.92257 7.21027 5.892 8.48697 6.24325 9.68394C6.59449 10.8809 7.31009 11.9387 8.29048 12.71C6.61056 13.383 5.14477 14.4994 4.04938 15.9399C2.95398 17.3805 2.27005 19.0913 2.07048 20.89C2.05604 21.0213 2.0676 21.1542 2.10451 21.2811C2.14142 21.4079 2.20295 21.5263 2.2856 21.6293C2.4525 21.8375 2.69527 21.9708 2.96049 22C3.2257 22.0292 3.49164 21.9518 3.69981 21.7849C3.90798 21.618 4.04131 21.3752 4.07049 21.11C4.29007 19.1552 5.22217 17.3498 6.6887 16.0388C8.15524 14.7278 10.0534 14.003 12.0205 14.003C13.9876 14.003 15.8857 14.7278 17.3523 16.0388C18.8188 17.3498 19.7509 19.1552 19.9705 21.11C19.9977 21.3557 20.1149 21.5827 20.2996 21.747C20.4843 21.9114 20.7233 22.0015 20.9705 22H21.0805C21.3426 21.9698 21.5822 21.8373 21.747 21.6313C21.9119 21.4252 21.9886 21.1624 21.9605 20.9C21.76 19.0962 21.0724 17.381 19.9713 15.9382C18.8703 14.4954 17.3974 13.3795 15.7105 12.71ZM12.0005 12C11.2094 12 10.436 11.7654 9.7782 11.3259C9.12041 10.8864 8.60772 10.2616 8.30497 9.53074C8.00222 8.79983 7.923 7.99557 8.07734 7.21964C8.23168 6.44372 8.61265 5.73099 9.17206 5.17158C9.73147 4.61217 10.4442 4.2312 11.2201 4.07686C11.996 3.92252 12.8003 4.00173 13.5312 4.30448C14.2621 4.60724 14.8868 5.11993 15.3264 5.77772C15.7659 6.43552 16.0005 7.20888 16.0005 8C16.0005 9.06087 15.5791 10.0783 14.8289 10.8284C14.0788 11.5786 13.0614 12 12.0005 12Z" />
</symbol><symbol viewBox="0 0 24 24" id="users-account-info">
<path d="M14.5498 12.22C15.0834 11.7581 15.5114 11.1869 15.8047 10.545C16.098 9.90316 16.2498 9.20571 16.2498 8.5C16.2498 7.17392 15.723 5.90215 14.7853 4.96447C13.8477 4.02678 12.5759 3.5 11.2498 3.5C9.92372 3.5 8.65195 4.02678 7.71427 4.96447C6.77659 5.90215 6.2498 7.17392 6.2498 8.5C6.25598 9.20958 6.41557 9.90944 6.71764 10.5515C7.01971 11.1937 7.4571 11.7628 7.9998 12.22C6.59994 12.8539 5.41227 13.8775 4.57878 15.1685C3.7453 16.4596 3.30128 17.9633 3.2998 19.5C3.2998 19.7652 3.40516 20.0196 3.5927 20.2071C3.78023 20.3946 4.03459 20.5 4.2998 20.5C4.56502 20.5 4.81938 20.3946 5.00691 20.2071C5.19445 20.0196 5.2998 19.7652 5.2998 19.5C5.2998 17.9087 5.93195 16.3826 7.05716 15.2574C8.18238 14.1321 9.70851 13.5 11.2998 13.5C12.8911 13.5 14.4172 14.1321 15.5424 15.2574C16.6677 16.3826 17.2998 17.9087 17.2998 19.5C17.2998 19.7652 17.4052 20.0196 17.5927 20.2071C17.7802 20.3946 18.0346 20.5 18.2998 20.5C18.565 20.5 18.8194 20.3946 19.0069 20.2071C19.1944 20.0196 19.2998 19.7652 19.2998 19.5C19.294 17.9578 18.8426 16.4502 17.9998 15.1586C17.1571 13.867 15.959 12.8465 14.5498 12.22ZM11.2498 11.5C10.6565 11.5 10.0764 11.3241 9.58309 10.9944C9.08975 10.6648 8.70523 10.1962 8.47817 9.64805C8.2511 9.09987 8.19169 8.49667 8.30745 7.91473C8.4232 7.33279 8.70893 6.79824 9.12848 6.37868C9.54804 5.95912 10.0826 5.6734 10.6645 5.55764C11.2465 5.44189 11.8497 5.5013 12.3979 5.72836C12.946 5.95542 13.4146 6.33994 13.7442 6.83329C14.0739 7.32664 14.2498 7.90666 14.2498 8.5C14.2498 9.29565 13.9337 10.0587 13.3711 10.6213C12.8085 11.1839 12.0455 11.5 11.2498 11.5ZM19.7498 6.5C19.4846 6.5 19.2302 6.60536 19.0427 6.79289C18.8552 6.98043 18.7498 7.23478 18.7498 7.5V9.5C18.7498 9.76522 18.8552 10.0196 19.0427 10.2071C19.2302 10.3946 19.4846 10.5 19.7498 10.5C20.015 10.5 20.2694 10.3946 20.4569 10.2071C20.6444 10.0196 20.7498 9.76522 20.7498 9.5V7.5C20.7498 7.23478 20.6444 6.98043 20.4569 6.79289C20.2694 6.60536 20.015 6.5 19.7498 6.5ZM18.9998 11.79C18.8171 11.9816 18.7135 12.2352 18.7098 12.5C18.709 12.6316 18.7343 12.7621 18.784 12.8839C18.8338 13.0057 18.9071 13.1166 18.9998 13.21C19.097 13.2983 19.2086 13.3694 19.3298 13.42C19.4495 13.4729 19.5789 13.5002 19.7098 13.5002C19.8407 13.5002 19.9701 13.4729 20.0898 13.42C20.2139 13.3751 20.3266 13.3034 20.4199 13.2101C20.5132 13.1168 20.5849 13.0041 20.6298 12.88C20.6858 12.7613 20.7132 12.6312 20.7098 12.5C20.711 12.3014 20.6529 12.1069 20.5431 11.9414C20.4333 11.7759 20.2767 11.6468 20.0933 11.5706C19.9098 11.4945 19.7079 11.4747 19.5131 11.5137C19.3184 11.5528 19.1397 11.649 18.9998 11.79Z" />
</symbol><symbol viewBox="0 0 24 24" id="users-add-account">
<path d="M21 10.5H20V9.5C20 9.23478 19.8946 8.98043 19.7071 8.79289C19.5196 8.60536 19.2652 8.5 19 8.5C18.7348 8.5 18.4804 8.60536 18.2929 8.79289C18.1054 8.98043 18 9.23478 18 9.5V10.5H17C16.7348 10.5 16.4804 10.6054 16.2929 10.7929C16.1054 10.9804 16 11.2348 16 11.5C16 11.7652 16.1054 12.0196 16.2929 12.2071C16.4804 12.3946 16.7348 12.5 17 12.5H18V13.5C18 13.7652 18.1054 14.0196 18.2929 14.2071C18.4804 14.3946 18.7348 14.5 19 14.5C19.2652 14.5 19.5196 14.3946 19.7071 14.2071C19.8946 14.0196 20 13.7652 20 13.5V12.5H21C21.2652 12.5 21.5196 12.3946 21.7071 12.2071C21.8946 12.0196 22 11.7652 22 11.5C22 11.2348 21.8946 10.9804 21.7071 10.7929C21.5196 10.6054 21.2652 10.5 21 10.5ZM13.3 12.22C13.8336 11.7581 14.2616 11.1869 14.5549 10.545C14.8482 9.90316 15 9.20571 15 8.5C15 7.17392 14.4732 5.90215 13.5355 4.96447C12.5979 4.02678 11.3261 3.5 10 3.5C8.67392 3.5 7.40215 4.02678 6.46447 4.96447C5.52678 5.90215 5 7.17392 5 8.5C4.99999 9.20571 5.1518 9.90316 5.44513 10.545C5.73845 11.1869 6.16642 11.7581 6.7 12.22C5.30014 12.8539 4.11247 13.8775 3.27898 15.1685C2.4455 16.4596 2.00147 17.9633 2 19.5C2 19.7652 2.10536 20.0196 2.29289 20.2071C2.48043 20.3946 2.73478 20.5 3 20.5C3.26522 20.5 3.51957 20.3946 3.70711 20.2071C3.89464 20.0196 4 19.7652 4 19.5C4 17.9087 4.63214 16.3826 5.75736 15.2574C6.88258 14.1321 8.4087 13.5 10 13.5C11.5913 13.5 13.1174 14.1321 14.2426 15.2574C15.3679 16.3826 16 17.9087 16 19.5C16 19.7652 16.1054 20.0196 16.2929 20.2071C16.4804 20.3946 16.7348 20.5 17 20.5C17.2652 20.5 17.5196 20.3946 17.7071 20.2071C17.8946 20.0196 18 19.7652 18 19.5C17.9985 17.9633 17.5545 16.4596 16.721 15.1685C15.8875 13.8775 14.6999 12.8539 13.3 12.22ZM10 11.5C9.40666 11.5 8.82664 11.3241 8.33329 10.9944C7.83994 10.6648 7.45542 10.1962 7.22836 9.64805C7.0013 9.09987 6.94189 8.49667 7.05764 7.91473C7.1734 7.33279 7.45912 6.79824 7.87868 6.37868C8.29824 5.95912 8.83279 5.6734 9.41473 5.55764C9.99667 5.44189 10.5999 5.5013 11.1481 5.72836C11.6962 5.95542 12.1648 6.33994 12.4944 6.83329C12.8241 7.32664 13 7.90666 13 8.5C13 9.29565 12.6839 10.0587 12.1213 10.6213C11.5587 11.1839 10.7956 11.5 10 11.5Z" />
</symbol><symbol viewBox="0 0 24 24" id="users-approve-user">
<path d="M13.3 12.22C13.8336 11.7581 14.2616 11.1869 14.5549 10.545C14.8482 9.90316 15 9.20571 15 8.5C15 7.17392 14.4732 5.90215 13.5355 4.96447C12.5979 4.02678 11.3261 3.5 10 3.5C8.67392 3.5 7.40215 4.02678 6.46447 4.96447C5.52678 5.90215 5 7.17392 5 8.5C4.99999 9.20571 5.1518 9.90316 5.44513 10.545C5.73845 11.1869 6.16642 11.7581 6.7 12.22C5.30014 12.8539 4.11247 13.8775 3.27898 15.1685C2.4455 16.4596 2.00147 17.9633 2 19.5C2 19.7652 2.10536 20.0196 2.29289 20.2071C2.48043 20.3946 2.73478 20.5 3 20.5C3.26522 20.5 3.51957 20.3946 3.70711 20.2071C3.89464 20.0196 4 19.7652 4 19.5C4 17.9087 4.63214 16.3826 5.75736 15.2574C6.88258 14.1321 8.4087 13.5 10 13.5C11.5913 13.5 13.1174 14.1321 14.2426 15.2574C15.3679 16.3826 16 17.9087 16 19.5C16 19.7652 16.1054 20.0196 16.2929 20.2071C16.4804 20.3946 16.7348 20.5 17 20.5C17.2652 20.5 17.5196 20.3946 17.7071 20.2071C17.8946 20.0196 18 19.7652 18 19.5C17.9985 17.9633 17.5545 16.4596 16.721 15.1685C15.8875 13.8775 14.6999 12.8539 13.3 12.22ZM10 11.5C9.40666 11.5 8.82664 11.3241 8.33329 10.9944C7.83994 10.6648 7.45542 10.1962 7.22836 9.64805C7.0013 9.09987 6.94189 8.49667 7.05764 7.91473C7.1734 7.33279 7.45912 6.79824 7.87868 6.37868C8.29824 5.95912 8.83279 5.6734 9.41473 5.55764C9.99667 5.44189 10.5999 5.5013 11.1481 5.72836C11.6962 5.95542 12.1648 6.33994 12.4944 6.83329C12.8241 7.32664 13 7.90666 13 8.5C13 9.29565 12.6839 10.0587 12.1213 10.6213C11.5587 11.1839 10.7956 11.5 10 11.5ZM21.71 9.13C21.617 9.03627 21.5064 8.96188 21.3846 8.91111C21.2627 8.86034 21.132 8.8342 21 8.8342C20.868 8.8342 20.7373 8.86034 20.6154 8.91111C20.4936 8.96188 20.383 9.03627 20.29 9.13L18.29 11.13L17.67 10.5C17.577 10.4063 17.4664 10.3319 17.3446 10.2811C17.2227 10.2303 17.092 10.2042 16.96 10.2042C16.828 10.2042 16.6973 10.2303 16.5754 10.2811C16.4536 10.3319 16.343 10.4063 16.25 10.5C16.0637 10.6874 15.9592 10.9408 15.9592 11.205C15.9592 11.4692 16.0637 11.7226 16.25 11.91L17.59 13.25C17.7774 13.4363 18.0308 13.5408 18.295 13.5408C18.5592 13.5408 18.8126 13.4363 19 13.25L21.67 10.58C21.771 10.4893 21.8524 10.379 21.9094 10.2559C21.9664 10.1327 21.9977 9.99924 22.0014 9.86359C22.0052 9.72794 21.9813 9.59294 21.9312 9.46682C21.8811 9.34071 21.8058 9.22611 21.71 9.13Z" />
</symbol><symbol viewBox="0 0 24 24" id="users-delete-user">
<path d="M13.3 12.22C13.8336 11.7581 14.2616 11.1869 14.5549 10.545C14.8482 9.90316 15 9.20571 15 8.5C15 7.17392 14.4732 5.90215 13.5355 4.96447C12.5979 4.02678 11.3261 3.5 10 3.5C8.67392 3.5 7.40215 4.02678 6.46447 4.96447C5.52678 5.90215 5 7.17392 5 8.5C4.99999 9.20571 5.1518 9.90316 5.44513 10.545C5.73845 11.1869 6.16642 11.7581 6.7 12.22C5.30014 12.8539 4.11247 13.8775 3.27898 15.1685C2.4455 16.4596 2.00147 17.9633 2 19.5C2 19.7652 2.10536 20.0196 2.29289 20.2071C2.48043 20.3946 2.73478 20.5 3 20.5C3.26522 20.5 3.51957 20.3946 3.70711 20.2071C3.89464 20.0196 4 19.7652 4 19.5C4 17.9087 4.63214 16.3826 5.75736 15.2574C6.88258 14.1321 8.4087 13.5 10 13.5C11.5913 13.5 13.1174 14.1321 14.2426 15.2574C15.3679 16.3826 16 17.9087 16 19.5C16 19.7652 16.1054 20.0196 16.2929 20.2071C16.4804 20.3946 16.7348 20.5 17 20.5C17.2652 20.5 17.5196 20.3946 17.7071 20.2071C17.8946 20.0196 18 19.7652 18 19.5C17.9985 17.9633 17.5545 16.4596 16.721 15.1685C15.8875 13.8775 14.6999 12.8539 13.3 12.22ZM10 11.5C9.40666 11.5 8.82664 11.3241 8.33329 10.9944C7.83994 10.6648 7.45542 10.1962 7.22836 9.64805C7.0013 9.09987 6.94189 8.49667 7.05764 7.91473C7.1734 7.33279 7.45912 6.79824 7.87868 6.37868C8.29824 5.95912 8.83279 5.6734 9.41473 5.55764C9.99667 5.44189 10.5999 5.5013 11.1481 5.72836C11.6962 5.95542 12.1648 6.33994 12.4944 6.83329C12.8241 7.32664 13 7.90666 13 8.5C13 9.29565 12.6839 10.0587 12.1213 10.6213C11.5587 11.1839 10.7956 11.5 10 11.5ZM20.91 12L21.71 11.21C21.8032 11.1168 21.8772 11.0061 21.9277 10.8842C21.9781 10.7624 22.0041 10.6319 22.0041 10.5C22.0041 10.3681 21.9781 10.2376 21.9277 10.1158C21.8772 9.99393 21.8032 9.88324 21.71 9.79C21.6168 9.69676 21.5061 9.6228 21.3842 9.57234C21.2624 9.52188 21.1319 9.49591 21 9.49591C20.8681 9.49591 20.7376 9.52188 20.6158 9.57234C20.4939 9.6228 20.3832 9.69676 20.29 9.79L19.5 10.59L18.71 9.79C18.6168 9.69676 18.5061 9.6228 18.3842 9.57234C18.2624 9.52188 18.1319 9.49591 18 9.49591C17.7337 9.49591 17.4783 9.6017 17.29 9.79C17.1968 9.88324 17.1228 9.99393 17.0723 10.1158C17.0219 10.2376 16.9959 10.3681 16.9959 10.5C16.9959 10.7663 17.1017 11.0217 17.29 11.21L18.09 12L17.29 12.79C17.1963 12.883 17.1219 12.9936 17.0711 13.1154C17.0203 13.2373 16.9942 13.368 16.9942 13.5C16.9942 13.632 17.0203 13.7627 17.0711 13.8846C17.1219 14.0064 17.1963 14.117 17.29 14.21C17.383 14.3037 17.4936 14.3781 17.6154 14.4289C17.7373 14.4797 17.868 14.5058 18 14.5058C18.132 14.5058 18.2627 14.4797 18.3846 14.4289C18.5064 14.3781 18.617 14.3037 18.71 14.21L19.5 13.41L20.29 14.21C20.383 14.3037 20.4936 14.3781 20.6154 14.4289C20.7373 14.4797 20.868 14.5058 21 14.5058C21.132 14.5058 21.2627 14.4797 21.3846 14.4289C21.5064 14.3781 21.617 14.3037 21.71 14.21C21.8037 14.117 21.8781 14.0064 21.9289 13.8846C21.9797 13.7627 22.0058 13.632 22.0058 13.5C22.0058 13.368 21.9797 13.2373 21.9289 13.1154C21.8781 12.9936 21.8037 12.883 21.71 12.79L20.91 12Z" />
</symbol><symbol viewBox="0 0 24 24" id="users-profile">
<path d="M11.9996 2C10.06 2.00369 8.16344 2.57131 6.54079 3.63374C4.91814 4.69617 3.63946 6.20754 2.8605 7.98377C2.08155 9.76 1.83594 11.7244 2.15359 13.6378C2.47124 15.5511 3.33844 17.3308 4.64956 18.76C5.58598 19.775 6.7225 20.5851 7.9875 21.1392C9.25249 21.6933 10.6185 21.9793 11.9996 21.9793C13.3806 21.9793 14.7466 21.6933 16.0116 21.1392C17.2766 20.5851 18.4131 19.775 19.3496 18.76C20.6607 17.3308 21.5279 15.5511 21.8455 13.6378C22.1632 11.7244 21.9176 9.76 21.1386 7.98377C20.3597 6.20754 19.081 4.69617 17.4583 3.63374C15.8357 2.57131 13.9391 2.00369 11.9996 2ZM11.9996 20C9.92803 19.9969 7.93848 19.1903 6.44956 17.75C6.9016 16.6495 7.67059 15.7083 8.65881 15.0459C9.64703 14.3835 10.8099 14.0298 11.9996 14.0298C13.1893 14.0298 14.3521 14.3835 15.3403 15.0459C16.3285 15.7083 17.0975 16.6495 17.5496 17.75C16.0606 19.1903 14.0711 19.9969 11.9996 20ZM9.99956 10C9.99956 9.60444 10.1169 9.21776 10.3366 8.88886C10.5564 8.55996 10.8687 8.30362 11.2342 8.15224C11.5996 8.00087 12.0018 7.96126 12.3897 8.03843C12.7777 8.1156 13.1341 8.30608 13.4138 8.58579C13.6935 8.86549 13.884 9.22186 13.9611 9.60982C14.0383 9.99778 13.9987 10.3999 13.8473 10.7654C13.6959 11.1308 13.4396 11.4432 13.1107 11.6629C12.7818 11.8827 12.3951 12 11.9996 12C11.4691 12 10.9604 11.7893 10.5853 11.4142C10.2103 11.0391 9.99956 10.5304 9.99956 10ZM18.9096 16C18.0161 14.4718 16.641 13.283 14.9996 12.62C15.5087 12.0427 15.8405 11.3307 15.955 10.5694C16.0696 9.80822 15.962 9.03011 15.6453 8.3285C15.3286 7.62688 14.8161 7.03156 14.1695 6.61397C13.5228 6.19637 12.7694 5.97425 11.9996 5.97425C11.2298 5.97425 10.4763 6.19637 9.82965 6.61397C9.18298 7.03156 8.67053 7.62688 8.35381 8.3285C8.03709 9.03011 7.92955 9.80822 8.04409 10.5694C8.15863 11.3307 8.49039 12.0427 8.99956 12.62C7.35816 13.283 5.98303 14.4718 5.08956 16C4.3775 14.7871 4.00128 13.4065 3.99956 12C3.99956 9.87827 4.84242 7.84344 6.34271 6.34315C7.843 4.84285 9.87783 4 11.9996 4C14.1213 4 16.1561 4.84285 17.6564 6.34315C19.1567 7.84344 19.9996 9.87827 19.9996 12C19.9978 13.4065 19.6216 14.7871 18.9096 16Z" />
</symbol><symbol viewBox="0 0 24 24" id="users-reader">
<path d="M20.1801 10.19C19.4608 10.0598 18.7311 9.99624 18.0001 10C17.5801 10 17.1701 10 16.7601 10.08C16.2497 9.39888 15.5982 8.83605 14.8501 8.43C15.4927 7.72825 15.8494 6.81148 15.8501 5.86C15.8501 4.83626 15.4435 3.85446 14.7196 3.13057C13.9957 2.40668 13.0139 2 11.9901 2C10.9664 2 9.98459 2.40668 9.2607 3.13057C8.53681 3.85446 8.13013 4.83626 8.13013 5.86C8.13087 6.81148 8.48759 7.72825 9.13013 8.43C8.38653 8.83816 7.73606 9.39668 7.22013 10.07C6.83013 10 6.42013 10 6.00013 10C5.26856 10.0028 4.5388 10.0731 3.82013 10.21C3.58718 10.2526 3.3769 10.3765 3.22673 10.5596C3.07657 10.7427 2.99627 10.9732 3.00013 11.21V19.46C2.99989 19.6069 3.03203 19.7521 3.09425 19.8852C3.15647 20.0182 3.24725 20.136 3.36013 20.23C3.4723 20.3246 3.60391 20.3933 3.74563 20.4313C3.88734 20.4694 4.03568 20.4757 4.18013 20.45C4.77854 20.3197 5.3879 20.246 6.00013 20.23C7.93723 20.2279 9.8323 20.7947 11.4501 21.86L11.5801 21.91C11.7128 21.9676 11.8555 21.9982 12.0001 22C12.0956 21.9988 12.1902 21.9819 12.2801 21.95H12.3501L12.4801 21.9C14.1134 20.8073 16.0351 20.2259 18.0001 20.23C18.6111 20.2328 19.2204 20.2931 19.8201 20.41C19.9646 20.4357 20.1129 20.4294 20.2546 20.3913C20.3964 20.3533 20.528 20.2846 20.6401 20.19C20.753 20.096 20.8438 19.9782 20.906 19.8452C20.9682 19.7121 21.0004 19.5669 21.0001 19.42V11.17C20.9993 10.9366 20.9168 10.7109 20.7671 10.5319C20.6173 10.353 20.4097 10.232 20.1801 10.19ZM12.0001 4C12.4686 4.03442 12.9067 4.2448 13.2264 4.58888C13.5461 4.93297 13.7238 5.38529 13.7238 5.855C13.7238 6.32471 13.5461 6.77703 13.2264 7.12112C12.9067 7.4652 12.4686 7.67558 12.0001 7.71C11.5317 7.67558 11.0936 7.4652 10.7739 7.12112C10.4541 6.77703 10.2764 6.32471 10.2764 5.855C10.2764 5.38529 10.4541 4.93297 10.7739 4.58888C11.0936 4.2448 11.5317 4.03442 12.0001 4ZM11.0001 19.33C9.43281 18.6055 7.7268 18.2302 6.00013 18.23C5.67013 18.23 5.34013 18.23 5.00013 18.28V12C5.8387 11.9062 6.68595 11.923 7.52013 12.05H7.63013C8.82173 12.269 9.96361 12.7027 11.0001 13.33V19.33ZM12.0001 11.6C11.5555 11.3435 11.0945 11.1163 10.6201 10.92H10.5601C10.2301 10.79 9.90013 10.66 9.56013 10.56C10.2544 10.0074 11.1128 9.70132 12.0001 9.69C12.8851 9.69561 13.7432 9.99455 14.4401 10.54C13.5912 10.805 12.7732 11.1604 12.0001 11.6ZM19.0001 18.28C16.9468 18.0737 14.8756 18.4189 13.0001 19.28V13.28C14.0385 12.6688 15.1811 12.2552 16.3701 12.06H16.5701C17.3741 11.9348 18.191 11.9146 19.0001 12V18.28Z" />
</symbol><symbol viewBox="0 0 24 24" id="users-remove-account">
<path d="M21 10.5H17C16.7348 10.5 16.4804 10.6054 16.2929 10.7929C16.1054 10.9804 16 11.2348 16 11.5C16 11.7652 16.1054 12.0196 16.2929 12.2071C16.4804 12.3946 16.7348 12.5 17 12.5H21C21.2652 12.5 21.5196 12.3946 21.7071 12.2071C21.8946 12.0196 22 11.7652 22 11.5C22 11.2348 21.8946 10.9804 21.7071 10.7929C21.5196 10.6054 21.2652 10.5 21 10.5ZM13.3 12.22C13.8336 11.7581 14.2616 11.1869 14.5549 10.545C14.8482 9.90316 15 9.20571 15 8.5C15 7.17392 14.4732 5.90215 13.5355 4.96447C12.5979 4.02678 11.3261 3.5 10 3.5C8.67392 3.5 7.40215 4.02678 6.46447 4.96447C5.52678 5.90215 5 7.17392 5 8.5C4.99999 9.20571 5.1518 9.90316 5.44513 10.545C5.73845 11.1869 6.16642 11.7581 6.7 12.22C5.30014 12.8539 4.11247 13.8775 3.27898 15.1685C2.4455 16.4596 2.00147 17.9633 2 19.5C2 19.7652 2.10536 20.0196 2.29289 20.2071C2.48043 20.3946 2.73478 20.5 3 20.5C3.26522 20.5 3.51957 20.3946 3.70711 20.2071C3.89464 20.0196 4 19.7652 4 19.5C4 17.9087 4.63214 16.3826 5.75736 15.2574C6.88258 14.1321 8.4087 13.5 10 13.5C11.5913 13.5 13.1174 14.1321 14.2426 15.2574C15.3679 16.3826 16 17.9087 16 19.5C16 19.7652 16.1054 20.0196 16.2929 20.2071C16.4804 20.3946 16.7348 20.5 17 20.5C17.2652 20.5 17.5196 20.3946 17.7071 20.2071C17.8946 20.0196 18 19.7652 18 19.5C17.9985 17.9633 17.5545 16.4596 16.721 15.1685C15.8875 13.8775 14.6999 12.8539 13.3 12.22ZM10 11.5C9.40666 11.5 8.82664 11.3241 8.33329 10.9944C7.83994 10.6648 7.45542 10.1962 7.22836 9.64805C7.0013 9.09987 6.94189 8.49667 7.05764 7.91473C7.1734 7.33279 7.45912 6.79824 7.87868 6.37868C8.29824 5.95912 8.83279 5.6734 9.41473 5.55764C9.99667 5.44189 10.5999 5.5013 11.1481 5.72836C11.6962 5.95542 12.1648 6.33994 12.4944 6.83329C12.8241 7.32664 13 7.90666 13 8.5C13 9.29565 12.6839 10.0587 12.1213 10.6213C11.5587 11.1839 10.7956 11.5 10 11.5Z" />
</symbol><symbol viewBox="0 0 24 24" id="users-user-location">
<path d="M14.4904 10.8599C14.8253 10.3989 15.0262 9.85423 15.0709 9.28614C15.1155 8.71805 15.0022 8.14867 14.7435 7.64094C14.4848 7.13321 14.0907 6.70692 13.6048 6.40919C13.119 6.11145 12.5602 5.95388 11.9904 5.95388C11.4205 5.95388 10.8618 6.11145 10.3759 6.40919C9.89002 6.70692 9.49594 7.13321 9.23721 7.64094C8.97849 8.14867 8.8652 8.71805 8.90988 9.28614C8.95456 9.85423 9.15546 10.3989 9.49037 10.8599C9.06554 11.1307 8.68732 11.4684 8.37037 11.8599C8.28764 11.967 8.22679 12.0892 8.19132 12.2198C8.15584 12.3503 8.14642 12.4866 8.1636 12.6208C8.18078 12.7549 8.22422 12.8844 8.29144 13.0018C8.35866 13.1192 8.44834 13.2222 8.55537 13.3049C8.6624 13.3877 8.78467 13.4485 8.91521 13.484C9.04575 13.5195 9.182 13.5289 9.31618 13.5117C9.45037 13.4945 9.57985 13.4511 9.69724 13.3839C9.81463 13.3167 9.91764 13.227 10.0004 13.1199C10.2446 12.8095 10.5558 12.5583 10.9108 12.3852C11.2658 12.212 11.6554 12.1213 12.0504 12.1199C12.4453 12.1213 12.8349 12.212 13.1899 12.3852C13.5449 12.5583 13.8561 12.8095 14.1004 13.1199C14.1945 13.236 14.3134 13.3294 14.4484 13.3935C14.5834 13.4575 14.731 13.4905 14.8804 13.4899C15.0678 13.4891 15.2513 13.4355 15.4098 13.3354C15.5683 13.2353 15.6955 13.0927 15.7768 12.9238C15.8581 12.7549 15.8903 12.5665 15.8697 12.3802C15.8491 12.1938 15.7766 12.017 15.6604 11.8699C15.3292 11.4706 14.9338 11.1293 14.4904 10.8599ZM12.0004 10.1299C11.7865 10.1298 11.5774 10.0668 11.3992 9.94866C11.2209 9.83056 11.0813 9.66264 10.9977 9.46578C10.9142 9.26893 10.8904 9.05185 10.9293 8.84158C10.9682 8.6313 11.0681 8.43712 11.2166 8.28321C11.3651 8.12929 11.5555 8.02245 11.7643 7.97599C11.973 7.92952 12.1908 7.94548 12.3905 8.02188C12.5903 8.09828 12.7631 8.23174 12.8875 8.40565C13.012 8.57957 13.0825 8.78624 13.0904 8.99994C13.0957 9.14641 13.0715 9.29247 13.0192 9.42936C12.9668 9.56626 12.8874 9.69119 12.7856 9.79668C12.6839 9.90217 12.5619 9.98606 12.4269 10.0433C12.292 10.1006 12.1469 10.13 12.0004 10.1299ZM20.4604 9.62994C20.32 8.16886 19.8036 6.76903 18.9616 5.56676C18.1195 4.3645 16.9805 3.40077 15.6554 2.76944C14.3303 2.1381 12.8642 1.86066 11.4001 1.96415C9.93592 2.06763 8.5235 2.5485 7.30037 3.35994C6.24957 4.06259 5.36742 4.98924 4.71731 6.07333C4.0672 7.15743 3.66526 8.37205 3.54037 9.62994C3.41785 10.8796 3.57504 12.1409 4.00054 13.3222C4.42604 14.5036 5.10917 15.5754 6.00037 16.4599L11.3004 21.7699C11.3933 21.8637 11.5039 21.9381 11.6258 21.9888C11.7477 22.0396 11.8784 22.0657 12.0104 22.0657C12.1424 22.0657 12.2731 22.0396 12.3949 21.9888C12.5168 21.9381 12.6274 21.8637 12.7204 21.7699L18.0004 16.4599C18.8916 15.5754 19.5747 14.5036 20.0002 13.3222C20.4257 12.1409 20.5829 10.8796 20.4604 9.62994ZM16.6004 15.0499L12.0004 19.6499L7.40037 15.0499C6.72246 14.372 6.20317 13.5523 5.87984 12.6497C5.5565 11.7471 5.43715 10.7841 5.53037 9.82994C5.62419 8.86105 5.93213 7.9251 6.43194 7.08979C6.93175 6.25447 7.61093 5.54065 8.42037 4.99994C9.48131 4.29518 10.7267 3.91924 12.0004 3.91924C13.2741 3.91924 14.5194 4.29518 15.5804 4.99994C16.3874 5.53856 17.065 6.24922 17.5647 7.08088C18.0644 7.91254 18.3737 8.84454 18.4704 9.80994C18.5666 10.7674 18.4488 11.7342 18.1254 12.6405C17.8019 13.5468 17.281 14.3698 16.6004 15.0499Z" />
</symbol><symbol viewBox="0 0 24 24" id="users-users">
<path d="M12.3 12.22C12.8336 11.7581 13.2616 11.1869 13.5549 10.545C13.8482 9.90316 14 9.20571 14 8.5C14 7.17392 13.4732 5.90215 12.5355 4.96447C11.5979 4.02678 10.3261 3.5 9 3.5C7.67392 3.5 6.40215 4.02678 5.46447 4.96447C4.52678 5.90215 4 7.17392 4 8.5C3.99999 9.20571 4.1518 9.90316 4.44513 10.545C4.73845 11.1869 5.16642 11.7581 5.7 12.22C4.30014 12.8539 3.11247 13.8775 2.27898 15.1685C1.4455 16.4596 1.00147 17.9633 1 19.5C1 19.7652 1.10536 20.0196 1.29289 20.2071C1.48043 20.3946 1.73478 20.5 2 20.5C2.26522 20.5 2.51957 20.3946 2.70711 20.2071C2.89464 20.0196 3 19.7652 3 19.5C3 17.9087 3.63214 16.3826 4.75736 15.2574C5.88258 14.1321 7.4087 13.5 9 13.5C10.5913 13.5 12.1174 14.1321 13.2426 15.2574C14.3679 16.3826 15 17.9087 15 19.5C15 19.7652 15.1054 20.0196 15.2929 20.2071C15.4804 20.3946 15.7348 20.5 16 20.5C16.2652 20.5 16.5196 20.3946 16.7071 20.2071C16.8946 20.0196 17 19.7652 17 19.5C16.9985 17.9633 16.5545 16.4596 15.721 15.1685C14.8875 13.8775 13.6999 12.8539 12.3 12.22ZM9 11.5C8.40666 11.5 7.82664 11.3241 7.33329 10.9944C6.83994 10.6648 6.45542 10.1962 6.22836 9.64805C6.0013 9.09987 5.94189 8.49667 6.05764 7.91473C6.1734 7.33279 6.45912 6.79824 6.87868 6.37868C7.29824 5.95912 7.83279 5.6734 8.41473 5.55764C8.99667 5.44189 9.59987 5.5013 10.1481 5.72836C10.6962 5.95542 11.1648 6.33994 11.4944 6.83329C11.8241 7.32664 12 7.90666 12 8.5C12 9.29565 11.6839 10.0587 11.1213 10.6213C10.5587 11.1839 9.79565 11.5 9 11.5ZM18.74 11.82C19.38 11.0993 19.798 10.2091 19.9438 9.25634C20.0896 8.30362 19.9569 7.32907 19.5618 6.45C19.1666 5.57093 18.5258 4.8248 17.7165 4.30142C16.9071 3.77805 15.9638 3.49974 15 3.5C14.7348 3.5 14.4804 3.60536 14.2929 3.79289C14.1054 3.98043 14 4.23478 14 4.5C14 4.76522 14.1054 5.01957 14.2929 5.20711C14.4804 5.39464 14.7348 5.5 15 5.5C15.7956 5.5 16.5587 5.81607 17.1213 6.37868C17.6839 6.94129 18 7.70435 18 8.5C17.9986 9.02524 17.8593 9.5409 17.5961 9.99542C17.3328 10.4499 16.9549 10.8274 16.5 11.09C16.3517 11.1755 16.2279 11.2977 16.1404 11.4447C16.0528 11.5918 16.0045 11.7589 16 11.93C15.9958 12.0998 16.0349 12.2678 16.1137 12.4183C16.1924 12.5687 16.3081 12.6967 16.45 12.79L16.84 13.05L16.97 13.12C18.1754 13.6917 19.1923 14.596 19.901 15.7263C20.6096 16.8566 20.9805 18.1659 20.97 19.5C20.97 19.7652 21.0754 20.0196 21.2629 20.2071C21.4504 20.3946 21.7048 20.5 21.97 20.5C22.2352 20.5 22.4896 20.3946 22.6771 20.2071C22.8646 20.0196 22.97 19.7652 22.97 19.5C22.9782 17.9654 22.5938 16.4543 21.8535 15.1101C21.1131 13.7659 20.0413 12.6333 18.74 11.82Z" />
</symbol></defs></svg>