<svg xmlns="http://www.w3.org/2000/svg" xmlns:xlink="http://www.w3.org/1999/xlink"><defs><symbol viewBox="0 0 24 24" id="location-andmaps-add location">
<path d="M13.9996 9.45002H12.9996V8.45002C12.9996 8.1848 12.8942 7.93045 12.7067 7.74291C12.5192 7.55537 12.2648 7.45002 11.9996 7.45002C11.7344 7.45002 11.48 7.55537 11.2925 7.74291C11.1049 7.93045 10.9996 8.1848 10.9996 8.45002V9.45002H9.99959C9.73437 9.45002 9.48002 9.55537 9.29248 9.74291C9.10495 9.93045 8.99959 10.1848 8.99959 10.45C8.99959 10.7152 9.10495 10.9696 9.29248 11.1571C9.48002 11.3447 9.73437 11.45 9.99959 11.45H10.9996V12.45C10.9996 12.7152 11.1049 12.9696 11.2925 13.1571C11.48 13.3447 11.7344 13.45 11.9996 13.45C12.2648 13.45 12.5192 13.3447 12.7067 13.1571C12.8942 12.9696 12.9996 12.7152 12.9996 12.45V11.45H13.9996C14.2648 11.45 14.5192 11.3447 14.7067 11.1571C14.8942 10.9696 14.9996 10.7152 14.9996 10.45C14.9996 10.1848 14.8942 9.93045 14.7067 9.74291C14.5192 9.55537 14.2648 9.45002 13.9996 9.45002ZM20.4596 9.63002C20.3299 8.27185 19.8753 6.96484 19.134 5.81944C18.3927 4.67404 17.3866 3.72391 16.2007 3.04934C15.0148 2.37477 13.6839 1.99557 12.3206 1.9438C10.9572 1.89204 9.60142 2.16921 8.36777 2.75191C7.13412 3.33461 6.05886 4.20571 5.23286 5.2916C4.40685 6.37748 3.85438 7.64625 3.62212 8.99068C3.38986 10.3351 3.48464 11.7157 3.89845 13.0158C4.31226 14.3158 5.03294 15.4972 5.99959 16.46L11.2996 21.77C11.3926 21.8637 11.5032 21.9381 11.625 21.9889C11.7469 22.0397 11.8776 22.0658 12.0096 22.0658C12.1416 22.0658 12.2723 22.0397 12.3942 21.9889C12.516 21.9381 12.6266 21.8637 12.7196 21.77L17.9996 16.46C18.8908 15.5755 19.5739 14.5036 19.9994 13.3223C20.4249 12.1409 20.5821 10.8797 20.4596 9.63002ZM16.5996 15.05L11.9996 19.65L7.39959 15.05C6.72168 14.3721 6.20239 13.5523 5.87906 12.6498C5.55572 11.7472 5.43637 10.7842 5.52959 9.83002C5.62341 8.86112 5.93135 7.92518 6.43116 7.08986C6.93097 6.25454 7.61015 5.54072 8.41959 5.00002C9.48053 4.29525 10.7259 3.91931 11.9996 3.91931C13.2733 3.91931 14.5186 4.29525 15.5796 5.00002C16.3866 5.53863 17.0643 6.2493 17.5639 7.08095C18.0636 7.91261 18.3729 8.84462 18.4696 9.81002C18.5658 10.7674 18.448 11.7343 18.1246 12.6406C17.8012 13.5468 17.2803 14.3698 16.5996 15.05Z" />
</symbol><symbol viewBox="0 0 24 24" id="location-andmaps-direction board">
<path d="M7 6V11C7 11.2652 7.10536 11.5196 7.29289 11.7071C7.48043 11.8946 7.73478 12 8 12H11V20H9C8.73478 20 8.48043 20.1054 8.29289 20.2929C8.10536 20.4804 8 20.7348 8 21C8 21.2652 8.10536 21.5196 8.29289 21.7071C8.48043 21.8946 8.73478 22 9 22H15C15.2652 22 15.5196 21.8946 15.7071 21.7071C15.8946 21.5196 16 21.2652 16 21C16 20.7348 15.8946 20.4804 15.7071 20.2929C15.5196 20.1054 15.2652 20 15 20H13V12H18C18.1494 12.0005 18.297 11.9675 18.432 11.9035C18.567 11.8395 18.6859 11.746 18.78 11.63L20.78 9.13C20.922 8.95264 20.9994 8.73221 20.9994 8.505C20.9994 8.27779 20.922 8.05736 20.78 7.88L18.78 5.38C18.6869 5.26215 18.5684 5.16679 18.4334 5.101C18.2983 5.03521 18.1502 5.00069 18 5H13V3C13 2.73478 12.8946 2.48043 12.7071 2.29289C12.5196 2.10536 12.2652 2 12 2C11.7348 2 11.4804 2.10536 11.2929 2.29289C11.1054 2.48043 11 2.73478 11 3V5H8C7.73478 5 7.48043 5.10536 7.29289 5.29289C7.10536 5.48043 7 5.73478 7 6ZM9 7H17.52L18.72 8.5L17.52 10H9V7Z" />
</symbol><symbol viewBox="0 0 24 24" id="location-andmaps-direction board-1">
<path d="M16.0003 5H13.0003V3C13.0003 2.73478 12.8949 2.48043 12.7074 2.29289C12.5199 2.10536 12.2655 2 12.0003 2C11.7351 2 11.4807 2.10536 11.2932 2.29289C11.1056 2.48043 11.0003 2.73478 11.0003 3V5H6.00028C5.85008 5.00069 5.70196 5.03521 5.56692 5.101C5.43189 5.16679 5.31341 5.26215 5.22028 5.38L3.22028 7.88C3.08077 8.05655 3.00488 8.27499 3.00488 8.5C3.00488 8.72501 3.08077 8.94345 3.22028 9.12L5.22028 11.62C5.31341 11.7379 5.43189 11.8332 5.56692 11.899C5.70196 11.9648 5.85008 11.9993 6.00028 12H11.0003V20H9.00028C8.73506 20 8.48071 20.1054 8.29317 20.2929C8.10564 20.4804 8.00028 20.7348 8.00028 21C8.00028 21.2652 8.10564 21.5196 8.29317 21.7071C8.48071 21.8946 8.73506 22 9.00028 22H15.0003C15.2655 22 15.5199 21.8946 15.7074 21.7071C15.8949 21.5196 16.0003 21.2652 16.0003 21C16.0003 20.7348 15.8949 20.4804 15.7074 20.2929C15.5199 20.1054 15.2655 20 15.0003 20H13.0003V12H16.0003C16.2655 12 16.5199 11.8946 16.7074 11.7071C16.8949 11.5196 17.0003 11.2652 17.0003 11V6C17.0003 5.73478 16.8949 5.48043 16.7074 5.29289C16.5199 5.10536 16.2655 5 16.0003 5ZM15.0003 10H6.48028L5.28028 8.5L6.48028 7H15.0003V10Z" />
</symbol><symbol viewBox="0 0 24 24" id="location-andmaps-direction board-2">
<path d="M21.7803 11.88L19.7803 9.38C19.6872 9.26215 19.5687 9.16679 19.4336 9.101C19.2986 9.03521 19.1505 9.00069 19.0003 9H13.0003V3C13.0003 2.73478 12.8949 2.48043 12.7074 2.29289C12.5199 2.10536 12.2655 2 12.0003 2C11.7351 2 11.4807 2.10536 11.2932 2.29289C11.1056 2.48043 11.0003 2.73478 11.0003 3V4H5.00028C4.85008 4.00069 4.70196 4.03521 4.56692 4.101C4.43189 4.16679 4.31341 4.26215 4.22028 4.38L2.22028 6.88C2.08077 7.05655 2.00488 7.27499 2.00488 7.5C2.00488 7.72501 2.08077 7.94345 2.22028 8.12L4.22028 10.62C4.31341 10.7379 4.43189 10.8332 4.56692 10.899C4.70196 10.9648 4.85008 10.9993 5.00028 11H11.0003V20H9.00028C8.73506 20 8.48071 20.1054 8.29317 20.2929C8.10564 20.4804 8.00028 20.7348 8.00028 21C8.00028 21.2652 8.10564 21.5196 8.29317 21.7071C8.48071 21.8946 8.73506 22 9.00028 22H15.0003C15.2655 22 15.5199 21.8946 15.7074 21.7071C15.8949 21.5196 16.0003 21.2652 16.0003 21C16.0003 20.7348 15.8949 20.4804 15.7074 20.2929C15.5199 20.1054 15.2655 20 15.0003 20H13.0003V16H19.0003C19.1505 15.9993 19.2986 15.9648 19.4336 15.899C19.5687 15.8332 19.6872 15.7379 19.7803 15.62L21.7803 13.12C21.9198 12.9435 21.9957 12.725 21.9957 12.5C21.9957 12.275 21.9198 12.0565 21.7803 11.88ZM11.0003 9H5.48028L4.28028 7.5L5.48028 6H11.0003V9ZM18.5203 14H13.0003V11H18.5203L19.7203 12.5L18.5203 14Z" />
</symbol><symbol viewBox="0 0 24 24" id="location-andmaps-direction tool">
<path d="M12 2C10.0222 2 8.08879 2.58649 6.4443 3.6853C4.79981 4.78412 3.51809 6.3459 2.76121 8.17317C2.00433 10.0004 1.8063 12.0111 2.19215 13.9509C2.578 15.8907 3.53041 17.6725 4.92894 19.0711C6.32746 20.4696 8.10929 21.422 10.0491 21.8079C11.9889 22.1937 13.9996 21.9957 15.8268 21.2388C17.6541 20.4819 19.2159 19.2002 20.3147 17.5557C21.4135 15.9112 22 13.9778 22 12C22 10.6868 21.7413 9.38642 21.2388 8.17317C20.7363 6.95991 19.9997 5.85752 19.0711 4.92893C18.1425 4.00035 17.0401 3.26375 15.8268 2.7612C14.6136 2.25866 13.3132 2 12 2ZM13 19.93V19C13 18.7348 12.8946 18.4804 12.7071 18.2929C12.5196 18.1054 12.2652 18 12 18C11.7348 18 11.4804 18.1054 11.2929 18.2929C11.1054 18.4804 11 18.7348 11 19V19.93C9.23998 19.7068 7.60408 18.9049 6.34959 17.6504C5.0951 16.3959 4.2932 14.76 4.07 13H5C5.26522 13 5.51957 12.8946 5.70711 12.7071C5.89465 12.5196 6 12.2652 6 12C6 11.7348 5.89465 11.4804 5.70711 11.2929C5.51957 11.1054 5.26522 11 5 11H4.07C4.2932 9.23998 5.0951 7.60408 6.34959 6.34959C7.60408 5.0951 9.23998 4.29319 11 4.07V5C11 5.26522 11.1054 5.51957 11.2929 5.70711C11.4804 5.89464 11.7348 6 12 6C12.2652 6 12.5196 5.89464 12.7071 5.70711C12.8946 5.51957 13 5.26522 13 5V4.07C14.76 4.29319 16.3959 5.0951 17.6504 6.34959C18.9049 7.60408 19.7068 9.23998 19.93 11H19C18.7348 11 18.4804 11.1054 18.2929 11.2929C18.1054 11.4804 18 11.7348 18 12C18 12.2652 18.1054 12.5196 18.2929 12.7071C18.4804 12.8946 18.7348 13 19 13H19.93C19.7068 14.76 18.9049 16.3959 17.6504 17.6504C16.3959 18.9049 14.76 19.7068 13 19.93ZM15.14 7.55L10.14 9.67C9.90692 9.77099 9.721 9.95691 9.62 10.19L7.5 15.19C7.42125 15.3734 7.39916 15.5761 7.43658 15.7722C7.47401 15.9682 7.56923 16.1485 7.71 16.29C7.89463 16.4784 8.14623 16.5862 8.41 16.59C8.54837 16.5901 8.68503 16.5594 8.81 16.5L13.81 14.38C14.0431 14.279 14.229 14.0931 14.33 13.86L16.45 8.86C16.5273 8.67676 16.5482 8.47463 16.51 8.27946C16.4718 8.08429 16.3763 7.90493 16.2357 7.7643C16.0951 7.62368 15.9157 7.52818 15.7205 7.49001C15.5254 7.45183 15.3232 7.47272 15.14 7.55ZM12.65 12.65L10.37 13.65L11.37 11.37L13.65 10.37L12.65 12.65Z" />
</symbol><symbol viewBox="0 0 24 24" id="location-andmaps-edit location">
<path d="M20.4596 9.63002C20.3299 8.27185 19.8753 6.96484 19.134 5.81944C18.3927 4.67404 17.3866 3.72391 16.2007 3.04934C15.0148 2.37477 13.6839 1.99557 12.3206 1.9438C10.9572 1.89204 9.60142 2.16921 8.36777 2.75191C7.13412 3.33461 6.05886 4.20571 5.23286 5.2916C4.40685 6.37748 3.85438 7.64625 3.62212 8.99068C3.38986 10.3351 3.48464 11.7157 3.89845 13.0158C4.31226 14.3158 5.03294 15.4972 5.99959 16.46L11.2996 21.77C11.3926 21.8637 11.5032 21.9381 11.625 21.9889C11.7469 22.0397 11.8776 22.0658 12.0096 22.0658C12.1416 22.0658 12.2723 22.0397 12.3942 21.9889C12.516 21.9381 12.6266 21.8637 12.7196 21.77L17.9996 16.46C18.8908 15.5755 19.5739 14.5036 19.9994 13.3223C20.4249 12.1409 20.5821 10.8797 20.4596 9.63002ZM16.5996 15.05L11.9996 19.65L7.39959 15.05C6.72168 14.3721 6.20239 13.5523 5.87906 12.6498C5.55572 11.7472 5.43637 10.7842 5.52959 9.83002C5.62341 8.86112 5.93135 7.92518 6.43116 7.08986C6.93097 6.25454 7.61015 5.54072 8.41959 5.00002C9.48053 4.29525 10.7259 3.91931 11.9996 3.91931C13.2733 3.91931 14.5186 4.29525 15.5796 5.00002C16.3866 5.53863 17.0643 6.2493 17.5639 7.08095C18.0636 7.91261 18.3729 8.84462 18.4696 9.81002C18.5658 10.7674 18.448 11.7343 18.1246 12.6406C17.8012 13.5468 17.2803 14.3698 16.5996 15.05ZM13.7896 6.25002C13.6966 6.15629 13.586 6.08189 13.4642 6.03112C13.3423 5.98036 13.2116 5.95422 13.0796 5.95422C12.9476 5.95422 12.8169 5.98036 12.695 6.03112C12.5732 6.08189 12.4626 6.15629 12.3696 6.25002L8.78959 9.83002C8.60484 10.0163 8.50069 10.2677 8.49959 10.53V13C8.49959 13.2652 8.60495 13.5196 8.79248 13.7071C8.98002 13.8947 9.23437 14 9.49959 14H11.9196C12.0512 14.0008 12.1817 13.9756 12.3035 13.9258C12.4253 13.876 12.5361 13.8027 12.6296 13.71L16.2096 10.13C16.3958 9.94265 16.5004 9.6892 16.5004 9.42502C16.5004 9.16083 16.3958 8.90738 16.2096 8.72002L13.7896 6.25002ZM11.5096 12H10.5096V11L13.0896 8.42002L14.0896 9.42002L11.5096 12Z" />
</symbol><symbol viewBox="0 0 24 24" id="location-andmaps-help location">
<path d="M12.4404 13.11L12.2704 13C12.0873 12.9247 11.886 12.9054 11.692 12.9445C11.4979 12.9837 11.3199 13.0796 11.1804 13.22C11.0839 13.3088 11.0087 13.4181 10.9604 13.54C10.9078 13.6633 10.8806 13.796 10.8804 13.93C10.8819 14.0607 10.9091 14.1898 10.9604 14.31C11.0678 14.5503 11.2601 14.7426 11.5004 14.85C11.6206 14.9013 11.7497 14.9284 11.8804 14.93C12.0142 14.9275 12.1464 14.9004 12.2704 14.85C12.3904 14.7983 12.4991 14.7236 12.5904 14.63C12.7766 14.4427 12.8812 14.1892 12.8812 13.925C12.8812 13.6608 12.7766 13.4074 12.5904 13.22L12.4404 13.11ZM11.8804 6.00002C11.4032 5.99465 10.9329 6.11353 10.5156 6.34496C10.0983 6.5764 9.74847 6.91243 9.50037 7.32002C9.42802 7.43384 9.37943 7.56112 9.35754 7.6942C9.33565 7.82728 9.34091 7.96341 9.373 8.09441C9.40509 8.2254 9.46334 8.34856 9.54425 8.45646C9.62517 8.56435 9.72708 8.65477 9.84384 8.72227C9.96061 8.78976 10.0898 8.83294 10.2237 8.8492C10.3576 8.86546 10.4934 8.85448 10.6229 8.8169C10.7524 8.77932 10.873 8.71593 10.9774 8.63054C11.0818 8.54515 11.1679 8.43953 11.2304 8.32002C11.3041 8.21745 11.402 8.1346 11.5154 8.0788C11.6287 8.02299 11.7541 7.99594 11.8804 8.00002C12.0793 8.00002 12.27 8.07904 12.4107 8.21969C12.5514 8.36034 12.6304 8.55111 12.6304 8.75002C12.6304 8.94893 12.5514 9.1397 12.4107 9.28035C12.27 9.421 12.0793 9.50002 11.8804 9.50002C11.6152 9.50002 11.3608 9.60538 11.1733 9.79291C10.9857 9.98045 10.8804 10.2348 10.8804 10.5C10.8804 10.7652 10.9857 11.0196 11.1733 11.2071C11.3608 11.3947 11.6152 11.5 11.8804 11.5C12.6097 11.5 13.3092 11.2103 13.8249 10.6946C14.3406 10.1788 14.6304 9.47937 14.6304 8.75002C14.6304 8.02068 14.3406 7.3212 13.8249 6.80548C13.3092 6.28975 12.6097 6.00002 11.8804 6.00002ZM20.4604 9.68002C20.3278 8.21463 19.8171 6.80875 18.9782 5.59993C18.1393 4.39111 17.001 3.42074 15.6747 2.78377C14.3483 2.14679 12.8793 1.86503 11.4114 1.96604C9.94352 2.06705 8.52697 2.54737 7.30037 3.36002C6.24957 4.06267 5.36742 4.98932 4.71731 6.07341C4.0672 7.1575 3.66526 8.37213 3.54037 9.63002C3.41785 10.8797 3.57504 12.1409 4.00054 13.3223C4.42604 14.5037 5.10917 15.5755 6.00037 16.46L11.3004 21.77C11.3933 21.8638 11.5039 21.9381 11.6258 21.9889C11.7477 22.0397 11.8784 22.0658 12.0104 22.0658C12.1424 22.0658 12.2731 22.0397 12.3949 21.9889C12.5168 21.9381 12.6274 21.8638 12.7204 21.77L18.0004 16.46C18.8916 15.5755 19.5747 14.5037 20.0002 13.3223C20.4257 12.1409 20.5829 10.8797 20.4604 9.63002V9.68002ZM16.6004 15.05L12.0004 19.65L7.40037 15.05C6.72246 14.3721 6.20317 13.5524 5.87984 12.6498C5.5565 11.7472 5.43715 10.7842 5.53037 9.83002C5.62419 8.86112 5.93213 7.92518 6.43194 7.08986C6.93175 6.25455 7.61093 5.54073 8.42037 5.00002C9.48131 4.29526 10.7267 3.91932 12.0004 3.91932C13.2741 3.91932 14.5194 4.29526 15.5804 5.00002C16.3874 5.53864 17.065 6.2493 17.5647 7.08096C18.0644 7.91262 18.3737 8.84462 18.4704 9.81002C18.5666 10.7674 18.4488 11.7343 18.1254 12.6406C17.8019 13.5468 17.281 14.3699 16.6004 15.05Z" />
</symbol><symbol viewBox="0 0 24 24" id="location-andmaps-location">
<path d="M12 2C9.87827 2 7.84344 2.84285 6.34315 4.34315C4.84285 5.84344 4 7.87827 4 10C4 15.4 11.05 21.5 11.35 21.76C11.5311 21.9149 11.7616 22.0001 12 22.0001C12.2384 22.0001 12.4689 21.9149 12.65 21.76C13 21.5 20 15.4 20 10C20 7.87827 19.1571 5.84344 17.6569 4.34315C16.1566 2.84285 14.1217 2 12 2ZM12 19.65C9.87 17.65 6 13.34 6 10C6 8.4087 6.63214 6.88258 7.75736 5.75736C8.88258 4.63214 10.4087 4 12 4C13.5913 4 15.1174 4.63214 16.2426 5.75736C17.3679 6.88258 18 8.4087 18 10C18 13.34 14.13 17.66 12 19.65ZM12 6C11.2089 6 10.4355 6.2346 9.77772 6.67412C9.11992 7.11365 8.60723 7.73836 8.30448 8.46927C8.00173 9.20017 7.92252 10.0044 8.07686 10.7804C8.2312 11.5563 8.61216 12.269 9.17157 12.8284C9.73098 13.3878 10.4437 13.7688 11.2196 13.9231C11.9956 14.0775 12.7998 13.9983 13.5307 13.6955C14.2616 13.3928 14.8864 12.8801 15.3259 12.2223C15.7654 11.5645 16 10.7911 16 10C16 8.93913 15.5786 7.92172 14.8284 7.17157C14.0783 6.42143 13.0609 6 12 6ZM12 12C11.6044 12 11.2178 11.8827 10.8889 11.6629C10.56 11.4432 10.3036 11.1308 10.1522 10.7654C10.0009 10.3999 9.96126 9.99778 10.0384 9.60982C10.1156 9.22186 10.3061 8.86549 10.5858 8.58579C10.8655 8.30608 11.2219 8.1156 11.6098 8.03843C11.9978 7.96126 12.3999 8.00087 12.7654 8.15224C13.1308 8.30362 13.4432 8.55996 13.6629 8.88886C13.8827 9.21776 14 9.60444 14 10C14 10.5304 13.7893 11.0391 13.4142 11.4142C13.0391 11.7893 12.5304 12 12 12Z" />
</symbol><symbol viewBox="0 0 24 24" id="location-andmaps-location info">
<path d="M12.0004 10C11.7352 10 11.4808 10.1054 11.2933 10.2929C11.1057 10.4805 11.0004 10.7348 11.0004 11V13C11.0004 13.2652 11.1057 13.5196 11.2933 13.7071C11.4808 13.8947 11.7352 14 12.0004 14C12.2656 14 12.5199 13.8947 12.7075 13.7071C12.895 13.5196 13.0004 13.2652 13.0004 13V11C13.0004 10.7348 12.895 10.4805 12.7075 10.2929C12.5199 10.1054 12.2656 10 12.0004 10ZM20.4604 9.68002C20.3278 8.21463 19.8171 6.80875 18.9782 5.59993C18.1393 4.39111 17.001 3.42074 15.6747 2.78377C14.3483 2.14679 12.8793 1.86503 11.4114 1.96604C9.94352 2.06705 8.52697 2.54737 7.30037 3.36002C6.24957 4.06267 5.36742 4.98932 4.71731 6.07341C4.0672 7.1575 3.66526 8.37213 3.54037 9.63002C3.41785 10.8797 3.57504 12.1409 4.00054 13.3223C4.42604 14.5037 5.10917 15.5755 6.00037 16.46L11.3004 21.77C11.3933 21.8638 11.5039 21.9381 11.6258 21.9889C11.7477 22.0397 11.8784 22.0658 12.0104 22.0658C12.1424 22.0658 12.2731 22.0397 12.3949 21.9889C12.5168 21.9381 12.6274 21.8638 12.7204 21.77L18.0004 16.46C18.8916 15.5755 19.5747 14.5037 20.0002 13.3223C20.4257 12.1409 20.5829 10.8797 20.4604 9.63002V9.68002ZM16.6004 15.05L12.0004 19.65L7.40037 15.05C6.72246 14.3721 6.20317 13.5524 5.87984 12.6498C5.5565 11.7472 5.43715 10.7842 5.53037 9.83002C5.62419 8.86112 5.93213 7.92518 6.43194 7.08986C6.93175 6.25455 7.61093 5.54073 8.42037 5.00002C9.48131 4.29526 10.7267 3.91932 12.0004 3.91932C13.2741 3.91932 14.5194 4.29526 15.5804 5.00002C16.3874 5.53864 17.065 6.2493 17.5647 7.08096C18.0644 7.91262 18.3737 8.84462 18.4704 9.81002C18.5666 10.7674 18.4488 11.7343 18.1254 12.6406C17.8019 13.5468 17.281 14.3699 16.6004 15.05ZM12.9204 7.57002C12.9004 7.50859 12.8699 7.45107 12.8304 7.40002L12.7104 7.25002C12.591 7.13666 12.4455 7.05453 12.2867 7.01092C12.128 6.96731 11.9609 6.96357 11.8004 7.00002H11.6204L11.4404 7.09002L11.2904 7.22002L11.1704 7.37002C11.1308 7.42107 11.1003 7.47859 11.0804 7.54002C11.0499 7.59957 11.0296 7.66379 11.0204 7.73002C11.0038 7.81901 10.9971 7.90956 11.0004 8.00002C10.9969 8.13443 11.0243 8.26784 11.0804 8.39002C11.1313 8.50804 11.2024 8.61632 11.2904 8.71002C11.3855 8.80346 11.4975 8.8781 11.6204 8.93002C11.8652 9.02302 12.1356 9.02302 12.3804 8.93002C12.5019 8.87566 12.6135 8.8013 12.7104 8.71002C12.7984 8.61632 12.8694 8.50804 12.9204 8.39002C12.9729 8.2667 13.0001 8.13407 13.0004 8.00002C13.0053 7.93678 13.0053 7.87326 13.0004 7.81002C12.9911 7.72524 12.9638 7.64343 12.9204 7.57002Z" />
</symbol><symbol viewBox="0 0 24 24" id="location-andmaps-location pin">
<path d="M16.37 12.79C16.2479 12.7414 16.1174 12.7173 15.9859 12.7192C15.8545 12.721 15.7247 12.7487 15.604 12.8007C15.4833 12.8527 15.374 12.928 15.2824 13.0223C15.1908 13.1165 15.1186 13.2279 15.07 13.35C15.0214 13.4721 14.9974 13.6026 14.9992 13.734C15.001 13.8655 15.0288 13.9952 15.0808 14.116C15.1328 14.2367 15.208 14.346 15.3023 14.4376C15.3965 14.5292 15.5079 14.6014 15.63 14.65C17.09 15.23 18 16.13 18 17C18 18.42 15.54 20 12 20C8.46 20 6 18.42 6 17C6 16.13 6.91 15.23 8.37 14.65C8.61665 14.5519 8.81422 14.3598 8.91924 14.116C9.02426 13.8722 9.02813 13.5966 8.93 13.35C8.83187 13.1033 8.63978 12.9058 8.39598 12.8007C8.15218 12.6957 7.87665 12.6919 7.63 12.79C5.36 13.69 4 15.26 4 17C4 19.8 7.51 22 12 22C16.49 22 20 19.8 20 17C20 15.26 18.64 13.69 16.37 12.79ZM11 9.85998V17C11 17.2652 11.1054 17.5196 11.2929 17.7071C11.4804 17.8946 11.7348 18 12 18C12.2652 18 12.5196 17.8946 12.7071 17.7071C12.8946 17.5196 13 17.2652 13 17V9.85998C13.9427 9.61659 14.7642 9.03775 15.3106 8.23198C15.857 7.4262 16.0908 6.4488 15.9681 5.48298C15.8454 4.51717 15.3747 3.62925 14.6442 2.98566C13.9137 2.34207 12.9736 1.987 12 1.987C11.0264 1.987 10.0863 2.34207 9.35577 2.98566C8.62526 3.62925 8.15456 4.51717 8.03188 5.48298C7.90921 6.4488 8.14299 7.4262 8.6894 8.23198C9.23581 9.03775 10.0573 9.61659 11 9.85998ZM12 3.99998C12.3956 3.99998 12.7822 4.11728 13.1111 4.33704C13.44 4.55681 13.6964 4.86916 13.8478 5.23462C13.9991 5.60007 14.0387 6.0022 13.9616 6.39016C13.8844 6.77813 13.6939 7.13449 13.4142 7.4142C13.1345 7.6939 12.7781 7.88438 12.3902 7.96155C12.0022 8.03872 11.6001 7.99912 11.2346 7.84774C10.8692 7.69637 10.5568 7.44002 10.3371 7.11112C10.1173 6.78222 10 6.39555 10 5.99998C10 5.46955 10.2107 4.96084 10.5858 4.58577C10.9609 4.2107 11.4696 3.99998 12 3.99998Z" />
</symbol><symbol viewBox="0 0 24 24" id="location-andmaps-location pin-1">
<path d="M11 11.9V17C11 17.2652 11.1054 17.5196 11.2929 17.7071C11.4804 17.8947 11.7348 18 12 18C12.2652 18 12.5196 17.8947 12.7071 17.7071C12.8946 17.5196 13 17.2652 13 17V11.9C14.214 11.6522 15.2928 10.9624 16.0272 9.96443C16.7616 8.96643 17.0992 7.7313 16.9747 6.49849C16.8501 5.26569 16.2723 4.12304 15.3532 3.29208C14.434 2.46112 13.2391 2.00104 12 2.00104C10.7609 2.00104 9.56598 2.46112 8.64685 3.29208C7.72771 4.12304 7.14986 5.26569 7.02532 6.49849C6.90078 7.7313 7.23843 8.96643 7.9728 9.96443C8.70718 10.9624 9.78596 11.6522 11 11.9ZM12 4.00002C12.5933 4.00002 13.1734 4.17596 13.6667 4.50561C14.1601 4.83525 14.5446 5.30379 14.7716 5.85197C14.9987 6.40015 15.0581 7.00335 14.9424 7.58529C14.8266 8.16723 14.5409 8.70178 14.1213 9.12134C13.7018 9.5409 13.1672 9.82662 12.5853 9.94237C12.0033 10.0581 11.4001 9.99872 10.8519 9.77166C10.3038 9.54459 9.83524 9.16008 9.50559 8.66673C9.17595 8.17338 9 7.59336 9 7.00002C9 6.20437 9.31607 5.44131 9.87868 4.8787C10.4413 4.31609 11.2044 4.00002 12 4.00002ZM16.21 14.42C16.0787 14.3924 15.9432 14.391 15.8113 14.4158C15.6795 14.4406 15.5537 14.4911 15.4414 14.5644C15.329 14.6378 15.2322 14.7325 15.1565 14.8433C15.0808 14.9541 15.0276 15.0787 15 15.21C14.9724 15.3413 14.971 15.4768 14.9958 15.6087C15.0205 15.7406 15.071 15.8663 15.1444 15.9786C15.2178 16.091 15.3125 16.1878 15.4233 16.2635C15.5341 16.3393 15.6587 16.3924 15.79 16.42C18.06 16.87 19 17.68 19 18C19 18.58 16.55 20 12 20C7.45 20 5 18.58 5 18C5 17.68 5.94 16.87 8.21 16.38C8.34132 16.3524 8.46593 16.2993 8.5767 16.2235C8.68747 16.1478 8.78224 16.051 8.8556 15.9386C8.92896 15.8263 8.97947 15.7006 9.00424 15.5687C9.02902 15.4368 9.02758 15.3013 9 15.17C8.97242 15.0387 8.91925 14.9141 8.84352 14.8033C8.76778 14.6925 8.67097 14.5978 8.55861 14.5244C8.44626 14.4511 8.32055 14.4006 8.18867 14.3758C8.05679 14.351 7.92132 14.3524 7.79 14.38C4.75 15.08 3 16.39 3 18C3 20.63 7.53 22 12 22C16.47 22 21 20.63 21 18C21 16.39 19.25 15.08 16.21 14.42Z" />
</symbol><symbol viewBox="0 0 24 24" id="location-andmaps-location pin-2">
<path d="M17.9999 4.47997C16.4086 2.88867 14.2504 1.99469 11.9999 1.99469C9.74949 1.99469 7.59123 2.88867 5.99993 4.47997C4.40863 6.07127 3.51465 8.22954 3.51465 10.48C3.51465 12.7304 4.40863 14.8887 5.99993 16.48L11.2699 21.76C11.3629 21.8537 11.4735 21.9281 11.5954 21.9789C11.7172 22.0296 11.8479 22.0558 11.9799 22.0558C12.1119 22.0558 12.2426 22.0296 12.3645 21.9789C12.4864 21.9281 12.597 21.8537 12.6899 21.76L17.9999 16.43C19.5846 14.8453 20.4748 12.696 20.4748 10.455C20.4748 8.21392 19.5846 6.06465 17.9999 4.47997ZM16.5699 15L11.9999 19.59L7.42993 15C6.52707 14.0963 5.91241 12.9452 5.66362 11.6923C5.41484 10.4393 5.54312 9.14072 6.03223 7.96065C6.52135 6.78059 7.34935 5.77202 8.41156 5.06245C9.47377 4.35288 10.7225 3.97415 11.9999 3.97415C13.2773 3.97415 14.5261 4.35288 15.5883 5.06245C16.6505 5.77202 17.4785 6.78059 17.9676 7.96065C18.4567 9.14072 18.585 10.4393 18.3362 11.6923C18.0875 12.9452 17.4728 14.0963 16.5699 15ZM8.99993 7.40997C8.19264 8.21974 7.73932 9.31654 7.73932 10.46C7.73932 11.6034 8.19264 12.7002 8.99993 13.51C9.59969 14.1108 10.3635 14.5211 11.1956 14.6894C12.0276 14.8577 12.8909 14.7766 13.677 14.4561C14.4631 14.1357 15.1371 13.5903 15.6144 12.8882C16.0917 12.1862 16.3511 11.3588 16.3599 10.51C16.3644 9.94318 16.2553 9.38123 16.0388 8.85736C15.8224 8.33349 15.5032 7.85833 15.0999 7.45997C14.7036 7.05455 14.231 6.73151 13.7094 6.50944C13.1877 6.28736 12.6273 6.17065 12.0603 6.166C11.4934 6.16135 10.9311 6.26887 10.4059 6.48236C9.88067 6.69585 9.40285 7.0111 8.99993 7.40997ZM13.6899 12.09C13.311 12.4747 12.8101 12.7159 12.2731 12.7722C11.736 12.8286 11.196 12.6966 10.7454 12.3989C10.2949 12.1012 9.96173 11.6562 9.80294 11.1401C9.64415 10.6239 9.66958 10.0686 9.87489 9.56913C10.0802 9.06964 10.4526 8.65699 10.9285 8.40171C11.4044 8.14643 11.9542 8.06438 12.4839 8.16959C13.0135 8.2748 13.4902 8.56073 13.8324 8.9785C14.1746 9.39627 14.3611 9.91994 14.3599 10.46C14.3454 11.0772 14.0864 11.6635 13.6399 12.09H13.6899Z" />
</symbol><symbol viewBox="0 0 24 24" id="location-andmaps-location-1">
<path d="M20.4604 9.63C20.32 8.16892 19.8036 6.76909 18.9616 5.56682C18.1195 4.36456 16.9805 3.40083 15.6554 2.7695C14.3303 2.13816 12.8642 1.86072 11.4001 1.96421C9.93592 2.06769 8.5235 2.54856 7.30037 3.36C6.24957 4.06265 5.36742 4.9893 4.71731 6.07339C4.0672 7.15749 3.66526 8.37211 3.54037 9.63C3.41785 10.8797 3.57504 12.1409 4.00054 13.3223C4.42604 14.5036 5.10917 15.5755 6.00037 16.46L11.3004 21.77C11.3933 21.8637 11.5039 21.9381 11.6258 21.9889C11.7477 22.0397 11.8784 22.0658 12.0104 22.0658C12.1424 22.0658 12.2731 22.0397 12.3949 21.9889C12.5168 21.9381 12.6274 21.8637 12.7204 21.77L18.0004 16.46C18.8916 15.5755 19.5747 14.5036 20.0002 13.3223C20.4257 12.1409 20.5829 10.8797 20.4604 9.63ZM16.6004 15.05L12.0004 19.65L7.40037 15.05C6.72246 14.3721 6.20317 13.5523 5.87984 12.6498C5.5565 11.7472 5.43715 10.7842 5.53037 9.83C5.62419 8.86111 5.93213 7.92516 6.43194 7.08985C6.93175 6.25453 7.61093 5.54071 8.42037 5C9.48131 4.29524 10.7267 3.9193 12.0004 3.9193C13.2741 3.9193 14.5194 4.29524 15.5804 5C16.3874 5.53862 17.065 6.24928 17.5647 7.08094C18.0644 7.9126 18.3737 8.84461 18.4704 9.81C18.5666 10.7674 18.4488 11.7343 18.1254 12.6406C17.8019 13.5468 17.281 14.3698 16.6004 15.05ZM12.0004 6C11.1104 6 10.2403 6.26392 9.5003 6.75839C8.76028 7.25286 8.18351 7.95566 7.84291 8.77793C7.50232 9.6002 7.4132 10.505 7.58684 11.3779C7.76047 12.2508 8.18905 13.0526 8.81839 13.682C9.44773 14.3113 10.2495 14.7399 11.1225 14.9135C11.9954 15.0872 12.9002 14.9981 13.7224 14.6575C14.5447 14.3169 15.2475 13.7401 15.742 13.0001C16.2364 12.26 16.5004 11.39 16.5004 10.5C16.4977 9.30734 16.0228 8.16428 15.1794 7.32094C14.3361 6.4776 13.193 6.00265 12.0004 6ZM12.0004 13C11.5059 13 11.0226 12.8534 10.6114 12.5787C10.2003 12.304 9.87989 11.9135 9.69067 11.4567C9.50145 10.9999 9.45194 10.4972 9.54841 10.0123C9.64487 9.52733 9.88297 9.08187 10.2326 8.73224C10.5822 8.38261 11.0277 8.1445 11.5126 8.04804C11.9976 7.95158 12.5003 8.00109 12.9571 8.1903C13.4139 8.37952 13.8043 8.69996 14.079 9.11108C14.3537 9.5222 14.5004 10.0056 14.5004 10.5C14.5004 11.163 14.237 11.7989 13.7681 12.2678C13.2993 12.7366 12.6634 13 12.0004 13Z" />
</symbol><symbol viewBox="0 0 24 24" id="location-andmaps-location-2">
<path d="M12 10.8C12.3956 10.8 12.7822 10.6827 13.1111 10.463C13.44 10.2432 13.6964 9.93085 13.8478 9.56539C13.9991 9.19994 14.0387 8.79781 13.9616 8.40985C13.8844 8.02188 13.6939 7.66552 13.4142 7.38581C13.1345 7.10611 12.7781 6.91563 12.3902 6.83846C12.0022 6.76129 11.6001 6.80089 11.2346 6.95227C10.8692 7.10364 10.5568 7.35999 10.3371 7.68889C10.1173 8.01779 10 8.40446 10 8.80003C10 9.33046 10.2107 9.83917 10.5858 10.2142C10.9609 10.5893 11.4696 10.8 12 10.8ZM11.29 17.71C11.383 17.8038 11.4936 17.8781 11.6154 17.9289C11.7373 17.9797 11.868 18.0058 12 18.0058C12.132 18.0058 12.2627 17.9797 12.3846 17.9289C12.5064 17.8781 12.617 17.8038 12.71 17.71L16.8 13.61C17.75 12.6606 18.397 11.4507 18.6593 10.1335C18.9216 8.81626 18.7873 7.45083 18.2735 6.20992C17.7597 4.969 16.8894 3.90834 15.7727 3.16209C14.656 2.41583 13.3431 2.01752 12 2.01752C10.6569 2.01752 9.344 2.41583 8.22731 3.16209C7.11062 3.90834 6.24033 4.969 5.72652 6.20992C5.2127 7.45083 5.07845 8.81626 5.34073 10.1335C5.60301 11.4507 6.25005 12.6606 7.2 13.61L11.29 17.71ZM7.23 8.34003C7.29833 7.62704 7.52502 6.93832 7.89352 6.32414C8.26203 5.70996 8.76305 5.18583 9.36 4.79003C10.1442 4.27512 11.0619 4.00079 12 4.00079C12.9381 4.00079 13.8558 4.27512 14.64 4.79003C15.233 5.18448 15.7311 5.70543 16.0987 6.31541C16.4663 6.9254 16.6942 7.60926 16.7659 8.31781C16.8376 9.02637 16.7514 9.74202 16.5135 10.4133C16.2756 11.0846 15.8919 11.6948 15.39 12.2L12 15.59L8.61 12.2C8.10752 11.6997 7.72293 11.0936 7.48421 10.4258C7.24548 9.7581 7.15864 9.04555 7.23 8.34003ZM19 20H5C4.73478 20 4.48043 20.1054 4.29289 20.2929C4.10536 20.4805 4 20.7348 4 21C4 21.2652 4.10536 21.5196 4.29289 21.7071C4.48043 21.8947 4.73478 22 5 22H19C19.2652 22 19.5196 21.8947 19.7071 21.7071C19.8946 21.5196 20 21.2652 20 21C20 20.7348 19.8946 20.4805 19.7071 20.2929C19.5196 20.1054 19.2652 20 19 20Z" />
</symbol><symbol viewBox="0 0 24 24" id="location-andmaps-map">
<path d="M21.32 5.04999L15.32 3.04999H15.25C15.2035 3.04532 15.1566 3.04532 15.11 3.04999H14.88H14.75H14.68L9 4.99999L3.32 3.04999C3.16962 3.00041 3.00961 2.98724 2.85314 3.01158C2.69667 3.03592 2.54822 3.09707 2.42 3.18999C2.29076 3.28201 2.18527 3.40346 2.11224 3.5443C2.03921 3.68514 2.00074 3.84134 2 3.99999V18C1.99946 18.2096 2.06482 18.4141 2.18685 18.5846C2.30887 18.7551 2.48138 18.8829 2.68 18.95L8.68 20.95C8.88145 21.0157 9.09856 21.0157 9.3 20.95L15 19.05L20.68 21C20.7862 21.0144 20.8938 21.0144 21 21C21.2091 21.0029 21.4132 20.9361 21.58 20.81C21.7092 20.718 21.8147 20.5965 21.8878 20.4557C21.9608 20.3148 21.9993 20.1586 22 20V5.99999C22.0005 5.79035 21.9352 5.58584 21.8132 5.41536C21.6911 5.24489 21.5186 5.11708 21.32 5.04999ZM8 18.61L4 17.28V5.38999L8 6.71999V18.61ZM14 17.28L10 18.61V6.71999L14 5.38999V17.28ZM20 18.61L16 17.28V5.38999L20 6.71999V18.61Z" />
</symbol><symbol viewBox="0 0 24 24" id="location-andmaps-navigation">
<path d="M21.6801 17.65L14.6801 3.64999C14.4303 3.15339 14.0474 2.73597 13.5742 2.44429C13.101 2.15262 12.556 1.99817 12.0001 1.99817C11.4442 1.99817 10.8993 2.15262 10.4261 2.44429C9.95282 2.73597 9.56994 3.15339 9.32013 3.64999L2.32013 17.65C2.04514 18.2025 1.94724 18.8264 2.03978 19.4366C2.13232 20.0467 2.4108 20.6135 2.83724 21.0597C3.26369 21.5058 3.81735 21.8095 4.42274 21.9295C5.02813 22.0495 5.65578 21.9798 6.22013 21.73L11.5901 19.33C11.72 19.2755 11.8593 19.2475 12.0001 19.2475C12.1409 19.2475 12.2803 19.2755 12.4101 19.33L17.7801 21.73C18.3445 21.9798 18.9721 22.0495 19.5775 21.9295C20.1829 21.8095 20.7366 21.5058 21.163 21.0597C21.5895 20.6135 21.8679 20.0467 21.9605 19.4366C22.053 18.8264 21.9551 18.2025 21.6801 17.65ZM19.6801 19.65C19.5374 19.7986 19.3522 19.8995 19.15 19.9389C18.9477 19.9783 18.7382 19.9542 18.5501 19.87L13.1801 17.48C12.7961 17.309 12.3805 17.2207 11.9601 17.2207C11.5398 17.2207 11.1241 17.309 10.7401 17.48L5.41013 19.9C5.22309 19.9813 5.01568 20.0034 4.8157 19.9635C4.61572 19.9235 4.43273 19.8234 4.29128 19.6765C4.14982 19.5296 4.05666 19.3429 4.02428 19.1416C3.9919 18.9403 4.02186 18.7338 4.11013 18.55L11.1101 4.54999C11.194 4.38618 11.3215 4.24872 11.4786 4.15273C11.6356 4.05674 11.8161 4.00595 12.0001 4.00595C12.1842 4.00595 12.3647 4.05674 12.5217 4.15273C12.6787 4.24872 12.8062 4.38618 12.8901 4.54999L19.8901 18.55C19.9806 18.7332 20.0128 18.9396 19.9824 19.1417C19.952 19.3437 19.8605 19.5315 19.7201 19.68L19.6801 19.65Z" />
</symbol><symbol viewBox="0 0 24 24" id="location-andmaps-navigation arrow">
<path d="M20.17 9.23003L6.17001 3.45003C5.64029 3.23082 5.05884 3.16797 4.49451 3.26894C3.93018 3.36991 3.4066 3.63046 2.98575 4.01975C2.5649 4.40904 2.2644 4.91076 2.11983 5.46552C1.97526 6.02029 1.99268 6.60486 2.17001 7.15003L3.71001 12L2.13001 16.85C1.94788 17.3974 1.92742 17.9856 2.07108 18.5443C2.21475 19.103 2.51644 19.6084 2.94001 20C3.48465 20.5051 4.19729 20.7901 4.94001 20.8C5.33474 20.7998 5.72554 20.7216 6.09001 20.57L20.14 14.79C20.6872 14.5625 21.1547 14.1779 21.4836 13.685C21.8125 13.192 21.988 12.6126 21.988 12.02C21.988 11.4274 21.8125 10.8481 21.4836 10.3551C21.1547 9.86212 20.6872 9.47759 20.14 9.25003L20.17 9.23003ZM5.36001 18.7C5.18361 18.7728 4.99007 18.7936 4.80225 18.7599C4.61442 18.7262 4.44015 18.6395 4.30001 18.51C4.168 18.3839 4.07304 18.224 4.02545 18.0477C3.97785 17.8714 3.97943 17.6855 4.03001 17.51L5.49001 13H19.22L5.36001 18.7ZM5.49001 11L4.00001 6.53003C3.94943 6.35458 3.94785 6.16863 3.99545 5.99235C4.04304 5.81606 4.138 5.65618 4.27001 5.53003C4.36412 5.43131 4.47742 5.35288 4.60296 5.29957C4.7285 5.24625 4.86362 5.21919 5.00001 5.22003C5.13406 5.22029 5.26669 5.24749 5.39001 5.30003L19.22 11H5.49001Z" />
</symbol><symbol viewBox="0 0 24 24" id="location-andmaps-pointer">
<path d="M21.1498 2.86001C20.7678 2.47057 20.2833 2.19723 19.7524 2.07158C19.2215 1.94594 18.6659 1.97313 18.1498 2.15001L3.9998 6.88001C3.42912 7.06681 2.93049 7.42616 2.57276 7.90845C2.21502 8.39073 2.01582 8.97218 2.00265 9.57251C1.98948 10.1728 2.16299 10.7625 2.49923 11.26C2.83547 11.7575 3.31786 12.1384 3.87981 12.35L9.1198 14.35C9.23912 14.3956 9.34776 14.4654 9.43895 14.5548C9.53014 14.6443 9.60191 14.7516 9.6498 14.87L11.6498 20.12C11.8534 20.674 12.2228 21.1518 12.7078 21.4882C13.1927 21.8246 13.7696 22.0033 14.3598 22H14.4298C15.0308 21.9891 15.6134 21.7903 16.0958 21.4317C16.5781 21.073 16.9362 20.5724 17.1198 20L21.8498 5.83001C22.0218 5.31895 22.0474 4.76995 21.9237 4.2451C21.8 3.72024 21.5319 3.24046 21.1498 2.86001ZM19.9998 5.20001L15.2198 19.38C15.1643 19.5595 15.0528 19.7165 14.9017 19.828C14.7505 19.9396 14.5677 19.9999 14.3798 20C14.1931 20.0031 14.0098 19.9492 13.8544 19.8456C13.699 19.742 13.5788 19.5936 13.5098 19.42L11.5098 14.17C11.3648 13.7885 11.1412 13.4418 10.8535 13.1524C10.5658 12.863 10.2204 12.6373 9.83981 12.49L4.58981 10.49C4.4127 10.4251 4.26046 10.3062 4.15459 10.1501C4.04872 9.99399 3.99458 9.80856 3.9998 9.62001C3.99996 9.43215 4.06022 9.24928 4.17178 9.09813C4.28334 8.94699 4.44034 8.83551 4.6198 8.78001L18.7998 4.05001C18.9626 3.98366 19.1411 3.96588 19.3138 3.99883C19.4865 4.03179 19.646 4.11406 19.7729 4.2357C19.8998 4.35734 19.9888 4.51314 20.0291 4.68427C20.0693 4.8554 20.0592 5.03453 19.9998 5.20001Z" />
</symbol><symbol viewBox="0 0 24 24" id="location-andmaps-remove location">
<path d="M13.9996 9.45002H9.99959C9.73437 9.45002 9.48002 9.55537 9.29248 9.74291C9.10495 9.93045 8.99959 10.1848 8.99959 10.45C8.99959 10.7152 9.10495 10.9696 9.29248 11.1571C9.48002 11.3447 9.73437 11.45 9.99959 11.45H13.9996C14.2648 11.45 14.5192 11.3447 14.7067 11.1571C14.8942 10.9696 14.9996 10.7152 14.9996 10.45C14.9996 10.1848 14.8942 9.93045 14.7067 9.74291C14.5192 9.55537 14.2648 9.45002 13.9996 9.45002ZM20.4596 9.63002C20.3299 8.27185 19.8753 6.96484 19.134 5.81944C18.3927 4.67404 17.3866 3.72391 16.2007 3.04934C15.0148 2.37477 13.6839 1.99557 12.3206 1.9438C10.9572 1.89204 9.60142 2.16921 8.36777 2.75191C7.13412 3.33461 6.05886 4.20571 5.23286 5.2916C4.40685 6.37748 3.85438 7.64625 3.62212 8.99068C3.38986 10.3351 3.48464 11.7157 3.89845 13.0158C4.31226 14.3158 5.03294 15.4972 5.99959 16.46L11.2996 21.77C11.3926 21.8637 11.5032 21.9381 11.625 21.9889C11.7469 22.0397 11.8776 22.0658 12.0096 22.0658C12.1416 22.0658 12.2723 22.0397 12.3942 21.9889C12.516 21.9381 12.6266 21.8637 12.7196 21.77L17.9996 16.46C18.8908 15.5755 19.5739 14.5036 19.9994 13.3223C20.4249 12.1409 20.5821 10.8797 20.4596 9.63002ZM16.5996 15.05L11.9996 19.65L7.39959 15.05C6.72168 14.3721 6.20239 13.5523 5.87906 12.6498C5.55572 11.7472 5.43637 10.7842 5.52959 9.83002C5.62341 8.86112 5.93135 7.92518 6.43116 7.08986C6.93097 6.25454 7.61015 5.54072 8.41959 5.00002C9.48053 4.29525 10.7259 3.91931 11.9996 3.91931C13.2733 3.91931 14.5186 4.29525 15.5796 5.00002C16.3866 5.53863 17.0643 6.2493 17.5639 7.08095C18.0636 7.91261 18.3729 8.84462 18.4696 9.81002C18.5658 10.7674 18.448 11.7343 18.1246 12.6406C17.8012 13.5468 17.2803 14.3698 16.5996 15.05Z" />
</symbol><symbol viewBox="0 0 24 24" id="location-andmaps-secure location">
<path d="M14.4104 6.53C14.0968 6.59926 13.772 6.60028 13.4579 6.53299C13.1439 6.4657 12.848 6.33168 12.5904 6.14C12.4191 6.01486 12.2125 5.94741 12.0004 5.94741C11.7883 5.94741 11.5816 6.01486 11.4104 6.14C11.1527 6.33168 10.8568 6.4657 10.5428 6.53299C10.2288 6.60028 9.90396 6.59926 9.59037 6.53C9.44431 6.49846 9.29304 6.50006 9.14767 6.53467C9.00231 6.56928 8.86655 6.63603 8.75037 6.73C8.63435 6.82412 8.54089 6.94304 8.47686 7.07802C8.41283 7.213 8.37986 7.36061 8.38037 7.51V10.41C8.37336 11.0527 8.51611 11.6882 8.79729 12.2662C9.07847 12.8442 9.49038 13.3488 10.0004 13.74L11.3704 14.74C11.5416 14.8652 11.7483 14.9326 11.9604 14.9326C12.1725 14.9326 12.3791 14.8652 12.5504 14.74L13.9204 13.74C14.4377 13.353 14.8573 12.8502 15.1455 12.272C15.4338 11.6938 15.5827 11.0561 15.5804 10.41V7.51C15.5809 7.36061 15.5479 7.213 15.4839 7.07802C15.4198 6.94304 15.3264 6.82412 15.2104 6.73C15.0989 6.6417 14.9699 6.57819 14.8319 6.5437C14.694 6.50921 14.5503 6.50454 14.4104 6.53ZM13.6204 10.41C13.6231 10.7446 13.5477 11.0753 13.4001 11.3756C13.2525 11.6759 13.0369 11.9377 12.7704 12.14L12.0004 12.71L11.2304 12.14C10.9638 11.9377 10.7482 11.6759 10.6006 11.3756C10.4531 11.0753 10.3776 10.7446 10.3804 10.41V8.57C10.9451 8.53018 11.496 8.37715 12.0004 8.12C12.5047 8.37715 13.0557 8.53018 13.6204 8.57V10.41ZM20.4604 9.63C20.32 8.16892 19.8036 6.76909 18.9616 5.56682C18.1195 4.36456 16.9805 3.40083 15.6554 2.7695C14.3303 2.13816 12.8642 1.86072 11.4001 1.96421C9.93592 2.06769 8.5235 2.54856 7.30037 3.36C6.24957 4.06265 5.36742 4.9893 4.71731 6.07339C4.0672 7.15749 3.66526 8.37211 3.54037 9.63C3.41785 10.8797 3.57504 12.1409 4.00054 13.3223C4.42604 14.5036 5.10917 15.5755 6.00037 16.46L11.3004 21.77C11.3933 21.8637 11.5039 21.9381 11.6258 21.9889C11.7477 22.0397 11.8784 22.0658 12.0104 22.0658C12.1424 22.0658 12.2731 22.0397 12.3949 21.9889C12.5168 21.9381 12.6274 21.8637 12.7204 21.77L18.0004 16.46C18.8916 15.5755 19.5747 14.5036 20.0002 13.3223C20.4257 12.1409 20.5829 10.8797 20.4604 9.63ZM16.6004 15.05L12.0004 19.65L7.40037 15.05C6.72246 14.3721 6.20317 13.5523 5.87984 12.6498C5.5565 11.7472 5.43715 10.7842 5.53037 9.83C5.62419 8.86111 5.93213 7.92516 6.43194 7.08985C6.93175 6.25453 7.61093 5.54071 8.42037 5C9.48131 4.29524 10.7267 3.9193 12.0004 3.9193C13.2741 3.9193 14.5194 4.29524 15.5804 5C16.3874 5.53862 17.065 6.24928 17.5647 7.08094C18.0644 7.9126 18.3737 8.84461 18.4704 9.81C18.5666 10.7674 18.4488 11.7343 18.1254 12.6406C17.8019 13.5468 17.281 14.3698 16.6004 15.05Z" />
</symbol><symbol viewBox="0 0 24 24" id="location-andmaps-signboard">
<path d="M21.1203 9.88002L14.1203 2.88002C13.548 2.33702 12.7892 2.0343 12.0003 2.0343C11.2114 2.0343 10.4526 2.33702 9.88029 2.88002L2.88029 9.88002C2.31849 10.4425 2.00293 11.205 2.00293 12C2.00293 12.795 2.31849 13.5575 2.88029 14.12L9.88029 21.12C10.4428 21.6818 11.2053 21.9974 12.0003 21.9974C12.7953 21.9974 13.5578 21.6818 14.1203 21.12L21.1203 14.12C21.6821 13.5575 21.9977 12.795 21.9977 12C21.9977 11.205 21.6821 10.4425 21.1203 9.88002ZM19.7103 12.71L12.7103 19.71C12.6173 19.8038 12.5067 19.8781 12.3849 19.9289C12.263 19.9797 12.1323 20.0058 12.0003 20.0058C11.8683 20.0058 11.7376 19.9797 11.6157 19.9289C11.4939 19.8781 11.3833 19.8038 11.2903 19.71L4.29029 12.71C4.19656 12.6171 4.12217 12.5065 4.0714 12.3846C4.02063 12.2627 3.99449 12.132 3.99449 12C3.99449 11.868 4.02063 11.7373 4.0714 11.6154C4.12217 11.4936 4.19656 11.383 4.29029 11.29L11.2903 4.29002C11.3833 4.19629 11.4939 4.1219 11.6157 4.07113C11.7376 4.02036 11.8683 3.99423 12.0003 3.99423C12.1323 3.99423 12.263 4.02036 12.3849 4.07113C12.5067 4.1219 12.6173 4.19629 12.7103 4.29002L19.7103 11.29C19.804 11.383 19.8784 11.4936 19.9292 11.6154C19.9799 11.7373 20.0061 11.868 20.0061 12C20.0061 12.132 19.9799 12.2627 19.9292 12.3846C19.8784 12.5065 19.804 12.6171 19.7103 12.71ZM14.2103 9.29002C14.022 9.10172 13.7666 8.99593 13.5003 8.99593C13.234 8.99593 12.9786 9.10172 12.7903 9.29002C12.602 9.47833 12.4962 9.73372 12.4962 10C12.4962 10.2663 12.602 10.5217 12.7903 10.71L13.0903 11H9.50029C9.23507 11 8.98072 11.1054 8.79318 11.2929C8.60565 11.4805 8.50029 11.7348 8.50029 12V14C8.50029 14.2652 8.60565 14.5196 8.79318 14.7071C8.98072 14.8947 9.23507 15 9.50029 15C9.76551 15 10.0199 14.8947 10.2074 14.7071C10.3949 14.5196 10.5003 14.2652 10.5003 14V13H13.0903L12.7903 13.29C12.6966 13.383 12.6222 13.4936 12.5714 13.6154C12.5206 13.7373 12.4945 13.868 12.4945 14C12.4945 14.132 12.5206 14.2627 12.5714 14.3846C12.6222 14.5065 12.6966 14.6171 12.7903 14.71C12.8833 14.8038 12.9939 14.8781 13.1157 14.9289C13.2376 14.9797 13.3683 15.0058 13.5003 15.0058C13.6323 15.0058 13.763 14.9797 13.8849 14.9289C14.0067 14.8781 14.1173 14.8038 14.2103 14.71L16.2103 12.71C16.304 12.6171 16.3784 12.5065 16.4292 12.3846C16.48 12.2627 16.5061 12.132 16.5061 12C16.5061 11.868 16.48 11.7373 16.4292 11.6154C16.3784 11.4936 16.304 11.383 16.2103 11.29L14.2103 9.29002Z" />
</symbol></defs></svg>