<svg width="24" height="24" viewBox="0 0 24 24" xmlns="http://www.w3.org/2000/svg">
<path d="M20.1603 5.00004C19.1002 3.93725 17.6951 3.28858 16.1986 3.17121C14.7021 3.05384 13.213 3.47551 12.0003 4.36004C10.7279 3.41368 9.14427 2.98455 7.5682 3.15908C5.99212 3.33361 4.54072 4.09882 3.50625 5.30063C2.47178 6.50244 1.9311 8.05156 1.99308 9.63606C2.05506 11.2206 2.71509 12.7227 3.84028 13.84L10.0503 20.06C10.5703 20.5718 11.2707 20.8587 12.0003 20.8587C12.7299 20.8587 13.4303 20.5718 13.9503 20.06L20.1603 13.84C21.3279 12.6653 21.9832 11.0763 21.9832 9.42004C21.9832 7.76377 21.3279 6.17478 20.1603 5.00004ZM18.7503 12.46L12.5403 18.67C12.4696 18.7414 12.3855 18.798 12.2928 18.8367C12.2001 18.8753 12.1007 18.8953 12.0003 18.8953C11.8999 18.8953 11.8004 18.8753 11.7077 18.8367C11.615 18.798 11.5309 18.7414 11.4603 18.67L5.25028 12.43C4.46603 11.6284 4.02689 10.5515 4.02689 9.43004C4.02689 8.30858 4.46603 7.2317 5.25028 6.43004C6.04943 5.64103 7.12725 5.19861 8.25028 5.19861C9.3733 5.19861 10.4511 5.64103 11.2503 6.43004C11.3432 6.52377 11.4538 6.59817 11.5757 6.64893C11.6976 6.6997 11.8283 6.72584 11.9603 6.72584C12.0923 6.72584 12.223 6.6997 12.3449 6.64893C12.4667 6.59817 12.5773 6.52377 12.6703 6.43004C13.4694 5.64103 14.5472 5.19861 15.6703 5.19861C16.7933 5.19861 17.8711 5.64103 18.6703 6.43004C19.4653 7.22119 19.9189 8.29223 19.9338 9.41373C19.9488 10.5352 19.5239 11.618 18.7503 12.43V12.46Z" />
</svg>
