<svg width="24" height="24" viewBox="0 0 24 24" xmlns="http://www.w3.org/2000/svg">
<path d="M21.8701 11.5L17.3701 3.70997C17.282 3.55736 17.1551 3.43075 17.0023 3.34295C16.8495 3.25514 16.6763 3.20927 16.5001 3.20997H7.50007C7.32386 3.20927 7.15059 3.25514 6.99781 3.34295C6.84504 3.43075 6.71817 3.55736 6.63007 3.70997L2.13007 11.5C2.0423 11.652 1.99609 11.8244 1.99609 12C1.99609 12.1755 2.0423 12.3479 2.13007 12.5L6.63007 20.29C6.71817 20.4426 6.84504 20.5692 6.99781 20.657C7.15059 20.7448 7.32386 20.7907 7.50007 20.79H16.5001C16.6763 20.7907 16.8495 20.7448 17.0023 20.657C17.1551 20.5692 17.282 20.4426 17.3701 20.29L21.8701 12.5C21.9578 12.3479 22.004 12.1755 22.004 12C22.004 11.8244 21.9578 11.652 21.8701 11.5ZM15.8701 18.79H8.08007L4.15007 12L8.08007 5.20997H15.9201L19.8501 12L15.8701 18.79Z" />
</svg>
