<svg width="24" height="24" viewBox="0 0 24 24" xmlns="http://www.w3.org/2000/svg">
<path d="M21.8701 19.29L12.8701 3.70995C12.7829 3.55605 12.6564 3.42805 12.5035 3.33899C12.3507 3.24993 12.177 3.203 12.0001 3.203C11.8232 3.203 11.6494 3.24993 11.4966 3.33899C11.3438 3.42805 11.2173 3.55605 11.1301 3.70995L2.13007 19.29C2.0423 19.442 1.99609 19.6144 1.99609 19.79C1.99609 19.9655 2.0423 20.1379 2.13007 20.29C2.21817 20.4426 2.34504 20.5692 2.49781 20.657C2.65059 20.7448 2.82386 20.7907 3.00007 20.79H21.0001C21.1763 20.7907 21.3495 20.7448 21.5023 20.657C21.6551 20.5692 21.782 20.4426 21.8701 20.29C21.9578 20.1379 22.004 19.9655 22.004 19.79C22.004 19.6144 21.9578 19.442 21.8701 19.29ZM4.73007 18.79L12.0001 6.20995L19.2701 18.79H4.73007Z" />
</svg>
