<svg width="24" height="24" viewBox="0 0 24 24" xmlns="http://www.w3.org/2000/svg">
<path d="M19 4.5H5C4.20435 4.5 3.44129 4.81607 2.87868 5.37868C2.31607 5.94129 2 6.70435 2 7.5V16.5C2 17.2956 2.31607 18.0587 2.87868 18.6213C3.44129 19.1839 4.20435 19.5 5 19.5H19C19.7956 19.5 20.5587 19.1839 21.1213 18.6213C21.6839 18.0587 22 17.2956 22 16.5V7.5C22 6.70435 21.6839 5.94129 21.1213 5.37868C20.5587 4.81607 19.7956 4.5 19 4.5ZM20 16.5C20 16.7652 19.8946 17.0196 19.7071 17.2071C19.5196 17.3946 19.2652 17.5 19 17.5H5C4.73478 17.5 4.48043 17.3946 4.29289 17.2071C4.10536 17.0196 4 16.7652 4 16.5V7.5C4 7.23478 4.10536 6.98043 4.29289 6.79289C4.48043 6.60536 4.73478 6.5 5 6.5H19C19.2652 6.5 19.5196 6.60536 19.7071 6.79289C19.8946 6.98043 20 7.23478 20 7.5V16.5ZM16 10.5C15.4683 10.5037 14.9472 10.6487 14.49 10.92C14.0345 10.6497 13.5156 10.5049 12.986 10.5001C12.4563 10.4954 11.9349 10.6309 11.4746 10.893C11.0144 11.1551 10.6317 11.5344 10.3655 11.9923C10.0993 12.4502 9.95912 12.9704 9.95912 13.5C9.95912 14.0296 10.0993 14.5498 10.3655 15.0077C10.6317 15.4656 11.0144 15.8449 11.4746 16.107C11.9349 16.3691 12.4563 16.5046 12.986 16.4999C13.5156 16.4951 14.0345 16.3503 14.49 16.08C14.8878 16.316 15.3348 16.4568 15.796 16.4915C16.2573 16.5261 16.7203 16.4537 17.1489 16.2797C17.5775 16.1058 17.96 15.8351 18.2667 15.4888C18.5734 15.1426 18.7958 14.7301 18.9166 14.2836C19.0374 13.8371 19.0534 13.3687 18.9632 12.915C18.873 12.4614 18.6792 12.0347 18.3968 11.6684C18.1144 11.302 17.7511 11.006 17.3353 10.8033C16.9195 10.6006 16.4625 10.4968 16 10.5ZM13.17 14.5C13.1134 14.5048 13.0566 14.5048 13 14.5C12.7348 14.5 12.4804 14.3946 12.2929 14.2071C12.1054 14.0196 12 13.7652 12 13.5C12 13.2348 12.1054 12.9804 12.2929 12.7929C12.4804 12.6054 12.7348 12.5 13 12.5C13.0566 12.4952 13.1134 12.4952 13.17 12.5C12.9437 13.12 12.9437 13.8 13.17 14.42V14.5ZM16 14.5C15.8022 14.5 15.6089 14.4414 15.4444 14.3315C15.28 14.2216 15.1518 14.0654 15.0761 13.8827C15.0004 13.7 14.9806 13.4989 15.0192 13.3049C15.0578 13.1109 15.153 12.9327 15.2929 12.7929C15.4327 12.653 15.6109 12.5578 15.8049 12.5192C15.9989 12.4806 16.2 12.5004 16.3827 12.5761C16.5654 12.6518 16.7216 12.78 16.8315 12.9444C16.9414 13.1089 17 13.3022 17 13.5C17 13.7652 16.8946 14.0196 16.7071 14.2071C16.5196 14.3946 16.2652 14.5 16 14.5Z" />
</svg>
