<svg width="24" height="24" viewBox="0 0 24 24" xmlns="http://www.w3.org/2000/svg">
<path d="M10.6602 5.99994H18.0002C18.2654 5.99994 18.5198 6.1053 18.7073 6.29283C18.8948 6.48037 19.0002 6.73472 19.0002 6.99994V12.9999C19.0014 13.1764 18.9529 13.3497 18.8602 13.4999C18.7899 13.6109 18.7422 13.7346 18.7197 13.864C18.6973 13.9934 18.7005 14.126 18.7293 14.2542C18.7581 14.3823 18.8119 14.5035 18.8875 14.6109C18.9632 14.7183 19.0592 14.8097 19.1702 14.8799C19.3268 14.9853 19.5115 15.041 19.7002 15.0399C19.8675 15.0397 20.0321 14.9974 20.1788 14.917C20.3256 14.8367 20.4498 14.7208 20.5402 14.5799C20.8408 14.1078 21.0004 13.5597 21.0002 12.9999V6.99994C21.0002 6.20429 20.6841 5.44123 20.1215 4.87862C19.5589 4.31601 18.7958 3.99994 18.0002 3.99994H10.6602C10.395 3.99994 10.1406 4.1053 9.95308 4.29283C9.76554 4.48037 9.66019 4.73472 9.66019 4.99994C9.66019 5.26516 9.76554 5.51951 9.95308 5.70705C10.1406 5.89458 10.395 5.99994 10.6602 5.99994ZM21.7102 20.2899L5.86019 4.44994L3.71019 2.28994C3.61695 2.1967 3.50626 2.12274 3.38443 2.07228C3.26261 2.02182 3.13204 1.99585 3.00019 1.99585C2.86833 1.99585 2.73776 2.02182 2.61594 2.07228C2.49411 2.12274 2.38342 2.1967 2.29019 2.28994C2.10188 2.47824 1.99609 2.73364 1.99609 2.99994C1.99609 3.26624 2.10188 3.52164 2.29019 3.70994L3.69019 5.09994C3.24732 5.63438 3.00346 6.30586 3.00019 6.99994V12.9999C3.00019 13.7956 3.31626 14.5587 3.87887 15.1213C4.44147 15.6839 5.20454 15.9999 6.00019 15.9999H11.0002V17.9999H7.00019C6.73497 17.9999 6.48062 18.1053 6.29308 18.2928C6.10554 18.4804 6.00019 18.7347 6.00019 18.9999C6.00019 19.2652 6.10554 19.5195 6.29308 19.707C6.48062 19.8946 6.73497 19.9999 7.00019 19.9999H17.0002C17.204 19.9978 17.4023 19.9335 17.5685 19.8155C17.7347 19.6975 17.8609 19.5316 17.9302 19.3399L20.2902 21.7099C20.3831 21.8037 20.4937 21.8781 20.6156 21.9288C20.7375 21.9796 20.8682 22.0057 21.0002 22.0057C21.1322 22.0057 21.2629 21.9796 21.3848 21.9288C21.5066 21.8781 21.6172 21.8037 21.7102 21.7099C21.8039 21.617 21.8783 21.5064 21.9291 21.3845C21.9798 21.2627 22.006 21.132 22.006 20.9999C22.006 20.8679 21.9798 20.7372 21.9291 20.6154C21.8783 20.4935 21.8039 20.3829 21.7102 20.2899ZM6.00019 13.9999C5.73497 13.9999 5.48062 13.8946 5.29308 13.707C5.10554 13.5195 5.00019 13.2652 5.00019 12.9999V6.99994C5.00263 6.83919 5.04379 6.6814 5.12019 6.53994L12.5902 13.9999H6.00019ZM13.0002 17.9999V15.9999H14.5902L16.5902 17.9999H13.0002Z" />
</svg>
