<svg width="24" height="24" viewBox="0 0 24 24" xmlns="http://www.w3.org/2000/svg">
<path d="M19.8903 9.55004C19.8072 9.38513 19.6801 9.24645 19.523 9.14937C19.3659 9.05229 19.185 9.0006 19.0003 9.00004H14.0003V3.00004C14.0111 2.78073 13.9493 2.56397 13.8246 2.38324C13.6999 2.20251 13.5192 2.06785 13.3104 2.00004C13.1096 1.93399 12.893 1.93324 12.6918 1.99792C12.4906 2.0626 12.315 2.18937 12.1903 2.36004L4.19035 13.36C4.09012 13.5049 4.02993 13.6737 4.01588 13.8493C4.00183 14.0249 4.03442 14.2011 4.11035 14.36C4.18027 14.5418 4.30174 14.6992 4.45984 14.8129C4.61794 14.9266 4.8058 14.9916 5.00035 15H10.0003V21C10.0005 21.2109 10.0673 21.4164 10.1912 21.587C10.3152 21.7576 10.4899 21.8847 10.6903 21.95C10.7908 21.9812 10.8952 21.998 11.0003 22C11.1581 22.0005 11.3138 21.9635 11.4546 21.8923C11.5953 21.821 11.7173 21.7174 11.8103 21.59L19.8103 10.59C19.9181 10.4408 19.9826 10.2648 19.9967 10.0813C20.0108 9.8978 19.974 9.71397 19.8903 9.55004ZM12.0003 17.92V14C12.0003 13.7348 11.895 13.4805 11.7075 13.2929C11.5199 13.1054 11.2656 13 11.0003 13H7.00035L12.0003 6.08004V10C12.0003 10.2653 12.1057 10.5196 12.2932 10.7071C12.4808 10.8947 12.7351 11 13.0003 11H17.0003L12.0003 17.92Z" />
</svg>
