<svg width="24" height="24" viewBox="0 0 24 24" xmlns="http://www.w3.org/2000/svg">
<path d="M12.71 17.29C12.6608 17.2448 12.6072 17.2046 12.55 17.17C12.4989 17.1304 12.4414 17.1 12.38 17.08C12.3205 17.0496 12.2562 17.0293 12.19 17.02C11.9984 16.9795 11.7989 17.0005 11.62 17.08C11.4959 17.1249 11.3832 17.1966 11.2899 17.2899C11.1966 17.3832 11.1249 17.4959 11.08 17.62C11.024 17.7387 10.9966 17.8688 11 18C10.9984 18.13 11.0222 18.2591 11.07 18.38C11.128 18.4995 11.202 18.6105 11.29 18.71C11.3834 18.8027 11.4943 18.876 11.6161 18.9258C11.7379 18.9755 11.8684 19.0008 12 19C12.1312 19.0034 12.2613 18.976 12.38 18.92C12.5012 18.8694 12.6128 18.7983 12.71 18.71C12.8027 18.6166 12.876 18.5057 12.9258 18.3839C12.9755 18.2621 13.0008 18.1316 13 18C12.9984 17.8693 12.9712 17.7402 12.92 17.62C12.8724 17.4972 12.801 17.3851 12.71 17.29ZM8.55 13.17C8.49895 13.1304 8.44143 13.1 8.38 13.08C8.32176 13.0426 8.25747 13.0155 8.19 13C8.06172 12.9701 7.92828 12.9701 7.8 13L7.62 13.06L7.44 13.15L7.29 13.27C7.10253 13.4667 6.99858 13.7283 7 14C6.99924 14.1316 7.02446 14.2621 7.07423 14.3839C7.12399 14.5057 7.19732 14.6166 7.29 14.71C7.3872 14.7983 7.49882 14.8694 7.62 14.92C7.7715 14.9822 7.93597 15.0063 8.09895 14.9901C8.26193 14.9739 8.41843 14.9179 8.55471 14.8271C8.69099 14.7362 8.80287 14.6133 8.88051 14.4691C8.95815 14.3249 8.99918 14.1638 9 14C8.99632 13.7352 8.89273 13.4816 8.71 13.29L8.55 13.17ZM8.71 17.29C8.6149 17.199 8.50275 17.1276 8.38 17.08C8.19898 16.9961 7.99698 16.9682 7.8 17L7.62 17.06C7.55628 17.0819 7.49575 17.1122 7.44 17.15C7.38761 17.1869 7.33752 17.227 7.29 17.27C7.19896 17.3651 7.12759 17.4772 7.08 17.6C7.02709 17.7197 6.99977 17.8491 6.99977 17.98C6.99977 18.1109 7.02709 18.2403 7.08 18.36C7.13064 18.4812 7.20167 18.5928 7.29 18.69C7.38178 18.7863 7.49185 18.8633 7.61376 18.9165C7.73567 18.9698 7.86698 18.9981 8 19C8.13118 19.0034 8.26132 18.976 8.38 18.92C8.50118 18.8694 8.6128 18.7983 8.71 18.71C8.79833 18.6128 8.86936 18.5012 8.92 18.38C8.97291 18.2603 9.00023 18.1309 9.00023 18C9.00023 17.8691 8.97291 17.7397 8.92 17.62C8.87241 17.4972 8.80104 17.3851 8.71 17.29ZM11.62 13.08C11.4972 13.1276 11.3851 13.199 11.29 13.29C11.1073 13.4816 11.0037 13.7352 11 14C11.0008 14.1638 11.0418 14.3249 11.1195 14.4691C11.1971 14.6133 11.309 14.7362 11.4453 14.8271C11.5816 14.9179 11.7381 14.9739 11.9011 14.9901C12.064 15.0063 12.2285 14.9822 12.38 14.92C12.5012 14.8694 12.6128 14.7983 12.71 14.71C12.8027 14.6166 12.876 14.5057 12.9258 14.3839C12.9755 14.2621 13.0008 14.1316 13 14C12.9963 13.7352 12.8927 13.4816 12.71 13.29C12.5694 13.1512 12.3908 13.0572 12.1968 13.0199C12.0028 12.9825 11.8021 13.0034 11.62 13.08ZM16.71 17.29C16.6128 17.2017 16.5012 17.1306 16.38 17.08C16.1979 17.0034 15.9972 16.9825 15.8032 17.0199C15.6092 17.0572 15.4306 17.1512 15.29 17.29C15.199 17.3851 15.1276 17.4972 15.08 17.62C15.0271 17.7397 14.9998 17.8691 14.9998 18C14.9998 18.1309 15.0271 18.2603 15.08 18.38C15.1306 18.5012 15.2017 18.6128 15.29 18.71C15.3834 18.8027 15.4943 18.876 15.6161 18.9258C15.7379 18.9755 15.8684 19.0008 16 19C16.1312 19.0034 16.2613 18.976 16.38 18.92C16.5012 18.8694 16.6128 18.7983 16.71 18.71C16.8488 18.5694 16.9428 18.3908 16.9801 18.1968C17.0175 18.0028 16.9966 17.8021 16.92 17.62C16.8724 17.4972 16.801 17.3851 16.71 17.29ZM16 5H8C7.73478 5 7.48043 5.10536 7.29289 5.29289C7.10536 5.48043 7 5.73478 7 6V10C7 10.2652 7.10536 10.5196 7.29289 10.7071C7.48043 10.8946 7.73478 11 8 11H16C16.2652 11 16.5196 10.8946 16.7071 10.7071C16.8946 10.5196 17 10.2652 17 10V6C17 5.73478 16.8946 5.48043 16.7071 5.29289C16.5196 5.10536 16.2652 5 16 5ZM15 9H9V7H15V9ZM18 1H6C5.20435 1 4.44129 1.31607 3.87868 1.87868C3.31607 2.44129 3 3.20435 3 4V20C3 20.7956 3.31607 21.5587 3.87868 22.1213C4.44129 22.6839 5.20435 23 6 23H18C18.7956 23 19.5587 22.6839 20.1213 22.1213C20.6839 21.5587 21 20.7956 21 20V4C21 3.20435 20.6839 2.44129 20.1213 1.87868C19.5587 1.31607 18.7956 1 18 1ZM19 20C19 20.2652 18.8946 20.5196 18.7071 20.7071C18.5196 20.8946 18.2652 21 18 21H6C5.73478 21 5.48043 20.8946 5.29289 20.7071C5.10536 20.5196 5 20.2652 5 20V4C5 3.73478 5.10536 3.48043 5.29289 3.29289C5.48043 3.10536 5.73478 3 6 3H18C18.2652 3 18.5196 3.10536 18.7071 3.29289C18.8946 3.48043 19 3.73478 19 4V20ZM16.55 13.17C16.4989 13.1304 16.4414 13.1 16.38 13.08C16.3205 13.0496 16.2562 13.0293 16.19 13.02C16.0617 12.9901 15.9283 12.9901 15.8 13.02L15.62 13.08L15.44 13.17L15.29 13.29C15.1073 13.4816 15.0037 13.7352 15 14C15.0008 14.1638 15.0418 14.3249 15.1195 14.4691C15.1971 14.6133 15.309 14.7362 15.4453 14.8271C15.5816 14.9179 15.7381 14.9739 15.9011 14.9901C16.064 15.0063 16.2285 14.9822 16.38 14.92C16.5012 14.8694 16.6128 14.7983 16.71 14.71C16.8027 14.6166 16.876 14.5057 16.9258 14.3839C16.9755 14.2621 17.0008 14.1316 17 14C16.9963 13.7352 16.8927 13.4816 16.71 13.29L16.55 13.17Z" />
</svg>
