<svg width="24" height="24" viewBox="0 0 24 24" xmlns="http://www.w3.org/2000/svg">
<path d="M18 12.15V3C18 2.73478 17.8946 2.48043 17.7071 2.29289C17.5196 2.10536 17.2652 2 17 2C16.7348 2 16.4804 2.10536 16.2929 2.29289C16.1054 2.48043 16 2.73478 16 3V12.15C15.134 12.4015 14.3731 12.9275 13.832 13.649C13.2909 14.3704 12.9989 15.2482 13 16.15C13 18.2 14.52 21.95 17 21.95C19.48 21.95 21 18.2 21 16.15C21.0011 15.2482 20.7091 14.3704 20.168 13.649C19.6269 12.9275 18.866 12.4015 18 12.15ZM17 20C16.2 20 15 17.73 15 16.2C14.9755 15.6436 15.172 15.1 15.5467 14.6879C15.9213 14.2758 16.4438 14.0285 17 14C17.5562 14.0285 18.0787 14.2758 18.4533 14.6879C18.828 15.1 19.0245 15.6436 19 16.2C19 17.73 17.8 20 17 20ZM10 2C9.73478 2 9.48043 2.10536 9.29289 2.29289C9.10536 2.48043 9 2.73478 9 3V8.46L8 9.13V3C8 2.73478 7.89464 2.48043 7.70711 2.29289C7.51957 2.10536 7.26522 2 7 2C6.73478 2 6.48043 2.10536 6.29289 2.29289C6.10536 2.48043 6 2.73478 6 3V9.13L5 8.46V3C5 2.73478 4.89464 2.48043 4.70711 2.29289C4.51957 2.10536 4.26522 2 4 2C3.73478 2 3.48043 2.10536 3.29289 2.29289C3.10536 2.48043 3 2.73478 3 3V9C3.00085 9.16471 3.04238 9.32665 3.12088 9.47145C3.19938 9.61625 3.31244 9.73941 3.45 9.83L6 11.54V21C6 21.2652 6.10536 21.5196 6.29289 21.7071C6.48043 21.8946 6.73478 22 7 22C7.26522 22 7.51957 21.8946 7.70711 21.7071C7.89464 21.5196 8 21.2652 8 21V11.54L10.55 9.83C10.6876 9.73941 10.8006 9.61625 10.8791 9.47145C10.9576 9.32665 10.9991 9.16471 11 9V3C11 2.73478 10.8946 2.48043 10.7071 2.29289C10.5196 2.10536 10.2652 2 10 2Z" />
</svg>
