<svg width="24" height="24" viewBox="0 0 24 24" xmlns="http://www.w3.org/2000/svg">
<path d="M18.9922 21.002H17.9922V19.335C17.9891 18.7627 17.8877 18.1952 17.6926 17.6572C17.6817 17.6279 17.6702 17.6006 17.6567 17.5727C17.4948 17.1311 17.271 16.7147 16.9922 16.3359L15.5923 14.4687C15.2039 13.9486 14.9934 13.3171 14.9922 12.668V11.6582C14.9945 10.8631 15.3101 10.101 15.8706 9.53706L16.5278 8.87983C17.2914 8.11208 17.782 7.11493 17.9241 6.04145C17.9247 6.02754 17.9321 6.01594 17.9321 6.0019L17.9293 5.98817C17.9641 5.77525 17.9851 5.56031 17.9922 5.34468V3.00195H18.9922C19.2574 3.00195 19.5118 2.8966 19.6993 2.70906C19.8868 2.52152 19.9922 2.26717 19.9922 2.00195C19.9922 1.73674 19.8868 1.48238 19.6993 1.29485C19.5118 1.10731 19.2574 1.00195 18.9922 1.00195H4.9922C4.72698 1.00195 4.47263 1.10731 4.28509 1.29485C4.09755 1.48238 3.9922 1.73674 3.9922 2.00195C3.9922 2.26717 4.09755 2.52152 4.28509 2.70906C4.47263 2.8966 4.72698 3.00195 4.9922 3.00195H5.9922V5.34468C5.9993 5.56031 6.0203 5.77525 6.05507 5.98817L6.05225 6.00195C6.05225 6.01595 6.05969 6.02759 6.06025 6.0415C6.2024 7.11497 6.69294 8.11213 7.45655 8.87988L8.11378 9.53711C8.67427 10.101 8.98989 10.8631 8.99219 11.6582V12.668C8.99089 13.317 8.78064 13.9484 8.39258 14.4687L6.9917 16.3359C6.71294 16.7149 6.48926 17.1314 6.32733 17.5731C6.31403 17.6008 6.30261 17.6277 6.29181 17.6568C6.09666 18.1949 5.99532 18.7625 5.99219 19.335V21.002H4.99219C4.72697 21.002 4.47262 21.1073 4.28508 21.2948C4.09754 21.4824 3.99219 21.7367 3.99219 22.002C3.99219 22.2672 4.09754 22.5215 4.28508 22.7091C4.47262 22.8966 4.72697 23.002 4.99219 23.002H18.9922C19.2574 23.002 19.5118 22.8966 19.6993 22.7091C19.8868 22.5215 19.9922 22.2672 19.9922 22.002C19.9922 21.7367 19.8868 21.4824 19.6993 21.2948C19.5118 21.1073 19.2574 21.002 18.9922 21.002ZM7.99219 5.00195V3.00195H15.9922V5.00195H7.99219ZM8.87061 7.46582C8.7297 7.32426 8.60343 7.16885 8.49372 7.00195H15.4907C15.3809 7.16885 15.2547 7.32426 15.1138 7.46582L14.4565 8.12305C13.6765 8.8985 13.1763 9.91122 13.0347 11.002H10.9497C10.808 9.91119 10.3079 8.89843 9.52783 8.12295L8.87061 7.46582ZM9.99268 15.668C10.5713 14.8926 10.9144 13.9671 10.981 13.002H13.0034C13.0699 13.9672 13.4132 14.8928 13.9922 15.668L14.9923 17.002H8.99182L9.99268 15.668ZM15.9922 21.002H7.99219V19.335C7.99497 19.2235 8.00406 19.1124 8.01941 19.002H15.965C15.9803 19.1124 15.9894 19.2235 15.9922 19.335V21.002Z" />
</svg>
