<svg width="24" height="24" viewBox="0 0 24 24" xmlns="http://www.w3.org/2000/svg">
<path d="M22.0001 11.05C22.0001 10.94 22.0001 10.83 22.0001 10.72L21.9101 10.12L21.8201 9.73C21.8201 9.56 21.7401 9.39 21.6901 9.22C21.6401 9.05 21.6101 8.95 21.5601 8.82C21.5322 8.74141 21.5088 8.66128 21.4901 8.58C21.4901 8.58 21.4901 8.58 21.4901 8.53C20.9837 7.18302 20.1954 5.9598 19.1779 4.94226C18.1603 3.92472 16.9371 3.13637 15.5901 2.63C15.5901 2.63 15.5901 2.63 15.5401 2.63L15.3101 2.56L14.8901 2.43C14.7401 2.43 14.5801 2.35 14.4301 2.31L13.9701 2.21L13.5101 2.14C13.3501 2.14 13.2001 2.14 13.0301 2.08C12.8601 2.02 12.6801 2.08 12.5101 2.08L12.0001 2H11.6101C11.4401 2 11.2601 2 11.0901 2C10.9201 2 10.7701 2 10.6101 2.06L10.1501 2.13L9.69012 2.23C9.54012 2.23 9.38012 2.3 9.23012 2.35L8.81012 2.48L8.58012 2.55C8.58012 2.55 8.58012 2.55 8.53012 2.55C7.18314 3.05637 5.95991 3.84472 4.94238 4.86226C3.92484 5.8798 3.13648 7.10302 2.63012 8.45C2.63012 8.45 2.63012 8.45 2.63012 8.5C2.61142 8.58128 2.58804 8.66141 2.56012 8.74C2.56012 8.87 2.47012 9 2.43012 9.14C2.39012 9.28 2.34012 9.48 2.30012 9.65L2.21012 10.04L2.12012 10.64C2.12012 10.75 2.12012 10.86 2.12012 10.97C2.12012 11.28 2.12012 11.6 2.12012 11.92C2.12012 12.24 2.12012 12.56 2.12012 12.87C2.12012 12.98 2.12012 13.09 2.12012 13.2L2.21012 13.8L2.30012 14.19C2.30012 14.36 2.38012 14.53 2.43012 14.7C2.48012 14.87 2.51012 14.97 2.56012 15.1C2.58804 15.1786 2.61142 15.2587 2.63012 15.34C2.63202 15.3633 2.63202 15.3867 2.63012 15.41C3.13208 16.7556 3.91798 17.9772 4.93434 18.9919C5.95071 20.0065 7.1737 20.7903 8.52012 21.29C8.52012 21.29 8.52012 21.29 8.57012 21.29L8.81012 21.36L9.21012 21.49L9.72012 21.62L10.1101 21.71L10.7101 21.8H11.0401C11.3501 21.8 11.6701 21.85 11.9901 21.85C12.3101 21.85 12.6301 21.85 12.9401 21.8H13.2701L13.8701 21.71L14.2601 21.62L14.7701 21.49L15.1701 21.36L15.4101 21.29C15.4101 21.29 15.4101 21.29 15.4601 21.29C16.8065 20.7903 18.0295 20.0065 19.0459 18.9919C20.0623 17.9772 20.8482 16.7556 21.3501 15.41C21.3482 15.3867 21.3482 15.3633 21.3501 15.34C21.3501 15.26 21.4001 15.18 21.4201 15.1C21.4401 15.02 21.5101 14.84 21.5501 14.7C21.5901 14.56 21.6401 14.36 21.6801 14.19L21.7701 13.8L21.8601 13.2C21.8601 13.09 21.8601 12.98 21.8601 12.87C21.8601 12.56 21.9101 12.24 21.9101 11.92C21.9101 11.6 22.0001 11.36 22.0001 11.05ZM15.7001 4.89C17.1865 5.65365 18.3965 6.8636 19.1601 8.35L16.3001 9.35C15.8855 8.68553 15.3246 8.12458 14.6601 7.71L15.7001 4.89ZM10.3401 4.19C10.5501 4.14 10.7501 4.11 10.9501 4.08H11.1901C11.7619 4.02 12.3384 4.02 12.9101 4.08H13.1501C13.3501 4.08 13.5501 4.14 13.7601 4.19H13.8201L12.8201 7.05C12.5489 7.00831 12.2744 6.99157 12.0001 7C11.7555 6.99968 11.5114 7.01975 11.2701 7.06L10.2701 4.2L10.3401 4.19ZM8.40012 4.89L9.40012 7.75C8.73201 8.16338 8.16755 8.72442 7.75012 9.39L4.89012 8.39C5.64702 6.88874 6.85766 5.66411 8.35012 4.89H8.40012ZM4.19012 13.71C4.14222 13.5127 4.1088 13.3122 4.09012 13.11C4.09012 13.02 4.09012 12.94 4.09012 12.86C4.02344 12.2886 4.02344 11.7114 4.09012 11.14C4.09012 11.06 4.09012 10.98 4.09012 10.89C4.1088 10.6878 4.14222 10.4873 4.19012 10.29C4.19012 10.29 4.19012 10.29 4.19012 10.23L7.05012 11.23C6.9701 11.7134 6.9701 12.2066 7.05012 12.69L4.19012 13.69C4.19012 13.69 4.19012 13.73 4.19012 13.71ZM8.35012 19.11C6.86372 18.3463 5.65377 17.1364 4.89012 15.65L7.75012 14.65C8.1647 15.3145 8.72564 15.8754 9.39012 16.29L8.35012 19.11ZM13.7101 19.81C13.5001 19.86 13.3001 19.89 13.1001 19.92H12.8601C12.2884 19.98 11.7119 19.98 11.1401 19.92H10.9001C10.7001 19.92 10.5001 19.86 10.2901 19.81H10.2301L11.2301 16.95C11.7135 17.03 12.2067 17.03 12.6901 16.95L13.6901 19.81H13.7101ZM13.0401 14.81C12.8701 14.87 12.7001 14.91 12.5401 14.95C12.2096 15.0116 11.8706 15.0116 11.5401 14.95C11.3801 14.95 11.2101 14.87 11.0401 14.81C10.618 14.6643 10.2338 14.4261 9.91552 14.113C9.59719 13.7999 9.35278 13.4196 9.20012 13C9.13959 12.8341 9.09276 12.6635 9.06012 12.49C8.99616 12.1597 8.99616 11.8203 9.06012 11.49C9.09055 11.3235 9.13401 11.1597 9.19012 11C9.34088 10.5853 9.58126 10.209 9.89412 9.89788C10.207 9.58675 10.5846 9.34846 11.0001 9.2C11.1701 9.14 11.3401 9.1 11.5001 9.06C11.8306 8.99843 12.1696 8.99843 12.5001 9.06C12.6601 9.06 12.8301 9.14 13.0001 9.2C13.4138 9.34971 13.7894 9.58855 14.1005 9.89962C14.4116 10.2107 14.6504 10.5863 14.8001 11C14.8606 11.1659 14.9075 11.3365 14.9401 11.51C15.0041 11.8403 15.0041 12.1797 14.9401 12.51C14.9075 12.6835 14.8606 12.8541 14.8001 13.02C14.6479 13.43 14.408 13.8017 14.0971 14.1092C13.7861 14.4166 13.4117 14.6524 13.0001 14.8L13.0401 14.81ZM15.6501 19.12L14.6501 16.26C15.3146 15.8454 15.8755 15.2845 16.2901 14.62L19.1501 15.62C18.3811 17.1236 17.1559 18.3453 15.6501 19.11V19.12ZM20.0001 12.86C20.0001 12.94 20.0001 13.02 20.0001 13.11C19.9814 13.3122 19.948 13.5127 19.9001 13.71C19.9001 13.71 19.9001 13.71 19.9001 13.77L17.0401 12.77C17.1201 12.2866 17.1201 11.7934 17.0401 11.31L19.9001 10.31C19.9001 10.31 19.9001 10.31 19.9001 10.37C19.948 10.5673 19.9814 10.7678 20.0001 10.97C20.0001 11.06 20.0001 11.14 20.0001 11.22C20.0668 11.7914 20.0668 12.3686 20.0001 12.94V12.86Z" />
</svg>
