<svg width="24" height="24" viewBox="0 0 24 24" xmlns="http://www.w3.org/2000/svg">
<path d="M21.7102 20.2899L3.71019 2.28994C3.52188 2.10164 3.26649 1.99585 3.00019 1.99585C2.73388 1.99585 2.47849 2.10164 2.29019 2.28994C2.10188 2.47824 1.99609 2.73364 1.99609 2.99994C1.99609 3.26624 2.10188 3.52164 2.29019 3.70994L4.00019 5.40994V18.9999C4.00019 19.7956 4.31626 20.5587 4.87887 21.1213C5.44147 21.6839 6.20454 21.9999 7.00019 21.9999H17.0002C17.4642 21.9984 17.9216 21.8892 18.3363 21.681C18.751 21.4728 19.1118 21.1712 19.3902 20.7999L20.2902 21.7099C20.3831 21.8037 20.4937 21.8781 20.6156 21.9288C20.7375 21.9796 20.8682 22.0057 21.0002 22.0057C21.1322 22.0057 21.2629 21.9796 21.3848 21.9288C21.5066 21.8781 21.6172 21.8037 21.7102 21.7099C21.8039 21.617 21.8783 21.5064 21.9291 21.3845C21.9798 21.2627 22.006 21.132 22.006 20.9999C22.006 20.8679 21.9798 20.7372 21.9291 20.6154C21.8783 20.4935 21.8039 20.3829 21.7102 20.2899ZM17.0002 19.9999H7.00019C6.73497 19.9999 6.48062 19.8946 6.29308 19.707C6.10554 19.5195 6.00019 19.2652 6.00019 18.9999V7.40994L17.9302 19.3399C17.8609 19.5316 17.7347 19.6975 17.5685 19.8155C17.4023 19.9335 17.204 19.9978 17.0002 19.9999ZM8.66019 3.99994H12.0002V6.99994C12.0002 7.79559 12.3163 8.55865 12.8789 9.12126C13.4415 9.68387 14.2045 9.99994 15.0002 9.99994H18.0002V13.3399C18.0002 13.6052 18.1055 13.8595 18.2931 14.047C18.4806 14.2346 18.735 14.3399 19.0002 14.3399C19.2654 14.3399 19.5198 14.2346 19.7073 14.047C19.8948 13.8595 20.0002 13.6052 20.0002 13.3399V8.99994C20.0002 8.99994 20.0002 8.99994 20.0002 8.93994C19.9898 8.84808 19.9697 8.75757 19.9402 8.66994V8.57994C19.8921 8.47712 19.828 8.38261 19.7502 8.29994L13.7502 2.29994C13.6675 2.22216 13.573 2.15802 13.4702 2.10994H13.3802L13.0602 1.99994H8.66019C8.39497 1.99994 8.14061 2.1053 7.95308 2.29283C7.76554 2.48037 7.66019 2.73472 7.66019 2.99994C7.66019 3.26516 7.76554 3.51951 7.95308 3.70705C8.14061 3.89458 8.39497 3.99994 8.66019 3.99994ZM14.0002 5.40994L16.5902 7.99994H15.0002C14.735 7.99994 14.4806 7.89458 14.2931 7.70705C14.1055 7.51951 14.0002 7.26516 14.0002 6.99994V5.40994Z" />
</svg>
