<svg width="24" height="24" viewBox="0 0 24 24" xmlns="http://www.w3.org/2000/svg">
<path d="M11.6602 6.99994H15.0002V7.99994C15.0002 8.26516 15.1055 8.51951 15.2931 8.70705C15.4806 8.89458 15.735 8.99994 16.0002 8.99994C16.2654 8.99994 16.5198 8.89458 16.7073 8.70705C16.8948 8.51951 17.0002 8.26516 17.0002 7.99994V6.99994H18.0002C18.2654 6.99994 18.5198 7.1053 18.7073 7.29283C18.8948 7.48037 19.0002 7.73472 19.0002 7.99994V10.9999H17.6602C17.395 10.9999 17.1406 11.1053 16.9531 11.2928C16.7655 11.4804 16.6602 11.7347 16.6602 11.9999C16.6602 12.2652 16.7655 12.5195 16.9531 12.707C17.1406 12.8946 17.395 12.9999 17.6602 12.9999H19.0002V14.3399C19.0002 14.6052 19.1055 14.8595 19.2931 15.047C19.4806 15.2346 19.735 15.3399 20.0002 15.3399C20.2654 15.3399 20.5198 15.2346 20.7073 15.047C20.8948 14.8595 21.0002 14.6052 21.0002 14.3399V7.99994C21.0002 7.20429 20.6841 6.44123 20.1215 5.87862C19.5589 5.31601 18.7958 4.99994 18.0002 4.99994H17.0002V3.99994C17.0002 3.73472 16.8948 3.48037 16.7073 3.29283C16.5198 3.1053 16.2654 2.99994 16.0002 2.99994C15.735 2.99994 15.4806 3.1053 15.2931 3.29283C15.1055 3.48037 15.0002 3.73472 15.0002 3.99994V4.99994H11.6602C11.395 4.99994 11.1406 5.1053 10.9531 5.29283C10.7655 5.48037 10.6602 5.73472 10.6602 5.99994C10.6602 6.26516 10.7655 6.51951 10.9531 6.70705C11.1406 6.89458 11.395 6.99994 11.6602 6.99994ZM21.7102 20.2899L20.1102 18.6899L3.71019 2.28994C3.61695 2.1967 3.50626 2.12274 3.38443 2.07228C3.26261 2.02182 3.13204 1.99585 3.00019 1.99585C2.86833 1.99585 2.73776 2.02182 2.61594 2.07228C2.49411 2.12274 2.38342 2.1967 2.29019 2.28994C2.10188 2.47824 1.99609 2.73364 1.99609 2.99994C1.99609 3.26624 2.10188 3.52164 2.29019 3.70994L4.20019 5.60994C3.82895 5.88837 3.52736 6.24912 3.31913 6.66383C3.11091 7.07854 3.00173 7.5359 3.00019 7.99994V17.9999C3.00019 18.7956 3.31626 19.5587 3.87887 20.1213C4.44147 20.6839 5.20454 20.9999 6.00019 20.9999H18.0002C18.4472 20.9973 18.8879 20.8948 19.2902 20.6999L20.2902 21.6999C20.3831 21.7937 20.4937 21.8681 20.6156 21.9188C20.7375 21.9696 20.8682 21.9957 21.0002 21.9957C21.1322 21.9957 21.2629 21.9696 21.3848 21.9188C21.5066 21.8681 21.6172 21.7937 21.7102 21.6999C21.8964 21.5126 22.001 21.2591 22.001 20.9949C22.001 20.7308 21.8964 20.4773 21.7102 20.2899ZM5.00019 7.99994C5.00231 7.79614 5.06667 7.59785 5.18462 7.43164C5.30258 7.26543 5.46851 7.13923 5.66019 7.06994L9.59019 10.9999H5.00019V7.99994ZM6.00019 18.9999C5.73497 18.9999 5.48062 18.8946 5.29308 18.707C5.10554 18.5195 5.00019 18.2652 5.00019 17.9999V12.9999H11.5902L17.5902 18.9999H6.00019Z" />
</svg>
