<svg width="24" height="24" viewBox="0 0 24 24" xmlns="http://www.w3.org/2000/svg">
<path d="M11.6202 7.91994C11.7404 7.97118 11.8695 7.99836 12.0002 7.99994H18.0002C18.2654 7.99994 18.5198 8.1053 18.7073 8.29283C18.8948 8.48037 19.0002 8.73472 19.0002 8.99994V14.3399C19.0002 14.6052 19.1055 14.8595 19.2931 15.047C19.4806 15.2346 19.735 15.3399 20.0002 15.3399C20.2654 15.3399 20.5198 15.2346 20.7073 15.047C20.8948 14.8595 21.0002 14.6052 21.0002 14.3399V8.99994C21.0002 8.20429 20.6841 7.44123 20.1215 6.87862C19.5589 6.31601 18.7958 5.99994 18.0002 5.99994H14.4102L16.7102 3.70994C16.8034 3.6167 16.8774 3.50601 16.9278 3.38419C16.9783 3.26237 17.0043 3.1318 17.0043 2.99994C17.0043 2.86808 16.9783 2.73751 16.9278 2.61569C16.8774 2.49387 16.8034 2.38318 16.7102 2.28994C16.6169 2.1967 16.5063 2.12274 16.3844 2.07228C16.2626 2.02182 16.132 1.99585 16.0002 1.99585C15.7339 1.99585 15.4785 2.10164 15.2902 2.28994L11.2902 6.28994C11.1991 6.38505 11.1278 6.49719 11.0802 6.61994C10.9802 6.8634 10.9802 7.13648 11.0802 7.37994C11.1817 7.62429 11.3758 7.81847 11.6202 7.91994ZM21.7102 20.2899L3.71019 2.28994C3.52188 2.10164 3.26649 1.99585 3.00019 1.99585C2.73388 1.99585 2.47849 2.10164 2.29019 2.28994C2.10188 2.47824 1.99609 2.73364 1.99609 2.99994C1.99609 3.26624 2.10188 3.52164 2.29019 3.70994L4.83019 6.23994C4.28794 6.4696 3.82528 6.85377 3.49986 7.34456C3.17444 7.83536 3.00067 8.41107 3.00019 8.99994V16.9999C3.00019 17.7956 3.31626 18.5587 3.87887 19.1213C4.44147 19.6839 5.20454 19.9999 6.00019 19.9999V20.9999C6.00019 21.2652 6.10554 21.5195 6.29308 21.707C6.48062 21.8946 6.73497 21.9999 7.00019 21.9999C7.2654 21.9999 7.51976 21.8946 7.70729 21.707C7.89483 21.5195 8.00019 21.2652 8.00019 20.9999V19.9999H16.0002V20.9999C16.0002 21.2652 16.1055 21.5195 16.2931 21.707C16.4806 21.8946 16.735 21.9999 17.0002 21.9999C17.2654 21.9999 17.5198 21.8946 17.7073 21.707C17.8948 21.5195 18.0002 21.2652 18.0002 20.9999V19.9999C18.1783 19.9954 18.3556 19.9753 18.5302 19.9399L20.2902 21.7099C20.3831 21.8037 20.4937 21.8781 20.6156 21.9288C20.7375 21.9796 20.8682 22.0057 21.0002 22.0057C21.1322 22.0057 21.2629 21.9796 21.3848 21.9288C21.5066 21.8781 21.6172 21.8037 21.7102 21.7099C21.8039 21.617 21.8783 21.5064 21.9291 21.3845C21.9798 21.2627 22.006 21.132 22.006 20.9999C22.006 20.8679 21.9798 20.7372 21.9291 20.6154C21.8783 20.4935 21.8039 20.3829 21.7102 20.2899ZM6.00019 17.9999C5.73497 17.9999 5.48062 17.8946 5.29308 17.707C5.10554 17.5195 5.00019 17.2652 5.00019 16.9999V8.99994C5.00019 8.73472 5.10554 8.48037 5.29308 8.29283C5.48062 8.1053 5.73497 7.99994 6.00019 7.99994H6.59019L16.5902 17.9999H6.00019Z" />
</svg>
