<svg width="24" height="24" viewBox="0 0 24 24" xmlns="http://www.w3.org/2000/svg">
<path d="M21.07 16.8299L19 14.7099C18.5547 14.2867 17.9931 14.0063 17.3872 13.9047C16.7813 13.8031 16.1589 13.885 15.6 14.1399L14.7 13.2399C15.7605 11.8229 16.2449 10.0566 16.0555 8.29678C15.8662 6.53694 15.0172 4.91417 13.6794 3.75514C12.3417 2.59612 10.6145 1.9869 8.84565 2.05013C7.07678 2.11335 5.39754 2.84433 4.14596 4.09591C2.89438 5.34749 2.1634 7.02674 2.10017 8.79561C2.03695 10.5645 2.64617 12.2916 3.80519 13.6294C4.96421 14.9671 6.58699 15.8161 8.34683 16.0055C10.1067 16.1948 11.8729 15.7105 13.29 14.6499L14.18 15.5399C13.8951 16.0996 13.793 16.7345 13.8881 17.3553C13.9831 17.976 14.2706 18.5513 14.71 18.9999L16.83 21.1199C17.3925 21.6817 18.155 21.9973 18.95 21.9973C19.745 21.9973 20.5075 21.6817 21.07 21.1199C21.3557 20.8405 21.5828 20.5069 21.7378 20.1385C21.8928 19.7702 21.9726 19.3746 21.9726 18.9749C21.9726 18.5753 21.8928 18.1797 21.7378 17.8114C21.5828 17.443 21.3557 17.1093 21.07 16.8299ZM12.59 12.5899C11.8902 13.2879 10.9993 13.7629 10.0297 13.9548C9.06017 14.1467 8.05549 14.0469 7.14259 13.6681C6.2297 13.2893 5.44955 12.6485 4.9007 11.8265C4.35185 11.0045 4.05893 10.0383 4.05893 9.04994C4.05893 8.06157 4.35185 7.09538 4.9007 6.2734C5.44955 5.45143 6.2297 4.81056 7.14259 4.43175C8.05549 4.05294 9.06017 3.95319 10.0297 4.14509C10.9993 4.33699 11.8902 4.81194 12.59 5.50994C13.0556 5.9744 13.4251 6.52615 13.6771 7.13361C13.9292 7.74106 14.0589 8.39227 14.0589 9.04994C14.0589 9.70761 13.9292 10.3588 13.6771 10.9663C13.4251 11.5737 13.0556 12.1255 12.59 12.5899ZM19.66 19.6599C19.567 19.7537 19.4564 19.8281 19.3346 19.8788C19.2127 19.9296 19.082 19.9557 18.95 19.9557C18.818 19.9557 18.6873 19.9296 18.5654 19.8788C18.4436 19.8281 18.333 19.7537 18.24 19.6599L16.12 17.5399C16.0263 17.447 15.9519 17.3364 15.9011 17.2145C15.8503 17.0927 15.8242 16.962 15.8242 16.8299C15.8242 16.6979 15.8503 16.5672 15.9011 16.4454C15.9519 16.3235 16.0263 16.2129 16.12 16.1199C16.213 16.0262 16.3236 15.9518 16.4454 15.9011C16.5673 15.8503 16.698 15.8241 16.83 15.8241C16.962 15.8241 17.0927 15.8503 17.2146 15.9011C17.3364 15.9518 17.447 16.0262 17.54 16.1199L19.66 18.2399C19.7537 18.3329 19.8281 18.4435 19.8789 18.5654C19.9296 18.6872 19.9558 18.8179 19.9558 18.9499C19.9558 19.082 19.9296 19.2127 19.8789 19.3345C19.8281 19.4564 19.7537 19.567 19.66 19.6599Z" />
</svg>
