<svg width="24" height="24" viewBox="0 0 24 24" xmlns="http://www.w3.org/2000/svg">
<path d="M16 2H8.00001C7.20436 2 6.4413 2.31607 5.87869 2.87868C5.31608 3.44129 5.00001 4.20435 5.00001 5V21C4.99931 21.1762 5.04518 21.3495 5.13299 21.5023C5.22079 21.655 5.3474 21.7819 5.50001 21.87C5.65203 21.9578 5.82447 22.004 6.00001 22.004C6.17554 22.004 6.34799 21.9578 6.50001 21.87L12 18.69L17.5 21.87C17.6524 21.9564 17.8248 22.0012 18 22C18.1752 22.0012 18.3476 21.9564 18.5 21.87C18.6526 21.7819 18.7792 21.655 18.867 21.5023C18.9548 21.3495 19.0007 21.1762 19 21V5C19 4.20435 18.6839 3.44129 18.1213 2.87868C17.5587 2.31607 16.7957 2 16 2ZM17 19.27L12.5 16.67C12.348 16.5822 12.1755 16.536 12 16.536C11.8245 16.536 11.652 16.5822 11.5 16.67L7.00001 19.27V5C7.00001 4.73478 7.10536 4.48043 7.2929 4.29289C7.48044 4.10536 7.73479 4 8.00001 4H16C16.2652 4 16.5196 4.10536 16.7071 4.29289C16.8947 4.48043 17 4.73478 17 5V19.27Z" />
</svg>
