<svg width="24" height="24" viewBox="0 0 24 24" xmlns="http://www.w3.org/2000/svg">
<path d="M16.9995 9.28003C17.3951 9.28003 17.7818 9.16273 18.1107 8.94297C18.4396 8.72321 18.6959 8.41085 18.8473 8.0454C18.9987 7.67995 19.0383 7.27781 18.9611 6.88985C18.8839 6.50189 18.6934 6.14552 18.4137 5.86582C18.134 5.58611 17.7777 5.39563 17.3897 5.31846C17.0017 5.24129 16.5996 5.2809 16.2342 5.43227C15.8687 5.58365 15.5563 5.83999 15.3366 6.16889C15.1168 6.49779 14.9995 6.88447 14.9995 7.28003C14.9995 7.81046 15.2102 8.31917 15.5853 8.69424C15.9604 9.06932 16.4691 9.28003 16.9995 9.28003ZM2.70952 13.92C2.90768 13.9834 3.09871 14.0672 3.27952 14.17C3.90145 14.5338 4.609 14.7256 5.32952 14.7256C6.05005 14.7256 6.75759 14.5338 7.37952 14.17C7.7706 13.9511 8.21132 13.8361 8.65952 13.8361C9.10773 13.8361 9.54845 13.9511 9.93952 14.17L10.1495 14.27C10.7563 14.5654 11.4262 14.708 12.1007 14.6854C12.7752 14.6627 13.4339 14.4755 14.0195 14.14C14.4106 13.9211 14.8513 13.8061 15.2995 13.8061C15.7477 13.8061 16.1884 13.9211 16.5795 14.14C17.2133 14.5022 17.9296 14.6951 18.6595 14.7C19.3639 14.6927 20.0538 14.4995 20.6595 14.14C20.8403 14.0372 21.0314 13.9534 21.2295 13.89C21.3773 13.8799 21.521 13.837 21.6502 13.7645C21.7794 13.692 21.8909 13.5917 21.9766 13.4708C22.0623 13.35 22.1201 13.2116 22.1457 13.0657C22.1714 12.9198 22.1643 12.77 22.125 12.6271C22.0857 12.4843 22.0152 12.3519 21.9185 12.2397C21.8218 12.1275 21.7013 12.0381 21.5659 11.9781C21.4304 11.9181 21.2833 11.8889 21.1352 11.8927C20.9871 11.8965 20.8417 11.9332 20.7095 12C20.3606 12.1083 20.0251 12.2559 19.7095 12.44C19.3903 12.6243 19.0282 12.7214 18.6595 12.7214C18.2909 12.7214 17.9288 12.6243 17.6095 12.44C16.9168 12.0492 16.1349 11.8439 15.3395 11.8439C14.5442 11.8439 13.7623 12.0492 13.0695 12.44C12.9754 12.486 12.8786 12.5261 12.7795 12.56L14.3395 11C14.3753 10.9537 14.4055 10.9034 14.4295 10.85C14.4748 10.8008 14.515 10.7472 14.5495 10.69C14.5542 10.6268 14.5542 10.5633 14.5495 10.5C14.5552 10.4368 14.5552 10.3732 14.5495 10.31C14.5543 10.2501 14.5543 10.1899 14.5495 10.13C14.5552 10.0668 14.5552 10.0032 14.5495 9.94003C14.5199 9.88124 14.4865 9.82446 14.4495 9.77003C14.4236 9.71243 14.3899 9.65861 14.3495 9.61003L11.2795 6.28003C11.1988 6.19198 11.1042 6.11767 10.9995 6.06003C10.9298 6.0508 10.8592 6.0508 10.7895 6.06003C10.7332 6.05088 10.6758 6.05088 10.6195 6.06003C10.4864 6.00647 10.3423 5.98588 10.1995 6.00003L6.65952 7.32003C6.41029 7.41029 6.20709 7.59582 6.09458 7.83584C5.98207 8.07585 5.96946 8.35072 6.05952 8.60003C6.14979 8.84927 6.33531 9.05247 6.57533 9.16498C6.81535 9.27748 7.09022 9.29009 7.33952 9.20003L10.2695 8.13003L12.2695 10.25L10.3695 12.15C9.73293 11.9026 9.04938 11.7993 8.36809 11.8477C7.6868 11.8962 7.02473 12.095 6.42952 12.43C6.11028 12.6143 5.74815 12.7114 5.37952 12.7114C5.0109 12.7114 4.64877 12.6143 4.32952 12.43C4.01394 12.2459 3.67846 12.0983 3.32952 11.99C3.20158 11.9423 3.0652 11.9213 2.92882 11.9283C2.79243 11.9352 2.65892 11.9701 2.53652 12.0306C2.41411 12.0912 2.30541 12.1762 2.21711 12.2804C2.12881 12.3845 2.06279 12.5057 2.02311 12.6364C1.98342 12.7671 1.97093 12.9045 1.98639 13.0402C2.00185 13.1758 2.04494 13.3069 2.113 13.4253C2.18106 13.5437 2.27265 13.6469 2.38213 13.7286C2.4916 13.8102 2.61664 13.8686 2.74952 13.9L2.70952 13.92ZM20.7095 17.01C20.3606 17.1183 20.0251 17.2659 19.7095 17.45C19.3903 17.6343 19.0282 17.7314 18.6595 17.7314C18.2909 17.7314 17.9288 17.6343 17.6095 17.45C16.9168 17.0592 16.1349 16.8539 15.3395 16.8539C14.5442 16.8539 13.7623 17.0592 13.0695 17.45C12.7476 17.6371 12.3819 17.7356 12.0095 17.7356C11.6372 17.7356 11.2715 17.6371 10.9495 17.45C10.2568 17.0592 9.47489 16.8539 8.67952 16.8539C7.88416 16.8539 7.10226 17.0592 6.40952 17.45C6.09028 17.6343 5.72815 17.7314 5.35952 17.7314C4.9909 17.7314 4.62877 17.6343 4.30952 17.45C3.99394 17.2659 3.65846 17.1183 3.30952 17.01C3.18158 16.9623 3.0452 16.9413 2.90882 16.9483C2.77243 16.9552 2.63892 16.9901 2.51652 17.0506C2.39411 17.1112 2.28541 17.1962 2.19711 17.3004C2.10881 17.4045 2.04279 17.5257 2.00311 17.6564C1.96342 17.7871 1.95093 17.9245 1.96639 18.0602C1.98185 18.1958 2.02494 18.3269 2.093 18.4453C2.16106 18.5637 2.25265 18.6669 2.36213 18.7486C2.4716 18.8302 2.59664 18.8886 2.72952 18.92C2.92768 18.9834 3.11871 19.0672 3.29952 19.17C3.92145 19.5338 4.629 19.7256 5.34952 19.7256C6.07005 19.7256 6.77759 19.5338 7.39952 19.17C7.7906 18.9511 8.23132 18.8361 8.67952 18.8361C9.12773 18.8361 9.56845 18.9511 9.95952 19.17C10.5868 19.5287 11.2969 19.7174 12.0195 19.7174C12.7421 19.7174 13.4522 19.5287 14.0795 19.17C14.4706 18.9511 14.9113 18.8361 15.3595 18.8361C15.8077 18.8361 16.2484 18.9511 16.6395 19.17C17.2733 19.5322 17.9896 19.7251 18.7195 19.73C19.4239 19.7227 20.1138 19.5295 20.7195 19.17C20.9003 19.0672 21.0914 18.9834 21.2895 18.92C21.4156 18.8819 21.5329 18.8194 21.6348 18.736C21.7367 18.6525 21.8212 18.5499 21.8834 18.4338C21.9456 18.3177 21.9844 18.1905 21.9974 18.0595C22.0105 17.9284 21.9976 17.7961 21.9595 17.67C21.9214 17.544 21.8589 17.4266 21.7755 17.3247C21.692 17.2228 21.5894 17.1384 21.4733 17.0761C21.3572 17.0139 21.23 16.9752 21.099 16.9621C20.9679 16.9491 20.8356 16.9619 20.7095 17V17.01Z" />
</svg>
