<svg width="24" height="24" viewBox="0 0 24 24" xmlns="http://www.w3.org/2000/svg">
<path d="M12.43 4.10003C12.2676 4.02977 12.0895 4.00386 11.9138 4.02495C11.7381 4.04603 11.5712 4.11335 11.43 4.22003L6.65 8.00003H3C2.73478 8.00003 2.48043 8.10539 2.29289 8.29293C2.10536 8.48046 2 8.73482 2 9.00003V15C2 15.2652 2.10536 15.5196 2.29289 15.7071C2.48043 15.8947 2.73478 16 3 16H6.65L11.38 19.78C11.5559 19.9212 11.7744 19.9987 12 20C12.1494 20.0025 12.297 19.9682 12.43 19.9C12.6002 19.819 12.744 19.6915 12.8448 19.5323C12.9457 19.373 12.9995 19.1885 13 19V5.00003C12.9995 4.81155 12.9457 4.62705 12.8448 4.46781C12.744 4.30857 12.6002 4.18108 12.43 4.10003ZM11 16.92L7.62 14.22C7.44406 14.0789 7.22556 14.0013 7 14H4V10H7C7.22556 9.99872 7.44406 9.92119 7.62 9.78003L11 7.08003V16.92ZM15.14 4.09003C15.0087 4.07165 14.875 4.07931 14.7467 4.11258C14.6183 4.14585 14.4977 4.20407 14.3919 4.28393C14.286 4.36379 14.1969 4.46372 14.1297 4.57801C14.0625 4.6923 14.0184 4.81871 14 4.95003C13.9816 5.08135 13.9893 5.21501 14.0225 5.34337C14.0558 5.47173 14.114 5.59229 14.1939 5.69814C14.3552 5.91194 14.5948 6.0529 14.86 6.09003C16.2762 6.30828 17.5676 7.02616 18.5004 8.11382C19.4333 9.20148 19.9462 10.5871 19.9462 12.02C19.9462 13.453 19.4333 14.8386 18.5004 15.9262C17.5676 17.0139 16.2762 17.7318 14.86 17.95C14.5948 17.9686 14.3478 18.0918 14.1734 18.2924C13.999 18.4931 13.9114 18.7548 13.93 19.02C13.9486 19.2852 14.0717 19.5322 14.2724 19.7066C14.4731 19.881 14.7348 19.9686 15 19.95H15.14C17.0328 19.6637 18.7602 18.7081 20.0086 17.2567C21.2569 15.8053 21.9434 13.9544 21.9434 12.04C21.9434 10.1257 21.2569 8.27475 20.0086 6.82337C18.7602 5.372 17.0328 4.41638 15.14 4.13003V4.09003ZM14.68 13.87C14.4148 13.9125 14.1773 14.0585 14.0198 14.2761C13.8622 14.4936 13.7976 14.7648 13.84 15.03C13.8824 15.2952 14.0285 15.5327 14.246 15.6903C14.4636 15.8478 14.7348 15.9125 15 15.87C15.1085 15.8688 15.2163 15.852 15.32 15.82C16.099 15.5438 16.7733 15.033 17.2502 14.3579C17.7271 13.6828 17.9832 12.8766 17.9832 12.05C17.9832 11.2235 17.7271 10.4172 17.2502 9.74214C16.7733 9.06705 16.099 8.55627 15.32 8.28003C15.068 8.19516 14.7927 8.21386 14.5545 8.33201C14.3164 8.45015 14.1349 8.65808 14.05 8.91003C13.9651 9.16199 13.9838 9.43734 14.102 9.67551C14.2201 9.91368 14.428 10.0952 14.68 10.18C15.0595 10.324 15.3862 10.5799 15.6167 10.9139C15.8472 11.2479 15.9707 11.6442 15.9707 12.05C15.9707 12.4559 15.8472 12.8521 15.6167 13.1861C15.3862 13.5201 15.0595 13.7761 14.68 13.92V13.87Z" />
</svg>
