<svg width="24" height="24" viewBox="0 0 24 24" xmlns="http://www.w3.org/2000/svg">
<path d="M8.90039 17C8.70261 17 8.50927 17.0587 8.34482 17.1685C8.18037 17.2784 8.0522 17.4346 7.97651 17.6173C7.90082 17.8001 7.88102 18.0011 7.91961 18.1951C7.95819 18.3891 8.05343 18.5673 8.19328 18.7071C8.33314 18.847 8.51132 18.9422 8.7053 18.9808C8.89928 19.0194 9.10035 18.9996 9.28307 18.9239C9.4658 18.8482 9.62198 18.72 9.73186 18.5556C9.84174 18.3911 9.90039 18.1978 9.90039 18C9.90039 17.7348 9.79503 17.4804 9.6075 17.2929C9.41996 17.1054 9.16561 17 8.90039 17ZM5.90039 17C5.70261 17 5.50927 17.0587 5.34482 17.1685C5.18037 17.2784 5.0522 17.4346 4.97651 17.6173C4.90082 17.8001 4.88102 18.0011 4.91961 18.1951C4.95819 18.3891 5.05343 18.5673 5.19328 18.7071C5.33314 18.847 5.51132 18.9422 5.7053 18.9808C5.89928 19.0194 6.10035 18.9996 6.28307 18.9239C6.4658 18.8482 6.62198 18.72 6.73186 18.5556C6.84174 18.3911 6.90039 18.1978 6.90039 18C6.90039 17.7348 6.79503 17.4804 6.6075 17.2929C6.41996 17.1054 6.16561 17 5.90039 17ZM11.9004 17C11.7026 17 11.5093 17.0587 11.3448 17.1685C11.1804 17.2784 11.0522 17.4346 10.9765 17.6173C10.9008 17.8001 10.881 18.0011 10.9196 18.1951C10.9582 18.3891 11.0534 18.5673 11.1933 18.7071C11.3331 18.847 11.5113 18.9422 11.7053 18.9808C11.8993 19.0194 12.1003 18.9996 12.2831 18.9239C12.4658 18.8482 12.622 18.72 12.7319 18.5556C12.8417 18.3911 12.9004 18.1978 12.9004 18C12.9004 17.7348 12.795 17.4804 12.6075 17.2929C12.42 17.1054 12.1656 17 11.9004 17ZM15.0004 8.50001C15.0883 8.34848 15.2145 8.22269 15.3663 8.13525C15.5181 8.04781 15.6902 8.00179 15.8654 8.00179C16.0406 8.00179 16.2127 8.04781 16.3645 8.13525C16.5163 8.22269 16.6425 8.34848 16.7304 8.50001C16.8623 8.72875 17.0793 8.89602 17.3341 8.96534C17.5889 9.03465 17.8608 9.00039 18.0904 8.87001C18.2083 8.8081 18.3127 8.72325 18.3974 8.62043C18.4822 8.51761 18.5455 8.39891 18.5837 8.27128C18.6218 8.14366 18.6342 8.00969 18.6199 7.87725C18.6056 7.7448 18.5649 7.61655 18.5004 7.50001C18.2373 7.04305 17.8585 6.66349 17.4021 6.39957C16.9456 6.13564 16.4277 5.99668 15.9004 5.99668C15.3731 5.99668 14.8552 6.13564 14.3987 6.39957C13.9423 6.66349 13.5634 7.04305 13.3004 7.50001C13.216 7.72089 13.2125 7.96455 13.2907 8.18771C13.3689 8.41088 13.5236 8.59912 13.7275 8.71901C13.9313 8.83891 14.171 8.88269 14.404 8.8426C14.6371 8.80251 14.8484 8.68113 15.0004 8.50001ZM22.0004 5.50001C21.3857 4.4369 20.5022 3.5542 19.4385 2.94052C18.3748 2.32684 17.1684 2.00378 15.9404 2.00378C14.7124 2.00378 13.506 2.32684 12.4423 2.94052C11.3786 3.5542 10.4951 4.4369 9.88039 5.50001C9.81427 5.61415 9.77139 5.74024 9.7542 5.87101C9.73702 6.00179 9.74588 6.13468 9.78027 6.26202C9.81466 6.38936 9.8739 6.50864 9.95459 6.61298C10.0353 6.71733 10.1358 6.80468 10.2504 6.87001C10.388 6.94836 10.5422 6.99292 10.7004 7.00001C10.8766 7.00071 11.0499 6.95484 11.2026 6.86704C11.3554 6.77923 11.4823 6.65262 11.5704 6.50001C12.0092 5.73998 12.6404 5.10885 13.4005 4.67004C14.1606 4.23124 15.0228 4.00023 15.9004 4.00023C16.778 4.00023 17.6402 4.23124 18.4003 4.67004C19.1604 5.10885 19.7915 5.73998 20.2304 6.50001C20.2957 6.6146 20.3831 6.71513 20.4874 6.79582C20.5918 6.8765 20.711 6.93575 20.8384 6.97014C20.9657 7.00453 21.0986 7.01339 21.2294 6.9962C21.3602 6.97902 21.4863 6.93613 21.6004 6.87001C21.7175 6.80723 21.8209 6.72175 21.9046 6.61854C21.9883 6.51534 22.0506 6.39649 22.0878 6.26894C22.1251 6.14139 22.1365 6.0077 22.1215 5.87568C22.1065 5.74365 22.0653 5.61594 22.0004 5.50001ZM17.9004 14H16.9004V11C16.9004 10.7348 16.795 10.4804 16.6075 10.2929C16.42 10.1054 16.1656 10 15.9004 10C15.6352 10 15.3808 10.1054 15.1933 10.2929C15.0057 10.4804 14.9004 10.7348 14.9004 11V14H4.90039C4.10474 14 3.34168 14.3161 2.77907 14.8787C2.21646 15.4413 1.90039 16.2044 1.90039 17V19C1.90039 19.7957 2.21646 20.5587 2.77907 21.1213C3.34168 21.6839 4.10474 22 4.90039 22H17.9004C18.696 22 19.4591 21.6839 20.0217 21.1213C20.5843 20.5587 20.9004 19.7957 20.9004 19V17C20.9004 16.2044 20.5843 15.4413 20.0217 14.8787C19.4591 14.3161 18.696 14 17.9004 14ZM18.9004 19C18.9004 19.2652 18.795 19.5196 18.6075 19.7071C18.42 19.8947 18.1656 20 17.9004 20H4.90039C4.63517 20 4.38082 19.8947 4.19328 19.7071C4.00575 19.5196 3.90039 19.2652 3.90039 19V17C3.90039 16.7348 4.00575 16.4804 4.19328 16.2929C4.38082 16.1054 4.63517 16 4.90039 16H17.9004C18.1656 16 18.42 16.1054 18.6075 16.2929C18.795 16.4804 18.9004 16.7348 18.9004 17V19Z" />
</svg>
