<svg width="24" height="24" viewBox="0 0 24 24" xmlns="http://www.w3.org/2000/svg">
<path d="M7 10C6.80222 10 6.60888 10.0586 6.44443 10.1685C6.27998 10.2784 6.15181 10.4346 6.07612 10.6173C6.00043 10.8 5.98063 11.0011 6.01921 11.1951C6.0578 11.3891 6.15304 11.5673 6.29289 11.7071C6.43275 11.847 6.61093 11.9422 6.80491 11.9808C6.99889 12.0194 7.19996 11.9996 7.38268 11.9239C7.56541 11.8482 7.72159 11.72 7.83147 11.5556C7.94135 11.3911 8 11.1978 8 11C8 10.7348 7.89464 10.4804 7.70711 10.2929C7.51957 10.1054 7.26522 10 7 10ZM19 6H18V3C18 2.73478 17.8946 2.48043 17.7071 2.29289C17.5196 2.10536 17.2652 2 17 2H7C6.73478 2 6.48043 2.10536 6.29289 2.29289C6.10536 2.48043 6 2.73478 6 3V6H5C4.20435 6 3.44129 6.31607 2.87868 6.87868C2.31607 7.44129 2 8.20435 2 9V15C2 15.7956 2.31607 16.5587 2.87868 17.1213C3.44129 17.6839 4.20435 18 5 18H6V21C6 21.2652 6.10536 21.5196 6.29289 21.7071C6.48043 21.8946 6.73478 22 7 22H17C17.2652 22 17.5196 21.8946 17.7071 21.7071C17.8946 21.5196 18 21.2652 18 21V18H19C19.7956 18 20.5587 17.6839 21.1213 17.1213C21.6839 16.5587 22 15.7956 22 15V9C22 8.20435 21.6839 7.44129 21.1213 6.87868C20.5587 6.31607 19.7956 6 19 6ZM8 4H16V6H8V4ZM16 20H8V16H16V20ZM20 15C20 15.2652 19.8946 15.5196 19.7071 15.7071C19.5196 15.8946 19.2652 16 19 16H18V15C18 14.7348 17.8946 14.4804 17.7071 14.2929C17.5196 14.1054 17.2652 14 17 14H7C6.73478 14 6.48043 14.1054 6.29289 14.2929C6.10536 14.4804 6 14.7348 6 15V16H5C4.73478 16 4.48043 15.8946 4.29289 15.7071C4.10536 15.5196 4 15.2652 4 15V9C4 8.73478 4.10536 8.48043 4.29289 8.29289C4.48043 8.10536 4.73478 8 5 8H19C19.2652 8 19.5196 8.10536 19.7071 8.29289C19.8946 8.48043 20 8.73478 20 9V15Z" />
</svg>
