<svg width="24" height="24" viewBox="0 0 24 24" xmlns="http://www.w3.org/2000/svg">
<path d="M6.77019 9.15L12.2102 3.71C12.3034 3.61676 12.3774 3.50607 12.4278 3.38425C12.4783 3.26243 12.5043 3.13186 12.5043 3C12.5043 2.86814 12.4783 2.73758 12.4278 2.61575C12.3774 2.49393 12.3034 2.38324 12.2102 2.29C12.1169 2.19676 12.0063 2.1228 11.8844 2.07234C11.7626 2.02188 11.632 1.99591 11.5002 1.99591C11.2339 1.99591 10.9785 2.1017 10.7902 2.29L6.06019 7L4.21019 5.17C4.02188 4.9817 3.76649 4.87591 3.50019 4.87591C3.23388 4.87591 2.97849 4.9817 2.79019 5.17C2.60188 5.35831 2.49609 5.6137 2.49609 5.88C2.49609 6.1463 2.60188 6.4017 2.79019 6.59L5.35019 9.15C5.44315 9.24373 5.55375 9.31813 5.67561 9.36889C5.79747 9.41966 5.92817 9.4458 6.06019 9.4458C6.1922 9.4458 6.3229 9.41966 6.44476 9.36889C6.56662 9.31813 6.67722 9.24373 6.77019 9.15ZM18.5002 6H13.0002C12.735 6 12.4806 6.10536 12.2931 6.2929C12.1055 6.48043 12.0002 6.73479 12.0002 7C12.0002 7.26522 12.1055 7.51957 12.2931 7.70711C12.4806 7.89465 12.735 8 13.0002 8H18.5002C18.7654 8 19.0198 8.10536 19.2073 8.2929C19.3948 8.48043 19.5002 8.73479 19.5002 9V18.72L17.9302 17.27C17.7458 17.0973 17.5028 17.0009 17.2502 17H8.50019C8.23497 17 7.98061 16.8946 7.79308 16.7071C7.60554 16.5196 7.50019 16.2652 7.50019 16V12.5C7.50019 12.2348 7.39483 11.9804 7.20729 11.7929C7.01976 11.6054 6.7654 11.5 6.50019 11.5C6.23497 11.5 5.98062 11.6054 5.79308 11.7929C5.60554 11.9804 5.50019 12.2348 5.50019 12.5V16C5.50019 16.7957 5.81626 17.5587 6.37887 18.1213C6.94147 18.6839 7.70454 19 8.50019 19H16.8602L19.8602 21.73C20.0446 21.9027 20.2876 21.9991 20.5402 22C20.6773 21.9985 20.813 21.9714 20.9402 21.92C21.1191 21.8419 21.2712 21.7132 21.3778 21.5498C21.4844 21.3863 21.5409 21.1952 21.5402 21V9C21.5402 8.60265 21.4613 8.20925 21.3081 7.84264C21.1548 7.47603 20.9302 7.14352 20.6474 6.86441C20.3646 6.58531 20.0291 6.36517 19.6605 6.21678C19.2919 6.06839 18.8975 5.9947 18.5002 6Z" />
</svg>
