<svg width="24" height="24" viewBox="0 0 24 24" xmlns="http://www.w3.org/2000/svg">
<path d="M12 9C11.7348 9 11.4804 9.10536 11.2929 9.29289C11.1054 9.48043 11 9.73478 11 10V13C11 13.2652 11.1054 13.5196 11.2929 13.7071C11.4804 13.8946 11.7348 14 12 14C12.2652 14 12.5196 13.8946 12.7071 13.7071C12.8946 13.5196 13 13.2652 13 13V10C13 9.73478 12.8946 9.48043 12.7071 9.29289C12.5196 9.10536 12.2652 9 12 9ZM19 2H5C4.20435 2 3.44129 2.31607 2.87868 2.87868C2.31607 3.44129 2 4.20435 2 5V15C2 15.7956 2.31607 16.5587 2.87868 17.1213C3.44129 17.6839 4.20435 18 5 18H16.59L20.29 21.71C20.3834 21.8027 20.4943 21.876 20.6161 21.9258C20.7379 21.9755 20.8684 22.0008 21 22C21.1312 22.0034 21.2613 21.976 21.38 21.92C21.5626 21.845 21.7189 21.7176 21.8293 21.5539C21.9396 21.3901 21.999 21.1974 22 21V5C22 4.20435 21.6839 3.44129 21.1213 2.87868C20.5587 2.31607 19.7956 2 19 2ZM20 18.59L17.71 16.29C17.6166 16.1973 17.5057 16.124 17.3839 16.0742C17.2621 16.0245 17.1316 15.9992 17 16H5C4.73478 16 4.48043 15.8946 4.29289 15.7071C4.10536 15.5196 4 15.2652 4 15V5C4 4.73478 4.10536 4.48043 4.29289 4.29289C4.48043 4.10536 4.73478 4 5 4H19C19.2652 4 19.5196 4.10536 19.7071 4.29289C19.8946 4.48043 20 4.73478 20 5V18.59ZM12 6C11.8022 6 11.6089 6.05865 11.4444 6.16853C11.28 6.27841 11.1518 6.43459 11.0761 6.61732C11.0004 6.80004 10.9806 7.00111 11.0192 7.19509C11.0578 7.38907 11.153 7.56725 11.2929 7.70711C11.4327 7.84696 11.6109 7.9422 11.8049 7.98079C11.9989 8.01937 12.2 7.99957 12.3827 7.92388C12.5654 7.84819 12.7216 7.72002 12.8315 7.55557C12.9414 7.39112 13 7.19778 13 7C13 6.73478 12.8946 6.48043 12.7071 6.29289C12.5196 6.10536 12.2652 6 12 6Z" />
</svg>
