<svg width="24" height="24" viewBox="0 0 24 24" xmlns="http://www.w3.org/2000/svg">
<path d="M14.58 11.3C15.0345 10.7319 15.2846 10.0275 15.29 9.3C15.29 8.42744 14.9434 7.59061 14.3264 6.97362C13.7094 6.35662 12.8726 6.01 12 6.01C11.1274 6.01 10.2906 6.35662 9.67362 6.97362C9.05662 7.59061 8.71 8.42744 8.71 9.3C8.71542 10.0275 8.96551 10.7319 9.42 11.3C8.52863 11.8424 7.8293 12.6502 7.42 13.61C7.36271 13.7318 7.3306 13.8639 7.32558 13.9984C7.32056 14.1329 7.34274 14.267 7.39079 14.3927C7.43884 14.5184 7.51177 14.6331 7.60521 14.73C7.69865 14.8268 7.81068 14.9038 7.93459 14.9563C8.0585 15.0089 8.19174 15.0358 8.32632 15.0357C8.4609 15.0355 8.59406 15.0081 8.71782 14.9552C8.84157 14.9023 8.95338 14.825 9.04655 14.7279C9.13971 14.6308 9.21231 14.5159 9.26 14.39C9.48983 13.8527 9.87157 13.3943 10.3583 13.071C10.8451 12.7477 11.4157 12.5735 12 12.57C12.586 12.5716 13.1588 12.7448 13.6475 13.0683C14.1362 13.3917 14.5195 13.8512 14.75 14.39C14.8266 14.5707 14.9546 14.725 15.1182 14.8334C15.2818 14.9419 15.4737 14.9998 15.67 15C15.8038 14.9975 15.936 14.9704 16.06 14.92C16.3039 14.8164 16.4966 14.6203 16.596 14.3747C16.6954 14.129 16.6932 13.854 16.59 13.61C16.1781 12.6487 15.4751 11.8408 14.58 11.3ZM12 10.57C11.7444 10.57 11.4946 10.4941 11.2823 10.3519C11.0699 10.2097 10.9046 10.0076 10.8073 9.77132C10.7099 9.53502 10.685 9.27514 10.7356 9.02463C10.7862 8.77413 10.91 8.5443 11.0914 8.36429C11.2728 8.18429 11.5036 8.06222 11.7545 8.01358C12.0054 7.96494 12.2651 7.99192 12.5006 8.09109C12.7362 8.19026 12.9369 8.35716 13.0775 8.57061C13.218 8.78406 13.292 9.03445 13.29 9.29C13.2874 9.63039 13.1503 9.95595 12.9087 10.1957C12.667 10.4355 12.3404 10.57 12 10.57ZM18 2H6C5.20435 2 4.44129 2.31607 3.87868 2.87868C3.31607 3.44129 3 4.20435 3 5V16C3 16.7956 3.31607 17.5587 3.87868 18.1213C4.44129 18.6839 5.20435 19 6 19H8.59L11.29 21.71C11.3834 21.8027 11.4943 21.876 11.6161 21.9258C11.7379 21.9755 11.8684 22.0008 12 22C12.2383 22 12.4689 21.9149 12.65 21.76L15.87 19H18C18.7956 19 19.5587 18.6839 20.1213 18.1213C20.6839 17.5587 21 16.7956 21 16V5C21 4.20435 20.6839 3.44129 20.1213 2.87868C19.5587 2.31607 18.7956 2 18 2ZM19 16C19 16.2652 18.8946 16.5196 18.7071 16.7071C18.5196 16.8946 18.2652 17 18 17H15.5C15.2617 17 15.0311 17.0851 14.85 17.24L12.05 19.64L9.71 17.29C9.61656 17.1973 9.50574 17.124 9.38391 17.0742C9.26207 17.0245 9.13161 16.9992 9 17H6C5.73478 17 5.48043 16.8946 5.29289 16.7071C5.10536 16.5196 5 16.2652 5 16V5C5 4.73478 5.10536 4.48043 5.29289 4.29289C5.48043 4.10536 5.73478 4 6 4H18C18.2652 4 18.5196 4.10536 18.7071 4.29289C18.8946 4.48043 19 4.73478 19 5V16Z" />
</svg>
