<svg width="24" height="24" viewBox="0 0 24 24" xmlns="http://www.w3.org/2000/svg">
<path d="M12 6.35C11.4286 6.05705 10.7798 5.95062 10.1448 6.04569C9.50975 6.14077 8.92052 6.43256 8.46 6.88C7.8982 7.4425 7.58264 8.205 7.58264 9C7.58264 9.795 7.8982 10.5575 8.46 11.12L11.29 14C11.383 14.0937 11.4936 14.1681 11.6154 14.2189C11.7373 14.2697 11.868 14.2958 12 14.2958C12.132 14.2958 12.2627 14.2697 12.3846 14.2189C12.5064 14.1681 12.617 14.0937 12.71 14L15.54 11.17C16.1018 10.6075 16.4174 9.845 16.4174 9.05C16.4174 8.255 16.1018 7.4925 15.54 6.93C15.0852 6.47439 14.4988 6.17326 13.8635 6.06918C13.2283 5.9651 12.5764 6.06333 12 6.35ZM14.12 9.71L12 11.83L9.88 9.71C9.78627 9.61704 9.71188 9.50644 9.66111 9.38458C9.61034 9.26272 9.5842 9.13201 9.5842 9C9.5842 8.86799 9.61034 8.73728 9.66111 8.61542C9.71188 8.49356 9.78627 8.38296 9.88 8.29C10.0674 8.10375 10.3208 7.99921 10.585 7.99921C10.8492 7.99921 11.1026 8.10375 11.29 8.29C11.383 8.38373 11.4936 8.45812 11.6154 8.50889C11.7373 8.55966 11.868 8.5858 12 8.5858C12.132 8.5858 12.2627 8.55966 12.3846 8.50889C12.5064 8.45812 12.617 8.38373 12.71 8.29C12.8974 8.10375 13.1508 7.99921 13.415 7.99921C13.6792 7.99921 13.9326 8.10375 14.12 8.29C14.2137 8.38296 14.2881 8.49356 14.3389 8.61542C14.3897 8.73728 14.4158 8.86799 14.4158 9C14.4158 9.13201 14.3897 9.26272 14.3389 9.38458C14.2881 9.50644 14.2137 9.61704 14.12 9.71ZM19 2H5C4.20435 2 3.44129 2.31607 2.87868 2.87868C2.31607 3.44129 2 4.20435 2 5V15C2 15.7956 2.31607 16.5587 2.87868 17.1213C3.44129 17.6839 4.20435 18 5 18H16.59L20.29 21.71C20.3834 21.8027 20.4943 21.876 20.6161 21.9258C20.7379 21.9755 20.8684 22.0008 21 22C21.1312 22.0034 21.2613 21.976 21.38 21.92C21.5626 21.845 21.7189 21.7176 21.8293 21.5539C21.9396 21.3901 21.999 21.1974 22 21V5C22 4.20435 21.6839 3.44129 21.1213 2.87868C20.5587 2.31607 19.7956 2 19 2ZM20 18.59L17.71 16.29C17.6166 16.1973 17.5057 16.124 17.3839 16.0742C17.2621 16.0245 17.1316 15.9992 17 16H5C4.73478 16 4.48043 15.8946 4.29289 15.7071C4.10536 15.5196 4 15.2652 4 15V5C4 4.73478 4.10536 4.48043 4.29289 4.29289C4.48043 4.10536 4.73478 4 5 4H19C19.2652 4 19.5196 4.10536 19.7071 4.29289C19.8946 4.48043 20 4.73478 20 5V18.59Z" />
</svg>
