<svg width="24" height="24" viewBox="0 0 24 24" xmlns="http://www.w3.org/2000/svg">
<path d="M19 2H5C4.20435 2 3.44129 2.31607 2.87868 2.87868C2.31607 3.44129 2 4.20435 2 5V15C2 15.7956 2.31607 16.5587 2.87868 17.1213C3.44129 17.6839 4.20435 18 5 18H16.59L20.29 21.71C20.3834 21.8027 20.4943 21.876 20.6161 21.9258C20.7379 21.9755 20.8684 22.0008 21 22C21.1312 22.0034 21.2613 21.976 21.38 21.92C21.5626 21.845 21.7189 21.7176 21.8293 21.5539C21.9396 21.3901 21.999 21.1974 22 21V5C22 4.20435 21.6839 3.44129 21.1213 2.87868C20.5587 2.31607 19.7956 2 19 2ZM5.77 16H5C4.73478 16 4.48043 15.8946 4.29289 15.7071C4.10536 15.5196 4 15.2652 4 15V14.58L7.3 11.29C7.48736 11.1037 7.74081 10.9992 8.005 10.9992C8.26919 10.9992 8.52264 11.1037 8.71 11.29L9.58 12.16L5.77 16ZM20 18.59L17.71 16.29C17.6166 16.1973 17.5057 16.124 17.3839 16.0742C17.2621 16.0245 17.1316 15.9992 17 16H8.59L15.3 9.29C15.4869 9.10677 15.7382 9.00414 16 9.00414C16.2618 9.00414 16.5131 9.10677 16.7 9.29L20 12.58V18.59ZM20 9.76L18.12 7.89C17.5575 7.3282 16.795 7.01264 16 7.01264C15.205 7.01264 14.4425 7.3282 13.88 7.89L11 10.76L10.12 9.89C9.55006 9.34243 8.79036 9.03663 8 9.03663C7.20964 9.03663 6.44994 9.34243 5.88 9.89L4 11.76V5C4 4.73478 4.10536 4.48043 4.29289 4.29289C4.48043 4.10536 4.73478 4 5 4H19C19.2652 4 19.5196 4.10536 19.7071 4.29289C19.8946 4.48043 20 4.73478 20 5V9.76Z" />
</svg>
