<svg width="24" height="24" viewBox="0 0 24 24" xmlns="http://www.w3.org/2000/svg">
<path d="M21.2099 10.29L19.4799 8.57C19.899 7.89021 20.1238 7.10857 20.1299 6.31C20.1279 5.45842 19.8737 4.62651 19.3994 3.91926C18.925 3.21202 18.2518 2.66115 17.4646 2.33618C16.6775 2.0112 15.8117 1.9267 14.9766 2.09332C14.1415 2.25994 13.3744 2.67022 12.7723 3.27238C12.1701 3.87454 11.7598 4.64159 11.5932 5.47672C11.4266 6.31184 11.5111 7.17761 11.8361 7.96475C12.161 8.75189 12.7119 9.42512 13.4191 9.89947C14.1264 10.3738 14.9583 10.628 15.8099 10.63C16.6067 10.631 17.3885 10.413 18.0699 10L19.7899 11.73C19.8828 11.8237 19.9935 11.8981 20.1153 11.9489C20.2372 11.9997 20.3679 12.0258 20.4999 12.0258C20.6319 12.0258 20.7626 11.9997 20.8845 11.9489C21.0063 11.8981 21.1169 11.8237 21.2099 11.73C21.3067 11.6367 21.3836 11.5249 21.4362 11.4012C21.4888 11.2775 21.5159 11.1444 21.5159 11.01C21.5159 10.8756 21.4888 10.7425 21.4362 10.6188C21.3836 10.4951 21.3067 10.3833 21.2099 10.29ZM17.4499 8C17.1219 8.32395 16.7049 8.54285 16.2519 8.62877C15.799 8.71469 15.3308 8.66373 14.907 8.4824C14.4831 8.30106 14.1229 7.99757 13.8723 7.61065C13.6217 7.22373 13.4921 6.77092 13.4999 6.31C13.4997 6.00682 13.5597 5.70662 13.6764 5.42681C13.7932 5.147 13.9643 4.89315 14.1799 4.68C14.6145 4.24826 15.2023 4.00596 15.8149 4.00596C16.4275 4.00596 17.0153 4.24826 17.4499 4.68C17.6649 4.89456 17.8354 5.14941 17.9518 5.42997C18.0682 5.71052 18.1281 6.01127 18.1281 6.315C18.1281 6.61873 18.0682 6.91948 17.9518 7.20003C17.8354 7.48059 17.6649 7.73544 17.4499 7.95V8ZM19.4999 14C19.3725 13.9669 19.2398 13.9593 19.1095 13.9777C18.9792 13.996 18.8538 14.0398 18.7404 14.1067C18.6271 14.1736 18.528 14.2622 18.449 14.3675C18.37 14.4727 18.3125 14.5925 18.2799 14.72C17.8975 16.2285 17.0233 17.5666 15.7955 18.5228C14.5676 19.479 13.0561 19.9988 11.4999 20H5.90989L6.54989 19.37C6.73614 19.1826 6.84068 18.9292 6.84068 18.665C6.84068 18.4008 6.73614 18.1474 6.54989 17.96C5.90293 17.2999 5.3931 16.5182 5.04983 15.66C4.70656 14.8018 4.53664 13.8842 4.54989 12.96C4.55514 11.5803 4.96801 10.2329 5.73662 9.08712C6.50522 7.94133 7.59529 7.04822 8.86989 6.52C9.11654 6.42187 9.3141 6.22978 9.41912 5.98598C9.52415 5.74218 9.52802 5.46665 9.42989 5.22C9.33176 4.97335 9.13966 4.77578 8.89587 4.67076C8.65207 4.56574 8.37654 4.56187 8.12989 4.66C6.82374 5.18357 5.65856 6.00611 4.72791 7.06159C3.79726 8.11707 3.12706 9.37607 2.77115 10.7375C2.41524 12.0989 2.38351 13.5248 2.67853 14.9007C2.97355 16.2766 3.58709 17.5642 4.46989 18.66L2.78989 20.29C2.65113 20.4306 2.55713 20.6092 2.51976 20.8032C2.48238 20.9972 2.50331 21.1979 2.57989 21.38C2.65491 21.5626 2.7823 21.7189 2.94602 21.8293C3.10974 21.9396 3.30246 21.999 3.49989 22H11.4999C13.4961 22.0013 15.4362 21.3388 17.0147 20.1169C18.5933 18.895 19.7208 17.1829 20.2199 15.25C20.2575 15.1206 20.2686 14.985 20.2525 14.8512C20.2364 14.7175 20.1935 14.5883 20.1262 14.4716C20.059 14.3549 19.9688 14.2529 19.8612 14.1719C19.7536 14.0908 19.6307 14.0324 19.4999 14Z" />
</svg>
