<svg width="24" height="24" viewBox="0 0 24 24" xmlns="http://www.w3.org/2000/svg">
<path d="M6.56993 12C6.77834 11.9987 6.98112 11.9322 7.14993 11.81L8.76993 10.65C9.35239 10.2342 9.82879 9.68707 10.1606 9.05298C10.4924 8.41889 10.6703 7.7156 10.6799 7V3.63C10.679 3.48229 10.6453 3.33664 10.5813 3.2035C10.5173 3.07036 10.4246 2.95305 10.3099 2.86C10.1938 2.76602 10.058 2.69927 9.91263 2.66466C9.76727 2.63005 9.61599 2.62846 9.46993 2.66C9.06935 2.74309 8.65601 2.74337 8.25532 2.66082C7.85463 2.57828 7.47505 2.41465 7.13993 2.18C6.97254 2.06387 6.77366 2.00164 6.56993 2.00164C6.3662 2.00164 6.16733 2.06387 5.99993 2.18C5.66481 2.41465 5.28523 2.57828 4.88454 2.66082C4.48385 2.74337 4.07051 2.74309 3.66993 2.66C3.52296 2.62997 3.37111 2.63338 3.22563 2.67C3.08016 2.70662 2.94478 2.7755 2.82954 2.87153C2.7143 2.96757 2.62214 3.0883 2.55989 3.22479C2.49764 3.36127 2.46689 3.51002 2.46993 3.66V7C2.46972 7.72336 2.64197 8.43634 2.9724 9.07981C3.30283 9.72329 3.78192 10.2787 4.36993 10.7L5.99993 11.81C6.16403 11.934 6.36426 12.0007 6.56993 12ZM4.45993 7V4.72C5.19441 4.68906 5.91381 4.50154 6.56993 4.17C7.22561 4.50271 7.94527 4.6903 8.67993 4.72V7C8.66648 7.39301 8.56302 7.77769 8.37751 8.12443C8.19201 8.47117 7.92941 8.77071 7.60993 9L6.60993 9.74L5.52993 9C5.21045 8.77071 4.94785 8.47117 4.76235 8.12443C4.57685 7.77769 4.47338 7.39301 4.45993 7ZM18.5399 6H13.5399C13.2747 6 13.0204 6.10536 12.8328 6.29289C12.6453 6.48043 12.5399 6.73478 12.5399 7C12.5399 7.26522 12.6453 7.51957 12.8328 7.70711C13.0204 7.89464 13.2747 8 13.5399 8H18.5399C18.8051 8 19.0595 8.10536 19.247 8.29289C19.4346 8.48043 19.5399 8.73478 19.5399 9V18.72L17.9999 17.27C17.9104 17.1818 17.8041 17.1125 17.6873 17.0661C17.5705 17.0198 17.4456 16.9973 17.3199 17H8.53993C8.27471 17 8.02036 16.8946 7.83282 16.7071C7.64529 16.5196 7.53993 16.2652 7.53993 16V15C7.53993 14.7348 7.43457 14.4804 7.24704 14.2929C7.0595 14.1054 6.80515 14 6.53993 14C6.27471 14 6.02036 14.1054 5.83282 14.2929C5.64529 14.4804 5.53993 14.7348 5.53993 15V16C5.53993 16.7956 5.856 17.5587 6.41861 18.1213C6.98122 18.6839 7.74428 19 8.53993 19H16.8999L19.8999 21.73C20.0818 21.9003 20.3208 21.9966 20.5699 22C20.7103 21.9986 20.8493 21.9715 20.9799 21.92C21.1569 21.8404 21.307 21.7111 21.4117 21.5477C21.5165 21.3844 21.5715 21.1941 21.5699 21V9C21.57 8.6035 21.4914 8.21092 21.3387 7.84498C21.1861 7.47903 20.9624 7.14697 20.6807 6.868C20.3989 6.58903 20.0646 6.36868 19.6972 6.21969C19.3298 6.0707 18.9364 5.99603 18.5399 6Z" />
</svg>
