<svg width="24" height="24" viewBox="0 0 24 24" xmlns="http://www.w3.org/2000/svg">
<path d="M19.0601 13.51C18.7977 13.4789 18.5336 13.553 18.3257 13.716C18.1177 13.879 17.9827 14.1177 17.9501 14.38C17.7358 16.0715 16.9114 17.6267 15.6318 18.7535C14.3521 19.8803 12.7052 20.5013 11.0001 20.5H5.41014L6.05014 19.87C6.23639 19.6826 6.34093 19.4292 6.34093 19.165C6.34093 18.9008 6.23639 18.6474 6.05014 18.46C5.17423 17.5876 4.54498 16.4988 4.22639 15.3043C3.9078 14.1098 3.91124 12.8522 4.23634 11.6595C4.56145 10.4668 5.19663 9.3814 6.0773 8.51378C6.95796 7.64617 8.05268 7.02726 9.25014 6.72C9.5074 6.6537 9.72778 6.48791 9.86281 6.25912C9.99784 6.03032 10.0364 5.75726 9.97014 5.5C9.90384 5.24274 9.73805 5.02236 9.50926 4.88733C9.28046 4.7523 9.0074 4.7137 8.75014 4.78C7.29714 5.15885 5.96202 5.89522 4.8664 6.92203C3.77078 7.94885 2.94949 9.23347 2.47733 10.6589C2.00518 12.0843 1.89717 13.6052 2.16314 15.083C2.42912 16.5609 3.06063 17.9487 4.00014 19.12L2.29014 20.79C2.15138 20.9306 2.05739 21.1092 2.02001 21.3032C1.98264 21.4972 2.00356 21.6979 2.08014 21.88C2.15516 22.0626 2.28256 22.2189 2.44628 22.3293C2.61 22.4396 2.80271 22.499 3.00014 22.5H11.0001C13.1931 22.5 15.3106 21.6993 16.9549 20.2483C18.5993 18.7973 19.6572 16.7959 19.9301 14.62C19.9612 14.3576 19.8872 14.0935 19.7241 13.8855C19.5611 13.6775 19.3224 13.5425 19.0601 13.51ZM19.0001 7.5C18.5754 7.5014 18.1621 7.63799 17.8201 7.89L16.0701 7.09L18.0001 6.21C18.302 6.39326 18.647 6.49332 19.0001 6.5C19.3957 6.5 19.7824 6.3827 20.1113 6.16294C20.4402 5.94318 20.6965 5.63082 20.8479 5.26537C20.9993 4.89992 21.0389 4.49778 20.9617 4.10982C20.8845 3.72186 20.6941 3.36549 20.4144 3.08579C20.1346 2.80608 19.7783 2.6156 19.3903 2.53843C19.0024 2.46126 18.6002 2.50087 18.2348 2.65224C17.8693 2.80362 17.557 3.05996 17.3372 3.38886C17.1174 3.71776 17.0001 4.10444 17.0001 4.5L15.1001 5.37C14.7781 5.14066 14.3953 5.0119 14.0001 5C13.4697 5 12.961 5.21071 12.5859 5.58579C12.2109 5.96086 12.0001 6.46957 12.0001 7C12.0001 7.53043 12.2109 8.03914 12.5859 8.41421C12.961 8.78929 13.4697 9 14.0001 9C14.325 8.99673 14.6442 8.91435 14.9301 8.76L17.0201 9.76C17.0701 10.1413 17.229 10.5002 17.4778 10.7935C17.7265 11.0868 18.0545 11.3022 18.4226 11.4139C18.7906 11.5255 19.183 11.5287 19.5528 11.423C19.9226 11.3173 20.2541 11.1072 20.5075 10.818C20.7609 10.5287 20.9256 10.1725 20.9817 9.79198C21.0379 9.41151 20.9831 9.02291 20.8241 8.67276C20.665 8.3226 20.4083 8.02574 20.0848 7.81774C19.7613 7.60974 19.3847 7.49942 19.0001 7.5Z" />
</svg>
