<svg width="24" height="24" viewBox="0 0 24 24" xmlns="http://www.w3.org/2000/svg">
<path d="M21.7102 20.2899L5.71019 4.28994L3.71019 2.28994C3.52188 2.10164 3.26649 1.99585 3.00019 1.99585C2.73388 1.99585 2.47849 2.10164 2.29019 2.28994C2.10188 2.47824 1.99609 2.73364 1.99609 2.99994C1.99609 3.26624 2.10188 3.52164 2.29019 3.70994L4.00019 5.40994V11.8799C4.00089 13.312 4.34331 14.7232 4.99901 15.9963C5.6547 17.2695 6.60474 18.3678 7.77019 19.1999L11.4202 21.8099C11.5895 21.9305 11.7923 21.9953 12.0002 21.9953C12.2081 21.9953 12.4108 21.9305 12.5802 21.8099L16.2302 19.1999C16.5323 18.9863 16.8196 18.7524 17.0902 18.4999L20.2902 21.7099C20.3831 21.8037 20.4937 21.8781 20.6156 21.9288C20.7375 21.9796 20.8682 22.0057 21.0002 22.0057C21.1322 22.0057 21.2629 21.9796 21.3848 21.9288C21.5066 21.8781 21.6172 21.8037 21.7102 21.7099C21.8039 21.617 21.8783 21.5064 21.9291 21.3845C21.9798 21.2627 22.006 21.132 22.006 20.9999C22.006 20.8679 21.9798 20.7372 21.9291 20.6154C21.8783 20.4935 21.8039 20.3829 21.7102 20.2899ZM15.0702 17.5799L12.0002 19.7699L8.93019 17.5799C8.02322 16.9318 7.28417 16.0764 6.77453 15.085C6.2649 14.0935 5.99942 12.9947 6.00019 11.8799V7.40994L15.6702 17.0899C15.4802 17.2599 15.2802 17.4199 15.0702 17.5799ZM10.0702 5.06994C10.7425 4.84482 11.3894 4.54988 12.0002 4.18994C13.7994 5.28469 15.9029 5.772 18.0002 5.57994V11.8799C18.0008 12.2754 17.9674 12.6702 17.9002 13.0599C17.8788 13.19 17.8833 13.323 17.9135 13.4513C17.9437 13.5796 17.9989 13.7007 18.0761 13.8075C18.1532 13.9144 18.2507 14.005 18.3629 14.074C18.4752 14.1431 18.6 14.1893 18.7302 14.2099H18.8902C19.1299 14.213 19.3627 14.1299 19.5462 13.9757C19.7298 13.8215 19.8519 13.6066 19.8902 13.3699C19.9687 12.8738 20.0088 12.3723 20.0102 11.8699V4.42994C20.0092 4.28223 19.9755 4.13658 19.9115 4.00344C19.8476 3.87031 19.7549 3.753 19.6402 3.65994C19.526 3.56568 19.3923 3.49794 19.2488 3.46162C19.1053 3.42531 18.9555 3.42132 18.8102 3.44994C17.7405 3.68199 16.6341 3.68891 15.5616 3.47027C14.489 3.25163 13.4737 2.8122 12.5802 2.17994C12.4128 2.06381 12.2139 2.00159 12.0102 2.00159C11.8065 2.00159 11.6076 2.06381 11.4402 2.17994C10.8236 2.60526 10.1504 2.94188 9.44019 3.17994C9.31543 3.22196 9.20017 3.28815 9.10099 3.37471C9.00182 3.46128 8.92066 3.56653 8.86216 3.68446C8.80366 3.80239 8.76896 3.93069 8.76004 4.06203C8.75112 4.19337 8.76816 4.32519 8.81019 4.44994C8.85221 4.5747 8.91839 4.68995 9.00496 4.78913C9.09152 4.88831 9.19678 4.96947 9.31471 5.02797C9.55288 5.14611 9.82823 5.16481 10.0802 5.07994L10.0702 5.06994Z" />
</svg>
