<svg width="24" height="24" viewBox="0 0 24 24" xmlns="http://www.w3.org/2000/svg">
<path d="M12.92 14.9999C12.9 14.9385 12.8696 14.881 12.83 14.8299L12.71 14.6799C12.617 14.5862 12.5064 14.5118 12.3846 14.4611C12.2627 14.4103 12.132 14.3841 12 14.3841C11.868 14.3841 11.7373 14.4103 11.6154 14.4611C11.4936 14.5118 11.383 14.5862 11.29 14.6799C11.2423 14.7233 11.2018 14.7739 11.17 14.8299C11.1304 14.881 11.1 14.9385 11.08 14.9999C11.051 15.0601 11.0308 15.1241 11.02 15.1899C11.0151 15.2532 11.0151 15.3167 11.02 15.3799C11.0165 15.5143 11.0439 15.6478 11.1 15.7699C11.2018 16.0131 11.3954 16.2063 11.6389 16.3074C11.8823 16.4086 12.1559 16.4095 12.4 16.3099C12.5215 16.2556 12.6331 16.1812 12.73 16.0899C12.82 15.9978 12.8913 15.8891 12.94 15.7699C12.9925 15.6466 13.0197 15.514 13.02 15.3799C13.0249 15.3167 13.0249 15.2532 13.02 15.1899C12.9966 15.1218 12.9629 15.0578 12.92 14.9999ZM12 7.35994C11.7348 7.35994 11.4804 7.4653 11.2929 7.65284C11.1054 7.84037 11 8.09473 11 8.35994V11.3599C11 11.6252 11.1054 11.8795 11.2929 12.067C11.4804 12.2546 11.7348 12.3599 12 12.3599C12.2652 12.3599 12.5196 12.2546 12.7071 12.067C12.8946 11.8795 13 11.6252 13 11.3599V8.35994C13 8.09473 12.8946 7.84037 12.7071 7.65284C12.5196 7.4653 12.2652 7.35994 12 7.35994ZM19.63 3.64994C19.5138 3.55596 19.3781 3.48922 19.2327 3.45461C19.0873 3.41999 18.9361 3.4184 18.79 3.44994C17.7214 3.67389 16.6183 3.67674 15.5486 3.45833C14.4789 3.23991 13.4653 2.80486 12.57 2.17994C12.4026 2.06381 12.2037 2.00159 12 2.00159C11.7963 2.00159 11.5974 2.06381 11.43 2.17994C10.5348 2.80486 9.52108 3.23991 8.45137 3.45833C7.38166 3.67674 6.27857 3.67389 5.21001 3.44994C5.06394 3.4184 4.91267 3.41999 4.76731 3.45461C4.62194 3.48922 4.48618 3.55596 4.37001 3.64994C4.25399 3.74406 4.16053 3.86298 4.0965 3.99796C4.03247 4.13294 3.9995 4.28055 4.00001 4.42994V11.8799C3.99912 13.3137 4.34078 14.7269 4.99654 16.0019C5.6523 17.2769 6.60319 18.3768 7.77001 19.2099L11.42 21.8099C11.5894 21.9305 11.7921 21.9953 12 21.9953C12.2079 21.9953 12.4106 21.9305 12.58 21.8099L16.23 19.2099C17.3968 18.3768 18.3477 17.2769 19.0035 16.0019C19.6592 14.7269 20.0009 13.3137 20 11.8799V4.42994C20.0005 4.28055 19.9675 4.13294 19.9035 3.99796C19.8395 3.86298 19.746 3.74406 19.63 3.64994ZM18 11.8799C18.0008 12.9947 17.7353 14.0935 17.2257 15.085C16.716 16.0764 15.977 16.9318 15.07 17.5799L12 19.7699L8.93001 17.5799C8.02304 16.9318 7.28399 16.0764 6.77435 15.085C6.26472 14.0935 5.99924 12.9947 6.00001 11.8799V5.57994C8.09643 5.75938 10.196 5.27297 12 4.18994C13.804 5.27297 15.9036 5.75938 18 5.57994V11.8799Z" />
</svg>
