<svg width="24" height="24" viewBox="0 0 24 24" xmlns="http://www.w3.org/2000/svg">
<path d="M14.9758 3.01886L15.9356 1.28727C15.9479 1.26505 15.9557 1.24063 15.9586 1.21539C15.9615 1.19016 15.9593 1.1646 15.9523 1.14018C15.9453 1.11577 15.9336 1.09297 15.9178 1.07309C15.902 1.05321 15.8824 1.03664 15.8602 1.02432C15.8153 0.999453 15.7624 0.993422 15.7131 1.00756C15.6638 1.0217 15.6221 1.05484 15.5972 1.09971L14.6268 2.85049C13.7988 2.4875 12.9045 2.30009 12.0004 2.30009C11.0963 2.30009 10.2021 2.4875 9.37405 2.85049L8.40357 1.09971C8.37869 1.05484 8.33702 1.0217 8.28771 1.00756C8.23839 0.993422 8.18549 0.999453 8.14062 1.02432C8.09576 1.0492 8.06261 1.09087 8.04847 1.14018C8.03433 1.1895 8.04036 1.2424 8.06524 1.28727L9.02509 3.01887C8.11142 3.46924 7.33943 4.16254 6.7938 5.02272C6.24817 5.8829 5.94998 6.87674 5.93193 7.89522H18.0689C18.0509 6.87674 17.7527 5.8829 17.2071 5.02271C16.6614 4.16253 15.8894 3.46923 14.9758 3.01886ZM9.19952 5.67446C9.09928 5.67446 9.0013 5.64474 8.91795 5.58905C8.83461 5.53336 8.76965 5.45421 8.73129 5.3616C8.69293 5.269 8.6829 5.1671 8.70245 5.06879C8.72201 4.97048 8.77028 4.88018 8.84115 4.8093C8.91203 4.73842 9.00233 4.69015 9.10064 4.6706C9.19895 4.65104 9.30085 4.66108 9.39346 4.69944C9.48607 4.7378 9.56522 4.80275 9.6209 4.8861C9.67659 4.96944 9.70632 5.06742 9.70632 5.16766C9.70617 5.30203 9.65272 5.43084 9.55771 5.52585C9.4627 5.62087 9.33388 5.67431 9.19952 5.67446ZM14.8013 5.67446C14.7011 5.67446 14.6031 5.64474 14.5197 5.58905C14.4364 5.53336 14.3714 5.45421 14.3331 5.3616C14.2947 5.269 14.2847 5.1671 14.3042 5.06879C14.3238 4.97048 14.3721 4.88018 14.4429 4.8093C14.5138 4.73842 14.6041 4.69015 14.7024 4.6706C14.8007 4.65104 14.9026 4.66108 14.9952 4.69944C15.0878 4.7378 15.167 4.80275 15.2227 4.8861C15.2784 4.96944 15.3081 5.06742 15.3081 5.16766C15.3079 5.30203 15.2545 5.43084 15.1595 5.52585C15.0645 5.62087 14.9357 5.67431 14.8013 5.67446ZM5.93184 17.1715C5.93184 17.5606 6.08641 17.9337 6.36155 18.2089C6.63669 18.484 7.00986 18.6386 7.39897 18.6386H8.37257V21.6395C8.37208 21.8185 8.40691 21.9958 8.47506 22.1613C8.54322 22.3268 8.64335 22.4772 8.76973 22.6039C8.89611 22.7306 9.04625 22.8312 9.21154 22.8998C9.37684 22.9684 9.55405 23.0037 9.73302 23.0037C9.91199 23.0037 10.0892 22.9684 10.2545 22.8998C10.4198 22.8312 10.5699 22.7306 10.6963 22.6039C10.8227 22.4772 10.9228 22.3268 10.991 22.1613C11.0591 21.9958 11.094 21.8185 11.0935 21.6395V18.6386H12.9073V21.6395C12.9069 21.8185 12.9417 21.9958 13.0098 22.1613C13.078 22.3268 13.1781 22.4772 13.3045 22.6039C13.4309 22.7306 13.581 22.8312 13.7463 22.8998C13.9116 22.9684 14.0888 23.0037 14.2678 23.0037C14.4468 23.0037 14.624 22.9684 14.7893 22.8998C14.9546 22.8312 15.1047 22.7306 15.2311 22.6039C15.3575 22.4772 15.4576 22.3268 15.5257 22.1613C15.5939 21.9958 15.6287 21.8185 15.6282 21.6395V18.6386H16.6019C16.991 18.6386 17.3642 18.484 17.6393 18.2089C17.9144 17.9337 18.069 17.5606 18.069 17.1715V8.37532H5.93184V17.1715ZM4.06456 8.14191C3.70387 8.14232 3.35807 8.28579 3.10302 8.54083C2.84798 8.79588 2.70451 9.14168 2.70411 9.50237V15.1708C2.70362 15.3498 2.73845 15.5271 2.8066 15.6926C2.87476 15.8581 2.97489 16.0085 3.10127 16.1352C3.22765 16.2619 3.37779 16.3625 3.54308 16.4311C3.70838 16.4997 3.88559 16.535 4.06456 16.535C4.24353 16.535 4.42074 16.4997 4.58604 16.4311C4.75134 16.3625 4.90148 16.2619 5.02786 16.1352C5.15423 16.0085 5.25437 15.8581 5.32252 15.6926C5.39067 15.5271 5.4255 15.3498 5.42502 15.1708V9.50237C5.42461 9.14168 5.28114 8.79588 5.0261 8.54083C4.77105 8.28578 4.42525 8.14232 4.06456 8.14191ZM19.9363 8.14191C19.5756 8.14232 19.2298 8.28578 18.9747 8.54083C18.7197 8.79588 18.5762 9.14168 18.5758 9.50237V15.1708C18.5753 15.3498 18.6101 15.5271 18.6783 15.6926C18.7464 15.8581 18.8466 16.0085 18.973 16.1352C19.0993 16.2619 19.2495 16.3625 19.4148 16.4311C19.5801 16.4997 19.7573 16.535 19.9363 16.535C20.1152 16.535 20.2924 16.4997 20.4577 16.4311C20.623 16.3625 20.7732 16.2619 20.8995 16.1352C21.0259 16.0085 21.1261 15.8581 21.1942 15.6926C21.2624 15.5271 21.2972 15.3498 21.2967 15.1708V9.50237C21.2963 9.14168 21.1528 8.79588 20.8978 8.54083C20.6427 8.28579 20.2969 8.14232 19.9363 8.14191Z" />
</svg>
