<svg width="24" height="24" viewBox="0 0 24 24" xmlns="http://www.w3.org/2000/svg">
<path d="M2.99219 9.00044C2.86086 9.0004 2.7308 9.02625 2.60946 9.07649C2.48812 9.12673 2.37787 9.20039 2.285 9.29325C2.19214 9.38612 2.11848 9.49637 2.06824 9.61771C2.01799 9.73906 1.99215 9.86911 1.99219 10.0004V14.0004C1.99219 14.2657 2.09754 14.52 2.28508 14.7075C2.47262 14.8951 2.72697 15.0004 2.99219 15.0004C3.2574 15.0004 3.51176 14.8951 3.69929 14.7075C3.88683 14.52 3.99219 14.2657 3.99219 14.0004V10.0004C3.99222 9.86911 3.96638 9.73906 3.91614 9.61771C3.8659 9.49637 3.79224 9.38612 3.69937 9.29325C3.60651 9.20039 3.49625 9.12673 3.37491 9.07649C3.25357 9.02625 3.12352 9.0004 2.99219 9.00044ZM20.9922 9.00044C20.8609 9.0004 20.7308 9.02625 20.6095 9.07649C20.4881 9.12673 20.3779 9.20039 20.285 9.29325C20.1921 9.38612 20.1185 9.49637 20.0682 9.61771C20.018 9.73906 19.9922 9.86911 19.9922 10.0004V14.0004C19.9922 14.2657 20.0975 14.52 20.2851 14.7075C20.4726 14.8951 20.727 15.0004 20.9922 15.0004C21.2574 15.0004 21.5118 14.8951 21.6993 14.7075C21.8868 14.52 21.9922 14.2657 21.9922 14.0004V10.0004C21.9922 9.86911 21.9664 9.73906 21.9161 9.61771C21.8659 9.49637 21.7922 9.38612 21.6994 9.29325C21.6065 9.20039 21.4963 9.12673 21.3749 9.07649C21.2536 9.02625 21.1235 9.0004 20.9922 9.00044ZM16.8579 3.50044C16.924 3.38673 16.9671 3.26109 16.9846 3.13072C17.002 3.00034 16.9936 2.8678 16.9598 2.74069C16.9259 2.61358 16.8674 2.49439 16.7874 2.38996C16.7074 2.28553 16.6076 2.19791 16.4937 2.13212C16.3798 2.06634 16.254 2.02368 16.1236 2.00658C15.9932 1.98949 15.8606 1.99831 15.7336 2.03252C15.6066 2.06674 15.4876 2.12568 15.3834 2.20598C15.2792 2.28627 15.1919 2.38634 15.1265 2.50044L14.5123 3.56282C13.7238 3.19245 12.8634 3.00044 11.9922 3.00044C11.121 3.00044 10.2606 3.19245 9.47205 3.56282L8.85791 2.50044C8.79246 2.38634 8.70514 2.28627 8.60095 2.20598C8.49676 2.12568 8.37775 2.06674 8.25074 2.03252C8.12373 1.99831 7.99121 1.98949 7.86079 2.00658C7.73036 2.02368 7.6046 2.06634 7.49069 2.13212C7.37678 2.19791 7.27698 2.28553 7.197 2.38996C7.11701 2.49439 7.05843 2.61358 7.02459 2.74069C6.99076 2.8678 6.98234 3.00034 6.99982 3.13072C7.0173 3.26109 7.06034 3.38673 7.12647 3.50044L7.81897 4.69838C7.24118 5.25604 6.78164 5.92438 6.46779 6.66351C6.15393 7.40264 5.99218 8.19743 5.99219 9.00044V17.0004C5.99215 17.1318 6.018 17.2618 6.06824 17.3832C6.11848 17.5045 6.19214 17.6148 6.285 17.7076C6.37787 17.8005 6.48812 17.8741 6.60946 17.9244C6.7308 17.9746 6.86086 18.0005 6.99219 18.0004H8.99219V21.0004C8.99219 21.2657 9.09754 21.52 9.28508 21.7075C9.47262 21.8951 9.72697 22.0004 9.99219 22.0004C10.2574 22.0004 10.5118 21.8951 10.6993 21.7075C10.8868 21.52 10.9922 21.2657 10.9922 21.0004V18.0004H12.9922V21.0004C12.9922 21.2657 13.0975 21.52 13.2851 21.7075C13.4726 21.8951 13.727 22.0004 13.9922 22.0004C14.2574 22.0004 14.5118 21.8951 14.6993 21.7075C14.8868 21.52 14.9922 21.2657 14.9922 21.0004V18.0004H16.9922C17.1235 18.0005 17.2536 17.9746 17.3749 17.9244C17.4963 17.8741 17.6065 17.8005 17.6994 17.7076C17.7922 17.6148 17.8659 17.5045 17.9161 17.3832C17.9664 17.2618 17.9922 17.1318 17.9922 17.0004V9.00044C17.9922 8.19743 17.8304 7.40264 17.5166 6.66351C17.2027 5.92438 16.7432 5.25604 16.1654 4.69838L16.8579 3.50044ZM15.9922 16.0004H7.99219V11.0004H15.9922V16.0004ZM7.99219 9.00044C7.99219 7.93957 8.41361 6.92216 9.16376 6.17201C9.91391 5.42187 10.9313 5.00044 11.9922 5.00044C13.0531 5.00044 14.0705 5.42187 14.8206 6.17201C15.5708 6.92216 15.9922 7.93957 15.9922 9.00044H7.99219Z" />
</svg>
