<svg width="24" height="24" viewBox="0 0 24 24" xmlns="http://www.w3.org/2000/svg">
<path d="M11.136 12.1166L10.5402 14.5319C11.2757 14.7166 13.544 15.4532 13.8792 14.0907C14.2296 12.6697 11.8714 12.3022 11.136 12.1166ZM11.9486 8.82043L11.4085 11.011C12.021 11.1654 13.9088 11.795 14.2147 10.5557C14.5334 9.26294 12.5611 8.97479 11.9487 8.82043H11.9486ZM12 2C10.0222 2 8.08879 2.58649 6.4443 3.6853C4.79981 4.78412 3.51809 6.3459 2.76121 8.17317C2.00433 10.0004 1.8063 12.0111 2.19215 13.9509C2.578 15.8907 3.53041 17.6725 4.92894 19.0711C6.32746 20.4696 8.10929 21.422 10.0491 21.8079C11.9889 22.1937 13.9996 21.9957 15.8268 21.2388C17.6541 20.4819 19.2159 19.2002 20.3147 17.5557C21.4135 15.9112 22 13.9778 22 12C22 10.6868 21.7413 9.38642 21.2388 8.17317C20.7363 6.95991 19.9997 5.85752 19.0711 4.92893C18.1425 4.00035 17.0401 3.26375 15.8268 2.7612C14.6136 2.25866 13.3132 2 12 2ZM16.358 10.5754C16.337 10.9591 16.1898 11.325 15.9392 11.6164C15.6887 11.9077 15.3489 12.1081 14.9728 12.1864C15.22 12.287 15.4437 12.4378 15.6298 12.6292C15.8159 12.8206 15.9603 13.0485 16.054 13.2985C16.1476 13.5485 16.1885 13.8152 16.1739 14.0817C16.1594 14.3483 16.0898 14.6089 15.9696 14.8473C15.3841 16.5394 13.993 16.6823 12.143 16.3282L11.694 18.1479L10.6092 17.8744L11.0523 16.0791C10.7711 16.0085 10.4838 15.9335 10.1878 15.8523L9.7431 17.6559L8.65948 17.3825L9.10848 15.5594C8.85506 15.4938 8.59768 15.4241 8.33504 15.3575L6.9233 15.0016L7.46187 13.7457C7.46187 13.7457 8.26119 13.9607 8.25039 13.9448C8.30014 13.9606 8.35255 13.9665 8.40457 13.9619C8.45659 13.9574 8.5072 13.9426 8.55345 13.9183C8.5997 13.8941 8.64067 13.8609 8.674 13.8207C8.70733 13.7805 8.73234 13.7341 8.74758 13.6841L9.965 8.74634C9.98063 8.59506 9.93651 8.44366 9.84207 8.32444C9.74764 8.20522 9.61035 8.12763 9.4595 8.10822C9.4765 8.09668 8.6715 7.9101 8.6715 7.9101L8.96013 6.73822L10.4562 7.11603L10.455 7.1217C10.6799 7.17822 10.9117 7.23199 11.1478 7.28638L11.5924 5.4845L12.6766 5.75793L12.241 7.52448C12.5321 7.59167 12.825 7.65948 13.1102 7.73138L13.5428 5.97638L14.6277 6.24982L14.1833 8.05231C15.553 8.52948 16.5548 9.24481 16.358 10.5754Z" />
</svg>
