<svg width="24" height="24" viewBox="0 0 24 24" xmlns="http://www.w3.org/2000/svg">
<path d="M16.3047 11.2411C16.7119 10.6398 16.9476 9.93891 16.9864 9.21374C17.0253 8.48856 16.8659 7.7665 16.5253 7.12508C16.1848 6.48366 15.676 5.94712 15.0535 5.57308C14.431 5.19903 13.7184 5.0016 12.9922 5.002V4.002C12.9922 3.73678 12.8868 3.48243 12.6993 3.29489C12.5118 3.10736 12.2574 3.002 11.9922 3.002C11.727 3.002 11.4726 3.10736 11.2851 3.29489C11.0975 3.48243 10.9922 3.73678 10.9922 4.002V5.002H8.99219V4.002C8.99219 3.73678 8.88683 3.48243 8.69929 3.29489C8.51176 3.10736 8.2574 3.002 7.99219 3.002C7.72697 3.002 7.47262 3.10736 7.28508 3.29489C7.09754 3.48243 6.99219 3.73678 6.99219 4.002V5.002H5.99219C5.72697 5.002 5.47262 5.10736 5.28508 5.29489C5.09754 5.48243 4.99219 5.73678 4.99219 6.002C4.99219 6.26722 5.09754 6.52157 5.28508 6.70911C5.47262 6.89664 5.72697 7.002 5.99219 7.002H6.99219V17.002H5.99219C5.72697 17.002 5.47262 17.1074 5.28508 17.2949C5.09754 17.4824 4.99219 17.7368 4.99219 18.002C4.99219 18.2672 5.09754 18.5216 5.28508 18.7091C5.47262 18.8966 5.72697 19.002 5.99219 19.002H6.99219V20.002C6.99219 20.2672 7.09754 20.5216 7.28508 20.7091C7.47262 20.8966 7.72697 21.002 7.99219 21.002C8.2574 21.002 8.51176 20.8966 8.69929 20.7091C8.88683 20.5216 8.99219 20.2672 8.99219 20.002V19.002H10.9922V20.002C10.9922 20.2672 11.0975 20.5216 11.2851 20.7091C11.4726 20.8966 11.727 21.002 11.9922 21.002C12.2574 21.002 12.5118 20.8966 12.6993 20.7091C12.8868 20.5216 12.9922 20.2672 12.9922 20.002V19.002H14.9922C15.9367 19.0044 16.8515 18.6717 17.5737 18.063C18.296 17.4542 18.7788 16.609 18.9363 15.6777C19.0938 14.7463 18.9158 13.7893 18.4339 12.977C17.952 12.1646 17.1976 11.5495 16.3047 11.2412V11.2411ZM8.99219 7.002H12.9922C13.5226 7.002 14.0313 7.21271 14.4064 7.58779C14.7815 7.96286 14.9922 8.47157 14.9922 9.002C14.9922 9.53243 14.7815 10.0411 14.4064 10.4162C14.0313 10.7913 13.5226 11.002 12.9922 11.002H8.99219V7.002ZM14.9922 17.002H8.99219V13.002H14.9922C15.5226 13.002 16.0313 13.2127 16.4064 13.5878C16.7815 13.9629 16.9922 14.4716 16.9922 15.002C16.9922 15.5324 16.7815 16.0411 16.4064 16.4162C16.0313 16.7913 15.5226 17.002 14.9922 17.002Z" />
</svg>
