<svg width="24" height="24" viewBox="0 0 24 24" xmlns="http://www.w3.org/2000/svg">
<path d="M13.9912 13.0004H9.99121C9.72599 13.0004 9.47164 13.1058 9.2841 13.2933C9.09657 13.4809 8.99121 13.7352 8.99121 14.0004C8.99121 14.2657 9.09657 14.52 9.2841 14.7076C9.47164 14.8951 9.72599 15.0004 9.99121 15.0004H13.9912C14.2564 15.0004 14.5108 14.8951 14.6983 14.7076C14.8859 14.52 14.9912 14.2657 14.9912 14.0004C14.9912 13.7352 14.8859 13.4809 14.6983 13.2933C14.5108 13.1058 14.2564 13.0004 13.9912 13.0004ZM9.99121 11.0004H10.9912C11.2564 11.0004 11.5108 10.8951 11.6983 10.7076C11.8859 10.52 11.9912 10.2657 11.9912 10.0004C11.9912 9.73523 11.8859 9.48087 11.6983 9.29334C11.5108 9.1058 11.2564 9.00044 10.9912 9.00044H9.99121C9.72599 9.00044 9.47164 9.1058 9.2841 9.29334C9.09657 9.48087 8.99121 9.73523 8.99121 10.0004C8.99121 10.2657 9.09657 10.52 9.2841 10.7076C9.47164 10.8951 9.72599 11.0004 9.99121 11.0004ZM15.9912 9.99944V9.00044C15.9902 7.9399 15.5684 6.9231 14.8185 6.17318C14.0686 5.42327 13.0518 5.0015 11.9912 5.00044H9.99121C8.66561 5.002 7.39474 5.52929 6.4574 6.46663C5.52005 7.40397 4.99277 8.67484 4.99121 10.0004V14.0004C4.99277 15.326 5.52005 16.5969 6.4574 17.5343C7.39474 18.4716 8.66561 18.9989 9.99121 19.0004H13.9912C15.3168 18.9989 16.5877 18.4716 17.525 17.5343C18.4624 16.5969 18.9897 15.326 18.9912 14.0004V13.0004C18.9902 12.205 18.6739 11.4424 18.1115 10.8799C17.5491 10.3173 16.7866 10.0007 15.9912 9.99946V9.99944ZM15.9912 10.0004V10.0014L14.9912 10.0004H15.9912ZM16.9912 14.0004C16.9903 14.7958 16.674 15.5584 16.1116 16.1208C15.5492 16.6832 14.7866 16.9996 13.9912 17.0004H9.99121C9.19583 16.9996 8.43327 16.6832 7.87085 16.1208C7.30843 15.5584 6.99208 14.7958 6.99121 14.0004V10.0004C6.99208 9.20506 7.30843 8.4425 7.87085 7.88008C8.43327 7.31766 9.19583 7.00131 9.99121 7.00044H11.9912C12.5214 7.00113 13.0297 7.21206 13.4047 7.58699C13.7796 7.96191 13.9905 8.47022 13.9912 9.00044V10.0004C13.9919 10.5307 14.2028 11.039 14.5778 11.4139C14.9527 11.7888 15.461 11.9998 15.9912 12.0004C16.2564 12.0006 16.5106 12.106 16.6981 12.2935C16.8856 12.481 16.991 12.7353 16.9912 13.0004V14.0004ZM19.9912 1.00044H3.99121C3.19583 1.00131 2.43327 1.31766 1.87085 1.88008C1.30843 2.4425 0.992079 3.20506 0.991211 4.00044V20.0004C0.992079 20.7958 1.30843 21.5584 1.87085 22.1208C2.43327 22.6832 3.19583 22.9996 3.99121 23.0004H19.9912C20.7866 22.9996 21.5492 22.6832 22.1116 22.1208C22.674 21.5584 22.9903 20.7958 22.9912 20.0004V4.00044C22.9903 3.20506 22.674 2.4425 22.1116 1.88008C21.5492 1.31766 20.7866 1.00131 19.9912 1.00044ZM20.9912 20.0004C20.991 20.2656 20.8856 20.5199 20.6981 20.7074C20.5106 20.8949 20.2564 21.0003 19.9912 21.0004H3.99121C3.72605 21.0003 3.4718 20.8949 3.2843 20.7074C3.0968 20.5199 2.99139 20.2656 2.99121 20.0004V4.00044C2.99139 3.73528 3.0968 3.48103 3.2843 3.29353C3.4718 3.10603 3.72605 3.00062 3.99121 3.00044H19.9912C20.2564 3.00062 20.5106 3.10603 20.6981 3.29353C20.8856 3.48103 20.991 3.73528 20.9912 4.00044V20.0004Z" />
</svg>
