<svg width="24" height="24" viewBox="0 0 24 24" xmlns="http://www.w3.org/2000/svg">
<path d="M18.83 9.44C18.7383 9.30429 18.6146 9.19319 18.4699 9.11647C18.3252 9.03975 18.1638 8.99975 18 9H15V7H17.2C17.4652 7 17.7196 6.89464 17.9071 6.70711C18.0946 6.51957 18.2 6.26522 18.2 6V2C18.2 1.73478 18.0946 1.48043 17.9071 1.29289C17.7196 1.10536 17.4652 1 17.2 1H14C12.4617 1 10.9865 1.61107 9.89878 2.69878C8.81107 3.78649 8.2 5.26174 8.2 6.8V9H6C5.73478 9 5.48043 9.10536 5.29289 9.29289C5.10536 9.48043 5 9.73478 5 10V14C5 14.2652 5.10536 14.5196 5.29289 14.7071C5.48043 14.8946 5.73478 15 6 15H8.2V22C8.2 22.2652 8.30536 22.5196 8.49289 22.7071C8.68043 22.8946 8.93478 23 9.2 23H14C14.2652 23 14.5196 22.8946 14.7071 22.7071C14.8946 22.5196 15 22.2652 15 22V15H16.4C16.6003 15.0002 16.796 14.9402 16.9618 14.8279C17.1276 14.7156 17.2559 14.5561 17.33 14.37L18.93 10.37C18.9904 10.2186 19.0129 10.0547 18.9954 9.89259C18.978 9.7305 18.9212 9.57512 18.83 9.44ZM15.72 13H14C13.7348 13 13.4804 13.1054 13.2929 13.2929C13.1054 13.4804 13 13.7348 13 14V21H10.2V14C10.2 13.7348 10.0946 13.4804 9.90711 13.2929C9.71957 13.1054 9.46522 13 9.2 13H7V11H9.2C9.46522 11 9.71957 10.8946 9.90711 10.7071C10.0946 10.5196 10.2 10.2652 10.2 10V6.8C10.2026 5.79299 10.6038 4.82798 11.3159 4.11591C12.028 3.40384 12.993 3.00264 14 3H16.2V5H15.4C15.0614 4.95067 14.7163 4.97137 14.3861 5.06082C14.0558 5.15026 13.7474 5.30655 13.48 5.52C13.3177 5.6899 13.1915 5.8909 13.109 6.11089C13.0265 6.33087 12.9894 6.56529 13 6.8V10C13 10.2652 13.1054 10.5196 13.2929 10.7071C13.4804 10.8946 13.7348 11 14 11H16.52L15.72 13Z" />
</svg>
