<svg width="24" height="24" viewBox="0 0 24 24" xmlns="http://www.w3.org/2000/svg">
<path d="M11.9998 2C10.6991 1.95277 9.4024 2.16913 8.18756 2.63604C6.97273 3.10296 5.86489 3.81079 4.9307 4.71696C3.99651 5.62312 3.25528 6.70889 2.75158 7.90895C2.24789 9.109 1.99215 10.3985 1.99976 11.7C1.983 13.0512 2.25437 14.3904 2.79581 15.6285C3.33725 16.8665 4.13631 17.975 5.13975 18.88C5.21942 18.951 5.28429 19.037 5.33062 19.1331C5.37695 19.2292 5.40385 19.3335 5.40975 19.44V21.22C5.41524 21.3512 5.45254 21.4791 5.51845 21.5927C5.58437 21.7063 5.67691 21.8022 5.78811 21.872C5.89932 21.9419 6.02584 21.9837 6.15678 21.9938C6.28772 22.0039 6.41916 21.982 6.53975 21.93L8.53975 21.06C8.71053 20.9955 8.89898 20.9955 9.06975 21.06C10.0152 21.3152 10.9905 21.443 11.9698 21.44C14.5477 21.444 17.0216 20.4237 18.8472 18.6037C20.6729 16.7836 21.7008 14.3129 21.7048 11.735C21.7087 9.1571 20.6885 6.6832 18.8684 4.85753C17.0484 3.03186 14.5777 2.00398 11.9998 2ZM17.9998 9.46L15.0698 14.12C14.9593 14.2954 14.8136 14.4461 14.6419 14.5624C14.4703 14.6787 14.2764 14.7581 14.0724 14.7957C13.8685 14.8333 13.659 14.8282 13.4572 14.7808C13.2554 14.7333 13.0656 14.6445 12.8998 14.52L10.5598 12.77C10.4559 12.6921 10.3296 12.65 10.1998 12.65C10.0699 12.65 9.94361 12.6921 9.83976 12.77L6.67975 15.17C6.59175 15.2379 6.48254 15.2724 6.37151 15.2673C6.26049 15.2623 6.15483 15.2181 6.0733 15.1426C5.99178 15.0671 5.93965 14.9651 5.92619 14.8548C5.91272 14.7444 5.93879 14.6329 5.99975 14.54L8.92976 9.88C9.04026 9.70455 9.18594 9.55392 9.35759 9.43762C9.52925 9.32131 9.72315 9.24186 9.92706 9.20427C10.131 9.16668 10.3405 9.17178 10.5423 9.21924C10.7441 9.2667 10.934 9.35548 11.0998 9.48L13.4398 11.23C13.5436 11.3079 13.6699 11.35 13.7998 11.35C13.9296 11.35 14.0559 11.3079 14.1598 11.23L17.3198 8.83C17.4078 8.76213 17.517 8.72764 17.628 8.73266C17.739 8.73767 17.8447 8.78187 17.9262 8.8574C18.0077 8.93293 18.0599 9.03491 18.0733 9.14523C18.0868 9.25555 18.0607 9.36708 17.9998 9.46Z" />
</svg>
