<svg width="24" height="24" viewBox="0 0 24 24" xmlns="http://www.w3.org/2000/svg">
<path d="M20.9192 10.653C20.6047 10.4831 17.9084 8.91862 16.8967 8.32976L16.8938 8.32776L4.63891 1.25262C4.43013 1.12517 4.19602 1.04488 3.95297 1.01737C3.70992 0.989849 3.46379 1.01577 3.2318 1.09332C3.20562 1.10272 3.18102 1.11218 3.15557 1.12383C3.09648 1.14309 3.03872 1.16621 2.98266 1.19305C2.74834 1.3331 2.55611 1.53373 2.42619 1.77381C2.29627 2.01389 2.23346 2.28455 2.24438 2.55731V21.5427C2.23694 21.7968 2.29713 22.0483 2.41878 22.2715C2.54043 22.4948 2.71918 22.6817 2.93676 22.8132C2.98694 22.8377 3.03864 22.859 3.09155 22.8769C3.12048 22.8902 3.14806 22.9019 3.17791 22.9124C3.32112 22.9643 3.47195 22.9922 3.62426 22.9948C3.91675 22.9917 4.2033 22.9118 4.45532 22.7634C4.84399 22.5378 16.8938 15.5807 16.8938 15.5807L20.9143 13.2594C21.1629 13.1349 21.3727 12.9448 21.5211 12.7097C21.6694 12.4746 21.7507 12.2034 21.7561 11.9255C21.7439 11.6577 21.6597 11.3982 21.5124 11.1743C21.3651 10.9504 21.1602 10.7703 20.9192 10.653ZM4.24438 19.839V4.10186L12.1845 11.9609L4.24438 19.839ZM9.26238 17.6773L13.6059 13.3678L14.7554 14.5056C13.4908 15.2358 11.3541 16.4696 9.26238 17.6774V17.6773ZM13.6042 10.5523L9.20631 6.19933L14.76 9.40563L13.6042 10.5523ZM16.551 13.469L15.0256 11.9592L16.5533 10.4434C17.2736 10.8617 18.3961 11.5127 19.1692 11.9577L16.551 13.469Z" />
</svg>
