<svg width="24" height="24" viewBox="0 0 24 24" xmlns="http://www.w3.org/2000/svg">
<path d="M8.99175 7.69049C8.46132 7.69049 7.95261 7.9012 7.57754 8.27628C7.20247 8.65135 6.99175 9.16006 6.99175 9.69049C6.99175 10.2209 7.20247 10.7296 7.57754 11.1047C7.95261 11.4798 8.46132 11.6905 8.99175 11.6905L9.00689 11.689V12.1904C9.00663 12.323 8.95386 12.45 8.86015 12.5437C8.76644 12.6374 8.63942 12.6902 8.50689 12.6904C8.24167 12.6904 7.98732 12.7958 7.79978 12.9833C7.61225 13.1709 7.50689 13.4252 7.50689 13.6904C7.50689 13.9556 7.61225 14.21 7.79978 14.3975C7.98732 14.5851 8.24167 14.6904 8.50689 14.6904C9.16974 14.6898 9.80527 14.4262 10.274 13.9575C10.7427 13.4888 11.0063 12.8533 11.0069 12.1904V9.69043C11.0009 9.63954 10.9907 9.58923 10.9766 9.54C10.9402 9.03815 10.7154 8.56861 10.3473 8.22558C9.97914 7.88255 9.49492 7.69141 8.99175 7.69049ZM11.9913 1.00195C9.4822 1.002 7.06899 1.96564 5.25002 3.69386C3.43105 5.42208 2.34527 7.78286 2.21693 10.2886C2.08858 12.7944 2.92747 15.2538 4.56034 17.1588C6.19321 19.0638 8.49534 20.269 10.9913 20.5254V22.002C10.9911 22.1537 11.0255 22.3035 11.0919 22.4399C11.1583 22.5763 11.2548 22.6959 11.3743 22.7894C11.4937 22.883 11.6329 22.9481 11.7812 22.9799C11.9296 23.0116 12.0833 23.0092 12.2305 22.9727C14.7507 22.349 17.0151 20.9582 18.7109 18.9923C20.4067 17.0264 21.4502 14.5825 21.6973 11.998C21.8775 10.6203 21.7606 9.21995 21.3546 7.89116C20.9485 6.56236 20.2627 5.3359 19.3432 4.2942C18.4237 3.25251 17.2919 2.41974 16.0238 1.85186C14.7557 1.28399 13.3807 0.994171 11.9913 1.0019V1.00195ZM19.7091 11.7822C19.5255 13.7382 18.7994 15.604 17.6125 17.1695C16.4256 18.7349 14.8251 19.9378 12.9913 20.6426V19.5762C12.9914 19.4448 12.9655 19.3148 12.9153 19.1934C12.8651 19.072 12.7914 18.9618 12.6986 18.8689C12.6057 18.776 12.4954 18.7024 12.3741 18.6521C12.2527 18.6019 12.1226 18.5761 11.9913 18.5762C10.4512 18.576 8.94572 18.1191 7.66526 17.2633C6.38481 16.4076 5.38687 15.1913 4.79763 13.7684C4.20839 12.3455 4.05432 10.7798 4.3549 9.26927C4.65548 7.75878 5.3972 6.37134 6.48629 5.28239C7.57538 4.19345 8.96291 3.45189 10.4734 3.15151C11.984 2.85112 13.5496 3.00539 14.9725 3.5948C16.3953 4.18422 17.6115 5.18231 18.4671 6.46287C19.3227 7.74344 19.7794 9.24896 19.7794 10.7891C19.7767 11.1213 19.7532 11.453 19.7091 11.7822ZM14.9918 7.69049C14.4613 7.69049 13.9526 7.9012 13.5775 8.27628C13.2025 8.65135 12.9918 9.16006 12.9918 9.69049C12.9918 10.2209 13.2025 10.7296 13.5775 11.1047C13.9526 11.4798 14.4613 11.6905 14.9918 11.6905L15.0069 11.689V12.1904C15.0066 12.323 14.9539 12.45 14.8602 12.5437C14.7664 12.6374 14.6394 12.6902 14.5069 12.6904C14.2417 12.6904 13.9873 12.7958 13.7998 12.9833C13.6122 13.1709 13.5069 13.4252 13.5069 13.6904C13.5069 13.9556 13.6122 14.21 13.7998 14.3975C13.9873 14.5851 14.2417 14.6904 14.5069 14.6904C15.1697 14.6898 15.8053 14.4262 16.274 13.9575C16.7427 13.4888 17.0063 12.8533 17.0069 12.1904V9.69043C17.0009 9.63954 16.9907 9.58923 16.9766 9.54C16.9402 9.03815 16.7154 8.56861 16.3473 8.22558C15.9791 7.88255 15.4949 7.69141 14.9918 7.69049Z" />
</svg>
