<svg width="24" height="24" viewBox="0 0 24 24" xmlns="http://www.w3.org/2000/svg">
<path d="M7.95224 8.00044H14.9386L14.7614 10.0004H9.9913C9.72608 10.0004 9.47173 10.1058 9.28419 10.2933C9.09665 10.4809 8.9913 10.7352 8.9913 11.0004C8.9913 11.2657 9.09665 11.52 9.28419 11.7075C9.47173 11.8951 9.72608 12.0004 9.9913 12.0004H14.5841L14.3204 14.977L11.9913 15.5053L9.66318 14.976L9.56747 13.9116C9.5558 13.7807 9.51848 13.6535 9.45764 13.5371C9.3968 13.4207 9.31363 13.3175 9.21288 13.2332C9.11213 13.149 8.99578 13.0854 8.87046 13.0461C8.74514 13.0069 8.61332 12.9927 8.48251 13.0043C8.3517 13.016 8.22447 13.0533 8.10809 13.1142C7.9917 13.175 7.88844 13.2582 7.80419 13.3589C7.71995 13.4597 7.65638 13.576 7.6171 13.7013C7.57783 13.8267 7.56362 13.9585 7.57529 14.0893L7.73544 15.8793C7.75435 16.0899 7.83947 16.2892 7.97858 16.4485C8.1177 16.6078 8.30368 16.7189 8.50986 16.766L11.7696 17.5063C11.9156 17.5388 12.067 17.5388 12.213 17.5063L15.4737 16.766C15.68 16.7189 15.8661 16.6076 16.0053 16.4481C16.1444 16.2886 16.2294 16.0891 16.2481 15.8783L16.6797 11.0104L16.6817 11.0004L16.6809 10.9965L17.0274 7.08829C17.0395 6.95013 17.0227 6.81098 16.9781 6.67966C16.9335 6.54833 16.8621 6.4277 16.7685 6.32542C16.6748 6.22314 16.5609 6.14143 16.434 6.08548C16.3071 6.02953 16.17 6.00056 16.0313 6.0004H7.95224C7.68702 6.0004 7.43267 6.10576 7.24513 6.29329C7.05759 6.48083 6.95224 6.73518 6.95224 7.0004C6.95224 7.26562 7.05759 7.51997 7.24513 7.70751C7.43267 7.89504 7.68702 8.0004 7.95224 8.0004V8.00044ZM20.6544 2.32563C20.5606 2.22322 20.4465 2.14143 20.3194 2.08545C20.1923 2.02947 20.055 2.00052 19.9161 2.00044H4.0665C3.92766 2.00038 3.79034 2.02923 3.66327 2.08517C3.5362 2.14111 3.42218 2.22291 3.32847 2.32534C3.23476 2.42778 3.16342 2.54862 3.11898 2.68015C3.07455 2.81168 3.058 2.95103 3.0704 3.08931L4.51376 19.2836C4.53176 19.486 4.61104 19.6781 4.74103 19.8343C4.87102 19.9904 5.04554 20.1032 5.2413 20.1576L11.714 21.9633C11.8896 22.0128 12.0754 22.0128 12.2511 21.9633L18.7413 20.1508C18.9371 20.0964 19.1116 19.9836 19.2416 19.8274C19.3716 19.6713 19.4508 19.4792 19.4688 19.2768L20.9122 3.0893C20.9245 2.9511 20.9079 2.81185 20.8635 2.68039C20.8191 2.54893 20.7479 2.42812 20.6544 2.32563ZM17.5382 18.4106L11.9825 19.9624L6.44443 18.4174L5.15927 4.00044H18.8233L17.5382 18.4106Z" />
</svg>
