<svg width="24" height="24" viewBox="0 0 24 24" xmlns="http://www.w3.org/2000/svg">
<path d="M3.19434 2L4.79701 19.9943L11.9891 22L19.201 19.9869L20.805 2H3.19434ZM17.4757 6.12274L16.942 12.1174L16.9439 12.1498L16.9413 12.2239V12.2232L16.5621 16.4146L16.5203 16.7869L11.9997 18.0372V18.0378L11.996 18.041L7.48334 16.7831L7.1776 13.3179H9.3906L9.54752 15.0802L12.0003 15.7446L11.9997 15.7457L14.4611 15.0714L14.7214 12.2021H9.57556L9.5314 11.717L9.43047 10.5806L9.37823 9.97038H14.917L15.1186 7.73868H6.68199L6.63767 7.2542L6.53741 6.1172L6.48449 5.507H17.5285L17.4757 6.12274Z" />
</svg>
