<svg width="24" height="24" viewBox="0 0 24 24" xmlns="http://www.w3.org/2000/svg">
<path d="M12 7C11.0111 7 10.0444 7.29324 9.22215 7.84265C8.3999 8.39206 7.75904 9.17295 7.3806 10.0866C7.00216 11.0002 6.90315 12.0055 7.09607 12.9755C7.289 13.9454 7.7652 14.8363 8.46447 15.5355C9.16373 16.2348 10.0546 16.711 11.0245 16.9039C11.9945 17.0969 12.9998 16.9978 13.9134 16.6194C14.827 16.241 15.6079 15.6001 16.1573 14.7779C16.7068 13.9556 17 12.9889 17 12C17 10.6739 16.4732 9.40215 15.5355 8.46447C14.5979 7.52678 13.3261 7 12 7ZM12 15C11.4067 15 10.8266 14.8241 10.3333 14.4944C9.83994 14.1648 9.45542 13.6962 9.22836 13.1481C9.0013 12.5999 8.94189 11.9967 9.05764 11.4147C9.1734 10.8328 9.45912 10.2982 9.87868 9.87868C10.2982 9.45912 10.8328 9.1734 11.4147 9.05764C11.9967 8.94189 12.5999 9.0013 13.1481 9.22836C13.6962 9.45542 14.1648 9.83994 14.4944 10.3333C14.8241 10.8266 15 11.4067 15 12C15 12.7956 14.6839 13.5587 14.1213 14.1213C13.5587 14.6839 12.7956 15 12 15ZM17 6C16.8022 6 16.6089 6.05865 16.4444 6.16853C16.28 6.27841 16.1518 6.43459 16.0761 6.61732C16.0004 6.80004 15.9806 7.00111 16.0192 7.19509C16.0578 7.38907 16.153 7.56725 16.2929 7.70711C16.4327 7.84696 16.6109 7.9422 16.8049 7.98079C16.9989 8.01937 17.2 7.99957 17.3827 7.92388C17.5654 7.84819 17.7216 7.72002 17.8315 7.55557C17.9414 7.39112 18 7.19778 18 7C18 6.73478 17.8946 6.48043 17.7071 6.29289C17.5196 6.10536 17.2652 6 17 6ZM21.94 8.24C21.9234 7.38542 21.7611 6.53995 21.46 5.74C21.1808 5.01207 20.7516 4.35099 20.2003 3.7997C19.649 3.2484 18.9879 2.81922 18.26 2.54C17.4601 2.2389 16.6146 2.07657 15.76 2.06C14.79 2 14.47 2 12 2C9.53 2 9.21 2 8.24 2.06C7.38542 2.07657 6.53995 2.2389 5.74 2.54C5.01207 2.81922 4.35099 3.2484 3.7997 3.7997C3.2484 4.35099 2.81922 5.01207 2.54 5.74C2.2389 6.53995 2.07657 7.38542 2.06 8.24C2 9.22 2 9.54 2 12C2 14.46 2 14.78 2.06 15.76C2.07657 16.6146 2.2389 17.4601 2.54 18.26C2.81922 18.9879 3.2484 19.649 3.7997 20.2003C4.35099 20.7516 5.01207 21.1808 5.74 21.46C6.53995 21.7611 7.38542 21.9234 8.24 21.94C9.24 21.94 9.53 22 12 22C14.47 22 14.79 22 15.76 21.94C16.6146 21.9234 17.4601 21.7611 18.26 21.46C18.9879 21.1808 19.649 20.7516 20.2003 20.2003C20.7516 19.649 21.1808 18.9879 21.46 18.26C21.7611 17.4601 21.9234 16.6146 21.94 15.76C21.94 14.76 22 14.46 22 12C22 9.54 22 9.22 21.94 8.24ZM19.94 15.67C19.9225 16.3046 19.8043 16.9324 19.59 17.53C19.4128 18.0023 19.1327 18.4293 18.77 18.78C18.4214 19.1428 17.9936 19.4201 17.52 19.59C16.921 19.8131 16.289 19.9348 15.65 19.95C14.71 19.95 14.42 20 11.99 20C9.56 20 9.28 20 8.34 20C7.70202 19.9835 7.07075 19.8654 6.47 19.65C5.99766 19.4728 5.57067 19.1927 5.22 18.83C4.85715 18.4814 4.57992 18.0536 4.41 17.58C4.1878 16.9842 4.06615 16.3557 4.05 15.72C4.05 14.72 4.05 14.47 4.05 12.05C4.05 9.63 4.05 9.34 4.05 8.38C4.06724 7.74121 4.18884 7.10954 4.41 6.51C4.58256 6.04063 4.85953 5.61662 5.22 5.27C5.56858 4.90715 5.99641 4.62992 6.47 4.46C7.06899 4.2369 7.70099 4.11523 8.34 4.1C9.28 4 9.57 4 12 4C14.43 4 14.72 4 15.66 4C16.3021 4.01633 16.9373 4.13794 17.54 4.36C18.0094 4.53256 18.4334 4.80953 18.78 5.17C19.1428 5.51858 19.4201 5.94641 19.59 6.42C19.8348 7.02856 19.9735 7.67458 20 8.33C20 9.33 20.05 9.58 20.05 12C20.05 14.42 20 14.71 20 15.67H19.94Z" />
</svg>
