<svg width="24" height="24" viewBox="0 0 24 24" xmlns="http://www.w3.org/2000/svg">
<path d="M19.5 2H4.5C3.83696 2 3.20107 2.26339 2.73223 2.73223C2.26339 3.20107 2 3.83696 2 4.5V19.5C2 20.163 2.26339 20.7989 2.73223 21.2678C3.20107 21.7366 3.83696 22 4.5 22H19.5C20.163 22 20.7989 21.7366 21.2678 21.2678C21.7366 20.7989 22 20.163 22 19.5V4.5C22 3.83696 21.7366 3.20107 21.2678 2.73223C20.7989 2.26339 20.163 2 19.5 2ZM14.67 5.67C14.6687 5.58164 14.6851 5.49391 14.7183 5.41201C14.7514 5.33012 14.8007 5.25572 14.8632 5.19323C14.9257 5.13075 15.0001 5.08144 15.082 5.04825C15.1639 5.01506 15.2516 4.99865 15.34 5C15.5135 5.00503 15.6784 5.07618 15.8011 5.19888C15.9238 5.32158 15.995 5.48655 16 5.66V14.56C15.9801 14.7223 15.9014 14.8718 15.7789 14.9801C15.6564 15.0885 15.4985 15.1483 15.335 15.1483C15.1715 15.1483 15.0136 15.0885 14.8911 14.9801C14.7686 14.8718 14.6899 14.7223 14.67 14.56V5.67ZM11.33 5.33C11.33 5.1523 11.4006 4.98189 11.5262 4.85624C11.6519 4.73059 11.8223 4.66 12 4.66C12.1777 4.66 12.3481 4.73059 12.4738 4.85624C12.5994 4.98189 12.67 5.1523 12.67 5.33V15C12.67 15.1777 12.5994 15.3481 12.4738 15.4738C12.3481 15.5994 12.1777 15.67 12 15.67C11.8223 15.67 11.6519 15.5994 11.5262 15.4738C11.4006 15.3481 11.33 15.1777 11.33 15V5.33ZM8 5.67C8.01994 5.50767 8.09857 5.35825 8.22106 5.24988C8.34356 5.14152 8.50145 5.0817 8.665 5.0817C8.82855 5.0817 8.98644 5.14152 9.10894 5.24988C9.23143 5.35825 9.31006 5.50767 9.33 5.67V14.57C9.33001 14.6575 9.31261 14.7442 9.27882 14.8249C9.24503 14.9056 9.19552 14.9788 9.13317 15.0403C9.07082 15.1017 8.99688 15.1501 8.91564 15.1827C8.83441 15.2152 8.74751 15.2313 8.66 15.23C8.48655 15.225 8.32158 15.1538 8.19888 15.0311C8.07618 14.9084 8.00503 14.7435 8 14.57V5.67ZM4.67 7C4.68994 6.83767 4.76857 6.68825 4.89106 6.57988C5.01356 6.47152 5.17145 6.4117 5.335 6.4117C5.49855 6.4117 5.65644 6.47152 5.77894 6.57988C5.90143 6.68825 5.98006 6.83767 6 7V13C5.99737 13.176 5.92563 13.3438 5.80026 13.4673C5.67489 13.5908 5.50598 13.66 5.33 13.66C5.15576 13.6574 4.98938 13.5871 4.86616 13.4638C4.74295 13.3406 4.67258 13.1742 4.67 13V7ZM19.1 17.17C17.044 18.6688 14.5423 19.4299 12 19.33C9.45765 19.4299 6.956 18.6688 4.9 17.17C4.79559 17.0479 4.73853 16.8924 4.73921 16.7317C4.7399 16.5711 4.79829 16.416 4.90373 16.2948C5.00918 16.1736 5.15466 16.0943 5.31367 16.0714C5.47268 16.0485 5.63463 16.0835 5.77 16.17C7.59188 17.4424 9.77943 18.0849 12 18C14.2222 18.0857 16.411 17.4393 18.23 16.16C18.3654 16.0735 18.5273 16.0385 18.6863 16.0614C18.8453 16.0843 18.9908 16.1636 19.0963 16.2848C19.2017 16.406 19.2601 16.5611 19.2608 16.7217C19.2615 16.8824 19.2044 17.0379 19.1 17.16V17.17ZM19.33 13C19.3101 13.1623 19.2314 13.3118 19.1089 13.4201C18.9864 13.5285 18.8285 13.5883 18.665 13.5883C18.5015 13.5883 18.3436 13.5285 18.2211 13.4201C18.0986 13.3118 18.0199 13.1623 18 13V7C18.0026 6.82404 18.0744 6.65618 18.1997 6.53269C18.3251 6.4092 18.494 6.33998 18.67 6.34C18.845 6.34 19.0129 6.40954 19.1367 6.53331C19.2605 6.65708 19.33 6.82496 19.33 7V13Z" />
</svg>
