<svg width="24" height="24" viewBox="0 0 24 24" xmlns="http://www.w3.org/2000/svg">
<path d="M9.99121 15.0004C10.1226 15.0005 10.2526 14.9747 10.374 14.9245C10.4953 14.8742 10.6056 14.8006 10.6985 14.7077C10.7914 14.6148 10.865 14.5046 10.9152 14.3832C10.9655 14.2619 10.9913 14.1318 10.9912 14.0004V6.00044C10.9912 5.73522 10.8859 5.48087 10.6983 5.29333C10.5108 5.1058 10.2564 5.00044 9.99121 5.00044C9.72599 5.00044 9.47164 5.1058 9.2841 5.29333C9.09657 5.48087 8.99121 5.73522 8.99121 6.00044V14.0004C8.99114 14.1318 9.01695 14.2619 9.06718 14.3832C9.11741 14.5046 9.19106 14.6148 9.28394 14.7077C9.37681 14.8006 9.48708 14.8742 9.60844 14.9245C9.7298 14.9747 9.85987 15.0005 9.99121 15.0004ZM13.9912 15.0004C14.1226 15.0005 14.2526 14.9747 14.374 14.9245C14.4953 14.8742 14.6056 14.8006 14.6985 14.7077C14.7914 14.6148 14.865 14.5046 14.9152 14.3832C14.9655 14.2619 14.9913 14.1318 14.9912 14.0004V6.00044C14.9912 5.73522 14.8859 5.48087 14.6983 5.29333C14.5108 5.1058 14.2564 5.00044 13.9912 5.00044C13.726 5.00044 13.4716 5.1058 13.2841 5.29333C13.0966 5.48087 12.9912 5.73522 12.9912 6.00044V14.0004C12.9911 14.1318 13.017 14.2619 13.0672 14.3832C13.1174 14.5046 13.1911 14.6148 13.2839 14.7077C13.3768 14.8006 13.4871 14.8742 13.6084 14.9245C13.7298 14.9747 13.8599 15.0005 13.9912 15.0004ZM5.99121 13.0004C6.12255 13.0005 6.25262 12.9747 6.37398 12.9245C6.49534 12.8742 6.60561 12.8006 6.69849 12.7077C6.79136 12.6148 6.86502 12.5046 6.91525 12.3832C6.96547 12.2619 6.99129 12.1318 6.99121 12.0004V8.00044C6.99121 7.73522 6.88585 7.48087 6.69832 7.29333C6.51078 7.1058 6.25643 7.00044 5.99121 7.00044C5.72599 7.00044 5.47164 7.1058 5.2841 7.29333C5.09657 7.48087 4.99121 7.73522 4.99121 8.00044V12.0004C4.99114 12.1318 5.01695 12.2619 5.06718 12.3832C5.11741 12.5046 5.19106 12.6148 5.28394 12.7077C5.37681 12.8006 5.48708 12.8742 5.60844 12.9245C5.7298 12.9747 5.85987 13.0005 5.99121 13.0004ZM19.9912 1.00044H3.99121C3.19583 1.00131 2.43327 1.31766 1.87085 1.88008C1.30843 2.4425 0.992079 3.20506 0.991211 4.00044V20.0004C0.992079 20.7958 1.30843 21.5584 1.87085 22.1208C2.43327 22.6832 3.19583 22.9996 3.99121 23.0004H19.9912C20.7866 22.9996 21.5492 22.6832 22.1116 22.1208C22.674 21.5584 22.9903 20.7958 22.9912 20.0004V4.00044C22.9903 3.20506 22.674 2.4425 22.1116 1.88008C21.5492 1.31766 20.7866 1.00131 19.9912 1.00044ZM20.9912 20.0004C20.991 20.2656 20.8856 20.5199 20.6981 20.7074C20.5106 20.8948 20.2564 21.0003 19.9912 21.0004H3.99121C3.72605 21.0003 3.4718 20.8948 3.2843 20.7074C3.0968 20.5199 2.99139 20.2656 2.99121 20.0004V4.00044C2.99139 3.73528 3.0968 3.48103 3.2843 3.29353C3.4718 3.10603 3.72605 3.00062 3.99121 3.00044H19.9912C20.2564 3.00062 20.5106 3.10603 20.6981 3.29353C20.8856 3.48103 20.991 3.73528 20.9912 4.00044V20.0004ZM17.3477 15.4086C15.7819 16.5057 13.902 17.0644 11.9912 17.0004C10.0819 17.0525 8.20574 16.495 6.63477 15.4086C6.53423 15.3241 6.41802 15.2602 6.29279 15.2206C6.16756 15.181 6.03575 15.1665 5.9049 15.1778C5.77404 15.1892 5.6467 15.2262 5.53015 15.2867C5.41359 15.3473 5.3101 15.4302 5.22559 15.5307C5.14108 15.6313 5.0772 15.7475 5.03759 15.8727C4.99799 15.9979 4.98344 16.1297 4.99478 16.2606C5.00611 16.3914 5.04311 16.5188 5.10366 16.6353C5.16421 16.7519 5.24712 16.8554 5.34766 16.9399C7.27434 18.3406 9.61005 19.065 11.9912 19.0004C14.3724 19.065 16.7081 18.3406 18.6348 16.9399C18.8378 16.7692 18.9648 16.5249 18.9877 16.2606C19.0105 15.9963 18.9275 15.7338 18.7568 15.5307C18.5862 15.3277 18.3418 15.2007 18.0775 15.1778C17.8133 15.1549 17.5507 15.238 17.3477 15.4086ZM17.9912 7.00044C17.8599 7.00036 17.7298 7.02618 17.6084 7.0764C17.4871 7.12663 17.3768 7.20029 17.2839 7.29316C17.1911 7.38604 17.1174 7.49631 17.0672 7.61767C17.0169 7.73903 16.9911 7.8691 16.9912 8.00044V12.0004C16.9912 12.2657 17.0966 12.52 17.2841 12.7075C17.4716 12.8951 17.726 13.0004 17.9912 13.0004C18.2564 13.0004 18.5108 12.8951 18.6983 12.7075C18.8859 12.52 18.9912 12.2657 18.9912 12.0004V8.00044C18.9913 7.8691 18.9655 7.73903 18.9152 7.61767C18.865 7.49631 18.7914 7.38604 18.6985 7.29316C18.6056 7.20029 18.4953 7.12663 18.374 7.0764C18.2526 7.02618 18.1226 7.00036 17.9912 7.00044Z" />
</svg>
