<svg width="24" height="24" viewBox="0 0 24 24" xmlns="http://www.w3.org/2000/svg">
<path d="M14.4783 14.8829C13.7264 14.9562 12.9689 14.8183 12.2911 14.4846C12.1375 14.3618 12.0108 14.2088 11.9187 14.035C11.8266 13.8613 11.7711 13.6705 11.7556 13.4745C11.7553 13.4451 11.7491 13.4161 11.7376 13.3892C11.726 13.3622 11.7091 13.3379 11.6881 13.3175C11.667 13.297 11.6421 13.281 11.6148 13.2703C11.5875 13.2596 11.5583 13.2544 11.529 13.255C11.2124 13.2512 10.8958 13.252 10.5793 13.2546C10.524 13.249 10.4687 13.2654 10.4254 13.3002C10.3821 13.3351 10.3542 13.3856 10.3479 13.4409C10.3299 13.7848 10.388 14.1285 10.5182 14.4474C10.6484 14.7662 10.8474 15.0524 11.101 15.2854C11.7412 15.785 12.5185 16.0774 13.3293 16.1236C14.174 16.2216 15.0289 16.1853 15.8623 16.0161C16.5023 15.8967 17.089 15.5805 17.5406 15.1117C17.7902 14.8039 17.9575 14.4377 18.0268 14.0474C18.0961 13.6572 18.065 13.2558 17.9366 12.8809C17.8287 12.6166 17.6617 12.3805 17.4484 12.1908C17.2351 12.0011 16.9812 11.8627 16.7062 11.7864C15.4254 11.337 14.0419 11.3709 12.7362 11.0295C12.5095 10.9581 12.2325 10.8807 12.1315 10.6407C12.0731 10.4718 12.0691 10.2888 12.1201 10.1176C12.1711 9.94632 12.2744 9.79534 12.4157 9.68588C12.8256 9.45158 13.2925 9.33536 13.7644 9.35007C14.405 9.28977 15.0507 9.38216 15.6486 9.61966C15.8282 9.72529 15.9827 9.86876 16.1013 10.0401C16.2199 10.2114 16.2997 10.4065 16.3354 10.6118C16.3371 10.6724 16.3614 10.7302 16.4035 10.7738C16.4456 10.8174 16.5025 10.8437 16.563 10.8475C16.8773 10.8539 17.1917 10.8492 17.5061 10.8496C17.5606 10.8562 17.6156 10.8428 17.661 10.812C17.7065 10.7812 17.7393 10.735 17.7534 10.6819C17.7562 10.2579 17.6482 9.84057 17.44 9.47117C17.2319 9.10178 16.9308 8.79317 16.5667 8.57592C15.5617 8.1121 14.4462 7.94142 13.3485 8.08349V8.08341C12.5443 8.11638 11.7759 8.42513 11.1724 8.95779C10.8953 9.2564 10.7077 9.62682 10.6309 10.0269C10.5541 10.4269 10.5912 10.8405 10.738 11.2204C10.8523 11.475 11.0203 11.7017 11.2307 11.885C11.441 12.0683 11.6886 12.2038 11.9564 12.2822C13.2329 12.7433 14.6319 12.5953 15.9208 13.003C16.172 13.0882 16.4644 13.2185 16.5414 13.4981C16.5827 13.6656 16.5796 13.841 16.5323 14.007C16.485 14.173 16.3952 14.3237 16.2718 14.4442C15.7357 14.7772 15.1075 14.9309 14.4783 14.8829ZM20.2972 6.43753C17.805 5.0282 15.3121 3.62014 12.8188 2.21335C12.5686 2.07346 12.2867 2.00001 12.0001 2.00001C11.7135 2.00001 11.4316 2.07346 11.1814 2.21335C8.69775 3.61588 6.21393 5.01835 3.72998 6.42075C3.48834 6.55246 3.28633 6.74643 3.14492 6.98252C3.00351 7.21862 2.92785 7.48826 2.92578 7.76346V16.2377C2.92976 16.5179 3.0095 16.7918 3.15654 17.0304C3.30358 17.2689 3.51245 17.4632 3.76098 17.5927C4.47449 17.9811 5.16772 18.409 5.89416 18.7715C6.31344 18.9957 6.77914 19.1192 7.25439 19.1322C7.72965 19.1453 8.20142 19.0476 8.63238 18.8468C8.95485 18.6448 9.21724 18.36 9.39222 18.0221C9.56719 17.6842 9.64834 17.3056 9.6272 16.9256C9.63275 14.129 9.62805 11.3321 9.62933 8.53539C9.6342 8.50481 9.63255 8.47355 9.6245 8.44366C9.61645 8.41376 9.60217 8.3859 9.5826 8.36191C9.56303 8.33791 9.53861 8.31833 9.51095 8.30442C9.48328 8.29052 9.45299 8.28262 9.42206 8.28124C9.10467 8.27611 8.7868 8.27824 8.46942 8.28039C8.44003 8.27775 8.41042 8.28136 8.38252 8.29097C8.35463 8.30058 8.32908 8.31597 8.30755 8.33615C8.28602 8.35633 8.269 8.38083 8.2576 8.40804C8.24621 8.43526 8.24069 8.46457 8.24142 8.49407C8.23715 11.2728 8.24228 14.0524 8.23886 16.8315C8.23959 17.0234 8.18164 17.2108 8.07279 17.3688C7.96393 17.5267 7.80938 17.6476 7.62986 17.7153C7.42314 17.7764 7.20585 17.7932 6.99219 17.7646C6.77853 17.736 6.57331 17.6626 6.38993 17.5493C5.72892 17.176 5.06792 16.8027 4.40693 16.4294C4.36313 16.4087 4.32675 16.375 4.30268 16.3329C4.2786 16.2909 4.268 16.2424 4.27229 16.1941C4.27229 13.3983 4.27229 10.6025 4.27229 7.80688C4.26769 7.7525 4.2804 7.69805 4.3086 7.65132C4.33679 7.60459 4.37904 7.56797 4.42929 7.54668C6.90483 6.15243 9.3799 4.75671 11.8545 3.35953C11.8975 3.33018 11.9483 3.31451 12.0004 3.31459C12.0524 3.31466 12.1032 3.33048 12.1461 3.35996C14.6216 4.75465 17.0969 6.14983 19.5721 7.5455C19.6222 7.56738 19.6641 7.60433 19.6921 7.6512C19.7201 7.69807 19.7327 7.75251 19.7283 7.80692C19.7278 10.6023 19.7276 13.3979 19.7274 16.1938C19.7318 16.2422 19.7215 16.2909 19.6977 16.3334C19.674 16.3759 19.638 16.4103 19.5945 16.432C17.1569 17.8104 14.7179 19.1868 12.2777 20.5611C12.1611 20.6261 12.0231 20.7306 11.8868 20.6519C11.2477 20.2901 10.6164 19.9143 9.97943 19.5492C9.94687 19.5243 9.90762 19.5096 9.8667 19.5072C9.82578 19.5047 9.78506 19.5145 9.74975 19.5354C9.46919 19.6998 9.17388 19.8376 8.86767 19.947C8.72961 20.0029 8.55975 20.0188 8.46472 20.1469C8.58585 20.2787 8.7326 20.3844 8.89599 20.4575C9.64093 20.8888 10.3863 21.3198 11.132 21.7503C11.3786 21.9052 11.6623 21.9912 11.9534 21.9993C12.2445 22.0074 12.5325 21.9373 12.7874 21.7963C15.2714 20.3957 17.7554 18.9944 20.2392 17.5924C20.4876 17.4627 20.6963 17.2684 20.8433 17.03C20.9904 16.7915 21.0704 16.5178 21.0749 16.2377V7.76346C21.0728 7.49369 20.9998 7.22921 20.8634 6.9965C20.7269 6.7638 20.5317 6.57104 20.2972 6.43753H20.2972Z" />
</svg>
