<svg width="24" height="24" viewBox="0 0 24 24" xmlns="http://www.w3.org/2000/svg">
<path d="M13.78 9.46C13.7301 9.46 13.6807 9.46983 13.6346 9.48893C13.5885 9.50802 13.5466 9.53601 13.5113 9.5713C13.476 9.60659 13.448 9.64848 13.4289 9.69458C13.4098 9.74068 13.4 9.7901 13.4 9.84V11.51L12 9.65C11.9651 9.5934 11.9167 9.54639 11.8591 9.51321C11.8014 9.48004 11.7365 9.46175 11.67 9.46C11.6201 9.46 11.5707 9.46983 11.5246 9.48893C11.4785 9.50802 11.4366 9.53601 11.4013 9.5713C11.366 9.60659 11.338 9.64848 11.3189 9.69458C11.2998 9.74068 11.29 9.7901 11.29 9.84V12.68C11.29 12.7299 11.2998 12.7793 11.3189 12.8254C11.338 12.8715 11.366 12.9134 11.4013 12.9487C11.4366 12.984 11.4785 13.012 11.5246 13.0311C11.5707 13.0502 11.6201 13.06 11.67 13.06C11.7199 13.06 11.7693 13.0502 11.8154 13.0311C11.8615 13.012 11.9034 12.984 11.9387 12.9487C11.974 12.9134 12.002 12.8715 12.0211 12.8254C12.0402 12.7793 12.05 12.7299 12.05 12.68V11L13.44 12.91C13.4754 12.9633 13.5285 13.0023 13.59 13.02C13.6361 13.0303 13.6839 13.0303 13.73 13.02C13.7739 13.0359 13.8206 13.0424 13.8671 13.039C13.9137 13.0355 13.959 13.0222 14 13L14.1 12.93C14.1702 12.8576 14.2096 12.7608 14.21 12.66V9.84C14.2105 9.7856 14.1993 9.73173 14.1771 9.68203C14.155 9.63234 14.1224 9.58798 14.0816 9.55195C14.0409 9.51592 13.9929 9.48907 13.9408 9.47321C13.8888 9.45734 13.8339 9.45284 13.78 9.46ZM9.2 12.27H8.14V9.84C8.14 9.73922 8.09996 9.64256 8.0287 9.5713C7.95744 9.50004 7.86078 9.46 7.76 9.46C7.65922 9.46 7.56256 9.50004 7.4913 9.5713C7.42004 9.64256 7.38 9.73922 7.38 9.84V12.68C7.38 12.7808 7.42004 12.8774 7.4913 12.9487C7.56256 13.02 7.65922 13.06 7.76 13.06H9.2C9.30172 13.06 9.39944 13.0203 9.4723 12.9493C9.54515 12.8783 9.58739 12.7817 9.59 12.68C9.59272 12.6271 9.58464 12.5743 9.56626 12.5246C9.54788 12.475 9.51958 12.4296 9.48309 12.3912C9.4466 12.3528 9.40268 12.3223 9.35402 12.3015C9.30535 12.2806 9.25294 12.2699 9.2 12.27ZM10.31 9.46C10.2083 9.45997 10.1106 9.49968 10.0377 9.57067C9.96485 9.64166 9.92261 9.73831 9.92 9.84V12.68C9.92261 12.7817 9.96485 12.8783 10.0377 12.9493C10.1106 13.0203 10.2083 13.06 10.31 13.06C10.4108 13.06 10.5074 13.02 10.5787 12.9487C10.65 12.8774 10.69 12.7808 10.69 12.68V9.84C10.69 9.73922 10.65 9.64256 10.5787 9.5713C10.5074 9.50004 10.4108 9.46 10.31 9.46ZM17.91 2H6.09C5.00608 2.00264 3.9673 2.4344 3.20085 3.20085C2.4344 3.9673 2.00264 5.00608 2 6.09V17.91C2.00264 18.9939 2.4344 20.0327 3.20085 20.7992C3.9673 21.5656 5.00608 21.9974 6.09 22H17.91C18.9939 21.9974 20.0327 21.5656 20.7992 20.7992C21.5656 20.0327 21.9974 18.9939 22 17.91V6.09C21.9974 5.00608 21.5656 3.9673 20.7992 3.20085C20.0327 2.4344 18.9939 2.00264 17.91 2ZM18.22 14.28C18.1806 14.3396 18.1372 14.3964 18.09 14.45C17.8515 14.7435 17.5835 15.0115 17.29 15.25C15.29 17.12 11.93 19.36 11.48 19.01C11.03 18.66 12.12 17.25 10.95 17.01C10.867 17.0205 10.783 17.0205 10.7 17.01C7.26 16.53 4.7 14.12 4.7 11.23C4.7 7.98 7.99 5.35 12.04 5.35C16.09 5.35 19.38 7.98 19.38 11.23C19.3453 12.3478 18.9369 13.4217 18.22 14.28ZM16.51 9.47H15C14.8992 9.47 14.8026 9.51004 14.7313 9.5813C14.66 9.65256 14.62 9.74922 14.62 9.85V12.69C14.62 12.7399 14.6298 12.7893 14.6489 12.8354C14.668 12.8815 14.696 12.9234 14.7313 12.9587C14.7666 12.994 14.8085 13.022 14.8546 13.0411C14.9007 13.0602 14.9501 13.07 15 13.07H16.48C16.5299 13.07 16.5793 13.0602 16.6254 13.0411C16.6715 13.022 16.7134 12.994 16.7487 12.9587C16.784 12.9234 16.812 12.8815 16.8311 12.8354C16.8502 12.7893 16.86 12.7399 16.86 12.69C16.86 12.5892 16.82 12.4926 16.7487 12.4213C16.6774 12.35 16.5808 12.31 16.48 12.31H15.45V11.71H16.51C16.6117 11.7074 16.7083 11.6652 16.7793 11.5923C16.8503 11.5194 16.89 11.4217 16.89 11.32C16.89 11.2192 16.85 11.1226 16.7787 11.0513C16.7074 10.98 16.6108 10.94 16.51 10.94H15.45V10.33H16.51C16.6108 10.33 16.7074 10.29 16.7787 10.2187C16.85 10.1474 16.89 10.0508 16.89 9.95C16.9057 9.89252 16.9077 9.83215 16.8958 9.77377C16.8839 9.71538 16.8584 9.66062 16.8214 9.61389C16.7844 9.56717 16.737 9.52981 16.6829 9.50481C16.6288 9.47981 16.5696 9.46789 16.51 9.47Z" />
</svg>
