<svg width="24" height="24" viewBox="0 0 24 24" xmlns="http://www.w3.org/2000/svg">
<path d="M15.2642 5.27441C14.118 5.27395 12.9909 5.56841 11.9913 6.12946C10.9674 5.55717 9.81164 5.26254 8.63872 5.27479C7.46579 5.28704 6.31646 5.60575 5.30473 6.1993C4.293 6.79286 3.45404 7.64062 2.87109 8.6585C2.28814 9.67637 1.98145 10.829 1.98145 12.002C1.98145 13.1749 2.28814 14.3276 2.87109 15.3454C3.45404 16.3633 4.293 17.2111 5.30473 17.8046C6.31646 18.3982 7.46579 18.7169 8.63872 18.7291C9.81164 18.7414 10.9674 18.4468 11.9913 17.8745C12.8887 18.3747 13.8888 18.6627 14.9148 18.7163C15.9408 18.7699 16.9654 18.5878 17.9101 18.1839C18.8547 17.7799 19.6943 17.165 20.3643 16.3861C21.0344 15.6073 21.517 14.6853 21.7754 13.6909C22.0337 12.6965 22.0607 11.6561 21.8544 10.6496C21.6481 9.64315 21.214 8.69731 20.5854 7.8847C19.9567 7.07208 19.1502 6.4143 18.2278 5.96182C17.3054 5.50935 16.2916 5.27421 15.2642 5.27446V5.27441ZM10.2367 16.457C9.74921 16.6314 9.23608 16.7235 8.71834 16.7295C7.46452 16.7295 6.26205 16.2314 5.37547 15.3449C4.48888 14.4583 3.9908 13.2558 3.9908 12.002C3.9908 10.7482 4.48888 9.54569 5.37547 8.65911C6.26205 7.77252 7.46452 7.27444 8.71834 7.27444C9.23608 7.28043 9.74921 7.37253 10.2367 7.54697C9.14188 8.77263 8.53672 10.3585 8.53672 12.002C8.53672 13.6454 9.14188 15.2313 10.2367 16.457V16.457ZM11.9913 15.3996C11.5316 14.9611 11.1657 14.4339 10.9156 13.8499C10.6656 13.2659 10.5367 12.6372 10.5367 12.002C10.5367 11.3667 10.6656 10.738 10.9156 10.154C11.1657 9.56999 11.5316 9.04279 11.9913 8.60431C12.451 9.04279 12.8169 9.56999 13.0669 10.154C13.317 10.738 13.4459 11.3667 13.4459 12.002C13.4459 12.6372 13.317 13.2659 13.0669 13.8499C12.8169 14.4339 12.451 14.9611 11.9913 15.3996ZM15.2642 16.7295C14.7465 16.7235 14.2334 16.6314 13.7459 16.457C14.8407 15.2313 15.4459 13.6454 15.4459 12.002C15.4459 10.3585 14.8407 8.77263 13.7459 7.54697C14.2334 7.37253 14.7465 7.28043 15.2642 7.27444C16.5181 7.27444 17.7205 7.77252 18.6071 8.65911C19.4937 9.54569 19.9918 10.7482 19.9918 12.002C19.9918 13.2558 19.4937 14.4583 18.6071 15.3449C17.7205 16.2314 16.5181 16.7295 15.2642 16.7295V16.7295Z" />
</svg>
