<svg width="24" height="24" viewBox="0 0 24 24" xmlns="http://www.w3.org/2000/svg">
<path d="M11.9707 5.00044C8.32711 5.00044 8.32711 10.1225 8.32711 11.8579C8.32711 13.811 8.32711 19.0004 11.9873 19.0004C15.6416 19.0004 15.6416 13.8383 15.6416 11.895C15.6416 7.31977 14.4062 5.00044 11.9707 5.00044ZM11.9873 17.0004C10.8857 17.0004 10.3271 15.27 10.3271 11.8051C10.3271 9.61372 10.6123 7.00044 11.9707 7.00044C13.4248 7.00044 13.6416 10.0668 13.6416 11.895C13.6416 15.2827 13.085 17.0004 11.9873 17.0004ZM11.9883 1.00044C5.93648 1.00044 1.70996 5.48188 1.70996 11.8989C1.70996 17.3559 5.55664 23.0004 11.9951 23.0004C18.4287 23.0004 22.2734 17.3559 22.2734 11.8989C22.2734 5.48188 18.044 1.00044 11.9882 1.00044H11.9883ZM11.9951 21.0004C6.80857 21.0004 3.70994 16.3725 3.70994 11.8989C3.70994 6.57661 7.03709 3.00044 11.9883 3.00044C16.9443 3.00044 20.2734 6.57661 20.2734 11.8989C20.2734 16.3725 17.1767 21.0004 11.9951 21.0004H11.9951Z" />
</svg>
