<svg width="24" height="24" viewBox="0 0 24 24" xmlns="http://www.w3.org/2000/svg">
<path d="M21.9515 15.6143C21.3342 15.4706 20.7521 15.2042 20.2399 14.8309C19.7277 14.4576 19.2958 13.9851 18.97 13.4414C18.8213 13.2218 18.5915 13.0702 18.3311 13.02C18.0707 12.9698 17.801 13.0252 17.5813 13.1738C17.3617 13.3225 17.2101 13.5523 17.16 13.8127C17.1098 14.0732 17.1651 14.3429 17.3138 14.5625C17.9333 15.5076 18.7535 16.3045 19.7161 16.8965C19.5813 16.9219 19.4349 16.9463 19.2747 16.9717C18.9902 17.0322 18.7325 17.1819 18.5389 17.399C18.3454 17.616 18.2261 17.8892 18.1985 18.1787C17.5319 18.065 16.8509 18.0637 16.1839 18.1748C15.4646 18.3336 14.7934 18.6613 14.2259 19.1308C13.642 19.6486 12.9013 19.9553 12.1224 20.0019H11.8616C11.0818 19.9552 10.3403 19.6477 9.75614 19.1289C9.19667 18.6655 8.53594 18.3403 7.82743 18.1797C7.15161 18.0718 6.46284 18.0731 5.78743 18.1836C5.76106 17.8955 5.64401 17.6231 5.4531 17.4057C5.26218 17.1883 5.00724 17.037 4.72493 16.9736C4.5677 16.9492 4.42317 16.9248 4.29036 16.8994C4.97009 16.5062 5.57722 15.9992 6.08528 15.4004C6.31975 15.1285 6.53202 14.8381 6.72005 14.5322C6.86038 14.3074 6.90572 14.0361 6.84611 13.7779C6.7865 13.5197 6.62682 13.2957 6.40215 13.1551C6.17748 13.0146 5.9062 12.969 5.64793 13.0283C5.38965 13.0877 5.1655 13.2472 5.02473 13.4717C4.89152 13.6884 4.74165 13.8944 4.57649 14.0879C3.9374 14.8881 3.03096 15.4308 2.02376 15.6162C1.73143 15.6625 1.46578 15.8132 1.27599 16.0403C1.0862 16.2675 0.985134 16.5556 0.991494 16.8516C0.991158 17.0355 1.03046 17.2174 1.10673 17.3848C1.42216 18.1006 2.262 18.5528 3.8909 18.8594L3.92216 18.9893C3.95048 19.1074 3.97977 19.2275 4.01395 19.3369C4.09062 19.6147 4.25821 19.8589 4.48994 20.0302C4.72168 20.2016 5.00417 20.2903 5.29227 20.2822C5.49584 20.277 5.69808 20.2479 5.89481 20.1953C6.41792 20.0893 6.95533 20.0738 7.48368 20.1494C7.89802 20.2721 8.28106 20.4826 8.60673 20.7666C9.52606 21.5256 10.6702 21.9598 11.8616 22.002H12.1224C13.3212 21.958 14.4719 21.5193 15.3958 20.754C15.723 20.4692 16.1097 20.261 16.5276 20.1446C16.7336 20.1084 16.9425 20.0907 17.1516 20.0919C17.473 20.0913 17.7934 20.127 18.1067 20.1983C18.3097 20.2362 18.5155 20.2575 18.7219 20.2618C19.0028 20.2694 19.2781 20.1826 19.5038 20.0153C19.7295 19.848 19.8926 19.6099 19.9671 19.339C20.0051 19.2169 20.0344 19.0997 20.0618 18.9845L20.093 18.8605C21.717 18.5548 22.5598 18.1056 22.8606 17.42C22.9367 17.2711 22.98 17.1076 22.9876 16.9405C23.0124 16.6299 22.9196 16.3212 22.7278 16.0757C22.5359 15.8301 22.2589 15.6654 21.9515 15.6143ZM3.80204 11.1484C4.00665 11.1872 4.21824 11.1614 4.40754 11.0746C4.59684 10.9878 4.75449 10.8444 4.85868 10.6641C5.25477 10.8657 5.68916 10.9808 6.13309 11.0019C6.60411 11.0082 7.05869 10.829 7.39872 10.5029C7.50629 10.4026 7.59042 10.2798 7.64511 10.1433C7.69979 10.0067 7.7237 9.85979 7.71512 9.71295L7.67899 9.11139C7.51519 7.92451 7.56815 6.71776 7.83528 5.5498C8.17275 4.78266 8.72902 4.13211 9.43445 3.6796C10.1399 3.22709 10.9631 2.99273 11.8011 3.00586L12.1888 3.00195C13.026 2.99077 13.848 3.22633 14.5522 3.67925C15.2564 4.13217 15.8117 4.78239 16.1488 5.54883C16.4159 6.71776 16.4689 7.92545 16.3051 9.11328L16.2953 9.27637L16.2679 9.71973C16.2624 9.86414 16.2874 10.0081 16.3412 10.1422C16.3951 10.2763 16.4766 10.3976 16.5804 10.498C16.917 10.8226 17.3668 11.003 17.8343 11.001C18.2683 10.9631 18.6903 10.8389 19.0756 10.6357C19.1537 10.8137 19.2819 10.965 19.4445 11.0713C19.6072 11.1776 19.7973 11.2343 19.9916 11.2344H20.0091C20.2744 11.2297 20.5268 11.1199 20.7111 10.929C20.8953 10.7382 20.9962 10.482 20.9916 10.2168C20.9656 9.88285 20.8381 9.56483 20.6262 9.30543C20.4143 9.04603 20.1281 8.85766 19.806 8.76562C19.5714 8.66957 19.3201 8.62105 19.0667 8.6229C18.8132 8.62474 18.5626 8.67691 18.3295 8.77637C18.5047 7.41925 18.3837 6.04028 17.975 4.73437C17.4829 3.61131 16.6706 2.65825 15.6397 1.99438C14.6088 1.33052 13.4051 0.985313 12.1791 1.00194L11.7865 1.00585C10.5635 0.990904 9.36331 1.33669 8.33578 2C7.30824 2.6633 6.49896 3.61472 6.00907 4.73535C5.59725 6.05879 5.4773 7.4558 5.65751 8.83008C5.62333 8.81445 5.58622 8.79688 5.54618 8.77832C5.30183 8.67944 5.03964 8.63225 4.77614 8.63972C4.51264 8.6472 4.25354 8.70917 4.01518 8.82175C3.77682 8.93432 3.56437 9.09505 3.39121 9.2938C3.21805 9.49256 3.08794 9.72503 3.00907 9.97656C2.9591 10.2371 3.01453 10.5068 3.1632 10.7265C3.31186 10.9462 3.54162 11.0979 3.80204 11.1484Z" />
</svg>
