<svg width="24" height="24" viewBox="0 0 24 24" xmlns="http://www.w3.org/2000/svg">
<path d="M12.8782 5.92841C12.922 5.92556 12.9659 5.93245 13.0068 5.94859C13.0476 5.96473 13.0843 5.98971 13.1143 6.02175C13.1443 6.05378 13.1669 6.09207 13.1803 6.13386C13.1937 6.17564 13.1977 6.21989 13.192 6.26341C13.194 6.35533 13.1955 6.44725 13.1956 6.53916C13.1962 7.13157 13.1932 7.72404 13.1977 8.31639C13.201 8.74992 13.2772 8.83339 13.6971 8.88548C14.7451 8.98195 15.8003 8.9666 16.845 8.8397C17.3863 8.80215 17.9177 8.67586 18.4179 8.46586C18.5412 8.42804 18.6454 8.34471 18.7094 8.23281C18.7734 8.12092 18.7924 7.98884 18.7625 7.86344C18.5637 6.47899 17.9447 5.18894 16.9891 4.16759C16.0335 3.14624 14.7875 2.44282 13.4193 2.15238C12.2045 1.88861 10.94 1.97283 9.77089 2.39538C8.74458 2.75279 7.82029 3.35385 7.07734 4.147C5.93364 5.28458 5.27221 6.81907 5.23047 8.43164C5.25186 10.3721 5.77759 12.2736 6.75605 13.9494C6.87566 14.1942 7.06696 14.3969 7.30451 14.5303C7.54206 14.6638 7.81462 14.7218 8.08594 14.6967C8.73926 14.681 9.39326 14.6931 10.047 14.6931V14.6896C10.7416 14.6896 11.4361 14.6898 12.1307 14.6901C12.3799 14.6907 12.5772 14.7502 12.5753 15.0624C12.5707 15.7876 12.5759 16.5128 12.5719 17.238C12.5706 17.4581 12.5087 17.67 12.2458 17.6721C11.9819 17.6741 11.9194 17.4631 11.9161 17.2425C11.911 16.8954 11.9163 16.548 11.9167 16.2008C11.9172 15.7498 11.8433 15.644 11.3935 15.5618C10.6164 15.4352 9.82458 15.4285 9.0455 15.5419C8.76999 15.5638 8.49974 15.6295 8.24496 15.7367C8.03311 15.8364 7.94888 15.9817 8.05178 16.204C8.15884 16.4352 8.25869 16.6712 8.38498 16.8918C9.41225 18.6203 10.5571 20.2761 11.8115 21.8475C11.9654 22.047 12.0846 22.0511 12.2426 21.858C12.5913 21.4316 12.9575 21.0194 13.3025 20.5901C14.6553 18.9516 15.8526 17.1907 16.8789 15.3302C17.5643 14.1201 18.0679 12.8156 18.3734 11.4588C18.441 11.2851 18.4674 11.098 18.4503 10.9124C18.4333 10.7267 18.3734 10.5476 18.2753 10.3891C18.1772 10.2305 18.0436 10.097 17.885 9.99892C17.7265 9.90086 17.5473 9.84098 17.3617 9.824C16.8135 9.70277 16.2526 9.64849 15.6912 9.66235C14.7822 9.65558 13.8731 9.65887 12.9641 9.65967C12.7193 9.65991 12.5372 9.5896 12.537 9.30237C12.5365 8.2912 12.5352 7.27997 12.5388 6.26886C12.5397 6.053 12.6437 5.92041 12.8782 5.92841Z" />
</svg>
