<svg width="24" height="24" viewBox="0 0 24 24" xmlns="http://www.w3.org/2000/svg">
<path d="M17.4336 20.5083L16.4717 17.6547C16.4264 17.5207 16.3532 17.3978 16.257 17.2941C16.1607 17.1904 16.0436 17.1084 15.9133 17.0533C15.783 16.9982 15.6425 16.9713 15.501 16.9745C15.3596 16.9777 15.2205 17.0108 15.0928 17.0717C14.7062 17.2207 14.2977 17.3049 13.8838 17.3207C13.6511 17.3502 13.4159 17.2913 13.2246 17.1557C13.0499 16.9243 12.9649 16.6374 12.9853 16.3481V12.0004H16.002C16.1333 12.0005 16.2634 11.9747 16.3848 11.9245C16.5061 11.8742 16.6164 11.8006 16.7093 11.7077C16.8022 11.6148 16.8758 11.5046 16.926 11.3832C16.9763 11.2619 17.0021 11.1318 17.002 11.0004V7.09517C17.0021 6.96383 16.9763 6.83376 16.926 6.7124C16.8758 6.59104 16.8022 6.48077 16.7093 6.3879C16.6164 6.29502 16.5061 6.22137 16.3848 6.17114C16.2634 6.12091 16.1333 6.0951 16.002 6.09517H13V2.00044C13.0001 1.8691 12.9743 1.73903 12.924 1.61767C12.8738 1.49631 12.8002 1.38604 12.7073 1.29317C12.6144 1.20029 12.5041 1.12664 12.3828 1.07641C12.2614 1.02618 12.1313 1.00037 12 1.00044H9.07031C8.78544 1.00175 8.51124 1.10892 8.30098 1.30112C8.09072 1.49333 7.95943 1.75684 7.93262 2.04044C7.8927 3.038 7.56049 4.00184 6.97729 4.81214C6.39409 5.62245 5.58561 6.2435 4.65234 6.59809C4.45873 6.66771 4.29133 6.7954 4.173 6.96372C4.05467 7.13203 3.99118 7.33277 3.99121 7.53852V11.1225C3.99114 11.2539 4.01695 11.3839 4.06718 11.5053C4.11741 11.6267 4.19106 11.7369 4.28394 11.8298C4.37681 11.9227 4.48708 11.9963 4.60844 12.0466C4.7298 12.0968 4.85987 12.1226 4.99121 12.1225H6.01562V16.6577C6.03244 18.3403 6.71008 19.9488 7.90234 21.1362C8.56745 21.7598 9.34948 22.2456 10.2033 22.5654C11.0571 22.8852 11.9659 23.0327 12.877 22.9995C12.9307 22.9995 12.9854 22.9995 13.0401 22.9985C14.586 22.9731 16.6583 22.351 17.3126 21.391C17.3997 21.2633 17.456 21.1171 17.477 20.9639C17.498 20.8107 17.4832 20.6547 17.4336 20.5083ZM13.0068 20.9985C12.3342 21.052 11.6578 20.9651 11.0204 20.7434C10.3831 20.5216 9.79887 20.1699 9.30469 19.7104C8.49087 18.9015 8.02784 17.805 8.01562 16.6577V11.1225C8.0157 10.9912 7.98988 10.8611 7.93966 10.7397C7.88943 10.6184 7.81577 10.5081 7.7229 10.4152C7.63002 10.3224 7.51975 10.2487 7.39839 10.1985C7.27703 10.1482 7.14696 10.1224 7.01562 10.1225H5.99121V8.20551C7.00101 7.71119 7.87591 6.9794 8.54093 6.07287C9.20595 5.16633 9.64126 4.11208 9.80957 3.00044H11V7.09517C10.9999 7.22652 11.0257 7.35659 11.076 7.47794C11.1262 7.5993 11.1999 7.70957 11.2927 7.80245C11.3856 7.89532 11.4959 7.96898 11.6172 8.01921C11.7386 8.06943 11.8687 8.09525 12 8.09517H15.002V10.0004H11.9854C11.8541 10.0004 11.724 10.0262 11.6026 10.0764C11.4813 10.1266 11.371 10.2003 11.2781 10.2932C11.1853 10.386 11.1116 10.4963 11.0614 10.6177C11.0111 10.739 10.9853 10.8691 10.9854 11.0004V16.3647C10.9716 16.7756 11.0402 17.1851 11.1873 17.5691C11.3344 17.953 11.557 18.3036 11.8419 18.6001C12.1227 18.8581 12.4538 19.0553 12.8144 19.1794C13.175 19.3034 13.5574 19.3515 13.9376 19.3208C14.2558 19.3086 14.5726 19.2707 14.8848 19.2075L15.3096 20.4663C14.5857 20.7969 13.8024 20.978 13.0068 20.9985Z" />
</svg>
