<svg width="24" height="24" viewBox="0 0 24 24" xmlns="http://www.w3.org/2000/svg">
<path d="M22.9914 3.95021C22.9915 3.77357 22.9448 3.60007 22.8561 3.44735C22.7673 3.29464 22.6397 3.16817 22.4862 3.08084C22.3326 2.9935 22.1587 2.94842 21.9821 2.95017C21.8054 2.95193 21.6324 3.00046 21.4807 3.09083C20.8954 3.43921 20.2652 3.70601 19.6077 3.88383C18.6686 3.07806 17.471 2.63713 16.2337 2.64164C14.8762 2.6432 13.5726 3.17223 12.5979 4.11702C11.6232 5.06181 11.0539 6.3484 11.01 7.70512C8.33402 7.27838 5.90868 5.88164 4.19649 3.78126C4.09333 3.65609 3.96158 3.55757 3.81235 3.494C3.66313 3.43043 3.5008 3.40368 3.33907 3.41601C3.17743 3.42932 3.02147 3.4818 2.88467 3.56892C2.74786 3.65603 2.63434 3.77516 2.55391 3.91601C2.14144 4.63582 1.90454 5.44276 1.86246 6.27131C1.82038 7.09986 1.9743 7.92666 2.31172 8.68456L2.30977 8.68651C2.15812 8.77991 2.03296 8.91066 1.94628 9.06625C1.85959 9.22185 1.81427 9.39708 1.81465 9.57519C1.81282 9.72211 1.82163 9.86898 1.84102 10.0146C1.94316 11.2729 2.50081 12.4507 3.40938 13.3271C3.34775 13.4446 3.31013 13.5731 3.29873 13.7052C3.28732 13.8373 3.30237 13.9704 3.34297 14.0967C3.73909 15.3308 4.58147 16.3727 5.70528 17.0185C4.56352 17.46 3.3307 17.614 2.11543 17.4668C1.89051 17.4386 1.66266 17.4876 1.46928 17.6059C1.2759 17.7242 1.12846 17.9047 1.05115 18.1178C0.973837 18.3309 0.971244 18.5639 1.04379 18.7787C1.11634 18.9935 1.25973 19.1772 1.45043 19.2998C3.54053 20.646 5.97411 21.3617 8.4602 21.3613C11.2795 21.393 14.0302 20.4921 16.2844 18.7988C18.5387 17.1054 20.1702 14.7145 20.925 11.998C21.2781 10.8146 21.4583 9.58648 21.4602 8.35157C21.4602 8.28614 21.4602 8.21876 21.4592 8.15138C21.9813 7.58831 22.3858 6.92668 22.6489 6.20527C22.912 5.48387 23.0284 4.7172 22.9914 3.95021ZM19.6848 7.16212C19.5196 7.35746 19.436 7.60891 19.4514 7.86427C19.4611 8.02927 19.4602 8.19527 19.4602 8.35157C19.4581 9.39511 19.3052 10.4329 19.0061 11.4326C18.3896 13.744 17.0152 15.7817 15.1031 17.2192C13.1911 18.6568 10.8519 19.4111 8.4602 19.3613C7.60108 19.3616 6.74492 19.2606 5.90942 19.0606C6.97483 18.7172 7.97101 18.1879 8.8518 17.4971C9.01403 17.3693 9.13275 17.1945 9.19169 16.9967C9.25063 16.7988 9.24688 16.5875 9.18098 16.3918C9.11507 16.1961 8.99023 16.0257 8.82358 15.9038C8.65694 15.7819 8.45665 15.7145 8.2502 15.7109C7.41903 15.698 6.62533 15.363 6.03633 14.7764C6.18575 14.7481 6.33419 14.7129 6.48165 14.6709C6.69766 14.6094 6.8867 14.477 7.01831 14.295C7.14993 14.1131 7.21647 13.8921 7.20723 13.6677C7.19798 13.4433 7.11348 13.2285 6.96734 13.058C6.82119 12.8874 6.62191 12.7711 6.40157 12.7275C5.91911 12.6323 5.46512 12.427 5.07489 12.1277C4.68466 11.8284 4.3687 11.4432 4.15157 11.002C4.3323 11.0266 4.51418 11.0419 4.69649 11.0479C4.91308 11.0511 5.12509 10.9854 5.30187 10.8603C5.47865 10.7351 5.61104 10.5569 5.67989 10.3516C5.74587 10.1443 5.74248 9.92123 5.67022 9.7161C5.59797 9.51096 5.46079 9.33499 5.2795 9.21485C4.83965 8.92182 4.47935 8.52427 4.23086 8.0578C3.98237 7.59134 3.85346 7.07052 3.85567 6.54201C3.85567 6.47561 3.85762 6.4092 3.86153 6.34377C6.10279 8.43402 9.00985 9.66621 12.0705 9.82326C12.225 9.82934 12.3789 9.80024 12.5205 9.73816C12.6621 9.67607 12.7877 9.58262 12.8879 9.46486C12.9871 9.34596 13.0573 9.20566 13.0931 9.05501C13.1288 8.90437 13.1291 8.74748 13.0939 8.5967C13.0367 8.35806 13.0076 8.11357 13.007 7.86818C13.0079 7.01271 13.3482 6.19254 13.9531 5.58764C14.558 4.98274 15.3781 4.64251 16.2336 4.64161C16.6737 4.64043 17.1093 4.7305 17.5129 4.90615C17.9165 5.0818 18.2792 5.3392 18.5783 5.66212C18.6937 5.7862 18.8388 5.87871 19 5.93085C19.1612 5.98299 19.333 5.99303 19.4992 5.96001C19.91 5.88006 20.3149 5.7724 20.7111 5.63775C20.4409 6.19072 20.0955 6.70369 19.6848 7.16212Z" />
</svg>
