<svg width="24" height="24" viewBox="0 0 24 24" xmlns="http://www.w3.org/2000/svg">
<path d="M15.7437 13.5293C15.4516 13.2134 15.1235 12.9328 14.7662 12.6932C16.208 11.5785 17.2183 9.99813 17.625 8.22168C17.655 8.0933 17.6594 7.96026 17.6378 7.8302C17.6162 7.70014 17.5691 7.57563 17.4992 7.46384C17.4293 7.35205 17.338 7.25519 17.2305 7.17883C17.123 7.10246 17.0015 7.0481 16.8729 7.01887C16.7444 6.98965 16.6113 6.98613 16.4814 7.00852C16.3515 7.03092 16.2273 7.07879 16.1159 7.14937C16.0045 7.21995 15.9082 7.31186 15.8325 7.4198C15.7568 7.52774 15.7032 7.64958 15.6748 7.77832C15.4854 8.60929 15.117 9.38894 14.5953 10.0629C14.0737 10.7369 13.4113 11.2889 12.6543 11.6806V8.002C12.6481 7.92841 12.6335 7.85579 12.6106 7.78557C12.604 7.72775 12.5924 7.6706 12.5761 7.61474C12.5334 7.52379 12.4772 7.43987 12.4093 7.36583C12.3914 7.34459 12.3824 7.31658 12.3629 7.29693C12.2896 7.2293 12.2067 7.17299 12.1168 7.12987C12.0913 7.11626 12.0723 7.09325 12.0455 7.08187C11.9689 7.05635 11.8895 7.04001 11.809 7.03322C11.7594 7.01869 11.7086 7.00826 11.6572 7.00203L11.0029 7H11C10.7661 6.99888 10.5392 7.08021 10.3593 7.2297C10.1793 7.3792 10.0578 7.5873 10.016 7.81748C9.97422 8.04766 10.0149 8.2852 10.1308 8.4884C10.2467 8.6916 10.4305 8.84747 10.6499 8.92865V13.8193C9.06523 12.1743 8.01592 10.088 7.64014 7.835C7.61821 7.70554 7.57099 7.58166 7.50119 7.47045C7.43138 7.35923 7.34036 7.26286 7.23331 7.18682C7.12626 7.11078 7.00528 7.05658 6.87728 7.02729C6.74928 6.99801 6.61676 6.99423 6.4873 7.01616C6.35784 7.03809 6.23396 7.08531 6.12275 7.15511C6.01153 7.22492 5.91516 7.31594 5.83912 7.42299C5.76308 7.53004 5.70888 7.65102 5.67959 7.77902C5.65031 7.90702 5.64653 8.03954 5.66846 8.169C6.25285 11.6516 8.19485 14.7601 11.0684 16.8125C11.1093 16.8371 11.1521 16.8586 11.1962 16.877C11.2308 16.8973 11.2667 16.9154 11.3036 16.9312C11.4153 16.9758 11.5341 16.9998 11.6543 17.002C11.8014 17.0002 11.9462 16.9654 12.0781 16.9001C12.0881 16.8954 12.0995 16.8976 12.1094 16.8926C12.1978 16.8466 12.2787 16.7875 12.3495 16.7173C12.3637 16.7035 12.3732 16.6865 12.3867 16.6718C12.4512 16.6009 12.505 16.521 12.5466 16.4346C12.5605 16.4059 12.5732 16.3785 12.5843 16.3484C12.6283 16.2381 12.652 16.1207 12.6543 16.002L12.6548 13.876C13.2744 14.0579 13.8327 14.4053 14.2695 14.8809L15.9175 16.6777C16.0061 16.7748 16.1131 16.8535 16.2322 16.9092C16.3513 16.9649 16.4802 16.9966 16.6115 17.0024C16.7429 17.0083 16.8741 16.9881 16.9977 16.9432C17.1212 16.8982 17.2347 16.8293 17.3316 16.7404C17.4285 16.6516 17.5069 16.5445 17.5624 16.4252C17.6178 16.306 17.6492 16.177 17.6547 16.0457C17.6603 15.9143 17.6398 15.7831 17.5946 15.6597C17.5493 15.5362 17.4802 15.4229 17.3911 15.3262L15.7437 13.5293ZM15.0728 1H8.9375C2.78027 1 1 2.77832 1 8.92676V15.0625C1 21.2197 2.77783 23 8.92725 23H15.0625C21.2197 23 23 21.2217 23 15.0732V8.9375C23 2.78027 21.2222 1 15.0728 1ZM21 15.0732C21 20.1133 20.1123 21 15.0625 21H8.92725C3.88623 21 3 20.1123 3 15.0625V8.92676C3 3.88672 3.8877 3 8.9375 3H15.0728C20.1138 3 21 3.8877 21 8.9375V15.0732Z" />
</svg>
