<svg width="24" height="24" viewBox="0 0 24 24" xmlns="http://www.w3.org/2000/svg">
<path d="M15.4 11.16L10.5 8C10.348 7.91223 10.1755 7.86602 10 7.86602C9.82446 7.86602 9.65202 7.91223 9.5 8C9.35174 8.08552 9.22791 8.20766 9.14036 8.35474C9.05282 8.50181 9.00449 8.6689 9 8.84V15.16C9.0013 15.3382 9.05019 15.5128 9.14161 15.6658C9.23303 15.8187 9.36367 15.9445 9.52 16.03C9.66543 16.1156 9.83123 16.1605 10 16.16C10.1771 16.1478 10.3487 16.0929 10.5 16L15.4 12.84C15.5403 12.7493 15.6557 12.625 15.7356 12.4782C15.8155 12.3315 15.8574 12.1671 15.8574 12C15.8574 11.8329 15.8155 11.6685 15.7356 11.5218C15.6557 11.375 15.5403 11.2507 15.4 11.16ZM11 13.32V10.68L13 12L11 13.32ZM19.38 4.51L17.83 4.31C13.991 3.83996 10.109 3.83996 6.27 4.31L4.72 4.51C3.97471 4.5911 3.2854 4.94386 2.78368 5.50092C2.28195 6.05798 2.00297 6.78031 2 7.53V16.47C2.00636 17.2086 2.28051 17.9197 2.77155 18.4715C3.26259 19.0232 3.93715 19.378 4.67 19.47L6.22 19.66C8.13776 19.893 10.0681 20.0066 12 20C13.9323 19.9999 15.8627 19.8797 17.78 19.64L19.33 19.45C20.0628 19.358 20.7374 19.0032 21.2285 18.4515C21.7195 17.8997 21.9936 17.1886 22 16.45V7.53C21.9985 6.78797 21.7265 6.07195 21.235 5.51604C20.7435 4.96012 20.0662 4.60244 19.33 4.51H19.38ZM20.05 16.51C20.0508 16.7619 19.9565 17.0049 19.7859 17.1903C19.6154 17.3757 19.3811 17.4898 19.13 17.51L17.58 17.7C13.9077 18.16 10.1923 18.16 6.52 17.7L4.97 17.51C4.71889 17.4898 4.48463 17.3757 4.31406 17.1903C4.1435 17.0049 4.04919 16.7619 4.05 16.51V7.53C4.06192 7.28194 4.16055 7.04595 4.32869 6.86319C4.49683 6.68043 4.7238 6.56251 4.97 6.53L6.47 6.3C10.1427 5.84664 13.8573 5.84664 17.53 6.3L19.08 6.49C19.3262 6.52251 19.5532 6.64043 19.7213 6.82319C19.8894 7.00595 19.9881 7.24194 20 7.49L20.05 16.51Z" />
</svg>
