<svg width="24" height="24" viewBox="0 0 24 24" xmlns="http://www.w3.org/2000/svg">
<path d="M11.5 18.5C11.3022 18.5 11.1089 18.5586 10.9444 18.6685C10.78 18.7784 10.6518 18.9346 10.5761 19.1173C10.5004 19.3 10.4806 19.5011 10.5192 19.6951C10.5578 19.8891 10.653 20.0673 10.7929 20.2071C10.9327 20.347 11.1109 20.4422 11.3049 20.4808C11.4989 20.5194 11.7 20.4996 11.8827 20.4239C12.0654 20.3482 12.2216 20.22 12.3315 20.0556C12.4414 19.8911 12.5 19.6978 12.5 19.5C12.5 19.2348 12.3946 18.9804 12.2071 18.7929C12.0196 18.6054 11.7652 18.5 11.5 18.5ZM20.5 3.5C20.5 3.23478 20.3946 2.98043 20.2071 2.79289C20.0196 2.60536 19.7652 2.5 19.5 2.5H3.5C3.23478 2.5 2.98043 2.60536 2.79289 2.79289C2.60536 2.98043 2.5 3.23478 2.5 3.5V19.5C2.5 19.7652 2.60536 20.0196 2.79289 20.2071C2.98043 20.3946 3.23478 20.5 3.5 20.5C3.76522 20.5 4.01957 20.3946 4.20711 20.2071C4.39464 20.0196 4.5 19.7652 4.5 19.5V4.5H19.5C19.7652 4.5 20.0196 4.39464 20.2071 4.20711C20.3946 4.01957 20.5 3.76522 20.5 3.5ZM15.5 18.5C15.3022 18.5 15.1089 18.5586 14.9444 18.6685C14.78 18.7784 14.6518 18.9346 14.5761 19.1173C14.5004 19.3 14.4806 19.5011 14.5192 19.6951C14.5578 19.8891 14.653 20.0673 14.7929 20.2071C14.9327 20.347 15.1109 20.4422 15.3049 20.4808C15.4989 20.5194 15.7 20.4996 15.8827 20.4239C16.0654 20.3482 16.2216 20.22 16.3315 20.0556C16.4414 19.8911 16.5 19.6978 16.5 19.5C16.5 19.2348 16.3946 18.9804 16.2071 18.7929C16.0196 18.6054 15.7652 18.5 15.5 18.5ZM7.5 18.5C7.30222 18.5 7.10888 18.5586 6.94443 18.6685C6.77998 18.7784 6.65181 18.9346 6.57612 19.1173C6.50043 19.3 6.48063 19.5011 6.51921 19.6951C6.5578 19.8891 6.65304 20.0673 6.79289 20.2071C6.93275 20.347 7.11093 20.4422 7.30491 20.4808C7.49889 20.5194 7.69996 20.4996 7.88268 20.4239C8.06541 20.3482 8.22159 20.22 8.33147 20.0556C8.44135 19.8911 8.5 19.6978 8.5 19.5C8.5 19.2348 8.39464 18.9804 8.20711 18.7929C8.01957 18.6054 7.76522 18.5 7.5 18.5ZM19.5 6.5C19.3022 6.5 19.1089 6.55865 18.9444 6.66853C18.78 6.77841 18.6518 6.93459 18.5761 7.11732C18.5004 7.30004 18.4806 7.50111 18.5192 7.69509C18.5578 7.88907 18.653 8.06725 18.7929 8.20711C18.9327 8.34696 19.1109 8.4422 19.3049 8.48079C19.4989 8.51937 19.7 8.49957 19.8827 8.42388C20.0654 8.34819 20.2216 8.22002 20.3315 8.05557C20.4414 7.89112 20.5 7.69778 20.5 7.5C20.5 7.23478 20.3946 6.98043 20.2071 6.79289C20.0196 6.60536 19.7652 6.5 19.5 6.5ZM19.5 10.5C19.3022 10.5 19.1089 10.5586 18.9444 10.6685C18.78 10.7784 18.6518 10.9346 18.5761 11.1173C18.5004 11.3 18.4806 11.5011 18.5192 11.6951C18.5578 11.8891 18.653 12.0673 18.7929 12.2071C18.9327 12.347 19.1109 12.4422 19.3049 12.4808C19.4989 12.5194 19.7 12.4996 19.8827 12.4239C20.0654 12.3482 20.2216 12.22 20.3315 12.0556C20.4414 11.8911 20.5 11.6978 20.5 11.5C20.5 11.2348 20.3946 10.9804 20.2071 10.7929C20.0196 10.6054 19.7652 10.5 19.5 10.5ZM19.5 14.5C19.3022 14.5 19.1089 14.5586 18.9444 14.6685C18.78 14.7784 18.6518 14.9346 18.5761 15.1173C18.5004 15.3 18.4806 15.5011 18.5192 15.6951C18.5578 15.8891 18.653 16.0673 18.7929 16.2071C18.9327 16.347 19.1109 16.4422 19.3049 16.4808C19.4989 16.5194 19.7 16.4996 19.8827 16.4239C20.0654 16.3482 20.2216 16.22 20.3315 16.0556C20.4414 15.8911 20.5 15.6978 20.5 15.5C20.5 15.2348 20.3946 14.9804 20.2071 14.7929C20.0196 14.6054 19.7652 14.5 19.5 14.5ZM19.5 18.5C19.3022 18.5 19.1089 18.5586 18.9444 18.6685C18.78 18.7784 18.6518 18.9346 18.5761 19.1173C18.5004 19.3 18.4806 19.5011 18.5192 19.6951C18.5578 19.8891 18.653 20.0673 18.7929 20.2071C18.9327 20.347 19.1109 20.4422 19.3049 20.4808C19.4989 20.5194 19.7 20.4996 19.8827 20.4239C20.0654 20.3482 20.2216 20.22 20.3315 20.0556C20.4414 19.8911 20.5 19.6978 20.5 19.5C20.5 19.2348 20.3946 18.9804 20.2071 18.7929C20.0196 18.6054 19.7652 18.5 19.5 18.5Z" />
</svg>
