<svg width="24" height="24" viewBox="0 0 24 24" xmlns="http://www.w3.org/2000/svg">
<path d="M12 13C11.6955 12.9965 11.3973 13.0863 11.1454 13.2573C10.8936 13.4284 10.7001 13.6725 10.5912 13.9568C10.4823 14.2412 10.4631 14.552 10.5361 14.8476C10.6092 15.1432 10.7711 15.4093 11 15.61V17C11 17.2653 11.1054 17.5196 11.2929 17.7071C11.4804 17.8947 11.7348 18 12 18C12.2652 18 12.5196 17.8947 12.7071 17.7071C12.8946 17.5196 13 17.2653 13 17V15.61C13.2289 15.4093 13.3908 15.1432 13.4639 14.8476C13.5369 14.552 13.5177 14.2412 13.4088 13.9568C13.2999 13.6725 13.1064 13.4284 12.8546 13.2573C12.6027 13.0863 12.3045 12.9965 12 13ZM17 9.00004H9V7.00004C8.99854 6.40623 9.17334 5.82534 9.50226 5.33095C9.83118 4.83655 10.2994 4.45089 10.8477 4.2228C11.3959 3.99472 11.9996 3.93447 12.5821 4.04969C13.1646 4.16491 13.6999 4.45041 14.12 4.87004C14.4959 5.25411 14.7649 5.72987 14.9 6.25004C14.9328 6.37742 14.9904 6.49709 15.0695 6.60221C15.1486 6.70734 15.2476 6.79585 15.3609 6.86271C15.4742 6.92957 15.5995 6.97346 15.7298 6.99188C15.86 7.01029 15.9926 7.00287 16.12 6.97004C16.2474 6.93721 16.3671 6.87961 16.4722 6.80053C16.5773 6.72146 16.6658 6.62245 16.7327 6.50916C16.7995 6.39587 16.8434 6.27052 16.8618 6.14028C16.8802 6.01003 16.8728 5.87742 16.84 5.75004C16.6122 4.88484 16.1603 4.09498 15.53 3.46004C14.8302 2.76241 13.9393 2.28778 12.97 2.09609C12.0006 1.90439 10.9961 2.00423 10.0835 2.383C9.17078 2.76176 8.3908 3.40247 7.84201 4.22422C7.29321 5.04596 7.00021 6.01189 7 7.00004V9.00004C6.20435 9.00004 5.44129 9.31611 4.87868 9.87872C4.31607 10.4413 4 11.2044 4 12V19C4 19.7957 4.31607 20.5588 4.87868 21.1214C5.44129 21.684 6.20435 22 7 22H17C17.7956 22 18.5587 21.684 19.1213 21.1214C19.6839 20.5588 20 19.7957 20 19V12C20 11.2044 19.6839 10.4413 19.1213 9.87872C18.5587 9.31611 17.7956 9.00004 17 9.00004ZM18 19C18 19.2653 17.8946 19.5196 17.7071 19.7071C17.5196 19.8947 17.2652 20 17 20H7C6.73478 20 6.48043 19.8947 6.29289 19.7071C6.10536 19.5196 6 19.2653 6 19V12C6 11.7348 6.10536 11.4805 6.29289 11.2929C6.48043 11.1054 6.73478 11 7 11H17C17.2652 11 17.5196 11.1054 17.7071 11.2929C17.8946 11.4805 18 11.7348 18 12V19Z" />
</svg>
