<svg width="24" height="24" viewBox="0 0 24 24" xmlns="http://www.w3.org/2000/svg">
<path d="M20.4596 9.63002C20.3299 8.27185 19.8753 6.96484 19.134 5.81944C18.3927 4.67404 17.3866 3.72391 16.2007 3.04934C15.0148 2.37477 13.6839 1.99557 12.3206 1.9438C10.9572 1.89204 9.60142 2.16921 8.36777 2.75191C7.13412 3.33461 6.05886 4.20571 5.23286 5.2916C4.40685 6.37748 3.85438 7.64625 3.62212 8.99068C3.38986 10.3351 3.48464 11.7157 3.89845 13.0158C4.31226 14.3158 5.03294 15.4972 5.99959 16.46L11.2996 21.77C11.3926 21.8637 11.5032 21.9381 11.625 21.9889C11.7469 22.0397 11.8776 22.0658 12.0096 22.0658C12.1416 22.0658 12.2723 22.0397 12.3942 21.9889C12.516 21.9381 12.6266 21.8637 12.7196 21.77L17.9996 16.46C18.8908 15.5755 19.5739 14.5036 19.9994 13.3223C20.4249 12.1409 20.5821 10.8797 20.4596 9.63002ZM16.5996 15.05L11.9996 19.65L7.39959 15.05C6.72168 14.3721 6.20239 13.5523 5.87906 12.6498C5.55572 11.7472 5.43637 10.7842 5.52959 9.83002C5.62341 8.86112 5.93135 7.92518 6.43116 7.08986C6.93097 6.25454 7.61015 5.54072 8.41959 5.00002C9.48053 4.29525 10.7259 3.91931 11.9996 3.91931C13.2733 3.91931 14.5186 4.29525 15.5796 5.00002C16.3866 5.53863 17.0643 6.2493 17.5639 7.08095C18.0636 7.91261 18.3729 8.84462 18.4696 9.81002C18.5658 10.7674 18.448 11.7343 18.1246 12.6406C17.8012 13.5468 17.2803 14.3698 16.5996 15.05ZM13.7896 6.25002C13.6966 6.15629 13.586 6.08189 13.4642 6.03112C13.3423 5.98036 13.2116 5.95422 13.0796 5.95422C12.9476 5.95422 12.8169 5.98036 12.695 6.03112C12.5732 6.08189 12.4626 6.15629 12.3696 6.25002L8.78959 9.83002C8.60484 10.0163 8.50069 10.2677 8.49959 10.53V13C8.49959 13.2652 8.60495 13.5196 8.79248 13.7071C8.98002 13.8947 9.23437 14 9.49959 14H11.9196C12.0512 14.0008 12.1817 13.9756 12.3035 13.9258C12.4253 13.876 12.5361 13.8027 12.6296 13.71L16.2096 10.13C16.3958 9.94265 16.5004 9.6892 16.5004 9.42502C16.5004 9.16083 16.3958 8.90738 16.2096 8.72002L13.7896 6.25002ZM11.5096 12H10.5096V11L13.0896 8.42002L14.0896 9.42002L11.5096 12Z" />
</svg>
