<svg width="24" height="24" viewBox="0 0 24 24" xmlns="http://www.w3.org/2000/svg">
<path d="M12.0004 10C11.7352 10 11.4808 10.1054 11.2933 10.2929C11.1057 10.4805 11.0004 10.7348 11.0004 11V13C11.0004 13.2652 11.1057 13.5196 11.2933 13.7071C11.4808 13.8947 11.7352 14 12.0004 14C12.2656 14 12.5199 13.8947 12.7075 13.7071C12.895 13.5196 13.0004 13.2652 13.0004 13V11C13.0004 10.7348 12.895 10.4805 12.7075 10.2929C12.5199 10.1054 12.2656 10 12.0004 10ZM20.4604 9.68002C20.3278 8.21463 19.8171 6.80875 18.9782 5.59993C18.1393 4.39111 17.001 3.42074 15.6747 2.78377C14.3483 2.14679 12.8793 1.86503 11.4114 1.96604C9.94352 2.06705 8.52697 2.54737 7.30037 3.36002C6.24957 4.06267 5.36742 4.98932 4.71731 6.07341C4.0672 7.1575 3.66526 8.37213 3.54037 9.63002C3.41785 10.8797 3.57504 12.1409 4.00054 13.3223C4.42604 14.5037 5.10917 15.5755 6.00037 16.46L11.3004 21.77C11.3933 21.8638 11.5039 21.9381 11.6258 21.9889C11.7477 22.0397 11.8784 22.0658 12.0104 22.0658C12.1424 22.0658 12.2731 22.0397 12.3949 21.9889C12.5168 21.9381 12.6274 21.8638 12.7204 21.77L18.0004 16.46C18.8916 15.5755 19.5747 14.5037 20.0002 13.3223C20.4257 12.1409 20.5829 10.8797 20.4604 9.63002V9.68002ZM16.6004 15.05L12.0004 19.65L7.40037 15.05C6.72246 14.3721 6.20317 13.5524 5.87984 12.6498C5.5565 11.7472 5.43715 10.7842 5.53037 9.83002C5.62419 8.86112 5.93213 7.92518 6.43194 7.08986C6.93175 6.25455 7.61093 5.54073 8.42037 5.00002C9.48131 4.29526 10.7267 3.91932 12.0004 3.91932C13.2741 3.91932 14.5194 4.29526 15.5804 5.00002C16.3874 5.53864 17.065 6.2493 17.5647 7.08096C18.0644 7.91262 18.3737 8.84462 18.4704 9.81002C18.5666 10.7674 18.4488 11.7343 18.1254 12.6406C17.8019 13.5468 17.281 14.3699 16.6004 15.05ZM12.9204 7.57002C12.9004 7.50859 12.8699 7.45107 12.8304 7.40002L12.7104 7.25002C12.591 7.13666 12.4455 7.05453 12.2867 7.01092C12.128 6.96731 11.9609 6.96357 11.8004 7.00002H11.6204L11.4404 7.09002L11.2904 7.22002L11.1704 7.37002C11.1308 7.42107 11.1003 7.47859 11.0804 7.54002C11.0499 7.59957 11.0296 7.66379 11.0204 7.73002C11.0038 7.81901 10.9971 7.90956 11.0004 8.00002C10.9969 8.13443 11.0243 8.26784 11.0804 8.39002C11.1313 8.50804 11.2024 8.61632 11.2904 8.71002C11.3855 8.80346 11.4975 8.8781 11.6204 8.93002C11.8652 9.02302 12.1356 9.02302 12.3804 8.93002C12.5019 8.87566 12.6135 8.8013 12.7104 8.71002C12.7984 8.61632 12.8694 8.50804 12.9204 8.39002C12.9729 8.2667 13.0001 8.13407 13.0004 8.00002C13.0053 7.93678 13.0053 7.87326 13.0004 7.81002C12.9911 7.72524 12.9638 7.64343 12.9204 7.57002Z" />
</svg>
