<svg width="24" height="24" viewBox="0 0 24 24" xmlns="http://www.w3.org/2000/svg">
<path d="M16.37 12.79C16.2479 12.7414 16.1174 12.7173 15.9859 12.7192C15.8545 12.721 15.7247 12.7487 15.604 12.8007C15.4833 12.8527 15.374 12.928 15.2824 13.0223C15.1908 13.1165 15.1186 13.2279 15.07 13.35C15.0214 13.4721 14.9974 13.6026 14.9992 13.734C15.001 13.8655 15.0288 13.9952 15.0808 14.116C15.1328 14.2367 15.208 14.346 15.3023 14.4376C15.3965 14.5292 15.5079 14.6014 15.63 14.65C17.09 15.23 18 16.13 18 17C18 18.42 15.54 20 12 20C8.46 20 6 18.42 6 17C6 16.13 6.91 15.23 8.37 14.65C8.61665 14.5519 8.81422 14.3598 8.91924 14.116C9.02426 13.8722 9.02813 13.5966 8.93 13.35C8.83187 13.1033 8.63978 12.9058 8.39598 12.8007C8.15218 12.6957 7.87665 12.6919 7.63 12.79C5.36 13.69 4 15.26 4 17C4 19.8 7.51 22 12 22C16.49 22 20 19.8 20 17C20 15.26 18.64 13.69 16.37 12.79ZM11 9.85998V17C11 17.2652 11.1054 17.5196 11.2929 17.7071C11.4804 17.8946 11.7348 18 12 18C12.2652 18 12.5196 17.8946 12.7071 17.7071C12.8946 17.5196 13 17.2652 13 17V9.85998C13.9427 9.61659 14.7642 9.03775 15.3106 8.23198C15.857 7.4262 16.0908 6.4488 15.9681 5.48298C15.8454 4.51717 15.3747 3.62925 14.6442 2.98566C13.9137 2.34207 12.9736 1.987 12 1.987C11.0264 1.987 10.0863 2.34207 9.35577 2.98566C8.62526 3.62925 8.15456 4.51717 8.03188 5.48298C7.90921 6.4488 8.14299 7.4262 8.6894 8.23198C9.23581 9.03775 10.0573 9.61659 11 9.85998ZM12 3.99998C12.3956 3.99998 12.7822 4.11728 13.1111 4.33704C13.44 4.55681 13.6964 4.86916 13.8478 5.23462C13.9991 5.60007 14.0387 6.0022 13.9616 6.39016C13.8844 6.77813 13.6939 7.13449 13.4142 7.4142C13.1345 7.6939 12.7781 7.88438 12.3902 7.96155C12.0022 8.03872 11.6001 7.99912 11.2346 7.84774C10.8692 7.69637 10.5568 7.44002 10.3371 7.11112C10.1173 6.78222 10 6.39555 10 5.99998C10 5.46955 10.2107 4.96084 10.5858 4.58577C10.9609 4.2107 11.4696 3.99998 12 3.99998Z" />
</svg>
