<svg width="24" height="24" viewBox="0 0 24 24" xmlns="http://www.w3.org/2000/svg">
<path d="M14.4104 6.53C14.0968 6.59926 13.772 6.60028 13.4579 6.53299C13.1439 6.4657 12.848 6.33168 12.5904 6.14C12.4191 6.01486 12.2125 5.94741 12.0004 5.94741C11.7883 5.94741 11.5816 6.01486 11.4104 6.14C11.1527 6.33168 10.8568 6.4657 10.5428 6.53299C10.2288 6.60028 9.90396 6.59926 9.59037 6.53C9.44431 6.49846 9.29304 6.50006 9.14767 6.53467C9.00231 6.56928 8.86655 6.63603 8.75037 6.73C8.63435 6.82412 8.54089 6.94304 8.47686 7.07802C8.41283 7.213 8.37986 7.36061 8.38037 7.51V10.41C8.37336 11.0527 8.51611 11.6882 8.79729 12.2662C9.07847 12.8442 9.49038 13.3488 10.0004 13.74L11.3704 14.74C11.5416 14.8652 11.7483 14.9326 11.9604 14.9326C12.1725 14.9326 12.3791 14.8652 12.5504 14.74L13.9204 13.74C14.4377 13.353 14.8573 12.8502 15.1455 12.272C15.4338 11.6938 15.5827 11.0561 15.5804 10.41V7.51C15.5809 7.36061 15.5479 7.213 15.4839 7.07802C15.4198 6.94304 15.3264 6.82412 15.2104 6.73C15.0989 6.6417 14.9699 6.57819 14.8319 6.5437C14.694 6.50921 14.5503 6.50454 14.4104 6.53ZM13.6204 10.41C13.6231 10.7446 13.5477 11.0753 13.4001 11.3756C13.2525 11.6759 13.0369 11.9377 12.7704 12.14L12.0004 12.71L11.2304 12.14C10.9638 11.9377 10.7482 11.6759 10.6006 11.3756C10.4531 11.0753 10.3776 10.7446 10.3804 10.41V8.57C10.9451 8.53018 11.496 8.37715 12.0004 8.12C12.5047 8.37715 13.0557 8.53018 13.6204 8.57V10.41ZM20.4604 9.63C20.32 8.16892 19.8036 6.76909 18.9616 5.56682C18.1195 4.36456 16.9805 3.40083 15.6554 2.7695C14.3303 2.13816 12.8642 1.86072 11.4001 1.96421C9.93592 2.06769 8.5235 2.54856 7.30037 3.36C6.24957 4.06265 5.36742 4.9893 4.71731 6.07339C4.0672 7.15749 3.66526 8.37211 3.54037 9.63C3.41785 10.8797 3.57504 12.1409 4.00054 13.3223C4.42604 14.5036 5.10917 15.5755 6.00037 16.46L11.3004 21.77C11.3933 21.8637 11.5039 21.9381 11.6258 21.9889C11.7477 22.0397 11.8784 22.0658 12.0104 22.0658C12.1424 22.0658 12.2731 22.0397 12.3949 21.9889C12.5168 21.9381 12.6274 21.8637 12.7204 21.77L18.0004 16.46C18.8916 15.5755 19.5747 14.5036 20.0002 13.3223C20.4257 12.1409 20.5829 10.8797 20.4604 9.63ZM16.6004 15.05L12.0004 19.65L7.40037 15.05C6.72246 14.3721 6.20317 13.5523 5.87984 12.6498C5.5565 11.7472 5.43715 10.7842 5.53037 9.83C5.62419 8.86111 5.93213 7.92516 6.43194 7.08985C6.93175 6.25453 7.61093 5.54071 8.42037 5C9.48131 4.29524 10.7267 3.9193 12.0004 3.9193C13.2741 3.9193 14.5194 4.29524 15.5804 5C16.3874 5.53862 17.065 6.24928 17.5647 7.08094C18.0644 7.9126 18.3737 8.84461 18.4704 9.81C18.5666 10.7674 18.4488 11.7343 18.1254 12.6406C17.8019 13.5468 17.281 14.3698 16.6004 15.05Z" />
</svg>
