<svg width="24" height="24" viewBox="0 0 24 24" xmlns="http://www.w3.org/2000/svg">
<path d="M13 16H7.00001C6.73479 16 6.48044 16.1054 6.2929 16.2929C6.10537 16.4804 6.00001 16.7348 6.00001 17C6.00001 17.2652 6.10537 17.5196 6.2929 17.7071C6.48044 17.8946 6.73479 18 7.00001 18H13C13.2652 18 13.5196 17.8946 13.7071 17.7071C13.8947 17.5196 14 17.2652 14 17C14 16.7348 13.8947 16.4804 13.7071 16.2929C13.5196 16.1054 13.2652 16 13 16ZM9.00001 10H11C11.2652 10 11.5196 9.89464 11.7071 9.70711C11.8947 9.51957 12 9.26522 12 9C12 8.73478 11.8947 8.48043 11.7071 8.29289C11.5196 8.10536 11.2652 8 11 8H9.00001C8.73479 8 8.48044 8.10536 8.2929 8.29289C8.10537 8.48043 8.00001 8.73478 8.00001 9C8.00001 9.26522 8.10537 9.51957 8.2929 9.70711C8.48044 9.89464 8.73479 10 9.00001 10ZM21 12H18V3C18.0007 2.82379 17.9548 2.65052 17.867 2.49775C17.7792 2.34497 17.6526 2.2181 17.5 2.13C17.348 2.04223 17.1755 1.99603 17 1.99603C16.8245 1.99603 16.652 2.04223 16.5 2.13L13.5 3.85L10.5 2.13C10.348 2.04223 10.1755 1.99603 10 1.99603C9.82447 1.99603 9.65203 2.04223 9.50001 2.13L6.50001 3.85L3.50001 2.13C3.34799 2.04223 3.17554 1.99603 3.00001 1.99603C2.82447 1.99603 2.65203 2.04223 2.50001 2.13C2.3474 2.2181 2.22079 2.34497 2.13299 2.49775C2.04518 2.65052 1.99931 2.82379 2.00001 3V19C2.00001 19.7956 2.31608 20.5587 2.87869 21.1213C3.4413 21.6839 4.20436 22 5.00001 22H19C19.7957 22 20.5587 21.6839 21.1213 21.1213C21.6839 20.5587 22 19.7956 22 19V13C22 12.7348 21.8947 12.4804 21.7071 12.2929C21.5196 12.1054 21.2652 12 21 12ZM5.00001 20C4.73479 20 4.48044 19.8946 4.2929 19.7071C4.10536 19.5196 4.00001 19.2652 4.00001 19V4.73L6.00001 5.87C6.15435 5.95061 6.32589 5.99271 6.50001 5.99271C6.67413 5.99271 6.84567 5.95061 7.00001 5.87L10 4.15L13 5.87C13.1543 5.95061 13.3259 5.99271 13.5 5.99271C13.6741 5.99271 13.8457 5.95061 14 5.87L16 4.73V19C16.0027 19.3411 16.0636 19.6793 16.18 20H5.00001ZM20 19C20 19.2652 19.8947 19.5196 19.7071 19.7071C19.5196 19.8946 19.2652 20 19 20C18.7348 20 18.4804 19.8946 18.2929 19.7071C18.1054 19.5196 18 19.2652 18 19V14H20V19ZM13 12H7.00001C6.73479 12 6.48044 12.1054 6.2929 12.2929C6.10537 12.4804 6.00001 12.7348 6.00001 13C6.00001 13.2652 6.10537 13.5196 6.2929 13.7071C6.48044 13.8946 6.73479 14 7.00001 14H13C13.2652 14 13.5196 13.8946 13.7071 13.7071C13.8947 13.5196 14 13.2652 14 13C14 12.7348 13.8947 12.4804 13.7071 12.2929C13.5196 12.1054 13.2652 12 13 12Z" />
</svg>
