<svg width="24" height="24" viewBox="0 0 24 24" xmlns="http://www.w3.org/2000/svg">
<path d="M20 1H4C3.20435 1 2.44129 1.31607 1.87868 1.87868C1.31607 2.44129 1 3.20435 1 4V20C1 20.7956 1.31607 21.5587 1.87868 22.1213C2.44129 22.6839 3.20435 23 4 23H20C20.7956 23 21.5587 22.6839 22.1213 22.1213C22.6839 21.5587 23 20.7956 23 20V4C23 3.20435 22.6839 2.44129 22.1213 1.87868C21.5587 1.31607 20.7956 1 20 1ZM8 21H4C3.73478 21 3.48043 20.8946 3.29289 20.7071C3.10536 20.5196 3 20.2652 3 20V18.82C3.32067 18.9364 3.65886 18.9973 4 19H8V21ZM8 17H4C3.73478 17 3.48043 16.8946 3.29289 16.7071C3.10536 16.5196 3 16.2652 3 16V14.82C3.32067 14.9364 3.65886 14.9973 4 15H8V17ZM8 13H4C3.73478 13 3.48043 12.8946 3.29289 12.7071C3.10536 12.5196 3 12.2652 3 12V4C3 3.73478 3.10536 3.48043 3.29289 3.29289C3.48043 3.10536 3.73478 3 4 3H8V13ZM14 21H10V15H14V21ZM14 13H10V3H14V13ZM21 20C21 20.2652 20.8946 20.5196 20.7071 20.7071C20.5196 20.8946 20.2652 21 20 21H16V19H20C20.3411 18.9973 20.6793 18.9364 21 18.82V20ZM21 16C21 16.2652 20.8946 16.5196 20.7071 16.7071C20.5196 16.8946 20.2652 17 20 17H16V15H20C20.3411 14.9973 20.6793 14.9364 21 14.82V16ZM21 12C21 12.2652 20.8946 12.5196 20.7071 12.7071C20.5196 12.8946 20.2652 13 20 13H16V3H20C20.2652 3 20.5196 3.10536 20.7071 3.29289C20.8946 3.48043 21 3.73478 21 4V12ZM18 7C17.8022 7 17.6089 7.05865 17.4444 7.16853C17.28 7.27841 17.1518 7.43459 17.0761 7.61732C17.0004 7.80004 16.9806 8.00111 17.0192 8.19509C17.0578 8.38907 17.153 8.56725 17.2929 8.70711C17.4327 8.84696 17.6109 8.9422 17.8049 8.98079C17.9989 9.01937 18.2 8.99957 18.3827 8.92388C18.5654 8.84819 18.7216 8.72002 18.8315 8.55557C18.9414 8.39112 19 8.19778 19 8C19 7.73478 18.8946 7.48043 18.7071 7.29289C18.5196 7.10536 18.2652 7 18 7ZM6 9C6.19778 9 6.39112 8.94135 6.55557 8.83147C6.72002 8.72159 6.84819 8.56541 6.92388 8.38268C6.99957 8.19996 7.01937 7.99889 6.98079 7.80491C6.9422 7.61093 6.84696 7.43275 6.70711 7.29289C6.56725 7.15304 6.38907 7.0578 6.19509 7.01921C6.00111 6.98063 5.80004 7.00043 5.61732 7.07612C5.43459 7.15181 5.27841 7.27998 5.16853 7.44443C5.05865 7.60888 5 7.80222 5 8C5 8.26522 5.10536 8.51957 5.29289 8.70711C5.48043 8.89464 5.73478 9 6 9Z" />
</svg>
