<svg width="24" height="24" viewBox="0 0 24 24" xmlns="http://www.w3.org/2000/svg">
<path d="M11 9H15C15.2652 9 15.5196 8.89464 15.7071 8.70711C15.8946 8.51957 16 8.26522 16 8C16 7.73478 15.8946 7.48043 15.7071 7.29289C15.5196 7.10536 15.2652 7 15 7H13V6C13 5.73478 12.8946 5.48043 12.7071 5.29289C12.5196 5.10536 12.2652 5 12 5C11.7348 5 11.4804 5.10536 11.2929 5.29289C11.1054 5.48043 11 5.73478 11 6V7C10.2044 7 9.44129 7.31607 8.87868 7.87868C8.31607 8.44129 8 9.20435 8 10C8 10.7956 8.31607 11.5587 8.87868 12.1213C9.44129 12.6839 10.2044 13 11 13H13C13.2652 13 13.5196 13.1054 13.7071 13.2929C13.8946 13.4804 14 13.7348 14 14C14 14.2652 13.8946 14.5196 13.7071 14.7071C13.5196 14.8946 13.2652 15 13 15H9C8.73479 15 8.48043 15.1054 8.2929 15.2929C8.10536 15.4804 8 15.7348 8 16C8 16.2652 8.10536 16.5196 8.2929 16.7071C8.48043 16.8946 8.73479 17 9 17H11V18C11 18.2652 11.1054 18.5196 11.2929 18.7071C11.4804 18.8946 11.7348 19 12 19C12.2652 19 12.5196 18.8946 12.7071 18.7071C12.8946 18.5196 13 18.2652 13 18V17C13.7957 17 14.5587 16.6839 15.1213 16.1213C15.6839 15.5587 16 14.7956 16 14C16 13.2044 15.6839 12.4413 15.1213 11.8787C14.5587 11.3161 13.7957 11 13 11H11C10.7348 11 10.4804 10.8946 10.2929 10.7071C10.1054 10.5196 10 10.2652 10 10C10 9.73478 10.1054 9.48043 10.2929 9.29289C10.4804 9.10536 10.7348 9 11 9ZM12 1C9.82441 1 7.69767 1.64514 5.88873 2.85383C4.07979 4.06253 2.66989 5.78049 1.83733 7.79048C1.00477 9.80047 0.786929 12.0122 1.21137 14.146C1.6358 16.2798 2.68345 18.2398 4.22183 19.7782C5.76021 21.3166 7.72022 22.3642 9.85401 22.7886C11.9878 23.2131 14.1995 22.9952 16.2095 22.1627C18.2195 21.3301 19.9375 19.9202 21.1462 18.1113C22.3549 16.3023 23 14.1756 23 12C23 9.08262 21.8411 6.28473 19.7782 4.22183C17.7153 2.15893 14.9174 1 12 1ZM12 21C10.22 21 8.47992 20.4722 6.99987 19.4832C5.51983 18.4943 4.36628 17.0887 3.68509 15.4442C3.0039 13.7996 2.82567 11.99 3.17294 10.2442C3.5202 8.49836 4.37737 6.89471 5.63604 5.63604C6.89472 4.37737 8.49836 3.5202 10.2442 3.17293C11.99 2.82567 13.7996 3.0039 15.4442 3.68508C17.0887 4.36627 18.4943 5.51983 19.4832 6.99987C20.4722 8.47991 21 10.22 21 12C21 14.3869 20.0518 16.6761 18.364 18.364C16.6761 20.0518 14.387 21 12 21Z" />
</svg>
