<svg width="24" height="24" viewBox="0 0 24 24" xmlns="http://www.w3.org/2000/svg">
<path d="M19.2 17.41C18.6674 18.1822 17.9611 18.8188 17.1379 19.2686C16.3147 19.7184 15.3975 19.9689 14.46 20C11.78 20 9.46 18 8.46 15H14C14.2652 15 14.5196 14.8946 14.7071 14.7071C14.8946 14.5196 15 14.2652 15 14C15 13.7348 14.8946 13.4804 14.7071 13.2929C14.5196 13.1054 14.2652 13 14 13H8.05C8.05 12.67 8 12.33 8 12C8 11.67 8 11.33 8.05 11H14C14.2652 11 14.5196 10.8946 14.7071 10.7071C14.8946 10.5196 15 10.2652 15 10C15 9.73478 14.8946 9.48043 14.7071 9.29289C14.5196 9.10536 14.2652 9 14 9H8.47C9.47 6 11.78 4 14.47 4C15.4058 4.03267 16.321 4.28392 17.1424 4.73366C17.9637 5.1834 18.6684 5.81913 19.2 6.59C19.2706 6.71152 19.366 6.8168 19.48 6.89898C19.5939 6.98116 19.724 7.03839 19.8616 7.06694C19.9992 7.09549 20.1412 7.09472 20.2785 7.06468C20.4158 7.03464 20.5452 6.976 20.6583 6.8926C20.7714 6.80919 20.8656 6.70288 20.9349 6.58061C21.0041 6.45833 21.0468 6.32283 21.0602 6.18294C21.0736 6.04305 21.0573 5.90192 21.0125 5.76874C20.9676 5.63556 20.8952 5.51332 20.8 5.41C20.0877 4.38118 19.1418 3.53577 18.0398 2.94304C16.9378 2.35031 15.711 2.02714 14.46 2C10.7 2 7.46 4.84 6.39 9H4C3.73478 9 3.48043 9.10536 3.29289 9.29289C3.10536 9.48043 3 9.73478 3 10C3 10.2652 3.10536 10.5196 3.29289 10.7071C3.48043 10.8946 3.73478 11 4 11H6.05C6.05 11.33 6.05 11.67 6.05 12C6.05 12.33 6.05 12.67 6.05 13H4C3.73478 13 3.48043 13.1054 3.29289 13.2929C3.10536 13.4804 3 13.7348 3 14C3 14.2652 3.10536 14.5196 3.29289 14.7071C3.48043 14.8946 3.73478 15 4 15H6.39C7.48 19.16 10.7 22 14.46 22C15.711 21.9729 16.9378 21.6497 18.0398 21.057C19.1418 20.4642 20.0877 19.6188 20.8 18.59C20.9237 18.377 20.9644 18.1258 20.9144 17.8846C20.8643 17.6434 20.727 17.4292 20.5288 17.283C20.3305 17.1368 20.0853 17.0689 19.8401 17.0923C19.5949 17.1158 19.367 17.2289 19.2 17.41Z" />
</svg>
