<svg width="24" height="24" viewBox="0 0 24 24" xmlns="http://www.w3.org/2000/svg">
<path d="M9.50001 10.5H12C12.2652 10.5 12.5196 10.3946 12.7071 10.2071C12.8947 10.0196 13 9.76522 13 9.5C13 9.23478 12.8947 8.98043 12.7071 8.79289C12.5196 8.60536 12.2652 8.5 12 8.5H11V8C11 7.73478 10.8947 7.48043 10.7071 7.29289C10.5196 7.10536 10.2652 7 10 7C9.73479 7 9.48044 7.10536 9.2929 7.29289C9.10537 7.48043 9.00001 7.73478 9.00001 8V8.55C8.39243 8.67337 7.85237 9.0181 7.48466 9.51726C7.11696 10.0164 6.94785 10.6344 7.01015 11.2512C7.07246 11.8681 7.36174 12.4398 7.82184 12.8553C8.28194 13.2709 8.88003 13.5006 9.50001 13.5H10.5C10.6326 13.5 10.7598 13.5527 10.8536 13.6464C10.9473 13.7402 11 13.8674 11 14C11 14.1326 10.9473 14.2598 10.8536 14.3536C10.7598 14.4473 10.6326 14.5 10.5 14.5H8.00001C7.73479 14.5 7.48044 14.6054 7.2929 14.7929C7.10537 14.9804 7.00001 15.2348 7.00001 15.5C7.00001 15.7652 7.10537 16.0196 7.2929 16.2071C7.48044 16.3946 7.73479 16.5 8.00001 16.5H9.00001V17C9.00001 17.2652 9.10537 17.5196 9.2929 17.7071C9.48044 17.8946 9.73479 18 10 18C10.2652 18 10.5196 17.8946 10.7071 17.7071C10.8947 17.5196 11 17.2652 11 17V16.45C11.6076 16.3266 12.1476 15.9819 12.5154 15.4827C12.8831 14.9836 13.0522 14.3656 12.9899 13.7488C12.9276 13.1319 12.6383 12.5602 12.1782 12.1447C11.7181 11.7291 11.12 11.4994 10.5 11.5H9.50001C9.3674 11.5 9.24022 11.4473 9.14645 11.3536C9.05269 11.2598 9.00001 11.1326 9.00001 11C9.00001 10.8674 9.05269 10.7402 9.14645 10.6464C9.24022 10.5527 9.3674 10.5 9.50001 10.5ZM21 12H18V3C18.0007 2.82379 17.9548 2.65052 17.867 2.49775C17.7792 2.34497 17.6526 2.2181 17.5 2.13C17.348 2.04223 17.1755 1.99603 17 1.99603C16.8245 1.99603 16.652 2.04223 16.5 2.13L13.5 3.85L10.5 2.13C10.348 2.04223 10.1755 1.99603 10 1.99603C9.82447 1.99603 9.65203 2.04223 9.50001 2.13L6.50001 3.85L3.50001 2.13C3.34799 2.04223 3.17554 1.99603 3.00001 1.99603C2.82447 1.99603 2.65203 2.04223 2.50001 2.13C2.3474 2.2181 2.22079 2.34497 2.13299 2.49775C2.04518 2.65052 1.99931 2.82379 2.00001 3V19C2.00001 19.7956 2.31608 20.5587 2.87869 21.1213C3.4413 21.6839 4.20436 22 5.00001 22H19C19.7957 22 20.5587 21.6839 21.1213 21.1213C21.6839 20.5587 22 19.7956 22 19V13C22 12.7348 21.8947 12.4804 21.7071 12.2929C21.5196 12.1054 21.2652 12 21 12ZM5.00001 20C4.73479 20 4.48044 19.8946 4.2929 19.7071C4.10536 19.5196 4.00001 19.2652 4.00001 19V4.73L6.00001 5.87C6.15435 5.95061 6.32589 5.99271 6.50001 5.99271C6.67413 5.99271 6.84567 5.95061 7.00001 5.87L10 4.15L13 5.87C13.1543 5.95061 13.3259 5.99271 13.5 5.99271C13.6741 5.99271 13.8457 5.95061 14 5.87L16 4.73V19C16.0027 19.3411 16.0636 19.6793 16.18 20H5.00001ZM20 19C20 19.2652 19.8947 19.5196 19.7071 19.7071C19.5196 19.8946 19.2652 20 19 20C18.7348 20 18.4804 19.8946 18.2929 19.7071C18.1054 19.5196 18 19.2652 18 19V14H20V19Z" />
</svg>
