<svg width="24" height="24" viewBox="0 0 24 24" xmlns="http://www.w3.org/2000/svg">
<path d="M17.4503 12.46C18.6178 11.0225 19.1681 9.18086 18.9807 7.33845C18.7932 5.49603 17.8834 3.80297 16.4503 2.63C15.6292 1.97199 14.672 1.50497 13.648 1.26281C12.6241 1.02066 11.5591 1.00946 10.5303 1.23C9.37512 1.4855 8.30357 2.0296 7.41571 2.81148C6.52785 3.59337 5.85264 4.58753 5.45315 5.7011C5.05366 6.81468 4.94292 8.01134 5.13129 9.17931C5.31965 10.3473 5.80096 11.4485 6.53026 12.38C7.19494 13.1887 7.57453 14.1938 7.61026 15.24V15.53C7.22976 15.8976 7.01042 16.401 7.00026 16.93V18.93C7.00026 19.4604 7.21098 19.9691 7.58605 20.3442C7.96112 20.7193 8.46983 20.93 9.00026 20.93V21.93C9.00026 22.1952 9.10562 22.4496 9.29316 22.6371C9.48069 22.8246 9.73505 22.93 10.0003 22.93C10.2655 22.93 10.5198 22.8246 10.7074 22.6371C10.8949 22.4496 11.0003 22.1952 11.0003 21.93V20.93H13.0003V21.93C13.0003 22.1952 13.1056 22.4496 13.2932 22.6371C13.4807 22.8246 13.735 22.93 14.0003 22.93C14.2655 22.93 14.5198 22.8246 14.7074 22.6371C14.8949 22.4496 15.0003 22.1952 15.0003 21.93V20.93C15.5307 20.93 16.0394 20.7193 16.4145 20.3442C16.7895 19.9691 17.0003 19.4604 17.0003 18.93V16.93C17.0007 16.4067 16.7961 15.9041 16.4303 15.53V15.1C16.4595 14.1295 16.8193 13.198 17.4503 12.46ZM9.00026 18.93V16.93H15.0003V18.93H9.00026ZM15.8903 11.21C15.005 12.2541 14.4915 13.5625 14.4303 14.93H9.56026C9.46594 13.5446 8.94155 12.2231 8.06026 11.15C7.53087 10.4856 7.17948 9.69734 7.03925 8.8595C6.89901 8.02166 6.97455 7.16191 7.25875 6.36136C7.54294 5.56081 8.02641 4.84588 8.66355 4.284C9.30068 3.72213 10.0705 3.33186 10.9003 3.15C11.6355 2.98417 12.3986 2.98668 13.1327 3.15735C13.8668 3.32802 14.5528 3.66244 15.1395 4.13559C15.7261 4.60875 16.1982 5.2084 16.5204 5.88971C16.8426 6.57102 17.0067 7.31636 17.0003 8.07C17.0065 9.21388 16.614 10.3242 15.8903 11.21Z" />
</svg>
