<svg width="24" height="24" viewBox="0 0 24 24" xmlns="http://www.w3.org/2000/svg">
<path d="M21.22 12C21.7178 11.4524 21.9956 10.7401 22 10C22 9.20435 21.6839 8.44129 21.1213 7.87868C20.5587 7.31607 19.7956 7 19 7H13.82C13.9797 6.54818 14.0289 6.06466 13.9634 5.58993C13.8979 5.11519 13.7196 4.66306 13.4435 4.27138C13.1674 3.8797 12.8014 3.55988 12.3763 3.33868C11.9512 3.11748 11.4792 3.00135 11 3H5C4.20435 3 3.44129 3.31607 2.87868 3.87868C2.31607 4.44129 2 5.20435 2 6C2.00441 6.74005 2.28221 7.45236 2.78 8C2.28805 8.55002 2.01607 9.26207 2.01607 10C2.01607 10.7379 2.28805 11.45 2.78 12C2.28805 12.55 2.01607 13.2621 2.01607 14C2.01607 14.7379 2.28805 15.45 2.78 16C2.28221 16.5476 2.00441 17.2599 2 18C2 18.7956 2.31607 19.5587 2.87868 20.1213C3.44129 20.6839 4.20435 21 5 21H19C19.5778 20.9969 20.1423 20.8271 20.6259 20.5108C21.1094 20.1946 21.4914 19.7455 21.7259 19.2174C21.9603 18.6894 22.0373 18.1049 21.9476 17.5341C21.8578 16.9633 21.6052 16.4306 21.22 16C21.712 15.45 21.9839 14.7379 21.9839 14C21.9839 13.2621 21.712 12.55 21.22 12ZM11 19H5C4.73478 19 4.48043 18.8946 4.29289 18.7071C4.10536 18.5196 4 18.2652 4 18C4 17.7348 4.10536 17.4804 4.29289 17.2929C4.48043 17.1054 4.73478 17 5 17H11C11.2652 17 11.5196 17.1054 11.7071 17.2929C11.8946 17.4804 12 17.7348 12 18C12 18.2652 11.8946 18.5196 11.7071 18.7071C11.5196 18.8946 11.2652 19 11 19ZM11 15H5C4.73478 15 4.48043 14.8946 4.29289 14.7071C4.10536 14.5196 4 14.2652 4 14C4 13.7348 4.10536 13.4804 4.29289 13.2929C4.48043 13.1054 4.73478 13 5 13H11C11.2652 13 11.5196 13.1054 11.7071 13.2929C11.8946 13.4804 12 13.7348 12 14C12 14.2652 11.8946 14.5196 11.7071 14.7071C11.5196 14.8946 11.2652 15 11 15ZM11 11H5C4.73478 11 4.48043 10.8946 4.29289 10.7071C4.10536 10.5196 4 10.2652 4 10C4 9.73478 4.10536 9.48043 4.29289 9.29289C4.48043 9.10536 4.73478 9 5 9H11C11.2652 9 11.5196 9.10536 11.7071 9.29289C11.8946 9.48043 12 9.73478 12 10C12 10.2652 11.8946 10.5196 11.7071 10.7071C11.5196 10.8946 11.2652 11 11 11ZM11 7H5C4.73478 7 4.48043 6.89464 4.29289 6.70711C4.10536 6.51957 4 6.26522 4 6C4 5.73478 4.10536 5.48043 4.29289 5.29289C4.48043 5.10536 4.73478 5 5 5H11C11.2652 5 11.5196 5.10536 11.7071 5.29289C11.8946 5.48043 12 5.73478 12 6C12 6.26522 11.8946 6.51957 11.7071 6.70711C11.5196 6.89464 11.2652 7 11 7ZM19.69 18.71C19.6014 18.8035 19.4942 18.8776 19.3755 18.9275C19.2567 18.9774 19.1288 19.0021 19 19H13.82C14.0598 18.3549 14.0598 17.6451 13.82 17H19C19.2652 17 19.5196 17.1054 19.7071 17.2929C19.8946 17.4804 20 17.7348 20 18C19.9981 18.133 19.9698 18.2643 19.9165 18.3862C19.8633 18.5082 19.7863 18.6182 19.69 18.71ZM19.69 14.71C19.6014 14.8035 19.4942 14.8776 19.3755 14.9275C19.2567 14.9774 19.1288 15.0021 19 15H13.82C14.0598 14.3549 14.0598 13.6451 13.82 13H19C19.2652 13 19.5196 13.1054 19.7071 13.2929C19.8946 13.4804 20 13.7348 20 14C19.9981 14.133 19.9698 14.2643 19.9165 14.3862C19.8633 14.5082 19.7863 14.6182 19.69 14.71ZM19.69 10.71C19.6014 10.8035 19.4942 10.8776 19.3755 10.9275C19.2567 10.9774 19.1288 11.0021 19 11H13.82C14.0598 10.3549 14.0598 9.6451 13.82 9H19C19.2652 9 19.5196 9.10536 19.7071 9.29289C19.8946 9.48043 20 9.73478 20 10C19.9981 10.133 19.9698 10.2643 19.9165 10.3862C19.8633 10.5082 19.7863 10.6182 19.69 10.71Z" />
</svg>
