<svg width="24" height="24" viewBox="0 0 24 24" xmlns="http://www.w3.org/2000/svg">
<path d="M19 6.5H16V5.5C16 4.70435 15.6839 3.94129 15.1213 3.37868C14.5587 2.81607 13.7956 2.5 13 2.5H11C10.2044 2.5 9.44129 2.81607 8.87868 3.37868C8.31607 3.94129 8 4.70435 8 5.5V6.5H5C4.20435 6.5 3.44129 6.81607 2.87868 7.37868C2.31607 7.94129 2 8.70435 2 9.5V18.5C2 19.2956 2.31607 20.0587 2.87868 20.6213C3.44129 21.1839 4.20435 21.5 5 21.5H19C19.7956 21.5 20.5587 21.1839 21.1213 20.6213C21.6839 20.0587 22 19.2956 22 18.5V9.5C22 8.70435 21.6839 7.94129 21.1213 7.37868C20.5587 6.81607 19.7956 6.5 19 6.5ZM10 5.5C10 5.23478 10.1054 4.98043 10.2929 4.79289C10.4804 4.60536 10.7348 4.5 11 4.5H13C13.2652 4.5 13.5196 4.60536 13.7071 4.79289C13.8946 4.98043 14 5.23478 14 5.5V6.5H10V5.5ZM20 18.5C20 18.7652 19.8946 19.0196 19.7071 19.2071C19.5196 19.3946 19.2652 19.5 19 19.5H5C4.73478 19.5 4.48043 19.3946 4.29289 19.2071C4.10536 19.0196 4 18.7652 4 18.5V13C4.97544 13.3869 5.97818 13.7011 7 13.94V14.53C7 14.7952 7.10536 15.0496 7.29289 15.2371C7.48043 15.4246 7.73478 15.53 8 15.53C8.26522 15.53 8.51957 15.4246 8.70711 15.2371C8.89464 15.0496 9 14.7952 9 14.53V14.32C9.99435 14.4554 10.9965 14.5255 12 14.53C13.0035 14.5255 14.0057 14.4554 15 14.32V14.53C15 14.7952 15.1054 15.0496 15.2929 15.2371C15.4804 15.4246 15.7348 15.53 16 15.53C16.2652 15.53 16.5196 15.4246 16.7071 15.2371C16.8946 15.0496 17 14.7952 17 14.53V13.94C18.0218 13.7011 19.0246 13.3869 20 13V18.5ZM20 10.81C19.0274 11.2205 18.0244 11.5548 17 11.81V11.5C17 11.2348 16.8946 10.9804 16.7071 10.7929C16.5196 10.6054 16.2652 10.5 16 10.5C15.7348 10.5 15.4804 10.6054 15.2929 10.7929C15.1054 10.9804 15 11.2348 15 11.5V12.24C13.0113 12.54 10.9887 12.54 9 12.24V11.5C9 11.2348 8.89464 10.9804 8.70711 10.7929C8.51957 10.6054 8.26522 10.5 8 10.5C7.73478 10.5 7.48043 10.6054 7.29289 10.7929C7.10536 10.9804 7 11.2348 7 11.5V11.83C5.97562 11.5748 4.9726 11.2405 4 10.83V9.5C4 9.23478 4.10536 8.98043 4.29289 8.79289C4.48043 8.60536 4.73478 8.5 5 8.5H19C19.2652 8.5 19.5196 8.60536 19.7071 8.79289C19.8946 8.98043 20 9.23478 20 9.5V10.81Z" />
</svg>
