<svg width="24" height="24" viewBox="0 0 24 24" xmlns="http://www.w3.org/2000/svg">
<path d="M17 22H5C4.20435 22 3.44129 21.6839 2.87868 21.1213C2.31607 20.5587 2 19.7957 2 19V9C2 8.20435 2.31607 7.44129 2.87868 6.87868C3.44129 6.31607 4.20435 6 5 6H6C6.01682 5.15264 6.30235 4.33252 6.81541 3.65793C7.32848 2.98334 8.04255 2.48915 8.85464 2.24664C9.66673 2.00412 10.5349 2.02582 11.3338 2.3086C12.1328 2.59138 12.8213 3.12063 13.3 3.82C13.7484 4.45915 13.9925 5.21926 14 6H17C17.2652 6 17.5196 6.10536 17.7071 6.2929C17.8946 6.48043 18 6.73479 18 7V10C18.8474 10.0168 19.6675 10.3024 20.3421 10.8154C21.0167 11.3285 21.5109 12.0426 21.7534 12.8546C21.9959 13.6667 21.9742 14.5349 21.6914 15.3338C21.4086 16.1328 20.8794 16.8213 20.18 17.3C19.5409 17.7484 18.7807 17.9925 18 18V21C18 21.2652 17.8946 21.5196 17.7071 21.7071C17.5196 21.8946 17.2652 22 17 22ZM5 8C4.73478 8 4.48043 8.10536 4.29289 8.2929C4.10536 8.48043 4 8.73479 4 9V19C4 19.2652 4.10536 19.5196 4.29289 19.7071C4.48043 19.8946 4.73478 20 5 20H16V16.82C15.9991 16.6597 16.0368 16.5015 16.1099 16.3588C16.183 16.216 16.2894 16.093 16.42 16C16.5502 15.9071 16.7008 15.8469 16.8592 15.8242C17.0175 15.8016 17.179 15.8173 17.33 15.87C17.615 15.9863 17.9254 16.0262 18.2305 15.9859C18.5357 15.9455 18.825 15.8263 19.07 15.64C19.3139 15.4913 19.523 15.2921 19.6834 15.0558C19.8439 14.8195 19.9518 14.5515 20 14.27C20.0386 13.9861 20.0157 13.6971 19.9329 13.4228C19.85 13.1485 19.7092 12.8952 19.52 12.68C19.2641 12.3691 18.9155 12.1481 18.5252 12.0492C18.1349 11.9502 17.7231 11.9786 17.35 12.13C17.199 12.1827 17.0375 12.1984 16.8792 12.1758C16.7208 12.1531 16.5702 12.0929 16.44 12C16.3094 11.907 16.203 11.784 16.1299 11.6413C16.0568 11.4985 16.0191 11.3403 16.02 11.18V8H12.82C12.6557 8.00932 12.4915 7.97792 12.3422 7.90858C12.1929 7.83925 12.0631 7.73414 11.9641 7.60257C11.8652 7.47099 11.8003 7.31704 11.7752 7.15436C11.75 6.99167 11.7654 6.8253 11.82 6.67C11.9363 6.38501 11.9762 6.07463 11.9359 5.76949C11.8955 5.46435 11.7763 5.175 11.59 4.93C11.4424 4.67917 11.2402 4.46477 10.9984 4.3027C10.7566 4.14062 10.4815 4.03502 10.1934 3.99373C9.90527 3.95243 9.61155 3.97649 9.33399 4.06413C9.05644 4.15177 8.80216 4.30074 8.59 4.5C8.39298 4.69542 8.23877 4.92969 8.1372 5.18794C8.03562 5.44618 7.9889 5.72273 8 6C8.00232 6.22938 8.04637 6.45641 8.13 6.67C8.18287 6.82122 8.19863 6.98293 8.17597 7.14151C8.1533 7.30009 8.09287 7.45091 7.99976 7.58126C7.90665 7.71161 7.78358 7.81769 7.64093 7.89056C7.49827 7.96344 7.34019 8.00097 7.18 8H5Z" />
</svg>
