<svg width="24" height="24" viewBox="0 0 24 24" xmlns="http://www.w3.org/2000/svg">
<path d="M21.7099 7.29C21.617 7.19627 21.5064 7.12188 21.3845 7.07111C21.2627 7.02034 21.132 6.9942 20.9999 6.9942C20.8679 6.9942 20.7372 7.02034 20.6154 7.07111C20.4935 7.12188 20.3829 7.19627 20.2899 7.29L13.9999 13.59L9.70994 9.29C9.61698 9.19627 9.50637 9.12188 9.38452 9.07111C9.26266 9.02034 9.13195 8.9942 8.99994 8.9942C8.86793 8.9942 8.73722 9.02034 8.61536 9.07111C8.4935 9.12188 8.3829 9.19627 8.28994 9.29L2.28994 15.29C2.19621 15.383 2.12182 15.4936 2.07105 15.6154C2.02028 15.7373 1.99414 15.868 1.99414 16C1.99414 16.132 2.02028 16.2627 2.07105 16.3846C2.12182 16.5064 2.19621 16.617 2.28994 16.71C2.3829 16.8037 2.4935 16.8781 2.61536 16.9289C2.73722 16.9797 2.86793 17.0058 2.99994 17.0058C3.13195 17.0058 3.26266 16.9797 3.38452 16.9289C3.50637 16.8781 3.61698 16.8037 3.70994 16.71L8.99994 11.41L13.2899 15.71C13.3829 15.8037 13.4935 15.8781 13.6154 15.9289C13.7372 15.9797 13.8679 16.0058 13.9999 16.0058C14.132 16.0058 14.2627 15.9797 14.3845 15.9289C14.5064 15.8781 14.617 15.8037 14.7099 15.71L21.7099 8.71C21.8037 8.61704 21.8781 8.50644 21.9288 8.38458C21.9796 8.26272 22.0057 8.13201 22.0057 8C22.0057 7.86799 21.9796 7.73728 21.9288 7.61542C21.8781 7.49356 21.8037 7.38296 21.7099 7.29Z" />
</svg>
