<svg width="24" height="24" viewBox="0 0 24 24" xmlns="http://www.w3.org/2000/svg">
<path d="M21.8403 5.55999C21.7074 4.7084 21.3084 3.92075 20.7003 3.30999C20.0895 2.70188 19.3018 2.3028 18.4503 2.16999C16.2414 1.86555 13.992 2.07643 11.8782 2.7861C9.76445 3.49578 7.84357 4.685 6.26593 6.2607C4.6883 7.8364 3.49671 9.75582 2.78444 11.8687C2.07217 13.9817 1.85853 16.2308 2.16025 18.44C2.29306 19.2916 2.69214 20.0792 3.30025 20.69C3.91101 21.2981 4.69867 21.6972 5.55025 21.83C6.23797 21.9418 6.9335 21.9986 7.63025 22C11.431 21.9729 15.0663 20.4412 17.7402 17.74C19.3312 16.1737 20.5313 14.2551 21.2436 12.1392C21.9558 10.0233 22.1602 7.7695 21.8403 5.55999ZM4.21025 18.37C4.18099 18.2918 4.15759 18.2116 4.14025 18.13C3.86575 16.2317 4.0423 14.2955 4.65559 12.4783C5.26888 10.661 6.30166 9.01372 7.67025 7.66999C9.97214 5.34625 13.0995 4.027 16.3703 3.99999C16.9598 3.99687 17.5486 4.04371 18.1302 4.13999C18.2119 4.15733 18.2921 4.18073 18.3703 4.20999L13.4402 9.14999L12.7102 8.41999C12.6173 8.32626 12.5067 8.25186 12.3848 8.2011C12.263 8.15033 12.1323 8.12419 12.0002 8.12419C11.8682 8.12419 11.7375 8.15033 11.6157 8.2011C11.4938 8.25186 11.3832 8.32626 11.2902 8.41999C11.104 8.60735 10.9995 8.8608 10.9995 9.12499C10.9995 9.38917 11.104 9.64262 11.2902 9.82999L12.0203 10.56L10.5603 12L9.83025 11.27C9.64289 11.0837 9.38944 10.9792 9.12525 10.9792C8.86106 10.9792 8.60761 11.0837 8.42025 11.27C8.32652 11.363 8.25213 11.4736 8.20136 11.5954C8.15059 11.7173 8.12445 11.848 8.12445 11.98C8.12445 12.112 8.15059 12.2427 8.20136 12.3646C8.25213 12.4864 8.32652 12.597 8.42025 12.69L9.15025 13.42L4.21025 18.37ZM16.3302 16.37C14.9813 17.7295 13.3322 18.7535 11.5155 19.3596C9.69882 19.9657 7.76524 20.1371 5.87025 19.86C5.78862 19.8426 5.7084 19.8193 5.63025 19.79L10.5603 14.85L11.2902 15.58C11.3828 15.6732 11.4929 15.7473 11.6141 15.798C11.7353 15.8487 11.8653 15.8751 11.9967 15.8755C12.1281 15.876 12.2583 15.8506 12.3799 15.8007C12.5015 15.7509 12.612 15.6776 12.7052 15.585C12.7985 15.4924 12.8726 15.3824 12.9233 15.2611C12.974 15.1399 13.0003 15.0099 13.0008 14.8785C13.0013 14.7471 12.9758 14.6169 12.926 14.4954C12.8761 14.3738 12.8028 14.2632 12.7102 14.17L12.0002 13.44L13.4402 12L14.1702 12.73C14.2637 12.8227 14.3745 12.896 14.4963 12.9458C14.6182 12.9955 14.7486 13.0207 14.8802 13.02C15.078 13.0192 15.2711 12.9597 15.4351 12.8491C15.5991 12.7386 15.7266 12.5819 15.8015 12.3988C15.8764 12.2158 15.8954 12.0147 15.856 11.8209C15.8166 11.627 15.7207 11.4493 15.5802 11.31L14.8503 10.58L19.7903 5.64999C19.8195 5.72814 19.8429 5.80836 19.8603 5.88999C20.1315 7.78507 19.9533 9.71737 19.3401 11.5309C18.7269 13.3444 17.6959 14.9884 16.3302 16.33V16.37Z" />
</svg>
