<svg width="24" height="24" viewBox="0 0 24 24" xmlns="http://www.w3.org/2000/svg">
<path d="M7.99171 8.00166C7.79392 8.00166 7.60058 8.06031 7.43613 8.17019C7.27169 8.28008 7.14351 8.43625 7.06783 8.61898C6.99214 8.80171 6.97233 9.00277 7.01092 9.19675C7.04951 9.39073 7.14475 9.56892 7.2846 9.70877C7.42445 9.84862 7.60263 9.94386 7.79662 9.98245C7.9906 10.021 8.19166 10.0012 8.37439 9.92554C8.55711 9.84986 8.71329 9.72168 8.82317 9.55723C8.93306 9.39278 8.99171 9.19944 8.99171 9.00166C8.99171 8.73645 8.88635 8.48209 8.69881 8.29456C8.51128 8.10702 8.25692 8.00166 7.99171 8.00166ZM11.9912 2.00195C10.0134 2.00195 8.08 2.58844 6.43551 3.68726C4.79102 4.78607 3.5093 6.34786 2.75242 8.17512C1.99554 10.0024 1.79751 12.013 2.18336 13.9529C2.56921 15.8927 3.52162 17.6745 4.92015 19.073C6.31867 20.4715 8.1005 21.424 10.0403 21.8098C11.9801 22.1957 13.9908 21.9976 15.8181 21.2407C17.6453 20.4839 19.2071 19.2021 20.3059 17.5577C21.4047 15.9132 21.9912 13.9798 21.9912 12.002C21.9881 9.35074 20.9335 6.80901 19.0588 4.93433C17.1842 3.05964 14.6424 2.00507 11.9912 2.00195ZM11.9912 20.002C10.409 20.002 8.86225 19.5328 7.54665 18.6537C6.23106 17.7747 5.20568 16.5252 4.60018 15.0634C3.99468 13.6016 3.83625 11.9931 4.14493 10.4412C4.45362 8.88938 5.21554 7.46392 6.33436 6.3451C7.45318 5.22628 8.87865 4.46435 10.4305 4.15567C11.9823 3.84699 13.5909 4.00542 15.0527 4.61092C16.5145 5.21642 17.7639 6.2418 18.643 7.55739C19.522 8.87298 19.9912 10.4197 19.9912 12.002C19.9888 14.1229 19.1452 16.1564 17.6454 17.6561C16.1456 19.1559 14.1122 19.9995 11.9912 20.002ZM10.9917 10.0017C10.7939 10.0017 10.6006 10.0603 10.4361 10.1702C10.2717 10.2801 10.1435 10.4363 10.0678 10.619C9.99214 10.8017 9.97234 11.0028 10.0109 11.1968C10.0495 11.3907 10.1447 11.5689 10.2846 11.7088C10.4245 11.8486 10.6026 11.9439 10.7966 11.9824C10.9906 12.021 11.1917 12.0012 11.3744 11.9255C11.5571 11.8499 11.7133 11.7217 11.8232 11.5572C11.9331 11.3928 11.9917 11.1994 11.9917 11.0017C11.9917 10.7364 11.8863 10.4821 11.6988 10.2946C11.5113 10.107 11.2569 10.0017 10.9917 10.0017ZM10.9917 6.00166C10.7939 6.00166 10.6006 6.06031 10.4361 6.17019C10.2717 6.28008 10.1435 6.43625 10.0678 6.61898C9.99214 6.80171 9.97234 7.00277 10.0109 7.19675C10.0495 7.39073 10.1447 7.56892 10.2846 7.70877C10.4245 7.84862 10.6026 7.94386 10.7966 7.98245C10.9906 8.02103 11.1917 8.00123 11.3744 7.92554C11.5571 7.84986 11.7133 7.72168 11.8232 7.55723C11.9331 7.39278 11.9917 7.19944 11.9917 7.00166C11.9917 6.73645 11.8863 6.48209 11.6988 6.29456C11.5113 6.10702 11.2569 6.00166 10.9917 6.00166Z" />
</svg>
