<svg width="24" height="24" viewBox="0 0 24 24" xmlns="http://www.w3.org/2000/svg">
<path d="M21.0599 12.28C21.0528 10.7785 20.4525 9.34073 19.3899 8.27995L13.9999 2.80995C13.4692 2.27991 12.7499 1.98218 11.9999 1.98218C11.2499 1.98218 10.5305 2.27991 9.99988 2.80995L4.60988 8.22995C3.54726 9.29073 2.94699 10.7285 2.93988 12.23C2.93059 12.986 3.07183 13.7364 3.35538 14.4374C3.63892 15.1384 4.0591 15.7759 4.59144 16.3129C5.12379 16.8499 5.75766 17.2756 6.45614 17.5653C7.15462 17.8549 7.90374 18.0027 8.65988 18C8.40859 18.8627 7.99072 19.6679 7.42988 20.37C7.30888 20.5189 7.23329 20.6995 7.21212 20.8902C7.19095 21.0809 7.2251 21.2737 7.31049 21.4455C7.39588 21.6174 7.52891 21.761 7.69371 21.8593C7.8585 21.9576 8.0481 22.0065 8.23988 22H15.7599C15.9491 22.0006 16.1347 21.9475 16.2949 21.8469C16.4552 21.7463 16.5837 21.6023 16.6653 21.4316C16.747 21.2609 16.7786 21.0705 16.7564 20.8826C16.7342 20.6947 16.6591 20.5169 16.5399 20.37C15.9782 19.6684 15.5602 18.8631 15.3099 18C16.0638 18.0079 16.8118 17.8659 17.5104 17.5823C18.209 17.2987 18.8443 16.879 19.3793 16.3477C19.9143 15.8164 20.3384 15.1841 20.6269 14.4875C20.9154 13.7909 21.0626 13.0439 21.0599 12.29V12.28ZM17.9999 14.91C17.5269 15.3757 16.9397 15.7087 16.2972 15.8755C15.6547 16.0423 14.9796 16.0369 14.3399 15.86C14.2833 15.8551 14.2264 15.8551 14.1699 15.86H13.9699C13.8951 15.874 13.8215 15.894 13.7499 15.92H13.5999C13.5522 15.9511 13.5085 15.9881 13.4699 16.03C13.4066 16.068 13.3494 16.1152 13.2999 16.17C13.2838 16.2086 13.2637 16.2455 13.2399 16.28C13.196 16.3545 13.1559 16.4313 13.1199 16.51C13.115 16.5699 13.115 16.6301 13.1199 16.69C13.1199 16.75 13.1199 16.81 13.1199 16.87C13.1983 17.9549 13.4763 19.016 13.9399 20H10.0599C10.5336 19.062 10.8319 18.0452 10.9399 17C10.9399 16.94 10.9399 16.88 10.9399 16.81C10.9448 16.7501 10.9448 16.6899 10.9399 16.63C10.9065 16.545 10.8628 16.4644 10.8099 16.39C10.7936 16.3545 10.7735 16.321 10.7499 16.29C10.7064 16.2331 10.652 16.1856 10.5899 16.15C10.5491 16.1104 10.5056 16.0737 10.4599 16.04H10.3199C10.2468 16.0062 10.1694 15.9827 10.0899 15.97H9.89988C9.83998 15.965 9.77978 15.965 9.71988 15.97C9.06165 16.1414 8.36952 16.1335 7.71536 15.9471C7.0612 15.7607 6.46887 15.4026 5.99988 14.91C5.30496 14.2106 4.91338 13.2658 4.90988 12.28C4.90835 11.7912 5.00392 11.3071 5.19103 10.8556C5.37815 10.4041 5.65309 9.99431 5.99988 9.64995L11.3999 4.22995C11.5511 4.08274 11.7538 4.00036 11.9649 4.00036C12.1759 4.00036 12.3787 4.08274 12.5299 4.22995L17.9999 9.64995C18.3467 9.99431 18.6216 10.4041 18.8087 10.8556C18.9958 11.3071 19.0914 11.7912 19.0899 12.28C19.0832 13.2652 18.6921 14.2088 17.9999 14.91Z" />
</svg>
