<svg width="24" height="24" viewBox="0 0 24 24" xmlns="http://www.w3.org/2000/svg">
<path d="M19.9998 10.35L14.2198 2.93997C13.9294 2.63767 13.5801 2.39824 13.1934 2.23653C12.8067 2.07482 12.3909 1.99428 11.9717 1.99991C11.5526 2.00554 11.1391 2.09721 10.7569 2.26923C10.3747 2.44126 10.0319 2.68998 9.74977 2.99997L3.99977 10.35C3.68141 10.8415 3.5113 11.4143 3.50977 12C3.52647 12.5614 3.69587 13.1076 3.99977 13.58L4.05977 13.65L9.79977 21.06C10.0824 21.3592 10.4235 21.597 10.802 21.7588C11.1805 21.9205 11.5882 22.0026 11.9998 22C12.4253 21.9996 12.8461 21.9105 13.2352 21.7383C13.6243 21.5661 13.9733 21.3146 14.2598 21L19.9998 13.65C20.3135 13.1543 20.475 12.5775 20.4644 11.991C20.4537 11.4044 20.2713 10.8339 19.9398 10.35H19.9998ZM18.4298 12.49L12.7598 19.71C12.5687 19.886 12.3219 19.9894 12.0624 20.0021C11.803 20.0149 11.5472 19.9363 11.3398 19.78L5.64977 12.47C5.56481 12.3274 5.5167 12.1658 5.50977 12C5.51124 11.8446 5.54531 11.6913 5.60977 11.55L11.2798 4.32997C11.4709 4.15398 11.7176 4.05059 11.9771 4.03779C12.2366 4.025 12.4923 4.10363 12.6998 4.25997L18.3298 11.54C18.4337 11.7009 18.4893 11.8884 18.4898 12.08C18.483 12.2218 18.449 12.361 18.3898 12.49H18.4298Z" />
</svg>
