<svg width="24" height="24" viewBox="0 0 24 24" xmlns="http://www.w3.org/2000/svg">
<path d="M14 9C13.8022 9 13.6089 9.05865 13.4444 9.16853C13.28 9.27841 13.1518 9.43459 13.0761 9.61732C13.0004 9.80004 12.9806 10.0011 13.0192 10.1951C13.0578 10.3891 13.153 10.5673 13.2929 10.7071C13.4328 10.847 13.6109 10.9422 13.8049 10.9808C13.9989 11.0194 14.2 10.9996 14.3827 10.9239C14.5654 10.8482 14.7216 10.72 14.8315 10.5556C14.9414 10.3911 15 10.1978 15 10C15 9.73478 14.8946 9.48043 14.7071 9.29289C14.5196 9.10536 14.2652 9 14 9ZM14 6C13.8022 6 13.6089 6.05865 13.4444 6.16853C13.28 6.27841 13.1518 6.43459 13.0761 6.61732C13.0004 6.80004 12.9806 7.00111 13.0192 7.19509C13.0578 7.38907 13.153 7.56725 13.2929 7.70711C13.4328 7.84696 13.6109 7.9422 13.8049 7.98079C13.9989 8.01937 14.2 7.99957 14.3827 7.92388C14.5654 7.84819 14.7216 7.72002 14.8315 7.55557C14.9414 7.39112 15 7.19778 15 7C15 6.73478 14.8946 6.48043 14.7071 6.29289C14.5196 6.10536 14.2652 6 14 6ZM12 2C10.0222 2 8.08879 2.58649 6.4443 3.6853C4.79981 4.78412 3.51809 6.3459 2.76121 8.17317C2.00433 10.0004 1.8063 12.0111 2.19215 13.9509C2.578 15.8907 3.53041 17.6725 4.92894 19.0711C6.32746 20.4696 8.10929 21.422 10.0491 21.8079C11.9889 22.1937 13.9996 21.9957 15.8268 21.2388C17.6541 20.4819 19.2159 19.2002 20.3147 17.5557C21.4135 15.9112 22 13.9778 22 12C22 10.6868 21.7413 9.38642 21.2388 8.17317C20.7363 6.95991 19.9997 5.85752 19.0711 4.92893C18.1425 4.00035 17.0401 3.26375 15.8268 2.7612C14.6136 2.25866 13.3132 2 12 2ZM12 20C10.4178 20 8.87104 19.5308 7.55544 18.6518C6.23985 17.7727 5.21447 16.5233 4.60897 15.0615C4.00347 13.5997 3.84504 11.9911 4.15372 10.4393C4.4624 8.88743 5.22433 7.46197 6.34315 6.34315C7.46197 5.22433 8.88743 4.4624 10.4393 4.15372C11.9911 3.84504 13.5997 4.00346 15.0615 4.60896C16.5233 5.21447 17.7727 6.23984 18.6518 7.55544C19.5308 8.87103 20 10.4177 20 12C20 14.1217 19.1572 16.1566 17.6569 17.6569C16.1566 19.1571 14.1217 20 12 20ZM17 8C16.8022 8 16.6089 8.05865 16.4444 8.16853C16.28 8.27841 16.1518 8.43459 16.0761 8.61732C16.0004 8.80004 15.9806 9.00111 16.0192 9.19509C16.0578 9.38907 16.153 9.56725 16.2929 9.70711C16.4327 9.84696 16.6109 9.9422 16.8049 9.98079C16.9989 10.0194 17.2 9.99957 17.3827 9.92388C17.5654 9.84819 17.7216 9.72002 17.8315 9.55557C17.9414 9.39112 18 9.19778 18 9C18 8.73478 17.8946 8.48043 17.7071 8.29289C17.5196 8.10536 17.2652 8 17 8Z" />
</svg>
