<svg width="24" height="24" viewBox="0 0 24 24" xmlns="http://www.w3.org/2000/svg">
<path d="M20.7104 16.1L19.0704 14.46C18.9269 14.3268 18.8285 14.1521 18.789 13.9603C18.7496 13.7684 18.7711 13.5691 18.8504 13.39C19.1992 12.6411 19.3833 11.8261 19.3904 11C19.3951 10.9669 19.3951 10.9332 19.3904 10.9C19.3939 9.70344 19.0233 8.53567 18.3304 7.56004C16.9915 5.68881 15.2171 4.17177 13.1604 3.14004C11.8559 2.50141 10.3849 2.28441 8.9515 2.51913C7.51808 2.75386 6.19318 3.42867 5.16043 4.45004L4.49043 5.12004C3.45831 6.15671 2.7769 7.49068 2.54194 8.93455C2.30698 10.3784 2.53026 11.8596 3.18043 13.17L3.28043 13.34C2.74677 13.8937 2.44607 14.6311 2.44043 15.4C2.4444 15.9307 2.58904 16.4507 2.85959 16.9072C3.13014 17.3637 3.51692 17.7402 3.98049 17.9984C4.44406 18.2567 4.96781 18.3873 5.49834 18.377C6.02888 18.3668 6.54719 18.216 7.00043 17.94C7.18043 18.08 7.34043 18.23 7.52043 18.36C7.89894 18.6232 8.30876 18.8382 8.74043 19H8.83043C9.01043 19.07 9.20043 19.13 9.40043 19.19H9.55043C9.86164 19.27 10.1797 19.3202 10.5004 19.34H10.7804H10.9004H11.1204C11.3304 19.34 11.5304 19.34 11.7404 19.28H11.9104C12.4021 19.1956 12.8799 19.0442 13.3304 18.83C13.51 18.7577 13.7066 18.7391 13.8966 18.7764C14.0865 18.8136 14.2615 18.9052 14.4004 19.04L15.8604 20.5C16.4939 21.1357 17.353 21.4952 18.2504 21.5C19.0032 21.492 19.7222 21.1864 20.2504 20.65L20.6304 20.27C21.182 19.7211 21.4987 18.9793 21.5136 18.2012C21.5285 17.4232 21.2405 16.6698 20.7104 16.1ZM5.41043 16.42C5.21265 16.42 5.01931 16.3614 4.85486 16.2515C4.69041 16.1416 4.56224 15.9855 4.48655 15.8027C4.41086 15.62 4.39106 15.4189 4.42964 15.225C4.46823 15.031 4.56347 14.8528 4.70332 14.7129C4.84318 14.5731 5.02136 14.4778 5.21534 14.4393C5.40932 14.4007 5.61039 14.4205 5.79311 14.4962C5.97584 14.5718 6.13202 14.7 6.2419 14.8645C6.35178 15.0289 6.41043 15.2223 6.41043 15.42C6.41043 15.6853 6.30507 15.9396 6.11754 16.1271C5.93 16.3147 5.67565 16.42 5.41043 16.42ZM8.51043 16.56L8.25043 16.36C8.35456 16.0575 8.4086 15.74 8.41043 15.42C8.41043 14.6244 8.09436 13.8613 7.53175 13.2987C6.96914 12.7361 6.20608 12.42 5.41043 12.42C5.28043 12.42 5.16043 12.42 5.03043 12.42L4.94043 12.26C4.47531 11.3246 4.31488 10.2669 4.48169 9.23564C4.64849 8.20433 5.13414 7.25118 5.87043 6.51004L6.54043 5.84004C7.29108 5.12059 8.24735 4.65305 9.27615 4.50249C10.305 4.35194 11.3551 4.52585 12.2804 5.00004C13.9602 5.84026 15.4194 7.06305 16.5404 8.57004L8.51043 16.56ZM19.2904 18.93L18.9204 19.31C18.5004 19.73 17.8504 19.65 17.3104 19.11L15.8504 17.66C15.4205 17.2329 14.8712 16.946 14.275 16.8371C13.6788 16.7282 13.0636 16.8024 12.5104 17.05C12.1952 17.2045 11.8578 17.3091 11.5104 17.36C11.3193 17.3965 11.125 17.4133 10.9304 17.41H10.5904H10.4904L17.3604 10.54C17.4304 11.2252 17.3129 11.9165 17.0204 12.54C16.7728 13.0932 16.6986 13.7084 16.8075 14.3046C16.9164 14.9008 17.2033 15.4501 17.6304 15.88L19.2704 17.53C19.4564 17.7143 19.5626 17.9642 19.5663 18.226C19.5701 18.4877 19.471 18.7405 19.2904 18.93Z" />
</svg>
