<svg width="24" height="24" viewBox="0 0 24 24" xmlns="http://www.w3.org/2000/svg">
<path d="M17.9997 14.0001C17.4088 14.004 16.8262 14.1388 16.2937 14.3947C15.7611 14.6506 15.2919 15.0213 14.9197 15.4801L9.81966 13.1301C10.0595 12.3959 10.0595 11.6044 9.81966 10.8701L14.9197 8.52011C15.5213 9.24608 16.36 9.73619 17.2878 9.90395C18.2156 10.0717 19.1729 9.90634 19.9906 9.43702C20.8084 8.96769 21.434 8.22459 21.7572 7.33886C22.0804 6.45312 22.0803 5.4817 21.757 4.59602C21.4336 3.71035 20.8078 2.96736 19.99 2.49818C19.1722 2.02901 18.2149 1.86381 17.2871 2.03174C16.3593 2.19967 15.5207 2.68993 14.9192 3.41601C14.3177 4.14208 13.992 5.05729 13.9997 6.00011C14.0027 6.23835 14.0261 6.47588 14.0697 6.71011L8.78966 9.14011C8.22674 8.58969 7.51391 8.21763 6.74047 8.07054C5.96703 7.92345 5.16738 8.00788 4.44171 8.31325C3.71604 8.61861 3.09662 9.13133 2.66106 9.78718C2.2255 10.443 1.99316 11.2128 1.99316 12.0001C1.99316 12.7874 2.2255 13.5572 2.66106 14.2131C3.09662 14.8689 3.71604 15.3816 4.44171 15.687C5.16738 15.9923 5.96703 16.0768 6.74047 15.9297C7.51391 15.7826 8.22674 15.4105 8.78966 14.8601L14.0697 17.2901C14.0261 17.5243 14.0027 17.7619 13.9997 18.0001C13.9997 18.7912 14.2343 19.5646 14.6738 20.2224C15.1133 20.8802 15.738 21.3929 16.4689 21.6956C17.1998 21.9984 18.0041 22.0776 18.78 21.9233C19.5559 21.7689 20.2687 21.388 20.8281 20.8285C21.3875 20.2691 21.7685 19.5564 21.9228 18.7805C22.0771 18.0046 21.9979 17.2003 21.6952 16.4694C21.3924 15.7385 20.8797 15.1138 20.2219 14.6742C19.5641 14.2347 18.7908 14.0001 17.9997 14.0001ZM17.9997 4.00011C18.3952 4.00011 18.7819 4.11741 19.1108 4.33718C19.4397 4.55694 19.696 4.8693 19.8474 5.23475C19.9988 5.6002 20.0384 6.00233 19.9612 6.3903C19.8841 6.77826 19.6936 7.13462 19.4139 7.41433C19.1342 7.69403 18.7778 7.88451 18.3898 7.96169C18.0019 8.03886 17.5997 7.99925 17.2343 7.84787C16.8688 7.6965 16.5565 7.44015 16.3367 7.11125C16.117 6.78236 15.9997 6.39568 15.9997 6.00011C15.9997 5.46968 16.2104 4.96097 16.5854 4.5859C16.9605 4.21083 17.4692 4.00011 17.9997 4.00011ZM5.99966 14.0001C5.6041 14.0001 5.21742 13.8828 4.88852 13.6631C4.55962 13.4433 4.30328 13.1309 4.1519 12.7655C4.00053 12.4 3.96092 11.9979 4.03809 11.6099C4.11526 11.222 4.30574 10.8656 4.58545 10.5859C4.86515 10.3062 5.22152 10.1157 5.60948 10.0385C5.99744 9.96137 6.39958 10.001 6.76503 10.1524C7.13048 10.3037 7.44284 10.5601 7.6626 10.889C7.88236 11.2179 7.99966 11.6046 7.99966 12.0001C7.99966 12.5305 7.78895 13.0393 7.41388 13.4143C7.0388 13.7894 6.5301 14.0001 5.99966 14.0001ZM17.9997 20.0001C17.6041 20.0001 17.2174 19.8828 16.8885 19.6631C16.5596 19.4433 16.3033 19.1309 16.1519 18.7655C16.0005 18.4 15.9609 17.9979 16.0381 17.6099C16.1153 17.222 16.3057 16.8656 16.5854 16.5859C16.8652 16.3062 17.2215 16.1157 17.6095 16.0385C17.9974 15.9614 18.3996 16.001 18.765 16.1524C19.1305 16.3037 19.4428 16.5601 19.6626 16.889C19.8824 17.2179 19.9997 17.6046 19.9997 18.0001C19.9997 18.5305 19.7889 19.0393 19.4139 19.4143C19.0388 19.7894 18.5301 20.0001 17.9997 20.0001Z" />
</svg>
