<svg width="24" height="24" viewBox="0 0 24 24" xmlns="http://www.w3.org/2000/svg">
<path d="M14.0003 18C14.2655 18 14.5199 17.8947 14.7074 17.7071C14.8949 17.5196 15.0003 17.2652 15.0003 17V15C15.0003 14.7348 14.8949 14.4805 14.7074 14.2929C14.5199 14.1054 14.2655 14 14.0003 14C13.7351 14 13.4807 14.1054 13.2932 14.2929C13.1056 14.4805 13.0003 14.7348 13.0003 15V17C13.0003 17.2652 13.1056 17.5196 13.2932 17.7071C13.4807 17.8947 13.7351 18 14.0003 18ZM10.0003 18C10.2655 18 10.5199 17.8947 10.7074 17.7071C10.8949 17.5196 11.0003 17.2652 11.0003 17V15C11.0003 14.7348 10.8949 14.4805 10.7074 14.2929C10.5199 14.1054 10.2655 14 10.0003 14C9.73506 14 9.48071 14.1054 9.29317 14.2929C9.10564 14.4805 9.00028 14.7348 9.00028 15V17C9.00028 17.2652 9.10564 17.5196 9.29317 17.7071C9.48071 17.8947 9.73506 18 10.0003 18ZM19.0003 6.00003H17.6203L15.8903 2.55003C15.8374 2.42308 15.7589 2.3084 15.6598 2.21316C15.5606 2.11791 15.4428 2.04414 15.3138 1.99647C15.1848 1.94879 15.0474 1.92823 14.9101 1.93607C14.7728 1.94392 14.6386 1.97999 14.5159 2.04204C14.3932 2.10408 14.2846 2.19078 14.1969 2.2967C14.1092 2.40261 14.0443 2.52548 14.0062 2.65762C13.9681 2.78976 13.9577 2.92833 13.9756 3.06467C13.9935 3.20102 14.0394 3.3322 14.1103 3.45003L15.3803 6.00003H8.62028L9.89028 3.45003C9.98735 3.21693 9.99264 2.95575 9.9051 2.71891C9.81756 2.48208 9.64367 2.28712 9.41834 2.17319C9.19301 2.05926 8.93292 2.03479 8.6903 2.10469C8.44767 2.17458 8.24046 2.33368 8.11028 2.55003L6.38028 6.00003H5.00028C4.29347 6.01078 3.61316 6.27077 3.07933 6.73416C2.5455 7.19755 2.19245 7.83455 2.08245 8.53283C1.97245 9.23112 2.11256 9.94581 2.47807 10.5509C2.84358 11.1559 3.41101 11.6125 4.08028 11.84L4.82028 19.3C4.8949 20.0426 5.24363 20.7307 5.79835 21.2299C6.35308 21.7292 7.07398 22.0038 7.82028 22H16.2003C16.9466 22.0038 17.6675 21.7292 18.2222 21.2299C18.7769 20.7307 19.1257 20.0426 19.2003 19.3L19.9403 11.84C20.611 11.6118 21.1793 11.1536 21.5446 10.5465C21.9098 9.93942 22.0484 9.22266 21.9359 8.52317C21.8233 7.82368 21.4667 7.18661 20.9294 6.7248C20.3921 6.26299 19.7087 6.00624 19.0003 6.00003ZM17.1903 19.1C17.1654 19.3475 17.0492 19.5769 16.8643 19.7433C16.6793 19.9098 16.439 20.0013 16.1903 20H7.81028C7.56151 20.0013 7.32121 19.9098 7.1363 19.7433C6.9514 19.5769 6.83515 19.3475 6.81028 19.1L6.10028 12H17.9003L17.1903 19.1ZM19.0003 10H5.00028C4.73506 10 4.48071 9.89467 4.29317 9.70713C4.10564 9.5196 4.00028 9.26524 4.00028 9.00003C4.00028 8.73481 4.10564 8.48046 4.29317 8.29292C4.48071 8.10538 4.73506 8.00003 5.00028 8.00003H19.0003C19.2655 8.00003 19.5199 8.10538 19.7074 8.29292C19.8949 8.48046 20.0003 8.73481 20.0003 9.00003C20.0003 9.26524 19.8949 9.5196 19.7074 9.70713C19.5199 9.89467 19.2655 10 19.0003 10Z" />
</svg>
