<svg width="24" height="24" viewBox="0 0 24 24" xmlns="http://www.w3.org/2000/svg">
<path d="M15.7105 12.71C16.6909 11.9387 17.4065 10.8809 17.7577 9.68394C18.109 8.48697 18.0784 7.21027 17.6703 6.03147C17.2621 4.85267 16.4967 3.83039 15.4806 3.10686C14.4644 2.38332 13.2479 1.99451 12.0005 1.99451C10.753 1.99451 9.5366 2.38332 8.52041 3.10686C7.50423 3.83039 6.73883 4.85267 6.3307 6.03147C5.92257 7.21027 5.892 8.48697 6.24325 9.68394C6.59449 10.8809 7.31009 11.9387 8.29048 12.71C6.61056 13.383 5.14477 14.4994 4.04938 15.9399C2.95398 17.3805 2.27005 19.0913 2.07048 20.89C2.05604 21.0213 2.0676 21.1542 2.10451 21.2811C2.14142 21.4079 2.20295 21.5263 2.2856 21.6293C2.4525 21.8375 2.69527 21.9708 2.96049 22C3.2257 22.0292 3.49164 21.9518 3.69981 21.7849C3.90798 21.618 4.04131 21.3752 4.07049 21.11C4.29007 19.1552 5.22217 17.3498 6.6887 16.0388C8.15524 14.7278 10.0534 14.003 12.0205 14.003C13.9876 14.003 15.8857 14.7278 17.3523 16.0388C18.8188 17.3498 19.7509 19.1552 19.9705 21.11C19.9977 21.3557 20.1149 21.5827 20.2996 21.747C20.4843 21.9114 20.7233 22.0015 20.9705 22H21.0805C21.3426 21.9698 21.5822 21.8373 21.747 21.6313C21.9119 21.4252 21.9886 21.1624 21.9605 20.9C21.76 19.0962 21.0724 17.381 19.9713 15.9382C18.8703 14.4954 17.3974 13.3795 15.7105 12.71ZM12.0005 12C11.2094 12 10.436 11.7654 9.7782 11.3259C9.12041 10.8864 8.60772 10.2616 8.30497 9.53074C8.00222 8.79983 7.923 7.99557 8.07734 7.21964C8.23168 6.44372 8.61265 5.73099 9.17206 5.17158C9.73147 4.61217 10.4442 4.2312 11.2201 4.07686C11.996 3.92252 12.8003 4.00173 13.5312 4.30448C14.2621 4.60724 14.8868 5.11993 15.3264 5.77772C15.7659 6.43552 16.0005 7.20888 16.0005 8C16.0005 9.06087 15.5791 10.0783 14.8289 10.8284C14.0788 11.5786 13.0614 12 12.0005 12Z" />
</svg>
