<svg width="24" height="24" viewBox="0 0 24 24" xmlns="http://www.w3.org/2000/svg">
<path d="M15.5397 11.29L9.87974 5.64C9.78677 5.54627 9.67617 5.47188 9.55431 5.42111C9.43246 5.37034 9.30175 5.3442 9.16974 5.3442C9.03773 5.3442 8.90702 5.37034 8.78516 5.42111C8.6633 5.47188 8.5527 5.54627 8.45974 5.64C8.27349 5.82736 8.16895 6.08081 8.16895 6.345C8.16895 6.60918 8.27349 6.86264 8.45974 7.05L13.4097 12.05L8.45974 17C8.27349 17.1874 8.16895 17.4408 8.16895 17.705C8.16895 17.9692 8.27349 18.2226 8.45974 18.41C8.55235 18.5045 8.6628 18.5797 8.78467 18.6312C8.90655 18.6826 9.03743 18.7094 9.16974 18.71C9.30204 18.7094 9.43293 18.6826 9.5548 18.6312C9.67668 18.5797 9.78712 18.5045 9.87974 18.41L15.5397 12.76C15.6412 12.6664 15.7223 12.5527 15.7777 12.4262C15.8331 12.2997 15.8617 12.1631 15.8617 12.025C15.8617 11.8869 15.8331 11.7503 15.7777 11.6238C15.7223 11.4973 15.6412 11.3836 15.5397 11.29Z" />
</svg>
