<svg width="24" height="24" viewBox="0 0 24 24" xmlns="http://www.w3.org/2000/svg">
<path d="M9.71019 10.21L12.0002 7.91L14.2902 10.21C14.3831 10.3037 14.4937 10.3781 14.6156 10.4289C14.7375 10.4797 14.8682 10.5058 15.0002 10.5058C15.1322 10.5058 15.2629 10.4797 15.3848 10.4289C15.5066 10.3781 15.6172 10.3037 15.7102 10.21C15.8039 10.117 15.8783 10.0064 15.9291 9.88458C15.9798 9.76272 16.006 9.63201 16.006 9.5C16.006 9.36799 15.9798 9.23728 15.9291 9.11542C15.8783 8.99356 15.8039 8.88296 15.7102 8.79L12.7102 5.79C12.6172 5.69627 12.5066 5.62188 12.3848 5.57111C12.2629 5.52034 12.1322 5.4942 12.0002 5.4942C11.8682 5.4942 11.7375 5.52034 11.6156 5.57111C11.4937 5.62188 11.3831 5.69627 11.2902 5.79L8.29019 8.79C8.10188 8.9783 7.99609 9.2337 7.99609 9.5C7.99609 9.7663 8.10188 10.0217 8.29019 10.21C8.47849 10.3983 8.73388 10.5041 9.00019 10.5041C9.26649 10.5041 9.52188 10.3983 9.71019 10.21ZM14.2902 14.79L12.0002 17.09L9.71019 14.79C9.61695 14.6968 9.50626 14.6228 9.38444 14.5723C9.26261 14.5219 9.13204 14.4959 9.00019 14.4959C8.86833 14.4959 8.73776 14.5219 8.61594 14.5723C8.49411 14.6228 8.38342 14.6968 8.29019 14.79C8.19695 14.8832 8.12299 14.9939 8.07253 15.1158C8.02207 15.2376 7.99609 15.3681 7.99609 15.5C7.99609 15.6319 8.02207 15.7624 8.07253 15.8842C8.12299 16.0061 8.19695 16.1168 8.29019 16.21L11.2902 19.21C11.3831 19.3037 11.4937 19.3781 11.6156 19.4289C11.7375 19.4797 11.8682 19.5058 12.0002 19.5058C12.1322 19.5058 12.2629 19.4797 12.3848 19.4289C12.5066 19.3781 12.6172 19.3037 12.7102 19.21L15.7102 16.21C15.8985 16.0217 16.0043 15.7663 16.0043 15.5C16.0043 15.2337 15.8985 14.9783 15.7102 14.79C15.5219 14.6017 15.2665 14.4959 15.0002 14.4959C14.7339 14.4959 14.4785 14.6017 14.2902 14.79Z" />
</svg>
