<svg width="24" height="24" viewBox="0 0 24 24" xmlns="http://www.w3.org/2000/svg">
<path d="M14.81 12.28C15.443 11.6002 15.7996 10.7088 15.81 9.78C15.81 8.77748 15.4118 7.81602 14.7029 7.10714C13.994 6.39825 13.0325 6 12.03 6C11.0275 6 10.066 6.39825 9.35714 7.10714C8.64825 7.81602 8.25 8.77748 8.25 9.78C8.26044 10.7088 8.61702 11.6002 9.25 12.28C8.36865 12.7189 7.61022 13.3699 7.04292 14.1746C6.47561 14.9793 6.11723 15.9124 6 16.89C5.97083 17.1552 6.0482 17.4212 6.21511 17.6293C6.38202 17.8375 6.62478 17.9708 6.89 18C7.15522 18.0292 7.42116 17.9518 7.62932 17.7849C7.83749 17.618 7.97083 17.3752 8 17.11C8.11933 16.1411 8.58885 15.2494 9.32009 14.6027C10.0513 13.956 10.9938 13.599 11.97 13.599C12.9462 13.599 13.8887 13.956 14.6199 14.6027C15.3512 15.2494 15.8207 16.1411 15.94 17.11C15.9678 17.3664 16.0936 17.6022 16.2911 17.768C16.4887 17.9339 16.7426 18.017 17 18H17.11C17.3721 17.9698 17.6117 17.8373 17.7766 17.6313C17.9414 17.4252 18.0181 17.1624 17.99 16.9C17.8815 15.9276 17.5344 14.997 16.9796 14.191C16.4248 13.3851 15.6796 12.7286 14.81 12.28ZM12 11.56C11.6479 11.56 11.3038 11.4556 11.0111 11.26C10.7184 11.0644 10.4902 10.7864 10.3555 10.4612C10.2208 10.1359 10.1855 9.77803 10.2542 9.43274C10.3229 9.08745 10.4924 8.77029 10.7414 8.52135C10.9903 8.27241 11.3075 8.10288 11.6527 8.0342C11.998 7.96552 12.3559 8.00077 12.6812 8.13549C13.0064 8.27022 13.2844 8.49837 13.48 8.79109C13.6756 9.0838 13.78 9.42795 13.78 9.78C13.78 10.2521 13.5925 10.7048 13.2586 11.0387C12.9248 11.3725 12.4721 11.56 12 11.56ZM19 2H5C4.20435 2 3.44129 2.31607 2.87868 2.87868C2.31607 3.44129 2 4.20435 2 5V19C2 19.7956 2.31607 20.5587 2.87868 21.1213C3.44129 21.6839 4.20435 22 5 22H19C19.7956 22 20.5587 21.6839 21.1213 21.1213C21.6839 20.5587 22 19.7956 22 19V5C22 4.20435 21.6839 3.44129 21.1213 2.87868C20.5587 2.31607 19.7956 2 19 2ZM20 19C20 19.2652 19.8946 19.5196 19.7071 19.7071C19.5196 19.8946 19.2652 20 19 20H5C4.73478 20 4.48043 19.8946 4.29289 19.7071C4.10536 19.5196 4 19.2652 4 19V5C4 4.73478 4.10536 4.48043 4.29289 4.29289C4.48043 4.10536 4.73478 4 5 4H19C19.2652 4 19.5196 4.10536 19.7071 4.29289C19.8946 4.48043 20 4.73478 20 5V19Z" />
</svg>
