<svg width="24" height="24" viewBox="0 0 24 24" xmlns="http://www.w3.org/2000/svg">
<path d="M14.4904 10.8599C14.8253 10.3989 15.0262 9.85423 15.0709 9.28614C15.1155 8.71805 15.0022 8.14867 14.7435 7.64094C14.4848 7.13321 14.0907 6.70692 13.6048 6.40919C13.119 6.11145 12.5602 5.95388 11.9904 5.95388C11.4205 5.95388 10.8618 6.11145 10.3759 6.40919C9.89002 6.70692 9.49594 7.13321 9.23721 7.64094C8.97849 8.14867 8.8652 8.71805 8.90988 9.28614C8.95456 9.85423 9.15546 10.3989 9.49037 10.8599C9.06554 11.1307 8.68732 11.4684 8.37037 11.8599C8.28764 11.967 8.22679 12.0892 8.19132 12.2198C8.15584 12.3503 8.14642 12.4866 8.1636 12.6208C8.18078 12.7549 8.22422 12.8844 8.29144 13.0018C8.35866 13.1192 8.44834 13.2222 8.55537 13.3049C8.6624 13.3877 8.78467 13.4485 8.91521 13.484C9.04575 13.5195 9.182 13.5289 9.31618 13.5117C9.45037 13.4945 9.57985 13.4511 9.69724 13.3839C9.81463 13.3167 9.91764 13.227 10.0004 13.1199C10.2446 12.8095 10.5558 12.5583 10.9108 12.3852C11.2658 12.212 11.6554 12.1213 12.0504 12.1199C12.4453 12.1213 12.8349 12.212 13.1899 12.3852C13.5449 12.5583 13.8561 12.8095 14.1004 13.1199C14.1945 13.236 14.3134 13.3294 14.4484 13.3935C14.5834 13.4575 14.731 13.4905 14.8804 13.4899C15.0678 13.4891 15.2513 13.4355 15.4098 13.3354C15.5683 13.2353 15.6955 13.0927 15.7768 12.9238C15.8581 12.7549 15.8903 12.5665 15.8697 12.3802C15.8491 12.1938 15.7766 12.017 15.6604 11.8699C15.3292 11.4706 14.9338 11.1293 14.4904 10.8599ZM12.0004 10.1299C11.7865 10.1298 11.5774 10.0668 11.3992 9.94866C11.2209 9.83056 11.0813 9.66264 10.9977 9.46578C10.9142 9.26893 10.8904 9.05185 10.9293 8.84158C10.9682 8.6313 11.0681 8.43712 11.2166 8.28321C11.3651 8.12929 11.5555 8.02245 11.7643 7.97599C11.973 7.92952 12.1908 7.94548 12.3905 8.02188C12.5903 8.09828 12.7631 8.23174 12.8875 8.40565C13.012 8.57957 13.0825 8.78624 13.0904 8.99994C13.0957 9.14641 13.0715 9.29247 13.0192 9.42936C12.9668 9.56626 12.8874 9.69119 12.7856 9.79668C12.6839 9.90217 12.5619 9.98606 12.4269 10.0433C12.292 10.1006 12.1469 10.13 12.0004 10.1299ZM20.4604 9.62994C20.32 8.16886 19.8036 6.76903 18.9616 5.56676C18.1195 4.3645 16.9805 3.40077 15.6554 2.76944C14.3303 2.1381 12.8642 1.86066 11.4001 1.96415C9.93592 2.06763 8.5235 2.5485 7.30037 3.35994C6.24957 4.06259 5.36742 4.98924 4.71731 6.07333C4.0672 7.15743 3.66526 8.37205 3.54037 9.62994C3.41785 10.8796 3.57504 12.1409 4.00054 13.3222C4.42604 14.5036 5.10917 15.5754 6.00037 16.4599L11.3004 21.7699C11.3933 21.8637 11.5039 21.9381 11.6258 21.9888C11.7477 22.0396 11.8784 22.0657 12.0104 22.0657C12.1424 22.0657 12.2731 22.0396 12.3949 21.9888C12.5168 21.9381 12.6274 21.8637 12.7204 21.7699L18.0004 16.4599C18.8916 15.5754 19.5747 14.5036 20.0002 13.3222C20.4257 12.1409 20.5829 10.8796 20.4604 9.62994ZM16.6004 15.0499L12.0004 19.6499L7.40037 15.0499C6.72246 14.372 6.20317 13.5523 5.87984 12.6497C5.5565 11.7471 5.43715 10.7841 5.53037 9.82994C5.62419 8.86105 5.93213 7.9251 6.43194 7.08979C6.93175 6.25447 7.61093 5.54065 8.42037 4.99994C9.48131 4.29518 10.7267 3.91924 12.0004 3.91924C13.2741 3.91924 14.5194 4.29518 15.5804 4.99994C16.3874 5.53856 17.065 6.24922 17.5647 7.08088C18.0644 7.91254 18.3737 8.84454 18.4704 9.80994C18.5666 10.7674 18.4488 11.7342 18.1254 12.6405C17.8019 13.5468 17.281 14.3698 16.6004 15.0499Z" />
</svg>
