<svg width="24" height="24" viewBox="0 0 24 24" xmlns="http://www.w3.org/2000/svg">
<path d="M10.3799 13.08C10.2597 13.0288 10.1306 13.0016 9.99994 13H5.99994C5.73472 13 5.48037 13.1054 5.29283 13.2929C5.1053 13.4804 4.99994 13.7348 4.99994 14C4.99994 14.2652 5.1053 14.5196 5.29283 14.7071C5.48037 14.8946 5.73472 15 5.99994 15H7.58994L2.28994 20.29C2.19621 20.383 2.12182 20.4936 2.07105 20.6154C2.02028 20.7373 1.99414 20.868 1.99414 21C1.99414 21.132 2.02028 21.2627 2.07105 21.3846C2.12182 21.5064 2.19621 21.617 2.28994 21.71C2.3829 21.8037 2.4935 21.8781 2.61536 21.9289C2.73722 21.9797 2.86793 22.0058 2.99994 22.0058C3.13195 22.0058 3.26266 21.9797 3.38452 21.9289C3.50637 21.8781 3.61698 21.8037 3.70994 21.71L8.99994 16.41V18C8.99994 18.2652 9.1053 18.5196 9.29283 18.7071C9.48037 18.8946 9.73472 19 9.99994 19C10.2652 19 10.5195 18.8946 10.707 18.7071C10.8946 18.5196 10.9999 18.2652 10.9999 18V14C10.9984 13.8693 10.9712 13.7402 10.9199 13.62C10.8185 13.3757 10.6243 13.1815 10.3799 13.08ZM9.99994 5C9.73472 5 9.48037 5.10536 9.29283 5.2929C9.1053 5.48043 8.99994 5.73479 8.99994 6V7.59L3.70994 2.29C3.6167 2.19676 3.50601 2.1228 3.38419 2.07234C3.26237 2.02188 3.1318 1.99591 2.99994 1.99591C2.86808 1.99591 2.73751 2.02188 2.61569 2.07234C2.49387 2.1228 2.38318 2.19676 2.28994 2.29C2.10164 2.47831 1.99585 2.7337 1.99585 3C1.99585 3.2663 2.10164 3.5217 2.28994 3.71L7.58994 9H5.99994C5.73472 9 5.48037 9.10536 5.29283 9.2929C5.1053 9.48043 4.99994 9.73479 4.99994 10C4.99994 10.2652 5.1053 10.5196 5.29283 10.7071C5.48037 10.8946 5.73472 11 5.99994 11H9.99994C10.1306 10.9984 10.2597 10.9712 10.3799 10.92C10.6243 10.8185 10.8185 10.6244 10.9199 10.38C10.9712 10.2598 10.9984 10.1307 10.9999 10V6C10.9999 5.73479 10.8946 5.48043 10.707 5.2929C10.5195 5.10536 10.2652 5 9.99994 5ZM13.6199 10.92C13.7402 10.9712 13.8693 10.9984 13.9999 11H17.9999C18.2652 11 18.5195 10.8946 18.707 10.7071C18.8946 10.5196 18.9999 10.2652 18.9999 10C18.9999 9.73479 18.8946 9.48043 18.707 9.2929C18.5195 9.10536 18.2652 9 17.9999 9H16.4099L21.7099 3.71C21.8982 3.5217 22.004 3.2663 22.004 3C22.004 2.7337 21.8982 2.47831 21.7099 2.29C21.5216 2.1017 21.2662 1.99591 20.9999 1.99591C20.7336 1.99591 20.4782 2.1017 20.2899 2.29L14.9999 7.59V6C14.9999 5.73479 14.8946 5.48043 14.707 5.2929C14.5195 5.10536 14.2652 5 13.9999 5C13.7347 5 13.4804 5.10536 13.2928 5.2929C13.1053 5.48043 12.9999 5.73479 12.9999 6V10C13.0015 10.1307 13.0287 10.2598 13.0799 10.38C13.1814 10.6244 13.3756 10.8185 13.6199 10.92ZM16.4099 15H17.9999C18.2652 15 18.5195 14.8946 18.707 14.7071C18.8946 14.5196 18.9999 14.2652 18.9999 14C18.9999 13.7348 18.8946 13.4804 18.707 13.2929C18.5195 13.1054 18.2652 13 17.9999 13H13.9999C13.8693 13.0016 13.7402 13.0288 13.6199 13.08C13.3756 13.1815 13.1814 13.3757 13.0799 13.62C13.0287 13.7402 13.0015 13.8693 12.9999 14V18C12.9999 18.2652 13.1053 18.5196 13.2928 18.7071C13.4804 18.8946 13.7347 19 13.9999 19C14.2652 19 14.5195 18.8946 14.707 18.7071C14.8946 18.5196 14.9999 18.2652 14.9999 18V16.41L20.2899 21.71C20.3829 21.8037 20.4935 21.8781 20.6154 21.9289C20.7372 21.9797 20.8679 22.0058 20.9999 22.0058C21.132 22.0058 21.2627 21.9797 21.3845 21.9289C21.5064 21.8781 21.617 21.8037 21.7099 21.71C21.8037 21.617 21.8781 21.5064 21.9288 21.3846C21.9796 21.2627 22.0057 21.132 22.0057 21C22.0057 20.868 21.9796 20.7373 21.9288 20.6154C21.8781 20.4936 21.8037 20.383 21.7099 20.29L16.4099 15Z" />
</svg>
