<svg width="24" height="24" viewBox="0 0 24 24" xmlns="http://www.w3.org/2000/svg">
<path d="M18.0001 10C18.0001 9.73479 17.8948 9.48043 17.7072 9.2929C17.5197 9.10536 17.2654 9 17.0001 9H5.41014L7.71014 6.71C7.89844 6.5217 8.00423 6.2663 8.00423 6C8.00423 5.7337 7.89844 5.47831 7.71014 5.29C7.52184 5.1017 7.26644 4.99591 7.00014 4.99591C6.73384 4.99591 6.47844 5.1017 6.29014 5.29L2.29014 9.29C2.15138 9.43063 2.05739 9.6092 2.02001 9.80319C1.98264 9.99718 2.00356 10.1979 2.08014 10.38C2.15516 10.5626 2.28256 10.7189 2.44628 10.8293C2.61 10.9396 2.80271 10.999 3.00014 11H17.0001C17.2654 11 17.5197 10.8946 17.7072 10.7071C17.8948 10.5196 18.0001 10.2652 18.0001 10ZM21.9201 13.62C21.8451 13.4374 21.7177 13.2811 21.554 13.1707C21.3903 13.0604 21.1976 13.001 21.0001 13H7.00014C6.73492 13 6.48057 13.1054 6.29303 13.2929C6.1055 13.4804 6.00014 13.7348 6.00014 14C6.00014 14.2652 6.1055 14.5196 6.29303 14.7071C6.48057 14.8946 6.73492 15 7.00014 15H18.5901L16.2901 17.29C16.1964 17.383 16.122 17.4936 16.0712 17.6154C16.0205 17.7373 15.9943 17.868 15.9943 18C15.9943 18.132 16.0205 18.2627 16.0712 18.3846C16.122 18.5064 16.1964 18.617 16.2901 18.71C16.3831 18.8037 16.4937 18.8781 16.6156 18.9289C16.7374 18.9797 16.8681 19.0058 17.0001 19.0058C17.1322 19.0058 17.2629 18.9797 17.3847 18.9289C17.5066 18.8781 17.6172 18.8037 17.7101 18.71L21.7101 14.71C21.8489 14.5694 21.9429 14.3908 21.9803 14.1968C22.0176 14.0028 21.9967 13.8021 21.9201 13.62Z" />
</svg>
