<svg width="24" height="24" viewBox="0 0 24 24" xmlns="http://www.w3.org/2000/svg">
<path d="M21.7101 9.29L17.7101 5.29C17.6169 5.19676 17.5062 5.1228 17.3844 5.07234C17.2626 5.02188 17.132 4.99591 17.0001 4.99591C16.7338 4.99591 16.4784 5.1017 16.2901 5.29C16.1018 5.47831 15.996 5.7337 15.996 6C15.996 6.2663 16.1018 6.5217 16.2901 6.71L18.5901 9H7.00014C6.73492 9 6.48057 9.10536 6.29303 9.2929C6.1055 9.48043 6.00014 9.73479 6.00014 10C6.00014 10.2652 6.1055 10.5196 6.29303 10.7071C6.48057 10.8946 6.73492 11 7.00014 11H21.0001C21.1976 10.999 21.3903 10.9396 21.554 10.8293C21.7177 10.7189 21.8451 10.5626 21.9201 10.38C21.9967 10.1979 22.0176 9.99718 21.9803 9.80319C21.9429 9.6092 21.8489 9.43063 21.7101 9.29ZM17.0001 13H3.00014C2.80271 13.001 2.61 13.0604 2.44628 13.1707C2.28256 13.2811 2.15516 13.4374 2.08014 13.62C2.00356 13.8021 1.98264 14.0028 2.02001 14.1968C2.05739 14.3908 2.15138 14.5694 2.29014 14.71L6.29014 18.71C6.3831 18.8037 6.4937 18.8781 6.61556 18.9289C6.73742 18.9797 6.86813 19.0058 7.00014 19.0058C7.13215 19.0058 7.26286 18.9797 7.38472 18.9289C7.50658 18.8781 7.61718 18.8037 7.71014 18.71C7.80387 18.617 7.87826 18.5064 7.92903 18.3846C7.9798 18.2627 8.00594 18.132 8.00594 18C8.00594 17.868 7.9798 17.7373 7.92903 17.6154C7.87826 17.4936 7.80387 17.383 7.71014 17.29L5.41014 15H17.0001C17.2654 15 17.5197 14.8946 17.7072 14.7071C17.8948 14.5196 18.0001 14.2652 18.0001 14C18.0001 13.7348 17.8948 13.4804 17.7072 13.2929C17.5197 13.1054 17.2654 13 17.0001 13Z" />
</svg>
