<svg width="24" height="24" viewBox="0 0 24 24" xmlns="http://www.w3.org/2000/svg">
<path d="M5.41 4H7C7.26522 4 7.51957 3.89464 7.70711 3.70711C7.89464 3.51957 8 3.26522 8 3C8 2.73478 7.89464 2.48043 7.70711 2.29289C7.51957 2.10536 7.26522 2 7 2H3C2.86932 2.00158 2.74022 2.02876 2.62 2.08C2.37565 2.18147 2.18147 2.37565 2.08 2.62C2.02876 2.74022 2.00158 2.86932 2 3V7C2 7.26522 2.10536 7.51957 2.29289 7.70711C2.48043 7.89464 2.73478 8 3 8C3.26522 8 3.51957 7.89464 3.70711 7.70711C3.89464 7.51957 4 7.26522 4 7V5.41L9.79 11.21C9.88296 11.3037 9.99356 11.3781 10.1154 11.4289C10.2373 11.4797 10.368 11.5058 10.5 11.5058C10.632 11.5058 10.7627 11.4797 10.8846 11.4289C11.0064 11.3781 11.117 11.3037 11.21 11.21C11.3037 11.117 11.3781 11.0064 11.4289 10.8846C11.4797 10.7627 11.5058 10.632 11.5058 10.5C11.5058 10.368 11.4797 10.2373 11.4289 10.1154C11.3781 9.99356 11.3037 9.88296 11.21 9.79L5.41 4ZM21 16C20.7348 16 20.4804 16.1054 20.2929 16.2929C20.1054 16.4804 20 16.7348 20 17V18.59L14.21 12.79C14.0217 12.6017 13.7663 12.4959 13.5 12.4959C13.2337 12.4959 12.9783 12.6017 12.79 12.79C12.6017 12.9783 12.4959 13.2337 12.4959 13.5C12.4959 13.7663 12.6017 14.0217 12.79 14.21L18.59 20H17C16.7348 20 16.4804 20.1054 16.2929 20.2929C16.1054 20.4804 16 20.7348 16 21C16 21.2652 16.1054 21.5196 16.2929 21.7071C16.4804 21.8946 16.7348 22 17 22H21C21.1307 21.9984 21.2598 21.9712 21.38 21.92C21.6243 21.8185 21.8185 21.6243 21.92 21.38C21.9712 21.2598 21.9984 21.1307 22 21V17C22 16.7348 21.8946 16.4804 21.7071 16.2929C21.5196 16.1054 21.2652 16 21 16Z" />
</svg>
