<svg width="24" height="24" viewBox="0 0 24 24" xmlns="http://www.w3.org/2000/svg">
<path d="M8.4599 8.29C8.2716 8.09639 8.01409 7.98552 7.74404 7.98176C7.47399 7.97801 7.21351 8.0817 7.0199 8.27C6.82629 8.4583 6.71542 8.7158 6.71167 8.98586C6.70792 9.25591 6.8116 9.51639 6.9999 9.71L9.3399 12L6.9999 14.29C6.90617 14.383 6.83178 14.4936 6.78101 14.6154C6.73024 14.7373 6.7041 14.868 6.7041 15C6.7041 15.132 6.73024 15.2627 6.78101 15.3846C6.83178 15.5064 6.90617 15.617 6.9999 15.71C7.09286 15.8037 7.20346 15.8781 7.32532 15.9289C7.44718 15.9797 7.57789 16.0058 7.7099 16.0058C7.84191 16.0058 7.97262 15.9797 8.09448 15.9289C8.21634 15.8781 8.32694 15.8037 8.4199 15.71L11.4199 12.71C11.5136 12.617 11.588 12.5064 11.6388 12.3846C11.6896 12.2627 11.7157 12.132 11.7157 12C11.7157 11.868 11.6896 11.7373 11.6388 11.6154C11.588 11.4936 11.5136 11.383 11.4199 11.29L8.4599 8.29ZM16.9599 11.29L13.9599 8.29C13.7716 8.10169 13.5162 7.99591 13.2499 7.99591C12.9836 7.99591 12.7282 8.10169 12.5399 8.29C12.3516 8.4783 12.2458 8.7337 12.2458 9C12.2458 9.2663 12.3516 9.5217 12.5399 9.71L14.8399 12L12.5399 14.29C12.4462 14.383 12.3718 14.4936 12.321 14.6154C12.2702 14.7373 12.2441 14.868 12.2441 15C12.2441 15.132 12.2702 15.2627 12.321 15.3846C12.3718 15.5064 12.4462 15.617 12.5399 15.71C12.6329 15.8037 12.7435 15.8781 12.8653 15.9289C12.9872 15.9797 13.1179 16.0058 13.2499 16.0058C13.3819 16.0058 13.5126 15.9797 13.6345 15.9289C13.7563 15.8781 13.8669 15.8037 13.9599 15.71L16.9599 12.71C17.0563 12.6197 17.1338 12.5112 17.1881 12.3908C17.2423 12.2703 17.2721 12.1404 17.2759 12.0083C17.2796 11.8763 17.2571 11.7449 17.2097 11.6216C17.1624 11.4983 17.0911 11.3856 16.9999 11.29H16.9599Z" />
</svg>
