<svg width="24" height="24" viewBox="0 0 24 24" xmlns="http://www.w3.org/2000/svg">
<path d="M21.0002 11C20.735 11 20.4806 11.1054 20.2931 11.2929C20.1055 11.4804 20.0002 11.7348 20.0002 12V14.59L13.7102 8.29C13.6172 8.19627 13.5066 8.12188 13.3848 8.07111C13.2629 8.02034 13.1322 7.9942 13.0002 7.9942C12.8682 7.9942 12.7375 8.02034 12.6156 8.07111C12.4937 8.12188 12.3831 8.19627 12.2902 8.29L9.00019 11.59L3.71019 6.29C3.52188 6.1017 3.26649 5.99591 3.00019 5.99591C2.73388 5.99591 2.47849 6.1017 2.29019 6.29C2.10188 6.4783 1.99609 6.7337 1.99609 7C1.99609 7.2663 2.10188 7.5217 2.29019 7.71L8.29019 13.71C8.38315 13.8037 8.49375 13.8781 8.61561 13.9289C8.73747 13.9797 8.86817 14.0058 9.00019 14.0058C9.1322 14.0058 9.2629 13.9797 9.38476 13.9289C9.50662 13.8781 9.61722 13.8037 9.71019 13.71L13.0002 10.41L18.5902 16H16.0002C15.735 16 15.4806 16.1054 15.2931 16.2929C15.1055 16.4804 15.0002 16.7348 15.0002 17C15.0002 17.2652 15.1055 17.5196 15.2931 17.7071C15.4806 17.8946 15.735 18 16.0002 18H21.0002C21.1309 17.9984 21.26 17.9712 21.3802 17.92C21.6245 17.8185 21.8187 17.6243 21.9202 17.38C21.9714 17.2598 21.9986 17.1307 22.0002 17V12C22.0002 11.7348 21.8948 11.4804 21.7073 11.2929C21.5198 11.1054 21.2654 11 21.0002 11Z" />
</svg>
