<svg width="24" height="24" viewBox="0 0 24 24" xmlns="http://www.w3.org/2000/svg">
<path d="M11.2898 11.46C11.3827 11.5537 11.4933 11.6281 11.6152 11.6789C11.7371 11.7297 11.8678 11.7558 11.9998 11.7558C12.1318 11.7558 12.2625 11.7297 12.3844 11.6789C12.5062 11.6281 12.6168 11.5537 12.7098 11.46L15.7098 8.46C15.8056 8.36676 15.8822 8.25555 15.9351 8.13273C15.988 8.0099 16.0162 7.87786 16.018 7.74414C16.0199 7.61043 15.9954 7.47765 15.9459 7.3534C15.8965 7.22916 15.823 7.11587 15.7298 7.02C15.6365 6.92414 15.5253 6.84757 15.4025 6.79469C15.2797 6.7418 15.1476 6.71362 15.0139 6.71177C14.8802 6.70991 14.7474 6.73441 14.6232 6.78386C14.4989 6.83332 14.3856 6.90676 14.2898 7L11.9998 9.34L9.70978 7C9.51617 6.8117 9.25569 6.70802 8.98564 6.71177C8.71558 6.71552 8.45808 6.82639 8.26978 7.02C8.08147 7.21361 7.97779 7.47409 7.98154 7.74414C7.98529 8.01419 8.09617 8.2717 8.28978 8.46L11.2898 11.46ZM14.2898 12.54L11.9998 14.84L9.70978 12.54C9.51617 12.3517 9.25569 12.248 8.98564 12.2518C8.71558 12.2555 8.45808 12.3664 8.26978 12.56C8.08147 12.7536 7.97779 13.0141 7.98154 13.2841C7.98529 13.5542 8.09617 13.8117 8.28978 14L11.2898 17C11.3827 17.0937 11.4933 17.1681 11.6152 17.2189C11.7371 17.2697 11.8678 17.2958 11.9998 17.2958C12.1318 17.2958 12.2625 17.2697 12.3844 17.2189C12.5062 17.1681 12.6168 17.0937 12.7098 17L15.7098 14C15.8981 13.8117 16.0039 13.5563 16.0039 13.29C16.0039 13.0237 15.8981 12.7683 15.7098 12.58C15.5215 12.3917 15.2661 12.2859 14.9998 12.2859C14.7335 12.2859 14.4781 12.3917 14.2898 12.58V12.54Z" />
</svg>
