<svg width="24" height="24" viewBox="0 0 24 24" xmlns="http://www.w3.org/2000/svg">
<path d="M21.71 2.29C21.617 2.19627 21.5064 2.12188 21.3846 2.07111C21.2627 2.02034 21.132 1.9942 21 1.9942C20.868 1.9942 20.7373 2.02034 20.6154 2.07111C20.4936 2.12188 20.383 2.19627 20.29 2.29L14.12 8.46C14.0263 8.55296 13.9519 8.66356 13.9011 8.78542C13.8503 8.90728 13.8242 9.03799 13.8242 9.17C13.8242 9.30201 13.8503 9.43272 13.9011 9.55458C13.9519 9.67644 14.0263 9.78704 14.12 9.88C14.2134 9.97268 14.3243 10.046 14.4461 10.0958C14.5679 10.1455 14.6984 10.1708 14.83 10.17C14.9616 10.1708 15.0921 10.1455 15.2139 10.0958C15.3357 10.046 15.4466 9.97268 15.54 9.88L21.71 3.71C21.8037 3.61704 21.8781 3.50644 21.9289 3.38458C21.9797 3.26272 22.0058 3.13201 22.0058 3C22.0058 2.86799 21.9797 2.73728 21.9289 2.61542C21.8781 2.49356 21.8037 2.38296 21.71 2.29ZM9.88 8.46C9.6917 8.2717 9.4363 8.16591 9.17 8.16591C8.9037 8.16591 8.6483 8.2717 8.46 8.46C8.2717 8.6483 8.16591 8.9037 8.16591 9.17C8.16591 9.4363 8.2717 9.6917 8.46 9.88L14.12 15.54C14.2134 15.6327 14.3243 15.706 14.4461 15.7558C14.5679 15.8055 14.6984 15.8308 14.83 15.83C14.9616 15.8308 15.0921 15.8055 15.2139 15.7558C15.3357 15.706 15.4466 15.6327 15.54 15.54C15.6337 15.447 15.7081 15.3364 15.7589 15.2146C15.8097 15.0927 15.8358 14.962 15.8358 14.83C15.8358 14.698 15.8097 14.5673 15.7589 14.4454C15.7081 14.3236 15.6337 14.213 15.54 14.12L9.88 8.46ZM8.46 14.12L4 18.59V17C4 16.7348 3.89464 16.4804 3.70711 16.2929C3.51957 16.1054 3.26522 16 3 16C2.73478 16 2.48043 16.1054 2.29289 16.2929C2.10536 16.4804 2 16.7348 2 17V21C2.00158 21.1307 2.02876 21.2598 2.08 21.38C2.18147 21.6243 2.37565 21.8185 2.62 21.92C2.74022 21.9712 2.86932 21.9984 3 22H7C7.26522 22 7.51957 21.8946 7.70711 21.7071C7.89464 21.5196 8 21.2652 8 21C8 20.7348 7.89464 20.4804 7.70711 20.2929C7.51957 20.1054 7.26522 20 7 20H5.41L9.88 15.54C10.0683 15.3517 10.1741 15.0963 10.1741 14.83C10.1741 14.5637 10.0683 14.3083 9.88 14.12C9.6917 13.9317 9.4363 13.8259 9.17 13.8259C8.9037 13.8259 8.6483 13.9317 8.46 14.12Z" />
<path d="M21 8C20.7348 8 20.4804 7.89464 20.2929 7.70711C20.1054 7.51957 20 7.26522 20 7V4H17C16.7348 4 16.4804 3.89464 16.2929 3.70711C16.1054 3.51957 16 3.26522 16 3C16 2.73478 16.1054 2.48043 16.2929 2.29289C16.4804 2.10536 16.7348 2 17 2H21C21.2652 2 21.5196 2.10536 21.7071 2.29289C21.8946 2.48043 22 2.73478 22 3V7C22 7.26522 21.8946 7.51957 21.7071 7.70711C21.5196 7.89464 21.2652 8 21 8Z" />
</svg>
