<svg width="24" height="24" viewBox="0 0 24 24" xmlns="http://www.w3.org/2000/svg">
<path d="M21.92 2.62C21.8185 2.37565 21.6243 2.18147 21.38 2.08C21.2598 2.02876 21.1307 2.00158 21 2H17C16.7348 2 16.4804 2.10536 16.2929 2.29289C16.1054 2.48043 16 2.73478 16 3C16 3.26522 16.1054 3.51957 16.2929 3.70711C16.4804 3.89464 16.7348 4 17 4H18.59L12 10.59L9.88 8.46C9.6917 8.2717 9.4363 8.16591 9.17 8.16591C8.9037 8.16591 8.6483 8.2717 8.46 8.46C8.2717 8.6483 8.16591 8.9037 8.16591 9.17C8.16591 9.4363 8.2717 9.6917 8.46 9.88L10.59 12L4 18.59V17C4 16.7348 3.89464 16.4804 3.70711 16.2929C3.51957 16.1054 3.26522 16 3 16C2.73478 16 2.48043 16.1054 2.29289 16.2929C2.10536 16.4804 2 16.7348 2 17V21C2.00158 21.1307 2.02876 21.2598 2.08 21.38C2.18147 21.6243 2.37565 21.8185 2.62 21.92C2.74022 21.9712 2.86932 21.9984 3 22H7C7.26522 22 7.51957 21.8946 7.70711 21.7071C7.89464 21.5196 8 21.2652 8 21C8 20.7348 7.89464 20.4804 7.70711 20.2929C7.51957 20.1054 7.26522 20 7 20H5.41L12 13.41L14.12 15.54C14.2134 15.6327 14.3243 15.706 14.4461 15.7558C14.5679 15.8055 14.6984 15.8308 14.83 15.83C14.9616 15.8308 15.0921 15.8055 15.2139 15.7558C15.3357 15.706 15.4466 15.6327 15.54 15.54C15.6337 15.447 15.7081 15.3364 15.7589 15.2146C15.8097 15.0927 15.8358 14.962 15.8358 14.83C15.8358 14.698 15.8097 14.5673 15.7589 14.4454C15.7081 14.3236 15.6337 14.213 15.54 14.12L13.41 12L20 5.41V7C20 7.26522 20.1054 7.51957 20.2929 7.70711C20.4804 7.89464 20.7348 8 21 8C21.2652 8 21.5196 7.89464 21.7071 7.70711C21.8946 7.51957 22 7.26522 22 7V3C21.9984 2.86932 21.9712 2.74022 21.92 2.62Z" />
</svg>
