<svg width="24" height="24" viewBox="0 0 24 24" xmlns="http://www.w3.org/2000/svg">
<path d="M21.9199 11.62C21.8723 11.4973 21.8009 11.3851 21.7099 11.29L19.2099 8.79C19.0216 8.6017 18.7662 8.49591 18.4999 8.49591C18.2336 8.49591 17.9782 8.6017 17.7899 8.79C17.6016 8.97831 17.4958 9.2337 17.4958 9.5C17.4958 9.7663 17.6016 10.0217 17.7899 10.21L18.5899 11H13.9999C13.7347 11 13.4803 11.1054 13.2928 11.2929C13.1053 11.4804 12.9999 11.7348 12.9999 12C12.9999 12.2652 13.1053 12.5196 13.2928 12.7071C13.4803 12.8946 13.7347 13 13.9999 13H18.5899L17.7899 13.79C17.6962 13.883 17.6218 13.9936 17.571 14.1154C17.5202 14.2373 17.4941 14.368 17.4941 14.5C17.4941 14.632 17.5202 14.7627 17.571 14.8846C17.6218 15.0064 17.6962 15.117 17.7899 15.21C17.8829 15.3037 17.9935 15.3781 18.1153 15.4289C18.2372 15.4797 18.3679 15.5058 18.4999 15.5058C18.6319 15.5058 18.7626 15.4797 18.8845 15.4289C19.0063 15.3781 19.1169 15.3037 19.2099 15.21L21.7099 12.71C21.8009 12.6149 21.8723 12.5028 21.9199 12.38C22.0199 12.1365 22.0199 11.8635 21.9199 11.62ZM9.9999 11H5.4099L6.2099 10.21C6.3982 10.0217 6.50399 9.7663 6.50399 9.5C6.50399 9.2337 6.3982 8.97831 6.2099 8.79C6.02159 8.6017 5.7662 8.49591 5.4999 8.49591C5.23359 8.49591 4.9782 8.6017 4.7899 8.79L2.2899 11.29C2.19886 11.3851 2.12749 11.4973 2.0799 11.62C1.97988 11.8635 1.97988 12.1365 2.0799 12.38C2.12749 12.5028 2.19886 12.6149 2.2899 12.71L4.7899 15.21C4.88286 15.3037 4.99346 15.3781 5.11532 15.4289C5.23718 15.4797 5.36788 15.5058 5.4999 15.5058C5.63191 15.5058 5.76261 15.4797 5.88447 15.4289C6.00633 15.3781 6.11693 15.3037 6.2099 15.21C6.30363 15.117 6.37802 15.0064 6.42879 14.8846C6.47956 14.7627 6.50569 14.632 6.50569 14.5C6.50569 14.368 6.47956 14.2373 6.42879 14.1154C6.37802 13.9936 6.30363 13.883 6.2099 13.79L5.4099 13H9.9999C10.2651 13 10.5195 12.8946 10.707 12.7071C10.8945 12.5196 10.9999 12.2652 10.9999 12C10.9999 11.7348 10.8945 11.4804 10.707 11.2929C10.5195 11.1054 10.2651 11 9.9999 11Z" />
</svg>
