<svg width="24" height="24" viewBox="0 0 24 24" xmlns="http://www.w3.org/2000/svg">
<path d="M17.71 11.29L15.21 8.79C15.0217 8.6017 14.7663 8.49591 14.5 8.49591C14.2337 8.49591 13.9783 8.6017 13.79 8.79C13.6017 8.9783 13.4959 9.2337 13.4959 9.5C13.4959 9.7663 13.6017 10.0217 13.79 10.21L14.59 11H9.41L10.21 10.21C10.3983 10.0217 10.5041 9.7663 10.5041 9.5C10.5041 9.2337 10.3983 8.9783 10.21 8.79C10.0217 8.6017 9.7663 8.49591 9.5 8.49591C9.2337 8.49591 8.9783 8.6017 8.79 8.79L6.29 11.29C6.19896 11.3851 6.12759 11.4972 6.08 11.62C5.97998 11.8635 5.97998 12.1365 6.08 12.38C6.12759 12.5028 6.19896 12.6149 6.29 12.71L8.79 15.21C8.88296 15.3037 8.99356 15.3781 9.11542 15.4289C9.23728 15.4797 9.36799 15.5058 9.5 15.5058C9.63201 15.5058 9.76272 15.4797 9.88458 15.4289C10.0064 15.3781 10.117 15.3037 10.21 15.21C10.3037 15.117 10.3781 15.0064 10.4289 14.8846C10.4797 14.7627 10.5058 14.632 10.5058 14.5C10.5058 14.368 10.4797 14.2373 10.4289 14.1154C10.3781 13.9936 10.3037 13.883 10.21 13.79L9.41 13H14.59L13.79 13.79C13.6963 13.883 13.6219 13.9936 13.5711 14.1154C13.5203 14.2373 13.4942 14.368 13.4942 14.5C13.4942 14.632 13.5203 14.7627 13.5711 14.8846C13.6219 15.0064 13.6963 15.117 13.79 15.21C13.883 15.3037 13.9936 15.3781 14.1154 15.4289C14.2373 15.4797 14.368 15.5058 14.5 15.5058C14.632 15.5058 14.7627 15.4797 14.8846 15.4289C15.0064 15.3781 15.117 15.3037 15.21 15.21L17.71 12.71C17.801 12.6149 17.8724 12.5028 17.92 12.38C18.02 12.1365 18.02 11.8635 17.92 11.62C17.8724 11.4972 17.801 11.3851 17.71 11.29ZM3 6C2.73478 6 2.48043 6.10536 2.29289 6.29289C2.10536 6.48043 2 6.73478 2 7V17C2 17.2652 2.10536 17.5196 2.29289 17.7071C2.48043 17.8946 2.73478 18 3 18C3.26522 18 3.51957 17.8946 3.70711 17.7071C3.89464 17.5196 4 17.2652 4 17V7C4 6.73478 3.89464 6.48043 3.70711 6.29289C3.51957 6.10536 3.26522 6 3 6ZM21 6C20.7348 6 20.4804 6.10536 20.2929 6.29289C20.1054 6.48043 20 6.73478 20 7V17C20 17.2652 20.1054 17.5196 20.2929 17.7071C20.4804 17.8946 20.7348 18 21 18C21.2652 18 21.5196 17.8946 21.7071 17.7071C21.8946 17.5196 22 17.2652 22 17V7C22 6.73478 21.8946 6.48043 21.7071 6.29289C21.5196 6.10536 21.2652 6 21 6Z" />
</svg>
