<svg width="24" height="24" viewBox="0 0 24 24" xmlns="http://www.w3.org/2000/svg">
<path d="M21.9199 11.62C21.8723 11.4972 21.8009 11.3851 21.7099 11.29L17.7099 7.29C17.6167 7.19676 17.506 7.1228 17.3841 7.07234C17.2623 7.02188 17.1318 6.99591 16.9999 6.99591C16.7336 6.99591 16.4782 7.10169 16.2899 7.29C16.1016 7.4783 15.9958 7.7337 15.9958 8C15.9958 8.2663 16.1016 8.52169 16.2899 8.71L18.5899 11H5.4099L7.7099 8.71C7.80313 8.61676 7.8771 8.50607 7.92756 8.38425C7.97802 8.26243 8.00399 8.13186 8.00399 8C8.00399 7.86814 7.97802 7.73757 7.92756 7.61575C7.8771 7.49393 7.80313 7.38324 7.7099 7.29C7.61666 7.19676 7.50597 7.1228 7.38415 7.07234C7.26232 7.02188 7.13176 6.99591 6.9999 6.99591C6.86804 6.99591 6.73747 7.02188 6.61565 7.07234C6.49383 7.1228 6.38313 7.19676 6.2899 7.29L2.2899 11.29C2.19886 11.3851 2.12749 11.4972 2.0799 11.62C1.97988 11.8635 1.97988 12.1365 2.0799 12.38C2.12749 12.5027 2.19886 12.6149 2.2899 12.71L6.2899 16.71C6.38286 16.8037 6.49346 16.8781 6.61532 16.9289C6.73718 16.9797 6.86788 17.0058 6.9999 17.0058C7.13191 17.0058 7.26261 16.9797 7.38447 16.9289C7.50633 16.8781 7.61693 16.8037 7.7099 16.71C7.80363 16.617 7.87802 16.5064 7.92879 16.3846C7.97956 16.2627 8.00569 16.132 8.00569 16C8.00569 15.868 7.97956 15.7373 7.92879 15.6154C7.87802 15.4936 7.80363 15.383 7.7099 15.29L5.4099 13H18.5899L16.2899 15.29C16.1962 15.383 16.1218 15.4936 16.071 15.6154C16.0202 15.7373 15.9941 15.868 15.9941 16C15.9941 16.132 16.0202 16.2627 16.071 16.3846C16.1218 16.5064 16.1962 16.617 16.2899 16.71C16.3829 16.8037 16.4935 16.8781 16.6153 16.9289C16.7372 16.9797 16.8679 17.0058 16.9999 17.0058C17.1319 17.0058 17.2626 16.9797 17.3845 16.9289C17.5063 16.8781 17.6169 16.8037 17.7099 16.71L21.7099 12.71C21.8009 12.6149 21.8723 12.5027 21.9199 12.38C22.0199 12.1365 22.0199 11.8635 21.9199 11.62Z" />
</svg>
