<svg width="24" height="24" viewBox="0 0 24 24" xmlns="http://www.w3.org/2000/svg">
<path d="M14.7092 17.0983C14.8955 16.9109 15 16.6575 15 16.3933C15 16.1291 15 15.5986 15 15.5986C15 15.5986 15 12.8086 15 12.0986C15 11.3886 15 9.0986 15 8.5986C15 8.0986 15 8.11749 15 7.85331C15 7.58912 14.8955 7.33567 14.7092 7.14831C14.6162 7.05458 14.5056 6.98018 14.3838 6.92942C14.2619 6.87865 14.1312 6.85251 13.9992 6.85251C13.8672 6.85251 13.7365 6.87865 13.6146 6.92942C13.4928 6.98018 13.3822 7.05458 13.2892 7.14831L9.04921 11.3883C8.95548 11.4813 8.88108 11.5919 8.83032 11.7137C8.77955 11.8356 8.75341 11.9663 8.75341 12.0983C8.75341 12.2303 8.77955 12.361 8.83032 12.4829C8.88108 12.6047 8.95548 12.7153 9.04921 12.8083L13.2892 17.0983C13.3822 17.192 13.4928 17.2664 13.6146 17.3172C13.7365 17.368 13.8672 17.3941 13.9992 17.3941C14.1312 17.3941 14.2619 17.368 14.3838 17.3172C14.5056 17.2664 14.6162 17.192 14.7092 17.0983Z" />
</svg>
