<svg width="24" height="24" viewBox="0 0 24 24" xmlns="http://www.w3.org/2000/svg">
<path d="M16.9999 11H5.4099L7.7099 8.71C7.80313 8.61676 7.8771 8.50607 7.92756 8.38425C7.97802 8.26243 8.00399 8.13186 8.00399 8C8.00399 7.86814 7.97802 7.73757 7.92756 7.61575C7.8771 7.49393 7.80313 7.38324 7.7099 7.29C7.61666 7.19676 7.50597 7.1228 7.38415 7.07234C7.26232 7.02188 7.13176 6.99591 6.9999 6.99591C6.86804 6.99591 6.73747 7.02188 6.61565 7.07234C6.49383 7.1228 6.38313 7.19676 6.2899 7.29L2.2899 11.29C2.19886 11.3851 2.12749 11.4972 2.0799 11.62C1.97988 11.8635 1.97988 12.1365 2.0799 12.38C2.12749 12.5028 2.19886 12.6149 2.2899 12.71L6.2899 16.71C6.38286 16.8037 6.49346 16.8781 6.61532 16.9289C6.73718 16.9797 6.86788 17.0058 6.9999 17.0058C7.13191 17.0058 7.26261 16.9797 7.38447 16.9289C7.50633 16.8781 7.61693 16.8037 7.7099 16.71C7.80363 16.617 7.87802 16.5064 7.92879 16.3846C7.97956 16.2627 8.00569 16.132 8.00569 16C8.00569 15.868 7.97956 15.7373 7.92879 15.6154C7.87802 15.4936 7.80363 15.383 7.7099 15.29L5.4099 13H16.9999C17.2651 13 17.5195 12.8946 17.707 12.7071C17.8945 12.5196 17.9999 12.2652 17.9999 12C17.9999 11.7348 17.8945 11.4804 17.707 11.2929C17.5195 11.1054 17.2651 11 16.9999 11ZM20.9999 4C20.7347 4 20.4803 4.10536 20.2928 4.29289C20.1053 4.48043 19.9999 4.73478 19.9999 5V19C19.9999 19.2652 20.1053 19.5196 20.2928 19.7071C20.4803 19.8946 20.7347 20 20.9999 20C21.2651 20 21.5195 19.8946 21.707 19.7071C21.8945 19.5196 21.9999 19.2652 21.9999 19V5C21.9999 4.73478 21.8945 4.48043 21.707 4.29289C21.5195 4.10536 21.2651 4 20.9999 4Z" />
</svg>
