<svg width="24" height="24" viewBox="0 0 24 24" xmlns="http://www.w3.org/2000/svg">
<path d="M21.7099 2.29C21.617 2.19627 21.5064 2.12188 21.3845 2.07111C21.2627 2.02034 21.132 1.9942 20.9999 1.9942C20.8679 1.9942 20.7372 2.02034 20.6154 2.07111C20.4935 2.12188 20.3829 2.19627 20.2899 2.29L14.4999 8.09V6.5C14.4999 6.23478 14.3946 5.98043 14.207 5.79289C14.0195 5.60536 13.7652 5.5 13.4999 5.5C13.2347 5.5 12.9804 5.60536 12.7928 5.79289C12.6053 5.98043 12.4999 6.23478 12.4999 6.5V10.5C12.5015 10.6307 12.5287 10.7598 12.5799 10.88C12.6814 11.1243 12.8756 11.3185 13.1199 11.42C13.2402 11.4712 13.3693 11.4984 13.4999 11.5H17.4999C17.7652 11.5 18.0195 11.3946 18.207 11.2071C18.3946 11.0196 18.4999 10.7652 18.4999 10.5C18.4999 10.2348 18.3946 9.98043 18.207 9.79289C18.0195 9.60536 17.7652 9.5 17.4999 9.5H15.9099L21.7099 3.71C21.8037 3.61704 21.8781 3.50644 21.9288 3.38458C21.9796 3.26272 22.0057 3.13201 22.0057 3C22.0057 2.86799 21.9796 2.73728 21.9288 2.61542C21.8781 2.49356 21.8037 2.38296 21.7099 2.29ZM10.8799 12.58C10.7597 12.5288 10.6306 12.5016 10.4999 12.5H6.49994C6.23472 12.5 5.98037 12.6054 5.79283 12.7929C5.6053 12.9804 5.49994 13.2348 5.49994 13.5C5.49994 13.7652 5.6053 14.0196 5.79283 14.2071C5.98037 14.3946 6.23472 14.5 6.49994 14.5H8.08994L2.28994 20.29C2.19621 20.383 2.12182 20.4936 2.07105 20.6154C2.02028 20.7373 1.99414 20.868 1.99414 21C1.99414 21.132 2.02028 21.2627 2.07105 21.3846C2.12182 21.5064 2.19621 21.617 2.28994 21.71C2.3829 21.8037 2.4935 21.8781 2.61536 21.9289C2.73722 21.9797 2.86793 22.0058 2.99994 22.0058C3.13195 22.0058 3.26266 21.9797 3.38452 21.9289C3.50637 21.8781 3.61698 21.8037 3.70994 21.71L9.49994 15.91V17.5C9.49994 17.7652 9.6053 18.0196 9.79283 18.2071C9.98037 18.3946 10.2347 18.5 10.4999 18.5C10.7652 18.5 11.0195 18.3946 11.207 18.2071C11.3946 18.0196 11.4999 17.7652 11.4999 17.5V13.5C11.4984 13.3693 11.4712 13.2402 11.4199 13.12C11.3185 12.8757 11.1243 12.6815 10.8799 12.58Z" />
</svg>
