<svg width="24" height="24" viewBox="0 0 24 24" xmlns="http://www.w3.org/2000/svg">
<path d="M10.5002 5.5C10.235 5.5 9.98062 5.60536 9.79308 5.7929C9.60554 5.98043 9.50019 6.23479 9.50019 6.5V8.09L3.71019 2.29C3.61695 2.19676 3.50626 2.1228 3.38443 2.07234C3.26261 2.02188 3.13204 1.99591 3.00019 1.99591C2.86833 1.99591 2.73776 2.02188 2.61594 2.07234C2.49411 2.1228 2.38342 2.19676 2.29019 2.29C2.10188 2.47831 1.99609 2.7337 1.99609 3C1.99609 3.2663 2.10188 3.5217 2.29019 3.71L8.09019 9.5H6.50019C6.23497 9.5 5.98062 9.60536 5.79308 9.7929C5.60554 9.98043 5.50019 10.2348 5.50019 10.5C5.50019 10.7652 5.60554 11.0196 5.79308 11.2071C5.98062 11.3946 6.23497 11.5 6.50019 11.5H10.5002C10.6309 11.4984 10.76 11.4712 10.8802 11.42C11.1245 11.3185 11.3187 11.1244 11.4202 10.88C11.4714 10.7598 11.4986 10.6307 11.5002 10.5V6.5C11.5002 6.23479 11.3948 5.98043 11.2073 5.7929C11.0198 5.60536 10.7654 5.5 10.5002 5.5ZM21.7102 20.29L15.9102 14.5H17.5002C17.7654 14.5 18.0198 14.3946 18.2073 14.2071C18.3948 14.0196 18.5002 13.7652 18.5002 13.5C18.5002 13.2348 18.3948 12.9804 18.2073 12.7929C18.0198 12.6054 17.7654 12.5 17.5002 12.5H13.5002C13.3695 12.5016 13.2404 12.5288 13.1202 12.58C12.8758 12.6815 12.6817 12.8757 12.5802 13.12C12.5289 13.2402 12.5018 13.3693 12.5002 13.5V17.5C12.5002 17.7652 12.6055 18.0196 12.7931 18.2071C12.9806 18.3946 13.235 18.5 13.5002 18.5C13.7654 18.5 14.0198 18.3946 14.2073 18.2071C14.3948 18.0196 14.5002 17.7652 14.5002 17.5V15.91L20.2902 21.71C20.3831 21.8037 20.4937 21.8781 20.6156 21.9289C20.7375 21.9797 20.8682 22.0058 21.0002 22.0058C21.1322 22.0058 21.2629 21.9797 21.3848 21.9289C21.5066 21.8781 21.6172 21.8037 21.7102 21.71C21.8039 21.617 21.8783 21.5064 21.9291 21.3846C21.9798 21.2627 22.006 21.132 22.006 21C22.006 20.868 21.9798 20.7373 21.9291 20.6154C21.8783 20.4936 21.8039 20.383 21.7102 20.29Z" />
</svg>
