<svg width="24" height="24" viewBox="0 0 24 24" xmlns="http://www.w3.org/2000/svg">
<path d="M11 12H3C2.73478 12 2.48043 12.1054 2.29289 12.2929C2.10536 12.4804 2 12.7348 2 13V21C2 21.2652 2.10536 21.5196 2.29289 21.7071C2.48043 21.8946 2.73478 22 3 22H11C11.2652 22 11.5196 21.8946 11.7071 21.7071C11.8946 21.5196 12 21.2652 12 21V13C12 12.7348 11.8946 12.4804 11.7071 12.2929C11.5196 12.1054 11.2652 12 11 12ZM10 20H4V14H10V20ZM21.92 2.62C21.8185 2.37565 21.6243 2.18147 21.38 2.08C21.2598 2.02876 21.1307 2.00158 21 2H15C14.7348 2 14.4804 2.10536 14.2929 2.29289C14.1054 2.48043 14 2.73478 14 3C14 3.26522 14.1054 3.51957 14.2929 3.70711C14.4804 3.89464 14.7348 4 15 4H18.59L13.29 9.29C13.1963 9.38296 13.1219 9.49356 13.0711 9.61542C13.0203 9.73728 12.9942 9.86799 12.9942 10C12.9942 10.132 13.0203 10.2627 13.0711 10.3846C13.1219 10.5064 13.1963 10.617 13.29 10.71C13.383 10.8037 13.4936 10.8781 13.6154 10.9289C13.7373 10.9797 13.868 11.0058 14 11.0058C14.132 11.0058 14.2627 10.9797 14.3846 10.9289C14.5064 10.8781 14.617 10.8037 14.71 10.71L20 5.41V9C20 9.26522 20.1054 9.51957 20.2929 9.70711C20.4804 9.89464 20.7348 10 21 10C21.2652 10 21.5196 9.89464 21.7071 9.70711C21.8946 9.51957 22 9.26522 22 9V3C21.9984 2.86932 21.9712 2.74022 21.92 2.62Z" />
</svg>
