<svg width="24" height="24" viewBox="0 0 24 24" xmlns="http://www.w3.org/2000/svg">
<path d="M9.29079 7.14831C9.10454 7.33567 9 7.58912 9 7.85331C9 8.11749 9 8.64801 9 8.64801C9 8.64801 9 11.438 9 12.148C9 12.858 9 15.148 9 15.648C9 16.148 9 16.1291 9 16.3933C9 16.6575 9.10454 16.9109 9.29079 17.0983C9.38376 17.192 9.49436 17.2664 9.61622 17.3172C9.73808 17.368 9.86878 17.3941 10.0008 17.3941C10.1328 17.3941 10.2635 17.368 10.3854 17.3172C10.5072 17.2664 10.6178 17.192 10.7108 17.0983L14.9508 12.8583C15.0445 12.7653 15.1189 12.6547 15.1697 12.5329C15.2205 12.411 15.2466 12.2803 15.2466 12.1483C15.2466 12.0163 15.2205 11.8856 15.1697 11.7637C15.1189 11.6419 15.0445 11.5313 14.9508 11.4383L10.7108 7.14831C10.6178 7.05458 10.5072 6.98018 10.3854 6.92941C10.2635 6.87865 10.1328 6.85251 10.0008 6.85251C9.86878 6.85251 9.73807 6.87865 9.61622 6.92941C9.49436 6.98018 9.38376 7.05458 9.29079 7.14831Z" />
</svg>
