<svg width="24" height="24" viewBox="0 0 24 24" xmlns="http://www.w3.org/2000/svg">
<path d="M14.6904 6.63H7.69044L10.6104 3.71C10.7042 3.61704 10.7786 3.50644 10.8293 3.38458C10.8801 3.26272 10.9062 3.13201 10.9062 3C10.9062 2.86799 10.8801 2.73728 10.8293 2.61542C10.7786 2.49356 10.7042 2.38296 10.6104 2.29C10.4231 2.10375 10.1696 1.99921 9.90544 1.99921C9.64126 1.99921 9.38781 2.10375 9.20044 2.29L4.61044 6.92C4.51581 7.01421 4.44101 7.12641 4.39044 7.25C4.29043 7.49346 4.29043 7.76654 4.39044 8.01C4.4448 8.13153 4.51917 8.24308 4.61044 8.34L9.24044 13C9.42507 13.1884 9.67667 13.2962 9.94044 13.3C10.1391 13.3012 10.3335 13.2431 10.4991 13.1333C10.6646 13.0235 10.7936 12.8669 10.8698 12.6835C10.946 12.5 10.9658 12.2981 10.9267 12.1033C10.8877 11.9086 10.7915 11.7299 10.6504 11.59L7.73044 8.63H14.7304C15.5261 8.63 16.2892 8.94607 16.8518 9.50868C17.4144 10.0713 17.7304 10.8343 17.7304 11.63V21C17.7304 21.2652 17.8358 21.5196 18.0233 21.7071C18.2109 21.8946 18.4652 22 18.7304 22C18.9957 22 19.25 21.8946 19.4376 21.7071C19.6251 21.5196 19.7304 21.2652 19.7304 21V11.63C19.7305 10.97 19.5998 10.3165 19.3461 9.7073C19.0923 9.09805 18.7204 8.54507 18.2519 8.08025C17.7833 7.61543 17.2274 7.24797 16.6161 6.99906C16.0049 6.75015 15.3504 6.62472 14.6904 6.63Z" />
</svg>
