<svg width="24" height="24" viewBox="0 0 24 24" xmlns="http://www.w3.org/2000/svg">
<path d="M16.9958 14.7092C16.8084 14.8955 16.555 15 16.2908 15C16.0266 15 15.4961 15 15.4961 15C15.4961 15 12.7061 15 11.9961 15C11.2861 15 8.99609 15 8.49609 15C7.99609 15 8.01498 15 7.7508 15C7.48661 15 7.23316 14.8955 7.0458 14.7092C6.95207 14.6162 6.87768 14.5056 6.82691 14.3838C6.77614 14.2619 6.75 14.1312 6.75 13.9992C6.75 13.8672 6.77614 13.7365 6.82691 13.6146C6.87768 13.4928 6.95207 13.3822 7.0458 13.2892L11.2858 9.04921C11.3788 8.95548 11.4894 8.88108 11.6112 8.83032C11.7331 8.77955 11.8638 8.75341 11.9958 8.75341C12.1278 8.75341 12.2585 8.77955 12.3804 8.83032C12.5022 8.88108 12.6128 8.95548 12.7058 9.04921L16.9958 13.2892C17.0895 13.3822 17.1639 13.4928 17.2147 13.6146C17.2655 13.7365 17.2916 13.8672 17.2916 13.9992C17.2916 14.1312 17.2655 14.2619 17.2147 14.3838C17.1639 14.5056 17.0895 14.6162 16.9958 14.7092Z" />
</svg>
