<svg width="24" height="24" viewBox="0 0 24 24" xmlns="http://www.w3.org/2000/svg">
<path d="M12.71 8.29C12.6149 8.19896 12.5028 8.12759 12.38 8.08C12.1365 7.97998 11.8635 7.97998 11.62 8.08C11.4973 8.12759 11.3851 8.19896 11.29 8.29L8.29 11.29C8.1017 11.4783 7.99591 11.7337 7.99591 12C7.99591 12.2663 8.1017 12.5217 8.29 12.71C8.47831 12.8983 8.7337 13.0041 9 13.0041C9.26631 13.0041 9.5217 12.8983 9.71 12.71L11 11.41V15C11 15.2652 11.1054 15.5196 11.2929 15.7071C11.4804 15.8946 11.7348 16 12 16C12.2652 16 12.5196 15.8946 12.7071 15.7071C12.8946 15.5196 13 15.2652 13 15V11.41L14.29 12.71C14.383 12.8037 14.4936 12.8781 14.6154 12.9289C14.7373 12.9797 14.868 13.0058 15 13.0058C15.132 13.0058 15.2627 12.9797 15.3846 12.9289C15.5064 12.8781 15.617 12.8037 15.71 12.71C15.8037 12.617 15.8781 12.5064 15.9289 12.3846C15.9797 12.2627 16.0058 12.132 16.0058 12C16.0058 11.868 15.9797 11.7373 15.9289 11.6154C15.8781 11.4936 15.8037 11.383 15.71 11.29L12.71 8.29ZM12 2C10.0222 2 8.08879 2.58649 6.4443 3.6853C4.79981 4.78412 3.51809 6.3459 2.76121 8.17317C2.00433 10.0004 1.8063 12.0111 2.19215 13.9509C2.578 15.8907 3.53041 17.6725 4.92894 19.0711C6.32746 20.4696 8.10929 21.422 10.0491 21.8079C11.9889 22.1937 13.9996 21.9957 15.8268 21.2388C17.6541 20.4819 19.2159 19.2002 20.3147 17.5557C21.4135 15.9112 22 13.9778 22 12C22 10.6868 21.7413 9.38642 21.2388 8.17317C20.7363 6.95991 19.9997 5.85752 19.0711 4.92893C18.1425 4.00035 17.0401 3.26375 15.8268 2.7612C14.6136 2.25866 13.3132 2 12 2ZM12 20C10.4178 20 8.87104 19.5308 7.55544 18.6518C6.23985 17.7727 5.21447 16.5233 4.60897 15.0615C4.00347 13.5997 3.84504 11.9911 4.15372 10.4393C4.4624 8.88743 5.22433 7.46197 6.34315 6.34315C7.46197 5.22433 8.88743 4.4624 10.4393 4.15372C11.9911 3.84504 13.5997 4.00346 15.0615 4.60896C16.5233 5.21447 17.7727 6.23984 18.6518 7.55544C19.5308 8.87103 20 10.4177 20 12C20 14.1217 19.1572 16.1566 17.6569 17.6569C16.1566 19.1571 14.1217 20 12 20Z" />
</svg>
