<svg width="24" height="24" viewBox="0 0 24 24" xmlns="http://www.w3.org/2000/svg">
<path d="M10.2102 6.21L11.0002 5.41V10C11.0002 10.2652 11.1055 10.5196 11.2931 10.7071C11.4806 10.8946 11.735 11 12.0002 11C12.2654 11 12.5198 10.8946 12.7073 10.7071C12.8948 10.5196 13.0002 10.2652 13.0002 10V5.41L13.7902 6.21C13.8831 6.30373 13.9937 6.37813 14.1156 6.42889C14.2375 6.47966 14.3682 6.5058 14.5002 6.5058C14.6322 6.5058 14.7629 6.47966 14.8848 6.42889C15.0066 6.37813 15.1172 6.30373 15.2102 6.21C15.3039 6.11704 15.3783 6.00644 15.4291 5.88458C15.4798 5.76272 15.506 5.63201 15.506 5.5C15.506 5.36799 15.4798 5.23729 15.4291 5.11543C15.3783 4.99357 15.3039 4.88297 15.2102 4.79L12.7102 2.29C12.6151 2.19896 12.5029 2.1276 12.3802 2.08C12.1367 1.97999 11.8636 1.97999 11.6202 2.08C11.4974 2.1276 11.3853 2.19896 11.2902 2.29L8.79018 4.79C8.60188 4.97831 8.49609 5.2337 8.49609 5.5C8.49609 5.7663 8.60188 6.0217 8.79018 6.21C8.97849 6.39831 9.23388 6.5041 9.50019 6.5041C9.76649 6.5041 10.0219 6.39831 10.2102 6.21ZM13.7902 17.79L13.0002 18.59V14C13.0002 13.7348 12.8948 13.4804 12.7073 13.2929C12.5198 13.1054 12.2654 13 12.0002 13C11.735 13 11.4806 13.1054 11.2931 13.2929C11.1055 13.4804 11.0002 13.7348 11.0002 14V18.59L10.2102 17.79C10.1169 17.6968 10.0063 17.6228 9.88443 17.5723C9.76261 17.5219 9.63204 17.4959 9.50019 17.4959C9.36833 17.4959 9.23776 17.5219 9.11594 17.5723C8.99411 17.6228 8.88342 17.6968 8.79018 17.79C8.69695 17.8832 8.62299 17.9939 8.57253 18.1158C8.52206 18.2376 8.49609 18.3681 8.49609 18.5C8.49609 18.6319 8.52206 18.7624 8.57253 18.8843C8.62299 19.0061 8.69695 19.1168 8.79018 19.21L11.2902 21.71C11.3853 21.801 11.4974 21.8724 11.6202 21.92C11.7399 21.9729 11.8693 22.0002 12.0002 22.0002C12.1311 22.0002 12.2605 21.9729 12.3802 21.92C12.5029 21.8724 12.6151 21.801 12.7102 21.71L15.2102 19.21C15.3985 19.0217 15.5043 18.7663 15.5043 18.5C15.5043 18.2337 15.3985 17.9783 15.2102 17.79C15.0219 17.6017 14.7665 17.4959 14.5002 17.4959C14.2339 17.4959 13.9785 17.6017 13.7902 17.79Z" />
</svg>
