<svg width="24" height="24" viewBox="0 0 24 24" xmlns="http://www.w3.org/2000/svg">
<path d="M10.21 6.21L11 5.41V8C11 8.26522 11.1054 8.51957 11.2929 8.70711C11.4804 8.89465 11.7348 9 12 9C12.2652 9 12.5196 8.89465 12.7071 8.70711C12.8946 8.51957 13 8.26522 13 8V5.41L13.79 6.21C13.883 6.30373 13.9936 6.37813 14.1154 6.42889C14.2373 6.47966 14.368 6.5058 14.5 6.5058C14.632 6.5058 14.7627 6.47966 14.8846 6.42889C15.0064 6.37813 15.117 6.30373 15.21 6.21C15.3037 6.11704 15.3781 6.00644 15.4289 5.88458C15.4797 5.76272 15.5058 5.63201 15.5058 5.5C15.5058 5.36799 15.4797 5.23729 15.4289 5.11543C15.3781 4.99357 15.3037 4.88297 15.21 4.79L12.71 2.29C12.6149 2.19896 12.5028 2.1276 12.38 2.08C12.1365 1.97999 11.8635 1.97999 11.62 2.08C11.4972 2.1276 11.3851 2.19896 11.29 2.29L8.79 4.79C8.6017 4.97831 8.49591 5.2337 8.49591 5.5C8.49591 5.7663 8.6017 6.0217 8.79 6.21C8.9783 6.39831 9.2337 6.5041 9.5 6.5041C9.7663 6.5041 10.0217 6.39831 10.21 6.21ZM16 11H8C7.73478 11 7.48043 11.1054 7.29289 11.2929C7.10536 11.4804 7 11.7348 7 12C7 12.2652 7.10536 12.5196 7.29289 12.7071C7.48043 12.8946 7.73478 13 8 13H16C16.2652 13 16.5196 12.8946 16.7071 12.7071C16.8946 12.5196 17 12.2652 17 12C17 11.7348 16.8946 11.4804 16.7071 11.2929C16.5196 11.1054 16.2652 11 16 11ZM13.79 17.79L13 18.59V16C13 15.7348 12.8946 15.4804 12.7071 15.2929C12.5196 15.1054 12.2652 15 12 15C11.7348 15 11.4804 15.1054 11.2929 15.2929C11.1054 15.4804 11 15.7348 11 16V18.59L10.21 17.79C10.1168 17.6968 10.0061 17.6228 9.88425 17.5723C9.76243 17.5219 9.63186 17.4959 9.5 17.4959C9.36814 17.4959 9.23757 17.5219 9.11575 17.5723C8.99393 17.6228 8.88324 17.6968 8.79 17.79C8.69676 17.8832 8.6228 17.9939 8.57234 18.1158C8.52188 18.2376 8.49591 18.3681 8.49591 18.5C8.49591 18.6319 8.52188 18.7624 8.57234 18.8843C8.6228 19.0061 8.69676 19.1168 8.79 19.21L11.29 21.71C11.3851 21.801 11.4972 21.8724 11.62 21.92C11.7397 21.9729 11.8691 22.0002 12 22.0002C12.1309 22.0002 12.2603 21.9729 12.38 21.92C12.5028 21.8724 12.6149 21.801 12.71 21.71L15.21 19.21C15.3983 19.0217 15.5041 18.7663 15.5041 18.5C15.5041 18.2337 15.3983 17.9783 15.21 17.79C15.0217 17.6017 14.7663 17.4959 14.5 17.4959C14.2337 17.4959 13.9783 17.6017 13.79 17.79Z" />
</svg>
