<svg width="24" height="24" viewBox="0 0 24 24" xmlns="http://www.w3.org/2000/svg">
<path d="M16.2902 14.29L12.0002 18.59L7.71019 14.29C7.52188 14.1017 7.26649 13.9959 7.00019 13.9959C6.73388 13.9959 6.47849 14.1017 6.29019 14.29C6.10188 14.4783 5.99609 14.7337 5.99609 15C5.99609 15.2663 6.10188 15.5217 6.29019 15.71L11.2902 20.71C11.3831 20.8037 11.4937 20.8781 11.6156 20.9289C11.7375 20.9797 11.8682 21.0058 12.0002 21.0058C12.1322 21.0058 12.2629 20.9797 12.3848 20.9289C12.5066 20.8781 12.6172 20.8037 12.7102 20.71L17.7102 15.71C17.8034 15.6168 17.8774 15.5061 17.9278 15.3842C17.9783 15.2624 18.0043 15.1319 18.0043 15C18.0043 14.8681 17.9783 14.7376 17.9278 14.6158C17.8774 14.4939 17.8034 14.3832 17.7102 14.29C17.6169 14.1968 17.5063 14.1228 17.3844 14.0723C17.2626 14.0219 17.132 13.9959 17.0002 13.9959C16.8683 13.9959 16.7378 14.0219 16.6159 14.0723C16.4941 14.1228 16.3834 14.1968 16.2902 14.29ZM7.71019 9.71L12.0002 5.41L16.2902 9.71C16.3831 9.80373 16.4937 9.87812 16.6156 9.92889C16.7375 9.97966 16.8682 10.0058 17.0002 10.0058C17.1322 10.0058 17.2629 9.97966 17.3848 9.92889C17.5066 9.87812 17.6172 9.80373 17.7102 9.71C17.8039 9.61704 17.8783 9.50644 17.9291 9.38458C17.9798 9.26272 18.006 9.13201 18.006 9C18.006 8.86799 17.9798 8.73728 17.9291 8.61542C17.8783 8.49356 17.8039 8.38296 17.7102 8.29L12.7102 3.29C12.6172 3.19627 12.5066 3.12188 12.3848 3.07111C12.2629 3.02034 12.1322 2.9942 12.0002 2.9942C11.8682 2.9942 11.7375 3.02034 11.6156 3.07111C11.4937 3.12188 11.3831 3.19627 11.2902 3.29L6.29019 8.29C6.10188 8.4783 5.99609 8.7337 5.99609 9C5.99609 9.2663 6.10188 9.5217 6.29019 9.71C6.47849 9.8983 6.73388 10.0041 7.00019 10.0041C7.26649 10.0041 7.52188 9.8983 7.71019 9.71Z" />
</svg>
