<svg width="24" height="24" viewBox="0 0 24 24" xmlns="http://www.w3.org/2000/svg">
<path d="M15.2902 16.29L13.0002 18.59V5.41L15.2902 7.71C15.3831 7.80373 15.4937 7.87813 15.6156 7.92889C15.7375 7.97966 15.8682 8.0058 16.0002 8.0058C16.1322 8.0058 16.2629 7.97966 16.3848 7.92889C16.5066 7.87813 16.6172 7.80373 16.7102 7.71C16.8039 7.61704 16.8783 7.50644 16.9291 7.38458C16.9798 7.26272 17.006 7.13202 17.006 7C17.006 6.86799 16.9798 6.73729 16.9291 6.61543C16.8783 6.49357 16.8039 6.38297 16.7102 6.29L12.7102 2.29C12.6151 2.19896 12.5029 2.1276 12.3802 2.08C12.1367 1.97999 11.8636 1.97999 11.6202 2.08C11.4974 2.1276 11.3853 2.19896 11.2902 2.29L7.29019 6.29C7.19695 6.38324 7.12299 6.49393 7.07253 6.61575C7.02207 6.73758 6.99609 6.86814 6.99609 7C6.99609 7.13186 7.02207 7.26243 7.07253 7.38425C7.12299 7.50607 7.19695 7.61677 7.29019 7.71C7.38342 7.80324 7.49411 7.8772 7.61594 7.92766C7.73776 7.97812 7.86833 8.00409 8.00019 8.00409C8.13204 8.00409 8.26261 7.97812 8.38444 7.92766C8.50626 7.8772 8.61695 7.80324 8.71019 7.71L11.0002 5.41V18.59L8.71019 16.29C8.52188 16.1017 8.26649 15.9959 8.00019 15.9959C7.73388 15.9959 7.47849 16.1017 7.29019 16.29C7.10188 16.4783 6.99609 16.7337 6.99609 17C6.99609 17.2663 7.10188 17.5217 7.29019 17.71L11.2902 21.71C11.3853 21.801 11.4974 21.8724 11.6202 21.92C11.7399 21.9729 11.8693 22.0002 12.0002 22.0002C12.1311 22.0002 12.2605 21.9729 12.3802 21.92C12.5029 21.8724 12.6151 21.801 12.7102 21.71L16.7102 17.71C16.8985 17.5217 17.0043 17.2663 17.0043 17C17.0043 16.7337 16.8985 16.4783 16.7102 16.29C16.6169 16.1968 16.5063 16.1228 16.3844 16.0723C16.2626 16.0219 16.132 15.9959 16.0002 15.9959C15.7339 15.9959 15.4785 16.1017 15.2902 16.29Z" />
</svg>
