<svg width="24" height="24" viewBox="0 0 24 24" xmlns="http://www.w3.org/2000/svg">
<path d="M13.79 10.21C13.883 10.3037 13.9936 10.3781 14.1154 10.4289C14.2373 10.4797 14.368 10.5058 14.5 10.5058C14.632 10.5058 14.7627 10.4797 14.8846 10.4289C15.0064 10.3781 15.117 10.3037 15.21 10.21C15.3037 10.117 15.3781 10.0064 15.4289 9.88458C15.4797 9.76272 15.5058 9.63201 15.5058 9.5C15.5058 9.36799 15.4797 9.23728 15.4289 9.11542C15.3781 8.99356 15.3037 8.88296 15.21 8.79L12.71 6.29C12.6149 6.19896 12.5028 6.12759 12.38 6.08C12.1365 5.97998 11.8635 5.97998 11.62 6.08C11.4972 6.12759 11.3851 6.19896 11.29 6.29L8.79 8.79C8.6017 8.9783 8.49591 9.2337 8.49591 9.5C8.49591 9.7663 8.6017 10.0217 8.79 10.21C8.9783 10.3983 9.2337 10.5041 9.5 10.5041C9.7663 10.5041 10.0217 10.3983 10.21 10.21L11 9.41V14.59L10.21 13.79C10.0217 13.6017 9.7663 13.4959 9.5 13.4959C9.2337 13.4959 8.9783 13.6017 8.79 13.79C8.6017 13.9783 8.49591 14.2337 8.49591 14.5C8.49591 14.7663 8.6017 15.0217 8.79 15.21L11.29 17.71C11.3851 17.801 11.4972 17.8724 11.62 17.92C11.7397 17.9729 11.8691 18.0002 12 18.0002C12.1309 18.0002 12.2603 17.9729 12.38 17.92C12.5028 17.8724 12.6149 17.801 12.71 17.71L15.21 15.21C15.3983 15.0217 15.5041 14.7663 15.5041 14.5C15.5041 14.2337 15.3983 13.9783 15.21 13.79C15.0217 13.6017 14.7663 13.4959 14.5 13.4959C14.2337 13.4959 13.9783 13.6017 13.79 13.79L13 14.59V9.41L13.79 10.21ZM7 4H17C17.2652 4 17.5196 3.89464 17.7071 3.70711C17.8946 3.51957 18 3.26522 18 3C18 2.73478 17.8946 2.48043 17.7071 2.29289C17.5196 2.10536 17.2652 2 17 2H7C6.73478 2 6.48043 2.10536 6.29289 2.29289C6.10536 2.48043 6 2.73478 6 3C6 3.26522 6.10536 3.51957 6.29289 3.70711C6.48043 3.89464 6.73478 4 7 4ZM17 20H7C6.73478 20 6.48043 20.1054 6.29289 20.2929C6.10536 20.4804 6 20.7348 6 21C6 21.2652 6.10536 21.5196 6.29289 21.7071C6.48043 21.8946 6.73478 22 7 22H17C17.2652 22 17.5196 21.8946 17.7071 21.7071C17.8946 21.5196 18 21.2652 18 21C18 20.7348 17.8946 20.4804 17.7071 20.2929C17.5196 20.1054 17.2652 20 17 20Z" />
</svg>
